ISO-10303-21;
HEADER;
FILE_DESCRIPTION (( 'STEP AP203' ),
    '1' );
FILE_NAME ('angular contact ball bearing_68_din_DIN 628 - 7201B - 8-SI-NC-8_68_sldprt.STEP',
    '2026-07-12T11:27:36',
    ( '' ),
    ( '' ),
    'SwSTEP 2.0',
    'SolidWorks 2025',
    '' );
FILE_SCHEMA (( 'CONFIG_CONTROL_DESIGN' ));
ENDSEC;

DATA;
#1 = VERTEX_POINT ( 'NONE', #458 ) ;
#2 = SECURITY_CLASSIFICATION_LEVEL ( 'unclassified' ) ;
#3 = CARTESIAN_POINT ( 'NONE',  ( 4.400000000000000355, 0.000000000000000000, 0.000000000000000000 ) ) ;
#4 = VECTOR ( 'NONE', #54, 1000.000000000000000 ) ;
#5 = EDGE_CURVE ( 'NONE', #779, #220, #762, .T. ) ;
#6 = ORIENTED_EDGE ( 'NONE', *, *, #428, .F. ) ;
#7 = AXIS2_PLACEMENT_3D ( 'NONE', #223, #483, #215 ) ;
#8 = ORIENTED_EDGE ( 'NONE', *, *, #32, .F. ) ;
#9 = DIRECTION ( 'NONE',  ( 0.000000000000000000, 0.000000000000000000, -1.000000000000000000 ) ) ;
#10 = EDGE_LOOP ( 'NONE', ( #330, #669 ) ) ;
#11 = DIRECTION ( 'NONE',  ( 0.000000000000000000, 0.000000000000000000, -1.000000000000000000 ) ) ;
#12 = AXIS2_PLACEMENT_3D ( 'NONE', #189, #202, #710 ) ;
#13 = AXIS2_PLACEMENT_3D ( 'NONE', #121, #514, #182 ) ;
#14 = CARTESIAN_POINT ( 'NONE',  ( -4.399999999999997691, 7.347880794884118750E-16, 5.999999999999999112 ) ) ;
#15 = AXIS2_PLACEMENT_3D ( 'NONE', #791, #275, #799 ) ;
#16 = DIRECTION ( 'NONE',  ( 0.000000000000000000, 1.224646799147353207E-16, 1.000000000000000000 ) ) ;
#17 = ADVANCED_FACE ( 'NONE', ( #722 ), #572, .T. ) ;
#18 = CARTESIAN_POINT ( 'NONE',  ( 5.000000000000000888, 0.000000000000000000, 0.000000000000000000 ) ) ;
#19 = ORIENTED_EDGE ( 'NONE', *, *, #629, .T. ) ;
#20 = FACE_BOUND ( 'NONE', #797, .T. ) ;
#21 = EDGE_LOOP ( 'NONE', ( #300, #466, #270, #437 ) ) ;
#22 = DIRECTION ( 'NONE',  ( 0.000000000000000000, 1.224646799147352961E-16, 1.000000000000000000 ) ) ;
#23 = CARTESIAN_POINT ( 'NONE',  ( 0.000000000000000000, 0.000000000000000000, 0.000000000000000000 ) ) ;
#24 = EDGE_CURVE ( 'NONE', #810, #171, #730, .T. ) ;
#25 = CARTESIAN_POINT ( 'NONE',  ( 0.000000000000000000, 1.347111479062088405E-15, -11.00000000000000000 ) ) ;
#26 = CARTESIAN_POINT ( 'NONE',  ( -4.400000000000001243, 1.959434878635765131E-15, 16.00000000000000000 ) ) ;
#27 = EDGE_LOOP ( 'NONE', ( #538, #305 ) ) ;
#28 = FACE_OUTER_BOUND ( 'NONE', #782, .T. ) ;
#29 = CARTESIAN_POINT ( 'NONE',  ( 4.400000000000001243, 0.000000000000000000, 0.000000000000000000 ) ) ;
#30 = DIRECTION ( 'NONE',  ( 0.000000000000000000, 0.000000000000000000, -1.000000000000000000 ) ) ;
#31 = ORIENTED_EDGE ( 'NONE', *, *, #768, .T. ) ;
#32 = EDGE_CURVE ( 'NONE', #384, #160, #675, .T. ) ;
#33 = DIRECTION ( 'NONE',  ( 0.000000000000000000, 0.000000000000000000, -1.000000000000000000 ) ) ;
#34 = ORIENTED_EDGE ( 'NONE', *, *, #736, .F. ) ;
#35 = AXIS2_PLACEMENT_3D ( 'NONE', #177, #439, #250 ) ;
#36 = LINE ( 'NONE', #214, #128 ) ;
#37 = CARTESIAN_POINT ( 'NONE',  ( 4.400000000000001243, 0.000000000000000000, -16.00000000000000000 ) ) ;
#38 = EDGE_CURVE ( 'NONE', #191, #81, #295, .T. ) ;
#39 = ORIENTED_EDGE ( 'NONE', *, *, #744, .T. ) ;
#40 = CARTESIAN_POINT ( 'NONE',  ( -20.63749999999999929, 0.000000000000000000, 0.000000000000000000 ) ) ;
#41 = CARTESIAN_POINT ( 'NONE',  ( -2.598076211353316900, 0.000000000000000000, 0.000000000000000000 ) ) ;
#42 = EDGE_CURVE ( 'NONE', #648, #554, #467, .T. ) ;
#43 = ORIENTED_EDGE ( 'NONE', *, *, #120, .T. ) ;
#44 = DIRECTION ( 'NONE',  ( 0.000000000000000000, 0.000000000000000000, 1.000000000000000000 ) ) ;
#45 = EDGE_LOOP ( 'NONE', ( #652, #363, #31, #448 ) ) ;
#46 = ADVANCED_FACE ( 'NONE', ( #136 ), #523, .T. ) ;
#47 = AXIS2_PLACEMENT_3D ( 'NONE', #639, #126, #780 ) ;
#48 = CARTESIAN_POINT ( 'NONE',  ( 0.3864906208434974455, 0.000000000000000000, 8.024999999999996803 ) ) ;
#49 = PERSON_AND_ORGANIZATION ( #361, #122 ) ;
#50 = CARTESIAN_POINT ( 'NONE',  ( -20.63749999999999929, 0.000000000000000000, -5.999999999999999112 ) ) ;
#51 = ORIENTED_EDGE ( 'NONE', *, *, #42, .F. ) ;
#52 = CARTESIAN_POINT ( 'NONE',  ( -0.3864906208435106016, 0.000000000000000000, 0.000000000000000000 ) ) ;
#53 = DATE_AND_TIME ( #820, #537 ) ;
#54 = DIRECTION ( 'NONE',  ( 1.000000000000000000, 0.000000000000000000, 0.000000000000000000 ) ) ;
#55 = ORIENTED_EDGE ( 'NONE', *, *, #692, .T. ) ;
#56 = APPROVAL_ROLE ( '' ) ;
#57 = DIRECTION ( 'NONE',  ( 0.000000000000000000, 0.000000000000000000, -1.000000000000000000 ) ) ;
#58 = EDGE_CURVE ( 'NONE', #266, #771, #72, .T. ) ;
#59 = AXIS2_PLACEMENT_3D ( 'NONE', #155, #550, #804 ) ;
#60 = VERTEX_POINT ( 'NONE', #14 ) ;
#61 = DIRECTION ( 'NONE',  ( 0.000000000000000000, 0.000000000000000000, -1.000000000000000000 ) ) ;
#62 = EDGE_CURVE ( 'NONE', #802, #554, #259, .T. ) ;
#63 = ORIENTED_EDGE ( 'NONE', *, *, #180, .T. ) ;
#64 = CIRCLE ( 'NONE', #435, 0.5999999999999998668 ) ;
#65 = FACE_OUTER_BOUND ( 'NONE', #45, .T. ) ;
#66 = ORIENTED_EDGE ( 'NONE', *, *, #736, .T. ) ;
#67 = DIRECTION ( 'NONE',  ( 1.000000000000000000, 0.000000000000000000, 0.000000000000000000 ) ) ;
#68 = DIRECTION ( 'NONE',  ( 0.000000000000000000, 0.000000000000000000, 1.000000000000000000 ) ) ;
#69 = AXIS2_PLACEMENT_3D ( 'NONE', #474, #726, #618 ) ;
#70 = ADVANCED_FACE ( 'NONE', ( #263 ), #663, .T. ) ;
#71 = DIRECTION ( 'NONE',  ( 1.000000000000000000, 0.000000000000000000, 0.000000000000000000 ) ) ;
#72 = CIRCLE ( 'NONE', #634, 12.50000000000000000 ) ;
#73 = AXIS2_PLACEMENT_3D ( 'NONE', #113, #607, #33 ) ;
#74 = DIRECTION ( 'NONE',  ( 1.000000000000000000, 0.000000000000000000, 0.000000000000000000 ) ) ;
#75 = ORIENTED_EDGE ( 'NONE', *, *, #58, .T. ) ;
#76 = AXIS2_PLACEMENT_3D ( 'NONE', #535, #352, #614 ) ;
#77 = CARTESIAN_POINT ( 'NONE',  ( 0.3864906208434974455, 0.000000000000000000, 0.000000000000000000 ) ) ;
#78 = VERTEX_POINT ( 'NONE', #204 ) ;
#79 = CARTESIAN_POINT ( 'NONE',  ( -4.399999999999999467, 0.000000000000000000, 0.000000000000000000 ) ) ;
#80 = ADVANCED_FACE ( 'NONE', ( #299 ), #236, .T. ) ;
#81 = VERTEX_POINT ( 'NONE', #729 ) ;
#82 = AXIS2_PLACEMENT_3D ( 'NONE', #108, #697, #427 ) ;
#83 = DIRECTION ( 'NONE',  ( 0.000000000000000000, 0.000000000000000000, -1.000000000000000000 ) ) ;
#84 = CC_DESIGN_DATE_AND_TIME_ASSIGNMENT ( #243, #685, ( #294 ) ) ;
#85 = DIRECTION ( 'NONE',  ( 0.000000000000000000, 0.000000000000000000, -1.000000000000000000 ) ) ;
#86 = CIRCLE ( 'NONE', #500, 15.40000000000000036 ) ;
#87 = DIRECTION ( 'NONE',  ( -0.000000000000000000, 1.000000000000000000, 1.224646799147353207E-16 ) ) ;
#88 = DIRECTION ( 'NONE',  ( 0.000000000000000000, 0.000000000000000000, -1.000000000000000000 ) ) ;
#89 = DIRECTION ( 'NONE',  ( 0.000000000000000000, 0.000000000000000000, -1.000000000000000000 ) ) ;
#90 = ORIENTED_EDGE ( 'NONE', *, *, #5, .T. ) ;
#91 = FACE_OUTER_BOUND ( 'NONE', #27, .T. ) ;
#92 = CYLINDRICAL_SURFACE ( 'NONE', #7, 9.500000000000000000 ) ;
#93 = CARTESIAN_POINT ( 'NONE',  ( -20.63749999999999574, 0.000000000000000000, -16.00000000000000000 ) ) ;
#94 = ORIENTED_EDGE ( 'NONE', *, *, #640, .T. ) ;
#95 = EDGE_CURVE ( 'NONE', #78, #123, #539, .T. ) ;
#96 = DIRECTION ( 'NONE',  ( 1.000000000000000000, 0.000000000000000000, 0.000000000000000000 ) ) ;
#97 = ORIENTED_EDGE ( 'NONE', *, *, #365, .T. ) ;
#98 = AXIS2_PLACEMENT_3D ( 'NONE', #315, #630, #11 ) ;
#99 = DIRECTION ( 'NONE',  ( 0.000000000000000000, -1.000000000000000000, 0.000000000000000000 ) ) ;
#100 = CARTESIAN_POINT ( 'NONE',  ( 0.3864906208434974455, 1.256793777624971115E-15, -8.024999999999996803 ) ) ;
#101 = AXIS2_PLACEMENT_3D ( 'NONE', #25, #520, #201 ) ;
#102 = VECTOR ( 'NONE', #684, 1000.000000000000000 ) ;
#103 = ORIENTED_EDGE ( 'NONE', *, *, #515, .F. ) ;
#104 = CARTESIAN_POINT ( 'NONE',  ( 5.000000000000000888, 0.000000000000000000, -6.599999999999999645 ) ) ;
#105 = EDGE_CURVE ( 'NONE', #160, #623, #792, .T. ) ;
#106 = ORIENTED_EDGE ( 'NONE', *, *, #768, .F. ) ;
#107 = CARTESIAN_POINT ( 'NONE',  ( 5.000000000000000888, 0.000000000000000000, 0.000000000000000000 ) ) ;
#108 = CARTESIAN_POINT ( 'NONE',  ( 0.000000000000000000, 0.000000000000000000, 0.000000000000000000 ) ) ;
#109 = LINE ( 'NONE', #170, #269 ) ;
#110 = LOCAL_TIME ( 14, 57, 36.00000000000000000, #372 ) ;
#111 = EDGE_LOOP ( 'NONE', ( #631, #398, #90, #755 ) ) ;
#112 = DIRECTION ( 'NONE',  ( 0.000000000000000000, 0.000000000000000000, -1.000000000000000000 ) ) ;
#113 = CARTESIAN_POINT ( 'NONE',  ( -0.3864906208435106016, 0.000000000000000000, 0.000000000000000000 ) ) ;
#114 = CIRCLE ( 'NONE', #586, 13.97499999999999964 ) ;
#115 = ORIENTED_EDGE ( 'NONE', *, *, #62, .T. ) ;
#116 = PERSON_AND_ORGANIZATION ( #361, #122 ) ;
#117 = FACE_OUTER_BOUND ( 'NONE', #580, .T. ) ;
#118 = EDGE_LOOP ( 'NONE', ( #103, #612, #94, #778 ) ) ;
#119 = APPLICATION_PROTOCOL_DEFINITION ( 'international standard', 'config_control_design', 1994, #485 ) ;
#120 = EDGE_CURVE ( 'NONE', #183, #616, #432, .T. ) ;
#121 = CARTESIAN_POINT ( 'NONE',  ( -20.63749999999999574, 0.000000000000000000, 0.000000000000000000 ) ) ;
#122 = ORGANIZATION ( 'UNSPECIFIED', 'UNSPECIFIED', '' ) ;
#123 = VERTEX_POINT ( 'NONE', #493 ) ;
#124 = APPROVAL_STATUS ( 'not_yet_approved' ) ;
#125 = AXIS2_PLACEMENT_3D ( 'NONE', #570, #253, #317 ) ;
#126 = DIRECTION ( 'NONE',  ( 1.000000000000000000, 0.000000000000000000, 0.000000000000000000 ) ) ;
#127 = TOROIDAL_SURFACE ( 'NONE', #333, 6.599999999999999645, 0.6000000000000007550 ) ;
#128 = VECTOR ( 'NONE', #687, 1000.000000000000000 ) ;
#129 = EDGE_LOOP ( 'NONE', ( #200, #63, #656, #284 ) ) ;
#130 = AXIS2_PLACEMENT_3D ( 'NONE', #168, #430, #624 ) ;
#131 = PLANE ( 'NONE',  #584 ) ;
#132 = EDGE_CURVE ( 'NONE', #608, #665, #635, .T. ) ;
#133 = DIRECTION ( 'NONE',  ( 1.000000000000000000, 0.000000000000000000, 0.000000000000000000 ) ) ;
#134 = ORIENTED_EDGE ( 'NONE', *, *, #664, .F. ) ;
#135 = FACE_BOUND ( 'NONE', #776, .T. ) ;
#136 = FACE_OUTER_BOUND ( 'NONE', #484, .T. ) ;
#137 = VERTEX_POINT ( 'NONE', #404 ) ;
#138 = DIRECTION ( 'NONE',  ( 0.000000000000000000, 0.000000000000000000, -1.000000000000000000 ) ) ;
#139 = EDGE_CURVE ( 'NONE', #623, #814, #145, .T. ) ;
#140 = DIRECTION ( 'NONE',  ( 1.000000000000000000, 0.000000000000000000, 0.000000000000000000 ) ) ;
#141 = CARTESIAN_POINT ( 'NONE',  ( -20.63749999999999574, 0.000000000000000000, 0.000000000000000000 ) ) ;
#142 = CARTESIAN_POINT ( 'NONE',  ( -2.598076211353316900, 0.000000000000000000, 0.000000000000000000 ) ) ;
#143 = CC_DESIGN_SECURITY_CLASSIFICATION ( #294, ( #267 ) ) ;
#144 = DIRECTION ( 'NONE',  ( -1.000000000000000000, 0.000000000000000000, -0.000000000000000000 ) ) ;
#145 = CIRCLE ( 'NONE', #542, 16.00000000000000000 ) ;
#146 = DIRECTION ( 'NONE',  ( 0.000000000000000000, 0.000000000000000000, -1.000000000000000000 ) ) ;
#147 = AXIS2_PLACEMENT_3D ( 'NONE', #206, #150, #460 ) ;
#148 = AXIS2_PLACEMENT_3D ( 'NONE', #358, #676, #112 ) ;
#149 = ORIENTED_EDGE ( 'NONE', *, *, #480, .T. ) ;
#150 = DIRECTION ( 'NONE',  ( 1.000000000000000000, 0.000000000000000000, 0.000000000000000000 ) ) ;
#151 = DIRECTION ( 'NONE',  ( 1.000000000000000000, 0.000000000000000000, 0.000000000000000000 ) ) ;
#152 = EDGE_CURVE ( 'NONE', #665, #608, #524, .T. ) ;
#153 = ORIENTED_EDGE ( 'NONE', *, *, #544, .T. ) ;
#154 = CARTESIAN_POINT ( 'NONE',  ( -20.63749999999999574, 0.000000000000000000, -13.97499999999999964 ) ) ;
#155 = CARTESIAN_POINT ( 'NONE',  ( 0.000000000000000000, 0.000000000000000000, 0.000000000000000000 ) ) ;
#156 = CYLINDRICAL_SURFACE ( 'NONE', #185, 13.97499999999999964 ) ;
#157 = ORIENTED_EDGE ( 'NONE', *, *, #629, .F. ) ;
#158 = CYLINDRICAL_SURFACE ( 'NONE', #285, 5.999999999999999112 ) ;
#159 = AXIS2_PLACEMENT_3D ( 'NONE', #23, #327, #68 ) ;
#160 = VERTEX_POINT ( 'NONE', #26 ) ;
#161 = LINE ( 'NONE', #154, #721 ) ;
#162 = CYLINDRICAL_SURFACE ( 'NONE', #260, 16.00000000000000000 ) ;
#163 = AXIS2_PLACEMENT_3D ( 'NONE', #661, #87, #336 ) ;
#164 = EDGE_CURVE ( 'NONE', #691, #743, #646, .T. ) ;
#165 = ORIENTED_EDGE ( 'NONE', *, *, #58, .F. ) ;
#166 = DIRECTION ( 'NONE',  ( 0.000000000000000000, 0.000000000000000000, -1.000000000000000000 ) ) ;
#167 = EDGE_LOOP ( 'NONE', ( #711, #785, #498, #445 ) ) ;
#168 = CARTESIAN_POINT ( 'NONE',  ( 5.000000000000000888, 0.000000000000000000, 0.000000000000000000 ) ) ;
#169 = PERSON_AND_ORGANIZATION ( #361, #122 ) ;
#170 = CARTESIAN_POINT ( 'NONE',  ( -20.63749999999999929, 1.163414459189985485E-15, 9.500000000000000000 ) ) ;
#171 = VERTEX_POINT ( 'NONE', #334 ) ;
#172 = AXIS2_PLACEMENT_3D ( 'NONE', #801, #673, #532 ) ;
#173 = PERSON_AND_ORGANIZATION ( #361, #122 ) ;
#174 = DIRECTION ( 'NONE',  ( 1.000000000000000000, 0.000000000000000000, 0.000000000000000000 ) ) ;
#175 = ORIENTED_EDGE ( 'NONE', *, *, #188, .T. ) ;
#176 = EDGE_CURVE ( 'NONE', #1, #648, #109, .T. ) ;
#177 = CARTESIAN_POINT ( 'NONE',  ( -5.000000000000000888, 0.000000000000000000, 0.000000000000000000 ) ) ;
#178 = PRODUCT_DEFINITION_SHAPE ( 'NONE', 'NONE',  #403 ) ;
#179 = EDGE_LOOP ( 'NONE', ( #645, #653 ) ) ;
#180 = EDGE_CURVE ( 'NONE', #289, #521, #197, .T. ) ;
#181 = PERSON_AND_ORGANIZATION_ROLE ( 'classification_officer' ) ;
#182 = DIRECTION ( 'NONE',  ( 0.000000000000000000, 0.000000000000000000, -1.000000000000000000 ) ) ;
#183 = VERTEX_POINT ( 'NONE', #738 ) ;
#184 = AXIS2_PLACEMENT_3D ( 'NONE', #254, #527, #138 ) ;
#185 = AXIS2_PLACEMENT_3D ( 'NONE', #272, #412, #367 ) ;
#186 = CYLINDRICAL_SURFACE ( 'NONE', #47, 8.024999999999996803 ) ;
#187 = CIRCLE ( 'NONE', #706, 5.999999999999999112 ) ;
#188 = EDGE_CURVE ( 'NONE', #384, #814, #742, .T. ) ;
#189 = CARTESIAN_POINT ( 'NONE',  ( 4.399999999999999467, 8.082668874372531019E-16, 6.599999999999999645 ) ) ;
#190 = FACE_OUTER_BOUND ( 'NONE', #713, .T. ) ;
#191 = VERTEX_POINT ( 'NONE', #475 ) ;
#192 = CARTESIAN_POINT ( 'NONE',  ( -4.400000000000001243, 0.000000000000000000, -16.00000000000000000 ) ) ;
#193 = DIRECTION ( 'NONE',  ( 0.000000000000000000, 0.000000000000000000, -1.000000000000000000 ) ) ;
#194 = LOCAL_TIME ( 14, 57, 36.00000000000000000, #754 ) ;
#195 = EDGE_CURVE ( 'NONE', #183, #220, #758, .T. ) ;
#196 = DIRECTION ( 'NONE',  ( 0.000000000000000000, 1.000000000000000000, -1.224646799147353207E-16 ) ) ;
#197 = CIRCLE ( 'NONE', #705, 15.40000000000000036 ) ;
#198 = DIRECTION ( 'NONE',  ( 0.000000000000000000, 0.000000000000000000, -1.000000000000000000 ) ) ;
#199 = EDGE_CURVE ( 'NONE', #691, #171, #378, .T. ) ;
#200 = ORIENTED_EDGE ( 'NONE', *, *, #353, .F. ) ;
#201 = DIRECTION ( 'NONE',  ( 0.000000000000000000, -1.224646799147353454E-16, 1.000000000000000000 ) ) ;
#202 = DIRECTION ( 'NONE',  ( 0.000000000000000000, 1.000000000000000000, -1.224646799147353207E-16 ) ) ;
#203 = FACE_OUTER_BOUND ( 'NONE', #349, .T. ) ;
#204 = CARTESIAN_POINT ( 'NONE',  ( 5.000000000000000888, 0.000000000000000000, -15.40000000000000036 ) ) ;
#205 = ORIENTED_EDGE ( 'NONE', *, *, #32, .T. ) ;
#206 = CARTESIAN_POINT ( 'NONE',  ( -5.000000000000000888, 0.000000000000000000, 0.000000000000000000 ) ) ;
#207 = FACE_OUTER_BOUND ( 'NONE', #599, .T. ) ;
#208 = EDGE_CURVE ( 'NONE', #619, #440, #678, .T. ) ;
#209 = AXIS2_PLACEMENT_3D ( 'NONE', #579, #585, #9 ) ;
#210 = DIRECTION ( 'NONE',  ( 1.000000000000000000, 0.000000000000000000, 0.000000000000000000 ) ) ;
#211 = AXIS2_PLACEMENT_3D ( 'NONE', #658, #794, #530 ) ;
#212 = ORIENTED_EDGE ( 'NONE', *, *, #781, .T. ) ;
#213 = CIRCLE ( 'NONE', #708, 15.40000000000000036 ) ;
#214 = CARTESIAN_POINT ( 'NONE',  ( -20.63749999999999574, 1.711443901808426101E-15, 13.97499999999999964 ) ) ;
#215 = DIRECTION ( 'NONE',  ( 0.000000000000000000, 0.000000000000000000, -1.000000000000000000 ) ) ;
#216 = CARTESIAN_POINT ( 'NONE',  ( -20.63749999999999574, 1.959434878635765131E-15, 16.00000000000000000 ) ) ;
#217 = ORIENTED_EDGE ( 'NONE', *, *, #240, .T. ) ;
#218 = CARTESIAN_POINT ( 'NONE',  ( -5.000000000000000888, 0.000000000000000000, -13.97499999999999964 ) ) ;
#219 = FACE_OUTER_BOUND ( 'NONE', #118, .T. ) ;
#220 = VERTEX_POINT ( 'NONE', #821 ) ;
#221 = ADVANCED_FACE ( 'NONE', ( #283 ), #156, .F. ) ;
#222 = CARTESIAN_POINT ( 'NONE',  ( -5.000000000000000888, 0.000000000000000000, -6.599999999999999645 ) ) ;
#223 = CARTESIAN_POINT ( 'NONE',  ( -20.63749999999999929, 0.000000000000000000, 0.000000000000000000 ) ) ;
#224 = APPROVAL_PERSON_ORGANIZATION ( #499, #696, #235 ) ;
#225 = AXIS2_PLACEMENT_3D ( 'NONE', #451, #510, #788 ) ;
#226 = TOROIDAL_SURFACE ( 'NONE', #309, 6.599999999999999645, 0.6000000000000007550 ) ;
#227 = EDGE_LOOP ( 'NONE', ( #657, #149, #453, #752 ) ) ;
#228 = CIRCLE ( 'NONE', #647, 6.599999999999999645 ) ;
#229 = APPROVAL ( #124, 'UNSPECIFIED' ) ;
#230 = CARTESIAN_POINT ( 'NONE',  ( -20.63749999999999929, 0.000000000000000000, -8.024999999999996803 ) ) ;
#231 = COORDINATED_UNIVERSAL_TIME_OFFSET ( 3, 30, .AHEAD. ) ;
#232 = AXIS2_PLACEMENT_3D ( 'NONE', #803, #745, #411 ) ;
#233 = ORIENTED_EDGE ( 'NONE', *, *, #480, .F. ) ;
#234 = DIRECTION ( 'NONE',  ( 1.000000000000000000, 0.000000000000000000, 0.000000000000000000 ) ) ;
#235 = APPROVAL_ROLE ( '' ) ;
#236 = CYLINDRICAL_SURFACE ( 'NONE', #172, 16.00000000000000000 ) ;
#237 = ORIENTED_EDGE ( 'NONE', *, *, #105, .T. ) ;
#238 = CARTESIAN_POINT ( 'NONE',  ( -5.000000000000000888, 0.000000000000000000, 0.000000000000000000 ) ) ;
#239 = CIRCLE ( 'NONE', #306, 6.599999999999999645 ) ;
#240 = EDGE_CURVE ( 'NONE', #810, #771, #496, .T. ) ;
#241 = EDGE_LOOP ( 'NONE', ( #674, #568, #560, #529 ) ) ;
#242 = AXIS2_PLACEMENT_3D ( 'NONE', #470, #276, #796 ) ;
#243 = DATE_AND_TIME ( #769, #672 ) ;
#244 = AXIS2_PLACEMENT_3D ( 'NONE', #534, #196, #22 ) ;
#245 = FACE_OUTER_BOUND ( 'NONE', #167, .T. ) ;
#246 = CC_DESIGN_DATE_AND_TIME_ASSIGNMENT ( #637, #563, ( #403 ) ) ;
#247 = ORIENTED_EDGE ( 'NONE', *, *, #649, .F. ) ;
#248 = APPROVAL_ROLE ( '' ) ;
#249 = UNCERTAINTY_MEASURE_WITH_UNIT (LENGTH_MEASURE( 1.000000000000000082E-05 ), #671, 'distance_accuracy_value', 'NONE');
#250 = DIRECTION ( 'NONE',  ( 0.000000000000000000, 0.000000000000000000, -1.000000000000000000 ) ) ;
#251 = ORIENTED_EDGE ( 'NONE', *, *, #528, .T. ) ;
#252 = ADVANCED_FACE ( 'NONE', ( #770 ), #186, .T. ) ;
#253 = DIRECTION ( 'NONE',  ( -1.000000000000000000, -0.000000000000000000, -0.000000000000000000 ) ) ;
#254 = CARTESIAN_POINT ( 'NONE',  ( 4.399999999999999467, 0.000000000000000000, -6.599999999999999645 ) ) ;
#255 = CC_DESIGN_PERSON_AND_ORGANIZATION_ASSIGNMENT ( #169, #441, ( #296 ) ) ;
#256 = DIRECTION ( 'NONE',  ( 1.000000000000000000, 0.000000000000000000, 0.000000000000000000 ) ) ;
#257 = AXIS2_PLACEMENT_3D ( 'NONE', #77, #264, #540 ) ;
#258 = VECTOR ( 'NONE', #790, 1000.000000000000000 ) ;
#259 = LINE ( 'NONE', #516, #331 ) ;
#260 = AXIS2_PLACEMENT_3D ( 'NONE', #291, #795, #808 ) ;
#261 = ORIENTED_EDGE ( 'NONE', *, *, #604, .T. ) ;
#262 = CARTESIAN_POINT ( 'NONE',  ( -5.000000000000000888, 0.000000000000000000, 0.000000000000000000 ) ) ;
#263 = FACE_OUTER_BOUND ( 'NONE', #371, .T. ) ;
#264 = DIRECTION ( 'NONE',  ( -1.000000000000000000, -0.000000000000000000, -0.000000000000000000 ) ) ;
#265 = EDGE_CURVE ( 'NONE', #60, #183, #348, .T. ) ;
#266 = VERTEX_POINT ( 'NONE', #449 ) ;
#267 = PRODUCT_DEFINITION_FORMATION_WITH_SPECIFIED_SOURCE ( 'ANY', '', #296, .NOT_KNOWN. ) ;
#268 = DIRECTION ( 'NONE',  ( 0.000000000000000000, 0.000000000000000000, -1.000000000000000000 ) ) ;
#269 = VECTOR ( 'NONE', #210, 1000.000000000000000 ) ;
#270 = ORIENTED_EDGE ( 'NONE', *, *, #195, .T. ) ;
#271 = DIRECTION ( 'NONE',  ( 1.000000000000000000, 0.000000000000000000, 0.000000000000000000 ) ) ;
#272 = CARTESIAN_POINT ( 'NONE',  ( -20.63749999999999574, 0.000000000000000000, 0.000000000000000000 ) ) ;
#273 = ADVANCED_FACE ( 'NONE', ( #65 ), #401, .T. ) ;
#274 = CYLINDRICAL_SURFACE ( 'NONE', #611, 12.50000000000000000 ) ;
#275 = DIRECTION ( 'NONE',  ( -1.000000000000000000, -0.000000000000000000, -0.000000000000000000 ) ) ;
#276 = DIRECTION ( 'NONE',  ( -1.000000000000000000, -0.000000000000000000, -0.000000000000000000 ) ) ;
#277 = ORIENTED_EDGE ( 'NONE', *, *, #353, .T. ) ;
#278 =( GEOMETRIC_REPRESENTATION_CONTEXT ( 3 ) GLOBAL_UNCERTAINTY_ASSIGNED_CONTEXT ( ( #249 ) ) GLOBAL_UNIT_ASSIGNED_CONTEXT ( ( #671, #734, #280 ) ) REPRESENTATION_CONTEXT ( 'NONE', 'WORKASPACE' ) );
#279 = CARTESIAN_POINT ( 'NONE',  ( 4.399999999999997691, 0.000000000000000000, 0.000000000000000000 ) ) ;
#280 =( NAMED_UNIT ( * ) SI_UNIT ( $, .STERADIAN. ) SOLID_ANGLE_UNIT ( ) );
#281 = DESIGN_CONTEXT ( 'detailed design', #485, 'design' ) ;
#282 = AXIS2_PLACEMENT_3D ( 'NONE', #380, #712, #702 ) ;
#283 = FACE_OUTER_BOUND ( 'NONE', #339, .T. ) ;
#284 = ORIENTED_EDGE ( 'NONE', *, *, #567, .F. ) ;
#285 = AXIS2_PLACEMENT_3D ( 'NONE', #40, #96, #617 ) ;
#286 = DIRECTION ( 'NONE',  ( 1.000000000000000000, 0.000000000000000000, 0.000000000000000000 ) ) ;
#287 = DIRECTION ( 'NONE',  ( 0.000000000000000000, 0.000000000000000000, -1.000000000000000000 ) ) ;
#288 = ADVANCED_FACE ( 'NONE', ( #245 ), #508, .F. ) ;
#289 = VERTEX_POINT ( 'NONE', #694 ) ;
#290 = DIRECTION ( 'NONE',  ( 0.000000000000000000, -1.000000000000000000, 0.000000000000000000 ) ) ;
#291 = CARTESIAN_POINT ( 'NONE',  ( -20.63749999999999574, 0.000000000000000000, 0.000000000000000000 ) ) ;
#292 = ORIENTED_EDGE ( 'NONE', *, *, #208, .F. ) ;
#293 = DIRECTION ( 'NONE',  ( -1.000000000000000000, -0.000000000000000000, -0.000000000000000000 ) ) ;
#294 = SECURITY_CLASSIFICATION ( '', '', #2 ) ;
#295 = CIRCLE ( 'NONE', #12, 0.6000000000000007550 ) ;
#296 = PRODUCT ( 'angular contact ball bearing_68_din_DIN 628 - 7201B - 8-SI-NC-8_68_sldprt', 'angular contact ball bearing_68_din_DIN 628 - 7201B - 8-SI-NC-8_68_sldprt', '', ( #761 ) ) ;
#297 = ORIENTED_EDGE ( 'NONE', *, *, #120, .F. ) ;
#298 = CARTESIAN_POINT ( 'NONE',  ( -5.000000000000000888, 0.000000000000000000, 0.000000000000000000 ) ) ;
#299 = FACE_OUTER_BOUND ( 'NONE', #409, .T. ) ;
#300 = ORIENTED_EDGE ( 'NONE', *, *, #381, .F. ) ;
#301 = DIRECTION ( 'NONE',  ( 1.000000000000000000, 0.000000000000000000, 0.000000000000000000 ) ) ;
#302 = APPROVAL_STATUS ( 'not_yet_approved' ) ;
#303 = ADVANCED_FACE ( 'NONE', ( #387 ), #226, .T. ) ;
#304 = DIRECTION ( 'NONE',  ( 1.000000000000000000, 0.000000000000000000, 0.000000000000000000 ) ) ;
#305 = ORIENTED_EDGE ( 'NONE', *, *, #789, .T. ) ;
#306 = AXIS2_PLACEMENT_3D ( 'NONE', #407, #746, #531 ) ;
#307 = CARTESIAN_POINT ( 'NONE',  ( -20.63749999999999929, 0.000000000000000000, 0.000000000000000000 ) ) ;
#308 = ORIENTED_EDGE ( 'NONE', *, *, #180, .F. ) ;
#309 = AXIS2_PLACEMENT_3D ( 'NONE', #517, #256, #61 ) ;
#310 = TOROIDAL_SURFACE ( 'NONE', #690, 6.599999999999999645, 0.6000000000000007550 ) ;
#311 = CYLINDRICAL_SURFACE ( 'NONE', #13, 13.97499999999999964 ) ;
#312 = CIRCLE ( 'NONE', #130, 12.50000000000000000 ) ;
#313 = ADVANCED_FACE ( 'NONE', ( #117 ), #622, .T. ) ;
#314 = ORIENTED_EDGE ( 'NONE', *, *, #428, .T. ) ;
#315 = CARTESIAN_POINT ( 'NONE',  ( -20.63749999999999929, 0.000000000000000000, 0.000000000000000000 ) ) ;
#316 = ORIENTED_EDGE ( 'NONE', *, *, #469, .F. ) ;
#317 = DIRECTION ( 'NONE',  ( 0.000000000000000000, 0.000000000000000000, 1.000000000000000000 ) ) ;
#318 = DIRECTION ( 'NONE',  ( 1.000000000000000000, 0.000000000000000000, 0.000000000000000000 ) ) ;
#319 = ADVANCED_BREP_SHAPE_REPRESENTATION ( 'angular contact ball bearing_68_din_DIN 628 - 7201B - 8-SI-NC-8_68_sldprt', ( #376, #82 ), #278 ) ;
#320 = ADVANCED_FACE ( 'NONE', ( #709 ), #311, .F. ) ;
#321 = DIRECTION ( 'NONE',  ( 0.000000000000000000, 1.000000000000000000, -1.224646799147353207E-16 ) ) ;
#322 = CIRCLE ( 'NONE', #101, 3.000000000000000888 ) ;
#323 = EDGE_LOOP ( 'NONE', ( #34, #747, #261, #589 ) ) ;
#324 = AXIS2_PLACEMENT_3D ( 'NONE', #601, #541, #287 ) ;
#325 = CARTESIAN_POINT ( 'NONE',  ( -20.63749999999999929, 9.827790563157505106E-16, 8.024999999999996803 ) ) ;
#326 = ADVANCED_FACE ( 'NONE', ( #505 ), #444, .F. ) ;
#327 = DIRECTION ( 'NONE',  ( -1.000000000000000000, -0.000000000000000000, -0.000000000000000000 ) ) ;
#328 = PLANE ( 'NONE',  #735 ) ;
#329 = PRODUCT_RELATED_PRODUCT_CATEGORY ( 'detail', '', ( #296 ) ) ;
#330 = ORIENTED_EDGE ( 'NONE', *, *, #817, .F. ) ;
#331 = VECTOR ( 'NONE', #74, 1000.000000000000000 ) ;
#332 = DIRECTION ( 'NONE',  ( 1.000000000000000000, 0.000000000000000000, 0.000000000000000000 ) ) ;
#333 = AXIS2_PLACEMENT_3D ( 'NONE', #525, #140, #392 ) ;
#334 = CARTESIAN_POINT ( 'NONE',  ( 2.598076211353315568, 0.000000000000000000, 12.50000000000000000 ) ) ;
#335 = ADVANCED_FACE ( 'NONE', ( #135, #582 ), #131, .T. ) ;
#336 = DIRECTION ( 'NONE',  ( 0.000000000000000000, -1.224646799147353454E-16, 1.000000000000000000 ) ) ;
#337 = CARTESIAN_POINT ( 'NONE',  ( 2.598076211353315568, 1.530808498934191521E-15, -12.50000000000000000 ) ) ;
#338 = DIRECTION ( 'NONE',  ( 1.000000000000000000, 0.000000000000000000, 0.000000000000000000 ) ) ;
#339 = EDGE_LOOP ( 'NONE', ( #433, #251, #519, #247 ) ) ;
#340 = PLANE ( 'NONE',  #719 ) ;
#341 = CARTESIAN_POINT ( 'NONE',  ( 4.400000000000000355, 1.885956070686923806E-15, 15.40000000000000036 ) ) ;
#342 = DIRECTION ( 'NONE',  ( 0.000000000000000000, -1.000000000000000000, 0.000000000000000000 ) ) ;
#343 = AXIS2_PLACEMENT_3D ( 'NONE', #751, #356, #88 ) ;
#344 = ORIENTED_EDGE ( 'NONE', *, *, #664, .T. ) ;
#345 = DIRECTION ( 'NONE',  ( 1.000000000000000000, 0.000000000000000000, 0.000000000000000000 ) ) ;
#346 = DIRECTION ( 'NONE',  ( 0.000000000000000000, 1.224646799147353207E-16, 1.000000000000000000 ) ) ;
#347 = ADVANCED_FACE ( 'NONE', ( #190 ), #643, .T. ) ;
#348 = CIRCLE ( 'NONE', #282, 5.999999999999999112 ) ;
#349 = EDGE_LOOP ( 'NONE', ( #157, #308 ) ) ;
#350 = TOROIDAL_SURFACE ( 'NONE', #457, 15.40000000000000036, 0.6000000000000007550 ) ;
#351 = CARTESIAN_POINT ( 'NONE',  ( -4.400000000000000355, 0.000000000000000000, -15.40000000000000036 ) ) ;
#352 = DIRECTION ( 'NONE',  ( 1.000000000000000000, 0.000000000000000000, 0.000000000000000000 ) ) ;
#353 = EDGE_CURVE ( 'NONE', #289, #160, #680, .T. ) ;
#354 = ORIENTED_EDGE ( 'NONE', *, *, #781, .F. ) ;
#355 = CARTESIAN_POINT ( 'NONE',  ( -4.400000000000000355, 0.000000000000000000, 0.000000000000000000 ) ) ;
#356 = DIRECTION ( 'NONE',  ( 1.000000000000000000, 0.000000000000000000, 0.000000000000000000 ) ) ;
#357 = EDGE_LOOP ( 'NONE', ( #19, #277, #8, #429 ) ) ;
#358 = CARTESIAN_POINT ( 'NONE',  ( 4.399999999999997691, 0.000000000000000000, 0.000000000000000000 ) ) ;
#359 = PERSON_AND_ORGANIZATION_ROLE ( 'design_supplier' ) ;
#360 = CC_DESIGN_APPROVAL ( #229, ( #403 ) ) ;
#361 = PERSON ( 'UNSPECIFIED', 'UNSPECIFIED', 'UNSPECIFIED', ('UNSPECIFIED'), ('UNSPECIFIED'), ('UNSPECIFIED') ) ;
#362 = DIRECTION ( 'NONE',  ( 1.000000000000000000, 0.000000000000000000, 0.000000000000000000 ) ) ;
#363 = ORIENTED_EDGE ( 'NONE', *, *, #515, .T. ) ;
#364 = TOROIDAL_SURFACE ( 'NONE', #786, 6.599999999999999645, 0.6000000000000007550 ) ;
#365 = EDGE_CURVE ( 'NONE', #616, #137, #228, .T. ) ;
#366 = DIRECTION ( 'NONE',  ( 0.000000000000000000, 0.000000000000000000, -1.000000000000000000 ) ) ;
#367 = DIRECTION ( 'NONE',  ( 0.000000000000000000, 0.000000000000000000, -1.000000000000000000 ) ) ;
#368 = EDGE_LOOP ( 'NONE', ( #316, #533, #344, #551 ) ) ;
#369 = COORDINATED_UNIVERSAL_TIME_OFFSET ( 3, 30, .AHEAD. ) ;
#370 = CARTESIAN_POINT ( 'NONE',  ( -5.000000000000000888, 9.500000000000000000, 0.000000000000000000 ) ) ;
#371 = EDGE_LOOP ( 'NONE', ( #724, #452, #106, #578 ) ) ;
#372 = COORDINATED_UNIVERSAL_TIME_OFFSET ( 3, 30, .AHEAD. ) ;
#373 = APPROVAL_PERSON_ORGANIZATION ( #701, #229, #248 ) ;
#374 = CARTESIAN_POINT ( 'NONE',  ( -20.63749999999999929, 7.347880794884118750E-16, 5.999999999999999112 ) ) ;
#375 = EDGE_CURVE ( 'NONE', #1, #802, #402, .T. ) ;
#376 = MANIFOLD_SOLID_BREP ( 'OuterRace', #509 ) ;
#377 = ORIENTED_EDGE ( 'NONE', *, *, #164, .F. ) ;
#378 = CIRCLE ( 'NONE', #573, 3.000000000000000888 ) ;
#379 = CALENDAR_DATE ( 2026, 12, 7 ) ;
#380 = CARTESIAN_POINT ( 'NONE',  ( -4.399999999999997691, 0.000000000000000000, 0.000000000000000000 ) ) ;
#381 = EDGE_CURVE ( 'NONE', #60, #81, #698, .T. ) ;
#382 = CIRCLE ( 'NONE', #813, 16.00000000000000000 ) ;
#383 = CIRCLE ( 'NONE', #638, 16.00000000000000000 ) ;
#384 = VERTEX_POINT ( 'NONE', #192 ) ;
#385 = DIRECTION ( 'NONE',  ( -1.000000000000000000, 0.000000000000000000, -0.000000000000000000 ) ) ;
#386 = ORIENTED_EDGE ( 'NONE', *, *, #571, .F. ) ;
#387 = FACE_OUTER_BOUND ( 'NONE', #241, .T. ) ;
#388 = ORIENTED_EDGE ( 'NONE', *, *, #396, .F. ) ;
#389 = ADVANCED_FACE ( 'NONE', ( #91, #733 ), #462, .T. ) ;
#390 = FACE_OUTER_BOUND ( 'NONE', #699, .T. ) ;
#391 = ORIENTED_EDGE ( 'NONE', *, *, #692, .F. ) ;
#392 = DIRECTION ( 'NONE',  ( 0.000000000000000000, 0.000000000000000000, -1.000000000000000000 ) ) ;
#393 = DIRECTION ( 'NONE',  ( 1.000000000000000000, 0.000000000000000000, 0.000000000000000000 ) ) ;
#394 = ORIENTED_EDGE ( 'NONE', *, *, #469, .T. ) ;
#395 = DIRECTION ( 'NONE',  ( 1.000000000000000000, 0.000000000000000000, 0.000000000000000000 ) ) ;
#396 = EDGE_CURVE ( 'NONE', #802, #1, #512, .T. ) ;
#397 = DIRECTION ( 'NONE',  ( 0.000000000000000000, 0.000000000000000000, -1.000000000000000000 ) ) ;
#398 = ORIENTED_EDGE ( 'NONE', *, *, #679, .T. ) ;
#399 = DIRECTION ( 'NONE',  ( -0.000000000000000000, 0.000000000000000000, 1.000000000000000000 ) ) ;
#400 = DIRECTION ( 'NONE',  ( 0.000000000000000000, 0.000000000000000000, -1.000000000000000000 ) ) ;
#401 = TOROIDAL_SURFACE ( 'NONE', #125, 11.00000000000000000, 3.000000000000000444 ) ;
#402 = CIRCLE ( 'NONE', #35, 9.500000000000000000 ) ;
#403 = PRODUCT_DEFINITION ( 'UNKNOWN', '', #267, #281 ) ;
#404 = CARTESIAN_POINT ( 'NONE',  ( -5.000000000000000888, 8.082668874372531019E-16, 6.599999999999999645 ) ) ;
#405 = ORIENTED_EDGE ( 'NONE', *, *, #152, .T. ) ;
#406 = FACE_OUTER_BOUND ( 'NONE', #707, .T. ) ;
#407 = CARTESIAN_POINT ( 'NONE',  ( 5.000000000000000888, 0.000000000000000000, 0.000000000000000000 ) ) ;
#408 = CARTESIAN_POINT ( 'NONE',  ( -5.000000000000000888, 0.000000000000000000, 0.000000000000000000 ) ) ;
#409 = EDGE_LOOP ( 'NONE', ( #731, #413, #175, #502 ) ) ;
#410 = ADVANCED_FACE ( 'NONE', ( #28 ), #274, .F. ) ;
#411 = DIRECTION ( 'NONE',  ( 0.000000000000000000, 0.000000000000000000, -1.000000000000000000 ) ) ;
#412 = DIRECTION ( 'NONE',  ( 1.000000000000000000, 0.000000000000000000, 0.000000000000000000 ) ) ;
#413 = ORIENTED_EDGE ( 'NONE', *, *, #567, .T. ) ;
#414 = EDGE_CURVE ( 'NONE', #743, #691, #575, .T. ) ;
#415 = CARTESIAN_POINT ( 'NONE',  ( 2.598076211353316012, 0.000000000000000000, 0.000000000000000000 ) ) ;
#416 = DIRECTION ( 'NONE',  ( 0.000000000000000000, 0.000000000000000000, -1.000000000000000000 ) ) ;
#417 = AXIS2_PLACEMENT_3D ( 'NONE', #689, #151, #85 ) ;
#418 = VECTOR ( 'NONE', #455, 1000.000000000000000 ) ;
#419 = ORIENTED_EDGE ( 'NONE', *, *, #497, .F. ) ;
#420 = TOROIDAL_SURFACE ( 'NONE', #15, 11.00000000000000000, 3.000000000000000444 ) ;
#421 = AXIS2_PLACEMENT_3D ( 'NONE', #107, #234, #620 ) ;
#422 = FACE_OUTER_BOUND ( 'NONE', #129, .T. ) ;
#423 = FACE_OUTER_BOUND ( 'NONE', #627, .T. ) ;
#424 = TOROIDAL_SURFACE ( 'NONE', #324, 15.40000000000000036, 0.6000000000000007550 ) ;
#425 = ORIENTED_EDGE ( 'NONE', *, *, #188, .F. ) ;
#426 = CARTESIAN_POINT ( 'NONE',  ( -0.3864906208435106572, 0.000000000000000000, 13.97499999999999964 ) ) ;
#427 = DIRECTION ( 'NONE',  ( 1.000000000000000000, 0.000000000000000000, 0.000000000000000000 ) ) ;
#428 = EDGE_CURVE ( 'NONE', #60, #137, #732, .T. ) ;
#429 = ORIENTED_EDGE ( 'NONE', *, *, #592, .F. ) ;
#430 = DIRECTION ( 'NONE',  ( 1.000000000000000000, 0.000000000000000000, 0.000000000000000000 ) ) ;
#431 = DIRECTION ( 'NONE',  ( 1.000000000000000000, 0.000000000000000000, 0.000000000000000000 ) ) ;
#432 = CIRCLE ( 'NONE', #784, 0.6000000000000007550 ) ;
#433 = ORIENTED_EDGE ( 'NONE', *, *, #152, .F. ) ;
#434 = CALENDAR_DATE ( 2026, 12, 7 ) ;
#435 = AXIS2_PLACEMENT_3D ( 'NONE', #798, #99, #613 ) ;
#436 = DIRECTION ( 'NONE',  ( 0.000000000000000000, 0.000000000000000000, -1.000000000000000000 ) ) ;
#437 = ORIENTED_EDGE ( 'NONE', *, *, #438, .T. ) ;
#438 = EDGE_CURVE ( 'NONE', #220, #81, #187, .T. ) ;
#439 = DIRECTION ( 'NONE',  ( 1.000000000000000000, 0.000000000000000000, 0.000000000000000000 ) ) ;
#440 = VERTEX_POINT ( 'NONE', #725 ) ;
#441 = PERSON_AND_ORGANIZATION_ROLE ( 'design_owner' ) ;
#442 = CC_DESIGN_PERSON_AND_ORGANIZATION_ASSIGNMENT ( #173, #359, ( #267 ) ) ;
#443 = CIRCLE ( 'NONE', #69, 8.024999999999996803 ) ;
#444 = CYLINDRICAL_SURFACE ( 'NONE', #209, 12.50000000000000000 ) ;
#445 = ORIENTED_EDGE ( 'NONE', *, *, #195, .F. ) ;
#446 = CIRCLE ( 'NONE', #163, 3.000000000000000888 ) ;
#447 = AXIS2_PLACEMENT_3D ( 'NONE', #351, #756, #166 ) ;
#448 = ORIENTED_EDGE ( 'NONE', *, *, #640, .F. ) ;
#449 = CARTESIAN_POINT ( 'NONE',  ( 5.000000000000000888, 1.530808498934191521E-15, 12.50000000000000000 ) ) ;
#450 = ADVANCED_FACE ( 'NONE', ( #390 ), #310, .T. ) ;
#451 = CARTESIAN_POINT ( 'NONE',  ( 2.598076211353316012, 0.000000000000000000, 0.000000000000000000 ) ) ;
#452 = ORIENTED_EDGE ( 'NONE', *, *, #176, .T. ) ;
#453 = ORIENTED_EDGE ( 'NONE', *, *, #24, .T. ) ;
#454 = AXIS2_PLACEMENT_3D ( 'NONE', #3, #67, #57 ) ;
#455 = DIRECTION ( 'NONE',  ( 1.000000000000000000, 0.000000000000000000, 0.000000000000000000 ) ) ;
#456 = APPLICATION_CONTEXT ( 'configuration controlled 3d designs of mechanical parts and assemblies' ) ;
#457 = AXIS2_PLACEMENT_3D ( 'NONE', #355, #301, #556 ) ;
#458 = CARTESIAN_POINT ( 'NONE',  ( -5.000000000000000888, 1.163414459189985485E-15, 9.500000000000000000 ) ) ;
#459 = ADVANCED_FACE ( 'NONE', ( #406 ), #364, .T. ) ;
#460 = DIRECTION ( 'NONE',  ( 0.000000000000000000, 0.000000000000000000, -1.000000000000000000 ) ) ;
#461 = DIRECTION ( 'NONE',  ( 1.000000000000000000, 0.000000000000000000, 0.000000000000000000 ) ) ;
#462 = PLANE ( 'NONE',  #211 ) ;
#463 = CARTESIAN_POINT ( 'NONE',  ( 5.000000000000000888, 0.000000000000000000, -12.50000000000000000 ) ) ;
#464 = CARTESIAN_POINT ( 'NONE',  ( 5.000000000000000888, 0.000000000000000000, 0.000000000000000000 ) ) ;
#465 = LOCAL_TIME ( 14, 57, 36.00000000000000000, #369 ) ;
#466 = ORIENTED_EDGE ( 'NONE', *, *, #744, .F. ) ;
#467 = CIRCLE ( 'NONE', #704, 9.500000000000000000 ) ;
#468 = DIRECTION ( 'NONE',  ( 1.000000000000000000, 0.000000000000000000, 0.000000000000000000 ) ) ;
#469 = EDGE_CURVE ( 'NONE', #691, #695, #650, .T. ) ;
#470 = CARTESIAN_POINT ( 'NONE',  ( 0.3864906208434974455, 0.000000000000000000, 0.000000000000000000 ) ) ;
#471 = AXIS2_PLACEMENT_3D ( 'NONE', #415, #286, #44 ) ;
#472 = ORIENTED_EDGE ( 'NONE', *, *, #718, .T. ) ;
#473 = CARTESIAN_POINT ( 'NONE',  ( 4.400000000000001243, 1.959434878635765131E-15, 16.00000000000000000 ) ) ;
#474 = CARTESIAN_POINT ( 'NONE',  ( 5.000000000000000888, 0.000000000000000000, 0.000000000000000000 ) ) ;
#475 = CARTESIAN_POINT ( 'NONE',  ( 5.000000000000000888, 8.082668874372531019E-16, 6.599999999999999645 ) ) ;
#476 = ADVANCED_FACE ( 'NONE', ( #588, #20 ), #340, .T. ) ;
#477 = EDGE_LOOP ( 'NONE', ( #388, #506 ) ) ;
#478 = DIRECTION ( 'NONE',  ( 1.000000000000000000, 0.000000000000000000, 0.000000000000000000 ) ) ;
#479 = DIRECTION ( 'NONE',  ( 1.000000000000000000, 0.000000000000000000, 0.000000000000000000 ) ) ;
#480 = EDGE_CURVE ( 'NONE', #743, #810, #322, .T. ) ;
#481 = ORIENTED_EDGE ( 'NONE', *, *, #176, .F. ) ;
#482 = DIRECTION ( 'NONE',  ( 0.000000000000000000, 0.000000000000000000, -1.000000000000000000 ) ) ;
#483 = DIRECTION ( 'NONE',  ( 1.000000000000000000, 0.000000000000000000, 0.000000000000000000 ) ) ;
#484 = EDGE_LOOP ( 'NONE', ( #233, #636, #547, #153 ) ) ;
#485 = APPLICATION_CONTEXT ( 'configuration controlled 3d designs of mechanical parts and assemblies' ) ;
#486 = CARTESIAN_POINT ( 'NONE',  ( -5.000000000000000888, 0.000000000000000000, -15.40000000000000036 ) ) ;
#487 = PERSON_AND_ORGANIZATION_ROLE ( 'creator' ) ;
#488 = ADVANCED_FACE ( 'NONE', ( #783 ), #127, .T. ) ;
#489 = ORIENTED_EDGE ( 'NONE', *, *, #497, .T. ) ;
#490 = CARTESIAN_POINT ( 'NONE',  ( -2.598076211353316900, 0.000000000000000000, -9.500000000000000000 ) ) ;
#491 = SHAPE_DEFINITION_REPRESENTATION ( #178, #319 ) ;
#492 = CC_DESIGN_PERSON_AND_ORGANIZATION_ASSIGNMENT ( #49, #181, ( #294 ) ) ;
#493 = CARTESIAN_POINT ( 'NONE',  ( 5.000000000000000888, 1.922695474661344271E-15, 15.40000000000000036 ) ) ;
#494 = ORIENTED_EDGE ( 'NONE', *, *, #240, .F. ) ;
#495 = COORDINATED_UNIVERSAL_TIME_OFFSET ( 3, 30, .AHEAD. ) ;
#496 = LINE ( 'NONE', #763, #717 ) ;
#497 = EDGE_CURVE ( 'NONE', #171, #266, #720, .T. ) ;
#498 = ORIENTED_EDGE ( 'NONE', *, *, #522, .T. ) ;
#499 = PERSON_AND_ORGANIZATION ( #361, #122 ) ;
#500 = AXIS2_PLACEMENT_3D ( 'NONE', #298, #670, #482 ) ;
#501 = CARTESIAN_POINT ( 'NONE',  ( -4.400000000000000355, 1.885956070686923806E-15, 15.40000000000000036 ) ) ;
#502 = ORIENTED_EDGE ( 'NONE', *, *, #139, .F. ) ;
#503 = ADVANCED_FACE ( 'NONE', ( #654, #203 ), #328, .T. ) ;
#504 = PERSON_AND_ORGANIZATION ( #361, #122 ) ;
#505 = FACE_OUTER_BOUND ( 'NONE', #806, .T. ) ;
#506 = ORIENTED_EDGE ( 'NONE', *, *, #375, .F. ) ;
#507 = TOROIDAL_SURFACE ( 'NONE', #59, 11.00000000000000000, 3.000000000000000444 ) ;
#508 = CYLINDRICAL_SURFACE ( 'NONE', #98, 5.999999999999999112 ) ;
#509 = CLOSED_SHELL ( 'NONE', ( #313, #714, #17, #221, #410, #273, #459, #288, #303, #70, #347, #805, #46, #252, #759, #389, #488, #615, #450, #335, #728, #326, #320, #655, #80, #703, #476, #503 ) ) ;
#510 = DIRECTION ( 'NONE',  ( 1.000000000000000000, 0.000000000000000000, 0.000000000000000000 ) ) ;
#511 = VECTOR ( 'NONE', #174, 1000.000000000000000 ) ;
#512 = CIRCLE ( 'NONE', #147, 9.500000000000000000 ) ;
#513 = CIRCLE ( 'NONE', #471, 12.50000000000000000 ) ;
#514 = DIRECTION ( 'NONE',  ( 1.000000000000000000, 0.000000000000000000, 0.000000000000000000 ) ) ;
#515 = EDGE_CURVE ( 'NONE', #440, #554, #446, .T. ) ;
#516 = CARTESIAN_POINT ( 'NONE',  ( -20.63749999999999929, 0.000000000000000000, -9.500000000000000000 ) ) ;
#517 = CARTESIAN_POINT ( 'NONE',  ( 4.399999999999999467, 0.000000000000000000, 0.000000000000000000 ) ) ;
#518 = CC_DESIGN_PERSON_AND_ORGANIZATION_ASSIGNMENT ( #632, #688, ( #267 ) ) ;
#519 = ORIENTED_EDGE ( 'NONE', *, *, #555, .F. ) ;
#520 = DIRECTION ( 'NONE',  ( -0.000000000000000000, 1.000000000000000000, 1.224646799147353207E-16 ) ) ;
#521 = VERTEX_POINT ( 'NONE', #486 ) ;
#522 = EDGE_CURVE ( 'NONE', #81, #220, #800, .T. ) ;
#523 = TOROIDAL_SURFACE ( 'NONE', #159, 11.00000000000000000, 3.000000000000000444 ) ;
#524 = CIRCLE ( 'NONE', #558, 13.97499999999999964 ) ;
#525 = CARTESIAN_POINT ( 'NONE',  ( 4.399999999999999467, 0.000000000000000000, 0.000000000000000000 ) ) ;
#526 = CIRCLE ( 'NONE', #597, 0.5999999999999998668 ) ;
#527 = DIRECTION ( 'NONE',  ( 0.000000000000000000, -1.000000000000000000, 0.000000000000000000 ) ) ;
#528 = EDGE_CURVE ( 'NONE', #665, #619, #36, .T. ) ;
#529 = ORIENTED_EDGE ( 'NONE', *, *, #5, .F. ) ;
#530 = DIRECTION ( 'NONE',  ( 0.000000000000000000, 0.000000000000000000, -1.000000000000000000 ) ) ;
#531 = DIRECTION ( 'NONE',  ( 0.000000000000000000, 0.000000000000000000, -1.000000000000000000 ) ) ;
#532 = DIRECTION ( 'NONE',  ( 0.000000000000000000, 0.000000000000000000, -1.000000000000000000 ) ) ;
#533 = ORIENTED_EDGE ( 'NONE', *, *, #414, .F. ) ;
#534 = CARTESIAN_POINT ( 'NONE',  ( -4.399999999999999467, 8.082668874372531019E-16, 6.599999999999999645 ) ) ;
#535 = CARTESIAN_POINT ( 'NONE',  ( -4.399999999999997691, 0.000000000000000000, 0.000000000000000000 ) ) ;
#536 = DIRECTION ( 'NONE',  ( 1.000000000000000000, 0.000000000000000000, 0.000000000000000000 ) ) ;
#537 = LOCAL_TIME ( 14, 57, 36.00000000000000000, #495 ) ;
#538 = ORIENTED_EDGE ( 'NONE', *, *, #571, .T. ) ;
#539 = CIRCLE ( 'NONE', #774, 15.40000000000000036 ) ;
#540 = DIRECTION ( 'NONE',  ( 0.000000000000000000, 0.000000000000000000, 1.000000000000000000 ) ) ;
#541 = DIRECTION ( 'NONE',  ( 1.000000000000000000, 0.000000000000000000, 0.000000000000000000 ) ) ;
#542 = AXIS2_PLACEMENT_3D ( 'NONE', #598, #304, #89 ) ;
#543 = AXIS2_PLACEMENT_3D ( 'NONE', #501, #321, #16 ) ;
#544 = EDGE_CURVE ( 'NONE', #171, #810, #513, .T. ) ;
#545 = DIRECTION ( 'NONE',  ( 0.000000000000000000, 0.000000000000000000, -1.000000000000000000 ) ) ;
#546 = CIRCLE ( 'NONE', #765, 3.000000000000000888 ) ;
#547 = ORIENTED_EDGE ( 'NONE', *, *, #199, .T. ) ;
#548 = CIRCLE ( 'NONE', #809, 9.500000000000000000 ) ;
#549 = FACE_OUTER_BOUND ( 'NONE', #21, .T. ) ;
#550 = DIRECTION ( 'NONE',  ( -1.000000000000000000, -0.000000000000000000, -0.000000000000000000 ) ) ;
#551 = ORIENTED_EDGE ( 'NONE', *, *, #789, .F. ) ;
#552 = DIRECTION ( 'NONE',  ( 1.000000000000000000, 0.000000000000000000, 0.000000000000000000 ) ) ;
#553 = CC_DESIGN_APPROVAL ( #561, ( #267 ) ) ;
#554 = VERTEX_POINT ( 'NONE', #490 ) ;
#555 = EDGE_CURVE ( 'NONE', #440, #619, #114, .T. ) ;
#556 = DIRECTION ( 'NONE',  ( 0.000000000000000000, 0.000000000000000000, -1.000000000000000000 ) ) ;
#557 = DATE_AND_TIME ( #434, #110 ) ;
#558 = AXIS2_PLACEMENT_3D ( 'NONE', #238, #338, #30 ) ;
#559 = VECTOR ( 'NONE', #633, 1000.000000000000000 ) ;
#560 = ORIENTED_EDGE ( 'NONE', *, *, #438, .F. ) ;
#561 = APPROVAL ( #302, 'UNSPECIFIED' ) ;
#562 = CARTESIAN_POINT ( 'NONE',  ( -5.000000000000000888, 1.711443901808426101E-15, 13.97499999999999964 ) ) ;
#563 = DATE_TIME_ROLE ( 'creation_date' ) ;
#564 = CARTESIAN_POINT ( 'NONE',  ( 0.000000000000000000, 0.000000000000000000, 11.00000000000000000 ) ) ;
#565 = ORIENTED_EDGE ( 'NONE', *, *, #604, .F. ) ;
#566 = DIRECTION ( 'NONE',  ( 0.000000000000000000, 0.000000000000000000, -1.000000000000000000 ) ) ;
#567 = EDGE_CURVE ( 'NONE', #160, #384, #383, .T. ) ;
#568 = ORIENTED_EDGE ( 'NONE', *, *, #38, .T. ) ;
#569 = APPROVAL_DATE_TIME ( #557, #229 ) ;
#570 = CARTESIAN_POINT ( 'NONE',  ( 0.000000000000000000, 0.000000000000000000, 0.000000000000000000 ) ) ;
#571 = EDGE_CURVE ( 'NONE', #760, #695, #596, .T. ) ;
#572 = TOROIDAL_SURFACE ( 'NONE', #660, 15.40000000000000036, 0.6000000000000007550 ) ;
#573 = AXIS2_PLACEMENT_3D ( 'NONE', #564, #342, #566 ) ;
#574 = ORIENTED_EDGE ( 'NONE', *, *, #528, .F. ) ;
#575 = CIRCLE ( 'NONE', #257, 8.024999999999996803 ) ;
#576 = CIRCLE ( 'NONE', #421, 6.599999999999999645 ) ;
#577 = DIRECTION ( 'NONE',  ( 0.000000000000000000, 0.000000000000000000, -1.000000000000000000 ) ) ;
#578 = ORIENTED_EDGE ( 'NONE', *, *, #62, .F. ) ;
#579 = CARTESIAN_POINT ( 'NONE',  ( -20.63749999999999574, 0.000000000000000000, 0.000000000000000000 ) ) ;
#580 = EDGE_LOOP ( 'NONE', ( #472, #66, #641, #565 ) ) ;
#581 = EDGE_CURVE ( 'NONE', #123, #78, #213, .T. ) ;
#582 = FACE_OUTER_BOUND ( 'NONE', #477, .T. ) ;
#583 = DIRECTION ( 'NONE',  ( 0.000000000000000000, 0.000000000000000000, -1.000000000000000000 ) ) ;
#584 = AXIS2_PLACEMENT_3D ( 'NONE', #370, #385, #642 ) ;
#585 = DIRECTION ( 'NONE',  ( 1.000000000000000000, 0.000000000000000000, 0.000000000000000000 ) ) ;
#586 = AXIS2_PLACEMENT_3D ( 'NONE', #52, #293, #682 ) ;
#587 = ORIENTED_EDGE ( 'NONE', *, *, #544, .F. ) ;
#588 = FACE_OUTER_BOUND ( 'NONE', #179, .T. ) ;
#589 = ORIENTED_EDGE ( 'NONE', *, *, #581, .F. ) ;
#590 = CARTESIAN_POINT ( 'NONE',  ( -5.000000000000000888, 13.97499999999999964, 0.000000000000000000 ) ) ;
#591 = APPROVAL_PERSON_ORGANIZATION ( #504, #561, #56 ) ;
#592 = EDGE_CURVE ( 'NONE', #521, #384, #651, .T. ) ;
#593 = ORIENTED_EDGE ( 'NONE', *, *, #265, .T. ) ;
#594 = AXIS2_PLACEMENT_3D ( 'NONE', #307, #71, #577 ) ;
#595 = DIRECTION ( 'NONE',  ( 1.000000000000000000, 0.000000000000000000, 0.000000000000000000 ) ) ;
#596 = CIRCLE ( 'NONE', #232, 8.024999999999996803 ) ;
#597 = AXIS2_PLACEMENT_3D ( 'NONE', #341, #662, #346 ) ;
#598 = CARTESIAN_POINT ( 'NONE',  ( 4.400000000000001243, 0.000000000000000000, 0.000000000000000000 ) ) ;
#599 = EDGE_LOOP ( 'NONE', ( #481, #683, #115, #51 ) ) ;
#600 = CARTESIAN_POINT ( 'NONE',  ( -20.63749999999999574, 1.530808498934191521E-15, 12.50000000000000000 ) ) ;
#601 = CARTESIAN_POINT ( 'NONE',  ( 4.400000000000000355, 0.000000000000000000, 0.000000000000000000 ) ) ;
#602 = DIRECTION ( 'NONE',  ( 0.000000000000000000, 0.000000000000000000, -1.000000000000000000 ) ) ;
#603 = ORIENTED_EDGE ( 'NONE', *, *, #132, .T. ) ;
#604 = EDGE_CURVE ( 'NONE', #814, #78, #64, .T. ) ;
#605 = DIRECTION ( 'NONE',  ( 0.000000000000000000, 0.000000000000000000, -1.000000000000000000 ) ) ;
#606 = CARTESIAN_POINT ( 'NONE',  ( -5.000000000000000888, 0.000000000000000000, -9.500000000000000000 ) ) ;
#607 = DIRECTION ( 'NONE',  ( -1.000000000000000000, -0.000000000000000000, -0.000000000000000000 ) ) ;
#608 = VERTEX_POINT ( 'NONE', #218 ) ;
#609 = CARTESIAN_POINT ( 'NONE',  ( -4.400000000000001243, 0.000000000000000000, 0.000000000000000000 ) ) ;
#610 = CARTESIAN_POINT ( 'NONE',  ( 5.000000000000000888, 0.000000000000000000, -8.024999999999996803 ) ) ;
#611 = AXIS2_PLACEMENT_3D ( 'NONE', #141, #468, #723 ) ;
#612 = ORIENTED_EDGE ( 'NONE', *, *, #555, .T. ) ;
#613 = DIRECTION ( 'NONE',  ( 0.000000000000000000, 0.000000000000000000, -1.000000000000000000 ) ) ;
#614 = DIRECTION ( 'NONE',  ( 0.000000000000000000, 0.000000000000000000, -1.000000000000000000 ) ) ;
#615 = ADVANCED_FACE ( 'NONE', ( #549 ), #158, .F. ) ;
#616 = VERTEX_POINT ( 'NONE', #222 ) ;
#617 = DIRECTION ( 'NONE',  ( 0.000000000000000000, 0.000000000000000000, -1.000000000000000000 ) ) ;
#618 = DIRECTION ( 'NONE',  ( 0.000000000000000000, 0.000000000000000000, -1.000000000000000000 ) ) ;
#619 = VERTEX_POINT ( 'NONE', #426 ) ;
#620 = DIRECTION ( 'NONE',  ( 0.000000000000000000, 0.000000000000000000, -1.000000000000000000 ) ) ;
#621 = DIRECTION ( 'NONE',  ( 1.000000000000000000, 0.000000000000000000, 0.000000000000000000 ) ) ;
#622 = TOROIDAL_SURFACE ( 'NONE', #454, 15.40000000000000036, 0.6000000000000007550 ) ;
#623 = VERTEX_POINT ( 'NONE', #473 ) ;
#624 = DIRECTION ( 'NONE',  ( 0.000000000000000000, 0.000000000000000000, -1.000000000000000000 ) ) ;
#625 = DATE_AND_TIME ( #628, #465 ) ;
#626 = DIRECTION ( 'NONE',  ( 0.000000000000000000, -1.000000000000000000, 0.000000000000000000 ) ) ;
#627 = EDGE_LOOP ( 'NONE', ( #205, #237, #819, #425 ) ) ;
#628 = CALENDAR_DATE ( 2026, 12, 7 ) ;
#629 = EDGE_CURVE ( 'NONE', #521, #289, #86, .T. ) ;
#630 = DIRECTION ( 'NONE',  ( 1.000000000000000000, 0.000000000000000000, 0.000000000000000000 ) ) ;
#631 = ORIENTED_EDGE ( 'NONE', *, *, #38, .F. ) ;
#632 = PERSON_AND_ORGANIZATION ( #361, #122 ) ;
#633 = DIRECTION ( 'NONE',  ( 1.000000000000000000, 0.000000000000000000, 0.000000000000000000 ) ) ;
#634 = AXIS2_PLACEMENT_3D ( 'NONE', #18, #318, #583 ) ;
#635 = CIRCLE ( 'NONE', #417, 13.97499999999999964 ) ;
#636 = ORIENTED_EDGE ( 'NONE', *, *, #414, .T. ) ;
#637 = DATE_AND_TIME ( #379, #194 ) ;
#638 = AXIS2_PLACEMENT_3D ( 'NONE', #609, #478, #753 ) ;
#639 = CARTESIAN_POINT ( 'NONE',  ( -20.63749999999999929, 0.000000000000000000, 0.000000000000000000 ) ) ;
#640 = EDGE_CURVE ( 'NONE', #619, #648, #546, .T. ) ;
#641 = ORIENTED_EDGE ( 'NONE', *, *, #95, .F. ) ;
#642 = DIRECTION ( 'NONE',  ( -0.000000000000000000, 0.000000000000000000, 1.000000000000000000 ) ) ;
#643 = CYLINDRICAL_SURFACE ( 'NONE', #594, 8.024999999999996803 ) ;
#644 = AXIS2_PLACEMENT_3D ( 'NONE', #659, #536, #602 ) ;
#645 = ORIENTED_EDGE ( 'NONE', *, *, #95, .T. ) ;
#646 = CIRCLE ( 'NONE', #242, 8.024999999999996803 ) ;
#647 = AXIS2_PLACEMENT_3D ( 'NONE', #262, #766, #436 ) ;
#648 = VERTEX_POINT ( 'NONE', #815 ) ;
#649 = EDGE_CURVE ( 'NONE', #608, #440, #161, .T. ) ;
#650 = LINE ( 'NONE', #325, #418 ) ;
#651 = CIRCLE ( 'NONE', #447, 0.5999999999999998668 ) ;
#652 = ORIENTED_EDGE ( 'NONE', *, *, #208, .T. ) ;
#653 = ORIENTED_EDGE ( 'NONE', *, *, #581, .T. ) ;
#654 = FACE_BOUND ( 'NONE', #681, .T. ) ;
#655 = ADVANCED_FACE ( 'NONE', ( #422 ), #350, .T. ) ;
#656 = ORIENTED_EDGE ( 'NONE', *, *, #592, .T. ) ;
#657 = ORIENTED_EDGE ( 'NONE', *, *, #164, .T. ) ;
#658 = CARTESIAN_POINT ( 'NONE',  ( 5.000000000000000000, 6.599999999999999645, 0.000000000000000000 ) ) ;
#659 = CARTESIAN_POINT ( 'NONE',  ( -20.63749999999999929, 0.000000000000000000, 0.000000000000000000 ) ) ;
#660 = AXIS2_PLACEMENT_3D ( 'NONE', #716, #461, #193 ) ;
#661 = CARTESIAN_POINT ( 'NONE',  ( 0.000000000000000000, 1.347111479062088405E-15, -11.00000000000000000 ) ) ;
#662 = DIRECTION ( 'NONE',  ( 0.000000000000000000, 1.000000000000000000, -1.224646799147353207E-16 ) ) ;
#663 = CYLINDRICAL_SURFACE ( 'NONE', #644, 9.500000000000000000 ) ;
#664 = EDGE_CURVE ( 'NONE', #743, #760, #811, .T. ) ;
#665 = VERTEX_POINT ( 'NONE', #562 ) ;
#666 = CARTESIAN_POINT ( 'NONE',  ( -4.399999999999999467, 0.000000000000000000, 0.000000000000000000 ) ) ;
#667 = FACE_OUTER_BOUND ( 'NONE', #323, .T. ) ;
#668 = DIRECTION ( 'NONE',  ( 0.000000000000000000, 0.000000000000000000, -1.000000000000000000 ) ) ;
#669 = ORIENTED_EDGE ( 'NONE', *, *, #679, .F. ) ;
#670 = DIRECTION ( 'NONE',  ( 1.000000000000000000, 0.000000000000000000, 0.000000000000000000 ) ) ;
#671 =( LENGTH_UNIT ( ) NAMED_UNIT ( * ) SI_UNIT ( .MILLI., .METRE. ) );
#672 = LOCAL_TIME ( 14, 57, 36.00000000000000000, #231 ) ;
#673 = DIRECTION ( 'NONE',  ( 1.000000000000000000, 0.000000000000000000, 0.000000000000000000 ) ) ;
#674 = ORIENTED_EDGE ( 'NONE', *, *, #817, .T. ) ;
#675 = CIRCLE ( 'NONE', #773, 16.00000000000000000 ) ;
#676 = DIRECTION ( 'NONE',  ( 1.000000000000000000, 0.000000000000000000, 0.000000000000000000 ) ) ;
#677 = DIRECTION ( 'NONE',  ( 1.000000000000000000, 0.000000000000000000, 0.000000000000000000 ) ) ;
#678 = CIRCLE ( 'NONE', #73, 13.97499999999999964 ) ;
#679 = EDGE_CURVE ( 'NONE', #191, #779, #576, .T. ) ;
#680 = CIRCLE ( 'NONE', #543, 0.5999999999999998668 ) ;
#681 = EDGE_LOOP ( 'NONE', ( #603, #405 ) ) ;
#682 = DIRECTION ( 'NONE',  ( 0.000000000000000000, 0.000000000000000000, -1.000000000000000000 ) ) ;
#683 = ORIENTED_EDGE ( 'NONE', *, *, #375, .T. ) ;
#684 = DIRECTION ( 'NONE',  ( 1.000000000000000000, 0.000000000000000000, 0.000000000000000000 ) ) ;
#685 = DATE_TIME_ROLE ( 'classification_date' ) ;
#686 = ORIENTED_EDGE ( 'NONE', *, *, #132, .F. ) ;
#687 = DIRECTION ( 'NONE',  ( 1.000000000000000000, 0.000000000000000000, 0.000000000000000000 ) ) ;
#688 = PERSON_AND_ORGANIZATION_ROLE ( 'creator' ) ;
#689 = CARTESIAN_POINT ( 'NONE',  ( -5.000000000000000888, 0.000000000000000000, 0.000000000000000000 ) ) ;
#690 = AXIS2_PLACEMENT_3D ( 'NONE', #79, #395, #715 ) ;
#691 = VERTEX_POINT ( 'NONE', #48 ) ;
#692 = EDGE_CURVE ( 'NONE', #771, #266, #312, .T. ) ;
#693 = APPLICATION_PROTOCOL_DEFINITION ( 'international standard', 'config_control_design', 1994, #456 ) ;
#694 = CARTESIAN_POINT ( 'NONE',  ( -5.000000000000000888, 1.922695474661344271E-15, 15.40000000000000036 ) ) ;
#695 = VERTEX_POINT ( 'NONE', #777 ) ;
#696 = APPROVAL ( #816, 'UNSPECIFIED' ) ;
#697 = DIRECTION ( 'NONE',  ( 0.000000000000000000, 0.000000000000000000, 1.000000000000000000 ) ) ;
#698 = LINE ( 'NONE', #374, #559 ) ;
#699 = EDGE_LOOP ( 'NONE', ( #6, #593, #43, #354 ) ) ;
#700 = CC_DESIGN_APPROVAL ( #696, ( #294 ) ) ;
#701 = PERSON_AND_ORGANIZATION ( #361, #122 ) ;
#702 = DIRECTION ( 'NONE',  ( 0.000000000000000000, 0.000000000000000000, -1.000000000000000000 ) ) ;
#703 = ADVANCED_FACE ( 'NONE', ( #667 ), #424, .T. ) ;
#704 = AXIS2_PLACEMENT_3D ( 'NONE', #142, #393, #198 ) ;
#705 = AXIS2_PLACEMENT_3D ( 'NONE', #408, #431, #668 ) ;
#706 = AXIS2_PLACEMENT_3D ( 'NONE', #279, #271, #83 ) ;
#707 = EDGE_LOOP ( 'NONE', ( #39, #314, #739, #297 ) ) ;
#708 = AXIS2_PLACEMENT_3D ( 'NONE', #807, #552, #366 ) ;
#709 = FACE_OUTER_BOUND ( 'NONE', #793, .T. ) ;
#710 = DIRECTION ( 'NONE',  ( 0.000000000000000000, 1.224646799147352961E-16, 1.000000000000000000 ) ) ;
#711 = ORIENTED_EDGE ( 'NONE', *, *, #265, .F. ) ;
#712 = DIRECTION ( 'NONE',  ( 1.000000000000000000, 0.000000000000000000, 0.000000000000000000 ) ) ;
#713 = EDGE_LOOP ( 'NONE', ( #377, #394, #386, #134 ) ) ;
#714 = ADVANCED_FACE ( 'NONE', ( #423 ), #162, .T. ) ;
#715 = DIRECTION ( 'NONE',  ( 0.000000000000000000, 0.000000000000000000, -1.000000000000000000 ) ) ;
#716 = CARTESIAN_POINT ( 'NONE',  ( -4.400000000000000355, 0.000000000000000000, 0.000000000000000000 ) ) ;
#717 = VECTOR ( 'NONE', #772, 1000.000000000000000 ) ;
#718 = EDGE_CURVE ( 'NONE', #814, #623, #382, .T. ) ;
#719 = AXIS2_PLACEMENT_3D ( 'NONE', #787, #595, #268 ) ;
#720 = LINE ( 'NONE', #600, #258 ) ;
#721 = VECTOR ( 'NONE', #345, 1000.000000000000000 ) ;
#722 = FACE_OUTER_BOUND ( 'NONE', #357, .T. ) ;
#723 = DIRECTION ( 'NONE',  ( 0.000000000000000000, 0.000000000000000000, -1.000000000000000000 ) ) ;
#724 = ORIENTED_EDGE ( 'NONE', *, *, #396, .T. ) ;
#725 = CARTESIAN_POINT ( 'NONE',  ( -0.3864906208435106572, 1.711443901808425904E-15, -13.97499999999999964 ) ) ;
#726 = DIRECTION ( 'NONE',  ( 1.000000000000000000, 0.000000000000000000, 0.000000000000000000 ) ) ;
#727 = CIRCLE ( 'NONE', #343, 6.599999999999999645 ) ;
#728 = ADVANCED_FACE ( 'NONE', ( #219 ), #420, .T. ) ;
#729 = CARTESIAN_POINT ( 'NONE',  ( 4.399999999999997691, 7.715274834628324392E-16, 5.999999999999999112 ) ) ;
#730 = CIRCLE ( 'NONE', #225, 12.50000000000000000 ) ;
#731 = ORIENTED_EDGE ( 'NONE', *, *, #105, .F. ) ;
#732 = CIRCLE ( 'NONE', #244, 0.6000000000000007550 ) ;
#733 = FACE_BOUND ( 'NONE', #10, .T. ) ;
#734 =( NAMED_UNIT ( * ) PLANE_ANGLE_UNIT ( ) SI_UNIT ( $, .RADIAN. ) );
#735 = AXIS2_PLACEMENT_3D ( 'NONE', #590, #144, #399 ) ;
#736 = EDGE_CURVE ( 'NONE', #623, #123, #526, .T. ) ;
#737 = CIRCLE ( 'NONE', #76, 5.999999999999999112 ) ;
#738 = CARTESIAN_POINT ( 'NONE',  ( -4.399999999999997691, 0.000000000000000000, -5.999999999999999112 ) ) ;
#739 = ORIENTED_EDGE ( 'NONE', *, *, #365, .F. ) ;
#740 = DIRECTION ( 'NONE',  ( 0.000000000000000000, 0.000000000000000000, -1.000000000000000000 ) ) ;
#741 = FACE_OUTER_BOUND ( 'NONE', #227, .T. ) ;
#742 = LINE ( 'NONE', #93, #4 ) ;
#743 = VERTEX_POINT ( 'NONE', #100 ) ;
#744 = EDGE_CURVE ( 'NONE', #183, #60, #737, .T. ) ;
#745 = DIRECTION ( 'NONE',  ( 1.000000000000000000, 0.000000000000000000, 0.000000000000000000 ) ) ;
#746 = DIRECTION ( 'NONE',  ( 1.000000000000000000, 0.000000000000000000, 0.000000000000000000 ) ) ;
#747 = ORIENTED_EDGE ( 'NONE', *, *, #139, .T. ) ;
#748 = CC_DESIGN_PERSON_AND_ORGANIZATION_ASSIGNMENT ( #116, #487, ( #403 ) ) ;
#749 = VECTOR ( 'NONE', #362, 1000.000000000000000 ) ;
#750 = CARTESIAN_POINT ( 'NONE',  ( 0.000000000000000000, 0.000000000000000000, 11.00000000000000000 ) ) ;
#751 = CARTESIAN_POINT ( 'NONE',  ( -5.000000000000000888, 0.000000000000000000, 0.000000000000000000 ) ) ;
#752 = ORIENTED_EDGE ( 'NONE', *, *, #199, .F. ) ;
#753 = DIRECTION ( 'NONE',  ( 0.000000000000000000, 0.000000000000000000, -1.000000000000000000 ) ) ;
#754 = COORDINATED_UNIVERSAL_TIME_OFFSET ( 3, 30, .AHEAD. ) ;
#755 = ORIENTED_EDGE ( 'NONE', *, *, #522, .F. ) ;
#756 = DIRECTION ( 'NONE',  ( 0.000000000000000000, -1.000000000000000000, 0.000000000000000000 ) ) ;
#757 = APPROVAL_DATE_TIME ( #625, #696 ) ;
#758 = LINE ( 'NONE', #50, #749 ) ;
#759 = ADVANCED_FACE ( 'NONE', ( #207 ), #92, .T. ) ;
#760 = VERTEX_POINT ( 'NONE', #610 ) ;
#761 = MECHANICAL_CONTEXT ( 'NONE', #456, 'mechanical' ) ;
#762 = CIRCLE ( 'NONE', #184, 0.6000000000000007550 ) ;
#763 = CARTESIAN_POINT ( 'NONE',  ( -20.63749999999999574, 0.000000000000000000, -12.50000000000000000 ) ) ;
#764 = ORIENTED_EDGE ( 'NONE', *, *, #24, .F. ) ;
#765 = AXIS2_PLACEMENT_3D ( 'NONE', #750, #290, #740 ) ;
#766 = DIRECTION ( 'NONE',  ( 1.000000000000000000, 0.000000000000000000, 0.000000000000000000 ) ) ;
#767 = ORIENTED_EDGE ( 'NONE', *, *, #649, .T. ) ;
#768 = EDGE_CURVE ( 'NONE', #554, #648, #548, .T. ) ;
#769 = CALENDAR_DATE ( 2026, 12, 7 ) ;
#770 = FACE_OUTER_BOUND ( 'NONE', #368, .T. ) ;
#771 = VERTEX_POINT ( 'NONE', #463 ) ;
#772 = DIRECTION ( 'NONE',  ( 1.000000000000000000, 0.000000000000000000, 0.000000000000000000 ) ) ;
#773 = AXIS2_PLACEMENT_3D ( 'NONE', #775, #133, #397 ) ;
#774 = AXIS2_PLACEMENT_3D ( 'NONE', #464, #621, #545 ) ;
#775 = CARTESIAN_POINT ( 'NONE',  ( -4.400000000000001243, 0.000000000000000000, 0.000000000000000000 ) ) ;
#776 = EDGE_LOOP ( 'NONE', ( #97, #212 ) ) ;
#777 = CARTESIAN_POINT ( 'NONE',  ( 5.000000000000000888, 9.827790563157505106E-16, 8.024999999999996803 ) ) ;
#778 = ORIENTED_EDGE ( 'NONE', *, *, #42, .T. ) ;
#779 = VERTEX_POINT ( 'NONE', #104 ) ;
#780 = DIRECTION ( 'NONE',  ( 0.000000000000000000, 0.000000000000000000, -1.000000000000000000 ) ) ;
#781 = EDGE_CURVE ( 'NONE', #137, #616, #727, .T. ) ;
#782 = EDGE_LOOP ( 'NONE', ( #587, #489, #75, #494 ) ) ;
#783 = FACE_OUTER_BOUND ( 'NONE', #111, .T. ) ;
#784 = AXIS2_PLACEMENT_3D ( 'NONE', #818, #626, #146 ) ;
#785 = ORIENTED_EDGE ( 'NONE', *, *, #381, .T. ) ;
#786 = AXIS2_PLACEMENT_3D ( 'NONE', #666, #332, #605 ) ;
#787 = CARTESIAN_POINT ( 'NONE',  ( 5.000000000000000888, 15.40000000000000036, 0.000000000000000000 ) ) ;
#788 = DIRECTION ( 'NONE',  ( 0.000000000000000000, 0.000000000000000000, 1.000000000000000000 ) ) ;
#789 = EDGE_CURVE ( 'NONE', #695, #760, #443, .T. ) ;
#790 = DIRECTION ( 'NONE',  ( 1.000000000000000000, 0.000000000000000000, 0.000000000000000000 ) ) ;
#791 = CARTESIAN_POINT ( 'NONE',  ( 0.000000000000000000, 0.000000000000000000, 0.000000000000000000 ) ) ;
#792 = LINE ( 'NONE', #216, #511 ) ;
#793 = EDGE_LOOP ( 'NONE', ( #574, #686, #767, #292 ) ) ;
#794 = DIRECTION ( 'NONE',  ( 1.000000000000000000, 0.000000000000000000, 0.000000000000000000 ) ) ;
#795 = DIRECTION ( 'NONE',  ( 1.000000000000000000, 0.000000000000000000, 0.000000000000000000 ) ) ;
#796 = DIRECTION ( 'NONE',  ( 0.000000000000000000, 0.000000000000000000, 1.000000000000000000 ) ) ;
#797 = EDGE_LOOP ( 'NONE', ( #391, #165 ) ) ;
#798 = CARTESIAN_POINT ( 'NONE',  ( 4.400000000000000355, 0.000000000000000000, -15.40000000000000036 ) ) ;
#799 = DIRECTION ( 'NONE',  ( 0.000000000000000000, 0.000000000000000000, 1.000000000000000000 ) ) ;
#800 = CIRCLE ( 'NONE', #148, 5.999999999999999112 ) ;
#801 = CARTESIAN_POINT ( 'NONE',  ( -20.63749999999999574, 0.000000000000000000, 0.000000000000000000 ) ) ;
#802 = VERTEX_POINT ( 'NONE', #606 ) ;
#803 = CARTESIAN_POINT ( 'NONE',  ( 5.000000000000000888, 0.000000000000000000, 0.000000000000000000 ) ) ;
#804 = DIRECTION ( 'NONE',  ( 0.000000000000000000, 0.000000000000000000, 1.000000000000000000 ) ) ;
#805 = ADVANCED_FACE ( 'NONE', ( #741 ), #507, .T. ) ;
#806 = EDGE_LOOP ( 'NONE', ( #419, #764, #217, #55 ) ) ;
#807 = CARTESIAN_POINT ( 'NONE',  ( 5.000000000000000888, 0.000000000000000000, 0.000000000000000000 ) ) ;
#808 = DIRECTION ( 'NONE',  ( 0.000000000000000000, 0.000000000000000000, -1.000000000000000000 ) ) ;
#809 = AXIS2_PLACEMENT_3D ( 'NONE', #41, #479, #400 ) ;
#810 = VERTEX_POINT ( 'NONE', #337 ) ;
#811 = LINE ( 'NONE', #230, #102 ) ;
#812 = APPROVAL_DATE_TIME ( #53, #561 ) ;
#813 = AXIS2_PLACEMENT_3D ( 'NONE', #29, #677, #416 ) ;
#814 = VERTEX_POINT ( 'NONE', #37 ) ;
#815 = CARTESIAN_POINT ( 'NONE',  ( -2.598076211353316900, 1.163414459189985485E-15, 9.500000000000000000 ) ) ;
#816 = APPROVAL_STATUS ( 'not_yet_approved' ) ;
#817 = EDGE_CURVE ( 'NONE', #779, #191, #239, .T. ) ;
#818 = CARTESIAN_POINT ( 'NONE',  ( -4.399999999999999467, 0.000000000000000000, -6.599999999999999645 ) ) ;
#819 = ORIENTED_EDGE ( 'NONE', *, *, #718, .F. ) ;
#820 = CALENDAR_DATE ( 2026, 12, 7 ) ;
#821 = CARTESIAN_POINT ( 'NONE',  ( 4.399999999999997691, 0.000000000000000000, -5.999999999999999112 ) ) ;
ENDSEC;
END-ISO-10303-21;
