ISO-10303-21;
HEADER;
FILE_DESCRIPTION (( 'STEP AP203' ),
    '1' );
FILE_NAME ('BigBallBearingHolder_Default_sldprt.STEP',
    '2026-07-12T11:26:50',
    ( '' ),
    ( '' ),
    'SwSTEP 2.0',
    'SolidWorks 2025',
    '' );
FILE_SCHEMA (( 'CONFIG_CONTROL_DESIGN' ));
ENDSEC;

DATA;
#1 = ORIENTED_EDGE ( 'NONE', *, *, #314, .F. ) ;
#2 = MECHANICAL_CONTEXT ( 'NONE', #339, 'mechanical' ) ;
#3 = CARTESIAN_POINT ( 'NONE',  ( -75.00143572758658195, 13.00000000000000000, -0.004003373802807536769 ) ) ;
#4 = DIRECTION ( 'NONE',  ( -0.000000000000000000, 1.000000000000000000, 0.000000000000000000 ) ) ;
#5 = AXIS2_PLACEMENT_3D ( 'NONE', #201, #290, #325 ) ;
#6 = DIRECTION ( 'NONE',  ( 1.000000000000000000, 0.000000000000000000, 0.000000000000000000 ) ) ;
#7 = DIRECTION ( 'NONE',  ( 0.000000000000000000, 0.000000000000000000, 1.000000000000000000 ) ) ;
#8 = VERTEX_POINT ( 'NONE', #99 ) ;
#9 = PRODUCT_DEFINITION_SHAPE ( 'NONE', 'NONE',  #137 ) ;
#10 = EDGE_CURVE ( 'NONE', #301, #393, #368, .T. ) ;
#11 = CARTESIAN_POINT ( 'NONE',  ( 69.99856427241340384, 8.000000000000000000, -0.004003373802807536769 ) ) ;
#12 = CARTESIAN_POINT ( 'NONE',  ( -10.81000000000000050, -13.00000000000000000, -0.004003373802807536769 ) ) ;
#13 = ORIENTED_EDGE ( 'NONE', *, *, #90, .F. ) ;
#14 = DIRECTION ( 'NONE',  ( 1.000000000000000000, 0.000000000000000000, 0.000000000000000000 ) ) ;
#15 = ORIENTED_EDGE ( 'NONE', *, *, #306, .F. ) ;
#16 = VECTOR ( 'NONE', #163, 1000.000000000000000 ) ;
#17 = DIRECTION ( 'NONE',  ( 0.000000000000000000, 1.000000000000000000, -0.000000000000000000 ) ) ;
#18 = EDGE_CURVE ( 'NONE', #218, #29, #69, .T. ) ;
#19 = DIRECTION ( 'NONE',  ( 0.000000000000000000, -0.000000000000000000, -1.000000000000000000 ) ) ;
#20 = DIRECTION ( 'NONE',  ( -0.000000000000000000, 1.000000000000000000, -0.000000000000000000 ) ) ;
#21 = ORIENTED_EDGE ( 'NONE', *, *, #145, .F. ) ;
#22 = DATE_AND_TIME ( #376, #242 ) ;
#23 = CARTESIAN_POINT ( 'NONE',  ( 74.99856427241340384, 8.000000000000000000, -0.004003373802807536769 ) ) ;
#24 = DIRECTION ( 'NONE',  ( 1.000000000000000000, -0.000000000000000000, 0.000000000000000000 ) ) ;
#25 = VERTEX_POINT ( 'NONE', #281 ) ;
#26 = COORDINATED_UNIVERSAL_TIME_OFFSET ( 3, 30, .AHEAD. ) ;
#27 = AXIS2_PLACEMENT_3D ( 'NONE', #57, #244, #58 ) ;
#28 = CC_DESIGN_SECURITY_CLASSIFICATION ( #360, ( #92 ) ) ;
#29 = VERTEX_POINT ( 'NONE', #386 ) ;
#30 = CARTESIAN_POINT ( 'NONE',  ( -0.001435727586592688843, -7.999999999999998224, -0.004003373802807536769 ) ) ;
#31 = CC_DESIGN_DATE_AND_TIME_ASSIGNMENT ( #209, #120, ( #360 ) ) ;
#32 = CC_DESIGN_APPROVAL ( #305, ( #137 ) ) ;
#33 = CARTESIAN_POINT ( 'NONE',  ( -0.001435727586592688843, 13.00000000000000000, -0.004003373802807536769 ) ) ;
#34 = CARTESIAN_POINT ( 'NONE',  ( -10.81000000000000050, -7.999999999999998224, -0.004003373802807536769 ) ) ;
#35 = AXIS2_PLACEMENT_3D ( 'NONE', #389, #101, #279 ) ;
#36 = EDGE_LOOP ( 'NONE', ( #84, #295, #362, #234, #329, #45, #283, #114 ) ) ;
#37 = ADVANCED_FACE ( 'NONE', ( #284 ), #388, .T. ) ;
#38 = CARTESIAN_POINT ( 'NONE',  ( -70.00143572758659616, -8.000000000000000000, -0.004003373802807536769 ) ) ;
#39 = ORIENTED_EDGE ( 'NONE', *, *, #49, .T. ) ;
#40 = CARTESIAN_POINT ( 'NONE',  ( 69.99856427241340384, 13.00000000000000000, -0.004003373802807536769 ) ) ;
#41 = CARTESIAN_POINT ( 'NONE',  ( -10.81000000000000050, 13.00000000000000000, -0.004003373802807536769 ) ) ;
#42 = VECTOR ( 'NONE', #385, 1000.000000000000000 ) ;
#43 = ADVANCED_FACE ( 'NONE', ( #357 ), #319, .T. ) ;
#44 = PERSON_AND_ORGANIZATION_ROLE ( 'creator' ) ;
#45 = ORIENTED_EDGE ( 'NONE', *, *, #66, .F. ) ;
#46 = DIRECTION ( 'NONE',  ( 0.000000000000000000, -1.000000000000000000, 0.000000000000000000 ) ) ;
#47 = CARTESIAN_POINT ( 'NONE',  ( -75.00143572758659616, -7.999999999999998224, -0.004003373802807536769 ) ) ;
#48 = ORIENTED_EDGE ( 'NONE', *, *, #302, .T. ) ;
#49 = EDGE_CURVE ( 'NONE', #227, #130, #246, .T. ) ;
#50 = DATE_TIME_ROLE ( 'creation_date' ) ;
#51 = CARTESIAN_POINT ( 'NONE',  ( -0.001435727586592688843, -7.999999999999998224, -0.004003373802807536769 ) ) ;
#52 = VERTEX_POINT ( 'NONE', #207 ) ;
#53 = AXIS2_PLACEMENT_3D ( 'NONE', #41, #148, #328 ) ;
#54 = CYLINDRICAL_SURFACE ( 'NONE', #5, 70.00000000000000000 ) ;
#55 = ORIENTED_EDGE ( 'NONE', *, *, #66, .T. ) ;
#56 = PERSON ( 'UNSPECIFIED', 'UNSPECIFIED', 'UNSPECIFIED', ('UNSPECIFIED'), ('UNSPECIFIED'), ('UNSPECIFIED') ) ;
#57 = CARTESIAN_POINT ( 'NONE',  ( -0.001435727586592688843, -7.999999999999998224, -0.004003373802807536769 ) ) ;
#58 = DIRECTION ( 'NONE',  ( 0.000000000000000000, 0.000000000000000000, 1.000000000000000000 ) ) ;
#59 = ADVANCED_FACE ( 'NONE', ( #152 ), #54, .F. ) ;
#60 = APPROVAL_PERSON_ORGANIZATION ( #96, #305, #257 ) ;
#61 = EDGE_CURVE ( 'NONE', #396, #176, #67, .T. ) ;
#62 = EDGE_CURVE ( 'NONE', #160, #81, #273, .T. ) ;
#63 = AXIS2_PLACEMENT_3D ( 'NONE', #401, #85, #211 ) ;
#64 = CC_DESIGN_DATE_AND_TIME_ASSIGNMENT ( #324, #50, ( #137 ) ) ;
#65 = CARTESIAN_POINT ( 'NONE',  ( 89.99856427241340384, 13.00000000000000000, -0.004003373802807536769 ) ) ;
#66 = EDGE_CURVE ( 'NONE', #81, #227, #118, .T. ) ;
#67 = CIRCLE ( 'NONE', #278, 70.00000000000000000 ) ;
#68 = APPLICATION_PROTOCOL_DEFINITION ( 'international standard', 'config_control_design', 1994, #339 ) ;
#69 = LINE ( 'NONE', #94, #303 ) ;
#70 = LINE ( 'NONE', #3, #250 ) ;
#71 = ORIENTED_EDGE ( 'NONE', *, *, #400, .T. ) ;
#72 = AXIS2_PLACEMENT_3D ( 'NONE', #33, #252, #7 ) ;
#73 = CARTESIAN_POINT ( 'NONE',  ( -0.001435727586592688843, 8.000000000000000000, -0.004003373802807536769 ) ) ;
#74 = VERTEX_POINT ( 'NONE', #47 ) ;
#75 = APPROVAL_DATE_TIME ( #363, #305 ) ;
#76 = LINE ( 'NONE', #292, #330 ) ;
#77 = CARTESIAN_POINT ( 'NONE',  ( -90.00143572758659616, 13.00000000000000000, -0.004003373802807536769 ) ) ;
#78 = ORIENTED_EDGE ( 'NONE', *, *, #193, .F. ) ;
#79 = EDGE_CURVE ( 'NONE', #25, #227, #184, .T. ) ;
#80 = FACE_OUTER_BOUND ( 'NONE', #153, .T. ) ;
#81 = VERTEX_POINT ( 'NONE', #142 ) ;
#82 = VECTOR ( 'NONE', #335, 1000.000000000000000 ) ;
#83 = CARTESIAN_POINT ( 'NONE',  ( -0.001435727586592688843, 13.00000000000000000, 74.99599662619718288 ) ) ;
#84 = ORIENTED_EDGE ( 'NONE', *, *, #307, .T. ) ;
#85 = DIRECTION ( 'NONE',  ( 0.000000000000000000, 1.000000000000000000, -0.000000000000000000 ) ) ;
#86 = EDGE_CURVE ( 'NONE', #74, #333, #162, .T. ) ;
#87 = DATE_AND_TIME ( #374, #168 ) ;
#88 = CALENDAR_DATE ( 2026, 12, 7 ) ;
#89 = CIRCLE ( 'NONE', #315, 70.00000000000000000 ) ;
#90 = EDGE_CURVE ( 'NONE', #160, #105, #262, .T. ) ;
#91 = VECTOR ( 'NONE', #344, 1000.000000000000000 ) ;
#92 = PRODUCT_DEFINITION_FORMATION_WITH_SPECIFIED_SOURCE ( 'ANY', '', #196, .NOT_KNOWN. ) ;
#93 = FACE_OUTER_BOUND ( 'NONE', #149, .T. ) ;
#94 = CARTESIAN_POINT ( 'NONE',  ( 89.99856427241340384, 13.00000000000000000, -0.004003373802807536769 ) ) ;
#95 = CARTESIAN_POINT ( 'NONE',  ( -0.001435727586592688843, 13.00000000000000000, -0.004003373802807536769 ) ) ;
#96 = PERSON_AND_ORGANIZATION ( #56, #228 ) ;
#97 = CARTESIAN_POINT ( 'NONE',  ( -10.81000000000000050, 8.000000000000000000, -0.004003373802807536769 ) ) ;
#98 = AXIS2_PLACEMENT_3D ( 'NONE', #332, #269, #240 ) ;
#99 = CARTESIAN_POINT ( 'NONE',  ( 74.99856427241340384, -7.999999999999998224, -0.004003373802807536769 ) ) ;
#100 = COORDINATED_UNIVERSAL_TIME_OFFSET ( 3, 30, .AHEAD. ) ;
#101 = DIRECTION ( 'NONE',  ( 0.000000000000000000, 0.000000000000000000, -1.000000000000000000 ) ) ;
#102 = ORIENTED_EDGE ( 'NONE', *, *, #165, .F. ) ;
#103 = EDGE_CURVE ( 'NONE', #74, #25, #229, .T. ) ;
#104 = LOCAL_TIME ( 14, 56, 50.00000000000000000, #304 ) ;
#105 = VERTEX_POINT ( 'NONE', #110 ) ;
#106 = VECTOR ( 'NONE', #24, 1000.000000000000000 ) ;
#107 = CARTESIAN_POINT ( 'NONE',  ( 69.99856427241340384, -13.00000000000000000, -0.004003373802807536769 ) ) ;
#108 = EDGE_LOOP ( 'NONE', ( #206, #346, #268, #208, #365 ) ) ;
#109 = FACE_OUTER_BOUND ( 'NONE', #226, .T. ) ;
#110 = CARTESIAN_POINT ( 'NONE',  ( -70.00143572758659616, 13.00000000000000000, -0.004003373802807536769 ) ) ;
#111 = ORIENTED_EDGE ( 'NONE', *, *, #165, .T. ) ;
#112 = FACE_OUTER_BOUND ( 'NONE', #241, .T. ) ;
#113 = DIRECTION ( 'NONE',  ( -0.000000000000000000, 1.000000000000000000, -0.000000000000000000 ) ) ;
#114 = ORIENTED_EDGE ( 'NONE', *, *, #90, .T. ) ;
#115 = CIRCLE ( 'NONE', #256, 75.00000000000000000 ) ;
#116 = PERSON_AND_ORGANIZATION ( #56, #228 ) ;
#117 = DIRECTION ( 'NONE',  ( -0.000000000000000000, -1.000000000000000000, -0.000000000000000000 ) ) ;
#118 = LINE ( 'NONE', #12, #106 ) ;
#119 = ORIENTED_EDGE ( 'NONE', *, *, #18, .T. ) ;
#120 = DATE_TIME_ROLE ( 'classification_date' ) ;
#121 = CC_DESIGN_PERSON_AND_ORGANIZATION_ASSIGNMENT ( #411, #253, ( #196 ) ) ;
#122 = ORIENTED_EDGE ( 'NONE', *, *, #61, .F. ) ;
#123 = EDGE_CURVE ( 'NONE', #81, #29, #274, .T. ) ;
#124 = VECTOR ( 'NONE', #398, 1000.000000000000000 ) ;
#125 =( LENGTH_UNIT ( ) NAMED_UNIT ( * ) SI_UNIT ( .MILLI., .METRE. ) );
#126 = LINE ( 'NONE', #34, #42 ) ;
#127 = DIRECTION ( 'NONE',  ( 0.000000000000000000, 0.000000000000000000, 1.000000000000000000 ) ) ;
#128 = CYLINDRICAL_SURFACE ( 'NONE', #347, 70.00000000000000000 ) ;
#129 = LINE ( 'NONE', #97, #394 ) ;
#130 = VERTEX_POINT ( 'NONE', #107 ) ;
#131 = MANIFOLD_SOLID_BREP ( 'Body-Move/Copy3', #309 ) ;
#132 = DIRECTION ( 'NONE',  ( 0.000000000000000000, -1.000000000000000000, 0.000000000000000000 ) ) ;
#133 = EDGE_CURVE ( 'NONE', #52, #301, #115, .T. ) ;
#134 = ORIENTED_EDGE ( 'NONE', *, *, #412, .T. ) ;
#135 = LOCAL_TIME ( 14, 56, 50.00000000000000000, #140 ) ;
#136 = ORIENTED_EDGE ( 'NONE', *, *, #123, .T. ) ;
#137 = PRODUCT_DEFINITION ( 'UNKNOWN', '', #92, #408 ) ;
#138 = FACE_OUTER_BOUND ( 'NONE', #36, .T. ) ;
#139 = DIRECTION ( 'NONE',  ( -0.000000000000000000, 1.000000000000000000, -0.000000000000000000 ) ) ;
#140 = COORDINATED_UNIVERSAL_TIME_OFFSET ( 3, 30, .AHEAD. ) ;
#141 = LINE ( 'NONE', #261, #91 ) ;
#142 = CARTESIAN_POINT ( 'NONE',  ( -90.00143572758659616, -13.00000000000000000, -0.004003373802807536769 ) ) ;
#143 = EDGE_LOOP ( 'NONE', ( #270, #399, #298, #48, #119, #102, #21, #310 ) ) ;
#144 = DIRECTION ( 'NONE',  ( -1.000000000000000000, 0.000000000000000000, 0.000000000000000000 ) ) ;
#145 = EDGE_CURVE ( 'NONE', #263, #130, #232, .T. ) ;
#146 = CARTESIAN_POINT ( 'NONE',  ( -70.00143572758659616, 13.00000000000000000, -0.004003373802807536769 ) ) ;
#147 = ORIENTED_EDGE ( 'NONE', *, *, #294, .F. ) ;
#148 = DIRECTION ( 'NONE',  ( 0.000000000000000000, 0.000000000000000000, -1.000000000000000000 ) ) ;
#149 = EDGE_LOOP ( 'NONE', ( #136, #291, #1, #359 ) ) ;
#150 = LINE ( 'NONE', #175, #82 ) ;
#151 = ORIENTED_EDGE ( 'NONE', *, *, #10, .F. ) ;
#152 = FACE_OUTER_BOUND ( 'NONE', #402, .T. ) ;
#153 = EDGE_LOOP ( 'NONE', ( #322, #237, #336, #397 ) ) ;
#154 = VECTOR ( 'NONE', #267, 1000.000000000000000 ) ;
#155 = APPROVAL_ROLE ( '' ) ;
#156 = LINE ( 'NONE', #341, #321 ) ;
#157 = EDGE_CURVE ( 'NONE', #333, #8, #409, .T. ) ;
#158 = AXIS2_PLACEMENT_3D ( 'NONE', #266, #17, #297 ) ;
#159 = CIRCLE ( 'NONE', #190, 70.00000000000000000 ) ;
#160 = VERTEX_POINT ( 'NONE', #77 ) ;
#161 = CYLINDRICAL_SURFACE ( 'NONE', #198, 90.00000000000000000 ) ;
#162 = CIRCLE ( 'NONE', #27, 75.00000000000000000 ) ;
#163 = DIRECTION ( 'NONE',  ( 1.000000000000000000, -0.000000000000000000, 0.000000000000000000 ) ) ;
#164 = DIRECTION ( 'NONE',  ( 0.000000000000000000, 0.000000000000000000, 1.000000000000000000 ) ) ;
#165 = EDGE_CURVE ( 'NONE', #130, #29, #150, .T. ) ;
#166 = APPROVAL_STATUS ( 'not_yet_approved' ) ;
#167 = CC_DESIGN_PERSON_AND_ORGANIZATION_ASSIGNMENT ( #116, #243, ( #92 ) ) ;
#168 = LOCAL_TIME ( 14, 56, 50.00000000000000000, #26 ) ;
#169 = DIRECTION ( 'NONE',  ( -1.000000000000000000, 0.000000000000000000, 0.000000000000000000 ) ) ;
#170 = AXIS2_PLACEMENT_3D ( 'NONE', #289, #46, #19 ) ;
#171 = ORIENTED_EDGE ( 'NONE', *, *, #354, .F. ) ;
#172 = DIRECTION ( 'NONE',  ( 0.000000000000000000, 0.000000000000000000, 1.000000000000000000 ) ) ;
#173 = EDGE_LOOP ( 'NONE', ( #71, #326, #179, #200 ) ) ;
#174 = CC_DESIGN_PERSON_AND_ORGANIZATION_ASSIGNMENT ( #372, #275, ( #360 ) ) ;
#175 = CARTESIAN_POINT ( 'NONE',  ( -10.81000000000000050, -13.00000000000000000, -0.004003373802807536769 ) ) ;
#176 = VERTEX_POINT ( 'NONE', #366 ) ;
#177 = CARTESIAN_POINT ( 'NONE',  ( -90.00143572758659616, 13.00000000000000000, -0.004003373802807536769 ) ) ;
#178 = ADVANCED_FACE ( 'NONE', ( #80 ), #204, .F. ) ;
#179 = ORIENTED_EDGE ( 'NONE', *, *, #307, .F. ) ;
#180 = DIRECTION ( 'NONE',  ( -0.000000000000000000, 1.000000000000000000, -0.000000000000000000 ) ) ;
#181 = ORIENTED_EDGE ( 'NONE', *, *, #79, .F. ) ;
#182 = SECURITY_CLASSIFICATION_LEVEL ( 'unclassified' ) ;
#183 = DIRECTION ( 'NONE',  ( -0.000000000000000000, 1.000000000000000000, -0.000000000000000000 ) ) ;
#184 = LINE ( 'NONE', #146, #124 ) ;
#185 = CC_DESIGN_APPROVAL ( #238, ( #360 ) ) ;
#186 = AXIS2_PLACEMENT_3D ( 'NONE', #349, #164, #6 ) ;
#187 = PERSON_AND_ORGANIZATION_ROLE ( 'creator' ) ;
#188 =( NAMED_UNIT ( * ) PLANE_ANGLE_UNIT ( ) SI_UNIT ( $, .RADIAN. ) );
#189 = CC_DESIGN_PERSON_AND_ORGANIZATION_ASSIGNMENT ( #405, #187, ( #92 ) ) ;
#190 = AXIS2_PLACEMENT_3D ( 'NONE', #95, #224, #222 ) ;
#191 = CARTESIAN_POINT ( 'NONE',  ( -0.001435727586592688843, 8.000000000000000000, 74.99599662619718288 ) ) ;
#192 = LINE ( 'NONE', #350, #16 ) ;
#193 = EDGE_CURVE ( 'NONE', #333, #301, #370, .T. ) ;
#194 = VECTOR ( 'NONE', #180, 1000.000000000000000 ) ;
#195 = FACE_OUTER_BOUND ( 'NONE', #108, .T. ) ;
#196 = PRODUCT ( 'BigBallBearingHolder_Default_sldprt', 'BigBallBearingHolder_Default_sldprt', '', ( #2 ) ) ;
#197 = CYLINDRICAL_SURFACE ( 'NONE', #265, 75.00000000000000000 ) ;
#198 = AXIS2_PLACEMENT_3D ( 'NONE', #382, #387, #282 ) ;
#199 = ORIENTED_EDGE ( 'NONE', *, *, #123, .F. ) ;
#200 = ORIENTED_EDGE ( 'NONE', *, *, #288, .T. ) ;
#201 = CARTESIAN_POINT ( 'NONE',  ( -0.001435727586592688843, 13.00000000000000000, -0.004003373802807536769 ) ) ;
#202 = ORIENTED_EDGE ( 'NONE', *, *, #49, .F. ) ;
#203 = ADVANCED_FACE ( 'NONE', ( #248 ), #277, .F. ) ;
#204 = CYLINDRICAL_SURFACE ( 'NONE', #98, 75.00000000000000000 ) ;
#205 = LOCAL_TIME ( 14, 56, 50.00000000000000000, #100 ) ;
#206 = ORIENTED_EDGE ( 'NONE', *, *, #86, .T. ) ;
#207 = CARTESIAN_POINT ( 'NONE',  ( -75.00143572758659616, 8.000000000000000000, -0.004003373802807536769 ) ) ;
#208 = ORIENTED_EDGE ( 'NONE', *, *, #412, .F. ) ;
#209 = DATE_AND_TIME ( #88, #104 ) ;
#210 = DIRECTION ( 'NONE',  ( -0.000000000000000000, 1.000000000000000000, -0.000000000000000000 ) ) ;
#211 = DIRECTION ( 'NONE',  ( 0.000000000000000000, 0.000000000000000000, 1.000000000000000000 ) ) ;
#212 = APPROVAL_STATUS ( 'not_yet_approved' ) ;
#213 = VECTOR ( 'NONE', #285, 1000.000000000000000 ) ;
#214 = APPROVAL_DATE_TIME ( #87, #238 ) ;
#215 = EDGE_LOOP ( 'NONE', ( #55, #39, #111, #199 ) ) ;
#216 = PERSON_AND_ORGANIZATION ( #56, #228 ) ;
#217 = CARTESIAN_POINT ( 'NONE',  ( -70.00143572758659616, -13.00000000000000000, -0.004003373802807536769 ) ) ;
#218 = VERTEX_POINT ( 'NONE', #65 ) ;
#219 = AXIS2_PLACEMENT_3D ( 'NONE', #221, #351, #225 ) ;
#220 = CARTESIAN_POINT ( 'NONE',  ( -70.00143572758659616, 13.00000000000000000, -0.004003373802807536769 ) ) ;
#221 = CARTESIAN_POINT ( 'NONE',  ( -10.81000000000000050, 13.00000000000000000, -3.160000000000000142 ) ) ;
#222 = DIRECTION ( 'NONE',  ( 0.000000000000000000, 0.000000000000000000, 1.000000000000000000 ) ) ;
#223 = AXIS2_PLACEMENT_3D ( 'NONE', #287, #139, #358 ) ;
#224 = DIRECTION ( 'NONE',  ( 0.000000000000000000, 1.000000000000000000, -0.000000000000000000 ) ) ;
#225 = DIRECTION ( 'NONE',  ( 0.000000000000000000, 0.000000000000000000, 1.000000000000000000 ) ) ;
#226 = EDGE_LOOP ( 'NONE', ( #122, #15, #151, #391, #171 ) ) ;
#227 = VERTEX_POINT ( 'NONE', #217 ) ;
#228 = ORGANIZATION ( 'UNSPECIFIED', 'UNSPECIFIED', '' ) ;
#229 = LINE ( 'NONE', #361, #293 ) ;
#230 = CC_DESIGN_PERSON_AND_ORGANIZATION_ASSIGNMENT ( #258, #44, ( #137 ) ) ;
#231 = EDGE_LOOP ( 'NONE', ( #13, #375, #323, #367 ) ) ;
#232 = LINE ( 'NONE', #236, #353 ) ;
#233 = EDGE_CURVE ( 'NONE', #263, #8, #126, .T. ) ;
#234 = ORIENTED_EDGE ( 'NONE', *, *, #103, .T. ) ;
#235 = PLANE ( 'NONE',  #170 ) ;
#236 = CARTESIAN_POINT ( 'NONE',  ( 69.99856427241340384, 13.00000000000000000, -0.004003373802807536769 ) ) ;
#237 = ORIENTED_EDGE ( 'NONE', *, *, #193, .T. ) ;
#238 = APPROVAL ( #245, 'UNSPECIFIED' ) ;
#239 = APPROVAL_PERSON_ORGANIZATION ( #216, #320, #345 ) ;
#240 = DIRECTION ( 'NONE',  ( 0.000000000000000000, 0.000000000000000000, 1.000000000000000000 ) ) ;
#241 = EDGE_LOOP ( 'NONE', ( #78, #379, #147, #371 ) ) ;
#242 = LOCAL_TIME ( 14, 56, 50.00000000000000000, #272 ) ;
#243 = PERSON_AND_ORGANIZATION_ROLE ( 'design_supplier' ) ;
#244 = DIRECTION ( 'NONE',  ( -0.000000000000000000, 1.000000000000000000, -0.000000000000000000 ) ) ;
#245 = APPROVAL_STATUS ( 'not_yet_approved' ) ;
#246 = CIRCLE ( 'NONE', #158, 70.00000000000000000 ) ;
#247 = ADVANCED_FACE ( 'NONE', ( #195 ), #254, .T. ) ;
#248 = FACE_OUTER_BOUND ( 'NONE', #215, .T. ) ;
#249 = CALENDAR_DATE ( 2026, 12, 7 ) ;
#250 = VECTOR ( 'NONE', #132, 1000.000000000000000 ) ;
#251 = CARTESIAN_POINT ( 'NONE',  ( -0.001435727586592688843, -7.999999999999998224, 74.99599662619718288 ) ) ;
#252 = DIRECTION ( 'NONE',  ( 0.000000000000000000, 1.000000000000000000, -0.000000000000000000 ) ) ;
#253 = PERSON_AND_ORGANIZATION_ROLE ( 'design_owner' ) ;
#254 = PLANE ( 'NONE',  #342 ) ;
#255 = VERTEX_POINT ( 'NONE', #40 ) ;
#256 = AXIS2_PLACEMENT_3D ( 'NONE', #73, #20, #172 ) ;
#257 = APPROVAL_ROLE ( '' ) ;
#258 = PERSON_AND_ORGANIZATION ( #56, #228 ) ;
#259 = PLANE ( 'NONE',  #35 ) ;
#260 = CALENDAR_DATE ( 2026, 12, 7 ) ;
#261 = CARTESIAN_POINT ( 'NONE',  ( 69.99856427241340384, 13.00000000000000000, -0.004003373802807536769 ) ) ;
#262 = LINE ( 'NONE', #395, #380 ) ;
#263 = VERTEX_POINT ( 'NONE', #317 ) ;
#264 = ADVANCED_FACE ( 'NONE', ( #93 ), #161, .T. ) ;
#265 = AXIS2_PLACEMENT_3D ( 'NONE', #334, #299, #286 ) ;
#266 = CARTESIAN_POINT ( 'NONE',  ( -0.001435727586592688843, -13.00000000000000000, -0.004003373802807536769 ) ) ;
#267 = DIRECTION ( 'NONE',  ( -0.000000000000000000, -1.000000000000000000, -0.000000000000000000 ) ) ;
#268 = ORIENTED_EDGE ( 'NONE', *, *, #233, .F. ) ;
#269 = DIRECTION ( 'NONE',  ( -0.000000000000000000, 1.000000000000000000, -0.000000000000000000 ) ) ;
#270 = ORIENTED_EDGE ( 'NONE', *, *, #407, .T. ) ;
#271 = UNCERTAINTY_MEASURE_WITH_UNIT (LENGTH_MEASURE( 1.000000000000000082E-05 ), #125, 'distance_accuracy_value', 'NONE');
#272 = COORDINATED_UNIVERSAL_TIME_OFFSET ( 3, 30, .AHEAD. ) ;
#273 = LINE ( 'NONE', #177, #154 ) ;
#274 = CIRCLE ( 'NONE', #63, 90.00000000000000000 ) ;
#275 = PERSON_AND_ORGANIZATION_ROLE ( 'classification_officer' ) ;
#276 = DIRECTION ( 'NONE',  ( 0.000000000000000000, 0.000000000000000000, 1.000000000000000000 ) ) ;
#277 = PLANE ( 'NONE',  #331 ) ;
#278 = AXIS2_PLACEMENT_3D ( 'NONE', #373, #300, #404 ) ;
#279 = DIRECTION ( 'NONE',  ( -1.000000000000000000, 0.000000000000000000, -0.000000000000000000 ) ) ;
#280 = CIRCLE ( 'NONE', #72, 90.00000000000000000 ) ;
#281 = CARTESIAN_POINT ( 'NONE',  ( -70.00143572758659616, -7.999999999999998224, -0.004003373802807536769 ) ) ;
#282 = DIRECTION ( 'NONE',  ( 0.000000000000000000, 0.000000000000000000, -1.000000000000000000 ) ) ;
#283 = ORIENTED_EDGE ( 'NONE', *, *, #62, .F. ) ;
#284 = FACE_OUTER_BOUND ( 'NONE', #231, .T. ) ;
#285 = DIRECTION ( 'NONE',  ( -0.000000000000000000, -1.000000000000000000, -0.000000000000000000 ) ) ;
#286 = DIRECTION ( 'NONE',  ( 0.000000000000000000, 0.000000000000000000, 1.000000000000000000 ) ) ;
#287 = CARTESIAN_POINT ( 'NONE',  ( -0.001435727586592688843, 8.000000000000000000, -0.004003373802807536769 ) ) ;
#288 = EDGE_CURVE ( 'NONE', #105, #255, #159, .T. ) ;
#289 = CARTESIAN_POINT ( 'NONE',  ( -70.00143572758659616, 8.000000000000000000, -0.004003373802807536769 ) ) ;
#290 = DIRECTION ( 'NONE',  ( -0.000000000000000000, -1.000000000000000000, -0.000000000000000000 ) ) ;
#291 = ORIENTED_EDGE ( 'NONE', *, *, #18, .F. ) ;
#292 = CARTESIAN_POINT ( 'NONE',  ( -10.81000000000000050, 8.000000000000000000, -0.004003373802807536769 ) ) ;
#293 = VECTOR ( 'NONE', #14, 1000.000000000000000 ) ;
#294 = EDGE_CURVE ( 'NONE', #52, #74, #70, .T. ) ;
#295 = ORIENTED_EDGE ( 'NONE', *, *, #354, .T. ) ;
#296 = DIRECTION ( 'NONE',  ( 0.000000000000000000, 0.000000000000000000, -1.000000000000000000 ) ) ;
#297 = DIRECTION ( 'NONE',  ( 0.000000000000000000, 0.000000000000000000, 1.000000000000000000 ) ) ;
#298 = ORIENTED_EDGE ( 'NONE', *, *, #400, .F. ) ;
#299 = DIRECTION ( 'NONE',  ( -0.000000000000000000, 1.000000000000000000, -0.000000000000000000 ) ) ;
#300 = DIRECTION ( 'NONE',  ( 0.000000000000000000, -1.000000000000000000, 0.000000000000000000 ) ) ;
#301 = VERTEX_POINT ( 'NONE', #191 ) ;
#302 = EDGE_CURVE ( 'NONE', #255, #218, #192, .T. ) ;
#303 = VECTOR ( 'NONE', #390, 1000.000000000000000 ) ;
#304 = COORDINATED_UNIVERSAL_TIME_OFFSET ( 3, 30, .AHEAD. ) ;
#305 = APPROVAL ( #166, 'UNSPECIFIED' ) ;
#306 = EDGE_CURVE ( 'NONE', #393, #396, #129, .T. ) ;
#307 = EDGE_CURVE ( 'NONE', #105, #176, #313, .T. ) ;
#308 = CARTESIAN_POINT ( 'NONE',  ( -10.81000000000000050, -13.00000000000000000, -3.160000000000000142 ) ) ;
#309 = CLOSED_SHELL ( 'NONE', ( #178, #348, #43, #352, #59, #264, #37, #203, #378, #383, #247 ) ) ;
#310 = ORIENTED_EDGE ( 'NONE', *, *, #233, .T. ) ;
#311 = CC_DESIGN_APPROVAL ( #320, ( #92 ) ) ;
#312 = DIRECTION ( 'NONE',  ( 0.000000000000000000, 1.000000000000000000, -0.000000000000000000 ) ) ;
#313 = LINE ( 'NONE', #220, #213 ) ;
#314 = EDGE_CURVE ( 'NONE', #160, #218, #280, .T. ) ;
#315 = AXIS2_PLACEMENT_3D ( 'NONE', #30, #210, #276 ) ;
#316 = APPLICATION_CONTEXT ( 'configuration controlled 3d designs of mechanical parts and assemblies' ) ;
#317 = CARTESIAN_POINT ( 'NONE',  ( 69.99856427241340384, -7.999999999999991118, -0.004003373802807536769 ) ) ;
#318 = ADVANCED_BREP_SHAPE_REPRESENTATION ( 'BigBallBearingHolder_Default_sldprt', ( #131, #186 ), #377 ) ;
#319 = PLANE ( 'NONE',  #53 ) ;
#320 = APPROVAL ( #212, 'UNSPECIFIED' ) ;
#321 = VECTOR ( 'NONE', #183, 1000.000000000000000 ) ;
#322 = ORIENTED_EDGE ( 'NONE', *, *, #157, .F. ) ;
#323 = ORIENTED_EDGE ( 'NONE', *, *, #302, .F. ) ;
#324 = DATE_AND_TIME ( #260, #135 ) ;
#325 = DIRECTION ( 'NONE',  ( 0.000000000000000000, 0.000000000000000000, -1.000000000000000000 ) ) ;
#326 = ORIENTED_EDGE ( 'NONE', *, *, #61, .T. ) ;
#327 = PRODUCT_RELATED_PRODUCT_CATEGORY ( 'detail', '', ( #196 ) ) ;
#328 = DIRECTION ( 'NONE',  ( -1.000000000000000000, 0.000000000000000000, -0.000000000000000000 ) ) ;
#329 = ORIENTED_EDGE ( 'NONE', *, *, #79, .T. ) ;
#330 = VECTOR ( 'NONE', #144, 1000.000000000000000 ) ;
#331 = AXIS2_PLACEMENT_3D ( 'NONE', #308, #312, #127 ) ;
#332 = CARTESIAN_POINT ( 'NONE',  ( -0.001435727586592688843, 13.00000000000000000, -0.004003373802807536769 ) ) ;
#333 = VERTEX_POINT ( 'NONE', #251 ) ;
#334 = CARTESIAN_POINT ( 'NONE',  ( -0.001435727586592688843, 13.00000000000000000, -0.004003373802807536769 ) ) ;
#335 = DIRECTION ( 'NONE',  ( 1.000000000000000000, -0.000000000000000000, 0.000000000000000000 ) ) ;
#336 = ORIENTED_EDGE ( 'NONE', *, *, #10, .T. ) ;
#337 = PERSON_AND_ORGANIZATION ( #56, #228 ) ;
#338 = DIRECTION ( 'NONE',  ( 0.000000000000000000, 0.000000000000000000, 1.000000000000000000 ) ) ;
#339 = APPLICATION_CONTEXT ( 'configuration controlled 3d designs of mechanical parts and assemblies' ) ;
#340 = APPROVAL_PERSON_ORGANIZATION ( #337, #238, #155 ) ;
#341 = CARTESIAN_POINT ( 'NONE',  ( 74.99856427241338963, 13.00000000000000000, -0.004003373802807536769 ) ) ;
#342 = AXIS2_PLACEMENT_3D ( 'NONE', #38, #4, #355 ) ;
#343 = SHAPE_DEFINITION_REPRESENTATION ( #9, #318 ) ;
#344 = DIRECTION ( 'NONE',  ( -0.000000000000000000, -1.000000000000000000, -0.000000000000000000 ) ) ;
#345 = APPROVAL_ROLE ( '' ) ;
#346 = ORIENTED_EDGE ( 'NONE', *, *, #157, .T. ) ;
#347 = AXIS2_PLACEMENT_3D ( 'NONE', #381, #117, #296 ) ;
#348 = ADVANCED_FACE ( 'NONE', ( #138 ), #259, .T. ) ;
#349 = CARTESIAN_POINT ( 'NONE',  ( 0.000000000000000000, 0.000000000000000000, 0.000000000000000000 ) ) ;
#350 = CARTESIAN_POINT ( 'NONE',  ( -10.81000000000000050, 13.00000000000000000, -0.004003373802807536769 ) ) ;
#351 = DIRECTION ( 'NONE',  ( 0.000000000000000000, 1.000000000000000000, -0.000000000000000000 ) ) ;
#352 = ADVANCED_FACE ( 'NONE', ( #410 ), #128, .F. ) ;
#353 = VECTOR ( 'NONE', #364, 1000.000000000000000 ) ;
#354 = EDGE_CURVE ( 'NONE', #176, #52, #76, .T. ) ;
#355 = DIRECTION ( 'NONE',  ( 0.000000000000000000, 0.000000000000000000, 1.000000000000000000 ) ) ;
#356 = ORIENTED_EDGE ( 'NONE', *, *, #145, .T. ) ;
#357 = FACE_OUTER_BOUND ( 'NONE', #143, .T. ) ;
#358 = DIRECTION ( 'NONE',  ( 0.000000000000000000, 0.000000000000000000, 1.000000000000000000 ) ) ;
#359 = ORIENTED_EDGE ( 'NONE', *, *, #62, .T. ) ;
#360 = SECURITY_CLASSIFICATION ( '', '', #182 ) ;
#361 = CARTESIAN_POINT ( 'NONE',  ( -10.81000000000000050, -7.999999999999998224, -0.004003373802807536769 ) ) ;
#362 = ORIENTED_EDGE ( 'NONE', *, *, #294, .T. ) ;
#363 = DATE_AND_TIME ( #249, #205 ) ;
#364 = DIRECTION ( 'NONE',  ( -0.000000000000000000, -1.000000000000000000, -0.000000000000000000 ) ) ;
#365 = ORIENTED_EDGE ( 'NONE', *, *, #103, .F. ) ;
#366 = CARTESIAN_POINT ( 'NONE',  ( -70.00143572758659616, 8.000000000000000000, -0.004003373802807536769 ) ) ;
#367 = ORIENTED_EDGE ( 'NONE', *, *, #288, .F. ) ;
#368 = CIRCLE ( 'NONE', #223, 75.00000000000000000 ) ;
#369 = AXIS2_PLACEMENT_3D ( 'NONE', #51, #113, #338 ) ;
#370 = LINE ( 'NONE', #83, #194 ) ;
#371 = ORIENTED_EDGE ( 'NONE', *, *, #133, .T. ) ;
#372 = PERSON_AND_ORGANIZATION ( #56, #228 ) ;
#373 = CARTESIAN_POINT ( 'NONE',  ( -0.001435727586592688843, 8.000000000000000000, -0.004003373802807536769 ) ) ;
#374 = CALENDAR_DATE ( 2026, 12, 7 ) ;
#375 = ORIENTED_EDGE ( 'NONE', *, *, #314, .T. ) ;
#376 = CALENDAR_DATE ( 2026, 12, 7 ) ;
#377 =( GEOMETRIC_REPRESENTATION_CONTEXT ( 3 ) GLOBAL_UNCERTAINTY_ASSIGNED_CONTEXT ( ( #271 ) ) GLOBAL_UNIT_ASSIGNED_CONTEXT ( ( #125, #188, #406 ) ) REPRESENTATION_CONTEXT ( 'NONE', 'WORKASPACE' ) );
#378 = ADVANCED_FACE ( 'NONE', ( #109 ), #235, .T. ) ;
#379 = ORIENTED_EDGE ( 'NONE', *, *, #86, .F. ) ;
#380 = VECTOR ( 'NONE', #392, 1000.000000000000000 ) ;
#381 = CARTESIAN_POINT ( 'NONE',  ( -0.001435727586592688843, 13.00000000000000000, -0.004003373802807536769 ) ) ;
#382 = CARTESIAN_POINT ( 'NONE',  ( -0.001435727586592688843, 13.00000000000000000, -0.004003373802807536769 ) ) ;
#383 = ADVANCED_FACE ( 'NONE', ( #112 ), #197, .F. ) ;
#384 = APPLICATION_PROTOCOL_DEFINITION ( 'international standard', 'config_control_design', 1994, #316 ) ;
#385 = DIRECTION ( 'NONE',  ( 1.000000000000000000, 0.000000000000000000, 0.000000000000000000 ) ) ;
#386 = CARTESIAN_POINT ( 'NONE',  ( 89.99856427241340384, -13.00000000000000000, -0.004003373802807536769 ) ) ;
#387 = DIRECTION ( 'NONE',  ( -0.000000000000000000, -1.000000000000000000, -0.000000000000000000 ) ) ;
#388 = PLANE ( 'NONE',  #219 ) ;
#389 = CARTESIAN_POINT ( 'NONE',  ( -10.81000000000000050, 13.00000000000000000, -0.004003373802807536769 ) ) ;
#390 = DIRECTION ( 'NONE',  ( -0.000000000000000000, -1.000000000000000000, -0.000000000000000000 ) ) ;
#391 = ORIENTED_EDGE ( 'NONE', *, *, #133, .F. ) ;
#392 = DIRECTION ( 'NONE',  ( 1.000000000000000000, -0.000000000000000000, 0.000000000000000000 ) ) ;
#393 = VERTEX_POINT ( 'NONE', #23 ) ;
#394 = VECTOR ( 'NONE', #169, 1000.000000000000000 ) ;
#395 = CARTESIAN_POINT ( 'NONE',  ( -10.81000000000000050, 13.00000000000000000, -0.004003373802807536769 ) ) ;
#396 = VERTEX_POINT ( 'NONE', #11 ) ;
#397 = ORIENTED_EDGE ( 'NONE', *, *, #407, .F. ) ;
#398 = DIRECTION ( 'NONE',  ( -0.000000000000000000, -1.000000000000000000, -0.000000000000000000 ) ) ;
#399 = ORIENTED_EDGE ( 'NONE', *, *, #306, .T. ) ;
#400 = EDGE_CURVE ( 'NONE', #255, #396, #141, .T. ) ;
#401 = CARTESIAN_POINT ( 'NONE',  ( -0.001435727586592688843, -13.00000000000000000, -0.004003373802807536769 ) ) ;
#402 = EDGE_LOOP ( 'NONE', ( #181, #134, #356, #202 ) ) ;
#403 = APPROVAL_DATE_TIME ( #22, #320 ) ;
#404 = DIRECTION ( 'NONE',  ( 0.000000000000000000, 0.000000000000000000, -1.000000000000000000 ) ) ;
#405 = PERSON_AND_ORGANIZATION ( #56, #228 ) ;
#406 =( NAMED_UNIT ( * ) SI_UNIT ( $, .STERADIAN. ) SOLID_ANGLE_UNIT ( ) );
#407 = EDGE_CURVE ( 'NONE', #8, #393, #156, .T. ) ;
#408 = DESIGN_CONTEXT ( 'detailed design', #316, 'design' ) ;
#409 = CIRCLE ( 'NONE', #369, 75.00000000000000000 ) ;
#410 = FACE_OUTER_BOUND ( 'NONE', #173, .T. ) ;
#411 = PERSON_AND_ORGANIZATION ( #56, #228 ) ;
#412 = EDGE_CURVE ( 'NONE', #25, #263, #89, .T. ) ;
ENDSEC;
END-ISO-10303-21;
