ISO-10303-21;
HEADER;
FILE_DESCRIPTION (( 'STEP AP203' ),
    '1' );
FILE_NAME ('BigBallBearingInner_Default_sldprt.STEP',
    '2026-07-12T12:37:33',
    ( '' ),
    ( '' ),
    'SwSTEP 2.0',
    'SolidWorks 2025',
    '' );
FILE_SCHEMA (( 'CONFIG_CONTROL_DESIGN' ));
ENDSEC;

DATA;
#1 = DIRECTION ( 'NONE',  ( 0.000000000000000000, 0.000000000000000000, -1.000000000000000000 ) ) ;
#2 = PERSON_AND_ORGANIZATION_ROLE ( 'creator' ) ;
#3 = AXIS2_PLACEMENT_3D ( 'NONE', #109, #131, #84 ) ;
#4 = DATE_AND_TIME ( #235, #46 ) ;
#5 = EDGE_LOOP ( 'NONE', ( #60, #170, #195, #139 ) ) ;
#6 = ADVANCED_FACE ( 'NONE', ( #9 ), #242, .T. ) ;
#7 = CARTESIAN_POINT ( 'NONE',  ( 0.000000000000000000, 47.85999999999999943, 0.000000000000000000 ) ) ;
#8 = FACE_OUTER_BOUND ( 'NONE', #128, .T. ) ;
#9 = FACE_OUTER_BOUND ( 'NONE', #118, .T. ) ;
#10 = DIRECTION ( 'NONE',  ( -0.000000000000000000, -1.000000000000000000, -0.000000000000000000 ) ) ;
#11 = ORIENTED_EDGE ( 'NONE', *, *, #193, .F. ) ;
#12 = AXIS2_PLACEMENT_3D ( 'NONE', #107, #64, #223 ) ;
#13 = PRODUCT_DEFINITION_SHAPE ( 'NONE', 'NONE',  #159 ) ;
#14 = APPROVAL_DATE_TIME ( #70, #57 ) ;
#15 = CC_DESIGN_DATE_AND_TIME_ASSIGNMENT ( #73, #180, ( #83 ) ) ;
#16 = DIRECTION ( 'NONE',  ( -0.000000000000000000, -1.000000000000000000, -0.000000000000000000 ) ) ;
#17 = EDGE_CURVE ( 'NONE', #150, #200, #130, .T. ) ;
#18 = ORIENTED_EDGE ( 'NONE', *, *, #36, .T. ) ;
#19 = PERSON_AND_ORGANIZATION ( #225, #199 ) ;
#20 = LOCAL_TIME ( 16, 7, 33.00000000000000000, #156 ) ;
#21 = PERSON_AND_ORGANIZATION ( #225, #199 ) ;
#22 = DIRECTION ( 'NONE',  ( 0.000000000000000000, 1.000000000000000000, 0.000000000000000000 ) ) ;
#23 = FACE_BOUND ( 'NONE', #165, .T. ) ;
#24 = VECTOR ( 'NONE', #146, 1000.000000000000000 ) ;
#25 = ADVANCED_FACE ( 'NONE', ( #144, #23 ), #221, .F. ) ;
#26 = ORIENTED_EDGE ( 'NONE', *, *, #164, .T. ) ;
#27 = LINE ( 'NONE', #189, #71 ) ;
#28 = DIRECTION ( 'NONE',  ( -0.000000000000000000, -1.000000000000000000, -0.000000000000000000 ) ) ;
#29 = CC_DESIGN_DATE_AND_TIME_ASSIGNMENT ( #34, #114, ( #159 ) ) ;
#30 = CIRCLE ( 'NONE', #105, 50.00000000000000000 ) ;
#31 = CARTESIAN_POINT ( 'NONE',  ( 0.000000000000000000, 47.85999999999999943, 0.000000000000000000 ) ) ;
#32 = CIRCLE ( 'NONE', #155, 60.00000000000000000 ) ;
#33 = PRODUCT_RELATED_PRODUCT_CATEGORY ( 'detail', '', ( #211 ) ) ;
#34 = DATE_AND_TIME ( #52, #20 ) ;
#35 = EDGE_LOOP ( 'NONE', ( #76, #236 ) ) ;
#36 = EDGE_CURVE ( 'NONE', #215, #218, #202, .T. ) ;
#37 = DIRECTION ( 'NONE',  ( 0.000000000000000000, 1.000000000000000000, 0.000000000000000000 ) ) ;
#38 = CC_DESIGN_APPROVAL ( #86, ( #169 ) ) ;
#39 = ORIENTED_EDGE ( 'NONE', *, *, #219, .F. ) ;
#40 = DIRECTION ( 'NONE',  ( 1.000000000000000000, 0.000000000000000000, 0.000000000000000000 ) ) ;
#41 = PERSON_AND_ORGANIZATION ( #225, #199 ) ;
#42 = VERTEX_POINT ( 'NONE', #168 ) ;
#43 = ORIENTED_EDGE ( 'NONE', *, *, #36, .F. ) ;
#44 = DIRECTION ( 'NONE',  ( 0.000000000000000000, 0.000000000000000000, -1.000000000000000000 ) ) ;
#45 = CYLINDRICAL_SURFACE ( 'NONE', #209, 60.00000000000000000 ) ;
#46 = LOCAL_TIME ( 16, 7, 33.00000000000000000, #239 ) ;
#47 = ORIENTED_EDGE ( 'NONE', *, *, #78, .T. ) ;
#48 = DIRECTION ( 'NONE',  ( 0.000000000000000000, 0.000000000000000000, 1.000000000000000000 ) ) ;
#49 = CARTESIAN_POINT ( 'NONE',  ( 0.000000000000000000, 47.85999999999999943, 0.000000000000000000 ) ) ;
#50 = APPROVAL_STATUS ( 'not_yet_approved' ) ;
#51 =( LENGTH_UNIT ( ) NAMED_UNIT ( * ) SI_UNIT ( .MILLI., .METRE. ) );
#52 = CALENDAR_DATE ( 2026, 12, 7 ) ;
#53 = EDGE_CURVE ( 'NONE', #218, #215, #74, .T. ) ;
#54 = PERSON_AND_ORGANIZATION ( #225, #199 ) ;
#55 = VECTOR ( 'NONE', #16, 1000.000000000000000 ) ;
#56 = EDGE_LOOP ( 'NONE', ( #177, #238, #100, #241 ) ) ;
#57 = APPROVAL ( #50, 'UNSPECIFIED' ) ;
#58 = ORIENTED_EDGE ( 'NONE', *, *, #212, .T. ) ;
#59 = LOCAL_TIME ( 16, 7, 33.00000000000000000, #121 ) ;
#60 = ORIENTED_EDGE ( 'NONE', *, *, #164, .F. ) ;
#61 = CC_DESIGN_APPROVAL ( #57, ( #159 ) ) ;
#62 = PLANE ( 'NONE',  #12 ) ;
#63 = PERSON_AND_ORGANIZATION_ROLE ( 'classification_officer' ) ;
#64 = DIRECTION ( 'NONE',  ( 0.000000000000000000, 1.000000000000000000, 0.000000000000000000 ) ) ;
#65 = DIRECTION ( 'NONE',  ( 0.000000000000000000, 0.000000000000000000, 1.000000000000000000 ) ) ;
#66 = FACE_OUTER_BOUND ( 'NONE', #56, .T. ) ;
#67 = CC_DESIGN_PERSON_AND_ORGANIZATION_ASSIGNMENT ( #21, #2, ( #169 ) ) ;
#68 = AXIS2_PLACEMENT_3D ( 'NONE', #167, #79, #65 ) ;
#69 = DIRECTION ( 'NONE',  ( -0.000000000000000000, -1.000000000000000000, -0.000000000000000000 ) ) ;
#70 = DATE_AND_TIME ( #192, #246 ) ;
#71 = VECTOR ( 'NONE', #201, 1000.000000000000000 ) ;
#72 = CARTESIAN_POINT ( 'NONE',  ( 0.000000000000000000, 0.000000000000000000, 0.000000000000000000 ) ) ;
#73 = DATE_AND_TIME ( #80, #59 ) ;
#74 = CIRCLE ( 'NONE', #183, 50.00000000000000000 ) ;
#75 = ORIENTED_EDGE ( 'NONE', *, *, #212, .F. ) ;
#76 = ORIENTED_EDGE ( 'NONE', *, *, #17, .F. ) ;
#77 = DATE_AND_TIME ( #141, #151 ) ;
#78 = EDGE_CURVE ( 'NONE', #231, #98, #91, .T. ) ;
#79 = DIRECTION ( 'NONE',  ( 0.000000000000000000, 1.000000000000000000, 0.000000000000000000 ) ) ;
#80 = CALENDAR_DATE ( 2026, 12, 7 ) ;
#81 = DIRECTION ( 'NONE',  ( 0.000000000000000000, 0.000000000000000000, -1.000000000000000000 ) ) ;
#82 = CARTESIAN_POINT ( 'NONE',  ( 0.000000000000000000, 0.000000000000000000, 0.000000000000000000 ) ) ;
#83 = SECURITY_CLASSIFICATION ( '', '', #127 ) ;
#84 = DIRECTION ( 'NONE',  ( 0.000000000000000000, 0.000000000000000000, 1.000000000000000000 ) ) ;
#85 = APPROVAL_PERSON_ORGANIZATION ( #176, #57, #208 ) ;
#86 = APPROVAL ( #95, 'UNSPECIFIED' ) ;
#87 = DIRECTION ( 'NONE',  ( 0.000000000000000000, 1.000000000000000000, 0.000000000000000000 ) ) ;
#88 = UNCERTAINTY_MEASURE_WITH_UNIT (LENGTH_MEASURE( 1.000000000000000082E-05 ), #51, 'distance_accuracy_value', 'NONE');
#89 = APPROVAL_PERSON_ORGANIZATION ( #161, #90, #178 ) ;
#90 = APPROVAL ( #163, 'UNSPECIFIED' ) ;
#91 = CIRCLE ( 'NONE', #3, 50.00000000000000000 ) ;
#92 = CARTESIAN_POINT ( 'NONE',  ( 6.123233995736766085E-15, 47.85999999999999943, 50.00000000000000000 ) ) ;
#93 = APPLICATION_PROTOCOL_DEFINITION ( 'international standard', 'config_control_design', 1994, #133 ) ;
#94 = CC_DESIGN_SECURITY_CLASSIFICATION ( #83, ( #169 ) ) ;
#95 = APPROVAL_STATUS ( 'not_yet_approved' ) ;
#96 = DIRECTION ( 'NONE',  ( 0.000000000000000000, 1.000000000000000000, 0.000000000000000000 ) ) ;
#97 = CARTESIAN_POINT ( 'NONE',  ( 0.000000000000000000, 47.85999999999999943, -50.00000000000000000 ) ) ;
#98 = VERTEX_POINT ( 'NONE', #106 ) ;
#99 = AXIS2_PLACEMENT_3D ( 'NONE', #240, #185, #44 ) ;
#100 = ORIENTED_EDGE ( 'NONE', *, *, #113, .T. ) ;
#101 = COORDINATED_UNIVERSAL_TIME_OFFSET ( 3, 30, .AHEAD. ) ;
#102 = MANIFOLD_SOLID_BREP ( 'Boss-Extrude1', #162 ) ;
#103 = DIRECTION ( 'NONE',  ( 0.000000000000000000, -0.000000000000000000, 1.000000000000000000 ) ) ;
#104 = DIRECTION ( 'NONE',  ( 0.000000000000000000, 1.000000000000000000, 0.000000000000000000 ) ) ;
#105 = AXIS2_PLACEMENT_3D ( 'NONE', #197, #37, #136 ) ;
#106 = CARTESIAN_POINT ( 'NONE',  ( 0.000000000000000000, 0.000000000000000000, -50.00000000000000000 ) ) ;
#107 = CARTESIAN_POINT ( 'NONE',  ( 0.000000000000000000, 47.85999999999999943, 0.000000000000000000 ) ) ;
#108 = EDGE_CURVE ( 'NONE', #116, #42, #149, .T. ) ;
#109 = CARTESIAN_POINT ( 'NONE',  ( 0.000000000000000000, 0.000000000000000000, 0.000000000000000000 ) ) ;
#110 = APPROVAL_PERSON_ORGANIZATION ( #194, #86, #198 ) ;
#111 = COORDINATED_UNIVERSAL_TIME_OFFSET ( 3, 30, .AHEAD. ) ;
#112 = PERSON_AND_ORGANIZATION_ROLE ( 'design_owner' ) ;
#113 = EDGE_CURVE ( 'NONE', #116, #150, #126, .T. ) ;
#114 = DATE_TIME_ROLE ( 'creation_date' ) ;
#115 = APPLICATION_CONTEXT ( 'configuration controlled 3d designs of mechanical parts and assemblies' ) ;
#116 = VERTEX_POINT ( 'NONE', #181 ) ;
#117 =( NAMED_UNIT ( * ) PLANE_ANGLE_UNIT ( ) SI_UNIT ( $, .RADIAN. ) );
#118 = EDGE_LOOP ( 'NONE', ( #11, #186, #122, #224 ) ) ;
#119 = EDGE_CURVE ( 'NONE', #42, #200, #27, .T. ) ;
#120 = EDGE_LOOP ( 'NONE', ( #18, #26, #75, #39 ) ) ;
#121 = COORDINATED_UNIVERSAL_TIME_OFFSET ( 3, 30, .AHEAD. ) ;
#122 = ORIENTED_EDGE ( 'NONE', *, *, #207, .T. ) ;
#123 = AXIS2_PLACEMENT_3D ( 'NONE', #82, #205, #222 ) ;
#124 = CC_DESIGN_PERSON_AND_ORGANIZATION_ASSIGNMENT ( #153, #228, ( #159 ) ) ;
#125 = APPROVAL_DATE_TIME ( #77, #86 ) ;
#126 = LINE ( 'NONE', #245, #24 ) ;
#127 = SECURITY_CLASSIFICATION_LEVEL ( 'unclassified' ) ;
#128 = EDGE_LOOP ( 'NONE', ( #158, #213 ) ) ;
#129 = LINE ( 'NONE', #175, #55 ) ;
#130 = CIRCLE ( 'NONE', #123, 60.00000000000000000 ) ;
#131 = DIRECTION ( 'NONE',  ( 0.000000000000000000, 1.000000000000000000, 0.000000000000000000 ) ) ;
#132 = CARTESIAN_POINT ( 'NONE',  ( 0.000000000000000000, 47.85999999999999943, 0.000000000000000000 ) ) ;
#133 = APPLICATION_CONTEXT ( 'configuration controlled 3d designs of mechanical parts and assemblies' ) ;
#134 = ADVANCED_FACE ( 'NONE', ( #66 ), #45, .T. ) ;
#135 = DIRECTION ( 'NONE',  ( 0.000000000000000000, 0.000000000000000000, 1.000000000000000000 ) ) ;
#136 = DIRECTION ( 'NONE',  ( 0.000000000000000000, 0.000000000000000000, 1.000000000000000000 ) ) ;
#137 = CARTESIAN_POINT ( 'NONE',  ( 0.000000000000000000, 0.000000000000000000, 0.000000000000000000 ) ) ;
#138 = DIRECTION ( 'NONE',  ( 0.000000000000000000, 1.000000000000000000, 0.000000000000000000 ) ) ;
#139 = ORIENTED_EDGE ( 'NONE', *, *, #78, .F. ) ;
#140 = EDGE_LOOP ( 'NONE', ( #43, #237 ) ) ;
#141 = CALENDAR_DATE ( 2026, 12, 7 ) ;
#142 = AXIS2_PLACEMENT_3D ( 'NONE', #72, #135, #40 ) ;
#143 = FACE_OUTER_BOUND ( 'NONE', #120, .T. ) ;
#144 = FACE_OUTER_BOUND ( 'NONE', #35, .T. ) ;
#145 = SHAPE_DEFINITION_REPRESENTATION ( #13, #230 ) ;
#146 = DIRECTION ( 'NONE',  ( -0.000000000000000000, -1.000000000000000000, -0.000000000000000000 ) ) ;
#147 = ADVANCED_FACE ( 'NONE', ( #143 ), #166, .F. ) ;
#148 = CARTESIAN_POINT ( 'NONE',  ( 0.000000000000000000, 47.85999999999999943, 0.000000000000000000 ) ) ;
#149 = CIRCLE ( 'NONE', #216, 60.00000000000000000 ) ;
#150 = VERTEX_POINT ( 'NONE', #188 ) ;
#151 = LOCAL_TIME ( 16, 7, 33.00000000000000000, #101 ) ;
#152 =( NAMED_UNIT ( * ) SI_UNIT ( $, .STERADIAN. ) SOLID_ANGLE_UNIT ( ) );
#153 = PERSON_AND_ORGANIZATION ( #225, #199 ) ;
#154 = ADVANCED_FACE ( 'NONE', ( #8, #203 ), #62, .T. ) ;
#155 = AXIS2_PLACEMENT_3D ( 'NONE', #157, #96, #173 ) ;
#156 = COORDINATED_UNIVERSAL_TIME_OFFSET ( 3, 30, .AHEAD. ) ;
#157 = CARTESIAN_POINT ( 'NONE',  ( 0.000000000000000000, 47.85999999999999943, 0.000000000000000000 ) ) ;
#158 = ORIENTED_EDGE ( 'NONE', *, *, #108, .T. ) ;
#159 = PRODUCT_DEFINITION ( 'UNKNOWN', '', #169, #206 ) ;
#160 = MECHANICAL_CONTEXT ( 'NONE', #115, 'mechanical' ) ;
#161 = PERSON_AND_ORGANIZATION ( #225, #199 ) ;
#162 = CLOSED_SHELL ( 'NONE', ( #147, #6, #154, #25, #134, #227 ) ) ;
#163 = APPROVAL_STATUS ( 'not_yet_approved' ) ;
#164 = EDGE_CURVE ( 'NONE', #218, #231, #129, .T. ) ;
#165 = EDGE_LOOP ( 'NONE', ( #58, #47 ) ) ;
#166 = CYLINDRICAL_SURFACE ( 'NONE', #99, 50.00000000000000000 ) ;
#167 = CARTESIAN_POINT ( 'NONE',  ( 0.000000000000000000, 47.85999999999999943, 0.000000000000000000 ) ) ;
#168 = CARTESIAN_POINT ( 'NONE',  ( 7.347880794884118356E-15, 47.85999999999999943, 60.00000000000000000 ) ) ;
#169 = PRODUCT_DEFINITION_FORMATION_WITH_SPECIFIED_SOURCE ( 'ANY', '', #211, .NOT_KNOWN. ) ;
#170 = ORIENTED_EDGE ( 'NONE', *, *, #53, .T. ) ;
#171 = CC_DESIGN_PERSON_AND_ORGANIZATION_ASSIGNMENT ( #19, #220, ( #169 ) ) ;
#172 = LINE ( 'NONE', #97, #179 ) ;
#173 = DIRECTION ( 'NONE',  ( 0.000000000000000000, 0.000000000000000000, 1.000000000000000000 ) ) ;
#174 = AXIS2_PLACEMENT_3D ( 'NONE', #137, #138, #247 ) ;
#175 = CARTESIAN_POINT ( 'NONE',  ( 6.123233995736766085E-15, 47.85999999999999943, 50.00000000000000000 ) ) ;
#176 = PERSON_AND_ORGANIZATION ( #225, #199 ) ;
#177 = ORIENTED_EDGE ( 'NONE', *, *, #119, .F. ) ;
#178 = APPROVAL_ROLE ( '' ) ;
#179 = VECTOR ( 'NONE', #217, 1000.000000000000000 ) ;
#180 = DATE_TIME_ROLE ( 'classification_date' ) ;
#181 = CARTESIAN_POINT ( 'NONE',  ( 0.000000000000000000, 47.85999999999999943, -60.00000000000000000 ) ) ;
#182 = APPROVAL_DATE_TIME ( #4, #90 ) ;
#183 = AXIS2_PLACEMENT_3D ( 'NONE', #49, #87, #48 ) ;
#184 = CC_DESIGN_PERSON_AND_ORGANIZATION_ASSIGNMENT ( #41, #63, ( #83 ) ) ;
#185 = DIRECTION ( 'NONE',  ( -0.000000000000000000, -1.000000000000000000, -0.000000000000000000 ) ) ;
#186 = ORIENTED_EDGE ( 'NONE', *, *, #119, .T. ) ;
#187 = CC_DESIGN_APPROVAL ( #90, ( #83 ) ) ;
#188 = CARTESIAN_POINT ( 'NONE',  ( 0.000000000000000000, 0.000000000000000000, -60.00000000000000000 ) ) ;
#189 = CARTESIAN_POINT ( 'NONE',  ( 7.347880794884118356E-15, 47.85999999999999943, 60.00000000000000000 ) ) ;
#190 =( GEOMETRIC_REPRESENTATION_CONTEXT ( 3 ) GLOBAL_UNCERTAINTY_ASSIGNED_CONTEXT ( ( #88 ) ) GLOBAL_UNIT_ASSIGNED_CONTEXT ( ( #51, #117, #152 ) ) REPRESENTATION_CONTEXT ( 'NONE', 'WORKASPACE' ) );
#191 = AXIS2_PLACEMENT_3D ( 'NONE', #148, #10, #204 ) ;
#192 = CALENDAR_DATE ( 2026, 12, 7 ) ;
#193 = EDGE_CURVE ( 'NONE', #42, #116, #32, .T. ) ;
#194 = PERSON_AND_ORGANIZATION ( #225, #199 ) ;
#195 = ORIENTED_EDGE ( 'NONE', *, *, #219, .T. ) ;
#196 = APPLICATION_PROTOCOL_DEFINITION ( 'international standard', 'config_control_design', 1994, #115 ) ;
#197 = CARTESIAN_POINT ( 'NONE',  ( 0.000000000000000000, 0.000000000000000000, 0.000000000000000000 ) ) ;
#198 = APPROVAL_ROLE ( '' ) ;
#199 = ORGANIZATION ( 'UNSPECIFIED', 'UNSPECIFIED', '' ) ;
#200 = VERTEX_POINT ( 'NONE', #229 ) ;
#201 = DIRECTION ( 'NONE',  ( -0.000000000000000000, -1.000000000000000000, -0.000000000000000000 ) ) ;
#202 = CIRCLE ( 'NONE', #68, 50.00000000000000000 ) ;
#203 = FACE_BOUND ( 'NONE', #140, .T. ) ;
#204 = DIRECTION ( 'NONE',  ( 0.000000000000000000, 0.000000000000000000, -1.000000000000000000 ) ) ;
#205 = DIRECTION ( 'NONE',  ( 0.000000000000000000, 1.000000000000000000, 0.000000000000000000 ) ) ;
#206 = DESIGN_CONTEXT ( 'detailed design', #133, 'design' ) ;
#207 = EDGE_CURVE ( 'NONE', #200, #150, #233, .T. ) ;
#208 = APPROVAL_ROLE ( '' ) ;
#209 = AXIS2_PLACEMENT_3D ( 'NONE', #7, #28, #81 ) ;
#210 = CARTESIAN_POINT ( 'NONE',  ( 0.000000000000000000, 47.85999999999999943, -50.00000000000000000 ) ) ;
#211 = PRODUCT ( 'BigBallBearingInner_Default_sldprt', 'BigBallBearingInner_Default_sldprt', '', ( #160 ) ) ;
#212 = EDGE_CURVE ( 'NONE', #98, #231, #30, .T. ) ;
#213 = ORIENTED_EDGE ( 'NONE', *, *, #193, .T. ) ;
#214 = FACE_OUTER_BOUND ( 'NONE', #5, .T. ) ;
#215 = VERTEX_POINT ( 'NONE', #210 ) ;
#216 = AXIS2_PLACEMENT_3D ( 'NONE', #132, #22, #244 ) ;
#217 = DIRECTION ( 'NONE',  ( -0.000000000000000000, -1.000000000000000000, -0.000000000000000000 ) ) ;
#218 = VERTEX_POINT ( 'NONE', #92 ) ;
#219 = EDGE_CURVE ( 'NONE', #215, #98, #172, .T. ) ;
#220 = PERSON_AND_ORGANIZATION_ROLE ( 'design_supplier' ) ;
#221 = PLANE ( 'NONE',  #243 ) ;
#222 = DIRECTION ( 'NONE',  ( 0.000000000000000000, 0.000000000000000000, 1.000000000000000000 ) ) ;
#223 = DIRECTION ( 'NONE',  ( 0.000000000000000000, -0.000000000000000000, 1.000000000000000000 ) ) ;
#224 = ORIENTED_EDGE ( 'NONE', *, *, #113, .F. ) ;
#225 = PERSON ( 'UNSPECIFIED', 'UNSPECIFIED', 'UNSPECIFIED', ('UNSPECIFIED'), ('UNSPECIFIED'), ('UNSPECIFIED') ) ;
#226 = CARTESIAN_POINT ( 'NONE',  ( 0.000000000000000000, 0.000000000000000000, 0.000000000000000000 ) ) ;
#227 = ADVANCED_FACE ( 'NONE', ( #214 ), #232, .F. ) ;
#228 = PERSON_AND_ORGANIZATION_ROLE ( 'creator' ) ;
#229 = CARTESIAN_POINT ( 'NONE',  ( 7.347880794884118356E-15, 0.000000000000000000, 60.00000000000000000 ) ) ;
#230 = ADVANCED_BREP_SHAPE_REPRESENTATION ( 'BigBallBearingInner_Default_sldprt', ( #102, #142 ), #190 ) ;
#231 = VERTEX_POINT ( 'NONE', #249 ) ;
#232 = CYLINDRICAL_SURFACE ( 'NONE', #248, 50.00000000000000000 ) ;
#233 = CIRCLE ( 'NONE', #174, 60.00000000000000000 ) ;
#234 = CC_DESIGN_PERSON_AND_ORGANIZATION_ASSIGNMENT ( #54, #112, ( #211 ) ) ;
#235 = CALENDAR_DATE ( 2026, 12, 7 ) ;
#236 = ORIENTED_EDGE ( 'NONE', *, *, #207, .F. ) ;
#237 = ORIENTED_EDGE ( 'NONE', *, *, #53, .F. ) ;
#238 = ORIENTED_EDGE ( 'NONE', *, *, #108, .F. ) ;
#239 = COORDINATED_UNIVERSAL_TIME_OFFSET ( 3, 30, .AHEAD. ) ;
#240 = CARTESIAN_POINT ( 'NONE',  ( 0.000000000000000000, 47.85999999999999943, 0.000000000000000000 ) ) ;
#241 = ORIENTED_EDGE ( 'NONE', *, *, #17, .T. ) ;
#242 = CYLINDRICAL_SURFACE ( 'NONE', #191, 60.00000000000000000 ) ;
#243 = AXIS2_PLACEMENT_3D ( 'NONE', #226, #104, #103 ) ;
#244 = DIRECTION ( 'NONE',  ( 0.000000000000000000, 0.000000000000000000, 1.000000000000000000 ) ) ;
#245 = CARTESIAN_POINT ( 'NONE',  ( 0.000000000000000000, 47.85999999999999943, -60.00000000000000000 ) ) ;
#246 = LOCAL_TIME ( 16, 7, 33.00000000000000000, #111 ) ;
#247 = DIRECTION ( 'NONE',  ( 0.000000000000000000, 0.000000000000000000, 1.000000000000000000 ) ) ;
#248 = AXIS2_PLACEMENT_3D ( 'NONE', #31, #69, #1 ) ;
#249 = CARTESIAN_POINT ( 'NONE',  ( 6.123233995736766085E-15, 0.000000000000000000, 50.00000000000000000 ) ) ;
ENDSEC;
END-ISO-10303-21;
