ISO-10303-21;
HEADER;
FILE_DESCRIPTION (( 'STEP AP203' ),
    '1' );
FILE_NAME ('BigBallBearing_Default_sldprt.STEP',
    '2026-07-12T12:37:30',
    ( '' ),
    ( '' ),
    'SwSTEP 2.0',
    'SolidWorks 2025',
    '' );
FILE_SCHEMA (( 'CONFIG_CONTROL_DESIGN' ));
ENDSEC;

DATA;
#1 = DIRECTION ( 'NONE',  ( -0.000000000000000000, -1.000000000000000000, -0.000000000000000000 ) ) ;
#2 = CARTESIAN_POINT ( 'NONE',  ( 0.000000000000000000, 16.00000000000000000, -60.00000000000000000 ) ) ;
#3 = CC_DESIGN_SECURITY_CLASSIFICATION ( #111, ( #58 ) ) ;
#4 = CC_DESIGN_PERSON_AND_ORGANIZATION_ASSIGNMENT ( #69, #160, ( #225 ) ) ;
#5 = CARTESIAN_POINT ( 'NONE',  ( 0.000000000000000000, 16.00000000000000000, 0.000000000000000000 ) ) ;
#6 = EDGE_CURVE ( 'NONE', #22, #71, #244, .T. ) ;
#7 = ORIENTED_EDGE ( 'NONE', *, *, #185, .T. ) ;
#8 = EDGE_CURVE ( 'NONE', #22, #172, #233, .T. ) ;
#9 = CARTESIAN_POINT ( 'NONE',  ( 0.000000000000000000, 16.00000000000000000, -60.00000000000000000 ) ) ;
#10 = AXIS2_PLACEMENT_3D ( 'NONE', #23, #140, #178 ) ;
#11 = CARTESIAN_POINT ( 'NONE',  ( 0.000000000000000000, 16.00000000000000000, 0.000000000000000000 ) ) ;
#12 = DESIGN_CONTEXT ( 'detailed design', #164, 'design' ) ;
#13 = DIRECTION ( 'NONE',  ( 0.000000000000000000, 0.000000000000000000, 1.000000000000000000 ) ) ;
#14 = SECURITY_CLASSIFICATION_LEVEL ( 'unclassified' ) ;
#15 = LOCAL_TIME ( 16, 7, 30.00000000000000000, #182 ) ;
#16 = DIRECTION ( 'NONE',  ( -0.000000000000000000, -1.000000000000000000, -0.000000000000000000 ) ) ;
#17 = COORDINATED_UNIVERSAL_TIME_OFFSET ( 3, 30, .AHEAD. ) ;
#18 = EDGE_CURVE ( 'NONE', #169, #72, #174, .T. ) ;
#19 = ORIENTED_EDGE ( 'NONE', *, *, #114, .T. ) ;
#20 = APPROVAL_DATE_TIME ( #246, #87 ) ;
#21 = CC_DESIGN_APPROVAL ( #87, ( #111 ) ) ;
#22 = VERTEX_POINT ( 'NONE', #9 ) ;
#23 = CARTESIAN_POINT ( 'NONE',  ( 0.000000000000000000, 0.000000000000000000, 0.000000000000000000 ) ) ;
#24 = DIRECTION ( 'NONE',  ( 0.000000000000000000, 0.000000000000000000, -1.000000000000000000 ) ) ;
#25 = DIRECTION ( 'NONE',  ( 0.000000000000000000, 1.000000000000000000, 0.000000000000000000 ) ) ;
#26 = CC_DESIGN_APPROVAL ( #123, ( #58 ) ) ;
#27 = DIRECTION ( 'NONE',  ( 0.000000000000000000, 0.000000000000000000, 1.000000000000000000 ) ) ;
#28 = MANIFOLD_SOLID_BREP ( 'Boss-Extrude1', #210 ) ;
#29 = CARTESIAN_POINT ( 'NONE',  ( 0.000000000000000000, 16.00000000000000000, 0.000000000000000000 ) ) ;
#30 = PERSON_AND_ORGANIZATION_ROLE ( 'design_supplier' ) ;
#31 = APPROVAL_DATE_TIME ( #220, #123 ) ;
#32 = CARTESIAN_POINT ( 'NONE',  ( 0.000000000000000000, 0.000000000000000000, 0.000000000000000000 ) ) ;
#33 = EDGE_CURVE ( 'NONE', #224, #169, #90, .T. ) ;
#34 = CIRCLE ( 'NONE', #126, 60.00000000000000000 ) ;
#35 = EDGE_CURVE ( 'NONE', #169, #224, #205, .T. ) ;
#36 = ORIENTED_EDGE ( 'NONE', *, *, #6, .T. ) ;
#37 = VERTEX_POINT ( 'NONE', #142 ) ;
#38 = APPROVAL_STATUS ( 'not_yet_approved' ) ;
#39 = CALENDAR_DATE ( 2026, 12, 7 ) ;
#40 = DIRECTION ( 'NONE',  ( -0.000000000000000000, -1.000000000000000000, -0.000000000000000000 ) ) ;
#41 = CYLINDRICAL_SURFACE ( 'NONE', #49, 75.00000000000001421 ) ;
#42 = CARTESIAN_POINT ( 'NONE',  ( 0.000000000000000000, 0.000000000000000000, -60.00000000000000000 ) ) ;
#43 = DIRECTION ( 'NONE',  ( -0.000000000000000000, -1.000000000000000000, -0.000000000000000000 ) ) ;
#44 = LOCAL_TIME ( 16, 7, 30.00000000000000000, #186 ) ;
#45 = FACE_BOUND ( 'NONE', #187, .T. ) ;
#46 = PRODUCT_DEFINITION_SHAPE ( 'NONE', 'NONE',  #225 ) ;
#47 = PERSON_AND_ORGANIZATION_ROLE ( 'creator' ) ;
#48 = EDGE_CURVE ( 'NONE', #71, #171, #156, .T. ) ;
#49 = AXIS2_PLACEMENT_3D ( 'NONE', #234, #40, #81 ) ;
#50 = ADVANCED_FACE ( 'NONE', ( #135 ), #209, .F. ) ;
#51 = PRODUCT ( 'BigBallBearing_Default_sldprt', 'BigBallBearing_Default_sldprt', '', ( #165 ) ) ;
#52 = APPROVAL_ROLE ( '' ) ;
#53 = EDGE_LOOP ( 'NONE', ( #7, #249 ) ) ;
#54 = CIRCLE ( 'NONE', #136, 60.00000000000000000 ) ;
#55 = ORIENTED_EDGE ( 'NONE', *, *, #8, .F. ) ;
#56 = ADVANCED_FACE ( 'NONE', ( #192 ), #41, .T. ) ;
#57 = VECTOR ( 'NONE', #236, 1000.000000000000000 ) ;
#58 = PRODUCT_DEFINITION_FORMATION_WITH_SPECIFIED_SOURCE ( 'ANY', '', #51, .NOT_KNOWN. ) ;
#59 = CARTESIAN_POINT ( 'NONE',  ( 0.000000000000000000, 16.00000000000000000, 0.000000000000000000 ) ) ;
#60 = FACE_OUTER_BOUND ( 'NONE', #89, .T. ) ;
#61 = CC_DESIGN_PERSON_AND_ORGANIZATION_ASSIGNMENT ( #183, #68, ( #51 ) ) ;
#62 = DIRECTION ( 'NONE',  ( 0.000000000000000000, 1.000000000000000000, 0.000000000000000000 ) ) ;
#63 = CARTESIAN_POINT ( 'NONE',  ( 0.000000000000000000, 0.000000000000000000, 0.000000000000000000 ) ) ;
#64 = AXIS2_PLACEMENT_3D ( 'NONE', #121, #193, #211 ) ;
#65 = COORDINATED_UNIVERSAL_TIME_OFFSET ( 3, 30, .AHEAD. ) ;
#66 = DIRECTION ( 'NONE',  ( 0.000000000000000000, -0.000000000000000000, 1.000000000000000000 ) ) ;
#67 = DATE_TIME_ROLE ( 'creation_date' ) ;
#68 = PERSON_AND_ORGANIZATION_ROLE ( 'design_owner' ) ;
#69 = PERSON_AND_ORGANIZATION ( #241, #73 ) ;
#70 = CIRCLE ( 'NONE', #10, 75.00000000000001421 ) ;
#71 = VERTEX_POINT ( 'NONE', #177 ) ;
#72 = VERTEX_POINT ( 'NONE', #116 ) ;
#73 = ORGANIZATION ( 'UNSPECIFIED', 'UNSPECIFIED', '' ) ;
#74 = ORIENTED_EDGE ( 'NONE', *, *, #119, .T. ) ;
#75 = ORIENTED_EDGE ( 'NONE', *, *, #8, .T. ) ;
#76 = DIRECTION ( 'NONE',  ( 0.000000000000000000, 1.000000000000000000, 0.000000000000000000 ) ) ;
#77 = LOCAL_TIME ( 16, 7, 30.00000000000000000, #17 ) ;
#78 = CARTESIAN_POINT ( 'NONE',  ( 0.000000000000000000, 16.00000000000000000, -75.00000000000001421 ) ) ;
#79 = CARTESIAN_POINT ( 'NONE',  ( 0.000000000000000000, 16.00000000000000000, 0.000000000000000000 ) ) ;
#80 = DIRECTION ( 'NONE',  ( -0.000000000000000000, -1.000000000000000000, -0.000000000000000000 ) ) ;
#81 = DIRECTION ( 'NONE',  ( 0.000000000000000000, 0.000000000000000000, -1.000000000000000000 ) ) ;
#82 = APPROVAL_DATE_TIME ( #242, #237 ) ;
#83 = PRODUCT_RELATED_PRODUCT_CATEGORY ( 'detail', '', ( #51 ) ) ;
#84 = CARTESIAN_POINT ( 'NONE',  ( 0.000000000000000000, 0.000000000000000000, 0.000000000000000000 ) ) ;
#85 = UNCERTAINTY_MEASURE_WITH_UNIT (LENGTH_MEASURE( 1.000000000000000082E-05 ), #195, 'distance_accuracy_value', 'NONE');
#86 = CARTESIAN_POINT ( 'NONE',  ( 0.000000000000000000, 0.000000000000000000, 0.000000000000000000 ) ) ;
#87 = APPROVAL ( #38, 'UNSPECIFIED' ) ;
#88 = CALENDAR_DATE ( 2026, 12, 7 ) ;
#89 = EDGE_LOOP ( 'NONE', ( #153, #228, #149, #113 ) ) ;
#90 = CIRCLE ( 'NONE', #125, 75.00000000000001421 ) ;
#91 = ORIENTED_EDGE ( 'NONE', *, *, #48, .T. ) ;
#92 = ADVANCED_FACE ( 'NONE', ( #231, #45 ), #190, .T. ) ;
#93 = ORIENTED_EDGE ( 'NONE', *, *, #119, .F. ) ;
#94 = PERSON_AND_ORGANIZATION_ROLE ( 'classification_officer' ) ;
#95 = ORIENTED_EDGE ( 'NONE', *, *, #48, .F. ) ;
#96 =( GEOMETRIC_REPRESENTATION_CONTEXT ( 3 ) GLOBAL_UNCERTAINTY_ASSIGNED_CONTEXT ( ( #85 ) ) GLOBAL_UNIT_ASSIGNED_CONTEXT ( ( #195, #163, #181 ) ) REPRESENTATION_CONTEXT ( 'NONE', 'WORKASPACE' ) );
#97 = PERSON_AND_ORGANIZATION ( #241, #73 ) ;
#98 = CYLINDRICAL_SURFACE ( 'NONE', #133, 75.00000000000001421 ) ;
#99 = CARTESIAN_POINT ( 'NONE',  ( 0.000000000000000000, 0.000000000000000000, 0.000000000000000000 ) ) ;
#100 = VECTOR ( 'NONE', #43, 1000.000000000000000 ) ;
#101 = APPROVAL_PERSON_ORGANIZATION ( #146, #123, #52 ) ;
#102 = DIRECTION ( 'NONE',  ( 0.000000000000000000, 1.000000000000000000, 0.000000000000000000 ) ) ;
#103 = DIRECTION ( 'NONE',  ( 0.000000000000000000, 0.000000000000000000, 1.000000000000000000 ) ) ;
#104 = DIRECTION ( 'NONE',  ( 0.000000000000000000, 1.000000000000000000, 0.000000000000000000 ) ) ;
#105 = CYLINDRICAL_SURFACE ( 'NONE', #227, 60.00000000000000000 ) ;
#106 = AXIS2_PLACEMENT_3D ( 'NONE', #63, #25, #66 ) ;
#107 = APPLICATION_PROTOCOL_DEFINITION ( 'international standard', 'config_control_design', 1994, #164 ) ;
#108 = APPROVAL_ROLE ( '' ) ;
#109 = COORDINATED_UNIVERSAL_TIME_OFFSET ( 3, 30, .AHEAD. ) ;
#110 = ORIENTED_EDGE ( 'NONE', *, *, #33, .T. ) ;
#111 = SECURITY_CLASSIFICATION ( '', '', #14 ) ;
#112 = CALENDAR_DATE ( 2026, 12, 7 ) ;
#113 = ORIENTED_EDGE ( 'NONE', *, *, #223, .T. ) ;
#114 = EDGE_CURVE ( 'NONE', #71, #22, #54, .T. ) ;
#115 = PERSON_AND_ORGANIZATION ( #241, #73 ) ;
#116 = CARTESIAN_POINT ( 'NONE',  ( 0.000000000000000000, 0.000000000000000000, -75.00000000000001421 ) ) ;
#117 = ADVANCED_BREP_SHAPE_REPRESENTATION ( 'BigBallBearing_Default_sldprt', ( #28, #197 ), #96 ) ;
#118 = LINE ( 'NONE', #139, #240 ) ;
#119 = EDGE_CURVE ( 'NONE', #37, #72, #70, .T. ) ;
#120 = DIRECTION ( 'NONE',  ( -0.000000000000000000, -1.000000000000000000, -0.000000000000000000 ) ) ;
#121 = CARTESIAN_POINT ( 'NONE',  ( 0.000000000000000000, 16.00000000000000000, 0.000000000000000000 ) ) ;
#122 = FACE_OUTER_BOUND ( 'NONE', #206, .T. ) ;
#123 = APPROVAL ( #167, 'UNSPECIFIED' ) ;
#124 = CARTESIAN_POINT ( 'NONE',  ( 9.184850993605150311E-15, 16.00000000000000000, 75.00000000000001421 ) ) ;
#125 = AXIS2_PLACEMENT_3D ( 'NONE', #179, #104, #27 ) ;
#126 = AXIS2_PLACEMENT_3D ( 'NONE', #32, #180, #13 ) ;
#127 = DIRECTION ( 'NONE',  ( 0.000000000000000000, 0.000000000000000000, 1.000000000000000000 ) ) ;
#128 = PERSON_AND_ORGANIZATION ( #241, #73 ) ;
#129 = APPLICATION_PROTOCOL_DEFINITION ( 'international standard', 'config_control_design', 1994, #152 ) ;
#130 = CC_DESIGN_PERSON_AND_ORGANIZATION_ASSIGNMENT ( #216, #47, ( #58 ) ) ;
#131 = ORIENTED_EDGE ( 'NONE', *, *, #138, .T. ) ;
#132 = ORIENTED_EDGE ( 'NONE', *, *, #166, .F. ) ;
#133 = AXIS2_PLACEMENT_3D ( 'NONE', #29, #157, #24 ) ;
#134 = EDGE_LOOP ( 'NONE', ( #36, #91, #248, #55 ) ) ;
#135 = FACE_OUTER_BOUND ( 'NONE', #247, .T. ) ;
#136 = AXIS2_PLACEMENT_3D ( 'NONE', #59, #62, #191 ) ;
#137 = CARTESIAN_POINT ( 'NONE',  ( 7.347880794884118356E-15, 16.00000000000000000, 60.00000000000000000 ) ) ;
#138 = EDGE_CURVE ( 'NONE', #224, #37, #118, .T. ) ;
#139 = CARTESIAN_POINT ( 'NONE',  ( 9.184850993605150311E-15, 16.00000000000000000, 75.00000000000001421 ) ) ;
#140 = DIRECTION ( 'NONE',  ( 0.000000000000000000, 1.000000000000000000, 0.000000000000000000 ) ) ;
#141 = CIRCLE ( 'NONE', #245, 75.00000000000001421 ) ;
#142 = CARTESIAN_POINT ( 'NONE',  ( 9.184850993605150311E-15, 0.000000000000000000, 75.00000000000001421 ) ) ;
#143 = CALENDAR_DATE ( 2026, 12, 7 ) ;
#144 = DIRECTION ( 'NONE',  ( 0.000000000000000000, 0.000000000000000000, -1.000000000000000000 ) ) ;
#145 = CC_DESIGN_DATE_AND_TIME_ASSIGNMENT ( #243, #202, ( #111 ) ) ;
#146 = PERSON_AND_ORGANIZATION ( #241, #73 ) ;
#147 = PERSON_AND_ORGANIZATION ( #241, #73 ) ;
#148 = ORIENTED_EDGE ( 'NONE', *, *, #35, .T. ) ;
#149 = ORIENTED_EDGE ( 'NONE', *, *, #18, .T. ) ;
#150 = SHAPE_DEFINITION_REPRESENTATION ( #46, #117 ) ;
#151 = CIRCLE ( 'NONE', #176, 60.00000000000000000 ) ;
#152 = APPLICATION_CONTEXT ( 'configuration controlled 3d designs of mechanical parts and assemblies' ) ;
#153 = ORIENTED_EDGE ( 'NONE', *, *, #138, .F. ) ;
#154 = DIRECTION ( 'NONE',  ( 0.000000000000000000, 0.000000000000000000, -1.000000000000000000 ) ) ;
#155 = CARTESIAN_POINT ( 'NONE',  ( 7.347880794884118356E-15, 0.000000000000000000, 60.00000000000000000 ) ) ;
#156 = LINE ( 'NONE', #137, #100 ) ;
#157 = DIRECTION ( 'NONE',  ( -0.000000000000000000, -1.000000000000000000, -0.000000000000000000 ) ) ;
#158 = APPROVAL_PERSON_ORGANIZATION ( #115, #87, #188 ) ;
#159 = CARTESIAN_POINT ( 'NONE',  ( 0.000000000000000000, 16.00000000000000000, -75.00000000000001421 ) ) ;
#160 = PERSON_AND_ORGANIZATION_ROLE ( 'creator' ) ;
#161 = ADVANCED_FACE ( 'NONE', ( #60 ), #98, .T. ) ;
#162 = LOCAL_TIME ( 16, 7, 30.00000000000000000, #109 ) ;
#163 =( NAMED_UNIT ( * ) PLANE_ANGLE_UNIT ( ) SI_UNIT ( $, .RADIAN. ) );
#164 = APPLICATION_CONTEXT ( 'configuration controlled 3d designs of mechanical parts and assemblies' ) ;
#165 = MECHANICAL_CONTEXT ( 'NONE', #152, 'mechanical' ) ;
#166 = EDGE_CURVE ( 'NONE', #171, #172, #151, .T. ) ;
#167 = APPROVAL_STATUS ( 'not_yet_approved' ) ;
#168 = AXIS2_PLACEMENT_3D ( 'NONE', #5, #102, #103 ) ;
#169 = VERTEX_POINT ( 'NONE', #78 ) ;
#170 = APPROVAL_PERSON_ORGANIZATION ( #147, #237, #108 ) ;
#171 = VERTEX_POINT ( 'NONE', #155 ) ;
#172 = VERTEX_POINT ( 'NONE', #42 ) ;
#173 = ADVANCED_FACE ( 'NONE', ( #122, #194 ), #235, .F. ) ;
#174 = LINE ( 'NONE', #159, #196 ) ;
#175 = DIRECTION ( 'NONE',  ( 0.000000000000000000, 0.000000000000000000, 1.000000000000000000 ) ) ;
#176 = AXIS2_PLACEMENT_3D ( 'NONE', #99, #212, #175 ) ;
#177 = CARTESIAN_POINT ( 'NONE',  ( 7.347880794884118356E-15, 16.00000000000000000, 60.00000000000000000 ) ) ;
#178 = DIRECTION ( 'NONE',  ( 0.000000000000000000, 0.000000000000000000, 1.000000000000000000 ) ) ;
#179 = CARTESIAN_POINT ( 'NONE',  ( 0.000000000000000000, 16.00000000000000000, 0.000000000000000000 ) ) ;
#180 = DIRECTION ( 'NONE',  ( 0.000000000000000000, 1.000000000000000000, 0.000000000000000000 ) ) ;
#181 =( NAMED_UNIT ( * ) SI_UNIT ( $, .STERADIAN. ) SOLID_ANGLE_UNIT ( ) );
#182 = COORDINATED_UNIVERSAL_TIME_OFFSET ( 3, 30, .AHEAD. ) ;
#183 = PERSON_AND_ORGANIZATION ( #241, #73 ) ;
#184 = ORIENTED_EDGE ( 'NONE', *, *, #33, .F. ) ;
#185 = EDGE_CURVE ( 'NONE', #172, #171, #34, .T. ) ;
#186 = COORDINATED_UNIVERSAL_TIME_OFFSET ( 3, 30, .AHEAD. ) ;
#187 = EDGE_LOOP ( 'NONE', ( #189, #203 ) ) ;
#188 = APPROVAL_ROLE ( '' ) ;
#189 = ORIENTED_EDGE ( 'NONE', *, *, #6, .F. ) ;
#190 = PLANE ( 'NONE',  #64 ) ;
#191 = DIRECTION ( 'NONE',  ( 0.000000000000000000, 0.000000000000000000, 1.000000000000000000 ) ) ;
#192 = FACE_OUTER_BOUND ( 'NONE', #208, .T. ) ;
#193 = DIRECTION ( 'NONE',  ( 0.000000000000000000, 1.000000000000000000, 0.000000000000000000 ) ) ;
#194 = FACE_BOUND ( 'NONE', #53, .T. ) ;
#195 =( LENGTH_UNIT ( ) NAMED_UNIT ( * ) SI_UNIT ( .MILLI., .METRE. ) );
#196 = VECTOR ( 'NONE', #1, 1000.000000000000000 ) ;
#197 = AXIS2_PLACEMENT_3D ( 'NONE', #84, #127, #201 ) ;
#198 = ADVANCED_FACE ( 'NONE', ( #199 ), #105, .F. ) ;
#199 = FACE_OUTER_BOUND ( 'NONE', #134, .T. ) ;
#200 = APPROVAL_STATUS ( 'not_yet_approved' ) ;
#201 = DIRECTION ( 'NONE',  ( 1.000000000000000000, 0.000000000000000000, 0.000000000000000000 ) ) ;
#202 = DATE_TIME_ROLE ( 'classification_date' ) ;
#203 = ORIENTED_EDGE ( 'NONE', *, *, #114, .F. ) ;
#204 = CC_DESIGN_PERSON_AND_ORGANIZATION_ASSIGNMENT ( #97, #94, ( #111 ) ) ;
#205 = CIRCLE ( 'NONE', #230, 75.00000000000001421 ) ;
#206 = EDGE_LOOP ( 'NONE', ( #229, #93 ) ) ;
#207 = ORIENTED_EDGE ( 'NONE', *, *, #18, .F. ) ;
#208 = EDGE_LOOP ( 'NONE', ( #184, #131, #74, #207 ) ) ;
#209 = CYLINDRICAL_SURFACE ( 'NONE', #232, 60.00000000000000000 ) ;
#210 = CLOSED_SHELL ( 'NONE', ( #198, #56, #92, #173, #161, #50 ) ) ;
#211 = DIRECTION ( 'NONE',  ( 0.000000000000000000, -0.000000000000000000, 1.000000000000000000 ) ) ;
#212 = DIRECTION ( 'NONE',  ( 0.000000000000000000, 1.000000000000000000, 0.000000000000000000 ) ) ;
#213 = DIRECTION ( 'NONE',  ( 0.000000000000000000, 0.000000000000000000, 1.000000000000000000 ) ) ;
#214 = CC_DESIGN_APPROVAL ( #237, ( #225 ) ) ;
#215 = CARTESIAN_POINT ( 'NONE',  ( 0.000000000000000000, 16.00000000000000000, 0.000000000000000000 ) ) ;
#216 = PERSON_AND_ORGANIZATION ( #241, #73 ) ;
#217 = CC_DESIGN_DATE_AND_TIME_ASSIGNMENT ( #222, #67, ( #225 ) ) ;
#218 = DIRECTION ( 'NONE',  ( 0.000000000000000000, 0.000000000000000000, 1.000000000000000000 ) ) ;
#219 = LOCAL_TIME ( 16, 7, 30.00000000000000000, #65 ) ;
#220 = DATE_AND_TIME ( #143, #219 ) ;
#221 = CC_DESIGN_PERSON_AND_ORGANIZATION_ASSIGNMENT ( #128, #30, ( #58 ) ) ;
#222 = DATE_AND_TIME ( #239, #77 ) ;
#223 = EDGE_CURVE ( 'NONE', #72, #37, #141, .T. ) ;
#224 = VERTEX_POINT ( 'NONE', #124 ) ;
#225 = PRODUCT_DEFINITION ( 'UNKNOWN', '', #58, #12 ) ;
#226 = EDGE_LOOP ( 'NONE', ( #148, #110 ) ) ;
#227 = AXIS2_PLACEMENT_3D ( 'NONE', #11, #16, #144 ) ;
#228 = ORIENTED_EDGE ( 'NONE', *, *, #35, .F. ) ;
#229 = ORIENTED_EDGE ( 'NONE', *, *, #223, .F. ) ;
#230 = AXIS2_PLACEMENT_3D ( 'NONE', #79, #76, #213 ) ;
#231 = FACE_OUTER_BOUND ( 'NONE', #226, .T. ) ;
#232 = AXIS2_PLACEMENT_3D ( 'NONE', #215, #120, #154 ) ;
#233 = LINE ( 'NONE', #2, #57 ) ;
#234 = CARTESIAN_POINT ( 'NONE',  ( 0.000000000000000000, 16.00000000000000000, 0.000000000000000000 ) ) ;
#235 = PLANE ( 'NONE',  #106 ) ;
#236 = DIRECTION ( 'NONE',  ( -0.000000000000000000, -1.000000000000000000, -0.000000000000000000 ) ) ;
#237 = APPROVAL ( #200, 'UNSPECIFIED' ) ;
#238 = DIRECTION ( 'NONE',  ( 0.000000000000000000, 1.000000000000000000, 0.000000000000000000 ) ) ;
#239 = CALENDAR_DATE ( 2026, 12, 7 ) ;
#240 = VECTOR ( 'NONE', #80, 1000.000000000000000 ) ;
#241 = PERSON ( 'UNSPECIFIED', 'UNSPECIFIED', 'UNSPECIFIED', ('UNSPECIFIED'), ('UNSPECIFIED'), ('UNSPECIFIED') ) ;
#242 = DATE_AND_TIME ( #88, #15 ) ;
#243 = DATE_AND_TIME ( #39, #44 ) ;
#244 = CIRCLE ( 'NONE', #168, 60.00000000000000000 ) ;
#245 = AXIS2_PLACEMENT_3D ( 'NONE', #86, #238, #218 ) ;
#246 = DATE_AND_TIME ( #112, #162 ) ;
#247 = EDGE_LOOP ( 'NONE', ( #95, #19, #75, #132 ) ) ;
#248 = ORIENTED_EDGE ( 'NONE', *, *, #185, .F. ) ;
#249 = ORIENTED_EDGE ( 'NONE', *, *, #166, .T. ) ;
ENDSEC;
END-ISO-10303-21;
