ISO-10303-21;
HEADER;
FILE_DESCRIPTION (( 'STEP AP203' ),
    '1' );
FILE_NAME ('Flange_Default_sldprt.STEP',
    '2026-07-12T12:37:37',
    ( '' ),
    ( '' ),
    'SwSTEP 2.0',
    'SolidWorks 2025',
    '' );
FILE_SCHEMA (( 'CONFIG_CONTROL_DESIGN' ));
ENDSEC;

DATA;
#1 = CARTESIAN_POINT ( 'NONE',  ( 0.000000000000000000, 0.000000000000000000, 8.000000000000000000 ) ) ;
#2 = ORIENTED_EDGE ( 'NONE', *, *, #249, .T. ) ;
#3 = DIRECTION ( 'NONE',  ( 0.000000000000000000, 0.000000000000000000, 1.000000000000000000 ) ) ;
#4 = DIRECTION ( 'NONE',  ( 1.000000000000000000, 0.000000000000000000, 0.000000000000000000 ) ) ;
#5 = ORIENTED_EDGE ( 'NONE', *, *, #77, .F. ) ;
#6 = DIRECTION ( 'NONE',  ( -1.000000000000000000, 1.224646799147353454E-16, 0.000000000000000000 ) ) ;
#7 = AXIS2_PLACEMENT_3D ( 'NONE', #578, #240, #471 ) ;
#8 = EDGE_CURVE ( 'NONE', #470, #112, #456, .T. ) ;
#9 = DIRECTION ( 'NONE',  ( 1.000000000000000000, 0.000000000000000000, 0.000000000000000000 ) ) ;
#10 = AXIS2_PLACEMENT_3D ( 'NONE', #338, #438, #111 ) ;
#11 = APPROVAL ( #447, 'UNSPECIFIED' ) ;
#12 = VERTEX_POINT ( 'NONE', #510 ) ;
#13 = VECTOR ( 'NONE', #33, 1000.000000000000000 ) ;
#14 = DIRECTION ( 'NONE',  ( 1.000000000000000000, 0.000000000000000000, 0.000000000000000000 ) ) ;
#15 = DIRECTION ( 'NONE',  ( 1.000000000000000000, 0.000000000000000000, 0.000000000000000000 ) ) ;
#16 = ORIENTED_EDGE ( 'NONE', *, *, #425, .F. ) ;
#17 = CARTESIAN_POINT ( 'NONE',  ( 0.000000000000000000, 0.000000000000000000, 0.000000000000000000 ) ) ;
#18 = CC_DESIGN_PERSON_AND_ORGANIZATION_ASSIGNMENT ( #123, #592, ( #306 ) ) ;
#19 = CYLINDRICAL_SURFACE ( 'NONE', #220, 2.500000000000000444 ) ;
#20 = EDGE_CURVE ( 'NONE', #295, #479, #282, .T. ) ;
#21 = LINE ( 'NONE', #332, #247 ) ;
#22 = CARTESIAN_POINT ( 'NONE',  ( 5.000000000000000000, 6.123233995736766282E-16, 33.00000000000000000 ) ) ;
#23 = CC_DESIGN_SECURITY_CLASSIFICATION ( #115, ( #64 ) ) ;
#24 = VERTEX_POINT ( 'NONE', #278 ) ;
#25 = PERSON_AND_ORGANIZATION ( #29, #138 ) ;
#26 = CARTESIAN_POINT ( 'NONE',  ( -18.50000000000000000, 3.061616997868384620E-16, 8.000000000000000000 ) ) ;
#27 = VERTEX_POINT ( 'NONE', #421 ) ;
#28 = DESIGN_CONTEXT ( 'detailed design', #536, 'design' ) ;
#29 = PERSON ( 'UNSPECIFIED', 'UNSPECIFIED', 'UNSPECIFIED', ('UNSPECIFIED'), ('UNSPECIFIED'), ('UNSPECIFIED') ) ;
#30 = DATE_AND_TIME ( #581, #550 ) ;
#31 = DIRECTION ( 'NONE',  ( 0.000000000000000000, 0.000000000000000000, 1.000000000000000000 ) ) ;
#32 = ORIENTED_EDGE ( 'NONE', *, *, #93, .F. ) ;
#33 = DIRECTION ( 'NONE',  ( -0.000000000000000000, -0.000000000000000000, 1.000000000000000000 ) ) ;
#34 = CARTESIAN_POINT ( 'NONE',  ( 0.000000000000000000, 16.00000000000000000, 8.000000000000000000 ) ) ;
#35 = ORIENTED_EDGE ( 'NONE', *, *, #77, .T. ) ;
#36 = VECTOR ( 'NONE', #208, 1000.000000000000000 ) ;
#37 = LOCAL_TIME ( 16, 7, 37.00000000000000000, #369 ) ;
#38 = AXIS2_PLACEMENT_3D ( 'NONE', #459, #600, #505 ) ;
#39 = CC_DESIGN_PERSON_AND_ORGANIZATION_ASSIGNMENT ( #270, #311, ( #480 ) ) ;
#40 = ORIENTED_EDGE ( 'NONE', *, *, #291, .T. ) ;
#41 = APPLICATION_PROTOCOL_DEFINITION ( 'international standard', 'config_control_design', 1994, #598 ) ;
#42 = CC_DESIGN_PERSON_AND_ORGANIZATION_ASSIGNMENT ( #183, #509, ( #64 ) ) ;
#43 = CARTESIAN_POINT ( 'NONE',  ( 16.00000000000000000, 0.000000000000000000, 0.000000000000000000 ) ) ;
#44 = VERTEX_POINT ( 'NONE', #601 ) ;
#45 = CIRCLE ( 'NONE', #137, 5.000000000000000000 ) ;
#46 = CALENDAR_DATE ( 2026, 12, 7 ) ;
#47 = CIRCLE ( 'NONE', #66, 27.00000000000000000 ) ;
#48 =( GEOMETRIC_REPRESENTATION_CONTEXT ( 3 ) GLOBAL_UNCERTAINTY_ASSIGNED_CONTEXT ( ( #263 ) ) GLOBAL_UNIT_ASSIGNED_CONTEXT ( ( #314, #541, #496 ) ) REPRESENTATION_CONTEXT ( 'NONE', 'WORKASPACE' ) );
#49 = DIRECTION ( 'NONE',  ( -0.000000000000000000, -0.000000000000000000, 1.000000000000000000 ) ) ;
#50 = CARTESIAN_POINT ( 'NONE',  ( 0.000000000000000000, 16.00000000000000000, 0.000000000000000000 ) ) ;
#51 = ORIENTED_EDGE ( 'NONE', *, *, #235, .T. ) ;
#52 = LOCAL_TIME ( 16, 7, 37.00000000000000000, #318 ) ;
#53 = AXIS2_PLACEMENT_3D ( 'NONE', #116, #574, #15 ) ;
#54 = CARTESIAN_POINT ( 'NONE',  ( 0.000000000000000000, 0.000000000000000000, 0.000000000000000000 ) ) ;
#55 = ORIENTED_EDGE ( 'NONE', *, *, #8, .T. ) ;
#56 = CYLINDRICAL_SURFACE ( 'NONE', #230, 27.00000000000000000 ) ;
#57 = FACE_OUTER_BOUND ( 'NONE', #413, .T. ) ;
#58 = VERTEX_POINT ( 'NONE', #422 ) ;
#59 = ADVANCED_FACE ( 'NONE', ( #181 ), #371, .F. ) ;
#60 = FACE_BOUND ( 'NONE', #591, .T. ) ;
#61 = DIRECTION ( 'NONE',  ( 0.000000000000000000, 0.000000000000000000, 1.000000000000000000 ) ) ;
#62 = PLANE ( 'NONE',  #228 ) ;
#63 = AXIS2_PLACEMENT_3D ( 'NONE', #34, #31, #497 ) ;
#64 = PRODUCT_DEFINITION_FORMATION_WITH_SPECIFIED_SOURCE ( 'ANY', '', #480, .NOT_KNOWN. ) ;
#65 = CARTESIAN_POINT ( 'NONE',  ( 0.000000000000000000, 0.000000000000000000, 11.00000000000000000 ) ) ;
#66 = AXIS2_PLACEMENT_3D ( 'NONE', #54, #283, #472 ) ;
#67 = ORIENTED_EDGE ( 'NONE', *, *, #141, .T. ) ;
#68 = CC_DESIGN_DATE_AND_TIME_ASSIGNMENT ( #420, #366, ( #115 ) ) ;
#69 = CARTESIAN_POINT ( 'NONE',  ( 0.000000000000000000, 16.00000000000000000, 0.000000000000000000 ) ) ;
#70 = DIRECTION ( 'NONE',  ( -0.000000000000000000, -0.000000000000000000, 1.000000000000000000 ) ) ;
#71 = ADVANCED_FACE ( 'NONE', ( #233 ), #136, .F. ) ;
#72 = CARTESIAN_POINT ( 'NONE',  ( 0.000000000000000000, 0.000000000000000000, 0.000000000000000000 ) ) ;
#73 = DIRECTION ( 'NONE',  ( 0.000000000000000000, 0.000000000000000000, 1.000000000000000000 ) ) ;
#74 = VERTEX_POINT ( 'NONE', #553 ) ;
#75 = DATE_TIME_ROLE ( 'creation_date' ) ;
#76 = ADVANCED_FACE ( 'NONE', ( #374 ), #368, .F. ) ;
#77 = EDGE_CURVE ( 'NONE', #58, #446, #328, .T. ) ;
#78 = CARTESIAN_POINT ( 'NONE',  ( -16.00000000000000000, 0.000000000000000000, 0.000000000000000000 ) ) ;
#79 = AXIS2_PLACEMENT_3D ( 'NONE', #571, #573, #6 ) ;
#80 = EDGE_LOOP ( 'NONE', ( #507, #394 ) ) ;
#81 = AXIS2_PLACEMENT_3D ( 'NONE', #545, #267, #120 ) ;
#82 = APPLICATION_PROTOCOL_DEFINITION ( 'international standard', 'config_control_design', 1994, #536 ) ;
#83 = DIRECTION ( 'NONE',  ( 0.000000000000000000, 0.000000000000000000, 1.000000000000000000 ) ) ;
#84 = ORIENTED_EDGE ( 'NONE', *, *, #20, .T. ) ;
#85 = CYLINDRICAL_SURFACE ( 'NONE', #81, 5.000000000000000000 ) ;
#86 = ADVANCED_FACE ( 'NONE', ( #329 ), #319, .F. ) ;
#87 = LINE ( 'NONE', #582, #103 ) ;
#88 = ORIENTED_EDGE ( 'NONE', *, *, #593, .F. ) ;
#89 = MECHANICAL_CONTEXT ( 'NONE', #598, 'mechanical' ) ;
#90 = ORIENTED_EDGE ( 'NONE', *, *, #257, .F. ) ;
#91 = CARTESIAN_POINT ( 'NONE',  ( 2.500000000000000000, 16.00000000000000000, 0.000000000000000000 ) ) ;
#92 = DIRECTION ( 'NONE',  ( 0.000000000000000000, 0.000000000000000000, 1.000000000000000000 ) ) ;
#93 = EDGE_CURVE ( 'NONE', #506, #424, #409, .T. ) ;
#94 = CARTESIAN_POINT ( 'NONE',  ( 16.00000000000000000, 0.000000000000000000, 0.000000000000000000 ) ) ;
#95 = CARTESIAN_POINT ( 'NONE',  ( -13.50000000000000000, 0.000000000000000000, 0.000000000000000000 ) ) ;
#96 = PERSON_AND_ORGANIZATION ( #29, #138 ) ;
#97 = CIRCLE ( 'NONE', #433, 5.000000000000000000 ) ;
#98 = DIRECTION ( 'NONE',  ( 1.000000000000000000, 0.000000000000000000, 0.000000000000000000 ) ) ;
#99 = EDGE_CURVE ( 'NONE', #594, #414, #158, .T. ) ;
#100 = ORIENTED_EDGE ( 'NONE', *, *, #160, .T. ) ;
#101 = FACE_OUTER_BOUND ( 'NONE', #310, .T. ) ;
#102 = DIRECTION ( 'NONE',  ( 0.000000000000000000, 0.000000000000000000, 1.000000000000000000 ) ) ;
#103 = VECTOR ( 'NONE', #169, 1000.000000000000000 ) ;
#104 = FACE_OUTER_BOUND ( 'NONE', #280, .T. ) ;
#105 = EDGE_CURVE ( 'NONE', #424, #506, #178, .T. ) ;
#106 = EDGE_LOOP ( 'NONE', ( #5, #315, #303, #224 ) ) ;
#107 = FACE_BOUND ( 'NONE', #457, .T. ) ;
#108 = CARTESIAN_POINT ( 'NONE',  ( 0.000000000000000000, 0.000000000000000000, 8.000000000000000000 ) ) ;
#109 = ORIENTED_EDGE ( 'NONE', *, *, #317, .T. ) ;
#110 = DIRECTION ( 'NONE',  ( 0.000000000000000000, 0.000000000000000000, 1.000000000000000000 ) ) ;
#111 = DIRECTION ( 'NONE',  ( 0.000000000000000000, 0.000000000000000000, -1.000000000000000000 ) ) ;
#112 = VERTEX_POINT ( 'NONE', #290 ) ;
#113 = CARTESIAN_POINT ( 'NONE',  ( -2.500000000000000444, -16.00000000000000000, 0.000000000000000000 ) ) ;
#114 = CIRCLE ( 'NONE', #79, 2.999999999999999112 ) ;
#115 = SECURITY_CLASSIFICATION ( '', '', #415 ) ;
#116 = CARTESIAN_POINT ( 'NONE',  ( 16.00000000000000000, 0.000000000000000000, 8.000000000000000000 ) ) ;
#117 = ORIENTED_EDGE ( 'NONE', *, *, #500, .F. ) ;
#118 = DIRECTION ( 'NONE',  ( 0.000000000000000000, 0.000000000000000000, 1.000000000000000000 ) ) ;
#119 = DIRECTION ( 'NONE',  ( -0.000000000000000000, -0.000000000000000000, 1.000000000000000000 ) ) ;
#120 = DIRECTION ( 'NONE',  ( -1.000000000000000000, 0.000000000000000000, 0.000000000000000000 ) ) ;
#121 = DIRECTION ( 'NONE',  ( -1.000000000000000000, 0.000000000000000000, 0.000000000000000000 ) ) ;
#122 = EDGE_LOOP ( 'NONE', ( #555, #307, #298, #501 ) ) ;
#123 = PERSON_AND_ORGANIZATION ( #29, #138 ) ;
#124 = CARTESIAN_POINT ( 'NONE',  ( 0.000000000000000000, 0.000000000000000000, 11.00000000000000000 ) ) ;
#125 = ORIENTED_EDGE ( 'NONE', *, *, #273, .T. ) ;
#126 = VECTOR ( 'NONE', #297, 1000.000000000000000 ) ;
#127 = DIRECTION ( 'NONE',  ( 1.000000000000000000, 0.000000000000000000, 0.000000000000000000 ) ) ;
#128 = VERTEX_POINT ( 'NONE', #382 ) ;
#129 = DIRECTION ( 'NONE',  ( 1.000000000000000000, 0.000000000000000000, -0.000000000000000000 ) ) ;
#130 = ORIENTED_EDGE ( 'NONE', *, *, #460, .T. ) ;
#131 = CARTESIAN_POINT ( 'NONE',  ( 0.000000000000000000, 0.000000000000000000, 33.00000000000000000 ) ) ;
#132 = CARTESIAN_POINT ( 'NONE',  ( 16.00000000000000000, 0.000000000000000000, 0.000000000000000000 ) ) ;
#133 = ORIENTED_EDGE ( 'NONE', *, *, #548, .F. ) ;
#134 = PERSON_AND_ORGANIZATION_ROLE ( 'classification_officer' ) ;
#135 = DIRECTION ( 'NONE',  ( -0.000000000000000000, -0.000000000000000000, -1.000000000000000000 ) ) ;
#136 = CYLINDRICAL_SURFACE ( 'NONE', #551, 2.499999999999998668 ) ;
#137 = AXIS2_PLACEMENT_3D ( 'NONE', #131, #175, #454 ) ;
#138 = ORGANIZATION ( 'UNSPECIFIED', 'UNSPECIFIED', '' ) ;
#139 = AXIS2_PLACEMENT_3D ( 'NONE', #563, #70, #429 ) ;
#140 = EDGE_LOOP ( 'NONE', ( #16, #544 ) ) ;
#141 = EDGE_CURVE ( 'NONE', #340, #479, #516, .T. ) ;
#142 = CARTESIAN_POINT ( 'NONE',  ( -16.00000000000000000, 0.000000000000000000, 8.000000000000000000 ) ) ;
#143 = CC_DESIGN_PERSON_AND_ORGANIZATION_ASSIGNMENT ( #464, #134, ( #115 ) ) ;
#144 = EDGE_CURVE ( 'NONE', #44, #340, #201, .T. ) ;
#145 = CARTESIAN_POINT ( 'NONE',  ( -18.50000000000000000, 3.061616997868383141E-16, 0.000000000000000000 ) ) ;
#146 = CIRCLE ( 'NONE', #63, 2.500000000000000000 ) ;
#147 = CARTESIAN_POINT ( 'NONE',  ( 2.500000000000000000, 16.00000000000000000, 8.000000000000000000 ) ) ;
#148 = AXIS2_PLACEMENT_3D ( 'NONE', #579, #162, #305 ) ;
#149 = DIRECTION ( 'NONE',  ( 0.000000000000000000, 0.000000000000000000, 1.000000000000000000 ) ) ;
#150 = DIRECTION ( 'NONE',  ( -1.000000000000000000, 0.000000000000000000, 0.000000000000000000 ) ) ;
#151 = FACE_BOUND ( 'NONE', #580, .T. ) ;
#152 = PRODUCT_DEFINITION_SHAPE ( 'NONE', 'NONE',  #306 ) ;
#153 = DIRECTION ( 'NONE',  ( 1.000000000000000000, 0.000000000000000000, -0.000000000000000000 ) ) ;
#154 = FACE_BOUND ( 'NONE', #80, .T. ) ;
#155 = EDGE_LOOP ( 'NONE', ( #55, #461 ) ) ;
#156 = FACE_OUTER_BOUND ( 'NONE', #351, .T. ) ;
#157 = DIRECTION ( 'NONE',  ( 0.000000000000000000, 0.000000000000000000, 1.000000000000000000 ) ) ;
#158 = CIRCLE ( 'NONE', #367, 8.000000000000000000 ) ;
#159 = EDGE_CURVE ( 'NONE', #470, #262, #241, .T. ) ;
#160 = EDGE_CURVE ( 'NONE', #354, #27, #47, .T. ) ;
#161 = CALENDAR_DATE ( 2026, 12, 7 ) ;
#162 = DIRECTION ( 'NONE',  ( -0.000000000000000000, -0.000000000000000000, -1.000000000000000000 ) ) ;
#163 = ORIENTED_EDGE ( 'NONE', *, *, #159, .T. ) ;
#164 = FACE_OUTER_BOUND ( 'NONE', #210, .T. ) ;
#165 = FACE_OUTER_BOUND ( 'NONE', #603, .T. ) ;
#166 = EDGE_CURVE ( 'NONE', #74, #583, #196, .T. ) ;
#167 = EDGE_LOOP ( 'NONE', ( #468, #231 ) ) ;
#168 = PLANE ( 'NONE',  #383 ) ;
#169 = DIRECTION ( 'NONE',  ( -0.000000000000000000, -0.000000000000000000, 1.000000000000000000 ) ) ;
#170 = AXIS2_PLACEMENT_3D ( 'NONE', #78, #260, #445 ) ;
#171 = ORIENTED_EDGE ( 'NONE', *, *, #502, .F. ) ;
#172 = TOROIDAL_SURFACE ( 'NONE', #539, 8.000000000000000000, 3.000000000000000000 ) ;
#173 = ORIENTED_EDGE ( 'NONE', *, *, #352, .F. ) ;
#174 = EDGE_CURVE ( 'NONE', #177, #414, #279, .T. ) ;
#175 = DIRECTION ( 'NONE',  ( 0.000000000000000000, 0.000000000000000000, 1.000000000000000000 ) ) ;
#176 = EDGE_LOOP ( 'NONE', ( #462, #221 ) ) ;
#177 = VERTEX_POINT ( 'NONE', #387 ) ;
#178 = CIRCLE ( 'NONE', #359, 27.00000000000000000 ) ;
#179 = ADVANCED_FACE ( 'NONE', ( #57 ), #475, .F. ) ;
#180 = EDGE_LOOP ( 'NONE', ( #335, #403, #84, #130 ) ) ;
#181 = FACE_OUTER_BOUND ( 'NONE', #214, .T. ) ;
#182 = ADVANCED_FACE ( 'NONE', ( #483 ), #423, .F. ) ;
#183 = PERSON_AND_ORGANIZATION ( #29, #138 ) ;
#184 = DIRECTION ( 'NONE',  ( -0.000000000000000000, -0.000000000000000000, 1.000000000000000000 ) ) ;
#185 = CC_DESIGN_APPROVAL ( #11, ( #306 ) ) ;
#186 = DIRECTION ( 'NONE',  ( -0.000000000000000000, -0.000000000000000000, 1.000000000000000000 ) ) ;
#187 = ADVANCED_FACE ( 'NONE', ( #104 ), #432, .F. ) ;
#188 = DIRECTION ( 'NONE',  ( 1.000000000000000000, 0.000000000000000000, 0.000000000000000000 ) ) ;
#189 = ORIENTED_EDGE ( 'NONE', *, *, #458, .F. ) ;
#190 = CARTESIAN_POINT ( 'NONE',  ( 0.000000000000000000, -16.00000000000000000, 8.000000000000000000 ) ) ;
#191 = CARTESIAN_POINT ( 'NONE',  ( -5.000000000000000000, 0.000000000000000000, 33.00000000000000000 ) ) ;
#192 = ORIENTED_EDGE ( 'NONE', *, *, #339, .T. ) ;
#193 = EDGE_CURVE ( 'NONE', #58, #552, #238, .T. ) ;
#194 = CIRCLE ( 'NONE', #463, 2.500000000000000444 ) ;
#195 = DIRECTION ( 'NONE',  ( 1.000000000000000000, 0.000000000000000000, 0.000000000000000000 ) ) ;
#196 = CIRCLE ( 'NONE', #237, 2.500000000000000444 ) ;
#197 = AXIS2_PLACEMENT_3D ( 'NONE', #243, #3, #486 ) ;
#198 = DIRECTION ( 'NONE',  ( -0.000000000000000000, -0.000000000000000000, 1.000000000000000000 ) ) ;
#199 = ORIENTED_EDGE ( 'NONE', *, *, #105, .T. ) ;
#200 = CARTESIAN_POINT ( 'NONE',  ( 27.00000000000000000, 3.306546357697853733E-15, 8.000000000000000000 ) ) ;
#201 = LINE ( 'NONE', #145, #569 ) ;
#202 = ORIENTED_EDGE ( 'NONE', *, *, #174, .F. ) ;
#203 = CARTESIAN_POINT ( 'NONE',  ( 13.50000000000000178, 3.061616997868381662E-16, 8.000000000000000000 ) ) ;
#204 = DIRECTION ( 'NONE',  ( 0.000000000000000000, 0.000000000000000000, 1.000000000000000000 ) ) ;
#205 = ORIENTED_EDGE ( 'NONE', *, *, #466, .F. ) ;
#206 = FACE_BOUND ( 'NONE', #176, .T. ) ;
#207 = LOCAL_TIME ( 16, 7, 37.00000000000000000, #364 ) ;
#208 = DIRECTION ( 'NONE',  ( -0.000000000000000000, -0.000000000000000000, -1.000000000000000000 ) ) ;
#209 = AXIS2_PLACEMENT_3D ( 'NONE', #50, #467, #602 ) ;
#210 = EDGE_LOOP ( 'NONE', ( #362, #109, #363, #370 ) ) ;
#211 = APPROVAL_STATUS ( 'not_yet_approved' ) ;
#212 = EDGE_CURVE ( 'NONE', #552, #528, #222, .T. ) ;
#213 = DIRECTION ( 'NONE',  ( 1.000000000000000000, 0.000000000000000000, 0.000000000000000000 ) ) ;
#214 = EDGE_LOOP ( 'NONE', ( #532, #538, #488, #491 ) ) ;
#215 = APPROVAL_DATE_TIME ( #30, #299 ) ;
#216 = CARTESIAN_POINT ( 'NONE',  ( -5.000000000000000000, 0.000000000000000000, 11.00000000000000000 ) ) ;
#217 = ORIENTED_EDGE ( 'NONE', *, *, #8, .F. ) ;
#218 = DIRECTION ( 'NONE',  ( 0.000000000000000000, 0.000000000000000000, 1.000000000000000000 ) ) ;
#219 = DIRECTION ( 'NONE',  ( 1.000000000000000000, 0.000000000000000000, 0.000000000000000000 ) ) ;
#220 = AXIS2_PLACEMENT_3D ( 'NONE', #524, #198, #4 ) ;
#221 = ORIENTED_EDGE ( 'NONE', *, *, #502, .T. ) ;
#222 = CIRCLE ( 'NONE', #53, 2.499999999999998668 ) ;
#223 = DATE_AND_TIME ( #161, #52 ) ;
#224 = ORIENTED_EDGE ( 'NONE', *, *, #391, .F. ) ;
#225 = EDGE_CURVE ( 'NONE', #583, #74, #558, .T. ) ;
#226 = ADVANCED_FACE ( 'NONE', ( #477 ), #19, .F. ) ;
#227 = CARTESIAN_POINT ( 'NONE',  ( 0.000000000000000000, 0.000000000000000000, 8.000000000000000000 ) ) ;
#228 = AXIS2_PLACEMENT_3D ( 'NONE', #72, #474, #153 ) ;
#229 = DIRECTION ( 'NONE',  ( 1.000000000000000000, 0.000000000000000000, 0.000000000000000000 ) ) ;
#230 = AXIS2_PLACEMENT_3D ( 'NONE', #526, #529, #150 ) ;
#231 = ORIENTED_EDGE ( 'NONE', *, *, #141, .F. ) ;
#232 = DATE_AND_TIME ( #321, #37 ) ;
#233 = FACE_OUTER_BOUND ( 'NONE', #106, .T. ) ;
#234 = ORIENTED_EDGE ( 'NONE', *, *, #93, .T. ) ;
#235 = EDGE_CURVE ( 'NONE', #262, #177, #336, .T. ) ;
#236 = COORDINATED_UNIVERSAL_TIME_OFFSET ( 3, 30, .AHEAD. ) ;
#237 = AXIS2_PLACEMENT_3D ( 'NONE', #521, #61, #345 ) ;
#238 = LINE ( 'NONE', #248, #481 ) ;
#239 = ORIENTED_EDGE ( 'NONE', *, *, #174, .T. ) ;
#240 = DIRECTION ( 'NONE',  ( 0.000000000000000000, 0.000000000000000000, 1.000000000000000000 ) ) ;
#241 = LINE ( 'NONE', #191, #126 ) ;
#242 = ADVANCED_FACE ( 'NONE', ( #390, #572, #151, #331, #154, #101 ), #469, .T. ) ;
#243 = CARTESIAN_POINT ( 'NONE',  ( -16.00000000000000000, 0.000000000000000000, 0.000000000000000000 ) ) ;
#244 = DIRECTION ( 'NONE',  ( 1.000000000000000000, 0.000000000000000000, 0.000000000000000000 ) ) ;
#245 = AXIS2_PLACEMENT_3D ( 'NONE', #65, #149, #562 ) ;
#246 = LINE ( 'NONE', #396, #277 ) ;
#247 = VECTOR ( 'NONE', #389, 1000.000000000000000 ) ;
#248 = CARTESIAN_POINT ( 'NONE',  ( 13.50000000000000178, 3.061616997868381662E-16, 0.000000000000000000 ) ) ;
#249 = EDGE_CURVE ( 'NONE', #446, #58, #587, .T. ) ;
#250 = CARTESIAN_POINT ( 'NONE',  ( -5.000000000000000000, 0.000000000000000000, 33.00000000000000000 ) ) ;
#251 = CARTESIAN_POINT ( 'NONE',  ( 0.000000000000000000, -16.00000000000000000, 0.000000000000000000 ) ) ;
#252 = EDGE_LOOP ( 'NONE', ( #171, #346, #40, #88 ) ) ;
#253 = DIRECTION ( 'NONE',  ( -0.000000000000000000, -0.000000000000000000, 1.000000000000000000 ) ) ;
#254 = APPROVAL ( #372, 'UNSPECIFIED' ) ;
#255 = LINE ( 'NONE', #360, #261 ) ;
#256 = ORIENTED_EDGE ( 'NONE', *, *, #160, .F. ) ;
#257 = EDGE_CURVE ( 'NONE', #74, #24, #87, .T. ) ;
#258 = AXIS2_PLACEMENT_3D ( 'NONE', #533, #218, #584 ) ;
#259 = VECTOR ( 'NONE', #49, 1000.000000000000000 ) ;
#260 = DIRECTION ( 'NONE',  ( 0.000000000000000000, 0.000000000000000000, 1.000000000000000000 ) ) ;
#261 = VECTOR ( 'NONE', #119, 1000.000000000000000 ) ;
#262 = VERTEX_POINT ( 'NONE', #216 ) ;
#263 = UNCERTAINTY_MEASURE_WITH_UNIT (LENGTH_MEASURE( 1.000000000000000082E-05 ), #314, 'distance_accuracy_value', 'NONE');
#264 = PERSON_AND_ORGANIZATION ( #29, #138 ) ;
#265 = CYLINDRICAL_SURFACE ( 'NONE', #418, 27.00000000000000000 ) ;
#266 = ORIENTED_EDGE ( 'NONE', *, *, #466, .T. ) ;
#267 = DIRECTION ( 'NONE',  ( -0.000000000000000000, -0.000000000000000000, -1.000000000000000000 ) ) ;
#268 = CARTESIAN_POINT ( 'NONE',  ( 0.000000000000000000, 16.00000000000000000, 8.000000000000000000 ) ) ;
#269 = ORIENTED_EDGE ( 'NONE', *, *, #235, .F. ) ;
#270 = PERSON_AND_ORGANIZATION ( #29, #138 ) ;
#271 = EDGE_LOOP ( 'NONE', ( #452, #217, #163, #51 ) ) ;
#272 = EDGE_CURVE ( 'NONE', #436, #325, #416, .T. ) ;
#273 = EDGE_CURVE ( 'NONE', #424, #27, #487, .T. ) ;
#274 = DIRECTION ( 'NONE',  ( 1.000000000000000000, 0.000000000000000000, 0.000000000000000000 ) ) ;
#275 = PERSON_AND_ORGANIZATION_ROLE ( 'design_supplier' ) ;
#276 = DIRECTION ( 'NONE',  ( 1.000000000000000000, 0.000000000000000000, 0.000000000000000000 ) ) ;
#277 = VECTOR ( 'NONE', #253, 1000.000000000000000 ) ;
#278 = CARTESIAN_POINT ( 'NONE',  ( 2.500000000000000444, -16.00000000000000000, 8.000000000000000000 ) ) ;
#279 = CIRCLE ( 'NONE', #10, 2.999999999999999112 ) ;
#280 = EDGE_LOOP ( 'NONE', ( #269, #525, #388, #202 ) ) ;
#281 = ADVANCED_FACE ( 'NONE', ( #410 ), #265, .T. ) ;
#282 = LINE ( 'NONE', #95, #259 ) ;
#283 = DIRECTION ( 'NONE',  ( 0.000000000000000000, 0.000000000000000000, 1.000000000000000000 ) ) ;
#284 = APPROVAL_PERSON_ORGANIZATION ( #264, #11, #443 ) ;
#285 = AXIS2_PLACEMENT_3D ( 'NONE', #132, #327, #98 ) ;
#286 = DIRECTION ( 'NONE',  ( 0.000000000000000000, 0.000000000000000000, 1.000000000000000000 ) ) ;
#287 = EDGE_CURVE ( 'NONE', #177, #262, #97, .T. ) ;
#288 = DIRECTION ( 'NONE',  ( -0.000000000000000000, -0.000000000000000000, 1.000000000000000000 ) ) ;
#289 = DIRECTION ( 'NONE',  ( 0.000000000000000000, 0.000000000000000000, 1.000000000000000000 ) ) ;
#290 = CARTESIAN_POINT ( 'NONE',  ( 5.000000000000000000, 6.123233995736766282E-16, 33.00000000000000000 ) ) ;
#291 = EDGE_CURVE ( 'NONE', #325, #436, #146, .T. ) ;
#292 = DIRECTION ( 'NONE',  ( -0.000000000000000000, -0.000000000000000000, 1.000000000000000000 ) ) ;
#293 = DIRECTION ( 'NONE',  ( 0.000000000000000000, 0.000000000000000000, 1.000000000000000000 ) ) ;
#294 = EDGE_CURVE ( 'NONE', #12, #325, #255, .T. ) ;
#295 = VERTEX_POINT ( 'NONE', #494 ) ;
#296 = CARTESIAN_POINT ( 'NONE',  ( -27.00000000000000000, 0.000000000000000000, 0.000000000000000000 ) ) ;
#297 = DIRECTION ( 'NONE',  ( -0.000000000000000000, -0.000000000000000000, -1.000000000000000000 ) ) ;
#298 = ORIENTED_EDGE ( 'NONE', *, *, #391, .T. ) ;
#299 = APPROVAL ( #211, 'UNSPECIFIED' ) ;
#300 = DIRECTION ( 'NONE',  ( 1.000000000000000000, 0.000000000000000000, 0.000000000000000000 ) ) ;
#301 = DIRECTION ( 'NONE',  ( 1.000000000000000000, 0.000000000000000000, 0.000000000000000000 ) ) ;
#302 = ADVANCED_FACE ( 'NONE', ( #543 ), #530, .T. ) ;
#303 = ORIENTED_EDGE ( 'NONE', *, *, #212, .T. ) ;
#304 = CALENDAR_DATE ( 2026, 12, 7 ) ;
#305 = DIRECTION ( 'NONE',  ( 1.000000000000000000, 0.000000000000000000, 0.000000000000000000 ) ) ;
#306 = PRODUCT_DEFINITION ( 'UNKNOWN', '', #64, #28 ) ;
#307 = ORIENTED_EDGE ( 'NONE', *, *, #249, .F. ) ;
#308 = AXIS2_PLACEMENT_3D ( 'NONE', #17, #118, #566 ) ;
#309 = DIRECTION ( 'NONE',  ( -0.000000000000000000, -0.000000000000000000, -1.000000000000000000 ) ) ;
#310 = EDGE_LOOP ( 'NONE', ( #234, #199 ) ) ;
#311 = PERSON_AND_ORGANIZATION_ROLE ( 'design_owner' ) ;
#312 = CARTESIAN_POINT ( 'NONE',  ( 0.000000000000000000, 0.000000000000000000, 33.00000000000000000 ) ) ;
#313 = EDGE_LOOP ( 'NONE', ( #189, #399, #67, #365 ) ) ;
#314 =( LENGTH_UNIT ( ) NAMED_UNIT ( * ) SI_UNIT ( .MILLI., .METRE. ) );
#315 = ORIENTED_EDGE ( 'NONE', *, *, #193, .T. ) ;
#316 = EDGE_CURVE ( 'NONE', #24, #128, #194, .T. ) ;
#317 = EDGE_CURVE ( 'NONE', #112, #177, #534, .T. ) ;
#318 = COORDINATED_UNIVERSAL_TIME_OFFSET ( 3, 30, .AHEAD. ) ;
#319 = CYLINDRICAL_SURFACE ( 'NONE', #540, 2.500000000000000000 ) ;
#320 = AXIS2_PLACEMENT_3D ( 'NONE', #515, #427, #9 ) ;
#321 = CALENDAR_DATE ( 2026, 12, 7 ) ;
#322 = ORIENTED_EDGE ( 'NONE', *, *, #291, .F. ) ;
#323 = EDGE_CURVE ( 'NONE', #414, #594, #478, .T. ) ;
#324 = SHAPE_DEFINITION_REPRESENTATION ( #152, #465 ) ;
#325 = VERTEX_POINT ( 'NONE', #490 ) ;
#326 = AXIS2_PLACEMENT_3D ( 'NONE', #268, #83, #127 ) ;
#327 = DIRECTION ( 'NONE',  ( -0.000000000000000000, -0.000000000000000000, 1.000000000000000000 ) ) ;
#328 = CIRCLE ( 'NONE', #597, 2.499999999999998668 ) ;
#329 = FACE_OUTER_BOUND ( 'NONE', #252, .T. ) ;
#330 = PERSON_AND_ORGANIZATION ( #29, #138 ) ;
#331 = FACE_BOUND ( 'NONE', #140, .T. ) ;
#332 = CARTESIAN_POINT ( 'NONE',  ( -27.00000000000000000, 0.000000000000000000, 8.000000000000000000 ) ) ;
#333 = DIRECTION ( 'NONE',  ( -0.000000000000000000, -0.000000000000000000, 1.000000000000000000 ) ) ;
#334 = VECTOR ( 'NONE', #386, 1000.000000000000000 ) ;
#335 = ORIENTED_EDGE ( 'NONE', *, *, #144, .F. ) ;
#336 = CIRCLE ( 'NONE', #245, 5.000000000000000000 ) ;
#337 = CARTESIAN_POINT ( 'NONE',  ( -16.00000000000000000, 0.000000000000000000, 8.000000000000000000 ) ) ;
#338 = CARTESIAN_POINT ( 'NONE',  ( 8.000000000000000000, 0.000000000000000000, 11.00000000000000000 ) ) ;
#339 = EDGE_CURVE ( 'NONE', #295, #44, #493, .T. ) ;
#340 = VERTEX_POINT ( 'NONE', #26 ) ;
#341 = CARTESIAN_POINT ( 'NONE',  ( 0.000000000000000000, 16.00000000000000000, 0.000000000000000000 ) ) ;
#342 = DIRECTION ( 'NONE',  ( 1.000000000000000000, 0.000000000000000000, 0.000000000000000000 ) ) ;
#343 = ORIENTED_EDGE ( 'NONE', *, *, #508, .T. ) ;
#344 = DIRECTION ( 'NONE',  ( 0.000000000000000000, 0.000000000000000000, 1.000000000000000000 ) ) ;
#345 = DIRECTION ( 'NONE',  ( 1.000000000000000000, 0.000000000000000000, 0.000000000000000000 ) ) ;
#346 = ORIENTED_EDGE ( 'NONE', *, *, #294, .T. ) ;
#347 = APPROVAL_PERSON_ORGANIZATION ( #330, #254, #549 ) ;
#348 = FACE_OUTER_BOUND ( 'NONE', #498, .T. ) ;
#349 = ADVANCED_FACE ( 'NONE', ( #165 ), #172, .F. ) ;
#350 = DIRECTION ( 'NONE',  ( -0.000000000000000000, -0.000000000000000000, -1.000000000000000000 ) ) ;
#351 = EDGE_LOOP ( 'NONE', ( #547, #125, #495, #205 ) ) ;
#352 = EDGE_CURVE ( 'NONE', #583, #128, #537, .T. ) ;
#353 = DIRECTION ( 'NONE',  ( -1.000000000000000000, 0.000000000000000000, 0.000000000000000000 ) ) ;
#354 = VERTEX_POINT ( 'NONE', #296 ) ;
#355 = CARTESIAN_POINT ( 'NONE',  ( 0.000000000000000000, 0.000000000000000000, 33.00000000000000000 ) ) ;
#356 = EDGE_LOOP ( 'NONE', ( #449, #411 ) ) ;
#357 = FACE_OUTER_BOUND ( 'NONE', #155, .T. ) ;
#358 = CIRCLE ( 'NONE', #455, 2.500000000000000444 ) ;
#359 = AXIS2_PLACEMENT_3D ( 'NONE', #108, #204, #342 ) ;
#360 = CARTESIAN_POINT ( 'NONE',  ( -2.500000000000000000, 16.00000000000000000, 0.000000000000000000 ) ) ;
#361 = AXIS2_PLACEMENT_3D ( 'NONE', #577, #73, #301 ) ;
#362 = ORIENTED_EDGE ( 'NONE', *, *, #554, .F. ) ;
#363 = ORIENTED_EDGE ( 'NONE', *, *, #287, .T. ) ;
#364 = COORDINATED_UNIVERSAL_TIME_OFFSET ( 3, 30, .AHEAD. ) ;
#365 = ORIENTED_EDGE ( 'NONE', *, *, #20, .F. ) ;
#366 = DATE_TIME_ROLE ( 'classification_date' ) ;
#367 = AXIS2_PLACEMENT_3D ( 'NONE', #227, #135, #595 ) ;
#368 = CYLINDRICAL_SURFACE ( 'NONE', #285, 2.499999999999998668 ) ;
#369 = COORDINATED_UNIVERSAL_TIME_OFFSET ( 3, 30, .AHEAD. ) ;
#370 = ORIENTED_EDGE ( 'NONE', *, *, #159, .F. ) ;
#371 = CYLINDRICAL_SURFACE ( 'NONE', #209, 2.500000000000000000 ) ;
#372 = APPROVAL_STATUS ( 'not_yet_approved' ) ;
#373 = CIRCLE ( 'NONE', #197, 2.500000000000000444 ) ;
#374 = FACE_OUTER_BOUND ( 'NONE', #122, .T. ) ;
#375 = CC_DESIGN_APPROVAL ( #299, ( #64 ) ) ;
#376 = AXIS2_PLACEMENT_3D ( 'NONE', #251, #527, #244 ) ;
#377 = DIRECTION ( 'NONE',  ( 1.000000000000000000, 0.000000000000000000, 0.000000000000000000 ) ) ;
#378 = ADVANCED_FACE ( 'NONE', ( #60, #206, #107, #392, #348 ), #62, .F. ) ;
#379 = DIRECTION ( 'NONE',  ( 1.000000000000000000, 0.000000000000000000, 0.000000000000000000 ) ) ;
#380 = EDGE_LOOP ( 'NONE', ( #173, #535, #570, #575 ) ) ;
#381 = CARTESIAN_POINT ( 'NONE',  ( 0.000000000000000000, -16.00000000000000000, 0.000000000000000000 ) ) ;
#382 = CARTESIAN_POINT ( 'NONE',  ( -2.500000000000000444, -16.00000000000000000, 8.000000000000000000 ) ) ;
#383 = AXIS2_PLACEMENT_3D ( 'NONE', #355, #503, #129 ) ;
#384 = AXIS2_PLACEMENT_3D ( 'NONE', #419, #92, #276 ) ;
#385 = CIRCLE ( 'NONE', #599, 2.500000000000000000 ) ;
#386 = DIRECTION ( 'NONE',  ( -0.000000000000000000, -0.000000000000000000, 1.000000000000000000 ) ) ;
#387 = CARTESIAN_POINT ( 'NONE',  ( 5.000000000000000000, 6.123233995736766282E-16, 11.00000000000000000 ) ) ;
#388 = ORIENTED_EDGE ( 'NONE', *, *, #323, .F. ) ;
#389 = DIRECTION ( 'NONE',  ( -0.000000000000000000, -0.000000000000000000, -1.000000000000000000 ) ) ;
#390 = FACE_BOUND ( 'NONE', #356, .T. ) ;
#391 = EDGE_CURVE ( 'NONE', #446, #528, #246, .T. ) ;
#392 = FACE_BOUND ( 'NONE', #546, .T. ) ;
#393 = DIRECTION ( 'NONE',  ( 1.000000000000000000, 0.000000000000000000, -0.000000000000000000 ) ) ;
#394 = ORIENTED_EDGE ( 'NONE', *, *, #508, .F. ) ;
#395 = LOCAL_TIME ( 16, 7, 37.00000000000000000, #236 ) ;
#396 = CARTESIAN_POINT ( 'NONE',  ( 18.50000000000000000, 0.000000000000000000, 0.000000000000000000 ) ) ;
#397 = AXIS2_PLACEMENT_3D ( 'NONE', #568, #293, #379 ) ;
#398 = DIRECTION ( 'NONE',  ( 0.000000000000000000, 0.000000000000000000, 1.000000000000000000 ) ) ;
#399 = ORIENTED_EDGE ( 'NONE', *, *, #144, .T. ) ;
#400 = EDGE_CURVE ( 'NONE', #431, #12, #385, .T. ) ;
#401 = COORDINATED_UNIVERSAL_TIME_OFFSET ( 3, 30, .AHEAD. ) ;
#402 = CARTESIAN_POINT ( 'NONE',  ( 0.000000000000000000, 0.000000000000000000, 8.000000000000000000 ) ) ;
#403 = ORIENTED_EDGE ( 'NONE', *, *, #339, .F. ) ;
#404 = APPROVAL_ROLE ( '' ) ;
#405 = CARTESIAN_POINT ( 'NONE',  ( 27.00000000000000000, 3.306546357697853733E-15, 8.000000000000000000 ) ) ;
#406 = ORIENTED_EDGE ( 'NONE', *, *, #272, .F. ) ;
#407 = CIRCLE ( 'NONE', #308, 27.00000000000000000 ) ;
#408 = APPROVAL_PERSON_ORGANIZATION ( #25, #299, #404 ) ;
#409 = CIRCLE ( 'NONE', #38, 27.00000000000000000 ) ;
#410 = FACE_OUTER_BOUND ( 'NONE', #484, .T. ) ;
#411 = ORIENTED_EDGE ( 'NONE', *, *, #99, .T. ) ;
#412 = APPROVAL_DATE_TIME ( #223, #11 ) ;
#413 = EDGE_LOOP ( 'NONE', ( #417, #586, #343, #90 ) ) ;
#414 = VERTEX_POINT ( 'NONE', #482 ) ;
#415 = SECURITY_CLASSIFICATION_LEVEL ( 'unclassified' ) ;
#416 = CIRCLE ( 'NONE', #326, 2.500000000000000000 ) ;
#417 = ORIENTED_EDGE ( 'NONE', *, *, #225, .F. ) ;
#418 = AXIS2_PLACEMENT_3D ( 'NONE', #402, #448, #353 ) ;
#419 = CARTESIAN_POINT ( 'NONE',  ( 0.000000000000000000, 0.000000000000000000, 33.00000000000000000 ) ) ;
#420 = DATE_AND_TIME ( #46, #395 ) ;
#421 = CARTESIAN_POINT ( 'NONE',  ( 27.00000000000000000, 3.306546357697853733E-15, 0.000000000000000000 ) ) ;
#422 = CARTESIAN_POINT ( 'NONE',  ( 13.50000000000000178, 3.061616997868381662E-16, 0.000000000000000000 ) ) ;
#423 = CYLINDRICAL_SURFACE ( 'NONE', #139, 2.500000000000000444 ) ;
#424 = VERTEX_POINT ( 'NONE', #200 ) ;
#425 = EDGE_CURVE ( 'NONE', #528, #552, #511, .T. ) ;
#426 = DIRECTION ( 'NONE',  ( 1.000000000000000000, 0.000000000000000000, 0.000000000000000000 ) ) ;
#427 = DIRECTION ( 'NONE',  ( 0.000000000000000000, 0.000000000000000000, 1.000000000000000000 ) ) ;
#428 = DIRECTION ( 'NONE',  ( 1.000000000000000000, 0.000000000000000000, 0.000000000000000000 ) ) ;
#429 = DIRECTION ( 'NONE',  ( 1.000000000000000000, 0.000000000000000000, 0.000000000000000000 ) ) ;
#430 = AXIS2_PLACEMENT_3D ( 'NONE', #381, #292, #14 ) ;
#431 = VERTEX_POINT ( 'NONE', #440 ) ;
#432 = TOROIDAL_SURFACE ( 'NONE', #320, 8.000000000000000000, 3.000000000000000000 ) ;
#433 = AXIS2_PLACEMENT_3D ( 'NONE', #585, #157, #219 ) ;
#434 = CARTESIAN_POINT ( 'NONE',  ( -13.50000000000000000, 0.000000000000000000, 8.000000000000000000 ) ) ;
#435 = DIRECTION ( 'NONE',  ( 0.000000000000000000, 0.000000000000000000, 1.000000000000000000 ) ) ;
#436 = VERTEX_POINT ( 'NONE', #147 ) ;
#437 = CYLINDRICAL_SURFACE ( 'NONE', #430, 2.500000000000000444 ) ;
#438 = DIRECTION ( 'NONE',  ( 0.000000000000000000, -1.000000000000000000, 0.000000000000000000 ) ) ;
#439 = ORIENTED_EDGE ( 'NONE', *, *, #458, .T. ) ;
#440 = CARTESIAN_POINT ( 'NONE',  ( 2.500000000000000000, 16.00000000000000000, 0.000000000000000000 ) ) ;
#441 = CARTESIAN_POINT ( 'NONE',  ( 0.000000000000000000, -16.00000000000000000, 8.000000000000000000 ) ) ;
#442 = ORIENTED_EDGE ( 'NONE', *, *, #166, .T. ) ;
#443 = APPROVAL_ROLE ( '' ) ;
#444 = CIRCLE ( 'NONE', #590, 2.500000000000000000 ) ;
#445 = DIRECTION ( 'NONE',  ( 1.000000000000000000, 0.000000000000000000, 0.000000000000000000 ) ) ;
#446 = VERTEX_POINT ( 'NONE', #476 ) ;
#447 = APPROVAL_STATUS ( 'not_yet_approved' ) ;
#448 = DIRECTION ( 'NONE',  ( -0.000000000000000000, -0.000000000000000000, -1.000000000000000000 ) ) ;
#449 = ORIENTED_EDGE ( 'NONE', *, *, #323, .T. ) ;
#450 = LINE ( 'NONE', #91, #13 ) ;
#451 = DIRECTION ( 'NONE',  ( 0.000000000000000000, 0.000000000000000000, 1.000000000000000000 ) ) ;
#452 = ORIENTED_EDGE ( 'NONE', *, *, #317, .F. ) ;
#453 = CC_DESIGN_DATE_AND_TIME_ASSIGNMENT ( #489, #75, ( #306 ) ) ;
#454 = DIRECTION ( 'NONE',  ( 1.000000000000000000, 0.000000000000000000, 0.000000000000000000 ) ) ;
#455 = AXIS2_PLACEMENT_3D ( 'NONE', #337, #344, #519 ) ;
#456 = CIRCLE ( 'NONE', #384, 5.000000000000000000 ) ;
#457 = EDGE_LOOP ( 'NONE', ( #2, #35 ) ) ;
#458 = EDGE_CURVE ( 'NONE', #44, #295, #373, .T. ) ;
#459 = CARTESIAN_POINT ( 'NONE',  ( 0.000000000000000000, 0.000000000000000000, 8.000000000000000000 ) ) ;
#460 = EDGE_CURVE ( 'NONE', #479, #340, #358, .T. ) ;
#461 = ORIENTED_EDGE ( 'NONE', *, *, #554, .T. ) ;
#462 = ORIENTED_EDGE ( 'NONE', *, *, #400, .T. ) ;
#463 = AXIS2_PLACEMENT_3D ( 'NONE', #441, #398, #213 ) ;
#464 = PERSON_AND_ORGANIZATION ( #29, #138 ) ;
#465 = ADVANCED_BREP_SHAPE_REPRESENTATION ( 'Flange_Default_sldprt', ( #531, #258 ), #48 ) ;
#466 = EDGE_CURVE ( 'NONE', #506, #354, #21, .T. ) ;
#467 = DIRECTION ( 'NONE',  ( -0.000000000000000000, -0.000000000000000000, 1.000000000000000000 ) ) ;
#468 = ORIENTED_EDGE ( 'NONE', *, *, #460, .F. ) ;
#469 = PLANE ( 'NONE',  #556 ) ;
#470 = VERTEX_POINT ( 'NONE', #250 ) ;
#471 = DIRECTION ( 'NONE',  ( 1.000000000000000000, 0.000000000000000000, 0.000000000000000000 ) ) ;
#472 = DIRECTION ( 'NONE',  ( 1.000000000000000000, 0.000000000000000000, 0.000000000000000000 ) ) ;
#473 = ORIENTED_EDGE ( 'NONE', *, *, #287, .F. ) ;
#474 = DIRECTION ( 'NONE',  ( 0.000000000000000000, 0.000000000000000000, 1.000000000000000000 ) ) ;
#475 = CYLINDRICAL_SURFACE ( 'NONE', #376, 2.500000000000000444 ) ;
#476 = CARTESIAN_POINT ( 'NONE',  ( 18.50000000000000000, 0.000000000000000000, 0.000000000000000000 ) ) ;
#477 = FACE_OUTER_BOUND ( 'NONE', #313, .T. ) ;
#478 = CIRCLE ( 'NONE', #148, 8.000000000000000000 ) ;
#479 = VERTEX_POINT ( 'NONE', #434 ) ;
#480 = PRODUCT ( 'Flange_Default_sldprt', 'Flange_Default_sldprt', '', ( #89 ) ) ;
#481 = VECTOR ( 'NONE', #333, 1000.000000000000000 ) ;
#482 = CARTESIAN_POINT ( 'NONE',  ( 8.000000000000000000, 0.000000000000000000, 8.000000000000000000 ) ) ;
#483 = FACE_OUTER_BOUND ( 'NONE', #180, .T. ) ;
#484 = EDGE_LOOP ( 'NONE', ( #522, #32, #266, #100 ) ) ;
#485 = ADVANCED_FACE ( 'NONE', ( #514 ), #437, .F. ) ;
#486 = DIRECTION ( 'NONE',  ( 1.000000000000000000, 0.000000000000000000, 0.000000000000000000 ) ) ;
#487 = LINE ( 'NONE', #405, #518 ) ;
#488 = ORIENTED_EDGE ( 'NONE', *, *, #593, .T. ) ;
#489 = DATE_AND_TIME ( #304, #207 ) ;
#490 = CARTESIAN_POINT ( 'NONE',  ( -2.500000000000000000, 16.00000000000000000, 8.000000000000000000 ) ) ;
#491 = ORIENTED_EDGE ( 'NONE', *, *, #272, .T. ) ;
#492 = AXIS2_PLACEMENT_3D ( 'NONE', #312, #309, #121 ) ;
#493 = CIRCLE ( 'NONE', #170, 2.500000000000000444 ) ;
#494 = CARTESIAN_POINT ( 'NONE',  ( -13.50000000000000000, 0.000000000000000000, 0.000000000000000000 ) ) ;
#495 = ORIENTED_EDGE ( 'NONE', *, *, #548, .T. ) ;
#496 =( NAMED_UNIT ( * ) SI_UNIT ( $, .STERADIAN. ) SOLID_ANGLE_UNIT ( ) );
#497 = DIRECTION ( 'NONE',  ( 1.000000000000000000, 0.000000000000000000, 0.000000000000000000 ) ) ;
#498 = EDGE_LOOP ( 'NONE', ( #256, #133 ) ) ;
#499 = CARTESIAN_POINT ( 'NONE',  ( -8.000000000000000000, 9.797174393178825657E-16, 8.000000000000000000 ) ) ;
#500 = EDGE_CURVE ( 'NONE', #262, #594, #114, .T. ) ;
#501 = ORIENTED_EDGE ( 'NONE', *, *, #425, .T. ) ;
#502 = EDGE_CURVE ( 'NONE', #12, #431, #444, .T. ) ;
#503 = DIRECTION ( 'NONE',  ( 0.000000000000000000, 0.000000000000000000, 1.000000000000000000 ) ) ;
#504 = AXIS2_PLACEMENT_3D ( 'NONE', #142, #435, #188 ) ;
#505 = DIRECTION ( 'NONE',  ( 1.000000000000000000, 0.000000000000000000, 0.000000000000000000 ) ) ;
#506 = VERTEX_POINT ( 'NONE', #576 ) ;
#507 = ORIENTED_EDGE ( 'NONE', *, *, #316, .F. ) ;
#508 = EDGE_CURVE ( 'NONE', #128, #24, #542, .T. ) ;
#509 = PERSON_AND_ORGANIZATION_ROLE ( 'creator' ) ;
#510 = CARTESIAN_POINT ( 'NONE',  ( -2.500000000000000000, 16.00000000000000000, 0.000000000000000000 ) ) ;
#511 = CIRCLE ( 'NONE', #7, 2.499999999999998668 ) ;
#512 = CARTESIAN_POINT ( 'NONE',  ( 0.000000000000000000, 16.00000000000000000, 0.000000000000000000 ) ) ;
#513 = PRODUCT_RELATED_PRODUCT_CATEGORY ( 'detail', '', ( #480 ) ) ;
#514 = FACE_OUTER_BOUND ( 'NONE', #380, .T. ) ;
#515 = CARTESIAN_POINT ( 'NONE',  ( 0.000000000000000000, 0.000000000000000000, 11.00000000000000000 ) ) ;
#516 = CIRCLE ( 'NONE', #504, 2.500000000000000444 ) ;
#517 = ORIENTED_EDGE ( 'NONE', *, *, #225, .T. ) ;
#518 = VECTOR ( 'NONE', #350, 1000.000000000000000 ) ;
#519 = DIRECTION ( 'NONE',  ( 1.000000000000000000, 0.000000000000000000, 0.000000000000000000 ) ) ;
#520 = ADVANCED_FACE ( 'NONE', ( #156 ), #56, .T. ) ;
#521 = CARTESIAN_POINT ( 'NONE',  ( 0.000000000000000000, -16.00000000000000000, 0.000000000000000000 ) ) ;
#522 = ORIENTED_EDGE ( 'NONE', *, *, #273, .F. ) ;
#523 = CARTESIAN_POINT ( 'NONE',  ( 18.50000000000000000, 0.000000000000000000, 8.000000000000000000 ) ) ;
#524 = CARTESIAN_POINT ( 'NONE',  ( -16.00000000000000000, 0.000000000000000000, 0.000000000000000000 ) ) ;
#525 = ORIENTED_EDGE ( 'NONE', *, *, #500, .T. ) ;
#526 = CARTESIAN_POINT ( 'NONE',  ( 0.000000000000000000, 0.000000000000000000, 8.000000000000000000 ) ) ;
#527 = DIRECTION ( 'NONE',  ( -0.000000000000000000, -0.000000000000000000, 1.000000000000000000 ) ) ;
#528 = VERTEX_POINT ( 'NONE', #523 ) ;
#529 = DIRECTION ( 'NONE',  ( -0.000000000000000000, -0.000000000000000000, -1.000000000000000000 ) ) ;
#530 = CYLINDRICAL_SURFACE ( 'NONE', #492, 5.000000000000000000 ) ;
#531 = MANIFOLD_SOLID_BREP ( 'Fillet1', #588 ) ;
#532 = ORIENTED_EDGE ( 'NONE', *, *, #294, .F. ) ;
#533 = CARTESIAN_POINT ( 'NONE',  ( 0.000000000000000000, 0.000000000000000000, 0.000000000000000000 ) ) ;
#534 = LINE ( 'NONE', #22, #36 ) ;
#535 = ORIENTED_EDGE ( 'NONE', *, *, #166, .F. ) ;
#536 = APPLICATION_CONTEXT ( 'configuration controlled 3d designs of mechanical parts and assemblies' ) ;
#537 = LINE ( 'NONE', #113, #334 ) ;
#538 = ORIENTED_EDGE ( 'NONE', *, *, #400, .F. ) ;
#539 = AXIS2_PLACEMENT_3D ( 'NONE', #124, #110, #300 ) ;
#540 = AXIS2_PLACEMENT_3D ( 'NONE', #512, #186, #377 ) ;
#541 =( NAMED_UNIT ( * ) PLANE_ANGLE_UNIT ( ) SI_UNIT ( $, .RADIAN. ) );
#542 = CIRCLE ( 'NONE', #567, 2.500000000000000444 ) ;
#543 = FACE_OUTER_BOUND ( 'NONE', #271, .T. ) ;
#544 = ORIENTED_EDGE ( 'NONE', *, *, #212, .F. ) ;
#545 = CARTESIAN_POINT ( 'NONE',  ( 0.000000000000000000, 0.000000000000000000, 33.00000000000000000 ) ) ;
#546 = EDGE_LOOP ( 'NONE', ( #442, #517 ) ) ;
#547 = ORIENTED_EDGE ( 'NONE', *, *, #105, .F. ) ;
#548 = EDGE_CURVE ( 'NONE', #27, #354, #407, .T. ) ;
#549 = APPROVAL_ROLE ( '' ) ;
#550 = LOCAL_TIME ( 16, 7, 37.00000000000000000, #401 ) ;
#551 = AXIS2_PLACEMENT_3D ( 'NONE', #43, #184, #229 ) ;
#552 = VERTEX_POINT ( 'NONE', #203 ) ;
#553 = CARTESIAN_POINT ( 'NONE',  ( 2.500000000000000444, -16.00000000000000000, 0.000000000000000000 ) ) ;
#554 = EDGE_CURVE ( 'NONE', #112, #470, #45, .T. ) ;
#555 = ORIENTED_EDGE ( 'NONE', *, *, #193, .F. ) ;
#556 = AXIS2_PLACEMENT_3D ( 'NONE', #1, #451, #393 ) ;
#557 = CC_DESIGN_PERSON_AND_ORGANIZATION_ASSIGNMENT ( #96, #275, ( #64 ) ) ;
#558 = CIRCLE ( 'NONE', #397, 2.500000000000000444 ) ;
#559 = DIRECTION ( 'NONE',  ( 0.000000000000000000, 0.000000000000000000, 1.000000000000000000 ) ) ;
#560 = APPROVAL_DATE_TIME ( #232, #254 ) ;
#561 = ADVANCED_FACE ( 'NONE', ( #164 ), #85, .T. ) ;
#562 = DIRECTION ( 'NONE',  ( 1.000000000000000000, 0.000000000000000000, 0.000000000000000000 ) ) ;
#563 = CARTESIAN_POINT ( 'NONE',  ( -16.00000000000000000, 0.000000000000000000, 0.000000000000000000 ) ) ;
#564 = ORIENTED_EDGE ( 'NONE', *, *, #99, .F. ) ;
#565 = ADVANCED_FACE ( 'NONE', ( #357 ), #168, .T. ) ;
#566 = DIRECTION ( 'NONE',  ( 1.000000000000000000, 0.000000000000000000, 0.000000000000000000 ) ) ;
#567 = AXIS2_PLACEMENT_3D ( 'NONE', #190, #102, #426 ) ;
#568 = CARTESIAN_POINT ( 'NONE',  ( 0.000000000000000000, -16.00000000000000000, 0.000000000000000000 ) ) ;
#569 = VECTOR ( 'NONE', #288, 1000.000000000000000 ) ;
#570 = ORIENTED_EDGE ( 'NONE', *, *, #257, .T. ) ;
#571 = CARTESIAN_POINT ( 'NONE',  ( -8.000000000000000000, 9.797174393178825657E-16, 11.00000000000000000 ) ) ;
#572 = FACE_BOUND ( 'NONE', #167, .T. ) ;
#573 = DIRECTION ( 'NONE',  ( 1.224646799147353207E-16, 1.000000000000000000, -0.000000000000000000 ) ) ;
#574 = DIRECTION ( 'NONE',  ( 0.000000000000000000, 0.000000000000000000, 1.000000000000000000 ) ) ;
#575 = ORIENTED_EDGE ( 'NONE', *, *, #316, .T. ) ;
#576 = CARTESIAN_POINT ( 'NONE',  ( -27.00000000000000000, 0.000000000000000000, 8.000000000000000000 ) ) ;
#577 = CARTESIAN_POINT ( 'NONE',  ( 16.00000000000000000, 0.000000000000000000, 0.000000000000000000 ) ) ;
#578 = CARTESIAN_POINT ( 'NONE',  ( 16.00000000000000000, 0.000000000000000000, 8.000000000000000000 ) ) ;
#579 = CARTESIAN_POINT ( 'NONE',  ( 0.000000000000000000, 0.000000000000000000, 8.000000000000000000 ) ) ;
#580 = EDGE_LOOP ( 'NONE', ( #406, #322 ) ) ;
#581 = CALENDAR_DATE ( 2026, 12, 7 ) ;
#582 = CARTESIAN_POINT ( 'NONE',  ( 2.500000000000000444, -16.00000000000000000, 0.000000000000000000 ) ) ;
#583 = VERTEX_POINT ( 'NONE', #589 ) ;
#584 = DIRECTION ( 'NONE',  ( 1.000000000000000000, 0.000000000000000000, 0.000000000000000000 ) ) ;
#585 = CARTESIAN_POINT ( 'NONE',  ( 0.000000000000000000, 0.000000000000000000, 11.00000000000000000 ) ) ;
#586 = ORIENTED_EDGE ( 'NONE', *, *, #352, .T. ) ;
#587 = CIRCLE ( 'NONE', #361, 2.499999999999998668 ) ;
#588 = CLOSED_SHELL ( 'NONE', ( #187, #561, #226, #86, #71, #179, #520, #281, #242, #378, #485, #76, #59, #182, #302, #565, #349 ) ) ;
#589 = CARTESIAN_POINT ( 'NONE',  ( -2.500000000000000444, -16.00000000000000000, 0.000000000000000000 ) ) ;
#590 = AXIS2_PLACEMENT_3D ( 'NONE', #341, #289, #195 ) ;
#591 = EDGE_LOOP ( 'NONE', ( #192, #439 ) ) ;
#592 = PERSON_AND_ORGANIZATION_ROLE ( 'creator' ) ;
#593 = EDGE_CURVE ( 'NONE', #431, #436, #450, .T. ) ;
#594 = VERTEX_POINT ( 'NONE', #499 ) ;
#595 = DIRECTION ( 'NONE',  ( 1.000000000000000000, 0.000000000000000000, 0.000000000000000000 ) ) ;
#596 = CC_DESIGN_APPROVAL ( #254, ( #115 ) ) ;
#597 = AXIS2_PLACEMENT_3D ( 'NONE', #94, #559, #274 ) ;
#598 = APPLICATION_CONTEXT ( 'configuration controlled 3d designs of mechanical parts and assemblies' ) ;
#599 = AXIS2_PLACEMENT_3D ( 'NONE', #69, #286, #428 ) ;
#600 = DIRECTION ( 'NONE',  ( 0.000000000000000000, 0.000000000000000000, 1.000000000000000000 ) ) ;
#601 = CARTESIAN_POINT ( 'NONE',  ( -18.50000000000000000, 3.061616997868384620E-16, 0.000000000000000000 ) ) ;
#602 = DIRECTION ( 'NONE',  ( 1.000000000000000000, 0.000000000000000000, 0.000000000000000000 ) ) ;
#603 = EDGE_LOOP ( 'NONE', ( #117, #473, #239, #564 ) ) ;
ENDSEC;
END-ISO-10303-21;
