ISO-10303-21;
HEADER;
FILE_DESCRIPTION (( 'STEP AP203' ),
    '1' );
FILE_NAME ('Link1UpperShaft_Default_sldprt.STEP',
    '2026-07-12T12:37:43',
    ( '' ),
    ( '' ),
    'SwSTEP 2.0',
    'SolidWorks 2025',
    '' );
FILE_SCHEMA (( 'CONFIG_CONTROL_DESIGN' ));
ENDSEC;

DATA;
#1 = VERTEX_POINT ( 'NONE', #1017 ) ;
#2 = AXIS2_PLACEMENT_3D ( 'NONE', #908, #22, #670 ) ;
#3 = LINE ( 'NONE', #323, #12 ) ;
#4 = CARTESIAN_POINT ( 'NONE',  ( 54.00000000000000000, 6.110987527745300420E-16, -4.990000000000006430 ) ) ;
#5 = EDGE_LOOP ( 'NONE', ( #524, #619, #190, #730 ) ) ;
#6 = EDGE_CURVE ( 'NONE', #1, #171, #776, .T. ) ;
#7 = DIRECTION ( 'NONE',  ( 0.000000000000000000, 0.000000000000000000, 1.000000000000000000 ) ) ;
#8 = DIRECTION ( 'NONE',  ( -1.000000000000000000, -0.000000000000000000, -0.000000000000000000 ) ) ;
#9 = EDGE_CURVE ( 'NONE', #519, #295, #683, .T. ) ;
#10 = CIRCLE ( 'NONE', #917, 4.990000000000001101 ) ;
#11 = ORIENTED_EDGE ( 'NONE', *, *, #445, .F. ) ;
#12 = VECTOR ( 'NONE', #968, 1000.000000000000000 ) ;
#13 = DIRECTION ( 'NONE',  ( 1.000000000000000000, 0.000000000000000000, -0.000000000000000000 ) ) ;
#14 = LINE ( 'NONE', #314, #437 ) ;
#15 = ORIENTED_EDGE ( 'NONE', *, *, #315, .F. ) ;
#16 = AXIS2_PLACEMENT_3D ( 'NONE', #665, #554, #152 ) ;
#17 = AXIS2_PLACEMENT_3D ( 'NONE', #277, #602, #919 ) ;
#18 = EDGE_CURVE ( 'NONE', #883, #127, #491, .T. ) ;
#19 = CARTESIAN_POINT ( 'NONE',  ( 14.00000000000000000, 0.000000000000000000, -7.490000000000001990 ) ) ;
#20 = VERTEX_POINT ( 'NONE', #460 ) ;
#21 = DIRECTION ( 'NONE',  ( -1.000000000000000000, 0.000000000000000000, 0.000000000000000000 ) ) ;
#22 = DIRECTION ( 'NONE',  ( -1.000000000000000000, -0.000000000000000000, -0.000000000000000000 ) ) ;
#23 = EDGE_LOOP ( 'NONE', ( #820, #447 ) ) ;
#24 = CARTESIAN_POINT ( 'NONE',  ( 4.000000000000000000, 0.000000000000000000, -4.990000000000001101 ) ) ;
#25 = DIRECTION ( 'NONE',  ( -1.000000000000000000, -0.000000000000000000, -0.000000000000000000 ) ) ;
#26 = ORIENTED_EDGE ( 'NONE', *, *, #197, .T. ) ;
#27 = PLANE ( 'NONE',  #109 ) ;
#28 = CC_DESIGN_PERSON_AND_ORGANIZATION_ASSIGNMENT ( #234, #858, ( #270 ) ) ;
#29 = LINE ( 'NONE', #342, #116 ) ;
#30 = ORIENTED_EDGE ( 'NONE', *, *, #262, .T. ) ;
#31 =( NAMED_UNIT ( * ) PLANE_ANGLE_UNIT ( ) SI_UNIT ( $, .RADIAN. ) );
#32 = EDGE_LOOP ( 'NONE', ( #462, #142, #574, #894 ) ) ;
#33 = PRODUCT_DEFINITION_SHAPE ( 'NONE', 'NONE',  #270 ) ;
#34 = DIRECTION ( 'NONE',  ( -1.000000000000000000, -0.000000000000000000, -0.000000000000000000 ) ) ;
#35 = EDGE_LOOP ( 'NONE', ( #781, #1032, #802, #1009, #633, #1025, #259, #864 ) ) ;
#36 = PLANE ( 'NONE',  #91 ) ;
#37 = CIRCLE ( 'NONE', #251, 4.990000000000000213 ) ;
#38 = CARTESIAN_POINT ( 'NONE',  ( 0.000000000000000000, 6.110987527745296475E-16, -4.990000000000002878 ) ) ;
#39 = AXIS2_PLACEMENT_3D ( 'NONE', #669, #95, #510 ) ;
#40 = DIRECTION ( 'NONE',  ( 0.000000000000000000, 0.000000000000000000, 1.000000000000000000 ) ) ;
#41 = PLANE ( 'NONE',  #1002 ) ;
#42 = ADVANCED_FACE ( 'NONE', ( #1023, #304 ), #227, .F. ) ;
#43 = DIRECTION ( 'NONE',  ( 0.000000000000000000, 0.000000000000000000, 1.000000000000000000 ) ) ;
#44 = EDGE_CURVE ( 'NONE', #171, #515, #521, .T. ) ;
#45 = ORIENTED_EDGE ( 'NONE', *, *, #906, .F. ) ;
#46 = PERSON_AND_ORGANIZATION_ROLE ( 'classification_officer' ) ;
#47 = CIRCLE ( 'NONE', #927, 4.990000000000001101 ) ;
#48 = VERTEX_POINT ( 'NONE', #389 ) ;
#49 = LINE ( 'NONE', #236, #329 ) ;
#50 = CYLINDRICAL_SURFACE ( 'NONE', #145, 7.490000000000001990 ) ;
#51 = ORIENTED_EDGE ( 'NONE', *, *, #614, .F. ) ;
#52 = PERSON_AND_ORGANIZATION ( #487, #740 ) ;
#53 = ORIENTED_EDGE ( 'NONE', *, *, #985, .T. ) ;
#54 = DIRECTION ( 'NONE',  ( 0.000000000000000000, 0.000000000000000000, 1.000000000000000000 ) ) ;
#55 = AXIS2_PLACEMENT_3D ( 'NONE', #707, #941, #876 ) ;
#56 = DIRECTION ( 'NONE',  ( 0.000000000000000000, 0.000000000000000000, -1.000000000000000000 ) ) ;
#57 = VECTOR ( 'NONE', #237, 1000.000000000000000 ) ;
#58 = VERTEX_POINT ( 'NONE', #159 ) ;
#59 = CALENDAR_DATE ( 2026, 12, 7 ) ;
#60 = ORIENTED_EDGE ( 'NONE', *, *, #1028, .F. ) ;
#61 = DIRECTION ( 'NONE',  ( -0.000000000000000000, 0.000000000000000000, 1.000000000000000000 ) ) ;
#62 = EDGE_CURVE ( 'NONE', #160, #667, #480, .T. ) ;
#63 = PLANE ( 'NONE',  #288 ) ;
#64 = DIRECTION ( 'NONE',  ( -1.000000000000000000, -0.000000000000000000, -0.000000000000000000 ) ) ;
#65 = APPROVAL_STATUS ( 'not_yet_approved' ) ;
#66 = AXIS2_PLACEMENT_3D ( 'NONE', #737, #319, #960 ) ;
#67 = ORIENTED_EDGE ( 'NONE', *, *, #662, .T. ) ;
#68 = CIRCLE ( 'NONE', #733, 4.790000000000006253 ) ;
#69 = DIRECTION ( 'NONE',  ( 0.000000000000000000, 0.000000000000000000, 1.000000000000000000 ) ) ;
#70 = CARTESIAN_POINT ( 'NONE',  ( 0.000000000000000000, 0.000000000000000000, 4.990000000000005542 ) ) ;
#71 = DIRECTION ( 'NONE',  ( -0.000000000000000000, 0.000000000000000000, 1.000000000000000000 ) ) ;
#72 = APPROVAL_ROLE ( '' ) ;
#73 = ORIENTED_EDGE ( 'NONE', *, *, #369, .T. ) ;
#74 = CARTESIAN_POINT ( 'NONE',  ( 14.00000000000000000, 2.000000000000002665, 7.228416147400479552 ) ) ;
#75 = EDGE_CURVE ( 'NONE', #285, #980, #187, .T. ) ;
#76 = CARTESIAN_POINT ( 'NONE',  ( 26.00000000000000000, 0.000000000000000000, 0.000000000000000000 ) ) ;
#77 = CARTESIAN_POINT ( 'NONE',  ( 4.000000000000000000, 5.866058167915824404E-16, -4.790000000000001812 ) ) ;
#78 = VERTEX_POINT ( 'NONE', #4 ) ;
#79 = AXIS2_PLACEMENT_3D ( 'NONE', #950, #1030, #810 ) ;
#80 = DIRECTION ( 'NONE',  ( -1.000000000000000000, -0.000000000000000000, -0.000000000000000000 ) ) ;
#81 = CYLINDRICAL_SURFACE ( 'NONE', #578, 4.990000000000002878 ) ;
#82 = CC_DESIGN_DATE_AND_TIME_ASSIGNMENT ( #852, #476, ( #270 ) ) ;
#83 = ORIENTED_EDGE ( 'NONE', *, *, #711, .F. ) ;
#84 = AXIS2_PLACEMENT_3D ( 'NONE', #395, #885, #728 ) ;
#85 = FACE_OUTER_BOUND ( 'NONE', #609, .T. ) ;
#86 = EDGE_CURVE ( 'NONE', #589, #762, #170, .T. ) ;
#87 = DIRECTION ( 'NONE',  ( -1.000000000000000000, 0.000000000000000000, -0.000000000000000000 ) ) ;
#88 = EDGE_LOOP ( 'NONE', ( #456, #214, #67, #301 ) ) ;
#89 = CARTESIAN_POINT ( 'NONE',  ( 0.000000000000000000, 0.000000000000000000, 0.000000000000000000 ) ) ;
#90 = DIRECTION ( 'NONE',  ( 0.000000000000000000, 0.000000000000000000, 1.000000000000000000 ) ) ;
#91 = AXIS2_PLACEMENT_3D ( 'NONE', #24, #424, #610 ) ;
#92 = VERTEX_POINT ( 'NONE', #562 ) ;
#93 = AXIS2_PLACEMENT_3D ( 'NONE', #597, #183, #823 ) ;
#94 = ADVANCED_FACE ( 'NONE', ( #411 ), #1041, .T. ) ;
#95 = DIRECTION ( 'NONE',  ( -1.000000000000000000, -0.000000000000000000, -0.000000000000000000 ) ) ;
#96 = CARTESIAN_POINT ( 'NONE',  ( 0.000000000000000000, 6.110987527745299433E-16, -4.990000000000005542 ) ) ;
#97 = ORIENTED_EDGE ( 'NONE', *, *, #197, .F. ) ;
#98 = AXIS2_PLACEMENT_3D ( 'NONE', #349, #499, #189 ) ;
#99 = MANIFOLD_SOLID_BREP ( 'Cut-Extrude8', #221 ) ;
#100 = LINE ( 'NONE', #754, #888 ) ;
#101 = CIRCLE ( 'NONE', #581, 4.790000000000000924 ) ;
#102 = CARTESIAN_POINT ( 'NONE',  ( 24.00000000000000000, 0.000000000000000000, 0.000000000000000000 ) ) ;
#103 = ORIENTED_EDGE ( 'NONE', *, *, #631, .T. ) ;
#104 = CARTESIAN_POINT ( 'NONE',  ( 1.224646799147250347E-18, 6.110987527745293517E-16, -4.990000000000000213 ) ) ;
#105 = EDGE_CURVE ( 'NONE', #58, #604, #976, .T. ) ;
#106 = CARTESIAN_POINT ( 'NONE',  ( 0.000000000000000000, 0.000000000000000000, 4.790000000000006253 ) ) ;
#107 = VERTEX_POINT ( 'NONE', #77 ) ;
#108 = DIRECTION ( 'NONE',  ( -1.000000000000000000, -0.000000000000000000, -0.000000000000000000 ) ) ;
#109 = AXIS2_PLACEMENT_3D ( 'NONE', #191, #268, #359 ) ;
#110 = DIRECTION ( 'NONE',  ( -0.000000000000000000, 0.000000000000000000, 1.000000000000000000 ) ) ;
#111 = AXIS2_PLACEMENT_3D ( 'NONE', #635, #150, #796 ) ;
#112 = CARTESIAN_POINT ( 'NONE',  ( 39.50000000000000711, 6.110987527745299433E-16, -4.990000000000004654 ) ) ;
#113 = EDGE_LOOP ( 'NONE', ( #344, #428, #716, #185 ) ) ;
#114 = CYLINDRICAL_SURFACE ( 'NONE', #970, 4.990000000000004654 ) ;
#115 = AXIS2_PLACEMENT_3D ( 'NONE', #743, #573, #734 ) ;
#116 = VECTOR ( 'NONE', #997, 1000.000000000000000 ) ;
#117 = FACE_OUTER_BOUND ( 'NONE', #418, .T. ) ;
#118 = ORIENTED_EDGE ( 'NONE', *, *, #376, .T. ) ;
#119 = DIRECTION ( 'NONE',  ( -1.000000000000000000, 0.000000000000000000, 0.000000000000000000 ) ) ;
#120 = PRODUCT ( 'Link1UpperShaft_Default_sldprt', 'Link1UpperShaft_Default_sldprt', '', ( #620 ) ) ;
#121 = DIRECTION ( 'NONE',  ( -1.000000000000000000, -0.000000000000000000, -0.000000000000000000 ) ) ;
#122 = EDGE_LOOP ( 'NONE', ( #255, #371 ) ) ;
#123 = CARTESIAN_POINT ( 'NONE',  ( 0.000000000000000000, 6.110987527745298447E-16, -4.990000000000004654 ) ) ;
#124 = ADVANCED_FACE ( 'NONE', ( #164 ), #249, .T. ) ;
#125 = CARTESIAN_POINT ( 'NONE',  ( 14.00000000000000000, 0.000000000000000000, 0.000000000000000000 ) ) ;
#126 = AXIS2_PLACEMENT_3D ( 'NONE', #1040, #577, #479 ) ;
#127 = VERTEX_POINT ( 'NONE', #324 ) ;
#128 = SECURITY_CLASSIFICATION_LEVEL ( 'unclassified' ) ;
#129 = VERTEX_POINT ( 'NONE', #979 ) ;
#130 = CARTESIAN_POINT ( 'NONE',  ( 1.224646799147250347E-18, 0.000000000000000000, 0.000000000000000000 ) ) ;
#131 = CYLINDRICAL_SURFACE ( 'NONE', #840, 4.790000000000006253 ) ;
#132 = ORIENTED_EDGE ( 'NONE', *, *, #406, .F. ) ;
#133 = COORDINATED_UNIVERSAL_TIME_OFFSET ( 3, 30, .AHEAD. ) ;
#134 = AXIS2_PLACEMENT_3D ( 'NONE', #785, #769, #362 ) ;
#135 = ORIENTED_EDGE ( 'NONE', *, *, #303, .F. ) ;
#136 = CARTESIAN_POINT ( 'NONE',  ( 30.50000000000000000, 0.000000000000000000, 4.990000000000004654 ) ) ;
#137 = DIRECTION ( 'NONE',  ( -1.000000000000000000, -0.000000000000000000, -0.000000000000000000 ) ) ;
#138 = EDGE_CURVE ( 'NONE', #384, #129, #14, .T. ) ;
#139 = CARTESIAN_POINT ( 'NONE',  ( 3.000000000000000000, 0.000000000000000000, 0.000000000000000000 ) ) ;
#140 = DATE_AND_TIME ( #547, #869 ) ;
#141 = CC_DESIGN_PERSON_AND_ORGANIZATION_ASSIGNMENT ( #52, #455, ( #483 ) ) ;
#142 = ORIENTED_EDGE ( 'NONE', *, *, #458, .T. ) ;
#143 = CARTESIAN_POINT ( 'NONE',  ( 3.000000000000000000, 0.000000000000000000, 4.790000000000000924 ) ) ;
#144 = AXIS2_PLACEMENT_3D ( 'NONE', #206, #678, #759 ) ;
#145 = AXIS2_PLACEMENT_3D ( 'NONE', #380, #373, #704 ) ;
#146 = VERTEX_POINT ( 'NONE', #494 ) ;
#147 = APPROVAL_DATE_TIME ( #541, #671 ) ;
#148 = AXIS2_PLACEMENT_3D ( 'NONE', #1010, #742, #673 ) ;
#149 = VERTEX_POINT ( 'NONE', #965 ) ;
#150 = DIRECTION ( 'NONE',  ( -1.000000000000000000, -0.000000000000000000, -0.000000000000000000 ) ) ;
#151 = CARTESIAN_POINT ( 'NONE',  ( 14.00000000000000000, 2.000000000000003109, -4.571662717217884087 ) ) ;
#152 = DIRECTION ( 'NONE',  ( 0.000000000000000000, 0.000000000000000000, 1.000000000000000000 ) ) ;
#153 = APPROVAL_ROLE ( '' ) ;
#154 = AXIS2_PLACEMENT_3D ( 'NONE', #947, #714, #40 ) ;
#155 = EDGE_LOOP ( 'NONE', ( #182, #922, #434, #413 ) ) ;
#156 = VECTOR ( 'NONE', #56, 1000.000000000000000 ) ;
#157 = FACE_OUTER_BOUND ( 'NONE', #961, .T. ) ;
#158 = DIRECTION ( 'NONE',  ( 0.000000000000000000, -0.000000000000000000, 1.000000000000000000 ) ) ;
#159 = CARTESIAN_POINT ( 'NONE',  ( 14.00000000000000000, 0.000000000000000000, 7.490000000000001990 ) ) ;
#160 = VERTEX_POINT ( 'NONE', #485 ) ;
#161 = APPLICATION_CONTEXT ( 'configuration controlled 3d designs of mechanical parts and assemblies' ) ;
#162 = EDGE_CURVE ( 'NONE', #374, #980, #969, .T. ) ;
#163 = DIRECTION ( 'NONE',  ( 0.000000000000000000, 0.000000000000000000, 1.000000000000000000 ) ) ;
#164 = FACE_OUTER_BOUND ( 'NONE', #88, .T. ) ;
#165 = VECTOR ( 'NONE', #309, 1000.000000000000000 ) ;
#166 = EDGE_LOOP ( 'NONE', ( #836, #1037 ) ) ;
#167 = ADVANCED_FACE ( 'NONE', ( #1035 ), #81, .T. ) ;
#168 = AXIS2_PLACEMENT_3D ( 'NONE', #926, #186, #1008 ) ;
#169 = CARTESIAN_POINT ( 'NONE',  ( 14.00000000000000000, 0.000000000000000000, 0.000000000000000000 ) ) ;
#170 = LINE ( 'NONE', #806, #860 ) ;
#171 = VERTEX_POINT ( 'NONE', #404 ) ;
#172 = AXIS2_PLACEMENT_3D ( 'NONE', #427, #25, #992 ) ;
#173 = DIRECTION ( 'NONE',  ( -1.000000000000000000, -0.000000000000000000, -0.000000000000000000 ) ) ;
#174 = EDGE_CURVE ( 'NONE', #515, #171, #489, .T. ) ;
#175 = CARTESIAN_POINT ( 'NONE',  ( 0.000000000000000000, 5.866058167915829334E-16, -4.790000000000006253 ) ) ;
#176 = EDGE_LOOP ( 'NONE', ( #984, #929 ) ) ;
#177 = EDGE_CURVE ( 'NONE', #795, #358, #1024, .T. ) ;
#178 = PLANE ( 'NONE',  #889 ) ;
#179 = CARTESIAN_POINT ( 'NONE',  ( 26.00000000000000000, 0.000000000000000000, 4.990000000000003766 ) ) ;
#180 = CARTESIAN_POINT ( 'NONE',  ( 14.00000000000000000, 0.000000000000000000, -7.490000000000001990 ) ) ;
#181 = VECTOR ( 'NONE', #398, 1000.000000000000000 ) ;
#182 = ORIENTED_EDGE ( 'NONE', *, *, #548, .T. ) ;
#183 = DIRECTION ( 'NONE',  ( -1.000000000000000000, -0.000000000000000000, -0.000000000000000000 ) ) ;
#184 = LINE ( 'NONE', #96, #880 ) ;
#185 = ORIENTED_EDGE ( 'NONE', *, *, #533, .F. ) ;
#186 = DIRECTION ( 'NONE',  ( 1.000000000000000000, 0.000000000000000000, -0.000000000000000000 ) ) ;
#187 = CIRCLE ( 'NONE', #84, 4.790000000000006253 ) ;
#188 = FACE_OUTER_BOUND ( 'NONE', #687, .T. ) ;
#189 = DIRECTION ( 'NONE',  ( 0.000000000000000000, -0.000000000000000000, -1.000000000000000000 ) ) ;
#190 = ORIENTED_EDGE ( 'NONE', *, *, #879, .F. ) ;
#191 = CARTESIAN_POINT ( 'NONE',  ( 24.00000000000000000, 0.000000000000000000, 0.000000000000000000 ) ) ;
#192 = PLANE ( 'NONE',  #361 ) ;
#193 = ADVANCED_FACE ( 'NONE', ( #893 ), #815, .F. ) ;
#194 = CYLINDRICAL_SURFACE ( 'NONE', #666, 4.990000000000004654 ) ;
#195 = ORIENTED_EDGE ( 'NONE', *, *, #629, .T. ) ;
#196 = AXIS2_PLACEMENT_3D ( 'NONE', #911, #594, #771 ) ;
#197 = EDGE_CURVE ( 'NONE', #788, #853, #202, .T. ) ;
#198 = AXIS2_PLACEMENT_3D ( 'NONE', #394, #399, #727 ) ;
#199 = CARTESIAN_POINT ( 'NONE',  ( 14.00000000000000000, 6.110987527745294503E-16, -4.990000000000001101 ) ) ;
#200 = ORIENTED_EDGE ( 'NONE', *, *, #369, .F. ) ;
#201 = CARTESIAN_POINT ( 'NONE',  ( 4.000000000000000000, 0.000000000000000000, 0.000000000000000000 ) ) ;
#202 = CIRCLE ( 'NONE', #797, 4.990000000000000213 ) ;
#203 = VECTOR ( 'NONE', #829, 1000.000000000000000 ) ;
#204 = CARTESIAN_POINT ( 'NONE',  ( 14.00000000000000000, -1.999999999999997335, 7.228416147400479552 ) ) ;
#205 = ORIENTED_EDGE ( 'NONE', *, *, #426, .T. ) ;
#206 = CARTESIAN_POINT ( 'NONE',  ( 14.00000000000000000, 0.000000000000000000, 0.000000000000000000 ) ) ;
#207 = EDGE_CURVE ( 'NONE', #263, #925, #924, .T. ) ;
#208 = DIRECTION ( 'NONE',  ( 0.000000000000000000, 0.000000000000000000, 1.000000000000000000 ) ) ;
#209 = ORIENTED_EDGE ( 'NONE', *, *, #739, .T. ) ;
#210 = ORIENTED_EDGE ( 'NONE', *, *, #326, .T. ) ;
#211 = DIRECTION ( 'NONE',  ( -1.000000000000000000, -0.000000000000000000, -0.000000000000000000 ) ) ;
#212 = DIRECTION ( 'NONE',  ( 0.000000000000000000, 0.000000000000000000, 1.000000000000000000 ) ) ;
#213 = AXIS2_PLACEMENT_3D ( 'NONE', #896, #80, #231 ) ;
#214 = ORIENTED_EDGE ( 'NONE', *, *, #356, .T. ) ;
#215 = APPLICATION_PROTOCOL_DEFINITION ( 'international standard', 'config_control_design', 1994, #161 ) ;
#216 = ORIENTED_EDGE ( 'NONE', *, *, #654, .F. ) ;
#217 = DIRECTION ( 'NONE',  ( -1.000000000000000000, -0.000000000000000000, -0.000000000000000000 ) ) ;
#218 = EDGE_CURVE ( 'NONE', #724, #374, #320, .T. ) ;
#219 = ADVANCED_FACE ( 'NONE', ( #800 ), #839, .F. ) ;
#220 = LINE ( 'NONE', #624, #156 ) ;
#221 = CLOSED_SHELL ( 'NONE', ( #804, #1006, #684, #490, #827, #459, #345, #834, #576, #219, #618, #193, #843, #42, #863, #453, #996, #918, #761, #847, #167, #855, #482, #269, #94, #942, #951, #732, #124, #967, #598, #741, #1013, #253, #695 ) ) ;
#222 = ORIENTED_EDGE ( 'NONE', *, *, #912, .T. ) ;
#223 = CALENDAR_DATE ( 2026, 12, 7 ) ;
#224 = EDGE_LOOP ( 'NONE', ( #910, #930 ) ) ;
#225 = CARTESIAN_POINT ( 'NONE',  ( 30.50000000000000000, 0.000000000000000000, 0.000000000000000000 ) ) ;
#226 = DIRECTION ( 'NONE',  ( 0.000000000000000000, 0.000000000000000000, 1.000000000000000000 ) ) ;
#227 = PLANE ( 'NONE',  #239 ) ;
#228 = EDGE_LOOP ( 'NONE', ( #535, #210 ) ) ;
#229 = CYLINDRICAL_SURFACE ( 'NONE', #513, 4.990000000000005542 ) ;
#230 = AXIS2_PLACEMENT_3D ( 'NONE', #709, #312, #61 ) ;
#231 = DIRECTION ( 'NONE',  ( 0.000000000000000000, 0.000000000000000000, 1.000000000000000000 ) ) ;
#232 = AXIS2_PLACEMENT_3D ( 'NONE', #497, #750, #292 ) ;
#233 = EDGE_LOOP ( 'NONE', ( #332, #501, #677, #848 ) ) ;
#234 = PERSON_AND_ORGANIZATION ( #487, #740 ) ;
#235 = ORIENTED_EDGE ( 'NONE', *, *, #18, .T. ) ;
#236 = CARTESIAN_POINT ( 'NONE',  ( 0.000000000000000000, 0.000000000000000000, 4.990000000000004654 ) ) ;
#237 = DIRECTION ( 'NONE',  ( 0.000000000000000000, 0.000000000000000000, -1.000000000000000000 ) ) ;
#238 = CARTESIAN_POINT ( 'NONE',  ( 14.00000000000000000, 0.000000000000000000, 0.000000000000000000 ) ) ;
#239 = AXIS2_PLACEMENT_3D ( 'NONE', #546, #868, #468 ) ;
#240 = EDGE_LOOP ( 'NONE', ( #793, #816, #700, #637, #627, #311 ) ) ;
#241 = CIRCLE ( 'NONE', #172, 4.990000000000000213 ) ;
#242 = DIRECTION ( 'NONE',  ( -1.000000000000000000, -0.000000000000000000, -0.000000000000000000 ) ) ;
#243 = EDGE_CURVE ( 'NONE', #78, #358, #184, .T. ) ;
#244 = CARTESIAN_POINT ( 'NONE',  ( 0.000000000000000000, 6.110987527745294503E-16, -4.990000000000001101 ) ) ;
#245 = DIRECTION ( 'NONE',  ( 0.000000000000000000, 0.000000000000000000, 1.000000000000000000 ) ) ;
#246 = EDGE_CURVE ( 'NONE', #705, #812, #419, .T. ) ;
#247 = EDGE_LOOP ( 'NONE', ( #73, #904, #661, #615 ) ) ;
#248 = CARTESIAN_POINT ( 'NONE',  ( 38.50000000000000000, 6.110987527745298447E-16, -4.990000000000004654 ) ) ;
#249 = CYLINDRICAL_SURFACE ( 'NONE', #66, 4.990000000000000213 ) ;
#250 = ORIENTED_EDGE ( 'NONE', *, *, #585, .F. ) ;
#251 = AXIS2_PLACEMENT_3D ( 'NONE', #772, #211, #503 ) ;
#252 = DIRECTION ( 'NONE',  ( -1.000000000000000000, -0.000000000000000000, -0.000000000000000000 ) ) ;
#253 = ADVANCED_FACE ( 'NONE', ( #117 ), #690, .F. ) ;
#254 = DIRECTION ( 'NONE',  ( -1.000000000000000000, -0.000000000000000000, -0.000000000000000000 ) ) ;
#255 = ORIENTED_EDGE ( 'NONE', *, *, #44, .F. ) ;
#256 = VECTOR ( 'NONE', #765, 1000.000000000000000 ) ;
#257 = FACE_OUTER_BOUND ( 'NONE', #956, .T. ) ;
#258 = CARTESIAN_POINT ( 'NONE',  ( 30.50000000000000000, 0.000000000000000000, 0.000000000000000000 ) ) ;
#259 = ORIENTED_EDGE ( 'NONE', *, *, #86, .T. ) ;
#260 = DIRECTION ( 'NONE',  ( 0.000000000000000000, 0.000000000000000000, 1.000000000000000000 ) ) ;
#261 = DIRECTION ( 'NONE',  ( 1.000000000000000000, 0.000000000000000000, 0.000000000000000000 ) ) ;
#262 = EDGE_CURVE ( 'NONE', #350, #877, #595, .T. ) ;
#263 = VERTEX_POINT ( 'NONE', #824 ) ;
#264 = AXIS2_PLACEMENT_3D ( 'NONE', #89, #805, #488 ) ;
#265 = LINE ( 'NONE', #616, #415 ) ;
#266 = DIRECTION ( 'NONE',  ( -1.000000000000000000, -0.000000000000000000, -0.000000000000000000 ) ) ;
#267 = ORIENTED_EDGE ( 'NONE', *, *, #472, .T. ) ;
#268 = DIRECTION ( 'NONE',  ( -1.000000000000000000, 0.000000000000000000, 0.000000000000000000 ) ) ;
#269 = ADVANCED_FACE ( 'NONE', ( #587 ), #680, .F. ) ;
#270 = PRODUCT_DEFINITION ( 'UNKNOWN', '', #483, #689 ) ;
#271 = VECTOR ( 'NONE', #408, 1000.000000000000000 ) ;
#272 = DIRECTION ( 'NONE',  ( 0.000000000000000000, 0.000000000000000000, 1.000000000000000000 ) ) ;
#273 = CIRCLE ( 'NONE', #978, 7.490000000000001990 ) ;
#274 = DIRECTION ( 'NONE',  ( 0.000000000000000000, 0.000000000000000000, 1.000000000000000000 ) ) ;
#275 = ORIENTED_EDGE ( 'NONE', *, *, #955, .T. ) ;
#276 = CYLINDRICAL_SURFACE ( 'NONE', #196, 4.790000000000000924 ) ;
#277 = CARTESIAN_POINT ( 'NONE',  ( 30.50000000000000000, 0.000000000000000000, 0.000000000000000000 ) ) ;
#278 = ORIENTED_EDGE ( 'NONE', *, *, #246, .T. ) ;
#279 = DIRECTION ( 'NONE',  ( 0.000000000000000000, 0.000000000000000000, 1.000000000000000000 ) ) ;
#280 = APPROVAL_PERSON_ORGANIZATION ( #536, #514, #153 ) ;
#281 = AXIS2_PLACEMENT_3D ( 'NONE', #905, #119, #435 ) ;
#282 = EDGE_CURVE ( 'NONE', #844, #857, #68, .T. ) ;
#283 = DIRECTION ( 'NONE',  ( -1.000000000000000000, -0.000000000000000000, -0.000000000000000000 ) ) ;
#284 = EDGE_CURVE ( 'NONE', #1, #48, #504, .T. ) ;
#285 = VERTEX_POINT ( 'NONE', #422 ) ;
#286 = FACE_OUTER_BOUND ( 'NONE', #508, .T. ) ;
#287 = AXIS2_PLACEMENT_3D ( 'NONE', #180, #261, #599 ) ;
#288 = AXIS2_PLACEMENT_3D ( 'NONE', #632, #856, #526 ) ;
#289 = DIRECTION ( 'NONE',  ( 0.000000000000000000, 0.000000000000000000, 1.000000000000000000 ) ) ;
#290 = ORIENTED_EDGE ( 'NONE', *, *, #207, .F. ) ;
#291 = ORIENTED_EDGE ( 'NONE', *, *, #892, .T. ) ;
#292 = DIRECTION ( 'NONE',  ( 0.000000000000000000, 0.000000000000000000, 1.000000000000000000 ) ) ;
#293 = DIRECTION ( 'NONE',  ( 0.000000000000000000, 0.000000000000000000, -1.000000000000000000 ) ) ;
#294 = EDGE_LOOP ( 'NONE', ( #851, #45 ) ) ;
#295 = VERTEX_POINT ( 'NONE', #339 ) ;
#296 = DIRECTION ( 'NONE',  ( 0.000000000000000000, 0.000000000000000000, 1.000000000000000000 ) ) ;
#297 = AXIS2_PLACEMENT_3D ( 'NONE', #76, #884, #163 ) ;
#298 = LINE ( 'NONE', #612, #963 ) ;
#299 = DIRECTION ( 'NONE',  ( -1.000000000000000000, -0.000000000000000000, -0.000000000000000000 ) ) ;
#300 = APPROVAL_ROLE ( '' ) ;
#301 = ORIENTED_EDGE ( 'NONE', *, *, #739, .F. ) ;
#302 = CYLINDRICAL_SURFACE ( 'NONE', #1019, 4.990000000000000213 ) ;
#303 = EDGE_CURVE ( 'NONE', #557, #527, #561, .T. ) ;
#304 = FACE_OUTER_BOUND ( 'NONE', #23, .T. ) ;
#305 = APPROVAL_STATUS ( 'not_yet_approved' ) ;
#306 = EDGE_CURVE ( 'NONE', #127, #883, #101, .T. ) ;
#307 = ORIENTED_EDGE ( 'NONE', *, *, #585, .T. ) ;
#308 = CARTESIAN_POINT ( 'NONE',  ( 0.000000000000000000, 0.000000000000000000, 0.000000000000000000 ) ) ;
#309 = DIRECTION ( 'NONE',  ( -1.000000000000000000, -0.000000000000000000, -0.000000000000000000 ) ) ;
#310 = DIRECTION ( 'NONE',  ( 0.000000000000000000, 0.000000000000000000, 1.000000000000000000 ) ) ;
#311 = ORIENTED_EDGE ( 'NONE', *, *, #433, .F. ) ;
#312 = DIRECTION ( 'NONE',  ( -1.000000000000000000, 0.000000000000000000, -0.000000000000000000 ) ) ;
#313 = LINE ( 'NONE', #959, #57 ) ;
#314 = CARTESIAN_POINT ( 'NONE',  ( 0.000000000000000000, -1.999999999999997335, 7.218039900139097576 ) ) ;
#315 = EDGE_CURVE ( 'NONE', #107, #127, #29, .T. ) ;
#316 = ORIENTED_EDGE ( 'NONE', *, *, #356, .F. ) ;
#317 = CYLINDRICAL_SURFACE ( 'NONE', #333, 4.790000000000006253 ) ;
#318 = CARTESIAN_POINT ( 'NONE',  ( 24.00000000000000000, -1.999999999999997335, -7.218039900139097576 ) ) ;
#319 = DIRECTION ( 'NONE',  ( -1.000000000000000000, -0.000000000000000000, -0.000000000000000000 ) ) ;
#320 = CIRCLE ( 'NONE', #16, 4.790000000000005365 ) ;
#321 = EDGE_LOOP ( 'NONE', ( #132, #495, #831, #51 ) ) ;
#322 = AXIS2_PLACEMENT_3D ( 'NONE', #19, #507, #988 ) ;
#323 = CARTESIAN_POINT ( 'NONE',  ( 0.000000000000000000, 2.000000000000002665, -7.218039900139096687 ) ) ;
#324 = CARTESIAN_POINT ( 'NONE',  ( 3.000000000000000000, 5.866058167915823418E-16, -4.790000000000000924 ) ) ;
#325 = ORIENTED_EDGE ( 'NONE', *, *, #729, .T. ) ;
#326 = EDGE_CURVE ( 'NONE', #980, #285, #830, .T. ) ;
#327 = CC_DESIGN_PERSON_AND_ORGANIZATION_ASSIGNMENT ( #555, #396, ( #483 ) ) ;
#328 = CARTESIAN_POINT ( 'NONE',  ( 29.50000000000000000, 6.110987527745296475E-16, -4.990000000000002878 ) ) ;
#329 = VECTOR ( 'NONE', #628, 1000.000000000000000 ) ;
#330 = DIRECTION ( 'NONE',  ( -0.000000000000000000, -0.000000000000000000, 1.000000000000000000 ) ) ;
#331 = AXIS2_PLACEMENT_3D ( 'NONE', #452, #932, #212 ) ;
#332 = ORIENTED_EDGE ( 'NONE', *, *, #218, .T. ) ;
#333 = AXIS2_PLACEMENT_3D ( 'NONE', #1021, #543, #296 ) ;
#334 = CARTESIAN_POINT ( 'NONE',  ( 14.00000000000000000, 2.000000000000002665, 7.228416147400479552 ) ) ;
#335 = DIRECTION ( 'NONE',  ( 1.000000000000000000, 0.000000000000000000, 0.000000000000000000 ) ) ;
#336 = ORIENTED_EDGE ( 'NONE', *, *, #162, .F. ) ;
#337 = CIRCLE ( 'NONE', #17, 4.790000000000006253 ) ;
#338 = CARTESIAN_POINT ( 'NONE',  ( 30.50000000000000000, 6.110987527745298447E-16, -4.990000000000004654 ) ) ;
#339 = CARTESIAN_POINT ( 'NONE',  ( 29.50000000000000000, 5.866058167915828348E-16, -4.790000000000005365 ) ) ;
#340 = ORIENTED_EDGE ( 'NONE', *, *, #502, .F. ) ;
#341 = DIRECTION ( 'NONE',  ( 0.000000000000000000, 0.000000000000000000, 1.000000000000000000 ) ) ;
#342 = CARTESIAN_POINT ( 'NONE',  ( 0.000000000000000000, 5.866058167915823418E-16, -4.790000000000000924 ) ) ;
#343 = APPROVAL_PERSON_ORGANIZATION ( #1018, #671, #300 ) ;
#344 = ORIENTED_EDGE ( 'NONE', *, *, #920, .T. ) ;
#345 = ADVANCED_FACE ( 'NONE', ( #583 ), #194, .T. ) ;
#346 = DIRECTION ( 'NONE',  ( -1.000000000000000000, -0.000000000000000000, -0.000000000000000000 ) ) ;
#347 = VECTOR ( 'NONE', #252, 1000.000000000000000 ) ;
#348 = CARTESIAN_POINT ( 'NONE',  ( 14.00000000000000000, -1.999999999999997335, 4.571662717217885863 ) ) ;
#349 = CARTESIAN_POINT ( 'NONE',  ( 24.00000000000000000, 2.000000000000002665, 7.228416147400479552 ) ) ;
#350 = VERTEX_POINT ( 'NONE', #591 ) ;
#351 = DIRECTION ( 'NONE',  ( -1.000000000000000000, -0.000000000000000000, -0.000000000000000000 ) ) ;
#352 = DIRECTION ( 'NONE',  ( -1.000000000000000000, -0.000000000000000000, -0.000000000000000000 ) ) ;
#353 = ORIENTED_EDGE ( 'NONE', *, *, #920, .F. ) ;
#354 = FACE_BOUND ( 'NONE', #871, .T. ) ;
#355 = EDGE_CURVE ( 'NONE', #724, #285, #835, .T. ) ;
#356 = EDGE_CURVE ( 'NONE', #853, #788, #241, .T. ) ;
#357 = DIRECTION ( 'NONE',  ( -1.000000000000000000, -0.000000000000000000, -0.000000000000000000 ) ) ;
#358 = VERTEX_POINT ( 'NONE', #112 ) ;
#359 = DIRECTION ( 'NONE',  ( 0.000000000000000000, 0.000000000000000000, 1.000000000000000000 ) ) ;
#360 = AXIS2_PLACEMENT_3D ( 'NONE', #130, #463, #385 ) ;
#361 = AXIS2_PLACEMENT_3D ( 'NONE', #590, #13, #506 ) ;
#362 = DIRECTION ( 'NONE',  ( 0.000000000000000000, 0.000000000000000000, 1.000000000000000000 ) ) ;
#363 = DIRECTION ( 'NONE',  ( -1.000000000000000000, -0.000000000000000000, -0.000000000000000000 ) ) ;
#364 = FACE_OUTER_BOUND ( 'NONE', #901, .T. ) ;
#365 = CARTESIAN_POINT ( 'NONE',  ( 14.00000000000000000, 0.000000000000000000, 0.000000000000000000 ) ) ;
#366 = AXIS2_PLACEMENT_3D ( 'NONE', #875, #882, #644 ) ;
#367 = VECTOR ( 'NONE', #792, 1000.000000000000000 ) ;
#368 = FACE_OUTER_BOUND ( 'NONE', #247, .T. ) ;
#369 = EDGE_CURVE ( 'NONE', #857, #844, #337, .T. ) ;
#370 = VERTEX_POINT ( 'NONE', #199 ) ;
#371 = ORIENTED_EDGE ( 'NONE', *, *, #174, .F. ) ;
#372 = PLANE ( 'NONE',  #791 ) ;
#373 = DIRECTION ( 'NONE',  ( -1.000000000000000000, -0.000000000000000000, -0.000000000000000000 ) ) ;
#374 = VERTEX_POINT ( 'NONE', #518 ) ;
#375 = DATE_TIME_ROLE ( 'classification_date' ) ;
#376 = EDGE_CURVE ( 'NONE', #667, #638, #474, .T. ) ;
#377 = ORIENTED_EDGE ( 'NONE', *, *, #686, .F. ) ;
#378 = FACE_BOUND ( 'NONE', #865, .T. ) ;
#379 = AXIS2_PLACEMENT_3D ( 'NONE', #862, #713, #1022 ) ;
#380 = CARTESIAN_POINT ( 'NONE',  ( 0.000000000000000000, 0.000000000000000000, 0.000000000000000000 ) ) ;
#381 = AXIS2_PLACEMENT_3D ( 'NONE', #703, #217, #69 ) ;
#382 = ORIENTED_EDGE ( 'NONE', *, *, #393, .F. ) ;
#383 = DATE_AND_TIME ( #59, #412 ) ;
#384 = VERTEX_POINT ( 'NONE', #946 ) ;
#385 = DIRECTION ( 'NONE',  ( 0.000000000000000000, 0.000000000000000000, 1.000000000000000000 ) ) ;
#386 = FACE_BOUND ( 'NONE', #228, .T. ) ;
#387 = AXIS2_PLACEMENT_3D ( 'NONE', #139, #363, #625 ) ;
#388 = AXIS2_PLACEMENT_3D ( 'NONE', #544, #121, #441 ) ;
#389 = CARTESIAN_POINT ( 'NONE',  ( 4.000000000000000000, 0.000000000000000000, 4.990000000000001101 ) ) ;
#390 = CALENDAR_DATE ( 2026, 12, 7 ) ;
#391 = ORIENTED_EDGE ( 'NONE', *, *, #662, .F. ) ;
#392 = CARTESIAN_POINT ( 'NONE',  ( 39.50000000000000711, 0.000000000000000000, 4.990000000000004654 ) ) ;
#393 = EDGE_CURVE ( 'NONE', #655, #160, #909, .T. ) ;
#394 = CARTESIAN_POINT ( 'NONE',  ( 29.50000000000000000, 0.000000000000000000, 0.000000000000000000 ) ) ;
#395 = CARTESIAN_POINT ( 'NONE',  ( 38.50000000000000000, 0.000000000000000000, 0.000000000000000000 ) ) ;
#396 = PERSON_AND_ORGANIZATION_ROLE ( 'creator' ) ;
#397 = ORIENTED_EDGE ( 'NONE', *, *, #768, .T. ) ;
#398 = DIRECTION ( 'NONE',  ( -0.000000000000000000, -0.000000000000000000, 1.000000000000000000 ) ) ;
#399 = DIRECTION ( 'NONE',  ( -1.000000000000000000, -0.000000000000000000, -0.000000000000000000 ) ) ;
#400 = DIRECTION ( 'NONE',  ( -1.000000000000000000, -0.000000000000000000, -0.000000000000000000 ) ) ;
#401 = ORIENTED_EDGE ( 'NONE', *, *, #955, .F. ) ;
#402 = DIRECTION ( 'NONE',  ( -1.000000000000000000, -0.000000000000000000, -0.000000000000000000 ) ) ;
#403 = EDGE_CURVE ( 'NONE', #925, #762, #273, .T. ) ;
#404 = CARTESIAN_POINT ( 'NONE',  ( 14.00000000000000000, 2.000000000000002665, 4.571662717217883198 ) ) ;
#405 = EDGE_LOOP ( 'NONE', ( #998, #382 ) ) ;
#406 = EDGE_CURVE ( 'NONE', #655, #638, #466, .T. ) ;
#407 = CARTESIAN_POINT ( 'NONE',  ( 4.000000000000000000, 0.000000000000000000, 0.000000000000000000 ) ) ;
#408 = DIRECTION ( 'NONE',  ( -1.000000000000000000, -0.000000000000000000, -0.000000000000000000 ) ) ;
#409 = ORIENTED_EDGE ( 'NONE', *, *, #86, .F. ) ;
#410 = DIRECTION ( 'NONE',  ( -1.000000000000000000, -0.000000000000000000, -0.000000000000000000 ) ) ;
#411 = FACE_OUTER_BOUND ( 'NONE', #1020, .T. ) ;
#412 = LOCAL_TIME ( 16, 7, 43.00000000000000000, #782 ) ;
#413 = ORIENTED_EDGE ( 'NONE', *, *, #62, .F. ) ;
#414 = DIRECTION ( 'NONE',  ( 0.000000000000000000, 0.000000000000000000, -1.000000000000000000 ) ) ;
#415 = VECTOR ( 'NONE', #931, 1000.000000000000000 ) ;
#416 = DIRECTION ( 'NONE',  ( -1.000000000000000000, -0.000000000000000000, -0.000000000000000000 ) ) ;
#417 = CARTESIAN_POINT ( 'NONE',  ( 30.50000000000000000, 0.000000000000000000, 0.000000000000000000 ) ) ;
#418 = EDGE_LOOP ( 'NONE', ( #886, #766, #222, #933, #505, #449 ) ) ;
#419 = CIRCLE ( 'NONE', #560, 4.990000000000004654 ) ;
#420 = CARTESIAN_POINT ( 'NONE',  ( 0.000000000000000000, 0.000000000000000000, 0.000000000000000000 ) ) ;
#421 = EDGE_CURVE ( 'NONE', #384, #58, #611, .T. ) ;
#422 = CARTESIAN_POINT ( 'NONE',  ( 38.50000000000000000, 0.000000000000000000, 4.790000000000006253 ) ) ;
#423 = EDGE_LOOP ( 'NONE', ( #200, #530 ) ) ;
#424 = DIRECTION ( 'NONE',  ( 1.000000000000000000, 0.000000000000000000, 0.000000000000000000 ) ) ;
#425 = EDGE_LOOP ( 'NONE', ( #492, #209 ) ) ;
#426 = EDGE_CURVE ( 'NONE', #681, #1012, #220, .T. ) ;
#427 = CARTESIAN_POINT ( 'NONE',  ( 3.000000000000000000, 0.000000000000000000, 0.000000000000000000 ) ) ;
#428 = ORIENTED_EDGE ( 'NONE', *, *, #243, .T. ) ;
#429 = CARTESIAN_POINT ( 'NONE',  ( 0.000000000000000000, 0.000000000000000000, 0.000000000000000000 ) ) ;
#430 = AXIS2_PLACEMENT_3D ( 'NONE', #420, #410, #272 ) ;
#431 = CIRCLE ( 'NONE', #281, 7.490000000000001990 ) ;
#432 = CARTESIAN_POINT ( 'NONE',  ( 0.000000000000000000, 0.000000000000000000, 4.990000000000001101 ) ) ;
#433 = EDGE_CURVE ( 'NONE', #384, #681, #694, .T. ) ;
#434 = ORIENTED_EDGE ( 'NONE', *, *, #376, .F. ) ;
#435 = DIRECTION ( 'NONE',  ( 0.000000000000000000, 0.000000000000000000, 1.000000000000000000 ) ) ;
#436 = EDGE_CURVE ( 'NONE', #92, #883, #298, .T. ) ;
#437 = VECTOR ( 'NONE', #335, 1000.000000000000000 ) ;
#438 = CARTESIAN_POINT ( 'NONE',  ( 3.000000000000000000, 0.000000000000000000, 0.000000000000000000 ) ) ;
#439 = ORIENTED_EDGE ( 'NONE', *, *, #912, .F. ) ;
#440 = CARTESIAN_POINT ( 'NONE',  ( 0.000000000000000000, 0.000000000000000000, 0.000000000000000000 ) ) ;
#441 = DIRECTION ( 'NONE',  ( 0.000000000000000000, 0.000000000000000000, 1.000000000000000000 ) ) ;
#442 = ORIENTED_EDGE ( 'NONE', *, *, #879, .T. ) ;
#443 = DIRECTION ( 'NONE',  ( -1.000000000000000000, -0.000000000000000000, -0.000000000000000000 ) ) ;
#444 = CARTESIAN_POINT ( 'NONE',  ( 26.00000000000000355, 0.000000000000000000, 7.490000000000002878 ) ) ;
#445 = EDGE_CURVE ( 'NONE', #370, #1012, #47, .T. ) ;
#446 = DIRECTION ( 'NONE',  ( 0.000000000000000000, 0.000000000000000000, 1.000000000000000000 ) ) ;
#447 = ORIENTED_EDGE ( 'NONE', *, *, #565, .T. ) ;
#448 = PERSON_AND_ORGANIZATION ( #487, #740 ) ;
#449 = ORIENTED_EDGE ( 'NONE', *, *, #545, .F. ) ;
#450 = CARTESIAN_POINT ( 'NONE',  ( 0.000000000000000000, 0.000000000000000000, 0.000000000000000000 ) ) ;
#451 = AXIS2_PLACEMENT_3D ( 'NONE', #850, #773, #43 ) ;
#452 = CARTESIAN_POINT ( 'NONE',  ( 0.000000000000000000, 0.000000000000000000, 0.000000000000000000 ) ) ;
#453 = ADVANCED_FACE ( 'NONE', ( #534, #386 ), #63, .F. ) ;
#454 = ORIENTED_EDGE ( 'NONE', *, *, #575, .T. ) ;
#455 = PERSON_AND_ORGANIZATION_ROLE ( 'design_supplier' ) ;
#456 = ORIENTED_EDGE ( 'NONE', *, *, #575, .F. ) ;
#457 = CARTESIAN_POINT ( 'NONE',  ( 29.50000000000000000, 0.000000000000000000, -4.790000000000005365 ) ) ;
#458 = EDGE_CURVE ( 'NONE', #527, #557, #778, .T. ) ;
#459 = ADVANCED_FACE ( 'NONE', ( #368 ), #131, .T. ) ;
#460 = CARTESIAN_POINT ( 'NONE',  ( 26.00000000000000355, 9.172604525613680109E-16, -7.490000000000003766 ) ) ;
#461 = COORDINATED_UNIVERSAL_TIME_OFFSET ( 3, 30, .AHEAD. ) ;
#462 = ORIENTED_EDGE ( 'NONE', *, *, #1029, .F. ) ;
#463 = DIRECTION ( 'NONE',  ( -1.000000000000000000, -0.000000000000000000, -0.000000000000000000 ) ) ;
#464 = CIRCLE ( 'NONE', #144, 4.990000000000001101 ) ;
#465 = AXIS2_PLACEMENT_3D ( 'NONE', #939, #137, #539 ) ;
#466 = LINE ( 'NONE', #38, #630 ) ;
#467 = AXIS2_PLACEMENT_3D ( 'NONE', #745, #668, #981 ) ;
#468 = DIRECTION ( 'NONE',  ( 0.000000000000000000, 0.000000000000000000, -1.000000000000000000 ) ) ;
#469 = DATE_AND_TIME ( #870, #887 ) ;
#470 = ORIENTED_EDGE ( 'NONE', *, *, #436, .T. ) ;
#471 = DIRECTION ( 'NONE',  ( -1.000000000000000000, 0.000000000000000000, -0.000000000000000000 ) ) ;
#472 = EDGE_CURVE ( 'NONE', #1012, #762, #1000, .T. ) ;
#473 = AXIS2_PLACEMENT_3D ( 'NONE', #897, #819, #90 ) ;
#474 = CIRCLE ( 'NONE', #846, 4.990000000000003766 ) ;
#475 = CARTESIAN_POINT ( 'NONE',  ( 0.000000000000000000, 0.000000000000000000, 4.990000000000002878 ) ) ;
#476 = DATE_TIME_ROLE ( 'creation_date' ) ;
#477 = EDGE_LOOP ( 'NONE', ( #353, #340 ) ) ;
#478 = DIRECTION ( 'NONE',  ( -1.000000000000000000, -0.000000000000000000, -0.000000000000000000 ) ) ;
#479 = DIRECTION ( 'NONE',  ( 0.000000000000000000, 0.000000000000000000, 1.000000000000000000 ) ) ;
#480 = LINE ( 'NONE', #475, #271 ) ;
#481 = ORIENTED_EDGE ( 'NONE', *, *, #643, .T. ) ;
#482 = ADVANCED_FACE ( 'NONE', ( #617 ), #923, .T. ) ;
#483 = PRODUCT_DEFINITION_FORMATION_WITH_SPECIFIED_SOURCE ( 'ANY', '', #120, .NOT_KNOWN. ) ;
#484 = CARTESIAN_POINT ( 'NONE',  ( 24.00000000000000000, -1.999999999999997335, 7.228416147400479552 ) ) ;
#485 = CARTESIAN_POINT ( 'NONE',  ( 29.50000000000000000, 0.000000000000000000, 4.990000000000002878 ) ) ;
#486 = ORIENTED_EDGE ( 'NONE', *, *, #664, .T. ) ;
#487 = PERSON ( 'UNSPECIFIED', 'UNSPECIFIED', 'UNSPECIFIED', ('UNSPECIFIED'), ('UNSPECIFIED'), ('UNSPECIFIED') ) ;
#488 = DIRECTION ( 'NONE',  ( 0.000000000000000000, 0.000000000000000000, 1.000000000000000000 ) ) ;
#489 = LINE ( 'NONE', #567, #648 ) ;
#490 = ADVANCED_FACE ( 'NONE', ( #779 ), #50, .T. ) ;
#491 = CIRCLE ( 'NONE', #387, 4.790000000000000924 ) ;
#492 = ORIENTED_EDGE ( 'NONE', *, *, #890, .T. ) ;
#493 = FACE_OUTER_BOUND ( 'NONE', #425, .T. ) ;
#494 = CARTESIAN_POINT ( 'NONE',  ( 4.000000000000000000, 6.110987527745294503E-16, -4.990000000000001101 ) ) ;
#495 = ORIENTED_EDGE ( 'NONE', *, *, #393, .T. ) ;
#496 = DIRECTION ( 'NONE',  ( 1.000000000000000000, 0.000000000000000000, 0.000000000000000000 ) ) ;
#497 = CARTESIAN_POINT ( 'NONE',  ( 39.50000000000000000, 0.000000000000000000, 0.000000000000000000 ) ) ;
#498 = AXIS2_PLACEMENT_3D ( 'NONE', #982, #531, #260 ) ;
#499 = DIRECTION ( 'NONE',  ( 0.000000000000000000, -1.000000000000000000, 0.000000000000000000 ) ) ;
#500 = CIRCLE ( 'NONE', #93, 4.790000000000005365 ) ;
#501 = ORIENTED_EDGE ( 'NONE', *, *, #162, .T. ) ;
#502 = EDGE_CURVE ( 'NONE', #78, #989, #1039, .T. ) ;
#503 = DIRECTION ( 'NONE',  ( 0.000000000000000000, 0.000000000000000000, 1.000000000000000000 ) ) ;
#504 = LINE ( 'NONE', #432, #203 ) ;
#505 = ORIENTED_EDGE ( 'NONE', *, *, #780, .T. ) ;
#506 = DIRECTION ( 'NONE',  ( -0.000000000000000000, 0.000000000000000000, -1.000000000000000000 ) ) ;
#507 = DIRECTION ( 'NONE',  ( 1.000000000000000000, 0.000000000000000000, 0.000000000000000000 ) ) ;
#508 = EDGE_LOOP ( 'NONE', ( #993, #275 ) ) ;
#509 = CARTESIAN_POINT ( 'NONE',  ( 38.50000000000000000, 5.866058167915829334E-16, -4.790000000000006253 ) ) ;
#510 = DIRECTION ( 'NONE',  ( 0.000000000000000000, 0.000000000000000000, 1.000000000000000000 ) ) ;
#511 = EDGE_CURVE ( 'NONE', #1012, #681, #588, .T. ) ;
#512 = CARTESIAN_POINT ( 'NONE',  ( 0.000000000000000000, 0.000000000000000000, 0.000000000000000000 ) ) ;
#513 = AXIS2_PLACEMENT_3D ( 'NONE', #450, #949, #777 ) ;
#514 = APPROVAL ( #305, 'UNSPECIFIED' ) ;
#515 = VERTEX_POINT ( 'NONE', #151 ) ;
#516 =( LENGTH_UNIT ( ) NAMED_UNIT ( * ) SI_UNIT ( .MILLI., .METRE. ) );
#517 = VECTOR ( 'NONE', #718, 1000.000000000000000 ) ;
#518 = CARTESIAN_POINT ( 'NONE',  ( 39.50000000000000000, 5.866058167915828348E-16, -4.790000000000005365 ) ) ;
#519 = VERTEX_POINT ( 'NONE', #964 ) ;
#520 = CARTESIAN_POINT ( 'NONE',  ( 0.000000000000000000, 9.172604525613678137E-16, -7.490000000000001990 ) ) ;
#521 = CIRCLE ( 'NONE', #944, 4.990000000000001101 ) ;
#522 = AXIS2_PLACEMENT_3D ( 'NONE', #102, #674, #748 ) ;
#523 = CARTESIAN_POINT ( 'NONE',  ( 0.000000000000000000, 0.000000000000000000, 0.000000000000000000 ) ) ;
#524 = ORIENTED_EDGE ( 'NONE', *, *, #303, .T. ) ;
#525 = LINE ( 'NONE', #849, #873 ) ;
#526 = DIRECTION ( 'NONE',  ( -0.000000000000000000, 0.000000000000000000, 1.000000000000000000 ) ) ;
#527 = VERTEX_POINT ( 'NONE', #248 ) ;
#528 = APPROVAL_DATE_TIME ( #140, #514 ) ;
#529 = CC_DESIGN_APPROVAL ( #671, ( #1036 ) ) ;
#530 = ORIENTED_EDGE ( 'NONE', *, *, #282, .F. ) ;
#531 = DIRECTION ( 'NONE',  ( -1.000000000000000000, -0.000000000000000000, -0.000000000000000000 ) ) ;
#532 = AXIS2_PLACEMENT_3D ( 'NONE', #484, #636, #158 ) ;
#533 = EDGE_CURVE ( 'NONE', #989, #795, #553, .T. ) ;
#534 = FACE_OUTER_BOUND ( 'NONE', #1003, .T. ) ;
#535 = ORIENTED_EDGE ( 'NONE', *, *, #75, .T. ) ;
#536 = PERSON_AND_ORGANIZATION ( #487, #740 ) ;
#537 = EDGE_LOOP ( 'NONE', ( #442, #278 ) ) ;
#538 = CARTESIAN_POINT ( 'NONE',  ( 24.00000000000000000, 2.000000000000002665, 7.218039900139096687 ) ) ;
#539 = DIRECTION ( 'NONE',  ( 0.000000000000000000, 0.000000000000000000, 1.000000000000000000 ) ) ;
#540 = EDGE_LOOP ( 'NONE', ( #97, #316 ) ) ;
#541 = DATE_AND_TIME ( #223, #726 ) ;
#542 = ORIENTED_EDGE ( 'NONE', *, *, #207, .T. ) ;
#543 = DIRECTION ( 'NONE',  ( -1.000000000000000000, -0.000000000000000000, -0.000000000000000000 ) ) ;
#544 = CARTESIAN_POINT ( 'NONE',  ( 29.50000000000000000, 0.000000000000000000, 0.000000000000000000 ) ) ;
#545 = EDGE_CURVE ( 'NONE', #877, #604, #571, .T. ) ;
#546 = CARTESIAN_POINT ( 'NONE',  ( 39.50000000000000711, 0.000000000000000000, -4.990000000000004654 ) ) ;
#547 = CALENDAR_DATE ( 2026, 12, 7 ) ;
#548 = EDGE_CURVE ( 'NONE', #160, #655, #623, .T. ) ;
#549 = ORIENTED_EDGE ( 'NONE', *, *, #243, .F. ) ;
#550 = FACE_BOUND ( 'NONE', #721, .T. ) ;
#551 = VECTOR ( 'NONE', #1026, 1000.000000000000000 ) ;
#552 = CIRCLE ( 'NONE', #297, 4.990000000000003766 ) ;
#553 = LINE ( 'NONE', #70, #756 ) ;
#554 = DIRECTION ( 'NONE',  ( -1.000000000000000000, -0.000000000000000000, -0.000000000000000000 ) ) ;
#555 = PERSON_AND_ORGANIZATION ( #487, #740 ) ;
#556 = PRODUCT_RELATED_PRODUCT_CATEGORY ( 'detail', '', ( #120 ) ) ;
#557 = VERTEX_POINT ( 'NONE', #881 ) ;
#558 = LINE ( 'NONE', #74, #181 ) ;
#559 = CARTESIAN_POINT ( 'NONE',  ( 0.000000000000000000, 2.000000000000002665, 7.218039900139096687 ) ) ;
#560 = AXIS2_PLACEMENT_3D ( 'NONE', #417, #755, #274 ) ;
#561 = CIRCLE ( 'NONE', #2, 4.990000000000004654 ) ;
#562 = CARTESIAN_POINT ( 'NONE',  ( 4.000000000000000000, 0.000000000000000000, 4.790000000000001812 ) ) ;
#563 = EDGE_LOOP ( 'NONE', ( #549, #702, #650, #841 ) ) ;
#564 = CYLINDRICAL_SURFACE ( 'NONE', #640, 4.990000000000002878 ) ;
#565 = EDGE_CURVE ( 'NONE', #358, #795, #710, .T. ) ;
#566 = CARTESIAN_POINT ( 'NONE',  ( 14.00000000000000000, 2.000000000000002665, 7.218039900139096687 ) ) ;
#567 = CARTESIAN_POINT ( 'NONE',  ( 14.00000000000000000, 2.000000000000002665, 7.228416147400479552 ) ) ;
#568 = ORIENTED_EDGE ( 'NONE', *, *, #138, .F. ) ;
#569 = CARTESIAN_POINT ( 'NONE',  ( 30.50000000000000000, 0.000000000000000000, -4.990000000000004654 ) ) ;
#570 = CC_DESIGN_DATE_AND_TIME_ASSIGNMENT ( #383, #375, ( #1036 ) ) ;
#571 = LINE ( 'NONE', #559, #165 ) ;
#572 = AXIS2_PLACEMENT_3D ( 'NONE', #225, #242, #1033 ) ;
#573 = DIRECTION ( 'NONE',  ( -1.000000000000000000, -0.000000000000000000, -0.000000000000000000 ) ) ;
#574 = ORIENTED_EDGE ( 'NONE', *, *, #817, .T. ) ;
#575 = EDGE_CURVE ( 'NONE', #853, #692, #642, .T. ) ;
#576 = ADVANCED_FACE ( 'NONE', ( #799 ), #1034, .T. ) ;
#577 = DIRECTION ( 'NONE',  ( -1.000000000000000000, -0.000000000000000000, -0.000000000000000000 ) ) ;
#578 = AXIS2_PLACEMENT_3D ( 'NONE', #723, #400, #245 ) ;
#579 = ADVANCED_BREP_SHAPE_REPRESENTATION ( 'Link1UpperShaft_Default_sldprt', ( #99, #55 ), #603 ) ;
#580 = DIRECTION ( 'NONE',  ( 0.000000000000000000, 0.000000000000000000, 1.000000000000000000 ) ) ;
#581 = AXIS2_PLACEMENT_3D ( 'NONE', #438, #685, #760 ) ;
#582 = EDGE_LOOP ( 'NONE', ( #336, #752, #774, #825 ) ) ;
#583 = FACE_OUTER_BOUND ( 'NONE', #5, .T. ) ;
#584 = ORIENTED_EDGE ( 'NONE', *, *, #664, .F. ) ;
#585 = EDGE_CURVE ( 'NONE', #370, #146, #891, .T. ) ;
#586 = CC_DESIGN_SECURITY_CLASSIFICATION ( #1036, ( #483 ) ) ;
#587 = FACE_OUTER_BOUND ( 'NONE', #940, .T. ) ;
#588 = CIRCLE ( 'NONE', #379, 4.990000000000001101 ) ;
#589 = VERTEX_POINT ( 'NONE', #318 ) ;
#590 = CARTESIAN_POINT ( 'NONE',  ( 14.00000000000000000, 0.000000000000000000, 0.000000000000000000 ) ) ;
#591 = CARTESIAN_POINT ( 'NONE',  ( 24.00000000000000000, 2.000000000000002665, -7.218039900139096687 ) ) ;
#592 = APPLICATION_CONTEXT ( 'configuration controlled 3d designs of mechanical parts and assemblies' ) ;
#593 = ORIENTED_EDGE ( 'NONE', *, *, #433, .T. ) ;
#594 = DIRECTION ( 'NONE',  ( -1.000000000000000000, -0.000000000000000000, -0.000000000000000000 ) ) ;
#595 = CIRCLE ( 'NONE', #522, 7.490000000000001990 ) ;
#596 = EDGE_CURVE ( 'NONE', #129, #589, #313, .T. ) ;
#597 = CARTESIAN_POINT ( 'NONE',  ( 29.50000000000000000, 0.000000000000000000, 0.000000000000000000 ) ) ;
#598 = ADVANCED_FACE ( 'NONE', ( #85 ), #647, .F. ) ;
#599 = DIRECTION ( 'NONE',  ( 0.000000000000000000, 0.000000000000000000, -1.000000000000000000 ) ) ;
#600 = ORIENTED_EDGE ( 'NONE', *, *, #458, .F. ) ;
#601 = LINE ( 'NONE', #123, #656 ) ;
#602 = DIRECTION ( 'NONE',  ( -1.000000000000000000, -0.000000000000000000, -0.000000000000000000 ) ) ;
#603 =( GEOMETRIC_REPRESENTATION_CONTEXT ( 3 ) GLOBAL_UNCERTAINTY_ASSIGNED_CONTEXT ( ( #1027 ) ) GLOBAL_UNIT_ASSIGNED_CONTEXT ( ( #516, #31, #832 ) ) REPRESENTATION_CONTEXT ( 'NONE', 'WORKASPACE' ) );
#604 = VERTEX_POINT ( 'NONE', #566 ) ;
#605 = CYLINDRICAL_SURFACE ( 'NONE', #706, 4.790000000000000924 ) ;
#606 = VECTOR ( 'NONE', #293, 1000.000000000000000 ) ;
#607 = VECTOR ( 'NONE', #693, 1000.000000000000000 ) ;
#608 = CARTESIAN_POINT ( 'NONE',  ( 14.00000000000000000, 0.000000000000000000, 0.000000000000000000 ) ) ;
#609 = EDGE_LOOP ( 'NONE', ( #764, #568, #593, #205, #267, #409 ) ) ;
#610 = DIRECTION ( 'NONE',  ( 0.000000000000000000, 0.000000000000000000, -1.000000000000000000 ) ) ;
#611 = CIRCLE ( 'NONE', #134, 7.490000000000001990 ) ;
#612 = CARTESIAN_POINT ( 'NONE',  ( 0.000000000000000000, 0.000000000000000000, 4.790000000000000924 ) ) ;
#613 = ORIENTED_EDGE ( 'NONE', *, *, #262, .F. ) ;
#614 = EDGE_CURVE ( 'NONE', #638, #667, #552, .T. ) ;
#615 = ORIENTED_EDGE ( 'NONE', *, *, #768, .F. ) ;
#616 = CARTESIAN_POINT ( 'NONE',  ( 0.000000000000000000, 0.000000000000000000, 4.790000000000006253 ) ) ;
#617 = FACE_OUTER_BOUND ( 'NONE', #35, .T. ) ;
#618 = ADVANCED_FACE ( 'NONE', ( #493 ), #652, .F. ) ;
#619 = ORIENTED_EDGE ( 'NONE', *, *, #1029, .T. ) ;
#620 = MECHANICAL_CONTEXT ( 'NONE', #592, 'mechanical' ) ;
#621 = ORIENTED_EDGE ( 'NONE', *, *, #445, .T. ) ;
#622 = PLANE ( 'NONE',  #230 ) ;
#623 = CIRCLE ( 'NONE', #198, 4.990000000000002878 ) ;
#624 = CARTESIAN_POINT ( 'NONE',  ( 14.00000000000000000, -1.999999999999997335, 7.228416147400479552 ) ) ;
#625 = DIRECTION ( 'NONE',  ( 0.000000000000000000, 0.000000000000000000, 1.000000000000000000 ) ) ;
#626 = PERSON_AND_ORGANIZATION ( #487, #740 ) ;
#627 = ORIENTED_EDGE ( 'NONE', *, *, #631, .F. ) ;
#628 = DIRECTION ( 'NONE',  ( -1.000000000000000000, -0.000000000000000000, -0.000000000000000000 ) ) ;
#629 = EDGE_CURVE ( 'NONE', #107, #92, #658, .T. ) ;
#630 = VECTOR ( 'NONE', #1005, 1000.000000000000000 ) ;
#631 = EDGE_CURVE ( 'NONE', #681, #1, #790, .T. ) ;
#632 = CARTESIAN_POINT ( 'NONE',  ( 38.50000000000000000, 0.000000000000000000, -4.790000000000006253 ) ) ;
#633 = ORIENTED_EDGE ( 'NONE', *, *, #138, .T. ) ;
#634 = ORIENTED_EDGE ( 'NONE', *, *, #306, .F. ) ;
#635 = CARTESIAN_POINT ( 'NONE',  ( 26.00000000000000355, 0.000000000000000000, 0.000000000000000000 ) ) ;
#636 = DIRECTION ( 'NONE',  ( -0.000000000000000000, 1.000000000000000000, 0.000000000000000000 ) ) ;
#637 = ORIENTED_EDGE ( 'NONE', *, *, #6, .F. ) ;
#638 = VERTEX_POINT ( 'NONE', #813 ) ;
#639 = LINE ( 'NONE', #717, #551 ) ;
#640 = AXIS2_PLACEMENT_3D ( 'NONE', #945, #784, #861 ) ;
#641 = CIRCLE ( 'NONE', #498, 7.490000000000002878 ) ;
#642 = LINE ( 'NONE', #874, #987 ) ;
#643 = EDGE_CURVE ( 'NONE', #263, #350, #3, .T. ) ;
#644 = DIRECTION ( 'NONE',  ( 0.000000000000000000, 0.000000000000000000, 1.000000000000000000 ) ) ;
#645 = ORIENTED_EDGE ( 'NONE', *, *, #629, .F. ) ;
#646 = CARTESIAN_POINT ( 'NONE',  ( 3.000000000000000000, 6.110987527745293517E-16, -4.990000000000000213 ) ) ;
#647 = PLANE ( 'NONE',  #532 ) ;
#648 = VECTOR ( 'NONE', #330, 1000.000000000000000 ) ;
#649 = DIRECTION ( 'NONE',  ( -1.000000000000000000, -0.000000000000000000, -0.000000000000000000 ) ) ;
#650 = ORIENTED_EDGE ( 'NONE', *, *, #533, .T. ) ;
#651 = CC_DESIGN_PERSON_AND_ORGANIZATION_ASSIGNMENT ( #448, #934, ( #120 ) ) ;
#652 = PLANE ( 'NONE',  #79 ) ;
#653 = DIRECTION ( 'NONE',  ( 0.000000000000000000, 0.000000000000000000, 1.000000000000000000 ) ) ;
#654 = EDGE_CURVE ( 'NONE', #48, #146, #1001, .T. ) ;
#655 = VERTEX_POINT ( 'NONE', #328 ) ;
#656 = VECTOR ( 'NONE', #443, 1000.000000000000000 ) ;
#657 = LINE ( 'NONE', #973, #347 ) ;
#658 = CIRCLE ( 'NONE', #213, 4.790000000000001812 ) ;
#659 = CIRCLE ( 'NONE', #360, 4.990000000000000213 ) ;
#660 = CARTESIAN_POINT ( 'NONE',  ( 54.00000000000000000, 0.000000000000000000, 0.000000000000000000 ) ) ;
#661 = ORIENTED_EDGE ( 'NONE', *, *, #9, .F. ) ;
#662 = EDGE_CURVE ( 'NONE', #788, #149, #657, .T. ) ;
#663 = DIRECTION ( 'NONE',  ( -0.000000000000000000, -0.000000000000000000, 1.000000000000000000 ) ) ;
#664 = EDGE_CURVE ( 'NONE', #295, #519, #500, .T. ) ;
#665 = CARTESIAN_POINT ( 'NONE',  ( 39.50000000000000000, 0.000000000000000000, 0.000000000000000000 ) ) ;
#666 = AXIS2_PLACEMENT_3D ( 'NONE', #512, #352, #900 ) ;
#667 = VERTEX_POINT ( 'NONE', #179 ) ;
#668 = DIRECTION ( 'NONE',  ( -1.000000000000000000, -0.000000000000000000, -0.000000000000000000 ) ) ;
#669 = CARTESIAN_POINT ( 'NONE',  ( 4.000000000000000000, 0.000000000000000000, 0.000000000000000000 ) ) ;
#670 = DIRECTION ( 'NONE',  ( 0.000000000000000000, 0.000000000000000000, 1.000000000000000000 ) ) ;
#671 = APPROVAL ( #65, 'UNSPECIFIED' ) ;
#672 = ORIENTED_EDGE ( 'NONE', *, *, #315, .T. ) ;
#673 = DIRECTION ( 'NONE',  ( 0.000000000000000000, 0.000000000000000000, 1.000000000000000000 ) ) ;
#674 = DIRECTION ( 'NONE',  ( 1.000000000000000000, -0.000000000000000000, -0.000000000000000000 ) ) ;
#675 = AXIS2_PLACEMENT_3D ( 'NONE', #169, #402, #731 ) ;
#676 = EDGE_CURVE ( 'NONE', #374, #724, #935, .T. ) ;
#677 = ORIENTED_EDGE ( 'NONE', *, *, #75, .F. ) ;
#678 = DIRECTION ( 'NONE',  ( -1.000000000000000000, -0.000000000000000000, -0.000000000000000000 ) ) ;
#679 = FACE_BOUND ( 'NONE', #943, .T. ) ;
#680 = PLANE ( 'NONE',  #322 ) ;
#681 = VERTEX_POINT ( 'NONE', #348 ) ;
#682 = CARTESIAN_POINT ( 'NONE',  ( 54.00000000000000000, 0.000000000000000000, 4.990000000000006430 ) ) ;
#683 = CIRCLE ( 'NONE', #814, 4.790000000000005365 ) ;
#684 = ADVANCED_FACE ( 'NONE', ( #257 ), #899, .T. ) ;
#685 = DIRECTION ( 'NONE',  ( -1.000000000000000000, -0.000000000000000000, -0.000000000000000000 ) ) ;
#686 = EDGE_CURVE ( 'NONE', #735, #58, #100, .T. ) ;
#687 = EDGE_LOOP ( 'NONE', ( #60, #697, #397, #584 ) ) ;
#688 = FACE_OUTER_BOUND ( 'NONE', #166, .T. ) ;
#689 = DESIGN_CONTEXT ( 'detailed design', #161, 'design' ) ;
#690 = PLANE ( 'NONE',  #98 ) ;
#691 = CC_DESIGN_APPROVAL ( #938, ( #483 ) ) ;
#692 = VERTEX_POINT ( 'NONE', #104 ) ;
#693 = DIRECTION ( 'NONE',  ( -1.000000000000000000, -0.000000000000000000, -0.000000000000000000 ) ) ;
#694 = LINE ( 'NONE', #204, #367 ) ;
#695 = ADVANCED_FACE ( 'NONE', ( #913 ), #192, .T. ) ;
#696 = ORIENTED_EDGE ( 'NONE', *, *, #1016, .F. ) ;
#697 = ORIENTED_EDGE ( 'NONE', *, *, #282, .T. ) ;
#698 = CYLINDRICAL_SURFACE ( 'NONE', #148, 4.790000000000006253 ) ;
#699 = DIRECTION ( 'NONE',  ( -1.000000000000000000, -0.000000000000000000, -0.000000000000000000 ) ) ;
#700 = ORIENTED_EDGE ( 'NONE', *, *, #780, .F. ) ;
#701 = COORDINATED_UNIVERSAL_TIME_OFFSET ( 3, 30, .AHEAD. ) ;
#702 = ORIENTED_EDGE ( 'NONE', *, *, #502, .T. ) ;
#703 = CARTESIAN_POINT ( 'NONE',  ( 0.000000000000000000, 0.000000000000000000, 0.000000000000000000 ) ) ;
#704 = DIRECTION ( 'NONE',  ( 0.000000000000000000, 0.000000000000000000, 1.000000000000000000 ) ) ;
#705 = VERTEX_POINT ( 'NONE', #338 ) ;
#706 = AXIS2_PLACEMENT_3D ( 'NONE', #440, #346, #916 ) ;
#707 = CARTESIAN_POINT ( 'NONE',  ( 0.000000000000000000, 0.000000000000000000, 0.000000000000000000 ) ) ;
#708 = ORIENTED_EDGE ( 'NONE', *, *, #545, .T. ) ;
#709 = CARTESIAN_POINT ( 'NONE',  ( 26.00000000000000355, 0.000000000000000000, -4.990000000000003766 ) ) ;
#710 = CIRCLE ( 'NONE', #126, 4.990000000000004654 ) ;
#711 = EDGE_CURVE ( 'NONE', #92, #107, #958, .T. ) ;
#712 = VECTOR ( 'NONE', #663, 1000.000000000000000 ) ;
#713 = DIRECTION ( 'NONE',  ( -1.000000000000000000, -0.000000000000000000, -0.000000000000000000 ) ) ;
#714 = DIRECTION ( 'NONE',  ( -1.000000000000000000, -0.000000000000000000, -0.000000000000000000 ) ) ;
#715 = SHAPE_DEFINITION_REPRESENTATION ( #33, #579 ) ;
#716 = ORIENTED_EDGE ( 'NONE', *, *, #177, .F. ) ;
#717 = CARTESIAN_POINT ( 'NONE',  ( 24.00000000000000000, 2.000000000000002665, 7.228416147400479552 ) ) ;
#718 = DIRECTION ( 'NONE',  ( -1.000000000000000000, -0.000000000000000000, -0.000000000000000000 ) ) ;
#719 = CARTESIAN_POINT ( 'NONE',  ( 14.00000000000000000, 0.000000000000000000, 0.000000000000000000 ) ) ;
#720 = COORDINATED_UNIVERSAL_TIME_OFFSET ( 3, 30, .AHEAD. ) ;
#721 = EDGE_LOOP ( 'NONE', ( #118, #807 ) ) ;
#722 = FACE_OUTER_BOUND ( 'NONE', #405, .T. ) ;
#723 = CARTESIAN_POINT ( 'NONE',  ( 0.000000000000000000, 0.000000000000000000, 0.000000000000000000 ) ) ;
#724 = VERTEX_POINT ( 'NONE', #746 ) ;
#725 = FACE_BOUND ( 'NONE', #423, .T. ) ;
#726 = LOCAL_TIME ( 16, 7, 43.00000000000000000, #701 ) ;
#727 = DIRECTION ( 'NONE',  ( 0.000000000000000000, 0.000000000000000000, 1.000000000000000000 ) ) ;
#728 = DIRECTION ( 'NONE',  ( 0.000000000000000000, 0.000000000000000000, 1.000000000000000000 ) ) ;
#729 = EDGE_CURVE ( 'NONE', #735, #20, #641, .T. ) ;
#730 = ORIENTED_EDGE ( 'NONE', *, *, #817, .F. ) ;
#731 = DIRECTION ( 'NONE',  ( 0.000000000000000000, 0.000000000000000000, 1.000000000000000000 ) ) ;
#732 = ADVANCED_FACE ( 'NONE', ( #907, #679 ), #833, .F. ) ;
#733 = AXIS2_PLACEMENT_3D ( 'NONE', #258, #751, #903 ) ;
#734 = DIRECTION ( 'NONE',  ( 0.000000000000000000, 0.000000000000000000, 1.000000000000000000 ) ) ;
#735 = VERTEX_POINT ( 'NONE', #444 ) ;
#736 = DIRECTION ( 'NONE',  ( -1.000000000000000000, -0.000000000000000000, -0.000000000000000000 ) ) ;
#737 = CARTESIAN_POINT ( 'NONE',  ( 0.000000000000000000, 0.000000000000000000, 0.000000000000000000 ) ) ;
#738 = ORIENTED_EDGE ( 'NONE', *, *, #284, .F. ) ;
#739 = EDGE_CURVE ( 'NONE', #692, #149, #37, .T. ) ;
#740 = ORGANIZATION ( 'UNSPECIFIED', 'UNSPECIFIED', '' ) ;
#741 = ADVANCED_FACE ( 'NONE', ( #828 ), #41, .F. ) ;
#742 = DIRECTION ( 'NONE',  ( -1.000000000000000000, -0.000000000000000000, -0.000000000000000000 ) ) ;
#743 = CARTESIAN_POINT ( 'NONE',  ( 39.50000000000000711, 0.000000000000000000, 0.000000000000000000 ) ) ;
#744 = ORIENTED_EDGE ( 'NONE', *, *, #9, .T. ) ;
#745 = CARTESIAN_POINT ( 'NONE',  ( 54.00000000000000000, 0.000000000000000000, 0.000000000000000000 ) ) ;
#746 = CARTESIAN_POINT ( 'NONE',  ( 39.50000000000000000, 0.000000000000000000, 4.790000000000005365 ) ) ;
#747 = AXIS2_PLACEMENT_3D ( 'NONE', #660, #87, #71 ) ;
#748 = DIRECTION ( 'NONE',  ( 0.000000000000000000, 0.000000000000000000, -1.000000000000000000 ) ) ;
#749 = ORIENTED_EDGE ( 'NONE', *, *, #511, .T. ) ;
#750 = DIRECTION ( 'NONE',  ( -1.000000000000000000, -0.000000000000000000, -0.000000000000000000 ) ) ;
#751 = DIRECTION ( 'NONE',  ( -1.000000000000000000, -0.000000000000000000, -0.000000000000000000 ) ) ;
#752 = ORIENTED_EDGE ( 'NONE', *, *, #676, .T. ) ;
#753 = FACE_OUTER_BOUND ( 'NONE', #775, .T. ) ;
#754 = CARTESIAN_POINT ( 'NONE',  ( 0.000000000000000000, 0.000000000000000000, 7.490000000000001990 ) ) ;
#755 = DIRECTION ( 'NONE',  ( -1.000000000000000000, -0.000000000000000000, -0.000000000000000000 ) ) ;
#756 = VECTOR ( 'NONE', #173, 1000.000000000000000 ) ;
#757 = ORIENTED_EDGE ( 'NONE', *, *, #436, .F. ) ;
#758 = CC_DESIGN_PERSON_AND_ORGANIZATION_ASSIGNMENT ( #801, #46, ( #1036 ) ) ;
#759 = DIRECTION ( 'NONE',  ( 0.000000000000000000, 0.000000000000000000, 1.000000000000000000 ) ) ;
#760 = DIRECTION ( 'NONE',  ( 0.000000000000000000, 0.000000000000000000, 1.000000000000000000 ) ) ;
#761 = ADVANCED_FACE ( 'NONE', ( #188 ), #698, .T. ) ;
#762 = VERTEX_POINT ( 'NONE', #986 ) ;
#763 = FACE_OUTER_BOUND ( 'NONE', #948, .T. ) ;
#764 = ORIENTED_EDGE ( 'NONE', *, *, #596, .F. ) ;
#765 = DIRECTION ( 'NONE',  ( -1.000000000000000000, -0.000000000000000000, -0.000000000000000000 ) ) ;
#766 = ORIENTED_EDGE ( 'NONE', *, *, #643, .F. ) ;
#767 = DIRECTION ( 'NONE',  ( -1.000000000000000000, -0.000000000000000000, -0.000000000000000000 ) ) ;
#768 = EDGE_CURVE ( 'NONE', #857, #519, #265, .T. ) ;
#769 = DIRECTION ( 'NONE',  ( -1.000000000000000000, -0.000000000000000000, -0.000000000000000000 ) ) ;
#770 = ORIENTED_EDGE ( 'NONE', *, *, #284, .T. ) ;
#771 = DIRECTION ( 'NONE',  ( 0.000000000000000000, 0.000000000000000000, 1.000000000000000000 ) ) ;
#772 = CARTESIAN_POINT ( 'NONE',  ( 1.224646799147250347E-18, 0.000000000000000000, 0.000000000000000000 ) ) ;
#773 = DIRECTION ( 'NONE',  ( -1.000000000000000000, -0.000000000000000000, -0.000000000000000000 ) ) ;
#774 = ORIENTED_EDGE ( 'NONE', *, *, #355, .T. ) ;
#775 = EDGE_LOOP ( 'NONE', ( #15, #195, #470, #634 ) ) ;
#776 = CIRCLE ( 'NONE', #154, 4.990000000000001101 ) ;
#777 = DIRECTION ( 'NONE',  ( 0.000000000000000000, 0.000000000000000000, 1.000000000000000000 ) ) ;
#778 = CIRCLE ( 'NONE', #451, 4.990000000000004654 ) ;
#779 = FACE_OUTER_BOUND ( 'NONE', #915, .T. ) ;
#780 = EDGE_CURVE ( 'NONE', #171, #604, #854, .T. ) ;
#781 = ORIENTED_EDGE ( 'NONE', *, *, #985, .F. ) ;
#782 = COORDINATED_UNIVERSAL_TIME_OFFSET ( 3, 30, .AHEAD. ) ;
#783 = ORIENTED_EDGE ( 'NONE', *, *, #105, .F. ) ;
#784 = DIRECTION ( 'NONE',  ( -1.000000000000000000, -0.000000000000000000, -0.000000000000000000 ) ) ;
#785 = CARTESIAN_POINT ( 'NONE',  ( 14.00000000000000000, 0.000000000000000000, 0.000000000000000000 ) ) ;
#786 = ORIENTED_EDGE ( 'NONE', *, *, #18, .F. ) ;
#787 = APPROVAL_STATUS ( 'not_yet_approved' ) ;
#788 = VERTEX_POINT ( 'NONE', #977 ) ;
#789 = FACE_OUTER_BOUND ( 'NONE', #294, .T. ) ;
#790 = CIRCLE ( 'NONE', #675, 4.990000000000001101 ) ;
#791 = AXIS2_PLACEMENT_3D ( 'NONE', #457, #471, #1015 ) ;
#792 = DIRECTION ( 'NONE',  ( 0.000000000000000000, 0.000000000000000000, -1.000000000000000000 ) ) ;
#793 = ORIENTED_EDGE ( 'NONE', *, *, #421, .T. ) ;
#794 = APPLICATION_PROTOCOL_DEFINITION ( 'international standard', 'config_control_design', 1994, #592 ) ;
#795 = VERTEX_POINT ( 'NONE', #392 ) ;
#796 = DIRECTION ( 'NONE',  ( 0.000000000000000000, 0.000000000000000000, 1.000000000000000000 ) ) ;
#797 = AXIS2_PLACEMENT_3D ( 'NONE', #974, #254, #580 ) ;
#798 = AXIS2_PLACEMENT_3D ( 'NONE', #983, #266, #914 ) ;
#799 = FACE_OUTER_BOUND ( 'NONE', #113, .T. ) ;
#800 = FACE_OUTER_BOUND ( 'NONE', #240, .T. ) ;
#801 = PERSON_AND_ORGANIZATION ( #487, #740 ) ;
#802 = ORIENTED_EDGE ( 'NONE', *, *, #686, .T. ) ;
#803 = FACE_OUTER_BOUND ( 'NONE', #233, .T. ) ;
#804 = ADVANCED_FACE ( 'NONE', ( #157 ), #302, .T. ) ;
#805 = DIRECTION ( 'NONE',  ( -1.000000000000000000, -0.000000000000000000, -0.000000000000000000 ) ) ;
#806 = CARTESIAN_POINT ( 'NONE',  ( 0.000000000000000000, -1.999999999999997335, -7.218039900139097576 ) ) ;
#807 = ORIENTED_EDGE ( 'NONE', *, *, #614, .T. ) ;
#808 = APPROVAL_PERSON_ORGANIZATION ( #626, #938, #72 ) ;
#809 = AXIS2_PLACEMENT_3D ( 'NONE', #407, #736, #7 ) ;
#810 = DIRECTION ( 'NONE',  ( 0.000000000000000000, 0.000000000000000000, -1.000000000000000000 ) ) ;
#811 = DIRECTION ( 'NONE',  ( -1.000000000000000000, -0.000000000000000000, -0.000000000000000000 ) ) ;
#812 = VERTEX_POINT ( 'NONE', #136 ) ;
#813 = CARTESIAN_POINT ( 'NONE',  ( 26.00000000000000000, 6.110987527745297461E-16, -4.990000000000003766 ) ) ;
#814 = AXIS2_PLACEMENT_3D ( 'NONE', #1007, #299, #310 ) ;
#815 = PLANE ( 'NONE',  #747 ) ;
#816 = ORIENTED_EDGE ( 'NONE', *, *, #105, .T. ) ;
#817 = EDGE_CURVE ( 'NONE', #557, #812, #49, .T. ) ;
#818 = DIRECTION ( 'NONE',  ( -1.000000000000000000, -0.000000000000000000, -0.000000000000000000 ) ) ;
#819 = DIRECTION ( 'NONE',  ( -1.000000000000000000, -0.000000000000000000, -0.000000000000000000 ) ) ;
#820 = ORIENTED_EDGE ( 'NONE', *, *, #177, .T. ) ;
#821 = CIRCLE ( 'NONE', #111, 7.490000000000002878 ) ;
#822 = LOCAL_TIME ( 16, 7, 43.00000000000000000, #133 ) ;
#823 = DIRECTION ( 'NONE',  ( 0.000000000000000000, 0.000000000000000000, 1.000000000000000000 ) ) ;
#824 = CARTESIAN_POINT ( 'NONE',  ( 14.00000000000000000, 2.000000000000002665, -7.218039900139096687 ) ) ;
#825 = ORIENTED_EDGE ( 'NONE', *, *, #326, .F. ) ;
#826 = CARTESIAN_POINT ( 'NONE',  ( 14.00000000000000000, 9.172604525613678137E-16, -7.490000000000001990 ) ) ;
#827 = ADVANCED_FACE ( 'NONE', ( #872 ), #564, .T. ) ;
#828 = FACE_OUTER_BOUND ( 'NONE', #176, .T. ) ;
#829 = DIRECTION ( 'NONE',  ( -1.000000000000000000, -0.000000000000000000, -0.000000000000000000 ) ) ;
#830 = CIRCLE ( 'NONE', #798, 4.790000000000006253 ) ;
#831 = ORIENTED_EDGE ( 'NONE', *, *, #62, .T. ) ;
#832 =( NAMED_UNIT ( * ) SI_UNIT ( $, .STERADIAN. ) SOLID_ANGLE_UNIT ( ) );
#833 = PLANE ( 'NONE',  #972 ) ;
#834 = ADVANCED_FACE ( 'NONE', ( #803 ), #317, .T. ) ;
#835 = LINE ( 'NONE', #106, #256 ) ;
#836 = ORIENTED_EDGE ( 'NONE', *, *, #995, .T. ) ;
#837 = FACE_OUTER_BOUND ( 'NONE', #32, .T. ) ;
#838 = DIRECTION ( 'NONE',  ( -1.000000000000000000, 0.000000000000000000, -0.000000000000000000 ) ) ;
#839 = PLANE ( 'NONE',  #287 ) ;
#840 = AXIS2_PLACEMENT_3D ( 'NONE', #523, #699, #226 ) ;
#841 = ORIENTED_EDGE ( 'NONE', *, *, #565, .F. ) ;
#842 = CARTESIAN_POINT ( 'NONE',  ( 26.00000000000000000, 0.000000000000000000, 0.000000000000000000 ) ) ;
#843 = ADVANCED_FACE ( 'NONE', ( #878 ), #229, .T. ) ;
#844 = VERTEX_POINT ( 'NONE', #866 ) ;
#845 = LINE ( 'NONE', #520, #607 ) ;
#846 = AXIS2_PLACEMENT_3D ( 'NONE', #842, #34, #446 ) ;
#847 = ADVANCED_FACE ( 'NONE', ( #722, #378 ), #372, .F. ) ;
#848 = ORIENTED_EDGE ( 'NONE', *, *, #355, .F. ) ;
#849 = CARTESIAN_POINT ( 'NONE',  ( 0.000000000000000000, 5.866058167915829334E-16, -4.790000000000006253 ) ) ;
#850 = CARTESIAN_POINT ( 'NONE',  ( 38.50000000000000000, 0.000000000000000000, 0.000000000000000000 ) ) ;
#851 = ORIENTED_EDGE ( 'NONE', *, *, #729, .F. ) ;
#852 = DATE_AND_TIME ( #390, #822 ) ;
#853 = VERTEX_POINT ( 'NONE', #646 ) ;
#854 = LINE ( 'NONE', #334, #712 ) ;
#855 = ADVANCED_FACE ( 'NONE', ( #789, #550 ), #622, .F. ) ;
#856 = DIRECTION ( 'NONE',  ( -1.000000000000000000, 0.000000000000000000, -0.000000000000000000 ) ) ;
#857 = VERTEX_POINT ( 'NONE', #962 ) ;
#858 = PERSON_AND_ORGANIZATION_ROLE ( 'creator' ) ;
#859 = ORIENTED_EDGE ( 'NONE', *, *, #472, .F. ) ;
#860 = VECTOR ( 'NONE', #649, 1000.000000000000000 ) ;
#861 = DIRECTION ( 'NONE',  ( 0.000000000000000000, 0.000000000000000000, 1.000000000000000000 ) ) ;
#862 = CARTESIAN_POINT ( 'NONE',  ( 14.00000000000000000, 0.000000000000000000, 0.000000000000000000 ) ) ;
#863 = ADVANCED_FACE ( 'NONE', ( #937 ), #957, .T. ) ;
#864 = ORIENTED_EDGE ( 'NONE', *, *, #403, .F. ) ;
#865 = EDGE_LOOP ( 'NONE', ( #744, #486 ) ) ;
#866 = CARTESIAN_POINT ( 'NONE',  ( 30.50000000000000000, 5.866058167915829334E-16, -4.790000000000006253 ) ) ;
#867 = DIRECTION ( 'NONE',  ( -1.000000000000000000, -0.000000000000000000, -0.000000000000000000 ) ) ;
#868 = DIRECTION ( 'NONE',  ( 1.000000000000000000, 0.000000000000000000, 0.000000000000000000 ) ) ;
#869 = LOCAL_TIME ( 16, 7, 43.00000000000000000, #720 ) ;
#870 = CALENDAR_DATE ( 2026, 12, 7 ) ;
#871 = EDGE_LOOP ( 'NONE', ( #83, #645 ) ) ;
#872 = FACE_OUTER_BOUND ( 'NONE', #155, .T. ) ;
#873 = VECTOR ( 'NONE', #351, 1000.000000000000000 ) ;
#874 = CARTESIAN_POINT ( 'NONE',  ( 0.000000000000000000, 6.110987527745293517E-16, -4.990000000000000213 ) ) ;
#875 = CARTESIAN_POINT ( 'NONE',  ( 0.000000000000000000, 0.000000000000000000, 0.000000000000000000 ) ) ;
#876 = DIRECTION ( 'NONE',  ( 1.000000000000000000, 0.000000000000000000, 0.000000000000000000 ) ) ;
#877 = VERTEX_POINT ( 'NONE', #538 ) ;
#878 = FACE_OUTER_BOUND ( 'NONE', #563, .T. ) ;
#879 = EDGE_CURVE ( 'NONE', #812, #705, #921, .T. ) ;
#880 = VECTOR ( 'NONE', #357, 1000.000000000000000 ) ;
#881 = CARTESIAN_POINT ( 'NONE',  ( 38.50000000000000000, 0.000000000000000000, 4.990000000000004654 ) ) ;
#882 = DIRECTION ( 'NONE',  ( -1.000000000000000000, -0.000000000000000000, -0.000000000000000000 ) ) ;
#883 = VERTEX_POINT ( 'NONE', #143 ) ;
#884 = DIRECTION ( 'NONE',  ( -1.000000000000000000, -0.000000000000000000, -0.000000000000000000 ) ) ;
#885 = DIRECTION ( 'NONE',  ( -1.000000000000000000, -0.000000000000000000, -0.000000000000000000 ) ) ;
#886 = ORIENTED_EDGE ( 'NONE', *, *, #892, .F. ) ;
#887 = LOCAL_TIME ( 16, 7, 43.00000000000000000, #461 ) ;
#888 = VECTOR ( 'NONE', #416, 1000.000000000000000 ) ;
#889 = AXIS2_PLACEMENT_3D ( 'NONE', #569, #496, #414 ) ;
#890 = EDGE_CURVE ( 'NONE', #149, #692, #659, .T. ) ;
#891 = LINE ( 'NONE', #244, #517 ) ;
#892 = EDGE_CURVE ( 'NONE', #350, #877, #639, .T. ) ;
#893 = FACE_OUTER_BOUND ( 'NONE', #477, .T. ) ;
#894 = ORIENTED_EDGE ( 'NONE', *, *, #246, .F. ) ;
#895 = AXIS2_PLACEMENT_3D ( 'NONE', #238, #8, #653 ) ;
#896 = CARTESIAN_POINT ( 'NONE',  ( 4.000000000000000000, 0.000000000000000000, 0.000000000000000000 ) ) ;
#897 = CARTESIAN_POINT ( 'NONE',  ( 14.00000000000000000, 0.000000000000000000, 0.000000000000000000 ) ) ;
#898 = ORIENTED_EDGE ( 'NONE', *, *, #306, .T. ) ;
#899 = CYLINDRICAL_SURFACE ( 'NONE', #430, 4.990000000000001101 ) ;
#900 = DIRECTION ( 'NONE',  ( 0.000000000000000000, 0.000000000000000000, 1.000000000000000000 ) ) ;
#901 = EDGE_LOOP ( 'NONE', ( #291, #613 ) ) ;
#902 = CARTESIAN_POINT ( 'NONE',  ( 3.000000000000000000, 0.000000000000000000, -4.790000000000000924 ) ) ;
#903 = DIRECTION ( 'NONE',  ( 0.000000000000000000, 0.000000000000000000, 1.000000000000000000 ) ) ;
#904 = ORIENTED_EDGE ( 'NONE', *, *, #1028, .T. ) ;
#905 = CARTESIAN_POINT ( 'NONE',  ( 24.00000000000000000, 0.000000000000000000, 0.000000000000000000 ) ) ;
#906 = EDGE_CURVE ( 'NONE', #20, #735, #821, .T. ) ;
#907 = FACE_OUTER_BOUND ( 'NONE', #540, .T. ) ;
#908 = CARTESIAN_POINT ( 'NONE',  ( 38.50000000000000000, 0.000000000000000000, 0.000000000000000000 ) ) ;
#909 = CIRCLE ( 'NONE', #388, 4.990000000000002878 ) ;
#910 = ORIENTED_EDGE ( 'NONE', *, *, #218, .F. ) ;
#911 = CARTESIAN_POINT ( 'NONE',  ( 0.000000000000000000, 0.000000000000000000, 0.000000000000000000 ) ) ;
#912 = EDGE_CURVE ( 'NONE', #263, #515, #558, .T. ) ;
#913 = FACE_OUTER_BOUND ( 'NONE', #122, .T. ) ;
#914 = DIRECTION ( 'NONE',  ( 0.000000000000000000, 0.000000000000000000, 1.000000000000000000 ) ) ;
#915 = EDGE_LOOP ( 'NONE', ( #325, #53, #290, #481, #30, #708, #783, #377 ) ) ;
#916 = DIRECTION ( 'NONE',  ( 0.000000000000000000, 0.000000000000000000, 1.000000000000000000 ) ) ;
#917 = AXIS2_PLACEMENT_3D ( 'NONE', #201, #767, #994 ) ;
#918 = ADVANCED_FACE ( 'NONE', ( #725, #1038 ), #178, .F. ) ;
#919 = DIRECTION ( 'NONE',  ( 0.000000000000000000, 0.000000000000000000, 1.000000000000000000 ) ) ;
#920 = EDGE_CURVE ( 'NONE', #989, #78, #999, .T. ) ;
#921 = CIRCLE ( 'NONE', #572, 4.990000000000004654 ) ;
#922 = ORIENTED_EDGE ( 'NONE', *, *, #406, .T. ) ;
#923 = CYLINDRICAL_SURFACE ( 'NONE', #331, 7.490000000000001990 ) ;
#924 = CIRCLE ( 'NONE', #473, 7.490000000000001990 ) ;
#925 = VERTEX_POINT ( 'NONE', #826 ) ;
#926 = CARTESIAN_POINT ( 'NONE',  ( 24.00000000000000000, 0.000000000000000000, 0.000000000000000000 ) ) ;
#927 = AXIS2_PLACEMENT_3D ( 'NONE', #608, #928, #208 ) ;
#928 = DIRECTION ( 'NONE',  ( -1.000000000000000000, -0.000000000000000000, -0.000000000000000000 ) ) ;
#929 = ORIENTED_EDGE ( 'NONE', *, *, #511, .F. ) ;
#930 = ORIENTED_EDGE ( 'NONE', *, *, #676, .F. ) ;
#931 = DIRECTION ( 'NONE',  ( -1.000000000000000000, -0.000000000000000000, -0.000000000000000000 ) ) ;
#932 = DIRECTION ( 'NONE',  ( -1.000000000000000000, -0.000000000000000000, -0.000000000000000000 ) ) ;
#933 = ORIENTED_EDGE ( 'NONE', *, *, #174, .T. ) ;
#934 = PERSON_AND_ORGANIZATION_ROLE ( 'design_owner' ) ;
#935 = CIRCLE ( 'NONE', #232, 4.790000000000005365 ) ;
#936 = ORIENTED_EDGE ( 'NONE', *, *, #403, .T. ) ;
#937 = FACE_OUTER_BOUND ( 'NONE', #582, .T. ) ;
#938 = APPROVAL ( #787, 'UNSPECIFIED' ) ;
#939 = CARTESIAN_POINT ( 'NONE',  ( 54.00000000000000000, 0.000000000000000000, 0.000000000000000000 ) ) ;
#940 = EDGE_LOOP ( 'NONE', ( #696, #439, #542, #936, #859, #11 ) ) ;
#941 = DIRECTION ( 'NONE',  ( 0.000000000000000000, 0.000000000000000000, 1.000000000000000000 ) ) ;
#942 = ADVANCED_FACE ( 'NONE', ( #354, #286 ), #36, .F. ) ;
#943 = EDGE_LOOP ( 'NONE', ( #235, #898 ) ) ;
#944 = AXIS2_PLACEMENT_3D ( 'NONE', #719, #64, #1031 ) ;
#945 = CARTESIAN_POINT ( 'NONE',  ( 0.000000000000000000, 0.000000000000000000, 0.000000000000000000 ) ) ;
#946 = CARTESIAN_POINT ( 'NONE',  ( 14.00000000000000000, -1.999999999999997335, 7.218039900139097576 ) ) ;
#947 = CARTESIAN_POINT ( 'NONE',  ( 14.00000000000000000, 0.000000000000000000, 0.000000000000000000 ) ) ;
#948 = EDGE_LOOP ( 'NONE', ( #975, #672, #786, #757 ) ) ;
#949 = DIRECTION ( 'NONE',  ( -1.000000000000000000, -0.000000000000000000, -0.000000000000000000 ) ) ;
#950 = CARTESIAN_POINT ( 'NONE',  ( 6.123233995736251736E-19, 0.000000000000000000, -4.990000000000000213 ) ) ;
#951 = ADVANCED_FACE ( 'NONE', ( #753 ), #276, .T. ) ;
#952 = ORIENTED_EDGE ( 'NONE', *, *, #1016, .T. ) ;
#953 = CC_DESIGN_APPROVAL ( #514, ( #270 ) ) ;
#954 = APPROVAL_DATE_TIME ( #469, #938 ) ;
#955 = EDGE_CURVE ( 'NONE', #146, #48, #10, .T. ) ;
#956 = EDGE_LOOP ( 'NONE', ( #952, #307, #216, #738, #1014, #966 ) ) ;
#957 = CYLINDRICAL_SURFACE ( 'NONE', #381, 4.790000000000006253 ) ;
#958 = CIRCLE ( 'NONE', #39, 4.790000000000001812 ) ;
#959 = CARTESIAN_POINT ( 'NONE',  ( 24.00000000000000000, -1.999999999999997335, 7.228416147400479552 ) ) ;
#960 = DIRECTION ( 'NONE',  ( 0.000000000000000000, 0.000000000000000000, 1.000000000000000000 ) ) ;
#961 = EDGE_LOOP ( 'NONE', ( #26, #454, #971, #391 ) ) ;
#962 = CARTESIAN_POINT ( 'NONE',  ( 30.50000000000000000, 0.000000000000000000, 4.790000000000006253 ) ) ;
#963 = VECTOR ( 'NONE', #867, 1000.000000000000000 ) ;
#964 = CARTESIAN_POINT ( 'NONE',  ( 29.50000000000000000, 0.000000000000000000, 4.790000000000005365 ) ) ;
#965 = CARTESIAN_POINT ( 'NONE',  ( 1.224646799147250347E-18, 0.000000000000000000, 4.990000000000000213 ) ) ;
#966 = ORIENTED_EDGE ( 'NONE', *, *, #44, .T. ) ;
#967 = ADVANCED_FACE ( 'NONE', ( #688 ), #27, .T. ) ;
#968 = DIRECTION ( 'NONE',  ( 1.000000000000000000, 0.000000000000000000, 0.000000000000000000 ) ) ;
#969 = LINE ( 'NONE', #175, #991 ) ;
#970 = AXIS2_PLACEMENT_3D ( 'NONE', #429, #108, #279 ) ;
#971 = ORIENTED_EDGE ( 'NONE', *, *, #890, .F. ) ;
#972 = AXIS2_PLACEMENT_3D ( 'NONE', #902, #838, #110 ) ;
#973 = CARTESIAN_POINT ( 'NONE',  ( 0.000000000000000000, 0.000000000000000000, 4.990000000000000213 ) ) ;
#974 = CARTESIAN_POINT ( 'NONE',  ( 3.000000000000000000, 0.000000000000000000, 0.000000000000000000 ) ) ;
#975 = ORIENTED_EDGE ( 'NONE', *, *, #711, .T. ) ;
#976 = CIRCLE ( 'NONE', #895, 7.490000000000001990 ) ;
#977 = CARTESIAN_POINT ( 'NONE',  ( 3.000000000000000000, 0.000000000000000000, 4.990000000000000213 ) ) ;
#978 = AXIS2_PLACEMENT_3D ( 'NONE', #125, #283, #289 ) ;
#979 = CARTESIAN_POINT ( 'NONE',  ( 24.00000000000000000, -1.999999999999997335, 7.218039900139097576 ) ) ;
#980 = VERTEX_POINT ( 'NONE', #509 ) ;
#981 = DIRECTION ( 'NONE',  ( 0.000000000000000000, 0.000000000000000000, 1.000000000000000000 ) ) ;
#982 = CARTESIAN_POINT ( 'NONE',  ( 26.00000000000000355, 0.000000000000000000, 0.000000000000000000 ) ) ;
#983 = CARTESIAN_POINT ( 'NONE',  ( 38.50000000000000000, 0.000000000000000000, 0.000000000000000000 ) ) ;
#984 = ORIENTED_EDGE ( 'NONE', *, *, #426, .F. ) ;
#985 = EDGE_CURVE ( 'NONE', #20, #925, #845, .T. ) ;
#986 = CARTESIAN_POINT ( 'NONE',  ( 14.00000000000000000, -1.999999999999997335, -7.218039900139096687 ) ) ;
#987 = VECTOR ( 'NONE', #818, 1000.000000000000000 ) ;
#988 = DIRECTION ( 'NONE',  ( 0.000000000000000000, 0.000000000000000000, -1.000000000000000000 ) ) ;
#989 = VERTEX_POINT ( 'NONE', #682 ) ;
#990 = CARTESIAN_POINT ( 'NONE',  ( 14.00000000000000000, -1.999999999999997335, -4.571662717217885863 ) ) ;
#991 = VECTOR ( 'NONE', #811, 1000.000000000000000 ) ;
#992 = DIRECTION ( 'NONE',  ( 0.000000000000000000, 0.000000000000000000, 1.000000000000000000 ) ) ;
#993 = ORIENTED_EDGE ( 'NONE', *, *, #654, .T. ) ;
#994 = DIRECTION ( 'NONE',  ( 0.000000000000000000, 0.000000000000000000, 1.000000000000000000 ) ) ;
#995 = EDGE_CURVE ( 'NONE', #589, #129, #431, .T. ) ;
#996 = ADVANCED_FACE ( 'NONE', ( #837 ), #114, .T. ) ;
#997 = DIRECTION ( 'NONE',  ( -1.000000000000000000, -0.000000000000000000, -0.000000000000000000 ) ) ;
#998 = ORIENTED_EDGE ( 'NONE', *, *, #548, .F. ) ;
#999 = CIRCLE ( 'NONE', #467, 4.990000000000006430 ) ;
#1000 = LINE ( 'NONE', #1011, #606 ) ;
#1001 = CIRCLE ( 'NONE', #809, 4.990000000000001101 ) ;
#1002 = AXIS2_PLACEMENT_3D ( 'NONE', #365, #21, #341 ) ;
#1003 = EDGE_LOOP ( 'NONE', ( #135, #600 ) ) ;
#1004 = PLANE ( 'NONE',  #168 ) ;
#1005 = DIRECTION ( 'NONE',  ( -1.000000000000000000, -0.000000000000000000, -0.000000000000000000 ) ) ;
#1006 = ADVANCED_FACE ( 'NONE', ( #763 ), #605, .T. ) ;
#1007 = CARTESIAN_POINT ( 'NONE',  ( 29.50000000000000000, 0.000000000000000000, 0.000000000000000000 ) ) ;
#1008 = DIRECTION ( 'NONE',  ( -0.000000000000000000, 0.000000000000000000, -1.000000000000000000 ) ) ;
#1009 = ORIENTED_EDGE ( 'NONE', *, *, #421, .F. ) ;
#1010 = CARTESIAN_POINT ( 'NONE',  ( 0.000000000000000000, 0.000000000000000000, 0.000000000000000000 ) ) ;
#1011 = CARTESIAN_POINT ( 'NONE',  ( 14.00000000000000000, -1.999999999999997335, 7.228416147400479552 ) ) ;
#1012 = VERTEX_POINT ( 'NONE', #990 ) ;
#1013 = ADVANCED_FACE ( 'NONE', ( #364 ), #1004, .F. ) ;
#1014 = ORIENTED_EDGE ( 'NONE', *, *, #6, .T. ) ;
#1015 = DIRECTION ( 'NONE',  ( -0.000000000000000000, 0.000000000000000000, 1.000000000000000000 ) ) ;
#1016 = EDGE_CURVE ( 'NONE', #515, #370, #464, .T. ) ;
#1017 = CARTESIAN_POINT ( 'NONE',  ( 14.00000000000000000, 0.000000000000000000, 4.990000000000001101 ) ) ;
#1018 = PERSON_AND_ORGANIZATION ( #487, #740 ) ;
#1019 = AXIS2_PLACEMENT_3D ( 'NONE', #308, #478, #54 ) ;
#1020 = EDGE_LOOP ( 'NONE', ( #250, #621, #749, #103, #770, #401 ) ) ;
#1021 = CARTESIAN_POINT ( 'NONE',  ( 0.000000000000000000, 0.000000000000000000, 0.000000000000000000 ) ) ;
#1022 = DIRECTION ( 'NONE',  ( 0.000000000000000000, 0.000000000000000000, 1.000000000000000000 ) ) ;
#1023 = FACE_BOUND ( 'NONE', #224, .T. ) ;
#1024 = CIRCLE ( 'NONE', #115, 4.990000000000004654 ) ;
#1025 = ORIENTED_EDGE ( 'NONE', *, *, #995, .F. ) ;
#1026 = DIRECTION ( 'NONE',  ( -0.000000000000000000, -0.000000000000000000, 1.000000000000000000 ) ) ;
#1027 = UNCERTAINTY_MEASURE_WITH_UNIT (LENGTH_MEASURE( 1.000000000000000082E-05 ), #516, 'distance_accuracy_value', 'NONE');
#1028 = EDGE_CURVE ( 'NONE', #844, #295, #525, .T. ) ;
#1029 = EDGE_CURVE ( 'NONE', #527, #705, #601, .T. ) ;
#1030 = DIRECTION ( 'NONE',  ( 1.000000000000000000, 0.000000000000000000, 0.000000000000000000 ) ) ;
#1031 = DIRECTION ( 'NONE',  ( 0.000000000000000000, 0.000000000000000000, 1.000000000000000000 ) ) ;
#1032 = ORIENTED_EDGE ( 'NONE', *, *, #906, .T. ) ;
#1033 = DIRECTION ( 'NONE',  ( 0.000000000000000000, 0.000000000000000000, 1.000000000000000000 ) ) ;
#1034 = CYLINDRICAL_SURFACE ( 'NONE', #264, 4.990000000000005542 ) ;
#1035 = FACE_OUTER_BOUND ( 'NONE', #321, .T. ) ;
#1036 = SECURITY_CLASSIFICATION ( '', '', #128 ) ;
#1037 = ORIENTED_EDGE ( 'NONE', *, *, #596, .T. ) ;
#1038 = FACE_OUTER_BOUND ( 'NONE', #537, .T. ) ;
#1039 = CIRCLE ( 'NONE', #465, 4.990000000000006430 ) ;
#1040 = CARTESIAN_POINT ( 'NONE',  ( 39.50000000000000711, 0.000000000000000000, 0.000000000000000000 ) ) ;
#1041 = CYLINDRICAL_SURFACE ( 'NONE', #366, 4.990000000000001101 ) ;
ENDSEC;
END-ISO-10303-21;
