ISO-10303-21;
HEADER;
FILE_DESCRIPTION (( 'STEP AP203' ),
    '1' );
FILE_NAME ('Link2FrontShaft_Default_sldprt.STEP',
    '2026-07-12T12:37:48',
    ( '' ),
    ( '' ),
    'SwSTEP 2.0',
    'SolidWorks 2025',
    '' );
FILE_SCHEMA (( 'CONFIG_CONTROL_DESIGN' ));
ENDSEC;

DATA;
#1 = EDGE_LOOP ( 'NONE', ( #131, #43 ) ) ;
#2 = VERTEX_POINT ( 'NONE', #634 ) ;
#3 = DIRECTION ( 'NONE',  ( 1.000000000000000000, 0.000000000000000000, 0.000000000000000000 ) ) ;
#4 = CARTESIAN_POINT ( 'NONE',  ( 14.00000000000000000, 2.000000000000002665, 4.571662717217883198 ) ) ;
#5 = DIRECTION ( 'NONE',  ( 0.000000000000000000, 0.000000000000000000, -1.000000000000000000 ) ) ;
#6 = VERTEX_POINT ( 'NONE', #950 ) ;
#7 = CIRCLE ( 'NONE', #243, 4.790000000000006253 ) ;
#8 = CARTESIAN_POINT ( 'NONE',  ( 14.00000000000000000, 0.000000000000000000, 0.000000000000000000 ) ) ;
#9 = CIRCLE ( 'NONE', #213, 4.990000000000001101 ) ;
#10 = CIRCLE ( 'NONE', #598, 4.990000000000001101 ) ;
#11 = EDGE_CURVE ( 'NONE', #869, #927, #942, .T. ) ;
#12 = CARTESIAN_POINT ( 'NONE',  ( 38.50000000000000000, 0.000000000000000000, 0.000000000000000000 ) ) ;
#13 = ORIENTED_EDGE ( 'NONE', *, *, #105, .F. ) ;
#14 = DIRECTION ( 'NONE',  ( 0.000000000000000000, 0.000000000000000000, 1.000000000000000000 ) ) ;
#15 = DIRECTION ( 'NONE',  ( -1.000000000000000000, -0.000000000000000000, -0.000000000000000000 ) ) ;
#16 = CARTESIAN_POINT ( 'NONE',  ( 24.00000000000000000, 0.000000000000000000, 0.000000000000000000 ) ) ;
#17 = ORIENTED_EDGE ( 'NONE', *, *, #945, .T. ) ;
#18 = FACE_OUTER_BOUND ( 'NONE', #184, .T. ) ;
#19 = DIRECTION ( 'NONE',  ( -1.000000000000000000, -0.000000000000000000, -0.000000000000000000 ) ) ;
#20 = DIRECTION ( 'NONE',  ( 0.000000000000000000, 0.000000000000000000, -1.000000000000000000 ) ) ;
#21 = ORIENTED_EDGE ( 'NONE', *, *, #676, .T. ) ;
#22 = COORDINATED_UNIVERSAL_TIME_OFFSET ( 3, 30, .AHEAD. ) ;
#23 = CARTESIAN_POINT ( 'NONE',  ( 14.00000000000000000, -1.999999999999997335, 7.228416147400479552 ) ) ;
#24 = CIRCLE ( 'NONE', #278, 4.990000000000004654 ) ;
#25 = FACE_OUTER_BOUND ( 'NONE', #623, .T. ) ;
#26 = VECTOR ( 'NONE', #290, 1000.000000000000000 ) ;
#27 = ORIENTED_EDGE ( 'NONE', *, *, #925, .F. ) ;
#28 = APPLICATION_PROTOCOL_DEFINITION ( 'international standard', 'config_control_design', 1994, #166 ) ;
#29 = LINE ( 'NONE', #108, #546 ) ;
#30 = EDGE_CURVE ( 'NONE', #615, #890, #1017, .T. ) ;
#31 = CARTESIAN_POINT ( 'NONE',  ( 0.000000000000000000, -1.999999999999997335, -7.218039900139097576 ) ) ;
#32 = ORIENTED_EDGE ( 'NONE', *, *, #892, .T. ) ;
#33 = PERSON_AND_ORGANIZATION_ROLE ( 'design_owner' ) ;
#34 = FACE_OUTER_BOUND ( 'NONE', #479, .T. ) ;
#35 = EDGE_CURVE ( 'NONE', #653, #471, #864, .T. ) ;
#36 = DIRECTION ( 'NONE',  ( -0.000000000000000000, 0.000000000000000000, 1.000000000000000000 ) ) ;
#37 = EDGE_LOOP ( 'NONE', ( #973, #688 ) ) ;
#38 = PERSON_AND_ORGANIZATION ( #315, #260 ) ;
#39 = PLANE ( 'NONE',  #693 ) ;
#40 = LINE ( 'NONE', #31, #931 ) ;
#41 = AXIS2_PLACEMENT_3D ( 'NONE', #667, #265, #122 ) ;
#42 = ADVANCED_FACE ( 'NONE', ( #1030, #880 ), #232, .F. ) ;
#43 = ORIENTED_EDGE ( 'NONE', *, *, #524, .T. ) ;
#44 = CIRCLE ( 'NONE', #1035, 4.790000000000005365 ) ;
#45 = COORDINATED_UNIVERSAL_TIME_OFFSET ( 3, 30, .AHEAD. ) ;
#46 = CARTESIAN_POINT ( 'NONE',  ( 39.50000000000000000, 5.866058167915828348E-16, -4.790000000000005365 ) ) ;
#47 = LINE ( 'NONE', #682, #480 ) ;
#48 = ORIENTED_EDGE ( 'NONE', *, *, #283, .F. ) ;
#49 = LINE ( 'NONE', #988, #826 ) ;
#50 = PLANE ( 'NONE',  #911 ) ;
#51 = EDGE_LOOP ( 'NONE', ( #919, #875, #68, #702 ) ) ;
#52 = EDGE_CURVE ( 'NONE', #321, #728, #193, .T. ) ;
#53 = DIRECTION ( 'NONE',  ( -1.000000000000000000, -0.000000000000000000, -0.000000000000000000 ) ) ;
#54 = FACE_OUTER_BOUND ( 'NONE', #961, .T. ) ;
#55 = CIRCLE ( 'NONE', #724, 4.790000000000000924 ) ;
#56 = ORIENTED_EDGE ( 'NONE', *, *, #684, .T. ) ;
#57 = AXIS2_PLACEMENT_3D ( 'NONE', #953, #853, #223 ) ;
#58 = AXIS2_PLACEMENT_3D ( 'NONE', #437, #599, #776 ) ;
#59 = CARTESIAN_POINT ( 'NONE',  ( 4.000000000000000000, 0.000000000000000000, 0.000000000000000000 ) ) ;
#60 = CC_DESIGN_PERSON_AND_ORGANIZATION_ASSIGNMENT ( #100, #33, ( #951 ) ) ;
#61 = LINE ( 'NONE', #1025, #112 ) ;
#62 = ORIENTED_EDGE ( 'NONE', *, *, #455, .F. ) ;
#63 = ORIENTED_EDGE ( 'NONE', *, *, #132, .T. ) ;
#64 = DIRECTION ( 'NONE',  ( -1.000000000000000000, -0.000000000000000000, -0.000000000000000000 ) ) ;
#65 = ADVANCED_FACE ( 'NONE', ( #82 ), #256, .T. ) ;
#66 = DIRECTION ( 'NONE',  ( 1.000000000000000000, 0.000000000000000000, 0.000000000000000000 ) ) ;
#67 = ORIENTED_EDGE ( 'NONE', *, *, #849, .T. ) ;
#68 = ORIENTED_EDGE ( 'NONE', *, *, #125, .T. ) ;
#69 = DIRECTION ( 'NONE',  ( 0.000000000000000000, 0.000000000000000000, 1.000000000000000000 ) ) ;
#70 = DIRECTION ( 'NONE',  ( -1.000000000000000000, -0.000000000000000000, -0.000000000000000000 ) ) ;
#71 = VERTEX_POINT ( 'NONE', #407 ) ;
#72 = EDGE_CURVE ( 'NONE', #318, #1031, #44, .T. ) ;
#73 = ORIENTED_EDGE ( 'NONE', *, *, #261, .T. ) ;
#74 = AXIS2_PLACEMENT_3D ( 'NONE', #482, #655, #970 ) ;
#75 = VECTOR ( 'NONE', #116, 1000.000000000000000 ) ;
#76 =( NAMED_UNIT ( * ) PLANE_ANGLE_UNIT ( ) SI_UNIT ( $, .RADIAN. ) );
#77 = DIRECTION ( 'NONE',  ( -1.000000000000000000, -0.000000000000000000, -0.000000000000000000 ) ) ;
#78 = ORIENTED_EDGE ( 'NONE', *, *, #160, .T. ) ;
#79 = VERTEX_POINT ( 'NONE', #417 ) ;
#80 = CARTESIAN_POINT ( 'NONE',  ( 3.000000000000000000, 0.000000000000000000, 4.990000000000000213 ) ) ;
#81 = DIRECTION ( 'NONE',  ( -0.000000000000000000, 0.000000000000000000, -1.000000000000000000 ) ) ;
#82 = FACE_OUTER_BOUND ( 'NONE', #648, .T. ) ;
#83 = ORIENTED_EDGE ( 'NONE', *, *, #959, .T. ) ;
#84 = EDGE_CURVE ( 'NONE', #691, #2, #562, .T. ) ;
#85 = CARTESIAN_POINT ( 'NONE',  ( 0.000000000000000000, 0.000000000000000000, 0.000000000000000000 ) ) ;
#86 = EDGE_CURVE ( 'NONE', #388, #253, #175, .T. ) ;
#87 = PLANE ( 'NONE',  #775 ) ;
#88 = DIRECTION ( 'NONE',  ( 0.000000000000000000, 0.000000000000000000, 1.000000000000000000 ) ) ;
#89 = EDGE_LOOP ( 'NONE', ( #391, #907 ) ) ;
#90 = CARTESIAN_POINT ( 'NONE',  ( 29.50000000000000000, 5.866058167915828348E-16, -4.790000000000005365 ) ) ;
#91 = AXIS2_PLACEMENT_3D ( 'NONE', #876, #172, #558 ) ;
#92 = DIRECTION ( 'NONE',  ( 0.000000000000000000, 0.000000000000000000, 1.000000000000000000 ) ) ;
#93 = CLOSED_SHELL ( 'NONE', ( #738, #374, #766, #568, #836, #429, #706, #882, #136, #333, #148, #847, #104, #1022, #273, #219, #130, #938, #448, #198, #1040, #588, #614, #542, #373, #42, #65, #751, #586, #619, #217, #535, #980, #631, #537 ) ) ;
#94 = LINE ( 'NONE', #732, #628 ) ;
#95 = EDGE_LOOP ( 'NONE', ( #121, #306 ) ) ;
#96 = DIRECTION ( 'NONE',  ( -1.000000000000000000, -0.000000000000000000, -0.000000000000000000 ) ) ;
#97 = CARTESIAN_POINT ( 'NONE',  ( 0.000000000000000000, 2.000000000000002665, -7.218039900139096687 ) ) ;
#98 = DIRECTION ( 'NONE',  ( -1.000000000000000000, -0.000000000000000000, -0.000000000000000000 ) ) ;
#99 = ORIENTED_EDGE ( 'NONE', *, *, #668, .F. ) ;
#100 = PERSON_AND_ORGANIZATION ( #315, #260 ) ;
#101 = CARTESIAN_POINT ( 'NONE',  ( 3.000000000000000000, 0.000000000000000000, 0.000000000000000000 ) ) ;
#102 = DIRECTION ( 'NONE',  ( 1.000000000000000000, 0.000000000000000000, 0.000000000000000000 ) ) ;
#103 = EDGE_LOOP ( 'NONE', ( #618, #83 ) ) ;
#104 = ADVANCED_FACE ( 'NONE', ( #567 ), #176, .T. ) ;
#105 = EDGE_CURVE ( 'NONE', #869, #939, #367, .T. ) ;
#106 = COORDINATED_UNIVERSAL_TIME_OFFSET ( 3, 30, .AHEAD. ) ;
#107 = CIRCLE ( 'NONE', #1003, 4.990000000000003766 ) ;
#108 = CARTESIAN_POINT ( 'NONE',  ( 0.000000000000000000, 0.000000000000000000, 4.990000000000009983 ) ) ;
#109 = AXIS2_PLACEMENT_3D ( 'NONE', #750, #924, #354 ) ;
#110 = VECTOR ( 'NONE', #816, 1000.000000000000000 ) ;
#111 = DIRECTION ( 'NONE',  ( 0.000000000000000000, 0.000000000000000000, -1.000000000000000000 ) ) ;
#112 = VECTOR ( 'NONE', #221, 1000.000000000000000 ) ;
#113 = ORIENTED_EDGE ( 'NONE', *, *, #849, .F. ) ;
#114 = PERSON_AND_ORGANIZATION ( #315, #260 ) ;
#115 = FACE_OUTER_BOUND ( 'NONE', #249, .T. ) ;
#116 = DIRECTION ( 'NONE',  ( -1.000000000000000000, -0.000000000000000000, -0.000000000000000000 ) ) ;
#117 = EDGE_LOOP ( 'NONE', ( #228, #796, #579, #962 ) ) ;
#118 = CYLINDRICAL_SURFACE ( 'NONE', #946, 4.990000000000000213 ) ;
#119 = EDGE_CURVE ( 'NONE', #728, #321, #330, .T. ) ;
#120 = DIRECTION ( 'NONE',  ( -1.000000000000000000, -0.000000000000000000, -0.000000000000000000 ) ) ;
#121 = ORIENTED_EDGE ( 'NONE', *, *, #601, .F. ) ;
#122 = DIRECTION ( 'NONE',  ( 0.000000000000000000, 0.000000000000000000, 1.000000000000000000 ) ) ;
#123 = CARTESIAN_POINT ( 'NONE',  ( 3.000000000000000000, 0.000000000000000000, 0.000000000000000000 ) ) ;
#124 = CIRCLE ( 'NONE', #91, 4.790000000000000924 ) ;
#125 = EDGE_CURVE ( 'NONE', #622, #733, #805, .T. ) ;
#126 =( GEOMETRIC_REPRESENTATION_CONTEXT ( 3 ) GLOBAL_UNCERTAINTY_ASSIGNED_CONTEXT ( ( #199 ) ) GLOBAL_UNIT_ASSIGNED_CONTEXT ( ( #409, #76, #887 ) ) REPRESENTATION_CONTEXT ( 'NONE', 'WORKASPACE' ) );
#127 = EDGE_LOOP ( 'NONE', ( #484, #673, #408, #842 ) ) ;
#128 = CARTESIAN_POINT ( 'NONE',  ( 4.000000000000000000, 0.000000000000000000, 4.790000000000001812 ) ) ;
#129 = CARTESIAN_POINT ( 'NONE',  ( 30.50000000000000000, 0.000000000000000000, 4.990000000000004654 ) ) ;
#130 = ADVANCED_FACE ( 'NONE', ( #905 ), #182, .T. ) ;
#131 = ORIENTED_EDGE ( 'NONE', *, *, #815, .T. ) ;
#132 = EDGE_CURVE ( 'NONE', #388, #253, #94, .T. ) ;
#133 = CARTESIAN_POINT ( 'NONE',  ( 14.00000000000000000, 0.000000000000000000, 4.990000000000001101 ) ) ;
#134 = CYLINDRICAL_SURFACE ( 'NONE', #829, 4.790000000000006253 ) ;
#135 = VERTEX_POINT ( 'NONE', #820 ) ;
#136 = ADVANCED_FACE ( 'NONE', ( #885 ), #425, .T. ) ;
#137 = CARTESIAN_POINT ( 'NONE',  ( 30.50000000000000000, 6.110987527745298447E-16, -4.990000000000004654 ) ) ;
#138 = DIRECTION ( 'NONE',  ( 0.000000000000000000, 0.000000000000000000, 1.000000000000000000 ) ) ;
#139 = ORIENTED_EDGE ( 'NONE', *, *, #478, .T. ) ;
#140 = EDGE_LOOP ( 'NONE', ( #821, #372 ) ) ;
#141 = CIRCLE ( 'NONE', #729, 4.990000000000001101 ) ;
#142 = CARTESIAN_POINT ( 'NONE',  ( 39.50000000000000711, 0.000000000000000000, 0.000000000000000000 ) ) ;
#143 = CARTESIAN_POINT ( 'NONE',  ( 14.00000000000000000, 0.000000000000000000, -7.490000000000001990 ) ) ;
#144 = DIRECTION ( 'NONE',  ( -0.000000000000000000, -0.000000000000000000, 1.000000000000000000 ) ) ;
#145 = ORIENTED_EDGE ( 'NONE', *, *, #1009, .F. ) ;
#146 = DIRECTION ( 'NONE',  ( -1.000000000000000000, -0.000000000000000000, -0.000000000000000000 ) ) ;
#147 = CARTESIAN_POINT ( 'NONE',  ( 30.50000000000000000, 5.866058167915829334E-16, -4.790000000000006253 ) ) ;
#148 = ADVANCED_FACE ( 'NONE', ( #25 ), #652, .F. ) ;
#149 = ORIENTED_EDGE ( 'NONE', *, *, #241, .T. ) ;
#150 = ORIENTED_EDGE ( 'NONE', *, *, #52, .T. ) ;
#151 = DIRECTION ( 'NONE',  ( -1.000000000000000000, -0.000000000000000000, -0.000000000000000000 ) ) ;
#152 = DIRECTION ( 'NONE',  ( -0.000000000000000000, -0.000000000000000000, 1.000000000000000000 ) ) ;
#153 = VERTEX_POINT ( 'NONE', #972 ) ;
#154 = ORIENTED_EDGE ( 'NONE', *, *, #797, .T. ) ;
#155 = DIRECTION ( 'NONE',  ( 1.000000000000000000, 0.000000000000000000, -0.000000000000000000 ) ) ;
#156 = AXIS2_PLACEMENT_3D ( 'NONE', #316, #70, #617 ) ;
#157 = CARTESIAN_POINT ( 'NONE',  ( 14.00000000000000000, 0.000000000000000000, 0.000000000000000000 ) ) ;
#158 = EDGE_LOOP ( 'NONE', ( #874, #21 ) ) ;
#159 = ORIENTED_EDGE ( 'NONE', *, *, #641, .T. ) ;
#160 = EDGE_CURVE ( 'NONE', #629, #532, #990, .T. ) ;
#161 = PLANE ( 'NONE',  #843 ) ;
#162 = CARTESIAN_POINT ( 'NONE',  ( 14.00000000000000000, 2.000000000000002665, 7.228416147400479552 ) ) ;
#163 = DIRECTION ( 'NONE',  ( -1.000000000000000000, -0.000000000000000000, -0.000000000000000000 ) ) ;
#164 = VERTEX_POINT ( 'NONE', #587 ) ;
#165 = DIRECTION ( 'NONE',  ( -1.000000000000000000, -0.000000000000000000, -0.000000000000000000 ) ) ;
#166 = APPLICATION_CONTEXT ( 'configuration controlled 3d designs of mechanical parts and assemblies' ) ;
#167 = EDGE_CURVE ( 'NONE', #402, #268, #334, .T. ) ;
#168 = DIRECTION ( 'NONE',  ( 1.000000000000000000, 0.000000000000000000, 0.000000000000000000 ) ) ;
#169 = DIRECTION ( 'NONE',  ( 1.000000000000000000, -0.000000000000000000, -0.000000000000000000 ) ) ;
#170 = ORIENTED_EDGE ( 'NONE', *, *, #892, .F. ) ;
#171 = CIRCLE ( 'NONE', #443, 4.990000000000014424 ) ;
#172 = DIRECTION ( 'NONE',  ( -1.000000000000000000, -0.000000000000000000, -0.000000000000000000 ) ) ;
#173 = SECURITY_CLASSIFICATION ( '', '', #903 ) ;
#174 = CARTESIAN_POINT ( 'NONE',  ( 14.00000000000000000, 2.000000000000002665, 7.218039900139096687 ) ) ;
#175 = CIRCLE ( 'NONE', #381, 7.490000000000001990 ) ;
#176 = CYLINDRICAL_SURFACE ( 'NONE', #930, 4.990000000000009983 ) ;
#177 = ORIENTED_EDGE ( 'NONE', *, *, #205, .T. ) ;
#178 = PRODUCT_DEFINITION_SHAPE ( 'NONE', 'NONE',  #481 ) ;
#179 = DIRECTION ( 'NONE',  ( -1.000000000000000000, -0.000000000000000000, -0.000000000000000000 ) ) ;
#180 = LINE ( 'NONE', #97, #383 ) ;
#181 = EDGE_CURVE ( 'NONE', #164, #927, #897, .T. ) ;
#182 = CYLINDRICAL_SURFACE ( 'NONE', #759, 4.990000000000004654 ) ;
#183 = EDGE_CURVE ( 'NONE', #855, #153, #1011, .T. ) ;
#184 = EDGE_LOOP ( 'NONE', ( #63, #838 ) ) ;
#185 = APPROVAL_STATUS ( 'not_yet_approved' ) ;
#186 = LINE ( 'NONE', #1005, #894 ) ;
#187 = CARTESIAN_POINT ( 'NONE',  ( 0.000000000000000000, 0.000000000000000000, 4.990000000000002878 ) ) ;
#188 = ORIENTED_EDGE ( 'NONE', *, *, #353, .T. ) ;
#189 = PERSON_AND_ORGANIZATION ( #315, #260 ) ;
#190 = AXIS2_PLACEMENT_3D ( 'NONE', #194, #120, #517 ) ;
#191 = CARTESIAN_POINT ( 'NONE',  ( 14.00000000000000000, 2.000000000000003109, -4.571662717217884087 ) ) ;
#192 = AXIS2_PLACEMENT_3D ( 'NONE', #378, #624, #552 ) ;
#193 = CIRCLE ( 'NONE', #665, 4.790000000000006253 ) ;
#194 = CARTESIAN_POINT ( 'NONE',  ( 29.50000000000000000, 0.000000000000000000, 0.000000000000000000 ) ) ;
#195 = AXIS2_PLACEMENT_3D ( 'NONE', #740, #483, #81 ) ;
#196 = VERTEX_POINT ( 'NONE', #201 ) ;
#197 = DATE_AND_TIME ( #435, #397 ) ;
#198 = ADVANCED_FACE ( 'NONE', ( #286, #846 ), #371, .F. ) ;
#199 = UNCERTAINTY_MEASURE_WITH_UNIT (LENGTH_MEASURE( 1.000000000000000082E-05 ), #409, 'distance_accuracy_value', 'NONE');
#200 = DIRECTION ( 'NONE',  ( -1.000000000000000000, -0.000000000000000000, -0.000000000000000000 ) ) ;
#201 = CARTESIAN_POINT ( 'NONE',  ( 30.50000000000000000, 0.000000000000000000, 4.790000000000006253 ) ) ;
#202 = ORIENTED_EDGE ( 'NONE', *, *, #860, .T. ) ;
#203 = DATE_AND_TIME ( #680, #895 ) ;
#204 = DIRECTION ( 'NONE',  ( 0.000000000000000000, -0.000000000000000000, -1.000000000000000000 ) ) ;
#205 = EDGE_CURVE ( 'NONE', #939, #869, #985, .T. ) ;
#206 = CARTESIAN_POINT ( 'NONE',  ( 24.00000000000000000, 0.000000000000000000, 0.000000000000000000 ) ) ;
#207 = ORIENTED_EDGE ( 'NONE', *, *, #867, .F. ) ;
#208 = CARTESIAN_POINT ( 'NONE',  ( 26.00000000000000000, 0.000000000000000000, 4.990000000000003766 ) ) ;
#209 = EDGE_CURVE ( 'NONE', #471, #653, #9, .T. ) ;
#210 = CARTESIAN_POINT ( 'NONE',  ( 0.000000000000000000, 0.000000000000000000, 4.990000000000001101 ) ) ;
#211 = CIRCLE ( 'NONE', #790, 4.790000000000005365 ) ;
#212 = AXIS2_PLACEMENT_3D ( 'NONE', #85, #336, #486 ) ;
#213 = AXIS2_PLACEMENT_3D ( 'NONE', #761, #752, #295 ) ;
#214 = EDGE_LOOP ( 'NONE', ( #526, #170 ) ) ;
#215 = CYLINDRICAL_SURFACE ( 'NONE', #57, 4.990000000000001101 ) ;
#216 = DIRECTION ( 'NONE',  ( 0.000000000000000000, 0.000000000000000000, 1.000000000000000000 ) ) ;
#217 = ADVANCED_FACE ( 'NONE', ( #613 ), #824, .F. ) ;
#218 = ORIENTED_EDGE ( 'NONE', *, *, #718, .F. ) ;
#219 = ADVANCED_FACE ( 'NONE', ( #918, #999 ), #50, .F. ) ;
#220 = CARTESIAN_POINT ( 'NONE',  ( 24.00000000000000000, -1.999999999999997335, -7.218039900139097576 ) ) ;
#221 = DIRECTION ( 'NONE',  ( -1.000000000000000000, -0.000000000000000000, -0.000000000000000000 ) ) ;
#222 = ORIENTED_EDGE ( 'NONE', *, *, #132, .F. ) ;
#223 = DIRECTION ( 'NONE',  ( 0.000000000000000000, 0.000000000000000000, 1.000000000000000000 ) ) ;
#224 = DIRECTION ( 'NONE',  ( 0.000000000000000000, 0.000000000000000000, 1.000000000000000000 ) ) ;
#225 = CIRCLE ( 'NONE', #612, 7.490000000000001990 ) ;
#226 = ORIENTED_EDGE ( 'NONE', *, *, #235, .T. ) ;
#227 = CIRCLE ( 'NONE', #810, 4.990000000000002878 ) ;
#228 = ORIENTED_EDGE ( 'NONE', *, *, #293, .T. ) ;
#229 = EDGE_CURVE ( 'NONE', #748, #362, #47, .T. ) ;
#230 = DIRECTION ( 'NONE',  ( 0.000000000000000000, 0.000000000000000000, 1.000000000000000000 ) ) ;
#231 = CYLINDRICAL_SURFACE ( 'NONE', #744, 4.790000000000000924 ) ;
#232 = PLANE ( 'NONE',  #647 ) ;
#233 = VERTEX_POINT ( 'NONE', #129 ) ;
#234 = CARTESIAN_POINT ( 'NONE',  ( 126.0000000000000000, 0.000000000000000000, 0.000000000000000000 ) ) ;
#235 = EDGE_CURVE ( 'NONE', #943, #6, #687, .T. ) ;
#236 = LINE ( 'NONE', #872, #564 ) ;
#237 = EDGE_LOOP ( 'NONE', ( #955, #996, #458, #463 ) ) ;
#238 = ORIENTED_EDGE ( 'NONE', *, *, #84, .F. ) ;
#239 = DIRECTION ( 'NONE',  ( 0.000000000000000000, 0.000000000000000000, 1.000000000000000000 ) ) ;
#240 = LINE ( 'NONE', #559, #771 ) ;
#241 = EDGE_CURVE ( 'NONE', #312, #615, #756, .T. ) ;
#242 = ORIENTED_EDGE ( 'NONE', *, *, #666, .T. ) ;
#243 = AXIS2_PLACEMENT_3D ( 'NONE', #534, #77, #308 ) ;
#244 = ORIENTED_EDGE ( 'NONE', *, *, #555, .T. ) ;
#245 = CARTESIAN_POINT ( 'NONE',  ( 30.50000000000000000, 0.000000000000000000, 0.000000000000000000 ) ) ;
#246 = AXIS2_PLACEMENT_3D ( 'NONE', #320, #637, #216 ) ;
#247 = DIRECTION ( 'NONE',  ( -1.000000000000000000, -0.000000000000000000, -0.000000000000000000 ) ) ;
#248 = CARTESIAN_POINT ( 'NONE',  ( 0.000000000000000000, 0.000000000000000000, 0.000000000000000000 ) ) ;
#249 = EDGE_LOOP ( 'NONE', ( #222, #778, #556, #801, #501, #113 ) ) ;
#250 = DIRECTION ( 'NONE',  ( 0.000000000000000000, 0.000000000000000000, -1.000000000000000000 ) ) ;
#251 = DIRECTION ( 'NONE',  ( 1.000000000000000000, 0.000000000000000000, 0.000000000000000000 ) ) ;
#252 = CARTESIAN_POINT ( 'NONE',  ( 0.000000000000000000, 0.000000000000000000, 7.490000000000001990 ) ) ;
#253 = VERTEX_POINT ( 'NONE', #452 ) ;
#254 = DIRECTION ( 'NONE',  ( -1.000000000000000000, -0.000000000000000000, -0.000000000000000000 ) ) ;
#255 = LINE ( 'NONE', #23, #511 ) ;
#256 = CYLINDRICAL_SURFACE ( 'NONE', #774, 4.790000000000000924 ) ;
#257 = ORIENTED_EDGE ( 'NONE', *, *, #86, .T. ) ;
#258 = AXIS2_PLACEMENT_3D ( 'NONE', #686, #444, #845 ) ;
#259 = CARTESIAN_POINT ( 'NONE',  ( 39.50000000000000711, 0.000000000000000000, -4.990000000000004654 ) ) ;
#260 = ORGANIZATION ( 'UNSPECIFIED', 'UNSPECIFIED', '' ) ;
#261 = EDGE_CURVE ( 'NONE', #753, #6, #40, .T. ) ;
#262 = DIRECTION ( 'NONE',  ( 0.000000000000000000, 0.000000000000000000, 1.000000000000000000 ) ) ;
#263 = DIRECTION ( 'NONE',  ( 0.000000000000000000, 0.000000000000000000, -1.000000000000000000 ) ) ;
#264 = VERTEX_POINT ( 'NONE', #933 ) ;
#265 = DIRECTION ( 'NONE',  ( -1.000000000000000000, 0.000000000000000000, 0.000000000000000000 ) ) ;
#266 = EDGE_CURVE ( 'NONE', #317, #952, #509, .T. ) ;
#267 = DIRECTION ( 'NONE',  ( -1.000000000000000000, -0.000000000000000000, -0.000000000000000000 ) ) ;
#268 = VERTEX_POINT ( 'NONE', #764 ) ;
#269 = PERSON_AND_ORGANIZATION_ROLE ( 'creator' ) ;
#270 = CARTESIAN_POINT ( 'NONE',  ( 14.00000000000000000, -1.999999999999997335, 7.218039900139097576 ) ) ;
#271 = EDGE_CURVE ( 'NONE', #753, #79, #225, .T. ) ;
#272 = CARTESIAN_POINT ( 'NONE',  ( 4.000000000000000000, 0.000000000000000000, 0.000000000000000000 ) ) ;
#273 = ADVANCED_FACE ( 'NONE', ( #690 ), #1014, .T. ) ;
#274 = ORIENTED_EDGE ( 'NONE', *, *, #235, .F. ) ;
#275 = PERSON_AND_ORGANIZATION_ROLE ( 'classification_officer' ) ;
#276 = CIRCLE ( 'NONE', #649, 4.990000000000004654 ) ;
#277 = PLANE ( 'NONE',  #809 ) ;
#278 = AXIS2_PLACEMENT_3D ( 'NONE', #142, #151, #375 ) ;
#279 = VECTOR ( 'NONE', #144, 1000.000000000000000 ) ;
#280 = CARTESIAN_POINT ( 'NONE',  ( 38.50000000000000000, 0.000000000000000000, -4.790000000000006253 ) ) ;
#281 = CIRCLE ( 'NONE', #58, 4.990000000000001101 ) ;
#282 = ORIENTED_EDGE ( 'NONE', *, *, #181, .T. ) ;
#283 = EDGE_CURVE ( 'NONE', #952, #153, #327, .T. ) ;
#284 = COORDINATED_UNIVERSAL_TIME_OFFSET ( 3, 30, .AHEAD. ) ;
#285 = CARTESIAN_POINT ( 'NONE',  ( 29.50000000000000000, 0.000000000000000000, 4.990000000000002878 ) ) ;
#286 = FACE_OUTER_BOUND ( 'NONE', #89, .T. ) ;
#287 = ORIENTED_EDGE ( 'NONE', *, *, #974, .F. ) ;
#288 = DATE_AND_TIME ( #920, #347 ) ;
#289 = CYLINDRICAL_SURFACE ( 'NONE', #109, 7.490000000000001990 ) ;
#290 = DIRECTION ( 'NONE',  ( -1.000000000000000000, -0.000000000000000000, -0.000000000000000000 ) ) ;
#291 = ORIENTED_EDGE ( 'NONE', *, *, #575, .T. ) ;
#292 = CARTESIAN_POINT ( 'NONE',  ( 38.50000000000000000, 0.000000000000000000, 0.000000000000000000 ) ) ;
#293 = EDGE_CURVE ( 'NONE', #622, #1023, #858, .T. ) ;
#294 = CC_DESIGN_PERSON_AND_ORGANIZATION_ASSIGNMENT ( #997, #269, ( #477 ) ) ;
#295 = DIRECTION ( 'NONE',  ( 0.000000000000000000, 0.000000000000000000, 1.000000000000000000 ) ) ;
#296 = AXIS2_PLACEMENT_3D ( 'NONE', #674, #904, #998 ) ;
#297 = ORIENTED_EDGE ( 'NONE', *, *, #416, .F. ) ;
#298 = AXIS2_PLACEMENT_3D ( 'NONE', #910, #356, #1006 ) ;
#299 = DIRECTION ( 'NONE',  ( 0.000000000000000000, 0.000000000000000000, 1.000000000000000000 ) ) ;
#300 = DIRECTION ( 'NONE',  ( -1.000000000000000000, -0.000000000000000000, -0.000000000000000000 ) ) ;
#301 = ORIENTED_EDGE ( 'NONE', *, *, #167, .F. ) ;
#302 = FACE_OUTER_BOUND ( 'NONE', #442, .T. ) ;
#303 = CARTESIAN_POINT ( 'NONE',  ( 0.000000000000000000, 9.172604525613678137E-16, -7.490000000000001990 ) ) ;
#304 = DIRECTION ( 'NONE',  ( -1.000000000000000000, -0.000000000000000000, -0.000000000000000000 ) ) ;
#305 = EDGE_CURVE ( 'NONE', #658, #855, #281, .T. ) ;
#306 = ORIENTED_EDGE ( 'NONE', *, *, #830, .F. ) ;
#307 = FACE_OUTER_BOUND ( 'NONE', #117, .T. ) ;
#308 = DIRECTION ( 'NONE',  ( 0.000000000000000000, 0.000000000000000000, 1.000000000000000000 ) ) ;
#309 = AXIS2_PLACEMENT_3D ( 'NONE', #234, #1028, #850 ) ;
#310 = CARTESIAN_POINT ( 'NONE',  ( 0.000000000000000000, 6.110987527745293517E-16, -4.990000000000000213 ) ) ;
#311 = AXIS2_PLACEMENT_3D ( 'NONE', #245, #179, #323 ) ;
#312 = VERTEX_POINT ( 'NONE', #936 ) ;
#313 = EDGE_CURVE ( 'NONE', #691, #728, #380, .T. ) ;
#314 = LINE ( 'NONE', #871, #859 ) ;
#315 = PERSON ( 'UNSPECIFIED', 'UNSPECIFIED', 'UNSPECIFIED', ('UNSPECIFIED'), ('UNSPECIFIED'), ('UNSPECIFIED') ) ;
#316 = CARTESIAN_POINT ( 'NONE',  ( 26.00000000000000000, 0.000000000000000000, 0.000000000000000000 ) ) ;
#317 = VERTEX_POINT ( 'NONE', #863 ) ;
#318 = VERTEX_POINT ( 'NONE', #1036 ) ;
#319 = EDGE_CURVE ( 'NONE', #2, #321, #61, .T. ) ;
#320 = CARTESIAN_POINT ( 'NONE',  ( 0.000000000000000000, 0.000000000000000000, 0.000000000000000000 ) ) ;
#321 = VERTEX_POINT ( 'NONE', #633 ) ;
#322 = ORIENTED_EDGE ( 'NONE', *, *, #499, .T. ) ;
#323 = DIRECTION ( 'NONE',  ( 0.000000000000000000, 0.000000000000000000, 1.000000000000000000 ) ) ;
#324 = FACE_OUTER_BOUND ( 'NONE', #95, .T. ) ;
#325 = PRODUCT_RELATED_PRODUCT_CATEGORY ( 'detail', '', ( #951 ) ) ;
#326 = CARTESIAN_POINT ( 'NONE',  ( 38.50000000000000000, 0.000000000000000000, 0.000000000000000000 ) ) ;
#327 = CIRCLE ( 'NONE', #516, 4.990000000000001101 ) ;
#328 = ORIENTED_EDGE ( 'NONE', *, *, #554, .F. ) ;
#329 = CIRCLE ( 'NONE', #912, 4.790000000000001812 ) ;
#330 = CIRCLE ( 'NONE', #948, 4.790000000000006253 ) ;
#331 = AXIS2_PLACEMENT_3D ( 'NONE', #1041, #854, #470 ) ;
#332 = DIRECTION ( 'NONE',  ( 0.000000000000000000, 0.000000000000000000, 1.000000000000000000 ) ) ;
#333 = ADVANCED_FACE ( 'NONE', ( #553 ), #385, .F. ) ;
#334 = LINE ( 'NONE', #252, #695 ) ;
#335 = EDGE_LOOP ( 'NONE', ( #369, #78, #465, #510 ) ) ;
#336 = DIRECTION ( 'NONE',  ( -1.000000000000000000, -0.000000000000000000, -0.000000000000000000 ) ) ;
#337 = DIRECTION ( 'NONE',  ( 0.000000000000000000, 0.000000000000000000, 1.000000000000000000 ) ) ;
#338 = DIRECTION ( 'NONE',  ( -1.000000000000000000, -0.000000000000000000, -0.000000000000000000 ) ) ;
#339 = ORIENTED_EDGE ( 'NONE', *, *, #676, .F. ) ;
#340 = EDGE_CURVE ( 'NONE', #733, #852, #107, .T. ) ;
#341 = CARTESIAN_POINT ( 'NONE',  ( 126.0000000000000000, 0.000000000000000000, 0.000000000000000000 ) ) ;
#342 = FACE_OUTER_BOUND ( 'NONE', #762, .T. ) ;
#343 = CARTESIAN_POINT ( 'NONE',  ( 4.000000000000000000, 0.000000000000000000, -4.990000000000001101 ) ) ;
#344 = ORIENTED_EDGE ( 'NONE', *, *, #361, .F. ) ;
#345 = AXIS2_PLACEMENT_3D ( 'NONE', #259, #3, #250 ) ;
#346 = DATE_TIME_ROLE ( 'classification_date' ) ;
#347 = LOCAL_TIME ( 16, 7, 48.00000000000000000, #284 ) ;
#348 = CARTESIAN_POINT ( 'NONE',  ( 0.000000000000000000, 6.110987527745296475E-16, -4.990000000000002878 ) ) ;
#349 = VECTOR ( 'NONE', #672, 1000.000000000000000 ) ;
#350 = CARTESIAN_POINT ( 'NONE',  ( 3.000000000000000000, 0.000000000000000000, 0.000000000000000000 ) ) ;
#351 = ORIENTED_EDGE ( 'NONE', *, *, #305, .F. ) ;
#352 = APPROVAL_ROLE ( '' ) ;
#353 = EDGE_CURVE ( 'NONE', #663, #79, #697, .T. ) ;
#354 = DIRECTION ( 'NONE',  ( 0.000000000000000000, 0.000000000000000000, 1.000000000000000000 ) ) ;
#355 = EDGE_CURVE ( 'NONE', #852, #733, #1018, .T. ) ;
#356 = DIRECTION ( 'NONE',  ( -1.000000000000000000, -0.000000000000000000, -0.000000000000000000 ) ) ;
#357 = ORIENTED_EDGE ( 'NONE', *, *, #797, .F. ) ;
#358 = APPROVAL_DATE_TIME ( #428, #696 ) ;
#359 = LINE ( 'NONE', #436, #1016 ) ;
#360 = DIRECTION ( 'NONE',  ( -1.000000000000000000, -0.000000000000000000, -0.000000000000000000 ) ) ;
#361 = EDGE_CURVE ( 'NONE', #135, #422, #550, .T. ) ;
#362 = VERTEX_POINT ( 'NONE', #539 ) ;
#363 = APPROVAL_STATUS ( 'not_yet_approved' ) ;
#364 = AXIS2_PLACEMENT_3D ( 'NONE', #789, #53, #69 ) ;
#365 = CARTESIAN_POINT ( 'NONE',  ( 14.00000000000000000, -1.999999999999997335, 4.571662717217885863 ) ) ;
#366 = CIRCLE ( 'NONE', #625, 4.990000000000004654 ) ;
#367 = CIRCLE ( 'NONE', #446, 4.990000000000000213 ) ;
#368 = DIRECTION ( 'NONE',  ( -1.000000000000000000, 0.000000000000000000, -0.000000000000000000 ) ) ;
#369 = ORIENTED_EDGE ( 'NONE', *, *, #987, .T. ) ;
#370 = FACE_OUTER_BOUND ( 'NONE', #569, .T. ) ;
#371 = PLANE ( 'NONE',  #828 ) ;
#372 = ORIENTED_EDGE ( 'NONE', *, *, #283, .T. ) ;
#373 = ADVANCED_FACE ( 'NONE', ( #54 ), #780, .T. ) ;
#374 = ADVANCED_FACE ( 'NONE', ( #545 ), #231, .T. ) ;
#375 = DIRECTION ( 'NONE',  ( 0.000000000000000000, 0.000000000000000000, 1.000000000000000000 ) ) ;
#376 = DIRECTION ( 'NONE',  ( -1.000000000000000000, 0.000000000000000000, 0.000000000000000000 ) ) ;
#377 = EDGE_LOOP ( 'NONE', ( #677, #149, #865, #518 ) ) ;
#378 = CARTESIAN_POINT ( 'NONE',  ( 0.000000000000000000, 0.000000000000000000, 0.000000000000000000 ) ) ;
#379 = VECTOR ( 'NONE', #642, 1000.000000000000000 ) ;
#380 = LINE ( 'NONE', #868, #432 ) ;
#381 = AXIS2_PLACEMENT_3D ( 'NONE', #16, #169, #263 ) ;
#382 = ORIENTED_EDGE ( 'NONE', *, *, #781, .F. ) ;
#383 = VECTOR ( 'NONE', #251, 1000.000000000000000 ) ;
#384 = CARTESIAN_POINT ( 'NONE',  ( 3.000000000000000000, 6.110987527745293517E-16, -4.990000000000000213 ) ) ;
#385 = PLANE ( 'NONE',  #1000 ) ;
#386 = EDGE_CURVE ( 'NONE', #264, #422, #594, .T. ) ;
#387 = ORIENTED_EDGE ( 'NONE', *, *, #684, .F. ) ;
#388 = VERTEX_POINT ( 'NONE', #941 ) ;
#389 = DIRECTION ( 'NONE',  ( -1.000000000000000000, -0.000000000000000000, -0.000000000000000000 ) ) ;
#390 = CARTESIAN_POINT ( 'NONE',  ( 0.000000000000000000, -1.999999999999997335, 7.218039900139097576 ) ) ;
#391 = ORIENTED_EDGE ( 'NONE', *, *, #293, .F. ) ;
#392 = ORIENTED_EDGE ( 'NONE', *, *, #167, .T. ) ;
#393 = LINE ( 'NONE', #773, #560 ) ;
#394 = DIRECTION ( 'NONE',  ( -1.000000000000000000, -0.000000000000000000, -0.000000000000000000 ) ) ;
#395 = CIRCLE ( 'NONE', #662, 7.490000000000001990 ) ;
#396 = ORIENTED_EDGE ( 'NONE', *, *, #386, .F. ) ;
#397 = LOCAL_TIME ( 16, 7, 48.00000000000000000, #22 ) ;
#398 = VERTEX_POINT ( 'NONE', #147 ) ;
#399 = VECTOR ( 'NONE', #267, 1000.000000000000000 ) ;
#400 = CARTESIAN_POINT ( 'NONE',  ( 29.50000000000000000, 6.110987527745296475E-16, -4.990000000000002878 ) ) ;
#401 = DIRECTION ( 'NONE',  ( -1.000000000000000000, -0.000000000000000000, -0.000000000000000000 ) ) ;
#402 = VERTEX_POINT ( 'NONE', #474 ) ;
#403 = EDGE_CURVE ( 'NONE', #196, #398, #7, .T. ) ;
#404 = DIRECTION ( 'NONE',  ( 0.000000000000000000, 0.000000000000000000, 1.000000000000000000 ) ) ;
#405 = EDGE_CURVE ( 'NONE', #402, #135, #915, .T. ) ;
#406 = DIRECTION ( 'NONE',  ( 0.000000000000000000, 0.000000000000000000, 1.000000000000000000 ) ) ;
#407 = CARTESIAN_POINT ( 'NONE',  ( 38.50000000000000000, 0.000000000000000000, 4.990000000000004654 ) ) ;
#408 = ORIENTED_EDGE ( 'NONE', *, *, #459, .T. ) ;
#409 =( LENGTH_UNIT ( ) NAMED_UNIT ( * ) SI_UNIT ( .MILLI., .METRE. ) );
#410 = DIRECTION ( 'NONE',  ( 0.000000000000000000, 0.000000000000000000, 1.000000000000000000 ) ) ;
#411 = DIRECTION ( 'NONE',  ( 1.000000000000000000, 0.000000000000000000, 0.000000000000000000 ) ) ;
#412 = CIRCLE ( 'NONE', #544, 4.990000000000000213 ) ;
#413 = ORIENTED_EDGE ( 'NONE', *, *, #305, .T. ) ;
#414 = CIRCLE ( 'NONE', #1001, 4.790000000000005365 ) ;
#415 = FACE_OUTER_BOUND ( 'NONE', #127, .T. ) ;
#416 = EDGE_CURVE ( 'NONE', #264, #653, #236, .T. ) ;
#417 = CARTESIAN_POINT ( 'NONE',  ( 24.00000000000000000, -1.999999999999997335, 7.218039900139097576 ) ) ;
#418 = ORIENTED_EDGE ( 'NONE', *, *, #361, .T. ) ;
#419 = PLANE ( 'NONE',  #877 ) ;
#420 = DIRECTION ( 'NONE',  ( 0.000000000000000000, 0.000000000000000000, 1.000000000000000000 ) ) ;
#421 = DIRECTION ( 'NONE',  ( 0.000000000000000000, 0.000000000000000000, 1.000000000000000000 ) ) ;
#422 = VERTEX_POINT ( 'NONE', #949 ) ;
#423 = DIRECTION ( 'NONE',  ( 0.000000000000000000, 0.000000000000000000, 1.000000000000000000 ) ) ;
#424 = DIRECTION ( 'NONE',  ( -1.000000000000000000, -0.000000000000000000, -0.000000000000000000 ) ) ;
#425 = CYLINDRICAL_SURFACE ( 'NONE', #664, 4.990000000000009983 ) ;
#426 = ORIENTED_EDGE ( 'NONE', *, *, #11, .T. ) ;
#427 = AXIS2_PLACEMENT_3D ( 'NONE', #503, #819, #406 ) ;
#428 = DATE_AND_TIME ( #514, #844 ) ;
#429 = ADVANCED_FACE ( 'NONE', ( #791 ), #714, .T. ) ;
#430 = VECTOR ( 'NONE', #304, 1000.000000000000000 ) ;
#431 = DIRECTION ( 'NONE',  ( 0.000000000000000000, 0.000000000000000000, 1.000000000000000000 ) ) ;
#432 = VECTOR ( 'NONE', #461, 1000.000000000000000 ) ;
#433 = CARTESIAN_POINT ( 'NONE',  ( 14.00000000000000000, -1.999999999999997335, 7.228416147400479552 ) ) ;
#434 = ORIENTED_EDGE ( 'NONE', *, *, #319, .T. ) ;
#435 = CALENDAR_DATE ( 2026, 12, 7 ) ;
#436 = CARTESIAN_POINT ( 'NONE',  ( 24.00000000000000000, -1.999999999999997335, 7.228416147400479552 ) ) ;
#437 = CARTESIAN_POINT ( 'NONE',  ( 14.00000000000000000, 0.000000000000000000, 0.000000000000000000 ) ) ;
#438 = ORIENTED_EDGE ( 'NONE', *, *, #906, .T. ) ;
#439 = PERSON_AND_ORGANIZATION_ROLE ( 'creator' ) ;
#440 = DIRECTION ( 'NONE',  ( 0.000000000000000000, 0.000000000000000000, -1.000000000000000000 ) ) ;
#441 = DIRECTION ( 'NONE',  ( 0.000000000000000000, -0.000000000000000000, 1.000000000000000000 ) ) ;
#442 = EDGE_LOOP ( 'NONE', ( #540, #743, #635, #870 ) ) ;
#443 = AXIS2_PLACEMENT_3D ( 'NONE', #341, #734, #239 ) ;
#444 = DIRECTION ( 'NONE',  ( -1.000000000000000000, -0.000000000000000000, -0.000000000000000000 ) ) ;
#445 = CC_DESIGN_APPROVAL ( #607, ( #173 ) ) ;
#446 = AXIS2_PLACEMENT_3D ( 'NONE', #350, #901, #896 ) ;
#447 = DIRECTION ( 'NONE',  ( -1.000000000000000000, -0.000000000000000000, -0.000000000000000000 ) ) ;
#448 = ADVANCED_FACE ( 'NONE', ( #851 ), #134, .T. ) ;
#449 = ORIENTED_EDGE ( 'NONE', *, *, #119, .T. ) ;
#450 = DESIGN_CONTEXT ( 'detailed design', #454, 'design' ) ;
#451 = CARTESIAN_POINT ( 'NONE',  ( 0.000000000000000000, 0.000000000000000000, 0.000000000000000000 ) ) ;
#452 = CARTESIAN_POINT ( 'NONE',  ( 24.00000000000000000, 2.000000000000002665, 7.218039900139096687 ) ) ;
#453 = ORIENTED_EDGE ( 'NONE', *, *, #30, .T. ) ;
#454 = APPLICATION_CONTEXT ( 'configuration controlled 3d designs of mechanical parts and assemblies' ) ;
#455 = EDGE_CURVE ( 'NONE', #471, #574, #735, .T. ) ;
#456 = DIRECTION ( 'NONE',  ( -1.000000000000000000, -0.000000000000000000, -0.000000000000000000 ) ) ;
#457 = CARTESIAN_POINT ( 'NONE',  ( 0.000000000000000000, 0.000000000000000000, 0.000000000000000000 ) ) ;
#458 = ORIENTED_EDGE ( 'NONE', *, *, #72, .F. ) ;
#459 = EDGE_CURVE ( 'NONE', #939, #164, #240, .T. ) ;
#460 = DIRECTION ( 'NONE',  ( -1.000000000000000000, -0.000000000000000000, -0.000000000000000000 ) ) ;
#461 = DIRECTION ( 'NONE',  ( -1.000000000000000000, -0.000000000000000000, -0.000000000000000000 ) ) ;
#462 = AXIS2_PLACEMENT_3D ( 'NONE', #889, #926, #675 ) ;
#463 = ORIENTED_EDGE ( 'NONE', *, *, #641, .F. ) ;
#464 = AXIS2_PLACEMENT_3D ( 'NONE', #157, #804, #337 ) ;
#465 = ORIENTED_EDGE ( 'NONE', *, *, #478, .F. ) ;
#466 = DIRECTION ( 'NONE',  ( -1.000000000000000000, -0.000000000000000000, -0.000000000000000000 ) ) ;
#467 = DIRECTION ( 'NONE',  ( 1.000000000000000000, 0.000000000000000000, 0.000000000000000000 ) ) ;
#468 = EDGE_LOOP ( 'NONE', ( #150, #449 ) ) ;
#469 = DIRECTION ( 'NONE',  ( -1.000000000000000000, -0.000000000000000000, -0.000000000000000000 ) ) ;
#470 = DIRECTION ( 'NONE',  ( 0.000000000000000000, 0.000000000000000000, 1.000000000000000000 ) ) ;
#471 = VERTEX_POINT ( 'NONE', #4 ) ;
#472 = ORIENTED_EDGE ( 'NONE', *, *, #266, .F. ) ;
#473 = FACE_OUTER_BOUND ( 'NONE', #604, .T. ) ;
#474 = CARTESIAN_POINT ( 'NONE',  ( 26.00000000000000355, 0.000000000000000000, 7.490000000000002878 ) ) ;
#475 = AXIS2_PLACEMENT_3D ( 'NONE', #779, #616, #932 ) ;
#476 = EDGE_LOOP ( 'NONE', ( #806, #154, #62, #721, #351, #881 ) ) ;
#477 = PRODUCT_DEFINITION_FORMATION_WITH_SPECIFIED_SOURCE ( 'ANY', '', #951, .NOT_KNOWN. ) ;
#478 = EDGE_CURVE ( 'NONE', #362, #532, #55, .T. ) ;
#479 = EDGE_LOOP ( 'NONE', ( #202, #557, #812, #27 ) ) ;
#480 = VECTOR ( 'NONE', #360, 1000.000000000000000 ) ;
#481 = PRODUCT_DEFINITION ( 'UNKNOWN', '', #477, #450 ) ;
#482 = CARTESIAN_POINT ( 'NONE',  ( 4.000000000000000000, 0.000000000000000000, 0.000000000000000000 ) ) ;
#483 = DIRECTION ( 'NONE',  ( 1.000000000000000000, 0.000000000000000000, -0.000000000000000000 ) ) ;
#484 = ORIENTED_EDGE ( 'NONE', *, *, #11, .F. ) ;
#485 = EDGE_LOOP ( 'NONE', ( #551, #934 ) ) ;
#486 = DIRECTION ( 'NONE',  ( 0.000000000000000000, 0.000000000000000000, 1.000000000000000000 ) ) ;
#487 = LINE ( 'NONE', #348, #379 ) ;
#488 = DIRECTION ( 'NONE',  ( -1.000000000000000000, -0.000000000000000000, -0.000000000000000000 ) ) ;
#489 = ORIENTED_EDGE ( 'NONE', *, *, #974, .T. ) ;
#490 = DIRECTION ( 'NONE',  ( -1.000000000000000000, -0.000000000000000000, -0.000000000000000000 ) ) ;
#491 = EDGE_CURVE ( 'NONE', #1023, #852, #487, .T. ) ;
#492 = DIRECTION ( 'NONE',  ( -1.000000000000000000, -0.000000000000000000, -0.000000000000000000 ) ) ;
#493 = DIRECTION ( 'NONE',  ( -1.000000000000000000, -0.000000000000000000, -0.000000000000000000 ) ) ;
#494 = AXIS2_PLACEMENT_3D ( 'NONE', #632, #469, #699 ) ;
#495 = ORIENTED_EDGE ( 'NONE', *, *, #261, .F. ) ;
#496 = AXIS2_PLACEMENT_3D ( 'NONE', #992, #423, #739 ) ;
#497 = DIRECTION ( 'NONE',  ( -1.000000000000000000, -0.000000000000000000, -0.000000000000000000 ) ) ;
#498 = CARTESIAN_POINT ( 'NONE',  ( 0.000000000000000000, 0.000000000000000000, 0.000000000000000000 ) ) ;
#499 = EDGE_CURVE ( 'NONE', #264, #388, #180, .T. ) ;
#500 = DIRECTION ( 'NONE',  ( -1.000000000000000000, -0.000000000000000000, -0.000000000000000000 ) ) ;
#501 = ORIENTED_EDGE ( 'NONE', *, *, #455, .T. ) ;
#502 = DIRECTION ( 'NONE',  ( 0.000000000000000000, 0.000000000000000000, -1.000000000000000000 ) ) ;
#503 = CARTESIAN_POINT ( 'NONE',  ( 0.000000000000000000, 0.000000000000000000, 0.000000000000000000 ) ) ;
#504 = DIRECTION ( 'NONE',  ( 0.000000000000000000, 0.000000000000000000, 1.000000000000000000 ) ) ;
#505 = EDGE_CURVE ( 'NONE', #1027, #312, #967, .T. ) ;
#506 = ORIENTED_EDGE ( 'NONE', *, *, #645, .T. ) ;
#507 = APPROVAL_ROLE ( '' ) ;
#508 = DIRECTION ( 'NONE',  ( 0.000000000000000000, -1.000000000000000000, 0.000000000000000000 ) ) ;
#509 = LINE ( 'NONE', #922, #26 ) ;
#510 = ORIENTED_EDGE ( 'NONE', *, *, #229, .F. ) ;
#511 = VECTOR ( 'NONE', #576, 1000.000000000000000 ) ;
#512 = CC_DESIGN_DATE_AND_TIME_ASSIGNMENT ( #197, #596, ( #481 ) ) ;
#513 = AXIS2_PLACEMENT_3D ( 'NONE', #543, #460, #861 ) ;
#514 = CALENDAR_DATE ( 2026, 12, 7 ) ;
#515 = DIRECTION ( 'NONE',  ( -1.000000000000000000, 0.000000000000000000, -0.000000000000000000 ) ) ;
#516 = AXIS2_PLACEMENT_3D ( 'NONE', #272, #837, #592 ) ;
#517 = DIRECTION ( 'NONE',  ( 0.000000000000000000, 0.000000000000000000, 1.000000000000000000 ) ) ;
#518 = ORIENTED_EDGE ( 'NONE', *, *, #645, .F. ) ;
#519 = APPROVAL_STATUS ( 'not_yet_approved' ) ;
#520 = DIRECTION ( 'NONE',  ( -0.000000000000000000, 0.000000000000000000, 1.000000000000000000 ) ) ;
#521 = CARTESIAN_POINT ( 'NONE',  ( 24.00000000000000000, -1.999999999999997335, 7.228416147400479552 ) ) ;
#522 = EDGE_LOOP ( 'NONE', ( #218, #32, #770, #711 ) ) ;
#523 = DIRECTION ( 'NONE',  ( -1.000000000000000000, -0.000000000000000000, -0.000000000000000000 ) ) ;
#524 = EDGE_CURVE ( 'NONE', #777, #233, #276, .T. ) ;
#525 = DIRECTION ( 'NONE',  ( 0.000000000000000000, 0.000000000000000000, 1.000000000000000000 ) ) ;
#526 = ORIENTED_EDGE ( 'NONE', *, *, #860, .F. ) ;
#527 = CIRCLE ( 'NONE', #709, 4.990000000000001101 ) ;
#528 = DIRECTION ( 'NONE',  ( 0.000000000000000000, 0.000000000000000000, 1.000000000000000000 ) ) ;
#529 = APPROVAL_PERSON_ORGANIZATION ( #38, #654, #818 ) ;
#530 = AXIS2_PLACEMENT_3D ( 'NONE', #123, #447, #608 ) ;
#531 = DIRECTION ( 'NONE',  ( -0.000000000000000000, 0.000000000000000000, 1.000000000000000000 ) ) ;
#532 = VERTEX_POINT ( 'NONE', #958 ) ;
#533 = CARTESIAN_POINT ( 'NONE',  ( 26.00000000000000000, 6.110987527745297461E-16, -4.990000000000003766 ) ) ;
#534 = CARTESIAN_POINT ( 'NONE',  ( 30.50000000000000000, 0.000000000000000000, 0.000000000000000000 ) ) ;
#535 = ADVANCED_FACE ( 'NONE', ( #324 ), #878, .F. ) ;
#536 = ORIENTED_EDGE ( 'NONE', *, *, #241, .F. ) ;
#537 = ADVANCED_FACE ( 'NONE', ( #808 ), #656, .T. ) ;
#538 = CARTESIAN_POINT ( 'NONE',  ( 38.50000000000000000, 6.110987527745298447E-16, -4.990000000000004654 ) ) ;
#539 = CARTESIAN_POINT ( 'NONE',  ( 3.000000000000000000, 0.000000000000000000, 4.790000000000000924 ) ) ;
#540 = ORIENTED_EDGE ( 'NONE', *, *, #1020, .T. ) ;
#541 = EDGE_LOOP ( 'NONE', ( #795, #13 ) ) ;
#542 = ADVANCED_FACE ( 'NONE', ( #342 ), #87, .F. ) ;
#543 = CARTESIAN_POINT ( 'NONE',  ( 14.00000000000000000, 0.000000000000000000, 0.000000000000000000 ) ) ;
#544 = AXIS2_PLACEMENT_3D ( 'NONE', #814, #492, #92 ) ;
#545 = FACE_OUTER_BOUND ( 'NONE', #335, .T. ) ;
#546 = VECTOR ( 'NONE', #831, 1000.000000000000000 ) ;
#547 = ORIENTED_EDGE ( 'NONE', *, *, #30, .F. ) ;
#548 = ORIENTED_EDGE ( 'NONE', *, *, #830, .T. ) ;
#549 = CARTESIAN_POINT ( 'NONE',  ( 14.00000000000000000, 0.000000000000000000, 0.000000000000000000 ) ) ;
#550 = LINE ( 'NONE', #303, #862 ) ;
#551 = ORIENTED_EDGE ( 'NONE', *, *, #505, .F. ) ;
#552 = DIRECTION ( 'NONE',  ( 0.000000000000000000, 0.000000000000000000, 1.000000000000000000 ) ) ;
#553 = FACE_OUTER_BOUND ( 'NONE', #476, .T. ) ;
#554 = EDGE_CURVE ( 'NONE', #153, #952, #10, .T. ) ;
#555 = EDGE_CURVE ( 'NONE', #317, #943, #141, .T. ) ;
#556 = ORIENTED_EDGE ( 'NONE', *, *, #416, .T. ) ;
#557 = ORIENTED_EDGE ( 'NONE', *, *, #718, .T. ) ;
#558 = DIRECTION ( 'NONE',  ( 0.000000000000000000, 0.000000000000000000, 1.000000000000000000 ) ) ;
#559 = CARTESIAN_POINT ( 'NONE',  ( 0.000000000000000000, 0.000000000000000000, 4.990000000000000213 ) ) ;
#560 = VECTOR ( 'NONE', #866, 1000.000000000000000 ) ;
#561 = DIRECTION ( 'NONE',  ( 0.000000000000000000, 0.000000000000000000, 1.000000000000000000 ) ) ;
#562 = CIRCLE ( 'NONE', #581, 4.790000000000005365 ) ;
#563 = ORIENTED_EDGE ( 'NONE', *, *, #84, .T. ) ;
#564 = VECTOR ( 'NONE', #152, 1000.000000000000000 ) ;
#565 = CYLINDRICAL_SURFACE ( 'NONE', #212, 4.990000000000002878 ) ;
#566 = CARTESIAN_POINT ( 'NONE',  ( 14.00000000000000000, 0.000000000000000000, -7.490000000000001990 ) ) ;
#567 = FACE_OUTER_BOUND ( 'NONE', #757, .T. ) ;
#568 = ADVANCED_FACE ( 'NONE', ( #723 ), #582, .T. ) ;
#569 = EDGE_LOOP ( 'NONE', ( #177, #426, #782, #1026 ) ) ;
#570 = EDGE_CURVE ( 'NONE', #663, #658, #255, .T. ) ;
#571 = CARTESIAN_POINT ( 'NONE',  ( 29.50000000000000000, 0.000000000000000000, 0.000000000000000000 ) ) ;
#572 = DIRECTION ( 'NONE',  ( 0.000000000000000000, 0.000000000000000000, 1.000000000000000000 ) ) ;
#573 = DIRECTION ( 'NONE',  ( -1.000000000000000000, -0.000000000000000000, -0.000000000000000000 ) ) ;
#574 = VERTEX_POINT ( 'NONE', #174 ) ;
#575 = EDGE_CURVE ( 'NONE', #927, #164, #412, .T. ) ;
#576 = DIRECTION ( 'NONE',  ( 0.000000000000000000, 0.000000000000000000, -1.000000000000000000 ) ) ;
#577 = CARTESIAN_POINT ( 'NONE',  ( 39.50000000000000000, 0.000000000000000000, 0.000000000000000000 ) ) ;
#578 = AXIS2_PLACEMENT_3D ( 'NONE', #694, #703, #784 ) ;
#579 = ORIENTED_EDGE ( 'NONE', *, *, #340, .F. ) ;
#580 = CIRCLE ( 'NONE', #311, 4.790000000000006253 ) ;
#581 = AXIS2_PLACEMENT_3D ( 'NONE', #577, #493, #968 ) ;
#582 = CYLINDRICAL_SURFACE ( 'NONE', #643, 7.490000000000001990 ) ;
#583 = DIRECTION ( 'NONE',  ( 0.000000000000000000, 0.000000000000000000, 1.000000000000000000 ) ) ;
#584 = ORIENTED_EDGE ( 'NONE', *, *, #209, .F. ) ;
#585 = CYLINDRICAL_SURFACE ( 'NONE', #296, 4.990000000000004654 ) ;
#586 = ADVANCED_FACE ( 'NONE', ( #415 ), #900, .T. ) ;
#587 = CARTESIAN_POINT ( 'NONE',  ( 1.224646799147250347E-18, 0.000000000000000000, 4.990000000000000213 ) ) ;
#588 = ADVANCED_FACE ( 'NONE', ( #719, #966 ), #277, .F. ) ;
#589 = EDGE_LOOP ( 'NONE', ( #593, #387 ) ) ;
#590 = PERSON_AND_ORGANIZATION ( #315, #260 ) ;
#591 = DIRECTION ( 'NONE',  ( -1.000000000000000000, -0.000000000000000000, -0.000000000000000000 ) ) ;
#592 = DIRECTION ( 'NONE',  ( 0.000000000000000000, 0.000000000000000000, 1.000000000000000000 ) ) ;
#593 = ORIENTED_EDGE ( 'NONE', *, *, #405, .F. ) ;
#594 = CIRCLE ( 'NONE', #825, 7.490000000000001990 ) ;
#595 = AXIS2_PLACEMENT_3D ( 'NONE', #768, #64, #299 ) ;
#596 = DATE_TIME_ROLE ( 'creation_date' ) ;
#597 = DIRECTION ( 'NONE',  ( 0.000000000000000000, 0.000000000000000000, -1.000000000000000000 ) ) ;
#598 = AXIS2_PLACEMENT_3D ( 'NONE', #888, #976, #332 ) ;
#599 = DIRECTION ( 'NONE',  ( -1.000000000000000000, -0.000000000000000000, -0.000000000000000000 ) ) ;
#600 = ORIENTED_EDGE ( 'NONE', *, *, #353, .F. ) ;
#601 = EDGE_CURVE ( 'NONE', #658, #943, #186, .T. ) ;
#602 = CARTESIAN_POINT ( 'NONE',  ( 0.000000000000000000, 6.110987527745298447E-16, -4.990000000000004654 ) ) ;
#603 = DIRECTION ( 'NONE',  ( -0.000000000000000000, 1.000000000000000000, 0.000000000000000000 ) ) ;
#604 = EDGE_LOOP ( 'NONE', ( #242, #786, #328, #1002, #438, #707 ) ) ;
#605 = APPROVAL_DATE_TIME ( #203, #607 ) ;
#606 = DIRECTION ( 'NONE',  ( -1.000000000000000000, -0.000000000000000000, -0.000000000000000000 ) ) ;
#607 = APPROVAL ( #363, 'UNSPECIFIED' ) ;
#608 = DIRECTION ( 'NONE',  ( 0.000000000000000000, 0.000000000000000000, 1.000000000000000000 ) ) ;
#609 = ORIENTED_EDGE ( 'NONE', *, *, #959, .F. ) ;
#610 = AXIS2_PLACEMENT_3D ( 'NONE', #549, #146, #1034 ) ;
#611 = DIRECTION ( 'NONE',  ( 0.000000000000000000, 0.000000000000000000, 1.000000000000000000 ) ) ;
#612 = AXIS2_PLACEMENT_3D ( 'NONE', #206, #376, #525 ) ;
#613 = FACE_OUTER_BOUND ( 'NONE', #737, .T. ) ;
#614 = ADVANCED_FACE ( 'NONE', ( #1010 ), #289, .T. ) ;
#615 = VERTEX_POINT ( 'NONE', #671 ) ;
#616 = DIRECTION ( 'NONE',  ( -1.000000000000000000, 0.000000000000000000, -0.000000000000000000 ) ) ;
#617 = DIRECTION ( 'NONE',  ( 0.000000000000000000, 0.000000000000000000, 1.000000000000000000 ) ) ;
#618 = ORIENTED_EDGE ( 'NONE', *, *, #72, .T. ) ;
#619 = ADVANCED_FACE ( 'NONE', ( #823 ), #840, .T. ) ;
#620 = CYLINDRICAL_SURFACE ( 'NONE', #595, 4.790000000000006253 ) ;
#621 = DIRECTION ( 'NONE',  ( -1.000000000000000000, -0.000000000000000000, -0.000000000000000000 ) ) ;
#622 = VERTEX_POINT ( 'NONE', #285 ) ;
#623 = EDGE_LOOP ( 'NONE', ( #282, #291 ) ) ;
#624 = DIRECTION ( 'NONE',  ( -1.000000000000000000, -0.000000000000000000, -0.000000000000000000 ) ) ;
#625 = AXIS2_PLACEMENT_3D ( 'NONE', #292, #456, #708 ) ;
#626 = DIRECTION ( 'NONE',  ( -1.000000000000000000, -0.000000000000000000, -0.000000000000000000 ) ) ;
#627 = APPROVAL_PERSON_ORGANIZATION ( #114, #696, #507 ) ;
#628 = VECTOR ( 'NONE', #657, 1000.000000000000000 ) ;
#629 = VERTEX_POINT ( 'NONE', #763 ) ;
#630 = ORIENTED_EDGE ( 'NONE', *, *, #1020, .F. ) ;
#631 = ADVANCED_FACE ( 'NONE', ( #115 ), #39, .F. ) ;
#632 = CARTESIAN_POINT ( 'NONE',  ( 14.00000000000000000, 0.000000000000000000, 0.000000000000000000 ) ) ;
#633 = CARTESIAN_POINT ( 'NONE',  ( 38.50000000000000000, 0.000000000000000000, 4.790000000000006253 ) ) ;
#634 = CARTESIAN_POINT ( 'NONE',  ( 39.50000000000000000, 0.000000000000000000, 4.790000000000005365 ) ) ;
#635 = ORIENTED_EDGE ( 'NONE', *, *, #52, .F. ) ;
#636 = FACE_BOUND ( 'NONE', #857, .T. ) ;
#637 = DIRECTION ( 'NONE',  ( -1.000000000000000000, -0.000000000000000000, -0.000000000000000000 ) ) ;
#638 = DIRECTION ( 'NONE',  ( -1.000000000000000000, -0.000000000000000000, -0.000000000000000000 ) ) ;
#639 = ORIENTED_EDGE ( 'NONE', *, *, #160, .F. ) ;
#640 = CARTESIAN_POINT ( 'NONE',  ( 1.224646799147250347E-18, 6.110987527745293517E-16, -4.990000000000000213 ) ) ;
#641 = EDGE_CURVE ( 'NONE', #196, #318, #746, .T. ) ;
#642 = DIRECTION ( 'NONE',  ( -1.000000000000000000, -0.000000000000000000, -0.000000000000000000 ) ) ;
#643 = AXIS2_PLACEMENT_3D ( 'NONE', #498, #424, #971 ) ;
#644 = CIRCLE ( 'NONE', #513, 4.990000000000001101 ) ;
#645 = EDGE_CURVE ( 'NONE', #1027, #890, #29, .T. ) ;
#646 = DIRECTION ( 'NONE',  ( 0.000000000000000000, 0.000000000000000000, 1.000000000000000000 ) ) ;
#647 = AXIS2_PLACEMENT_3D ( 'NONE', #343, #102, #20 ) ;
#648 = EDGE_LOOP ( 'NONE', ( #639, #1015, #827, #287 ) ) ;
#649 = AXIS2_PLACEMENT_3D ( 'NONE', #799, #651, #572 ) ;
#650 = DIRECTION ( 'NONE',  ( -0.000000000000000000, 0.000000000000000000, -1.000000000000000000 ) ) ;
#651 = DIRECTION ( 'NONE',  ( -1.000000000000000000, -0.000000000000000000, -0.000000000000000000 ) ) ;
#652 = PLANE ( 'NONE',  #914 ) ;
#653 = VERTEX_POINT ( 'NONE', #191 ) ;
#654 = APPROVAL ( #519, 'UNSPECIFIED' ) ;
#655 = DIRECTION ( 'NONE',  ( -1.000000000000000000, -0.000000000000000000, -0.000000000000000000 ) ) ;
#656 = PLANE ( 'NONE',  #195 ) ;
#657 = DIRECTION ( 'NONE',  ( -0.000000000000000000, -0.000000000000000000, 1.000000000000000000 ) ) ;
#658 = VERTEX_POINT ( 'NONE', #365 ) ;
#659 = FACE_BOUND ( 'NONE', #1038, .T. ) ;
#660 = DIRECTION ( 'NONE',  ( 0.000000000000000000, 0.000000000000000000, 1.000000000000000000 ) ) ;
#661 = CARTESIAN_POINT ( 'NONE',  ( 0.000000000000000000, 0.000000000000000000, 0.000000000000000000 ) ) ;
#662 = AXIS2_PLACEMENT_3D ( 'NONE', #713, #497, #798 ) ;
#663 = VERTEX_POINT ( 'NONE', #270 ) ;
#664 = AXIS2_PLACEMENT_3D ( 'NONE', #741, #338, #977 ) ;
#665 = AXIS2_PLACEMENT_3D ( 'NONE', #326, #98, #646 ) ;
#666 = EDGE_CURVE ( 'NONE', #653, #317, #527, .T. ) ;
#667 = CARTESIAN_POINT ( 'NONE',  ( 24.00000000000000000, 0.000000000000000000, 0.000000000000000000 ) ) ;
#668 = EDGE_CURVE ( 'NONE', #398, #1031, #49, .T. ) ;
#669 = CARTESIAN_POINT ( 'NONE',  ( 6.123233995736251736E-19, 0.000000000000000000, -4.990000000000000213 ) ) ;
#670 = ORIENTED_EDGE ( 'NONE', *, *, #987, .F. ) ;
#671 = CARTESIAN_POINT ( 'NONE',  ( 39.50000000000000711, 6.110987527745301406E-16, -4.990000000000004654 ) ) ;
#672 = DIRECTION ( 'NONE',  ( -1.000000000000000000, -0.000000000000000000, -0.000000000000000000 ) ) ;
#673 = ORIENTED_EDGE ( 'NONE', *, *, #105, .T. ) ;
#674 = CARTESIAN_POINT ( 'NONE',  ( 0.000000000000000000, 0.000000000000000000, 0.000000000000000000 ) ) ;
#675 = DIRECTION ( 'NONE',  ( 0.000000000000000000, 0.000000000000000000, 1.000000000000000000 ) ) ;
#676 = EDGE_CURVE ( 'NONE', #79, #753, #359, .T. ) ;
#677 = ORIENTED_EDGE ( 'NONE', *, *, #505, .T. ) ;
#678 = VECTOR ( 'NONE', #731, 1000.000000000000000 ) ;
#679 = CIRCLE ( 'NONE', #74, 4.790000000000001812 ) ;
#680 = CALENDAR_DATE ( 2026, 12, 7 ) ;
#681 = DIRECTION ( 'NONE',  ( -1.000000000000000000, -0.000000000000000000, -0.000000000000000000 ) ) ;
#682 = CARTESIAN_POINT ( 'NONE',  ( 0.000000000000000000, 0.000000000000000000, 4.790000000000000924 ) ) ;
#683 = EDGE_LOOP ( 'NONE', ( #99, #978, #159, #609 ) ) ;
#684 = EDGE_CURVE ( 'NONE', #135, #402, #1032, .T. ) ;
#685 = MECHANICAL_CONTEXT ( 'NONE', #166, 'mechanical' ) ;
#686 = CARTESIAN_POINT ( 'NONE',  ( 26.00000000000000355, 0.000000000000000000, 0.000000000000000000 ) ) ;
#687 = LINE ( 'NONE', #433, #794 ) ;
#688 = ORIENTED_EDGE ( 'NONE', *, *, #355, .T. ) ;
#689 = CYLINDRICAL_SURFACE ( 'NONE', #192, 4.990000000000002878 ) ;
#690 = FACE_OUTER_BOUND ( 'NONE', #902, .T. ) ;
#691 = VERTEX_POINT ( 'NONE', #46 ) ;
#692 = AXIS2_PLACEMENT_3D ( 'NONE', #1029, #626, #224 ) ;
#693 = AXIS2_PLACEMENT_3D ( 'NONE', #909, #508, #204 ) ;
#694 = CARTESIAN_POINT ( 'NONE',  ( 14.00000000000000000, 0.000000000000000000, 0.000000000000000000 ) ) ;
#695 = VECTOR ( 'NONE', #573, 1000.000000000000000 ) ;
#696 = APPROVAL ( #185, 'UNSPECIFIED' ) ;
#697 = LINE ( 'NONE', #390, #879 ) ;
#698 = ORIENTED_EDGE ( 'NONE', *, *, #781, .T. ) ;
#699 = DIRECTION ( 'NONE',  ( 0.000000000000000000, 0.000000000000000000, 1.000000000000000000 ) ) ;
#700 = CARTESIAN_POINT ( 'NONE',  ( 26.00000000000000000, 0.000000000000000000, 0.000000000000000000 ) ) ;
#701 = EDGE_LOOP ( 'NONE', ( #716, #453 ) ) ;
#702 = ORIENTED_EDGE ( 'NONE', *, *, #355, .F. ) ;
#703 = DIRECTION ( 'NONE',  ( -1.000000000000000000, -0.000000000000000000, -0.000000000000000000 ) ) ;
#704 = CARTESIAN_POINT ( 'NONE',  ( 0.000000000000000000, 0.000000000000000000, 0.000000000000000000 ) ) ;
#705 = CARTESIAN_POINT ( 'NONE',  ( 14.00000000000000000, 2.000000000000002665, 7.228416147400479552 ) ) ;
#706 = ADVANCED_FACE ( 'NONE', ( #34 ), #585, .T. ) ;
#707 = ORIENTED_EDGE ( 'NONE', *, *, #209, .T. ) ;
#708 = DIRECTION ( 'NONE',  ( 0.000000000000000000, 0.000000000000000000, 1.000000000000000000 ) ) ;
#709 = AXIS2_PLACEMENT_3D ( 'NONE', #835, #606, #431 ) ;
#710 = DIRECTION ( 'NONE',  ( 0.000000000000000000, 0.000000000000000000, -1.000000000000000000 ) ) ;
#711 = ORIENTED_EDGE ( 'NONE', *, *, #524, .F. ) ;
#712 = EDGE_LOOP ( 'NONE', ( #848, #418, #396, #322, #257, #67, #357, #301 ) ) ;
#713 = CARTESIAN_POINT ( 'NONE',  ( 14.00000000000000000, 0.000000000000000000, 0.000000000000000000 ) ) ;
#714 = CYLINDRICAL_SURFACE ( 'NONE', #246, 4.790000000000006253 ) ;
#715 = CARTESIAN_POINT ( 'NONE',  ( 39.50000000000000711, 0.000000000000000000, 0.000000000000000000 ) ) ;
#716 = ORIENTED_EDGE ( 'NONE', *, *, #787, .T. ) ;
#717 = FACE_OUTER_BOUND ( 'NONE', #701, .T. ) ;
#718 = EDGE_CURVE ( 'NONE', #765, #777, #917, .T. ) ;
#719 = FACE_OUTER_BOUND ( 'NONE', #589, .T. ) ;
#720 = CARTESIAN_POINT ( 'NONE',  ( 0.000000000000000000, 0.000000000000000000, 0.000000000000000000 ) ) ;
#721 = ORIENTED_EDGE ( 'NONE', *, *, #906, .F. ) ;
#722 = CARTESIAN_POINT ( 'NONE',  ( 29.50000000000000000, 0.000000000000000000, 0.000000000000000000 ) ) ;
#723 = FACE_OUTER_BOUND ( 'NONE', #712, .T. ) ;
#724 = AXIS2_PLACEMENT_3D ( 'NONE', #101, #247, #262 ) ;
#725 = AXIS2_PLACEMENT_3D ( 'NONE', #947, #389, #230 ) ;
#726 = CARTESIAN_POINT ( 'NONE',  ( 0.000000000000000000, 5.866058167915823418E-16, -4.790000000000000924 ) ) ;
#727 = AXIS2_PLACEMENT_3D ( 'NONE', #715, #638, #561 ) ;
#728 = VERTEX_POINT ( 'NONE', #760 ) ;
#729 = AXIS2_PLACEMENT_3D ( 'NONE', #8, #884, #410 ) ;
#730 = CARTESIAN_POINT ( 'NONE',  ( 14.00000000000000000, -1.999999999999997335, -4.571662717217885863 ) ) ;
#731 = DIRECTION ( 'NONE',  ( -0.000000000000000000, -0.000000000000000000, 1.000000000000000000 ) ) ;
#732 = CARTESIAN_POINT ( 'NONE',  ( 24.00000000000000000, 2.000000000000002665, 7.228416147400479552 ) ) ;
#733 = VERTEX_POINT ( 'NONE', #208 ) ;
#734 = DIRECTION ( 'NONE',  ( -1.000000000000000000, -0.000000000000000000, -0.000000000000000000 ) ) ;
#735 = LINE ( 'NONE', #162, #678 ) ;
#736 = CARTESIAN_POINT ( 'NONE',  ( 29.50000000000000000, 0.000000000000000000, 0.000000000000000000 ) ) ;
#737 = EDGE_LOOP ( 'NONE', ( #339, #600, #956, #923, #226, #495 ) ) ;
#738 = ADVANCED_FACE ( 'NONE', ( #370 ), #118, .T. ) ;
#739 = DIRECTION ( 'NONE',  ( 1.000000000000000000, 0.000000000000000000, 0.000000000000000000 ) ) ;
#740 = CARTESIAN_POINT ( 'NONE',  ( 14.00000000000000000, 0.000000000000000000, 0.000000000000000000 ) ) ;
#741 = CARTESIAN_POINT ( 'NONE',  ( 0.000000000000000000, 0.000000000000000000, 0.000000000000000000 ) ) ;
#742 = CIRCLE ( 'NONE', #610, 4.990000000000001101 ) ;
#743 = ORIENTED_EDGE ( 'NONE', *, *, #313, .T. ) ;
#744 = AXIS2_PLACEMENT_3D ( 'NONE', #704, #621, #1021 ) ;
#745 = PERSON_AND_ORGANIZATION_ROLE ( 'design_supplier' ) ;
#746 = LINE ( 'NONE', #993, #965 ) ;
#747 = CARTESIAN_POINT ( 'NONE',  ( 0.000000000000000000, 6.110987527745305350E-16, -4.990000000000009983 ) ) ;
#748 = VERTEX_POINT ( 'NONE', #128 ) ;
#749 = APPROVAL_DATE_TIME ( #288, #654 ) ;
#750 = CARTESIAN_POINT ( 'NONE',  ( 0.000000000000000000, 0.000000000000000000, 0.000000000000000000 ) ) ;
#751 = ADVANCED_FACE ( 'NONE', ( #921, #1019 ), #940, .F. ) ;
#752 = DIRECTION ( 'NONE',  ( -1.000000000000000000, -0.000000000000000000, -0.000000000000000000 ) ) ;
#753 = VERTEX_POINT ( 'NONE', #220 ) ;
#754 = CALENDAR_DATE ( 2026, 12, 7 ) ;
#755 = CARTESIAN_POINT ( 'NONE',  ( 26.00000000000000355, 0.000000000000000000, -4.990000000000003766 ) ) ;
#756 = LINE ( 'NONE', #747, #349 ) ;
#757 = EDGE_LOOP ( 'NONE', ( #536, #17, #506, #547 ) ) ;
#758 = CIRCLE ( 'NONE', #725, 4.990000000000004654 ) ;
#759 = AXIS2_PLACEMENT_3D ( 'NONE', #720, #488, #88 ) ;
#760 = CARTESIAN_POINT ( 'NONE',  ( 38.50000000000000000, 5.866058167915829334E-16, -4.790000000000006253 ) ) ;
#761 = CARTESIAN_POINT ( 'NONE',  ( 14.00000000000000000, 0.000000000000000000, 0.000000000000000000 ) ) ;
#762 = EDGE_LOOP ( 'NONE', ( #1037, #297, #783, #698, #274, #986 ) ) ;
#763 = CARTESIAN_POINT ( 'NONE',  ( 4.000000000000000000, 5.866058167915824404E-16, -4.790000000000001812 ) ) ;
#764 = CARTESIAN_POINT ( 'NONE',  ( 14.00000000000000000, 0.000000000000000000, 7.490000000000001990 ) ) ;
#765 = VERTEX_POINT ( 'NONE', #538 ) ;
#766 = ADVANCED_FACE ( 'NONE', ( #473 ), #215, .T. ) ;
#767 = CC_DESIGN_DATE_AND_TIME_ASSIGNMENT ( #1008, #346, ( #173 ) ) ;
#768 = CARTESIAN_POINT ( 'NONE',  ( 0.000000000000000000, 0.000000000000000000, 0.000000000000000000 ) ) ;
#769 = DIRECTION ( 'NONE',  ( -1.000000000000000000, -0.000000000000000000, -0.000000000000000000 ) ) ;
#770 = ORIENTED_EDGE ( 'NONE', *, *, #925, .T. ) ;
#771 = VECTOR ( 'NONE', #19, 1000.000000000000000 ) ;
#772 = CIRCLE ( 'NONE', #578, 7.490000000000001990 ) ;
#773 = CARTESIAN_POINT ( 'NONE',  ( 0.000000000000000000, 2.000000000000002665, 7.218039900139096687 ) ) ;
#774 = AXIS2_PLACEMENT_3D ( 'NONE', #248, #811, #421 ) ;
#775 = AXIS2_PLACEMENT_3D ( 'NONE', #566, #168, #981 ) ;
#776 = DIRECTION ( 'NONE',  ( 0.000000000000000000, 0.000000000000000000, 1.000000000000000000 ) ) ;
#777 = VERTEX_POINT ( 'NONE', #137 ) ;
#778 = ORIENTED_EDGE ( 'NONE', *, *, #499, .F. ) ;
#779 = CARTESIAN_POINT ( 'NONE',  ( 3.000000000000000000, 0.000000000000000000, -4.790000000000000924 ) ) ;
#780 = CYLINDRICAL_SURFACE ( 'NONE', #331, 4.990000000000001101 ) ;
#781 = EDGE_CURVE ( 'NONE', #422, #6, #772, .T. ) ;
#782 = ORIENTED_EDGE ( 'NONE', *, *, #181, .F. ) ;
#783 = ORIENTED_EDGE ( 'NONE', *, *, #386, .T. ) ;
#784 = DIRECTION ( 'NONE',  ( 0.000000000000000000, 0.000000000000000000, 1.000000000000000000 ) ) ;
#785 = DIRECTION ( 'NONE',  ( 0.000000000000000000, 0.000000000000000000, 1.000000000000000000 ) ) ;
#786 = ORIENTED_EDGE ( 'NONE', *, *, #266, .T. ) ;
#787 = EDGE_CURVE ( 'NONE', #890, #615, #24, .T. ) ;
#788 = ORIENTED_EDGE ( 'NONE', *, *, #403, .F. ) ;
#789 = CARTESIAN_POINT ( 'NONE',  ( 30.50000000000000000, 0.000000000000000000, 0.000000000000000000 ) ) ;
#790 = AXIS2_PLACEMENT_3D ( 'NONE', #813, #254, #404 ) ;
#791 = FACE_OUTER_BOUND ( 'NONE', #237, .T. ) ;
#792 = CC_DESIGN_APPROVAL ( #654, ( #477 ) ) ;
#793 = AXIS2_PLACEMENT_3D ( 'NONE', #521, #603, #441 ) ;
#794 = VECTOR ( 'NONE', #111, 1000.000000000000000 ) ;
#795 = ORIENTED_EDGE ( 'NONE', *, *, #205, .F. ) ;
#796 = ORIENTED_EDGE ( 'NONE', *, *, #491, .T. ) ;
#797 = EDGE_CURVE ( 'NONE', #268, #574, #944, .T. ) ;
#798 = DIRECTION ( 'NONE',  ( 0.000000000000000000, 0.000000000000000000, 1.000000000000000000 ) ) ;
#799 = CARTESIAN_POINT ( 'NONE',  ( 30.50000000000000000, 0.000000000000000000, 0.000000000000000000 ) ) ;
#800 = DIRECTION ( 'NONE',  ( 0.000000000000000000, 0.000000000000000000, 1.000000000000000000 ) ) ;
#801 = ORIENTED_EDGE ( 'NONE', *, *, #35, .T. ) ;
#802 = CARTESIAN_POINT ( 'NONE',  ( 126.0000000000000000, 0.000000000000000000, 4.990000000000014424 ) ) ;
#803 = CC_DESIGN_PERSON_AND_ORGANIZATION_ASSIGNMENT ( #189, #745, ( #477 ) ) ;
#804 = DIRECTION ( 'NONE',  ( -1.000000000000000000, 0.000000000000000000, 0.000000000000000000 ) ) ;
#805 = LINE ( 'NONE', #187, #110 ) ;
#806 = ORIENTED_EDGE ( 'NONE', *, *, #1009, .T. ) ;
#807 = PLANE ( 'NONE',  #345 ) ;
#808 = FACE_OUTER_BOUND ( 'NONE', #833, .T. ) ;
#809 = AXIS2_PLACEMENT_3D ( 'NONE', #755, #515, #520 ) ;
#810 = AXIS2_PLACEMENT_3D ( 'NONE', #571, #490, #14 ) ;
#811 = DIRECTION ( 'NONE',  ( -1.000000000000000000, -0.000000000000000000, -0.000000000000000000 ) ) ;
#812 = ORIENTED_EDGE ( 'NONE', *, *, #815, .F. ) ;
#813 = CARTESIAN_POINT ( 'NONE',  ( 39.50000000000000000, 0.000000000000000000, 0.000000000000000000 ) ) ;
#814 = CARTESIAN_POINT ( 'NONE',  ( 1.224646799147250347E-18, 0.000000000000000000, 0.000000000000000000 ) ) ;
#815 = EDGE_CURVE ( 'NONE', #233, #777, #982, .T. ) ;
#816 = DIRECTION ( 'NONE',  ( -1.000000000000000000, -0.000000000000000000, -0.000000000000000000 ) ) ;
#817 = ORIENTED_EDGE ( 'NONE', *, *, #1039, .F. ) ;
#818 = APPROVAL_ROLE ( '' ) ;
#819 = DIRECTION ( 'NONE',  ( -1.000000000000000000, -0.000000000000000000, -0.000000000000000000 ) ) ;
#820 = CARTESIAN_POINT ( 'NONE',  ( 26.00000000000000355, 9.172604525613680109E-16, -7.490000000000003766 ) ) ;
#821 = ORIENTED_EDGE ( 'NONE', *, *, #554, .T. ) ;
#822 = MANIFOLD_SOLID_BREP ( 'Cut-Extrude8', #93 ) ;
#823 = FACE_OUTER_BOUND ( 'NONE', #158, .T. ) ;
#824 = PLANE ( 'NONE',  #793 ) ;
#825 = AXIS2_PLACEMENT_3D ( 'NONE', #954, #401, #138 ) ;
#826 = VECTOR ( 'NONE', #591, 1000.000000000000000 ) ;
#827 = ORIENTED_EDGE ( 'NONE', *, *, #229, .T. ) ;
#828 = AXIS2_PLACEMENT_3D ( 'NONE', #832, #841, #531 ) ;
#829 = AXIS2_PLACEMENT_3D ( 'NONE', #457, #300, #420 ) ;
#830 = EDGE_CURVE ( 'NONE', #943, #658, #644, .T. ) ;
#831 = DIRECTION ( 'NONE',  ( -1.000000000000000000, -0.000000000000000000, -0.000000000000000000 ) ) ;
#832 = CARTESIAN_POINT ( 'NONE',  ( 29.50000000000000000, 0.000000000000000000, -4.790000000000005365 ) ) ;
#833 = EDGE_LOOP ( 'NONE', ( #584, #991 ) ) ;
#834 = PERSON_AND_ORGANIZATION ( #315, #260 ) ;
#835 = CARTESIAN_POINT ( 'NONE',  ( 14.00000000000000000, 0.000000000000000000, 0.000000000000000000 ) ) ;
#836 = ADVANCED_FACE ( 'NONE', ( #307 ), #689, .T. ) ;
#837 = DIRECTION ( 'NONE',  ( -1.000000000000000000, -0.000000000000000000, -0.000000000000000000 ) ) ;
#838 = ORIENTED_EDGE ( 'NONE', *, *, #86, .F. ) ;
#839 = COORDINATED_UNIVERSAL_TIME_OFFSET ( 3, 30, .AHEAD. ) ;
#840 = PLANE ( 'NONE',  #41 ) ;
#841 = DIRECTION ( 'NONE',  ( -1.000000000000000000, 0.000000000000000000, -0.000000000000000000 ) ) ;
#842 = ORIENTED_EDGE ( 'NONE', *, *, #575, .F. ) ;
#843 = AXIS2_PLACEMENT_3D ( 'NONE', #883, #155, #650 ) ;
#844 = LOCAL_TIME ( 16, 7, 48.00000000000000000, #106 ) ;
#845 = DIRECTION ( 'NONE',  ( 0.000000000000000000, 0.000000000000000000, 1.000000000000000000 ) ) ;
#846 = FACE_BOUND ( 'NONE', #103, .T. ) ;
#847 = ADVANCED_FACE ( 'NONE', ( #1024 ), #1013, .F. ) ;
#848 = ORIENTED_EDGE ( 'NONE', *, *, #405, .T. ) ;
#849 = EDGE_CURVE ( 'NONE', #253, #574, #393, .T. ) ;
#850 = DIRECTION ( 'NONE',  ( -0.000000000000000000, 0.000000000000000000, 1.000000000000000000 ) ) ;
#851 = FACE_OUTER_BOUND ( 'NONE', #683, .T. ) ;
#852 = VERTEX_POINT ( 'NONE', #533 ) ;
#853 = DIRECTION ( 'NONE',  ( -1.000000000000000000, -0.000000000000000000, -0.000000000000000000 ) ) ;
#854 = DIRECTION ( 'NONE',  ( -1.000000000000000000, -0.000000000000000000, -0.000000000000000000 ) ) ;
#855 = VERTEX_POINT ( 'NONE', #133 ) ;
#856 = CC_DESIGN_SECURITY_CLASSIFICATION ( #173, ( #477 ) ) ;
#857 = EDGE_LOOP ( 'NONE', ( #788, #817 ) ) ;
#858 = CIRCLE ( 'NONE', #190, 4.990000000000002878 ) ;
#859 = VECTOR ( 'NONE', #96, 1000.000000000000000 ) ;
#860 = EDGE_CURVE ( 'NONE', #71, #765, #366, .T. ) ;
#861 = DIRECTION ( 'NONE',  ( 0.000000000000000000, 0.000000000000000000, 1.000000000000000000 ) ) ;
#862 = VECTOR ( 'NONE', #394, 1000.000000000000000 ) ;
#863 = CARTESIAN_POINT ( 'NONE',  ( 14.00000000000000000, 6.110987527745294503E-16, -4.990000000000001101 ) ) ;
#864 = LINE ( 'NONE', #705, #279 ) ;
#865 = ORIENTED_EDGE ( 'NONE', *, *, #787, .F. ) ;
#866 = DIRECTION ( 'NONE',  ( -1.000000000000000000, -0.000000000000000000, -0.000000000000000000 ) ) ;
#867 = EDGE_CURVE ( 'NONE', #629, #748, #329, .T. ) ;
#868 = CARTESIAN_POINT ( 'NONE',  ( 0.000000000000000000, 5.866058167915829334E-16, -4.790000000000006253 ) ) ;
#869 = VERTEX_POINT ( 'NONE', #384 ) ;
#870 = ORIENTED_EDGE ( 'NONE', *, *, #319, .F. ) ;
#871 = CARTESIAN_POINT ( 'NONE',  ( 0.000000000000000000, 0.000000000000000000, 4.990000000000004654 ) ) ;
#872 = CARTESIAN_POINT ( 'NONE',  ( 14.00000000000000000, 2.000000000000002665, 7.228416147400479552 ) ) ;
#873 = ADVANCED_BREP_SHAPE_REPRESENTATION ( 'Link2FrontShaft_Default_sldprt', ( #822, #496 ), #126 ) ;
#874 = ORIENTED_EDGE ( 'NONE', *, *, #271, .T. ) ;
#875 = ORIENTED_EDGE ( 'NONE', *, *, #989, .T. ) ;
#876 = CARTESIAN_POINT ( 'NONE',  ( 3.000000000000000000, 0.000000000000000000, 0.000000000000000000 ) ) ;
#877 = AXIS2_PLACEMENT_3D ( 'NONE', #957, #891, #502 ) ;
#878 = PLANE ( 'NONE',  #464 ) ;
#879 = VECTOR ( 'NONE', #467, 1000.000000000000000 ) ;
#880 = FACE_OUTER_BOUND ( 'NONE', #140, .T. ) ;
#881 = ORIENTED_EDGE ( 'NONE', *, *, #570, .F. ) ;
#882 = ADVANCED_FACE ( 'NONE', ( #302 ), #620, .T. ) ;
#883 = CARTESIAN_POINT ( 'NONE',  ( 24.00000000000000000, 0.000000000000000000, 0.000000000000000000 ) ) ;
#884 = DIRECTION ( 'NONE',  ( -1.000000000000000000, -0.000000000000000000, -0.000000000000000000 ) ) ;
#885 = FACE_OUTER_BOUND ( 'NONE', #377, .T. ) ;
#886 = ORIENTED_EDGE ( 'NONE', *, *, #119, .F. ) ;
#887 =( NAMED_UNIT ( * ) SI_UNIT ( $, .STERADIAN. ) SOLID_ANGLE_UNIT ( ) );
#888 = CARTESIAN_POINT ( 'NONE',  ( 4.000000000000000000, 0.000000000000000000, 0.000000000000000000 ) ) ;
#889 = CARTESIAN_POINT ( 'NONE',  ( 1.224646799147250347E-18, 0.000000000000000000, 0.000000000000000000 ) ) ;
#890 = VERTEX_POINT ( 'NONE', #935 ) ;
#891 = DIRECTION ( 'NONE',  ( 1.000000000000000000, 0.000000000000000000, 0.000000000000000000 ) ) ;
#892 = EDGE_CURVE ( 'NONE', #765, #71, #758, .T. ) ;
#893 = CARTESIAN_POINT ( 'NONE',  ( 126.0000000000000000, 0.000000000000000000, 0.000000000000000000 ) ) ;
#894 = VECTOR ( 'NONE', #440, 1000.000000000000000 ) ;
#895 = LOCAL_TIME ( 16, 7, 48.00000000000000000, #839 ) ;
#896 = DIRECTION ( 'NONE',  ( 0.000000000000000000, 0.000000000000000000, 1.000000000000000000 ) ) ;
#897 = CIRCLE ( 'NONE', #462, 4.990000000000000213 ) ;
#898 = ORIENTED_EDGE ( 'NONE', *, *, #183, .T. ) ;
#899 = FACE_OUTER_BOUND ( 'NONE', #51, .T. ) ;
#900 = CYLINDRICAL_SURFACE ( 'NONE', #427, 4.990000000000000213 ) ;
#901 = DIRECTION ( 'NONE',  ( -1.000000000000000000, -0.000000000000000000, -0.000000000000000000 ) ) ;
#902 = EDGE_LOOP ( 'NONE', ( #1012, #563, #434, #886 ) ) ;
#903 = SECURITY_CLASSIFICATION_LEVEL ( 'unclassified' ) ;
#904 = DIRECTION ( 'NONE',  ( -1.000000000000000000, -0.000000000000000000, -0.000000000000000000 ) ) ;
#905 = FACE_OUTER_BOUND ( 'NONE', #522, .T. ) ;
#906 = EDGE_CURVE ( 'NONE', #855, #471, #742, .T. ) ;
#907 = ORIENTED_EDGE ( 'NONE', *, *, #989, .F. ) ;
#908 = SHAPE_DEFINITION_REPRESENTATION ( #178, #873 ) ;
#909 = CARTESIAN_POINT ( 'NONE',  ( 24.00000000000000000, 2.000000000000002665, 7.228416147400479552 ) ) ;
#910 = CARTESIAN_POINT ( 'NONE',  ( 0.000000000000000000, 0.000000000000000000, 0.000000000000000000 ) ) ;
#911 = AXIS2_PLACEMENT_3D ( 'NONE', #280, #368, #36 ) ;
#912 = AXIS2_PLACEMENT_3D ( 'NONE', #59, #466, #611 ) ;
#913 = EDGE_LOOP ( 'NONE', ( #344, #56, #392, #145, #188, #969, #73, #382 ) ) ;
#914 = AXIS2_PLACEMENT_3D ( 'NONE', #669, #411, #5 ) ;
#915 = CIRCLE ( 'NONE', #692, 7.490000000000002878 ) ;
#916 = PERSON_AND_ORGANIZATION ( #315, #260 ) ;
#917 = LINE ( 'NONE', #602, #928 ) ;
#918 = FACE_OUTER_BOUND ( 'NONE', #214, .T. ) ;
#919 = ORIENTED_EDGE ( 'NONE', *, *, #491, .F. ) ;
#920 = CALENDAR_DATE ( 2026, 12, 7 ) ;
#921 = FACE_OUTER_BOUND ( 'NONE', #541, .T. ) ;
#922 = CARTESIAN_POINT ( 'NONE',  ( 0.000000000000000000, 6.110987527745294503E-16, -4.990000000000001101 ) ) ;
#923 = ORIENTED_EDGE ( 'NONE', *, *, #601, .T. ) ;
#924 = DIRECTION ( 'NONE',  ( -1.000000000000000000, -0.000000000000000000, -0.000000000000000000 ) ) ;
#925 = EDGE_CURVE ( 'NONE', #71, #233, #314, .T. ) ;
#926 = DIRECTION ( 'NONE',  ( -1.000000000000000000, -0.000000000000000000, -0.000000000000000000 ) ) ;
#927 = VERTEX_POINT ( 'NONE', #640 ) ;
#928 = VECTOR ( 'NONE', #200, 1000.000000000000000 ) ;
#929 = APPROVAL_PERSON_ORGANIZATION ( #834, #607, #352 ) ;
#930 = AXIS2_PLACEMENT_3D ( 'NONE', #661, #163, #583 ) ;
#931 = VECTOR ( 'NONE', #994, 1000.000000000000000 ) ;
#932 = DIRECTION ( 'NONE',  ( -0.000000000000000000, 0.000000000000000000, 1.000000000000000000 ) ) ;
#933 = CARTESIAN_POINT ( 'NONE',  ( 14.00000000000000000, 2.000000000000002665, -7.218039900139096687 ) ) ;
#934 = ORIENTED_EDGE ( 'NONE', *, *, #945, .F. ) ;
#935 = CARTESIAN_POINT ( 'NONE',  ( 39.50000000000000711, 0.000000000000000000, 4.990000000000004654 ) ) ;
#936 = CARTESIAN_POINT ( 'NONE',  ( 126.0000000000000000, 6.110987527745311266E-16, -4.990000000000014424 ) ) ;
#937 = EDGE_LOOP ( 'NONE', ( #139, #489 ) ) ;
#938 = ADVANCED_FACE ( 'NONE', ( #636, #975 ), #419, .F. ) ;
#939 = VERTEX_POINT ( 'NONE', #80 ) ;
#940 = PLANE ( 'NONE',  #475 ) ;
#941 = CARTESIAN_POINT ( 'NONE',  ( 24.00000000000000000, 2.000000000000002665, -7.218039900139096687 ) ) ;
#942 = LINE ( 'NONE', #310, #430 ) ;
#943 = VERTEX_POINT ( 'NONE', #730 ) ;
#944 = CIRCLE ( 'NONE', #494, 7.490000000000001990 ) ;
#945 = EDGE_CURVE ( 'NONE', #312, #1027, #171, .T. ) ;
#946 = AXIS2_PLACEMENT_3D ( 'NONE', #451, #681, #528 ) ;
#947 = CARTESIAN_POINT ( 'NONE',  ( 38.50000000000000000, 0.000000000000000000, 0.000000000000000000 ) ) ;
#948 = AXIS2_PLACEMENT_3D ( 'NONE', #12, #500, #504 ) ;
#949 = CARTESIAN_POINT ( 'NONE',  ( 14.00000000000000000, 9.172604525613678137E-16, -7.490000000000001990 ) ) ;
#950 = CARTESIAN_POINT ( 'NONE',  ( 14.00000000000000000, -1.999999999999997335, -7.218039900139096687 ) ) ;
#951 = PRODUCT ( 'Link2FrontShaft_Default_sldprt', 'Link2FrontShaft_Default_sldprt', '', ( #685 ) ) ;
#952 = VERTEX_POINT ( 'NONE', #979 ) ;
#953 = CARTESIAN_POINT ( 'NONE',  ( 0.000000000000000000, 0.000000000000000000, 0.000000000000000000 ) ) ;
#954 = CARTESIAN_POINT ( 'NONE',  ( 14.00000000000000000, 0.000000000000000000, 0.000000000000000000 ) ) ;
#955 = ORIENTED_EDGE ( 'NONE', *, *, #403, .T. ) ;
#956 = ORIENTED_EDGE ( 'NONE', *, *, #570, .T. ) ;
#957 = CARTESIAN_POINT ( 'NONE',  ( 30.50000000000000000, 0.000000000000000000, -4.990000000000004654 ) ) ;
#958 = CARTESIAN_POINT ( 'NONE',  ( 3.000000000000000000, 5.866058167915823418E-16, -4.790000000000000924 ) ) ;
#959 = EDGE_CURVE ( 'NONE', #1031, #318, #414, .T. ) ;
#960 = CC_DESIGN_PERSON_AND_ORGANIZATION_ASSIGNMENT ( #590, #275, ( #173 ) ) ;
#961 = EDGE_LOOP ( 'NONE', ( #472, #244, #548, #413, #898, #48 ) ) ;
#962 = ORIENTED_EDGE ( 'NONE', *, *, #125, .F. ) ;
#963 = AXIS2_PLACEMENT_3D ( 'NONE', #893, #15, #660 ) ;
#964 = DIRECTION ( 'NONE',  ( 0.000000000000000000, 0.000000000000000000, 1.000000000000000000 ) ) ;
#965 = VECTOR ( 'NONE', #523, 1000.000000000000000 ) ;
#966 = FACE_BOUND ( 'NONE', #37, .T. ) ;
#967 = CIRCLE ( 'NONE', #963, 4.990000000000014424 ) ;
#968 = DIRECTION ( 'NONE',  ( 0.000000000000000000, 0.000000000000000000, 1.000000000000000000 ) ) ;
#969 = ORIENTED_EDGE ( 'NONE', *, *, #271, .F. ) ;
#970 = DIRECTION ( 'NONE',  ( 0.000000000000000000, 0.000000000000000000, 1.000000000000000000 ) ) ;
#971 = DIRECTION ( 'NONE',  ( 0.000000000000000000, 0.000000000000000000, 1.000000000000000000 ) ) ;
#972 = CARTESIAN_POINT ( 'NONE',  ( 4.000000000000000000, 0.000000000000000000, 4.990000000000001101 ) ) ;
#973 = ORIENTED_EDGE ( 'NONE', *, *, #340, .T. ) ;
#974 = EDGE_CURVE ( 'NONE', #532, #362, #124, .T. ) ;
#975 = FACE_OUTER_BOUND ( 'NONE', #1, .T. ) ;
#976 = DIRECTION ( 'NONE',  ( -1.000000000000000000, -0.000000000000000000, -0.000000000000000000 ) ) ;
#977 = DIRECTION ( 'NONE',  ( 0.000000000000000000, 0.000000000000000000, 1.000000000000000000 ) ) ;
#978 = ORIENTED_EDGE ( 'NONE', *, *, #1039, .T. ) ;
#979 = CARTESIAN_POINT ( 'NONE',  ( 4.000000000000000000, 6.110987527745294503E-16, -4.990000000000001101 ) ) ;
#980 = ADVANCED_FACE ( 'NONE', ( #18 ), #161, .F. ) ;
#981 = DIRECTION ( 'NONE',  ( 0.000000000000000000, 0.000000000000000000, -1.000000000000000000 ) ) ;
#982 = CIRCLE ( 'NONE', #364, 4.990000000000004654 ) ;
#983 = CC_DESIGN_APPROVAL ( #696, ( #481 ) ) ;
#984 = DIRECTION ( 'NONE',  ( -1.000000000000000000, -0.000000000000000000, -0.000000000000000000 ) ) ;
#985 = CIRCLE ( 'NONE', #530, 4.990000000000000213 ) ;
#986 = ORIENTED_EDGE ( 'NONE', *, *, #555, .F. ) ;
#987 = EDGE_CURVE ( 'NONE', #748, #629, #679, .T. ) ;
#988 = CARTESIAN_POINT ( 'NONE',  ( 0.000000000000000000, 5.866058167915829334E-16, -4.790000000000006253 ) ) ;
#989 = EDGE_CURVE ( 'NONE', #1023, #622, #227, .T. ) ;
#990 = LINE ( 'NONE', #726, #399 ) ;
#991 = ORIENTED_EDGE ( 'NONE', *, *, #35, .F. ) ;
#992 = CARTESIAN_POINT ( 'NONE',  ( 0.000000000000000000, 0.000000000000000000, 0.000000000000000000 ) ) ;
#993 = CARTESIAN_POINT ( 'NONE',  ( 0.000000000000000000, 0.000000000000000000, 4.790000000000006253 ) ) ;
#994 = DIRECTION ( 'NONE',  ( -1.000000000000000000, -0.000000000000000000, -0.000000000000000000 ) ) ;
#995 = CC_DESIGN_PERSON_AND_ORGANIZATION_ASSIGNMENT ( #916, #439, ( #481 ) ) ;
#996 = ORIENTED_EDGE ( 'NONE', *, *, #668, .T. ) ;
#997 = PERSON_AND_ORGANIZATION ( #315, #260 ) ;
#998 = DIRECTION ( 'NONE',  ( 0.000000000000000000, 0.000000000000000000, 1.000000000000000000 ) ) ;
#999 = FACE_BOUND ( 'NONE', #468, .T. ) ;
#1000 = AXIS2_PLACEMENT_3D ( 'NONE', #143, #66, #710 ) ;
#1001 = AXIS2_PLACEMENT_3D ( 'NONE', #722, #165, #964 ) ;
#1002 = ORIENTED_EDGE ( 'NONE', *, *, #183, .F. ) ;
#1003 = AXIS2_PLACEMENT_3D ( 'NONE', #700, #769, #785 ) ;
#1004 = APPLICATION_PROTOCOL_DEFINITION ( 'international standard', 'config_control_design', 1994, #454 ) ;
#1005 = CARTESIAN_POINT ( 'NONE',  ( 14.00000000000000000, -1.999999999999997335, 7.228416147400479552 ) ) ;
#1006 = DIRECTION ( 'NONE',  ( 0.000000000000000000, 0.000000000000000000, 1.000000000000000000 ) ) ;
#1007 = EDGE_LOOP ( 'NONE', ( #670, #207 ) ) ;
#1008 = DATE_AND_TIME ( #754, #1033 ) ;
#1009 = EDGE_CURVE ( 'NONE', #663, #268, #395, .T. ) ;
#1010 = FACE_OUTER_BOUND ( 'NONE', #913, .T. ) ;
#1011 = LINE ( 'NONE', #210, #75 ) ;
#1012 = ORIENTED_EDGE ( 'NONE', *, *, #313, .F. ) ;
#1013 = PLANE ( 'NONE',  #309 ) ;
#1014 = CYLINDRICAL_SURFACE ( 'NONE', #298, 4.790000000000006253 ) ;
#1015 = ORIENTED_EDGE ( 'NONE', *, *, #867, .T. ) ;
#1016 = VECTOR ( 'NONE', #597, 1000.000000000000000 ) ;
#1017 = CIRCLE ( 'NONE', #727, 4.990000000000004654 ) ;
#1018 = CIRCLE ( 'NONE', #156, 4.990000000000003766 ) ;
#1019 = FACE_BOUND ( 'NONE', #937, .T. ) ;
#1020 = EDGE_CURVE ( 'NONE', #2, #691, #211, .T. ) ;
#1021 = DIRECTION ( 'NONE',  ( 0.000000000000000000, 0.000000000000000000, 1.000000000000000000 ) ) ;
#1022 = ADVANCED_FACE ( 'NONE', ( #659, #717 ), #807, .F. ) ;
#1023 = VERTEX_POINT ( 'NONE', #400 ) ;
#1024 = FACE_OUTER_BOUND ( 'NONE', #485, .T. ) ;
#1025 = CARTESIAN_POINT ( 'NONE',  ( 0.000000000000000000, 0.000000000000000000, 4.790000000000006253 ) ) ;
#1026 = ORIENTED_EDGE ( 'NONE', *, *, #459, .F. ) ;
#1027 = VERTEX_POINT ( 'NONE', #802 ) ;
#1028 = DIRECTION ( 'NONE',  ( -1.000000000000000000, 0.000000000000000000, -0.000000000000000000 ) ) ;
#1029 = CARTESIAN_POINT ( 'NONE',  ( 26.00000000000000355, 0.000000000000000000, 0.000000000000000000 ) ) ;
#1030 = FACE_BOUND ( 'NONE', #1007, .T. ) ;
#1031 = VERTEX_POINT ( 'NONE', #90 ) ;
#1032 = CIRCLE ( 'NONE', #258, 7.490000000000002878 ) ;
#1033 = LOCAL_TIME ( 16, 7, 48.00000000000000000, #45 ) ;
#1034 = DIRECTION ( 'NONE',  ( 0.000000000000000000, 0.000000000000000000, 1.000000000000000000 ) ) ;
#1035 = AXIS2_PLACEMENT_3D ( 'NONE', #736, #984, #800 ) ;
#1036 = CARTESIAN_POINT ( 'NONE',  ( 29.50000000000000000, 0.000000000000000000, 4.790000000000005365 ) ) ;
#1037 = ORIENTED_EDGE ( 'NONE', *, *, #666, .F. ) ;
#1038 = EDGE_LOOP ( 'NONE', ( #630, #238 ) ) ;
#1039 = EDGE_CURVE ( 'NONE', #398, #196, #580, .T. ) ;
#1040 = ADVANCED_FACE ( 'NONE', ( #899 ), #565, .T. ) ;
#1041 = CARTESIAN_POINT ( 'NONE',  ( 0.000000000000000000, 0.000000000000000000, 0.000000000000000000 ) ) ;
ENDSEC;
END-ISO-10303-21;
