ISO-10303-21;
HEADER;
FILE_DESCRIPTION (( 'STEP AP203' ),
    '1' );
FILE_NAME ('Link3Shaft_Default_sldprt.STEP',
    '2026-07-12T11:27:19',
    ( '' ),
    ( '' ),
    'SwSTEP 2.0',
    'SolidWorks 2025',
    '' );
FILE_SCHEMA (( 'CONFIG_CONTROL_DESIGN' ));
ENDSEC;

DATA;
#1 =( NAMED_UNIT ( * ) SI_UNIT ( $, .STERADIAN. ) SOLID_ANGLE_UNIT ( ) );
#2 = LOCAL_TIME ( 14, 57, 19.00000000000000000, #6 ) ;
#3 = CARTESIAN_POINT ( 'NONE',  ( 0.000000000000000000, 0.000000000000000000, 0.000000000000000000 ) ) ;
#4 = ADVANCED_FACE ( 'NONE', ( #103 ), #33, .T. ) ;
#5 = LINE ( 'NONE', #58, #175 ) ;
#6 = COORDINATED_UNIVERSAL_TIME_OFFSET ( 3, 30, .AHEAD. ) ;
#7 = APPROVAL_PERSON_ORGANIZATION ( #150, #102, #73 ) ;
#8 = PERSON_AND_ORGANIZATION ( #151, #121 ) ;
#9 = SHAPE_DEFINITION_REPRESENTATION ( #172, #38 ) ;
#10 = CALENDAR_DATE ( 2026, 12, 7 ) ;
#11 = APPLICATION_CONTEXT ( 'configuration controlled 3d designs of mechanical parts and assemblies' ) ;
#12 = CIRCLE ( 'NONE', #20, 4.999999999999999112 ) ;
#13 = CC_DESIGN_PERSON_AND_ORGANIZATION_ASSIGNMENT ( #47, #136, ( #140 ) ) ;
#14 = ORIENTED_EDGE ( 'NONE', *, *, #137, .T. ) ;
#15 = DESIGN_CONTEXT ( 'detailed design', #69, 'design' ) ;
#16 = AXIS2_PLACEMENT_3D ( 'NONE', #147, #57, #135 ) ;
#17 =( LENGTH_UNIT ( ) NAMED_UNIT ( * ) SI_UNIT ( .MILLI., .METRE. ) );
#18 = PERSON_AND_ORGANIZATION ( #151, #121 ) ;
#19 = DIRECTION ( 'NONE',  ( 0.000000000000000000, 0.000000000000000000, 1.000000000000000000 ) ) ;
#20 = AXIS2_PLACEMENT_3D ( 'NONE', #81, #56, #82 ) ;
#21 = CC_DESIGN_SECURITY_CLASSIFICATION ( #132, ( #140 ) ) ;
#22 = APPROVAL_ROLE ( '' ) ;
#23 = APPROVAL_ROLE ( '' ) ;
#24 = ADVANCED_FACE ( 'NONE', ( #34 ), #78, .T. ) ;
#25 = AXIS2_PLACEMENT_3D ( 'NONE', #143, #64, #53 ) ;
#26 = AXIS2_PLACEMENT_3D ( 'NONE', #41, #27, #127 ) ;
#27 = DIRECTION ( 'NONE',  ( 0.000000000000000000, 0.000000000000000000, 1.000000000000000000 ) ) ;
#28 = CARTESIAN_POINT ( 'NONE',  ( -4.999999999999999112, 0.000000000000000000, 0.000000000000000000 ) ) ;
#29 = DIRECTION ( 'NONE',  ( 0.000000000000000000, 0.000000000000000000, 1.000000000000000000 ) ) ;
#30 = DIRECTION ( 'NONE',  ( 1.000000000000000000, 0.000000000000000000, 0.000000000000000000 ) ) ;
#31 = DATE_AND_TIME ( #171, #2 ) ;
#32 = APPROVAL_STATUS ( 'not_yet_approved' ) ;
#33 = CYLINDRICAL_SURFACE ( 'NONE', #25, 4.999999999999999112 ) ;
#34 = FACE_OUTER_BOUND ( 'NONE', #52, .T. ) ;
#35 = VERTEX_POINT ( 'NONE', #131 ) ;
#36 = PLANE ( 'NONE',  #70 ) ;
#37 = CIRCLE ( 'NONE', #111, 4.999999999999999112 ) ;
#38 = ADVANCED_BREP_SHAPE_REPRESENTATION ( 'Link3Shaft_Default_sldprt', ( #113, #26 ), #97 ) ;
#39 = PRODUCT ( 'Link3Shaft_Default_sldprt', 'Link3Shaft_Default_sldprt', '', ( #40 ) ) ;
#40 = MECHANICAL_CONTEXT ( 'NONE', #11, 'mechanical' ) ;
#41 = CARTESIAN_POINT ( 'NONE',  ( 0.000000000000000000, 0.000000000000000000, 0.000000000000000000 ) ) ;
#42 = APPROVAL_PERSON_ORGANIZATION ( #8, #108, #23 ) ;
#43 = COORDINATED_UNIVERSAL_TIME_OFFSET ( 3, 30, .AHEAD. ) ;
#44 = PERSON_AND_ORGANIZATION ( #151, #121 ) ;
#45 = EDGE_LOOP ( 'NONE', ( #174, #145 ) ) ;
#46 = COORDINATED_UNIVERSAL_TIME_OFFSET ( 3, 30, .AHEAD. ) ;
#47 = PERSON_AND_ORGANIZATION ( #151, #121 ) ;
#48 = CIRCLE ( 'NONE', #77, 4.999999999999999112 ) ;
#49 = APPROVAL_PERSON_ORGANIZATION ( #94, #90, #22 ) ;
#50 = CIRCLE ( 'NONE', #116, 4.999999999999999112 ) ;
#51 = ORIENTED_EDGE ( 'NONE', *, *, #134, .T. ) ;
#52 = EDGE_LOOP ( 'NONE', ( #101, #51, #159, #170 ) ) ;
#53 = DIRECTION ( 'NONE',  ( -1.000000000000000000, 0.000000000000000000, 0.000000000000000000 ) ) ;
#54 = DIRECTION ( 'NONE',  ( 1.000000000000000000, 0.000000000000000000, 0.000000000000000000 ) ) ;
#55 = EDGE_CURVE ( 'NONE', #63, #114, #48, .T. ) ;
#56 = DIRECTION ( 'NONE',  ( 0.000000000000000000, 0.000000000000000000, 1.000000000000000000 ) ) ;
#57 = DIRECTION ( 'NONE',  ( -0.000000000000000000, -0.000000000000000000, -1.000000000000000000 ) ) ;
#58 = CARTESIAN_POINT ( 'NONE',  ( 4.999999999999999112, 6.123233995736764310E-16, 95.09999999999999432 ) ) ;
#59 = APPROVAL_DATE_TIME ( #156, #102 ) ;
#60 = DATE_AND_TIME ( #120, #162 ) ;
#61 = PERSON_AND_ORGANIZATION_ROLE ( 'creator' ) ;
#62 = CC_DESIGN_PERSON_AND_ORGANIZATION_ASSIGNMENT ( #44, #61, ( #140 ) ) ;
#63 = VERTEX_POINT ( 'NONE', #105 ) ;
#64 = DIRECTION ( 'NONE',  ( -0.000000000000000000, -0.000000000000000000, -1.000000000000000000 ) ) ;
#65 = LINE ( 'NONE', #129, #80 ) ;
#66 = PERSON_AND_ORGANIZATION_ROLE ( 'design_owner' ) ;
#67 = CARTESIAN_POINT ( 'NONE',  ( 0.000000000000000000, 0.000000000000000000, 95.09999999999999432 ) ) ;
#68 = COORDINATED_UNIVERSAL_TIME_OFFSET ( 3, 30, .AHEAD. ) ;
#69 = APPLICATION_CONTEXT ( 'configuration controlled 3d designs of mechanical parts and assemblies' ) ;
#70 = AXIS2_PLACEMENT_3D ( 'NONE', #3, #91, #133 ) ;
#71 = APPROVAL_DATE_TIME ( #154, #90 ) ;
#72 = PRODUCT_RELATED_PRODUCT_CATEGORY ( 'detail', '', ( #39 ) ) ;
#73 = APPROVAL_ROLE ( '' ) ;
#74 = LOCAL_TIME ( 14, 57, 19.00000000000000000, #68 ) ;
#75 = DATE_TIME_ROLE ( 'creation_date' ) ;
#76 = ADVANCED_FACE ( 'NONE', ( #83 ), #36, .F. ) ;
#77 = AXIS2_PLACEMENT_3D ( 'NONE', #149, #118, #161 ) ;
#78 = CYLINDRICAL_SURFACE ( 'NONE', #16, 4.999999999999999112 ) ;
#79 = EDGE_CURVE ( 'NONE', #89, #35, #12, .T. ) ;
#80 = VECTOR ( 'NONE', #110, 1000.000000000000000 ) ;
#81 = CARTESIAN_POINT ( 'NONE',  ( 0.000000000000000000, 0.000000000000000000, 0.000000000000000000 ) ) ;
#82 = DIRECTION ( 'NONE',  ( 1.000000000000000000, 0.000000000000000000, 0.000000000000000000 ) ) ;
#83 = FACE_OUTER_BOUND ( 'NONE', #155, .T. ) ;
#84 = CALENDAR_DATE ( 2026, 12, 7 ) ;
#85 = PERSON_AND_ORGANIZATION ( #151, #121 ) ;
#86 = ADVANCED_FACE ( 'NONE', ( #109 ), #107, .T. ) ;
#87 = DATE_AND_TIME ( #10, #74 ) ;
#88 = ORIENTED_EDGE ( 'NONE', *, *, #126, .F. ) ;
#89 = VERTEX_POINT ( 'NONE', #28 ) ;
#90 = APPROVAL ( #148, 'UNSPECIFIED' ) ;
#91 = DIRECTION ( 'NONE',  ( 0.000000000000000000, 0.000000000000000000, 1.000000000000000000 ) ) ;
#92 = CC_DESIGN_APPROVAL ( #90, ( #142 ) ) ;
#93 = CARTESIAN_POINT ( 'NONE',  ( -4.999999999999999112, 0.000000000000000000, 95.09999999999999432 ) ) ;
#94 = PERSON_AND_ORGANIZATION ( #151, #121 ) ;
#95 = DATE_TIME_ROLE ( 'classification_date' ) ;
#96 = CC_DESIGN_DATE_AND_TIME_ASSIGNMENT ( #87, #75, ( #142 ) ) ;
#97 =( GEOMETRIC_REPRESENTATION_CONTEXT ( 3 ) GLOBAL_UNCERTAINTY_ASSIGNED_CONTEXT ( ( #115 ) ) GLOBAL_UNIT_ASSIGNED_CONTEXT ( ( #17, #167, #1 ) ) REPRESENTATION_CONTEXT ( 'NONE', 'WORKASPACE' ) );
#98 = EDGE_LOOP ( 'NONE', ( #144, #88, #14, #125 ) ) ;
#99 = APPROVAL_STATUS ( 'not_yet_approved' ) ;
#100 = LOCAL_TIME ( 14, 57, 19.00000000000000000, #152 ) ;
#101 = ORIENTED_EDGE ( 'NONE', *, *, #55, .F. ) ;
#102 = APPROVAL ( #99, 'UNSPECIFIED' ) ;
#103 = FACE_OUTER_BOUND ( 'NONE', #98, .T. ) ;
#104 = CC_DESIGN_PERSON_AND_ORGANIZATION_ASSIGNMENT ( #18, #66, ( #39 ) ) ;
#105 = CARTESIAN_POINT ( 'NONE',  ( 4.999999999999999112, 6.123233995736764310E-16, 95.09999999999999432 ) ) ;
#106 = APPLICATION_PROTOCOL_DEFINITION ( 'international standard', 'config_control_design', 1994, #11 ) ;
#107 = PLANE ( 'NONE',  #141 ) ;
#108 = APPROVAL ( #32, 'UNSPECIFIED' ) ;
#109 = FACE_OUTER_BOUND ( 'NONE', #45, .T. ) ;
#110 = DIRECTION ( 'NONE',  ( -0.000000000000000000, -0.000000000000000000, -1.000000000000000000 ) ) ;
#111 = AXIS2_PLACEMENT_3D ( 'NONE', #67, #117, #30 ) ;
#112 = PERSON_AND_ORGANIZATION ( #151, #121 ) ;
#113 = MANIFOLD_SOLID_BREP ( 'Boss-Extrude1', #130 ) ;
#114 = VERTEX_POINT ( 'NONE', #93 ) ;
#115 = UNCERTAINTY_MEASURE_WITH_UNIT (LENGTH_MEASURE( 1.000000000000000082E-05 ), #17, 'distance_accuracy_value', 'NONE');
#116 = AXIS2_PLACEMENT_3D ( 'NONE', #163, #29, #54 ) ;
#117 = DIRECTION ( 'NONE',  ( 0.000000000000000000, 0.000000000000000000, 1.000000000000000000 ) ) ;
#118 = DIRECTION ( 'NONE',  ( 0.000000000000000000, 0.000000000000000000, 1.000000000000000000 ) ) ;
#119 = DIRECTION ( 'NONE',  ( 1.000000000000000000, 0.000000000000000000, -0.000000000000000000 ) ) ;
#120 = CALENDAR_DATE ( 2026, 12, 7 ) ;
#121 = ORGANIZATION ( 'UNSPECIFIED', 'UNSPECIFIED', '' ) ;
#122 = CC_DESIGN_APPROVAL ( #102, ( #132 ) ) ;
#123 = PERSON_AND_ORGANIZATION_ROLE ( 'creator' ) ;
#124 = CC_DESIGN_APPROVAL ( #108, ( #140 ) ) ;
#125 = ORIENTED_EDGE ( 'NONE', *, *, #79, .T. ) ;
#126 = EDGE_CURVE ( 'NONE', #114, #63, #37, .T. ) ;
#127 = DIRECTION ( 'NONE',  ( 1.000000000000000000, 0.000000000000000000, 0.000000000000000000 ) ) ;
#128 = CC_DESIGN_PERSON_AND_ORGANIZATION_ASSIGNMENT ( #112, #139, ( #132 ) ) ;
#129 = CARTESIAN_POINT ( 'NONE',  ( -4.999999999999999112, 0.000000000000000000, 95.09999999999999432 ) ) ;
#130 = CLOSED_SHELL ( 'NONE', ( #24, #4, #86, #76 ) ) ;
#131 = CARTESIAN_POINT ( 'NONE',  ( 4.999999999999999112, 6.123233995736764310E-16, 0.000000000000000000 ) ) ;
#132 = SECURITY_CLASSIFICATION ( '', '', #157 ) ;
#133 = DIRECTION ( 'NONE',  ( 1.000000000000000000, 0.000000000000000000, -0.000000000000000000 ) ) ;
#134 = EDGE_CURVE ( 'NONE', #63, #35, #5, .T. ) ;
#135 = DIRECTION ( 'NONE',  ( -1.000000000000000000, 0.000000000000000000, 0.000000000000000000 ) ) ;
#136 = PERSON_AND_ORGANIZATION_ROLE ( 'design_supplier' ) ;
#137 = EDGE_CURVE ( 'NONE', #114, #89, #65, .T. ) ;
#138 = APPROVAL_DATE_TIME ( #31, #108 ) ;
#139 = PERSON_AND_ORGANIZATION_ROLE ( 'classification_officer' ) ;
#140 = PRODUCT_DEFINITION_FORMATION_WITH_SPECIFIED_SOURCE ( 'ANY', '', #39, .NOT_KNOWN. ) ;
#141 = AXIS2_PLACEMENT_3D ( 'NONE', #146, #19, #119 ) ;
#142 = PRODUCT_DEFINITION ( 'UNKNOWN', '', #140, #15 ) ;
#143 = CARTESIAN_POINT ( 'NONE',  ( 0.000000000000000000, 0.000000000000000000, 95.09999999999999432 ) ) ;
#144 = ORIENTED_EDGE ( 'NONE', *, *, #134, .F. ) ;
#145 = ORIENTED_EDGE ( 'NONE', *, *, #55, .T. ) ;
#146 = CARTESIAN_POINT ( 'NONE',  ( 0.000000000000000000, 0.000000000000000000, 95.09999999999999432 ) ) ;
#147 = CARTESIAN_POINT ( 'NONE',  ( 0.000000000000000000, 0.000000000000000000, 95.09999999999999432 ) ) ;
#148 = APPROVAL_STATUS ( 'not_yet_approved' ) ;
#149 = CARTESIAN_POINT ( 'NONE',  ( 0.000000000000000000, 0.000000000000000000, 95.09999999999999432 ) ) ;
#150 = PERSON_AND_ORGANIZATION ( #151, #121 ) ;
#151 = PERSON ( 'UNSPECIFIED', 'UNSPECIFIED', 'UNSPECIFIED', ('UNSPECIFIED'), ('UNSPECIFIED'), ('UNSPECIFIED') ) ;
#152 = COORDINATED_UNIVERSAL_TIME_OFFSET ( 3, 30, .AHEAD. ) ;
#153 = LOCAL_TIME ( 14, 57, 19.00000000000000000, #46 ) ;
#154 = DATE_AND_TIME ( #168, #153 ) ;
#155 = EDGE_LOOP ( 'NONE', ( #158, #173 ) ) ;
#156 = DATE_AND_TIME ( #84, #100 ) ;
#157 = SECURITY_CLASSIFICATION_LEVEL ( 'unclassified' ) ;
#158 = ORIENTED_EDGE ( 'NONE', *, *, #79, .F. ) ;
#159 = ORIENTED_EDGE ( 'NONE', *, *, #160, .T. ) ;
#160 = EDGE_CURVE ( 'NONE', #35, #89, #50, .T. ) ;
#161 = DIRECTION ( 'NONE',  ( 1.000000000000000000, 0.000000000000000000, 0.000000000000000000 ) ) ;
#162 = LOCAL_TIME ( 14, 57, 19.00000000000000000, #43 ) ;
#163 = CARTESIAN_POINT ( 'NONE',  ( 0.000000000000000000, 0.000000000000000000, 0.000000000000000000 ) ) ;
#164 = APPLICATION_PROTOCOL_DEFINITION ( 'international standard', 'config_control_design', 1994, #69 ) ;
#165 = CC_DESIGN_PERSON_AND_ORGANIZATION_ASSIGNMENT ( #85, #123, ( #142 ) ) ;
#166 = DIRECTION ( 'NONE',  ( -0.000000000000000000, -0.000000000000000000, -1.000000000000000000 ) ) ;
#167 =( NAMED_UNIT ( * ) PLANE_ANGLE_UNIT ( ) SI_UNIT ( $, .RADIAN. ) );
#168 = CALENDAR_DATE ( 2026, 12, 7 ) ;
#169 = CC_DESIGN_DATE_AND_TIME_ASSIGNMENT ( #60, #95, ( #132 ) ) ;
#170 = ORIENTED_EDGE ( 'NONE', *, *, #137, .F. ) ;
#171 = CALENDAR_DATE ( 2026, 12, 7 ) ;
#172 = PRODUCT_DEFINITION_SHAPE ( 'NONE', 'NONE',  #142 ) ;
#173 = ORIENTED_EDGE ( 'NONE', *, *, #160, .F. ) ;
#174 = ORIENTED_EDGE ( 'NONE', *, *, #126, .T. ) ;
#175 = VECTOR ( 'NONE', #166, 1000.000000000000000 ) ;
ENDSEC;
END-ISO-10303-21;
