ISO-10303-21;
HEADER;
FILE_DESCRIPTION (( 'STEP AP203' ),
    '1' );
FILE_NAME ('Link3LShapeConnectorBig_Default_sldprt.STEP',
    '2026-07-12T12:37:51',
    ( '' ),
    ( '' ),
    'SwSTEP 2.0',
    'SolidWorks 2025',
    '' );
FILE_SCHEMA (( 'CONFIG_CONTROL_DESIGN' ));
ENDSEC;

DATA;
#1 = EDGE_CURVE ( 'NONE', #403, #76, #679, .T. ) ;
#2 = CARTESIAN_POINT ( 'NONE',  ( -35.29411764705885446, -20.00000000000000000, 66.17647058823531836 ) ) ;
#3 = ORIENTED_EDGE ( 'NONE', *, *, #197, .T. ) ;
#4 = AXIS2_PLACEMENT_3D ( 'NONE', #723, #232, #41 ) ;
#5 = APPROVAL_PERSON_ORGANIZATION ( #517, #824, #659 ) ;
#6 = CARTESIAN_POINT ( 'NONE',  ( 10.00000000000000000, -20.00000000000000000, 74.33034373659256744 ) ) ;
#7 = DIRECTION ( 'NONE',  ( 0.000000000000000000, 0.000000000000000000, -1.000000000000000000 ) ) ;
#8 = EDGE_CURVE ( 'NONE', #368, #148, #201, .T. ) ;
#9 = EDGE_CURVE ( 'NONE', #488, #599, #898, .T. ) ;
#10 = VERTEX_POINT ( 'NONE', #71 ) ;
#11 = CARTESIAN_POINT ( 'NONE',  ( 30.00000000000000000, -20.00000000000000000, -129.3303437365925390 ) ) ;
#12 = CARTESIAN_POINT ( 'NONE',  ( 30.00000000000000355, -20.00000000000000000, 75.00000000000005684 ) ) ;
#13 = DIRECTION ( 'NONE',  ( 0.000000000000000000, 1.000000000000000000, 0.000000000000000000 ) ) ;
#14 = FACE_OUTER_BOUND ( 'NONE', #251, .T. ) ;
#15 = AXIS2_PLACEMENT_3D ( 'NONE', #770, #555, #429 ) ;
#16 = EDGE_CURVE ( 'NONE', #817, #751, #207, .T. ) ;
#17 = AXIS2_PLACEMENT_3D ( 'NONE', #158, #435, #171 ) ;
#18 = DIRECTION ( 'NONE',  ( 0.000000000000000000, 0.000000000000000000, -1.000000000000000000 ) ) ;
#19 = DIRECTION ( 'NONE',  ( 0.000000000000000000, 1.000000000000000000, 0.000000000000000000 ) ) ;
#20 = FACE_OUTER_BOUND ( 'NONE', #139, .T. ) ;
#21 = CC_DESIGN_DATE_AND_TIME_ASSIGNMENT ( #666, #454, ( #115 ) ) ;
#22 = CARTESIAN_POINT ( 'NONE',  ( 9.999999999999998224, 0.000000000000000000, -129.3303437365925390 ) ) ;
#23 = CARTESIAN_POINT ( 'NONE',  ( 7.347880794884123089E-15, -20.00000000000000000, -60.00000000000002842 ) ) ;
#24 = DIRECTION ( 'NONE',  ( 0.000000000000000000, 0.000000000000000000, -1.000000000000000000 ) ) ;
#25 = EDGE_LOOP ( 'NONE', ( #704, #243, #763, #650 ) ) ;
#26 = EDGE_CURVE ( 'NONE', #342, #716, #827, .T. ) ;
#27 = LINE ( 'NONE', #165, #431 ) ;
#28 =( NAMED_UNIT ( * ) PLANE_ANGLE_UNIT ( ) SI_UNIT ( $, .RADIAN. ) );
#29 = CARTESIAN_POINT ( 'NONE',  ( -10.00000000000000000, -20.00000000000000000, -149.3303437365925390 ) ) ;
#30 = ORIENTED_EDGE ( 'NONE', *, *, #417, .F. ) ;
#31 = LINE ( 'NONE', #656, #231 ) ;
#32 = VECTOR ( 'NONE', #212, 1000.000000000000000 ) ;
#33 = DIRECTION ( 'NONE',  ( 0.000000000000000000, 1.000000000000000000, 0.000000000000000000 ) ) ;
#34 = CARTESIAN_POINT ( 'NONE',  ( 0.000000000000000000, 20.00000000000000000, -75.00000000000002842 ) ) ;
#35 = ORIENTED_EDGE ( 'NONE', *, *, #427, .T. ) ;
#36 = LINE ( 'NONE', #363, #664 ) ;
#37 = ADVANCED_FACE ( 'NONE', ( #757 ), #154, .F. ) ;
#38 = PERSON_AND_ORGANIZATION_ROLE ( 'design_supplier' ) ;
#39 = LINE ( 'NONE', #518, #547 ) ;
#40 = VERTEX_POINT ( 'NONE', #294 ) ;
#41 = DIRECTION ( 'NONE',  ( 0.000000000000000000, 0.000000000000000000, -1.000000000000000000 ) ) ;
#42 = DIRECTION ( 'NONE',  ( -0.000000000000000000, -1.000000000000000000, -0.000000000000000000 ) ) ;
#43 = ORIENTED_EDGE ( 'NONE', *, *, #499, .F. ) ;
#44 = AXIS2_PLACEMENT_3D ( 'NONE', #617, #819, #821 ) ;
#45 = APPROVAL_DATE_TIME ( #746, #824 ) ;
#46 = DIRECTION ( 'NONE',  ( 0.000000000000000000, 1.000000000000000000, 0.000000000000000000 ) ) ;
#47 = AXIS2_PLACEMENT_3D ( 'NONE', #235, #773, #434 ) ;
#48 = EDGE_CURVE ( 'NONE', #616, #416, #116, .T. ) ;
#49 = ORIENTED_EDGE ( 'NONE', *, *, #16, .T. ) ;
#50 = VERTEX_POINT ( 'NONE', #159 ) ;
#51 = AXIS2_PLACEMENT_3D ( 'NONE', #93, #364, #640 ) ;
#52 = ADVANCED_FACE ( 'NONE', ( #564 ), #571, .F. ) ;
#53 = PERSON_AND_ORGANIZATION ( #468, #432 ) ;
#54 = CARTESIAN_POINT ( 'NONE',  ( -30.00000000000000000, -20.00000000000000000, -129.3303437365925390 ) ) ;
#55 = ORIENTED_EDGE ( 'NONE', *, *, #339, .F. ) ;
#56 = VERTEX_POINT ( 'NONE', #145 ) ;
#57 = PERSON_AND_ORGANIZATION_ROLE ( 'creator' ) ;
#58 = CARTESIAN_POINT ( 'NONE',  ( -30.00000000000000000, -20.00000000000000000, -149.3303437365925390 ) ) ;
#59 = ORIENTED_EDGE ( 'NONE', *, *, #544, .T. ) ;
#60 = CARTESIAN_POINT ( 'NONE',  ( 0.000000000000000000, -20.00000000000000000, 60.00000000000002842 ) ) ;
#61 = CIRCLE ( 'NONE', #318, 75.00000000000002842 ) ;
#62 = AXIS2_PLACEMENT_3D ( 'NONE', #168, #180, #436 ) ;
#63 = PRODUCT_RELATED_PRODUCT_CATEGORY ( 'detail', '', ( #550 ) ) ;
#64 = ORIENTED_EDGE ( 'NONE', *, *, #369, .T. ) ;
#65 = AXIS2_PLACEMENT_3D ( 'NONE', #348, #481, #549 ) ;
#66 = CARTESIAN_POINT ( 'NONE',  ( 10.00000000000000000, 0.000000000000000000, -74.33034373659255323 ) ) ;
#67 = EDGE_CURVE ( 'NONE', #253, #751, #703, .T. ) ;
#68 = ORIENTED_EDGE ( 'NONE', *, *, #223, .T. ) ;
#69 = ORIENTED_EDGE ( 'NONE', *, *, #499, .T. ) ;
#70 = CARTESIAN_POINT ( 'NONE',  ( -10.00000000000000000, -20.00000000000000000, -74.33034373659256744 ) ) ;
#71 = CARTESIAN_POINT ( 'NONE',  ( -30.00000000000000000, -20.00000000000000000, -129.3303437365925390 ) ) ;
#72 = VERTEX_POINT ( 'NONE', #12 ) ;
#73 = CARTESIAN_POINT ( 'NONE',  ( 10.00000000000000000, 0.000000000000000000, 74.33034373659255323 ) ) ;
#74 = CARTESIAN_POINT ( 'NONE',  ( 0.000000000000000000, -20.00000000000000000, 0.000000000000000000 ) ) ;
#75 = VECTOR ( 'NONE', #685, 1000.000000000000000 ) ;
#76 = VERTEX_POINT ( 'NONE', #89 ) ;
#77 = CIRCLE ( 'NONE', #192, 20.00000000000000355 ) ;
#78 = AXIS2_PLACEMENT_3D ( 'NONE', #422, #19, #227 ) ;
#79 = CARTESIAN_POINT ( 'NONE',  ( 0.000000000000000000, -20.00000000000000000, 0.000000000000000000 ) ) ;
#80 = CARTESIAN_POINT ( 'NONE',  ( 9.999999999999998224, -20.00000000000000000, 129.3303437365925390 ) ) ;
#81 = ORIENTED_EDGE ( 'NONE', *, *, #665, .T. ) ;
#82 = ADVANCED_FACE ( 'NONE', ( #280 ), #219, .T. ) ;
#83 = CARTESIAN_POINT ( 'NONE',  ( 30.00000000000000355, 0.000000000000000000, 75.00000000000007105 ) ) ;
#84 = CARTESIAN_POINT ( 'NONE',  ( -9.999999999999998224, 0.000000000000000000, 129.3303437365925390 ) ) ;
#85 = EDGE_CURVE ( 'NONE', #662, #404, #271, .T. ) ;
#86 = DIRECTION ( 'NONE',  ( -4.304967625839547785E-17, 0.000000000000000000, 1.000000000000000000 ) ) ;
#87 = EDGE_CURVE ( 'NONE', #111, #716, #61, .T. ) ;
#88 = FACE_OUTER_BOUND ( 'NONE', #186, .T. ) ;
#89 = CARTESIAN_POINT ( 'NONE',  ( 0.000000000000000000, -20.00000000000000000, -75.00000000000004263 ) ) ;
#90 = VECTOR ( 'NONE', #308, 1000.000000000000000 ) ;
#91 = CIRCLE ( 'NONE', #505, 60.00000000000002842 ) ;
#92 = FACE_OUTER_BOUND ( 'NONE', #673, .T. ) ;
#93 = CARTESIAN_POINT ( 'NONE',  ( 0.000000000000000000, 0.000000000000000000, 0.000000000000000000 ) ) ;
#94 = CARTESIAN_POINT ( 'NONE',  ( 0.000000000000000000, 20.00000000000000000, 0.000000000000000000 ) ) ;
#95 = FACE_BOUND ( 'NONE', #408, .T. ) ;
#96 = DIRECTION ( 'NONE',  ( 0.000000000000000000, 0.000000000000000000, -1.000000000000000000 ) ) ;
#97 = CARTESIAN_POINT ( 'NONE',  ( 10.00000000000000000, -20.00000000000000000, -149.3303437365925390 ) ) ;
#98 = ORIENTED_EDGE ( 'NONE', *, *, #87, .T. ) ;
#99 = CARTESIAN_POINT ( 'NONE',  ( -9.999999999999998224, -20.00000000000000000, 129.3303437365925390 ) ) ;
#100 = CARTESIAN_POINT ( 'NONE',  ( -10.00000000000000000, 0.000000000000000000, -149.3303437365925390 ) ) ;
#101 = VERTEX_POINT ( 'NONE', #349 ) ;
#102 = AXIS2_PLACEMENT_3D ( 'NONE', #390, #141, #683 ) ;
#103 = ADVANCED_FACE ( 'NONE', ( #689 ), #360, .F. ) ;
#104 = AXIS2_PLACEMENT_3D ( 'NONE', #531, #893, #672 ) ;
#105 = DIRECTION ( 'NONE',  ( 0.000000000000000000, 0.000000000000000000, 1.000000000000000000 ) ) ;
#106 = CIRCLE ( 'NONE', #776, 75.00000000000004263 ) ;
#107 = CARTESIAN_POINT ( 'NONE',  ( -30.00000000000000000, 0.000000000000000000, -129.3303437365925390 ) ) ;
#108 = EDGE_LOOP ( 'NONE', ( #302, #530, #552, #524 ) ) ;
#109 = DIRECTION ( 'NONE',  ( 0.000000000000000000, -1.000000000000000000, 0.000000000000000000 ) ) ;
#110 = CARTESIAN_POINT ( 'NONE',  ( -10.00000000000000000, -20.00000000000000000, 74.33034373659255323 ) ) ;
#111 = VERTEX_POINT ( 'NONE', #419 ) ;
#112 = ORIENTED_EDGE ( 'NONE', *, *, #362, .F. ) ;
#113 = DIRECTION ( 'NONE',  ( -0.000000000000000000, -1.000000000000000000, -0.000000000000000000 ) ) ;
#114 = VERTEX_POINT ( 'NONE', #638 ) ;
#115 = PRODUCT_DEFINITION ( 'UNKNOWN', '', #387, #799 ) ;
#116 = CIRCLE ( 'NONE', #347, 75.00000000000004263 ) ;
#117 = CIRCLE ( 'NONE', #621, 9.999999999999994671 ) ;
#118 = CIRCLE ( 'NONE', #319, 75.00000000000002842 ) ;
#119 = DIRECTION ( 'NONE',  ( -4.304967625839548401E-17, -0.000000000000000000, 1.000000000000000000 ) ) ;
#120 =( GEOMETRIC_REPRESENTATION_CONTEXT ( 3 ) GLOBAL_UNCERTAINTY_ASSIGNED_CONTEXT ( ( #379 ) ) GLOBAL_UNIT_ASSIGNED_CONTEXT ( ( #570, #28, #846 ) ) REPRESENTATION_CONTEXT ( 'NONE', 'WORKASPACE' ) );
#121 = ADVANCED_FACE ( 'NONE', ( #20 ), #765, .T. ) ;
#122 = ORIENTED_EDGE ( 'NONE', *, *, #730, .T. ) ;
#123 = DIRECTION ( 'NONE',  ( -0.000000000000000000, -1.000000000000000000, -0.000000000000000000 ) ) ;
#124 = VERTEX_POINT ( 'NONE', #566 ) ;
#125 = ORIENTED_EDGE ( 'NONE', *, *, #783, .T. ) ;
#126 = DATE_AND_TIME ( #325, #137 ) ;
#127 = FACE_OUTER_BOUND ( 'NONE', #790, .T. ) ;
#128 = ORIENTED_EDGE ( 'NONE', *, *, #866, .T. ) ;
#129 = ORIENTED_EDGE ( 'NONE', *, *, #448, .F. ) ;
#130 = EDGE_CURVE ( 'NONE', #731, #101, #359, .T. ) ;
#131 = CARTESIAN_POINT ( 'NONE',  ( 35.29411764705884735, -20.00000000000000000, 66.17647058823531836 ) ) ;
#132 = AXIS2_PLACEMENT_3D ( 'NONE', #80, #225, #708 ) ;
#133 = CIRCLE ( 'NONE', #691, 60.00000000000002842 ) ;
#134 = ORIENTED_EDGE ( 'NONE', *, *, #783, .F. ) ;
#135 = DIRECTION ( 'NONE',  ( 0.000000000000000000, 1.000000000000000000, 0.000000000000000000 ) ) ;
#136 = AXIS2_PLACEMENT_3D ( 'NONE', #777, #33, #507 ) ;
#137 = LOCAL_TIME ( 16, 7, 51.00000000000000000, #809 ) ;
#138 = DIRECTION ( 'NONE',  ( 0.000000000000000000, -1.000000000000000000, 0.000000000000000000 ) ) ;
#139 = EDGE_LOOP ( 'NONE', ( #676, #68, #446, #217 ) ) ;
#140 = ADVANCED_FACE ( 'NONE', ( #695 ), #847, .T. ) ;
#141 = DIRECTION ( 'NONE',  ( 0.000000000000000000, 1.000000000000000000, 0.000000000000000000 ) ) ;
#142 = FACE_OUTER_BOUND ( 'NONE', #216, .T. ) ;
#143 = DIRECTION ( 'NONE',  ( -1.000000000000000000, 0.000000000000000000, 0.000000000000000000 ) ) ;
#144 = LINE ( 'NONE', #412, #260 ) ;
#145 = CARTESIAN_POINT ( 'NONE',  ( 30.00000000000000355, -20.00000000000000000, -75.00000000000005684 ) ) ;
#146 = VECTOR ( 'NONE', #526, 1000.000000000000000 ) ;
#147 = EDGE_CURVE ( 'NONE', #114, #578, #353, .T. ) ;
#148 = VERTEX_POINT ( 'NONE', #698 ) ;
#149 = AXIS2_PLACEMENT_3D ( 'NONE', #489, #706, #18 ) ;
#150 = DIRECTION ( 'NONE',  ( 0.000000000000000000, 0.000000000000000000, -1.000000000000000000 ) ) ;
#151 = DIRECTION ( 'NONE',  ( 0.000000000000000000, 0.000000000000000000, 1.000000000000000000 ) ) ;
#152 = DIRECTION ( 'NONE',  ( 0.000000000000000000, 1.000000000000000000, 0.000000000000000000 ) ) ;
#153 = DIRECTION ( 'NONE',  ( 0.000000000000000000, 0.000000000000000000, -1.000000000000000000 ) ) ;
#154 = CYLINDRICAL_SURFACE ( 'NONE', #737, 60.00000000000002842 ) ;
#155 = ORIENTED_EDGE ( 'NONE', *, *, #8, .T. ) ;
#156 = EDGE_CURVE ( 'NONE', #597, #889, #753, .T. ) ;
#157 = CARTESIAN_POINT ( 'NONE',  ( 10.00000000000000000, 0.000000000000000000, -74.33034373659255323 ) ) ;
#158 = CARTESIAN_POINT ( 'NONE',  ( 40.00000000000000711, -20.00000000000000000, 75.00000000000001421 ) ) ;
#159 = CARTESIAN_POINT ( 'NONE',  ( 7.347880794884123089E-15, 0.000000000000000000, -60.00000000000002842 ) ) ;
#160 = EDGE_LOOP ( 'NONE', ( #668, #220, #835, #64 ) ) ;
#161 = AXIS2_PLACEMENT_3D ( 'NONE', #193, #123, #462 ) ;
#162 = VECTOR ( 'NONE', #119, 1000.000000000000000 ) ;
#163 = AXIS2_PLACEMENT_3D ( 'NONE', #370, #727, #791 ) ;
#164 = ADVANCED_FACE ( 'NONE', ( #14 ), #288, .F. ) ;
#165 = CARTESIAN_POINT ( 'NONE',  ( -10.00000000000000000, -20.00000000000000000, -74.33034373659255323 ) ) ;
#166 = PLANE ( 'NONE',  #779 ) ;
#167 = ORIENTED_EDGE ( 'NONE', *, *, #448, .T. ) ;
#168 = CARTESIAN_POINT ( 'NONE',  ( -10.00000000000000000, -20.00000000000000000, 74.33034373659255323 ) ) ;
#169 = ORIENTED_EDGE ( 'NONE', *, *, #630, .F. ) ;
#170 = DIRECTION ( 'NONE',  ( 0.000000000000000000, -1.000000000000000000, 0.000000000000000000 ) ) ;
#171 = DIRECTION ( 'NONE',  ( 0.000000000000000000, 0.000000000000000000, -1.000000000000000000 ) ) ;
#172 = CARTESIAN_POINT ( 'NONE',  ( 10.00000000000000000, -20.00000000000000000, -74.33034373659255323 ) ) ;
#173 = ORIENTED_EDGE ( 'NONE', *, *, #130, .F. ) ;
#174 = DIRECTION ( 'NONE',  ( 0.000000000000000000, 0.000000000000000000, -1.000000000000000000 ) ) ;
#175 = DIRECTION ( 'NONE',  ( 4.304967625839548401E-17, -0.000000000000000000, -1.000000000000000000 ) ) ;
#176 = ORIENTED_EDGE ( 'NONE', *, *, #798, .T. ) ;
#177 = CARTESIAN_POINT ( 'NONE',  ( -35.29411764705882604, 0.000000000000000000, -66.17647058823531836 ) ) ;
#178 = CIRCLE ( 'NONE', #707, 19.99999999999998934 ) ;
#179 = APPROVAL_DATE_TIME ( #126, #554 ) ;
#180 = DIRECTION ( 'NONE',  ( 1.000000000000000000, -0.000000000000000000, 0.000000000000000000 ) ) ;
#181 = ORIENTED_EDGE ( 'NONE', *, *, #633, .F. ) ;
#182 = CARTESIAN_POINT ( 'NONE',  ( -10.00000000000000000, 0.000000000000000000, -74.33034373659255323 ) ) ;
#183 = APPROVAL_STATUS ( 'not_yet_approved' ) ;
#184 = CARTESIAN_POINT ( 'NONE',  ( 0.000000000000000000, 20.00000000000000000, 0.000000000000000000 ) ) ;
#185 = EDGE_CURVE ( 'NONE', #324, #743, #523, .T. ) ;
#186 = EDGE_LOOP ( 'NONE', ( #894, #515, #396, #167, #721, #682, #204, #176, #373, #59, #465, #285, #378, #338, #609, #486, #884, #527, #269, #463, #812 ) ) ;
#187 = SHAPE_DEFINITION_REPRESENTATION ( #433, #309 ) ;
#188 = FACE_OUTER_BOUND ( 'NONE', #678, .T. ) ;
#189 = ORIENTED_EDGE ( 'NONE', *, *, #230, .T. ) ;
#190 = ORIENTED_EDGE ( 'NONE', *, *, #838, .T. ) ;
#191 = DATE_AND_TIME ( #450, #873 ) ;
#192 = AXIS2_PLACEMENT_3D ( 'NONE', #22, #800, #105 ) ;
#193 = CARTESIAN_POINT ( 'NONE',  ( 0.000000000000000000, 20.00000000000000000, 0.000000000000000000 ) ) ;
#194 = VECTOR ( 'NONE', #502, 1000.000000000000000 ) ;
#195 = ORIENTED_EDGE ( 'NONE', *, *, #473, .T. ) ;
#196 = VERTEX_POINT ( 'NONE', #586 ) ;
#197 = EDGE_CURVE ( 'NONE', #731, #256, #794, .T. ) ;
#198 = PERSON_AND_ORGANIZATION_ROLE ( 'creator' ) ;
#199 = LINE ( 'NONE', #392, #534 ) ;
#200 = VERTEX_POINT ( 'NONE', #107 ) ;
#201 = LINE ( 'NONE', #205, #244 ) ;
#202 = ADVANCED_FACE ( 'NONE', ( #789 ), #865, .T. ) ;
#203 = DIRECTION ( 'NONE',  ( 0.000000000000000000, 1.000000000000000000, 0.000000000000000000 ) ) ;
#204 = ORIENTED_EDGE ( 'NONE', *, *, #1, .T. ) ;
#205 = CARTESIAN_POINT ( 'NONE',  ( -30.00000000000000355, 20.00000000000000000, -75.00000000000001421 ) ) ;
#206 = CARTESIAN_POINT ( 'NONE',  ( 0.000000000000000000, -20.00000000000000000, 0.000000000000000000 ) ) ;
#207 = CIRCLE ( 'NONE', #102, 75.00000000000002842 ) ;
#208 = ADVANCED_FACE ( 'NONE', ( #228 ), #455, .T. ) ;
#209 = CIRCLE ( 'NONE', #828, 75.00000000000004263 ) ;
#210 = CARTESIAN_POINT ( 'NONE',  ( 35.29411764705884735, 20.00000000000000000, -66.17647058823531836 ) ) ;
#211 = AXIS2_PLACEMENT_3D ( 'NONE', #380, #718, #585 ) ;
#212 = DIRECTION ( 'NONE',  ( 0.000000000000000000, 0.000000000000000000, -1.000000000000000000 ) ) ;
#213 = DIRECTION ( 'NONE',  ( 0.000000000000000000, 1.000000000000000000, 0.000000000000000000 ) ) ;
#214 = CARTESIAN_POINT ( 'NONE',  ( 10.00000000000000000, -20.00000000000000000, 149.3303437365925390 ) ) ;
#215 = CARTESIAN_POINT ( 'NONE',  ( -10.00000000000000000, 0.000000000000000000, -74.33034373659255323 ) ) ;
#216 = EDGE_LOOP ( 'NONE', ( #749, #189, #425, #528 ) ) ;
#217 = ORIENTED_EDGE ( 'NONE', *, *, #26, .T. ) ;
#218 = DIRECTION ( 'NONE',  ( 0.000000000000000000, 0.000000000000000000, -1.000000000000000000 ) ) ;
#219 = CYLINDRICAL_SURFACE ( 'NONE', #634, 75.00000000000002842 ) ;
#220 = ORIENTED_EDGE ( 'NONE', *, *, #675, .T. ) ;
#221 = LINE ( 'NONE', #631, #535 ) ;
#222 = DIRECTION ( 'NONE',  ( -0.000000000000000000, -1.000000000000000000, -0.000000000000000000 ) ) ;
#223 = EDGE_CURVE ( 'NONE', #111, #383, #247, .T. ) ;
#224 = CARTESIAN_POINT ( 'NONE',  ( 0.000000000000000000, 0.000000000000000000, 0.000000000000000000 ) ) ;
#225 = DIRECTION ( 'NONE',  ( 0.000000000000000000, -1.000000000000000000, 0.000000000000000000 ) ) ;
#226 = DIRECTION ( 'NONE',  ( 0.000000000000000000, 0.000000000000000000, -1.000000000000000000 ) ) ;
#227 = DIRECTION ( 'NONE',  ( 0.000000000000000000, 0.000000000000000000, 1.000000000000000000 ) ) ;
#228 = FACE_OUTER_BOUND ( 'NONE', #393, .T. ) ;
#229 = ORIENTED_EDGE ( 'NONE', *, *, #249, .F. ) ;
#230 = EDGE_CURVE ( 'NONE', #892, #404, #117, .T. ) ;
#231 = VECTOR ( 'NONE', #642, 1000.000000000000000 ) ;
#232 = DIRECTION ( 'NONE',  ( 0.000000000000000000, -1.000000000000000000, 0.000000000000000000 ) ) ;
#233 = DIRECTION ( 'NONE',  ( 0.000000000000000000, 0.000000000000000000, 1.000000000000000000 ) ) ;
#234 = ORIENTED_EDGE ( 'NONE', *, *, #185, .F. ) ;
#235 = CARTESIAN_POINT ( 'NONE',  ( 0.000000000000000000, -20.00000000000000000, 0.000000000000000000 ) ) ;
#236 = CARTESIAN_POINT ( 'NONE',  ( -10.00000000000000000, 0.000000000000000000, 149.3303437365925390 ) ) ;
#237 = CARTESIAN_POINT ( 'NONE',  ( 30.00000000000000000, -20.00000000000000000, -149.3303437365925390 ) ) ;
#238 = ADVANCED_FACE ( 'NONE', ( #590 ), #733, .T. ) ;
#239 = ORIENTED_EDGE ( 'NONE', *, *, #480, .T. ) ;
#240 = CARTESIAN_POINT ( 'NONE',  ( -10.00000000000000000, -20.00000000000000000, 74.33034373659255323 ) ) ;
#241 = COORDINATED_UNIVERSAL_TIME_OFFSET ( 3, 30, .AHEAD. ) ;
#242 = DIRECTION ( 'NONE',  ( 0.000000000000000000, 0.000000000000000000, -1.000000000000000000 ) ) ;
#243 = ORIENTED_EDGE ( 'NONE', *, *, #722, .T. ) ;
#244 = VECTOR ( 'NONE', #546, 1000.000000000000000 ) ;
#245 = FACE_OUTER_BOUND ( 'NONE', #614, .T. ) ;
#246 = CIRCLE ( 'NONE', #754, 9.999999999999994671 ) ;
#247 = LINE ( 'NONE', #870, #258 ) ;
#248 = ORIENTED_EDGE ( 'NONE', *, *, #464, .T. ) ;
#249 = EDGE_CURVE ( 'NONE', #148, #200, #778, .T. ) ;
#250 = SECURITY_CLASSIFICATION_LEVEL ( 'unclassified' ) ;
#251 = EDGE_LOOP ( 'NONE', ( #587, #786, #606, #470 ) ) ;
#252 = LINE ( 'NONE', #736, #146 ) ;
#253 = VERTEX_POINT ( 'NONE', #100 ) ;
#254 = ORIENTED_EDGE ( 'NONE', *, *, #844, .T. ) ;
#255 = DIRECTION ( 'NONE',  ( 0.000000000000000000, -1.000000000000000000, 0.000000000000000000 ) ) ;
#256 = VERTEX_POINT ( 'NONE', #850 ) ;
#257 = EDGE_LOOP ( 'NONE', ( #604, #181, #3, #125 ) ) ;
#258 = VECTOR ( 'NONE', #113, 1000.000000000000000 ) ;
#259 = PERSON_AND_ORGANIZATION ( #468, #432 ) ;
#260 = VECTOR ( 'NONE', #418, 1000.000000000000000 ) ;
#261 = LINE ( 'NONE', #476, #75 ) ;
#262 = ADVANCED_FACE ( 'NONE', ( #504 ), #444, .T. ) ;
#263 = ORIENTED_EDGE ( 'NONE', *, *, #730, .F. ) ;
#264 = ORIENTED_EDGE ( 'NONE', *, *, #1, .F. ) ;
#265 = LINE ( 'NONE', #157, #871 ) ;
#266 = ORIENTED_EDGE ( 'NONE', *, *, #573, .F. ) ;
#267 = VERTEX_POINT ( 'NONE', #715 ) ;
#268 = DIRECTION ( 'NONE',  ( 0.000000000000000000, -1.000000000000000000, 0.000000000000000000 ) ) ;
#269 = ORIENTED_EDGE ( 'NONE', *, *, #197, .F. ) ;
#270 = ORIENTED_EDGE ( 'NONE', *, *, #775, .F. ) ;
#271 = CIRCLE ( 'NONE', #445, 75.00000000000002842 ) ;
#272 = CARTESIAN_POINT ( 'NONE',  ( -40.00000000000000711, 20.00000000000000000, 75.00000000000001421 ) ) ;
#273 = VECTOR ( 'NONE', #268, 1000.000000000000000 ) ;
#274 = APPLICATION_CONTEXT ( 'configuration controlled 3d designs of mechanical parts and assemblies' ) ;
#275 = CIRCLE ( 'NONE', #78, 19.99999999999998934 ) ;
#276 = ORIENTED_EDGE ( 'NONE', *, *, #67, .F. ) ;
#277 = VECTOR ( 'NONE', #443, 1000.000000000000000 ) ;
#278 = ADVANCED_FACE ( 'NONE', ( #857 ), #367, .F. ) ;
#279 = LINE ( 'NONE', #355, #32 ) ;
#280 = FACE_OUTER_BOUND ( 'NONE', #333, .T. ) ;
#281 = VERTEX_POINT ( 'NONE', #29 ) ;
#282 = ORIENTED_EDGE ( 'NONE', *, *, #417, .T. ) ;
#283 = DIRECTION ( 'NONE',  ( -0.000000000000000000, -1.000000000000000000, -0.000000000000000000 ) ) ;
#284 = DIRECTION ( 'NONE',  ( 0.000000000000000000, 0.000000000000000000, 1.000000000000000000 ) ) ;
#285 = ORIENTED_EDGE ( 'NONE', *, *, #675, .F. ) ;
#286 = DIRECTION ( 'NONE',  ( 0.000000000000000000, 1.000000000000000000, 0.000000000000000000 ) ) ;
#287 = CARTESIAN_POINT ( 'NONE',  ( 9.999999999999998224, -20.00000000000000000, 129.3303437365925390 ) ) ;
#288 = CYLINDRICAL_SURFACE ( 'NONE', #869, 60.00000000000002842 ) ;
#289 = EDGE_CURVE ( 'NONE', #50, #711, #133, .T. ) ;
#290 = AXIS2_PLACEMENT_3D ( 'NONE', #598, #203, #896 ) ;
#291 = AXIS2_PLACEMENT_3D ( 'NONE', #760, #484, #618 ) ;
#292 = CARTESIAN_POINT ( 'NONE',  ( 10.00000000000000000, -20.00000000000000000, -74.33034373659255323 ) ) ;
#293 = CARTESIAN_POINT ( 'NONE',  ( 10.00000000000000000, -20.00000000000000000, -74.33034373659255323 ) ) ;
#294 = CARTESIAN_POINT ( 'NONE',  ( 10.00000000000000000, -20.00000000000000000, -74.33034373659255323 ) ) ;
#295 = EDGE_CURVE ( 'NONE', #616, #839, #561, .T. ) ;
#296 = LINE ( 'NONE', #240, #447 ) ;
#297 = DIRECTION ( 'NONE',  ( 0.000000000000000000, 1.000000000000000000, 0.000000000000000000 ) ) ;
#298 = DIRECTION ( 'NONE',  ( 0.000000000000000000, 0.000000000000000000, 1.000000000000000000 ) ) ;
#299 = CYLINDRICAL_SURFACE ( 'NONE', #740, 19.99999999999998934 ) ;
#300 = APPLICATION_PROTOCOL_DEFINITION ( 'international standard', 'config_control_design', 1994, #274 ) ;
#301 = CARTESIAN_POINT ( 'NONE',  ( -40.00000000000000711, 0.000000000000000000, 75.00000000000001421 ) ) ;
#302 = ORIENTED_EDGE ( 'NONE', *, *, #818, .F. ) ;
#303 = AXIS2_PLACEMENT_3D ( 'NONE', #667, #825, #876 ) ;
#304 = VECTOR ( 'NONE', #150, 1000.000000000000000 ) ;
#305 = EDGE_CURVE ( 'NONE', #817, #76, #648, .T. ) ;
#306 = CARTESIAN_POINT ( 'NONE',  ( -40.00000000000000711, 20.00000000000000000, -75.00000000000001421 ) ) ;
#307 = DIRECTION ( 'NONE',  ( 0.000000000000000000, -1.000000000000000000, 0.000000000000000000 ) ) ;
#308 = DIRECTION ( 'NONE',  ( -0.000000000000000000, -1.000000000000000000, -0.000000000000000000 ) ) ;
#309 = ADVANCED_BREP_SHAPE_REPRESENTATION ( 'Link3LShapeConnectorBig_Default_sldprt', ( #797, #51 ), #120 ) ;
#310 = ORIENTED_EDGE ( 'NONE', *, *, #823, .F. ) ;
#311 = CARTESIAN_POINT ( 'NONE',  ( 30.00000000000000000, -20.00000000000000000, 149.3303437365925390 ) ) ;
#312 = DIRECTION ( 'NONE',  ( -0.000000000000000000, -1.000000000000000000, -0.000000000000000000 ) ) ;
#313 = ORIENTED_EDGE ( 'NONE', *, *, #354, .T. ) ;
#314 = FACE_OUTER_BOUND ( 'NONE', #472, .T. ) ;
#315 = DIRECTION ( 'NONE',  ( 0.000000000000000000, 1.000000000000000000, 0.000000000000000000 ) ) ;
#316 = EDGE_CURVE ( 'NONE', #56, #196, #583, .T. ) ;
#317 = ORIENTED_EDGE ( 'NONE', *, *, #756, .T. ) ;
#318 = AXIS2_PLACEMENT_3D ( 'NONE', #410, #356, #284 ) ;
#319 = AXIS2_PLACEMENT_3D ( 'NONE', #224, #622, #697 ) ;
#320 = CC_DESIGN_SECURITY_CLASSIFICATION ( #709, ( #387 ) ) ;
#321 = APPROVAL_ROLE ( '' ) ;
#322 = DIRECTION ( 'NONE',  ( 0.000000000000000000, 0.000000000000000000, 1.000000000000000000 ) ) ;
#323 = ORIENTED_EDGE ( 'NONE', *, *, #557, .F. ) ;
#324 = VERTEX_POINT ( 'NONE', #377 ) ;
#325 = CALENDAR_DATE ( 2026, 12, 7 ) ;
#326 = DIRECTION ( 'NONE',  ( 0.000000000000000000, 1.000000000000000000, 0.000000000000000000 ) ) ;
#327 = ORIENTED_EDGE ( 'NONE', *, *, #473, .F. ) ;
#328 = ORIENTED_EDGE ( 'NONE', *, *, #798, .F. ) ;
#329 = CALENDAR_DATE ( 2026, 12, 7 ) ;
#330 = PLANE ( 'NONE',  #104 ) ;
#331 = APPROVAL ( #183, 'UNSPECIFIED' ) ;
#332 = ORIENTED_EDGE ( 'NONE', *, *, #394, .T. ) ;
#333 = EDGE_LOOP ( 'NONE', ( #350, #469, #264, #81 ) ) ;
#334 = VECTOR ( 'NONE', #175, 1000.000000000000000 ) ;
#335 = ORIENTED_EDGE ( 'NONE', *, *, #844, .F. ) ;
#336 = AXIS2_PLACEMENT_3D ( 'NONE', #344, #286, #635 ) ;
#337 = DIRECTION ( 'NONE',  ( -0.000000000000000000, -1.000000000000000000, -0.000000000000000000 ) ) ;
#338 = ORIENTED_EDGE ( 'NONE', *, *, #808, .F. ) ;
#339 = EDGE_CURVE ( 'NONE', #281, #403, #39, .T. ) ;
#340 = ORIENTED_EDGE ( 'NONE', *, *, #630, .T. ) ;
#341 = CARTESIAN_POINT ( 'NONE',  ( -35.29411764705883314, -20.00000000000000000, -66.17647058823533257 ) ) ;
#342 = VERTEX_POINT ( 'NONE', #729 ) ;
#343 = VERTEX_POINT ( 'NONE', #60 ) ;
#344 = CARTESIAN_POINT ( 'NONE',  ( -9.999999999999998224, 0.000000000000000000, -129.3303437365925390 ) ) ;
#345 = ORIENTED_EDGE ( 'NONE', *, *, #85, .T. ) ;
#346 = ADVANCED_FACE ( 'NONE', ( #188 ), #820, .F. ) ;
#347 = AXIS2_PLACEMENT_3D ( 'NONE', #641, #837, #492 ) ;
#348 = CARTESIAN_POINT ( 'NONE',  ( 40.00000000000000711, 0.000000000000000000, 75.00000000000001421 ) ) ;
#349 = CARTESIAN_POINT ( 'NONE',  ( -30.00000000000000000, -20.00000000000000000, 129.3303437365925390 ) ) ;
#350 = ORIENTED_EDGE ( 'NONE', *, *, #16, .F. ) ;
#351 = PLANE ( 'NONE',  #649 ) ;
#352 = EDGE_CURVE ( 'NONE', #342, #383, #209, .T. ) ;
#353 = LINE ( 'NONE', #628, #519 ) ;
#354 = EDGE_CURVE ( 'NONE', #662, #148, #575, .T. ) ;
#355 = CARTESIAN_POINT ( 'NONE',  ( 10.00000000000000000, -20.00000000000000000, 74.33034373659255323 ) ) ;
#356 = DIRECTION ( 'NONE',  ( 0.000000000000000000, 1.000000000000000000, 0.000000000000000000 ) ) ;
#357 = CARTESIAN_POINT ( 'NONE',  ( 30.00000000000000000, 0.000000000000000000, -129.3303437365925390 ) ) ;
#358 = DIRECTION ( 'NONE',  ( 0.000000000000000000, -0.000000000000000000, -1.000000000000000000 ) ) ;
#359 = CIRCLE ( 'NONE', #15, 20.00000000000000355 ) ;
#360 = PLANE ( 'NONE',  #559 ) ;
#361 = VECTOR ( 'NONE', #297, 1000.000000000000000 ) ;
#362 = EDGE_CURVE ( 'NONE', #538, #124, #742, .T. ) ;
#363 = CARTESIAN_POINT ( 'NONE',  ( -10.00000000000000000, 0.000000000000000000, 74.33034373659255323 ) ) ;
#364 = DIRECTION ( 'NONE',  ( 0.000000000000000000, 0.000000000000000000, 1.000000000000000000 ) ) ;
#365 = CARTESIAN_POINT ( 'NONE',  ( 0.000000000000000000, 20.00000000000000000, 0.000000000000000000 ) ) ;
#366 = DIRECTION ( 'NONE',  ( 0.000000000000000000, 0.000000000000000000, 1.000000000000000000 ) ) ;
#367 = PLANE ( 'NONE',  #738 ) ;
#368 = VERTEX_POINT ( 'NONE', #545 ) ;
#369 = EDGE_CURVE ( 'NONE', #114, #716, #490, .T. ) ;
#370 = CARTESIAN_POINT ( 'NONE',  ( 30.00000000000000000, -20.00000000000000000, -149.3303437365925390 ) ) ;
#371 = PERSON_AND_ORGANIZATION ( #468, #432 ) ;
#372 = DIRECTION ( 'NONE',  ( -0.000000000000000000, -1.000000000000000000, -0.000000000000000000 ) ) ;
#373 = ORIENTED_EDGE ( 'NONE', *, *, #882, .F. ) ;
#374 = VECTOR ( 'NONE', #109, 1000.000000000000000 ) ;
#375 = LINE ( 'NONE', #311, #491 ) ;
#376 = FACE_BOUND ( 'NONE', #493, .T. ) ;
#377 = CARTESIAN_POINT ( 'NONE',  ( 10.00000000000000000, -20.00000000000000000, -149.3303437365925390 ) ) ;
#378 = ORIENTED_EDGE ( 'NONE', *, *, #352, .T. ) ;
#379 = UNCERTAINTY_MEASURE_WITH_UNIT (LENGTH_MEASURE( 1.000000000000000082E-05 ), #570, 'distance_accuracy_value', 'NONE');
#380 = CARTESIAN_POINT ( 'NONE',  ( 0.000000000000000000, 0.000000000000000000, 0.000000000000000000 ) ) ;
#381 = ADVANCED_FACE ( 'NONE', ( #405 ), #886, .F. ) ;
#382 = DIRECTION ( 'NONE',  ( 0.000000000000000000, 0.000000000000000000, 1.000000000000000000 ) ) ;
#383 = VERTEX_POINT ( 'NONE', #131 ) ;
#384 = CARTESIAN_POINT ( 'NONE',  ( 0.000000000000000000, 20.00000000000000000, 0.000000000000000000 ) ) ;
#385 = ORIENTED_EDGE ( 'NONE', *, *, #661, .F. ) ;
#386 = CIRCLE ( 'NONE', #4, 9.999999999999994671 ) ;
#387 = PRODUCT_DEFINITION_FORMATION_WITH_SPECIFIED_SOURCE ( 'ANY', '', #550, .NOT_KNOWN. ) ;
#388 = CARTESIAN_POINT ( 'NONE',  ( -35.29411764705884735, 20.00000000000000000, 66.17647058823531836 ) ) ;
#389 = VERTEX_POINT ( 'NONE', #66 ) ;
#390 = CARTESIAN_POINT ( 'NONE',  ( 0.000000000000000000, 0.000000000000000000, 0.000000000000000000 ) ) ;
#391 = ADVANCED_FACE ( 'NONE', ( #127 ), #806, .T. ) ;
#392 = CARTESIAN_POINT ( 'NONE',  ( -30.00000000000000355, -20.00000000000000000, 75.00000000000001421 ) ) ;
#393 = EDGE_LOOP ( 'NONE', ( #629, #134, #385, #807 ) ) ;
#394 = EDGE_CURVE ( 'NONE', #533, #539, #395, .T. ) ;
#395 = LINE ( 'NONE', #810, #162 ) ;
#396 = ORIENTED_EDGE ( 'NONE', *, *, #838, .F. ) ;
#397 = AXIS2_PLACEMENT_3D ( 'NONE', #94, #623, #7 ) ;
#398 = VECTOR ( 'NONE', #725, 1000.000000000000000 ) ;
#399 = EDGE_CURVE ( 'NONE', #200, #10, #402, .T. ) ;
#400 = ORIENTED_EDGE ( 'NONE', *, *, #305, .F. ) ;
#401 = AXIS2_PLACEMENT_3D ( 'NONE', #421, #848, #226 ) ;
#402 = LINE ( 'NONE', #54, #273 ) ;
#403 = VERTEX_POINT ( 'NONE', #70 ) ;
#404 = VERTEX_POINT ( 'NONE', #681 ) ;
#405 = FACE_OUTER_BOUND ( 'NONE', #160, .T. ) ;
#406 = EDGE_CURVE ( 'NONE', #892, #839, #199, .T. ) ;
#407 = ORIENTED_EDGE ( 'NONE', *, *, #665, .F. ) ;
#408 = EDGE_LOOP ( 'NONE', ( #248, #669 ) ) ;
#409 = CYLINDRICAL_SURFACE ( 'NONE', #855, 9.999999999999994671 ) ;
#410 = CARTESIAN_POINT ( 'NONE',  ( 0.000000000000000000, 0.000000000000000000, 0.000000000000000000 ) ) ;
#411 = DIRECTION ( 'NONE',  ( 0.000000000000000000, -1.000000000000000000, 0.000000000000000000 ) ) ;
#412 = CARTESIAN_POINT ( 'NONE',  ( 30.00000000000000355, 20.00000000000000000, 75.00000000000001421 ) ) ;
#413 = AXIS2_PLACEMENT_3D ( 'NONE', #384, #42, #802 ) ;
#414 = AXIS2_PLACEMENT_3D ( 'NONE', #99, #442, #366 ) ;
#415 = CARTESIAN_POINT ( 'NONE',  ( 0.000000000000000000, 0.000000000000000000, 0.000000000000000000 ) ) ;
#416 = VERTEX_POINT ( 'NONE', #341 ) ;
#417 = EDGE_CURVE ( 'NONE', #662, #416, #261, .T. ) ;
#418 = DIRECTION ( 'NONE',  ( 0.000000000000000000, 1.000000000000000000, 0.000000000000000000 ) ) ;
#419 = CARTESIAN_POINT ( 'NONE',  ( 35.29411764705884025, 0.000000000000000000, 66.17647058823530415 ) ) ;
#420 = ORIENTED_EDGE ( 'NONE', *, *, #9, .F. ) ;
#421 = CARTESIAN_POINT ( 'NONE',  ( 0.000000000000000000, -20.00000000000000000, 0.000000000000000000 ) ) ;
#422 = CARTESIAN_POINT ( 'NONE',  ( 9.999999999999998224, 0.000000000000000000, 129.3303437365925390 ) ) ;
#423 = CARTESIAN_POINT ( 'NONE',  ( -10.00000000000000000, -20.00000000000000000, -74.33034373659255323 ) ) ;
#424 = EDGE_CURVE ( 'NONE', #343, #711, #252, .T. ) ;
#425 = ORIENTED_EDGE ( 'NONE', *, *, #427, .F. ) ;
#426 = CARTESIAN_POINT ( 'NONE',  ( -30.00000000000000000, 0.000000000000000000, 149.3303437365925390 ) ) ;
#427 = EDGE_CURVE ( 'NONE', #616, #404, #537, .T. ) ;
#428 = MECHANICAL_CONTEXT ( 'NONE', #274, 'mechanical' ) ;
#429 = DIRECTION ( 'NONE',  ( 0.000000000000000000, 0.000000000000000000, -1.000000000000000000 ) ) ;
#430 = VECTOR ( 'NONE', #747, 1000.000000000000000 ) ;
#431 = VECTOR ( 'NONE', #854, 1000.000000000000000 ) ;
#432 = ORGANIZATION ( 'UNSPECIFIED', 'UNSPECIFIED', '' ) ;
#433 = PRODUCT_DEFINITION_SHAPE ( 'NONE', 'NONE',  #115 ) ;
#434 = DIRECTION ( 'NONE',  ( 0.000000000000000000, 0.000000000000000000, 1.000000000000000000 ) ) ;
#435 = DIRECTION ( 'NONE',  ( 0.000000000000000000, -1.000000000000000000, 0.000000000000000000 ) ) ;
#436 = DIRECTION ( 'NONE',  ( 0.000000000000000000, 0.000000000000000000, -1.000000000000000000 ) ) ;
#437 = ADVANCED_FACE ( 'NONE', ( #601 ), #330, .T. ) ;
#438 = FACE_OUTER_BOUND ( 'NONE', #805, .T. ) ;
#439 = DIRECTION ( 'NONE',  ( 0.000000000000000000, -1.000000000000000000, 0.000000000000000000 ) ) ;
#440 = DIRECTION ( 'NONE',  ( 0.000000000000000000, 0.000000000000000000, -1.000000000000000000 ) ) ;
#441 = ORIENTED_EDGE ( 'NONE', *, *, #399, .T. ) ;
#442 = DIRECTION ( 'NONE',  ( 0.000000000000000000, 1.000000000000000000, 0.000000000000000000 ) ) ;
#443 = DIRECTION ( 'NONE',  ( 4.304967625839548401E-17, -0.000000000000000000, 1.000000000000000000 ) ) ;
#444 = PLANE ( 'NONE',  #62 ) ;
#445 = AXIS2_PLACEMENT_3D ( 'NONE', #415, #213, #298 ) ;
#446 = ORIENTED_EDGE ( 'NONE', *, *, #352, .F. ) ;
#447 = VECTOR ( 'NONE', #516, 1000.000000000000000 ) ;
#448 = EDGE_CURVE ( 'NONE', #368, #10, #677, .T. ) ;
#449 = CARTESIAN_POINT ( 'NONE',  ( -10.00000000000000000, -20.00000000000000000, -149.3303437365925390 ) ) ;
#450 = CALENDAR_DATE ( 2026, 12, 7 ) ;
#451 = DIRECTION ( 'NONE',  ( 0.000000000000000000, 0.000000000000000000, 1.000000000000000000 ) ) ;
#452 = ORIENTED_EDGE ( 'NONE', *, *, #808, .T. ) ;
#453 = PLANE ( 'NONE',  #211 ) ;
#454 = DATE_TIME_ROLE ( 'creation_date' ) ;
#455 = CYLINDRICAL_SURFACE ( 'NONE', #503, 75.00000000000002842 ) ;
#456 = ORIENTED_EDGE ( 'NONE', *, *, #9, .T. ) ;
#457 = DIRECTION ( 'NONE',  ( 0.000000000000000000, 0.000000000000000000, 1.000000000000000000 ) ) ;
#458 = ORIENTED_EDGE ( 'NONE', *, *, #882, .T. ) ;
#459 = VECTOR ( 'NONE', #485, 1000.000000000000000 ) ;
#460 = AXIS2_PLACEMENT_3D ( 'NONE', #508, #785, #440 ) ;
#461 = VECTOR ( 'NONE', #511, 1000.000000000000000 ) ;
#462 = DIRECTION ( 'NONE',  ( 0.000000000000000000, 0.000000000000000000, -1.000000000000000000 ) ) ;
#463 = ORIENTED_EDGE ( 'NONE', *, *, #130, .T. ) ;
#464 = EDGE_CURVE ( 'NONE', #711, #50, #91, .T. ) ;
#465 = ORIENTED_EDGE ( 'NONE', *, *, #316, .F. ) ;
#466 = CALENDAR_DATE ( 2026, 12, 7 ) ;
#467 = CARTESIAN_POINT ( 'NONE',  ( 0.000000000000000000, 0.000000000000000000, 0.000000000000000000 ) ) ;
#468 = PERSON ( 'UNSPECIFIED', 'UNSPECIFIED', 'UNSPECIFIED', ('UNSPECIFIED'), ('UNSPECIFIED'), ('UNSPECIFIED') ) ;
#469 = ORIENTED_EDGE ( 'NONE', *, *, #305, .T. ) ;
#470 = ORIENTED_EDGE ( 'NONE', *, *, #424, .F. ) ;
#471 = DIRECTION ( 'NONE',  ( 0.000000000000000000, 1.000000000000000000, 0.000000000000000000 ) ) ;
#472 = EDGE_LOOP ( 'NONE', ( #591, #897, #862, #540, #883, #803, #744, #602, #43, #98, #644, #739, #317, #195, #867, #49, #276, #239, #229, #658, #345 ) ) ;
#473 = EDGE_CURVE ( 'NONE', #743, #389, #265, .T. ) ;
#474 = AXIS2_PLACEMENT_3D ( 'NONE', #172, #513, #720 ) ;
#475 = CIRCLE ( 'NONE', #548, 20.00000000000000355 ) ;
#476 = CARTESIAN_POINT ( 'NONE',  ( -35.29411764705884735, 20.00000000000000000, -66.17647058823531836 ) ) ;
#477 = APPROVAL_PERSON_ORGANIZATION ( #53, #331, #321 ) ;
#478 = ORIENTED_EDGE ( 'NONE', *, *, #156, .F. ) ;
#479 = DIRECTION ( 'NONE',  ( 0.000000000000000000, 1.000000000000000000, 0.000000000000000000 ) ) ;
#480 = EDGE_CURVE ( 'NONE', #253, #200, #608, .T. ) ;
#481 = DIRECTION ( 'NONE',  ( 0.000000000000000000, 1.000000000000000000, 0.000000000000000000 ) ) ;
#482 = CARTESIAN_POINT ( 'NONE',  ( -30.00000000000000000, -20.00000000000000000, -149.3303437365925390 ) ) ;
#483 = ADVANCED_FACE ( 'NONE', ( #142 ), #409, .F. ) ;
#484 = DIRECTION ( 'NONE',  ( 0.000000000000000000, 1.000000000000000000, 0.000000000000000000 ) ) ;
#485 = DIRECTION ( 'NONE',  ( 0.000000000000000000, 0.000000000000000000, 1.000000000000000000 ) ) ;
#486 = ORIENTED_EDGE ( 'NONE', *, *, #853, .T. ) ;
#487 = CLOSED_SHELL ( 'NONE', ( #164, #82, #483, #346, #381, #745, #121, #391, #202, #208, #37, #140, #670, #732, #611, #879, #238, #684, #712, #103, #52, #567, #278, #262, #437 ) ) ;
#488 = VERTEX_POINT ( 'NONE', #214 ) ;
#489 = CARTESIAN_POINT ( 'NONE',  ( 9.999999999999998224, -20.00000000000000000, -129.3303437365925390 ) ) ;
#490 = CIRCLE ( 'NONE', #290, 9.999999999999994671 ) ;
#491 = VECTOR ( 'NONE', #863, 1000.000000000000000 ) ;
#492 = DIRECTION ( 'NONE',  ( 0.000000000000000000, 0.000000000000000000, -1.000000000000000000 ) ) ;
#493 = EDGE_LOOP ( 'NONE', ( #771, #781 ) ) ;
#494 = DIRECTION ( 'NONE',  ( -0.000000000000000000, -0.000000000000000000, 1.000000000000000000 ) ) ;
#495 = CARTESIAN_POINT ( 'NONE',  ( 0.000000000000000000, 0.000000000000000000, -75.00000000000002842 ) ) ;
#496 = DIRECTION ( 'NONE',  ( 0.000000000000000000, 1.000000000000000000, 0.000000000000000000 ) ) ;
#497 = DIRECTION ( 'NONE',  ( -1.000000000000000000, 0.000000000000000000, -4.304967625839547785E-17 ) ) ;
#498 = DIRECTION ( 'NONE',  ( 0.000000000000000000, 0.000000000000000000, 1.000000000000000000 ) ) ;
#499 = EDGE_CURVE ( 'NONE', #111, #533, #692, .T. ) ;
#500 = FACE_OUTER_BOUND ( 'NONE', #25, .T. ) ;
#501 = VECTOR ( 'NONE', #46, 1000.000000000000000 ) ;
#502 = DIRECTION ( 'NONE',  ( -0.000000000000000000, -0.000000000000000000, 1.000000000000000000 ) ) ;
#503 = AXIS2_PLACEMENT_3D ( 'NONE', #184, #312, #242 ) ;
#504 = FACE_OUTER_BOUND ( 'NONE', #257, .T. ) ;
#505 = AXIS2_PLACEMENT_3D ( 'NONE', #467, #337, #610 ) ;
#506 = PLANE ( 'NONE',  #163 ) ;
#507 = DIRECTION ( 'NONE',  ( 0.000000000000000000, 0.000000000000000000, 1.000000000000000000 ) ) ;
#508 = CARTESIAN_POINT ( 'NONE',  ( -40.00000000000000711, -20.00000000000000000, 75.00000000000001421 ) ) ;
#509 = EDGE_LOOP ( 'NONE', ( #686, #612, #420, #826 ) ) ;
#510 = CC_DESIGN_DATE_AND_TIME_ASSIGNMENT ( #191, #801, ( #709 ) ) ;
#511 = DIRECTION ( 'NONE',  ( 0.000000000000000000, 1.000000000000000000, 0.000000000000000000 ) ) ;
#512 = CARTESIAN_POINT ( 'NONE',  ( -30.00000000000000355, 0.000000000000000000, 75.00000000000005684 ) ) ;
#513 = DIRECTION ( 'NONE',  ( -1.000000000000000000, 0.000000000000000000, 0.000000000000000000 ) ) ;
#514 = EDGE_CURVE ( 'NONE', #389, #817, #118, .T. ) ;
#515 = ORIENTED_EDGE ( 'NONE', *, *, #48, .T. ) ;
#516 = DIRECTION ( 'NONE',  ( 0.000000000000000000, 1.000000000000000000, 0.000000000000000000 ) ) ;
#517 = PERSON_AND_ORGANIZATION ( #468, #432 ) ;
#518 = CARTESIAN_POINT ( 'NONE',  ( -10.00000000000000000, -20.00000000000000000, -74.33034373659255323 ) ) ;
#519 = VECTOR ( 'NONE', #558, 1000.000000000000000 ) ;
#520 = ORIENTED_EDGE ( 'NONE', *, *, #625, .T. ) ;
#521 = CIRCLE ( 'NONE', #136, 75.00000000000002842 ) ;
#522 = DIRECTION ( 'NONE',  ( 0.000000000000000000, 0.000000000000000000, -1.000000000000000000 ) ) ;
#523 = LINE ( 'NONE', #97, #501 ) ;
#524 = ORIENTED_EDGE ( 'NONE', *, *, #289, .F. ) ;
#525 = COORDINATED_UNIVERSAL_TIME_OFFSET ( 3, 30, .AHEAD. ) ;
#526 = DIRECTION ( 'NONE',  ( -0.000000000000000000, 1.000000000000000000, -0.000000000000000000 ) ) ;
#527 = ORIENTED_EDGE ( 'NONE', *, *, #661, .T. ) ;
#528 = ORIENTED_EDGE ( 'NONE', *, *, #295, .T. ) ;
#529 = PERSON_AND_ORGANIZATION_ROLE ( 'design_owner' ) ;
#530 = ORIENTED_EDGE ( 'NONE', *, *, #651, .F. ) ;
#531 = CARTESIAN_POINT ( 'NONE',  ( -30.00000000000000000, -20.00000000000000000, 149.3303437365925390 ) ) ;
#532 = EDGE_LOOP ( 'NONE', ( #129, #155, #895, #441 ) ) ;
#533 = VERTEX_POINT ( 'NONE', #83 ) ;
#534 = VECTOR ( 'NONE', #255, 1000.000000000000000 ) ;
#535 = VECTOR ( 'NONE', #13, 1000.000000000000000 ) ;
#536 = PERSON_AND_ORGANIZATION ( #468, #432 ) ;
#537 = LINE ( 'NONE', #388, #887 ) ;
#538 = VERTEX_POINT ( 'NONE', #6 ) ;
#539 = VERTEX_POINT ( 'NONE', #701 ) ;
#540 = ORIENTED_EDGE ( 'NONE', *, *, #690, .T. ) ;
#541 = CARTESIAN_POINT ( 'NONE',  ( -40.00000000000000711, 0.000000000000000000, -75.00000000000001421 ) ) ;
#542 = EDGE_LOOP ( 'NONE', ( #655, #832, #128, #254 ) ) ;
#543 = EDGE_LOOP ( 'NONE', ( #626, #35, #619, #282 ) ) ;
#544 = EDGE_CURVE ( 'NONE', #324, #196, #680, .T. ) ;
#545 = CARTESIAN_POINT ( 'NONE',  ( -30.00000000000000355, -20.00000000000000000, -75.00000000000005684 ) ) ;
#546 = DIRECTION ( 'NONE',  ( 0.000000000000000000, 1.000000000000000000, 0.000000000000000000 ) ) ;
#547 = VECTOR ( 'NONE', #451, 1000.000000000000000 ) ;
#548 = AXIS2_PLACEMENT_3D ( 'NONE', #287, #582, #153 ) ;
#549 = DIRECTION ( 'NONE',  ( 0.000000000000000000, 0.000000000000000000, 1.000000000000000000 ) ) ;
#550 = PRODUCT ( 'Link3LShapeConnectorBig_Default_sldprt', 'Link3LShapeConnectorBig_Default_sldprt', '', ( #428 ) ) ;
#551 = CC_DESIGN_APPROVAL ( #554, ( #709 ) ) ;
#552 = ORIENTED_EDGE ( 'NONE', *, *, #424, .T. ) ;
#553 = LINE ( 'NONE', #11, #774 ) ;
#554 = APPROVAL ( #792, 'UNSPECIFIED' ) ;
#555 = DIRECTION ( 'NONE',  ( 0.000000000000000000, -1.000000000000000000, 0.000000000000000000 ) ) ;
#556 = CARTESIAN_POINT ( 'NONE',  ( 30.00000000000000000, -20.00000000000000000, 149.3303437365925390 ) ) ;
#557 = EDGE_CURVE ( 'NONE', #488, #538, #279, .T. ) ;
#558 = DIRECTION ( 'NONE',  ( -4.304967625839548401E-17, -0.000000000000000000, -1.000000000000000000 ) ) ;
#559 = AXIS2_PLACEMENT_3D ( 'NONE', #482, #761, #759 ) ;
#560 = DIRECTION ( 'NONE',  ( 0.000000000000000000, 0.000000000000000000, 1.000000000000000000 ) ) ;
#561 = CIRCLE ( 'NONE', #460, 9.999999999999994671 ) ;
#562 = CIRCLE ( 'NONE', #17, 9.999999999999994671 ) ;
#563 = CARTESIAN_POINT ( 'NONE',  ( -30.00000000000000000, -20.00000000000000000, 149.3303437365925390 ) ) ;
#564 = FACE_OUTER_BOUND ( 'NONE', #600, .T. ) ;
#565 = DIRECTION ( 'NONE',  ( 0.000000000000000000, 1.000000000000000000, 0.000000000000000000 ) ) ;
#566 = CARTESIAN_POINT ( 'NONE',  ( 10.00000000000000000, 0.000000000000000000, 74.33034373659255323 ) ) ;
#567 = ADVANCED_FACE ( 'NONE', ( #627 ), #351, .F. ) ;
#568 = CARTESIAN_POINT ( 'NONE',  ( 0.000000000000000000, -20.00000000000000000, 0.000000000000000000 ) ) ;
#569 = DIRECTION ( 'NONE',  ( 0.000000000000000000, 0.000000000000000000, -1.000000000000000000 ) ) ;
#570 =( LENGTH_UNIT ( ) NAMED_UNIT ( * ) SI_UNIT ( .MILLI., .METRE. ) );
#571 = PLANE ( 'NONE',  #724 ) ;
#572 = ORIENTED_EDGE ( 'NONE', *, *, #710, .T. ) ;
#573 = EDGE_CURVE ( 'NONE', #40, #389, #758, .T. ) ;
#574 = CARTESIAN_POINT ( 'NONE',  ( -9.999999999999998224, -20.00000000000000000, -129.3303437365925390 ) ) ;
#575 = CIRCLE ( 'NONE', #811, 9.999999999999994671 ) ;
#576 = CARTESIAN_POINT ( 'NONE',  ( 0.000000000000000000, 0.000000000000000000, 0.000000000000000000 ) ) ;
#577 = CIRCLE ( 'NONE', #401, 75.00000000000004263 ) ;
#578 = VERTEX_POINT ( 'NONE', #357 ) ;
#579 = LOCAL_TIME ( 16, 7, 51.00000000000000000, #728 ) ;
#580 = CARTESIAN_POINT ( 'NONE',  ( -10.00000000000000000, -20.00000000000000000, 149.3303437365925390 ) ) ;
#581 = EDGE_CURVE ( 'NONE', #892, #597, #831, .T. ) ;
#582 = DIRECTION ( 'NONE',  ( 0.000000000000000000, -1.000000000000000000, 0.000000000000000000 ) ) ;
#583 = LINE ( 'NONE', #237, #398 ) ;
#584 = ORIENTED_EDGE ( 'NONE', *, *, #8, .F. ) ;
#585 = DIRECTION ( 'NONE',  ( 0.000000000000000000, -0.000000000000000000, 1.000000000000000000 ) ) ;
#586 = CARTESIAN_POINT ( 'NONE',  ( 30.00000000000000000, -20.00000000000000000, -129.3303437365925390 ) ) ;
#587 = ORIENTED_EDGE ( 'NONE', *, *, #700, .F. ) ;
#588 = CARTESIAN_POINT ( 'NONE',  ( 0.000000000000000000, 0.000000000000000000, 60.00000000000002842 ) ) ;
#589 = DATE_AND_TIME ( #741, #830 ) ;
#590 = FACE_OUTER_BOUND ( 'NONE', #734, .T. ) ;
#591 = ORIENTED_EDGE ( 'NONE', *, *, #230, .F. ) ;
#592 = EDGE_CURVE ( 'NONE', #196, #578, #553, .T. ) ;
#593 = VECTOR ( 'NONE', #767, 1000.000000000000000 ) ;
#594 = APPROVAL_PERSON_ORGANIZATION ( #536, #554, #885 ) ;
#595 = CC_DESIGN_PERSON_AND_ORGANIZATION_ASSIGNMENT ( #259, #815, ( #709 ) ) ;
#596 = APPLICATION_PROTOCOL_DEFINITION ( 'international standard', 'config_control_design', 1994, #822 ) ;
#597 = VERTEX_POINT ( 'NONE', #694 ) ;
#598 = CARTESIAN_POINT ( 'NONE',  ( 40.00000000000000711, 0.000000000000000000, -75.00000000000001421 ) ) ;
#599 = VERTEX_POINT ( 'NONE', #833 ) ;
#600 = EDGE_LOOP ( 'NONE', ( #696, #407, #55, #122 ) ) ;
#601 = FACE_OUTER_BOUND ( 'NONE', #542, .T. ) ;
#602 = ORIENTED_EDGE ( 'NONE', *, *, #394, .F. ) ;
#603 = VERTEX_POINT ( 'NONE', #845 ) ;
#604 = ORIENTED_EDGE ( 'NONE', *, *, #690, .F. ) ;
#605 = DIRECTION ( 'NONE',  ( 4.304967625839548401E-17, -0.000000000000000000, -1.000000000000000000 ) ) ;
#606 = ORIENTED_EDGE ( 'NONE', *, *, #464, .F. ) ;
#607 = ORIENTED_EDGE ( 'NONE', *, *, #399, .F. ) ;
#608 = CIRCLE ( 'NONE', #336, 20.00000000000000355 ) ;
#609 = ORIENTED_EDGE ( 'NONE', *, *, #775, .T. ) ;
#610 = DIRECTION ( 'NONE',  ( 0.000000000000000000, 0.000000000000000000, 1.000000000000000000 ) ) ;
#611 = ADVANCED_FACE ( 'NONE', ( #766 ), #769, .T. ) ;
#612 = ORIENTED_EDGE ( 'NONE', *, *, #874, .F. ) ;
#613 = ORIENTED_EDGE ( 'NONE', *, *, #592, .F. ) ;
#614 = EDGE_LOOP ( 'NONE', ( #607, #858, #263, #310 ) ) ;
#615 = DIRECTION ( 'NONE',  ( 0.000000000000000000, 0.000000000000000000, -1.000000000000000000 ) ) ;
#616 = VERTEX_POINT ( 'NONE', #2 ) ;
#617 = CARTESIAN_POINT ( 'NONE',  ( 0.000000000000000000, -20.00000000000000000, 0.000000000000000000 ) ) ;
#618 = DIRECTION ( 'NONE',  ( 0.000000000000000000, 0.000000000000000000, 1.000000000000000000 ) ) ;
#619 = ORIENTED_EDGE ( 'NONE', *, *, #85, .F. ) ;
#620 = VECTOR ( 'NONE', #135, 1000.000000000000000 ) ;
#621 = AXIS2_PLACEMENT_3D ( 'NONE', #301, #315, #382 ) ;
#622 = DIRECTION ( 'NONE',  ( 0.000000000000000000, 1.000000000000000000, 0.000000000000000000 ) ) ;
#623 = DIRECTION ( 'NONE',  ( -0.000000000000000000, -1.000000000000000000, -0.000000000000000000 ) ) ;
#624 = VERTEX_POINT ( 'NONE', #764 ) ;
#625 = EDGE_CURVE ( 'NONE', #599, #124, #688, .T. ) ;
#626 = ORIENTED_EDGE ( 'NONE', *, *, #48, .F. ) ;
#627 = FACE_OUTER_BOUND ( 'NONE', #877, .T. ) ;
#628 = CARTESIAN_POINT ( 'NONE',  ( 30.00000000000000000, 0.000000000000000000, -149.3303437365925390 ) ) ;
#629 = ORIENTED_EDGE ( 'NONE', *, *, #829, .F. ) ;
#630 = EDGE_CURVE ( 'NONE', #72, #533, #144, .T. ) ;
#631 = CARTESIAN_POINT ( 'NONE',  ( -10.00000000000000000, -20.00000000000000000, 149.3303437365925390 ) ) ;
#632 = DIRECTION ( 'NONE',  ( 0.000000000000000000, 0.000000000000000000, 1.000000000000000000 ) ) ;
#633 = EDGE_CURVE ( 'NONE', #731, #889, #221, .T. ) ;
#634 = AXIS2_PLACEMENT_3D ( 'NONE', #365, #222, #24 ) ;
#635 = DIRECTION ( 'NONE',  ( 0.000000000000000000, 0.000000000000000000, 1.000000000000000000 ) ) ;
#636 = CIRCLE ( 'NONE', #47, 60.00000000000002842 ) ;
#637 = LINE ( 'NONE', #293, #194 ) ;
#638 = CARTESIAN_POINT ( 'NONE',  ( 30.00000000000000355, 0.000000000000000000, -75.00000000000005684 ) ) ;
#639 = CARTESIAN_POINT ( 'NONE',  ( 10.00000000000000000, 0.000000000000000000, -149.3303437365925390 ) ) ;
#640 = DIRECTION ( 'NONE',  ( 1.000000000000000000, 0.000000000000000000, 0.000000000000000000 ) ) ;
#641 = CARTESIAN_POINT ( 'NONE',  ( 0.000000000000000000, -20.00000000000000000, 0.000000000000000000 ) ) ;
#642 = DIRECTION ( 'NONE',  ( 0.000000000000000000, -1.000000000000000000, 0.000000000000000000 ) ) ;
#643 = DIRECTION ( 'NONE',  ( 1.000000000000000000, -0.000000000000000000, 0.000000000000000000 ) ) ;
#644 = ORIENTED_EDGE ( 'NONE', *, *, #369, .F. ) ;
#645 = LINE ( 'NONE', #713, #374 ) ;
#646 = CC_DESIGN_PERSON_AND_ORGANIZATION_ASSIGNMENT ( #371, #529, ( #550 ) ) ;
#647 = DIRECTION ( 'NONE',  ( 0.000000000000000000, 0.000000000000000000, -1.000000000000000000 ) ) ;
#648 = LINE ( 'NONE', #34, #90 ) ;
#649 = AXIS2_PLACEMENT_3D ( 'NONE', #556, #497, #86 ) ;
#650 = ORIENTED_EDGE ( 'NONE', *, *, #592, .T. ) ;
#651 = EDGE_CURVE ( 'NONE', #343, #267, #795, .T. ) ;
#652 = CARTESIAN_POINT ( 'NONE',  ( 35.29411764705881893, 0.000000000000000000, -66.17647058823531836 ) ) ;
#653 = LINE ( 'NONE', #23, #593 ) ;
#654 = DIRECTION ( 'NONE',  ( 0.000000000000000000, 0.000000000000000000, -1.000000000000000000 ) ) ;
#655 = ORIENTED_EDGE ( 'NONE', *, *, #581, .F. ) ;
#656 = CARTESIAN_POINT ( 'NONE',  ( 30.00000000000000355, -20.00000000000000000, -75.00000000000001421 ) ) ;
#657 = DIRECTION ( 'NONE',  ( 0.000000000000000000, 0.000000000000000000, -1.000000000000000000 ) ) ;
#658 = ORIENTED_EDGE ( 'NONE', *, *, #354, .F. ) ;
#659 = APPROVAL_ROLE ( '' ) ;
#660 = CARTESIAN_POINT ( 'NONE',  ( -30.00000000000000000, 0.000000000000000000, -149.3303437365925390 ) ) ;
#661 = EDGE_CURVE ( 'NONE', #538, #256, #577, .T. ) ;
#662 = VERTEX_POINT ( 'NONE', #177 ) ;
#663 = AXIS2_PLACEMENT_3D ( 'NONE', #816, #750, #881 ) ;
#664 = VECTOR ( 'NONE', #569, 1000.000000000000000 ) ;
#665 = EDGE_CURVE ( 'NONE', #403, #751, #27, .T. ) ;
#666 = DATE_AND_TIME ( #329, #841 ) ;
#667 = CARTESIAN_POINT ( 'NONE',  ( 40.00000000000000711, 20.00000000000000000, 75.00000000000001421 ) ) ;
#668 = ORIENTED_EDGE ( 'NONE', *, *, #26, .F. ) ;
#669 = ORIENTED_EDGE ( 'NONE', *, *, #289, .T. ) ;
#670 = ADVANCED_FACE ( 'NONE', ( #92 ), #782, .T. ) ;
#671 = COORDINATED_UNIVERSAL_TIME_OFFSET ( 3, 30, .AHEAD. ) ;
#672 = DIRECTION ( 'NONE',  ( 4.304967625839547785E-17, 0.000000000000000000, 1.000000000000000000 ) ) ;
#673 = EDGE_LOOP ( 'NONE', ( #335, #173, #748, #478 ) ) ;
#674 = ORIENTED_EDGE ( 'NONE', *, *, #573, .T. ) ;
#675 = EDGE_CURVE ( 'NONE', #342, #56, #386, .T. ) ;
#676 = ORIENTED_EDGE ( 'NONE', *, *, #87, .F. ) ;
#677 = LINE ( 'NONE', #58, #793 ) ;
#678 = EDGE_LOOP ( 'NONE', ( #851, #69, #169, #452 ) ) ;
#679 = CIRCLE ( 'NONE', #44, 75.00000000000004263 ) ;
#680 = CIRCLE ( 'NONE', #149, 19.99999999999998934 ) ;
#681 = CARTESIAN_POINT ( 'NONE',  ( -35.29411764705884735, 0.000000000000000000, 66.17647058823530415 ) ) ;
#682 = ORIENTED_EDGE ( 'NONE', *, *, #339, .T. ) ;
#683 = DIRECTION ( 'NONE',  ( 0.000000000000000000, 0.000000000000000000, 1.000000000000000000 ) ) ;
#684 = ADVANCED_FACE ( 'NONE', ( #500 ), #506, .T. ) ;
#685 = DIRECTION ( 'NONE',  ( -0.000000000000000000, -1.000000000000000000, -0.000000000000000000 ) ) ;
#686 = ORIENTED_EDGE ( 'NONE', *, *, #710, .F. ) ;
#687 = CC_DESIGN_PERSON_AND_ORGANIZATION_ASSIGNMENT ( #864, #198, ( #115 ) ) ;
#688 = LINE ( 'NONE', #73, #304 ) ;
#689 = FACE_OUTER_BOUND ( 'NONE', #532, .T. ) ;
#690 = EDGE_CURVE ( 'NONE', #889, #624, #36, .T. ) ;
#691 = AXIS2_PLACEMENT_3D ( 'NONE', #576, #372, #233 ) ;
#692 = CIRCLE ( 'NONE', #65, 9.999999999999994671 ) ;
#693 = CC_DESIGN_APPROVAL ( #331, ( #115 ) ) ;
#694 = CARTESIAN_POINT ( 'NONE',  ( -30.00000000000000000, 0.000000000000000000, 129.3303437365925390 ) ) ;
#695 = FACE_OUTER_BOUND ( 'NONE', #509, .T. ) ;
#696 = ORIENTED_EDGE ( 'NONE', *, *, #67, .T. ) ;
#697 = DIRECTION ( 'NONE',  ( 0.000000000000000000, 0.000000000000000000, 1.000000000000000000 ) ) ;
#698 = CARTESIAN_POINT ( 'NONE',  ( -30.00000000000000355, 0.000000000000000000, -75.00000000000007105 ) ) ;
#699 = ORIENTED_EDGE ( 'NONE', *, *, #185, .T. ) ;
#700 = EDGE_CURVE ( 'NONE', #267, #343, #636, .T. ) ;
#701 = CARTESIAN_POINT ( 'NONE',  ( 30.00000000000000000, 0.000000000000000000, 129.3303437365925390 ) ) ;
#702 = LINE ( 'NONE', #563, #277 ) ;
#703 = LINE ( 'NONE', #215, #459 ) ;
#704 = ORIENTED_EDGE ( 'NONE', *, *, #147, .F. ) ;
#705 = VECTOR ( 'NONE', #479, 1000.000000000000000 ) ;
#706 = DIRECTION ( 'NONE',  ( 0.000000000000000000, -1.000000000000000000, 0.000000000000000000 ) ) ;
#707 = AXIS2_PLACEMENT_3D ( 'NONE', #788, #307, #647 ) ;
#708 = DIRECTION ( 'NONE',  ( 0.000000000000000000, 0.000000000000000000, -1.000000000000000000 ) ) ;
#709 = SECURITY_CLASSIFICATION ( '', '', #250 ) ;
#710 = EDGE_CURVE ( 'NONE', #539, #603, #645, .T. ) ;
#711 = VERTEX_POINT ( 'NONE', #588 ) ;
#712 = ADVANCED_FACE ( 'NONE', ( #314, #95 ), #453, .T. ) ;
#713 = CARTESIAN_POINT ( 'NONE',  ( 30.00000000000000000, -20.00000000000000000, 129.3303437365925390 ) ) ;
#714 = CARTESIAN_POINT ( 'NONE',  ( -40.00000000000000711, -20.00000000000000000, -75.00000000000001421 ) ) ;
#715 = CARTESIAN_POINT ( 'NONE',  ( 7.347880794884123089E-15, -20.00000000000000000, -60.00000000000002842 ) ) ;
#716 = VERTEX_POINT ( 'NONE', #652 ) ;
#717 = CC_DESIGN_PERSON_AND_ORGANIZATION_ASSIGNMENT ( #875, #57, ( #387 ) ) ;
#718 = DIRECTION ( 'NONE',  ( 0.000000000000000000, 1.000000000000000000, 0.000000000000000000 ) ) ;
#719 = DIRECTION ( 'NONE',  ( 0.000000000000000000, -1.000000000000000000, 0.000000000000000000 ) ) ;
#720 = DIRECTION ( 'NONE',  ( 0.000000000000000000, 0.000000000000000000, 1.000000000000000000 ) ) ;
#721 = ORIENTED_EDGE ( 'NONE', *, *, #823, .T. ) ;
#722 = EDGE_CURVE ( 'NONE', #114, #56, #31, .T. ) ;
#723 = CARTESIAN_POINT ( 'NONE',  ( 40.00000000000000711, -20.00000000000000000, -75.00000000000001421 ) ) ;
#724 = AXIS2_PLACEMENT_3D ( 'NONE', #423, #143, #498 ) ;
#725 = DIRECTION ( 'NONE',  ( -4.304967625839548401E-17, -0.000000000000000000, -1.000000000000000000 ) ) ;
#726 = ORIENTED_EDGE ( 'NONE', *, *, #514, .F. ) ;
#727 = DIRECTION ( 'NONE',  ( 1.000000000000000000, 0.000000000000000000, -4.304967625839547785E-17 ) ) ;
#728 = COORDINATED_UNIVERSAL_TIME_OFFSET ( 3, 30, .AHEAD. ) ;
#729 = CARTESIAN_POINT ( 'NONE',  ( 35.29411764705882604, -20.00000000000000000, -66.17647058823533257 ) ) ;
#730 = EDGE_CURVE ( 'NONE', #281, #253, #868, .T. ) ;
#731 = VERTEX_POINT ( 'NONE', #580 ) ;
#732 = ADVANCED_FACE ( 'NONE', ( #245 ), #299, .T. ) ;
#733 = PLANE ( 'NONE',  #474 ) ;
#734 = EDGE_LOOP ( 'NONE', ( #327, #234, #458, #674 ) ) ;
#735 = APPROVAL_DATE_TIME ( #589, #331 ) ;
#736 = CARTESIAN_POINT ( 'NONE',  ( 0.000000000000000000, -20.00000000000000000, 60.00000000000002842 ) ) ;
#737 = AXIS2_PLACEMENT_3D ( 'NONE', #74, #834, #151 ) ;
#738 = AXIS2_PLACEMENT_3D ( 'NONE', #861, #643, #654 ) ;
#739 = ORIENTED_EDGE ( 'NONE', *, *, #147, .T. ) ;
#740 = AXIS2_PLACEMENT_3D ( 'NONE', #574, #170, #522 ) ;
#741 = CALENDAR_DATE ( 2026, 12, 7 ) ;
#742 = LINE ( 'NONE', #755, #430 ) ;
#743 = VERTEX_POINT ( 'NONE', #639 ) ;
#744 = ORIENTED_EDGE ( 'NONE', *, *, #874, .T. ) ;
#745 = ADVANCED_FACE ( 'NONE', ( #438 ), #787, .F. ) ;
#746 = DATE_AND_TIME ( #466, #579 ) ;
#747 = DIRECTION ( 'NONE',  ( 0.000000000000000000, 1.000000000000000000, 0.000000000000000000 ) ) ;
#748 = ORIENTED_EDGE ( 'NONE', *, *, #633, .T. ) ;
#749 = ORIENTED_EDGE ( 'NONE', *, *, #406, .F. ) ;
#750 = DIRECTION ( 'NONE',  ( -0.000000000000000000, -1.000000000000000000, -0.000000000000000000 ) ) ;
#751 = VERTEX_POINT ( 'NONE', #182 ) ;
#752 = CARTESIAN_POINT ( 'NONE',  ( 10.00000000000000000, -20.00000000000000000, 149.3303437365925390 ) ) ;
#753 = CIRCLE ( 'NONE', #772, 19.99999999999998934 ) ;
#754 = AXIS2_PLACEMENT_3D ( 'NONE', #714, #439, #96 ) ;
#755 = CARTESIAN_POINT ( 'NONE',  ( 10.00000000000000000, -20.00000000000000000, 74.33034373659255323 ) ) ;
#756 = EDGE_CURVE ( 'NONE', #578, #743, #77, .T. ) ;
#757 = FACE_OUTER_BOUND ( 'NONE', #108, .T. ) ;
#758 = LINE ( 'NONE', #292, #814 ) ;
#759 = DIRECTION ( 'NONE',  ( 4.304967625839547785E-17, 0.000000000000000000, -1.000000000000000000 ) ) ;
#760 = CARTESIAN_POINT ( 'NONE',  ( 9.999999999999998224, -20.00000000000000000, -129.3303437365925390 ) ) ;
#761 = DIRECTION ( 'NONE',  ( 1.000000000000000000, -0.000000000000000000, 4.304967625839547785E-17 ) ) ;
#762 = AXIS2_PLACEMENT_3D ( 'NONE', #79, #152, #560 ) ;
#763 = ORIENTED_EDGE ( 'NONE', *, *, #316, .T. ) ;
#764 = CARTESIAN_POINT ( 'NONE',  ( -10.00000000000000000, 0.000000000000000000, 74.33034373659255323 ) ) ;
#765 = CYLINDRICAL_SURFACE ( 'NONE', #397, 75.00000000000002842 ) ;
#766 = FACE_OUTER_BOUND ( 'NONE', #813, .T. ) ;
#767 = DIRECTION ( 'NONE',  ( -0.000000000000000000, 1.000000000000000000, -0.000000000000000000 ) ) ;
#768 = DIRECTION ( 'NONE',  ( -0.000000000000000000, 1.000000000000000000, -0.000000000000000000 ) ) ;
#769 = CYLINDRICAL_SURFACE ( 'NONE', #291, 20.00000000000000355 ) ;
#770 = CARTESIAN_POINT ( 'NONE',  ( -9.999999999999998224, -20.00000000000000000, 129.3303437365925390 ) ) ;
#771 = ORIENTED_EDGE ( 'NONE', *, *, #651, .T. ) ;
#772 = AXIS2_PLACEMENT_3D ( 'NONE', #84, #496, #632 ) ;
#773 = DIRECTION ( 'NONE',  ( 0.000000000000000000, 1.000000000000000000, 0.000000000000000000 ) ) ;
#774 = VECTOR ( 'NONE', #565, 1000.000000000000000 ) ;
#775 = EDGE_CURVE ( 'NONE', #72, #603, #375, .T. ) ;
#776 = AXIS2_PLACEMENT_3D ( 'NONE', #568, #411, #878 ) ;
#777 = CARTESIAN_POINT ( 'NONE',  ( 0.000000000000000000, 0.000000000000000000, 0.000000000000000000 ) ) ;
#778 = LINE ( 'NONE', #660, #334 ) ;
#779 = AXIS2_PLACEMENT_3D ( 'NONE', #860, #719, #358 ) ;
#780 = CC_DESIGN_PERSON_AND_ORGANIZATION_ASSIGNMENT ( #880, #38, ( #387 ) ) ;
#781 = ORIENTED_EDGE ( 'NONE', *, *, #700, .T. ) ;
#782 = CYLINDRICAL_SURFACE ( 'NONE', #414, 19.99999999999998934 ) ;
#783 = EDGE_CURVE ( 'NONE', #256, #624, #296, .T. ) ;
#784 = LINE ( 'NONE', #849, #361 ) ;
#785 = DIRECTION ( 'NONE',  ( 0.000000000000000000, -1.000000000000000000, 0.000000000000000000 ) ) ;
#786 = ORIENTED_EDGE ( 'NONE', *, *, #818, .T. ) ;
#787 = CYLINDRICAL_SURFACE ( 'NONE', #890, 9.999999999999994671 ) ;
#788 = CARTESIAN_POINT ( 'NONE',  ( -9.999999999999998224, -20.00000000000000000, -129.3303437365925390 ) ) ;
#789 = FACE_OUTER_BOUND ( 'NONE', #543, .T. ) ;
#790 = EDGE_LOOP ( 'NONE', ( #400, #726, #266, #328 ) ) ;
#791 = DIRECTION ( 'NONE',  ( -4.304967625839547785E-17, 0.000000000000000000, -1.000000000000000000 ) ) ;
#792 = APPROVAL_STATUS ( 'not_yet_approved' ) ;
#793 = VECTOR ( 'NONE', #605, 1000.000000000000000 ) ;
#794 = LINE ( 'NONE', #110, #852 ) ;
#795 = CIRCLE ( 'NONE', #762, 60.00000000000002842 ) ;
#796 = EDGE_LOOP ( 'NONE', ( #520, #112, #323, #456 ) ) ;
#797 = MANIFOLD_SOLID_BREP ( 'Fillet8', #487 ) ;
#798 = EDGE_CURVE ( 'NONE', #76, #40, #106, .T. ) ;
#799 = DESIGN_CONTEXT ( 'detailed design', #822, 'design' ) ;
#800 = DIRECTION ( 'NONE',  ( 0.000000000000000000, 1.000000000000000000, 0.000000000000000000 ) ) ;
#801 = DATE_TIME_ROLE ( 'classification_date' ) ;
#802 = DIRECTION ( 'NONE',  ( 0.000000000000000000, 0.000000000000000000, -1.000000000000000000 ) ) ;
#803 = ORIENTED_EDGE ( 'NONE', *, *, #625, .F. ) ;
#804 = APPROVAL_STATUS ( 'not_yet_approved' ) ;
#805 = EDGE_LOOP ( 'NONE', ( #30, #313, #584, #190 ) ) ;
#806 = CYLINDRICAL_SURFACE ( 'NONE', #161, 75.00000000000002842 ) ;
#807 = ORIENTED_EDGE ( 'NONE', *, *, #362, .T. ) ;
#808 = EDGE_CURVE ( 'NONE', #72, #383, #562, .T. ) ;
#809 = COORDINATED_UNIVERSAL_TIME_OFFSET ( 3, 30, .AHEAD. ) ;
#810 = CARTESIAN_POINT ( 'NONE',  ( 30.00000000000000000, 0.000000000000000000, 149.3303437365925390 ) ) ;
#811 = AXIS2_PLACEMENT_3D ( 'NONE', #541, #471, #457 ) ;
#812 = ORIENTED_EDGE ( 'NONE', *, *, #866, .F. ) ;
#813 = EDGE_LOOP ( 'NONE', ( #613, #888, #699, #872 ) ) ;
#814 = VECTOR ( 'NONE', #842, 1000.000000000000000 ) ;
#815 = PERSON_AND_ORGANIZATION_ROLE ( 'classification_officer' ) ;
#816 = CARTESIAN_POINT ( 'NONE',  ( 40.00000000000000711, 20.00000000000000000, -75.00000000000001421 ) ) ;
#817 = VERTEX_POINT ( 'NONE', #495 ) ;
#818 = EDGE_CURVE ( 'NONE', #267, #50, #653, .T. ) ;
#819 = DIRECTION ( 'NONE',  ( 0.000000000000000000, -1.000000000000000000, 0.000000000000000000 ) ) ;
#820 = CYLINDRICAL_SURFACE ( 'NONE', #303, 9.999999999999994671 ) ;
#821 = DIRECTION ( 'NONE',  ( 0.000000000000000000, 0.000000000000000000, -1.000000000000000000 ) ) ;
#822 = APPLICATION_CONTEXT ( 'configuration controlled 3d designs of mechanical parts and assemblies' ) ;
#823 = EDGE_CURVE ( 'NONE', #10, #281, #178, .T. ) ;
#824 = APPROVAL ( #804, 'UNSPECIFIED' ) ;
#825 = DIRECTION ( 'NONE',  ( -0.000000000000000000, -1.000000000000000000, -0.000000000000000000 ) ) ;
#826 = ORIENTED_EDGE ( 'NONE', *, *, #853, .F. ) ;
#827 = LINE ( 'NONE', #210, #705 ) ;
#828 = AXIS2_PLACEMENT_3D ( 'NONE', #206, #138, #615 ) ;
#829 = EDGE_CURVE ( 'NONE', #624, #124, #521, .T. ) ;
#830 = LOCAL_TIME ( 16, 7, 51.00000000000000000, #671 ) ;
#831 = LINE ( 'NONE', #426, #840 ) ;
#832 = ORIENTED_EDGE ( 'NONE', *, *, #406, .T. ) ;
#833 = CARTESIAN_POINT ( 'NONE',  ( 10.00000000000000000, 0.000000000000000000, 149.3303437365925390 ) ) ;
#834 = DIRECTION ( 'NONE',  ( -0.000000000000000000, 1.000000000000000000, -0.000000000000000000 ) ) ;
#835 = ORIENTED_EDGE ( 'NONE', *, *, #722, .F. ) ;
#836 = DIRECTION ( 'NONE',  ( 4.304967625839548401E-17, -0.000000000000000000, 1.000000000000000000 ) ) ;
#837 = DIRECTION ( 'NONE',  ( 0.000000000000000000, -1.000000000000000000, 0.000000000000000000 ) ) ;
#838 = EDGE_CURVE ( 'NONE', #368, #416, #246, .T. ) ;
#839 = VERTEX_POINT ( 'NONE', #856 ) ;
#840 = VECTOR ( 'NONE', #836, 1000.000000000000000 ) ;
#841 = LOCAL_TIME ( 16, 7, 51.00000000000000000, #241 ) ;
#842 = DIRECTION ( 'NONE',  ( 0.000000000000000000, 1.000000000000000000, 0.000000000000000000 ) ) ;
#843 = CARTESIAN_POINT ( 'NONE',  ( 0.000000000000000000, -20.00000000000000000, 0.000000000000000000 ) ) ;
#844 = EDGE_CURVE ( 'NONE', #101, #597, #784, .T. ) ;
#845 = CARTESIAN_POINT ( 'NONE',  ( 30.00000000000000000, -20.00000000000000000, 129.3303437365925390 ) ) ;
#846 =( NAMED_UNIT ( * ) SI_UNIT ( $, .STERADIAN. ) SOLID_ANGLE_UNIT ( ) );
#847 = CYLINDRICAL_SURFACE ( 'NONE', #132, 20.00000000000000355 ) ;
#848 = DIRECTION ( 'NONE',  ( 0.000000000000000000, -1.000000000000000000, 0.000000000000000000 ) ) ;
#849 = CARTESIAN_POINT ( 'NONE',  ( -30.00000000000000000, -20.00000000000000000, 129.3303437365925390 ) ) ;
#850 = CARTESIAN_POINT ( 'NONE',  ( -10.00000000000000000, -20.00000000000000000, 74.33034373659255323 ) ) ;
#851 = ORIENTED_EDGE ( 'NONE', *, *, #223, .F. ) ;
#852 = VECTOR ( 'NONE', #657, 1000.000000000000000 ) ;
#853 = EDGE_CURVE ( 'NONE', #603, #488, #475, .T. ) ;
#854 = DIRECTION ( 'NONE',  ( 0.000000000000000000, 1.000000000000000000, 0.000000000000000000 ) ) ;
#855 = AXIS2_PLACEMENT_3D ( 'NONE', #272, #283, #218 ) ;
#856 = CARTESIAN_POINT ( 'NONE',  ( -30.00000000000000355, -20.00000000000000000, 75.00000000000005684 ) ) ;
#857 = FACE_OUTER_BOUND ( 'NONE', #796, .T. ) ;
#858 = ORIENTED_EDGE ( 'NONE', *, *, #480, .F. ) ;
#859 = DIRECTION ( 'NONE',  ( -0.000000000000000000, -1.000000000000000000, -0.000000000000000000 ) ) ;
#860 = CARTESIAN_POINT ( 'NONE',  ( 0.000000000000000000, -20.00000000000000000, 0.000000000000000000 ) ) ;
#861 = CARTESIAN_POINT ( 'NONE',  ( 10.00000000000000000, -20.00000000000000000, 74.33034373659255323 ) ) ;
#862 = ORIENTED_EDGE ( 'NONE', *, *, #156, .T. ) ;
#863 = DIRECTION ( 'NONE',  ( -4.304967625839548401E-17, -0.000000000000000000, 1.000000000000000000 ) ) ;
#864 = PERSON_AND_ORGANIZATION ( #468, #432 ) ;
#865 = CYLINDRICAL_SURFACE ( 'NONE', #413, 75.00000000000002842 ) ;
#866 = EDGE_CURVE ( 'NONE', #839, #101, #702, .T. ) ;
#867 = ORIENTED_EDGE ( 'NONE', *, *, #514, .T. ) ;
#868 = LINE ( 'NONE', #449, #461 ) ;
#869 = AXIS2_PLACEMENT_3D ( 'NONE', #843, #768, #322 ) ;
#870 = CARTESIAN_POINT ( 'NONE',  ( 35.29411764705884735, 20.00000000000000000, 66.17647058823531836 ) ) ;
#871 = VECTOR ( 'NONE', #494, 1000.000000000000000 ) ;
#872 = ORIENTED_EDGE ( 'NONE', *, *, #756, .F. ) ;
#873 = LOCAL_TIME ( 16, 7, 51.00000000000000000, #525 ) ;
#874 = EDGE_CURVE ( 'NONE', #599, #539, #275, .T. ) ;
#875 = PERSON_AND_ORGANIZATION ( #468, #432 ) ;
#876 = DIRECTION ( 'NONE',  ( 0.000000000000000000, 0.000000000000000000, -1.000000000000000000 ) ) ;
#877 = EDGE_LOOP ( 'NONE', ( #270, #340, #332, #572 ) ) ;
#878 = DIRECTION ( 'NONE',  ( 0.000000000000000000, 0.000000000000000000, -1.000000000000000000 ) ) ;
#879 = ADVANCED_FACE ( 'NONE', ( #88, #376 ), #166, .T. ) ;
#880 = PERSON_AND_ORGANIZATION ( #468, #432 ) ;
#881 = DIRECTION ( 'NONE',  ( 0.000000000000000000, 0.000000000000000000, -1.000000000000000000 ) ) ;
#882 = EDGE_CURVE ( 'NONE', #324, #40, #637, .T. ) ;
#883 = ORIENTED_EDGE ( 'NONE', *, *, #829, .T. ) ;
#884 = ORIENTED_EDGE ( 'NONE', *, *, #557, .T. ) ;
#885 = APPROVAL_ROLE ( '' ) ;
#886 = CYLINDRICAL_SURFACE ( 'NONE', #663, 9.999999999999994671 ) ;
#887 = VECTOR ( 'NONE', #326, 1000.000000000000000 ) ;
#888 = ORIENTED_EDGE ( 'NONE', *, *, #544, .F. ) ;
#889 = VERTEX_POINT ( 'NONE', #236 ) ;
#890 = AXIS2_PLACEMENT_3D ( 'NONE', #306, #859, #174 ) ;
#891 = CC_DESIGN_APPROVAL ( #824, ( #387 ) ) ;
#892 = VERTEX_POINT ( 'NONE', #512 ) ;
#893 = DIRECTION ( 'NONE',  ( -1.000000000000000000, 0.000000000000000000, 4.304967625839547785E-17 ) ) ;
#894 = ORIENTED_EDGE ( 'NONE', *, *, #295, .F. ) ;
#895 = ORIENTED_EDGE ( 'NONE', *, *, #249, .T. ) ;
#896 = DIRECTION ( 'NONE',  ( 0.000000000000000000, 0.000000000000000000, 1.000000000000000000 ) ) ;
#897 = ORIENTED_EDGE ( 'NONE', *, *, #581, .T. ) ;
#898 = LINE ( 'NONE', #752, #620 ) ;
ENDSEC;
END-ISO-10303-21;
