ISO-10303-21;
HEADER;
FILE_DESCRIPTION (( 'STEP AP203' ),
    '1' );
FILE_NAME ('Link3LeftLShape_Default_sldprt.STEP',
    '2026-07-12T11:27:15',
    ( '' ),
    ( '' ),
    'SwSTEP 2.0',
    'SolidWorks 2025',
    '' );
FILE_SCHEMA (( 'CONFIG_CONTROL_DESIGN' ));
ENDSEC;

DATA;
#1 = EDGE_CURVE ( 'NONE', #437, #456, #208, .T. ) ;
#2 = AXIS2_PLACEMENT_3D ( 'NONE', #327, #117, #497 ) ;
#3 = FACE_OUTER_BOUND ( 'NONE', #428, .T. ) ;
#4 = FACE_OUTER_BOUND ( 'NONE', #76, .T. ) ;
#5 = MANIFOLD_SOLID_BREP ( 'Body-Move/Copy2', #362 ) ;
#6 = CC_DESIGN_DATE_AND_TIME_ASSIGNMENT ( #171, #380, ( #305 ) ) ;
#7 = DIRECTION ( 'NONE',  ( 0.000000000000000000, 0.000000000000000000, -1.000000000000000000 ) ) ;
#8 = CARTESIAN_POINT ( 'NONE',  ( 42.74625661375661423, 10.39767977332915549, -20.00178130511475061 ) ) ;
#9 = COORDINATED_UNIVERSAL_TIME_OFFSET ( 3, 30, .AHEAD. ) ;
#10 = AXIS2_PLACEMENT_3D ( 'NONE', #215, #94, #302 ) ;
#11 = CARTESIAN_POINT ( 'NONE',  ( 84.74625661375661423, 10.39767977332915549, 5.937915656852275958 ) ) ;
#12 = APPROVAL_STATUS ( 'not_yet_approved' ) ;
#13 = DIRECTION ( 'NONE',  ( -0.000000000000000000, -1.000000000000000000, -0.000000000000000000 ) ) ;
#14 = ADVANCED_FACE ( 'NONE', ( #458, #244, #375 ), #329, .F. ) ;
#15 = CARTESIAN_POINT ( 'NONE',  ( 44.84625661375662986, 10.39767977332915549, 5.937915656852275070 ) ) ;
#16 = MECHANICAL_CONTEXT ( 'NONE', #249, 'mechanical' ) ;
#17 = VERTEX_POINT ( 'NONE', #152 ) ;
#18 = DIRECTION ( 'NONE',  ( -0.000000000000000000, -1.000000000000000000, -0.000000000000000000 ) ) ;
#19 = DIRECTION ( 'NONE',  ( -2.960594732333755540E-16, -0.000000000000000000, -1.000000000000000000 ) ) ;
#20 = CALENDAR_DATE ( 2026, 12, 7 ) ;
#21 = DIRECTION ( 'NONE',  ( -1.000000000000000000, -0.000000000000000000, -0.000000000000000000 ) ) ;
#22 = CARTESIAN_POINT ( 'NONE',  ( 19.99625661375661778, 20.00000000000000000, -40.00178130511487495 ) ) ;
#23 = AXIS2_PLACEMENT_3D ( 'NONE', #77, #196, #159 ) ;
#24 = CARTESIAN_POINT ( 'NONE',  ( 42.74625661375661423, 10.39767977332915549, -20.00178130511475061 ) ) ;
#25 = PLANE ( 'NONE',  #407 ) ;
#26 = EDGE_CURVE ( 'NONE', #492, #310, #438, .T. ) ;
#27 = ORIENTED_EDGE ( 'NONE', *, *, #383, .T. ) ;
#28 = LINE ( 'NONE', #184, #162 ) ;
#29 = APPROVAL_DATE_TIME ( #482, #418 ) ;
#30 = ORIENTED_EDGE ( 'NONE', *, *, #352, .T. ) ;
#31 = FACE_BOUND ( 'NONE', #314, .T. ) ;
#32 = VECTOR ( 'NONE', #221, 1000.000000000000000 ) ;
#33 = AXIS2_PLACEMENT_3D ( 'NONE', #502, #261, #510 ) ;
#34 = ORIENTED_EDGE ( 'NONE', *, *, #1, .F. ) ;
#35 = ADVANCED_FACE ( 'NONE', ( #123 ), #319, .F. ) ;
#36 = VERTEX_POINT ( 'NONE', #115 ) ;
#37 = VERTEX_POINT ( 'NONE', #247 ) ;
#38 = EDGE_CURVE ( 'NONE', #433, #520, #281, .T. ) ;
#39 = CARTESIAN_POINT ( 'NONE',  ( 133.7462566137566000, 0.000000000000000000, -20.00178130511476127 ) ) ;
#40 = DIRECTION ( 'NONE',  ( -2.960594732333755047E-16, 0.000000000000000000, -1.000000000000000000 ) ) ;
#41 = AXIS2_PLACEMENT_3D ( 'NONE', #295, #174, #463 ) ;
#42 = VECTOR ( 'NONE', #378, 1000.000000000000000 ) ;
#43 = EDGE_CURVE ( 'NONE', #149, #146, #189, .T. ) ;
#44 = CARTESIAN_POINT ( 'NONE',  ( 19.99625661375660357, 0.000000000000000000, -120.0017813051147328 ) ) ;
#45 = ORIENTED_EDGE ( 'NONE', *, *, #26, .F. ) ;
#46 = APPROVAL_ROLE ( '' ) ;
#47 = DIRECTION ( 'NONE',  ( -2.960594732333755540E-16, -0.000000000000000000, -1.000000000000000000 ) ) ;
#48 = ORIENTED_EDGE ( 'NONE', *, *, #72, .F. ) ;
#49 = CARTESIAN_POINT ( 'NONE',  ( 19.99625661375674213, 20.00000000000000000, -0.001781305114731401851 ) ) ;
#50 = PRODUCT_DEFINITION_FORMATION_WITH_SPECIFIED_SOURCE ( 'ANY', '', #289, .NOT_KNOWN. ) ;
#51 = ORIENTED_EDGE ( 'NONE', *, *, #359, .F. ) ;
#52 = PERSON_AND_ORGANIZATION ( #414, #151 ) ;
#53 = APPLICATION_CONTEXT ( 'configuration controlled 3d designs of mechanical parts and assemblies' ) ;
#54 = DIRECTION ( 'NONE',  ( 0.000000000000000000, -1.000000000000000000, 0.000000000000000000 ) ) ;
#55 = LINE ( 'NONE', #212, #338 ) ;
#56 = LINE ( 'NONE', #391, #400 ) ;
#57 = CYLINDRICAL_SURFACE ( 'NONE', #10, 20.00000000000000355 ) ;
#58 = PERSON_AND_ORGANIZATION ( #414, #151 ) ;
#59 = DIRECTION ( 'NONE',  ( -1.000000000000000000, 0.000000000000000000, 1.734723475976806848E-16 ) ) ;
#60 = DIRECTION ( 'NONE',  ( -0.000000000000000000, -1.000000000000000000, -0.000000000000000000 ) ) ;
#61 = AXIS2_PLACEMENT_3D ( 'NONE', #157, #363, #321 ) ;
#62 = EDGE_CURVE ( 'NONE', #146, #149, #384, .T. ) ;
#63 = ORIENTED_EDGE ( 'NONE', *, *, #150, .T. ) ;
#64 = CARTESIAN_POINT ( 'NONE',  ( -0.003743386243398871827, 0.000000000000000000, -120.0017813051147328 ) ) ;
#65 = CARTESIAN_POINT ( 'NONE',  ( 39.99625661375676344, 0.000000000000000000, -20.00178130511473640 ) ) ;
#66 = EDGE_LOOP ( 'NONE', ( #416, #201, #213, #349 ) ) ;
#67 = PLANE ( 'NONE',  #357 ) ;
#68 = LINE ( 'NONE', #134, #356 ) ;
#69 = CALENDAR_DATE ( 2026, 12, 7 ) ;
#70 = ORIENTED_EDGE ( 'NONE', *, *, #72, .T. ) ;
#71 = ORIENTED_EDGE ( 'NONE', *, *, #485, .T. ) ;
#72 = EDGE_CURVE ( 'NONE', #456, #350, #252, .T. ) ;
#73 = DESIGN_CONTEXT ( 'detailed design', #53, 'design' ) ;
#74 = ORIENTED_EDGE ( 'NONE', *, *, #87, .T. ) ;
#75 = CC_DESIGN_DATE_AND_TIME_ASSIGNMENT ( #176, #168, ( #130 ) ) ;
#76 = EDGE_LOOP ( 'NONE', ( #120, #516, #132, #71 ) ) ;
#77 = CARTESIAN_POINT ( 'NONE',  ( 42.74625661375662844, 10.39767977332915549, -0.001781305114738340745 ) ) ;
#78 = DIRECTION ( 'NONE',  ( 0.000000000000000000, -1.000000000000000000, 0.000000000000000000 ) ) ;
#79 = CARTESIAN_POINT ( 'NONE',  ( 84.74625661375660002, 10.39767977332915549, -20.00178130511475061 ) ) ;
#80 = ADVANCED_FACE ( 'NONE', ( #4 ), #57, .F. ) ;
#81 = AXIS2_PLACEMENT_3D ( 'NONE', #207, #374, #169 ) ;
#82 = CARTESIAN_POINT ( 'NONE',  ( 133.7462566137566000, 20.00000000000000000, -0.001781305114759157426 ) ) ;
#83 = PRODUCT_RELATED_PRODUCT_CATEGORY ( 'detail', '', ( #289 ) ) ;
#84 = EDGE_LOOP ( 'NONE', ( #139, #230, #234, #258, #144, #190, #70, #470 ) ) ;
#85 = LINE ( 'NONE', #39, #442 ) ;
#86 = DIRECTION ( 'NONE',  ( -1.000000000000000000, 0.000000000000000000, 4.130293990420960515E-16 ) ) ;
#87 = EDGE_CURVE ( 'NONE', #98, #146, #224, .T. ) ;
#88 = PERSON_AND_ORGANIZATION_ROLE ( 'design_supplier' ) ;
#89 = CARTESIAN_POINT ( 'NONE',  ( 19.99625661375660357, 20.00000000000000000, -20.00178130511473640 ) ) ;
#90 = DIRECTION ( 'NONE',  ( -2.440050603571775287E-16, 0.000000000000000000, -1.000000000000000000 ) ) ;
#91 = PERSON_AND_ORGANIZATION ( #414, #151 ) ;
#92 = CIRCLE ( 'NONE', #23, 2.100000000000004530 ) ;
#93 = CARTESIAN_POINT ( 'NONE',  ( 44.84625661375662986, 10.39767977332915549, -0.001781305114738853139 ) ) ;
#94 = DIRECTION ( 'NONE',  ( -0.000000000000000000, -1.000000000000000000, -0.000000000000000000 ) ) ;
#95 = VERTEX_POINT ( 'NONE', #185 ) ;
#96 = PLANE ( 'NONE',  #287 ) ;
#97 = CARTESIAN_POINT ( 'NONE',  ( 0.000000000000000000, 0.000000000000000000, 0.000000000000000000 ) ) ;
#98 = VERTEX_POINT ( 'NONE', #426 ) ;
#99 = CARTESIAN_POINT ( 'NONE',  ( 133.7462566137566000, 20.00000000000000000, -20.00178130511476127 ) ) ;
#100 = APPROVAL ( #12, 'UNSPECIFIED' ) ;
#101 = FACE_OUTER_BOUND ( 'NONE', #118, .T. ) ;
#102 = EDGE_LOOP ( 'NONE', ( #346, #172, #191, #27 ) ) ;
#103 = CIRCLE ( 'NONE', #339, 2.100000000000004530 ) ;
#104 = APPROVAL_STATUS ( 'not_yet_approved' ) ;
#105 = ORIENTED_EDGE ( 'NONE', *, *, #116, .F. ) ;
#106 = DIRECTION ( 'NONE',  ( -0.000000000000000000, -0.000000000000000000, 1.000000000000000000 ) ) ;
#107 = CARTESIAN_POINT ( 'NONE',  ( 86.84625661375662276, 10.39767977332915549, -0.001781305114745792033 ) ) ;
#108 = ADVANCED_FACE ( 'NONE', ( #300 ), #387, .F. ) ;
#109 = ORIENTED_EDGE ( 'NONE', *, *, #237, .F. ) ;
#110 = VERTEX_POINT ( 'NONE', #107 ) ;
#111 = ORIENTED_EDGE ( 'NONE', *, *, #292, .F. ) ;
#112 = LOCAL_TIME ( 14, 57, 15.00000000000000000, #257 ) ;
#113 = ORIENTED_EDGE ( 'NONE', *, *, #443, .F. ) ;
#114 = PLANE ( 'NONE',  #206 ) ;
#115 = CARTESIAN_POINT ( 'NONE',  ( 19.99625661375661778, 0.000000000000000000, -40.00178130511487495 ) ) ;
#116 = EDGE_CURVE ( 'NONE', #437, #466, #514, .T. ) ;
#117 = DIRECTION ( 'NONE',  ( 0.000000000000000000, 0.000000000000000000, 1.000000000000000000 ) ) ;
#118 = EDGE_LOOP ( 'NONE', ( #368, #395, #34, #377 ) ) ;
#119 = CARTESIAN_POINT ( 'NONE',  ( 44.84625661375661565, 10.39767977332915549, -20.00178130511475061 ) ) ;
#120 = ORIENTED_EDGE ( 'NONE', *, *, #143, .T. ) ;
#121 = VECTOR ( 'NONE', #489, 1000.000000000000000 ) ;
#122 = DIRECTION ( 'NONE',  ( -1.734723475976806848E-16, -0.000000000000000000, -1.000000000000000000 ) ) ;
#123 = FACE_OUTER_BOUND ( 'NONE', #440, .T. ) ;
#124 = PERSON_AND_ORGANIZATION_ROLE ( 'creator' ) ;
#125 = LINE ( 'NONE', #82, #154 ) ;
#126 = EDGE_CURVE ( 'NONE', #148, #36, #468, .T. ) ;
#127 = APPROVAL_DATE_TIME ( #421, #202 ) ;
#128 = FACE_BOUND ( 'NONE', #488, .T. ) ;
#129 = DIRECTION ( 'NONE',  ( 2.440050603571775287E-16, -0.000000000000000000, 1.000000000000000000 ) ) ;
#130 = SECURITY_CLASSIFICATION ( '', '', #248 ) ;
#131 = AXIS2_PLACEMENT_3D ( 'NONE', #490, #90, #250 ) ;
#132 = ORIENTED_EDGE ( 'NONE', *, *, #493, .F. ) ;
#133 = CARTESIAN_POINT ( 'NONE',  ( -0.003743386243398871827, 20.00000000000000000, -120.0017813051147328 ) ) ;
#134 = CARTESIAN_POINT ( 'NONE',  ( 40.64625661375661991, 10.39767977332915549, 5.937915656852276847 ) ) ;
#135 = EDGE_CURVE ( 'NONE', #98, #110, #318, .T. ) ;
#136 = FACE_OUTER_BOUND ( 'NONE', #84, .T. ) ;
#137 = CARTESIAN_POINT ( 'NONE',  ( -0.003743386243398871827, 20.00000000000000000, -120.0017813051147328 ) ) ;
#138 = CARTESIAN_POINT ( 'NONE',  ( 19.99625661375660357, 20.00000000000000000, -120.0017813051147328 ) ) ;
#139 = ORIENTED_EDGE ( 'NONE', *, *, #432, .T. ) ;
#140 = PLANE ( 'NONE',  #155 ) ;
#141 = DIRECTION ( 'NONE',  ( 2.440050603571775287E-16, -0.000000000000000000, 1.000000000000000000 ) ) ;
#142 = LOCAL_TIME ( 14, 57, 15.00000000000000000, #298 ) ;
#143 = EDGE_CURVE ( 'NONE', #17, #36, #277, .T. ) ;
#144 = ORIENTED_EDGE ( 'NONE', *, *, #328, .T. ) ;
#145 = CARTESIAN_POINT ( 'NONE',  ( 39.99625661375662133, 20.00000000000000000, -20.00178130511473640 ) ) ;
#146 = VERTEX_POINT ( 'NONE', #180 ) ;
#147 = ORIENTED_EDGE ( 'NONE', *, *, #276, .T. ) ;
#148 = VERTEX_POINT ( 'NONE', #22 ) ;
#149 = VERTEX_POINT ( 'NONE', #508 ) ;
#150 = EDGE_CURVE ( 'NONE', #110, #98, #399, .T. ) ;
#151 = ORGANIZATION ( 'UNSPECIFIED', 'UNSPECIFIED', '' ) ;
#152 = CARTESIAN_POINT ( 'NONE',  ( 39.99625661375662133, 0.000000000000000000, -20.00178130511473640 ) ) ;
#153 = ADVANCED_FACE ( 'NONE', ( #101 ), #25, .F. ) ;
#154 = VECTOR ( 'NONE', #367, 1000.000000000000000 ) ;
#155 = AXIS2_PLACEMENT_3D ( 'NONE', #255, #54, #210 ) ;
#156 = LINE ( 'NONE', #320, #450 ) ;
#157 = CARTESIAN_POINT ( 'NONE',  ( 19.99625661375660357, 20.00000000000000000, -20.00178130511473640 ) ) ;
#158 = LINE ( 'NONE', #406, #121 ) ;
#159 = DIRECTION ( 'NONE',  ( -1.000000000000000000, 0.000000000000000000, 2.440261586137383743E-16 ) ) ;
#160 = DIRECTION ( 'NONE',  ( -2.960594732333755047E-16, 0.000000000000000000, -1.000000000000000000 ) ) ;
#161 = AXIS2_PLACEMENT_3D ( 'NONE', #472, #129, #336 ) ;
#162 = VECTOR ( 'NONE', #347, 1000.000000000000000 ) ;
#163 = APPROVAL_DATE_TIME ( #260, #100 ) ;
#164 = LOCAL_TIME ( 14, 57, 15.00000000000000000, #9 ) ;
#165 = CC_DESIGN_PERSON_AND_ORGANIZATION_ASSIGNMENT ( #91, #88, ( #50 ) ) ;
#166 = DIRECTION ( 'NONE',  ( -0.000000000000000000, -1.000000000000000000, -0.000000000000000000 ) ) ;
#167 = CARTESIAN_POINT ( 'NONE',  ( -0.003743386243398871827, 20.00000000000000000, -20.00178130511487495 ) ) ;
#168 = DATE_TIME_ROLE ( 'classification_date' ) ;
#169 = DIRECTION ( 'NONE',  ( 0.000000000000000000, 0.000000000000000000, -1.000000000000000000 ) ) ;
#170 = DIRECTION ( 'NONE',  ( -2.960594732333755540E-16, -0.000000000000000000, -1.000000000000000000 ) ) ;
#171 = DATE_AND_TIME ( #385, #112 ) ;
#172 = ORIENTED_EDGE ( 'NONE', *, *, #485, .F. ) ;
#173 = FACE_OUTER_BOUND ( 'NONE', #66, .T. ) ;
#174 = DIRECTION ( 'NONE',  ( -2.960594732333755540E-16, -0.000000000000000000, -1.000000000000000000 ) ) ;
#175 = EDGE_CURVE ( 'NONE', #324, #17, #420, .T. ) ;
#176 = DATE_AND_TIME ( #20, #142 ) ;
#177 = AXIS2_PLACEMENT_3D ( 'NONE', #89, #166, #7 ) ;
#178 = ORIENTED_EDGE ( 'NONE', *, *, #233, .T. ) ;
#179 = LINE ( 'NONE', #138, #42 ) ;
#180 = CARTESIAN_POINT ( 'NONE',  ( 82.64625661375660570, 10.39767977332915549, -20.00178130511475061 ) ) ;
#181 = ADVANCED_BREP_SHAPE_REPRESENTATION ( 'Link3LeftLShape_Default_sldprt', ( #5, #337 ), #503 ) ;
#182 = CARTESIAN_POINT ( 'NONE',  ( 39.99625661375662133, 0.000000000000000000, -40.00178130511473995 ) ) ;
#183 = ORIENTED_EDGE ( 'NONE', *, *, #87, .F. ) ;
#184 = CARTESIAN_POINT ( 'NONE',  ( 39.99625661375662133, 20.00000000000000000, -20.00178130511473640 ) ) ;
#185 = CARTESIAN_POINT ( 'NONE',  ( 133.7462566137566000, 0.000000000000000000, -0.001781305114759157426 ) ) ;
#186 = SHAPE_DEFINITION_REPRESENTATION ( #205, #181 ) ;
#187 = ORIENTED_EDGE ( 'NONE', *, *, #478, .T. ) ;
#188 = ORIENTED_EDGE ( 'NONE', *, *, #43, .F. ) ;
#189 = CIRCLE ( 'NONE', #486, 2.100000000000004530 ) ;
#190 = ORIENTED_EDGE ( 'NONE', *, *, #1, .T. ) ;
#191 = ORIENTED_EDGE ( 'NONE', *, *, #254, .F. ) ;
#192 = EDGE_CURVE ( 'NONE', #396, #492, #68, .T. ) ;
#193 = ORIENTED_EDGE ( 'NONE', *, *, #135, .F. ) ;
#194 = AXIS2_PLACEMENT_3D ( 'NONE', #404, #40, #198 ) ;
#195 = EDGE_CURVE ( 'NONE', #479, #310, #228, .T. ) ;
#196 = DIRECTION ( 'NONE',  ( 2.440050603571775287E-16, -0.000000000000000000, 1.000000000000000000 ) ) ;
#197 = FACE_OUTER_BOUND ( 'NONE', #229, .T. ) ;
#198 = DIRECTION ( 'NONE',  ( -1.000000000000000000, 0.000000000000000000, 0.000000000000000000 ) ) ;
#199 = AXIS2_PLACEMENT_3D ( 'NONE', #11, #453, #86 ) ;
#200 = ORIENTED_EDGE ( 'NONE', *, *, #175, .F. ) ;
#201 = ORIENTED_EDGE ( 'NONE', *, *, #383, .F. ) ;
#202 = APPROVAL ( #253, 'UNSPECIFIED' ) ;
#203 = PERSON_AND_ORGANIZATION ( #414, #151 ) ;
#204 = ORIENTED_EDGE ( 'NONE', *, *, #317, .F. ) ;
#205 = PRODUCT_DEFINITION_SHAPE ( 'NONE', 'NONE',  #305 ) ;
#206 = AXIS2_PLACEMENT_3D ( 'NONE', #444, #78, #238 ) ;
#207 = CARTESIAN_POINT ( 'NONE',  ( 19.99625661375660357, 0.000000000000000000, -20.00178130511473640 ) ) ;
#208 = LINE ( 'NONE', #167, #217 ) ;
#209 = ORIENTED_EDGE ( 'NONE', *, *, #352, .F. ) ;
#210 = DIRECTION ( 'NONE',  ( 0.000000000000000000, -0.000000000000000000, -1.000000000000000000 ) ) ;
#211 = ADVANCED_FACE ( 'NONE', ( #332 ), #500, .F. ) ;
#212 = CARTESIAN_POINT ( 'NONE',  ( -0.003743386243398871827, 20.00000000000000000, -20.00178130511487495 ) ) ;
#213 = ORIENTED_EDGE ( 'NONE', *, *, #432, .F. ) ;
#214 = CARTESIAN_POINT ( 'NONE',  ( 42.74625661375662844, 10.39767977332915549, -0.001781305114738340745 ) ) ;
#215 = CARTESIAN_POINT ( 'NONE',  ( 39.99625661375662133, 20.00000000000000000, -40.00178130511473995 ) ) ;
#216 = PERSON_AND_ORGANIZATION ( #414, #151 ) ;
#217 = VECTOR ( 'NONE', #283, 1000.000000000000000 ) ;
#218 = ORIENTED_EDGE ( 'NONE', *, *, #359, .T. ) ;
#219 = CARTESIAN_POINT ( 'NONE',  ( 39.99625661375676344, 20.00000000000000000, -20.00178130511473640 ) ) ;
#220 = VECTOR ( 'NONE', #227, 1000.000000000000000 ) ;
#221 = DIRECTION ( 'NONE',  ( -0.000000000000000000, -1.000000000000000000, -0.000000000000000000 ) ) ;
#222 = ORIENTED_EDGE ( 'NONE', *, *, #192, .F. ) ;
#223 = DIRECTION ( 'NONE',  ( 1.000000000000000000, 0.000000000000000000, 0.000000000000000000 ) ) ;
#224 = LINE ( 'NONE', #309, #306 ) ;
#225 = EDGE_CURVE ( 'NONE', #456, #291, #55, .T. ) ;
#226 = VERTEX_POINT ( 'NONE', #145 ) ;
#227 = DIRECTION ( 'NONE',  ( 1.000000000000000000, -0.000000000000000000, -2.440050603571775287E-16 ) ) ;
#228 = LINE ( 'NONE', #15, #286 ) ;
#229 = EDGE_LOOP ( 'NONE', ( #218, #264, #48, #315 ) ) ;
#230 = ORIENTED_EDGE ( 'NONE', *, *, #254, .T. ) ;
#231 = VECTOR ( 'NONE', #47, 1000.000000000000000 ) ;
#232 = EDGE_LOOP ( 'NONE', ( #193, #480 ) ) ;
#233 = EDGE_CURVE ( 'NONE', #479, #396, #92, .T. ) ;
#234 = ORIENTED_EDGE ( 'NONE', *, *, #493, .T. ) ;
#235 = VECTOR ( 'NONE', #445, 1000.000000000000000 ) ;
#236 = AXIS2_PLACEMENT_3D ( 'NONE', #342, #419, #507 ) ;
#237 = EDGE_CURVE ( 'NONE', #95, #324, #85, .T. ) ;
#238 = DIRECTION ( 'NONE',  ( 0.000000000000000000, -0.000000000000000000, -1.000000000000000000 ) ) ;
#239 = DIRECTION ( 'NONE',  ( -1.000000000000000000, 0.000000000000000000, 0.000000000000000000 ) ) ;
#240 = CARTESIAN_POINT ( 'NONE',  ( 19.99625661375660357, 0.000000000000000000, -120.0017813051147328 ) ) ;
#241 = ORIENTED_EDGE ( 'NONE', *, *, #423, .T. ) ;
#242 = CIRCLE ( 'NONE', #81, 20.00000000000000355 ) ;
#243 = CYLINDRICAL_SURFACE ( 'NONE', #177, 20.00000000000000355 ) ;
#244 = FACE_BOUND ( 'NONE', #388, .T. ) ;
#245 = CC_DESIGN_PERSON_AND_ORGANIZATION_ASSIGNMENT ( #216, #498, ( #305 ) ) ;
#246 = PLANE ( 'NONE',  #515 ) ;
#247 = CARTESIAN_POINT ( 'NONE',  ( 133.7462566137566000, 20.00000000000000000, -0.001781305114759157426 ) ) ;
#248 = SECURITY_CLASSIFICATION_LEVEL ( 'unclassified' ) ;
#249 = APPLICATION_CONTEXT ( 'configuration controlled 3d designs of mechanical parts and assemblies' ) ;
#250 = DIRECTION ( 'NONE',  ( -1.000000000000000000, 0.000000000000000000, 2.440050603571775287E-16 ) ) ;
#251 = APPROVAL_PERSON_ORGANIZATION ( #474, #418, #267 ) ;
#252 = CIRCLE ( 'NONE', #61, 20.00000000000000355 ) ;
#253 = APPROVAL_STATUS ( 'not_yet_approved' ) ;
#254 = EDGE_CURVE ( 'NONE', #411, #226, #158, .T. ) ;
#255 = CARTESIAN_POINT ( 'NONE',  ( 19.99625661375660357, 20.00000000000000000, -20.00178130511473640 ) ) ;
#256 = DIRECTION ( 'NONE',  ( -1.000000000000000000, 0.000000000000000000, 2.440261586137383743E-16 ) ) ;
#257 = COORDINATED_UNIVERSAL_TIME_OFFSET ( 3, 30, .AHEAD. ) ;
#258 = ORIENTED_EDGE ( 'NONE', *, *, #465, .T. ) ;
#259 = LINE ( 'NONE', #422, #393 ) ;
#260 = DATE_AND_TIME ( #330, #164 ) ;
#261 = DIRECTION ( 'NONE',  ( -2.960594732333755540E-16, -0.000000000000000000, -1.000000000000000000 ) ) ;
#262 = CARTESIAN_POINT ( 'NONE',  ( 42.74625661375662844, 10.39767977332915549, 5.937915656852275958 ) ) ;
#263 = VECTOR ( 'NONE', #60, 1000.000000000000000 ) ;
#264 = ORIENTED_EDGE ( 'NONE', *, *, #276, .F. ) ;
#265 = CARTESIAN_POINT ( 'NONE',  ( 133.7462566137566000, 20.00000000000000000, -20.00178130511476127 ) ) ;
#266 = CC_DESIGN_PERSON_AND_ORGANIZATION_ASSIGNMENT ( #373, #124, ( #50 ) ) ;
#267 = APPROVAL_ROLE ( '' ) ;
#268 = ORIENTED_EDGE ( 'NONE', *, *, #43, .T. ) ;
#269 = CARTESIAN_POINT ( 'NONE',  ( 133.7462566137566000, 0.000000000000000000, -0.001781305114759157426 ) ) ;
#270 = CARTESIAN_POINT ( 'NONE',  ( 84.74625661375661423, 10.39767977332915549, -0.001781305114745279639 ) ) ;
#271 = ORIENTED_EDGE ( 'NONE', *, *, #233, .F. ) ;
#272 = DIRECTION ( 'NONE',  ( -0.000000000000000000, -1.000000000000000000, -0.000000000000000000 ) ) ;
#273 = EDGE_LOOP ( 'NONE', ( #30, #341, #452, #353 ) ) ;
#274 = EDGE_LOOP ( 'NONE', ( #204, #63, #74, #334 ) ) ;
#275 = LOCAL_TIME ( 14, 57, 15.00000000000000000, #369 ) ;
#276 = EDGE_CURVE ( 'NONE', #350, #521, #457, .T. ) ;
#277 = CIRCLE ( 'NONE', #427, 20.00000000000000355 ) ;
#278 = ORIENTED_EDGE ( 'NONE', *, *, #412, .T. ) ;
#279 = APPROVAL_PERSON_ORGANIZATION ( #203, #202, #326 ) ;
#280 = CARTESIAN_POINT ( 'NONE',  ( 19.99625661375674213, 20.00000000000000000, -0.001781305114731401851 ) ) ;
#281 = LINE ( 'NONE', #448, #235 ) ;
#282 = DIRECTION ( 'NONE',  ( -1.000000000000000000, -0.000000000000000000, -0.000000000000000000 ) ) ;
#283 = DIRECTION ( 'NONE',  ( -0.000000000000000000, -0.000000000000000000, 1.000000000000000000 ) ) ;
#284 = UNCERTAINTY_MEASURE_WITH_UNIT (LENGTH_MEASURE( 1.000000000000000082E-05 ), #413, 'distance_accuracy_value', 'NONE');
#285 = ADVANCED_FACE ( 'NONE', ( #449 ), #246, .F. ) ;
#286 = VECTOR ( 'NONE', #170, 1000.000000000000000 ) ;
#287 = AXIS2_PLACEMENT_3D ( 'NONE', #219, #331, #429 ) ;
#288 = DIRECTION ( 'NONE',  ( -1.000000000000000000, 0.000000000000000000, 1.734723475976810053E-16 ) ) ;
#289 = PRODUCT ( 'Link3LeftLShape_Default_sldprt', 'Link3LeftLShape_Default_sldprt', '', ( #16 ) ) ;
#290 = CARTESIAN_POINT ( 'NONE',  ( 133.7462566137566000, 0.000000000000000000, -20.00178130511476127 ) ) ;
#291 = VERTEX_POINT ( 'NONE', #365 ) ;
#292 = EDGE_CURVE ( 'NONE', #350, #37, #125, .T. ) ;
#293 = ORIENTED_EDGE ( 'NONE', *, *, #26, .T. ) ;
#294 = DIRECTION ( 'NONE',  ( -2.960594732333755047E-16, 0.000000000000000000, -1.000000000000000000 ) ) ;
#295 = CARTESIAN_POINT ( 'NONE',  ( 42.74625661375662844, 10.39767977332915549, 5.937915656852275958 ) ) ;
#296 = VECTOR ( 'NONE', #282, 1000.000000000000000 ) ;
#297 = CIRCLE ( 'NONE', #417, 2.100000000000004530 ) ;
#298 = COORDINATED_UNIVERSAL_TIME_OFFSET ( 3, 30, .AHEAD. ) ;
#299 = DIRECTION ( 'NONE',  ( -1.000000000000000000, 0.000000000000000000, 2.440261586137383743E-16 ) ) ;
#300 = FACE_OUTER_BOUND ( 'NONE', #436, .T. ) ;
#301 = APPLICATION_PROTOCOL_DEFINITION ( 'international standard', 'config_control_design', 1994, #249 ) ;
#302 = DIRECTION ( 'NONE',  ( 0.000000000000000000, 0.000000000000000000, -1.000000000000000000 ) ) ;
#303 = DIRECTION ( 'NONE',  ( 1.000000000000000000, 0.000000000000000000, 0.000000000000000000 ) ) ;
#304 = DIRECTION ( 'NONE',  ( 2.440050603571775287E-16, -0.000000000000000000, 1.000000000000000000 ) ) ;
#305 = PRODUCT_DEFINITION ( 'UNKNOWN', '', #50, #73 ) ;
#306 = VECTOR ( 'NONE', #343, 1000.000000000000000 ) ;
#307 = ORIENTED_EDGE ( 'NONE', *, *, #328, .F. ) ;
#308 = LINE ( 'NONE', #476, #401 ) ;
#309 = CARTESIAN_POINT ( 'NONE',  ( 82.64625661375661991, 10.39767977332915549, 5.937915656852276847 ) ) ;
#310 = VERTEX_POINT ( 'NONE', #119 ) ;
#311 = ORIENTED_EDGE ( 'NONE', *, *, #192, .T. ) ;
#312 = EDGE_CURVE ( 'NONE', #37, #95, #156, .T. ) ;
#313 = ORIENTED_EDGE ( 'NONE', *, *, #317, .T. ) ;
#314 = EDGE_LOOP ( 'NONE', ( #439, #188 ) ) ;
#315 = ORIENTED_EDGE ( 'NONE', *, *, #225, .T. ) ;
#316 = ADVANCED_FACE ( 'NONE', ( #197 ), #243, .T. ) ;
#317 = EDGE_CURVE ( 'NONE', #110, #149, #410, .T. ) ;
#318 = CIRCLE ( 'NONE', #325, 2.100000000000004530 ) ;
#319 = CYLINDRICAL_SURFACE ( 'NONE', #199, 2.100000000000004530 ) ;
#320 = CARTESIAN_POINT ( 'NONE',  ( 133.7462566137566000, 20.00000000000000000, -0.001781305114759157426 ) ) ;
#321 = DIRECTION ( 'NONE',  ( 0.000000000000000000, 0.000000000000000000, -1.000000000000000000 ) ) ;
#322 = ADVANCED_FACE ( 'NONE', ( #3 ), #370, .F. ) ;
#323 = DIRECTION ( 'NONE',  ( -1.734723475976810299E-16, -0.000000000000000000, -1.000000000000000000 ) ) ;
#324 = VERTEX_POINT ( 'NONE', #290 ) ;
#325 = AXIS2_PLACEMENT_3D ( 'NONE', #270, #141, #256 ) ;
#326 = APPROVAL_ROLE ( '' ) ;
#327 = CARTESIAN_POINT ( 'NONE',  ( -0.003743386243398871827, 20.00000000000000000, -120.0017813051147328 ) ) ;
#328 = EDGE_CURVE ( 'NONE', #433, #437, #408, .T. ) ;
#329 = PLANE ( 'NONE',  #131 ) ;
#330 = CALENDAR_DATE ( 2026, 12, 7 ) ;
#331 = DIRECTION ( 'NONE',  ( 2.960594732333755047E-16, -0.000000000000000000, 1.000000000000000000 ) ) ;
#332 = FACE_OUTER_BOUND ( 'NONE', #390, .T. ) ;
#333 = PERSON_AND_ORGANIZATION_ROLE ( 'classification_officer' ) ;
#334 = ORIENTED_EDGE ( 'NONE', *, *, #62, .T. ) ;
#335 = DIRECTION ( 'NONE',  ( 1.734723475976806848E-16, 0.000000000000000000, 1.000000000000000000 ) ) ;
#336 = DIRECTION ( 'NONE',  ( -1.000000000000000000, 0.000000000000000000, 2.440261586137383743E-16 ) ) ;
#337 = AXIS2_PLACEMENT_3D ( 'NONE', #97, #376, #303 ) ;
#338 = VECTOR ( 'NONE', #272, 1000.000000000000000 ) ;
#339 = AXIS2_PLACEMENT_3D ( 'NONE', #24, #294, #223 ) ;
#340 = APPROVAL_PERSON_ORGANIZATION ( #58, #100, #46 ) ;
#341 = ORIENTED_EDGE ( 'NONE', *, *, #38, .F. ) ;
#342 = CARTESIAN_POINT ( 'NONE',  ( 39.99625661375662133, 20.00000000000000000, -40.00178130511473995 ) ) ;
#343 = DIRECTION ( 'NONE',  ( -2.960594732333755540E-16, -0.000000000000000000, -1.000000000000000000 ) ) ;
#344 = CARTESIAN_POINT ( 'NONE',  ( 133.7462566137566000, 20.00000000000000000, -20.00178130511476127 ) ) ;
#345 = DIRECTION ( 'NONE',  ( 1.000000000000000000, -0.000000000000000000, 0.000000000000000000 ) ) ;
#346 = ORIENTED_EDGE ( 'NONE', *, *, #175, .T. ) ;
#347 = DIRECTION ( 'NONE',  ( -0.000000000000000000, -1.000000000000000000, -0.000000000000000000 ) ) ;
#348 = DIRECTION ( 'NONE',  ( -1.000000000000000000, 0.000000000000000000, 4.130293990420960515E-16 ) ) ;
#349 = ORIENTED_EDGE ( 'NONE', *, *, #312, .T. ) ;
#350 = VERTEX_POINT ( 'NONE', #49 ) ;
#351 = LOCAL_TIME ( 14, 57, 15.00000000000000000, #431 ) ;
#352 = EDGE_CURVE ( 'NONE', #36, #520, #491, .T. ) ;
#353 = ORIENTED_EDGE ( 'NONE', *, *, #126, .T. ) ;
#354 = ORIENTED_EDGE ( 'NONE', *, *, #135, .T. ) ;
#355 = ORIENTED_EDGE ( 'NONE', *, *, #143, .F. ) ;
#356 = VECTOR ( 'NONE', #19, 1000.000000000000000 ) ;
#357 = AXIS2_PLACEMENT_3D ( 'NONE', #344, #59, #335 ) ;
#358 = CARTESIAN_POINT ( 'NONE',  ( 19.99625661375674213, 0.000000000000000000, -0.001781305114731401851 ) ) ;
#359 = EDGE_CURVE ( 'NONE', #291, #521, #242, .T. ) ;
#360 = CC_DESIGN_APPROVAL ( #100, ( #305 ) ) ;
#361 = CARTESIAN_POINT ( 'NONE',  ( 86.84625661375662276, 10.39767977332915549, 5.937915656852275070 ) ) ;
#362 = CLOSED_SHELL ( 'NONE', ( #35, #211, #398, #454, #80, #285, #322, #153, #316, #14, #501, #364, #108, #402 ) ) ;
#363 = DIRECTION ( 'NONE',  ( 0.000000000000000000, 1.000000000000000000, -0.000000000000000000 ) ) ;
#364 = ADVANCED_FACE ( 'NONE', ( #487 ), #114, .T. ) ;
#365 = CARTESIAN_POINT ( 'NONE',  ( -0.003743386243398871827, 0.000000000000000000, -20.00178130511487495 ) ) ;
#366 = DIRECTION ( 'NONE',  ( -2.960594732333755047E-16, 0.000000000000000000, -1.000000000000000000 ) ) ;
#367 = DIRECTION ( 'NONE',  ( 1.000000000000000000, -0.000000000000000000, -2.440050603571775287E-16 ) ) ;
#368 = ORIENTED_EDGE ( 'NONE', *, *, #519, .T. ) ;
#369 = COORDINATED_UNIVERSAL_TIME_OFFSET ( 3, 30, .AHEAD. ) ;
#370 = PLANE ( 'NONE',  #2 ) ;
#371 = ORIENTED_EDGE ( 'NONE', *, *, #38, .T. ) ;
#372 = VECTOR ( 'NONE', #435, 1000.000000000000000 ) ;
#373 = PERSON_AND_ORGANIZATION ( #414, #151 ) ;
#374 = DIRECTION ( 'NONE',  ( 0.000000000000000000, 1.000000000000000000, -0.000000000000000000 ) ) ;
#375 = FACE_OUTER_BOUND ( 'NONE', #409, .T. ) ;
#376 = DIRECTION ( 'NONE',  ( 0.000000000000000000, 0.000000000000000000, 1.000000000000000000 ) ) ;
#377 = ORIENTED_EDGE ( 'NONE', *, *, #116, .T. ) ;
#378 = DIRECTION ( 'NONE',  ( -1.734723475976810299E-16, -0.000000000000000000, -1.000000000000000000 ) ) ;
#379 = DIRECTION ( 'NONE',  ( -2.960594732333755540E-16, -0.000000000000000000, -1.000000000000000000 ) ) ;
#380 = DATE_TIME_ROLE ( 'creation_date' ) ;
#381 = DIRECTION ( 'NONE',  ( -1.734723475976806848E-16, -0.000000000000000000, -1.000000000000000000 ) ) ;
#382 = DIRECTION ( 'NONE',  ( 0.000000000000000000, 0.000000000000000000, 1.000000000000000000 ) ) ;
#383 = EDGE_CURVE ( 'NONE', #411, #324, #389, .T. ) ;
#384 = CIRCLE ( 'NONE', #194, 2.100000000000004530 ) ;
#385 = CALENDAR_DATE ( 2026, 12, 7 ) ;
#386 = CARTESIAN_POINT ( 'NONE',  ( 19.99625661375660357, 20.00000000000000000, -120.0017813051147328 ) ) ;
#387 = CYLINDRICAL_SURFACE ( 'NONE', #505, 2.100000000000004530 ) ;
#388 = EDGE_LOOP ( 'NONE', ( #397, #271 ) ) ;
#389 = LINE ( 'NONE', #99, #451 ) ;
#390 = EDGE_LOOP ( 'NONE', ( #241, #484, #187, #222 ) ) ;
#391 = CARTESIAN_POINT ( 'NONE',  ( -0.003743386243398871827, 0.000000000000000000, -120.0017813051147328 ) ) ;
#392 = VECTOR ( 'NONE', #403, 1000.000000000000000 ) ;
#393 = VECTOR ( 'NONE', #381, 1000.000000000000000 ) ;
#394 = ORIENTED_EDGE ( 'NONE', *, *, #519, .F. ) ;
#395 = ORIENTED_EDGE ( 'NONE', *, *, #225, .F. ) ;
#396 = VERTEX_POINT ( 'NONE', #471 ) ;
#397 = ORIENTED_EDGE ( 'NONE', *, *, #423, .F. ) ;
#398 = ADVANCED_FACE ( 'NONE', ( #173 ), #67, .F. ) ;
#399 = CIRCLE ( 'NONE', #161, 2.100000000000004530 ) ;
#400 = VECTOR ( 'NONE', #21, 1000.000000000000000 ) ;
#401 = VECTOR ( 'NONE', #106, 1000.000000000000000 ) ;
#402 = ADVANCED_FACE ( 'NONE', ( #434 ), #461, .F. ) ;
#403 = DIRECTION ( 'NONE',  ( -0.000000000000000000, -1.000000000000000000, -0.000000000000000000 ) ) ;
#404 = CARTESIAN_POINT ( 'NONE',  ( 84.74625661375660002, 10.39767977332915549, -20.00178130511475061 ) ) ;
#405 = CC_DESIGN_APPROVAL ( #202, ( #50 ) ) ;
#406 = CARTESIAN_POINT ( 'NONE',  ( 39.99625661375676344, 20.00000000000000000, -20.00178130511473640 ) ) ;
#407 = AXIS2_PLACEMENT_3D ( 'NONE', #477, #345, #511 ) ;
#408 = LINE ( 'NONE', #415, #296 ) ;
#409 = EDGE_LOOP ( 'NONE', ( #278, #512, #111, #147 ) ) ;
#410 = LINE ( 'NONE', #361, #231 ) ;
#411 = VERTEX_POINT ( 'NONE', #265 ) ;
#412 = EDGE_CURVE ( 'NONE', #521, #95, #425, .T. ) ;
#413 =( LENGTH_UNIT ( ) NAMED_UNIT ( * ) SI_UNIT ( .MILLI., .METRE. ) );
#414 = PERSON ( 'UNSPECIFIED', 'UNSPECIFIED', 'UNSPECIFIED', ('UNSPECIFIED'), ('UNSPECIFIED'), ('UNSPECIFIED') ) ;
#415 = CARTESIAN_POINT ( 'NONE',  ( -0.003743386243398871827, 20.00000000000000000, -120.0017813051147328 ) ) ;
#416 = ORIENTED_EDGE ( 'NONE', *, *, #237, .T. ) ;
#417 = AXIS2_PLACEMENT_3D ( 'NONE', #214, #304, #299 ) ;
#418 = APPROVAL ( #104, 'UNSPECIFIED' ) ;
#419 = DIRECTION ( 'NONE',  ( -0.000000000000000000, -1.000000000000000000, -0.000000000000000000 ) ) ;
#420 = LINE ( 'NONE', #65, #372 ) ;
#421 = DATE_AND_TIME ( #496, #275 ) ;
#422 = CARTESIAN_POINT ( 'NONE',  ( 133.7462566137566000, 20.00000000000000000, -20.00178130511476127 ) ) ;
#423 = EDGE_CURVE ( 'NONE', #396, #479, #297, .T. ) ;
#424 =( NAMED_UNIT ( * ) PLANE_ANGLE_UNIT ( ) SI_UNIT ( $, .RADIAN. ) );
#425 = LINE ( 'NONE', #269, #220 ) ;
#426 = CARTESIAN_POINT ( 'NONE',  ( 82.64625661375661991, 10.39767977332915549, -0.001781305114744767245 ) ) ;
#427 = AXIS2_PLACEMENT_3D ( 'NONE', #182, #504, #382 ) ;
#428 = EDGE_LOOP ( 'NONE', ( #481, #105, #307, #371 ) ) ;
#429 = DIRECTION ( 'NONE',  ( 1.000000000000000000, 0.000000000000000000, -2.960594732333755047E-16 ) ) ;
#430 = CARTESIAN_POINT ( 'NONE',  ( 19.99625661375661778, 20.00000000000000000, -40.00178130511487495 ) ) ;
#431 = COORDINATED_UNIVERSAL_TIME_OFFSET ( 3, 30, .AHEAD. ) ;
#432 = EDGE_CURVE ( 'NONE', #37, #411, #259, .T. ) ;
#433 = VERTEX_POINT ( 'NONE', #386 ) ;
#434 = FACE_OUTER_BOUND ( 'NONE', #274, .T. ) ;
#435 = DIRECTION ( 'NONE',  ( -1.000000000000000000, -0.000000000000000000, 2.960594732333755047E-16 ) ) ;
#436 = EDGE_LOOP ( 'NONE', ( #518, #178, #311, #293 ) ) ;
#437 = VERTEX_POINT ( 'NONE', #133 ) ;
#438 = CIRCLE ( 'NONE', #473, 2.100000000000004530 ) ;
#439 = ORIENTED_EDGE ( 'NONE', *, *, #62, .F. ) ;
#440 = EDGE_LOOP ( 'NONE', ( #354, #313, #268, #183 ) ) ;
#441 = CC_DESIGN_PERSON_AND_ORGANIZATION_ASSIGNMENT ( #469, #509, ( #289 ) ) ;
#442 = VECTOR ( 'NONE', #122, 1000.000000000000000 ) ;
#443 = EDGE_CURVE ( 'NONE', #520, #466, #56, .T. ) ;
#444 = CARTESIAN_POINT ( 'NONE',  ( 19.99625661375660357, 0.000000000000000000, -20.00178130511473640 ) ) ;
#445 = DIRECTION ( 'NONE',  ( -0.000000000000000000, -1.000000000000000000, -0.000000000000000000 ) ) ;
#446 = CC_DESIGN_PERSON_AND_ORGANIZATION_ASSIGNMENT ( #52, #333, ( #130 ) ) ;
#447 = DIRECTION ( 'NONE',  ( 1.734723475976810053E-16, 0.000000000000000000, 1.000000000000000000 ) ) ;
#448 = CARTESIAN_POINT ( 'NONE',  ( 19.99625661375660357, 20.00000000000000000, -120.0017813051147328 ) ) ;
#449 = FACE_OUTER_BOUND ( 'NONE', #273, .T. ) ;
#450 = VECTOR ( 'NONE', #13, 1000.000000000000000 ) ;
#451 = VECTOR ( 'NONE', #18, 1000.000000000000000 ) ;
#452 = ORIENTED_EDGE ( 'NONE', *, *, #465, .F. ) ;
#453 = DIRECTION ( 'NONE',  ( -2.960594732333755540E-16, -0.000000000000000000, -1.000000000000000000 ) ) ;
#454 = ADVANCED_FACE ( 'NONE', ( #31, #128, #467 ), #96, .F. ) ;
#455 = APPLICATION_PROTOCOL_DEFINITION ( 'international standard', 'config_control_design', 1994, #53 ) ;
#456 = VERTEX_POINT ( 'NONE', #499 ) ;
#457 = LINE ( 'NONE', #280, #392 ) ;
#458 = FACE_BOUND ( 'NONE', #232, .T. ) ;
#459 =( NAMED_UNIT ( * ) SI_UNIT ( $, .STERADIAN. ) SOLID_ANGLE_UNIT ( ) );
#460 = ORIENTED_EDGE ( 'NONE', *, *, #412, .F. ) ;
#461 = CYLINDRICAL_SURFACE ( 'NONE', #33, 2.100000000000004530 ) ;
#462 = CC_DESIGN_SECURITY_CLASSIFICATION ( #130, ( #50 ) ) ;
#463 = DIRECTION ( 'NONE',  ( -1.000000000000000000, 0.000000000000000000, 4.130293990420960515E-16 ) ) ;
#464 = CIRCLE ( 'NONE', #236, 20.00000000000000355 ) ;
#465 = EDGE_CURVE ( 'NONE', #148, #433, #179, .T. ) ;
#466 = VERTEX_POINT ( 'NONE', #64 ) ;
#467 = FACE_OUTER_BOUND ( 'NONE', #102, .T. ) ;
#468 = LINE ( 'NONE', #430, #32 ) ;
#469 = PERSON_AND_ORGANIZATION ( #414, #151 ) ;
#470 = ORIENTED_EDGE ( 'NONE', *, *, #292, .T. ) ;
#471 = CARTESIAN_POINT ( 'NONE',  ( 40.64625661375661991, 10.39767977332915549, -0.001781305114737828351 ) ) ;
#472 = CARTESIAN_POINT ( 'NONE',  ( 84.74625661375661423, 10.39767977332915549, -0.001781305114745279639 ) ) ;
#473 = AXIS2_PLACEMENT_3D ( 'NONE', #8, #160, #495 ) ;
#474 = PERSON_AND_ORGANIZATION ( #414, #151 ) ;
#475 = CC_DESIGN_APPROVAL ( #418, ( #130 ) ) ;
#476 = CARTESIAN_POINT ( 'NONE',  ( -0.003743386243398871827, 0.000000000000000000, -20.00178130511487495 ) ) ;
#477 = CARTESIAN_POINT ( 'NONE',  ( -0.003743386243398871827, 20.00000000000000000, -20.00178130511487495 ) ) ;
#478 = EDGE_CURVE ( 'NONE', #310, #492, #103, .T. ) ;
#479 = VERTEX_POINT ( 'NONE', #93 ) ;
#480 = ORIENTED_EDGE ( 'NONE', *, *, #150, .F. ) ;
#481 = ORIENTED_EDGE ( 'NONE', *, *, #443, .T. ) ;
#482 = DATE_AND_TIME ( #69, #351 ) ;
#483 = VECTOR ( 'NONE', #323, 1000.000000000000000 ) ;
#484 = ORIENTED_EDGE ( 'NONE', *, *, #195, .T. ) ;
#485 = EDGE_CURVE ( 'NONE', #226, #17, #28, .T. ) ;
#486 = AXIS2_PLACEMENT_3D ( 'NONE', #79, #366, #239 ) ;
#487 = FACE_OUTER_BOUND ( 'NONE', #506, .T. ) ;
#488 = EDGE_LOOP ( 'NONE', ( #45, #517 ) ) ;
#489 = DIRECTION ( 'NONE',  ( -1.000000000000000000, -0.000000000000000000, 2.960594732333755047E-16 ) ) ;
#490 = CARTESIAN_POINT ( 'NONE',  ( 133.7462566137566000, 20.00000000000000000, -0.001781305114759157426 ) ) ;
#491 = LINE ( 'NONE', #44, #483 ) ;
#492 = VERTEX_POINT ( 'NONE', #513 ) ;
#493 = EDGE_CURVE ( 'NONE', #226, #148, #464, .T. ) ;
#494 = CARTESIAN_POINT ( 'NONE',  ( 19.99625661375660357, 20.00000000000000000, -120.0017813051147328 ) ) ;
#495 = DIRECTION ( 'NONE',  ( 1.000000000000000000, 0.000000000000000000, 0.000000000000000000 ) ) ;
#496 = CALENDAR_DATE ( 2026, 12, 7 ) ;
#497 = DIRECTION ( 'NONE',  ( 1.000000000000000000, 0.000000000000000000, -0.000000000000000000 ) ) ;
#498 = PERSON_AND_ORGANIZATION_ROLE ( 'creator' ) ;
#499 = CARTESIAN_POINT ( 'NONE',  ( -0.003743386243398871827, 20.00000000000000000, -20.00178130511487495 ) ) ;
#500 = CYLINDRICAL_SURFACE ( 'NONE', #41, 2.100000000000004530 ) ;
#501 = ADVANCED_FACE ( 'NONE', ( #136 ), #140, .F. ) ;
#502 = CARTESIAN_POINT ( 'NONE',  ( 84.74625661375661423, 10.39767977332915549, 5.937915656852275958 ) ) ;
#503 =( GEOMETRIC_REPRESENTATION_CONTEXT ( 3 ) GLOBAL_UNCERTAINTY_ASSIGNED_CONTEXT ( ( #284 ) ) GLOBAL_UNIT_ASSIGNED_CONTEXT ( ( #413, #424, #459 ) ) REPRESENTATION_CONTEXT ( 'NONE', 'WORKASPACE' ) );
#504 = DIRECTION ( 'NONE',  ( -0.000000000000000000, -1.000000000000000000, -0.000000000000000000 ) ) ;
#505 = AXIS2_PLACEMENT_3D ( 'NONE', #262, #379, #348 ) ;
#506 = EDGE_LOOP ( 'NONE', ( #109, #460, #51, #394, #113, #209, #355, #200 ) ) ;
#507 = DIRECTION ( 'NONE',  ( 0.000000000000000000, 0.000000000000000000, 1.000000000000000000 ) ) ;
#508 = CARTESIAN_POINT ( 'NONE',  ( 86.84625661375660854, 10.39767977332915549, -20.00178130511475061 ) ) ;
#509 = PERSON_AND_ORGANIZATION_ROLE ( 'design_owner' ) ;
#510 = DIRECTION ( 'NONE',  ( -1.000000000000000000, 0.000000000000000000, 4.130293990420960515E-16 ) ) ;
#511 = DIRECTION ( 'NONE',  ( 0.000000000000000000, 0.000000000000000000, -1.000000000000000000 ) ) ;
#512 = ORIENTED_EDGE ( 'NONE', *, *, #312, .F. ) ;
#513 = CARTESIAN_POINT ( 'NONE',  ( 40.64625661375660570, 10.39767977332915549, -20.00178130511475061 ) ) ;
#514 = LINE ( 'NONE', #137, #263 ) ;
#515 = AXIS2_PLACEMENT_3D ( 'NONE', #494, #288, #447 ) ;
#516 = ORIENTED_EDGE ( 'NONE', *, *, #126, .F. ) ;
#517 = ORIENTED_EDGE ( 'NONE', *, *, #478, .F. ) ;
#518 = ORIENTED_EDGE ( 'NONE', *, *, #195, .F. ) ;
#519 = EDGE_CURVE ( 'NONE', #466, #291, #308, .T. ) ;
#520 = VERTEX_POINT ( 'NONE', #240 ) ;
#521 = VERTEX_POINT ( 'NONE', #358 ) ;
ENDSEC;
END-ISO-10303-21;
