ISO-10303-21;
HEADER;
FILE_DESCRIPTION (( 'STEP AP203' ),
    '1' );
FILE_NAME ('Link2BackShaft_Default_sldprt.STEP',
    '2026-07-12T12:37:44',
    ( '' ),
    ( '' ),
    'SwSTEP 2.0',
    'SolidWorks 2025',
    '' );
FILE_SCHEMA (( 'CONFIG_CONTROL_DESIGN' ));
ENDSEC;

DATA;
#1 = SECURITY_CLASSIFICATION_LEVEL ( 'unclassified' ) ;
#2 = DIRECTION ( 'NONE',  ( -1.000000000000000000, -0.000000000000000000, -0.000000000000000000 ) ) ;
#3 = EDGE_CURVE ( 'NONE', #706, #528, #627, .T. ) ;
#4 = CARTESIAN_POINT ( 'NONE',  ( 24.00000000000000000, 0.000000000000000000, 0.000000000000000000 ) ) ;
#5 = EDGE_LOOP ( 'NONE', ( #256, #251, #66, #897 ) ) ;
#6 = CARTESIAN_POINT ( 'NONE',  ( 29.50000000000000000, 6.110987527745296475E-16, -4.990000000000002878 ) ) ;
#7 = CARTESIAN_POINT ( 'NONE',  ( 29.50000000000000000, 0.000000000000000000, 4.790000000000005365 ) ) ;
#8 = ORIENTED_EDGE ( 'NONE', *, *, #206, .T. ) ;
#9 = CIRCLE ( 'NONE', #568, 4.790000000000001812 ) ;
#10 = EDGE_CURVE ( 'NONE', #763, #945, #872, .T. ) ;
#11 = AXIS2_PLACEMENT_3D ( 'NONE', #680, #991, #748 ) ;
#12 = MECHANICAL_CONTEXT ( 'NONE', #563, 'mechanical' ) ;
#13 = VECTOR ( 'NONE', #494, 1000.000000000000000 ) ;
#14 = LINE ( 'NONE', #338, #314 ) ;
#15 = DIRECTION ( 'NONE',  ( -1.000000000000000000, -0.000000000000000000, -0.000000000000000000 ) ) ;
#16 = ORIENTED_EDGE ( 'NONE', *, *, #392, .F. ) ;
#17 = ADVANCED_FACE ( 'NONE', ( #78 ), #713, .F. ) ;
#18 = PERSON_AND_ORGANIZATION ( #796, #903 ) ;
#19 = CARTESIAN_POINT ( 'NONE',  ( 38.50000000000000000, 0.000000000000000000, 0.000000000000000000 ) ) ;
#20 = LINE ( 'NONE', #248, #399 ) ;
#21 = ORIENTED_EDGE ( 'NONE', *, *, #505, .T. ) ;
#22 = ADVANCED_FACE ( 'NONE', ( #1023 ), #300, .F. ) ;
#23 = CARTESIAN_POINT ( 'NONE',  ( 14.00000000000000000, 0.000000000000000000, 0.000000000000000000 ) ) ;
#24 = ADVANCED_FACE ( 'NONE', ( #880, #242 ), #395, .F. ) ;
#25 = FACE_OUTER_BOUND ( 'NONE', #677, .T. ) ;
#26 = VERTEX_POINT ( 'NONE', #632 ) ;
#27 = CIRCLE ( 'NONE', #229, 4.790000000000006253 ) ;
#28 = AXIS2_PLACEMENT_3D ( 'NONE', #320, #104, #889 ) ;
#29 = DIRECTION ( 'NONE',  ( -1.000000000000000000, -0.000000000000000000, -0.000000000000000000 ) ) ;
#30 = LOCAL_TIME ( 16, 7, 44.00000000000000000, #59 ) ;
#31 = CIRCLE ( 'NONE', #553, 4.990000000000001101 ) ;
#32 = EDGE_CURVE ( 'NONE', #192, #214, #390, .T. ) ;
#33 = CARTESIAN_POINT ( 'NONE',  ( 24.00000000000000000, 2.000000000000002665, 7.228416147400479552 ) ) ;
#34 = ORIENTED_EDGE ( 'NONE', *, *, #327, .F. ) ;
#35 = DIRECTION ( 'NONE',  ( 0.000000000000000000, 0.000000000000000000, 1.000000000000000000 ) ) ;
#36 = CARTESIAN_POINT ( 'NONE',  ( 29.50000000000000000, 0.000000000000000000, 0.000000000000000000 ) ) ;
#37 = APPROVAL ( #575, 'UNSPECIFIED' ) ;
#38 = VERTEX_POINT ( 'NONE', #721 ) ;
#39 = ORIENTED_EDGE ( 'NONE', *, *, #313, .T. ) ;
#40 = DIRECTION ( 'NONE',  ( -1.000000000000000000, -0.000000000000000000, -0.000000000000000000 ) ) ;
#41 = CARTESIAN_POINT ( 'NONE',  ( 0.000000000000000000, 0.000000000000000000, 0.000000000000000000 ) ) ;
#42 = ORIENTED_EDGE ( 'NONE', *, *, #875, .T. ) ;
#43 = ORIENTED_EDGE ( 'NONE', *, *, #941, .F. ) ;
#44 = FACE_OUTER_BOUND ( 'NONE', #593, .T. ) ;
#45 = CIRCLE ( 'NONE', #839, 7.490000000000001990 ) ;
#46 = AXIS2_PLACEMENT_3D ( 'NONE', #946, #625, #615 ) ;
#47 = DIRECTION ( 'NONE',  ( -1.000000000000000000, -0.000000000000000000, -0.000000000000000000 ) ) ;
#48 = AXIS2_PLACEMENT_3D ( 'NONE', #926, #757, #202 ) ;
#49 = VERTEX_POINT ( 'NONE', #961 ) ;
#50 = VERTEX_POINT ( 'NONE', #884 ) ;
#51 = EDGE_CURVE ( 'NONE', #435, #892, #200, .T. ) ;
#52 = CARTESIAN_POINT ( 'NONE',  ( 30.50000000000000000, 0.000000000000000000, -4.990000000000004654 ) ) ;
#53 = FACE_OUTER_BOUND ( 'NONE', #446, .T. ) ;
#54 = ORIENTED_EDGE ( 'NONE', *, *, #431, .F. ) ;
#55 = EDGE_LOOP ( 'NONE', ( #972, #861, #911, #539, #846, #777 ) ) ;
#56 = PLANE ( 'NONE',  #46 ) ;
#57 = CARTESIAN_POINT ( 'NONE',  ( 4.000000000000000000, 0.000000000000000000, 0.000000000000000000 ) ) ;
#58 = EDGE_LOOP ( 'NONE', ( #349, #140 ) ) ;
#59 = COORDINATED_UNIVERSAL_TIME_OFFSET ( 3, 30, .AHEAD. ) ;
#60 = EDGE_LOOP ( 'NONE', ( #914, #173 ) ) ;
#61 = DIRECTION ( 'NONE',  ( 0.000000000000000000, 0.000000000000000000, -1.000000000000000000 ) ) ;
#62 = DIRECTION ( 'NONE',  ( -0.000000000000000000, 0.000000000000000000, -1.000000000000000000 ) ) ;
#63 = SECURITY_CLASSIFICATION ( '', '', #1 ) ;
#64 = ADVANCED_FACE ( 'NONE', ( #793, #65 ), #86, .F. ) ;
#65 = FACE_OUTER_BOUND ( 'NONE', #209, .T. ) ;
#66 = ORIENTED_EDGE ( 'NONE', *, *, #206, .F. ) ;
#67 = CARTESIAN_POINT ( 'NONE',  ( 4.000000000000000000, 0.000000000000000000, -4.990000000000001101 ) ) ;
#68 = CARTESIAN_POINT ( 'NONE',  ( 14.00000000000000000, 0.000000000000000000, 0.000000000000000000 ) ) ;
#69 = DIRECTION ( 'NONE',  ( 0.000000000000000000, 0.000000000000000000, 1.000000000000000000 ) ) ;
#70 = EDGE_LOOP ( 'NONE', ( #371, #669 ) ) ;
#71 = CARTESIAN_POINT ( 'NONE',  ( 3.000000000000000000, 0.000000000000000000, 0.000000000000000000 ) ) ;
#72 = DIRECTION ( 'NONE',  ( -1.000000000000000000, -0.000000000000000000, -0.000000000000000000 ) ) ;
#73 = DIRECTION ( 'NONE',  ( -1.000000000000000000, 0.000000000000000000, 0.000000000000000000 ) ) ;
#74 = ORIENTED_EDGE ( 'NONE', *, *, #359, .T. ) ;
#75 = CARTESIAN_POINT ( 'NONE',  ( 24.00000000000000000, 2.000000000000002665, 7.218039900139096687 ) ) ;
#76 = MANIFOLD_SOLID_BREP ( 'Cut-Extrude8', #451 ) ;
#77 = CARTESIAN_POINT ( 'NONE',  ( 0.000000000000000000, 0.000000000000000000, 0.000000000000000000 ) ) ;
#78 = FACE_OUTER_BOUND ( 'NONE', #590, .T. ) ;
#79 = AXIS2_PLACEMENT_3D ( 'NONE', #345, #171, #410 ) ;
#80 = CIRCLE ( 'NONE', #504, 7.490000000000002878 ) ;
#81 = ORIENTED_EDGE ( 'NONE', *, *, #769, .F. ) ;
#82 = VECTOR ( 'NONE', #698, 1000.000000000000000 ) ;
#83 = CARTESIAN_POINT ( 'NONE',  ( 30.50000000000000000, 0.000000000000000000, 0.000000000000000000 ) ) ;
#84 = EDGE_CURVE ( 'NONE', #519, #435, #238, .T. ) ;
#85 = DIRECTION ( 'NONE',  ( -1.000000000000000000, -0.000000000000000000, -0.000000000000000000 ) ) ;
#86 = PLANE ( 'NONE',  #684 ) ;
#87 = VERTEX_POINT ( 'NONE', #559 ) ;
#88 = EDGE_CURVE ( 'NONE', #976, #706, #128, .T. ) ;
#89 = CARTESIAN_POINT ( 'NONE',  ( 54.00000000000000000, 0.000000000000000000, 0.000000000000000000 ) ) ;
#90 = LINE ( 'NONE', #259, #719 ) ;
#91 = EDGE_LOOP ( 'NONE', ( #375, #178, #1013, #16 ) ) ;
#92 = FACE_OUTER_BOUND ( 'NONE', #409, .T. ) ;
#93 = DIRECTION ( 'NONE',  ( 0.000000000000000000, 0.000000000000000000, 1.000000000000000000 ) ) ;
#94 = ADVANCED_FACE ( 'NONE', ( #144 ), #488, .T. ) ;
#95 = EDGE_LOOP ( 'NONE', ( #774, #122 ) ) ;
#96 = AXIS2_PLACEMENT_3D ( 'NONE', #149, #788, #708 ) ;
#97 = AXIS2_PLACEMENT_3D ( 'NONE', #201, #764, #591 ) ;
#98 = AXIS2_PLACEMENT_3D ( 'NONE', #109, #772, #688 ) ;
#99 = DIRECTION ( 'NONE',  ( 0.000000000000000000, 0.000000000000000000, 1.000000000000000000 ) ) ;
#100 = DIRECTION ( 'NONE',  ( 0.000000000000000000, 0.000000000000000000, 1.000000000000000000 ) ) ;
#101 = ORIENTED_EDGE ( 'NONE', *, *, #10, .T. ) ;
#102 = EDGE_CURVE ( 'NONE', #442, #447, #264, .T. ) ;
#103 = EDGE_CURVE ( 'NONE', #945, #877, #799, .T. ) ;
#104 = DIRECTION ( 'NONE',  ( -1.000000000000000000, -0.000000000000000000, -0.000000000000000000 ) ) ;
#105 = DIRECTION ( 'NONE',  ( -1.000000000000000000, -0.000000000000000000, -0.000000000000000000 ) ) ;
#106 = CARTESIAN_POINT ( 'NONE',  ( 26.00000000000000000, 0.000000000000000000, 4.990000000000003766 ) ) ;
#107 = ORIENTED_EDGE ( 'NONE', *, *, #576, .F. ) ;
#108 = CARTESIAN_POINT ( 'NONE',  ( 0.000000000000000000, 0.000000000000000000, 4.790000000000000924 ) ) ;
#109 = CARTESIAN_POINT ( 'NONE',  ( 24.00000000000000000, 0.000000000000000000, 0.000000000000000000 ) ) ;
#110 = EDGE_LOOP ( 'NONE', ( #462, #273, #167, #663 ) ) ;
#111 = CIRCLE ( 'NONE', #699, 4.990000000000004654 ) ;
#112 = AXIS2_PLACEMENT_3D ( 'NONE', #71, #711, #1030 ) ;
#113 = CARTESIAN_POINT ( 'NONE',  ( 30.50000000000000000, 5.866058167915829334E-16, -4.790000000000006253 ) ) ;
#114 = EDGE_CURVE ( 'NONE', #117, #966, #156, .T. ) ;
#115 = CARTESIAN_POINT ( 'NONE',  ( 14.00000000000000000, -1.999999999999997335, -4.571662717217885863 ) ) ;
#116 = ORIENTED_EDGE ( 'NONE', *, *, #731, .F. ) ;
#117 = VERTEX_POINT ( 'NONE', #322 ) ;
#118 = DIRECTION ( 'NONE',  ( 0.000000000000000000, 0.000000000000000000, -1.000000000000000000 ) ) ;
#119 = FACE_OUTER_BOUND ( 'NONE', #981, .T. ) ;
#120 = VERTEX_POINT ( 'NONE', #642 ) ;
#121 = APPROVAL_ROLE ( '' ) ;
#122 = ORIENTED_EDGE ( 'NONE', *, *, #281, .F. ) ;
#123 = CYLINDRICAL_SURFACE ( 'NONE', #932, 4.790000000000006253 ) ;
#124 = DIRECTION ( 'NONE',  ( 0.000000000000000000, 0.000000000000000000, 1.000000000000000000 ) ) ;
#125 = ORIENTED_EDGE ( 'NONE', *, *, #571, .T. ) ;
#126 = APPROVAL_DATE_TIME ( #135, #998 ) ;
#127 = EDGE_CURVE ( 'NONE', #732, #639, #268, .T. ) ;
#128 = CIRCLE ( 'NONE', #665, 4.990000000000004654 ) ;
#129 = DIRECTION ( 'NONE',  ( -1.000000000000000000, -0.000000000000000000, -0.000000000000000000 ) ) ;
#130 = CIRCLE ( 'NONE', #682, 4.790000000000006253 ) ;
#131 = AXIS2_PLACEMENT_3D ( 'NONE', #922, #1005, #512 ) ;
#132 = DIRECTION ( 'NONE',  ( -0.000000000000000000, 0.000000000000000000, 1.000000000000000000 ) ) ;
#133 = AXIS2_PLACEMENT_3D ( 'NONE', #623, #165, #709 ) ;
#134 = VERTEX_POINT ( 'NONE', #188 ) ;
#135 = DATE_AND_TIME ( #441, #30 ) ;
#136 = EDGE_CURVE ( 'NONE', #442, #38, #172, .T. ) ;
#137 = VERTEX_POINT ( 'NONE', #509 ) ;
#138 = CARTESIAN_POINT ( 'NONE',  ( 38.50000000000000000, 5.866058167915829334E-16, -4.790000000000006253 ) ) ;
#139 = DIRECTION ( 'NONE',  ( -1.000000000000000000, -0.000000000000000000, -0.000000000000000000 ) ) ;
#140 = ORIENTED_EDGE ( 'NONE', *, *, #597, .F. ) ;
#141 = CYLINDRICAL_SURFACE ( 'NONE', #951, 4.990000000000002878 ) ;
#142 = ADVANCED_FACE ( 'NONE', ( #25 ), #347, .T. ) ;
#143 = DIRECTION ( 'NONE',  ( 1.000000000000000000, 0.000000000000000000, -0.000000000000000000 ) ) ;
#144 = FACE_OUTER_BOUND ( 'NONE', #110, .T. ) ;
#145 = ORIENTED_EDGE ( 'NONE', *, *, #795, .F. ) ;
#146 = CARTESIAN_POINT ( 'NONE',  ( 14.00000000000000000, 2.000000000000002665, 4.571662717217883198 ) ) ;
#147 = AXIS2_PLACEMENT_3D ( 'NONE', #676, #523, #293 ) ;
#148 = EDGE_CURVE ( 'NONE', #192, #49, #919, .T. ) ;
#149 = CARTESIAN_POINT ( 'NONE',  ( 39.50000000000000711, 0.000000000000000000, 0.000000000000000000 ) ) ;
#150 = CIRCLE ( 'NONE', #97, 7.490000000000002878 ) ;
#151 = ORIENTED_EDGE ( 'NONE', *, *, #103, .F. ) ;
#152 = AXIS2_PLACEMENT_3D ( 'NONE', #465, #305, #638 ) ;
#153 = ORIENTED_EDGE ( 'NONE', *, *, #979, .T. ) ;
#154 = CARTESIAN_POINT ( 'NONE',  ( 0.000000000000000000, 0.000000000000000000, 7.490000000000001990 ) ) ;
#155 = DIRECTION ( 'NONE',  ( 0.000000000000000000, 0.000000000000000000, 1.000000000000000000 ) ) ;
#156 = LINE ( 'NONE', #1040, #768 ) ;
#157 = ORIENTED_EDGE ( 'NONE', *, *, #705, .F. ) ;
#158 = FACE_OUTER_BOUND ( 'NONE', #370, .T. ) ;
#159 = CARTESIAN_POINT ( 'NONE',  ( 4.000000000000000000, 0.000000000000000000, 0.000000000000000000 ) ) ;
#160 = CARTESIAN_POINT ( 'NONE',  ( 0.000000000000000000, 0.000000000000000000, 0.000000000000000000 ) ) ;
#161 = ORIENTED_EDGE ( 'NONE', *, *, #281, .T. ) ;
#162 = EDGE_CURVE ( 'NONE', #519, #270, #604, .T. ) ;
#163 = CARTESIAN_POINT ( 'NONE',  ( 0.000000000000000000, 0.000000000000000000, 0.000000000000000000 ) ) ;
#164 = AXIS2_PLACEMENT_3D ( 'NONE', #427, #890, #745 ) ;
#165 = DIRECTION ( 'NONE',  ( 1.000000000000000000, -0.000000000000000000, -0.000000000000000000 ) ) ;
#166 = ADVANCED_FACE ( 'NONE', ( #965 ), #989, .F. ) ;
#167 = ORIENTED_EDGE ( 'NONE', *, *, #359, .F. ) ;
#168 = AXIS2_PLACEMENT_3D ( 'NONE', #910, #819, #100 ) ;
#169 = EDGE_CURVE ( 'NONE', #871, #208, #191, .T. ) ;
#170 = EDGE_CURVE ( 'NONE', #50, #421, #90, .T. ) ;
#171 = DIRECTION ( 'NONE',  ( -1.000000000000000000, -0.000000000000000000, -0.000000000000000000 ) ) ;
#172 = LINE ( 'NONE', #592, #334 ) ;
#173 = ORIENTED_EDGE ( 'NONE', *, *, #532, .T. ) ;
#174 = CALENDAR_DATE ( 2026, 12, 7 ) ;
#175 = CARTESIAN_POINT ( 'NONE',  ( 26.00000000000000000, 6.110987527745297461E-16, -4.990000000000003766 ) ) ;
#176 = ADVANCED_FACE ( 'NONE', ( #177 ), #412, .T. ) ;
#177 = FACE_OUTER_BOUND ( 'NONE', #358, .T. ) ;
#178 = ORIENTED_EDGE ( 'NONE', *, *, #780, .T. ) ;
#179 =( NAMED_UNIT ( * ) PLANE_ANGLE_UNIT ( ) SI_UNIT ( $, .RADIAN. ) );
#180 = DIRECTION ( 'NONE',  ( 0.000000000000000000, 0.000000000000000000, 1.000000000000000000 ) ) ;
#181 = DIRECTION ( 'NONE',  ( 0.000000000000000000, 0.000000000000000000, 1.000000000000000000 ) ) ;
#182 = ORIENTED_EDGE ( 'NONE', *, *, #10, .F. ) ;
#183 = VECTOR ( 'NONE', #72, 1000.000000000000000 ) ;
#184 = AXIS2_PLACEMENT_3D ( 'NONE', #648, #969, #253 ) ;
#185 = CARTESIAN_POINT ( 'NONE',  ( 54.00000000000000000, 6.110987527745300420E-16, -4.990000000000006430 ) ) ;
#186 = VECTOR ( 'NONE', #404, 1000.000000000000000 ) ;
#187 = CARTESIAN_POINT ( 'NONE',  ( 26.00000000000000000, 0.000000000000000000, 0.000000000000000000 ) ) ;
#188 = CARTESIAN_POINT ( 'NONE',  ( 39.50000000000000000, 0.000000000000000000, 4.790000000000005365 ) ) ;
#189 = ORIENTED_EDGE ( 'NONE', *, *, #804, .T. ) ;
#190 = DIRECTION ( 'NONE',  ( 0.000000000000000000, 0.000000000000000000, 1.000000000000000000 ) ) ;
#191 = LINE ( 'NONE', #513, #753 ) ;
#192 = VERTEX_POINT ( 'NONE', #738 ) ;
#193 = ADVANCED_FACE ( 'NONE', ( #746 ), #326, .F. ) ;
#194 = CARTESIAN_POINT ( 'NONE',  ( 26.00000000000000355, 0.000000000000000000, -4.990000000000003766 ) ) ;
#195 = EDGE_CURVE ( 'NONE', #685, #387, #405, .T. ) ;
#196 = CYLINDRICAL_SURFACE ( 'NONE', #600, 4.990000000000005542 ) ;
#197 = ORIENTED_EDGE ( 'NONE', *, *, #750, .F. ) ;
#198 = CIRCLE ( 'NONE', #96, 4.990000000000004654 ) ;
#199 = AXIS2_PLACEMENT_3D ( 'NONE', #832, #755, #190 ) ;
#200 = CIRCLE ( 'NONE', #133, 7.490000000000001990 ) ;
#201 = CARTESIAN_POINT ( 'NONE',  ( 26.00000000000000355, 0.000000000000000000, 0.000000000000000000 ) ) ;
#202 = DIRECTION ( 'NONE',  ( 0.000000000000000000, 0.000000000000000000, 1.000000000000000000 ) ) ;
#203 = EDGE_LOOP ( 'NONE', ( #770, #213 ) ) ;
#204 = ORIENTED_EDGE ( 'NONE', *, *, #836, .F. ) ;
#205 = PLANE ( 'NONE',  #280 ) ;
#206 = EDGE_CURVE ( 'NONE', #120, #528, #668, .T. ) ;
#207 = DIRECTION ( 'NONE',  ( -0.000000000000000000, -0.000000000000000000, 1.000000000000000000 ) ) ;
#208 = VERTEX_POINT ( 'NONE', #106 ) ;
#209 = EDGE_LOOP ( 'NONE', ( #850, #785 ) ) ;
#210 = CYLINDRICAL_SURFACE ( 'NONE', #469, 4.990000000000005542 ) ;
#211 = DIRECTION ( 'NONE',  ( -1.000000000000000000, -0.000000000000000000, -0.000000000000000000 ) ) ;
#212 = EDGE_CURVE ( 'NONE', #379, #1004, #20, .T. ) ;
#213 = ORIENTED_EDGE ( 'NONE', *, *, #718, .T. ) ;
#214 = VERTEX_POINT ( 'NONE', #587 ) ;
#215 = CARTESIAN_POINT ( 'NONE',  ( 24.00000000000000000, -1.999999999999997335, 7.228416147400479552 ) ) ;
#216 = CIRCLE ( 'NONE', #535, 4.990000000000004654 ) ;
#217 = AXIS2_PLACEMENT_3D ( 'NONE', #388, #307, #630 ) ;
#218 = CARTESIAN_POINT ( 'NONE',  ( 29.50000000000000000, 0.000000000000000000, 0.000000000000000000 ) ) ;
#219 = ORIENTED_EDGE ( 'NONE', *, *, #740, .F. ) ;
#220 = FACE_OUTER_BOUND ( 'NONE', #1024, .T. ) ;
#221 = FACE_OUTER_BOUND ( 'NONE', #510, .T. ) ;
#222 = DIRECTION ( 'NONE',  ( 1.000000000000000000, 0.000000000000000000, 0.000000000000000000 ) ) ;
#223 = EDGE_CURVE ( 'NONE', #789, #87, #737, .T. ) ;
#224 = DIRECTION ( 'NONE',  ( 1.000000000000000000, 0.000000000000000000, 0.000000000000000000 ) ) ;
#225 = CARTESIAN_POINT ( 'NONE',  ( 14.00000000000000000, -1.999999999999997335, 7.228416147400479552 ) ) ;
#226 = ORIENTED_EDGE ( 'NONE', *, *, #837, .F. ) ;
#227 = VERTEX_POINT ( 'NONE', #7 ) ;
#228 = CARTESIAN_POINT ( 'NONE',  ( 38.50000000000000000, 0.000000000000000000, 4.990000000000004654 ) ) ;
#229 = AXIS2_PLACEMENT_3D ( 'NONE', #254, #85, #974 ) ;
#230 = DIRECTION ( 'NONE',  ( -1.000000000000000000, -0.000000000000000000, -0.000000000000000000 ) ) ;
#231 = VECTOR ( 'NONE', #779, 1000.000000000000000 ) ;
#232 = DIRECTION ( 'NONE',  ( -1.000000000000000000, -0.000000000000000000, -0.000000000000000000 ) ) ;
#233 = VECTOR ( 'NONE', #752, 1000.000000000000000 ) ;
#234 = VERTEX_POINT ( 'NONE', #906 ) ;
#235 = CYLINDRICAL_SURFACE ( 'NONE', #934, 4.990000000000001101 ) ;
#236 = FACE_OUTER_BOUND ( 'NONE', #901, .T. ) ;
#237 = EDGE_CURVE ( 'NONE', #647, #270, #332, .T. ) ;
#238 = LINE ( 'NONE', #1028, #986 ) ;
#239 = ORIENTED_EDGE ( 'NONE', *, *, #1010, .T. ) ;
#240 =( LENGTH_UNIT ( ) NAMED_UNIT ( * ) SI_UNIT ( .MILLI., .METRE. ) );
#241 = CARTESIAN_POINT ( 'NONE',  ( 14.00000000000000000, -1.999999999999997335, 7.218039900139097576 ) ) ;
#242 = FACE_BOUND ( 'NONE', #545, .T. ) ;
#243 = EDGE_CURVE ( 'NONE', #285, #830, #282, .T. ) ;
#244 = ORIENTED_EDGE ( 'NONE', *, *, #302, .F. ) ;
#245 = DATE_AND_TIME ( #261, #384 ) ;
#246 = CARTESIAN_POINT ( 'NONE',  ( 38.50000000000000000, 6.110987527745298447E-16, -4.990000000000004654 ) ) ;
#247 = AXIS2_PLACEMENT_3D ( 'NONE', #943, #385, #1027 ) ;
#248 = CARTESIAN_POINT ( 'NONE',  ( 0.000000000000000000, 5.866058167915829334E-16, -4.790000000000006253 ) ) ;
#249 = CC_DESIGN_APPROVAL ( #37, ( #411 ) ) ;
#250 = APPROVAL_PERSON_ORGANIZATION ( #301, #998, #121 ) ;
#251 = ORIENTED_EDGE ( 'NONE', *, *, #3, .T. ) ;
#252 = ADVANCED_FACE ( 'NONE', ( #503 ), #848, .T. ) ;
#253 = DIRECTION ( 'NONE',  ( 1.000000000000000000, 0.000000000000000000, 0.000000000000000000 ) ) ;
#254 = CARTESIAN_POINT ( 'NONE',  ( 30.50000000000000000, 0.000000000000000000, 0.000000000000000000 ) ) ;
#255 = CARTESIAN_POINT ( 'NONE',  ( 24.00000000000000000, -1.999999999999997335, 7.228416147400479552 ) ) ;
#256 = ORIENTED_EDGE ( 'NONE', *, *, #88, .T. ) ;
#257 = PERSON_AND_ORGANIZATION_ROLE ( 'creator' ) ;
#258 = FACE_OUTER_BOUND ( 'NONE', #739, .T. ) ;
#259 = CARTESIAN_POINT ( 'NONE',  ( 0.000000000000000000, -1.999999999999997335, -7.218039900139097576 ) ) ;
#260 = ORIENTED_EDGE ( 'NONE', *, *, #1025, .F. ) ;
#261 = CALENDAR_DATE ( 2026, 12, 7 ) ;
#262 = FACE_OUTER_BOUND ( 'NONE', #1029, .T. ) ;
#263 = CARTESIAN_POINT ( 'NONE',  ( 14.00000000000000000, 0.000000000000000000, -7.490000000000001990 ) ) ;
#264 = CIRCLE ( 'NONE', #824, 7.490000000000001990 ) ;
#265 = ORIENTED_EDGE ( 'NONE', *, *, #392, .T. ) ;
#266 = CIRCLE ( 'NONE', #112, 4.790000000000000924 ) ;
#267 = FACE_OUTER_BOUND ( 'NONE', #5, .T. ) ;
#268 = LINE ( 'NONE', #343, #13 ) ;
#269 = ADVANCED_FACE ( 'NONE', ( #276 ), #671, .T. ) ;
#270 = VERTEX_POINT ( 'NONE', #692 ) ;
#271 = LINE ( 'NONE', #275, #366 ) ;
#272 = CARTESIAN_POINT ( 'NONE',  ( 0.000000000000000000, 6.110987527745293517E-16, -4.990000000000000213 ) ) ;
#273 = ORIENTED_EDGE ( 'NONE', *, *, #818, .T. ) ;
#274 = EDGE_CURVE ( 'NONE', #49, #694, #289, .T. ) ;
#275 = CARTESIAN_POINT ( 'NONE',  ( 0.000000000000000000, 0.000000000000000000, 4.990000000000004654 ) ) ;
#276 = FACE_OUTER_BOUND ( 'NONE', #800, .T. ) ;
#277 = ORIENTED_EDGE ( 'NONE', *, *, #915, .F. ) ;
#278 = AXIS2_PLACEMENT_3D ( 'NONE', #308, #299, #622 ) ;
#279 = ORIENTED_EDGE ( 'NONE', *, *, #243, .F. ) ;
#280 = AXIS2_PLACEMENT_3D ( 'NONE', #194, #598, #909 ) ;
#281 = EDGE_CURVE ( 'NONE', #732, #871, #489, .T. ) ;
#282 = CIRCLE ( 'NONE', #857, 4.790000000000006253 ) ;
#283 = CARTESIAN_POINT ( 'NONE',  ( 14.00000000000000000, 0.000000000000000000, 4.990000000000001101 ) ) ;
#284 = CARTESIAN_POINT ( 'NONE',  ( 39.50000000000000000, 5.866058167915828348E-16, -4.790000000000005365 ) ) ;
#285 = VERTEX_POINT ( 'NONE', #444 ) ;
#286 = ORIENTED_EDGE ( 'NONE', *, *, #114, .F. ) ;
#287 = CARTESIAN_POINT ( 'NONE',  ( 0.000000000000000000, 0.000000000000000000, 0.000000000000000000 ) ) ;
#288 = EDGE_CURVE ( 'NONE', #945, #789, #31, .T. ) ;
#289 = LINE ( 'NONE', #272, #1003 ) ;
#290 = ORIENTED_EDGE ( 'NONE', *, *, #102, .T. ) ;
#291 = ORIENTED_EDGE ( 'NONE', *, *, #212, .T. ) ;
#292 = LINE ( 'NONE', #552, #383 ) ;
#293 = DIRECTION ( 'NONE',  ( 0.000000000000000000, 0.000000000000000000, 1.000000000000000000 ) ) ;
#294 = ORIENTED_EDGE ( 'NONE', *, *, #762, .F. ) ;
#295 = EDGE_LOOP ( 'NONE', ( #145, #204 ) ) ;
#296 = CIRCLE ( 'NONE', #983, 4.990000000000001101 ) ;
#297 = LINE ( 'NONE', #460, #1001 ) ;
#298 = VECTOR ( 'NONE', #1014, 1000.000000000000000 ) ;
#299 = DIRECTION ( 'NONE',  ( -1.000000000000000000, -0.000000000000000000, -0.000000000000000000 ) ) ;
#300 = PLANE ( 'NONE',  #152 ) ;
#301 = PERSON_AND_ORGANIZATION ( #796, #903 ) ;
#302 = EDGE_CURVE ( 'NONE', #50, #38, #1033, .T. ) ;
#303 = DIRECTION ( 'NONE',  ( -1.000000000000000000, -0.000000000000000000, -0.000000000000000000 ) ) ;
#304 = CARTESIAN_POINT ( 'NONE',  ( 24.00000000000000000, 2.000000000000002665, -7.218039900139096687 ) ) ;
#305 = DIRECTION ( 'NONE',  ( 1.000000000000000000, 0.000000000000000000, 0.000000000000000000 ) ) ;
#306 = ORIENTED_EDGE ( 'NONE', *, *, #127, .T. ) ;
#307 = DIRECTION ( 'NONE',  ( -1.000000000000000000, -0.000000000000000000, -0.000000000000000000 ) ) ;
#308 = CARTESIAN_POINT ( 'NONE',  ( 38.50000000000000000, 0.000000000000000000, 0.000000000000000000 ) ) ;
#309 = DIRECTION ( 'NONE',  ( -1.000000000000000000, -0.000000000000000000, -0.000000000000000000 ) ) ;
#310 = EDGE_LOOP ( 'NONE', ( #643, #265 ) ) ;
#311 = LINE ( 'NONE', #215, #784 ) ;
#312 = AXIS2_PLACEMENT_3D ( 'NONE', #218, #354, #931 ) ;
#313 = EDGE_CURVE ( 'NONE', #137, #26, #439, .T. ) ;
#314 = VECTOR ( 'NONE', #656, 1000.000000000000000 ) ;
#315 = CARTESIAN_POINT ( 'NONE',  ( 39.50000000000000000, 0.000000000000000000, 0.000000000000000000 ) ) ;
#316 = VECTOR ( 'NONE', #40, 1000.000000000000000 ) ;
#317 = CARTESIAN_POINT ( 'NONE',  ( 29.50000000000000000, 0.000000000000000000, -4.790000000000005365 ) ) ;
#318 = AXIS2_PLACEMENT_3D ( 'NONE', #825, #730, #891 ) ;
#319 = VERTEX_POINT ( 'NONE', #115 ) ;
#320 = CARTESIAN_POINT ( 'NONE',  ( 0.000000000000000000, 0.000000000000000000, 0.000000000000000000 ) ) ;
#321 = FACE_OUTER_BOUND ( 'NONE', #1020, .T. ) ;
#322 = CARTESIAN_POINT ( 'NONE',  ( 4.000000000000000000, 5.866058167915824404E-16, -4.790000000000001812 ) ) ;
#323 = EDGE_LOOP ( 'NONE', ( #722, #360, #614, #328, #499, #239, #54, #633 ) ) ;
#324 = PERSON_AND_ORGANIZATION ( #796, #903 ) ;
#325 = DIRECTION ( 'NONE',  ( -1.000000000000000000, -0.000000000000000000, -0.000000000000000000 ) ) ;
#326 = PLANE ( 'NONE',  #905 ) ;
#327 = EDGE_CURVE ( 'NONE', #214, #694, #506, .T. ) ;
#328 = ORIENTED_EDGE ( 'NONE', *, *, #84, .T. ) ;
#329 = PERSON_AND_ORGANIZATION ( #796, #903 ) ;
#330 = FACE_BOUND ( 'NONE', #628, .T. ) ;
#331 = CIRCLE ( 'NONE', #619, 4.990000000000006430 ) ;
#332 = LINE ( 'NONE', #652, #589 ) ;
#333 = VECTOR ( 'NONE', #29, 1000.000000000000000 ) ;
#334 = VECTOR ( 'NONE', #833, 1000.000000000000000 ) ;
#335 = ORIENTED_EDGE ( 'NONE', *, *, #629, .F. ) ;
#336 = CC_DESIGN_PERSON_AND_ORGANIZATION_ASSIGNMENT ( #898, #659, ( #1036 ) ) ;
#337 = APPLICATION_PROTOCOL_DEFINITION ( 'international standard', 'config_control_design', 1994, #416 ) ;
#338 = CARTESIAN_POINT ( 'NONE',  ( 0.000000000000000000, 6.110987527745299433E-16, -4.990000000000005542 ) ) ;
#339 = DIRECTION ( 'NONE',  ( -0.000000000000000000, 1.000000000000000000, 0.000000000000000000 ) ) ;
#340 = ORIENTED_EDGE ( 'NONE', *, *, #994, .F. ) ;
#341 = APPROVAL_STATUS ( 'not_yet_approved' ) ;
#342 = CARTESIAN_POINT ( 'NONE',  ( 3.000000000000000000, 0.000000000000000000, -4.790000000000000924 ) ) ;
#343 = CARTESIAN_POINT ( 'NONE',  ( 0.000000000000000000, 6.110987527745296475E-16, -4.990000000000002878 ) ) ;
#344 = EDGE_LOOP ( 'NONE', ( #754, #767, #608, #226 ) ) ;
#345 = CARTESIAN_POINT ( 'NONE',  ( 29.50000000000000000, 0.000000000000000000, 0.000000000000000000 ) ) ;
#346 = ADVANCED_FACE ( 'NONE', ( #53, #845 ), #373, .F. ) ;
#347 = CYLINDRICAL_SURFACE ( 'NONE', #1038, 4.790000000000006253 ) ;
#348 = AXIS2_PLACEMENT_3D ( 'NONE', #548, #394, #481 ) ;
#349 = ORIENTED_EDGE ( 'NONE', *, *, #515, .F. ) ;
#350 = AXIS2_PLACEMENT_3D ( 'NONE', #315, #139, #461 ) ;
#351 = CIRCLE ( 'NONE', #486, 4.990000000000003766 ) ;
#352 = ADVANCED_FACE ( 'NONE', ( #527 ), #196, .T. ) ;
#353 = LINE ( 'NONE', #108, #316 ) ;
#354 = DIRECTION ( 'NONE',  ( -1.000000000000000000, -0.000000000000000000, -0.000000000000000000 ) ) ;
#355 = VERTEX_POINT ( 'NONE', #362 ) ;
#356 = CARTESIAN_POINT ( 'NONE',  ( 3.000000000000000000, 0.000000000000000000, 0.000000000000000000 ) ) ;
#357 = CARTESIAN_POINT ( 'NONE',  ( 0.000000000000000000, 0.000000000000000000, 0.000000000000000000 ) ) ;
#358 = EDGE_LOOP ( 'NONE', ( #710, #810 ) ) ;
#359 = EDGE_CURVE ( 'NONE', #227, #860, #585, .T. ) ;
#360 = ORIENTED_EDGE ( 'NONE', *, *, #237, .T. ) ;
#361 = CARTESIAN_POINT ( 'NONE',  ( 0.000000000000000000, 0.000000000000000000, 0.000000000000000000 ) ) ;
#362 = CARTESIAN_POINT ( 'NONE',  ( 3.000000000000000000, 0.000000000000000000, 4.790000000000000924 ) ) ;
#363 = ORIENTED_EDGE ( 'NONE', *, *, #169, .F. ) ;
#364 = AXIS2_PLACEMENT_3D ( 'NONE', #449, #996, #607 ) ;
#365 = ORIENTED_EDGE ( 'NONE', *, *, #724, .F. ) ;
#366 = VECTOR ( 'NONE', #675, 1000.000000000000000 ) ;
#367 = AXIS2_PLACEMENT_3D ( 'NONE', #482, #704, #473 ) ;
#368 = DIRECTION ( 'NONE',  ( 0.000000000000000000, 0.000000000000000000, 1.000000000000000000 ) ) ;
#369 = CARTESIAN_POINT ( 'NONE',  ( 38.50000000000000000, 0.000000000000000000, 4.790000000000006253 ) ) ;
#370 = EDGE_LOOP ( 'NONE', ( #474, #161, #927, #396 ) ) ;
#371 = ORIENTED_EDGE ( 'NONE', *, *, #459, .F. ) ;
#372 = CARTESIAN_POINT ( 'NONE',  ( 26.00000000000000355, 0.000000000000000000, 0.000000000000000000 ) ) ;
#373 = PLANE ( 'NONE',  #636 ) ;
#374 = ORIENTED_EDGE ( 'NONE', *, *, #400, .F. ) ;
#375 = ORIENTED_EDGE ( 'NONE', *, *, #274, .F. ) ;
#376 = CARTESIAN_POINT ( 'NONE',  ( 29.50000000000000000, 5.866058167915828348E-16, -4.790000000000005365 ) ) ;
#377 = ADVANCED_FACE ( 'NONE', ( #119 ), #841, .T. ) ;
#378 = DIRECTION ( 'NONE',  ( 1.000000000000000000, 0.000000000000000000, -0.000000000000000000 ) ) ;
#379 = VERTEX_POINT ( 'NONE', #284 ) ;
#380 = ORIENTED_EDGE ( 'NONE', *, *, #724, .T. ) ;
#381 = AXIS2_PLACEMENT_3D ( 'NONE', #159, #664, #808 ) ;
#382 = CARTESIAN_POINT ( 'NONE',  ( 0.000000000000000000, 0.000000000000000000, 0.000000000000000000 ) ) ;
#383 = VECTOR ( 'NONE', #61, 1000.000000000000000 ) ;
#384 = LOCAL_TIME ( 16, 7, 44.00000000000000000, #963 ) ;
#385 = DIRECTION ( 'NONE',  ( -1.000000000000000000, -0.000000000000000000, -0.000000000000000000 ) ) ;
#386 = CARTESIAN_POINT ( 'NONE',  ( 14.00000000000000000, 0.000000000000000000, 0.000000000000000000 ) ) ;
#387 = VERTEX_POINT ( 'NONE', #433 ) ;
#388 = CARTESIAN_POINT ( 'NONE',  ( 39.50000000000000000, 0.000000000000000000, 0.000000000000000000 ) ) ;
#389 = DIRECTION ( 'NONE',  ( 0.000000000000000000, 0.000000000000000000, 1.000000000000000000 ) ) ;
#390 = LINE ( 'NONE', #869, #186 ) ;
#391 = ORIENTED_EDGE ( 'NONE', *, *, #148, .F. ) ;
#392 = EDGE_CURVE ( 'NONE', #694, #214, #467, .T. ) ;
#393 = CARTESIAN_POINT ( 'NONE',  ( 3.000000000000000000, 5.866058167915823418E-16, -4.790000000000000924 ) ) ;
#394 = DIRECTION ( 'NONE',  ( -1.000000000000000000, -0.000000000000000000, -0.000000000000000000 ) ) ;
#395 = PLANE ( 'NONE',  #651 ) ;
#396 = ORIENTED_EDGE ( 'NONE', *, *, #718, .F. ) ;
#397 = CC_DESIGN_DATE_AND_TIME_ASSIGNMENT ( #245, #567, ( #63 ) ) ;
#398 = CARTESIAN_POINT ( 'NONE',  ( 14.00000000000000000, 2.000000000000002665, 7.228416147400479552 ) ) ;
#399 = VECTOR ( 'NONE', #572, 1000.000000000000000 ) ;
#400 = EDGE_CURVE ( 'NONE', #435, #892, #923, .T. ) ;
#401 = CIRCLE ( 'NONE', #164, 4.990000000000006430 ) ;
#402 = DIRECTION ( 'NONE',  ( -1.000000000000000000, -0.000000000000000000, -0.000000000000000000 ) ) ;
#403 = CIRCLE ( 'NONE', #131, 4.990000000000001101 ) ;
#404 = DIRECTION ( 'NONE',  ( -1.000000000000000000, -0.000000000000000000, -0.000000000000000000 ) ) ;
#405 = CIRCLE ( 'NONE', #953, 4.990000000000001101 ) ;
#406 = ORIENTED_EDGE ( 'NONE', *, *, #629, .T. ) ;
#407 = DIRECTION ( 'NONE',  ( 0.000000000000000000, 0.000000000000000000, 1.000000000000000000 ) ) ;
#408 = DIRECTION ( 'NONE',  ( -1.000000000000000000, -0.000000000000000000, -0.000000000000000000 ) ) ;
#409 = EDGE_LOOP ( 'NONE', ( #374, #583, #658, #933, #534, #413 ) ) ;
#410 = DIRECTION ( 'NONE',  ( 0.000000000000000000, 0.000000000000000000, 1.000000000000000000 ) ) ;
#411 = PRODUCT_DEFINITION ( 'UNKNOWN', '', #1036, #679 ) ;
#412 = PLANE ( 'NONE',  #982 ) ;
#413 = ORIENTED_EDGE ( 'NONE', *, *, #1010, .F. ) ;
#414 = DIRECTION ( 'NONE',  ( 0.000000000000000000, 0.000000000000000000, 1.000000000000000000 ) ) ;
#415 = CARTESIAN_POINT ( 'NONE',  ( 29.50000000000000000, 0.000000000000000000, 0.000000000000000000 ) ) ;
#416 = APPLICATION_CONTEXT ( 'configuration controlled 3d designs of mechanical parts and assemblies' ) ;
#417 = AXIS2_PLACEMENT_3D ( 'NONE', #729, #493, #899 ) ;
#418 = DIRECTION ( 'NONE',  ( 0.000000000000000000, -0.000000000000000000, 1.000000000000000000 ) ) ;
#419 = CIRCLE ( 'NONE', #199, 4.990000000000001101 ) ;
#420 = VECTOR ( 'NONE', #809, 1000.000000000000000 ) ;
#421 = VERTEX_POINT ( 'NONE', #765 ) ;
#422 = CALENDAR_DATE ( 2026, 12, 7 ) ;
#423 = CARTESIAN_POINT ( 'NONE',  ( 4.000000000000000000, 0.000000000000000000, 4.990000000000001101 ) ) ;
#424 = DIRECTION ( 'NONE',  ( -1.000000000000000000, -0.000000000000000000, -0.000000000000000000 ) ) ;
#425 = VERTEX_POINT ( 'NONE', #369 ) ;
#426 = EDGE_CURVE ( 'NONE', #87, #387, #1006, .T. ) ;
#427 = CARTESIAN_POINT ( 'NONE',  ( 54.00000000000000000, 0.000000000000000000, 0.000000000000000000 ) ) ;
#428 = CARTESIAN_POINT ( 'NONE',  ( 0.000000000000000000, 0.000000000000000000, 0.000000000000000000 ) ) ;
#429 = ORIENTED_EDGE ( 'NONE', *, *, #967, .T. ) ;
#430 = APPROVAL ( #341, 'UNSPECIFIED' ) ;
#431 = EDGE_CURVE ( 'NONE', #447, #877, #45, .T. ) ;
#432 = CARTESIAN_POINT ( 'NONE',  ( 39.50000000000000711, 6.110987527745299433E-16, -4.990000000000004654 ) ) ;
#433 = CARTESIAN_POINT ( 'NONE',  ( 4.000000000000000000, 6.110987527745294503E-16, -4.990000000000001101 ) ) ;
#434 = CIRCLE ( 'NONE', #666, 4.990000000000002878 ) ;
#435 = VERTEX_POINT ( 'NONE', #304 ) ;
#436 = APPROVAL_PERSON_ORGANIZATION ( #329, #37, #882 ) ;
#437 = CYLINDRICAL_SURFACE ( 'NONE', #602, 4.990000000000004654 ) ;
#438 = EDGE_CURVE ( 'NONE', #87, #319, #296, .T. ) ;
#439 = LINE ( 'NONE', #1002, #233 ) ;
#440 = EDGE_LOOP ( 'NONE', ( #365, #335 ) ) ;
#441 = CALENDAR_DATE ( 2026, 12, 7 ) ;
#442 = VERTEX_POINT ( 'NONE', #241 ) ;
#443 = DIRECTION ( 'NONE',  ( -1.000000000000000000, -0.000000000000000000, -0.000000000000000000 ) ) ;
#444 = CARTESIAN_POINT ( 'NONE',  ( 30.50000000000000000, 0.000000000000000000, 4.790000000000006253 ) ) ;
#445 = CC_DESIGN_DATE_AND_TIME_ASSIGNMENT ( #741, #811, ( #411 ) ) ;
#446 = EDGE_LOOP ( 'NONE', ( #453, #157 ) ) ;
#447 = VERTEX_POINT ( 'NONE', #859 ) ;
#448 = DIRECTION ( 'NONE',  ( -1.000000000000000000, -0.000000000000000000, -0.000000000000000000 ) ) ;
#449 = CARTESIAN_POINT ( 'NONE',  ( 1.224646799147250347E-18, 0.000000000000000000, 0.000000000000000000 ) ) ;
#450 = ORIENTED_EDGE ( 'NONE', *, *, #400, .T. ) ;
#451 = CLOSED_SHELL ( 'NONE', ( #660, #472, #547, #697, #1018, #94, #782, #142, #849, #193, #935, #920, #352, #64, #844, #346, #641, #835, #492, #24, #907, #813, #269, #22, #947, #888, #377, #624, #252, #176, #166, #17, #522, #654, #566 ) ) ;
#452 = AXIS2_PLACEMENT_3D ( 'NONE', #23, #325, #895 ) ;
#453 = ORIENTED_EDGE ( 'NONE', *, *, #88, .F. ) ;
#454 = LOCAL_TIME ( 16, 7, 44.00000000000000000, #821 ) ;
#455 = DIRECTION ( 'NONE',  ( 0.000000000000000000, 0.000000000000000000, 1.000000000000000000 ) ) ;
#456 = DIRECTION ( 'NONE',  ( 0.000000000000000000, 0.000000000000000000, 1.000000000000000000 ) ) ;
#457 = ORIENTED_EDGE ( 'NONE', *, *, #195, .T. ) ;
#458 = ORIENTED_EDGE ( 'NONE', *, *, #212, .F. ) ;
#459 = EDGE_CURVE ( 'NONE', #134, #379, #733, .T. ) ;
#460 = CARTESIAN_POINT ( 'NONE',  ( 0.000000000000000000, 2.000000000000002665, 7.218039900139096687 ) ) ;
#461 = DIRECTION ( 'NONE',  ( 0.000000000000000000, 0.000000000000000000, 1.000000000000000000 ) ) ;
#462 = ORIENTED_EDGE ( 'NONE', *, *, #243, .T. ) ;
#463 = PLANE ( 'NONE',  #717 ) ;
#464 = DIRECTION ( 'NONE',  ( -0.000000000000000000, 0.000000000000000000, -1.000000000000000000 ) ) ;
#465 = CARTESIAN_POINT ( 'NONE',  ( 14.00000000000000000, 0.000000000000000000, -7.490000000000001990 ) ) ;
#466 = ORIENTED_EDGE ( 'NONE', *, *, #574, .F. ) ;
#467 = CIRCLE ( 'NONE', #364, 4.990000000000000213 ) ;
#468 = DIRECTION ( 'NONE',  ( -1.000000000000000000, -0.000000000000000000, -0.000000000000000000 ) ) ;
#469 = AXIS2_PLACEMENT_3D ( 'NONE', #287, #129, #455 ) ;
#470 = AXIS2_PLACEMENT_3D ( 'NONE', #829, #667, #980 ) ;
#471 = PLANE ( 'NONE',  #485 ) ;
#472 = ADVANCED_FACE ( 'NONE', ( #864 ), #776, .T. ) ;
#473 = DIRECTION ( 'NONE',  ( 0.000000000000000000, 0.000000000000000000, 1.000000000000000000 ) ) ;
#474 = ORIENTED_EDGE ( 'NONE', *, *, #127, .F. ) ;
#475 = FACE_OUTER_BOUND ( 'NONE', #605, .T. ) ;
#476 = CARTESIAN_POINT ( 'NONE',  ( 0.000000000000000000, 0.000000000000000000, 4.790000000000006253 ) ) ;
#477 = DIRECTION ( 'NONE',  ( -1.000000000000000000, -0.000000000000000000, -0.000000000000000000 ) ) ;
#478 = CC_DESIGN_PERSON_AND_ORGANIZATION_ASSIGNMENT ( #902, #959, ( #540 ) ) ;
#479 = ORIENTED_EDGE ( 'NONE', *, *, #831, .T. ) ;
#480 = LINE ( 'NONE', #154, #298 ) ;
#481 = DIRECTION ( 'NONE',  ( 0.000000000000000000, 0.000000000000000000, 1.000000000000000000 ) ) ;
#482 = CARTESIAN_POINT ( 'NONE',  ( 14.00000000000000000, 0.000000000000000000, 0.000000000000000000 ) ) ;
#483 = ORIENTED_EDGE ( 'NONE', *, *, #237, .F. ) ;
#484 = APPROVAL_ROLE ( '' ) ;
#485 = AXIS2_PLACEMENT_3D ( 'NONE', #542, #143, #464 ) ;
#486 = AXIS2_PLACEMENT_3D ( 'NONE', #775, #303, #702 ) ;
#487 = CYLINDRICAL_SURFACE ( 'NONE', #1035, 7.490000000000001990 ) ;
#488 = CYLINDRICAL_SURFACE ( 'NONE', #786, 4.790000000000006253 ) ;
#489 = CIRCLE ( 'NONE', #312, 4.990000000000002878 ) ;
#490 = ORIENTED_EDGE ( 'NONE', *, *, #223, .T. ) ;
#491 = APPROVAL_DATE_TIME ( #655, #37 ) ;
#492 = ADVANCED_FACE ( 'NONE', ( #236 ), #798, .T. ) ;
#493 = DIRECTION ( 'NONE',  ( 0.000000000000000000, -1.000000000000000000, 0.000000000000000000 ) ) ;
#494 = DIRECTION ( 'NONE',  ( -1.000000000000000000, -0.000000000000000000, -0.000000000000000000 ) ) ;
#495 = ORIENTED_EDGE ( 'NONE', *, *, #731, .T. ) ;
#496 = PERSON_AND_ORGANIZATION_ROLE ( 'creator' ) ;
#497 = DIRECTION ( 'NONE',  ( -1.000000000000000000, 0.000000000000000000, -0.000000000000000000 ) ) ;
#498 = CARTESIAN_POINT ( 'NONE',  ( 30.50000000000000000, 0.000000000000000000, 0.000000000000000000 ) ) ;
#499 = ORIENTED_EDGE ( 'NONE', *, *, #51, .T. ) ;
#500 = APPLICATION_PROTOCOL_DEFINITION ( 'international standard', 'config_control_design', 1994, #563 ) ;
#501 = CARTESIAN_POINT ( 'NONE',  ( 1.224646799147250347E-18, 6.110987527745293517E-16, -4.990000000000000213 ) ) ;
#502 = AXIS2_PLACEMENT_3D ( 'NONE', #36, #47, #595 ) ;
#503 = FACE_OUTER_BOUND ( 'NONE', #91, .T. ) ;
#504 = AXIS2_PLACEMENT_3D ( 'NONE', #372, #443, #759 ) ;
#505 = EDGE_CURVE ( 'NONE', #763, #685, #696, .T. ) ;
#506 = CIRCLE ( 'NONE', #48, 4.990000000000000213 ) ;
#507 = ORIENTED_EDGE ( 'NONE', *, *, #459, .T. ) ;
#508 = DIRECTION ( 'NONE',  ( 0.000000000000000000, 0.000000000000000000, 1.000000000000000000 ) ) ;
#509 = CARTESIAN_POINT ( 'NONE',  ( 54.00000000000000000, 0.000000000000000000, 4.990000000000006430 ) ) ;
#510 = EDGE_LOOP ( 'NONE', ( #820, #43 ) ) ;
#511 = EDGE_CURVE ( 'NONE', #928, #319, #554, .T. ) ;
#512 = DIRECTION ( 'NONE',  ( 0.000000000000000000, 0.000000000000000000, 1.000000000000000000 ) ) ;
#513 = CARTESIAN_POINT ( 'NONE',  ( 0.000000000000000000, 0.000000000000000000, 4.990000000000002878 ) ) ;
#514 = EDGE_LOOP ( 'NONE', ( #8, #573 ) ) ;
#515 = EDGE_CURVE ( 'NONE', #234, #117, #9, .T. ) ;
#516 = CARTESIAN_POINT ( 'NONE',  ( 0.000000000000000000, 5.866058167915829334E-16, -4.790000000000006253 ) ) ;
#517 = CARTESIAN_POINT ( 'NONE',  ( 14.00000000000000000, 0.000000000000000000, 0.000000000000000000 ) ) ;
#518 = VECTOR ( 'NONE', #637, 1000.000000000000000 ) ;
#519 = VERTEX_POINT ( 'NONE', #1039 ) ;
#520 = CC_DESIGN_APPROVAL ( #430, ( #1036 ) ) ;
#521 = FACE_OUTER_BOUND ( 'NONE', #514, .T. ) ;
#522 = ADVANCED_FACE ( 'NONE', ( #321 ), #626, .F. ) ;
#523 = DIRECTION ( 'NONE',  ( -1.000000000000000000, -0.000000000000000000, -0.000000000000000000 ) ) ;
#524 = ORIENTED_EDGE ( 'NONE', *, *, #136, .T. ) ;
#525 = UNCERTAINTY_MEASURE_WITH_UNIT (LENGTH_MEASURE( 1.000000000000000082E-05 ), #240, 'distance_accuracy_value', 'NONE');
#526 = LINE ( 'NONE', #516, #333 ) ;
#527 = FACE_OUTER_BOUND ( 'NONE', #565, .T. ) ;
#528 = VERTEX_POINT ( 'NONE', #1016 ) ;
#529 = CARTESIAN_POINT ( 'NONE',  ( 0.000000000000000000, 0.000000000000000000, 4.790000000000006253 ) ) ;
#530 = CARTESIAN_POINT ( 'NONE',  ( 14.00000000000000000, 0.000000000000000000, 0.000000000000000000 ) ) ;
#531 = ORIENTED_EDGE ( 'NONE', *, *, #611, .T. ) ;
#532 = EDGE_CURVE ( 'NONE', #1004, #425, #917, .T. ) ;
#533 = CIRCLE ( 'NONE', #79, 4.790000000000005365 ) ;
#534 = ORIENTED_EDGE ( 'NONE', *, *, #103, .T. ) ;
#535 = AXIS2_PLACEMENT_3D ( 'NONE', #838, #771, #35 ) ;
#536 = AXIS2_PLACEMENT_3D ( 'NONE', #760, #918, #913 ) ;
#537 = DIRECTION ( 'NONE',  ( 0.000000000000000000, 0.000000000000000000, 1.000000000000000000 ) ) ;
#538 = DIRECTION ( 'NONE',  ( -1.000000000000000000, -0.000000000000000000, -0.000000000000000000 ) ) ;
#539 = ORIENTED_EDGE ( 'NONE', *, *, #617, .T. ) ;
#540 = PRODUCT ( 'Link2BackShaft_Default_sldprt', 'Link2BackShaft_Default_sldprt', '', ( #12 ) ) ;
#541 = CYLINDRICAL_SURFACE ( 'NONE', #28, 4.990000000000002878 ) ;
#542 = CARTESIAN_POINT ( 'NONE',  ( 14.00000000000000000, 0.000000000000000000, 0.000000000000000000 ) ) ;
#543 = CARTESIAN_POINT ( 'NONE',  ( 38.50000000000000000, 0.000000000000000000, 0.000000000000000000 ) ) ;
#544 = APPROVAL_STATUS ( 'not_yet_approved' ) ;
#545 = EDGE_LOOP ( 'NONE', ( #74, #495 ) ) ;
#546 = DIRECTION ( 'NONE',  ( -1.000000000000000000, -0.000000000000000000, -0.000000000000000000 ) ) ;
#547 = ADVANCED_FACE ( 'NONE', ( #955 ), #879, .T. ) ;
#548 = CARTESIAN_POINT ( 'NONE',  ( 0.000000000000000000, 0.000000000000000000, 0.000000000000000000 ) ) ;
#549 = CARTESIAN_POINT ( 'NONE',  ( 39.50000000000000711, 0.000000000000000000, -4.990000000000004654 ) ) ;
#550 = ORIENTED_EDGE ( 'NONE', *, *, #313, .F. ) ;
#551 = AXIS2_PLACEMENT_3D ( 'NONE', #187, #570, #828 ) ;
#552 = CARTESIAN_POINT ( 'NONE',  ( 14.00000000000000000, -1.999999999999997335, 7.228416147400479552 ) ) ;
#553 = AXIS2_PLACEMENT_3D ( 'NONE', #517, #538, #124 ) ;
#554 = LINE ( 'NONE', #558, #518 ) ;
#555 = DIRECTION ( 'NONE',  ( 0.000000000000000000, 0.000000000000000000, 1.000000000000000000 ) ) ;
#556 = ORIENTED_EDGE ( 'NONE', *, *, #988, .T. ) ;
#557 = DIRECTION ( 'NONE',  ( -0.000000000000000000, -0.000000000000000000, 1.000000000000000000 ) ) ;
#558 = CARTESIAN_POINT ( 'NONE',  ( 14.00000000000000000, -1.999999999999997335, 7.228416147400479552 ) ) ;
#559 = CARTESIAN_POINT ( 'NONE',  ( 14.00000000000000000, 6.110987527745294503E-16, -4.990000000000001101 ) ) ;
#560 = ORIENTED_EDGE ( 'NONE', *, *, #511, .T. ) ;
#561 = COORDINATED_UNIVERSAL_TIME_OFFSET ( 3, 30, .AHEAD. ) ;
#562 = DIRECTION ( 'NONE',  ( -1.000000000000000000, -0.000000000000000000, -0.000000000000000000 ) ) ;
#563 = APPLICATION_CONTEXT ( 'configuration controlled 3d designs of mechanical parts and assemblies' ) ;
#564 = DIRECTION ( 'NONE',  ( -1.000000000000000000, 0.000000000000000000, -0.000000000000000000 ) ) ;
#565 = EDGE_LOOP ( 'NONE', ( #683, #406, #39, #466 ) ) ;
#566 = ADVANCED_FACE ( 'NONE', ( #221 ), #471, .T. ) ;
#567 = DATE_TIME_ROLE ( 'classification_date' ) ;
#568 = AXIS2_PLACEMENT_3D ( 'NONE', #57, #640, #712 ) ;
#569 = LOCAL_TIME ( 16, 7, 44.00000000000000000, #561 ) ;
#570 = DIRECTION ( 'NONE',  ( -1.000000000000000000, -0.000000000000000000, -0.000000000000000000 ) ) ;
#571 = EDGE_CURVE ( 'NONE', #442, #928, #1022, .T. ) ;
#572 = DIRECTION ( 'NONE',  ( -1.000000000000000000, -0.000000000000000000, -0.000000000000000000 ) ) ;
#573 = ORIENTED_EDGE ( 'NONE', *, *, #1025, .T. ) ;
#574 = EDGE_CURVE ( 'NONE', #842, #26, #198, .T. ) ;
#575 = APPROVAL_STATUS ( 'not_yet_approved' ) ;
#576 = EDGE_CURVE ( 'NONE', #425, #1004, #130, .T. ) ;
#577 = FACE_OUTER_BOUND ( 'NONE', #1007, .T. ) ;
#578 = DIRECTION ( 'NONE',  ( 0.000000000000000000, 0.000000000000000000, 1.000000000000000000 ) ) ;
#579 = ORIENTED_EDGE ( 'NONE', *, *, #769, .T. ) ;
#580 = CYLINDRICAL_SURFACE ( 'NONE', #822, 4.990000000000000213 ) ;
#581 = EDGE_CURVE ( 'NONE', #285, #227, #792, .T. ) ;
#582 = CARTESIAN_POINT ( 'NONE',  ( 30.50000000000000000, 0.000000000000000000, 0.000000000000000000 ) ) ;
#583 = ORIENTED_EDGE ( 'NONE', *, *, #84, .F. ) ;
#584 = DIRECTION ( 'NONE',  ( -1.000000000000000000, -0.000000000000000000, -0.000000000000000000 ) ) ;
#585 = CIRCLE ( 'NONE', #502, 4.790000000000005365 ) ;
#586 = CIRCLE ( 'NONE', #551, 4.990000000000003766 ) ;
#587 = CARTESIAN_POINT ( 'NONE',  ( 1.224646799147250347E-18, 0.000000000000000000, 4.990000000000000213 ) ) ;
#588 = VECTOR ( 'NONE', #557, 1000.000000000000000 ) ;
#589 = VECTOR ( 'NONE', #971, 1000.000000000000000 ) ;
#590 = EDGE_LOOP ( 'NONE', ( #601, #921 ) ) ;
#591 = DIRECTION ( 'NONE',  ( 0.000000000000000000, 0.000000000000000000, 1.000000000000000000 ) ) ;
#592 = CARTESIAN_POINT ( 'NONE',  ( 0.000000000000000000, -1.999999999999997335, 7.218039900139097576 ) ) ;
#593 = EDGE_LOOP ( 'NONE', ( #458, #429, #653, #993 ) ) ;
#594 = FACE_BOUND ( 'NONE', #203, .T. ) ;
#595 = DIRECTION ( 'NONE',  ( 0.000000000000000000, 0.000000000000000000, 1.000000000000000000 ) ) ;
#596 = VERTEX_POINT ( 'NONE', #1032 ) ;
#597 = EDGE_CURVE ( 'NONE', #117, #234, #766, .T. ) ;
#598 = DIRECTION ( 'NONE',  ( -1.000000000000000000, 0.000000000000000000, -0.000000000000000000 ) ) ;
#599 = DIRECTION ( 'NONE',  ( -1.000000000000000000, -0.000000000000000000, -0.000000000000000000 ) ) ;
#600 = AXIS2_PLACEMENT_3D ( 'NONE', #357, #599, #456 ) ;
#601 = ORIENTED_EDGE ( 'NONE', *, *, #511, .F. ) ;
#602 = AXIS2_PLACEMENT_3D ( 'NONE', #606, #995, #610 ) ;
#603 = CC_DESIGN_APPROVAL ( #998, ( #63 ) ) ;
#604 = CIRCLE ( 'NONE', #168, 7.490000000000001990 ) ;
#605 = EDGE_LOOP ( 'NONE', ( #673, #613, #479, #866, #21, #81 ) ) ;
#606 = CARTESIAN_POINT ( 'NONE',  ( 0.000000000000000000, 0.000000000000000000, 0.000000000000000000 ) ) ;
#607 = DIRECTION ( 'NONE',  ( 0.000000000000000000, 0.000000000000000000, 1.000000000000000000 ) ) ;
#608 = ORIENTED_EDGE ( 'NONE', *, *, #988, .F. ) ;
#609 = SHAPE_DEFINITION_REPRESENTATION ( #957, #1031 ) ;
#610 = DIRECTION ( 'NONE',  ( 0.000000000000000000, 0.000000000000000000, 1.000000000000000000 ) ) ;
#611 = EDGE_CURVE ( 'NONE', #830, #285, #27, .T. ) ;
#612 = CARTESIAN_POINT ( 'NONE',  ( 0.000000000000000000, 6.110987527745294503E-16, -4.990000000000001101 ) ) ;
#613 = ORIENTED_EDGE ( 'NONE', *, *, #438, .T. ) ;
#614 = ORIENTED_EDGE ( 'NONE', *, *, #162, .F. ) ;
#615 = DIRECTION ( 'NONE',  ( -0.000000000000000000, 0.000000000000000000, 1.000000000000000000 ) ) ;
#616 = DIRECTION ( 'NONE',  ( 0.000000000000000000, 0.000000000000000000, 1.000000000000000000 ) ) ;
#617 = EDGE_CURVE ( 'NONE', #270, #421, #716, .T. ) ;
#618 = ORIENTED_EDGE ( 'NONE', *, *, #836, .T. ) ;
#619 = AXIS2_PLACEMENT_3D ( 'NONE', #89, #562, #508 ) ;
#620 = CIRCLE ( 'NONE', #700, 4.990000000000004654 ) ;
#621 = FACE_OUTER_BOUND ( 'NONE', #310, .T. ) ;
#622 = DIRECTION ( 'NONE',  ( 0.000000000000000000, 0.000000000000000000, 1.000000000000000000 ) ) ;
#623 = CARTESIAN_POINT ( 'NONE',  ( 24.00000000000000000, 0.000000000000000000, 0.000000000000000000 ) ) ;
#624 = ADVANCED_FACE ( 'NONE', ( #262, #330 ), #978, .F. ) ;
#625 = DIRECTION ( 'NONE',  ( -1.000000000000000000, 0.000000000000000000, -0.000000000000000000 ) ) ;
#626 = PLANE ( 'NONE',  #886 ) ;
#627 = LINE ( 'NONE', #944, #82 ) ;
#628 = EDGE_LOOP ( 'NONE', ( #556, #693 ) ) ;
#629 = EDGE_CURVE ( 'NONE', #1037, #137, #331, .T. ) ;
#630 = DIRECTION ( 'NONE',  ( 0.000000000000000000, 0.000000000000000000, 1.000000000000000000 ) ) ;
#631 = CARTESIAN_POINT ( 'NONE',  ( 38.50000000000000000, 0.000000000000000000, 0.000000000000000000 ) ) ;
#632 = CARTESIAN_POINT ( 'NONE',  ( 39.50000000000000711, 0.000000000000000000, 4.990000000000004654 ) ) ;
#633 = ORIENTED_EDGE ( 'NONE', *, *, #979, .F. ) ;
#634 = VECTOR ( 'NONE', #868, 1000.000000000000000 ) ;
#635 = FACE_OUTER_BOUND ( 'NONE', #440, .T. ) ;
#636 = AXIS2_PLACEMENT_3D ( 'NONE', #1011, #992, #132 ) ;
#637 = DIRECTION ( 'NONE',  ( 0.000000000000000000, 0.000000000000000000, -1.000000000000000000 ) ) ;
#638 = DIRECTION ( 'NONE',  ( 0.000000000000000000, 0.000000000000000000, -1.000000000000000000 ) ) ;
#639 = VERTEX_POINT ( 'NONE', #175 ) ;
#640 = DIRECTION ( 'NONE',  ( -1.000000000000000000, -0.000000000000000000, -0.000000000000000000 ) ) ;
#641 = ADVANCED_FACE ( 'NONE', ( #577 ), #650, .T. ) ;
#642 = CARTESIAN_POINT ( 'NONE',  ( 30.50000000000000000, 0.000000000000000000, 4.990000000000004654 ) ) ;
#643 = ORIENTED_EDGE ( 'NONE', *, *, #327, .T. ) ;
#644 = PERSON_AND_ORGANIZATION ( #796, #903 ) ;
#645 = CARTESIAN_POINT ( 'NONE',  ( 3.000000000000000000, 0.000000000000000000, 0.000000000000000000 ) ) ;
#646 = DIRECTION ( 'NONE',  ( 0.000000000000000000, 0.000000000000000000, 1.000000000000000000 ) ) ;
#647 = VERTEX_POINT ( 'NONE', #817 ) ;
#648 = CARTESIAN_POINT ( 'NONE',  ( 0.000000000000000000, 0.000000000000000000, 0.000000000000000000 ) ) ;
#649 = CIRCLE ( 'NONE', #217, 4.790000000000005365 ) ;
#650 = CYLINDRICAL_SURFACE ( 'NONE', #1000, 4.990000000000004654 ) ;
#651 = AXIS2_PLACEMENT_3D ( 'NONE', #317, #564, #956 ) ;
#652 = CARTESIAN_POINT ( 'NONE',  ( 0.000000000000000000, 9.172604525613678137E-16, -7.490000000000001990 ) ) ;
#653 = ORIENTED_EDGE ( 'NONE', *, *, #750, .T. ) ;
#654 = ADVANCED_FACE ( 'NONE', ( #92 ), #883, .F. ) ;
#655 = DATE_AND_TIME ( #422, #569 ) ;
#656 = DIRECTION ( 'NONE',  ( -1.000000000000000000, -0.000000000000000000, -0.000000000000000000 ) ) ;
#657 = DIRECTION ( 'NONE',  ( 1.000000000000000000, 0.000000000000000000, 0.000000000000000000 ) ) ;
#658 = ORIENTED_EDGE ( 'NONE', *, *, #862, .T. ) ;
#659 = PERSON_AND_ORGANIZATION_ROLE ( 'design_supplier' ) ;
#660 = ADVANCED_FACE ( 'NONE', ( #258 ), #580, .T. ) ;
#661 = DIRECTION ( 'NONE',  ( -1.000000000000000000, -0.000000000000000000, -0.000000000000000000 ) ) ;
#662 = DIRECTION ( 'NONE',  ( -1.000000000000000000, -0.000000000000000000, -0.000000000000000000 ) ) ;
#663 = ORIENTED_EDGE ( 'NONE', *, *, #581, .F. ) ;
#664 = DIRECTION ( 'NONE',  ( -1.000000000000000000, -0.000000000000000000, -0.000000000000000000 ) ) ;
#665 = AXIS2_PLACEMENT_3D ( 'NONE', #543, #309, #865 ) ;
#666 = AXIS2_PLACEMENT_3D ( 'NONE', #415, #2, #735 ) ;
#667 = DIRECTION ( 'NONE',  ( -1.000000000000000000, -0.000000000000000000, -0.000000000000000000 ) ) ;
#668 = CIRCLE ( 'NONE', #936, 4.990000000000004654 ) ;
#669 = ORIENTED_EDGE ( 'NONE', *, *, #967, .F. ) ;
#670 = LINE ( 'NONE', #529, #1017 ) ;
#671 = CYLINDRICAL_SURFACE ( 'NONE', #807, 7.490000000000001990 ) ;
#672 = EDGE_CURVE ( 'NONE', #871, #732, #434, .T. ) ;
#673 = ORIENTED_EDGE ( 'NONE', *, *, #426, .F. ) ;
#674 = EDGE_CURVE ( 'NONE', #1037, #842, #14, .T. ) ;
#675 = DIRECTION ( 'NONE',  ( -1.000000000000000000, -0.000000000000000000, -0.000000000000000000 ) ) ;
#676 = CARTESIAN_POINT ( 'NONE',  ( 0.000000000000000000, 0.000000000000000000, 0.000000000000000000 ) ) ;
#677 = EDGE_LOOP ( 'NONE', ( #507, #291, #107, #197 ) ) ;
#678 = ORIENTED_EDGE ( 'NONE', *, *, #102, .F. ) ;
#679 = DESIGN_CONTEXT ( 'detailed design', #416, 'design' ) ;
#680 = CARTESIAN_POINT ( 'NONE',  ( 4.000000000000000000, 0.000000000000000000, 0.000000000000000000 ) ) ;
#681 = DIRECTION ( 'NONE',  ( -1.000000000000000000, -0.000000000000000000, -0.000000000000000000 ) ) ;
#682 = AXIS2_PLACEMENT_3D ( 'NONE', #631, #948, #155 ) ;
#683 = ORIENTED_EDGE ( 'NONE', *, *, #674, .F. ) ;
#684 = AXIS2_PLACEMENT_3D ( 'NONE', #549, #1034, #939 ) ;
#685 = VERTEX_POINT ( 'NONE', #423 ) ;
#686 = EDGE_CURVE ( 'NONE', #966, #355, #950, .T. ) ;
#687 = FACE_OUTER_BOUND ( 'NONE', #690, .T. ) ;
#688 = DIRECTION ( 'NONE',  ( 0.000000000000000000, 0.000000000000000000, 1.000000000000000000 ) ) ;
#689 = ORIENTED_EDGE ( 'NONE', *, *, #288, .T. ) ;
#690 = EDGE_LOOP ( 'NONE', ( #380, #834, #219, #550 ) ) ;
#691 = DIRECTION ( 'NONE',  ( 0.000000000000000000, 0.000000000000000000, 1.000000000000000000 ) ) ;
#692 = CARTESIAN_POINT ( 'NONE',  ( 14.00000000000000000, 9.172604525613678137E-16, -7.490000000000001990 ) ) ;
#693 = ORIENTED_EDGE ( 'NONE', *, *, #686, .T. ) ;
#694 = VERTEX_POINT ( 'NONE', #501 ) ;
#695 = DIRECTION ( 'NONE',  ( 0.000000000000000000, 0.000000000000000000, 1.000000000000000000 ) ) ;
#696 = LINE ( 'NONE', #938, #749 ) ;
#697 = ADVANCED_FACE ( 'NONE', ( #823 ), #487, .T. ) ;
#698 = DIRECTION ( 'NONE',  ( -1.000000000000000000, -0.000000000000000000, -0.000000000000000000 ) ) ;
#699 = AXIS2_PLACEMENT_3D ( 'NONE', #19, #661, #725 ) ;
#700 = AXIS2_PLACEMENT_3D ( 'NONE', #83, #827, #414 ) ;
#701 = ORIENTED_EDGE ( 'NONE', *, *, #170, .T. ) ;
#702 = DIRECTION ( 'NONE',  ( 0.000000000000000000, 0.000000000000000000, 1.000000000000000000 ) ) ;
#703 = DIRECTION ( 'NONE',  ( 0.000000000000000000, 0.000000000000000000, 1.000000000000000000 ) ) ;
#704 = DIRECTION ( 'NONE',  ( -1.000000000000000000, -0.000000000000000000, -0.000000000000000000 ) ) ;
#705 = EDGE_CURVE ( 'NONE', #706, #976, #111, .T. ) ;
#706 = VERTEX_POINT ( 'NONE', #246 ) ;
#707 = LINE ( 'NONE', #398, #588 ) ;
#708 = DIRECTION ( 'NONE',  ( 0.000000000000000000, 0.000000000000000000, 1.000000000000000000 ) ) ;
#709 = DIRECTION ( 'NONE',  ( 0.000000000000000000, 0.000000000000000000, -1.000000000000000000 ) ) ;
#710 = ORIENTED_EDGE ( 'NONE', *, *, #302, .T. ) ;
#711 = DIRECTION ( 'NONE',  ( -1.000000000000000000, -0.000000000000000000, -0.000000000000000000 ) ) ;
#712 = DIRECTION ( 'NONE',  ( 0.000000000000000000, 0.000000000000000000, 1.000000000000000000 ) ) ;
#713 = PLANE ( 'NONE',  #853 ) ;
#714 = ORIENTED_EDGE ( 'NONE', *, *, #617, .F. ) ;
#715 = AXIS2_PLACEMENT_3D ( 'NONE', #255, #339, #418 ) ;
#716 = CIRCLE ( 'NONE', #452, 7.490000000000001990 ) ;
#717 = AXIS2_PLACEMENT_3D ( 'NONE', #67, #867, #787 ) ;
#718 = EDGE_CURVE ( 'NONE', #639, #208, #586, .T. ) ;
#719 = VECTOR ( 'NONE', #662, 1000.000000000000000 ) ;
#720 = DIRECTION ( 'NONE',  ( -1.000000000000000000, -0.000000000000000000, -0.000000000000000000 ) ) ;
#721 = CARTESIAN_POINT ( 'NONE',  ( 24.00000000000000000, -1.999999999999997335, 7.218039900139097576 ) ) ;
#722 = ORIENTED_EDGE ( 'NONE', *, *, #795, .T. ) ;
#723 = CALENDAR_DATE ( 2026, 12, 7 ) ;
#724 = EDGE_CURVE ( 'NONE', #137, #1037, #401, .T. ) ;
#725 = DIRECTION ( 'NONE',  ( 0.000000000000000000, 0.000000000000000000, 1.000000000000000000 ) ) ;
#726 = DIRECTION ( 'NONE',  ( -1.000000000000000000, 0.000000000000000000, 0.000000000000000000 ) ) ;
#727 = ORIENTED_EDGE ( 'NONE', *, *, #505, .F. ) ;
#728 =( NAMED_UNIT ( * ) SI_UNIT ( $, .STERADIAN. ) SOLID_ANGLE_UNIT ( ) );
#729 = CARTESIAN_POINT ( 'NONE',  ( 24.00000000000000000, 2.000000000000002665, 7.228416147400479552 ) ) ;
#730 = DIRECTION ( 'NONE',  ( -1.000000000000000000, -0.000000000000000000, -0.000000000000000000 ) ) ;
#731 = EDGE_CURVE ( 'NONE', #860, #227, #533, .T. ) ;
#732 = VERTEX_POINT ( 'NONE', #6 ) ;
#733 = CIRCLE ( 'NONE', #350, 4.790000000000005365 ) ;
#734 = AXIS2_PLACEMENT_3D ( 'NONE', #356, #852, #691 ) ;
#735 = DIRECTION ( 'NONE',  ( 0.000000000000000000, 0.000000000000000000, 1.000000000000000000 ) ) ;
#736 = CC_DESIGN_SECURITY_CLASSIFICATION ( #63, ( #1036 ) ) ;
#737 = CIRCLE ( 'NONE', #318, 4.990000000000001101 ) ;
#738 = CARTESIAN_POINT ( 'NONE',  ( 3.000000000000000000, 0.000000000000000000, 4.990000000000000213 ) ) ;
#739 = EDGE_LOOP ( 'NONE', ( #851, #962, #34, #940 ) ) ;
#740 = EDGE_CURVE ( 'NONE', #26, #842, #216, .T. ) ;
#741 = DATE_AND_TIME ( #723, #454 ) ;
#742 = DIRECTION ( 'NONE',  ( -1.000000000000000000, -0.000000000000000000, -0.000000000000000000 ) ) ;
#743 = DIRECTION ( 'NONE',  ( -1.000000000000000000, -0.000000000000000000, -0.000000000000000000 ) ) ;
#744 = ORIENTED_EDGE ( 'NONE', *, *, #780, .F. ) ;
#745 = DIRECTION ( 'NONE',  ( 0.000000000000000000, 0.000000000000000000, 1.000000000000000000 ) ) ;
#746 = FACE_OUTER_BOUND ( 'NONE', #924, .T. ) ;
#747 = ORIENTED_EDGE ( 'NONE', *, *, #195, .F. ) ;
#748 = DIRECTION ( 'NONE',  ( 0.000000000000000000, 0.000000000000000000, 1.000000000000000000 ) ) ;
#749 = VECTOR ( 'NONE', #230, 1000.000000000000000 ) ;
#750 = EDGE_CURVE ( 'NONE', #134, #425, #670, .T. ) ;
#751 = CIRCLE ( 'NONE', #11, 4.990000000000001101 ) ;
#752 = DIRECTION ( 'NONE',  ( -1.000000000000000000, -0.000000000000000000, -0.000000000000000000 ) ) ;
#753 = VECTOR ( 'NONE', #408, 1000.000000000000000 ) ;
#754 = ORIENTED_EDGE ( 'NONE', *, *, #515, .T. ) ;
#755 = DIRECTION ( 'NONE',  ( -1.000000000000000000, -0.000000000000000000, -0.000000000000000000 ) ) ;
#756 = PRODUCT_RELATED_PRODUCT_CATEGORY ( 'detail', '', ( #540 ) ) ;
#757 = DIRECTION ( 'NONE',  ( -1.000000000000000000, -0.000000000000000000, -0.000000000000000000 ) ) ;
#758 = ORIENTED_EDGE ( 'NONE', *, *, #818, .F. ) ;
#759 = DIRECTION ( 'NONE',  ( 0.000000000000000000, 0.000000000000000000, 1.000000000000000000 ) ) ;
#760 = CARTESIAN_POINT ( 'NONE',  ( 0.000000000000000000, 0.000000000000000000, 0.000000000000000000 ) ) ;
#761 = ORIENTED_EDGE ( 'NONE', *, *, #672, .T. ) ;
#762 = EDGE_CURVE ( 'NONE', #928, #763, #403, .T. ) ;
#763 = VERTEX_POINT ( 'NONE', #283 ) ;
#764 = DIRECTION ( 'NONE',  ( -1.000000000000000000, -0.000000000000000000, -0.000000000000000000 ) ) ;
#765 = CARTESIAN_POINT ( 'NONE',  ( 14.00000000000000000, -1.999999999999997335, -7.218039900139096687 ) ) ;
#766 = CIRCLE ( 'NONE', #381, 4.790000000000001812 ) ;
#767 = ORIENTED_EDGE ( 'NONE', *, *, #114, .T. ) ;
#768 = VECTOR ( 'NONE', #477, 1000.000000000000000 ) ;
#769 = EDGE_CURVE ( 'NONE', #387, #685, #751, .T. ) ;
#770 = ORIENTED_EDGE ( 'NONE', *, *, #915, .T. ) ;
#771 = DIRECTION ( 'NONE',  ( -1.000000000000000000, -0.000000000000000000, -0.000000000000000000 ) ) ;
#772 = DIRECTION ( 'NONE',  ( -1.000000000000000000, 0.000000000000000000, 0.000000000000000000 ) ) ;
#773 = EDGE_LOOP ( 'NONE', ( #279, #815 ) ) ;
#774 = ORIENTED_EDGE ( 'NONE', *, *, #672, .F. ) ;
#775 = CARTESIAN_POINT ( 'NONE',  ( 26.00000000000000000, 0.000000000000000000, 0.000000000000000000 ) ) ;
#776 = CYLINDRICAL_SURFACE ( 'NONE', #348, 4.790000000000000924 ) ;
#777 = ORIENTED_EDGE ( 'NONE', *, *, #438, .F. ) ;
#778 = ORIENTED_EDGE ( 'NONE', *, *, #686, .F. ) ;
#779 = DIRECTION ( 'NONE',  ( -0.000000000000000000, -0.000000000000000000, 1.000000000000000000 ) ) ;
#780 = EDGE_CURVE ( 'NONE', #49, #192, #806, .T. ) ;
#781 = DIRECTION ( 'NONE',  ( -1.000000000000000000, -0.000000000000000000, -0.000000000000000000 ) ) ;
#782 = ADVANCED_FACE ( 'NONE', ( #267 ), #437, .T. ) ;
#783 = DIRECTION ( 'NONE',  ( 0.000000000000000000, 0.000000000000000000, 1.000000000000000000 ) ) ;
#784 = VECTOR ( 'NONE', #858, 1000.000000000000000 ) ;
#785 = ORIENTED_EDGE ( 'NONE', *, *, #574, .T. ) ;
#786 = AXIS2_PLACEMENT_3D ( 'NONE', #160, #949, #783 ) ;
#787 = DIRECTION ( 'NONE',  ( 0.000000000000000000, 0.000000000000000000, -1.000000000000000000 ) ) ;
#788 = DIRECTION ( 'NONE',  ( -1.000000000000000000, -0.000000000000000000, -0.000000000000000000 ) ) ;
#789 = VERTEX_POINT ( 'NONE', #912 ) ;
#790 = ORIENTED_EDGE ( 'NONE', *, *, #571, .F. ) ;
#791 = CARTESIAN_POINT ( 'NONE',  ( 14.00000000000000000, 2.000000000000002665, 7.228416147400479552 ) ) ;
#792 = LINE ( 'NONE', #476, #183 ) ;
#793 = FACE_BOUND ( 'NONE', #70, .T. ) ;
#794 = EDGE_LOOP ( 'NONE', ( #490, #1008, #747, #727, #101, #689 ) ) ;
#795 = EDGE_CURVE ( 'NONE', #596, #647, #150, .T. ) ;
#796 = PERSON ( 'UNSPECIFIED', 'UNSPECIFIED', 'UNSPECIFIED', ('UNSPECIFIED'), ('UNSPECIFIED'), ('UNSPECIFIED') ) ;
#797 = CARTESIAN_POINT ( 'NONE',  ( 29.50000000000000000, 0.000000000000000000, 4.990000000000002878 ) ) ;
#798 = CYLINDRICAL_SURFACE ( 'NONE', #930, 4.790000000000006253 ) ;
#799 = LINE ( 'NONE', #876, #420 ) ;
#800 = EDGE_LOOP ( 'NONE', ( #483, #618, #153, #678, #524, #244, #701, #714 ) ) ;
#801 = VECTOR ( 'NONE', #211, 1000.000000000000000 ) ;
#802 = VECTOR ( 'NONE', #207, 1000.000000000000000 ) ;
#803 = CC_DESIGN_PERSON_AND_ORGANIZATION_ASSIGNMENT ( #18, #496, ( #411 ) ) ;
#804 = EDGE_CURVE ( 'NONE', #976, #120, #271, .T. ) ;
#805 = APPROVAL_DATE_TIME ( #816, #430 ) ;
#806 = CIRCLE ( 'NONE', #734, 4.990000000000000213 ) ;
#807 = AXIS2_PLACEMENT_3D ( 'NONE', #41, #854, #616 ) ;
#808 = DIRECTION ( 'NONE',  ( 0.000000000000000000, 0.000000000000000000, 1.000000000000000000 ) ) ;
#809 = DIRECTION ( 'NONE',  ( -0.000000000000000000, -0.000000000000000000, 1.000000000000000000 ) ) ;
#810 = ORIENTED_EDGE ( 'NONE', *, *, #994, .T. ) ;
#811 = DATE_TIME_ROLE ( 'creation_date' ) ;
#812 = CARTESIAN_POINT ( 'NONE',  ( 0.000000000000000000, 0.000000000000000000, 0.000000000000000000 ) ) ;
#813 = ADVANCED_FACE ( 'NONE', ( #925, #594 ), #205, .F. ) ;
#814 = DIRECTION ( 'NONE',  ( 0.000000000000000000, 0.000000000000000000, 1.000000000000000000 ) ) ;
#815 = ORIENTED_EDGE ( 'NONE', *, *, #611, .F. ) ;
#816 = DATE_AND_TIME ( #174, #968 ) ;
#817 = CARTESIAN_POINT ( 'NONE',  ( 26.00000000000000355, 9.172604525613680109E-16, -7.490000000000003766 ) ) ;
#818 = EDGE_CURVE ( 'NONE', #830, #860, #526, .T. ) ;
#819 = DIRECTION ( 'NONE',  ( -1.000000000000000000, -0.000000000000000000, -0.000000000000000000 ) ) ;
#820 = ORIENTED_EDGE ( 'NONE', *, *, #288, .F. ) ;
#821 = COORDINATED_UNIVERSAL_TIME_OFFSET ( 3, 30, .AHEAD. ) ;
#822 = AXIS2_PLACEMENT_3D ( 'NONE', #163, #105, #99 ) ;
#823 = FACE_OUTER_BOUND ( 'NONE', #323, .T. ) ;
#824 = AXIS2_PLACEMENT_3D ( 'NONE', #386, #232, #555 ) ;
#825 = CARTESIAN_POINT ( 'NONE',  ( 14.00000000000000000, 0.000000000000000000, 0.000000000000000000 ) ) ;
#826 = ORIENTED_EDGE ( 'NONE', *, *, #136, .F. ) ;
#827 = DIRECTION ( 'NONE',  ( -1.000000000000000000, -0.000000000000000000, -0.000000000000000000 ) ) ;
#828 = DIRECTION ( 'NONE',  ( 0.000000000000000000, 0.000000000000000000, 1.000000000000000000 ) ) ;
#829 = CARTESIAN_POINT ( 'NONE',  ( 3.000000000000000000, 0.000000000000000000, 0.000000000000000000 ) ) ;
#830 = VERTEX_POINT ( 'NONE', #113 ) ;
#831 = EDGE_CURVE ( 'NONE', #319, #928, #419, .T. ) ;
#832 = CARTESIAN_POINT ( 'NONE',  ( 14.00000000000000000, 0.000000000000000000, 0.000000000000000000 ) ) ;
#833 = DIRECTION ( 'NONE',  ( 1.000000000000000000, 0.000000000000000000, 0.000000000000000000 ) ) ;
#834 = ORIENTED_EDGE ( 'NONE', *, *, #674, .T. ) ;
#835 = ADVANCED_FACE ( 'NONE', ( #916, #521 ), #847, .F. ) ;
#836 = EDGE_CURVE ( 'NONE', #647, #596, #80, .T. ) ;
#837 = EDGE_CURVE ( 'NONE', #234, #355, #353, .T. ) ;
#838 = CARTESIAN_POINT ( 'NONE',  ( 39.50000000000000711, 0.000000000000000000, 0.000000000000000000 ) ) ;
#839 = AXIS2_PLACEMENT_3D ( 'NONE', #530, #720, #874 ) ;
#840 = APPROVAL_PERSON_ORGANIZATION ( #644, #430, #484 ) ;
#841 = CYLINDRICAL_SURFACE ( 'NONE', #147, 4.790000000000000924 ) ;
#842 = VERTEX_POINT ( 'NONE', #432 ) ;
#843 = DIRECTION ( 'NONE',  ( 1.000000000000000000, 0.000000000000000000, 0.000000000000000000 ) ) ;
#844 = ADVANCED_FACE ( 'NONE', ( #44 ), #123, .T. ) ;
#845 = FACE_BOUND ( 'NONE', #60, .T. ) ;
#846 = ORIENTED_EDGE ( 'NONE', *, *, #875, .F. ) ;
#847 = PLANE ( 'NONE',  #984 ) ;
#848 = CYLINDRICAL_SURFACE ( 'NONE', #536, 4.990000000000000213 ) ;
#849 = ADVANCED_FACE ( 'NONE', ( #687 ), #210, .T. ) ;
#850 = ORIENTED_EDGE ( 'NONE', *, *, #740, .T. ) ;
#851 = ORIENTED_EDGE ( 'NONE', *, *, #148, .T. ) ;
#852 = DIRECTION ( 'NONE',  ( -1.000000000000000000, -0.000000000000000000, -0.000000000000000000 ) ) ;
#853 = AXIS2_PLACEMENT_3D ( 'NONE', #1019, #73, #69 ) ;
#854 = DIRECTION ( 'NONE',  ( -1.000000000000000000, -0.000000000000000000, -0.000000000000000000 ) ) ;
#855 = AXIS2_PLACEMENT_3D ( 'NONE', #342, #497, #964 ) ;
#856 = ORIENTED_EDGE ( 'NONE', *, *, #581, .T. ) ;
#857 = AXIS2_PLACEMENT_3D ( 'NONE', #582, #900, #181 ) ;
#858 = DIRECTION ( 'NONE',  ( 0.000000000000000000, 0.000000000000000000, -1.000000000000000000 ) ) ;
#859 = CARTESIAN_POINT ( 'NONE',  ( 14.00000000000000000, 0.000000000000000000, 7.490000000000001990 ) ) ;
#860 = VERTEX_POINT ( 'NONE', #376 ) ;
#861 = ORIENTED_EDGE ( 'NONE', *, *, #862, .F. ) ;
#862 = EDGE_CURVE ( 'NONE', #519, #789, #707, .T. ) ;
#863 = FACE_OUTER_BOUND ( 'NONE', #908, .T. ) ;
#864 = FACE_OUTER_BOUND ( 'NONE', #344, .T. ) ;
#865 = DIRECTION ( 'NONE',  ( 0.000000000000000000, 0.000000000000000000, 1.000000000000000000 ) ) ;
#866 = ORIENTED_EDGE ( 'NONE', *, *, #762, .T. ) ;
#867 = DIRECTION ( 'NONE',  ( 1.000000000000000000, 0.000000000000000000, 0.000000000000000000 ) ) ;
#868 = DIRECTION ( 'NONE',  ( 0.000000000000000000, 0.000000000000000000, -1.000000000000000000 ) ) ;
#869 = CARTESIAN_POINT ( 'NONE',  ( 0.000000000000000000, 0.000000000000000000, 4.990000000000000213 ) ) ;
#870 = AXIS2_PLACEMENT_3D ( 'NONE', #873, #224, #1021 ) ;
#871 = VERTEX_POINT ( 'NONE', #797 ) ;
#872 = CIRCLE ( 'NONE', #367, 4.990000000000001101 ) ;
#873 = CARTESIAN_POINT ( 'NONE',  ( 6.123233995736251736E-19, 0.000000000000000000, -4.990000000000000213 ) ) ;
#874 = DIRECTION ( 'NONE',  ( 0.000000000000000000, 0.000000000000000000, 1.000000000000000000 ) ) ;
#875 = EDGE_CURVE ( 'NONE', #319, #421, #292, .T. ) ;
#876 = CARTESIAN_POINT ( 'NONE',  ( 14.00000000000000000, 2.000000000000002665, 7.228416147400479552 ) ) ;
#877 = VERTEX_POINT ( 'NONE', #942 ) ;
#878 = CARTESIAN_POINT ( 'NONE',  ( 0.000000000000000000, 0.000000000000000000, 0.000000000000000000 ) ) ;
#879 = CYLINDRICAL_SURFACE ( 'NONE', #247, 4.990000000000001101 ) ;
#880 = FACE_OUTER_BOUND ( 'NONE', #95, .T. ) ;
#881 = EDGE_LOOP ( 'NONE', ( #340, #826, #125, #560, #42, #997 ) ) ;
#882 = APPROVAL_ROLE ( '' ) ;
#883 = PLANE ( 'NONE',  #417 ) ;
#884 = CARTESIAN_POINT ( 'NONE',  ( 24.00000000000000000, -1.999999999999997335, -7.218039900139097576 ) ) ;
#885 = ORIENTED_EDGE ( 'NONE', *, *, #837, .T. ) ;
#886 = AXIS2_PLACEMENT_3D ( 'NONE', #960, #378, #62 ) ;
#887 =( GEOMETRIC_REPRESENTATION_CONTEXT ( 3 ) GLOBAL_UNCERTAINTY_ASSIGNED_CONTEXT ( ( #525 ) ) GLOBAL_UNIT_ASSIGNED_CONTEXT ( ( #240, #179, #728 ) ) REPRESENTATION_CONTEXT ( 'NONE', 'WORKASPACE' ) );
#888 = ADVANCED_FACE ( 'NONE', ( #1009, #863 ), #463, .F. ) ;
#889 = DIRECTION ( 'NONE',  ( 0.000000000000000000, 0.000000000000000000, 1.000000000000000000 ) ) ;
#890 = DIRECTION ( 'NONE',  ( -1.000000000000000000, -0.000000000000000000, -0.000000000000000000 ) ) ;
#891 = DIRECTION ( 'NONE',  ( 0.000000000000000000, 0.000000000000000000, 1.000000000000000000 ) ) ;
#892 = VERTEX_POINT ( 'NONE', #75 ) ;
#893 = COORDINATED_UNIVERSAL_TIME_OFFSET ( 3, 30, .AHEAD. ) ;
#894 = CC_DESIGN_PERSON_AND_ORGANIZATION_ASSIGNMENT ( #973, #257, ( #1036 ) ) ;
#895 = DIRECTION ( 'NONE',  ( 0.000000000000000000, 0.000000000000000000, 1.000000000000000000 ) ) ;
#896 = CARTESIAN_POINT ( 'NONE',  ( 4.000000000000000000, 0.000000000000000000, 0.000000000000000000 ) ) ;
#897 = ORIENTED_EDGE ( 'NONE', *, *, #804, .F. ) ;
#898 = PERSON_AND_ORGANIZATION ( #796, #903 ) ;
#899 = DIRECTION ( 'NONE',  ( 0.000000000000000000, -0.000000000000000000, -1.000000000000000000 ) ) ;
#900 = DIRECTION ( 'NONE',  ( -1.000000000000000000, -0.000000000000000000, -0.000000000000000000 ) ) ;
#901 = EDGE_LOOP ( 'NONE', ( #758, #531, #856, #116 ) ) ;
#902 = PERSON_AND_ORGANIZATION ( #796, #903 ) ;
#903 = ORGANIZATION ( 'UNSPECIFIED', 'UNSPECIFIED', '' ) ;
#904 = DIRECTION ( 'NONE',  ( 0.000000000000000000, 0.000000000000000000, 1.000000000000000000 ) ) ;
#905 = AXIS2_PLACEMENT_3D ( 'NONE', #263, #657, #975 ) ;
#906 = CARTESIAN_POINT ( 'NONE',  ( 4.000000000000000000, 0.000000000000000000, 4.790000000000001812 ) ) ;
#907 = ADVANCED_FACE ( 'NONE', ( #158 ), #141, .T. ) ;
#908 = EDGE_LOOP ( 'NONE', ( #457, #579 ) ) ;
#909 = DIRECTION ( 'NONE',  ( -0.000000000000000000, 0.000000000000000000, 1.000000000000000000 ) ) ;
#910 = CARTESIAN_POINT ( 'NONE',  ( 14.00000000000000000, 0.000000000000000000, 0.000000000000000000 ) ) ;
#911 = ORIENTED_EDGE ( 'NONE', *, *, #162, .T. ) ;
#912 = CARTESIAN_POINT ( 'NONE',  ( 14.00000000000000000, 2.000000000000003109, -4.571662717217884087 ) ) ;
#913 = DIRECTION ( 'NONE',  ( 0.000000000000000000, 0.000000000000000000, 1.000000000000000000 ) ) ;
#914 = ORIENTED_EDGE ( 'NONE', *, *, #576, .T. ) ;
#915 = EDGE_CURVE ( 'NONE', #208, #639, #351, .T. ) ;
#916 = FACE_BOUND ( 'NONE', #773, .T. ) ;
#917 = CIRCLE ( 'NONE', #278, 4.790000000000006253 ) ;
#918 = DIRECTION ( 'NONE',  ( -1.000000000000000000, -0.000000000000000000, -0.000000000000000000 ) ) ;
#919 = CIRCLE ( 'NONE', #470, 4.990000000000000213 ) ;
#920 = ADVANCED_FACE ( 'NONE', ( #635 ), #56, .F. ) ;
#921 = ORIENTED_EDGE ( 'NONE', *, *, #831, .F. ) ;
#922 = CARTESIAN_POINT ( 'NONE',  ( 14.00000000000000000, 0.000000000000000000, 0.000000000000000000 ) ) ;
#923 = LINE ( 'NONE', #33, #802 ) ;
#924 = EDGE_LOOP ( 'NONE', ( #290, #958, #151, #182, #294, #790 ) ) ;
#925 = FACE_OUTER_BOUND ( 'NONE', #295, .T. ) ;
#926 = CARTESIAN_POINT ( 'NONE',  ( 1.224646799147250347E-18, 0.000000000000000000, 0.000000000000000000 ) ) ;
#927 = ORIENTED_EDGE ( 'NONE', *, *, #169, .T. ) ;
#928 = VERTEX_POINT ( 'NONE', #1026 ) ;
#929 = LINE ( 'NONE', #791, #231 ) ;
#930 = AXIS2_PLACEMENT_3D ( 'NONE', #77, #402, #703 ) ;
#931 = DIRECTION ( 'NONE',  ( 0.000000000000000000, 0.000000000000000000, 1.000000000000000000 ) ) ;
#932 = AXIS2_PLACEMENT_3D ( 'NONE', #361, #448, #368 ) ;
#933 = ORIENTED_EDGE ( 'NONE', *, *, #941, .T. ) ;
#934 = AXIS2_PLACEMENT_3D ( 'NONE', #878, #468, #695 ) ;
#935 = ADVANCED_FACE ( 'NONE', ( #621 ), #954, .F. ) ;
#936 = AXIS2_PLACEMENT_3D ( 'NONE', #498, #424, #646 ) ;
#937 = DIRECTION ( 'NONE',  ( -1.000000000000000000, -0.000000000000000000, -0.000000000000000000 ) ) ;
#938 = CARTESIAN_POINT ( 'NONE',  ( 0.000000000000000000, 0.000000000000000000, 4.990000000000001101 ) ) ;
#939 = DIRECTION ( 'NONE',  ( 0.000000000000000000, 0.000000000000000000, -1.000000000000000000 ) ) ;
#940 = ORIENTED_EDGE ( 'NONE', *, *, #32, .F. ) ;
#941 = EDGE_CURVE ( 'NONE', #789, #945, #929, .T. ) ;
#942 = CARTESIAN_POINT ( 'NONE',  ( 14.00000000000000000, 2.000000000000002665, 7.218039900139096687 ) ) ;
#943 = CARTESIAN_POINT ( 'NONE',  ( 0.000000000000000000, 0.000000000000000000, 0.000000000000000000 ) ) ;
#944 = CARTESIAN_POINT ( 'NONE',  ( 0.000000000000000000, 6.110987527745298447E-16, -4.990000000000004654 ) ) ;
#945 = VERTEX_POINT ( 'NONE', #146 ) ;
#946 = CARTESIAN_POINT ( 'NONE',  ( 54.00000000000000000, 0.000000000000000000, 0.000000000000000000 ) ) ;
#947 = ADVANCED_FACE ( 'NONE', ( #475 ), #235, .T. ) ;
#948 = DIRECTION ( 'NONE',  ( -1.000000000000000000, -0.000000000000000000, -0.000000000000000000 ) ) ;
#949 = DIRECTION ( 'NONE',  ( -1.000000000000000000, -0.000000000000000000, -0.000000000000000000 ) ) ;
#950 = CIRCLE ( 'NONE', #1015, 4.790000000000000924 ) ;
#951 = AXIS2_PLACEMENT_3D ( 'NONE', #382, #546, #537 ) ;
#952 = ORIENTED_EDGE ( 'NONE', *, *, #597, .T. ) ;
#953 = AXIS2_PLACEMENT_3D ( 'NONE', #896, #743, #93 ) ;
#954 = PLANE ( 'NONE',  #870 ) ;
#955 = FACE_OUTER_BOUND ( 'NONE', #794, .T. ) ;
#956 = DIRECTION ( 'NONE',  ( -0.000000000000000000, 0.000000000000000000, 1.000000000000000000 ) ) ;
#957 = PRODUCT_DEFINITION_SHAPE ( 'NONE', 'NONE',  #411 ) ;
#958 = ORIENTED_EDGE ( 'NONE', *, *, #431, .T. ) ;
#959 = PERSON_AND_ORGANIZATION_ROLE ( 'design_owner' ) ;
#960 = CARTESIAN_POINT ( 'NONE',  ( 24.00000000000000000, 0.000000000000000000, 0.000000000000000000 ) ) ;
#961 = CARTESIAN_POINT ( 'NONE',  ( 3.000000000000000000, 6.110987527745293517E-16, -4.990000000000000213 ) ) ;
#962 = ORIENTED_EDGE ( 'NONE', *, *, #274, .T. ) ;
#963 = COORDINATED_UNIVERSAL_TIME_OFFSET ( 3, 30, .AHEAD. ) ;
#964 = DIRECTION ( 'NONE',  ( -0.000000000000000000, 0.000000000000000000, 1.000000000000000000 ) ) ;
#965 = FACE_OUTER_BOUND ( 'NONE', #881, .T. ) ;
#966 = VERTEX_POINT ( 'NONE', #393 ) ;
#967 = EDGE_CURVE ( 'NONE', #379, #134, #649, .T. ) ;
#968 = LOCAL_TIME ( 16, 7, 44.00000000000000000, #893 ) ;
#969 = DIRECTION ( 'NONE',  ( 0.000000000000000000, 0.000000000000000000, 1.000000000000000000 ) ) ;
#970 = DIRECTION ( 'NONE',  ( -1.000000000000000000, -0.000000000000000000, -0.000000000000000000 ) ) ;
#971 = DIRECTION ( 'NONE',  ( -1.000000000000000000, -0.000000000000000000, -0.000000000000000000 ) ) ;
#972 = ORIENTED_EDGE ( 'NONE', *, *, #223, .F. ) ;
#973 = PERSON_AND_ORGANIZATION ( #796, #903 ) ;
#974 = DIRECTION ( 'NONE',  ( 0.000000000000000000, 0.000000000000000000, 1.000000000000000000 ) ) ;
#975 = DIRECTION ( 'NONE',  ( 0.000000000000000000, 0.000000000000000000, -1.000000000000000000 ) ) ;
#976 = VERTEX_POINT ( 'NONE', #228 ) ;
#977 = PERSON_AND_ORGANIZATION_ROLE ( 'classification_officer' ) ;
#978 = PLANE ( 'NONE',  #855 ) ;
#979 = EDGE_CURVE ( 'NONE', #596, #447, #480, .T. ) ;
#980 = DIRECTION ( 'NONE',  ( 0.000000000000000000, 0.000000000000000000, 1.000000000000000000 ) ) ;
#981 = EDGE_LOOP ( 'NONE', ( #286, #952, #885, #778 ) ) ;
#982 = AXIS2_PLACEMENT_3D ( 'NONE', #4, #726, #578 ) ;
#983 = AXIS2_PLACEMENT_3D ( 'NONE', #68, #781, #389 ) ;
#984 = AXIS2_PLACEMENT_3D ( 'NONE', #52, #843, #118 ) ;
#985 = CARTESIAN_POINT ( 'NONE',  ( 0.000000000000000000, 0.000000000000000000, 0.000000000000000000 ) ) ;
#986 = VECTOR ( 'NONE', #222, 1000.000000000000000 ) ;
#987 = CC_DESIGN_PERSON_AND_ORGANIZATION_ASSIGNMENT ( #324, #977, ( #63 ) ) ;
#988 = EDGE_CURVE ( 'NONE', #355, #966, #266, .T. ) ;
#989 = PLANE ( 'NONE',  #715 ) ;
#990 = ORIENTED_EDGE ( 'NONE', *, *, #705, .T. ) ;
#991 = DIRECTION ( 'NONE',  ( -1.000000000000000000, -0.000000000000000000, -0.000000000000000000 ) ) ;
#992 = DIRECTION ( 'NONE',  ( -1.000000000000000000, 0.000000000000000000, -0.000000000000000000 ) ) ;
#993 = ORIENTED_EDGE ( 'NONE', *, *, #532, .F. ) ;
#994 = EDGE_CURVE ( 'NONE', #38, #50, #311, .T. ) ;
#995 = DIRECTION ( 'NONE',  ( -1.000000000000000000, -0.000000000000000000, -0.000000000000000000 ) ) ;
#996 = DIRECTION ( 'NONE',  ( -1.000000000000000000, -0.000000000000000000, -0.000000000000000000 ) ) ;
#997 = ORIENTED_EDGE ( 'NONE', *, *, #170, .F. ) ;
#998 = APPROVAL ( #544, 'UNSPECIFIED' ) ;
#999 = DIRECTION ( 'NONE',  ( -1.000000000000000000, -0.000000000000000000, -0.000000000000000000 ) ) ;
#1000 = AXIS2_PLACEMENT_3D ( 'NONE', #985, #970, #180 ) ;
#1001 = VECTOR ( 'NONE', #937, 1000.000000000000000 ) ;
#1002 = CARTESIAN_POINT ( 'NONE',  ( 0.000000000000000000, 0.000000000000000000, 4.990000000000005542 ) ) ;
#1003 = VECTOR ( 'NONE', #681, 1000.000000000000000 ) ;
#1004 = VERTEX_POINT ( 'NONE', #138 ) ;
#1005 = DIRECTION ( 'NONE',  ( -1.000000000000000000, -0.000000000000000000, -0.000000000000000000 ) ) ;
#1006 = LINE ( 'NONE', #612, #801 ) ;
#1007 = EDGE_LOOP ( 'NONE', ( #1012, #990, #189, #260 ) ) ;
#1008 = ORIENTED_EDGE ( 'NONE', *, *, #426, .T. ) ;
#1009 = FACE_BOUND ( 'NONE', #58, .T. ) ;
#1010 = EDGE_CURVE ( 'NONE', #892, #877, #297, .T. ) ;
#1011 = CARTESIAN_POINT ( 'NONE',  ( 38.50000000000000000, 0.000000000000000000, -4.790000000000006253 ) ) ;
#1012 = ORIENTED_EDGE ( 'NONE', *, *, #3, .F. ) ;
#1013 = ORIENTED_EDGE ( 'NONE', *, *, #32, .T. ) ;
#1014 = DIRECTION ( 'NONE',  ( -1.000000000000000000, -0.000000000000000000, -0.000000000000000000 ) ) ;
#1015 = AXIS2_PLACEMENT_3D ( 'NONE', #645, #584, #904 ) ;
#1016 = CARTESIAN_POINT ( 'NONE',  ( 30.50000000000000000, 6.110987527745298447E-16, -4.990000000000004654 ) ) ;
#1017 = VECTOR ( 'NONE', #999, 1000.000000000000000 ) ;
#1018 = ADVANCED_FACE ( 'NONE', ( #220 ), #541, .T. ) ;
#1019 = CARTESIAN_POINT ( 'NONE',  ( 14.00000000000000000, 0.000000000000000000, 0.000000000000000000 ) ) ;
#1020 = EDGE_LOOP ( 'NONE', ( #450, #1041 ) ) ;
#1021 = DIRECTION ( 'NONE',  ( 0.000000000000000000, 0.000000000000000000, -1.000000000000000000 ) ) ;
#1022 = LINE ( 'NONE', #225, #634 ) ;
#1023 = FACE_OUTER_BOUND ( 'NONE', #55, .T. ) ;
#1024 = EDGE_LOOP ( 'NONE', ( #761, #306, #277, #363 ) ) ;
#1025 = EDGE_CURVE ( 'NONE', #528, #120, #620, .T. ) ;
#1026 = CARTESIAN_POINT ( 'NONE',  ( 14.00000000000000000, -1.999999999999997335, 4.571662717217885863 ) ) ;
#1027 = DIRECTION ( 'NONE',  ( 0.000000000000000000, 0.000000000000000000, 1.000000000000000000 ) ) ;
#1028 = CARTESIAN_POINT ( 'NONE',  ( 0.000000000000000000, 2.000000000000002665, -7.218039900139096687 ) ) ;
#1029 = EDGE_LOOP ( 'NONE', ( #391, #744 ) ) ;
#1030 = DIRECTION ( 'NONE',  ( 0.000000000000000000, 0.000000000000000000, 1.000000000000000000 ) ) ;
#1031 = ADVANCED_BREP_SHAPE_REPRESENTATION ( 'Link2BackShaft_Default_sldprt', ( #76, #184 ), #887 ) ;
#1032 = CARTESIAN_POINT ( 'NONE',  ( 26.00000000000000355, 0.000000000000000000, 7.490000000000002878 ) ) ;
#1033 = CIRCLE ( 'NONE', #98, 7.490000000000001990 ) ;
#1034 = DIRECTION ( 'NONE',  ( 1.000000000000000000, 0.000000000000000000, 0.000000000000000000 ) ) ;
#1035 = AXIS2_PLACEMENT_3D ( 'NONE', #812, #742, #407 ) ;
#1036 = PRODUCT_DEFINITION_FORMATION_WITH_SPECIFIED_SOURCE ( 'ANY', '', #540, .NOT_KNOWN. ) ;
#1037 = VERTEX_POINT ( 'NONE', #185 ) ;
#1038 = AXIS2_PLACEMENT_3D ( 'NONE', #428, #15, #814 ) ;
#1039 = CARTESIAN_POINT ( 'NONE',  ( 14.00000000000000000, 2.000000000000002665, -7.218039900139096687 ) ) ;
#1040 = CARTESIAN_POINT ( 'NONE',  ( 0.000000000000000000, 5.866058167915823418E-16, -4.790000000000000924 ) ) ;
#1041 = ORIENTED_EDGE ( 'NONE', *, *, #51, .F. ) ;
ENDSEC;
END-ISO-10303-21;
