ISO-10303-21;
HEADER;
FILE_DESCRIPTION (( 'STEP AP203' ),
    '1' );
FILE_NAME ('Pulley40mm_Default_sldprt.STEP',
    '2026-07-12T11:27:32',
    ( '' ),
    ( '' ),
    'SwSTEP 2.0',
    'SolidWorks 2025',
    '' );
FILE_SCHEMA (( 'CONFIG_CONTROL_DESIGN' ));
ENDSEC;

DATA;
#1 = AXIS2_PLACEMENT_3D ( 'NONE', #9, #162, #69 ) ;
#2 = EDGE_CURVE ( 'NONE', #330, #51, #170, .T. ) ;
#3 = DIRECTION ( 'NONE',  ( -1.000000000000000000, 0.000000000000000000, 0.000000000000000000 ) ) ;
#4 = DIRECTION ( 'NONE',  ( -1.000000000000000000, 0.000000000000000000, 0.000000000000000000 ) ) ;
#5 = ORIENTED_EDGE ( 'NONE', *, *, #393, .T. ) ;
#6 = CARTESIAN_POINT ( 'NONE',  ( -18.49999999999999645, 0.000000000000000000, -8.602081939942721078 ) ) ;
#7 = DIRECTION ( 'NONE',  ( -0.000000000000000000, -0.000000000000000000, -1.000000000000000000 ) ) ;
#8 = AXIS2_PLACEMENT_3D ( 'NONE', #29, #405, #27 ) ;
#9 = CARTESIAN_POINT ( 'NONE',  ( 0.000000000000000000, 0.000000000000000000, 12.00000000000000000 ) ) ;
#10 = CARTESIAN_POINT ( 'NONE',  ( 0.000000000000000000, 0.000000000000000000, 12.00000000000000000 ) ) ;
#11 = EDGE_LOOP ( 'NONE', ( #324, #5, #228, #253 ) ) ;
#12 = CARTESIAN_POINT ( 'NONE',  ( 0.000000000000000000, 0.000000000000000000, 12.00000000000000000 ) ) ;
#13 = EDGE_LOOP ( 'NONE', ( #251, #231 ) ) ;
#14 = ADVANCED_FACE ( 'NONE', ( #120 ), #407, .T. ) ;
#15 = FACE_BOUND ( 'NONE', #296, .T. ) ;
#16 = EDGE_LOOP ( 'NONE', ( #19, #401, #200, #70 ) ) ;
#17 = ORIENTED_EDGE ( 'NONE', *, *, #177, .T. ) ;
#18 = COORDINATED_UNIVERSAL_TIME_OFFSET ( 3, 30, .AHEAD. ) ;
#19 = ORIENTED_EDGE ( 'NONE', *, *, #30, .F. ) ;
#20 = ORGANIZATION ( 'UNSPECIFIED', 'UNSPECIFIED', '' ) ;
#21 = CALENDAR_DATE ( 2026, 12, 7 ) ;
#22 = PERSON_AND_ORGANIZATION_ROLE ( 'design_supplier' ) ;
#23 = EDGE_CURVE ( 'NONE', #166, #193, #122, .T. ) ;
#24 = DIRECTION ( 'NONE',  ( -1.000000000000000000, 0.000000000000000000, 0.000000000000000000 ) ) ;
#25 = AXIS2_PLACEMENT_3D ( 'NONE', #10, #169, #164 ) ;
#26 = CARTESIAN_POINT ( 'NONE',  ( 0.000000000000000000, 0.000000000000000000, 0.000000000000000000 ) ) ;
#27 = DIRECTION ( 'NONE',  ( -1.000000000000000000, 0.000000000000000000, 0.000000000000000000 ) ) ;
#28 = DIRECTION ( 'NONE',  ( -0.000000000000000000, -0.000000000000000000, -1.000000000000000000 ) ) ;
#29 = CARTESIAN_POINT ( 'NONE',  ( 0.000000000000000000, 0.000000000000000000, 12.00000000000000000 ) ) ;
#30 = EDGE_CURVE ( 'NONE', #397, #106, #404, .T. ) ;
#31 = CARTESIAN_POINT ( 'NONE',  ( 5.000000000000000000, 6.123233995736766282E-16, 12.00000000000000000 ) ) ;
#32 = VECTOR ( 'NONE', #59, 1000.000000000000000 ) ;
#33 = CYLINDRICAL_SURFACE ( 'NONE', #8, 20.00000000000000000 ) ;
#34 = CARTESIAN_POINT ( 'NONE',  ( 0.000000000000000000, 0.000000000000000000, 12.00000000000000000 ) ) ;
#35 = APPLICATION_CONTEXT ( 'configuration controlled 3d designs of mechanical parts and assemblies' ) ;
#36 = ORIENTED_EDGE ( 'NONE', *, *, #75, .T. ) ;
#37 = CARTESIAN_POINT ( 'NONE',  ( -20.00000000000000000, 0.000000000000000000, 3.000000000000000000 ) ) ;
#38 = ADVANCED_FACE ( 'NONE', ( #118, #345 ), #209, .F. ) ;
#39 = AXIS2_PLACEMENT_3D ( 'NONE', #210, #249, #246 ) ;
#40 = ORIENTED_EDGE ( 'NONE', *, *, #285, .F. ) ;
#41 = FACE_OUTER_BOUND ( 'NONE', #117, .T. ) ;
#42 = CC_DESIGN_PERSON_AND_ORGANIZATION_ASSIGNMENT ( #50, #175, ( #386 ) ) ;
#43 = ORIENTED_EDGE ( 'NONE', *, *, #400, .T. ) ;
#44 = PLANE ( 'NONE',  #341 ) ;
#45 = ORIENTED_EDGE ( 'NONE', *, *, #23, .F. ) ;
#46 = VECTOR ( 'NONE', #310, 1000.000000000000000 ) ;
#47 = PERSON_AND_ORGANIZATION ( #208, #20 ) ;
#48 = MANIFOLD_SOLID_BREP ( 'Cut-Revolve1', #287 ) ;
#49 = ORIENTED_EDGE ( 'NONE', *, *, #400, .F. ) ;
#50 = PERSON_AND_ORGANIZATION ( #208, #20 ) ;
#51 = VERTEX_POINT ( 'NONE', #338 ) ;
#52 = APPROVAL_DATE_TIME ( #173, #216 ) ;
#53 = APPROVAL_ROLE ( '' ) ;
#54 = CIRCLE ( 'NONE', #226, 20.00000000000000000 ) ;
#55 = APPLICATION_PROTOCOL_DEFINITION ( 'international standard', 'config_control_design', 1994, #110 ) ;
#56 = CARTESIAN_POINT ( 'NONE',  ( -20.00000000000000000, 0.000000000000000000, 9.000000000000001776 ) ) ;
#57 = DIRECTION ( 'NONE',  ( -0.000000000000000000, -0.000000000000000000, -1.000000000000000000 ) ) ;
#58 = CIRCLE ( 'NONE', #129, 5.000000000000000000 ) ;
#59 = DIRECTION ( 'NONE',  ( -0.000000000000000000, -0.000000000000000000, -1.000000000000000000 ) ) ;
#60 = DIRECTION ( 'NONE',  ( 0.000000000000000000, 0.000000000000000000, 1.000000000000000000 ) ) ;
#61 = DIRECTION ( 'NONE',  ( -1.000000000000000000, 0.000000000000000000, 0.000000000000000000 ) ) ;
#62 = DIRECTION ( 'NONE',  ( 1.000000000000000000, 0.000000000000000000, -0.000000000000000000 ) ) ;
#63 = CIRCLE ( 'NONE', #114, 18.49999999999999645 ) ;
#64 = CYLINDRICAL_SURFACE ( 'NONE', #289, 18.49999999999999645 ) ;
#65 = ORIENTED_EDGE ( 'NONE', *, *, #30, .T. ) ;
#66 = FACE_BOUND ( 'NONE', #141, .T. ) ;
#67 = ORIENTED_EDGE ( 'NONE', *, *, #94, .T. ) ;
#68 = CARTESIAN_POINT ( 'NONE',  ( 0.000000000000000000, 0.000000000000000000, 2.999999999999999112 ) ) ;
#69 = DIRECTION ( 'NONE',  ( -1.000000000000000000, 0.000000000000000000, 0.000000000000000000 ) ) ;
#70 = ORIENTED_EDGE ( 'NONE', *, *, #187, .F. ) ;
#71 = CARTESIAN_POINT ( 'NONE',  ( 20.00000000000000000, 2.449293598294706513E-15, 2.999999999999999112 ) ) ;
#72 = ORIENTED_EDGE ( 'NONE', *, *, #90, .F. ) ;
#73 = SECURITY_CLASSIFICATION ( '', '', #232 ) ;
#74 = VERTEX_POINT ( 'NONE', #56 ) ;
#75 = EDGE_CURVE ( 'NONE', #223, #74, #152, .T. ) ;
#76 = DATE_AND_TIME ( #21, #239 ) ;
#77 = PERSON_AND_ORGANIZATION_ROLE ( 'creator' ) ;
#78 = AXIS2_PLACEMENT_3D ( 'NONE', #214, #116, #217 ) ;
#79 = ADVANCED_FACE ( 'NONE', ( #184 ), #311, .T. ) ;
#80 = CARTESIAN_POINT ( 'NONE',  ( 0.000000000000000000, 0.000000000000000000, -8.602081939942721078 ) ) ;
#81 = FACE_OUTER_BOUND ( 'NONE', #278, .T. ) ;
#82 = ORIENTED_EDGE ( 'NONE', *, *, #396, .F. ) ;
#83 = CARTESIAN_POINT ( 'NONE',  ( 0.000000000000000000, 0.000000000000000000, 0.000000000000000000 ) ) ;
#84 = AXIS2_PLACEMENT_3D ( 'NONE', #26, #213, #342 ) ;
#85 = DIRECTION ( 'NONE',  ( 1.000000000000000000, 0.000000000000000000, 0.000000000000000000 ) ) ;
#86 = DIRECTION ( 'NONE',  ( -0.000000000000000000, -0.000000000000000000, -1.000000000000000000 ) ) ;
#87 = FACE_OUTER_BOUND ( 'NONE', #333, .T. ) ;
#88 = EDGE_LOOP ( 'NONE', ( #368, #382 ) ) ;
#89 = CARTESIAN_POINT ( 'NONE',  ( -18.49999999999999645, 0.000000000000000000, 2.999999999999999112 ) ) ;
#90 = EDGE_CURVE ( 'NONE', #406, #301, #179, .T. ) ;
#91 = CIRCLE ( 'NONE', #328, 20.00000000000000000 ) ;
#92 = ADVANCED_FACE ( 'NONE', ( #81 ), #215, .F. ) ;
#93 = DIRECTION ( 'NONE',  ( -1.000000000000000000, 0.000000000000000000, 0.000000000000000000 ) ) ;
#94 = EDGE_CURVE ( 'NONE', #134, #223, #54, .T. ) ;
#95 = ORIENTED_EDGE ( 'NONE', *, *, #2, .T. ) ;
#96 = CARTESIAN_POINT ( 'NONE',  ( 0.000000000000000000, 0.000000000000000000, 2.999999999999999112 ) ) ;
#97 = DIRECTION ( 'NONE',  ( -1.000000000000000000, 0.000000000000000000, 0.000000000000000000 ) ) ;
#98 = ORIENTED_EDGE ( 'NONE', *, *, #241, .F. ) ;
#99 = CARTESIAN_POINT ( 'NONE',  ( -5.000000000000000000, 0.000000000000000000, 0.000000000000000000 ) ) ;
#100 = ORIENTED_EDGE ( 'NONE', *, *, #244, .T. ) ;
#101 = FACE_OUTER_BOUND ( 'NONE', #168, .T. ) ;
#102 = EDGE_LOOP ( 'NONE', ( #43, #65, #40, #358 ) ) ;
#103 = ADVANCED_BREP_SHAPE_REPRESENTATION ( 'Pulley40mm_Default_sldprt', ( #48, #262 ), #131 ) ;
#104 = PERSON_AND_ORGANIZATION ( #208, #20 ) ;
#105 = AXIS2_PLACEMENT_3D ( 'NONE', #83, #60, #133 ) ;
#106 = VERTEX_POINT ( 'NONE', #186 ) ;
#107 = DATE_AND_TIME ( #402, #248 ) ;
#108 = ORIENTED_EDGE ( 'NONE', *, *, #241, .T. ) ;
#109 = ADVANCED_FACE ( 'NONE', ( #188 ), #33, .T. ) ;
#110 = APPLICATION_CONTEXT ( 'configuration controlled 3d designs of mechanical parts and assemblies' ) ;
#111 = PERSON_AND_ORGANIZATION_ROLE ( 'creator' ) ;
#112 = EDGE_CURVE ( 'NONE', #74, #202, #315, .T. ) ;
#113 = PERSON_AND_ORGANIZATION ( #208, #20 ) ;
#114 = AXIS2_PLACEMENT_3D ( 'NONE', #119, #185, #344 ) ;
#115 = AXIS2_PLACEMENT_3D ( 'NONE', #34, #387, #257 ) ;
#116 = DIRECTION ( 'NONE',  ( 0.000000000000000000, 0.000000000000000000, 1.000000000000000000 ) ) ;
#117 = EDGE_LOOP ( 'NONE', ( #267, #389, #298, #236 ) ) ;
#118 = FACE_OUTER_BOUND ( 'NONE', #88, .T. ) ;
#119 = CARTESIAN_POINT ( 'NONE',  ( 0.000000000000000000, 0.000000000000000000, 2.999999999999999112 ) ) ;
#120 = FACE_OUTER_BOUND ( 'NONE', #102, .T. ) ;
#121 = CARTESIAN_POINT ( 'NONE',  ( 20.00000000000000000, 2.449293598294706513E-15, 12.00000000000000000 ) ) ;
#122 = CIRCLE ( 'NONE', #158, 5.000000000000000000 ) ;
#123 = AXIS2_PLACEMENT_3D ( 'NONE', #192, #128, #385 ) ;
#124 = CARTESIAN_POINT ( 'NONE',  ( 0.000000000000000000, 0.000000000000000000, 2.999999999999999112 ) ) ;
#125 = DIRECTION ( 'NONE',  ( -0.000000000000000000, -0.000000000000000000, -1.000000000000000000 ) ) ;
#126 = CC_DESIGN_PERSON_AND_ORGANIZATION_ASSIGNMENT ( #363, #334, ( #73 ) ) ;
#127 = ORIENTED_EDGE ( 'NONE', *, *, #255, .F. ) ;
#128 = DIRECTION ( 'NONE',  ( -0.000000000000000000, -0.000000000000000000, -1.000000000000000000 ) ) ;
#129 = AXIS2_PLACEMENT_3D ( 'NONE', #178, #304, #243 ) ;
#130 = CIRCLE ( 'NONE', #329, 20.00000000000000000 ) ;
#131 =( GEOMETRIC_REPRESENTATION_CONTEXT ( 3 ) GLOBAL_UNCERTAINTY_ASSIGNED_CONTEXT ( ( #205 ) ) GLOBAL_UNIT_ASSIGNED_CONTEXT ( ( #290, #332, #367 ) ) REPRESENTATION_CONTEXT ( 'NONE', 'WORKASPACE' ) );
#132 = CYLINDRICAL_SURFACE ( 'NONE', #227, 5.000000000000000000 ) ;
#133 = DIRECTION ( 'NONE',  ( 1.000000000000000000, 0.000000000000000000, 0.000000000000000000 ) ) ;
#134 = VERTEX_POINT ( 'NONE', #121 ) ;
#135 = DIRECTION ( 'NONE',  ( -1.000000000000000000, 0.000000000000000000, 0.000000000000000000 ) ) ;
#136 = AXIS2_PLACEMENT_3D ( 'NONE', #379, #161, #4 ) ;
#137 = CC_DESIGN_SECURITY_CLASSIFICATION ( #73, ( #316 ) ) ;
#138 = ORIENTED_EDGE ( 'NONE', *, *, #255, .T. ) ;
#139 = CARTESIAN_POINT ( 'NONE',  ( 0.000000000000000000, 0.000000000000000000, 9.000000000000001776 ) ) ;
#140 = ORIENTED_EDGE ( 'NONE', *, *, #378, .T. ) ;
#141 = EDGE_LOOP ( 'NONE', ( #171, #151 ) ) ;
#142 = VECTOR ( 'NONE', #28, 1000.000000000000000 ) ;
#143 = DIRECTION ( 'NONE',  ( 1.000000000000000000, 0.000000000000000000, 0.000000000000000000 ) ) ;
#144 = APPROVAL_PERSON_ORGANIZATION ( #181, #381, #53 ) ;
#145 = DESIGN_CONTEXT ( 'detailed design', #35, 'design' ) ;
#146 = MECHANICAL_CONTEXT ( 'NONE', #110, 'mechanical' ) ;
#147 = COORDINATED_UNIVERSAL_TIME_OFFSET ( 3, 30, .AHEAD. ) ;
#148 = CIRCLE ( 'NONE', #105, 20.00000000000000000 ) ;
#149 = PLANE ( 'NONE',  #364 ) ;
#150 = APPROVAL_PERSON_ORGANIZATION ( #113, #362, #369 ) ;
#151 = ORIENTED_EDGE ( 'NONE', *, *, #187, .T. ) ;
#152 = LINE ( 'NONE', #245, #142 ) ;
#153 = DIRECTION ( 'NONE',  ( -0.000000000000000000, -0.000000000000000000, -1.000000000000000000 ) ) ;
#154 = CC_DESIGN_PERSON_AND_ORGANIZATION_ASSIGNMENT ( #104, #77, ( #316 ) ) ;
#155 = DIRECTION ( 'NONE',  ( 0.000000000000000000, 0.000000000000000000, 1.000000000000000000 ) ) ;
#156 = DIRECTION ( 'NONE',  ( -0.000000000000000000, -0.000000000000000000, -1.000000000000000000 ) ) ;
#157 = LINE ( 'NONE', #183, #46 ) ;
#158 = AXIS2_PLACEMENT_3D ( 'NONE', #308, #276, #85 ) ;
#159 = LOCAL_TIME ( 14, 57, 32.00000000000000000, #147 ) ;
#160 = EDGE_CURVE ( 'NONE', #166, #301, #339, .T. ) ;
#161 = DIRECTION ( 'NONE',  ( -0.000000000000000000, -0.000000000000000000, -1.000000000000000000 ) ) ;
#162 = DIRECTION ( 'NONE',  ( -0.000000000000000000, -0.000000000000000000, -1.000000000000000000 ) ) ;
#163 = EDGE_LOOP ( 'NONE', ( #100, #196 ) ) ;
#164 = DIRECTION ( 'NONE',  ( -1.000000000000000000, 0.000000000000000000, 0.000000000000000000 ) ) ;
#165 = CIRCLE ( 'NONE', #275, 18.49999999999999645 ) ;
#166 = VERTEX_POINT ( 'NONE', #312 ) ;
#167 = FACE_OUTER_BOUND ( 'NONE', #11, .T. ) ;
#168 = EDGE_LOOP ( 'NONE', ( #234, #323, #95, #355 ) ) ;
#169 = DIRECTION ( 'NONE',  ( -0.000000000000000000, -0.000000000000000000, -1.000000000000000000 ) ) ;
#170 = CIRCLE ( 'NONE', #303, 20.00000000000000000 ) ;
#171 = ORIENTED_EDGE ( 'NONE', *, *, #285, .T. ) ;
#172 = EDGE_CURVE ( 'NONE', #193, #406, #313, .T. ) ;
#173 = DATE_AND_TIME ( #403, #199 ) ;
#174 = CC_DESIGN_DATE_AND_TIME_ASSIGNMENT ( #203, #327, ( #73 ) ) ;
#175 = PERSON_AND_ORGANIZATION_ROLE ( 'design_owner' ) ;
#176 = DIRECTION ( 'NONE',  ( 0.000000000000000000, 0.000000000000000000, 1.000000000000000000 ) ) ;
#177 = EDGE_CURVE ( 'NONE', #220, #51, #157, .T. ) ;
#178 = CARTESIAN_POINT ( 'NONE',  ( 0.000000000000000000, 0.000000000000000000, 0.000000000000000000 ) ) ;
#179 = CIRCLE ( 'NONE', #78, 5.000000000000000000 ) ;
#180 = CALENDAR_DATE ( 2026, 12, 7 ) ;
#181 = PERSON_AND_ORGANIZATION ( #208, #20 ) ;
#182 = CC_DESIGN_APPROVAL ( #362, ( #291 ) ) ;
#183 = CARTESIAN_POINT ( 'NONE',  ( -20.00000000000000000, 0.000000000000000000, 12.00000000000000000 ) ) ;
#184 = FACE_OUTER_BOUND ( 'NONE', #349, .T. ) ;
#185 = DIRECTION ( 'NONE',  ( -0.000000000000000000, -0.000000000000000000, -1.000000000000000000 ) ) ;
#186 = CARTESIAN_POINT ( 'NONE',  ( 18.49999999999999645, 2.265596578422603002E-15, 2.999999999999999112 ) ) ;
#187 = EDGE_CURVE ( 'NONE', #106, #211, #63, .T. ) ;
#188 = FACE_OUTER_BOUND ( 'NONE', #293, .T. ) ;
#189 = VECTOR ( 'NONE', #57, 1000.000000000000000 ) ;
#190 = DIRECTION ( 'NONE',  ( -0.000000000000000000, -0.000000000000000000, -1.000000000000000000 ) ) ;
#191 = CARTESIAN_POINT ( 'NONE',  ( 20.00000000000000000, 2.449293598294706513E-15, 12.00000000000000000 ) ) ;
#192 = CARTESIAN_POINT ( 'NONE',  ( 0.000000000000000000, 0.000000000000000000, 9.000000000000001776 ) ) ;
#193 = VERTEX_POINT ( 'NONE', #283 ) ;
#194 = CARTESIAN_POINT ( 'NONE',  ( 0.000000000000000000, 0.000000000000000000, 9.000000000000001776 ) ) ;
#195 = LINE ( 'NONE', #191, #365 ) ;
#196 = ORIENTED_EDGE ( 'NONE', *, *, #90, .T. ) ;
#197 = DIRECTION ( 'NONE',  ( 1.000000000000000000, 0.000000000000000000, 0.000000000000000000 ) ) ;
#198 = AXIS2_PLACEMENT_3D ( 'NONE', #68, #325, #322 ) ;
#199 = LOCAL_TIME ( 14, 57, 32.00000000000000000, #18 ) ;
#200 = ORIENTED_EDGE ( 'NONE', *, *, #240, .T. ) ;
#201 = DIRECTION ( 'NONE',  ( 0.000000000000000000, 0.000000000000000000, 1.000000000000000000 ) ) ;
#202 = VERTEX_POINT ( 'NONE', #346 ) ;
#203 = DATE_AND_TIME ( #272, #159 ) ;
#204 = EDGE_CURVE ( 'NONE', #394, #220, #321, .T. ) ;
#205 = UNCERTAINTY_MEASURE_WITH_UNIT (LENGTH_MEASURE( 1.000000000000000082E-05 ), #290, 'distance_accuracy_value', 'NONE');
#206 = DATE_TIME_ROLE ( 'creation_date' ) ;
#207 = PERSON_AND_ORGANIZATION ( #208, #20 ) ;
#208 = PERSON ( 'UNSPECIFIED', 'UNSPECIFIED', 'UNSPECIFIED', ('UNSPECIFIED'), ('UNSPECIFIED'), ('UNSPECIFIED') ) ;
#209 = PLANE ( 'NONE',  #84 ) ;
#210 = CARTESIAN_POINT ( 'NONE',  ( 0.000000000000000000, 0.000000000000000000, 12.00000000000000000 ) ) ;
#211 = VERTEX_POINT ( 'NONE', #89 ) ;
#212 = CIRCLE ( 'NONE', #274, 5.000000000000000000 ) ;
#213 = DIRECTION ( 'NONE',  ( 0.000000000000000000, 0.000000000000000000, 1.000000000000000000 ) ) ;
#214 = CARTESIAN_POINT ( 'NONE',  ( 0.000000000000000000, 0.000000000000000000, 0.000000000000000000 ) ) ;
#215 = CYLINDRICAL_SURFACE ( 'NONE', #39, 5.000000000000000000 ) ;
#216 = APPROVAL ( #268, 'UNSPECIFIED' ) ;
#217 = DIRECTION ( 'NONE',  ( 1.000000000000000000, 0.000000000000000000, 0.000000000000000000 ) ) ;
#218 = DIRECTION ( 'NONE',  ( 0.000000000000000000, 0.000000000000000000, 1.000000000000000000 ) ) ;
#219 = AXIS2_PLACEMENT_3D ( 'NONE', #124, #153, #24 ) ;
#220 = VERTEX_POINT ( 'NONE', #250 ) ;
#221 = DIRECTION ( 'NONE',  ( -0.000000000000000000, 0.000000000000000000, -1.000000000000000000 ) ) ;
#222 = ADVANCED_FACE ( 'NONE', ( #380, #87 ), #149, .F. ) ;
#223 = VERTEX_POINT ( 'NONE', #317 ) ;
#224 = DIRECTION ( 'NONE',  ( -0.000000000000000000, -0.000000000000000000, -1.000000000000000000 ) ) ;
#225 = LINE ( 'NONE', #392, #377 ) ;
#226 = AXIS2_PLACEMENT_3D ( 'NONE', #252, #409, #408 ) ;
#227 = AXIS2_PLACEMENT_3D ( 'NONE', #12, #190, #229 ) ;
#228 = ORIENTED_EDGE ( 'NONE', *, *, #112, .F. ) ;
#229 = DIRECTION ( 'NONE',  ( -1.000000000000000000, 0.000000000000000000, 0.000000000000000000 ) ) ;
#230 = CYLINDRICAL_SURFACE ( 'NONE', #25, 20.00000000000000000 ) ;
#231 = ORIENTED_EDGE ( 'NONE', *, *, #204, .F. ) ;
#232 = SECURITY_CLASSIFICATION_LEVEL ( 'unclassified' ) ;
#233 = VECTOR ( 'NONE', #125, 1000.000000000000000 ) ;
#234 = ORIENTED_EDGE ( 'NONE', *, *, #314, .T. ) ;
#235 = APPROVAL_ROLE ( '' ) ;
#236 = ORIENTED_EDGE ( 'NONE', *, *, #160, .F. ) ;
#237 = APPROVAL_DATE_TIME ( #371, #381 ) ;
#238 = AXIS2_PLACEMENT_3D ( 'NONE', #80, #156, #3 ) ;
#239 = LOCAL_TIME ( 14, 57, 32.00000000000000000, #266 ) ;
#240 = EDGE_CURVE ( 'NONE', #326, #211, #281, .T. ) ;
#241 = EDGE_CURVE ( 'NONE', #193, #166, #212, .T. ) ;
#242 = CARTESIAN_POINT ( 'NONE',  ( 18.49999999999999645, 2.265596578422603002E-15, -8.602081939942721078 ) ) ;
#243 = DIRECTION ( 'NONE',  ( 1.000000000000000000, 0.000000000000000000, 0.000000000000000000 ) ) ;
#244 = EDGE_CURVE ( 'NONE', #301, #406, #58, .T. ) ;
#245 = CARTESIAN_POINT ( 'NONE',  ( -20.00000000000000000, 0.000000000000000000, 12.00000000000000000 ) ) ;
#246 = DIRECTION ( 'NONE',  ( -1.000000000000000000, 0.000000000000000000, 0.000000000000000000 ) ) ;
#247 = PRODUCT_RELATED_PRODUCT_CATEGORY ( 'detail', '', ( #386 ) ) ;
#248 = LOCAL_TIME ( 14, 57, 32.00000000000000000, #307 ) ;
#249 = DIRECTION ( 'NONE',  ( -0.000000000000000000, -0.000000000000000000, -1.000000000000000000 ) ) ;
#250 = CARTESIAN_POINT ( 'NONE',  ( -20.00000000000000000, 0.000000000000000000, 2.999999999999999112 ) ) ;
#251 = ORIENTED_EDGE ( 'NONE', *, *, #314, .F. ) ;
#252 = CARTESIAN_POINT ( 'NONE',  ( 0.000000000000000000, 0.000000000000000000, 12.00000000000000000 ) ) ;
#253 = ORIENTED_EDGE ( 'NONE', *, *, #75, .F. ) ;
#254 = CARTESIAN_POINT ( 'NONE',  ( 20.00000000000000000, 2.449293598294706513E-15, 0.000000000000000000 ) ) ;
#255 = EDGE_CURVE ( 'NONE', #223, #134, #91, .T. ) ;
#256 = ORIENTED_EDGE ( 'NONE', *, *, #172, .F. ) ;
#257 = DIRECTION ( 'NONE',  ( 1.000000000000000000, 0.000000000000000000, -0.000000000000000000 ) ) ;
#258 = DIRECTION ( 'NONE',  ( -0.000000000000000000, -0.000000000000000000, -1.000000000000000000 ) ) ;
#259 = ORIENTED_EDGE ( 'NONE', *, *, #204, .T. ) ;
#260 = EDGE_CURVE ( 'NONE', #51, #330, #148, .T. ) ;
#261 = FACE_OUTER_BOUND ( 'NONE', #265, .T. ) ;
#262 = AXIS2_PLACEMENT_3D ( 'NONE', #271, #201, #197 ) ;
#263 = ORIENTED_EDGE ( 'NONE', *, *, #370, .F. ) ;
#264 = DIRECTION ( 'NONE',  ( -1.000000000000000000, 0.000000000000000000, 0.000000000000000000 ) ) ;
#265 = EDGE_LOOP ( 'NONE', ( #138, #67 ) ) ;
#266 = COORDINATED_UNIVERSAL_TIME_OFFSET ( 3, 30, .AHEAD. ) ;
#267 = ORIENTED_EDGE ( 'NONE', *, *, #23, .T. ) ;
#268 = APPROVAL_STATUS ( 'not_yet_approved' ) ;
#269 = AXIS2_PLACEMENT_3D ( 'NONE', #96, #7, #93 ) ;
#270 = ORIENTED_EDGE ( 'NONE', *, *, #260, .T. ) ;
#271 = CARTESIAN_POINT ( 'NONE',  ( 0.000000000000000000, 0.000000000000000000, 0.000000000000000000 ) ) ;
#272 = CALENDAR_DATE ( 2026, 12, 7 ) ;
#273 = CC_DESIGN_PERSON_AND_ORGANIZATION_ASSIGNMENT ( #47, #111, ( #291 ) ) ;
#274 = AXIS2_PLACEMENT_3D ( 'NONE', #383, #218, #351 ) ;
#275 = AXIS2_PLACEMENT_3D ( 'NONE', #194, #258, #135 ) ;
#276 = DIRECTION ( 'NONE',  ( 0.000000000000000000, 0.000000000000000000, 1.000000000000000000 ) ) ;
#277 = DIRECTION ( 'NONE',  ( -0.000000000000000000, -0.000000000000000000, -1.000000000000000000 ) ) ;
#278 = EDGE_LOOP ( 'NONE', ( #256, #108, #391, #72 ) ) ;
#279 = CARTESIAN_POINT ( 'NONE',  ( 0.000000000000000000, 0.000000000000000000, 12.00000000000000000 ) ) ;
#280 = CARTESIAN_POINT ( 'NONE',  ( 0.000000000000000000, 0.000000000000000000, 12.00000000000000000 ) ) ;
#281 = LINE ( 'NONE', #6, #233 ) ;
#282 = CARTESIAN_POINT ( 'NONE',  ( -5.000000000000000000, 0.000000000000000000, 12.00000000000000000 ) ) ;
#283 = CARTESIAN_POINT ( 'NONE',  ( 5.000000000000000000, 6.123233995736766282E-16, 12.00000000000000000 ) ) ;
#284 = CARTESIAN_POINT ( 'NONE',  ( 18.49999999999999645, 2.265596578422603002E-15, 9.000000000000001776 ) ) ;
#285 = EDGE_CURVE ( 'NONE', #211, #106, #309, .T. ) ;
#286 = EDGE_LOOP ( 'NONE', ( #49, #263 ) ) ;
#287 = CLOSED_SHELL ( 'NONE', ( #14, #343, #331, #305, #79, #375, #38, #109, #92, #222, #318, #300 ) ) ;
#288 = FACE_OUTER_BOUND ( 'NONE', #13, .T. ) ;
#289 = AXIS2_PLACEMENT_3D ( 'NONE', #352, #224, #97 ) ;
#290 =( LENGTH_UNIT ( ) NAMED_UNIT ( * ) SI_UNIT ( .MILLI., .METRE. ) );
#291 = PRODUCT_DEFINITION ( 'UNKNOWN', '', #316, #145 ) ;
#292 = DIRECTION ( 'NONE',  ( -1.000000000000000000, 0.000000000000000000, 0.000000000000000000 ) ) ;
#293 = EDGE_LOOP ( 'NONE', ( #82, #259, #17, #270 ) ) ;
#294 = CYLINDRICAL_SURFACE ( 'NONE', #1, 20.00000000000000000 ) ;
#295 = CC_DESIGN_APPROVAL ( #381, ( #316 ) ) ;
#296 = EDGE_LOOP ( 'NONE', ( #45, #98 ) ) ;
#297 = SHAPE_DEFINITION_REPRESENTATION ( #354, #103 ) ;
#298 = ORIENTED_EDGE ( 'NONE', *, *, #244, .F. ) ;
#299 = APPROVAL_DATE_TIME ( #107, #362 ) ;
#300 = ADVANCED_FACE ( 'NONE', ( #288, #66 ), #44, .F. ) ;
#301 = VERTEX_POINT ( 'NONE', #99 ) ;
#302 = APPLICATION_PROTOCOL_DEFINITION ( 'international standard', 'config_control_design', 1994, #35 ) ;
#303 = AXIS2_PLACEMENT_3D ( 'NONE', #366, #176, #143 ) ;
#304 = DIRECTION ( 'NONE',  ( 0.000000000000000000, 0.000000000000000000, 1.000000000000000000 ) ) ;
#305 = ADVANCED_FACE ( 'NONE', ( #167 ), #230, .T. ) ;
#306 = CC_DESIGN_APPROVAL ( #216, ( #73 ) ) ;
#307 = COORDINATED_UNIVERSAL_TIME_OFFSET ( 3, 30, .AHEAD. ) ;
#308 = CARTESIAN_POINT ( 'NONE',  ( 0.000000000000000000, 0.000000000000000000, 12.00000000000000000 ) ) ;
#309 = CIRCLE ( 'NONE', #198, 18.49999999999999645 ) ;
#310 = DIRECTION ( 'NONE',  ( -0.000000000000000000, -0.000000000000000000, -1.000000000000000000 ) ) ;
#311 = CYLINDRICAL_SURFACE ( 'NONE', #356, 20.00000000000000000 ) ;
#312 = CARTESIAN_POINT ( 'NONE',  ( -5.000000000000000000, 0.000000000000000000, 12.00000000000000000 ) ) ;
#313 = LINE ( 'NONE', #31, #189 ) ;
#314 = EDGE_CURVE ( 'NONE', #220, #394, #399, .T. ) ;
#315 = CIRCLE ( 'NONE', #136, 20.00000000000000000 ) ;
#316 = PRODUCT_DEFINITION_FORMATION_WITH_SPECIFIED_SOURCE ( 'ANY', '', #386, .NOT_KNOWN. ) ;
#317 = CARTESIAN_POINT ( 'NONE',  ( -20.00000000000000000, 0.000000000000000000, 12.00000000000000000 ) ) ;
#318 = ADVANCED_FACE ( 'NONE', ( #357 ), #64, .T. ) ;
#319 = PLANE ( 'NONE',  #115 ) ;
#320 = CARTESIAN_POINT ( 'NONE',  ( 5.000000000000000000, 6.123233995736766282E-16, 0.000000000000000000 ) ) ;
#321 = CIRCLE ( 'NONE', #219, 20.00000000000000000 ) ;
#322 = DIRECTION ( 'NONE',  ( -1.000000000000000000, 0.000000000000000000, 0.000000000000000000 ) ) ;
#323 = ORIENTED_EDGE ( 'NONE', *, *, #396, .T. ) ;
#324 = ORIENTED_EDGE ( 'NONE', *, *, #94, .F. ) ;
#325 = DIRECTION ( 'NONE',  ( -0.000000000000000000, -0.000000000000000000, -1.000000000000000000 ) ) ;
#326 = VERTEX_POINT ( 'NONE', #390 ) ;
#327 = DATE_TIME_ROLE ( 'classification_date' ) ;
#328 = AXIS2_PLACEMENT_3D ( 'NONE', #279, #373, #376 ) ;
#329 = AXIS2_PLACEMENT_3D ( 'NONE', #139, #388, #264 ) ;
#330 = VERTEX_POINT ( 'NONE', #254 ) ;
#331 = ADVANCED_FACE ( 'NONE', ( #101 ), #294, .T. ) ;
#332 =( NAMED_UNIT ( * ) PLANE_ANGLE_UNIT ( ) SI_UNIT ( $, .RADIAN. ) );
#333 = EDGE_LOOP ( 'NONE', ( #360, #140 ) ) ;
#334 = PERSON_AND_ORGANIZATION_ROLE ( 'classification_officer' ) ;
#335 = APPROVAL_STATUS ( 'not_yet_approved' ) ;
#336 = CC_DESIGN_DATE_AND_TIME_ASSIGNMENT ( #76, #206, ( #291 ) ) ;
#337 = CIRCLE ( 'NONE', #123, 18.49999999999999645 ) ;
#338 = CARTESIAN_POINT ( 'NONE',  ( -20.00000000000000000, 0.000000000000000000, 0.000000000000000000 ) ) ;
#339 = LINE ( 'NONE', #282, #372 ) ;
#340 = ORIENTED_EDGE ( 'NONE', *, *, #378, .F. ) ;
#341 = AXIS2_PLACEMENT_3D ( 'NONE', #37, #221, #292 ) ;
#342 = DIRECTION ( 'NONE',  ( 1.000000000000000000, 0.000000000000000000, -0.000000000000000000 ) ) ;
#343 = ADVANCED_FACE ( 'NONE', ( #41 ), #132, .F. ) ;
#344 = DIRECTION ( 'NONE',  ( -1.000000000000000000, 0.000000000000000000, 0.000000000000000000 ) ) ;
#345 = FACE_BOUND ( 'NONE', #163, .T. ) ;
#346 = CARTESIAN_POINT ( 'NONE',  ( 20.00000000000000000, 2.449293598294706513E-15, 9.000000000000001776 ) ) ;
#347 = CARTESIAN_POINT ( 'NONE',  ( -20.00000000000000000, 0.000000000000000000, 9.000000000000001776 ) ) ;
#348 = CC_DESIGN_PERSON_AND_ORGANIZATION_ASSIGNMENT ( #207, #22, ( #316 ) ) ;
#349 = EDGE_LOOP ( 'NONE', ( #374, #127, #36, #340 ) ) ;
#350 = LOCAL_TIME ( 14, 57, 32.00000000000000000, #395 ) ;
#351 = DIRECTION ( 'NONE',  ( 1.000000000000000000, 0.000000000000000000, 0.000000000000000000 ) ) ;
#352 = CARTESIAN_POINT ( 'NONE',  ( 0.000000000000000000, 0.000000000000000000, -8.602081939942721078 ) ) ;
#353 = DIRECTION ( 'NONE',  ( -0.000000000000000000, -0.000000000000000000, -1.000000000000000000 ) ) ;
#354 = PRODUCT_DEFINITION_SHAPE ( 'NONE', 'NONE',  #291 ) ;
#355 = ORIENTED_EDGE ( 'NONE', *, *, #177, .F. ) ;
#356 = AXIS2_PLACEMENT_3D ( 'NONE', #280, #277, #61 ) ;
#357 = FACE_OUTER_BOUND ( 'NONE', #16, .T. ) ;
#358 = ORIENTED_EDGE ( 'NONE', *, *, #240, .F. ) ;
#359 = DIRECTION ( 'NONE',  ( -0.000000000000000000, -0.000000000000000000, -1.000000000000000000 ) ) ;
#360 = ORIENTED_EDGE ( 'NONE', *, *, #112, .T. ) ;
#361 = PERSON_AND_ORGANIZATION ( #208, #20 ) ;
#362 = APPROVAL ( #398, 'UNSPECIFIED' ) ;
#363 = PERSON_AND_ORGANIZATION ( #208, #20 ) ;
#364 = AXIS2_PLACEMENT_3D ( 'NONE', #347, #155, #62 ) ;
#365 = VECTOR ( 'NONE', #353, 1000.000000000000000 ) ;
#366 = CARTESIAN_POINT ( 'NONE',  ( 0.000000000000000000, 0.000000000000000000, 0.000000000000000000 ) ) ;
#367 =( NAMED_UNIT ( * ) SI_UNIT ( $, .STERADIAN. ) SOLID_ANGLE_UNIT ( ) );
#368 = ORIENTED_EDGE ( 'NONE', *, *, #260, .F. ) ;
#369 = APPROVAL_ROLE ( '' ) ;
#370 = EDGE_CURVE ( 'NONE', #397, #326, #165, .T. ) ;
#371 = DATE_AND_TIME ( #180, #350 ) ;
#372 = VECTOR ( 'NONE', #86, 1000.000000000000000 ) ;
#373 = DIRECTION ( 'NONE',  ( 0.000000000000000000, 0.000000000000000000, 1.000000000000000000 ) ) ;
#374 = ORIENTED_EDGE ( 'NONE', *, *, #393, .F. ) ;
#375 = ADVANCED_FACE ( 'NONE', ( #261, #15 ), #319, .T. ) ;
#376 = DIRECTION ( 'NONE',  ( 1.000000000000000000, 0.000000000000000000, 0.000000000000000000 ) ) ;
#377 = VECTOR ( 'NONE', #359, 1000.000000000000000 ) ;
#378 = EDGE_CURVE ( 'NONE', #202, #74, #130, .T. ) ;
#379 = CARTESIAN_POINT ( 'NONE',  ( 0.000000000000000000, 0.000000000000000000, 9.000000000000001776 ) ) ;
#380 = FACE_BOUND ( 'NONE', #286, .T. ) ;
#381 = APPROVAL ( #335, 'UNSPECIFIED' ) ;
#382 = ORIENTED_EDGE ( 'NONE', *, *, #2, .F. ) ;
#383 = CARTESIAN_POINT ( 'NONE',  ( 0.000000000000000000, 0.000000000000000000, 12.00000000000000000 ) ) ;
#384 = APPROVAL_PERSON_ORGANIZATION ( #361, #216, #235 ) ;
#385 = DIRECTION ( 'NONE',  ( -1.000000000000000000, 0.000000000000000000, 0.000000000000000000 ) ) ;
#386 = PRODUCT ( 'Pulley40mm_Default_sldprt', 'Pulley40mm_Default_sldprt', '', ( #146 ) ) ;
#387 = DIRECTION ( 'NONE',  ( 0.000000000000000000, 0.000000000000000000, 1.000000000000000000 ) ) ;
#388 = DIRECTION ( 'NONE',  ( -0.000000000000000000, -0.000000000000000000, -1.000000000000000000 ) ) ;
#389 = ORIENTED_EDGE ( 'NONE', *, *, #172, .T. ) ;
#390 = CARTESIAN_POINT ( 'NONE',  ( -18.49999999999999645, 0.000000000000000000, 9.000000000000001776 ) ) ;
#391 = ORIENTED_EDGE ( 'NONE', *, *, #160, .T. ) ;
#392 = CARTESIAN_POINT ( 'NONE',  ( 20.00000000000000000, 2.449293598294706513E-15, 12.00000000000000000 ) ) ;
#393 = EDGE_CURVE ( 'NONE', #134, #202, #225, .T. ) ;
#394 = VERTEX_POINT ( 'NONE', #71 ) ;
#395 = COORDINATED_UNIVERSAL_TIME_OFFSET ( 3, 30, .AHEAD. ) ;
#396 = EDGE_CURVE ( 'NONE', #394, #330, #195, .T. ) ;
#397 = VERTEX_POINT ( 'NONE', #284 ) ;
#398 = APPROVAL_STATUS ( 'not_yet_approved' ) ;
#399 = CIRCLE ( 'NONE', #269, 20.00000000000000000 ) ;
#400 = EDGE_CURVE ( 'NONE', #326, #397, #337, .T. ) ;
#401 = ORIENTED_EDGE ( 'NONE', *, *, #370, .T. ) ;
#402 = CALENDAR_DATE ( 2026, 12, 7 ) ;
#403 = CALENDAR_DATE ( 2026, 12, 7 ) ;
#404 = LINE ( 'NONE', #242, #32 ) ;
#405 = DIRECTION ( 'NONE',  ( -0.000000000000000000, -0.000000000000000000, -1.000000000000000000 ) ) ;
#406 = VERTEX_POINT ( 'NONE', #320 ) ;
#407 = CYLINDRICAL_SURFACE ( 'NONE', #238, 18.49999999999999645 ) ;
#408 = DIRECTION ( 'NONE',  ( 1.000000000000000000, 0.000000000000000000, 0.000000000000000000 ) ) ;
#409 = DIRECTION ( 'NONE',  ( 0.000000000000000000, 0.000000000000000000, 1.000000000000000000 ) ) ;
ENDSEC;
END-ISO-10303-21;
