ISO-10303-21;
HEADER;
FILE_DESCRIPTION (( 'STEP AP203' ),
    '1' );
FILE_NAME ('Pulley16mm_Default_sldprt.STEP',
    '2026-07-12T12:38:07',
    ( '' ),
    ( '' ),
    'SwSTEP 2.0',
    'SolidWorks 2025',
    '' );
FILE_SCHEMA (( 'CONFIG_CONTROL_DESIGN' ));
ENDSEC;

DATA;
#1 = CARTESIAN_POINT ( 'NONE',  ( 0.000000000000000000, 0.000000000000000000, 12.00000000000000000 ) ) ;
#2 = ORIENTED_EDGE ( 'NONE', *, *, #233, .F. ) ;
#3 = CARTESIAN_POINT ( 'NONE',  ( 8.000000000000000000, 9.797174393178825657E-16, 0.000000000000000000 ) ) ;
#4 = CIRCLE ( 'NONE', #310, 8.000000000000000000 ) ;
#5 = VERTEX_POINT ( 'NONE', #298 ) ;
#6 = CARTESIAN_POINT ( 'NONE',  ( 5.000000000000000000, 6.123233995736766282E-16, 12.00000000000000000 ) ) ;
#7 = ORIENTED_EDGE ( 'NONE', *, *, #136, .T. ) ;
#8 = EDGE_CURVE ( 'NONE', #155, #389, #302, .T. ) ;
#9 = LINE ( 'NONE', #232, #13 ) ;
#10 = EDGE_LOOP ( 'NONE', ( #305, #127, #333, #124 ) ) ;
#11 = CIRCLE ( 'NONE', #106, 6.999999999999999112 ) ;
#12 = FACE_OUTER_BOUND ( 'NONE', #316, .T. ) ;
#13 = VECTOR ( 'NONE', #129, 1000.000000000000000 ) ;
#14 = ADVANCED_FACE ( 'NONE', ( #391 ), #111, .T. ) ;
#15 = AXIS2_PLACEMENT_3D ( 'NONE', #329, #264, #394 ) ;
#16 = VECTOR ( 'NONE', #385, 1000.000000000000000 ) ;
#17 = DIRECTION ( 'NONE',  ( -0.000000000000000000, -0.000000000000000000, -1.000000000000000000 ) ) ;
#18 = EDGE_CURVE ( 'NONE', #31, #63, #23, .T. ) ;
#19 = DIRECTION ( 'NONE',  ( 0.000000000000000000, 0.000000000000000000, 1.000000000000000000 ) ) ;
#20 = CC_DESIGN_PERSON_AND_ORGANIZATION_ASSIGNMENT ( #95, #253, ( #223 ) ) ;
#21 = CARTESIAN_POINT ( 'NONE',  ( 0.000000000000000000, 0.000000000000000000, 9.000000000000001776 ) ) ;
#22 = EDGE_LOOP ( 'NONE', ( #193, #200 ) ) ;
#23 = CIRCLE ( 'NONE', #325, 5.000000000000000000 ) ;
#24 = CARTESIAN_POINT ( 'NONE',  ( 0.000000000000000000, 0.000000000000000000, 0.000000000000000000 ) ) ;
#25 = DIRECTION ( 'NONE',  ( -1.000000000000000000, 0.000000000000000000, 0.000000000000000000 ) ) ;
#26 = CALENDAR_DATE ( 2026, 12, 7 ) ;
#27 = DIRECTION ( 'NONE',  ( 0.000000000000000000, 0.000000000000000000, 1.000000000000000000 ) ) ;
#28 = PERSON_AND_ORGANIZATION ( #338, #178 ) ;
#29 = CIRCLE ( 'NONE', #172, 5.000000000000000000 ) ;
#30 = DIRECTION ( 'NONE',  ( -1.000000000000000000, 0.000000000000000000, 0.000000000000000000 ) ) ;
#31 = VERTEX_POINT ( 'NONE', #75 ) ;
#32 = EDGE_CURVE ( 'NONE', #220, #186, #241, .T. ) ;
#33 = DIRECTION ( 'NONE',  ( -1.000000000000000000, 0.000000000000000000, 0.000000000000000000 ) ) ;
#34 = ORIENTED_EDGE ( 'NONE', *, *, #170, .T. ) ;
#35 = PERSON_AND_ORGANIZATION_ROLE ( 'creator' ) ;
#36 = LINE ( 'NONE', #182, #297 ) ;
#37 = ORIENTED_EDGE ( 'NONE', *, *, #399, .F. ) ;
#38 = CALENDAR_DATE ( 2026, 12, 7 ) ;
#39 = DIRECTION ( 'NONE',  ( 1.000000000000000000, 0.000000000000000000, -0.000000000000000000 ) ) ;
#40 = CLOSED_SHELL ( 'NONE', ( #141, #284, #294, #257, #14, #46, #166, #276, #104, #379, #202, #357 ) ) ;
#41 = ORIENTED_EDGE ( 'NONE', *, *, #128, .F. ) ;
#42 = FACE_BOUND ( 'NONE', #94, .T. ) ;
#43 = ORIENTED_EDGE ( 'NONE', *, *, #8, .T. ) ;
#44 = CARTESIAN_POINT ( 'NONE',  ( 0.000000000000000000, 0.000000000000000000, 0.000000000000000000 ) ) ;
#45 = CIRCLE ( 'NONE', #293, 5.000000000000000000 ) ;
#46 = ADVANCED_FACE ( 'NONE', ( #108, #240 ), #82, .T. ) ;
#47 = CARTESIAN_POINT ( 'NONE',  ( 8.000000000000000000, 9.797174393178825657E-16, 12.00000000000000000 ) ) ;
#48 = DIRECTION ( 'NONE',  ( 0.000000000000000000, 0.000000000000000000, 1.000000000000000000 ) ) ;
#49 = PRODUCT_DEFINITION ( 'UNKNOWN', '', #223, #383 ) ;
#50 = CARTESIAN_POINT ( 'NONE',  ( 5.000000000000000000, 6.123233995736766282E-16, 12.00000000000000000 ) ) ;
#51 = CARTESIAN_POINT ( 'NONE',  ( 0.000000000000000000, 0.000000000000000000, -2.730196635283224094 ) ) ;
#52 = ORIENTED_EDGE ( 'NONE', *, *, #212, .F. ) ;
#53 = VECTOR ( 'NONE', #405, 1000.000000000000000 ) ;
#54 = CARTESIAN_POINT ( 'NONE',  ( 0.000000000000000000, 0.000000000000000000, 12.00000000000000000 ) ) ;
#55 = PRODUCT_RELATED_PRODUCT_CATEGORY ( 'detail', '', ( #173 ) ) ;
#56 = APPROVAL_ROLE ( '' ) ;
#57 = FACE_OUTER_BOUND ( 'NONE', #269, .T. ) ;
#58 =( NAMED_UNIT ( * ) SI_UNIT ( $, .STERADIAN. ) SOLID_ANGLE_UNIT ( ) );
#59 = DIRECTION ( 'NONE',  ( -1.000000000000000000, 0.000000000000000000, 0.000000000000000000 ) ) ;
#60 = CIRCLE ( 'NONE', #353, 8.000000000000000000 ) ;
#61 = FACE_OUTER_BOUND ( 'NONE', #246, .T. ) ;
#62 = VECTOR ( 'NONE', #100, 1000.000000000000000 ) ;
#63 = VERTEX_POINT ( 'NONE', #238 ) ;
#64 = CARTESIAN_POINT ( 'NONE',  ( 0.000000000000000000, 0.000000000000000000, 0.000000000000000000 ) ) ;
#65 = CARTESIAN_POINT ( 'NONE',  ( 0.000000000000000000, 0.000000000000000000, 9.000000000000001776 ) ) ;
#66 = ORIENTED_EDGE ( 'NONE', *, *, #304, .F. ) ;
#67 = PERSON_AND_ORGANIZATION ( #338, #178 ) ;
#68 = PLANE ( 'NONE',  #133 ) ;
#69 = ORIENTED_EDGE ( 'NONE', *, *, #233, .T. ) ;
#70 = CARTESIAN_POINT ( 'NONE',  ( 6.999999999999999112, 8.572527594031472204E-16, -2.730196635283224094 ) ) ;
#71 = LOCAL_TIME ( 16, 8, 7.000000000000000000, #372 ) ;
#72 = ORIENTED_EDGE ( 'NONE', *, *, #304, .T. ) ;
#73 = ORIENTED_EDGE ( 'NONE', *, *, #208, .F. ) ;
#74 = EDGE_CURVE ( 'NONE', #130, #122, #60, .T. ) ;
#75 = CARTESIAN_POINT ( 'NONE',  ( 5.000000000000000000, 6.123233995736766282E-16, 0.000000000000000000 ) ) ;
#76 = EDGE_CURVE ( 'NONE', #113, #5, #142, .T. ) ;
#77 = CARTESIAN_POINT ( 'NONE',  ( 8.000000000000000000, 9.797174393178825657E-16, 9.000000000000001776 ) ) ;
#78 = APPROVAL ( #148, 'UNSPECIFIED' ) ;
#79 = CIRCLE ( 'NONE', #262, 5.000000000000000000 ) ;
#80 = AXIS2_PLACEMENT_3D ( 'NONE', #65, #192, #59 ) ;
#81 = CARTESIAN_POINT ( 'NONE',  ( 8.000000000000000000, 9.797174393178825657E-16, 12.00000000000000000 ) ) ;
#82 = PLANE ( 'NONE',  #295 ) ;
#83 = CARTESIAN_POINT ( 'NONE',  ( 7.000000000000000888, 8.572527594031474176E-16, 3.000000000000000000 ) ) ;
#84 = AXIS2_PLACEMENT_3D ( 'NONE', #51, #209, #261 ) ;
#85 = DIRECTION ( 'NONE',  ( -1.000000000000000000, 0.000000000000000000, 0.000000000000000000 ) ) ;
#86 = DIRECTION ( 'NONE',  ( -1.000000000000000000, 0.000000000000000000, 0.000000000000000000 ) ) ;
#87 = COORDINATED_UNIVERSAL_TIME_OFFSET ( 3, 30, .AHEAD. ) ;
#88 = DIRECTION ( 'NONE',  ( 0.000000000000000000, 0.000000000000000000, 1.000000000000000000 ) ) ;
#89 = ORIENTED_EDGE ( 'NONE', *, *, #18, .F. ) ;
#90 = CALENDAR_DATE ( 2026, 12, 7 ) ;
#91 = AXIS2_PLACEMENT_3D ( 'NONE', #204, #112, #364 ) ;
#92 = AXIS2_PLACEMENT_3D ( 'NONE', #64, #116, #279 ) ;
#93 = CARTESIAN_POINT ( 'NONE',  ( 0.000000000000000000, 0.000000000000000000, 12.00000000000000000 ) ) ;
#94 = EDGE_LOOP ( 'NONE', ( #52, #101 ) ) ;
#95 = PERSON_AND_ORGANIZATION ( #338, #178 ) ;
#96 = CARTESIAN_POINT ( 'NONE',  ( 8.000000000000000000, 9.797174393178825657E-16, 12.00000000000000000 ) ) ;
#97 = ORIENTED_EDGE ( 'NONE', *, *, #32, .F. ) ;
#98 = SECURITY_CLASSIFICATION_LEVEL ( 'unclassified' ) ;
#99 = EDGE_CURVE ( 'NONE', #382, #201, #79, .T. ) ;
#100 = DIRECTION ( 'NONE',  ( -0.000000000000000000, -0.000000000000000000, -1.000000000000000000 ) ) ;
#101 = ORIENTED_EDGE ( 'NONE', *, *, #341, .F. ) ;
#102 = DIRECTION ( 'NONE',  ( 0.000000000000000000, 0.000000000000000000, 1.000000000000000000 ) ) ;
#103 = ORIENTED_EDGE ( 'NONE', *, *, #299, .F. ) ;
#104 = ADVANCED_FACE ( 'NONE', ( #12 ), #332, .F. ) ;
#105 = CARTESIAN_POINT ( 'NONE',  ( 0.000000000000000000, 0.000000000000000000, 12.00000000000000000 ) ) ;
#106 = AXIS2_PLACEMENT_3D ( 'NONE', #244, #315, #245 ) ;
#107 =( GEOMETRIC_REPRESENTATION_CONTEXT ( 3 ) GLOBAL_UNCERTAINTY_ASSIGNED_CONTEXT ( ( #169 ) ) GLOBAL_UNIT_ASSIGNED_CONTEXT ( ( #198, #406, #58 ) ) REPRESENTATION_CONTEXT ( 'NONE', 'WORKASPACE' ) );
#108 = FACE_OUTER_BOUND ( 'NONE', #285, .T. ) ;
#109 = DIRECTION ( 'NONE',  ( 1.000000000000000000, 0.000000000000000000, 0.000000000000000000 ) ) ;
#110 = AXIS2_PLACEMENT_3D ( 'NONE', #335, #336, #86 ) ;
#111 = CYLINDRICAL_SURFACE ( 'NONE', #366, 8.000000000000000000 ) ;
#112 = DIRECTION ( 'NONE',  ( -0.000000000000000000, -0.000000000000000000, -1.000000000000000000 ) ) ;
#113 = VERTEX_POINT ( 'NONE', #77 ) ;
#114 = CARTESIAN_POINT ( 'NONE',  ( 6.999999999999999112, 8.572527594031472204E-16, 9.000000000000001776 ) ) ;
#115 = CIRCLE ( 'NONE', #177, 8.000000000000000000 ) ;
#116 = DIRECTION ( 'NONE',  ( 0.000000000000000000, 0.000000000000000000, 1.000000000000000000 ) ) ;
#117 = LOCAL_TIME ( 16, 8, 7.000000000000000000, #181 ) ;
#118 = CARTESIAN_POINT ( 'NONE',  ( -8.000000000000000000, 0.000000000000000000, 0.000000000000000000 ) ) ;
#119 = DATE_AND_TIME ( #26, #71 ) ;
#120 = CYLINDRICAL_SURFACE ( 'NONE', #334, 6.999999999999999112 ) ;
#121 = CC_DESIGN_DATE_AND_TIME_ASSIGNMENT ( #275, #287, ( #377 ) ) ;
#122 = VERTEX_POINT ( 'NONE', #134 ) ;
#123 = DIRECTION ( 'NONE',  ( -0.000000000000000000, -0.000000000000000000, -1.000000000000000000 ) ) ;
#124 = ORIENTED_EDGE ( 'NONE', *, *, #8, .F. ) ;
#125 = DATE_TIME_ROLE ( 'creation_date' ) ;
#126 = CARTESIAN_POINT ( 'NONE',  ( -8.000000000000000000, 0.000000000000000000, 12.00000000000000000 ) ) ;
#127 = ORIENTED_EDGE ( 'NONE', *, *, #341, .T. ) ;
#128 = EDGE_CURVE ( 'NONE', #211, #186, #115, .T. ) ;
#129 = DIRECTION ( 'NONE',  ( -0.000000000000000000, -0.000000000000000000, -1.000000000000000000 ) ) ;
#130 = VERTEX_POINT ( 'NONE', #81 ) ;
#131 = FACE_OUTER_BOUND ( 'NONE', #311, .T. ) ;
#132 = ORIENTED_EDGE ( 'NONE', *, *, #147, .F. ) ;
#133 = AXIS2_PLACEMENT_3D ( 'NONE', #290, #388, #356 ) ;
#134 = CARTESIAN_POINT ( 'NONE',  ( -8.000000000000000000, 0.000000000000000000, 12.00000000000000000 ) ) ;
#135 = LOCAL_TIME ( 16, 8, 7.000000000000000000, #317 ) ;
#136 = EDGE_CURVE ( 'NONE', #220, #378, #221, .T. ) ;
#137 = DIRECTION ( 'NONE',  ( 1.000000000000000000, 0.000000000000000000, 0.000000000000000000 ) ) ;
#138 = CYLINDRICAL_SURFACE ( 'NONE', #84, 6.999999999999999112 ) ;
#139 = ORIENTED_EDGE ( 'NONE', *, *, #32, .T. ) ;
#140 = CARTESIAN_POINT ( 'NONE',  ( 0.000000000000000000, 0.000000000000000000, 12.00000000000000000 ) ) ;
#141 = ADVANCED_FACE ( 'NONE', ( #176 ), #138, .T. ) ;
#142 = CIRCLE ( 'NONE', #359, 8.000000000000000000 ) ;
#143 = CIRCLE ( 'NONE', #362, 8.000000000000000000 ) ;
#144 = EDGE_LOOP ( 'NONE', ( #282, #43 ) ) ;
#145 = DIRECTION ( 'NONE',  ( -1.000000000000000000, 0.000000000000000000, 0.000000000000000000 ) ) ;
#146 = FACE_OUTER_BOUND ( 'NONE', #10, .T. ) ;
#147 = EDGE_CURVE ( 'NONE', #201, #382, #45, .T. ) ;
#148 = APPROVAL_STATUS ( 'not_yet_approved' ) ;
#149 = DIRECTION ( 'NONE',  ( -1.000000000000000000, 0.000000000000000000, 0.000000000000000000 ) ) ;
#150 = CC_DESIGN_DATE_AND_TIME_ASSIGNMENT ( #119, #125, ( #49 ) ) ;
#151 = DIRECTION ( 'NONE',  ( 1.000000000000000000, 0.000000000000000000, -0.000000000000000000 ) ) ;
#152 = ORIENTED_EDGE ( 'NONE', *, *, #299, .T. ) ;
#153 = APPROVAL_ROLE ( '' ) ;
#154 = DIRECTION ( 'NONE',  ( -0.000000000000000000, -0.000000000000000000, -1.000000000000000000 ) ) ;
#155 = VERTEX_POINT ( 'NONE', #83 ) ;
#156 = CALENDAR_DATE ( 2026, 12, 7 ) ;
#157 = DIRECTION ( 'NONE',  ( 1.000000000000000000, 0.000000000000000000, 0.000000000000000000 ) ) ;
#158 = ORIENTED_EDGE ( 'NONE', *, *, #74, .T. ) ;
#159 = PERSON_AND_ORGANIZATION ( #338, #178 ) ;
#160 = AXIS2_PLACEMENT_3D ( 'NONE', #24, #360, #151 ) ;
#161 = FACE_BOUND ( 'NONE', #144, .T. ) ;
#162 = ORIENTED_EDGE ( 'NONE', *, *, #76, .F. ) ;
#163 = ORIENTED_EDGE ( 'NONE', *, *, #337, .T. ) ;
#164 = EDGE_CURVE ( 'NONE', #382, #31, #330, .T. ) ;
#165 = DIRECTION ( 'NONE',  ( 0.000000000000000000, 0.000000000000000000, 1.000000000000000000 ) ) ;
#166 = ADVANCED_FACE ( 'NONE', ( #175, #236 ), #301, .F. ) ;
#167 = AXIS2_PLACEMENT_3D ( 'NONE', #251, #219, #407 ) ;
#168 = CC_DESIGN_APPROVAL ( #183, ( #223 ) ) ;
#169 = UNCERTAINTY_MEASURE_WITH_UNIT (LENGTH_MEASURE( 1.000000000000000082E-05 ), #198, 'distance_accuracy_value', 'NONE');
#170 = EDGE_CURVE ( 'NONE', #122, #5, #283, .T. ) ;
#171 = DIRECTION ( 'NONE',  ( 0.000000000000000000, 0.000000000000000000, 1.000000000000000000 ) ) ;
#172 = AXIS2_PLACEMENT_3D ( 'NONE', #280, #88, #381 ) ;
#173 = PRODUCT ( 'Pulley16mm_Default_sldprt', 'Pulley16mm_Default_sldprt', '', ( #342 ) ) ;
#174 = DIRECTION ( 'NONE',  ( 1.000000000000000000, 0.000000000000000000, -0.000000000000000000 ) ) ;
#175 = FACE_OUTER_BOUND ( 'NONE', #252, .T. ) ;
#176 = FACE_OUTER_BOUND ( 'NONE', #354, .T. ) ;
#177 = AXIS2_PLACEMENT_3D ( 'NONE', #361, #19, #237 ) ;
#178 = ORGANIZATION ( 'UNSPECIFIED', 'UNSPECIFIED', '' ) ;
#179 = ORIENTED_EDGE ( 'NONE', *, *, #164, .F. ) ;
#180 = CARTESIAN_POINT ( 'NONE',  ( 0.000000000000000000, 0.000000000000000000, -2.730196635283224094 ) ) ;
#181 = COORDINATED_UNIVERSAL_TIME_OFFSET ( 3, 30, .AHEAD. ) ;
#182 = CARTESIAN_POINT ( 'NONE',  ( -5.000000000000000000, 0.000000000000000000, 12.00000000000000000 ) ) ;
#183 = APPROVAL ( #250, 'UNSPECIFIED' ) ;
#184 = DATE_AND_TIME ( #38, #321 ) ;
#185 = DIRECTION ( 'NONE',  ( -0.000000000000000000, -0.000000000000000000, -1.000000000000000000 ) ) ;
#186 = VERTEX_POINT ( 'NONE', #3 ) ;
#187 = VECTOR ( 'NONE', #17, 1000.000000000000000 ) ;
#188 = CIRCLE ( 'NONE', #239, 6.999999999999999112 ) ;
#189 = CARTESIAN_POINT ( 'NONE',  ( 0.000000000000000000, 0.000000000000000000, 3.000000000000000000 ) ) ;
#190 = ORIENTED_EDGE ( 'NONE', *, *, #199, .F. ) ;
#191 = PERSON_AND_ORGANIZATION_ROLE ( 'design_owner' ) ;
#192 = DIRECTION ( 'NONE',  ( -0.000000000000000000, -0.000000000000000000, -1.000000000000000000 ) ) ;
#193 = ORIENTED_EDGE ( 'NONE', *, *, #337, .F. ) ;
#194 = PERSON_AND_ORGANIZATION ( #338, #178 ) ;
#195 = PLANE ( 'NONE',  #397 ) ;
#196 = ORIENTED_EDGE ( 'NONE', *, *, #99, .F. ) ;
#197 = AXIS2_PLACEMENT_3D ( 'NONE', #1, #123, #215 ) ;
#198 =( LENGTH_UNIT ( ) NAMED_UNIT ( * ) SI_UNIT ( .MILLI., .METRE. ) );
#199 = EDGE_CURVE ( 'NONE', #122, #130, #214, .T. ) ;
#200 = ORIENTED_EDGE ( 'NONE', *, *, #136, .F. ) ;
#201 = VERTEX_POINT ( 'NONE', #343 ) ;
#202 = ADVANCED_FACE ( 'NONE', ( #146 ), #120, .T. ) ;
#203 = LOCAL_TIME ( 16, 8, 7.000000000000000000, #216 ) ;
#204 = CARTESIAN_POINT ( 'NONE',  ( 0.000000000000000000, 0.000000000000000000, 3.000000000000000000 ) ) ;
#205 = DIRECTION ( 'NONE',  ( 1.000000000000000000, 0.000000000000000000, 0.000000000000000000 ) ) ;
#206 = VECTOR ( 'NONE', #324, 1000.000000000000000 ) ;
#207 = CC_DESIGN_APPROVAL ( #78, ( #377 ) ) ;
#208 = EDGE_CURVE ( 'NONE', #378, #211, #367, .T. ) ;
#209 = DIRECTION ( 'NONE',  ( -0.000000000000000000, -0.000000000000000000, -1.000000000000000000 ) ) ;
#210 = DIRECTION ( 'NONE',  ( -0.000000000000000000, -0.000000000000000000, -1.000000000000000000 ) ) ;
#211 = VERTEX_POINT ( 'NONE', #118 ) ;
#212 = EDGE_CURVE ( 'NONE', #352, #249, #11, .T. ) ;
#213 = CYLINDRICAL_SURFACE ( 'NONE', #110, 8.000000000000000000 ) ;
#214 = CIRCLE ( 'NONE', #167, 8.000000000000000000 ) ;
#215 = DIRECTION ( 'NONE',  ( -1.000000000000000000, 0.000000000000000000, 0.000000000000000000 ) ) ;
#216 = COORDINATED_UNIVERSAL_TIME_OFFSET ( 3, 30, .AHEAD. ) ;
#217 = DIRECTION ( 'NONE',  ( -0.000000000000000000, -0.000000000000000000, -1.000000000000000000 ) ) ;
#218 = PERSON_AND_ORGANIZATION_ROLE ( 'classification_officer' ) ;
#219 = DIRECTION ( 'NONE',  ( 0.000000000000000000, 0.000000000000000000, 1.000000000000000000 ) ) ;
#220 = VERTEX_POINT ( 'NONE', #373 ) ;
#221 = CIRCLE ( 'NONE', #231, 8.000000000000000000 ) ;
#222 = DATE_AND_TIME ( #156, #203 ) ;
#223 = PRODUCT_DEFINITION_FORMATION_WITH_SPECIFIED_SOURCE ( 'ANY', '', #173, .NOT_KNOWN. ) ;
#224 = DIRECTION ( 'NONE',  ( -0.000000000000000000, -0.000000000000000000, -1.000000000000000000 ) ) ;
#225 = EDGE_LOOP ( 'NONE', ( #132, #196 ) ) ;
#226 = PERSON_AND_ORGANIZATION ( #338, #178 ) ;
#227 = ORIENTED_EDGE ( 'NONE', *, *, #399, .T. ) ;
#228 = APPLICATION_PROTOCOL_DEFINITION ( 'international standard', 'config_control_design', 1994, #296 ) ;
#229 = LINE ( 'NONE', #96, #62 ) ;
#230 = ORIENTED_EDGE ( 'NONE', *, *, #371, .F. ) ;
#231 = AXIS2_PLACEMENT_3D ( 'NONE', #400, #266, #145 ) ;
#232 = CARTESIAN_POINT ( 'NONE',  ( -6.999999999999999112, 0.000000000000000000, -2.730196635283224094 ) ) ;
#233 = EDGE_CURVE ( 'NONE', #63, #31, #29, .T. ) ;
#234 = EDGE_LOOP ( 'NONE', ( #69, #331 ) ) ;
#235 = CC_DESIGN_SECURITY_CLASSIFICATION ( #377, ( #223 ) ) ;
#236 = FACE_BOUND ( 'NONE', #234, .T. ) ;
#237 = DIRECTION ( 'NONE',  ( 1.000000000000000000, 0.000000000000000000, 0.000000000000000000 ) ) ;
#238 = CARTESIAN_POINT ( 'NONE',  ( -5.000000000000000000, 0.000000000000000000, 0.000000000000000000 ) ) ;
#239 = AXIS2_PLACEMENT_3D ( 'NONE', #274, #185, #30 ) ;
#240 = FACE_BOUND ( 'NONE', #225, .T. ) ;
#241 = LINE ( 'NONE', #47, #187 ) ;
#242 = FACE_OUTER_BOUND ( 'NONE', #278, .T. ) ;
#243 = CC_DESIGN_APPROVAL ( #403, ( #49 ) ) ;
#244 = CARTESIAN_POINT ( 'NONE',  ( 0.000000000000000000, 0.000000000000000000, 9.000000000000001776 ) ) ;
#245 = DIRECTION ( 'NONE',  ( -1.000000000000000000, 0.000000000000000000, 0.000000000000000000 ) ) ;
#246 = EDGE_LOOP ( 'NONE', ( #358, #227, #103, #374 ) ) ;
#247 = APPROVAL_DATE_TIME ( #222, #403 ) ;
#248 = CYLINDRICAL_SURFACE ( 'NONE', #368, 8.000000000000000000 ) ;
#249 = VERTEX_POINT ( 'NONE', #114 ) ;
#250 = APPROVAL_STATUS ( 'not_yet_approved' ) ;
#251 = CARTESIAN_POINT ( 'NONE',  ( 0.000000000000000000, 0.000000000000000000, 12.00000000000000000 ) ) ;
#252 = EDGE_LOOP ( 'NONE', ( #41, #365 ) ) ;
#253 = PERSON_AND_ORGANIZATION_ROLE ( 'creator' ) ;
#254 = LINE ( 'NONE', #70, #16 ) ;
#255 = ORIENTED_EDGE ( 'NONE', *, *, #76, .T. ) ;
#256 = APPLICATION_CONTEXT ( 'configuration controlled 3d designs of mechanical parts and assemblies' ) ;
#257 = ADVANCED_FACE ( 'NONE', ( #61 ), #213, .T. ) ;
#258 = CARTESIAN_POINT ( 'NONE',  ( -8.000000000000000000, 0.000000000000000000, 9.000000000000001776 ) ) ;
#259 = ORIENTED_EDGE ( 'NONE', *, *, #128, .T. ) ;
#260 = AXIS2_PLACEMENT_3D ( 'NONE', #189, #217, #85 ) ;
#261 = DIRECTION ( 'NONE',  ( -1.000000000000000000, 0.000000000000000000, 0.000000000000000000 ) ) ;
#262 = AXIS2_PLACEMENT_3D ( 'NONE', #270, #300, #137 ) ;
#263 = ADVANCED_BREP_SHAPE_REPRESENTATION ( 'Pulley16mm_Default_sldprt', ( #387, #92 ), #107 ) ;
#264 = DIRECTION ( 'NONE',  ( -0.000000000000000000, -0.000000000000000000, -1.000000000000000000 ) ) ;
#265 = EDGE_CURVE ( 'NONE', #389, #155, #376, .T. ) ;
#266 = DIRECTION ( 'NONE',  ( -0.000000000000000000, -0.000000000000000000, -1.000000000000000000 ) ) ;
#267 = ORIENTED_EDGE ( 'NONE', *, *, #208, .T. ) ;
#268 = DIRECTION ( 'NONE',  ( -0.000000000000000000, -0.000000000000000000, -1.000000000000000000 ) ) ;
#269 = EDGE_LOOP ( 'NONE', ( #163, #139, #314, #73 ) ) ;
#270 = CARTESIAN_POINT ( 'NONE',  ( 0.000000000000000000, 0.000000000000000000, 12.00000000000000000 ) ) ;
#271 = CARTESIAN_POINT ( 'NONE',  ( -8.000000000000000000, 0.000000000000000000, 12.00000000000000000 ) ) ;
#272 = PRODUCT_DEFINITION_SHAPE ( 'NONE', 'NONE',  #49 ) ;
#273 = CALENDAR_DATE ( 2026, 12, 7 ) ;
#274 = CARTESIAN_POINT ( 'NONE',  ( 0.000000000000000000, 0.000000000000000000, 9.000000000000001776 ) ) ;
#275 = DATE_AND_TIME ( #90, #117 ) ;
#276 = ADVANCED_FACE ( 'NONE', ( #401 ), #375, .T. ) ;
#277 = DIRECTION ( 'NONE',  ( -0.000000000000000000, -0.000000000000000000, -1.000000000000000000 ) ) ;
#278 = EDGE_LOOP ( 'NONE', ( #289, #291, #2, #66 ) ) ;
#279 = DIRECTION ( 'NONE',  ( 1.000000000000000000, 0.000000000000000000, 0.000000000000000000 ) ) ;
#280 = CARTESIAN_POINT ( 'NONE',  ( 0.000000000000000000, 0.000000000000000000, 0.000000000000000000 ) ) ;
#281 = CC_DESIGN_PERSON_AND_ORGANIZATION_ASSIGNMENT ( #339, #35, ( #49 ) ) ;
#282 = ORIENTED_EDGE ( 'NONE', *, *, #265, .T. ) ;
#283 = LINE ( 'NONE', #126, #344 ) ;
#284 = ADVANCED_FACE ( 'NONE', ( #242 ), #313, .F. ) ;
#285 = EDGE_LOOP ( 'NONE', ( #349, #158 ) ) ;
#286 = APPROVAL_PERSON_ORGANIZATION ( #369, #403, #56 ) ;
#287 = DATE_TIME_ROLE ( 'classification_date' ) ;
#288 = CARTESIAN_POINT ( 'NONE',  ( -7.000000000000000000, 0.000000000000000000, 3.000000000000000000 ) ) ;
#289 = ORIENTED_EDGE ( 'NONE', *, *, #147, .T. ) ;
#290 = CARTESIAN_POINT ( 'NONE',  ( -8.000000000000000000, 0.000000000000000000, 3.000000000000000000 ) ) ;
#291 = ORIENTED_EDGE ( 'NONE', *, *, #164, .T. ) ;
#292 = CARTESIAN_POINT ( 'NONE',  ( 0.000000000000000000, 0.000000000000000000, 12.00000000000000000 ) ) ;
#293 = AXIS2_PLACEMENT_3D ( 'NONE', #303, #395, #109 ) ;
#294 = ADVANCED_FACE ( 'NONE', ( #57 ), #248, .T. ) ;
#295 = AXIS2_PLACEMENT_3D ( 'NONE', #105, #165, #174 ) ;
#296 = APPLICATION_CONTEXT ( 'configuration controlled 3d designs of mechanical parts and assemblies' ) ;
#297 = VECTOR ( 'NONE', #340, 1000.000000000000000 ) ;
#298 = CARTESIAN_POINT ( 'NONE',  ( -8.000000000000000000, 0.000000000000000000, 9.000000000000001776 ) ) ;
#299 = EDGE_CURVE ( 'NONE', #5, #113, #404, .T. ) ;
#300 = DIRECTION ( 'NONE',  ( 0.000000000000000000, 0.000000000000000000, 1.000000000000000000 ) ) ;
#301 = PLANE ( 'NONE',  #160 ) ;
#302 = CIRCLE ( 'NONE', #91, 7.000000000000000000 ) ;
#303 = CARTESIAN_POINT ( 'NONE',  ( 0.000000000000000000, 0.000000000000000000, 12.00000000000000000 ) ) ;
#304 = EDGE_CURVE ( 'NONE', #201, #63, #36, .T. ) ;
#305 = ORIENTED_EDGE ( 'NONE', *, *, #392, .F. ) ;
#306 = DIRECTION ( 'NONE',  ( -0.000000000000000000, -0.000000000000000000, -1.000000000000000000 ) ) ;
#307 = APPROVAL_ROLE ( '' ) ;
#308 = DIRECTION ( 'NONE',  ( -0.000000000000000000, -0.000000000000000000, -1.000000000000000000 ) ) ;
#309 = CARTESIAN_POINT ( 'NONE',  ( 0.000000000000000000, 0.000000000000000000, 0.000000000000000000 ) ) ;
#310 = AXIS2_PLACEMENT_3D ( 'NONE', #309, #27, #157 ) ;
#311 = EDGE_LOOP ( 'NONE', ( #152, #255 ) ) ;
#312 = APPROVAL_DATE_TIME ( #402, #78 ) ;
#313 = CYLINDRICAL_SURFACE ( 'NONE', #197, 5.000000000000000000 ) ;
#314 = ORIENTED_EDGE ( 'NONE', *, *, #327, .T. ) ;
#315 = DIRECTION ( 'NONE',  ( -0.000000000000000000, -0.000000000000000000, -1.000000000000000000 ) ) ;
#316 = EDGE_LOOP ( 'NONE', ( #179, #386, #72, #89 ) ) ;
#317 = COORDINATED_UNIVERSAL_TIME_OFFSET ( 3, 30, .AHEAD. ) ;
#318 = CARTESIAN_POINT ( 'NONE',  ( -8.000000000000000000, 0.000000000000000000, 3.000000000000000000 ) ) ;
#319 = AXIS2_PLACEMENT_3D ( 'NONE', #54, #306, #25 ) ;
#320 = ORIENTED_EDGE ( 'NONE', *, *, #392, .T. ) ;
#321 = LOCAL_TIME ( 16, 8, 7.000000000000000000, #87 ) ;
#322 = CARTESIAN_POINT ( 'NONE',  ( -6.999999999999999112, 0.000000000000000000, 9.000000000000001776 ) ) ;
#323 = ORIENTED_EDGE ( 'NONE', *, *, #212, .T. ) ;
#324 = DIRECTION ( 'NONE',  ( -0.000000000000000000, -0.000000000000000000, -1.000000000000000000 ) ) ;
#325 = AXIS2_PLACEMENT_3D ( 'NONE', #44, #48, #205 ) ;
#326 = CC_DESIGN_PERSON_AND_ORGANIZATION_ASSIGNMENT ( #194, #218, ( #377 ) ) ;
#327 = EDGE_CURVE ( 'NONE', #186, #211, #4, .T. ) ;
#328 = DIRECTION ( 'NONE',  ( -1.000000000000000000, 0.000000000000000000, 0.000000000000000000 ) ) ;
#329 = CARTESIAN_POINT ( 'NONE',  ( 0.000000000000000000, 0.000000000000000000, 12.00000000000000000 ) ) ;
#330 = LINE ( 'NONE', #50, #206 ) ;
#331 = ORIENTED_EDGE ( 'NONE', *, *, #18, .T. ) ;
#332 = CYLINDRICAL_SURFACE ( 'NONE', #15, 5.000000000000000000 ) ;
#333 = ORIENTED_EDGE ( 'NONE', *, *, #371, .T. ) ;
#334 = AXIS2_PLACEMENT_3D ( 'NONE', #180, #154, #33 ) ;
#335 = CARTESIAN_POINT ( 'NONE',  ( 0.000000000000000000, 0.000000000000000000, 12.00000000000000000 ) ) ;
#336 = DIRECTION ( 'NONE',  ( -0.000000000000000000, -0.000000000000000000, -1.000000000000000000 ) ) ;
#337 = EDGE_CURVE ( 'NONE', #378, #220, #143, .T. ) ;
#338 = PERSON ( 'UNSPECIFIED', 'UNSPECIFIED', 'UNSPECIFIED', ('UNSPECIFIED'), ('UNSPECIFIED'), ('UNSPECIFIED') ) ;
#339 = PERSON_AND_ORGANIZATION ( #338, #178 ) ;
#340 = DIRECTION ( 'NONE',  ( -0.000000000000000000, -0.000000000000000000, -1.000000000000000000 ) ) ;
#341 = EDGE_CURVE ( 'NONE', #249, #352, #188, .T. ) ;
#342 = MECHANICAL_CONTEXT ( 'NONE', #256, 'mechanical' ) ;
#343 = CARTESIAN_POINT ( 'NONE',  ( -5.000000000000000000, 0.000000000000000000, 12.00000000000000000 ) ) ;
#344 = VECTOR ( 'NONE', #277, 1000.000000000000000 ) ;
#345 = APPROVAL_PERSON_ORGANIZATION ( #67, #183, #153 ) ;
#346 = ORIENTED_EDGE ( 'NONE', *, *, #265, .F. ) ;
#347 = SHAPE_DEFINITION_REPRESENTATION ( #272, #263 ) ;
#348 = DIRECTION ( 'NONE',  ( -1.000000000000000000, 0.000000000000000000, 0.000000000000000000 ) ) ;
#349 = ORIENTED_EDGE ( 'NONE', *, *, #199, .T. ) ;
#350 = APPLICATION_PROTOCOL_DEFINITION ( 'international standard', 'config_control_design', 1994, #256 ) ;
#351 = FACE_OUTER_BOUND ( 'NONE', #22, .T. ) ;
#352 = VERTEX_POINT ( 'NONE', #322 ) ;
#353 = AXIS2_PLACEMENT_3D ( 'NONE', #292, #171, #363 ) ;
#354 = EDGE_LOOP ( 'NONE', ( #323, #320, #346, #230 ) ) ;
#355 = APPROVAL_PERSON_ORGANIZATION ( #159, #78, #307 ) ;
#356 = DIRECTION ( 'NONE',  ( -1.000000000000000000, 0.000000000000000000, 0.000000000000000000 ) ) ;
#357 = ADVANCED_FACE ( 'NONE', ( #351, #161 ), #68, .F. ) ;
#358 = ORIENTED_EDGE ( 'NONE', *, *, #74, .F. ) ;
#359 = AXIS2_PLACEMENT_3D ( 'NONE', #21, #210, #398 ) ;
#360 = DIRECTION ( 'NONE',  ( 0.000000000000000000, 0.000000000000000000, 1.000000000000000000 ) ) ;
#361 = CARTESIAN_POINT ( 'NONE',  ( 0.000000000000000000, 0.000000000000000000, 0.000000000000000000 ) ) ;
#362 = AXIS2_PLACEMENT_3D ( 'NONE', #370, #308, #149 ) ;
#363 = DIRECTION ( 'NONE',  ( 1.000000000000000000, 0.000000000000000000, 0.000000000000000000 ) ) ;
#364 = DIRECTION ( 'NONE',  ( -1.000000000000000000, 0.000000000000000000, 0.000000000000000000 ) ) ;
#365 = ORIENTED_EDGE ( 'NONE', *, *, #327, .F. ) ;
#366 = AXIS2_PLACEMENT_3D ( 'NONE', #140, #268, #328 ) ;
#367 = LINE ( 'NONE', #271, #53 ) ;
#368 = AXIS2_PLACEMENT_3D ( 'NONE', #93, #224, #348 ) ;
#369 = PERSON_AND_ORGANIZATION ( #338, #178 ) ;
#370 = CARTESIAN_POINT ( 'NONE',  ( 0.000000000000000000, 0.000000000000000000, 3.000000000000000000 ) ) ;
#371 = EDGE_CURVE ( 'NONE', #352, #389, #9, .T. ) ;
#372 = COORDINATED_UNIVERSAL_TIME_OFFSET ( 3, 30, .AHEAD. ) ;
#373 = CARTESIAN_POINT ( 'NONE',  ( 8.000000000000000000, 9.797174393178825657E-16, 3.000000000000000000 ) ) ;
#374 = ORIENTED_EDGE ( 'NONE', *, *, #170, .F. ) ;
#375 = CYLINDRICAL_SURFACE ( 'NONE', #319, 8.000000000000000000 ) ;
#376 = CIRCLE ( 'NONE', #260, 7.000000000000000000 ) ;
#377 = SECURITY_CLASSIFICATION ( '', '', #98 ) ;
#378 = VERTEX_POINT ( 'NONE', #318 ) ;
#379 = ADVANCED_FACE ( 'NONE', ( #42, #131 ), #195, .F. ) ;
#380 = APPROVAL_DATE_TIME ( #184, #183 ) ;
#381 = DIRECTION ( 'NONE',  ( 1.000000000000000000, 0.000000000000000000, 0.000000000000000000 ) ) ;
#382 = VERTEX_POINT ( 'NONE', #6 ) ;
#383 = DESIGN_CONTEXT ( 'detailed design', #296, 'design' ) ;
#384 = APPROVAL_STATUS ( 'not_yet_approved' ) ;
#385 = DIRECTION ( 'NONE',  ( -0.000000000000000000, -0.000000000000000000, -1.000000000000000000 ) ) ;
#386 = ORIENTED_EDGE ( 'NONE', *, *, #99, .T. ) ;
#387 = MANIFOLD_SOLID_BREP ( 'Cut-Revolve1', #40 ) ;
#388 = DIRECTION ( 'NONE',  ( -0.000000000000000000, 0.000000000000000000, -1.000000000000000000 ) ) ;
#389 = VERTEX_POINT ( 'NONE', #288 ) ;
#390 = CC_DESIGN_PERSON_AND_ORGANIZATION_ASSIGNMENT ( #226, #409, ( #223 ) ) ;
#391 = FACE_OUTER_BOUND ( 'NONE', #408, .T. ) ;
#392 = EDGE_CURVE ( 'NONE', #249, #155, #254, .T. ) ;
#393 = CC_DESIGN_PERSON_AND_ORGANIZATION_ASSIGNMENT ( #28, #191, ( #173 ) ) ;
#394 = DIRECTION ( 'NONE',  ( -1.000000000000000000, 0.000000000000000000, 0.000000000000000000 ) ) ;
#395 = DIRECTION ( 'NONE',  ( 0.000000000000000000, 0.000000000000000000, 1.000000000000000000 ) ) ;
#396 = EDGE_LOOP ( 'NONE', ( #97, #7, #267, #259 ) ) ;
#397 = AXIS2_PLACEMENT_3D ( 'NONE', #258, #102, #39 ) ;
#398 = DIRECTION ( 'NONE',  ( -1.000000000000000000, 0.000000000000000000, 0.000000000000000000 ) ) ;
#399 = EDGE_CURVE ( 'NONE', #130, #113, #229, .T. ) ;
#400 = CARTESIAN_POINT ( 'NONE',  ( 0.000000000000000000, 0.000000000000000000, 3.000000000000000000 ) ) ;
#401 = FACE_OUTER_BOUND ( 'NONE', #396, .T. ) ;
#402 = DATE_AND_TIME ( #273, #135 ) ;
#403 = APPROVAL ( #384, 'UNSPECIFIED' ) ;
#404 = CIRCLE ( 'NONE', #80, 8.000000000000000000 ) ;
#405 = DIRECTION ( 'NONE',  ( -0.000000000000000000, -0.000000000000000000, -1.000000000000000000 ) ) ;
#406 =( NAMED_UNIT ( * ) PLANE_ANGLE_UNIT ( ) SI_UNIT ( $, .RADIAN. ) );
#407 = DIRECTION ( 'NONE',  ( 1.000000000000000000, 0.000000000000000000, 0.000000000000000000 ) ) ;
#408 = EDGE_LOOP ( 'NONE', ( #37, #190, #34, #162 ) ) ;
#409 = PERSON_AND_ORGANIZATION_ROLE ( 'design_supplier' ) ;
ENDSEC;
END-ISO-10303-21;
