ISO-10303-21;
HEADER;
FILE_DESCRIPTION (( 'STEP AP203' ),
    '1' );
FILE_NAME ('Pulley70mm_Default_sldprt.STEP',
    '2026-07-12T11:27:34',
    ( '' ),
    ( '' ),
    'SwSTEP 2.0',
    'SolidWorks 2025',
    '' );
FILE_SCHEMA (( 'CONFIG_CONTROL_DESIGN' ));
ENDSEC;

DATA;
#1 = CARTESIAN_POINT ( 'NONE',  ( -35.00000000000000000, 3.000000000000000000, 0.000000000000000000 ) ) ;
#2 = CIRCLE ( 'NONE', #132, 35.00000000000000000 ) ;
#3 = ORIENTED_EDGE ( 'NONE', *, *, #206, .F. ) ;
#4 = DIRECTION ( 'NONE',  ( 0.000000000000000000, 0.000000000000000000, 1.000000000000000000 ) ) ;
#5 = CARTESIAN_POINT ( 'NONE',  ( 0.000000000000000000, 9.000000000000001776, 0.000000000000000000 ) ) ;
#6 = ORIENTED_EDGE ( 'NONE', *, *, #249, .F. ) ;
#7 = DIRECTION ( 'NONE',  ( -0.000000000000000000, 1.000000000000000000, -0.000000000000000000 ) ) ;
#8 = AXIS2_PLACEMENT_3D ( 'NONE', #5, #35, #37 ) ;
#9 = CC_DESIGN_APPROVAL ( #356, ( #309 ) ) ;
#10 = EDGE_LOOP ( 'NONE', ( #38, #47 ) ) ;
#11 = PERSON_AND_ORGANIZATION ( #274, #270 ) ;
#12 = DIRECTION ( 'NONE',  ( 0.000000000000000000, 1.000000000000000000, 0.000000000000000000 ) ) ;
#13 = EDGE_CURVE ( 'NONE', #140, #299, #2, .T. ) ;
#14 = APPROVAL_DATE_TIME ( #262, #356 ) ;
#15 = ORIENTED_EDGE ( 'NONE', *, *, #232, .T. ) ;
#16 = EDGE_CURVE ( 'NONE', #265, #43, #79, .T. ) ;
#17 = EDGE_LOOP ( 'NONE', ( #103, #36 ) ) ;
#18 = DIRECTION ( 'NONE',  ( -0.000000000000000000, -1.000000000000000000, -0.000000000000000000 ) ) ;
#19 = ORIENTED_EDGE ( 'NONE', *, *, #16, .T. ) ;
#20 = CARTESIAN_POINT ( 'NONE',  ( 0.000000000000000000, 0.000000000000000000, -35.00000000000000000 ) ) ;
#21 = EDGE_CURVE ( 'NONE', #81, #140, #271, .T. ) ;
#22 = CIRCLE ( 'NONE', #8, 35.00000000000000000 ) ;
#23 = DIRECTION ( 'NONE',  ( 0.000000000000000000, -0.000000000000000000, 1.000000000000000000 ) ) ;
#24 = DIRECTION ( 'NONE',  ( -0.000000000000000000, -1.000000000000000000, -0.000000000000000000 ) ) ;
#25 = DIRECTION ( 'NONE',  ( -0.000000000000000000, 1.000000000000000000, -0.000000000000000000 ) ) ;
#26 = CLOSED_SHELL ( 'NONE', ( #272, #380, #211, #180, #329, #101, #92, #238, #84, #334, #124, #392 ) ) ;
#27 = APPROVAL_DATE_TIME ( #311, #188 ) ;
#28 = CC_DESIGN_DATE_AND_TIME_ASSIGNMENT ( #266, #343, ( #162 ) ) ;
#29 = CYLINDRICAL_SURFACE ( 'NONE', #397, 33.12659406584553068 ) ;
#30 = CARTESIAN_POINT ( 'NONE',  ( 0.000000000000000000, 2.999999999999999112, 33.12659406584553068 ) ) ;
#31 = FACE_BOUND ( 'NONE', #187, .T. ) ;
#32 = EDGE_CURVE ( 'NONE', #265, #372, #273, .T. ) ;
#33 = VECTOR ( 'NONE', #24, 1000.000000000000000 ) ;
#34 = DIRECTION ( 'NONE',  ( -0.000000000000000000, 1.000000000000000000, -0.000000000000000000 ) ) ;
#35 = DIRECTION ( 'NONE',  ( -0.000000000000000000, 1.000000000000000000, -0.000000000000000000 ) ) ;
#36 = ORIENTED_EDGE ( 'NONE', *, *, #176, .T. ) ;
#37 = DIRECTION ( 'NONE',  ( 0.000000000000000000, 0.000000000000000000, 1.000000000000000000 ) ) ;
#38 = ORIENTED_EDGE ( 'NONE', *, *, #163, .T. ) ;
#39 =( NAMED_UNIT ( * ) PLANE_ANGLE_UNIT ( ) SI_UNIT ( $, .RADIAN. ) );
#40 = AXIS2_PLACEMENT_3D ( 'NONE', #350, #351, #69 ) ;
#41 = ORIENTED_EDGE ( 'NONE', *, *, #32, .F. ) ;
#42 = CARTESIAN_POINT ( 'NONE',  ( 0.000000000000000000, 2.999999999999999112, 0.000000000000000000 ) ) ;
#43 = VERTEX_POINT ( 'NONE', #59 ) ;
#44 = APPROVAL_STATUS ( 'not_yet_approved' ) ;
#45 = VERTEX_POINT ( 'NONE', #344 ) ;
#46 = DIRECTION ( 'NONE',  ( 0.000000000000000000, 0.000000000000000000, 1.000000000000000000 ) ) ;
#47 = ORIENTED_EDGE ( 'NONE', *, *, #360, .T. ) ;
#48 = CIRCLE ( 'NONE', #114, 33.12659406584553068 ) ;
#49 = FACE_OUTER_BOUND ( 'NONE', #164, .T. ) ;
#50 = ORIENTED_EDGE ( 'NONE', *, *, #258, .T. ) ;
#51 = APPROVAL_STATUS ( 'not_yet_approved' ) ;
#52 = DIRECTION ( 'NONE',  ( 0.000000000000000000, 1.000000000000000000, 0.000000000000000000 ) ) ;
#53 = APPLICATION_CONTEXT ( 'configuration controlled 3d designs of mechanical parts and assemblies' ) ;
#54 = CARTESIAN_POINT ( 'NONE',  ( 0.000000000000000000, 12.00000000000000000, 0.000000000000000000 ) ) ;
#55 = AXIS2_PLACEMENT_3D ( 'NONE', #318, #290, #387 ) ;
#56 = PLANE ( 'NONE',  #193 ) ;
#57 = EDGE_CURVE ( 'NONE', #325, #97, #161, .T. ) ;
#58 = DIRECTION ( 'NONE',  ( 0.000000000000000000, 1.000000000000000000, 0.000000000000000000 ) ) ;
#59 = CARTESIAN_POINT ( 'NONE',  ( 6.123233995736766282E-16, 12.00000000000000000, 5.000000000000000000 ) ) ;
#60 = CIRCLE ( 'NONE', #363, 33.12659406584553068 ) ;
#61 = CARTESIAN_POINT ( 'NONE',  ( 4.286263797015736496E-15, 12.00000000000000000, 35.00000000000000000 ) ) ;
#62 = DIRECTION ( 'NONE',  ( -0.000000000000000000, -1.000000000000000000, -0.000000000000000000 ) ) ;
#63 = FACE_OUTER_BOUND ( 'NONE', #157, .T. ) ;
#64 = ORIENTED_EDGE ( 'NONE', *, *, #232, .F. ) ;
#65 = AXIS2_PLACEMENT_3D ( 'NONE', #54, #209, #181 ) ;
#66 = CARTESIAN_POINT ( 'NONE',  ( 0.000000000000000000, 2.999999999999999112, 0.000000000000000000 ) ) ;
#67 = ORIENTED_EDGE ( 'NONE', *, *, #176, .F. ) ;
#68 = EDGE_CURVE ( 'NONE', #330, #173, #326, .T. ) ;
#69 = DIRECTION ( 'NONE',  ( 0.000000000000000000, 0.000000000000000000, -1.000000000000000000 ) ) ;
#70 = APPROVAL ( #44, 'UNSPECIFIED' ) ;
#71 = PERSON_AND_ORGANIZATION_ROLE ( 'design_owner' ) ;
#72 = LINE ( 'NONE', #264, #371 ) ;
#73 = EDGE_LOOP ( 'NONE', ( #203, #64 ) ) ;
#74 = ORIENTED_EDGE ( 'NONE', *, *, #249, .T. ) ;
#75 =( NAMED_UNIT ( * ) SI_UNIT ( $, .STERADIAN. ) SOLID_ANGLE_UNIT ( ) );
#76 = ORIENTED_EDGE ( 'NONE', *, *, #68, .F. ) ;
#77 = PERSON_AND_ORGANIZATION_ROLE ( 'creator' ) ;
#78 = ORIENTED_EDGE ( 'NONE', *, *, #163, .F. ) ;
#79 = CIRCLE ( 'NONE', #221, 5.000000000000000000 ) ;
#80 = PERSON_AND_ORGANIZATION ( #274, #270 ) ;
#81 = VERTEX_POINT ( 'NONE', #150 ) ;
#82 = DIRECTION ( 'NONE',  ( -0.000000000000000000, -1.000000000000000000, -0.000000000000000000 ) ) ;
#83 = SHAPE_DEFINITION_REPRESENTATION ( #377, #177 ) ;
#84 = ADVANCED_FACE ( 'NONE', ( #151 ), #338, .F. ) ;
#85 = DIRECTION ( 'NONE',  ( 0.000000000000000000, 1.000000000000000000, 0.000000000000000000 ) ) ;
#86 = VECTOR ( 'NONE', #158, 1000.000000000000000 ) ;
#87 = AXIS2_PLACEMENT_3D ( 'NONE', #1, #129, #250 ) ;
#88 = PERSON_AND_ORGANIZATION_ROLE ( 'design_supplier' ) ;
#89 = FACE_OUTER_BOUND ( 'NONE', #355, .T. ) ;
#90 = CARTESIAN_POINT ( 'NONE',  ( 4.286263797015736496E-15, 2.999999999999999112, 35.00000000000000000 ) ) ;
#91 = FACE_OUTER_BOUND ( 'NONE', #332, .T. ) ;
#92 = ADVANCED_FACE ( 'NONE', ( #342, #404 ), #56, .F. ) ;
#93 = LOCAL_TIME ( 14, 57, 34.00000000000000000, #204 ) ;
#94 = CARTESIAN_POINT ( 'NONE',  ( 0.000000000000000000, 0.000000000000000000, 0.000000000000000000 ) ) ;
#95 = DESIGN_CONTEXT ( 'detailed design', #119, 'design' ) ;
#96 = DIRECTION ( 'NONE',  ( 0.000000000000000000, 1.000000000000000000, 0.000000000000000000 ) ) ;
#97 = VERTEX_POINT ( 'NONE', #212 ) ;
#98 = CARTESIAN_POINT ( 'NONE',  ( 4.056837738939143287E-15, 28.88506671125515979, -33.12659406584553068 ) ) ;
#99 = DIRECTION ( 'NONE',  ( 0.000000000000000000, 0.000000000000000000, 1.000000000000000000 ) ) ;
#100 = VECTOR ( 'NONE', #220, 1000.000000000000000 ) ;
#101 = ADVANCED_FACE ( 'NONE', ( #405, #407 ), #374, .T. ) ;
#102 = CARTESIAN_POINT ( 'NONE',  ( 0.000000000000000000, 12.00000000000000000, 0.000000000000000000 ) ) ;
#103 = ORIENTED_EDGE ( 'NONE', *, *, #142, .T. ) ;
#104 = EDGE_CURVE ( 'NONE', #43, #109, #312, .T. ) ;
#105 = AXIS2_PLACEMENT_3D ( 'NONE', #148, #275, #116 ) ;
#106 = CIRCLE ( 'NONE', #284, 33.12659406584553068 ) ;
#107 = EDGE_LOOP ( 'NONE', ( #50, #296 ) ) ;
#108 = APPLICATION_PROTOCOL_DEFINITION ( 'international standard', 'config_control_design', 1994, #119 ) ;
#109 = VERTEX_POINT ( 'NONE', #241 ) ;
#110 = APPROVAL_STATUS ( 'not_yet_approved' ) ;
#111 = ORIENTED_EDGE ( 'NONE', *, *, #253, .T. ) ;
#112 = MANIFOLD_SOLID_BREP ( 'Cut-Revolve1', #26 ) ;
#113 = ORIENTED_EDGE ( 'NONE', *, *, #229, .T. ) ;
#114 = AXIS2_PLACEMENT_3D ( 'NONE', #346, #25, #381 ) ;
#115 = APPROVAL_PERSON_ORGANIZATION ( #144, #70, #168 ) ;
#116 = DIRECTION ( 'NONE',  ( 0.000000000000000000, 0.000000000000000000, 1.000000000000000000 ) ) ;
#117 = EDGE_CURVE ( 'NONE', #45, #233, #48, .T. ) ;
#118 = CARTESIAN_POINT ( 'NONE',  ( 0.000000000000000000, 12.00000000000000000, 0.000000000000000000 ) ) ;
#119 = APPLICATION_CONTEXT ( 'configuration controlled 3d designs of mechanical parts and assemblies' ) ;
#120 = CARTESIAN_POINT ( 'NONE',  ( 0.000000000000000000, 9.000000000000001776, 33.12659406584553068 ) ) ;
#121 = CIRCLE ( 'NONE', #357, 5.000000000000000000 ) ;
#122 = CARTESIAN_POINT ( 'NONE',  ( 0.000000000000000000, 28.88506671125515979, 0.000000000000000000 ) ) ;
#123 = CARTESIAN_POINT ( 'NONE',  ( 6.123233995736766282E-16, 12.00000000000000000, 5.000000000000000000 ) ) ;
#124 = ADVANCED_FACE ( 'NONE', ( #277 ), #29, .T. ) ;
#125 = CARTESIAN_POINT ( 'NONE',  ( 4.286263797015736496E-15, 0.000000000000000000, 35.00000000000000000 ) ) ;
#126 = ORIENTED_EDGE ( 'NONE', *, *, #314, .T. ) ;
#127 = AXIS2_PLACEMENT_3D ( 'NONE', #239, #406, #243 ) ;
#128 = CC_DESIGN_APPROVAL ( #188, ( #162 ) ) ;
#129 = DIRECTION ( 'NONE',  ( 0.000000000000000000, -1.000000000000000000, 0.000000000000000000 ) ) ;
#130 = LINE ( 'NONE', #247, #100 ) ;
#131 = CYLINDRICAL_SURFACE ( 'NONE', #293, 35.00000000000000000 ) ;
#132 = AXIS2_PLACEMENT_3D ( 'NONE', #166, #366, #267 ) ;
#133 = DIRECTION ( 'NONE',  ( 0.000000000000000000, 0.000000000000000000, 1.000000000000000000 ) ) ;
#134 = LOCAL_TIME ( 14, 57, 34.00000000000000000, #295 ) ;
#135 = ORIENTED_EDGE ( 'NONE', *, *, #314, .F. ) ;
#136 = MECHANICAL_CONTEXT ( 'NONE', #53, 'mechanical' ) ;
#137 = VERTEX_POINT ( 'NONE', #120 ) ;
#138 = CARTESIAN_POINT ( 'NONE',  ( 0.000000000000000000, 0.000000000000000000, 0.000000000000000000 ) ) ;
#139 = CIRCLE ( 'NONE', #248, 5.000000000000000000 ) ;
#140 = VERTEX_POINT ( 'NONE', #20 ) ;
#141 = DIRECTION ( 'NONE',  ( 1.000000000000000000, 0.000000000000000000, 0.000000000000000000 ) ) ;
#142 = EDGE_CURVE ( 'NONE', #372, #109, #139, .T. ) ;
#143 = EDGE_LOOP ( 'NONE', ( #230, #263 ) ) ;
#144 = PERSON_AND_ORGANIZATION ( #274, #270 ) ;
#145 = EDGE_LOOP ( 'NONE', ( #199, #78, #323, #219 ) ) ;
#146 = CARTESIAN_POINT ( 'NONE',  ( 4.286263797015736496E-15, 9.000000000000001776, 35.00000000000000000 ) ) ;
#147 = SECURITY_CLASSIFICATION_LEVEL ( 'unclassified' ) ;
#148 = CARTESIAN_POINT ( 'NONE',  ( 0.000000000000000000, 9.000000000000001776, 0.000000000000000000 ) ) ;
#149 = CARTESIAN_POINT ( 'NONE',  ( 0.000000000000000000, 12.00000000000000000, 0.000000000000000000 ) ) ;
#150 = CARTESIAN_POINT ( 'NONE',  ( 0.000000000000000000, 2.999999999999999112, -35.00000000000000000 ) ) ;
#151 = FACE_OUTER_BOUND ( 'NONE', #302, .T. ) ;
#152 = CARTESIAN_POINT ( 'NONE',  ( 0.000000000000000000, 12.00000000000000000, 0.000000000000000000 ) ) ;
#153 = FACE_OUTER_BOUND ( 'NONE', #10, .T. ) ;
#154 = CIRCLE ( 'NONE', #313, 5.000000000000000000 ) ;
#155 = AXIS2_PLACEMENT_3D ( 'NONE', #358, #62, #322 ) ;
#156 = DIRECTION ( 'NONE',  ( -0.000000000000000000, 1.000000000000000000, -0.000000000000000000 ) ) ;
#157 = EDGE_LOOP ( 'NONE', ( #409, #336, #171, #135 ) ) ;
#158 = DIRECTION ( 'NONE',  ( -0.000000000000000000, -1.000000000000000000, -0.000000000000000000 ) ) ;
#159 = CARTESIAN_POINT ( 'NONE',  ( 4.286263797015736496E-15, 12.00000000000000000, 35.00000000000000000 ) ) ;
#160 = ORIENTED_EDGE ( 'NONE', *, *, #217, .F. ) ;
#161 = CIRCLE ( 'NONE', #182, 35.00000000000000000 ) ;
#162 = SECURITY_CLASSIFICATION ( '', '', #147 ) ;
#163 = EDGE_CURVE ( 'NONE', #81, #197, #278, .T. ) ;
#164 = EDGE_LOOP ( 'NONE', ( #19, #256, #196, #41 ) ) ;
#165 =( LENGTH_UNIT ( ) NAMED_UNIT ( * ) SI_UNIT ( .MILLI., .METRE. ) );
#166 = CARTESIAN_POINT ( 'NONE',  ( 0.000000000000000000, 0.000000000000000000, 0.000000000000000000 ) ) ;
#167 = CC_DESIGN_PERSON_AND_ORGANIZATION_ASSIGNMENT ( #307, #373, ( #162 ) ) ;
#168 = APPROVAL_ROLE ( '' ) ;
#169 = EDGE_LOOP ( 'NONE', ( #352, #113, #394, #370 ) ) ;
#170 = AXIS2_PLACEMENT_3D ( 'NONE', #102, #18, #324 ) ;
#171 = ORIENTED_EDGE ( 'NONE', *, *, #258, .F. ) ;
#172 = CALENDAR_DATE ( 2026, 12, 7 ) ;
#173 = VERTEX_POINT ( 'NONE', #146 ) ;
#174 = DIRECTION ( 'NONE',  ( 0.000000000000000000, -0.000000000000000000, 1.000000000000000000 ) ) ;
#175 = CARTESIAN_POINT ( 'NONE',  ( 0.000000000000000000, 0.000000000000000000, 0.000000000000000000 ) ) ;
#176 = EDGE_CURVE ( 'NONE', #109, #372, #154, .T. ) ;
#177 = ADVANCED_BREP_SHAPE_REPRESENTATION ( 'Pulley70mm_Default_sldprt', ( #112, #202 ), #389 ) ;
#178 = DIRECTION ( 'NONE',  ( 0.000000000000000000, 0.000000000000000000, 1.000000000000000000 ) ) ;
#179 = CARTESIAN_POINT ( 'NONE',  ( 0.000000000000000000, 12.00000000000000000, -35.00000000000000000 ) ) ;
#180 = ADVANCED_FACE ( 'NONE', ( #89 ), #306, .T. ) ;
#181 = DIRECTION ( 'NONE',  ( 0.000000000000000000, 0.000000000000000000, -1.000000000000000000 ) ) ;
#182 = AXIS2_PLACEMENT_3D ( 'NONE', #149, #85, #403 ) ;
#183 = CC_DESIGN_PERSON_AND_ORGANIZATION_ASSIGNMENT ( #375, #337, ( #294 ) ) ;
#184 = DIRECTION ( 'NONE',  ( -0.000000000000000000, 1.000000000000000000, -0.000000000000000000 ) ) ;
#185 = CARTESIAN_POINT ( 'NONE',  ( 0.000000000000000000, 9.000000000000001776, -35.00000000000000000 ) ) ;
#186 = CARTESIAN_POINT ( 'NONE',  ( 0.000000000000000000, 9.000000000000001776, 0.000000000000000000 ) ) ;
#187 = EDGE_LOOP ( 'NONE', ( #399, #285 ) ) ;
#188 = APPROVAL ( #51, 'UNSPECIFIED' ) ;
#189 = AXIS2_PLACEMENT_3D ( 'NONE', #42, #192, #46 ) ;
#190 = FACE_OUTER_BOUND ( 'NONE', #169, .T. ) ;
#191 = CARTESIAN_POINT ( 'NONE',  ( 0.000000000000000000, 12.00000000000000000, -5.000000000000000000 ) ) ;
#192 = DIRECTION ( 'NONE',  ( -0.000000000000000000, 1.000000000000000000, -0.000000000000000000 ) ) ;
#193 = AXIS2_PLACEMENT_3D ( 'NONE', #280, #58, #174 ) ;
#194 = CC_DESIGN_PERSON_AND_ORGANIZATION_ASSIGNMENT ( #80, #88, ( #294 ) ) ;
#195 = DATE_AND_TIME ( #225, #236 ) ;
#196 = ORIENTED_EDGE ( 'NONE', *, *, #142, .F. ) ;
#197 = VERTEX_POINT ( 'NONE', #90 ) ;
#198 = CARTESIAN_POINT ( 'NONE',  ( 4.056837738939143287E-15, 9.000000000000001776, -33.12659406584553068 ) ) ;
#199 = ORIENTED_EDGE ( 'NONE', *, *, #253, .F. ) ;
#200 = PRODUCT_RELATED_PRODUCT_CATEGORY ( 'detail', '', ( #354 ) ) ;
#201 = PERSON_AND_ORGANIZATION ( #274, #270 ) ;
#202 = AXIS2_PLACEMENT_3D ( 'NONE', #138, #224, #141 ) ;
#203 = ORIENTED_EDGE ( 'NONE', *, *, #13, .F. ) ;
#204 = COORDINATED_UNIVERSAL_TIME_OFFSET ( 3, 30, .AHEAD. ) ;
#205 = DIRECTION ( 'NONE',  ( -0.000000000000000000, 1.000000000000000000, -0.000000000000000000 ) ) ;
#206 = EDGE_CURVE ( 'NONE', #173, #330, #22, .T. ) ;
#207 = DIRECTION ( 'NONE',  ( 0.000000000000000000, 0.000000000000000000, 1.000000000000000000 ) ) ;
#208 = PERSON_AND_ORGANIZATION ( #274, #270 ) ;
#209 = DIRECTION ( 'NONE',  ( -0.000000000000000000, -1.000000000000000000, -0.000000000000000000 ) ) ;
#210 = CARTESIAN_POINT ( 'NONE',  ( 0.000000000000000000, 12.00000000000000000, 0.000000000000000000 ) ) ;
#211 = ADVANCED_FACE ( 'NONE', ( #190 ), #131, .T. ) ;
#212 = CARTESIAN_POINT ( 'NONE',  ( 0.000000000000000000, 12.00000000000000000, -35.00000000000000000 ) ) ;
#213 = CARTESIAN_POINT ( 'NONE',  ( 0.000000000000000000, 9.000000000000001776, 0.000000000000000000 ) ) ;
#214 = CIRCLE ( 'NONE', #55, 35.00000000000000000 ) ;
#215 = APPROVAL_PERSON_ORGANIZATION ( #208, #188, #269 ) ;
#216 = FACE_OUTER_BOUND ( 'NONE', #145, .T. ) ;
#217 = EDGE_CURVE ( 'NONE', #400, #137, #60, .T. ) ;
#218 = DIRECTION ( 'NONE',  ( 0.000000000000000000, 0.000000000000000000, 1.000000000000000000 ) ) ;
#219 = ORIENTED_EDGE ( 'NONE', *, *, #13, .T. ) ;
#220 = DIRECTION ( 'NONE',  ( -0.000000000000000000, 1.000000000000000000, -0.000000000000000000 ) ) ;
#221 = AXIS2_PLACEMENT_3D ( 'NONE', #237, #12, #308 ) ;
#222 = CIRCLE ( 'NONE', #319, 33.12659406584553068 ) ;
#223 = CYLINDRICAL_SURFACE ( 'NONE', #155, 35.00000000000000000 ) ;
#224 = DIRECTION ( 'NONE',  ( 0.000000000000000000, 0.000000000000000000, 1.000000000000000000 ) ) ;
#225 = CALENDAR_DATE ( 2026, 12, 7 ) ;
#226 = ORIENTED_EDGE ( 'NONE', *, *, #268, .F. ) ;
#227 = PLANE ( 'NONE',  #384 ) ;
#228 = AXIS2_PLACEMENT_3D ( 'NONE', #281, #7, #408 ) ;
#229 = EDGE_CURVE ( 'NONE', #325, #173, #385, .T. ) ;
#230 = ORIENTED_EDGE ( 'NONE', *, *, #16, .F. ) ;
#231 = DIRECTION ( 'NONE',  ( -0.000000000000000000, 1.000000000000000000, 0.000000000000000000 ) ) ;
#232 = EDGE_CURVE ( 'NONE', #299, #140, #348, .T. ) ;
#233 = VERTEX_POINT ( 'NONE', #30 ) ;
#234 = PERSON_AND_ORGANIZATION ( #274, #270 ) ;
#235 = ORIENTED_EDGE ( 'NONE', *, *, #32, .T. ) ;
#236 = LOCAL_TIME ( 14, 57, 34.00000000000000000, #393 ) ;
#237 = CARTESIAN_POINT ( 'NONE',  ( 0.000000000000000000, 12.00000000000000000, 0.000000000000000000 ) ) ;
#238 = ADVANCED_FACE ( 'NONE', ( #91 ), #347, .T. ) ;
#239 = CARTESIAN_POINT ( 'NONE',  ( 0.000000000000000000, 2.999999999999999112, 0.000000000000000000 ) ) ;
#240 = CALENDAR_DATE ( 2026, 12, 7 ) ;
#241 = CARTESIAN_POINT ( 'NONE',  ( 6.123233995736766282E-16, 0.000000000000000000, 5.000000000000000000 ) ) ;
#242 = APPROVAL_DATE_TIME ( #390, #70 ) ;
#243 = DIRECTION ( 'NONE',  ( 0.000000000000000000, 0.000000000000000000, 1.000000000000000000 ) ) ;
#244 = VECTOR ( 'NONE', #184, 1000.000000000000000 ) ;
#245 = DIRECTION ( 'NONE',  ( 0.000000000000000000, 0.000000000000000000, -1.000000000000000000 ) ) ;
#246 = CARTESIAN_POINT ( 'NONE',  ( 0.000000000000000000, 12.00000000000000000, -5.000000000000000000 ) ) ;
#247 = CARTESIAN_POINT ( 'NONE',  ( 0.000000000000000000, 28.88506671125515979, 33.12659406584553068 ) ) ;
#248 = AXIS2_PLACEMENT_3D ( 'NONE', #303, #52, #376 ) ;
#249 = EDGE_CURVE ( 'NONE', #97, #325, #214, .T. ) ;
#250 = DIRECTION ( 'NONE',  ( 0.000000000000000000, -0.000000000000000000, -1.000000000000000000 ) ) ;
#251 = CARTESIAN_POINT ( 'NONE',  ( 0.000000000000000000, 12.00000000000000000, 0.000000000000000000 ) ) ;
#252 = DIRECTION ( 'NONE',  ( 0.000000000000000000, 0.000000000000000000, -1.000000000000000000 ) ) ;
#253 = EDGE_CURVE ( 'NONE', #197, #299, #291, .T. ) ;
#254 = VECTOR ( 'NONE', #379, 1000.000000000000000 ) ;
#255 = DIRECTION ( 'NONE',  ( -0.000000000000000000, 1.000000000000000000, -0.000000000000000000 ) ) ;
#256 = ORIENTED_EDGE ( 'NONE', *, *, #104, .T. ) ;
#257 = EDGE_LOOP ( 'NONE', ( #76, #3 ) ) ;
#258 = EDGE_CURVE ( 'NONE', #137, #400, #106, .T. ) ;
#259 = DIRECTION ( 'NONE',  ( -0.000000000000000000, -1.000000000000000000, -0.000000000000000000 ) ) ;
#260 = EDGE_LOOP ( 'NONE', ( #74, #396 ) ) ;
#261 = CC_DESIGN_DATE_AND_TIME_ASSIGNMENT ( #195, #331, ( #309 ) ) ;
#262 = DATE_AND_TIME ( #172, #134 ) ;
#263 = ORIENTED_EDGE ( 'NONE', *, *, #320, .F. ) ;
#264 = CARTESIAN_POINT ( 'NONE',  ( 0.000000000000000000, 12.00000000000000000, -35.00000000000000000 ) ) ;
#265 = VERTEX_POINT ( 'NONE', #191 ) ;
#266 = DATE_AND_TIME ( #240, #93 ) ;
#267 = DIRECTION ( 'NONE',  ( 0.000000000000000000, 0.000000000000000000, 1.000000000000000000 ) ) ;
#268 = EDGE_CURVE ( 'NONE', #45, #400, #316, .T. ) ;
#269 = APPROVAL_ROLE ( '' ) ;
#270 = ORGANIZATION ( 'UNSPECIFIED', 'UNSPECIFIED', '' ) ;
#271 = LINE ( 'NONE', #179, #254 ) ;
#272 = ADVANCED_FACE ( 'NONE', ( #63 ), #388, .T. ) ;
#273 = LINE ( 'NONE', #246, #33 ) ;
#274 = PERSON ( 'UNSPECIFIED', 'UNSPECIFIED', 'UNSPECIFIED', ('UNSPECIFIED'), ('UNSPECIFIED'), ('UNSPECIFIED') ) ;
#275 = DIRECTION ( 'NONE',  ( -0.000000000000000000, 1.000000000000000000, -0.000000000000000000 ) ) ;
#276 = CC_DESIGN_PERSON_AND_ORGANIZATION_ASSIGNMENT ( #234, #77, ( #309 ) ) ;
#277 = FACE_OUTER_BOUND ( 'NONE', #301, .T. ) ;
#278 = CIRCLE ( 'NONE', #127, 35.00000000000000000 ) ;
#279 = LOCAL_TIME ( 14, 57, 34.00000000000000000, #341 ) ;
#280 = CARTESIAN_POINT ( 'NONE',  ( 0.000000000000000000, 0.000000000000000000, 0.000000000000000000 ) ) ;
#281 = CARTESIAN_POINT ( 'NONE',  ( 0.000000000000000000, 28.88506671125515979, 0.000000000000000000 ) ) ;
#282 = EDGE_CURVE ( 'NONE', #233, #45, #222, .T. ) ;
#283 = PLANE ( 'NONE',  #87 ) ;
#284 = AXIS2_PLACEMENT_3D ( 'NONE', #186, #156, #133 ) ;
#285 = ORIENTED_EDGE ( 'NONE', *, *, #117, .F. ) ;
#286 = VECTOR ( 'NONE', #315, 1000.000000000000000 ) ;
#287 = CC_DESIGN_PERSON_AND_ORGANIZATION_ASSIGNMENT ( #201, #71, ( #354 ) ) ;
#288 = CIRCLE ( 'NONE', #189, 35.00000000000000000 ) ;
#289 = DIRECTION ( 'NONE',  ( -0.000000000000000000, -1.000000000000000000, -0.000000000000000000 ) ) ;
#290 = DIRECTION ( 'NONE',  ( 0.000000000000000000, 1.000000000000000000, 0.000000000000000000 ) ) ;
#291 = LINE ( 'NONE', #61, #286 ) ;
#292 = ORIENTED_EDGE ( 'NONE', *, *, #68, .T. ) ;
#293 = AXIS2_PLACEMENT_3D ( 'NONE', #152, #289, #252 ) ;
#294 = PRODUCT_DEFINITION_FORMATION_WITH_SPECIFIED_SOURCE ( 'ANY', '', #354, .NOT_KNOWN. ) ;
#295 = COORDINATED_UNIVERSAL_TIME_OFFSET ( 3, 30, .AHEAD. ) ;
#296 = ORIENTED_EDGE ( 'NONE', *, *, #217, .T. ) ;
#297 = ORIENTED_EDGE ( 'NONE', *, *, #360, .F. ) ;
#298 = COORDINATED_UNIVERSAL_TIME_OFFSET ( 3, 30, .AHEAD. ) ;
#299 = VERTEX_POINT ( 'NONE', #125 ) ;
#300 = AXIS2_PLACEMENT_3D ( 'NONE', #118, #310, #23 ) ;
#301 = EDGE_LOOP ( 'NONE', ( #226, #368, #126, #160 ) ) ;
#302 = EDGE_LOOP ( 'NONE', ( #401, #391, #235, #67 ) ) ;
#303 = CARTESIAN_POINT ( 'NONE',  ( 0.000000000000000000, 0.000000000000000000, 0.000000000000000000 ) ) ;
#304 = AXIS2_PLACEMENT_3D ( 'NONE', #210, #339, #245 ) ;
#305 = LOCAL_TIME ( 14, 57, 34.00000000000000000, #298 ) ;
#306 = CYLINDRICAL_SURFACE ( 'NONE', #304, 35.00000000000000000 ) ;
#307 = PERSON_AND_ORGANIZATION ( #274, #270 ) ;
#308 = DIRECTION ( 'NONE',  ( 0.000000000000000000, 0.000000000000000000, 1.000000000000000000 ) ) ;
#309 = PRODUCT_DEFINITION ( 'UNKNOWN', '', #294, #95 ) ;
#310 = DIRECTION ( 'NONE',  ( 0.000000000000000000, 1.000000000000000000, 0.000000000000000000 ) ) ;
#311 = DATE_AND_TIME ( #345, #279 ) ;
#312 = LINE ( 'NONE', #123, #340 ) ;
#313 = AXIS2_PLACEMENT_3D ( 'NONE', #175, #378, #207 ) ;
#314 = EDGE_CURVE ( 'NONE', #233, #137, #130, .T. ) ;
#315 = DIRECTION ( 'NONE',  ( -0.000000000000000000, -1.000000000000000000, -0.000000000000000000 ) ) ;
#316 = LINE ( 'NONE', #98, #244 ) ;
#317 = ORIENTED_EDGE ( 'NONE', *, *, #229, .F. ) ;
#318 = CARTESIAN_POINT ( 'NONE',  ( 0.000000000000000000, 12.00000000000000000, 0.000000000000000000 ) ) ;
#319 = AXIS2_PLACEMENT_3D ( 'NONE', #66, #34, #4 ) ;
#320 = EDGE_CURVE ( 'NONE', #43, #265, #121, .T. ) ;
#321 = DIRECTION ( 'NONE',  ( 0.000000000000000000, 0.000000000000000000, 1.000000000000000000 ) ) ;
#322 = DIRECTION ( 'NONE',  ( 0.000000000000000000, 0.000000000000000000, -1.000000000000000000 ) ) ;
#323 = ORIENTED_EDGE ( 'NONE', *, *, #21, .T. ) ;
#324 = DIRECTION ( 'NONE',  ( 0.000000000000000000, 0.000000000000000000, -1.000000000000000000 ) ) ;
#325 = VERTEX_POINT ( 'NONE', #383 ) ;
#326 = CIRCLE ( 'NONE', #105, 35.00000000000000000 ) ;
#327 = APPROVAL_PERSON_ORGANIZATION ( #11, #356, #367 ) ;
#328 = FACE_BOUND ( 'NONE', #107, .T. ) ;
#329 = ADVANCED_FACE ( 'NONE', ( #216 ), #223, .T. ) ;
#330 = VERTEX_POINT ( 'NONE', #185 ) ;
#331 = DATE_TIME_ROLE ( 'creation_date' ) ;
#332 = EDGE_LOOP ( 'NONE', ( #317, #6, #333, #292 ) ) ;
#333 = ORIENTED_EDGE ( 'NONE', *, *, #386, .T. ) ;
#334 = ADVANCED_FACE ( 'NONE', ( #31, #153 ), #283, .F. ) ;
#335 = CARTESIAN_POINT ( 'NONE',  ( -35.00000000000000000, 9.000000000000001776, 0.000000000000000000 ) ) ;
#336 = ORIENTED_EDGE ( 'NONE', *, *, #268, .T. ) ;
#337 = PERSON_AND_ORGANIZATION_ROLE ( 'creator' ) ;
#338 = CYLINDRICAL_SURFACE ( 'NONE', #65, 5.000000000000000000 ) ;
#339 = DIRECTION ( 'NONE',  ( -0.000000000000000000, -1.000000000000000000, -0.000000000000000000 ) ) ;
#340 = VECTOR ( 'NONE', #82, 1000.000000000000000 ) ;
#341 = COORDINATED_UNIVERSAL_TIME_OFFSET ( 3, 30, .AHEAD. ) ;
#342 = FACE_OUTER_BOUND ( 'NONE', #73, .T. ) ;
#343 = DATE_TIME_ROLE ( 'classification_date' ) ;
#344 = CARTESIAN_POINT ( 'NONE',  ( 4.056837738939143287E-15, 2.999999999999999112, -33.12659406584553068 ) ) ;
#345 = CALENDAR_DATE ( 2026, 12, 7 ) ;
#346 = CARTESIAN_POINT ( 'NONE',  ( 0.000000000000000000, 2.999999999999999112, 0.000000000000000000 ) ) ;
#347 = CYLINDRICAL_SURFACE ( 'NONE', #40, 35.00000000000000000 ) ;
#348 = CIRCLE ( 'NONE', #402, 35.00000000000000000 ) ;
#349 = CC_DESIGN_APPROVAL ( #70, ( #294 ) ) ;
#350 = CARTESIAN_POINT ( 'NONE',  ( 0.000000000000000000, 12.00000000000000000, 0.000000000000000000 ) ) ;
#351 = DIRECTION ( 'NONE',  ( -0.000000000000000000, -1.000000000000000000, -0.000000000000000000 ) ) ;
#352 = ORIENTED_EDGE ( 'NONE', *, *, #57, .F. ) ;
#353 = DIRECTION ( 'NONE',  ( 0.000000000000000000, 1.000000000000000000, 0.000000000000000000 ) ) ;
#354 = PRODUCT ( 'Pulley70mm_Default_sldprt', 'Pulley70mm_Default_sldprt', '', ( #136 ) ) ;
#355 = EDGE_LOOP ( 'NONE', ( #297, #111, #15, #362 ) ) ;
#356 = APPROVAL ( #110, 'UNSPECIFIED' ) ;
#357 = AXIS2_PLACEMENT_3D ( 'NONE', #251, #353, #99 ) ;
#358 = CARTESIAN_POINT ( 'NONE',  ( 0.000000000000000000, 12.00000000000000000, 0.000000000000000000 ) ) ;
#359 = DIRECTION ( 'NONE',  ( 0.000000000000000000, 0.000000000000000000, 1.000000000000000000 ) ) ;
#360 = EDGE_CURVE ( 'NONE', #197, #81, #288, .T. ) ;
#361 = APPLICATION_PROTOCOL_DEFINITION ( 'international standard', 'config_control_design', 1994, #53 ) ;
#362 = ORIENTED_EDGE ( 'NONE', *, *, #21, .F. ) ;
#363 = AXIS2_PLACEMENT_3D ( 'NONE', #213, #255, #321 ) ;
#364 = CC_DESIGN_SECURITY_CLASSIFICATION ( #162, ( #294 ) ) ;
#365 = CARTESIAN_POINT ( 'NONE',  ( 0.000000000000000000, 0.000000000000000000, -5.000000000000000000 ) ) ;
#366 = DIRECTION ( 'NONE',  ( 0.000000000000000000, 1.000000000000000000, 0.000000000000000000 ) ) ;
#367 = APPROVAL_ROLE ( '' ) ;
#368 = ORIENTED_EDGE ( 'NONE', *, *, #117, .T. ) ;
#369 = CYLINDRICAL_SURFACE ( 'NONE', #170, 5.000000000000000000 ) ;
#370 = ORIENTED_EDGE ( 'NONE', *, *, #386, .F. ) ;
#371 = VECTOR ( 'NONE', #259, 1000.000000000000000 ) ;
#372 = VERTEX_POINT ( 'NONE', #365 ) ;
#373 = PERSON_AND_ORGANIZATION_ROLE ( 'classification_officer' ) ;
#374 = PLANE ( 'NONE',  #300 ) ;
#375 = PERSON_AND_ORGANIZATION ( #274, #270 ) ;
#376 = DIRECTION ( 'NONE',  ( 0.000000000000000000, 0.000000000000000000, 1.000000000000000000 ) ) ;
#377 = PRODUCT_DEFINITION_SHAPE ( 'NONE', 'NONE',  #309 ) ;
#378 = DIRECTION ( 'NONE',  ( 0.000000000000000000, 1.000000000000000000, 0.000000000000000000 ) ) ;
#379 = DIRECTION ( 'NONE',  ( -0.000000000000000000, -1.000000000000000000, -0.000000000000000000 ) ) ;
#380 = ADVANCED_FACE ( 'NONE', ( #49 ), #369, .F. ) ;
#381 = DIRECTION ( 'NONE',  ( 0.000000000000000000, 0.000000000000000000, 1.000000000000000000 ) ) ;
#382 = UNCERTAINTY_MEASURE_WITH_UNIT (LENGTH_MEASURE( 1.000000000000000082E-05 ), #165, 'distance_accuracy_value', 'NONE');
#383 = CARTESIAN_POINT ( 'NONE',  ( 4.286263797015736496E-15, 12.00000000000000000, 35.00000000000000000 ) ) ;
#384 = AXIS2_PLACEMENT_3D ( 'NONE', #335, #231, #359 ) ;
#385 = LINE ( 'NONE', #159, #86 ) ;
#386 = EDGE_CURVE ( 'NONE', #97, #330, #72, .T. ) ;
#387 = DIRECTION ( 'NONE',  ( 0.000000000000000000, 0.000000000000000000, 1.000000000000000000 ) ) ;
#388 = CYLINDRICAL_SURFACE ( 'NONE', #228, 33.12659406584553068 ) ;
#389 =( GEOMETRIC_REPRESENTATION_CONTEXT ( 3 ) GLOBAL_UNCERTAINTY_ASSIGNED_CONTEXT ( ( #382 ) ) GLOBAL_UNIT_ASSIGNED_CONTEXT ( ( #165, #39, #75 ) ) REPRESENTATION_CONTEXT ( 'NONE', 'WORKASPACE' ) );
#390 = DATE_AND_TIME ( #398, #305 ) ;
#391 = ORIENTED_EDGE ( 'NONE', *, *, #320, .T. ) ;
#392 = ADVANCED_FACE ( 'NONE', ( #395, #328 ), #227, .F. ) ;
#393 = COORDINATED_UNIVERSAL_TIME_OFFSET ( 3, 30, .AHEAD. ) ;
#394 = ORIENTED_EDGE ( 'NONE', *, *, #206, .T. ) ;
#395 = FACE_OUTER_BOUND ( 'NONE', #257, .T. ) ;
#396 = ORIENTED_EDGE ( 'NONE', *, *, #57, .T. ) ;
#397 = AXIS2_PLACEMENT_3D ( 'NONE', #122, #205, #178 ) ;
#398 = CALENDAR_DATE ( 2026, 12, 7 ) ;
#399 = ORIENTED_EDGE ( 'NONE', *, *, #282, .F. ) ;
#400 = VERTEX_POINT ( 'NONE', #198 ) ;
#401 = ORIENTED_EDGE ( 'NONE', *, *, #104, .F. ) ;
#402 = AXIS2_PLACEMENT_3D ( 'NONE', #94, #96, #218 ) ;
#403 = DIRECTION ( 'NONE',  ( 0.000000000000000000, 0.000000000000000000, 1.000000000000000000 ) ) ;
#404 = FACE_BOUND ( 'NONE', #17, .T. ) ;
#405 = FACE_OUTER_BOUND ( 'NONE', #260, .T. ) ;
#406 = DIRECTION ( 'NONE',  ( -0.000000000000000000, 1.000000000000000000, -0.000000000000000000 ) ) ;
#407 = FACE_BOUND ( 'NONE', #143, .T. ) ;
#408 = DIRECTION ( 'NONE',  ( 0.000000000000000000, 0.000000000000000000, 1.000000000000000000 ) ) ;
#409 = ORIENTED_EDGE ( 'NONE', *, *, #282, .T. ) ;
ENDSEC;
END-ISO-10303-21;
