ISO-10303-21;
HEADER;
FILE_DESCRIPTION (( 'STEP AP203' ),
    '1' );
FILE_NAME ('angular contact ball bearing_68_din_DIN 628 - 7201B - 8-SI-NC-8_68_sldprt.STEP',
    '2026-07-23T12:35:23',
    ( '' ),
    ( '' ),
    'SwSTEP 2.0',
    'SolidWorks 2025',
    '' );
FILE_SCHEMA (( 'CONFIG_CONTROL_DESIGN' ));
ENDSEC;

DATA;
#1 = DIRECTION ( 'NONE',  ( -0.000000000000000000, 0.000000000000000000, 1.000000000000000000 ) ) ;
#2 = TOROIDAL_SURFACE ( 'NONE', #480, 11.00000000000000000, 3.000000000000000444 ) ;
#3 = CIRCLE ( 'NONE', #132, 8.024999999999996803 ) ;
#4 = EDGE_LOOP ( 'NONE', ( #118, #24, #738, #355 ) ) ;
#5 = CARTESIAN_POINT ( 'NONE',  ( -4.399999999999999467, 0.000000000000000000, -6.599999999999999645 ) ) ;
#6 = EDGE_CURVE ( 'NONE', #418, #679, #603, .T. ) ;
#7 = DIRECTION ( 'NONE',  ( 1.000000000000000000, 0.000000000000000000, 0.000000000000000000 ) ) ;
#8 = ORIENTED_EDGE ( 'NONE', *, *, #629, .F. ) ;
#9 = CYLINDRICAL_SURFACE ( 'NONE', #622, 9.500000000000000000 ) ;
#10 = DIRECTION ( 'NONE',  ( 0.000000000000000000, 0.000000000000000000, -1.000000000000000000 ) ) ;
#11 = ADVANCED_FACE ( 'NONE', ( #764 ), #261, .T. ) ;
#12 = ORIENTED_EDGE ( 'NONE', *, *, #127, .T. ) ;
#13 = DIRECTION ( 'NONE',  ( 1.000000000000000000, 0.000000000000000000, 0.000000000000000000 ) ) ;
#14 = LINE ( 'NONE', #317, #493 ) ;
#15 = AXIS2_PLACEMENT_3D ( 'NONE', #491, #744, #431 ) ;
#16 = CARTESIAN_POINT ( 'NONE',  ( -5.000000000000000888, 13.97499999999999964, 0.000000000000000000 ) ) ;
#17 = AXIS2_PLACEMENT_3D ( 'NONE', #580, #631, #146 ) ;
#18 = EDGE_LOOP ( 'NONE', ( #521, #96 ) ) ;
#19 = VECTOR ( 'NONE', #13, 1000.000000000000000 ) ;
#20 = PERSON_AND_ORGANIZATION ( #496, #379 ) ;
#21 = EDGE_CURVE ( 'NONE', #403, #186, #381, .T. ) ;
#22 = DIRECTION ( 'NONE',  ( 0.000000000000000000, -1.000000000000000000, 0.000000000000000000 ) ) ;
#23 = CARTESIAN_POINT ( 'NONE',  ( 2.598076211353315568, 1.530808498934191521E-15, -12.50000000000000000 ) ) ;
#24 = ORIENTED_EDGE ( 'NONE', *, *, #747, .T. ) ;
#25 = DIRECTION ( 'NONE',  ( 1.000000000000000000, 0.000000000000000000, 0.000000000000000000 ) ) ;
#26 = CARTESIAN_POINT ( 'NONE',  ( 5.000000000000000888, 1.922695474661344271E-15, 15.40000000000000036 ) ) ;
#27 = DIRECTION ( 'NONE',  ( 0.000000000000000000, 1.000000000000000000, -1.224646799147353207E-16 ) ) ;
#28 = DIRECTION ( 'NONE',  ( 1.000000000000000000, 0.000000000000000000, 0.000000000000000000 ) ) ;
#29 = DIRECTION ( 'NONE',  ( 1.000000000000000000, 0.000000000000000000, 0.000000000000000000 ) ) ;
#30 = FACE_BOUND ( 'NONE', #426, .T. ) ;
#31 = EDGE_CURVE ( 'NONE', #90, #557, #609, .T. ) ;
#32 = CIRCLE ( 'NONE', #492, 13.97499999999999964 ) ;
#33 = ORIENTED_EDGE ( 'NONE', *, *, #668, .T. ) ;
#34 = DIRECTION ( 'NONE',  ( 0.000000000000000000, 0.000000000000000000, -1.000000000000000000 ) ) ;
#35 = CIRCLE ( 'NONE', #149, 0.5999999999999998668 ) ;
#36 = PRODUCT_DEFINITION_FORMATION_WITH_SPECIFIED_SOURCE ( 'ANY', '', #173, .NOT_KNOWN. ) ;
#37 = FACE_OUTER_BOUND ( 'NONE', #718, .T. ) ;
#38 = EDGE_CURVE ( 'NONE', #557, #802, #529, .T. ) ;
#39 = EDGE_LOOP ( 'NONE', ( #754, #644 ) ) ;
#40 = PERSON_AND_ORGANIZATION ( #496, #379 ) ;
#41 = VERTEX_POINT ( 'NONE', #450 ) ;
#42 = DIRECTION ( 'NONE',  ( 0.000000000000000000, 0.000000000000000000, -1.000000000000000000 ) ) ;
#43 = ORIENTED_EDGE ( 'NONE', *, *, #793, .F. ) ;
#44 = APPROVAL_DATE_TIME ( #478, #488 ) ;
#45 = TOROIDAL_SURFACE ( 'NONE', #516, 11.00000000000000000, 3.000000000000000444 ) ;
#46 = EDGE_CURVE ( 'NONE', #750, #569, #467, .T. ) ;
#47 = CC_DESIGN_APPROVAL ( #584, ( #541 ) ) ;
#48 = ORIENTED_EDGE ( 'NONE', *, *, #685, .F. ) ;
#49 = FACE_OUTER_BOUND ( 'NONE', #722, .T. ) ;
#50 = CARTESIAN_POINT ( 'NONE',  ( -4.399999999999997691, 0.000000000000000000, 0.000000000000000000 ) ) ;
#51 = ORIENTED_EDGE ( 'NONE', *, *, #782, .T. ) ;
#52 = CARTESIAN_POINT ( 'NONE',  ( -20.63749999999999574, 0.000000000000000000, -13.97499999999999964 ) ) ;
#53 = LINE ( 'NONE', #188, #632 ) ;
#54 = ADVANCED_FACE ( 'NONE', ( #457, #769 ), #388, .T. ) ;
#55 = ORIENTED_EDGE ( 'NONE', *, *, #451, .F. ) ;
#56 = CIRCLE ( 'NONE', #256, 5.999999999999999112 ) ;
#57 = DIRECTION ( 'NONE',  ( 0.000000000000000000, 1.224646799147352961E-16, 1.000000000000000000 ) ) ;
#58 = DIRECTION ( 'NONE',  ( 0.000000000000000000, 0.000000000000000000, -1.000000000000000000 ) ) ;
#59 = ORIENTED_EDGE ( 'NONE', *, *, #626, .F. ) ;
#60 = DIRECTION ( 'NONE',  ( 1.000000000000000000, 0.000000000000000000, 0.000000000000000000 ) ) ;
#61 = FACE_OUTER_BOUND ( 'NONE', #18, .T. ) ;
#62 = ORIENTED_EDGE ( 'NONE', *, *, #38, .F. ) ;
#63 = EDGE_CURVE ( 'NONE', #341, #242, #377, .T. ) ;
#64 = CARTESIAN_POINT ( 'NONE',  ( 5.000000000000000888, 0.000000000000000000, -6.599999999999999645 ) ) ;
#65 = TOROIDAL_SURFACE ( 'NONE', #177, 15.40000000000000036, 0.6000000000000007550 ) ;
#66 = AXIS2_PLACEMENT_3D ( 'NONE', #412, #483, #781 ) ;
#67 = DIRECTION ( 'NONE',  ( 0.000000000000000000, 0.000000000000000000, -1.000000000000000000 ) ) ;
#68 = LOCAL_TIME ( 16, 5, 23.00000000000000000, #673 ) ;
#69 = ORIENTED_EDGE ( 'NONE', *, *, #86, .T. ) ;
#70 = CARTESIAN_POINT ( 'NONE',  ( -20.63749999999999574, 0.000000000000000000, -12.50000000000000000 ) ) ;
#71 = ADVANCED_FACE ( 'NONE', ( #697 ), #211, .F. ) ;
#72 = DIRECTION ( 'NONE',  ( -0.000000000000000000, 1.000000000000000000, 1.224646799147353207E-16 ) ) ;
#73 = CARTESIAN_POINT ( 'NONE',  ( 5.000000000000000888, 1.530808498934191521E-15, 12.50000000000000000 ) ) ;
#74 = DIRECTION ( 'NONE',  ( 0.000000000000000000, 1.224646799147353207E-16, 1.000000000000000000 ) ) ;
#75 = DIRECTION ( 'NONE',  ( 0.000000000000000000, 0.000000000000000000, -1.000000000000000000 ) ) ;
#76 = EDGE_CURVE ( 'NONE', #679, #112, #445, .T. ) ;
#77 = ORIENTED_EDGE ( 'NONE', *, *, #76, .F. ) ;
#78 = PERSON_AND_ORGANIZATION ( #496, #379 ) ;
#79 = CARTESIAN_POINT ( 'NONE',  ( -2.598076211353316900, 1.163414459189985485E-15, 9.500000000000000000 ) ) ;
#80 = AXIS2_PLACEMENT_3D ( 'NONE', #614, #686, #249 ) ;
#81 = DIRECTION ( 'NONE',  ( 0.000000000000000000, 0.000000000000000000, 1.000000000000000000 ) ) ;
#82 = CIRCLE ( 'NONE', #505, 13.97499999999999964 ) ;
#83 = ORIENTED_EDGE ( 'NONE', *, *, #99, .T. ) ;
#84 = CIRCLE ( 'NONE', #650, 6.599999999999999645 ) ;
#85 = CARTESIAN_POINT ( 'NONE',  ( -5.000000000000000888, 0.000000000000000000, 0.000000000000000000 ) ) ;
#86 = EDGE_CURVE ( 'NONE', #607, #659, #768, .T. ) ;
#87 = DIRECTION ( 'NONE',  ( 0.000000000000000000, 0.000000000000000000, -1.000000000000000000 ) ) ;
#88 = AXIS2_PLACEMENT_3D ( 'NONE', #453, #27, #321 ) ;
#89 = DIRECTION ( 'NONE',  ( 0.000000000000000000, -1.000000000000000000, 0.000000000000000000 ) ) ;
#90 = VERTEX_POINT ( 'NONE', #23 ) ;
#91 = CARTESIAN_POINT ( 'NONE',  ( 2.598076211353315568, 0.000000000000000000, 12.50000000000000000 ) ) ;
#92 = EDGE_LOOP ( 'NONE', ( #55, #263, #83, #485 ) ) ;
#93 = CARTESIAN_POINT ( 'NONE',  ( -20.63749999999999929, 0.000000000000000000, -8.024999999999996803 ) ) ;
#94 = DIRECTION ( 'NONE',  ( 1.000000000000000000, 0.000000000000000000, 0.000000000000000000 ) ) ;
#95 = VECTOR ( 'NONE', #749, 1000.000000000000000 ) ;
#96 = ORIENTED_EDGE ( 'NONE', *, *, #63, .F. ) ;
#97 = AXIS2_PLACEMENT_3D ( 'NONE', #419, #105, #613 ) ;
#98 = CYLINDRICAL_SURFACE ( 'NONE', #257, 5.999999999999999112 ) ;
#99 = EDGE_CURVE ( 'NONE', #242, #659, #652, .T. ) ;
#100 = ORIENTED_EDGE ( 'NONE', *, *, #805, .T. ) ;
#101 = PERSON_AND_ORGANIZATION ( #496, #379 ) ;
#102 = CARTESIAN_POINT ( 'NONE',  ( -4.399999999999997691, 0.000000000000000000, 0.000000000000000000 ) ) ;
#103 = ORIENTED_EDGE ( 'NONE', *, *, #6, .T. ) ;
#104 = APPROVAL_DATE_TIME ( #605, #397 ) ;
#105 = DIRECTION ( 'NONE',  ( 1.000000000000000000, 0.000000000000000000, 0.000000000000000000 ) ) ;
#106 = ORIENTED_EDGE ( 'NONE', *, *, #262, .F. ) ;
#107 = EDGE_CURVE ( 'NONE', #458, #750, #531, .T. ) ;
#108 = AXIS2_PLACEMENT_3D ( 'NONE', #133, #7, #778 ) ;
#109 = DIRECTION ( 'NONE',  ( 1.000000000000000000, 0.000000000000000000, 0.000000000000000000 ) ) ;
#110 = AXIS2_PLACEMENT_3D ( 'NONE', #384, #273, #466 ) ;
#111 = DIRECTION ( 'NONE',  ( 0.000000000000000000, 0.000000000000000000, -1.000000000000000000 ) ) ;
#112 = VERTEX_POINT ( 'NONE', #706 ) ;
#113 = DIRECTION ( 'NONE',  ( 1.000000000000000000, 0.000000000000000000, 0.000000000000000000 ) ) ;
#114 = ADVANCED_FACE ( 'NONE', ( #143 ), #65, .T. ) ;
#115 = ORIENTED_EDGE ( 'NONE', *, *, #730, .T. ) ;
#116 = DIRECTION ( 'NONE',  ( 0.000000000000000000, 0.000000000000000000, -1.000000000000000000 ) ) ;
#117 = DIRECTION ( 'NONE',  ( -1.000000000000000000, -0.000000000000000000, -0.000000000000000000 ) ) ;
#118 = ORIENTED_EDGE ( 'NONE', *, *, #289, .F. ) ;
#119 = AXIS2_PLACEMENT_3D ( 'NONE', #5, #22, #456 ) ;
#120 = DIRECTION ( 'NONE',  ( 0.000000000000000000, 0.000000000000000000, -1.000000000000000000 ) ) ;
#121 = AXIS2_PLACEMENT_3D ( 'NONE', #698, #131, #387 ) ;
#122 = CIRCLE ( 'NONE', #151, 16.00000000000000000 ) ;
#123 = FACE_BOUND ( 'NONE', #526, .T. ) ;
#124 = ORIENTED_EDGE ( 'NONE', *, *, #552, .F. ) ;
#125 = PERSON_AND_ORGANIZATION ( #496, #379 ) ;
#126 = DIRECTION ( 'NONE',  ( 1.000000000000000000, 0.000000000000000000, 0.000000000000000000 ) ) ;
#127 = EDGE_CURVE ( 'NONE', #386, #144, #812, .T. ) ;
#128 = PLANE ( 'NONE',  #121 ) ;
#129 = DIRECTION ( 'NONE',  ( 1.000000000000000000, 0.000000000000000000, 0.000000000000000000 ) ) ;
#130 = CIRCLE ( 'NONE', #595, 3.000000000000000888 ) ;
#131 = DIRECTION ( 'NONE',  ( 1.000000000000000000, 0.000000000000000000, 0.000000000000000000 ) ) ;
#132 = AXIS2_PLACEMENT_3D ( 'NONE', #292, #94, #800 ) ;
#133 = CARTESIAN_POINT ( 'NONE',  ( -5.000000000000000888, 0.000000000000000000, 0.000000000000000000 ) ) ;
#134 = ORIENTED_EDGE ( 'NONE', *, *, #194, .T. ) ;
#135 = UNCERTAINTY_MEASURE_WITH_UNIT (LENGTH_MEASURE( 1.000000000000000082E-05 ), #472, 'distance_accuracy_value', 'NONE');
#136 = CARTESIAN_POINT ( 'NONE',  ( -4.400000000000000355, 1.885956070686923806E-15, 15.40000000000000036 ) ) ;
#137 = ADVANCED_FACE ( 'NONE', ( #538 ), #667, .F. ) ;
#138 = DIRECTION ( 'NONE',  ( 0.000000000000000000, 0.000000000000000000, -1.000000000000000000 ) ) ;
#139 = VERTEX_POINT ( 'NONE', #360 ) ;
#140 = DIRECTION ( 'NONE',  ( 0.000000000000000000, 0.000000000000000000, -1.000000000000000000 ) ) ;
#141 = CARTESIAN_POINT ( 'NONE',  ( -20.63749999999999929, 0.000000000000000000, 0.000000000000000000 ) ) ;
#142 = ADVANCED_FACE ( 'NONE', ( #734 ), #801, .T. ) ;
#143 = FACE_OUTER_BOUND ( 'NONE', #376, .T. ) ;
#144 = VERTEX_POINT ( 'NONE', #783 ) ;
#145 = DATE_AND_TIME ( #583, #789 ) ;
#146 = DIRECTION ( 'NONE',  ( 0.000000000000000000, 0.000000000000000000, -1.000000000000000000 ) ) ;
#147 = DIRECTION ( 'NONE',  ( 1.000000000000000000, 0.000000000000000000, 0.000000000000000000 ) ) ;
#148 = APPLICATION_CONTEXT ( 'configuration controlled 3d designs of mechanical parts and assemblies' ) ;
#149 = AXIS2_PLACEMENT_3D ( 'NONE', #136, #396, #74 ) ;
#150 = VERTEX_POINT ( 'NONE', #215 ) ;
#151 = AXIS2_PLACEMENT_3D ( 'NONE', #187, #527, #34 ) ;
#152 = APPLICATION_PROTOCOL_DEFINITION ( 'international standard', 'config_control_design', 1994, #548 ) ;
#153 = DIRECTION ( 'NONE',  ( 0.000000000000000000, 0.000000000000000000, -1.000000000000000000 ) ) ;
#154 = ORIENTED_EDGE ( 'NONE', *, *, #262, .T. ) ;
#155 = APPLICATION_PROTOCOL_DEFINITION ( 'international standard', 'config_control_design', 1994, #148 ) ;
#156 = ADVANCED_FACE ( 'NONE', ( #417, #30 ), #724, .T. ) ;
#157 = CARTESIAN_POINT ( 'NONE',  ( -0.3864906208435106572, 1.711443901808425904E-15, -13.97499999999999964 ) ) ;
#158 = ORIENTED_EDGE ( 'NONE', *, *, #21, .F. ) ;
#159 = CARTESIAN_POINT ( 'NONE',  ( -4.400000000000000355, 0.000000000000000000, -15.40000000000000036 ) ) ;
#160 = CIRCLE ( 'NONE', #80, 9.500000000000000000 ) ;
#161 = ORIENTED_EDGE ( 'NONE', *, *, #402, .T. ) ;
#162 = PERSON_AND_ORGANIZATION_ROLE ( 'creator' ) ;
#163 = CIRCLE ( 'NONE', #233, 3.000000000000000888 ) ;
#164 = CC_DESIGN_APPROVAL ( #397, ( #435 ) ) ;
#165 = DIRECTION ( 'NONE',  ( 0.000000000000000000, -1.000000000000000000, 0.000000000000000000 ) ) ;
#166 = ADVANCED_FACE ( 'NONE', ( #175 ), #634, .T. ) ;
#167 = VERTEX_POINT ( 'NONE', #502 ) ;
#168 = CALENDAR_DATE ( 2026, 23, 7 ) ;
#169 = DIRECTION ( 'NONE',  ( 0.000000000000000000, 0.000000000000000000, -1.000000000000000000 ) ) ;
#170 = CC_DESIGN_PERSON_AND_ORGANIZATION_ASSIGNMENT ( #20, #404, ( #541 ) ) ;
#171 = ORIENTED_EDGE ( 'NONE', *, *, #46, .F. ) ;
#172 = PERSON_AND_ORGANIZATION_ROLE ( 'classification_officer' ) ;
#173 = PRODUCT ( 'angular contact ball bearing_68_din_DIN 628 - 7201B - 8-SI-NC-8_68_sldprt', 'angular contact ball bearing_68_din_DIN 628 - 7201B - 8-SI-NC-8_68_sldprt', '', ( #414 ) ) ;
#174 = DIRECTION ( 'NONE',  ( 1.000000000000000000, 0.000000000000000000, 0.000000000000000000 ) ) ;
#175 = FACE_OUTER_BOUND ( 'NONE', #785, .T. ) ;
#176 = ORIENTED_EDGE ( 'NONE', *, *, #511, .F. ) ;
#177 = AXIS2_PLACEMENT_3D ( 'NONE', #464, #147, #67 ) ;
#178 = CIRCLE ( 'NONE', #690, 5.999999999999999112 ) ;
#179 = CIRCLE ( 'NONE', #390, 3.000000000000000888 ) ;
#180 = DIRECTION ( 'NONE',  ( 0.000000000000000000, -1.224646799147353454E-16, 1.000000000000000000 ) ) ;
#181 = LOCAL_TIME ( 16, 5, 23.00000000000000000, #803 ) ;
#182 = CARTESIAN_POINT ( 'NONE',  ( 5.000000000000000888, 0.000000000000000000, 0.000000000000000000 ) ) ;
#183 = ORIENTED_EDGE ( 'NONE', *, *, #228, .T. ) ;
#184 = EDGE_CURVE ( 'NONE', #327, #418, #56, .T. ) ;
#185 = DIRECTION ( 'NONE',  ( 0.000000000000000000, 0.000000000000000000, -1.000000000000000000 ) ) ;
#186 = VERTEX_POINT ( 'NONE', #442 ) ;
#187 = CARTESIAN_POINT ( 'NONE',  ( -4.400000000000001243, 0.000000000000000000, 0.000000000000000000 ) ) ;
#188 = CARTESIAN_POINT ( 'NONE',  ( -20.63749999999999929, 0.000000000000000000, -5.999999999999999112 ) ) ;
#189 = ORIENTED_EDGE ( 'NONE', *, *, #235, .T. ) ;
#190 = CARTESIAN_POINT ( 'NONE',  ( 0.000000000000000000, 1.347111479062088405E-15, -11.00000000000000000 ) ) ;
#191 = TOROIDAL_SURFACE ( 'NONE', #319, 15.40000000000000036, 0.6000000000000007550 ) ;
#192 = CIRCLE ( 'NONE', #572, 15.40000000000000036 ) ;
#193 = DIRECTION ( 'NONE',  ( 0.000000000000000000, 0.000000000000000000, 1.000000000000000000 ) ) ;
#194 = EDGE_CURVE ( 'NONE', #327, #144, #53, .T. ) ;
#195 = ORIENTED_EDGE ( 'NONE', *, *, #805, .F. ) ;
#196 = CARTESIAN_POINT ( 'NONE',  ( -4.400000000000001243, 0.000000000000000000, 0.000000000000000000 ) ) ;
#197 = CARTESIAN_POINT ( 'NONE',  ( -20.63749999999999929, 0.000000000000000000, -9.500000000000000000 ) ) ;
#198 = FACE_OUTER_BOUND ( 'NONE', #762, .T. ) ;
#199 = DIRECTION ( 'NONE',  ( 0.000000000000000000, 1.000000000000000000, -1.224646799147353207E-16 ) ) ;
#200 = ADVANCED_FACE ( 'NONE', ( #238 ), #367, .F. ) ;
#201 = AXIS2_PLACEMENT_3D ( 'NONE', #225, #543, #357 ) ;
#202 = DIRECTION ( 'NONE',  ( 1.000000000000000000, 0.000000000000000000, 0.000000000000000000 ) ) ;
#203 = CIRCLE ( 'NONE', #66, 12.50000000000000000 ) ;
#204 = AXIS2_PLACEMENT_3D ( 'NONE', #220, #399, #708 ) ;
#205 = ORIENTED_EDGE ( 'NONE', *, *, #626, .T. ) ;
#206 = DIRECTION ( 'NONE',  ( 1.000000000000000000, 0.000000000000000000, 0.000000000000000000 ) ) ;
#207 = DIRECTION ( 'NONE',  ( 0.000000000000000000, 0.000000000000000000, -1.000000000000000000 ) ) ;
#208 = ORIENTED_EDGE ( 'NONE', *, *, #184, .T. ) ;
#209 = CARTESIAN_POINT ( 'NONE',  ( -5.000000000000000888, 0.000000000000000000, 0.000000000000000000 ) ) ;
#210 = CARTESIAN_POINT ( 'NONE',  ( -20.63749999999999929, 9.827790563157505106E-16, 8.024999999999996803 ) ) ;
#211 = CYLINDRICAL_SURFACE ( 'NONE', #547, 13.97499999999999964 ) ;
#212 = EDGE_LOOP ( 'NONE', ( #336, #795, #299, #574 ) ) ;
#213 = FACE_OUTER_BOUND ( 'NONE', #4, .T. ) ;
#214 = AXIS2_PLACEMENT_3D ( 'NONE', #737, #117, #193 ) ;
#215 = CARTESIAN_POINT ( 'NONE',  ( 5.000000000000000888, 0.000000000000000000, -8.024999999999996803 ) ) ;
#216 = AXIS2_PLACEMENT_3D ( 'NONE', #532, #602, #425 ) ;
#217 = EDGE_CURVE ( 'NONE', #266, #458, #438, .T. ) ;
#218 = ORIENTED_EDGE ( 'NONE', *, *, #253, .F. ) ;
#219 = AXIS2_PLACEMENT_3D ( 'NONE', #209, #206, #705 ) ;
#220 = CARTESIAN_POINT ( 'NONE',  ( -5.000000000000000888, 0.000000000000000000, 0.000000000000000000 ) ) ;
#221 = DIRECTION ( 'NONE',  ( 1.000000000000000000, 0.000000000000000000, 0.000000000000000000 ) ) ;
#222 = AXIS2_PLACEMENT_3D ( 'NONE', #408, #513, #699 ) ;
#223 = ORIENTED_EDGE ( 'NONE', *, *, #127, .F. ) ;
#224 = DIRECTION ( 'NONE',  ( 0.000000000000000000, 0.000000000000000000, -1.000000000000000000 ) ) ;
#225 = CARTESIAN_POINT ( 'NONE',  ( -20.63749999999999929, 0.000000000000000000, 0.000000000000000000 ) ) ;
#226 = ORIENTED_EDGE ( 'NONE', *, *, #107, .T. ) ;
#227 = SECURITY_CLASSIFICATION_LEVEL ( 'unclassified' ) ;
#228 = EDGE_CURVE ( 'NONE', #331, #659, #160, .T. ) ;
#229 = LINE ( 'NONE', #416, #571 ) ;
#230 = AXIS2_PLACEMENT_3D ( 'NONE', #298, #350, #731 ) ;
#231 = ORIENTED_EDGE ( 'NONE', *, *, #475, .F. ) ;
#232 = PERSON_AND_ORGANIZATION ( #496, #379 ) ;
#233 = AXIS2_PLACEMENT_3D ( 'NONE', #190, #237, #180 ) ;
#234 = CARTESIAN_POINT ( 'NONE',  ( -20.63749999999999574, 0.000000000000000000, 0.000000000000000000 ) ) ;
#235 = EDGE_CURVE ( 'NONE', #544, #569, #559, .T. ) ;
#236 = ORIENTED_EDGE ( 'NONE', *, *, #375, .T. ) ;
#237 = DIRECTION ( 'NONE',  ( -0.000000000000000000, 1.000000000000000000, 1.224646799147353207E-16 ) ) ;
#238 = FACE_OUTER_BOUND ( 'NONE', #604, .T. ) ;
#239 = ORIENTED_EDGE ( 'NONE', *, *, #430, .F. ) ;
#240 = CALENDAR_DATE ( 2026, 23, 7 ) ;
#241 = DIRECTION ( 'NONE',  ( 1.000000000000000000, 0.000000000000000000, 0.000000000000000000 ) ) ;
#242 = VERTEX_POINT ( 'NONE', #374 ) ;
#243 = EDGE_CURVE ( 'NONE', #458, #544, #660, .T. ) ;
#244 = AXIS2_PLACEMENT_3D ( 'NONE', #182, #371, #695 ) ;
#245 = CIRCLE ( 'NONE', #216, 15.40000000000000036 ) ;
#246 = CARTESIAN_POINT ( 'NONE',  ( -20.63749999999999574, 1.711443901808426101E-15, 13.97499999999999964 ) ) ;
#247 = ORIENTED_EDGE ( 'NONE', *, *, #420, .F. ) ;
#248 = CYLINDRICAL_SURFACE ( 'NONE', #760, 8.024999999999996803 ) ;
#249 = DIRECTION ( 'NONE',  ( 0.000000000000000000, 0.000000000000000000, -1.000000000000000000 ) ) ;
#250 = ORIENTED_EDGE ( 'NONE', *, *, #685, .T. ) ;
#251 = CARTESIAN_POINT ( 'NONE',  ( 4.399999999999997691, 0.000000000000000000, 0.000000000000000000 ) ) ;
#252 = PRODUCT_DEFINITION_SHAPE ( 'NONE', 'NONE',  #541 ) ;
#253 = EDGE_CURVE ( 'NONE', #150, #759, #293, .T. ) ;
#254 = DIRECTION ( 'NONE',  ( 0.000000000000000000, 0.000000000000000000, -1.000000000000000000 ) ) ;
#255 = ORIENTED_EDGE ( 'NONE', *, *, #351, .F. ) ;
#256 = AXIS2_PLACEMENT_3D ( 'NONE', #50, #817, #254 ) ;
#257 = AXIS2_PLACEMENT_3D ( 'NONE', #655, #537, #658 ) ;
#258 = CARTESIAN_POINT ( 'NONE',  ( 0.3864906208434974455, 1.256793777624971115E-15, -8.024999999999996803 ) ) ;
#259 = CC_DESIGN_PERSON_AND_ORGANIZATION_ASSIGNMENT ( #125, #641, ( #173 ) ) ;
#260 = LINE ( 'NONE', #210, #623 ) ;
#261 = CYLINDRICAL_SURFACE ( 'NONE', #746, 16.00000000000000000 ) ;
#262 = EDGE_CURVE ( 'NONE', #557, #90, #787, .T. ) ;
#263 = ORIENTED_EDGE ( 'NONE', *, *, #63, .T. ) ;
#264 = DIRECTION ( 'NONE',  ( 1.000000000000000000, 0.000000000000000000, 0.000000000000000000 ) ) ;
#265 = DIRECTION ( 'NONE',  ( 1.000000000000000000, 0.000000000000000000, 0.000000000000000000 ) ) ;
#266 = VERTEX_POINT ( 'NONE', #753 ) ;
#267 = AXIS2_PLACEMENT_3D ( 'NONE', #518, #264, #645 ) ;
#268 = CARTESIAN_POINT ( 'NONE',  ( -5.000000000000000888, 0.000000000000000000, -15.40000000000000036 ) ) ;
#269 = TOROIDAL_SURFACE ( 'NONE', #378, 15.40000000000000036, 0.6000000000000007550 ) ;
#270 = EDGE_LOOP ( 'NONE', ( #158, #578 ) ) ;
#271 = DIRECTION ( 'NONE',  ( 0.000000000000000000, 0.000000000000000000, 1.000000000000000000 ) ) ;
#272 = VERTEX_POINT ( 'NONE', #553 ) ;
#273 = DIRECTION ( 'NONE',  ( 0.000000000000000000, 0.000000000000000000, 1.000000000000000000 ) ) ;
#274 = DIRECTION ( 'NONE',  ( 1.000000000000000000, 0.000000000000000000, 0.000000000000000000 ) ) ;
#275 = EDGE_CURVE ( 'NONE', #144, #272, #178, .T. ) ;
#276 = ORIENTED_EDGE ( 'NONE', *, *, #46, .T. ) ;
#277 = DIRECTION ( 'NONE',  ( 0.000000000000000000, 0.000000000000000000, -1.000000000000000000 ) ) ;
#278 = DIRECTION ( 'NONE',  ( 1.000000000000000000, 0.000000000000000000, 0.000000000000000000 ) ) ;
#279 = AXIS2_PLACEMENT_3D ( 'NONE', #334, #637, #1 ) ;
#280 = CIRCLE ( 'NONE', #715, 5.999999999999999112 ) ;
#281 = CARTESIAN_POINT ( 'NONE',  ( 5.000000000000000888, 15.40000000000000036, 0.000000000000000000 ) ) ;
#282 = CIRCLE ( 'NONE', #649, 5.999999999999999112 ) ;
#283 = ORIENTED_EDGE ( 'NONE', *, *, #517, .T. ) ;
#284 = APPROVAL_PERSON_ORGANIZATION ( #101, #488, #427 ) ;
#285 = CARTESIAN_POINT ( 'NONE',  ( 4.400000000000001243, 1.959434878635765131E-15, 16.00000000000000000 ) ) ;
#286 = CARTESIAN_POINT ( 'NONE',  ( -0.3864906208435106016, 0.000000000000000000, 0.000000000000000000 ) ) ;
#287 = EDGE_LOOP ( 'NONE', ( #226, #276, #383, #684 ) ) ;
#288 = APPROVAL_ROLE ( '' ) ;
#289 = EDGE_CURVE ( 'NONE', #41, #750, #487, .T. ) ;
#290 = CARTESIAN_POINT ( 'NONE',  ( 5.000000000000000888, 0.000000000000000000, -15.40000000000000036 ) ) ;
#291 = EDGE_LOOP ( 'NONE', ( #189, #693 ) ) ;
#292 = CARTESIAN_POINT ( 'NONE',  ( 5.000000000000000888, 0.000000000000000000, 0.000000000000000000 ) ) ;
#293 = CIRCLE ( 'NONE', #244, 8.024999999999996803 ) ;
#294 = ORIENTED_EDGE ( 'NONE', *, *, #194, .F. ) ;
#295 = TOROIDAL_SURFACE ( 'NONE', #758, 6.599999999999999645, 0.6000000000000007550 ) ;
#296 = LOCAL_TIME ( 16, 5, 23.00000000000000000, #429 ) ;
#297 = FACE_OUTER_BOUND ( 'NONE', #212, .T. ) ;
#298 = CARTESIAN_POINT ( 'NONE',  ( -20.63749999999999929, 0.000000000000000000, 0.000000000000000000 ) ) ;
#299 = ORIENTED_EDGE ( 'NONE', *, *, #793, .T. ) ;
#300 = FACE_OUTER_BOUND ( 'NONE', #792, .T. ) ;
#301 = FACE_OUTER_BOUND ( 'NONE', #594, .T. ) ;
#302 = ADVANCED_FACE ( 'NONE', ( #301 ), #2, .T. ) ;
#303 = ORIENTED_EDGE ( 'NONE', *, *, #475, .T. ) ;
#304 = CARTESIAN_POINT ( 'NONE',  ( -4.399999999999999467, 0.000000000000000000, 0.000000000000000000 ) ) ;
#305 = CARTESIAN_POINT ( 'NONE',  ( -20.63749999999999574, 0.000000000000000000, -16.00000000000000000 ) ) ;
#306 = ORIENTED_EDGE ( 'NONE', *, *, #593, .T. ) ;
#307 = VECTOR ( 'NONE', #627, 1000.000000000000000 ) ;
#308 = AXIS2_PLACEMENT_3D ( 'NONE', #755, #380, #443 ) ;
#309 = LOCAL_TIME ( 16, 5, 23.00000000000000000, #424 ) ;
#310 = DIRECTION ( 'NONE',  ( 0.000000000000000000, 0.000000000000000000, -1.000000000000000000 ) ) ;
#311 = CARTESIAN_POINT ( 'NONE',  ( 2.598076211353316012, 0.000000000000000000, 0.000000000000000000 ) ) ;
#312 = ORIENTED_EDGE ( 'NONE', *, *, #415, .T. ) ;
#313 = ADVANCED_FACE ( 'NONE', ( #123, #61 ), #315, .T. ) ;
#314 = FACE_OUTER_BOUND ( 'NONE', #628, .T. ) ;
#315 = PLANE ( 'NONE',  #279 ) ;
#316 = EDGE_CURVE ( 'NONE', #90, #797, #459, .T. ) ;
#317 = CARTESIAN_POINT ( 'NONE',  ( -20.63749999999999929, 7.347880794884118750E-16, 5.999999999999999112 ) ) ;
#318 = VECTOR ( 'NONE', #461, 1000.000000000000000 ) ;
#319 = AXIS2_PLACEMENT_3D ( 'NONE', #688, #617, #310 ) ;
#320 = APPROVAL_PERSON_ORGANIZATION ( #78, #584, #410 ) ;
#321 = DIRECTION ( 'NONE',  ( 0.000000000000000000, 1.224646799147352961E-16, 1.000000000000000000 ) ) ;
#322 = EDGE_LOOP ( 'NONE', ( #821, #161, #218, #43 ) ) ;
#323 = DIRECTION ( 'NONE',  ( 1.000000000000000000, 0.000000000000000000, 0.000000000000000000 ) ) ;
#324 = CLOSED_SHELL ( 'NONE', ( #630, #11, #114, #692, #455, #711, #663, #137, #577, #325, #142, #567, #166, #739, #784, #411, #338, #460, #723, #313, #302, #200, #71, #720, #606, #618, #156, #54 ) ) ;
#325 = ADVANCED_FACE ( 'NONE', ( #198 ), #9, .T. ) ;
#326 = CARTESIAN_POINT ( 'NONE',  ( 4.400000000000000355, 1.885956070686923806E-15, 15.40000000000000036 ) ) ;
#327 = VERTEX_POINT ( 'NONE', #642 ) ;
#328 = COORDINATED_UNIVERSAL_TIME_OFFSET ( 3, 30, .AHEAD. ) ;
#329 = DIRECTION ( 'NONE',  ( 1.000000000000000000, 0.000000000000000000, 0.000000000000000000 ) ) ;
#330 = DIRECTION ( 'NONE',  ( 0.000000000000000000, -1.224646799147353454E-16, 1.000000000000000000 ) ) ;
#331 = VERTEX_POINT ( 'NONE', #79 ) ;
#332 = APPROVAL_STATUS ( 'not_yet_approved' ) ;
#333 = TOROIDAL_SURFACE ( 'NONE', #267, 6.599999999999999645, 0.6000000000000007550 ) ;
#334 = CARTESIAN_POINT ( 'NONE',  ( -5.000000000000000888, 9.500000000000000000, 0.000000000000000000 ) ) ;
#335 = VECTOR ( 'NONE', #820, 1000.000000000000000 ) ;
#336 = ORIENTED_EDGE ( 'NONE', *, *, #402, .F. ) ;
#337 =( NAMED_UNIT ( * ) SI_UNIT ( $, .STERADIAN. ) SOLID_ANGLE_UNIT ( ) );
#338 = ADVANCED_FACE ( 'NONE', ( #400 ), #333, .T. ) ;
#339 = DIRECTION ( 'NONE',  ( 1.000000000000000000, 0.000000000000000000, 0.000000000000000000 ) ) ;
#340 = DIRECTION ( 'NONE',  ( 0.000000000000000000, 0.000000000000000000, -1.000000000000000000 ) ) ;
#341 = VERTEX_POINT ( 'NONE', #512 ) ;
#342 = CARTESIAN_POINT ( 'NONE',  ( 5.000000000000000888, 9.827790563157505106E-16, 8.024999999999996803 ) ) ;
#343 = CC_DESIGN_DATE_AND_TIME_ASSIGNMENT ( #670, #490, ( #435 ) ) ;
#344 = FACE_OUTER_BOUND ( 'NONE', #345, .T. ) ;
#345 = EDGE_LOOP ( 'NONE', ( #564, #115, #510, #223 ) ) ;
#346 = FACE_OUTER_BOUND ( 'NONE', #92, .T. ) ;
#347 = DIRECTION ( 'NONE',  ( 0.000000000000000000, 0.000000000000000000, -1.000000000000000000 ) ) ;
#348 = CIRCLE ( 'NONE', #757, 8.024999999999996803 ) ;
#349 = TOROIDAL_SURFACE ( 'NONE', #533, 6.599999999999999645, 0.6000000000000007550 ) ;
#350 = DIRECTION ( 'NONE',  ( 1.000000000000000000, 0.000000000000000000, 0.000000000000000000 ) ) ;
#351 = EDGE_CURVE ( 'NONE', #489, #539, #32, .T. ) ;
#352 = ORIENTED_EDGE ( 'NONE', *, *, #451, .T. ) ;
#353 = APPROVAL_STATUS ( 'not_yet_approved' ) ;
#354 = CARTESIAN_POINT ( 'NONE',  ( -5.000000000000000888, 0.000000000000000000, -13.97499999999999964 ) ) ;
#355 = ORIENTED_EDGE ( 'NONE', *, *, #782, .F. ) ;
#356 = CALENDAR_DATE ( 2026, 23, 7 ) ;
#357 = DIRECTION ( 'NONE',  ( 0.000000000000000000, 0.000000000000000000, -1.000000000000000000 ) ) ;
#358 = EDGE_LOOP ( 'NONE', ( #428, #497, #247, #409 ) ) ;
#359 = FACE_OUTER_BOUND ( 'NONE', #287, .T. ) ;
#360 = CARTESIAN_POINT ( 'NONE',  ( 5.000000000000000888, 8.082668874372531019E-16, 6.599999999999999645 ) ) ;
#361 = AXIS2_PLACEMENT_3D ( 'NONE', #566, #621, #58 ) ;
#362 = ORIENTED_EDGE ( 'NONE', *, *, #415, .F. ) ;
#363 = AXIS2_PLACEMENT_3D ( 'NONE', #286, #597, #42 ) ;
#364 = APPROVAL_PERSON_ORGANIZATION ( #40, #397, #288 ) ;
#365 = EDGE_CURVE ( 'NONE', #656, #557, #130, .T. ) ;
#366 = DIRECTION ( 'NONE',  ( 0.000000000000000000, 0.000000000000000000, 1.000000000000000000 ) ) ;
#367 = CYLINDRICAL_SURFACE ( 'NONE', #15, 12.50000000000000000 ) ;
#368 = ORIENTED_EDGE ( 'NONE', *, *, #436, .T. ) ;
#369 = DIRECTION ( 'NONE',  ( 1.000000000000000000, 0.000000000000000000, 0.000000000000000000 ) ) ;
#370 = EDGE_CURVE ( 'NONE', #656, #448, #348, .T. ) ;
#371 = DIRECTION ( 'NONE',  ( 1.000000000000000000, 0.000000000000000000, 0.000000000000000000 ) ) ;
#372 = ORIENTED_EDGE ( 'NONE', *, *, #31, .F. ) ;
#373 = CARTESIAN_POINT ( 'NONE',  ( 0.000000000000000000, 0.000000000000000000, 0.000000000000000000 ) ) ;
#374 = CARTESIAN_POINT ( 'NONE',  ( -5.000000000000000888, 0.000000000000000000, -9.500000000000000000 ) ) ;
#375 = EDGE_CURVE ( 'NONE', #327, #112, #727, .T. ) ;
#376 = EDGE_LOOP ( 'NONE', ( #672, #368, #471, #59 ) ) ;
#377 = CIRCLE ( 'NONE', #108, 9.500000000000000000 ) ;
#378 = AXIS2_PLACEMENT_3D ( 'NONE', #736, #551, #804 ) ;
#379 = ORGANIZATION ( 'UNSPECIFIED', 'UNSPECIFIED', '' ) ;
#380 = DIRECTION ( 'NONE',  ( -1.000000000000000000, -0.000000000000000000, -0.000000000000000000 ) ) ;
#381 = CIRCLE ( 'NONE', #222, 15.40000000000000036 ) ;
#382 = DIRECTION ( 'NONE',  ( -1.000000000000000000, -0.000000000000000000, -0.000000000000000000 ) ) ;
#383 = ORIENTED_EDGE ( 'NONE', *, *, #235, .F. ) ;
#384 = CARTESIAN_POINT ( 'NONE',  ( 0.000000000000000000, 0.000000000000000000, 0.000000000000000000 ) ) ;
#385 = CARTESIAN_POINT ( 'NONE',  ( 5.000000000000000888, 0.000000000000000000, 0.000000000000000000 ) ) ;
#386 = VERTEX_POINT ( 'NONE', #64 ) ;
#387 = DIRECTION ( 'NONE',  ( 0.000000000000000000, 0.000000000000000000, -1.000000000000000000 ) ) ;
#388 = PLANE ( 'NONE',  #405 ) ;
#389 = AXIS2_PLACEMENT_3D ( 'NONE', #326, #199, #576 ) ;
#390 = AXIS2_PLACEMENT_3D ( 'NONE', #729, #165, #87 ) ;
#391 = EDGE_CURVE ( 'NONE', #266, #41, #504, .T. ) ;
#392 = CC_DESIGN_APPROVAL ( #488, ( #36 ) ) ;
#393 = CARTESIAN_POINT ( 'NONE',  ( 0.000000000000000000, 0.000000000000000000, 11.00000000000000000 ) ) ;
#394 = DIRECTION ( 'NONE',  ( 0.000000000000000000, 0.000000000000000000, -1.000000000000000000 ) ) ;
#395 = ORIENTED_EDGE ( 'NONE', *, *, #184, .F. ) ;
#396 = DIRECTION ( 'NONE',  ( 0.000000000000000000, 1.000000000000000000, -1.224646799147353207E-16 ) ) ;
#397 = APPROVAL ( #665, 'UNSPECIFIED' ) ;
#398 = ORIENTED_EDGE ( 'NONE', *, *, #752, .T. ) ;
#399 = DIRECTION ( 'NONE',  ( 1.000000000000000000, 0.000000000000000000, 0.000000000000000000 ) ) ;
#400 = FACE_OUTER_BOUND ( 'NONE', #465, .T. ) ;
#401 = CARTESIAN_POINT ( 'NONE',  ( -20.63749999999999574, 0.000000000000000000, 0.000000000000000000 ) ) ;
#402 = EDGE_CURVE ( 'NONE', #656, #759, #260, .T. ) ;
#403 = VERTEX_POINT ( 'NONE', #268 ) ;
#404 = PERSON_AND_ORGANIZATION_ROLE ( 'creator' ) ;
#405 = AXIS2_PLACEMENT_3D ( 'NONE', #16, #643, #520 ) ;
#406 = CARTESIAN_POINT ( 'NONE',  ( -0.3864906208435106016, 0.000000000000000000, 0.000000000000000000 ) ) ;
#407 = CIRCLE ( 'NONE', #745, 0.6000000000000007550 ) ;
#408 = CARTESIAN_POINT ( 'NONE',  ( -5.000000000000000888, 0.000000000000000000, 0.000000000000000000 ) ) ;
#409 = ORIENTED_EDGE ( 'NONE', *, *, #638, .F. ) ;
#410 = APPROVAL_ROLE ( '' ) ;
#411 = ADVANCED_FACE ( 'NONE', ( #449, #452 ), #128, .T. ) ;
#412 = CARTESIAN_POINT ( 'NONE',  ( 5.000000000000000888, 0.000000000000000000, 0.000000000000000000 ) ) ;
#413 = ORIENTED_EDGE ( 'NONE', *, *, #365, .T. ) ;
#414 = MECHANICAL_CONTEXT ( 'NONE', #148, 'mechanical' ) ;
#415 = EDGE_CURVE ( 'NONE', #139, #386, #434, .T. ) ;
#416 = CARTESIAN_POINT ( 'NONE',  ( -20.63749999999999929, 1.163414459189985485E-15, 9.500000000000000000 ) ) ;
#417 = FACE_OUTER_BOUND ( 'NONE', #291, .T. ) ;
#418 = VERTEX_POINT ( 'NONE', #575 ) ;
#419 = CARTESIAN_POINT ( 'NONE',  ( 4.400000000000000355, 0.000000000000000000, 0.000000000000000000 ) ) ;
#420 = EDGE_CURVE ( 'NONE', #607, #167, #82, .T. ) ;
#421 = AXIS2_PLACEMENT_3D ( 'NONE', #703, #265, #138 ) ;
#422 = AXIS2_PLACEMENT_3D ( 'NONE', #196, #463, #508 ) ;
#423 = EDGE_LOOP ( 'NONE', ( #600, #362 ) ) ;
#424 = COORDINATED_UNIVERSAL_TIME_OFFSET ( 3, 30, .AHEAD. ) ;
#425 = DIRECTION ( 'NONE',  ( 0.000000000000000000, 0.000000000000000000, -1.000000000000000000 ) ) ;
#426 = EDGE_LOOP ( 'NONE', ( #725, #550 ) ) ;
#427 = APPROVAL_ROLE ( '' ) ;
#428 = ORIENTED_EDGE ( 'NONE', *, *, #545, .F. ) ;
#429 = COORDINATED_UNIVERSAL_TIME_OFFSET ( 3, 30, .AHEAD. ) ;
#430 = EDGE_CURVE ( 'NONE', #659, #331, #728, .T. ) ;
#431 = DIRECTION ( 'NONE',  ( 0.000000000000000000, 0.000000000000000000, -1.000000000000000000 ) ) ;
#432 = AXIS2_PLACEMENT_3D ( 'NONE', #311, #499, #677 ) ;
#433 = ORIENTED_EDGE ( 'NONE', *, *, #391, .T. ) ;
#434 = CIRCLE ( 'NONE', #17, 6.599999999999999645 ) ;
#435 = SECURITY_CLASSIFICATION ( '', '', #227 ) ;
#436 = EDGE_CURVE ( 'NONE', #186, #41, #35, .T. ) ;
#437 = CARTESIAN_POINT ( 'NONE',  ( 0.3864906208434974455, 0.000000000000000000, 8.024999999999996803 ) ) ;
#438 = LINE ( 'NONE', #305, #95 ) ;
#439 = ORIENTED_EDGE ( 'NONE', *, *, #511, .T. ) ;
#440 = DIRECTION ( 'NONE',  ( 0.000000000000000000, 0.000000000000000000, -1.000000000000000000 ) ) ;
#441 = EDGE_CURVE ( 'NONE', #418, #272, #14, .T. ) ;
#442 = CARTESIAN_POINT ( 'NONE',  ( -5.000000000000000888, 1.922695474661344271E-15, 15.40000000000000036 ) ) ;
#443 = DIRECTION ( 'NONE',  ( 0.000000000000000000, 0.000000000000000000, 1.000000000000000000 ) ) ;
#444 = DIRECTION ( 'NONE',  ( 1.000000000000000000, 0.000000000000000000, 0.000000000000000000 ) ) ;
#445 = CIRCLE ( 'NONE', #585, 6.599999999999999645 ) ;
#446 = AXIS2_PLACEMENT_3D ( 'NONE', #748, #608, #185 ) ;
#447 = DIRECTION ( 'NONE',  ( 1.000000000000000000, 0.000000000000000000, 0.000000000000000000 ) ) ;
#448 = VERTEX_POINT ( 'NONE', #258 ) ;
#449 = FACE_OUTER_BOUND ( 'NONE', #39, .T. ) ;
#450 = CARTESIAN_POINT ( 'NONE',  ( -4.400000000000001243, 1.959434878635765131E-15, 16.00000000000000000 ) ) ;
#451 = EDGE_CURVE ( 'NONE', #341, #331, #229, .T. ) ;
#452 = FACE_BOUND ( 'NONE', #423, .T. ) ;
#453 = CARTESIAN_POINT ( 'NONE',  ( -4.399999999999999467, 8.082668874372531019E-16, 6.599999999999999645 ) ) ;
#454 = ORIENTED_EDGE ( 'NONE', *, *, #420, .T. ) ;
#455 = ADVANCED_FACE ( 'NONE', ( #661 ), #528, .F. ) ;
#456 = DIRECTION ( 'NONE',  ( 0.000000000000000000, 0.000000000000000000, -1.000000000000000000 ) ) ;
#457 = FACE_BOUND ( 'NONE', #507, .T. ) ;
#458 = VERTEX_POINT ( 'NONE', #479 ) ;
#459 = LINE ( 'NONE', #70, #740 ) ;
#460 = ADVANCED_FACE ( 'NONE', ( #666 ), #98, .F. ) ;
#461 = DIRECTION ( 'NONE',  ( 1.000000000000000000, 0.000000000000000000, 0.000000000000000000 ) ) ;
#462 = EDGE_LOOP ( 'NONE', ( #619, #779, #765, #612 ) ) ;
#463 = DIRECTION ( 'NONE',  ( 1.000000000000000000, 0.000000000000000000, 0.000000000000000000 ) ) ;
#464 = CARTESIAN_POINT ( 'NONE',  ( -4.400000000000000355, 0.000000000000000000, 0.000000000000000000 ) ) ;
#465 = EDGE_LOOP ( 'NONE', ( #482, #312, #12, #48 ) ) ;
#466 = DIRECTION ( 'NONE',  ( 1.000000000000000000, 0.000000000000000000, 0.000000000000000000 ) ) ;
#467 = CIRCLE ( 'NONE', #389, 0.5999999999999998668 ) ;
#468 = ADVANCED_BREP_SHAPE_REPRESENTATION ( 'angular contact ball bearing_68_din_DIN 628 - 7201B - 8-SI-NC-8_68_sldprt', ( #519, #110 ), #598 ) ;
#469 = DIRECTION ( 'NONE',  ( 0.000000000000000000, 0.000000000000000000, -1.000000000000000000 ) ) ;
#470 = AXIS2_PLACEMENT_3D ( 'NONE', #717, #221, #224 ) ;
#471 = ORIENTED_EDGE ( 'NONE', *, *, #391, .F. ) ;
#472 =( LENGTH_UNIT ( ) NAMED_UNIT ( * ) SI_UNIT ( .MILLI., .METRE. ) );
#473 = CARTESIAN_POINT ( 'NONE',  ( -5.000000000000000888, 0.000000000000000000, 0.000000000000000000 ) ) ;
#474 = ORIENTED_EDGE ( 'NONE', *, *, #6, .F. ) ;
#475 = EDGE_CURVE ( 'NONE', #418, #327, #280, .T. ) ;
#476 = DIRECTION ( 'NONE',  ( 0.000000000000000000, 0.000000000000000000, 1.000000000000000000 ) ) ;
#477 = ORIENTED_EDGE ( 'NONE', *, *, #289, .T. ) ;
#478 = DATE_AND_TIME ( #356, #181 ) ;
#479 = CARTESIAN_POINT ( 'NONE',  ( 4.400000000000001243, 0.000000000000000000, -16.00000000000000000 ) ) ;
#480 = AXIS2_PLACEMENT_3D ( 'NONE', #809, #382, #624 ) ;
#481 = AXIS2_PLACEMENT_3D ( 'NONE', #794, #733, #169 ) ;
#482 = ORIENTED_EDGE ( 'NONE', *, *, #730, .F. ) ;
#483 = DIRECTION ( 'NONE',  ( 1.000000000000000000, 0.000000000000000000, 0.000000000000000000 ) ) ;
#484 = EDGE_CURVE ( 'NONE', #759, #150, #3, .T. ) ;
#485 = ORIENTED_EDGE ( 'NONE', *, *, #228, .F. ) ;
#486 = FACE_OUTER_BOUND ( 'NONE', #514, .T. ) ;
#487 = LINE ( 'NONE', #689, #307 ) ;
#488 = APPROVAL ( #353, 'UNSPECIFIED' ) ;
#489 = VERTEX_POINT ( 'NONE', #354 ) ;
#490 = DATE_TIME_ROLE ( 'classification_date' ) ;
#491 = CARTESIAN_POINT ( 'NONE',  ( -20.63749999999999574, 0.000000000000000000, 0.000000000000000000 ) ) ;
#492 = AXIS2_PLACEMENT_3D ( 'NONE', #777, #329, #696 ) ;
#493 = VECTOR ( 'NONE', #568, 1000.000000000000000 ) ;
#494 = ORIENTED_EDGE ( 'NONE', *, *, #99, .F. ) ;
#495 = LINE ( 'NONE', #246, #335 ) ;
#496 = PERSON ( 'UNSPECIFIED', 'UNSPECIFIED', 'UNSPECIFIED', ('UNSPECIFIED'), ('UNSPECIFIED'), ('UNSPECIFIED') ) ;
#497 = ORIENTED_EDGE ( 'NONE', *, *, #629, .T. ) ;
#498 = CARTESIAN_POINT ( 'NONE',  ( -20.63749999999999929, 0.000000000000000000, 0.000000000000000000 ) ) ;
#499 = DIRECTION ( 'NONE',  ( 1.000000000000000000, 0.000000000000000000, 0.000000000000000000 ) ) ;
#500 = ORIENTED_EDGE ( 'NONE', *, *, #819, .T. ) ;
#501 = CARTESIAN_POINT ( 'NONE',  ( -2.598076211353316900, 0.000000000000000000, -9.500000000000000000 ) ) ;
#502 = CARTESIAN_POINT ( 'NONE',  ( -0.3864906208435106572, 0.000000000000000000, 13.97499999999999964 ) ) ;
#503 = ORIENTED_EDGE ( 'NONE', *, *, #441, .F. ) ;
#504 = CIRCLE ( 'NONE', #422, 16.00000000000000000 ) ;
#505 = AXIS2_PLACEMENT_3D ( 'NONE', #406, #767, #774 ) ;
#506 = DIRECTION ( 'NONE',  ( 1.000000000000000000, 0.000000000000000000, 0.000000000000000000 ) ) ;
#507 = EDGE_LOOP ( 'NONE', ( #687, #647 ) ) ;
#508 = DIRECTION ( 'NONE',  ( 0.000000000000000000, 0.000000000000000000, -1.000000000000000000 ) ) ;
#509 = CARTESIAN_POINT ( 'NONE',  ( -20.63749999999999574, 0.000000000000000000, 0.000000000000000000 ) ) ;
#510 = ORIENTED_EDGE ( 'NONE', *, *, #275, .F. ) ;
#511 = EDGE_CURVE ( 'NONE', #167, #607, #742, .T. ) ;
#512 = CARTESIAN_POINT ( 'NONE',  ( -5.000000000000000888, 1.163414459189985485E-15, 9.500000000000000000 ) ) ;
#513 = DIRECTION ( 'NONE',  ( 1.000000000000000000, 0.000000000000000000, 0.000000000000000000 ) ) ;
#514 = EDGE_LOOP ( 'NONE', ( #439, #69, #589, #815 ) ) ;
#515 = AXIS2_PLACEMENT_3D ( 'NONE', #281, #534, #791 ) ;
#516 = AXIS2_PLACEMENT_3D ( 'NONE', #373, #674, #366 ) ;
#517 = EDGE_CURVE ( 'NONE', #167, #331, #179, .T. ) ;
#518 = CARTESIAN_POINT ( 'NONE',  ( 4.399999999999999467, 0.000000000000000000, 0.000000000000000000 ) ) ;
#519 = MANIFOLD_SOLID_BREP ( 'OuterRace', #324 ) ;
#520 = DIRECTION ( 'NONE',  ( -0.000000000000000000, 0.000000000000000000, 1.000000000000000000 ) ) ;
#521 = ORIENTED_EDGE ( 'NONE', *, *, #752, .F. ) ;
#522 = DIRECTION ( 'NONE',  ( 0.000000000000000000, 0.000000000000000000, -1.000000000000000000 ) ) ;
#523 = CC_DESIGN_PERSON_AND_ORGANIZATION_ASSIGNMENT ( #807, #601, ( #36 ) ) ;
#524 = DIRECTION ( 'NONE',  ( -1.000000000000000000, -0.000000000000000000, -0.000000000000000000 ) ) ;
#525 = CARTESIAN_POINT ( 'NONE',  ( 4.399999999999999467, 0.000000000000000000, -6.599999999999999645 ) ) ;
#526 = EDGE_LOOP ( 'NONE', ( #100, #811 ) ) ;
#527 = DIRECTION ( 'NONE',  ( 1.000000000000000000, 0.000000000000000000, 0.000000000000000000 ) ) ;
#528 = CYLINDRICAL_SURFACE ( 'NONE', #610, 12.50000000000000000 ) ;
#529 = LINE ( 'NONE', #581, #714 ) ;
#530 = ORIENTED_EDGE ( 'NONE', *, *, #217, .F. ) ;
#531 = CIRCLE ( 'NONE', #421, 16.00000000000000000 ) ;
#532 = CARTESIAN_POINT ( 'NONE',  ( 5.000000000000000888, 0.000000000000000000, 0.000000000000000000 ) ) ;
#533 = AXIS2_PLACEMENT_3D ( 'NONE', #304, #369, #120 ) ;
#534 = DIRECTION ( 'NONE',  ( 1.000000000000000000, 0.000000000000000000, 0.000000000000000000 ) ) ;
#535 = ORIENTED_EDGE ( 'NONE', *, *, #638, .T. ) ;
#536 = CARTESIAN_POINT ( 'NONE',  ( 5.000000000000000888, 0.000000000000000000, -12.50000000000000000 ) ) ;
#537 = DIRECTION ( 'NONE',  ( 1.000000000000000000, 0.000000000000000000, 0.000000000000000000 ) ) ;
#538 = FACE_OUTER_BOUND ( 'NONE', #732, .T. ) ;
#539 = VERTEX_POINT ( 'NONE', #546 ) ;
#540 = SHAPE_DEFINITION_REPRESENTATION ( #252, #468 ) ;
#541 = PRODUCT_DEFINITION ( 'UNKNOWN', '', #36, #683 ) ;
#542 = FACE_OUTER_BOUND ( 'NONE', #462, .T. ) ;
#543 = DIRECTION ( 'NONE',  ( 1.000000000000000000, 0.000000000000000000, 0.000000000000000000 ) ) ;
#544 = VERTEX_POINT ( 'NONE', #290 ) ;
#545 = EDGE_CURVE ( 'NONE', #539, #489, #814, .T. ) ;
#546 = CARTESIAN_POINT ( 'NONE',  ( -5.000000000000000888, 1.711443901808426101E-15, 13.97499999999999964 ) ) ;
#547 = AXIS2_PLACEMENT_3D ( 'NONE', #509, #588, #394 ) ;
#548 = APPLICATION_CONTEXT ( 'configuration controlled 3d designs of mechanical parts and assemblies' ) ;
#549 = CIRCLE ( 'NONE', #560, 0.5999999999999998668 ) ;
#550 = ORIENTED_EDGE ( 'NONE', *, *, #680, .F. ) ;
#551 = DIRECTION ( 'NONE',  ( 1.000000000000000000, 0.000000000000000000, 0.000000000000000000 ) ) ;
#552 = EDGE_CURVE ( 'NONE', #569, #544, #245, .T. ) ;
#553 = CARTESIAN_POINT ( 'NONE',  ( 4.399999999999997691, 7.715274834628324392E-16, 5.999999999999999112 ) ) ;
#554 = ORIENTED_EDGE ( 'NONE', *, *, #654, .F. ) ;
#555 = DATE_TIME_ROLE ( 'creation_date' ) ;
#556 = CARTESIAN_POINT ( 'NONE',  ( 4.399999999999999467, 8.082668874372531019E-16, 6.599999999999999645 ) ) ;
#557 = VERTEX_POINT ( 'NONE', #91 ) ;
#558 = CYLINDRICAL_SURFACE ( 'NONE', #770, 13.97499999999999964 ) ;
#559 = CIRCLE ( 'NONE', #675, 15.40000000000000036 ) ;
#560 = AXIS2_PLACEMENT_3D ( 'NONE', #159, #565, #741 ) ;
#561 = EDGE_LOOP ( 'NONE', ( #8, #255, #535, #176 ) ) ;
#562 = CARTESIAN_POINT ( 'NONE',  ( -5.000000000000000888, 8.082668874372531019E-16, 6.599999999999999645 ) ) ;
#563 = CARTESIAN_POINT ( 'NONE',  ( 4.399999999999997691, 0.000000000000000000, 0.000000000000000000 ) ) ;
#564 = ORIENTED_EDGE ( 'NONE', *, *, #766, .T. ) ;
#565 = DIRECTION ( 'NONE',  ( 0.000000000000000000, -1.000000000000000000, 0.000000000000000000 ) ) ;
#566 = CARTESIAN_POINT ( 'NONE',  ( 4.400000000000000355, 0.000000000000000000, -15.40000000000000036 ) ) ;
#567 = ADVANCED_FACE ( 'NONE', ( #542 ), #700, .T. ) ;
#568 = DIRECTION ( 'NONE',  ( 1.000000000000000000, 0.000000000000000000, 0.000000000000000000 ) ) ;
#569 = VERTEX_POINT ( 'NONE', #26 ) ;
#570 = AXIS2_PLACEMENT_3D ( 'NONE', #525, #89, #340 ) ;
#571 = VECTOR ( 'NONE', #274, 1000.000000000000000 ) ;
#572 = AXIS2_PLACEMENT_3D ( 'NONE', #85, #25, #277 ) ;
#573 = DIRECTION ( 'NONE',  ( 1.000000000000000000, 0.000000000000000000, 0.000000000000000000 ) ) ;
#574 = ORIENTED_EDGE ( 'NONE', *, *, #484, .F. ) ;
#575 = CARTESIAN_POINT ( 'NONE',  ( -4.399999999999997691, 7.347880794884118750E-16, 5.999999999999999112 ) ) ;
#576 = DIRECTION ( 'NONE',  ( 0.000000000000000000, 1.224646799147353207E-16, 1.000000000000000000 ) ) ;
#577 = ADVANCED_FACE ( 'NONE', ( #344 ), #799, .T. ) ;
#578 = ORIENTED_EDGE ( 'NONE', *, *, #819, .F. ) ;
#579 = APPROVAL_DATE_TIME ( #145, #584 ) ;
#580 = CARTESIAN_POINT ( 'NONE',  ( 5.000000000000000888, 0.000000000000000000, 0.000000000000000000 ) ) ;
#581 = CARTESIAN_POINT ( 'NONE',  ( -20.63749999999999574, 1.530808498934191521E-15, 12.50000000000000000 ) ) ;
#582 = EDGE_LOOP ( 'NONE', ( #503, #395, #134, #806 ) ) ;
#583 = CALENDAR_DATE ( 2026, 23, 7 ) ;
#584 = APPROVAL ( #332, 'UNSPECIFIED' ) ;
#585 = AXIS2_PLACEMENT_3D ( 'NONE', #639, #633, #10 ) ;
#586 = CIRCLE ( 'NONE', #308, 8.024999999999996803 ) ;
#587 = DIRECTION ( 'NONE',  ( 0.000000000000000000, 0.000000000000000000, -1.000000000000000000 ) ) ;
#588 = DIRECTION ( 'NONE',  ( 1.000000000000000000, 0.000000000000000000, 0.000000000000000000 ) ) ;
#589 = ORIENTED_EDGE ( 'NONE', *, *, #430, .T. ) ;
#590 = DIRECTION ( 'NONE',  ( 1.000000000000000000, 0.000000000000000000, 0.000000000000000000 ) ) ;
#591 = CYLINDRICAL_SURFACE ( 'NONE', #636, 9.500000000000000000 ) ;
#592 = CYLINDRICAL_SURFACE ( 'NONE', #470, 16.00000000000000000 ) ;
#593 = EDGE_CURVE ( 'NONE', #797, #802, #203, .T. ) ;
#594 = EDGE_LOOP ( 'NONE', ( #704, #454, #283, #183 ) ) ;
#595 = AXIS2_PLACEMENT_3D ( 'NONE', #393, #709, #587 ) ;
#596 = AXIS2_PLACEMENT_3D ( 'NONE', #473, #339, #469 ) ;
#597 = DIRECTION ( 'NONE',  ( -1.000000000000000000, -0.000000000000000000, -0.000000000000000000 ) ) ;
#598 =( GEOMETRIC_REPRESENTATION_CONTEXT ( 3 ) GLOBAL_UNCERTAINTY_ASSIGNED_CONTEXT ( ( #135 ) ) GLOBAL_UNIT_ASSIGNED_CONTEXT ( ( #472, #653, #337 ) ) REPRESENTATION_CONTEXT ( 'NONE', 'WORKASPACE' ) );
#599 = CC_DESIGN_DATE_AND_TIME_ASSIGNMENT ( #796, #555, ( #541 ) ) ;
#600 = ORIENTED_EDGE ( 'NONE', *, *, #766, .F. ) ;
#601 = PERSON_AND_ORGANIZATION_ROLE ( 'design_supplier' ) ;
#602 = DIRECTION ( 'NONE',  ( 1.000000000000000000, 0.000000000000000000, 0.000000000000000000 ) ) ;
#603 = CIRCLE ( 'NONE', #88, 0.6000000000000007550 ) ;
#604 = EDGE_LOOP ( 'NONE', ( #62, #372, #615, #306 ) ) ;
#605 = DATE_AND_TIME ( #616, #68 ) ;
#606 = ADVANCED_FACE ( 'NONE', ( #213 ), #592, .T. ) ;
#607 = VERTEX_POINT ( 'NONE', #157 ) ;
#608 = DIRECTION ( 'NONE',  ( 1.000000000000000000, 0.000000000000000000, 0.000000000000000000 ) ) ;
#609 = CIRCLE ( 'NONE', #798, 12.50000000000000000 ) ;
#610 = AXIS2_PLACEMENT_3D ( 'NONE', #234, #278, #153 ) ;
#611 = AXIS2_PLACEMENT_3D ( 'NONE', #786, #719, #522 ) ;
#612 = ORIENTED_EDGE ( 'NONE', *, *, #365, .F. ) ;
#613 = DIRECTION ( 'NONE',  ( 0.000000000000000000, 0.000000000000000000, -1.000000000000000000 ) ) ;
#614 = CARTESIAN_POINT ( 'NONE',  ( -2.598076211353316900, 0.000000000000000000, 0.000000000000000000 ) ) ;
#615 = ORIENTED_EDGE ( 'NONE', *, *, #316, .T. ) ;
#616 = CALENDAR_DATE ( 2026, 23, 7 ) ;
#617 = DIRECTION ( 'NONE',  ( 1.000000000000000000, 0.000000000000000000, 0.000000000000000000 ) ) ;
#618 = ADVANCED_FACE ( 'NONE', ( #37 ), #676, .T. ) ;
#619 = ORIENTED_EDGE ( 'NONE', *, *, #370, .T. ) ;
#620 = DIRECTION ( 'NONE',  ( 0.000000000000000000, 1.000000000000000000, -1.224646799147353207E-16 ) ) ;
#621 = DIRECTION ( 'NONE',  ( 0.000000000000000000, -1.000000000000000000, 0.000000000000000000 ) ) ;
#622 = AXIS2_PLACEMENT_3D ( 'NONE', #141, #763, #207 ) ;
#623 = VECTOR ( 'NONE', #323, 1000.000000000000000 ) ;
#624 = DIRECTION ( 'NONE',  ( 0.000000000000000000, 0.000000000000000000, 1.000000000000000000 ) ) ;
#625 = ORIENTED_EDGE ( 'NONE', *, *, #38, .T. ) ;
#626 = EDGE_CURVE ( 'NONE', #403, #266, #549, .T. ) ;
#627 = DIRECTION ( 'NONE',  ( 1.000000000000000000, 0.000000000000000000, 0.000000000000000000 ) ) ;
#628 = EDGE_LOOP ( 'NONE', ( #208, #103, #195, #701 ) ) ;
#629 = EDGE_CURVE ( 'NONE', #539, #167, #495, .T. ) ;
#630 = ADVANCED_FACE ( 'NONE', ( #359 ), #191, .T. ) ;
#631 = DIRECTION ( 'NONE',  ( 1.000000000000000000, 0.000000000000000000, 0.000000000000000000 ) ) ;
#632 = VECTOR ( 'NONE', #444, 1000.000000000000000 ) ;
#633 = DIRECTION ( 'NONE',  ( 1.000000000000000000, 0.000000000000000000, 0.000000000000000000 ) ) ;
#634 = TOROIDAL_SURFACE ( 'NONE', #214, 11.00000000000000000, 3.000000000000000444 ) ;
#635 = CIRCLE ( 'NONE', #446, 12.50000000000000000 ) ;
#636 = AXIS2_PLACEMENT_3D ( 'NONE', #713, #28, #694 ) ;
#637 = DIRECTION ( 'NONE',  ( -1.000000000000000000, 0.000000000000000000, -0.000000000000000000 ) ) ;
#638 = EDGE_CURVE ( 'NONE', #489, #607, #681, .T. ) ;
#639 = CARTESIAN_POINT ( 'NONE',  ( -5.000000000000000888, 0.000000000000000000, 0.000000000000000000 ) ) ;
#640 = ORIENTED_EDGE ( 'NONE', *, *, #436, .F. ) ;
#641 = PERSON_AND_ORGANIZATION_ROLE ( 'design_owner' ) ;
#642 = CARTESIAN_POINT ( 'NONE',  ( -4.399999999999997691, 0.000000000000000000, -5.999999999999999112 ) ) ;
#643 = DIRECTION ( 'NONE',  ( -1.000000000000000000, 0.000000000000000000, -0.000000000000000000 ) ) ;
#644 = ORIENTED_EDGE ( 'NONE', *, *, #484, .T. ) ;
#645 = DIRECTION ( 'NONE',  ( 0.000000000000000000, 0.000000000000000000, -1.000000000000000000 ) ) ;
#646 = CARTESIAN_POINT ( 'NONE',  ( 2.598076211353316012, 0.000000000000000000, 0.000000000000000000 ) ) ;
#647 = ORIENTED_EDGE ( 'NONE', *, *, #545, .T. ) ;
#648 = AXIS2_PLACEMENT_3D ( 'NONE', #710, #72, #330 ) ;
#649 = AXIS2_PLACEMENT_3D ( 'NONE', #251, #109, #671 ) ;
#650 = AXIS2_PLACEMENT_3D ( 'NONE', #657, #776, #140 ) ;
#651 = CARTESIAN_POINT ( 'NONE',  ( -2.598076211353316900, 0.000000000000000000, 0.000000000000000000 ) ) ;
#652 = LINE ( 'NONE', #197, #318 ) ;
#653 =( NAMED_UNIT ( * ) PLANE_ANGLE_UNIT ( ) SI_UNIT ( $, .RADIAN. ) );
#654 = EDGE_CURVE ( 'NONE', #448, #90, #163, .T. ) ;
#655 = CARTESIAN_POINT ( 'NONE',  ( -20.63749999999999929, 0.000000000000000000, 0.000000000000000000 ) ) ;
#656 = VERTEX_POINT ( 'NONE', #437 ) ;
#657 = CARTESIAN_POINT ( 'NONE',  ( 5.000000000000000888, 0.000000000000000000, 0.000000000000000000 ) ) ;
#658 = DIRECTION ( 'NONE',  ( 0.000000000000000000, 0.000000000000000000, -1.000000000000000000 ) ) ;
#659 = VERTEX_POINT ( 'NONE', #501 ) ;
#660 = CIRCLE ( 'NONE', #361, 0.5999999999999998668 ) ;
#661 = FACE_OUTER_BOUND ( 'NONE', #669, .T. ) ;
#662 = CIRCLE ( 'NONE', #611, 16.00000000000000000 ) ;
#663 = ADVANCED_FACE ( 'NONE', ( #314 ), #349, .T. ) ;
#664 = ORIENTED_EDGE ( 'NONE', *, *, #747, .F. ) ;
#665 = APPROVAL_STATUS ( 'not_yet_approved' ) ;
#666 = FACE_OUTER_BOUND ( 'NONE', #582, .T. ) ;
#667 = CYLINDRICAL_SURFACE ( 'NONE', #201, 5.999999999999999112 ) ;
#668 = EDGE_CURVE ( 'NONE', #448, #656, #586, .T. ) ;
#669 = EDGE_LOOP ( 'NONE', ( #106, #625, #818, #775 ) ) ;
#670 = DATE_AND_TIME ( #240, #296 ) ;
#671 = DIRECTION ( 'NONE',  ( 0.000000000000000000, 0.000000000000000000, -1.000000000000000000 ) ) ;
#672 = ORIENTED_EDGE ( 'NONE', *, *, #21, .T. ) ;
#673 = COORDINATED_UNIVERSAL_TIME_OFFSET ( 3, 30, .AHEAD. ) ;
#674 = DIRECTION ( 'NONE',  ( -1.000000000000000000, -0.000000000000000000, -0.000000000000000000 ) ) ;
#675 = AXIS2_PLACEMENT_3D ( 'NONE', #385, #447, #682 ) ;
#676 = TOROIDAL_SURFACE ( 'NONE', #97, 15.40000000000000036, 0.6000000000000007550 ) ;
#677 = DIRECTION ( 'NONE',  ( 0.000000000000000000, 0.000000000000000000, 1.000000000000000000 ) ) ;
#678 = CIRCLE ( 'NONE', #204, 9.500000000000000000 ) ;
#679 = VERTEX_POINT ( 'NONE', #562 ) ;
#680 = EDGE_CURVE ( 'NONE', #802, #797, #635, .T. ) ;
#681 = LINE ( 'NONE', #52, #788 ) ;
#682 = DIRECTION ( 'NONE',  ( 0.000000000000000000, 0.000000000000000000, -1.000000000000000000 ) ) ;
#683 = DESIGN_CONTEXT ( 'detailed design', #548, 'design' ) ;
#684 = ORIENTED_EDGE ( 'NONE', *, *, #243, .F. ) ;
#685 = EDGE_CURVE ( 'NONE', #272, #144, #282, .T. ) ;
#686 = DIRECTION ( 'NONE',  ( 1.000000000000000000, 0.000000000000000000, 0.000000000000000000 ) ) ;
#687 = ORIENTED_EDGE ( 'NONE', *, *, #351, .T. ) ;
#688 = CARTESIAN_POINT ( 'NONE',  ( 4.400000000000000355, 0.000000000000000000, 0.000000000000000000 ) ) ;
#689 = CARTESIAN_POINT ( 'NONE',  ( -20.63749999999999574, 1.959434878635765131E-15, 16.00000000000000000 ) ) ;
#690 = AXIS2_PLACEMENT_3D ( 'NONE', #563, #126, #111 ) ;
#691 = AXIS2_PLACEMENT_3D ( 'NONE', #790, #721, #476 ) ;
#692 = ADVANCED_FACE ( 'NONE', ( #816 ), #558, .F. ) ;
#693 = ORIENTED_EDGE ( 'NONE', *, *, #552, .T. ) ;
#694 = DIRECTION ( 'NONE',  ( 0.000000000000000000, 0.000000000000000000, -1.000000000000000000 ) ) ;
#695 = DIRECTION ( 'NONE',  ( 0.000000000000000000, 0.000000000000000000, -1.000000000000000000 ) ) ;
#696 = DIRECTION ( 'NONE',  ( 0.000000000000000000, 0.000000000000000000, -1.000000000000000000 ) ) ;
#697 = FACE_OUTER_BOUND ( 'NONE', #561, .T. ) ;
#698 = CARTESIAN_POINT ( 'NONE',  ( 5.000000000000000000, 6.599999999999999645, 0.000000000000000000 ) ) ;
#699 = DIRECTION ( 'NONE',  ( 0.000000000000000000, 0.000000000000000000, -1.000000000000000000 ) ) ;
#700 = TOROIDAL_SURFACE ( 'NONE', #691, 11.00000000000000000, 3.000000000000000444 ) ;
#701 = ORIENTED_EDGE ( 'NONE', *, *, #375, .F. ) ;
#702 = DIRECTION ( 'NONE',  ( 0.000000000000000000, 0.000000000000000000, -1.000000000000000000 ) ) ;
#703 = CARTESIAN_POINT ( 'NONE',  ( 4.400000000000001243, 0.000000000000000000, 0.000000000000000000 ) ) ;
#704 = ORIENTED_EDGE ( 'NONE', *, *, #86, .F. ) ;
#705 = DIRECTION ( 'NONE',  ( 0.000000000000000000, 0.000000000000000000, -1.000000000000000000 ) ) ;
#706 = CARTESIAN_POINT ( 'NONE',  ( -5.000000000000000888, 0.000000000000000000, -6.599999999999999645 ) ) ;
#707 = ORIENTED_EDGE ( 'NONE', *, *, #441, .T. ) ;
#708 = DIRECTION ( 'NONE',  ( 0.000000000000000000, 0.000000000000000000, -1.000000000000000000 ) ) ;
#709 = DIRECTION ( 'NONE',  ( 0.000000000000000000, -1.000000000000000000, 0.000000000000000000 ) ) ;
#710 = CARTESIAN_POINT ( 'NONE',  ( 0.000000000000000000, 1.347111479062088405E-15, -11.00000000000000000 ) ) ;
#711 = ADVANCED_FACE ( 'NONE', ( #486 ), #45, .T. ) ;
#712 = EDGE_LOOP ( 'NONE', ( #433, #477, #771, #530 ) ) ;
#713 = CARTESIAN_POINT ( 'NONE',  ( -20.63749999999999929, 0.000000000000000000, 0.000000000000000000 ) ) ;
#714 = VECTOR ( 'NONE', #129, 1000.000000000000000 ) ;
#715 = AXIS2_PLACEMENT_3D ( 'NONE', #102, #29, #347 ) ;
#716 = CIRCLE ( 'NONE', #219, 6.599999999999999645 ) ;
#717 = CARTESIAN_POINT ( 'NONE',  ( -20.63749999999999574, 0.000000000000000000, 0.000000000000000000 ) ) ;
#718 = EDGE_LOOP ( 'NONE', ( #171, #51, #735, #124 ) ) ;
#719 = DIRECTION ( 'NONE',  ( 1.000000000000000000, 0.000000000000000000, 0.000000000000000000 ) ) ;
#720 = ADVANCED_FACE ( 'NONE', ( #49 ), #269, .T. ) ;
#721 = DIRECTION ( 'NONE',  ( -1.000000000000000000, -0.000000000000000000, -0.000000000000000000 ) ) ;
#722 = EDGE_LOOP ( 'NONE', ( #640, #500, #205, #664 ) ) ;
#723 = ADVANCED_FACE ( 'NONE', ( #300 ), #295, .T. ) ;
#724 = PLANE ( 'NONE',  #515 ) ;
#725 = ORIENTED_EDGE ( 'NONE', *, *, #593, .F. ) ;
#726 = PERSON_AND_ORGANIZATION ( #496, #379 ) ;
#727 = CIRCLE ( 'NONE', #119, 0.6000000000000007550 ) ;
#728 = CIRCLE ( 'NONE', #743, 9.500000000000000000 ) ;
#729 = CARTESIAN_POINT ( 'NONE',  ( 0.000000000000000000, 0.000000000000000000, 11.00000000000000000 ) ) ;
#730 = EDGE_CURVE ( 'NONE', #139, #272, #407, .T. ) ;
#731 = DIRECTION ( 'NONE',  ( 0.000000000000000000, 0.000000000000000000, -1.000000000000000000 ) ) ;
#732 = EDGE_LOOP ( 'NONE', ( #231, #707, #250, #294 ) ) ;
#733 = DIRECTION ( 'NONE',  ( 1.000000000000000000, 0.000000000000000000, 0.000000000000000000 ) ) ;
#734 = FACE_OUTER_BOUND ( 'NONE', #322, .T. ) ;
#735 = ORIENTED_EDGE ( 'NONE', *, *, #243, .T. ) ;
#736 = CARTESIAN_POINT ( 'NONE',  ( -4.400000000000000355, 0.000000000000000000, 0.000000000000000000 ) ) ;
#737 = CARTESIAN_POINT ( 'NONE',  ( 0.000000000000000000, 0.000000000000000000, 0.000000000000000000 ) ) ;
#738 = ORIENTED_EDGE ( 'NONE', *, *, #217, .T. ) ;
#739 = ADVANCED_FACE ( 'NONE', ( #297 ), #248, .T. ) ;
#740 = VECTOR ( 'NONE', #506, 1000.000000000000000 ) ;
#741 = DIRECTION ( 'NONE',  ( 0.000000000000000000, 0.000000000000000000, -1.000000000000000000 ) ) ;
#742 = CIRCLE ( 'NONE', #363, 13.97499999999999964 ) ;
#743 = AXIS2_PLACEMENT_3D ( 'NONE', #651, #202, #702 ) ;
#744 = DIRECTION ( 'NONE',  ( 1.000000000000000000, 0.000000000000000000, 0.000000000000000000 ) ) ;
#745 = AXIS2_PLACEMENT_3D ( 'NONE', #556, #620, #57 ) ;
#746 = AXIS2_PLACEMENT_3D ( 'NONE', #401, #590, #75 ) ;
#747 = EDGE_CURVE ( 'NONE', #41, #266, #122, .T. ) ;
#748 = CARTESIAN_POINT ( 'NONE',  ( 5.000000000000000888, 0.000000000000000000, 0.000000000000000000 ) ) ;
#749 = DIRECTION ( 'NONE',  ( 1.000000000000000000, 0.000000000000000000, 0.000000000000000000 ) ) ;
#750 = VERTEX_POINT ( 'NONE', #285 ) ;
#751 = DIRECTION ( 'NONE',  ( 0.000000000000000000, 0.000000000000000000, -1.000000000000000000 ) ) ;
#752 = EDGE_CURVE ( 'NONE', #242, #341, #678, .T. ) ;
#753 = CARTESIAN_POINT ( 'NONE',  ( -4.400000000000001243, 0.000000000000000000, -16.00000000000000000 ) ) ;
#754 = ORIENTED_EDGE ( 'NONE', *, *, #253, .T. ) ;
#755 = CARTESIAN_POINT ( 'NONE',  ( 0.3864906208434974455, 0.000000000000000000, 0.000000000000000000 ) ) ;
#756 = CC_DESIGN_PERSON_AND_ORGANIZATION_ASSIGNMENT ( #726, #172, ( #435 ) ) ;
#757 = AXIS2_PLACEMENT_3D ( 'NONE', #761, #524, #271 ) ;
#758 = AXIS2_PLACEMENT_3D ( 'NONE', #808, #241, #116 ) ;
#759 = VERTEX_POINT ( 'NONE', #342 ) ;
#760 = AXIS2_PLACEMENT_3D ( 'NONE', #498, #174, #751 ) ;
#761 = CARTESIAN_POINT ( 'NONE',  ( 0.3864906208434974455, 0.000000000000000000, 0.000000000000000000 ) ) ;
#762 = EDGE_LOOP ( 'NONE', ( #398, #352, #239, #494 ) ) ;
#763 = DIRECTION ( 'NONE',  ( 1.000000000000000000, 0.000000000000000000, 0.000000000000000000 ) ) ;
#764 = FACE_OUTER_BOUND ( 'NONE', #712, .T. ) ;
#765 = ORIENTED_EDGE ( 'NONE', *, *, #31, .T. ) ;
#766 = EDGE_CURVE ( 'NONE', #386, #139, #84, .T. ) ;
#767 = DIRECTION ( 'NONE',  ( -1.000000000000000000, -0.000000000000000000, -0.000000000000000000 ) ) ;
#768 = CIRCLE ( 'NONE', #648, 3.000000000000000888 ) ;
#769 = FACE_OUTER_BOUND ( 'NONE', #270, .T. ) ;
#770 = AXIS2_PLACEMENT_3D ( 'NONE', #813, #60, #440 ) ;
#771 = ORIENTED_EDGE ( 'NONE', *, *, #107, .F. ) ;
#772 = CC_DESIGN_SECURITY_CLASSIFICATION ( #435, ( #36 ) ) ;
#773 = CC_DESIGN_PERSON_AND_ORGANIZATION_ASSIGNMENT ( #232, #162, ( #36 ) ) ;
#774 = DIRECTION ( 'NONE',  ( 0.000000000000000000, 0.000000000000000000, -1.000000000000000000 ) ) ;
#775 = ORIENTED_EDGE ( 'NONE', *, *, #316, .F. ) ;
#776 = DIRECTION ( 'NONE',  ( 1.000000000000000000, 0.000000000000000000, 0.000000000000000000 ) ) ;
#777 = CARTESIAN_POINT ( 'NONE',  ( -5.000000000000000888, 0.000000000000000000, 0.000000000000000000 ) ) ;
#778 = DIRECTION ( 'NONE',  ( 0.000000000000000000, 0.000000000000000000, -1.000000000000000000 ) ) ;
#779 = ORIENTED_EDGE ( 'NONE', *, *, #654, .T. ) ;
#780 = LINE ( 'NONE', #93, #19 ) ;
#781 = DIRECTION ( 'NONE',  ( 0.000000000000000000, 0.000000000000000000, -1.000000000000000000 ) ) ;
#782 = EDGE_CURVE ( 'NONE', #750, #458, #662, .T. ) ;
#783 = CARTESIAN_POINT ( 'NONE',  ( 4.399999999999997691, 0.000000000000000000, -5.999999999999999112 ) ) ;
#784 = ADVANCED_FACE ( 'NONE', ( #346 ), #591, .T. ) ;
#785 = EDGE_LOOP ( 'NONE', ( #554, #33, #413, #154 ) ) ;
#786 = CARTESIAN_POINT ( 'NONE',  ( 4.400000000000001243, 0.000000000000000000, 0.000000000000000000 ) ) ;
#787 = CIRCLE ( 'NONE', #432, 12.50000000000000000 ) ;
#788 = VECTOR ( 'NONE', #113, 1000.000000000000000 ) ;
#789 = LOCAL_TIME ( 16, 5, 23.00000000000000000, #328 ) ;
#790 = CARTESIAN_POINT ( 'NONE',  ( 0.000000000000000000, 0.000000000000000000, 0.000000000000000000 ) ) ;
#791 = DIRECTION ( 'NONE',  ( 0.000000000000000000, 0.000000000000000000, -1.000000000000000000 ) ) ;
#792 = EDGE_LOOP ( 'NONE', ( #474, #303, #236, #77 ) ) ;
#793 = EDGE_CURVE ( 'NONE', #448, #150, #780, .T. ) ;
#794 = CARTESIAN_POINT ( 'NONE',  ( 4.399999999999999467, 0.000000000000000000, 0.000000000000000000 ) ) ;
#795 = ORIENTED_EDGE ( 'NONE', *, *, #668, .F. ) ;
#796 = DATE_AND_TIME ( #168, #309 ) ;
#797 = VERTEX_POINT ( 'NONE', #536 ) ;
#798 = AXIS2_PLACEMENT_3D ( 'NONE', #646, #573, #81 ) ;
#799 = TOROIDAL_SURFACE ( 'NONE', #481, 6.599999999999999645, 0.6000000000000007550 ) ;
#800 = DIRECTION ( 'NONE',  ( 0.000000000000000000, 0.000000000000000000, -1.000000000000000000 ) ) ;
#801 = CYLINDRICAL_SURFACE ( 'NONE', #230, 8.024999999999996803 ) ;
#802 = VERTEX_POINT ( 'NONE', #73 ) ;
#803 = COORDINATED_UNIVERSAL_TIME_OFFSET ( 3, 30, .AHEAD. ) ;
#804 = DIRECTION ( 'NONE',  ( 0.000000000000000000, 0.000000000000000000, -1.000000000000000000 ) ) ;
#805 = EDGE_CURVE ( 'NONE', #112, #679, #716, .T. ) ;
#806 = ORIENTED_EDGE ( 'NONE', *, *, #275, .T. ) ;
#807 = PERSON_AND_ORGANIZATION ( #496, #379 ) ;
#808 = CARTESIAN_POINT ( 'NONE',  ( -4.399999999999999467, 0.000000000000000000, 0.000000000000000000 ) ) ;
#809 = CARTESIAN_POINT ( 'NONE',  ( 0.000000000000000000, 0.000000000000000000, 0.000000000000000000 ) ) ;
#810 = PRODUCT_RELATED_PRODUCT_CATEGORY ( 'detail', '', ( #173 ) ) ;
#811 = ORIENTED_EDGE ( 'NONE', *, *, #76, .T. ) ;
#812 = CIRCLE ( 'NONE', #570, 0.6000000000000007550 ) ;
#813 = CARTESIAN_POINT ( 'NONE',  ( -20.63749999999999574, 0.000000000000000000, 0.000000000000000000 ) ) ;
#814 = CIRCLE ( 'NONE', #596, 13.97499999999999964 ) ;
#815 = ORIENTED_EDGE ( 'NONE', *, *, #517, .F. ) ;
#816 = FACE_OUTER_BOUND ( 'NONE', #358, .T. ) ;
#817 = DIRECTION ( 'NONE',  ( 1.000000000000000000, 0.000000000000000000, 0.000000000000000000 ) ) ;
#818 = ORIENTED_EDGE ( 'NONE', *, *, #680, .T. ) ;
#819 = EDGE_CURVE ( 'NONE', #186, #403, #192, .T. ) ;
#820 = DIRECTION ( 'NONE',  ( 1.000000000000000000, 0.000000000000000000, 0.000000000000000000 ) ) ;
#821 = ORIENTED_EDGE ( 'NONE', *, *, #370, .F. ) ;
ENDSEC;
END-ISO-10303-21;
