ISO-10303-21;
HEADER;
FILE_DESCRIPTION (( 'STEP AP203' ),
    '1' );
FILE_NAME ('Link2BackShaft_Default_sldprt.STEP',
    '2026-07-23T12:34:51',
    ( '' ),
    ( '' ),
    'SwSTEP 2.0',
    'SolidWorks 2025',
    '' );
FILE_SCHEMA (( 'CONFIG_CONTROL_DESIGN' ));
ENDSEC;

DATA;
#1 = ORIENTED_EDGE ( 'NONE', *, *, #455, .F. ) ;
#2 = ORIENTED_EDGE ( 'NONE', *, *, #499, .F. ) ;
#3 = DIRECTION ( 'NONE',  ( -1.000000000000000000, -0.000000000000000000, -0.000000000000000000 ) ) ;
#4 = CIRCLE ( 'NONE', #992, 7.490000000000002878 ) ;
#5 = FACE_OUTER_BOUND ( 'NONE', #410, .T. ) ;
#6 = AXIS2_PLACEMENT_3D ( 'NONE', #429, #665, #35 ) ;
#7 = DIRECTION ( 'NONE',  ( -1.000000000000000000, -0.000000000000000000, -0.000000000000000000 ) ) ;
#8 = ORIENTED_EDGE ( 'NONE', *, *, #102, .T. ) ;
#9 = CARTESIAN_POINT ( 'NONE',  ( 26.00000000000000000, 6.110987527745297461E-16, -4.990000000000003766 ) ) ;
#10 = CARTESIAN_POINT ( 'NONE',  ( 0.000000000000000000, 0.000000000000000000, 4.990000000000001101 ) ) ;
#11 = ORIENTED_EDGE ( 'NONE', *, *, #867, .T. ) ;
#12 = ORIENTED_EDGE ( 'NONE', *, *, #60, .F. ) ;
#13 = PLANE ( 'NONE',  #815 ) ;
#14 = DIRECTION ( 'NONE',  ( -1.000000000000000000, -0.000000000000000000, -0.000000000000000000 ) ) ;
#15 = EDGE_LOOP ( 'NONE', ( #409, #286, #491, #392, #86, #359 ) ) ;
#16 = ADVANCED_FACE ( 'NONE', ( #881 ), #473, .T. ) ;
#17 = ORIENTED_EDGE ( 'NONE', *, *, #142, .T. ) ;
#18 = DIRECTION ( 'NONE',  ( 1.000000000000000000, 0.000000000000000000, 0.000000000000000000 ) ) ;
#19 = LINE ( 'NONE', #337, #792 ) ;
#20 = CARTESIAN_POINT ( 'NONE',  ( 38.50000000000000000, 0.000000000000000000, 0.000000000000000000 ) ) ;
#21 = ORIENTED_EDGE ( 'NONE', *, *, #852, .F. ) ;
#22 = LINE ( 'NONE', #178, #954 ) ;
#23 = EDGE_CURVE ( 'NONE', #962, #885, #927, .T. ) ;
#24 = CARTESIAN_POINT ( 'NONE',  ( 38.50000000000000000, 0.000000000000000000, -4.790000000000006253 ) ) ;
#25 = DIRECTION ( 'NONE',  ( -1.000000000000000000, -0.000000000000000000, -0.000000000000000000 ) ) ;
#26 = EDGE_LOOP ( 'NONE', ( #643, #646, #432, #420 ) ) ;
#27 = FACE_OUTER_BOUND ( 'NONE', #799, .T. ) ;
#28 = EDGE_CURVE ( 'NONE', #747, #995, #502, .T. ) ;
#29 = CARTESIAN_POINT ( 'NONE',  ( 54.00000000000000000, 0.000000000000000000, 4.990000000000006430 ) ) ;
#30 = AXIS2_PLACEMENT_3D ( 'NONE', #145, #456, #238 ) ;
#31 = DIRECTION ( 'NONE',  ( -1.000000000000000000, -0.000000000000000000, -0.000000000000000000 ) ) ;
#32 = CIRCLE ( 'NONE', #363, 7.490000000000001990 ) ;
#33 = ORIENTED_EDGE ( 'NONE', *, *, #50, .F. ) ;
#34 = FACE_BOUND ( 'NONE', #487, .T. ) ;
#35 = DIRECTION ( 'NONE',  ( 0.000000000000000000, 0.000000000000000000, 1.000000000000000000 ) ) ;
#36 = EDGE_CURVE ( 'NONE', #448, #239, #480, .T. ) ;
#37 = VECTOR ( 'NONE', #143, 1000.000000000000000 ) ;
#38 = CARTESIAN_POINT ( 'NONE',  ( 3.000000000000000000, 6.110987527745293517E-16, -4.990000000000000213 ) ) ;
#39 = ORIENTED_EDGE ( 'NONE', *, *, #507, .T. ) ;
#40 = CARTESIAN_POINT ( 'NONE',  ( 3.000000000000000000, 0.000000000000000000, -4.790000000000000924 ) ) ;
#41 = DIRECTION ( 'NONE',  ( 0.000000000000000000, 0.000000000000000000, -1.000000000000000000 ) ) ;
#42 = CARTESIAN_POINT ( 'NONE',  ( 3.000000000000000000, 5.866058167915823418E-16, -4.790000000000000924 ) ) ;
#43 = EDGE_LOOP ( 'NONE', ( #870, #729, #983, #386, #250, #259 ) ) ;
#44 = CARTESIAN_POINT ( 'NONE',  ( 30.50000000000000000, 0.000000000000000000, 0.000000000000000000 ) ) ;
#45 = CYLINDRICAL_SURFACE ( 'NONE', #321, 4.790000000000006253 ) ;
#46 = AXIS2_PLACEMENT_3D ( 'NONE', #472, #324, #170 ) ;
#47 = DIRECTION ( 'NONE',  ( 0.000000000000000000, 0.000000000000000000, 1.000000000000000000 ) ) ;
#48 = EDGE_LOOP ( 'NONE', ( #771, #856 ) ) ;
#49 = CARTESIAN_POINT ( 'NONE',  ( 14.00000000000000000, 9.172604525613678137E-16, -7.490000000000001990 ) ) ;
#50 = EDGE_CURVE ( 'NONE', #364, #677, #519, .T. ) ;
#51 = AXIS2_PLACEMENT_3D ( 'NONE', #246, #737, #888 ) ;
#52 = CARTESIAN_POINT ( 'NONE',  ( 29.50000000000000000, 0.000000000000000000, 0.000000000000000000 ) ) ;
#53 = CARTESIAN_POINT ( 'NONE',  ( 24.00000000000000000, 2.000000000000002665, 7.228416147400479552 ) ) ;
#54 = AXIS2_PLACEMENT_3D ( 'NONE', #642, #965, #560 ) ;
#55 = VERTEX_POINT ( 'NONE', #42 ) ;
#56 = APPROVAL_DATE_TIME ( #857, #414 ) ;
#57 = DIRECTION ( 'NONE',  ( 0.000000000000000000, 0.000000000000000000, 1.000000000000000000 ) ) ;
#58 = ORIENTED_EDGE ( 'NONE', *, *, #744, .F. ) ;
#59 = PERSON_AND_ORGANIZATION_ROLE ( 'classification_officer' ) ;
#60 = EDGE_CURVE ( 'NONE', #831, #55, #680, .T. ) ;
#61 = DIRECTION ( 'NONE',  ( 0.000000000000000000, 0.000000000000000000, 1.000000000000000000 ) ) ;
#62 = ORIENTED_EDGE ( 'NONE', *, *, #921, .F. ) ;
#63 = PERSON_AND_ORGANIZATION ( #493, #84 ) ;
#64 = AXIS2_PLACEMENT_3D ( 'NONE', #90, #248, #565 ) ;
#65 = CIRCLE ( 'NONE', #214, 4.990000000000002878 ) ;
#66 = AXIS2_PLACEMENT_3D ( 'NONE', #811, #3, #317 ) ;
#67 = AXIS2_PLACEMENT_3D ( 'NONE', #823, #979, #340 ) ;
#68 = CARTESIAN_POINT ( 'NONE',  ( 38.50000000000000000, 0.000000000000000000, 0.000000000000000000 ) ) ;
#69 = ADVANCED_FACE ( 'NONE', ( #908 ), #829, .F. ) ;
#70 = EDGE_LOOP ( 'NONE', ( #1035, #294, #809, #253, #334, #592 ) ) ;
#71 = AXIS2_PLACEMENT_3D ( 'NONE', #20, #987, #671 ) ;
#72 = AXIS2_PLACEMENT_3D ( 'NONE', #452, #1014, #1009 ) ;
#73 = CARTESIAN_POINT ( 'NONE',  ( 14.00000000000000000, 2.000000000000003109, -4.571662717217884087 ) ) ;
#74 = CARTESIAN_POINT ( 'NONE',  ( 14.00000000000000000, 2.000000000000002665, -7.218039900139096687 ) ) ;
#75 = ORIENTED_EDGE ( 'NONE', *, *, #584, .T. ) ;
#76 = COORDINATED_UNIVERSAL_TIME_OFFSET ( 3, 30, .AHEAD. ) ;
#77 = EDGE_CURVE ( 'NONE', #662, #425, #586, .T. ) ;
#78 = DIRECTION ( 'NONE',  ( -1.000000000000000000, 0.000000000000000000, -0.000000000000000000 ) ) ;
#79 = DIRECTION ( 'NONE',  ( 0.000000000000000000, 0.000000000000000000, 1.000000000000000000 ) ) ;
#80 = EDGE_LOOP ( 'NONE', ( #918, #701, #457, #376 ) ) ;
#81 = ORIENTED_EDGE ( 'NONE', *, *, #396, .T. ) ;
#82 = PLANE ( 'NONE',  #727 ) ;
#83 = CIRCLE ( 'NONE', #427, 4.990000000000001101 ) ;
#84 = ORGANIZATION ( 'UNSPECIFIED', 'UNSPECIFIED', '' ) ;
#85 = CARTESIAN_POINT ( 'NONE',  ( 30.50000000000000000, 0.000000000000000000, -4.990000000000004654 ) ) ;
#86 = ORIENTED_EDGE ( 'NONE', *, *, #440, .T. ) ;
#87 = ORIENTED_EDGE ( 'NONE', *, *, #634, .T. ) ;
#88 = FACE_OUTER_BOUND ( 'NONE', #956, .T. ) ;
#89 = ADVANCED_FACE ( 'NONE', ( #666 ), #676, .T. ) ;
#90 = CARTESIAN_POINT ( 'NONE',  ( 0.000000000000000000, 0.000000000000000000, 0.000000000000000000 ) ) ;
#91 = DIRECTION ( 'NONE',  ( 1.000000000000000000, 0.000000000000000000, 0.000000000000000000 ) ) ;
#92 = ORIENTED_EDGE ( 'NONE', *, *, #188, .F. ) ;
#93 = CARTESIAN_POINT ( 'NONE',  ( 24.00000000000000000, -1.999999999999997335, 7.228416147400479552 ) ) ;
#94 = DIRECTION ( 'NONE',  ( -1.000000000000000000, -0.000000000000000000, -0.000000000000000000 ) ) ;
#95 = EDGE_CURVE ( 'NONE', #876, #977, #277, .T. ) ;
#96 = ORIENTED_EDGE ( 'NONE', *, *, #302, .T. ) ;
#97 = VERTEX_POINT ( 'NONE', #820 ) ;
#98 = CARTESIAN_POINT ( 'NONE',  ( 29.50000000000000000, 5.866058167915828348E-16, -4.790000000000005365 ) ) ;
#99 = CARTESIAN_POINT ( 'NONE',  ( 26.00000000000000355, 0.000000000000000000, -4.990000000000003766 ) ) ;
#100 = VECTOR ( 'NONE', #1038, 1000.000000000000000 ) ;
#101 = CARTESIAN_POINT ( 'NONE',  ( 4.000000000000000000, 0.000000000000000000, 0.000000000000000000 ) ) ;
#102 = EDGE_CURVE ( 'NONE', #1029, #931, #618, .T. ) ;
#103 = EDGE_LOOP ( 'NONE', ( #146, #810 ) ) ;
#104 = DIRECTION ( 'NONE',  ( 0.000000000000000000, 0.000000000000000000, -1.000000000000000000 ) ) ;
#105 = CIRCLE ( 'NONE', #71, 4.990000000000004654 ) ;
#106 = PLANE ( 'NONE',  #944 ) ;
#107 = CARTESIAN_POINT ( 'NONE',  ( 14.00000000000000000, -1.999999999999997335, 7.228416147400479552 ) ) ;
#108 = EDGE_LOOP ( 'NONE', ( #717, #92 ) ) ;
#109 = FACE_OUTER_BOUND ( 'NONE', #339, .T. ) ;
#110 = EDGE_CURVE ( 'NONE', #166, #766, #105, .T. ) ;
#111 = DIRECTION ( 'NONE',  ( -1.000000000000000000, -0.000000000000000000, -0.000000000000000000 ) ) ;
#112 = CARTESIAN_POINT ( 'NONE',  ( 30.50000000000000000, 0.000000000000000000, 0.000000000000000000 ) ) ;
#113 = ORIENTED_EDGE ( 'NONE', *, *, #199, .F. ) ;
#114 = DIRECTION ( 'NONE',  ( -1.000000000000000000, -0.000000000000000000, -0.000000000000000000 ) ) ;
#115 = DIRECTION ( 'NONE',  ( 0.000000000000000000, 0.000000000000000000, 1.000000000000000000 ) ) ;
#116 = AXIS2_PLACEMENT_3D ( 'NONE', #257, #912, #509 ) ;
#117 = CIRCLE ( 'NONE', #293, 4.990000000000001101 ) ;
#118 = CARTESIAN_POINT ( 'NONE',  ( 39.50000000000000000, 0.000000000000000000, 0.000000000000000000 ) ) ;
#119 = PRODUCT_DEFINITION_FORMATION_WITH_SPECIFIED_SOURCE ( 'ANY', '', #451, .NOT_KNOWN. ) ;
#120 = ORIENTED_EDGE ( 'NONE', *, *, #223, .T. ) ;
#121 = CARTESIAN_POINT ( 'NONE',  ( 0.000000000000000000, 0.000000000000000000, 4.790000000000006253 ) ) ;
#122 = DIRECTION ( 'NONE',  ( -1.000000000000000000, -0.000000000000000000, -0.000000000000000000 ) ) ;
#123 = DIRECTION ( 'NONE',  ( 0.000000000000000000, 0.000000000000000000, 1.000000000000000000 ) ) ;
#124 = ORIENTED_EDGE ( 'NONE', *, *, #428, .T. ) ;
#125 = CARTESIAN_POINT ( 'NONE',  ( 4.000000000000000000, 6.110987527745294503E-16, -4.990000000000001101 ) ) ;
#126 = DIRECTION ( 'NONE',  ( 0.000000000000000000, 0.000000000000000000, 1.000000000000000000 ) ) ;
#127 = ADVANCED_FACE ( 'NONE', ( #751 ), #755, .T. ) ;
#128 = PLANE ( 'NONE',  #873 ) ;
#129 = ORIENTED_EDGE ( 'NONE', *, *, #428, .F. ) ;
#130 = CARTESIAN_POINT ( 'NONE',  ( 3.000000000000000000, 0.000000000000000000, 0.000000000000000000 ) ) ;
#131 = CARTESIAN_POINT ( 'NONE',  ( 29.50000000000000000, 0.000000000000000000, -4.790000000000005365 ) ) ;
#132 = FACE_OUTER_BOUND ( 'NONE', #453, .T. ) ;
#133 = EDGE_CURVE ( 'NONE', #972, #492, #656, .T. ) ;
#134 = ORIENTED_EDGE ( 'NONE', *, *, #110, .T. ) ;
#135 = MECHANICAL_CONTEXT ( 'NONE', #483, 'mechanical' ) ;
#136 = EDGE_CURVE ( 'NONE', #977, #322, #551, .T. ) ;
#137 = AXIS2_PLACEMENT_3D ( 'NONE', #817, #18, #104 ) ;
#138 = CARTESIAN_POINT ( 'NONE',  ( 39.50000000000000000, 5.866058167915828348E-16, -4.790000000000005365 ) ) ;
#139 = AXIS2_PLACEMENT_3D ( 'NONE', #694, #209, #843 ) ;
#140 = EDGE_LOOP ( 'NONE', ( #1015, #120, #500, #333 ) ) ;
#141 = APPROVAL_ROLE ( '' ) ;
#142 = EDGE_CURVE ( 'NONE', #766, #166, #283, .T. ) ;
#143 = DIRECTION ( 'NONE',  ( -1.000000000000000000, -0.000000000000000000, -0.000000000000000000 ) ) ;
#144 = ORIENTED_EDGE ( 'NONE', *, *, #522, .F. ) ;
#145 = CARTESIAN_POINT ( 'NONE',  ( 14.00000000000000000, 0.000000000000000000, 0.000000000000000000 ) ) ;
#146 = ORIENTED_EDGE ( 'NONE', *, *, #244, .F. ) ;
#147 = CARTESIAN_POINT ( 'NONE',  ( 38.50000000000000000, 6.110987527745298447E-16, -4.990000000000004654 ) ) ;
#148 = CC_DESIGN_APPROVAL ( #1031, ( #458 ) ) ;
#149 = CARTESIAN_POINT ( 'NONE',  ( 0.000000000000000000, -1.999999999999997335, -7.218039900139097576 ) ) ;
#150 = ADVANCED_FACE ( 'NONE', ( #436 ), #814, .T. ) ;
#151 = ORIENTED_EDGE ( 'NONE', *, *, #852, .T. ) ;
#152 = CALENDAR_DATE ( 2026, 23, 7 ) ;
#153 = AXIS2_PLACEMENT_3D ( 'NONE', #101, #31, #342 ) ;
#154 = DIRECTION ( 'NONE',  ( 0.000000000000000000, 0.000000000000000000, 1.000000000000000000 ) ) ;
#155 = DIRECTION ( 'NONE',  ( -1.000000000000000000, -0.000000000000000000, -0.000000000000000000 ) ) ;
#156 = VERTEX_POINT ( 'NONE', #353 ) ;
#157 = EDGE_LOOP ( 'NONE', ( #630, #574, #886, #437 ) ) ;
#158 = FACE_OUTER_BOUND ( 'NONE', #673, .T. ) ;
#159 = DIRECTION ( 'NONE',  ( -1.000000000000000000, -0.000000000000000000, -0.000000000000000000 ) ) ;
#160 = ORIENTED_EDGE ( 'NONE', *, *, #358, .T. ) ;
#161 = VERTEX_POINT ( 'NONE', #761 ) ;
#162 = CARTESIAN_POINT ( 'NONE',  ( 0.000000000000000000, 0.000000000000000000, 0.000000000000000000 ) ) ;
#163 = EDGE_CURVE ( 'NONE', #322, #977, #520, .T. ) ;
#164 = AXIS2_PLACEMENT_3D ( 'NONE', #1012, #668, #919 ) ;
#165 = CYLINDRICAL_SURFACE ( 'NONE', #64, 4.990000000000002878 ) ;
#166 = VERTEX_POINT ( 'NONE', #264 ) ;
#167 = AXIS2_PLACEMENT_3D ( 'NONE', #52, #702, #1027 ) ;
#168 = VERTEX_POINT ( 'NONE', #338 ) ;
#169 = LINE ( 'NONE', #93, #684 ) ;
#170 = DIRECTION ( 'NONE',  ( 0.000000000000000000, 0.000000000000000000, 1.000000000000000000 ) ) ;
#171 = VERTEX_POINT ( 'NONE', #825 ) ;
#172 = VERTEX_POINT ( 'NONE', #38 ) ;
#173 = DIRECTION ( 'NONE',  ( -1.000000000000000000, -0.000000000000000000, -0.000000000000000000 ) ) ;
#174 = CC_DESIGN_PERSON_AND_ORGANIZATION_ASSIGNMENT ( #377, #776, ( #119 ) ) ;
#175 = CARTESIAN_POINT ( 'NONE',  ( 3.000000000000000000, 0.000000000000000000, 4.790000000000000924 ) ) ;
#176 = ORIENTED_EDGE ( 'NONE', *, *, #539, .F. ) ;
#177 = VERTEX_POINT ( 'NONE', #579 ) ;
#178 = CARTESIAN_POINT ( 'NONE',  ( 0.000000000000000000, 0.000000000000000000, 4.990000000000005542 ) ) ;
#179 = VECTOR ( 'NONE', #332, 1000.000000000000000 ) ;
#180 = DIRECTION ( 'NONE',  ( -1.000000000000000000, -0.000000000000000000, -0.000000000000000000 ) ) ;
#181 = AXIS2_PLACEMENT_3D ( 'NONE', #678, #674, #344 ) ;
#182 = EDGE_CURVE ( 'NONE', #962, #441, #594, .T. ) ;
#183 = CARTESIAN_POINT ( 'NONE',  ( 1.224646799147250347E-18, 0.000000000000000000, 0.000000000000000000 ) ) ;
#184 = ORIENTED_EDGE ( 'NONE', *, *, #110, .F. ) ;
#185 = CARTESIAN_POINT ( 'NONE',  ( 14.00000000000000000, 6.110987527745294503E-16, -4.990000000000001101 ) ) ;
#186 = DIRECTION ( 'NONE',  ( -1.000000000000000000, -0.000000000000000000, -0.000000000000000000 ) ) ;
#187 = DIRECTION ( 'NONE',  ( 1.000000000000000000, 0.000000000000000000, -0.000000000000000000 ) ) ;
#188 = EDGE_CURVE ( 'NONE', #468, #860, #202, .T. ) ;
#189 = ORIENTED_EDGE ( 'NONE', *, *, #256, .T. ) ;
#190 = CARTESIAN_POINT ( 'NONE',  ( 30.50000000000000000, 0.000000000000000000, 4.990000000000004654 ) ) ;
#191 = CYLINDRICAL_SURFACE ( 'NONE', #116, 4.990000000000005542 ) ;
#192 = CARTESIAN_POINT ( 'NONE',  ( 38.50000000000000000, 0.000000000000000000, 0.000000000000000000 ) ) ;
#193 = ORIENTED_EDGE ( 'NONE', *, *, #627, .F. ) ;
#194 =( LENGTH_UNIT ( ) NAMED_UNIT ( * ) SI_UNIT ( .MILLI., .METRE. ) );
#195 = CARTESIAN_POINT ( 'NONE',  ( 14.00000000000000000, -1.999999999999997335, 7.228416147400479552 ) ) ;
#196 = CARTESIAN_POINT ( 'NONE',  ( 0.000000000000000000, 0.000000000000000000, 0.000000000000000000 ) ) ;
#197 = AXIS2_PLACEMENT_3D ( 'NONE', #1001, #114, #996 ) ;
#198 = ORIENTED_EDGE ( 'NONE', *, *, #223, .F. ) ;
#199 = EDGE_CURVE ( 'NONE', #254, #326, #925, .T. ) ;
#200 = CARTESIAN_POINT ( 'NONE',  ( 1.224646799147250347E-18, 0.000000000000000000, 4.990000000000000213 ) ) ;
#201 = AXIS2_PLACEMENT_3D ( 'NONE', #404, #728, #357 ) ;
#202 = CIRCLE ( 'NONE', #787, 4.790000000000006253 ) ;
#203 = CLOSED_SHELL ( 'NONE', ( #288, #281, #127, #150, #706, #726, #422, #648, #497, #596, #813, #659, #16, #1002, #803, #563, #89, #461, #773, #734, #476, #613, #484, #789, #550, #782, #280, #993, #275, #895, #915, #233, #69, #216, #336 ) ) ;
#204 = CARTESIAN_POINT ( 'NONE',  ( 0.000000000000000000, 5.866058167915823418E-16, -4.790000000000000924 ) ) ;
#205 = ORIENTED_EDGE ( 'NONE', *, *, #346, .T. ) ;
#206 = CARTESIAN_POINT ( 'NONE',  ( 26.00000000000000000, 0.000000000000000000, 4.990000000000003766 ) ) ;
#207 = PLANE ( 'NONE',  #298 ) ;
#208 = PRODUCT_DEFINITION ( 'UNKNOWN', '', #119, #819 ) ;
#209 = DIRECTION ( 'NONE',  ( -1.000000000000000000, -0.000000000000000000, -0.000000000000000000 ) ) ;
#210 = AXIS2_PLACEMENT_3D ( 'NONE', #99, #412, #271 ) ;
#211 = EDGE_LOOP ( 'NONE', ( #151, #39 ) ) ;
#212 = CARTESIAN_POINT ( 'NONE',  ( 54.00000000000000000, 6.110987527745300420E-16, -4.990000000000006430 ) ) ;
#213 = CARTESIAN_POINT ( 'NONE',  ( 14.00000000000000000, 0.000000000000000000, 0.000000000000000000 ) ) ;
#214 = AXIS2_PLACEMENT_3D ( 'NONE', #467, #880, #721 ) ;
#215 = AXIS2_PLACEMENT_3D ( 'NONE', #282, #958, #791 ) ;
#216 = ADVANCED_FACE ( 'NONE', ( #535 ), #128, .F. ) ;
#217 = ORIENTED_EDGE ( 'NONE', *, *, #1023, .T. ) ;
#218 = APPLICATION_PROTOCOL_DEFINITION ( 'international standard', 'config_control_design', 1994, #845 ) ;
#219 = APPROVAL_PERSON_ORGANIZATION ( #1036, #713, #141 ) ;
#220 = FACE_OUTER_BOUND ( 'NONE', #567, .T. ) ;
#221 = AXIS2_PLACEMENT_3D ( 'NONE', #439, #765, #367 ) ;
#222 = ORIENTED_EDGE ( 'NONE', *, *, #28, .F. ) ;
#223 = EDGE_CURVE ( 'NONE', #254, #1029, #605, .T. ) ;
#224 = CYLINDRICAL_SURFACE ( 'NONE', #72, 4.790000000000000924 ) ;
#225 = ORIENTED_EDGE ( 'NONE', *, *, #370, .T. ) ;
#226 = PERSON_AND_ORGANIZATION_ROLE ( 'creator' ) ;
#227 = FACE_OUTER_BOUND ( 'NONE', #157, .T. ) ;
#228 = DIRECTION ( 'NONE',  ( 0.000000000000000000, 0.000000000000000000, 1.000000000000000000 ) ) ;
#229 = EDGE_LOOP ( 'NONE', ( #58, #1011, #11, #687 ) ) ;
#230 = DIRECTION ( 'NONE',  ( 1.000000000000000000, 0.000000000000000000, 0.000000000000000000 ) ) ;
#231 = LINE ( 'NONE', #553, #608 ) ;
#232 = CC_DESIGN_SECURITY_CLASSIFICATION ( #458, ( #119 ) ) ;
#233 = ADVANCED_FACE ( 'NONE', ( #447 ), #699, .F. ) ;
#234 = DIRECTION ( 'NONE',  ( 0.000000000000000000, 0.000000000000000000, 1.000000000000000000 ) ) ;
#235 = ORIENTED_EDGE ( 'NONE', *, *, #370, .F. ) ;
#236 = ORIENTED_EDGE ( 'NONE', *, *, #408, .T. ) ;
#237 = FACE_OUTER_BOUND ( 'NONE', #681, .T. ) ;
#238 = DIRECTION ( 'NONE',  ( -0.000000000000000000, 0.000000000000000000, -1.000000000000000000 ) ) ;
#239 = VERTEX_POINT ( 'NONE', #362 ) ;
#240 = ORIENTED_EDGE ( 'NONE', *, *, #136, .T. ) ;
#241 = DIRECTION ( 'NONE',  ( -1.000000000000000000, -0.000000000000000000, -0.000000000000000000 ) ) ;
#242 = DIRECTION ( 'NONE',  ( -0.000000000000000000, -0.000000000000000000, 1.000000000000000000 ) ) ;
#243 = DIRECTION ( 'NONE',  ( 0.000000000000000000, 0.000000000000000000, 1.000000000000000000 ) ) ;
#244 = EDGE_CURVE ( 'NONE', #156, #524, #4, .T. ) ;
#245 = ORIENTED_EDGE ( 'NONE', *, *, #821, .F. ) ;
#246 = CARTESIAN_POINT ( 'NONE',  ( 24.00000000000000000, 0.000000000000000000, 0.000000000000000000 ) ) ;
#247 = CIRCLE ( 'NONE', #67, 4.790000000000005365 ) ;
#248 = DIRECTION ( 'NONE',  ( -1.000000000000000000, -0.000000000000000000, -0.000000000000000000 ) ) ;
#249 = EDGE_LOOP ( 'NONE', ( #978, #189, #1018, #775, #205, #33, #124, #569 ) ) ;
#250 = ORIENTED_EDGE ( 'NONE', *, *, #693, .T. ) ;
#251 = CARTESIAN_POINT ( 'NONE',  ( 0.000000000000000000, 0.000000000000000000, 4.790000000000006253 ) ) ;
#252 = FACE_OUTER_BOUND ( 'NONE', #70, .T. ) ;
#253 = ORIENTED_EDGE ( 'NONE', *, *, #1039, .T. ) ;
#254 = VERTEX_POINT ( 'NONE', #138 ) ;
#255 = FACE_OUTER_BOUND ( 'NONE', #470, .T. ) ;
#256 = EDGE_CURVE ( 'NONE', #524, #156, #589, .T. ) ;
#257 = CARTESIAN_POINT ( 'NONE',  ( 0.000000000000000000, 0.000000000000000000, 0.000000000000000000 ) ) ;
#258 = CARTESIAN_POINT ( 'NONE',  ( 0.000000000000000000, 0.000000000000000000, 0.000000000000000000 ) ) ;
#259 = ORIENTED_EDGE ( 'NONE', *, *, #980, .T. ) ;
#260 = CARTESIAN_POINT ( 'NONE',  ( 0.000000000000000000, 0.000000000000000000, 4.990000000000004654 ) ) ;
#261 = FACE_OUTER_BOUND ( 'NONE', #103, .T. ) ;
#262 = EDGE_CURVE ( 'NONE', #885, #168, #891, .T. ) ;
#263 = CIRCLE ( 'NONE', #66, 4.990000000000003766 ) ;
#264 = CARTESIAN_POINT ( 'NONE',  ( 38.50000000000000000, 0.000000000000000000, 4.990000000000004654 ) ) ;
#265 = ORIENTED_EDGE ( 'NONE', *, *, #698, .T. ) ;
#266 = LINE ( 'NONE', #926, #582 ) ;
#267 = FACE_BOUND ( 'NONE', #211, .T. ) ;
#268 = DIRECTION ( 'NONE',  ( -1.000000000000000000, -0.000000000000000000, -0.000000000000000000 ) ) ;
#269 = ORIENTED_EDGE ( 'NONE', *, *, #732, .F. ) ;
#270 = FACE_OUTER_BOUND ( 'NONE', #752, .T. ) ;
#271 = DIRECTION ( 'NONE',  ( -0.000000000000000000, 0.000000000000000000, 1.000000000000000000 ) ) ;
#272 = DIRECTION ( 'NONE',  ( -1.000000000000000000, -0.000000000000000000, -0.000000000000000000 ) ) ;
#273 = EDGE_LOOP ( 'NONE', ( #2, #742, #966, #650 ) ) ;
#274 = DIRECTION ( 'NONE',  ( 1.000000000000000000, 0.000000000000000000, 0.000000000000000000 ) ) ;
#275 = ADVANCED_FACE ( 'NONE', ( #850 ), #304, .T. ) ;
#276 = DIRECTION ( 'NONE',  ( -1.000000000000000000, -0.000000000000000000, -0.000000000000000000 ) ) ;
#277 = LINE ( 'NONE', #923, #654 ) ;
#278 = EDGE_LOOP ( 'NONE', ( #778, #528, #372, #399 ) ) ;
#279 = DIRECTION ( 'NONE',  ( 0.000000000000000000, 0.000000000000000000, 1.000000000000000000 ) ) ;
#280 = ADVANCED_FACE ( 'NONE', ( #781 ), #374, .T. ) ;
#281 = ADVANCED_FACE ( 'NONE', ( #132 ), #224, .T. ) ;
#282 = CARTESIAN_POINT ( 'NONE',  ( 0.000000000000000000, 0.000000000000000000, 0.000000000000000000 ) ) ;
#283 = CIRCLE ( 'NONE', #417, 4.990000000000004654 ) ;
#284 = AXIS2_PLACEMENT_3D ( 'NONE', #898, #7, #320 ) ;
#285 = CYLINDRICAL_SURFACE ( 'NONE', #434, 4.990000000000000213 ) ;
#286 = ORIENTED_EDGE ( 'NONE', *, *, #36, .F. ) ;
#287 =( NAMED_UNIT ( * ) SI_UNIT ( $, .STERADIAN. ) SOLID_ANGLE_UNIT ( ) );
#288 = ADVANCED_FACE ( 'NONE', ( #299 ), #285, .T. ) ;
#289 = DIRECTION ( 'NONE',  ( 0.000000000000000000, 0.000000000000000000, 1.000000000000000000 ) ) ;
#290 = ORIENTED_EDGE ( 'NONE', *, *, #980, .F. ) ;
#291 = PERSON_AND_ORGANIZATION ( #493, #84 ) ;
#292 = DIRECTION ( 'NONE',  ( 0.000000000000000000, -1.000000000000000000, 0.000000000000000000 ) ) ;
#293 = AXIS2_PLACEMENT_3D ( 'NONE', #955, #544, #234 ) ;
#294 = ORIENTED_EDGE ( 'NONE', *, *, #539, .T. ) ;
#295 = PRODUCT_DEFINITION_SHAPE ( 'NONE', 'NONE',  #208 ) ;
#296 = DATE_TIME_ROLE ( 'classification_date' ) ;
#297 = CIRCLE ( 'NONE', #889, 4.990000000000001101 ) ;
#298 = AXIS2_PLACEMENT_3D ( 'NONE', #131, #78, #621 ) ;
#299 = FACE_OUTER_BOUND ( 'NONE', #278, .T. ) ;
#300 = AXIS2_PLACEMENT_3D ( 'NONE', #183, #1004, #504 ) ;
#301 = ORIENTED_EDGE ( 'NONE', *, *, #947, .T. ) ;
#302 = EDGE_CURVE ( 'NONE', #931, #1029, #942, .T. ) ;
#303 = CARTESIAN_POINT ( 'NONE',  ( 0.000000000000000000, 0.000000000000000000, 0.000000000000000000 ) ) ;
#304 = CYLINDRICAL_SURFACE ( 'NONE', #840, 4.990000000000000213 ) ;
#305 = EDGE_LOOP ( 'NONE', ( #723, #75 ) ) ;
#306 = EDGE_CURVE ( 'NONE', #580, #172, #1026, .T. ) ;
#307 = DIRECTION ( 'NONE',  ( -1.000000000000000000, -0.000000000000000000, -0.000000000000000000 ) ) ;
#308 = CARTESIAN_POINT ( 'NONE',  ( 30.50000000000000000, 5.866058167915829334E-16, -4.790000000000006253 ) ) ;
#309 = ORIENTED_EDGE ( 'NONE', *, *, #319, .F. ) ;
#310 = COORDINATED_UNIVERSAL_TIME_OFFSET ( 3, 30, .AHEAD. ) ;
#311 = CARTESIAN_POINT ( 'NONE',  ( 0.000000000000000000, 5.866058167915829334E-16, -4.790000000000006253 ) ) ;
#312 = EDGE_CURVE ( 'NONE', #853, #822, #703, .T. ) ;
#313 = DIRECTION ( 'NONE',  ( 0.000000000000000000, 0.000000000000000000, 1.000000000000000000 ) ) ;
#314 = ORIENTED_EDGE ( 'NONE', *, *, #974, .F. ) ;
#315 = AXIS2_PLACEMENT_3D ( 'NONE', #774, #690, #622 ) ;
#316 = ORIENTED_EDGE ( 'NONE', *, *, #844, .T. ) ;
#317 = DIRECTION ( 'NONE',  ( 0.000000000000000000, 0.000000000000000000, 1.000000000000000000 ) ) ;
#318 = DIRECTION ( 'NONE',  ( 1.000000000000000000, 0.000000000000000000, 0.000000000000000000 ) ) ;
#319 = EDGE_CURVE ( 'NONE', #853, #441, #83, .T. ) ;
#320 = DIRECTION ( 'NONE',  ( 0.000000000000000000, 0.000000000000000000, 1.000000000000000000 ) ) ;
#321 = AXIS2_PLACEMENT_3D ( 'NONE', #471, #276, #786 ) ;
#322 = VERTEX_POINT ( 'NONE', #523 ) ;
#323 = DIRECTION ( 'NONE',  ( -1.000000000000000000, -0.000000000000000000, -0.000000000000000000 ) ) ;
#324 = DIRECTION ( 'NONE',  ( -1.000000000000000000, -0.000000000000000000, -0.000000000000000000 ) ) ;
#325 = CC_DESIGN_PERSON_AND_ORGANIZATION_ASSIGNMENT ( #63, #226, ( #208 ) ) ;
#326 = VERTEX_POINT ( 'NONE', #611 ) ;
#327 = ORIENTED_EDGE ( 'NONE', *, *, #182, .F. ) ;
#328 = PLANE ( 'NONE',  #137 ) ;
#329 = AXIS2_PLACEMENT_3D ( 'NONE', #835, #738, #660 ) ;
#330 = AXIS2_PLACEMENT_3D ( 'NONE', #1008, #307, #764 ) ;
#331 = AXIS2_PLACEMENT_3D ( 'NONE', #433, #274, #506 ) ;
#332 = DIRECTION ( 'NONE',  ( -0.000000000000000000, -0.000000000000000000, 1.000000000000000000 ) ) ;
#333 = ORIENTED_EDGE ( 'NONE', *, *, #947, .F. ) ;
#334 = ORIENTED_EDGE ( 'NONE', *, *, #381, .T. ) ;
#335 = DIRECTION ( 'NONE',  ( 0.000000000000000000, 0.000000000000000000, -1.000000000000000000 ) ) ;
#336 = ADVANCED_FACE ( 'NONE', ( #220 ), #540, .T. ) ;
#337 = CARTESIAN_POINT ( 'NONE',  ( 0.000000000000000000, 6.110987527745299433E-16, -4.990000000000005542 ) ) ;
#338 = CARTESIAN_POINT ( 'NONE',  ( 14.00000000000000000, 2.000000000000002665, 7.218039900139096687 ) ) ;
#339 = EDGE_LOOP ( 'NONE', ( #511, #595, #783, #606, #704, #129 ) ) ;
#340 = DIRECTION ( 'NONE',  ( 0.000000000000000000, 0.000000000000000000, 1.000000000000000000 ) ) ;
#341 = DIRECTION ( 'NONE',  ( -1.000000000000000000, -0.000000000000000000, -0.000000000000000000 ) ) ;
#342 = DIRECTION ( 'NONE',  ( 0.000000000000000000, 0.000000000000000000, 1.000000000000000000 ) ) ;
#343 = VERTEX_POINT ( 'NONE', #554 ) ;
#344 = DIRECTION ( 'NONE',  ( 0.000000000000000000, 0.000000000000000000, 1.000000000000000000 ) ) ;
#345 = LINE ( 'NONE', #590, #450 ) ;
#346 = EDGE_CURVE ( 'NONE', #962, #677, #959, .T. ) ;
#347 = LOCAL_TIME ( 16, 4, 51.00000000000000000, #373 ) ;
#348 = DIRECTION ( 'NONE',  ( -1.000000000000000000, -0.000000000000000000, -0.000000000000000000 ) ) ;
#349 = ORIENTED_EDGE ( 'NONE', *, *, #732, .T. ) ;
#350 = PLANE ( 'NONE',  #331 ) ;
#351 = PLANE ( 'NONE',  #210 ) ;
#352 = EDGE_CURVE ( 'NONE', #722, #876, #117, .T. ) ;
#353 = CARTESIAN_POINT ( 'NONE',  ( 26.00000000000000355, 0.000000000000000000, 7.490000000000002878 ) ) ;
#354 = ORIENTED_EDGE ( 'NONE', *, *, #28, .T. ) ;
#355 = CARTESIAN_POINT ( 'NONE',  ( 38.50000000000000000, 5.866058167915829334E-16, -4.790000000000006253 ) ) ;
#356 = CYLINDRICAL_SURFACE ( 'NONE', #402, 4.990000000000001101 ) ;
#357 = DIRECTION ( 'NONE',  ( 0.000000000000000000, 0.000000000000000000, 1.000000000000000000 ) ) ;
#358 = EDGE_CURVE ( 'NONE', #239, #415, #1020, .T. ) ;
#359 = ORIENTED_EDGE ( 'NONE', *, *, #634, .F. ) ;
#360 = CARTESIAN_POINT ( 'NONE',  ( 14.00000000000000000, -1.999999999999997335, 7.218039900139097576 ) ) ;
#361 = DIRECTION ( 'NONE',  ( -1.000000000000000000, -0.000000000000000000, -0.000000000000000000 ) ) ;
#362 = CARTESIAN_POINT ( 'NONE',  ( 24.00000000000000000, 2.000000000000002665, -7.218039900139096687 ) ) ;
#363 = AXIS2_PLACEMENT_3D ( 'NONE', #400, #173, #984 ) ;
#364 = VERTEX_POINT ( 'NONE', #462 ) ;
#365 = EDGE_CURVE ( 'NONE', #97, #863, #830, .T. ) ;
#366 = CARTESIAN_POINT ( 'NONE',  ( 4.000000000000000000, 0.000000000000000000, 4.790000000000001812 ) ) ;
#367 = DIRECTION ( 'NONE',  ( 0.000000000000000000, 0.000000000000000000, 1.000000000000000000 ) ) ;
#368 = ORIENTED_EDGE ( 'NONE', *, *, #834, .T. ) ;
#369 = CALENDAR_DATE ( 2026, 23, 7 ) ;
#370 = EDGE_CURVE ( 'NONE', #161, #719, #65, .T. ) ;
#371 = CARTESIAN_POINT ( 'NONE',  ( 26.00000000000000355, 0.000000000000000000, 0.000000000000000000 ) ) ;
#372 = ORIENTED_EDGE ( 'NONE', *, *, #77, .F. ) ;
#373 = COORDINATED_UNIVERSAL_TIME_OFFSET ( 3, 30, .AHEAD. ) ;
#374 = CYLINDRICAL_SURFACE ( 'NONE', #534, 4.790000000000000924 ) ;
#375 = CIRCLE ( 'NONE', #167, 4.790000000000005365 ) ;
#376 = ORIENTED_EDGE ( 'NONE', *, *, #844, .F. ) ;
#377 = PERSON_AND_ORGANIZATION ( #493, #84 ) ;
#378 = LOCAL_TIME ( 16, 4, 51.00000000000000000, #76 ) ;
#379 = DIRECTION ( 'NONE',  ( -1.000000000000000000, -0.000000000000000000, -0.000000000000000000 ) ) ;
#380 = AXIS2_PLACEMENT_3D ( 'NONE', #836, #419, #998 ) ;
#381 = EDGE_CURVE ( 'NONE', #171, #322, #1041, .T. ) ;
#382 = ORIENTED_EDGE ( 'NONE', *, *, #142, .F. ) ;
#383 = DATE_AND_TIME ( #784, #347 ) ;
#384 = CARTESIAN_POINT ( 'NONE',  ( 0.000000000000000000, 0.000000000000000000, 0.000000000000000000 ) ) ;
#385 = CARTESIAN_POINT ( 'NONE',  ( 4.000000000000000000, 0.000000000000000000, 0.000000000000000000 ) ) ;
#386 = ORIENTED_EDGE ( 'NONE', *, *, #381, .F. ) ;
#387 = APPROVAL_DATE_TIME ( #465, #713 ) ;
#388 = EDGE_CURVE ( 'NONE', #172, #425, #407, .T. ) ;
#389 = DIRECTION ( 'NONE',  ( -1.000000000000000000, 0.000000000000000000, -0.000000000000000000 ) ) ;
#390 = CIRCLE ( 'NONE', #46, 4.990000000000004654 ) ;
#391 = CARTESIAN_POINT ( 'NONE',  ( 30.50000000000000000, 0.000000000000000000, 0.000000000000000000 ) ) ;
#392 = ORIENTED_EDGE ( 'NONE', *, *, #921, .T. ) ;
#393 = ORIENTED_EDGE ( 'NONE', *, *, #23, .T. ) ;
#394 = CARTESIAN_POINT ( 'NONE',  ( 14.00000000000000000, 0.000000000000000000, -7.490000000000001990 ) ) ;
#395 = VECTOR ( 'NONE', #442, 1000.000000000000000 ) ;
#396 = EDGE_CURVE ( 'NONE', #995, #747, #851, .T. ) ;
#397 = CARTESIAN_POINT ( 'NONE',  ( 29.50000000000000000, 0.000000000000000000, 0.000000000000000000 ) ) ;
#398 = EDGE_LOOP ( 'NONE', ( #940, #217, #517, #446, #160, #87, #935, #655 ) ) ;
#399 = ORIENTED_EDGE ( 'NONE', *, *, #760, .F. ) ;
#400 = CARTESIAN_POINT ( 'NONE',  ( 14.00000000000000000, 0.000000000000000000, 0.000000000000000000 ) ) ;
#401 = CC_DESIGN_PERSON_AND_ORGANIZATION_ASSIGNMENT ( #291, #59, ( #458 ) ) ;
#402 = AXIS2_PLACEMENT_3D ( 'NONE', #577, #828, #901 ) ;
#403 = LINE ( 'NONE', #640, #1019 ) ;
#404 = CARTESIAN_POINT ( 'NONE',  ( 24.00000000000000000, 0.000000000000000000, 0.000000000000000000 ) ) ;
#405 = ORIENTED_EDGE ( 'NONE', *, *, #312, .F. ) ;
#406 = CYLINDRICAL_SURFACE ( 'NONE', #652, 4.790000000000006253 ) ;
#407 = LINE ( 'NONE', #964, #647 ) ;
#408 = EDGE_CURVE ( 'NONE', #343, #795, #390, .T. ) ;
#409 = ORIENTED_EDGE ( 'NONE', *, *, #469, .F. ) ;
#410 = EDGE_LOOP ( 'NONE', ( #134, #475, #837, #1000 ) ) ;
#411 = CARTESIAN_POINT ( 'NONE',  ( 29.50000000000000000, 0.000000000000000000, 0.000000000000000000 ) ) ;
#412 = DIRECTION ( 'NONE',  ( -1.000000000000000000, 0.000000000000000000, -0.000000000000000000 ) ) ;
#413 = DIRECTION ( 'NONE',  ( -1.000000000000000000, -0.000000000000000000, -0.000000000000000000 ) ) ;
#414 = APPROVAL ( #537, 'UNSPECIFIED' ) ;
#415 = VERTEX_POINT ( 'NONE', #645 ) ;
#416 = LINE ( 'NONE', #730, #495 ) ;
#417 = AXIS2_PLACEMENT_3D ( 'NONE', #192, #25, #982 ) ;
#418 = CARTESIAN_POINT ( 'NONE',  ( 26.00000000000000355, 9.172604525613680109E-16, -7.490000000000003766 ) ) ;
#419 = DIRECTION ( 'NONE',  ( -1.000000000000000000, -0.000000000000000000, -0.000000000000000000 ) ) ;
#420 = ORIENTED_EDGE ( 'NONE', *, *, #584, .F. ) ;
#421 = DIRECTION ( 'NONE',  ( 0.000000000000000000, 0.000000000000000000, 1.000000000000000000 ) ) ;
#422 = ADVANCED_FACE ( 'NONE', ( #5 ), #869, .T. ) ;
#423 = DIRECTION ( 'NONE',  ( 0.000000000000000000, 0.000000000000000000, 1.000000000000000000 ) ) ;
#424 = DIRECTION ( 'NONE',  ( -1.000000000000000000, -0.000000000000000000, -0.000000000000000000 ) ) ;
#425 = VERTEX_POINT ( 'NONE', #969 ) ;
#426 = LINE ( 'NONE', #121, #833 ) ;
#427 = AXIS2_PLACEMENT_3D ( 'NONE', #213, #1028, #530 ) ;
#428 = EDGE_CURVE ( 'NONE', #364, #822, #485, .T. ) ;
#429 = CARTESIAN_POINT ( 'NONE',  ( 1.224646799147250347E-18, 0.000000000000000000, 0.000000000000000000 ) ) ;
#430 = AXIS2_PLACEMENT_3D ( 'NONE', #767, #839, #279 ) ;
#431 = DIRECTION ( 'NONE',  ( -1.000000000000000000, -0.000000000000000000, -0.000000000000000000 ) ) ;
#432 = ORIENTED_EDGE ( 'NONE', *, *, #760, .T. ) ;
#433 = CARTESIAN_POINT ( 'NONE',  ( 39.50000000000000711, 0.000000000000000000, -4.990000000000004654 ) ) ;
#434 = AXIS2_PLACEMENT_3D ( 'NONE', #444, #862, #289 ) ;
#435 = LINE ( 'NONE', #812, #708 ) ;
#436 = FACE_OUTER_BOUND ( 'NONE', #398, .T. ) ;
#437 = ORIENTED_EDGE ( 'NONE', *, *, #867, .F. ) ;
#438 = DIRECTION ( 'NONE',  ( -1.000000000000000000, -0.000000000000000000, -0.000000000000000000 ) ) ;
#439 = CARTESIAN_POINT ( 'NONE',  ( 14.00000000000000000, 0.000000000000000000, 0.000000000000000000 ) ) ;
#440 = EDGE_CURVE ( 'NONE', #177, #168, #804, .T. ) ;
#441 = VERTEX_POINT ( 'NONE', #725 ) ;
#442 = DIRECTION ( 'NONE',  ( -1.000000000000000000, -0.000000000000000000, -0.000000000000000000 ) ) ;
#443 = DIRECTION ( 'NONE',  ( -1.000000000000000000, -0.000000000000000000, -0.000000000000000000 ) ) ;
#444 = CARTESIAN_POINT ( 'NONE',  ( 0.000000000000000000, 0.000000000000000000, 0.000000000000000000 ) ) ;
#445 = AXIS2_PLACEMENT_3D ( 'NONE', #384, #707, #872 ) ;
#446 = ORIENTED_EDGE ( 'NONE', *, *, #36, .T. ) ;
#447 = FACE_OUTER_BOUND ( 'NONE', #736, .T. ) ;
#448 = VERTEX_POINT ( 'NONE', #74 ) ;
#449 = APPLICATION_PROTOCOL_DEFINITION ( 'international standard', 'config_control_design', 1994, #483 ) ;
#450 = VECTOR ( 'NONE', #341, 1000.000000000000000 ) ;
#451 = PRODUCT ( 'Link2BackShaft_Default_sldprt', 'Link2BackShaft_Default_sldprt', '', ( #135 ) ) ;
#452 = CARTESIAN_POINT ( 'NONE',  ( 0.000000000000000000, 0.000000000000000000, 0.000000000000000000 ) ) ;
#453 = EDGE_LOOP ( 'NONE', ( #790, #794, #657, #877 ) ) ;
#454 = CARTESIAN_POINT ( 'NONE',  ( 0.000000000000000000, 0.000000000000000000, 0.000000000000000000 ) ) ;
#455 = EDGE_CURVE ( 'NONE', #695, #831, #1037, .T. ) ;
#456 = DIRECTION ( 'NONE',  ( 1.000000000000000000, 0.000000000000000000, -0.000000000000000000 ) ) ;
#457 = ORIENTED_EDGE ( 'NONE', *, *, #408, .F. ) ;
#458 = SECURITY_CLASSIFICATION ( '', '', #1016 ) ;
#459 = CYLINDRICAL_SURFACE ( 'NONE', #445, 4.790000000000006253 ) ;
#460 = CIRCLE ( 'NONE', #616, 4.990000000000003766 ) ;
#461 = ADVANCED_FACE ( 'NONE', ( #635, #709 ), #1033, .F. ) ;
#462 = CARTESIAN_POINT ( 'NONE',  ( 24.00000000000000000, -1.999999999999997335, -7.218039900139097576 ) ) ;
#463 = AXIS2_PLACEMENT_3D ( 'NONE', #118, #770, #855 ) ;
#464 = EDGE_LOOP ( 'NONE', ( #1, #961 ) ) ;
#465 = DATE_AND_TIME ( #369, #515 ) ;
#466 = CARTESIAN_POINT ( 'NONE',  ( 3.000000000000000000, 0.000000000000000000, 0.000000000000000000 ) ) ;
#467 = CARTESIAN_POINT ( 'NONE',  ( 29.50000000000000000, 0.000000000000000000, 0.000000000000000000 ) ) ;
#468 = VERTEX_POINT ( 'NONE', #308 ) ;
#469 = EDGE_CURVE ( 'NONE', #239, #415, #403, .T. ) ;
#470 = EDGE_LOOP ( 'NONE', ( #989, #945, #614, #545, #405, #176 ) ) ;
#471 = CARTESIAN_POINT ( 'NONE',  ( 0.000000000000000000, 0.000000000000000000, 0.000000000000000000 ) ) ;
#472 = CARTESIAN_POINT ( 'NONE',  ( 39.50000000000000711, 0.000000000000000000, 0.000000000000000000 ) ) ;
#473 = CYLINDRICAL_SURFACE ( 'NONE', #741, 4.990000000000005542 ) ;
#474 = MANIFOLD_SOLID_BREP ( 'Cut-Extrude8', #203 ) ;
#475 = ORIENTED_EDGE ( 'NONE', *, *, #571, .T. ) ;
#476 = ADVANCED_FACE ( 'NONE', ( #559 ), #165, .T. ) ;
#477 = DIRECTION ( 'NONE',  ( 0.000000000000000000, 0.000000000000000000, 1.000000000000000000 ) ) ;
#478 = CC_DESIGN_APPROVAL ( #414, ( #208 ) ) ;
#479 = DIRECTION ( 'NONE',  ( 0.000000000000000000, 0.000000000000000000, -1.000000000000000000 ) ) ;
#480 = LINE ( 'NONE', #805, #636 ) ;
#481 = ORIENTED_EDGE ( 'NONE', *, *, #693, .F. ) ;
#482 = CARTESIAN_POINT ( 'NONE',  ( 14.00000000000000000, 0.000000000000000000, 7.490000000000001990 ) ) ;
#483 = APPLICATION_CONTEXT ( 'configuration controlled 3d designs of mechanical parts and assemblies' ) ;
#484 = ADVANCED_FACE ( 'NONE', ( #890 ), #916, .T. ) ;
#485 = LINE ( 'NONE', #149, #490 ) ;
#486 = EDGE_LOOP ( 'NONE', ( #826, #17, #368, #222 ) ) ;
#487 = EDGE_LOOP ( 'NONE', ( #245, #113 ) ) ;
#488 = CARTESIAN_POINT ( 'NONE',  ( 14.00000000000000000, -1.999999999999997335, -4.571662717217885863 ) ) ;
#489 = PLANE ( 'NONE',  #879 ) ;
#490 = VECTOR ( 'NONE', #94, 1000.000000000000000 ) ;
#491 = ORIENTED_EDGE ( 'NONE', *, *, #808, .T. ) ;
#492 = VERTEX_POINT ( 'NONE', #29 ) ;
#493 = PERSON ( 'UNSPECIFIED', 'UNSPECIFIED', 'UNSPECIFIED', ('UNSPECIFIED'), ('UNSPECIFIED'), ('UNSPECIFIED') ) ;
#494 = DIRECTION ( 'NONE',  ( -1.000000000000000000, -0.000000000000000000, -0.000000000000000000 ) ) ;
#495 = VECTOR ( 'NONE', #963, 1000.000000000000000 ) ;
#496 = FACE_BOUND ( 'NONE', #816, .T. ) ;
#497 = ADVANCED_FACE ( 'NONE', ( #981 ), #191, .T. ) ;
#498 = DIRECTION ( 'NONE',  ( 0.000000000000000000, 0.000000000000000000, 1.000000000000000000 ) ) ;
#499 = EDGE_CURVE ( 'NONE', #719, #893, #818, .T. ) ;
#500 = ORIENTED_EDGE ( 'NONE', *, *, #302, .F. ) ;
#501 = DIRECTION ( 'NONE',  ( -1.000000000000000000, -0.000000000000000000, -0.000000000000000000 ) ) ;
#502 = CIRCLE ( 'NONE', #54, 4.990000000000004654 ) ;
#503 = CARTESIAN_POINT ( 'NONE',  ( 0.000000000000000000, 6.110987527745296475E-16, -4.990000000000002878 ) ) ;
#504 = DIRECTION ( 'NONE',  ( 0.000000000000000000, 0.000000000000000000, 1.000000000000000000 ) ) ;
#505 = ORIENTED_EDGE ( 'NONE', *, *, #1039, .F. ) ;
#506 = DIRECTION ( 'NONE',  ( 0.000000000000000000, 0.000000000000000000, -1.000000000000000000 ) ) ;
#507 = EDGE_CURVE ( 'NONE', #893, #950, #460, .T. ) ;
#508 = CIRCLE ( 'NONE', #641, 4.990000000000006430 ) ;
#509 = DIRECTION ( 'NONE',  ( 0.000000000000000000, 0.000000000000000000, 1.000000000000000000 ) ) ;
#510 = DIRECTION ( 'NONE',  ( 0.000000000000000000, 0.000000000000000000, 1.000000000000000000 ) ) ;
#511 = ORIENTED_EDGE ( 'NONE', *, *, #902, .F. ) ;
#512 = PRODUCT_RELATED_PRODUCT_CATEGORY ( 'detail', '', ( #451 ) ) ;
#513 = VECTOR ( 'NONE', #628, 1000.000000000000000 ) ;
#514 = FACE_OUTER_BOUND ( 'NONE', #970, .T. ) ;
#515 = LOCAL_TIME ( 16, 4, 51.00000000000000000, #310 ) ;
#516 = DIRECTION ( 'NONE',  ( -1.000000000000000000, -0.000000000000000000, -0.000000000000000000 ) ) ;
#517 = ORIENTED_EDGE ( 'NONE', *, *, #555, .F. ) ;
#518 =( NAMED_UNIT ( * ) PLANE_ANGLE_UNIT ( ) SI_UNIT ( $, .RADIAN. ) );
#519 = CIRCLE ( 'NONE', #201, 7.490000000000001990 ) ;
#520 = CIRCLE ( 'NONE', #153, 4.990000000000001101 ) ;
#521 = CARTESIAN_POINT ( 'NONE',  ( 14.00000000000000000, 0.000000000000000000, 0.000000000000000000 ) ) ;
#522 = EDGE_CURVE ( 'NONE', #441, #853, #675, .T. ) ;
#523 = CARTESIAN_POINT ( 'NONE',  ( 4.000000000000000000, 0.000000000000000000, 4.990000000000001101 ) ) ;
#524 = VERTEX_POINT ( 'NONE', #418 ) ;
#525 = CARTESIAN_POINT ( 'NONE',  ( 0.000000000000000000, 9.172604525613678137E-16, -7.490000000000001990 ) ) ;
#526 = CARTESIAN_POINT ( 'NONE',  ( 54.00000000000000000, 0.000000000000000000, 0.000000000000000000 ) ) ;
#527 = CARTESIAN_POINT ( 'NONE',  ( 0.000000000000000000, 5.866058167915829334E-16, -4.790000000000006253 ) ) ;
#528 = ORIENTED_EDGE ( 'NONE', *, *, #388, .T. ) ;
#529 = DIRECTION ( 'NONE',  ( -0.000000000000000000, 1.000000000000000000, 0.000000000000000000 ) ) ;
#530 = DIRECTION ( 'NONE',  ( 0.000000000000000000, 0.000000000000000000, 1.000000000000000000 ) ) ;
#531 = ORIENTED_EDGE ( 'NONE', *, *, #960, .T. ) ;
#532 = PERSON_AND_ORGANIZATION ( #493, #84 ) ;
#533 = AXIS2_PLACEMENT_3D ( 'NONE', #585, #187, #661 ) ;
#534 = AXIS2_PLACEMENT_3D ( 'NONE', #1022, #859, #686 ) ;
#535 = FACE_OUTER_BOUND ( 'NONE', #15, .T. ) ;
#536 = VERTEX_POINT ( 'NONE', #175 ) ;
#537 = APPROVAL_STATUS ( 'not_yet_approved' ) ;
#538 = CIRCLE ( 'NONE', #6, 4.990000000000000213 ) ;
#539 = EDGE_CURVE ( 'NONE', #876, #853, #297, .T. ) ;
#540 = PLANE ( 'NONE',  #30 ) ;
#541 = ORIENTED_EDGE ( 'NONE', *, *, #358, .F. ) ;
#542 = APPROVAL_STATUS ( 'not_yet_approved' ) ;
#543 = CARTESIAN_POINT ( 'NONE',  ( 0.000000000000000000, 0.000000000000000000, 4.990000000000000213 ) ) ;
#544 = DIRECTION ( 'NONE',  ( -1.000000000000000000, -0.000000000000000000, -0.000000000000000000 ) ) ;
#545 = ORIENTED_EDGE ( 'NONE', *, *, #842, .T. ) ;
#546 = CIRCLE ( 'NONE', #868, 4.990000000000000213 ) ;
#547 = PERSON_AND_ORGANIZATION ( #493, #84 ) ;
#548 = CYLINDRICAL_SURFACE ( 'NONE', #897, 4.990000000000002878 ) ;
#549 = CARTESIAN_POINT ( 'NONE',  ( 24.00000000000000000, 0.000000000000000000, 0.000000000000000000 ) ) ;
#550 = ADVANCED_FACE ( 'NONE', ( #252 ), #356, .T. ) ;
#551 = CIRCLE ( 'NONE', #838, 4.990000000000001101 ) ;
#552 = EDGE_LOOP ( 'NONE', ( #393, #1005, #924, #481, #505, #327 ) ) ;
#553 = CARTESIAN_POINT ( 'NONE',  ( 0.000000000000000000, 0.000000000000000000, 4.790000000000000924 ) ) ;
#554 = CARTESIAN_POINT ( 'NONE',  ( 39.50000000000000711, 0.000000000000000000, 4.990000000000004654 ) ) ;
#555 = EDGE_CURVE ( 'NONE', #448, #1024, #759, .T. ) ;
#556 = EDGE_LOOP ( 'NONE', ( #81, #354 ) ) ;
#557 = EDGE_LOOP ( 'NONE', ( #193, #623, #316, #638 ) ) ;
#558 = DIRECTION ( 'NONE',  ( -1.000000000000000000, -0.000000000000000000, -0.000000000000000000 ) ) ;
#559 = FACE_OUTER_BOUND ( 'NONE', #273, .T. ) ;
#560 = DIRECTION ( 'NONE',  ( 0.000000000000000000, 0.000000000000000000, 1.000000000000000000 ) ) ;
#561 = ORIENTED_EDGE ( 'NONE', *, *, #163, .T. ) ;
#562 = CARTESIAN_POINT ( 'NONE',  ( 4.000000000000000000, 5.866058167915824404E-16, -4.790000000000001812 ) ) ;
#563 = ADVANCED_FACE ( 'NONE', ( #514, #496 ), #106, .F. ) ;
#564 = AXIS2_PLACEMENT_3D ( 'NONE', #454, #779, #230 ) ;
#565 = DIRECTION ( 'NONE',  ( 0.000000000000000000, 0.000000000000000000, 1.000000000000000000 ) ) ;
#566 = AXIS2_PLACEMENT_3D ( 'NONE', #913, #994, #123 ) ;
#567 = EDGE_LOOP ( 'NONE', ( #290, #62 ) ) ;
#568 = AXIS2_PLACEMENT_3D ( 'NONE', #777, #379, #1017 ) ;
#569 = ORIENTED_EDGE ( 'NONE', *, *, #842, .F. ) ;
#570 = FACE_OUTER_BOUND ( 'NONE', #909, .T. ) ;
#571 = EDGE_CURVE ( 'NONE', #766, #747, #345, .T. ) ;
#572 = DIRECTION ( 'NONE',  ( 0.000000000000000000, 0.000000000000000000, 1.000000000000000000 ) ) ;
#573 = DIRECTION ( 'NONE',  ( -1.000000000000000000, -0.000000000000000000, -0.000000000000000000 ) ) ;
#574 = ORIENTED_EDGE ( 'NONE', *, *, #744, .T. ) ;
#575 = CARTESIAN_POINT ( 'NONE',  ( 39.50000000000000711, 6.110987527745299433E-16, -4.990000000000004654 ) ) ;
#576 = CC_DESIGN_PERSON_AND_ORGANIZATION_ASSIGNMENT ( #547, #696, ( #451 ) ) ;
#577 = CARTESIAN_POINT ( 'NONE',  ( 0.000000000000000000, 0.000000000000000000, 0.000000000000000000 ) ) ;
#578 = AXIS2_PLACEMENT_3D ( 'NONE', #385, #14, #313 ) ;
#579 = CARTESIAN_POINT ( 'NONE',  ( 14.00000000000000000, 2.000000000000002665, 4.571662717217883198 ) ) ;
#580 = VERTEX_POINT ( 'NONE', #824 ) ;
#581 = DIRECTION ( 'NONE',  ( -0.000000000000000000, -0.000000000000000000, 1.000000000000000000 ) ) ;
#582 = VECTOR ( 'NONE', #602, 1000.000000000000000 ) ;
#583 = CARTESIAN_POINT ( 'NONE',  ( 0.000000000000000000, 2.000000000000002665, 7.218039900139096687 ) ) ;
#584 = EDGE_CURVE ( 'NONE', #425, #662, #538, .T. ) ;
#585 = CARTESIAN_POINT ( 'NONE',  ( 24.00000000000000000, 0.000000000000000000, 0.000000000000000000 ) ) ;
#586 = CIRCLE ( 'NONE', #300, 4.990000000000000213 ) ;
#587 = ORIENTED_EDGE ( 'NONE', *, *, #682, .T. ) ;
#588 = DIRECTION ( 'NONE',  ( -1.000000000000000000, -0.000000000000000000, -0.000000000000000000 ) ) ;
#589 = CIRCLE ( 'NONE', #139, 7.490000000000002878 ) ;
#590 = CARTESIAN_POINT ( 'NONE',  ( 0.000000000000000000, 6.110987527745298447E-16, -4.990000000000004654 ) ) ;
#591 = DIRECTION ( 'NONE',  ( 0.000000000000000000, 0.000000000000000000, -1.000000000000000000 ) ) ;
#592 = ORIENTED_EDGE ( 'NONE', *, *, #136, .F. ) ;
#593 = DIRECTION ( 'NONE',  ( -1.000000000000000000, -0.000000000000000000, -0.000000000000000000 ) ) ;
#594 = LINE ( 'NONE', #107, #740 ) ;
#595 = ORIENTED_EDGE ( 'NONE', *, *, #346, .F. ) ;
#596 = ADVANCED_FACE ( 'NONE', ( #976 ), #489, .F. ) ;
#597 = LOCAL_TIME ( 16, 4, 51.00000000000000000, #864 ) ;
#598 = DIRECTION ( 'NONE',  ( -1.000000000000000000, -0.000000000000000000, -0.000000000000000000 ) ) ;
#599 = CARTESIAN_POINT ( 'NONE',  ( 0.000000000000000000, 0.000000000000000000, 0.000000000000000000 ) ) ;
#600 = ORIENTED_EDGE ( 'NONE', *, *, #749, .T. ) ;
#601 = VECTOR ( 'NONE', #41, 1000.000000000000000 ) ;
#602 = DIRECTION ( 'NONE',  ( -0.000000000000000000, -0.000000000000000000, 1.000000000000000000 ) ) ;
#603 = EDGE_CURVE ( 'NONE', #161, #950, #435, .T. ) ;
#604 = CARTESIAN_POINT ( 'NONE',  ( 29.50000000000000000, 6.110987527745296475E-16, -4.990000000000002878 ) ) ;
#605 = LINE ( 'NONE', #527, #37 ) ;
#606 = ORIENTED_EDGE ( 'NONE', *, *, #522, .T. ) ;
#607 = DIRECTION ( 'NONE',  ( 0.000000000000000000, -0.000000000000000000, -1.000000000000000000 ) ) ;
#608 = VECTOR ( 'NONE', #598, 1000.000000000000000 ) ;
#609 = EDGE_LOOP ( 'NONE', ( #691, #600 ) ) ;
#610 = APPROVAL_STATUS ( 'not_yet_approved' ) ;
#611 = CARTESIAN_POINT ( 'NONE',  ( 39.50000000000000000, 0.000000000000000000, 4.790000000000005365 ) ) ;
#612 = CIRCLE ( 'NONE', #430, 4.790000000000000924 ) ;
#613 = ADVANCED_FACE ( 'NONE', ( #261, #267 ), #351, .F. ) ;
#614 = ORIENTED_EDGE ( 'NONE', *, *, #555, .T. ) ;
#615 = CALENDAR_DATE ( 2026, 23, 7 ) ;
#616 = AXIS2_PLACEMENT_3D ( 'NONE', #745, #122, #423 ) ;
#617 = AXIS2_PLACEMENT_3D ( 'NONE', #466, #848, #928 ) ;
#618 = CIRCLE ( 'NONE', #566, 4.790000000000006253 ) ;
#619 = DIRECTION ( 'NONE',  ( -1.000000000000000000, -0.000000000000000000, -0.000000000000000000 ) ) ;
#620 = ORIENTED_EDGE ( 'NONE', *, *, #199, .T. ) ;
#621 = DIRECTION ( 'NONE',  ( -0.000000000000000000, 0.000000000000000000, 1.000000000000000000 ) ) ;
#622 = DIRECTION ( 'NONE',  ( 0.000000000000000000, 0.000000000000000000, 1.000000000000000000 ) ) ;
#623 = ORIENTED_EDGE ( 'NONE', *, *, #133, .T. ) ;
#624 = DATE_AND_TIME ( #152, #378 ) ;
#625 = DIRECTION ( 'NONE',  ( -0.000000000000000000, 0.000000000000000000, 1.000000000000000000 ) ) ;
#626 = AXIS2_PLACEMENT_3D ( 'NONE', #391, #788, #228 ) ;
#627 = EDGE_CURVE ( 'NONE', #972, #795, #19, .T. ) ;
#628 = DIRECTION ( 'NONE',  ( 1.000000000000000000, 0.000000000000000000, 0.000000000000000000 ) ) ;
#629 = UNCERTAINTY_MEASURE_WITH_UNIT (LENGTH_MEASURE( 1.000000000000000082E-05 ), #194, 'distance_accuracy_value', 'NONE');
#630 = ORIENTED_EDGE ( 'NONE', *, *, #929, .T. ) ;
#631 = AXIS2_PLACEMENT_3D ( 'NONE', #688, #529, #763 ) ;
#632 = PERSON_AND_ORGANIZATION_ROLE ( 'creator' ) ;
#633 = FACE_OUTER_BOUND ( 'NONE', #229, .T. ) ;
#634 = EDGE_CURVE ( 'NONE', #415, #168, #758, .T. ) ;
#635 = FACE_BOUND ( 'NONE', #108, .T. ) ;
#636 = VECTOR ( 'NONE', #91, 1000.000000000000000 ) ;
#637 = ORIENTED_EDGE ( 'NONE', *, *, #887, .F. ) ;
#638 = ORIENTED_EDGE ( 'NONE', *, *, #953, .F. ) ;
#639 = CARTESIAN_POINT ( 'NONE',  ( 6.123233995736251736E-19, 0.000000000000000000, -4.990000000000000213 ) ) ;
#640 = CARTESIAN_POINT ( 'NONE',  ( 24.00000000000000000, 2.000000000000002665, 7.228416147400479552 ) ) ;
#641 = AXIS2_PLACEMENT_3D ( 'NONE', #841, #796, #154 ) ;
#642 = CARTESIAN_POINT ( 'NONE',  ( 30.50000000000000000, 0.000000000000000000, 0.000000000000000000 ) ) ;
#643 = ORIENTED_EDGE ( 'NONE', *, *, #388, .F. ) ;
#644 = PLANE ( 'NONE',  #51 ) ;
#645 = CARTESIAN_POINT ( 'NONE',  ( 24.00000000000000000, 2.000000000000002665, 7.218039900139096687 ) ) ;
#646 = ORIENTED_EDGE ( 'NONE', *, *, #974, .T. ) ;
#647 = VECTOR ( 'NONE', #159, 1000.000000000000000 ) ;
#648 = ADVANCED_FACE ( 'NONE', ( #1003 ), #45, .T. ) ;
#649 = AXIS2_PLACEMENT_3D ( 'NONE', #411, #558, #477 ) ;
#650 = ORIENTED_EDGE ( 'NONE', *, *, #507, .F. ) ;
#651 = DIRECTION ( 'NONE',  ( 0.000000000000000000, 0.000000000000000000, -1.000000000000000000 ) ) ;
#652 = AXIS2_PLACEMENT_3D ( 'NONE', #162, #323, #743 ) ;
#653 = DIRECTION ( 'NONE',  ( -1.000000000000000000, -0.000000000000000000, -0.000000000000000000 ) ) ;
#654 = VECTOR ( 'NONE', #431, 1000.000000000000000 ) ;
#655 = ORIENTED_EDGE ( 'NONE', *, *, #858, .F. ) ;
#656 = CIRCLE ( 'NONE', #380, 4.990000000000006430 ) ;
#657 = ORIENTED_EDGE ( 'NONE', *, *, #960, .F. ) ;
#658 = FACE_OUTER_BOUND ( 'NONE', #305, .T. ) ;
#659 = ADVANCED_FACE ( 'NONE', ( #865 ), #82, .F. ) ;
#660 = DIRECTION ( 'NONE',  ( 0.000000000000000000, 0.000000000000000000, 1.000000000000000000 ) ) ;
#661 = DIRECTION ( 'NONE',  ( -0.000000000000000000, 0.000000000000000000, -1.000000000000000000 ) ) ;
#662 = VERTEX_POINT ( 'NONE', #200 ) ;
#663 = CARTESIAN_POINT ( 'NONE',  ( 30.50000000000000000, 0.000000000000000000, 4.790000000000006253 ) ) ;
#664 = EDGE_CURVE ( 'NONE', #492, #972, #508, .T. ) ;
#665 = DIRECTION ( 'NONE',  ( -1.000000000000000000, -0.000000000000000000, -0.000000000000000000 ) ) ;
#666 = FACE_OUTER_BOUND ( 'NONE', #486, .T. ) ;
#667 = ORIENTED_EDGE ( 'NONE', *, *, #102, .F. ) ;
#668 = DIRECTION ( 'NONE',  ( -1.000000000000000000, -0.000000000000000000, -0.000000000000000000 ) ) ;
#669 = LOCAL_TIME ( 16, 4, 51.00000000000000000, #871 ) ;
#670 = CARTESIAN_POINT ( 'NONE',  ( 14.00000000000000000, 0.000000000000000000, -7.490000000000001990 ) ) ;
#671 = DIRECTION ( 'NONE',  ( 0.000000000000000000, 0.000000000000000000, 1.000000000000000000 ) ) ;
#672 = VECTOR ( 'NONE', #272, 1000.000000000000000 ) ;
#673 = EDGE_LOOP ( 'NONE', ( #235, #637 ) ) ;
#674 = DIRECTION ( 'NONE',  ( -1.000000000000000000, -0.000000000000000000, -0.000000000000000000 ) ) ;
#675 = LINE ( 'NONE', #195, #601 ) ;
#676 = CYLINDRICAL_SURFACE ( 'NONE', #1025, 4.990000000000004654 ) ;
#677 = VERTEX_POINT ( 'NONE', #679 ) ;
#678 = CARTESIAN_POINT ( 'NONE',  ( 39.50000000000000711, 0.000000000000000000, 0.000000000000000000 ) ) ;
#679 = CARTESIAN_POINT ( 'NONE',  ( 24.00000000000000000, -1.999999999999997335, 7.218039900139097576 ) ) ;
#680 = LINE ( 'NONE', #204, #672 ) ;
#681 = EDGE_LOOP ( 'NONE', ( #225, #957, #21, #710 ) ) ;
#682 = EDGE_CURVE ( 'NONE', #695, #536, #231, .T. ) ;
#683 = CIRCLE ( 'NONE', #617, 4.790000000000000924 ) ;
#684 = VECTOR ( 'NONE', #894, 1000.000000000000000 ) ;
#685 = DIRECTION ( 'NONE',  ( 0.000000000000000000, 0.000000000000000000, 1.000000000000000000 ) ) ;
#686 = DIRECTION ( 'NONE',  ( 0.000000000000000000, 0.000000000000000000, 1.000000000000000000 ) ) ;
#687 = ORIENTED_EDGE ( 'NONE', *, *, #749, .F. ) ;
#688 = CARTESIAN_POINT ( 'NONE',  ( 24.00000000000000000, -1.999999999999997335, 7.228416147400479552 ) ) ;
#689 = AXIS2_PLACEMENT_3D ( 'NONE', #599, #268, #746 ) ;
#690 = DIRECTION ( 'NONE',  ( -1.000000000000000000, 0.000000000000000000, 0.000000000000000000 ) ) ;
#691 = ORIENTED_EDGE ( 'NONE', *, *, #365, .T. ) ;
#692 = PERSON_AND_ORGANIZATION ( #493, #84 ) ;
#693 = EDGE_CURVE ( 'NONE', #171, #177, #1034, .T. ) ;
#694 = CARTESIAN_POINT ( 'NONE',  ( 26.00000000000000355, 0.000000000000000000, 0.000000000000000000 ) ) ;
#695 = VERTEX_POINT ( 'NONE', #366 ) ;
#696 = PERSON_AND_ORGANIZATION_ROLE ( 'design_owner' ) ;
#697 = AXIS2_PLACEMENT_3D ( 'NONE', #549, #884, #875 ) ;
#698 = EDGE_CURVE ( 'NONE', #831, #695, #849, .T. ) ;
#699 = PLANE ( 'NONE',  #315 ) ;
#700 = VECTOR ( 'NONE', #581, 1000.000000000000000 ) ;
#701 = ORIENTED_EDGE ( 'NONE', *, *, #627, .T. ) ;
#702 = DIRECTION ( 'NONE',  ( -1.000000000000000000, -0.000000000000000000, -0.000000000000000000 ) ) ;
#703 = LINE ( 'NONE', #934, #937 ) ;
#704 = ORIENTED_EDGE ( 'NONE', *, *, #312, .T. ) ;
#705 = PERSON_AND_ORGANIZATION ( #493, #84 ) ;
#706 = ADVANCED_FACE ( 'NONE', ( #237 ), #548, .T. ) ;
#707 = DIRECTION ( 'NONE',  ( -1.000000000000000000, -0.000000000000000000, -0.000000000000000000 ) ) ;
#708 = VECTOR ( 'NONE', #111, 1000.000000000000000 ) ;
#709 = FACE_OUTER_BOUND ( 'NONE', #556, .T. ) ;
#710 = ORIENTED_EDGE ( 'NONE', *, *, #603, .F. ) ;
#711 = DATE_TIME_ROLE ( 'creation_date' ) ;
#712 = AXIS2_PLACEMENT_3D ( 'NONE', #521, #438, #126 ) ;
#713 = APPROVAL ( #542, 'UNSPECIFIED' ) ;
#714 = LINE ( 'NONE', #311, #861 ) ;
#715 = AXIS2_PLACEMENT_3D ( 'NONE', #85, #318, #479 ) ;
#716 = CARTESIAN_POINT ( 'NONE',  ( 0.000000000000000000, 0.000000000000000000, 0.000000000000000000 ) ) ;
#717 = ORIENTED_EDGE ( 'NONE', *, *, #929, .F. ) ;
#718 = VECTOR ( 'NONE', #501, 1000.000000000000000 ) ;
#719 = VERTEX_POINT ( 'NONE', #604 ) ;
#720 = DIRECTION ( 'NONE',  ( 1.000000000000000000, 0.000000000000000000, 0.000000000000000000 ) ) ;
#721 = DIRECTION ( 'NONE',  ( 0.000000000000000000, 0.000000000000000000, 1.000000000000000000 ) ) ;
#722 = VERTEX_POINT ( 'NONE', #73 ) ;
#723 = ORIENTED_EDGE ( 'NONE', *, *, #77, .T. ) ;
#724 = FACE_OUTER_BOUND ( 'NONE', #914, .T. ) ;
#725 = CARTESIAN_POINT ( 'NONE',  ( 14.00000000000000000, -1.999999999999997335, 4.571662717217885863 ) ) ;
#726 = ADVANCED_FACE ( 'NONE', ( #227 ), #878, .T. ) ;
#727 = AXIS2_PLACEMENT_3D ( 'NONE', #526, #389, #625 ) ;
#728 = DIRECTION ( 'NONE',  ( -1.000000000000000000, 0.000000000000000000, 0.000000000000000000 ) ) ;
#729 = ORIENTED_EDGE ( 'NONE', *, *, #95, .T. ) ;
#730 = CARTESIAN_POINT ( 'NONE',  ( 0.000000000000000000, 0.000000000000000000, 7.490000000000001990 ) ) ;
#731 = CARTESIAN_POINT ( 'NONE',  ( 14.00000000000000000, 2.000000000000002665, 7.228416147400479552 ) ) ;
#732 = EDGE_CURVE ( 'NONE', #55, #536, #683, .T. ) ;
#733 = CARTESIAN_POINT ( 'NONE',  ( 0.000000000000000000, 0.000000000000000000, 0.000000000000000000 ) ) ;
#734 = ADVANCED_FACE ( 'NONE', ( #158, #952 ), #207, .F. ) ;
#735 = CIRCLE ( 'NONE', #181, 4.990000000000004654 ) ;
#736 = EDGE_LOOP ( 'NONE', ( #144, #309 ) ) ;
#737 = DIRECTION ( 'NONE',  ( -1.000000000000000000, 0.000000000000000000, 0.000000000000000000 ) ) ;
#738 = DIRECTION ( 'NONE',  ( -1.000000000000000000, -0.000000000000000000, -0.000000000000000000 ) ) ;
#739 = DIRECTION ( 'NONE',  ( 0.000000000000000000, 0.000000000000000000, 1.000000000000000000 ) ) ;
#740 = VECTOR ( 'NONE', #591, 1000.000000000000000 ) ;
#741 = AXIS2_PLACEMENT_3D ( 'NONE', #733, #573, #243 ) ;
#742 = ORIENTED_EDGE ( 'NONE', *, *, #887, .T. ) ;
#743 = DIRECTION ( 'NONE',  ( 0.000000000000000000, 0.000000000000000000, 1.000000000000000000 ) ) ;
#744 = EDGE_CURVE ( 'NONE', #468, #863, #714, .T. ) ;
#745 = CARTESIAN_POINT ( 'NONE',  ( 26.00000000000000000, 0.000000000000000000, 0.000000000000000000 ) ) ;
#746 = DIRECTION ( 'NONE',  ( 0.000000000000000000, 0.000000000000000000, 1.000000000000000000 ) ) ;
#747 = VERTEX_POINT ( 'NONE', #769 ) ;
#748 = DIRECTION ( 'NONE',  ( -1.000000000000000000, -0.000000000000000000, -0.000000000000000000 ) ) ;
#749 = EDGE_CURVE ( 'NONE', #863, #97, #375, .T. ) ;
#750 = DIRECTION ( 'NONE',  ( -1.000000000000000000, 0.000000000000000000, -0.000000000000000000 ) ) ;
#751 = FACE_OUTER_BOUND ( 'NONE', #43, .T. ) ;
#752 = EDGE_LOOP ( 'NONE', ( #236, #892 ) ) ;
#753 = FACE_BOUND ( 'NONE', #801, .T. ) ;
#754 = CARTESIAN_POINT ( 'NONE',  ( 14.00000000000000000, 0.000000000000000000, 0.000000000000000000 ) ) ;
#755 = CYLINDRICAL_SURFACE ( 'NONE', #689, 4.990000000000001101 ) ;
#756 = EDGE_LOOP ( 'NONE', ( #762, #541 ) ) ;
#757 = DIRECTION ( 'NONE',  ( -1.000000000000000000, -0.000000000000000000, -0.000000000000000000 ) ) ;
#758 = LINE ( 'NONE', #583, #933 ) ;
#759 = CIRCLE ( 'NONE', #911, 7.490000000000001990 ) ;
#760 = EDGE_CURVE ( 'NONE', #580, #662, #948, .T. ) ;
#761 = CARTESIAN_POINT ( 'NONE',  ( 29.50000000000000000, 0.000000000000000000, 4.990000000000002878 ) ) ;
#762 = ORIENTED_EDGE ( 'NONE', *, *, #469, .T. ) ;
#763 = DIRECTION ( 'NONE',  ( 0.000000000000000000, -0.000000000000000000, 1.000000000000000000 ) ) ;
#764 = DIRECTION ( 'NONE',  ( 0.000000000000000000, 0.000000000000000000, 1.000000000000000000 ) ) ;
#765 = DIRECTION ( 'NONE',  ( -1.000000000000000000, -0.000000000000000000, -0.000000000000000000 ) ) ;
#766 = VERTEX_POINT ( 'NONE', #147 ) ;
#767 = CARTESIAN_POINT ( 'NONE',  ( 3.000000000000000000, 0.000000000000000000, 0.000000000000000000 ) ) ;
#768 = AXIS2_PLACEMENT_3D ( 'NONE', #40, #990, #910 ) ;
#769 = CARTESIAN_POINT ( 'NONE',  ( 30.50000000000000000, 6.110987527745298447E-16, -4.990000000000004654 ) ) ;
#770 = DIRECTION ( 'NONE',  ( -1.000000000000000000, -0.000000000000000000, -0.000000000000000000 ) ) ;
#771 = ORIENTED_EDGE ( 'NONE', *, *, #664, .F. ) ;
#772 = CALENDAR_DATE ( 2026, 23, 7 ) ;
#773 = ADVANCED_FACE ( 'NONE', ( #633 ), #459, .T. ) ;
#774 = CARTESIAN_POINT ( 'NONE',  ( 14.00000000000000000, 0.000000000000000000, 0.000000000000000000 ) ) ;
#775 = ORIENTED_EDGE ( 'NONE', *, *, #23, .F. ) ;
#776 = PERSON_AND_ORGANIZATION_ROLE ( 'design_supplier' ) ;
#777 = CARTESIAN_POINT ( 'NONE',  ( 3.000000000000000000, 0.000000000000000000, 0.000000000000000000 ) ) ;
#778 = ORIENTED_EDGE ( 'NONE', *, *, #306, .T. ) ;
#779 = DIRECTION ( 'NONE',  ( 0.000000000000000000, 0.000000000000000000, 1.000000000000000000 ) ) ;
#780 = CIRCLE ( 'NONE', #164, 4.990000000000001101 ) ;
#781 = FACE_OUTER_BOUND ( 'NONE', #905, .T. ) ;
#782 = ADVANCED_FACE ( 'NONE', ( #1032, #724 ), #328, .F. ) ;
#783 = ORIENTED_EDGE ( 'NONE', *, *, #182, .T. ) ;
#784 = CALENDAR_DATE ( 2026, 23, 7 ) ;
#785 = ADVANCED_BREP_SHAPE_REPRESENTATION ( 'Link2BackShaft_Default_sldprt', ( #474, #564 ), #988 ) ;
#786 = DIRECTION ( 'NONE',  ( 0.000000000000000000, 0.000000000000000000, 1.000000000000000000 ) ) ;
#787 = AXIS2_PLACEMENT_3D ( 'NONE', #112, #348, #510 ) ;
#788 = DIRECTION ( 'NONE',  ( -1.000000000000000000, -0.000000000000000000, -0.000000000000000000 ) ) ;
#789 = ADVANCED_FACE ( 'NONE', ( #255 ), #13, .F. ) ;
#790 = ORIENTED_EDGE ( 'NONE', *, *, #455, .T. ) ;
#791 = DIRECTION ( 'NONE',  ( 0.000000000000000000, 0.000000000000000000, 1.000000000000000000 ) ) ;
#792 = VECTOR ( 'NONE', #593, 1000.000000000000000 ) ;
#793 = CARTESIAN_POINT ( 'NONE',  ( 0.000000000000000000, -1.999999999999997335, 7.218039900139097576 ) ) ;
#794 = ORIENTED_EDGE ( 'NONE', *, *, #60, .T. ) ;
#795 = VERTEX_POINT ( 'NONE', #575 ) ;
#796 = DIRECTION ( 'NONE',  ( -1.000000000000000000, -0.000000000000000000, -0.000000000000000000 ) ) ;
#797 = VECTOR ( 'NONE', #155, 1000.000000000000000 ) ;
#798 = DIRECTION ( 'NONE',  ( 0.000000000000000000, 0.000000000000000000, 1.000000000000000000 ) ) ;
#799 = EDGE_LOOP ( 'NONE', ( #882, #314 ) ) ;
#800 = CC_DESIGN_APPROVAL ( #713, ( #119 ) ) ;
#801 = EDGE_LOOP ( 'NONE', ( #531, #349 ) ) ;
#802 = CARTESIAN_POINT ( 'NONE',  ( 14.00000000000000000, -1.999999999999997335, -7.218039900139096687 ) ) ;
#803 = ADVANCED_FACE ( 'NONE', ( #88 ), #406, .T. ) ;
#804 = LINE ( 'NONE', #731, #179 ) ;
#805 = CARTESIAN_POINT ( 'NONE',  ( 0.000000000000000000, 2.000000000000002665, -7.218039900139096687 ) ) ;
#806 = CARTESIAN_POINT ( 'NONE',  ( 14.00000000000000000, 2.000000000000002665, 7.228416147400479552 ) ) ;
#807 = DIRECTION ( 'NONE',  ( -1.000000000000000000, -0.000000000000000000, -0.000000000000000000 ) ) ;
#808 = EDGE_CURVE ( 'NONE', #448, #722, #973, .T. ) ;
#809 = ORIENTED_EDGE ( 'NONE', *, *, #319, .T. ) ;
#810 = ORIENTED_EDGE ( 'NONE', *, *, #256, .F. ) ;
#811 = CARTESIAN_POINT ( 'NONE',  ( 26.00000000000000000, 0.000000000000000000, 0.000000000000000000 ) ) ;
#812 = CARTESIAN_POINT ( 'NONE',  ( 0.000000000000000000, 0.000000000000000000, 4.990000000000002878 ) ) ;
#813 = ADVANCED_FACE ( 'NONE', ( #658 ), #967, .F. ) ;
#814 = CYLINDRICAL_SURFACE ( 'NONE', #975, 7.490000000000001990 ) ;
#815 = AXIS2_PLACEMENT_3D ( 'NONE', #394, #883, #651 ) ;
#816 = EDGE_LOOP ( 'NONE', ( #96, #8 ) ) ;
#817 = CARTESIAN_POINT ( 'NONE',  ( 4.000000000000000000, 0.000000000000000000, -4.990000000000001101 ) ) ;
#818 = LINE ( 'NONE', #503, #866 ) ;
#819 = DESIGN_CONTEXT ( 'detailed design', #845, 'design' ) ;
#820 = CARTESIAN_POINT ( 'NONE',  ( 29.50000000000000000, 0.000000000000000000, 4.790000000000005365 ) ) ;
#821 = EDGE_CURVE ( 'NONE', #326, #254, #247, .T. ) ;
#822 = VERTEX_POINT ( 'NONE', #802 ) ;
#823 = CARTESIAN_POINT ( 'NONE',  ( 39.50000000000000000, 0.000000000000000000, 0.000000000000000000 ) ) ;
#824 = CARTESIAN_POINT ( 'NONE',  ( 3.000000000000000000, 0.000000000000000000, 4.990000000000000213 ) ) ;
#825 = CARTESIAN_POINT ( 'NONE',  ( 14.00000000000000000, 0.000000000000000000, 4.990000000000001101 ) ) ;
#826 = ORIENTED_EDGE ( 'NONE', *, *, #571, .F. ) ;
#827 = LINE ( 'NONE', #525, #395 ) ;
#828 = DIRECTION ( 'NONE',  ( -1.000000000000000000, -0.000000000000000000, -0.000000000000000000 ) ) ;
#829 = PLANE ( 'NONE',  #533 ) ;
#830 = CIRCLE ( 'NONE', #968, 4.790000000000005365 ) ;
#831 = VERTEX_POINT ( 'NONE', #562 ) ;
#832 = PLANE ( 'NONE',  #631 ) ;
#833 = VECTOR ( 'NONE', #748, 1000.000000000000000 ) ;
#834 = EDGE_CURVE ( 'NONE', #166, #995, #900, .T. ) ;
#835 = CARTESIAN_POINT ( 'NONE',  ( 0.000000000000000000, 0.000000000000000000, 0.000000000000000000 ) ) ;
#836 = CARTESIAN_POINT ( 'NONE',  ( 54.00000000000000000, 0.000000000000000000, 0.000000000000000000 ) ) ;
#837 = ORIENTED_EDGE ( 'NONE', *, *, #396, .F. ) ;
#838 = AXIS2_PLACEMENT_3D ( 'NONE', #917, #413, #739 ) ;
#839 = DIRECTION ( 'NONE',  ( -1.000000000000000000, -0.000000000000000000, -0.000000000000000000 ) ) ;
#840 = AXIS2_PLACEMENT_3D ( 'NONE', #930, #949, #47 ) ;
#841 = CARTESIAN_POINT ( 'NONE',  ( 54.00000000000000000, 0.000000000000000000, 0.000000000000000000 ) ) ;
#842 = EDGE_CURVE ( 'NONE', #1024, #822, #32, .T. ) ;
#843 = DIRECTION ( 'NONE',  ( 0.000000000000000000, 0.000000000000000000, 1.000000000000000000 ) ) ;
#844 = EDGE_CURVE ( 'NONE', #492, #343, #22, .T. ) ;
#845 = APPLICATION_CONTEXT ( 'configuration controlled 3d designs of mechanical parts and assemblies' ) ;
#846 = ORIENTED_EDGE ( 'NONE', *, *, #902, .T. ) ;
#847 = CARTESIAN_POINT ( 'NONE',  ( 38.50000000000000000, 0.000000000000000000, 4.790000000000006253 ) ) ;
#848 = DIRECTION ( 'NONE',  ( -1.000000000000000000, -0.000000000000000000, -0.000000000000000000 ) ) ;
#849 = CIRCLE ( 'NONE', #330, 4.790000000000001812 ) ;
#850 = FACE_OUTER_BOUND ( 'NONE', #26, .T. ) ;
#851 = CIRCLE ( 'NONE', #626, 4.990000000000004654 ) ;
#852 = EDGE_CURVE ( 'NONE', #950, #893, #263, .T. ) ;
#853 = VERTEX_POINT ( 'NONE', #488 ) ;
#854 = CIRCLE ( 'NONE', #649, 4.990000000000002878 ) ;
#855 = DIRECTION ( 'NONE',  ( 0.000000000000000000, 0.000000000000000000, 1.000000000000000000 ) ) ;
#856 = ORIENTED_EDGE ( 'NONE', *, *, #133, .F. ) ;
#857 = DATE_AND_TIME ( #772, #669 ) ;
#858 = EDGE_CURVE ( 'NONE', #156, #885, #416, .T. ) ;
#859 = DIRECTION ( 'NONE',  ( -1.000000000000000000, -0.000000000000000000, -0.000000000000000000 ) ) ;
#860 = VERTEX_POINT ( 'NONE', #663 ) ;
#861 = VECTOR ( 'NONE', #443, 1000.000000000000000 ) ;
#862 = DIRECTION ( 'NONE',  ( -1.000000000000000000, -0.000000000000000000, -0.000000000000000000 ) ) ;
#863 = VERTEX_POINT ( 'NONE', #98 ) ;
#864 = COORDINATED_UNIVERSAL_TIME_OFFSET ( 3, 30, .AHEAD. ) ;
#865 = FACE_OUTER_BOUND ( 'NONE', #48, .T. ) ;
#866 = VECTOR ( 'NONE', #907, 1000.000000000000000 ) ;
#867 = EDGE_CURVE ( 'NONE', #860, #97, #906, .T. ) ;
#868 = AXIS2_PLACEMENT_3D ( 'NONE', #130, #757, #421 ) ;
#869 = CYLINDRICAL_SURFACE ( 'NONE', #985, 4.990000000000004654 ) ;
#870 = ORIENTED_EDGE ( 'NONE', *, *, #352, .T. ) ;
#871 = COORDINATED_UNIVERSAL_TIME_OFFSET ( 3, 30, .AHEAD. ) ;
#872 = DIRECTION ( 'NONE',  ( 0.000000000000000000, 0.000000000000000000, 1.000000000000000000 ) ) ;
#873 = AXIS2_PLACEMENT_3D ( 'NONE', #53, #292, #607 ) ;
#874 = CC_DESIGN_PERSON_AND_ORGANIZATION_ASSIGNMENT ( #692, #632, ( #119 ) ) ;
#875 = DIRECTION ( 'NONE',  ( 0.000000000000000000, 0.000000000000000000, -1.000000000000000000 ) ) ;
#876 = VERTEX_POINT ( 'NONE', #185 ) ;
#877 = ORIENTED_EDGE ( 'NONE', *, *, #682, .F. ) ;
#878 = CYLINDRICAL_SURFACE ( 'NONE', #215, 4.790000000000006253 ) ;
#879 = AXIS2_PLACEMENT_3D ( 'NONE', #670, #991, #986 ) ;
#880 = DIRECTION ( 'NONE',  ( -1.000000000000000000, -0.000000000000000000, -0.000000000000000000 ) ) ;
#881 = FACE_OUTER_BOUND ( 'NONE', #557, .T. ) ;
#882 = ORIENTED_EDGE ( 'NONE', *, *, #306, .F. ) ;
#883 = DIRECTION ( 'NONE',  ( 1.000000000000000000, 0.000000000000000000, 0.000000000000000000 ) ) ;
#884 = DIRECTION ( 'NONE',  ( 1.000000000000000000, -0.000000000000000000, -0.000000000000000000 ) ) ;
#885 = VERTEX_POINT ( 'NONE', #482 ) ;
#886 = ORIENTED_EDGE ( 'NONE', *, *, #365, .F. ) ;
#887 = EDGE_CURVE ( 'NONE', #719, #161, #854, .T. ) ;
#888 = DIRECTION ( 'NONE',  ( 0.000000000000000000, 0.000000000000000000, 1.000000000000000000 ) ) ;
#889 = AXIS2_PLACEMENT_3D ( 'NONE', #754, #186, #572 ) ;
#890 = FACE_OUTER_BOUND ( 'NONE', #249, .T. ) ;
#891 = CIRCLE ( 'NONE', #221, 7.490000000000001990 ) ;
#892 = ORIENTED_EDGE ( 'NONE', *, *, #953, .T. ) ;
#893 = VERTEX_POINT ( 'NONE', #9 ) ;
#894 = DIRECTION ( 'NONE',  ( 0.000000000000000000, 0.000000000000000000, -1.000000000000000000 ) ) ;
#895 = ADVANCED_FACE ( 'NONE', ( #570 ), #644, .T. ) ;
#896 = DIRECTION ( 'NONE',  ( -0.000000000000000000, 0.000000000000000000, 1.000000000000000000 ) ) ;
#897 = AXIS2_PLACEMENT_3D ( 'NONE', #303, #361, #685 ) ;
#898 = CARTESIAN_POINT ( 'NONE',  ( 14.00000000000000000, 0.000000000000000000, 0.000000000000000000 ) ) ;
#899 = ORIENTED_EDGE ( 'NONE', *, *, #50, .T. ) ;
#900 = LINE ( 'NONE', #260, #718 ) ;
#901 = DIRECTION ( 'NONE',  ( 0.000000000000000000, 0.000000000000000000, 1.000000000000000000 ) ) ;
#902 = EDGE_CURVE ( 'NONE', #677, #364, #169, .T. ) ;
#903 = DIRECTION ( 'NONE',  ( 0.000000000000000000, 0.000000000000000000, 1.000000000000000000 ) ) ;
#904 = AXIS2_PLACEMENT_3D ( 'NONE', #44, #588, #932 ) ;
#905 = EDGE_LOOP ( 'NONE', ( #12, #265, #587, #269 ) ) ;
#906 = LINE ( 'NONE', #251, #971 ) ;
#907 = DIRECTION ( 'NONE',  ( -1.000000000000000000, -0.000000000000000000, -0.000000000000000000 ) ) ;
#908 = FACE_OUTER_BOUND ( 'NONE', #756, .T. ) ;
#909 = EDGE_LOOP ( 'NONE', ( #899, #846 ) ) ;
#910 = DIRECTION ( 'NONE',  ( -0.000000000000000000, 0.000000000000000000, 1.000000000000000000 ) ) ;
#911 = AXIS2_PLACEMENT_3D ( 'NONE', #997, #180, #115 ) ;
#912 = DIRECTION ( 'NONE',  ( -1.000000000000000000, -0.000000000000000000, -0.000000000000000000 ) ) ;
#913 = CARTESIAN_POINT ( 'NONE',  ( 38.50000000000000000, 0.000000000000000000, 0.000000000000000000 ) ) ;
#914 = EDGE_LOOP ( 'NONE', ( #561, #240 ) ) ;
#915 = ADVANCED_FACE ( 'NONE', ( #109 ), #832, .F. ) ;
#916 = CYLINDRICAL_SURFACE ( 'NONE', #329, 7.490000000000001990 ) ;
#917 = CARTESIAN_POINT ( 'NONE',  ( 4.000000000000000000, 0.000000000000000000, 0.000000000000000000 ) ) ;
#918 = ORIENTED_EDGE ( 'NONE', *, *, #664, .T. ) ;
#919 = DIRECTION ( 'NONE',  ( 0.000000000000000000, 0.000000000000000000, 1.000000000000000000 ) ) ;
#920 = APPROVAL_PERSON_ORGANIZATION ( #532, #414, #951 ) ;
#921 = EDGE_CURVE ( 'NONE', #722, #177, #266, .T. ) ;
#922 = DIRECTION ( 'NONE',  ( -1.000000000000000000, -0.000000000000000000, -0.000000000000000000 ) ) ;
#923 = CARTESIAN_POINT ( 'NONE',  ( 0.000000000000000000, 6.110987527745294503E-16, -4.990000000000001101 ) ) ;
#924 = ORIENTED_EDGE ( 'NONE', *, *, #440, .F. ) ;
#925 = CIRCLE ( 'NONE', #463, 4.790000000000005365 ) ;
#926 = CARTESIAN_POINT ( 'NONE',  ( 14.00000000000000000, 2.000000000000002665, 7.228416147400479552 ) ) ;
#927 = CIRCLE ( 'NONE', #284, 7.490000000000001990 ) ;
#928 = DIRECTION ( 'NONE',  ( 0.000000000000000000, 0.000000000000000000, 1.000000000000000000 ) ) ;
#929 = EDGE_CURVE ( 'NONE', #860, #468, #1007, .T. ) ;
#930 = CARTESIAN_POINT ( 'NONE',  ( 0.000000000000000000, 0.000000000000000000, 0.000000000000000000 ) ) ;
#931 = VERTEX_POINT ( 'NONE', #847 ) ;
#932 = DIRECTION ( 'NONE',  ( 0.000000000000000000, 0.000000000000000000, 1.000000000000000000 ) ) ;
#933 = VECTOR ( 'NONE', #922, 1000.000000000000000 ) ;
#934 = CARTESIAN_POINT ( 'NONE',  ( 14.00000000000000000, -1.999999999999997335, 7.228416147400479552 ) ) ;
#935 = ORIENTED_EDGE ( 'NONE', *, *, #262, .F. ) ;
#936 = DATE_AND_TIME ( #615, #597 ) ;
#937 = VECTOR ( 'NONE', #943, 1000.000000000000000 ) ;
#938 = APPROVAL_PERSON_ORGANIZATION ( #705, #1031, #946 ) ;
#939 = DIRECTION ( 'NONE',  ( -1.000000000000000000, -0.000000000000000000, -0.000000000000000000 ) ) ;
#940 = ORIENTED_EDGE ( 'NONE', *, *, #244, .T. ) ;
#941 = APPROVAL_DATE_TIME ( #936, #1031 ) ;
#942 = CIRCLE ( 'NONE', #1010, 4.790000000000006253 ) ;
#943 = DIRECTION ( 'NONE',  ( 0.000000000000000000, 0.000000000000000000, -1.000000000000000000 ) ) ;
#944 = AXIS2_PLACEMENT_3D ( 'NONE', #24, #750, #896 ) ;
#945 = ORIENTED_EDGE ( 'NONE', *, *, #808, .F. ) ;
#946 = APPROVAL_ROLE ( '' ) ;
#947 = EDGE_CURVE ( 'NONE', #326, #931, #426, .T. ) ;
#948 = LINE ( 'NONE', #543, #100 ) ;
#949 = DIRECTION ( 'NONE',  ( -1.000000000000000000, -0.000000000000000000, -0.000000000000000000 ) ) ;
#950 = VERTEX_POINT ( 'NONE', #206 ) ;
#951 = APPROVAL_ROLE ( '' ) ;
#952 = FACE_BOUND ( 'NONE', #609, .T. ) ;
#953 = EDGE_CURVE ( 'NONE', #795, #343, #735, .T. ) ;
#954 = VECTOR ( 'NONE', #494, 1000.000000000000000 ) ;
#955 = CARTESIAN_POINT ( 'NONE',  ( 14.00000000000000000, 0.000000000000000000, 0.000000000000000000 ) ) ;
#956 = EDGE_LOOP ( 'NONE', ( #198, #620, #301, #667 ) ) ;
#957 = ORIENTED_EDGE ( 'NONE', *, *, #499, .T. ) ;
#958 = DIRECTION ( 'NONE',  ( -1.000000000000000000, -0.000000000000000000, -0.000000000000000000 ) ) ;
#959 = LINE ( 'NONE', #793, #513 ) ;
#960 = EDGE_CURVE ( 'NONE', #536, #55, #612, .T. ) ;
#961 = ORIENTED_EDGE ( 'NONE', *, *, #698, .F. ) ;
#962 = VERTEX_POINT ( 'NONE', #360 ) ;
#963 = DIRECTION ( 'NONE',  ( -1.000000000000000000, -0.000000000000000000, -0.000000000000000000 ) ) ;
#964 = CARTESIAN_POINT ( 'NONE',  ( 0.000000000000000000, 6.110987527745293517E-16, -4.990000000000000213 ) ) ;
#965 = DIRECTION ( 'NONE',  ( -1.000000000000000000, -0.000000000000000000, -0.000000000000000000 ) ) ;
#966 = ORIENTED_EDGE ( 'NONE', *, *, #603, .T. ) ;
#967 = PLANE ( 'NONE',  #1040 ) ;
#968 = AXIS2_PLACEMENT_3D ( 'NONE', #397, #653, #79 ) ;
#969 = CARTESIAN_POINT ( 'NONE',  ( 1.224646799147250347E-18, 6.110987527745293517E-16, -4.990000000000000213 ) ) ;
#970 = EDGE_LOOP ( 'NONE', ( #184, #382 ) ) ;
#971 = VECTOR ( 'NONE', #241, 1000.000000000000000 ) ;
#972 = VERTEX_POINT ( 'NONE', #212 ) ;
#973 = LINE ( 'NONE', #806, #700 ) ;
#974 = EDGE_CURVE ( 'NONE', #172, #580, #546, .T. ) ;
#975 = AXIS2_PLACEMENT_3D ( 'NONE', #258, #424, #903 ) ;
#976 = FACE_OUTER_BOUND ( 'NONE', #552, .T. ) ;
#977 = VERTEX_POINT ( 'NONE', #125 ) ;
#978 = ORIENTED_EDGE ( 'NONE', *, *, #1023, .F. ) ;
#979 = DIRECTION ( 'NONE',  ( -1.000000000000000000, -0.000000000000000000, -0.000000000000000000 ) ) ;
#980 = EDGE_CURVE ( 'NONE', #177, #722, #780, .T. ) ;
#981 = FACE_OUTER_BOUND ( 'NONE', #80, .T. ) ;
#982 = DIRECTION ( 'NONE',  ( 0.000000000000000000, 0.000000000000000000, 1.000000000000000000 ) ) ;
#983 = ORIENTED_EDGE ( 'NONE', *, *, #163, .F. ) ;
#984 = DIRECTION ( 'NONE',  ( 0.000000000000000000, 0.000000000000000000, 1.000000000000000000 ) ) ;
#985 = AXIS2_PLACEMENT_3D ( 'NONE', #716, #807, #798 ) ;
#986 = DIRECTION ( 'NONE',  ( 0.000000000000000000, 0.000000000000000000, -1.000000000000000000 ) ) ;
#987 = DIRECTION ( 'NONE',  ( -1.000000000000000000, -0.000000000000000000, -0.000000000000000000 ) ) ;
#988 =( GEOMETRIC_REPRESENTATION_CONTEXT ( 3 ) GLOBAL_UNCERTAINTY_ASSIGNED_CONTEXT ( ( #629 ) ) GLOBAL_UNIT_ASSIGNED_CONTEXT ( ( #194, #518, #287 ) ) REPRESENTATION_CONTEXT ( 'NONE', 'WORKASPACE' ) );
#989 = ORIENTED_EDGE ( 'NONE', *, *, #352, .F. ) ;
#990 = DIRECTION ( 'NONE',  ( -1.000000000000000000, 0.000000000000000000, -0.000000000000000000 ) ) ;
#991 = DIRECTION ( 'NONE',  ( 1.000000000000000000, 0.000000000000000000, 0.000000000000000000 ) ) ;
#992 = AXIS2_PLACEMENT_3D ( 'NONE', #371, #939, #61 ) ;
#993 = ADVANCED_FACE ( 'NONE', ( #27, #753 ), #1006, .F. ) ;
#994 = DIRECTION ( 'NONE',  ( -1.000000000000000000, -0.000000000000000000, -0.000000000000000000 ) ) ;
#995 = VERTEX_POINT ( 'NONE', #190 ) ;
#996 = DIRECTION ( 'NONE',  ( 0.000000000000000000, 0.000000000000000000, 1.000000000000000000 ) ) ;
#997 = CARTESIAN_POINT ( 'NONE',  ( 14.00000000000000000, 0.000000000000000000, 0.000000000000000000 ) ) ;
#998 = DIRECTION ( 'NONE',  ( 0.000000000000000000, 0.000000000000000000, 1.000000000000000000 ) ) ;
#999 = CC_DESIGN_DATE_AND_TIME_ASSIGNMENT ( #624, #711, ( #208 ) ) ;
#1000 = ORIENTED_EDGE ( 'NONE', *, *, #834, .F. ) ;
#1001 = CARTESIAN_POINT ( 'NONE',  ( 14.00000000000000000, 0.000000000000000000, 0.000000000000000000 ) ) ;
#1002 = ADVANCED_FACE ( 'NONE', ( #34, #270 ), #350, .F. ) ;
#1003 = FACE_OUTER_BOUND ( 'NONE', #140, .T. ) ;
#1004 = DIRECTION ( 'NONE',  ( -1.000000000000000000, -0.000000000000000000, -0.000000000000000000 ) ) ;
#1005 = ORIENTED_EDGE ( 'NONE', *, *, #262, .T. ) ;
#1006 = PLANE ( 'NONE',  #768 ) ;
#1007 = CIRCLE ( 'NONE', #904, 4.790000000000006253 ) ;
#1008 = CARTESIAN_POINT ( 'NONE',  ( 4.000000000000000000, 0.000000000000000000, 0.000000000000000000 ) ) ;
#1009 = DIRECTION ( 'NONE',  ( 0.000000000000000000, 0.000000000000000000, 1.000000000000000000 ) ) ;
#1010 = AXIS2_PLACEMENT_3D ( 'NONE', #68, #619, #57 ) ;
#1011 = ORIENTED_EDGE ( 'NONE', *, *, #188, .T. ) ;
#1012 = CARTESIAN_POINT ( 'NONE',  ( 14.00000000000000000, 0.000000000000000000, 0.000000000000000000 ) ) ;
#1013 = CC_DESIGN_DATE_AND_TIME_ASSIGNMENT ( #383, #296, ( #458 ) ) ;
#1014 = DIRECTION ( 'NONE',  ( -1.000000000000000000, -0.000000000000000000, -0.000000000000000000 ) ) ;
#1015 = ORIENTED_EDGE ( 'NONE', *, *, #821, .T. ) ;
#1016 = SECURITY_CLASSIFICATION_LEVEL ( 'unclassified' ) ;
#1017 = DIRECTION ( 'NONE',  ( 0.000000000000000000, 0.000000000000000000, 1.000000000000000000 ) ) ;
#1018 = ORIENTED_EDGE ( 'NONE', *, *, #858, .T. ) ;
#1019 = VECTOR ( 'NONE', #242, 1000.000000000000000 ) ;
#1020 = CIRCLE ( 'NONE', #697, 7.490000000000001990 ) ;
#1021 = CIRCLE ( 'NONE', #197, 4.990000000000001101 ) ;
#1022 = CARTESIAN_POINT ( 'NONE',  ( 0.000000000000000000, 0.000000000000000000, 0.000000000000000000 ) ) ;
#1023 = EDGE_CURVE ( 'NONE', #524, #1024, #827, .T. ) ;
#1024 = VERTEX_POINT ( 'NONE', #49 ) ;
#1025 = AXIS2_PLACEMENT_3D ( 'NONE', #196, #516, #498 ) ;
#1026 = CIRCLE ( 'NONE', #568, 4.990000000000000213 ) ;
#1027 = DIRECTION ( 'NONE',  ( 0.000000000000000000, 0.000000000000000000, 1.000000000000000000 ) ) ;
#1028 = DIRECTION ( 'NONE',  ( -1.000000000000000000, -0.000000000000000000, -0.000000000000000000 ) ) ;
#1029 = VERTEX_POINT ( 'NONE', #355 ) ;
#1030 = SHAPE_DEFINITION_REPRESENTATION ( #295, #785 ) ;
#1031 = APPROVAL ( #610, 'UNSPECIFIED' ) ;
#1032 = FACE_BOUND ( 'NONE', #464, .T. ) ;
#1033 = PLANE ( 'NONE',  #715 ) ;
#1034 = CIRCLE ( 'NONE', #712, 4.990000000000001101 ) ;
#1035 = ORIENTED_EDGE ( 'NONE', *, *, #95, .F. ) ;
#1036 = PERSON_AND_ORGANIZATION ( #493, #84 ) ;
#1037 = CIRCLE ( 'NONE', #578, 4.790000000000001812 ) ;
#1038 = DIRECTION ( 'NONE',  ( -1.000000000000000000, -0.000000000000000000, -0.000000000000000000 ) ) ;
#1039 = EDGE_CURVE ( 'NONE', #441, #171, #1021, .T. ) ;
#1040 = AXIS2_PLACEMENT_3D ( 'NONE', #639, #720, #335 ) ;
#1041 = LINE ( 'NONE', #10, #797 ) ;
ENDSEC;
END-ISO-10303-21;
