ISO-10303-21;
HEADER;
FILE_DESCRIPTION (( 'STEP AP203' ),
    '1' );
FILE_NAME ('Link3StellConnectors_Default_sldprt.STEP',
    '2026-07-23T12:35:09',
    ( '' ),
    ( '' ),
    'SwSTEP 2.0',
    'SolidWorks 2025',
    '' );
FILE_SCHEMA (( 'CONFIG_CONTROL_DESIGN' ));
ENDSEC;

DATA;
#1 = DIRECTION ( 'NONE',  ( 0.000000000000000000, 0.000000000000000000, 1.000000000000000000 ) ) ;
#2 = ORIENTED_EDGE ( 'NONE', *, *, #451, .F. ) ;
#3 = EDGE_CURVE ( 'NONE', #420, #372, #37, .T. ) ;
#4 = ORIENTED_EDGE ( 'NONE', *, *, #539, .F. ) ;
#5 = PLANE ( 'NONE',  #1066 ) ;
#6 = LINE ( 'NONE', #669, #292 ) ;
#7 = ORIENTED_EDGE ( 'NONE', *, *, #742, .F. ) ;
#8 = EDGE_CURVE ( 'NONE', #918, #471, #416, .T. ) ;
#9 = ORIENTED_EDGE ( 'NONE', *, *, #175, .T. ) ;
#10 = CARTESIAN_POINT ( 'NONE',  ( 238.3273854894817134, 0.000000000000000000, -215.0002636468324511 ) ) ;
#11 = CARTESIAN_POINT ( 'NONE',  ( -0.07261451051828989034, -39.99999999999999289, 9.999736353167531178 ) ) ;
#12 = ORIENTED_EDGE ( 'NONE', *, *, #235, .F. ) ;
#13 = CARTESIAN_POINT ( 'NONE',  ( 218.3273854894824524, -39.99999999999999289, -280.0007909404973248 ) ) ;
#14 = AXIS2_PLACEMENT_3D ( 'NONE', #288, #1116, #277 ) ;
#15 = EDGE_CURVE ( 'NONE', #889, #788, #237, .T. ) ;
#16 = ORIENTED_EDGE ( 'NONE', *, *, #992, .T. ) ;
#17 = CARTESIAN_POINT ( 'NONE',  ( 218.3273854894824524, 3.000000000000000000, -215.0002636468324511 ) ) ;
#18 = CARTESIAN_POINT ( 'NONE',  ( 238.3273854894816850, -39.99999999999999289, -280.0002636468323658 ) ) ;
#19 = EDGE_LOOP ( 'NONE', ( #724, #36, #191, #696, #1094, #677, #828, #493 ) ) ;
#20 = ORIENTED_EDGE ( 'NONE', *, *, #365, .T. ) ;
#21 = PLANE ( 'NONE',  #1025 ) ;
#22 = VECTOR ( 'NONE', #798, 1000.000000000000000 ) ;
#23 = CARTESIAN_POINT ( 'NONE',  ( 138.3273854894824240, -43.00000000000000000, -9.999736353167559599 ) ) ;
#24 = EDGE_CURVE ( 'NONE', #1198, #197, #164, .T. ) ;
#25 = DIRECTION ( 'NONE',  ( 0.000000000000000000, 0.000000000000000000, 1.000000000000000000 ) ) ;
#26 = EDGE_LOOP ( 'NONE', ( #319, #548, #885, #604 ) ) ;
#27 = DIRECTION ( 'NONE',  ( 0.000000000000000000, 1.000000000000000000, 0.000000000000000000 ) ) ;
#28 = DIRECTION ( 'NONE',  ( 1.000000000000000000, -0.000000000000000000, 5.550529771288700461E-15 ) ) ;
#29 = APPROVAL ( #800, 'UNSPECIFIED' ) ;
#30 = DIRECTION ( 'NONE',  ( 0.007261451051829059637, 0.000000000000000000, -0.9999736353167626435 ) ) ;
#31 = ORIENTED_EDGE ( 'NONE', *, *, #580, .T. ) ;
#32 = CARTESIAN_POINT ( 'NONE',  ( 218.3273854894824524, 3.000000000000000000, -280.0007909404973248 ) ) ;
#33 = VECTOR ( 'NONE', #225, 1000.000000000000000 ) ;
#34 = DIRECTION ( 'NONE',  ( 0.000000000000000000, -0.000000000000000000, -1.000000000000000000 ) ) ;
#35 = DIRECTION ( 'NONE',  ( 0.007261451051829059637, 0.000000000000000000, -0.9999736353167626435 ) ) ;
#36 = ORIENTED_EDGE ( 'NONE', *, *, #189, .T. ) ;
#37 = CIRCLE ( 'NONE', #731, 80.00000000000000000 ) ;
#38 = EDGE_CURVE ( 'NONE', #1051, #471, #512, .T. ) ;
#39 = VERTEX_POINT ( 'NONE', #617 ) ;
#40 = DIRECTION ( 'NONE',  ( -0.000000000000000000, -1.000000000000000000, -0.000000000000000000 ) ) ;
#41 = DIRECTION ( 'NONE',  ( 0.000000000000000000, 1.000000000000000000, 0.000000000000000000 ) ) ;
#42 = CARTESIAN_POINT ( 'NONE',  ( 138.3273854894823955, -39.99999999999999289, -360.0007909404973248 ) ) ;
#43 = ORIENTED_EDGE ( 'NONE', *, *, #415, .T. ) ;
#44 = ADVANCED_FACE ( 'NONE', ( #626 ), #891, .F. ) ;
#45 = PLANE ( 'NONE',  #797 ) ;
#46 = LINE ( 'NONE', #533, #923 ) ;
#47 = CARTESIAN_POINT ( 'NONE',  ( 238.3273854894817134, -43.00000000000000000, -155.0002636468324795 ) ) ;
#48 = ORIENTED_EDGE ( 'NONE', *, *, #1197, .F. ) ;
#49 = LINE ( 'NONE', #339, #738 ) ;
#50 = CYLINDRICAL_SURFACE ( 'NONE', #707, 79.99999999999995737 ) ;
#51 = AXIS2_PLACEMENT_3D ( 'NONE', #488, #28, #407 ) ;
#52 = PLANE ( 'NONE',  #983 ) ;
#53 = CC_DESIGN_APPROVAL ( #948, ( #1122 ) ) ;
#54 = ORIENTED_EDGE ( 'NONE', *, *, #573, .T. ) ;
#55 = ORIENTED_EDGE ( 'NONE', *, *, #1104, .F. ) ;
#56 = APPROVAL_DATE_TIME ( #62, #29 ) ;
#57 = DIRECTION ( 'NONE',  ( 1.000000000000000000, -0.000000000000000000, 1.451090930900692498E-15 ) ) ;
#58 = VECTOR ( 'NONE', #502, 1000.000000000000000 ) ;
#59 = EDGE_CURVE ( 'NONE', #161, #853, #524, .T. ) ;
#60 = CARTESIAN_POINT ( 'NONE',  ( 218.3273854894824808, -43.00000000000000000, -95.00026364683250790 ) ) ;
#61 = ORIENTED_EDGE ( 'NONE', *, *, #778, .F. ) ;
#62 = DATE_AND_TIME ( #1091, #806 ) ;
#63 = DIRECTION ( 'NONE',  ( 4.625929269271489858E-16, 0.000000000000000000, -1.000000000000000000 ) ) ;
#64 = DIRECTION ( 'NONE',  ( -1.000000000000000000, 0.000000000000000000, 1.445602896647339114E-15 ) ) ;
#65 = EDGE_LOOP ( 'NONE', ( #997, #2, #427, #915 ) ) ;
#66 = EDGE_CURVE ( 'NONE', #398, #672, #1079, .T. ) ;
#67 = ADVANCED_FACE ( 'NONE', ( #229 ), #45, .F. ) ;
#68 = CARTESIAN_POINT ( 'NONE',  ( 238.3273854894817134, -39.99999999999999289, -155.0002636468324795 ) ) ;
#69 = CARTESIAN_POINT ( 'NONE',  ( 238.3273854894817134, 3.000000000000000000, -155.0002636468324795 ) ) ;
#70 = DIRECTION ( 'NONE',  ( 0.007261451051829231375, 0.000000000000000000, 0.9999736353167626435 ) ) ;
#71 = EDGE_LOOP ( 'NONE', ( #376, #272, #330, #304 ) ) ;
#72 = VECTOR ( 'NONE', #837, 1000.000000000000000 ) ;
#73 = LINE ( 'NONE', #81, #239 ) ;
#74 = ADVANCED_FACE ( 'NONE', ( #331 ), #1084, .F. ) ;
#75 = COORDINATED_UNIVERSAL_TIME_OFFSET ( 3, 30, .AHEAD. ) ;
#76 = ORIENTED_EDGE ( 'NONE', *, *, #1148, .F. ) ;
#77 = FACE_OUTER_BOUND ( 'NONE', #563, .T. ) ;
#78 = FACE_OUTER_BOUND ( 'NONE', #701, .T. ) ;
#79 = ORIENTED_EDGE ( 'NONE', *, *, #127, .T. ) ;
#80 = AXIS2_PLACEMENT_3D ( 'NONE', #408, #317, #1168 ) ;
#81 = CARTESIAN_POINT ( 'NONE',  ( 238.3273854894817134, 3.000000000000000000, -215.0002636468324511 ) ) ;
#82 = EDGE_CURVE ( 'NONE', #39, #588, #49, .T. ) ;
#83 = ORIENTED_EDGE ( 'NONE', *, *, #639, .T. ) ;
#84 = DIRECTION ( 'NONE',  ( -0.000000000000000000, -1.000000000000000000, -0.000000000000000000 ) ) ;
#85 = CARTESIAN_POINT ( 'NONE',  ( 138.3273854894816566, 3.000000000000000000, -380.0002636468323658 ) ) ;
#86 = ORIENTED_EDGE ( 'NONE', *, *, #940, .F. ) ;
#87 = DIRECTION ( 'NONE',  ( -1.000000000000000000, 0.000000000000000000, 0.000000000000000000 ) ) ;
#88 = SHAPE_DEFINITION_REPRESENTATION ( #557, #1095 ) ;
#89 = ORIENTED_EDGE ( 'NONE', *, *, #127, .F. ) ;
#90 = CARTESIAN_POINT ( 'NONE',  ( 99.92738548948166510, 3.000000000000000000, -380.0002636468324226 ) ) ;
#91 = DIRECTION ( 'NONE',  ( 0.000000000000000000, 0.000000000000000000, -1.000000000000000000 ) ) ;
#92 = ADVANCED_FACE ( 'NONE', ( #149 ), #529, .F. ) ;
#93 = VERTEX_POINT ( 'NONE', #1056 ) ;
#94 = AXIS2_PLACEMENT_3D ( 'NONE', #743, #465, #1226 ) ;
#95 = AXIS2_PLACEMENT_3D ( 'NONE', #406, #295, #499 ) ;
#96 = ORIENTED_EDGE ( 'NONE', *, *, #38, .F. ) ;
#97 = CARTESIAN_POINT ( 'NONE',  ( -0.07261451051828989034, -43.00000000000000000, 9.999736353167531178 ) ) ;
#98 = CARTESIAN_POINT ( 'NONE',  ( 238.3273854894817134, -39.99999999999999289, -215.0002636468324511 ) ) ;
#99 = ORIENTED_EDGE ( 'NONE', *, *, #851, .T. ) ;
#100 = EDGE_CURVE ( 'NONE', #1152, #1198, #543, .T. ) ;
#101 = AXIS2_PLACEMENT_3D ( 'NONE', #996, #900, #1106 ) ;
#102 = VECTOR ( 'NONE', #141, 1000.000000000000000 ) ;
#103 = ORIENTED_EDGE ( 'NONE', *, *, #549, .F. ) ;
#104 = DIRECTION ( 'NONE',  ( 0.000000000000000000, 0.000000000000000000, 1.000000000000000000 ) ) ;
#105 = CARTESIAN_POINT ( 'NONE',  ( -0.07261451051832458481, 3.000000000000000000, -380.0002636468324226 ) ) ;
#106 = EDGE_LOOP ( 'NONE', ( #971, #7, #385, #129, #86, #877, #345, #581 ) ) ;
#107 = VECTOR ( 'NONE', #558, 1000.000000000000000 ) ;
#108 = ADVANCED_FACE ( 'NONE', ( #275 ), #916, .F. ) ;
#109 = VERTEX_POINT ( 'NONE', #1016 ) ;
#110 = DIRECTION ( 'NONE',  ( 0.000000000000000000, 0.000000000000000000, 1.000000000000000000 ) ) ;
#111 = DIRECTION ( 'NONE',  ( 0.000000000000000000, 1.000000000000000000, -0.000000000000000000 ) ) ;
#112 = ORIENTED_EDGE ( 'NONE', *, *, #168, .T. ) ;
#113 = AXIS2_PLACEMENT_3D ( 'NONE', #1160, #1059, #209 ) ;
#114 = EDGE_CURVE ( 'NONE', #279, #109, #857, .T. ) ;
#115 = EDGE_LOOP ( 'NONE', ( #766, #426, #363, #83 ) ) ;
#116 = CARTESIAN_POINT ( 'NONE',  ( -0.07261451051832458481, 0.000000000000000000, -380.0002636468324226 ) ) ;
#117 = LINE ( 'NONE', #705, #1023 ) ;
#118 = PLANE ( 'NONE',  #1191 ) ;
#119 = ORIENTED_EDGE ( 'NONE', *, *, #159, .F. ) ;
#120 = PLANE ( 'NONE',  #95 ) ;
#121 = EDGE_CURVE ( 'NONE', #588, #933, #169, .T. ) ;
#122 = DIRECTION ( 'NONE',  ( -0.000000000000000000, -1.000000000000000000, -0.000000000000000000 ) ) ;
#123 = CARTESIAN_POINT ( 'NONE',  ( 0.07261451051828989034, -39.99999999999999289, -9.999736353167531178 ) ) ;
#124 = VERTEX_POINT ( 'NONE', #551 ) ;
#125 = FACE_OUTER_BOUND ( 'NONE', #106, .T. ) ;
#126 = LINE ( 'NONE', #968, #822 ) ;
#127 = EDGE_CURVE ( 'NONE', #788, #620, #73, .T. ) ;
#128 = DIRECTION ( 'NONE',  ( -0.000000000000000000, -1.000000000000000000, -0.000000000000000000 ) ) ;
#129 = ORIENTED_EDGE ( 'NONE', *, *, #1048, .F. ) ;
#130 = CARTESIAN_POINT ( 'NONE',  ( 138.3273854894824240, -39.99999999999999289, -89.99973635316756315 ) ) ;
#131 = LINE ( 'NONE', #886, #411 ) ;
#132 = VECTOR ( 'NONE', #814, 1000.000000000000000 ) ;
#133 = PLANE ( 'NONE',  #373 ) ;
#134 = AXIS2_PLACEMENT_3D ( 'NONE', #377, #1040, #104 ) ;
#135 = FACE_OUTER_BOUND ( 'NONE', #825, .T. ) ;
#136 = ORIENTED_EDGE ( 'NONE', *, *, #793, .T. ) ;
#137 = EDGE_CURVE ( 'NONE', #478, #715, #1108, .T. ) ;
#138 = CARTESIAN_POINT ( 'NONE',  ( 99.92738548948166510, -43.00000000000000000, -380.0002636468324226 ) ) ;
#139 =( NAMED_UNIT ( * ) SI_UNIT ( $, .STERADIAN. ) SOLID_ANGLE_UNIT ( ) );
#140 = CARTESIAN_POINT ( 'NONE',  ( 218.3273854894824524, 3.000000000000000000, -215.0002636468324511 ) ) ;
#141 = DIRECTION ( 'NONE',  ( -0.000000000000000000, -1.000000000000000000, -0.000000000000000000 ) ) ;
#142 = ORIENTED_EDGE ( 'NONE', *, *, #297, .F. ) ;
#143 = EDGE_CURVE ( 'NONE', #909, #921, #835, .T. ) ;
#144 = CARTESIAN_POINT ( 'NONE',  ( 138.3273854894817134, 3.000000000000000000, 9.999736353167476111 ) ) ;
#145 = APPLICATION_PROTOCOL_DEFINITION ( 'international standard', 'config_control_design', 1994, #1134 ) ;
#146 = CARTESIAN_POINT ( 'NONE',  ( 138.3273854894824240, 3.000000000000000000, -89.99973635316756315 ) ) ;
#147 = CARTESIAN_POINT ( 'NONE',  ( 238.3273854894816850, 0.000000000000000000, -280.0002636468323658 ) ) ;
#148 = EDGE_LOOP ( 'NONE', ( #733, #338, #354, #903 ) ) ;
#149 = FACE_OUTER_BOUND ( 'NONE', #847, .T. ) ;
#150 = PERSON_AND_ORGANIZATION_ROLE ( 'design_supplier' ) ;
#151 = EDGE_CURVE ( 'NONE', #1146, #1026, #362, .T. ) ;
#152 = DIRECTION ( 'NONE',  ( 0.000000000000000000, -1.000000000000000000, 0.000000000000000000 ) ) ;
#153 = AXIS2_PLACEMENT_3D ( 'NONE', #1086, #258, #722 ) ;
#154 = DIRECTION ( 'NONE',  ( 0.000000000000000000, 0.000000000000000000, 1.000000000000000000 ) ) ;
#155 = VECTOR ( 'NONE', #1073, 1000.000000000000000 ) ;
#156 = DIRECTION ( 'NONE',  ( -0.000000000000000000, -1.000000000000000000, 0.000000000000000000 ) ) ;
#157 = MECHANICAL_CONTEXT ( 'NONE', #1134, 'mechanical' ) ;
#158 = DIRECTION ( 'NONE',  ( -0.000000000000000000, -1.000000000000000000, -0.000000000000000000 ) ) ;
#159 = EDGE_CURVE ( 'NONE', #124, #761, #649, .T. ) ;
#160 = DIRECTION ( 'NONE',  ( -5.550529771288701250E-15, 0.000000000000000000, 1.000000000000000000 ) ) ;
#161 = VERTEX_POINT ( 'NONE', #1215 ) ;
#162 = DIRECTION ( 'NONE',  ( -0.000000000000000000, -1.000000000000000000, -0.000000000000000000 ) ) ;
#163 = PERSON_AND_ORGANIZATION ( #713, #727 ) ;
#164 = CIRCLE ( 'NONE', #852, 80.00000000000000000 ) ;
#165 = DIRECTION ( 'NONE',  ( -1.000000000000000000, 0.000000000000000000, -0.000000000000000000 ) ) ;
#166 = CARTESIAN_POINT ( 'NONE',  ( 218.3273854894824524, -39.99999999999999289, -155.0002636468325079 ) ) ;
#167 = ORIENTED_EDGE ( 'NONE', *, *, #8, .T. ) ;
#168 = EDGE_CURVE ( 'NONE', #660, #39, #1010, .T. ) ;
#169 = LINE ( 'NONE', #459, #280 ) ;
#170 = EDGE_LOOP ( 'NONE', ( #454, #831, #401, #247 ) ) ;
#171 = CARTESIAN_POINT ( 'NONE',  ( 238.3273854894817134, 0.000000000000000000, -215.0002636468324511 ) ) ;
#172 = DIRECTION ( 'NONE',  ( -5.550529771288701250E-15, 0.000000000000000000, 1.000000000000000000 ) ) ;
#173 = ORIENTED_EDGE ( 'NONE', *, *, #859, .T. ) ;
#174 = AXIS2_PLACEMENT_3D ( 'NONE', #578, #941, #954 ) ;
#175 = EDGE_CURVE ( 'NONE', #398, #936, #268, .T. ) ;
#176 = CARTESIAN_POINT ( 'NONE',  ( 138.3273854894824240, 3.000000000000000000, -89.99973635316756315 ) ) ;
#177 = ORIENTED_EDGE ( 'NONE', *, *, #374, .T. ) ;
#178 = DIRECTION ( 'NONE',  ( -1.000000000000000000, 0.000000000000000000, -1.451090930900692301E-15 ) ) ;
#179 = DIRECTION ( 'NONE',  ( -0.000000000000000000, -1.000000000000000000, -0.000000000000000000 ) ) ;
#180 = EDGE_LOOP ( 'NONE', ( #410, #218, #1202, #574 ) ) ;
#181 = VECTOR ( 'NONE', #924, 1000.000000000000000 ) ;
#182 = LINE ( 'NONE', #446, #107 ) ;
#183 = ORIENTED_EDGE ( 'NONE', *, *, #1081, .F. ) ;
#184 = CARTESIAN_POINT ( 'NONE',  ( -0.07261451051828989034, 3.000000000000000000, 9.999736353167531178 ) ) ;
#185 = CARTESIAN_POINT ( 'NONE',  ( 238.3273854894817134, -43.00000000000000000, -215.0002636468324511 ) ) ;
#186 = ORIENTED_EDGE ( 'NONE', *, *, #816, .T. ) ;
#187 = ORIENTED_EDGE ( 'NONE', *, *, #956, .F. ) ;
#188 = DIRECTION ( 'NONE',  ( 0.000000000000000000, 0.000000000000000000, -1.000000000000000000 ) ) ;
#189 = EDGE_CURVE ( 'NONE', #381, #255, #1121, .T. ) ;
#190 = PLANE ( 'NONE',  #428 ) ;
#191 = ORIENTED_EDGE ( 'NONE', *, *, #1013, .T. ) ;
#192 = AXIS2_PLACEMENT_3D ( 'NONE', #802, #728, #165 ) ;
#193 = VECTOR ( 'NONE', #1158, 1000.000000000000114 ) ;
#194 = EDGE_LOOP ( 'NONE', ( #503, #1138, #379, #369 ) ) ;
#195 = FACE_OUTER_BOUND ( 'NONE', #670, .T. ) ;
#196 = DIRECTION ( 'NONE',  ( 0.000000000000000000, 0.000000000000000000, -1.000000000000000000 ) ) ;
#197 = VERTEX_POINT ( 'NONE', #1024 ) ;
#198 = VECTOR ( 'NONE', #128, 1000.000000000000000 ) ;
#199 = APPLICATION_CONTEXT ( 'configuration controlled 3d designs of mechanical parts and assemblies' ) ;
#200 = VERTEX_POINT ( 'NONE', #68 ) ;
#201 = CARTESIAN_POINT ( 'NONE',  ( 138.3273854894824240, -39.99999999999999289, -280.0007909404973248 ) ) ;
#202 = LINE ( 'NONE', #378, #1159 ) ;
#203 = EDGE_LOOP ( 'NONE', ( #186, #1099, #644, #1017 ) ) ;
#204 = AXIS2_PLACEMENT_3D ( 'NONE', #745, #1114, #1206 ) ;
#205 = CARTESIAN_POINT ( 'NONE',  ( 0.07261451051825866532, -39.99999999999999289, -360.0007909404973816 ) ) ;
#206 = EDGE_CURVE ( 'NONE', #1152, #817, #323, .T. ) ;
#207 = ORIENTED_EDGE ( 'NONE', *, *, #336, .F. ) ;
#208 = CARTESIAN_POINT ( 'NONE',  ( 218.3273854894824524, 0.000000000000000000, -89.99973635316759157 ) ) ;
#209 = DIRECTION ( 'NONE',  ( 0.000000000000000000, 0.000000000000000000, -1.000000000000000000 ) ) ;
#210 = CARTESIAN_POINT ( 'NONE',  ( 0.07261451051825866532, 0.000000000000000000, -360.0007909404973816 ) ) ;
#211 = CC_DESIGN_PERSON_AND_ORGANIZATION_ASSIGNMENT ( #163, #150, ( #1122 ) ) ;
#212 = VECTOR ( 'NONE', #238, 1000.000000000000000 ) ;
#213 = ORIENTED_EDGE ( 'NONE', *, *, #637, .T. ) ;
#214 = VECTOR ( 'NONE', #571, 1000.000000000000000 ) ;
#215 = FACE_OUTER_BOUND ( 'NONE', #65, .T. ) ;
#216 = DIRECTION ( 'NONE',  ( 0.000000000000000000, 1.000000000000000000, 0.000000000000000000 ) ) ;
#217 = FACE_OUTER_BOUND ( 'NONE', #115, .T. ) ;
#218 = ORIENTED_EDGE ( 'NONE', *, *, #495, .F. ) ;
#219 = CARTESIAN_POINT ( 'NONE',  ( 218.3273854894824524, 0.000000000000000000, -215.0002636468324511 ) ) ;
#220 = CARTESIAN_POINT ( 'NONE',  ( 0.07261451051825866532, 3.000000000000000000, -360.0007909404973816 ) ) ;
#221 = DIRECTION ( 'NONE',  ( -0.000000000000000000, -1.000000000000000000, -0.000000000000000000 ) ) ;
#222 = VECTOR ( 'NONE', #368, 1000.000000000000000 ) ;
#223 = ORIENTED_EDGE ( 'NONE', *, *, #1074, .F. ) ;
#224 = FACE_OUTER_BOUND ( 'NONE', #480, .T. ) ;
#225 = DIRECTION ( 'NONE',  ( -0.000000000000000000, -1.000000000000000000, -0.000000000000000000 ) ) ;
#226 = EDGE_CURVE ( 'NONE', #817, #197, #182, .T. ) ;
#227 = DIRECTION ( 'NONE',  ( 0.000000000000000000, 0.000000000000000000, -1.000000000000000000 ) ) ;
#228 = ORIENTED_EDGE ( 'NONE', *, *, #189, .F. ) ;
#229 = FACE_OUTER_BOUND ( 'NONE', #929, .T. ) ;
#230 = DATE_TIME_ROLE ( 'creation_date' ) ;
#231 = AXIS2_PLACEMENT_3D ( 'NONE', #771, #977, #879 ) ;
#232 = FACE_OUTER_BOUND ( 'NONE', #781, .T. ) ;
#233 = EDGE_CURVE ( 'NONE', #93, #753, #299, .T. ) ;
#234 = DIRECTION ( 'NONE',  ( 0.000000000000000000, 0.000000000000000000, 1.000000000000000000 ) ) ;
#235 = EDGE_CURVE ( 'NONE', #933, #1146, #957, .T. ) ;
#236 = VECTOR ( 'NONE', #1020, 1000.000000000000000 ) ;
#237 = LINE ( 'NONE', #1090, #461 ) ;
#238 = DIRECTION ( 'NONE',  ( -1.000000000000000000, 0.000000000000000000, 7.708920570409924211E-16 ) ) ;
#239 = VECTOR ( 'NONE', #355, 1000.000000000000000 ) ;
#240 = CARTESIAN_POINT ( 'NONE',  ( 218.3273854894824808, 0.000000000000000000, -95.00026364683250790 ) ) ;
#241 = ORIENTED_EDGE ( 'NONE', *, *, #534, .F. ) ;
#242 = EDGE_CURVE ( 'NONE', #109, #267, #624, .T. ) ;
#243 = DIRECTION ( 'NONE',  ( 1.000000000000000000, 0.000000000000000000, 0.000000000000000000 ) ) ;
#244 = APPROVAL_ROLE ( '' ) ;
#245 = DIRECTION ( 'NONE',  ( 0.000000000000000000, 1.000000000000000000, 0.000000000000000000 ) ) ;
#246 = CARTESIAN_POINT ( 'NONE',  ( 0.07261451051828989034, -39.99999999999999289, -9.999736353167531178 ) ) ;
#247 = ORIENTED_EDGE ( 'NONE', *, *, #735, .T. ) ;
#248 = ADVANCED_FACE ( 'NONE', ( #217 ), #310, .T. ) ;
#249 = DIRECTION ( 'NONE',  ( -5.551115123125901031E-15, 0.000000000000000000, -1.000000000000000000 ) ) ;
#250 = DIRECTION ( 'NONE',  ( 0.007261451051829231375, 0.000000000000000000, 0.9999736353167626435 ) ) ;
#251 = PLANE ( 'NONE',  #747 ) ;
#252 = CIRCLE ( 'NONE', #94, 79.99999999999998579 ) ;
#253 = PLANE ( 'NONE',  #448 ) ;
#254 = LOCAL_TIME ( 16, 5, 9.000000000000000000, #441 ) ;
#255 = VERTEX_POINT ( 'NONE', #603 ) ;
#256 = DIRECTION ( 'NONE',  ( 1.000000000000000000, 0.000000000000000000, 1.387778780781496557E-15 ) ) ;
#257 = APPROVAL_STATUS ( 'not_yet_approved' ) ;
#258 = DIRECTION ( 'NONE',  ( 0.000000000000000000, 1.000000000000000000, -0.000000000000000000 ) ) ;
#259 = CARTESIAN_POINT ( 'NONE',  ( 218.3273854894824524, -43.00000000000000000, -89.99973635316759157 ) ) ;
#260 = EDGE_LOOP ( 'NONE', ( #136, #1107, #1223, #882 ) ) ;
#261 = DIRECTION ( 'NONE',  ( -0.000000000000000000, -1.000000000000000000, -0.000000000000000000 ) ) ;
#262 = VECTOR ( 'NONE', #585, 1000.000000000000000 ) ;
#263 = ORIENTED_EDGE ( 'NONE', *, *, #286, .F. ) ;
#264 = CARTESIAN_POINT ( 'NONE',  ( 238.3273854894816850, 3.000000000000000000, -280.0002636468323658 ) ) ;
#265 = EDGE_CURVE ( 'NONE', #620, #1051, #515, .T. ) ;
#266 = CARTESIAN_POINT ( 'NONE',  ( 0.07261451051825866532, 3.000000000000000000, -360.0007909404973816 ) ) ;
#267 = VERTEX_POINT ( 'NONE', #888 ) ;
#268 = LINE ( 'NONE', #205, #913 ) ;
#269 = VERTEX_POINT ( 'NONE', #210 ) ;
#270 = CARTESIAN_POINT ( 'NONE',  ( -0.07261451051832458481, 3.000000000000000000, -380.0002636468324226 ) ) ;
#271 = LINE ( 'NONE', #1219, #333 ) ;
#272 = ORIENTED_EDGE ( 'NONE', *, *, #168, .F. ) ;
#273 = CIRCLE ( 'NONE', #1083, 79.99999999999998579 ) ;
#274 = EDGE_CURVE ( 'NONE', #552, #950, #399, .T. ) ;
#275 = FACE_OUTER_BOUND ( 'NONE', #170, .T. ) ;
#276 = EDGE_LOOP ( 'NONE', ( #367, #360, #872, #615 ) ) ;
#277 = DIRECTION ( 'NONE',  ( 0.000000000000000000, 0.000000000000000000, -1.000000000000000000 ) ) ;
#278 = LINE ( 'NONE', #1117, #628 ) ;
#279 = VERTEX_POINT ( 'NONE', #974 ) ;
#280 = VECTOR ( 'NONE', #937, 1000.000000000000000 ) ;
#281 = EDGE_CURVE ( 'NONE', #509, #938, #608, .T. ) ;
#282 = ORIENTED_EDGE ( 'NONE', *, *, #242, .F. ) ;
#283 = DIRECTION ( 'NONE',  ( 0.000000000000000000, 0.000000000000000000, 1.000000000000000000 ) ) ;
#284 = DIRECTION ( 'NONE',  ( -0.000000000000000000, -1.000000000000000000, -0.000000000000000000 ) ) ;
#285 = ORIENTED_EDGE ( 'NONE', *, *, #469, .F. ) ;
#286 = EDGE_CURVE ( 'NONE', #691, #486, #984, .T. ) ;
#287 = ORIENTED_EDGE ( 'NONE', *, *, #226, .F. ) ;
#288 = CARTESIAN_POINT ( 'NONE',  ( 138.3273854894817134, 3.000000000000000000, -280.0002636468323658 ) ) ;
#289 = ADVANCED_FACE ( 'NONE', ( #135 ), #970, .F. ) ;
#290 = CARTESIAN_POINT ( 'NONE',  ( 238.3273854894817134, -39.99999999999999289, -275.0002636468324795 ) ) ;
#291 = ORIENTED_EDGE ( 'NONE', *, *, #143, .F. ) ;
#292 = VECTOR ( 'NONE', #568, 1000.000000000000000 ) ;
#293 = AXIS2_PLACEMENT_3D ( 'NONE', #1110, #561, #283 ) ;
#294 = VERTEX_POINT ( 'NONE', #894 ) ;
#295 = DIRECTION ( 'NONE',  ( 1.451090930900692301E-15, 0.000000000000000000, -1.000000000000000000 ) ) ;
#296 = DIRECTION ( 'NONE',  ( -0.000000000000000000, -0.000000000000000000, -1.000000000000000000 ) ) ;
#297 = EDGE_CURVE ( 'NONE', #672, #307, #497, .T. ) ;
#298 = ORIENTED_EDGE ( 'NONE', *, *, #586, .F. ) ;
#299 = LINE ( 'NONE', #678, #262 ) ;
#300 = ORIENTED_EDGE ( 'NONE', *, *, #735, .F. ) ;
#301 = VECTOR ( 'NONE', #718, 1000.000000000000000 ) ;
#302 = DIRECTION ( 'NONE',  ( -0.000000000000000000, -1.000000000000000000, -0.000000000000000000 ) ) ;
#303 = FACE_OUTER_BOUND ( 'NONE', #839, .T. ) ;
#304 = ORIENTED_EDGE ( 'NONE', *, *, #226, .T. ) ;
#305 = EDGE_CURVE ( 'NONE', #433, #633, #1050, .T. ) ;
#306 = DIRECTION ( 'NONE',  ( 0.9999736353167627545, -0.000000000000000000, 0.007261451051829060505 ) ) ;
#307 = VERTEX_POINT ( 'NONE', #871 ) ;
#308 = LINE ( 'NONE', #692, #1161 ) ;
#309 = FACE_OUTER_BOUND ( 'NONE', #719, .T. ) ;
#310 = CYLINDRICAL_SURFACE ( 'NONE', #858, 99.99999999999997158 ) ;
#311 = ADVANCED_FACE ( 'NONE', ( #591 ), #508, .F. ) ;
#312 = AXIS2_PLACEMENT_3D ( 'NONE', #1092, #245, #906 ) ;
#313 = ORIENTED_EDGE ( 'NONE', *, *, #396, .F. ) ;
#314 = LOCAL_TIME ( 16, 5, 9.000000000000000000, #75 ) ;
#315 = DIRECTION ( 'NONE',  ( 0.000000000000000000, -0.000000000000000000, 1.000000000000000000 ) ) ;
#316 = DIRECTION ( 'NONE',  ( -0.000000000000000000, -1.000000000000000000, -0.000000000000000000 ) ) ;
#317 = DIRECTION ( 'NONE',  ( -1.000000000000000000, 0.000000000000000000, 5.551115123125901031E-15 ) ) ;
#318 = ADVANCED_FACE ( 'NONE', ( #1155 ), #1060, .F. ) ;
#319 = ORIENTED_EDGE ( 'NONE', *, *, #469, .T. ) ;
#320 = FACE_OUTER_BOUND ( 'NONE', #444, .T. ) ;
#321 = DIRECTION ( 'NONE',  ( 0.000000000000000000, -0.000000000000000000, -1.000000000000000000 ) ) ;
#322 = LINE ( 'NONE', #1077, #1216 ) ;
#323 = CIRCLE ( 'NONE', #642, 80.00000000000000000 ) ;
#324 = ORIENTED_EDGE ( 'NONE', *, *, #38, .T. ) ;
#325 = ORIENTED_EDGE ( 'NONE', *, *, #396, .T. ) ;
#326 = DATE_TIME_ROLE ( 'classification_date' ) ;
#327 = ADVANCED_FACE ( 'NONE', ( #784 ), #118, .F. ) ;
#328 = PLANE ( 'NONE',  #51 ) ;
#329 = CARTESIAN_POINT ( 'NONE',  ( -0.07261451051832458481, 3.000000000000000000, -380.0002636468324226 ) ) ;
#330 = ORIENTED_EDGE ( 'NONE', *, *, #875, .F. ) ;
#331 = FACE_OUTER_BOUND ( 'NONE', #194, .T. ) ;
#332 = PERSON_AND_ORGANIZATION ( #713, #727 ) ;
#333 = VECTOR ( 'NONE', #179, 1000.000000000000000 ) ;
#334 = VECTOR ( 'NONE', #927, 1000.000000000000227 ) ;
#335 = CARTESIAN_POINT ( 'NONE',  ( 218.3273854894824524, -39.99999999999999289, -215.0002636468324511 ) ) ;
#336 = EDGE_CURVE ( 'NONE', #471, #478, #1214, .T. ) ;
#337 = FACE_OUTER_BOUND ( 'NONE', #926, .T. ) ;
#338 = ORIENTED_EDGE ( 'NONE', *, *, #639, .F. ) ;
#339 = CARTESIAN_POINT ( 'NONE',  ( -0.07261451051828989034, 0.000000000000000000, 9.999736353167531178 ) ) ;
#340 = PLANE ( 'NONE',  #312 ) ;
#341 = VECTOR ( 'NONE', #391, 1000.000000000000000 ) ;
#342 = FACE_OUTER_BOUND ( 'NONE', #986, .T. ) ;
#343 = ORIENTED_EDGE ( 'NONE', *, *, #451, .T. ) ;
#344 = EDGE_CURVE ( 'NONE', #552, #536, #404, .T. ) ;
#345 = ORIENTED_EDGE ( 'NONE', *, *, #453, .F. ) ;
#346 = DIRECTION ( 'NONE',  ( -0.000000000000000000, -0.000000000000000000, -1.000000000000000000 ) ) ;
#347 = FACE_OUTER_BOUND ( 'NONE', #975, .T. ) ;
#348 = VECTOR ( 'NONE', #70, 1000.000000000000114 ) ;
#349 = DIRECTION ( 'NONE',  ( 0.000000000000000000, 0.000000000000000000, -1.000000000000000000 ) ) ;
#350 = PERSON_AND_ORGANIZATION_ROLE ( 'creator' ) ;
#351 = CARTESIAN_POINT ( 'NONE',  ( 238.3273854894816850, -39.99999999999999289, -280.0002636468323658 ) ) ;
#352 = CIRCLE ( 'NONE', #610, 99.99999999999997158 ) ;
#353 = PLANE ( 'NONE',  #811 ) ;
#354 = ORIENTED_EDGE ( 'NONE', *, *, #523, .F. ) ;
#355 = DIRECTION ( 'NONE',  ( 1.000000000000000000, -0.000000000000000000, -0.000000000000000000 ) ) ;
#356 = EDGE_CURVE ( 'NONE', #566, #715, #1175, .T. ) ;
#357 = ORIENTED_EDGE ( 'NONE', *, *, #1207, .T. ) ;
#358 = DIRECTION ( 'NONE',  ( 0.000000000000000000, -0.000000000000000000, -1.000000000000000000 ) ) ;
#359 = CARTESIAN_POINT ( 'NONE',  ( 138.3273854894817134, -39.99999999999999289, 9.999736353167476111 ) ) ;
#360 = ORIENTED_EDGE ( 'NONE', *, *, #445, .F. ) ;
#361 = BREP_WITH_VOIDS ( 'NONE', #1006, ( #869 ) );
#362 = LINE ( 'NONE', #1221, #181 ) ;
#363 = ORIENTED_EDGE ( 'NONE', *, *, #661, .F. ) ;
#364 = CARTESIAN_POINT ( 'NONE',  ( 0.07261451051825866532, -43.00000000000000000, -360.0007909404973816 ) ) ;
#365 = EDGE_CURVE ( 'NONE', #936, #307, #322, .T. ) ;
#366 = CARTESIAN_POINT ( 'NONE',  ( -0.07261451051828989034, 0.000000000000000000, 9.999736353167531178 ) ) ;
#367 = ORIENTED_EDGE ( 'NONE', *, *, #539, .T. ) ;
#368 = DIRECTION ( 'NONE',  ( -0.000000000000000000, -1.000000000000000000, -0.000000000000000000 ) ) ;
#369 = ORIENTED_EDGE ( 'NONE', *, *, #559, .T. ) ;
#370 = CARTESIAN_POINT ( 'NONE',  ( 99.92738548948166510, -39.99999999999999289, -380.0002636468324226 ) ) ;
#371 = DIRECTION ( 'NONE',  ( 1.000000000000000000, -0.000000000000000000, -1.445602896647339114E-15 ) ) ;
#372 = VERTEX_POINT ( 'NONE', #1210 ) ;
#373 = AXIS2_PLACEMENT_3D ( 'NONE', #686, #1070, #34 ) ;
#374 = EDGE_CURVE ( 'NONE', #938, #462, #535, .T. ) ;
#375 = LOCAL_TIME ( 16, 5, 9.000000000000000000, #904 ) ;
#376 = ORIENTED_EDGE ( 'NONE', *, *, #549, .T. ) ;
#377 = CARTESIAN_POINT ( 'NONE',  ( 138.3273854894817134, 3.000000000000000000, -280.0002636468323658 ) ) ;
#378 = CARTESIAN_POINT ( 'NONE',  ( 138.3273854894817134, -43.00000000000000000, 9.999736353167476111 ) ) ;
#379 = ORIENTED_EDGE ( 'NONE', *, *, #629, .F. ) ;
#380 = CC_DESIGN_PERSON_AND_ORGANIZATION_ASSIGNMENT ( #703, #1179, ( #902 ) ) ;
#381 = VERTEX_POINT ( 'NONE', #803 ) ;
#382 = VECTOR ( 'NONE', #1030, 1000.000000000000000 ) ;
#383 = CARTESIAN_POINT ( 'NONE',  ( 218.3273854894824524, -43.00000000000000000, -155.0002636468325079 ) ) ;
#384 = DIRECTION ( 'NONE',  ( 1.000000000000000000, -0.000000000000000000, -0.000000000000000000 ) ) ;
#385 = ORIENTED_EDGE ( 'NONE', *, *, #507, .F. ) ;
#386 = EDGE_CURVE ( 'NONE', #1039, #433, #1183, .T. ) ;
#387 = ORIENTED_EDGE ( 'NONE', *, *, #648, .F. ) ;
#388 = DIRECTION ( 'NONE',  ( 1.451090930900692301E-15, 0.000000000000000000, -1.000000000000000000 ) ) ;
#389 = CARTESIAN_POINT ( 'NONE',  ( 138.3273854894817134, -39.99999999999999289, -90.00026364683252211 ) ) ;
#390 = ORIENTED_EDGE ( 'NONE', *, *, #439, .T. ) ;
#391 = DIRECTION ( 'NONE',  ( -0.000000000000000000, -1.000000000000000000, -0.000000000000000000 ) ) ;
#392 = AXIS2_PLACEMENT_3D ( 'NONE', #146, #919, #358 ) ;
#393 = APPROVAL_PERSON_ORGANIZATION ( #716, #29, #795 ) ;
#394 = ORIENTED_EDGE ( 'NONE', *, *, #816, .F. ) ;
#395 = PLANE ( 'NONE',  #653 ) ;
#396 = EDGE_CURVE ( 'NONE', #294, #850, #1201, .T. ) ;
#397 = CARTESIAN_POINT ( 'NONE',  ( 138.3273854894824240, 0.000000000000000000, -89.99973635316756315 ) ) ;
#398 = VERTEX_POINT ( 'NONE', #1014 ) ;
#399 = LINE ( 'NONE', #1082, #704 ) ;
#400 = VECTOR ( 'NONE', #829, 1000.000000000000000 ) ;
#401 = ORIENTED_EDGE ( 'NONE', *, *, #439, .F. ) ;
#402 = LINE ( 'NONE', #494, #925 ) ;
#403 = LINE ( 'NONE', #1149, #785 ) ;
#404 = LINE ( 'NONE', #779, #22 ) ;
#405 = ORIENTED_EDGE ( 'NONE', *, *, #305, .F. ) ;
#406 = CARTESIAN_POINT ( 'NONE',  ( 138.3273854894823671, -39.99999999999999289, -360.0007909404973248 ) ) ;
#407 = DIRECTION ( 'NONE',  ( 5.550529771288700461E-15, 0.000000000000000000, -1.000000000000000000 ) ) ;
#408 = CARTESIAN_POINT ( 'NONE',  ( 238.3273854894817134, -39.99999999999999289, -275.0002636468324795 ) ) ;
#409 = ADVANCED_FACE ( 'NONE', ( #337 ), #353, .F. ) ;
#410 = ORIENTED_EDGE ( 'NONE', *, *, #386, .T. ) ;
#411 = VECTOR ( 'NONE', #40, 1000.000000000000000 ) ;
#412 = PLANE ( 'NONE',  #969 ) ;
#413 = DIRECTION ( 'NONE',  ( 0.000000000000000000, -1.000000000000000000, 0.000000000000000000 ) ) ;
#414 = DIRECTION ( 'NONE',  ( -0.000000000000000000, -1.000000000000000000, 0.000000000000000000 ) ) ;
#415 = EDGE_CURVE ( 'NONE', #1009, #938, #1129, .T. ) ;
#416 = LINE ( 'NONE', #1072, #693 ) ;
#417 = DATE_AND_TIME ( #544, #375 ) ;
#418 = DIRECTION ( 'NONE',  ( 0.000000000000000000, -0.000000000000000000, 1.000000000000000000 ) ) ;
#419 = CARTESIAN_POINT ( 'NONE',  ( 238.3273854894817134, -39.99999999999999289, -155.0002636468324795 ) ) ;
#420 = VERTEX_POINT ( 'NONE', #810 ) ;
#421 = CARTESIAN_POINT ( 'NONE',  ( -0.07261451051832458481, -39.99999999999999289, -380.0002636468324226 ) ) ;
#422 = DIRECTION ( 'NONE',  ( 1.000000000000000000, 0.000000000000000000, 0.000000000000000000 ) ) ;
#423 = EDGE_CURVE ( 'NONE', #867, #279, #625, .T. ) ;
#424 = LINE ( 'NONE', #1188, #967 ) ;
#425 = CARTESIAN_POINT ( 'NONE',  ( 238.3273854894817134, 3.000000000000000000, -95.00026364683247948 ) ) ;
#426 = ORIENTED_EDGE ( 'NONE', *, *, #859, .F. ) ;
#427 = ORIENTED_EDGE ( 'NONE', *, *, #15, .F. ) ;
#428 = AXIS2_PLACEMENT_3D ( 'NONE', #760, #765, #1137 ) ;
#429 = VECTOR ( 'NONE', #861, 1000.000000000000000 ) ;
#430 = CARTESIAN_POINT ( 'NONE',  ( -0.07261451051828989034, 3.000000000000000000, 9.999736353167531178 ) ) ;
#431 = CC_DESIGN_PERSON_AND_ORGANIZATION_ASSIGNMENT ( #917, #1011, ( #1122 ) ) ;
#432 = DIRECTION ( 'NONE',  ( 0.000000000000000000, 1.000000000000000000, 0.000000000000000000 ) ) ;
#433 = VERTEX_POINT ( 'NONE', #259 ) ;
#434 = EDGE_LOOP ( 'NONE', ( #1186, #528, #1042, #438 ) ) ;
#435 =( NAMED_UNIT ( * ) PLANE_ANGLE_UNIT ( ) SI_UNIT ( $, .RADIAN. ) );
#436 = DIRECTION ( 'NONE',  ( -0.007261451051829059637, -0.000000000000000000, 0.9999736353167626435 ) ) ;
#437 = CARTESIAN_POINT ( 'NONE',  ( -0.07261451051832458481, -43.00000000000000000, -380.0002636468324226 ) ) ;
#438 = ORIENTED_EDGE ( 'NONE', *, *, #907, .T. ) ;
#439 = EDGE_CURVE ( 'NONE', #850, #93, #723, .T. ) ;
#440 = CARTESIAN_POINT ( 'NONE',  ( 238.3273854894817134, 0.000000000000000000, -275.0002636468324795 ) ) ;
#441 = COORDINATED_UNIVERSAL_TIME_OFFSET ( 3, 30, .AHEAD. ) ;
#442 = DIRECTION ( 'NONE',  ( -0.000000000000000000, -1.000000000000000000, -0.000000000000000000 ) ) ;
#443 = FACE_OUTER_BOUND ( 'NONE', #621, .T. ) ;
#444 = EDGE_LOOP ( 'NONE', ( #955, #300, #313, #54 ) ) ;
#445 = EDGE_CURVE ( 'NONE', #821, #1039, #540, .T. ) ;
#446 = CARTESIAN_POINT ( 'NONE',  ( 138.3273854894824240, 3.000000000000000000, -9.999736353167559599 ) ) ;
#447 = ORIENTED_EDGE ( 'NONE', *, *, #175, .F. ) ;
#448 = AXIS2_PLACEMENT_3D ( 'NONE', #632, #196, #949 ) ;
#449 = FACE_OUTER_BOUND ( 'NONE', #516, .T. ) ;
#450 = CARTESIAN_POINT ( 'NONE',  ( 0.07261451051828989034, -43.00000000000000000, -9.999736353167531178 ) ) ;
#451 = EDGE_CURVE ( 'NONE', #788, #1115, #638, .T. ) ;
#452 = CARTESIAN_POINT ( 'NONE',  ( 238.3273854894817134, -39.99999999999999289, -215.0002636468324511 ) ) ;
#453 = EDGE_CURVE ( 'NONE', #853, #936, #1087, .T. ) ;
#454 = ORIENTED_EDGE ( 'NONE', *, *, #1088, .T. ) ;
#455 = CARTESIAN_POINT ( 'NONE',  ( 238.3273854894816850, -43.00000000000000000, -90.00026364683253632 ) ) ;
#456 = CARTESIAN_POINT ( 'NONE',  ( 138.3273854894817134, -39.99999999999999289, 9.999736353167461900 ) ) ;
#457 = ORIENTED_EDGE ( 'NONE', *, *, #1218, .F. ) ;
#458 = VECTOR ( 'NONE', #172, 1000.000000000000000 ) ;
#459 = CARTESIAN_POINT ( 'NONE',  ( 138.3273854894817134, 0.000000000000000000, 9.999736353167476111 ) ) ;
#460 = CALENDAR_DATE ( 2026, 23, 7 ) ;
#461 = VECTOR ( 'NONE', #1096, 1000.000000000000000 ) ;
#462 = VERTEX_POINT ( 'NONE', #47 ) ;
#463 = CARTESIAN_POINT ( 'NONE',  ( 138.3273854894817134, -43.00000000000000000, 9.999736353167461900 ) ) ;
#464 = EDGE_CURVE ( 'NONE', #821, #420, #712, .T. ) ;
#465 = DIRECTION ( 'NONE',  ( -0.000000000000000000, -1.000000000000000000, -0.000000000000000000 ) ) ;
#466 = ORIENTED_EDGE ( 'NONE', *, *, #464, .T. ) ;
#467 = ORIENTED_EDGE ( 'NONE', *, *, #356, .T. ) ;
#468 = DIRECTION ( 'NONE',  ( 0.000000000000000000, -0.000000000000000000, 1.000000000000000000 ) ) ;
#469 = EDGE_CURVE ( 'NONE', #753, #1198, #1195, .T. ) ;
#470 = DIRECTION ( 'NONE',  ( -1.000000000000000000, 0.000000000000000000, -1.445602896647340100E-15 ) ) ;
#471 = VERTEX_POINT ( 'NONE', #147 ) ;
#472 = VECTOR ( 'NONE', #1008, 1000.000000000000000 ) ;
#473 = APPROVAL_ROLE ( '' ) ;
#474 = CLOSED_SHELL ( 'NONE', ( #289, #74, #550, #1165, #108, #517, #772, #510, #890, #675 ) ) ;
#475 = FACE_OUTER_BOUND ( 'NONE', #991, .T. ) ;
#476 = AXIS2_PLACEMENT_3D ( 'NONE', #774, #306, #35 ) ;
#477 = LINE ( 'NONE', #562, #841 ) ;
#478 = VERTEX_POINT ( 'NONE', #527 ) ;
#479 = ADVANCED_FACE ( 'NONE', ( #443 ), #52, .T. ) ;
#480 = EDGE_LOOP ( 'NONE', ( #20, #142, #815, #9 ) ) ;
#481 = CARTESIAN_POINT ( 'NONE',  ( 138.3273854894824240, -39.99999999999999289, -9.999736353167559599 ) ) ;
#482 = VECTOR ( 'NONE', #702, 1000.000000000000000 ) ;
#483 = FACE_OUTER_BOUND ( 'NONE', #71, .T. ) ;
#484 = ORIENTED_EDGE ( 'NONE', *, *, #698, .F. ) ;
#485 = ADVANCED_FACE ( 'NONE', ( #342 ), #1093, .F. ) ;
#486 = VERTEX_POINT ( 'NONE', #450 ) ;
#487 = LINE ( 'NONE', #868, #1184 ) ;
#488 = CARTESIAN_POINT ( 'NONE',  ( 218.3273854894824808, -39.99999999999999289, -95.00026364683250790 ) ) ;
#489 = ORIENTED_EDGE ( 'NONE', *, *, #616, .F. ) ;
#490 = DIRECTION ( 'NONE',  ( 1.000000000000000000, -0.000000000000000000, -0.000000000000000000 ) ) ;
#491 = VECTOR ( 'NONE', #1174, 1000.000000000000000 ) ;
#492 = VECTOR ( 'NONE', #658, 1000.000000000000114 ) ;
#493 = ORIENTED_EDGE ( 'NONE', *, *, #523, .T. ) ;
#494 = CARTESIAN_POINT ( 'NONE',  ( 238.3273854894817134, 0.000000000000000000, -155.0002636468324795 ) ) ;
#495 = EDGE_CURVE ( 'NONE', #420, #433, #827, .T. ) ;
#496 = CARTESIAN_POINT ( 'NONE',  ( 218.3273854894824524, -43.00000000000000000, -215.0002636468324511 ) ) ;
#497 = LINE ( 'NONE', #42, #198 ) ;
#498 = ORIENTED_EDGE ( 'NONE', *, *, #114, .T. ) ;
#499 = DIRECTION ( 'NONE',  ( -1.000000000000000000, 0.000000000000000000, -1.451090930900692301E-15 ) ) ;
#500 = LINE ( 'NONE', #961, #491 ) ;
#501 = ADVANCED_FACE ( 'NONE', ( #347 ), #253, .F. ) ;
#502 = DIRECTION ( 'NONE',  ( -0.000000000000000000, -1.000000000000000000, -0.000000000000000000 ) ) ;
#503 = ORIENTED_EDGE ( 'NONE', *, *, #121, .T. ) ;
#504 = LINE ( 'NONE', #32, #429 ) ;
#505 = AXIS2_PLACEMENT_3D ( 'NONE', #700, #706, #234 ) ;
#506 = PLANE ( 'NONE',  #668 ) ;
#507 = EDGE_CURVE ( 'NONE', #640, #987, #1143, .T. ) ;
#508 = PLANE ( 'NONE',  #674 ) ;
#509 = VERTEX_POINT ( 'NONE', #659 ) ;
#510 = ADVANCED_FACE ( 'NONE', ( #483 ), #664, .F. ) ;
#511 = VECTOR ( 'NONE', #346, 1000.000000000000000 ) ;
#512 = LINE ( 'NONE', #440, #995 ) ;
#513 = CARTESIAN_POINT ( 'NONE',  ( 238.3273854894817134, -39.99999999999999289, -95.00026364683247948 ) ) ;
#514 = DIRECTION ( 'NONE',  ( 1.000000000000000000, -0.000000000000000000, 1.734723475976807403E-17 ) ) ;
#515 = LINE ( 'NONE', #1151, #1177 ) ;
#516 = EDGE_LOOP ( 'NONE', ( #595, #1130, #76, #1220 ) ) ;
#517 = ADVANCED_FACE ( 'NONE', ( #750 ), #190, .F. ) ;
#518 = ORIENTED_EDGE ( 'NONE', *, *, #951, .T. ) ;
#519 = VECTOR ( 'NONE', #221, 1000.000000000000000 ) ;
#520 = PLANE ( 'NONE',  #881 ) ;
#521 = DIRECTION ( 'NONE',  ( 0.9999736353167627545, -0.000000000000000000, 0.007261451051829060505 ) ) ;
#522 = EDGE_LOOP ( 'NONE', ( #1118, #298, #291, #31 ) ) ;
#523 = EDGE_CURVE ( 'NONE', #921, #845, #654, .T. ) ;
#524 = LINE ( 'NONE', #138, #482 ) ;
#525 = APPROVAL_DATE_TIME ( #635, #948 ) ;
#526 = DIRECTION ( 'NONE',  ( 0.000000000000000000, 0.000000000000000000, -1.000000000000000000 ) ) ;
#527 = CARTESIAN_POINT ( 'NONE',  ( 138.3273854894816566, 0.000000000000000000, -380.0002636468323658 ) ) ;
#528 = ORIENTED_EDGE ( 'NONE', *, *, #573, .F. ) ;
#529 = PLANE ( 'NONE',  #204 ) ;
#530 = SECURITY_CLASSIFICATION_LEVEL ( 'unclassified' ) ;
#531 = AXIS2_PLACEMENT_3D ( 'NONE', #389, #676, #91 ) ;
#532 = CC_DESIGN_SECURITY_CLASSIFICATION ( #902, ( #1122 ) ) ;
#533 = CARTESIAN_POINT ( 'NONE',  ( 138.3273854894816566, -39.99999999999999289, -380.0002636468323658 ) ) ;
#534 = EDGE_CURVE ( 'NONE', #950, #1009, #202, .T. ) ;
#535 = LINE ( 'NONE', #619, #301 ) ;
#536 = VERTEX_POINT ( 'NONE', #456 ) ;
#537 = DIRECTION ( 'NONE',  ( 0.000000000000000000, 0.000000000000000000, -1.000000000000000000 ) ) ;
#538 = CARTESIAN_POINT ( 'NONE',  ( 218.3273854894824524, -39.99999999999999289, -215.0002636468324511 ) ) ;
#539 = EDGE_CURVE ( 'NONE', #462, #1039, #1047, .T. ) ;
#540 = LINE ( 'NONE', #166, #1061 ) ;
#541 = ORIENTED_EDGE ( 'NONE', *, *, #1081, .T. ) ;
#542 = VECTOR ( 'NONE', #920, 1000.000000000000000 ) ;
#543 = LINE ( 'NONE', #1102, #341 ) ;
#544 = CALENDAR_DATE ( 2026, 23, 7 ) ;
#545 = ORIENTED_EDGE ( 'NONE', *, *, #1156, .F. ) ;
#546 = CARTESIAN_POINT ( 'NONE',  ( 218.3273854894824524, 3.000000000000000000, -280.0007909404973248 ) ) ;
#547 = DIRECTION ( 'NONE',  ( 5.551115123125856066E-15, -0.000000000000000000, -1.000000000000000000 ) ) ;
#548 = ORIENTED_EDGE ( 'NONE', *, *, #100, .F. ) ;
#549 = EDGE_CURVE ( 'NONE', #197, #39, #6, .T. ) ;
#550 = ADVANCED_FACE ( 'NONE', ( #1028 ), #572, .T. ) ;
#551 = CARTESIAN_POINT ( 'NONE',  ( 218.3273854894824524, -39.99999999999999289, -280.0007909404973248 ) ) ;
#552 = VERTEX_POINT ( 'NONE', #11 ) ;
#553 = CIRCLE ( 'NONE', #293, 79.99999999999998579 ) ;
#554 = CARTESIAN_POINT ( 'NONE',  ( 238.3273854894817134, -43.00000000000000000, -215.0002636468324511 ) ) ;
#555 = CARTESIAN_POINT ( 'NONE',  ( 238.3273854894817134, 3.000000000000000000, -155.0002636468324795 ) ) ;
#556 = ORIENTED_EDGE ( 'NONE', *, *, #100, .T. ) ;
#557 = PRODUCT_DEFINITION_SHAPE ( 'NONE', 'NONE',  #690 ) ;
#558 = DIRECTION ( 'NONE',  ( -0.000000000000000000, -1.000000000000000000, -0.000000000000000000 ) ) ;
#559 = EDGE_CURVE ( 'NONE', #895, #588, #271, .T. ) ;
#560 = EDGE_LOOP ( 'NONE', ( #1033, #1029, #1144, #584 ) ) ;
#561 = DIRECTION ( 'NONE',  ( -0.000000000000000000, -1.000000000000000000, -0.000000000000000000 ) ) ;
#562 = CARTESIAN_POINT ( 'NONE',  ( 218.3273854894824524, -39.99999999999999289, -215.0002636468324511 ) ) ;
#563 = EDGE_LOOP ( 'NONE', ( #1068, #773, #864, #518 ) ) ;
#564 = VECTOR ( 'NONE', #547, 1000.000000000000000 ) ;
#565 = CARTESIAN_POINT ( 'NONE',  ( 238.3273854894817134, 3.000000000000000000, -155.0002636468324795 ) ) ;
#566 = VERTEX_POINT ( 'NONE', #105 ) ;
#567 = LINE ( 'NONE', #939, #1229 ) ;
#568 = DIRECTION ( 'NONE',  ( -1.000000000000000000, -0.000000000000000000, -0.000000000000000000 ) ) ;
#569 = EDGE_LOOP ( 'NONE', ( #177, #489, #980, #1062 ) ) ;
#570 = ORIENTED_EDGE ( 'NONE', *, *, #265, .T. ) ;
#571 = DIRECTION ( 'NONE',  ( 1.000000000000000000, -0.000000000000000000, -0.000000000000000000 ) ) ;
#572 = CYLINDRICAL_SURFACE ( 'NONE', #174, 100.0000000000000000 ) ;
#573 = EDGE_CURVE ( 'NONE', #294, #1146, #278, .T. ) ;
#574 = ORIENTED_EDGE ( 'NONE', *, *, #445, .T. ) ;
#575 = VECTOR ( 'NONE', #1012, 1000.000000000000000 ) ;
#576 = ORIENTED_EDGE ( 'NONE', *, *, #82, .F. ) ;
#577 = PLANE ( 'NONE',  #865 ) ;
#578 = CARTESIAN_POINT ( 'NONE',  ( 138.3273854894817134, 3.000000000000000000, -90.00026364683252211 ) ) ;
#579 = EDGE_LOOP ( 'NONE', ( #207, #96, #650, #223, #282, #756, #55, #732 ) ) ;
#580 = EDGE_CURVE ( 'NONE', #909, #640, #477, .T. ) ;
#581 = ORIENTED_EDGE ( 'NONE', *, *, #59, .F. ) ;
#582 = DIRECTION ( 'NONE',  ( 1.000000000000000000, 0.000000000000000000, -0.000000000000000000 ) ) ;
#583 = CARTESIAN_POINT ( 'NONE',  ( 138.3273854894817134, -39.99999999999999289, -280.0002636468323658 ) ) ;
#584 = ORIENTED_EDGE ( 'NONE', *, *, #495, .T. ) ;
#585 = DIRECTION ( 'NONE',  ( -0.000000000000000000, -1.000000000000000000, -0.000000000000000000 ) ) ;
#586 = EDGE_CURVE ( 'NONE', #921, #987, #935, .T. ) ;
#587 = ADVANCED_FACE ( 'NONE', ( #78 ), #855, .T. ) ;
#588 = VERTEX_POINT ( 'NONE', #366 ) ;
#589 = LINE ( 'NONE', #972, #1046 ) ;
#590 = FACE_OUTER_BOUND ( 'NONE', #180, .T. ) ;
#591 = FACE_OUTER_BOUND ( 'NONE', #203, .T. ) ;
#592 = AXIS2_PLACEMENT_3D ( 'NONE', #246, #154, #820 ) ;
#593 = APPROVAL_PERSON_ORGANIZATION ( #1103, #948, #244 ) ;
#594 = EDGE_CURVE ( 'NONE', #746, #566, #844, .T. ) ;
#595 = ORIENTED_EDGE ( 'NONE', *, *, #1048, .T. ) ;
#596 = DIRECTION ( 'NONE',  ( -0.007261451051829059637, -0.000000000000000000, 0.9999736353167626435 ) ) ;
#597 = DIRECTION ( 'NONE',  ( 0.000000000000000000, 0.000000000000000000, -1.000000000000000000 ) ) ;
#598 = DIRECTION ( 'NONE',  ( -0.000000000000000000, -1.000000000000000000, -0.000000000000000000 ) ) ;
#599 = ORIENTED_EDGE ( 'NONE', *, *, #121, .F. ) ;
#600 = DIRECTION ( 'NONE',  ( -1.000000000000000000, 0.000000000000000000, -1.387778780781496754E-15 ) ) ;
#601 = APPROVAL ( #943, 'UNSPECIFIED' ) ;
#602 = CARTESIAN_POINT ( 'NONE',  ( -0.07261451051832458481, 0.000000000000000000, -380.0002636468324226 ) ) ;
#603 = CARTESIAN_POINT ( 'NONE',  ( -0.07261451051832458481, -39.99999999999999289, -380.0002636468324226 ) ) ;
#604 = ORIENTED_EDGE ( 'NONE', *, *, #233, .T. ) ;
#605 = LINE ( 'NONE', #981, #884 ) ;
#606 = CARTESIAN_POINT ( 'NONE',  ( 0.07261451051828989034, 3.000000000000000000, -9.999736353167531178 ) ) ;
#607 = EDGE_CURVE ( 'NONE', #279, #889, #252, .T. ) ;
#608 = LINE ( 'NONE', #876, #102 ) ;
#609 = ORIENTED_EDGE ( 'NONE', *, *, #607, .T. ) ;
#610 = AXIS2_PLACEMENT_3D ( 'NONE', #583, #216, #870 ) ;
#611 = DIRECTION ( 'NONE',  ( -0.000000000000000000, -1.000000000000000000, 0.000000000000000000 ) ) ;
#612 = PERSON_AND_ORGANIZATION ( #713, #727 ) ;
#613 = CARTESIAN_POINT ( 'NONE',  ( -0.07261451051832458481, -43.00000000000000000, -380.0002636468324226 ) ) ;
#614 = DIRECTION ( 'NONE',  ( 0.000000000000000000, 0.000000000000000000, -1.000000000000000000 ) ) ;
#615 = ORIENTED_EDGE ( 'NONE', *, *, #616, .T. ) ;
#616 = EDGE_CURVE ( 'NONE', #200, #462, #755, .T. ) ;
#617 = CARTESIAN_POINT ( 'NONE',  ( 0.07261451051828989034, 0.000000000000000000, -9.999736353167531178 ) ) ;
#618 = FACE_OUTER_BOUND ( 'NONE', #1140, .T. ) ;
#619 = CARTESIAN_POINT ( 'NONE',  ( 238.3273854894817134, -43.00000000000000000, -95.00026364683247948 ) ) ;
#620 = VERTEX_POINT ( 'NONE', #849 ) ;
#621 = EDGE_LOOP ( 'NONE', ( #647, #657, #357, #959, #609, #679, #79, #99 ) ) ;
#622 = COORDINATED_UNIVERSAL_TIME_OFFSET ( 3, 30, .AHEAD. ) ;
#623 = PLANE ( 'NONE',  #192 ) ;
#624 = CIRCLE ( 'NONE', #505, 79.99999999999998579 ) ;
#625 = LINE ( 'NONE', #266, #236 ) ;
#626 = FACE_OUTER_BOUND ( 'NONE', #758, .T. ) ;
#627 = DIRECTION ( 'NONE',  ( -1.000000000000000000, -0.000000000000000000, -0.000000000000000000 ) ) ;
#628 = VECTOR ( 'NONE', #1035, 1000.000000000000000 ) ;
#629 = EDGE_CURVE ( 'NONE', #895, #1078, #117, .T. ) ;
#630 = VECTOR ( 'NONE', #663, 1000.000000000000000 ) ;
#631 = CARTESIAN_POINT ( 'NONE',  ( 218.3273854894824524, -39.99999999999999289, -155.0002636468325079 ) ) ;
#632 = CARTESIAN_POINT ( 'NONE',  ( 238.3273854894817134, 3.000000000000000000, -215.0002636468324511 ) ) ;
#633 = VERTEX_POINT ( 'NONE', #23 ) ;
#634 = CARTESIAN_POINT ( 'NONE',  ( 99.92738548948166510, 0.000000000000000000, -380.0002636468324226 ) ) ;
#635 = DATE_AND_TIME ( #1085, #708 ) ;
#636 = CARTESIAN_POINT ( 'NONE',  ( 138.3273854894824240, -43.00000000000000000, -89.99973635316756315 ) ) ;
#637 = EDGE_CURVE ( 'NONE', #509, #200, #403, .T. ) ;
#638 = LINE ( 'NONE', #914, #542 ) ;
#639 = EDGE_CURVE ( 'NONE', #845, #1135, #777, .T. ) ;
#640 = VERTEX_POINT ( 'NONE', #496 ) ;
#641 = UNCERTAINTY_MEASURE_WITH_UNIT (LENGTH_MEASURE( 1.000000000000000082E-05 ), #988, 'distance_accuracy_value', 'NONE');
#642 = AXIS2_PLACEMENT_3D ( 'NONE', #176, #768, #1145 ) ;
#643 = DATE_AND_TIME ( #460, #314 ) ;
#644 = ORIENTED_EDGE ( 'NONE', *, *, #1173, .F. ) ;
#645 = LINE ( 'NONE', #481, #630 ) ;
#646 = DIRECTION ( 'NONE',  ( -0.000000000000000000, -1.000000000000000000, -0.000000000000000000 ) ) ;
#647 = ORIENTED_EDGE ( 'NONE', *, *, #956, .T. ) ;
#648 = EDGE_CURVE ( 'NONE', #867, #269, #699, .T. ) ;
#649 = LINE ( 'NONE', #13, #1190 ) ;
#650 = ORIENTED_EDGE ( 'NONE', *, *, #964, .F. ) ;
#651 = VECTOR ( 'NONE', #1126, 1000.000000000000000 ) ;
#652 = CARTESIAN_POINT ( 'NONE',  ( -0.07261451051832458481, -39.99999999999999289, -380.0002636468324226 ) ) ;
#653 = AXIS2_PLACEMENT_3D ( 'NONE', #1052, #1147, #697 ) ;
#654 = LINE ( 'NONE', #290, #671 ) ;
#655 = CC_DESIGN_PERSON_AND_ORGANIZATION_ASSIGNMENT ( #332, #350, ( #690 ) ) ;
#656 = CARTESIAN_POINT ( 'NONE',  ( 138.3273854894816566, -39.99999999999999289, -380.0002636468323658 ) ) ;
#657 = ORIENTED_EDGE ( 'NONE', *, *, #594, .T. ) ;
#658 = DIRECTION ( 'NONE',  ( 0.007261451051829231375, 0.000000000000000000, 0.9999736353167626435 ) ) ;
#659 = CARTESIAN_POINT ( 'NONE',  ( 238.3273854894816850, -39.99999999999999289, -90.00026364683253632 ) ) ;
#660 = VERTEX_POINT ( 'NONE', #606 ) ;
#661 = EDGE_CURVE ( 'NONE', #845, #381, #352, .T. ) ;
#662 = ORIENTED_EDGE ( 'NONE', *, *, #1013, .F. ) ;
#663 = DIRECTION ( 'NONE',  ( -0.000000000000000000, -1.000000000000000000, -0.000000000000000000 ) ) ;
#664 = PLANE ( 'NONE',  #1182 ) ;
#665 = ORIENTED_EDGE ( 'NONE', *, *, #1104, .T. ) ;
#666 = ORIENTED_EDGE ( 'NONE', *, *, #242, .T. ) ;
#667 = DIRECTION ( 'NONE',  ( 0.9999736353167627545, 0.000000000000000000, -0.007261451051829232242 ) ) ;
#668 = AXIS2_PLACEMENT_3D ( 'NONE', #796, #41, #418 ) ;
#669 = CARTESIAN_POINT ( 'NONE',  ( 0.07261451051828989034, 0.000000000000000000, -9.999736353167531178 ) ) ;
#670 = EDGE_LOOP ( 'NONE', ( #840, #769, #187, #167 ) ) ;
#671 = VECTOR ( 'NONE', #296, 1000.000000000000000 ) ;
#672 = VERTEX_POINT ( 'NONE', #982 ) ;
#673 = CARTESIAN_POINT ( 'NONE',  ( 138.3273854894817134, -43.00000000000000000, -280.0002636468323658 ) ) ;
#674 = AXIS2_PLACEMENT_3D ( 'NONE', #880, #521, #30 ) ;
#675 = ADVANCED_FACE ( 'NONE', ( #1154 ), #790, .T. ) ;
#676 = DIRECTION ( 'NONE',  ( -0.000000000000000000, -1.000000000000000000, -0.000000000000000000 ) ) ;
#677 = ORIENTED_EDGE ( 'NONE', *, *, #1148, .T. ) ;
#678 = CARTESIAN_POINT ( 'NONE',  ( 218.3273854894824524, 3.000000000000000000, -155.0002636468325079 ) ) ;
#679 = ORIENTED_EDGE ( 'NONE', *, *, #15, .T. ) ;
#680 = DIRECTION ( 'NONE',  ( 0.000000000000000000, 0.000000000000000000, 1.000000000000000000 ) ) ;
#681 = LINE ( 'NONE', #973, #1044 ) ;
#682 = DIRECTION ( 'NONE',  ( 0.000000000000000000, 0.000000000000000000, -1.000000000000000000 ) ) ;
#683 = ADVANCED_FACE ( 'NONE', ( #309 ), #133, .F. ) ;
#684 = ORIENTED_EDGE ( 'NONE', *, *, #59, .T. ) ;
#685 = CARTESIAN_POINT ( 'NONE',  ( 238.3273854894816850, -43.00000000000000000, -280.0002636468323658 ) ) ;
#686 = CARTESIAN_POINT ( 'NONE',  ( 138.3273854894824240, -39.99999999999999289, -89.99973635316756315 ) ) ;
#687 = DIRECTION ( 'NONE',  ( -0.000000000000000000, -1.000000000000000000, -0.000000000000000000 ) ) ;
#688 = VECTOR ( 'NONE', #57, 1000.000000000000000 ) ;
#689 = AXIS2_PLACEMENT_3D ( 'NONE', #90, #468, #582 ) ;
#690 = PRODUCT_DEFINITION ( 'UNKNOWN', '', #1122, #1212 ) ;
#691 = VERTEX_POINT ( 'NONE', #887 ) ;
#692 = CARTESIAN_POINT ( 'NONE',  ( 238.3273854894817134, -39.99999999999999289, -155.0002636468324795 ) ) ;
#693 = VECTOR ( 'NONE', #721, 1000.000000000000000 ) ;
#694 = CARTESIAN_POINT ( 'NONE',  ( 218.3273854894824524, -43.00000000000000000, -280.0007909404973248 ) ) ;
#695 = DIRECTION ( 'NONE',  ( -1.387778780781496557E-15, 0.000000000000000000, 1.000000000000000000 ) ) ;
#696 = ORIENTED_EDGE ( 'NONE', *, *, #66, .T. ) ;
#697 = DIRECTION ( 'NONE',  ( 0.000000000000000000, 0.000000000000000000, 1.000000000000000000 ) ) ;
#698 = EDGE_CURVE ( 'NONE', #536, #509, #1003, .T. ) ;
#699 = LINE ( 'NONE', #220, #33 ) ;
#700 = CARTESIAN_POINT ( 'NONE',  ( 138.3273854894824240, 0.000000000000000000, -280.0007909404973248 ) ) ;
#701 = EDGE_LOOP ( 'NONE', ( #43, #1002, #484, #1150 ) ) ;
#702 = DIRECTION ( 'NONE',  ( -1.000000000000000000, 0.000000000000000000, 0.000000000000000000 ) ) ;
#703 = PERSON_AND_ORGANIZATION ( #713, #727 ) ;
#704 = VECTOR ( 'NONE', #598, 1000.000000000000000 ) ;
#705 = CARTESIAN_POINT ( 'NONE',  ( 99.92738548948169353, 3.000000000000000000, 9.999736353167531178 ) ) ;
#706 = DIRECTION ( 'NONE',  ( -0.000000000000000000, -1.000000000000000000, -0.000000000000000000 ) ) ;
#707 = AXIS2_PLACEMENT_3D ( 'NONE', #893, #813, #526 ) ;
#708 = LOCAL_TIME ( 16, 5, 9.000000000000000000, #622 ) ;
#709 = CARTESIAN_POINT ( 'NONE',  ( 138.3273854894824240, 0.000000000000000000, -89.99973635316756315 ) ) ;
#710 = APPLICATION_PROTOCOL_DEFINITION ( 'international standard', 'config_control_design', 1994, #199 ) ;
#711 = CARTESIAN_POINT ( 'NONE',  ( 138.3273854894824240, 3.000000000000000000, -9.999736353167559599 ) ) ;
#712 = LINE ( 'NONE', #1001, #472 ) ;
#713 = PERSON ( 'UNSPECIFIED', 'UNSPECIFIED', 'UNSPECIFIED', ('UNSPECIFIED'), ('UNSPECIFIED'), ('UNSPECIFIED') ) ;
#714 = VECTOR ( 'NONE', #490, 1000.000000000000000 ) ;
#715 = VERTEX_POINT ( 'NONE', #602 ) ;
#716 = PERSON_AND_ORGANIZATION ( #713, #727 ) ;
#717 = LINE ( 'NONE', #899, #511 ) ;
#718 = DIRECTION ( 'NONE',  ( 0.000000000000000000, 0.000000000000000000, -1.000000000000000000 ) ) ;
#719 = EDGE_LOOP ( 'NONE', ( #1123, #1169, #860, #213, #965, #466, #1109, #541 ) ) ;
#720 = ADVANCED_FACE ( 'NONE', ( #1080 ), #506, .T. ) ;
#721 = DIRECTION ( 'NONE',  ( -0.000000000000000000, -1.000000000000000000, -0.000000000000000000 ) ) ;
#722 = DIRECTION ( 'NONE',  ( 0.000000000000000000, 0.000000000000000000, -1.000000000000000000 ) ) ;
#723 = LINE ( 'NONE', #555, #1019 ) ;
#724 = ORIENTED_EDGE ( 'NONE', *, *, #661, .T. ) ;
#725 = PRODUCT_RELATED_PRODUCT_CATEGORY ( 'detail', '', ( #729 ) ) ;
#726 = DATE_AND_TIME ( #1199, #254 ) ;
#727 = ORGANIZATION ( 'UNSPECIFIED', 'UNSPECIFIED', '' ) ;
#728 = DIRECTION ( 'NONE',  ( 0.000000000000000000, 0.000000000000000000, -1.000000000000000000 ) ) ;
#729 = PRODUCT ( 'Link3StellConnectors_Default_sldprt', 'Link3StellConnectors_Default_sldprt', '', ( #157 ) ) ;
#730 = DIRECTION ( 'NONE',  ( -1.000000000000000000, 0.000000000000000000, -1.387778780781496754E-15 ) ) ;
#731 = AXIS2_PLACEMENT_3D ( 'NONE', #130, #156, #349 ) ;
#732 = ORIENTED_EDGE ( 'NONE', *, *, #137, .F. ) ;
#733 = ORIENTED_EDGE ( 'NONE', *, *, #742, .T. ) ;
#734 = FACE_OUTER_BOUND ( 'NONE', #1208, .T. ) ;
#735 = EDGE_CURVE ( 'NONE', #850, #1026, #681, .T. ) ;
#736 = DIRECTION ( 'NONE',  ( 1.000000000000000000, -0.000000000000000000, 1.451090930900692498E-15 ) ) ;
#737 = ORIENTED_EDGE ( 'NONE', *, *, #1181, .F. ) ;
#738 = VECTOR ( 'NONE', #999, 1000.000000000000227 ) ;
#739 = CARTESIAN_POINT ( 'NONE',  ( 0.07261451051828989034, 3.000000000000000000, -9.999736353167531178 ) ) ;
#740 = ORIENTED_EDGE ( 'NONE', *, *, #964, .T. ) ;
#741 = FACE_OUTER_BOUND ( 'NONE', #560, .T. ) ;
#742 = EDGE_CURVE ( 'NONE', #987, #1135, #500, .T. ) ;
#743 = CARTESIAN_POINT ( 'NONE',  ( 138.3273854894824240, 3.000000000000000000, -280.0007909404973248 ) ) ;
#744 = ORIENTED_EDGE ( 'NONE', *, *, #809, .T. ) ;
#745 = CARTESIAN_POINT ( 'NONE',  ( 238.3273854894817134, 3.000000000000000000, -275.0002636468324795 ) ) ;
#746 = VERTEX_POINT ( 'NONE', #874 ) ;
#747 = AXIS2_PLACEMENT_3D ( 'NONE', #335, #1194, #63 ) ;
#748 = DIRECTION ( 'NONE',  ( 1.000000000000000000, 0.000000000000000000, -0.000000000000000000 ) ) ;
#749 = AXIS2_PLACEMENT_3D ( 'NONE', #854, #84, #188 ) ;
#750 = FACE_OUTER_BOUND ( 'NONE', #26, .T. ) ;
#751 = ORIENTED_EDGE ( 'NONE', *, *, #851, .F. ) ;
#752 = ADVANCED_FACE ( 'NONE', ( #590 ), #328, .F. ) ;
#753 = VERTEX_POINT ( 'NONE', #863 ) ;
#754 = FACE_OUTER_BOUND ( 'NONE', #1133, .T. ) ;
#755 = LINE ( 'NONE', #1132, #1204 ) ;
#756 = ORIENTED_EDGE ( 'NONE', *, *, #793, .F. ) ;
#757 = EDGE_CURVE ( 'NONE', #1135, #161, #805, .T. ) ;
#758 = EDGE_LOOP ( 'NONE', ( #666, #545, #944, #498 ) ) ;
#759 = CYLINDRICAL_SURFACE ( 'NONE', #14, 99.99999999999997158 ) ;
#760 = CARTESIAN_POINT ( 'NONE',  ( 218.3273854894824808, 3.000000000000000000, -95.00026364683250790 ) ) ;
#761 = VERTEX_POINT ( 'NONE', #694 ) ;
#762 = ORIENTED_EDGE ( 'NONE', *, *, #1207, .F. ) ;
#763 = DIRECTION ( 'NONE',  ( 5.550529771288670484E-15, -0.000000000000000000, 1.000000000000000000 ) ) ;
#764 = VECTOR ( 'NONE', #384, 1000.000000000000000 ) ;
#765 = DIRECTION ( 'NONE',  ( 1.000000000000000000, -0.000000000000000000, 5.550529771288700461E-15 ) ) ;
#766 = ORIENTED_EDGE ( 'NONE', *, *, #757, .T. ) ;
#767 = AXIS2_PLACEMENT_3D ( 'NONE', #892, #818, #422 ) ;
#768 = DIRECTION ( 'NONE',  ( -0.000000000000000000, -1.000000000000000000, 0.000000000000000000 ) ) ;
#769 = ORIENTED_EDGE ( 'NONE', *, *, #951, .F. ) ;
#770 = CARTESIAN_POINT ( 'NONE',  ( 238.3273854894816850, 0.000000000000000000, -90.00026364683253632 ) ) ;
#771 = CARTESIAN_POINT ( 'NONE',  ( 138.3273854894817134, -43.00000000000000000, -280.0002636468323658 ) ) ;
#772 = ADVANCED_FACE ( 'NONE', ( #303 ), #783, .F. ) ;
#773 = ORIENTED_EDGE ( 'NONE', *, *, #356, .F. ) ;
#774 = CARTESIAN_POINT ( 'NONE',  ( -0.07261451051828989034, 3.000000000000000000, 9.999736353167531178 ) ) ;
#775 = ORIENTED_EDGE ( 'NONE', *, *, #629, .T. ) ;
#776 = LINE ( 'NONE', #116, #193 ) ;
#777 = LINE ( 'NONE', #18, #1120 ) ;
#778 = EDGE_CURVE ( 'NONE', #255, #853, #126, .T. ) ;
#779 = CARTESIAN_POINT ( 'NONE',  ( 99.92738548948169353, -39.99999999999999289, 9.999736353167531178 ) ) ;
#780 = AXIS2_PLACEMENT_3D ( 'NONE', #963, #866, #614 ) ;
#781 = EDGE_LOOP ( 'NONE', ( #804, #119, #48, #1049 ) ) ;
#782 = LINE ( 'NONE', #878, #985 ) ;
#783 = CYLINDRICAL_SURFACE ( 'NONE', #113, 80.00000000000000000 ) ;
#784 = FACE_OUTER_BOUND ( 'NONE', #276, .T. ) ;
#785 = VECTOR ( 'NONE', #1167, 1000.000000000000000 ) ;
#786 = VECTOR ( 'NONE', #627, 1000.000000000000000 ) ;
#787 = ADVANCED_FACE ( 'NONE', ( #734 ), #520, .T. ) ;
#788 = VERTEX_POINT ( 'NONE', #140 ) ;
#789 = DIRECTION ( 'NONE',  ( 1.000000000000000000, -0.000000000000000000, 4.625929269271489858E-16 ) ) ;
#790 = PLANE ( 'NONE',  #1228 ) ;
#791 = DIRECTION ( 'NONE',  ( 1.000000000000000000, 0.000000000000000000, 1.387778780781496557E-15 ) ) ;
#792 = ORIENTED_EDGE ( 'NONE', *, *, #883, .T. ) ;
#793 = EDGE_CURVE ( 'NONE', #269, #109, #1000, .T. ) ;
#794 = DIRECTION ( 'NONE',  ( 0.000000000000000000, 0.000000000000000000, -1.000000000000000000 ) ) ;
#795 = APPROVAL_ROLE ( '' ) ;
#796 = CARTESIAN_POINT ( 'NONE',  ( 138.3273854894817134, -39.99999999999999289, -280.0002636468323658 ) ) ;
#797 = AXIS2_PLACEMENT_3D ( 'NONE', #421, #799, #1178 ) ;
#798 = DIRECTION ( 'NONE',  ( 1.000000000000000000, -0.000000000000000000, 1.734723475976807403E-17 ) ) ;
#799 = DIRECTION ( 'NONE',  ( 0.9999736353167627545, 0.000000000000000000, -0.007261451051829232242 ) ) ;
#800 = APPROVAL_STATUS ( 'not_yet_approved' ) ;
#801 = ADVANCED_FACE ( 'NONE', ( #449 ), #251, .F. ) ;
#802 = CARTESIAN_POINT ( 'NONE',  ( 238.3273854894817134, -39.99999999999999289, -215.0002636468324511 ) ) ;
#803 = CARTESIAN_POINT ( 'NONE',  ( 138.3273854894816566, -39.99999999999999289, -380.0002636468323658 ) ) ;
#804 = ORIENTED_EDGE ( 'NONE', *, *, #940, .T. ) ;
#805 = CIRCLE ( 'NONE', #231, 99.99999999999997158 ) ;
#806 = LOCAL_TIME ( 16, 5, 9.000000000000000000, #1172 ) ;
#807 = DIRECTION ( 'NONE',  ( -1.000000000000000000, 0.000000000000000000, 1.445602896647339114E-15 ) ) ;
#808 = FACE_OUTER_BOUND ( 'NONE', #579, .T. ) ;
#809 = EDGE_CURVE ( 'NONE', #93, #1152, #1209, .T. ) ;
#810 = CARTESIAN_POINT ( 'NONE',  ( 218.3273854894824524, -39.99999999999999289, -89.99973635316759157 ) ) ;
#811 = AXIS2_PLACEMENT_3D ( 'NONE', #359, #1112, #64 ) ;
#812 = ORIENTED_EDGE ( 'NONE', *, *, #344, .F. ) ;
#813 = DIRECTION ( 'NONE',  ( -0.000000000000000000, -1.000000000000000000, -0.000000000000000000 ) ) ;
#814 = DIRECTION ( 'NONE',  ( -0.000000000000000000, -1.000000000000000000, -0.000000000000000000 ) ) ;
#815 = ORIENTED_EDGE ( 'NONE', *, *, #66, .F. ) ;
#816 = EDGE_CURVE ( 'NONE', #486, #950, #424, .T. ) ;
#817 = VERTEX_POINT ( 'NONE', #826 ) ;
#818 = DIRECTION ( 'NONE',  ( 0.000000000000000000, 0.000000000000000000, 1.000000000000000000 ) ) ;
#819 = CARTESIAN_POINT ( 'NONE',  ( 218.3273854894824524, 3.000000000000000000, -155.0002636468325079 ) ) ;
#820 = DIRECTION ( 'NONE',  ( 1.000000000000000000, 0.000000000000000000, -0.000000000000000000 ) ) ;
#821 = VERTEX_POINT ( 'NONE', #631 ) ;
#822 = VECTOR ( 'NONE', #316, 1000.000000000000000 ) ;
#823 = CARTESIAN_POINT ( 'NONE',  ( 138.3273854894823955, 3.000000000000000000, -360.0007909404973248 ) ) ;
#824 =( GEOMETRIC_REPRESENTATION_CONTEXT ( 3 ) GLOBAL_UNCERTAINTY_ASSIGNED_CONTEXT ( ( #641 ) ) GLOBAL_UNIT_ASSIGNED_CONTEXT ( ( #988, #435, #139 ) ) REPRESENTATION_CONTEXT ( 'NONE', 'WORKASPACE' ) );
#825 = EDGE_LOOP ( 'NONE', ( #1157, #834, #1015, #112 ) ) ;
#826 = CARTESIAN_POINT ( 'NONE',  ( 138.3273854894824240, 3.000000000000000000, -9.999736353167559599 ) ) ;
#827 = LINE ( 'NONE', #908, #132 ) ;
#828 = ORIENTED_EDGE ( 'NONE', *, *, #143, .T. ) ;
#829 = DIRECTION ( 'NONE',  ( -0.000000000000000000, -1.000000000000000000, -0.000000000000000000 ) ) ;
#830 = ADVANCED_FACE ( 'NONE', ( #232 ), #50, .F. ) ;
#831 = ORIENTED_EDGE ( 'NONE', *, *, #233, .F. ) ;
#832 = PLANE ( 'NONE',  #689 ) ;
#833 = CARTESIAN_POINT ( 'NONE',  ( 238.3273854894817134, -43.00000000000000000, -155.0002636468324795 ) ) ;
#834 = ORIENTED_EDGE ( 'NONE', *, *, #559, .F. ) ;
#835 = LINE ( 'NONE', #452, #714 ) ;
#836 = ORIENTED_EDGE ( 'NONE', *, *, #453, .T. ) ;
#837 = DIRECTION ( 'NONE',  ( -0.000000000000000000, -1.000000000000000000, -0.000000000000000000 ) ) ;
#838 = DIRECTION ( 'NONE',  ( -1.000000000000000000, 0.000000000000000000, -1.387778780781496754E-15 ) ) ;
#839 = EDGE_LOOP ( 'NONE', ( #952, #287, #1164, #556 ) ) ;
#840 = ORIENTED_EDGE ( 'NONE', *, *, #336, .T. ) ;
#841 = VECTOR ( 'NONE', #928, 1000.000000000000000 ) ;
#842 = CARTESIAN_POINT ( 'NONE',  ( 138.3273854894817134, 0.000000000000000000, 9.999736353167461900 ) ) ;
#843 = APPROVAL_PERSON_ORGANIZATION ( #612, #601, #473 ) ;
#844 = LINE ( 'NONE', #85, #901 ) ;
#845 = VERTEX_POINT ( 'NONE', #351 ) ;
#846 = ADVANCED_FACE ( 'NONE', ( #1105 ), #623, .F. ) ;
#847 = EDGE_LOOP ( 'NONE', ( #324, #1127, #751, #570 ) ) ;
#848 = CARTESIAN_POINT ( 'NONE',  ( 138.3273854894823671, 3.000000000000000000, -360.0007909404973248 ) ) ;
#849 = CARTESIAN_POINT ( 'NONE',  ( 238.3273854894817134, 3.000000000000000000, -215.0002636468324511 ) ) ;
#850 = VERTEX_POINT ( 'NONE', #69 ) ;
#851 = EDGE_CURVE ( 'NONE', #620, #918, #717, .T. ) ;
#852 = AXIS2_PLACEMENT_3D ( 'NONE', #709, #611, #537 ) ;
#853 = VERTEX_POINT ( 'NONE', #613 ) ;
#854 = CARTESIAN_POINT ( 'NONE',  ( 138.3273854894824240, -39.99999999999999289, -89.99973635316756315 ) ) ;
#855 = CYLINDRICAL_SURFACE ( 'NONE', #531, 100.0000000000000000 ) ;
#856 = ORIENTED_EDGE ( 'NONE', *, *, #778, .T. ) ;
#857 = LINE ( 'NONE', #823, #400 ) ;
#858 = AXIS2_PLACEMENT_3D ( 'NONE', #1067, #990, #227 ) ;
#859 = EDGE_CURVE ( 'NONE', #381, #161, #46, .T. ) ;
#860 = ORIENTED_EDGE ( 'NONE', *, *, #698, .T. ) ;
#861 = DIRECTION ( 'NONE',  ( -0.000000000000000000, -1.000000000000000000, -0.000000000000000000 ) ) ;
#862 = VECTOR ( 'NONE', #160, 1000.000000000000000 ) ;
#863 = CARTESIAN_POINT ( 'NONE',  ( 218.3273854894824524, 0.000000000000000000, -155.0002636468325079 ) ) ;
#864 = ORIENTED_EDGE ( 'NONE', *, *, #594, .F. ) ;
#865 = AXIS2_PLACEMENT_3D ( 'NONE', #270, #667, #953 ) ;
#866 = DIRECTION ( 'NONE',  ( 0.000000000000000000, 1.000000000000000000, -0.000000000000000000 ) ) ;
#867 = VERTEX_POINT ( 'NONE', #989 ) ;
#868 = CARTESIAN_POINT ( 'NONE',  ( 218.3273854894824808, -39.99999999999999289, -275.0002636468323658 ) ) ;
#869 = ORIENTED_CLOSED_SHELL ( 'NONE', *, #1125, .F. );
#870 = DIRECTION ( 'NONE',  ( 0.000000000000000000, 0.000000000000000000, 1.000000000000000000 ) ) ;
#871 = CARTESIAN_POINT ( 'NONE',  ( 138.3273854894823955, -43.00000000000000000, -360.0007909404973248 ) ) ;
#872 = ORIENTED_EDGE ( 'NONE', *, *, #1119, .F. ) ;
#873 = CARTESIAN_POINT ( 'NONE',  ( 138.3273854894817134, 3.000000000000000000, 9.999736353167461900 ) ) ;
#874 = CARTESIAN_POINT ( 'NONE',  ( 138.3273854894816566, 3.000000000000000000, -380.0002636468323658 ) ) ;
#875 = EDGE_CURVE ( 'NONE', #817, #660, #1180, .T. ) ;
#876 = CARTESIAN_POINT ( 'NONE',  ( 238.3273854894816850, -39.99999999999999289, -90.00026364683253632 ) ) ;
#877 = ORIENTED_EDGE ( 'NONE', *, *, #365, .F. ) ;
#878 = CARTESIAN_POINT ( 'NONE',  ( 138.3273854894824240, -39.99999999999999289, -9.999736353167559599 ) ) ;
#879 = DIRECTION ( 'NONE',  ( 0.000000000000000000, 0.000000000000000000, 1.000000000000000000 ) ) ;
#880 = CARTESIAN_POINT ( 'NONE',  ( -0.07261451051828989034, -39.99999999999999289, 9.999736353167531178 ) ) ;
#881 = AXIS2_PLACEMENT_3D ( 'NONE', #636, #152, #1200 ) ;
#882 = ORIENTED_EDGE ( 'NONE', *, *, #648, .T. ) ;
#883 = EDGE_CURVE ( 'NONE', #1078, #294, #1064, .T. ) ;
#884 = VECTOR ( 'NONE', #596, 1000.000000000000227 ) ;
#885 = ORIENTED_EDGE ( 'NONE', *, *, #809, .F. ) ;
#886 = CARTESIAN_POINT ( 'NONE',  ( 138.3273854894817134, -39.99999999999999289, 9.999736353167461900 ) ) ;
#887 = CARTESIAN_POINT ( 'NONE',  ( 0.07261451051828989034, -39.99999999999999289, -9.999736353167531178 ) ) ;
#888 = CARTESIAN_POINT ( 'NONE',  ( 218.3273854894824524, 0.000000000000000000, -280.0007909404973248 ) ) ;
#889 = VERTEX_POINT ( 'NONE', #546 ) ;
#890 = ADVANCED_FACE ( 'NONE', ( #618 ), #994, .F. ) ;
#891 = CYLINDRICAL_SURFACE ( 'NONE', #1037, 79.99999999999995737 ) ;
#892 = CARTESIAN_POINT ( 'NONE',  ( 0.000000000000000000, 0.000000000000000000, 0.000000000000000000 ) ) ;
#893 = CARTESIAN_POINT ( 'NONE',  ( 138.3273854894824240, -39.99999999999999289, -280.0007909404973248 ) ) ;
#894 = CARTESIAN_POINT ( 'NONE',  ( 238.3273854894816850, 3.000000000000000000, -90.00026364683253632 ) ) ;
#895 = VERTEX_POINT ( 'NONE', #430 ) ;
#896 = DIRECTION ( 'NONE',  ( -1.445602896647339114E-15, 0.000000000000000000, -1.000000000000000000 ) ) ;
#897 = LINE ( 'NONE', #1193, #786 ) ;
#898 = ADVANCED_FACE ( 'NONE', ( #808 ), #340, .F. ) ;
#899 = CARTESIAN_POINT ( 'NONE',  ( 238.3273854894817134, 3.000000000000000000, -275.0002636468324795 ) ) ;
#900 = DIRECTION ( 'NONE',  ( 0.000000000000000000, 1.000000000000000000, -0.000000000000000000 ) ) ;
#901 = VECTOR ( 'NONE', #470, 1000.000000000000000 ) ;
#902 = SECURITY_CLASSIFICATION ( '', '', #530 ) ;
#903 = ORIENTED_EDGE ( 'NONE', *, *, #586, .T. ) ;
#904 = COORDINATED_UNIVERSAL_TIME_OFFSET ( 3, 30, .AHEAD. ) ;
#905 = CLOSED_SHELL ( 'NONE', ( #930, #1055, #978, #922, #44, #1163, #501, #92, #479, #898 ) ) ;
#906 = DIRECTION ( 'NONE',  ( 0.000000000000000000, -0.000000000000000000, 1.000000000000000000 ) ) ;
#907 = EDGE_CURVE ( 'NONE', #1078, #933, #1097, .T. ) ;
#908 = CARTESIAN_POINT ( 'NONE',  ( 218.3273854894824524, -39.99999999999999289, -89.99973635316759157 ) ) ;
#909 = VERTEX_POINT ( 'NONE', #538 ) ;
#910 = DIRECTION ( 'NONE',  ( -0.000000000000000000, -1.000000000000000000, -0.000000000000000000 ) ) ;
#911 = PERSON_AND_ORGANIZATION ( #713, #727 ) ;
#912 = CARTESIAN_POINT ( 'NONE',  ( 138.3273854894823671, 0.000000000000000000, -360.0007909404973248 ) ) ;
#913 = VECTOR ( 'NONE', #261, 1000.000000000000000 ) ;
#914 = CARTESIAN_POINT ( 'NONE',  ( 218.3273854894824524, 3.000000000000000000, -215.0002636468324511 ) ) ;
#915 = ORIENTED_EDGE ( 'NONE', *, *, #1156, .T. ) ;
#916 = PLANE ( 'NONE',  #1032 ) ;
#917 = PERSON_AND_ORGANIZATION ( #713, #727 ) ;
#918 = VERTEX_POINT ( 'NONE', #264 ) ;
#919 = DIRECTION ( 'NONE',  ( 0.000000000000000000, -1.000000000000000000, 0.000000000000000000 ) ) ;
#920 = DIRECTION ( 'NONE',  ( -0.000000000000000000, -1.000000000000000000, -0.000000000000000000 ) ) ;
#921 = VERTEX_POINT ( 'NONE', #1131 ) ;
#922 = ADVANCED_FACE ( 'NONE', ( #1217 ), #946, .F. ) ;
#923 = VECTOR ( 'NONE', #442, 1000.000000000000000 ) ;
#924 = DIRECTION ( 'NONE',  ( 0.000000000000000000, 0.000000000000000000, -1.000000000000000000 ) ) ;
#925 = VECTOR ( 'NONE', #966, 1000.000000000000000 ) ;
#926 = EDGE_LOOP ( 'NONE', ( #1021, #737, #812, #1113 ) ) ;
#927 = DIRECTION ( 'NONE',  ( -0.007261451051829059637, -0.000000000000000000, 0.9999736353167626435 ) ) ;
#928 = DIRECTION ( 'NONE',  ( -0.000000000000000000, -1.000000000000000000, -0.000000000000000000 ) ) ;
#929 = EDGE_LOOP ( 'NONE', ( #836, #447, #662, #856 ) ) ;
#930 = ADVANCED_FACE ( 'NONE', ( #195 ), #759, .T. ) ;
#931 = DIRECTION ( 'NONE',  ( -1.387778780781496557E-15, 0.000000000000000000, 1.000000000000000000 ) ) ;
#932 = VECTOR ( 'NONE', #87, 1000.000000000000000 ) ;
#933 = VERTEX_POINT ( 'NONE', #842 ) ;
#934 = LINE ( 'NONE', #171, #214 ) ;
#935 = LINE ( 'NONE', #98, #651 ) ;
#936 = VERTEX_POINT ( 'NONE', #364 ) ;
#937 = DIRECTION ( 'NONE',  ( 1.000000000000000000, -0.000000000000000000, -1.445602896647339114E-15 ) ) ;
#938 = VERTEX_POINT ( 'NONE', #455 ) ;
#939 = CARTESIAN_POINT ( 'NONE',  ( 218.3273854894824524, -43.00000000000000000, -215.0002636468324511 ) ) ;
#940 = EDGE_CURVE ( 'NONE', #307, #761, #553, .T. ) ;
#941 = DIRECTION ( 'NONE',  ( -0.000000000000000000, -1.000000000000000000, -0.000000000000000000 ) ) ;
#942 = ORIENTED_EDGE ( 'NONE', *, *, #875, .T. ) ;
#943 = APPROVAL_STATUS ( 'not_yet_approved' ) ;
#944 = ORIENTED_EDGE ( 'NONE', *, *, #607, .F. ) ;
#945 = AXIS2_PLACEMENT_3D ( 'NONE', #1065, #111, #597 ) ;
#946 = PLANE ( 'NONE',  #1203 ) ;
#947 = CC_DESIGN_APPROVAL ( #29, ( #690 ) ) ;
#948 = APPROVAL ( #257, 'UNSPECIFIED' ) ;
#949 = DIRECTION ( 'NONE',  ( -1.000000000000000000, 0.000000000000000000, -0.000000000000000000 ) ) ;
#950 = VERTEX_POINT ( 'NONE', #97 ) ;
#951 = EDGE_CURVE ( 'NONE', #746, #478, #1136, .T. ) ;
#952 = ORIENTED_EDGE ( 'NONE', *, *, #24, .T. ) ;
#953 = DIRECTION ( 'NONE',  ( -0.007261451051829231375, 0.000000000000000000, -0.9999736353167626435 ) ) ;
#954 = DIRECTION ( 'NONE',  ( 0.000000000000000000, 0.000000000000000000, -1.000000000000000000 ) ) ;
#955 = ORIENTED_EDGE ( 'NONE', *, *, #151, .T. ) ;
#956 = EDGE_CURVE ( 'NONE', #918, #746, #1101, .T. ) ;
#957 = CIRCLE ( 'NONE', #780, 100.0000000000000000 ) ;
#958 = AXIS2_PLACEMENT_3D ( 'NONE', #144, #896, #807 ) ;
#959 = ORIENTED_EDGE ( 'NONE', *, *, #423, .T. ) ;
#960 = DIRECTION ( 'NONE',  ( -1.000000000000000000, 0.000000000000000000, 7.708920570409924211E-16 ) ) ;
#961 = CARTESIAN_POINT ( 'NONE',  ( 238.3273854894817134, -43.00000000000000000, -275.0002636468324795 ) ) ;
#962 = ORIENTED_EDGE ( 'NONE', *, *, #206, .T. ) ;
#963 = CARTESIAN_POINT ( 'NONE',  ( 138.3273854894817134, 0.000000000000000000, -90.00026364683252211 ) ) ;
#964 = EDGE_CURVE ( 'NONE', #1115, #1051, #934, .T. ) ;
#965 = ORIENTED_EDGE ( 'NONE', *, *, #1119, .T. ) ;
#966 = DIRECTION ( 'NONE',  ( -1.000000000000000000, 0.000000000000000000, -1.387778780781496754E-15 ) ) ;
#967 = VECTOR ( 'NONE', #436, 1000.000000000000227 ) ;
#968 = CARTESIAN_POINT ( 'NONE',  ( -0.07261451051832458481, -39.99999999999999289, -380.0002636468324226 ) ) ;
#969 = AXIS2_PLACEMENT_3D ( 'NONE', #513, #1063, #110 ) ;
#970 = PLANE ( 'NONE',  #476 ) ;
#971 = ORIENTED_EDGE ( 'NONE', *, *, #757, .F. ) ;
#972 = CARTESIAN_POINT ( 'NONE',  ( -0.07261451051832458481, 3.000000000000000000, -380.0002636468324226 ) ) ;
#973 = CARTESIAN_POINT ( 'NONE',  ( 238.3273854894817134, 3.000000000000000000, -155.0002636468324795 ) ) ;
#974 = CARTESIAN_POINT ( 'NONE',  ( 138.3273854894823955, 3.000000000000000000, -360.0007909404973248 ) ) ;
#975 = EDGE_LOOP ( 'NONE', ( #740, #1185, #89, #343 ) ) ;
#976 = CARTESIAN_POINT ( 'NONE',  ( 218.3273854894824524, 3.000000000000000000, -89.99973635316759157 ) ) ;
#977 = DIRECTION ( 'NONE',  ( 0.000000000000000000, 1.000000000000000000, 0.000000000000000000 ) ) ;
#978 = ADVANCED_FACE ( 'NONE', ( #754 ), #577, .F. ) ;
#979 = CARTESIAN_POINT ( 'NONE',  ( 138.3273854894817134, 0.000000000000000000, -280.0002636468323658 ) ) ;
#980 = ORIENTED_EDGE ( 'NONE', *, *, #637, .F. ) ;
#981 = CARTESIAN_POINT ( 'NONE',  ( -0.07261451051828989034, -39.99999999999999289, 9.999736353167531178 ) ) ;
#982 = CARTESIAN_POINT ( 'NONE',  ( 138.3273854894823955, -39.99999999999999289, -360.0007909404973248 ) ) ;
#983 = AXIS2_PLACEMENT_3D ( 'NONE', #1098, #432, #1189 ) ;
#984 = LINE ( 'NONE', #123, #58 ) ;
#985 = VECTOR ( 'NONE', #960, 1000.000000000000000 ) ;
#986 = EDGE_LOOP ( 'NONE', ( #1230, #263, #183, #16 ) ) ;
#987 = VERTEX_POINT ( 'NONE', #554 ) ;
#988 =( LENGTH_UNIT ( ) NAMED_UNIT ( * ) SI_UNIT ( .MILLI., .METRE. ) );
#989 = CARTESIAN_POINT ( 'NONE',  ( 0.07261451051825866532, 3.000000000000000000, -360.0007909404973816 ) ) ;
#990 = DIRECTION ( 'NONE',  ( -0.000000000000000000, -1.000000000000000000, -0.000000000000000000 ) ) ;
#991 = EDGE_LOOP ( 'NONE', ( #684, #61, #228, #173 ) ) ;
#992 = EDGE_CURVE ( 'NONE', #372, #633, #645, .T. ) ;
#993 = CARTESIAN_POINT ( 'NONE',  ( 0.07261451051825866532, -39.99999999999999289, -360.0007909404973816 ) ) ;
#994 = PLANE ( 'NONE',  #392 ) ;
#995 = VECTOR ( 'NONE', #249, 1000.000000000000000 ) ;
#996 = CARTESIAN_POINT ( 'NONE',  ( 138.3273854894817134, -43.00000000000000000, -90.00026364683252211 ) ) ;
#997 = ORIENTED_EDGE ( 'NONE', *, *, #1074, .T. ) ;
#998 = ADVANCED_FACE ( 'NONE', ( #741 ), #1018, .F. ) ;
#999 = DIRECTION ( 'NONE',  ( -0.007261451051829059637, -0.000000000000000000, 0.9999736353167626435 ) ) ;
#1000 = LINE ( 'NONE', #912, #688 ) ;
#1001 = CARTESIAN_POINT ( 'NONE',  ( 218.3273854894824524, -39.99999999999999289, -155.0002636468325079 ) ) ;
#1002 = ORIENTED_EDGE ( 'NONE', *, *, #281, .F. ) ;
#1003 = CIRCLE ( 'NONE', #945, 100.0000000000000000 ) ;
#1004 = CC_DESIGN_APPROVAL ( #601, ( #902 ) ) ;
#1005 = CARTESIAN_POINT ( 'NONE',  ( 138.3273854894824240, 3.000000000000000000, -280.0007909404973248 ) ) ;
#1006 = CLOSED_SHELL ( 'NONE', ( #248, #1022, #67, #1076, #830, #801, #846, #318, #720, #1111 ) ) ;
#1007 = CARTESIAN_POINT ( 'NONE',  ( 138.3273854894817134, 3.000000000000000000, 9.999736353167461900 ) ) ;
#1008 = DIRECTION ( 'NONE',  ( 4.625929269271485914E-16, 0.000000000000000000, 1.000000000000000000 ) ) ;
#1009 = VERTEX_POINT ( 'NONE', #463 ) ;
#1010 = LINE ( 'NONE', #739, #222 ) ;
#1011 = PERSON_AND_ORGANIZATION_ROLE ( 'creator' ) ;
#1012 = DIRECTION ( 'NONE',  ( 4.625929269271485914E-16, 0.000000000000000000, 1.000000000000000000 ) ) ;
#1013 = EDGE_CURVE ( 'NONE', #255, #398, #1224, .T. ) ;
#1014 = CARTESIAN_POINT ( 'NONE',  ( 0.07261451051825866532, -39.99999999999999289, -360.0007909404973816 ) ) ;
#1015 = ORIENTED_EDGE ( 'NONE', *, *, #1031, .F. ) ;
#1016 = CARTESIAN_POINT ( 'NONE',  ( 138.3273854894823955, 0.000000000000000000, -360.0007909404973248 ) ) ;
#1017 = ORIENTED_EDGE ( 'NONE', *, *, #286, .T. ) ;
#1018 = CYLINDRICAL_SURFACE ( 'NONE', #749, 80.00000000000000000 ) ;
#1019 = VECTOR ( 'NONE', #730, 1000.000000000000000 ) ;
#1020 = DIRECTION ( 'NONE',  ( 1.000000000000000000, 0.000000000000000000, 0.000000000000000000 ) ) ;
#1021 = ORIENTED_EDGE ( 'NONE', *, *, #534, .T. ) ;
#1022 = ADVANCED_FACE ( 'NONE', ( #475 ), #5, .F. ) ;
#1023 = VECTOR ( 'NONE', #514, 1000.000000000000000 ) ;
#1024 = CARTESIAN_POINT ( 'NONE',  ( 138.3273854894824240, 0.000000000000000000, -9.999736353167559599 ) ) ;
#1025 = AXIS2_PLACEMENT_3D ( 'NONE', #673, #27, #315 ) ;
#1026 = VERTEX_POINT ( 'NONE', #1124 ) ;
#1027 = DIRECTION ( 'NONE',  ( 0.000000000000000000, -0.000000000000000000, 1.000000000000000000 ) ) ;
#1028 = FACE_OUTER_BOUND ( 'NONE', #434, .T. ) ;
#1029 = ORIENTED_EDGE ( 'NONE', *, *, #992, .F. ) ;
#1030 = DIRECTION ( 'NONE',  ( -1.000000000000000000, 0.000000000000000000, -1.445602896647340100E-15 ) ) ;
#1031 = EDGE_CURVE ( 'NONE', #660, #895, #1034, .T. ) ;
#1032 = AXIS2_PLACEMENT_3D ( 'NONE', #565, #931, #256 ) ;
#1033 = ORIENTED_EDGE ( 'NONE', *, *, #305, .T. ) ;
#1034 = LINE ( 'NONE', #184, #334 ) ;
#1035 = DIRECTION ( 'NONE',  ( -0.000000000000000000, -1.000000000000000000, -0.000000000000000000 ) ) ;
#1036 = ORIENTED_EDGE ( 'NONE', *, *, #415, .F. ) ;
#1037 = AXIS2_PLACEMENT_3D ( 'NONE', #1005, #910, #794 ) ;
#1038 = CC_DESIGN_DATE_AND_TIME_ASSIGNMENT ( #726, #230, ( #690 ) ) ;
#1039 = VERTEX_POINT ( 'NONE', #383 ) ;
#1040 = DIRECTION ( 'NONE',  ( 0.000000000000000000, 1.000000000000000000, 0.000000000000000000 ) ) ;
#1041 = DIRECTION ( 'NONE',  ( 1.000000000000000000, 0.000000000000000000, -0.000000000000000000 ) ) ;
#1042 = ORIENTED_EDGE ( 'NONE', *, *, #883, .F. ) ;
#1043 = ORIENTED_EDGE ( 'NONE', *, *, #386, .F. ) ;
#1044 = VECTOR ( 'NONE', #122, 1000.000000000000000 ) ;
#1045 = DIRECTION ( 'NONE',  ( -4.625929269271489858E-16, -0.000000000000000000, 1.000000000000000000 ) ) ;
#1046 = VECTOR ( 'NONE', #250, 1000.000000000000114 ) ;
#1047 = LINE ( 'NONE', #833, #1139 ) ;
#1048 = EDGE_CURVE ( 'NONE', #761, #640, #567, .T. ) ;
#1049 = ORIENTED_EDGE ( 'NONE', *, *, #297, .T. ) ;
#1050 = CIRCLE ( 'NONE', #1211, 80.00000000000000000 ) ;
#1051 = VERTEX_POINT ( 'NONE', #10 ) ;
#1052 = CARTESIAN_POINT ( 'NONE',  ( 238.3273854894817134, 3.000000000000000000, -95.00026364683247948 ) ) ;
#1053 = CARTESIAN_POINT ( 'NONE',  ( 0.07261451051828989034, 3.000000000000000000, -9.999736353167531178 ) ) ;
#1054 = ORIENTED_EDGE ( 'NONE', *, *, #151, .F. ) ;
#1055 = ADVANCED_FACE ( 'NONE', ( #77 ), #832, .F. ) ;
#1056 = CARTESIAN_POINT ( 'NONE',  ( 218.3273854894824524, 3.000000000000000000, -155.0002636468325079 ) ) ;
#1057 = ORIENTED_EDGE ( 'NONE', *, *, #1088, .F. ) ;
#1058 = FACE_OUTER_BOUND ( 'NONE', #569, .T. ) ;
#1059 = DIRECTION ( 'NONE',  ( -0.000000000000000000, -1.000000000000000000, -0.000000000000000000 ) ) ;
#1060 = PLANE ( 'NONE',  #80 ) ;
#1061 = VECTOR ( 'NONE', #646, 1000.000000000000000 ) ;
#1062 = ORIENTED_EDGE ( 'NONE', *, *, #281, .T. ) ;
#1063 = DIRECTION ( 'NONE',  ( -1.000000000000000000, 0.000000000000000000, 0.000000000000000000 ) ) ;
#1064 = CIRCLE ( 'NONE', #153, 100.0000000000000000 ) ;
#1065 = CARTESIAN_POINT ( 'NONE',  ( 138.3273854894817134, -39.99999999999999289, -90.00026364683252211 ) ) ;
#1066 = AXIS2_PLACEMENT_3D ( 'NONE', #370, #1027, #748 ) ;
#1067 = CARTESIAN_POINT ( 'NONE',  ( 138.3273854894817134, -39.99999999999999289, -280.0002636468323658 ) ) ;
#1068 = ORIENTED_EDGE ( 'NONE', *, *, #137, .T. ) ;
#1069 = LINE ( 'NONE', #219, #155 ) ;
#1070 = DIRECTION ( 'NONE',  ( 0.000000000000000000, -1.000000000000000000, 0.000000000000000000 ) ) ;
#1071 = DIRECTION ( 'NONE',  ( 0.000000000000000000, 1.000000000000000000, 0.000000000000000000 ) ) ;
#1072 = CARTESIAN_POINT ( 'NONE',  ( 238.3273854894816850, 3.000000000000000000, -280.0002636468323658 ) ) ;
#1073 = DIRECTION ( 'NONE',  ( -4.625929269271489858E-16, -0.000000000000000000, 1.000000000000000000 ) ) ;
#1074 = EDGE_CURVE ( 'NONE', #267, #1115, #1069, .T. ) ;
#1075 = DIRECTION ( 'NONE',  ( -0.000000000000000000, -1.000000000000000000, -0.000000000000000000 ) ) ;
#1076 = ADVANCED_FACE ( 'NONE', ( #224 ), #120, .F. ) ;
#1077 = CARTESIAN_POINT ( 'NONE',  ( 138.3273854894823671, -43.00000000000000000, -360.0007909404973248 ) ) ;
#1078 = VERTEX_POINT ( 'NONE', #873 ) ;
#1079 = LINE ( 'NONE', #993, #1170 ) ;
#1080 = FACE_OUTER_BOUND ( 'NONE', #19, .T. ) ;
#1081 = EDGE_CURVE ( 'NONE', #372, #691, #782, .T. ) ;
#1082 = CARTESIAN_POINT ( 'NONE',  ( -0.07261451051828989034, -39.99999999999999289, 9.999736353167531178 ) ) ;
#1083 = AXIS2_PLACEMENT_3D ( 'NONE', #201, #302, #680 ) ;
#1084 = PLANE ( 'NONE',  #958 ) ;
#1085 = CALENDAR_DATE ( 2026, 23, 7 ) ;
#1086 = CARTESIAN_POINT ( 'NONE',  ( 138.3273854894817134, 3.000000000000000000, -90.00026364683252211 ) ) ;
#1087 = LINE ( 'NONE', #437, #348 ) ;
#1088 = EDGE_CURVE ( 'NONE', #1026, #753, #402, .T. ) ;
#1089 = AXIS2_PLACEMENT_3D ( 'NONE', #979, #1071, #25 ) ;
#1090 = CARTESIAN_POINT ( 'NONE',  ( 218.3273854894824808, 3.000000000000000000, -275.0002636468323658 ) ) ;
#1091 = CALENDAR_DATE ( 2026, 23, 7 ) ;
#1092 = CARTESIAN_POINT ( 'NONE',  ( 138.3273854894817134, 0.000000000000000000, -280.0002636468323658 ) ) ;
#1093 = PLANE ( 'NONE',  #592 ) ;
#1094 = ORIENTED_EDGE ( 'NONE', *, *, #1197, .T. ) ;
#1095 = ADVANCED_BREP_SHAPE_REPRESENTATION ( 'Link3StellConnectors_Default_sldprt', ( #1213, #361, #1196, #767 ), #824 ) ;
#1096 = DIRECTION ( 'NONE',  ( 5.550529771288670484E-15, -0.000000000000000000, 1.000000000000000000 ) ) ;
#1097 = LINE ( 'NONE', #1007, #1100 ) ;
#1098 = CARTESIAN_POINT ( 'NONE',  ( 138.3273854894817134, 3.000000000000000000, -280.0002636468323658 ) ) ;
#1099 = ORIENTED_EDGE ( 'NONE', *, *, #274, .F. ) ;
#1100 = VECTOR ( 'NONE', #158, 1000.000000000000000 ) ;
#1101 = CIRCLE ( 'NONE', #134, 99.99999999999997158 ) ;
#1102 = CARTESIAN_POINT ( 'NONE',  ( 218.3273854894824524, 3.000000000000000000, -89.99973635316759157 ) ) ;
#1103 = PERSON_AND_ORGANIZATION ( #713, #727 ) ;
#1104 = EDGE_CURVE ( 'NONE', #715, #269, #776, .T. ) ;
#1105 = FACE_OUTER_BOUND ( 'NONE', #522, .T. ) ;
#1106 = DIRECTION ( 'NONE',  ( 0.000000000000000000, 0.000000000000000000, -1.000000000000000000 ) ) ;
#1107 = ORIENTED_EDGE ( 'NONE', *, *, #114, .F. ) ;
#1108 = LINE ( 'NONE', #634, #932 ) ;
#1109 = ORIENTED_EDGE ( 'NONE', *, *, #3, .T. ) ;
#1110 = CARTESIAN_POINT ( 'NONE',  ( 138.3273854894824240, -43.00000000000000000, -280.0007909404973248 ) ) ;
#1111 = ADVANCED_FACE ( 'NONE', ( #125 ), #21, .F. ) ;
#1112 = DIRECTION ( 'NONE',  ( -1.445602896647339114E-15, 0.000000000000000000, -1.000000000000000000 ) ) ;
#1113 = ORIENTED_EDGE ( 'NONE', *, *, #274, .T. ) ;
#1114 = DIRECTION ( 'NONE',  ( -1.000000000000000000, 0.000000000000000000, 5.551115123125901031E-15 ) ) ;
#1115 = VERTEX_POINT ( 'NONE', #1153 ) ;
#1116 = DIRECTION ( 'NONE',  ( -0.000000000000000000, -1.000000000000000000, -0.000000000000000000 ) ) ;
#1117 = CARTESIAN_POINT ( 'NONE',  ( 238.3273854894816850, 3.000000000000000000, -90.00026364683253632 ) ) ;
#1118 = ORIENTED_EDGE ( 'NONE', *, *, #507, .T. ) ;
#1119 = EDGE_CURVE ( 'NONE', #200, #821, #308, .T. ) ;
#1120 = VECTOR ( 'NONE', #1075, 1000.000000000000000 ) ;
#1121 = LINE ( 'NONE', #656, #382 ) ;
#1122 = PRODUCT_DEFINITION_FORMATION_WITH_SPECIFIED_SOURCE ( 'ANY', '', #729, .NOT_KNOWN. ) ;
#1123 = ORIENTED_EDGE ( 'NONE', *, *, #1173, .T. ) ;
#1124 = CARTESIAN_POINT ( 'NONE',  ( 238.3273854894817134, 0.000000000000000000, -155.0002636468324795 ) ) ;
#1125 = CLOSED_SHELL ( 'NONE', ( #311, #409, #587, #1142, #327, #752, #998, #485, #683, #787 ) ) ;
#1126 = DIRECTION ( 'NONE',  ( -0.000000000000000000, -1.000000000000000000, -0.000000000000000000 ) ) ;
#1127 = ORIENTED_EDGE ( 'NONE', *, *, #8, .F. ) ;
#1128 = CC_DESIGN_PERSON_AND_ORGANIZATION_ASSIGNMENT ( #911, #1187, ( #729 ) ) ;
#1129 = CIRCLE ( 'NONE', #101, 100.0000000000000000 ) ;
#1130 = ORIENTED_EDGE ( 'NONE', *, *, #580, .F. ) ;
#1131 = CARTESIAN_POINT ( 'NONE',  ( 238.3273854894817134, -39.99999999999999289, -215.0002636468324511 ) ) ;
#1132 = CARTESIAN_POINT ( 'NONE',  ( 238.3273854894817134, -39.99999999999999289, -155.0002636468324795 ) ) ;
#1133 = EDGE_LOOP ( 'NONE', ( #665, #387, #762, #467 ) ) ;
#1134 = APPLICATION_CONTEXT ( 'configuration controlled 3d designs of mechanical parts and assemblies' ) ;
#1135 = VERTEX_POINT ( 'NONE', #685 ) ;
#1136 = LINE ( 'NONE', #1231, #72 ) ;
#1137 = DIRECTION ( 'NONE',  ( 5.550529771288700461E-15, 0.000000000000000000, -1.000000000000000000 ) ) ;
#1138 = ORIENTED_EDGE ( 'NONE', *, *, #907, .F. ) ;
#1139 = VECTOR ( 'NONE', #838, 1000.000000000000000 ) ;
#1140 = EDGE_LOOP ( 'NONE', ( #1171, #775, #792, #325, #390, #744, #962, #942 ) ) ;
#1141 = PLANE ( 'NONE',  #1205 ) ;
#1142 = ADVANCED_FACE ( 'NONE', ( #1058 ), #412, .F. ) ;
#1143 = LINE ( 'NONE', #185, #764 ) ;
#1144 = ORIENTED_EDGE ( 'NONE', *, *, #3, .F. ) ;
#1145 = DIRECTION ( 'NONE',  ( 0.000000000000000000, 0.000000000000000000, -1.000000000000000000 ) ) ;
#1146 = VERTEX_POINT ( 'NONE', #770 ) ;
#1147 = DIRECTION ( 'NONE',  ( -1.000000000000000000, 0.000000000000000000, 0.000000000000000000 ) ) ;
#1148 = EDGE_CURVE ( 'NONE', #124, #909, #487, .T. ) ;
#1149 = CARTESIAN_POINT ( 'NONE',  ( 238.3273854894817134, -39.99999999999999289, -95.00026364683247948 ) ) ;
#1150 = ORIENTED_EDGE ( 'NONE', *, *, #1181, .T. ) ;
#1151 = CARTESIAN_POINT ( 'NONE',  ( 238.3273854894817134, 3.000000000000000000, -215.0002636468324511 ) ) ;
#1152 = VERTEX_POINT ( 'NONE', #976 ) ;
#1153 = CARTESIAN_POINT ( 'NONE',  ( 218.3273854894824524, 0.000000000000000000, -215.0002636468324511 ) ) ;
#1154 = FACE_OUTER_BOUND ( 'NONE', #1176, .T. ) ;
#1155 = FACE_OUTER_BOUND ( 'NONE', #148, .T. ) ;
#1156 = EDGE_CURVE ( 'NONE', #889, #267, #504, .T. ) ;
#1157 = ORIENTED_EDGE ( 'NONE', *, *, #82, .T. ) ;
#1158 = DIRECTION ( 'NONE',  ( 0.007261451051829231375, 0.000000000000000000, 0.9999736353167626435 ) ) ;
#1159 = VECTOR ( 'NONE', #371, 1000.000000000000000 ) ;
#1160 = CARTESIAN_POINT ( 'NONE',  ( 138.3273854894824240, 3.000000000000000000, -89.99973635316756315 ) ) ;
#1161 = VECTOR ( 'NONE', #600, 1000.000000000000000 ) ;
#1162 = CARTESIAN_POINT ( 'NONE',  ( 138.3273854894824240, -43.00000000000000000, -89.99973635316756315 ) ) ;
#1163 = ADVANCED_FACE ( 'NONE', ( #215 ), #1141, .F. ) ;
#1164 = ORIENTED_EDGE ( 'NONE', *, *, #206, .F. ) ;
#1165 = ADVANCED_FACE ( 'NONE', ( #320 ), #395, .F. ) ;
#1166 = DIRECTION ( 'NONE',  ( 4.625929269271489858E-16, 0.000000000000000000, -1.000000000000000000 ) ) ;
#1167 = DIRECTION ( 'NONE',  ( 5.551115123125856066E-15, -0.000000000000000000, -1.000000000000000000 ) ) ;
#1168 = DIRECTION ( 'NONE',  ( 5.551115123125901031E-15, 0.000000000000000000, 1.000000000000000000 ) ) ;
#1169 = ORIENTED_EDGE ( 'NONE', *, *, #344, .T. ) ;
#1170 = VECTOR ( 'NONE', #243, 1000.000000000000000 ) ;
#1171 = ORIENTED_EDGE ( 'NONE', *, *, #1031, .T. ) ;
#1172 = COORDINATED_UNIVERSAL_TIME_OFFSET ( 3, 30, .AHEAD. ) ;
#1173 = EDGE_CURVE ( 'NONE', #691, #552, #605, .T. ) ;
#1174 = DIRECTION ( 'NONE',  ( -5.551115123125901031E-15, 0.000000000000000000, -1.000000000000000000 ) ) ;
#1175 = LINE ( 'NONE', #329, #519 ) ;
#1176 = EDGE_LOOP ( 'NONE', ( #576, #103, #1227, #285, #1057, #1054, #12, #599 ) ) ;
#1177 = VECTOR ( 'NONE', #687, 1000.000000000000000 ) ;
#1178 = DIRECTION ( 'NONE',  ( -0.007261451051829231375, 0.000000000000000000, -0.9999736353167626435 ) ) ;
#1179 = PERSON_AND_ORGANIZATION_ROLE ( 'classification_officer' ) ;
#1180 = LINE ( 'NONE', #711, #212 ) ;
#1181 = EDGE_CURVE ( 'NONE', #536, #1009, #131, .T. ) ;
#1182 = AXIS2_PLACEMENT_3D ( 'NONE', #1053, #1, #1041 ) ;
#1183 = LINE ( 'NONE', #60, #458 ) ;
#1184 = VECTOR ( 'NONE', #763, 1000.000000000000000 ) ;
#1185 = ORIENTED_EDGE ( 'NONE', *, *, #265, .F. ) ;
#1186 = ORIENTED_EDGE ( 'NONE', *, *, #235, .T. ) ;
#1187 = PERSON_AND_ORGANIZATION_ROLE ( 'design_owner' ) ;
#1188 = CARTESIAN_POINT ( 'NONE',  ( -0.07261451051828989034, -43.00000000000000000, 9.999736353167531178 ) ) ;
#1189 = DIRECTION ( 'NONE',  ( 0.000000000000000000, -0.000000000000000000, 1.000000000000000000 ) ) ;
#1190 = VECTOR ( 'NONE', #162, 1000.000000000000000 ) ;
#1191 = AXIS2_PLACEMENT_3D ( 'NONE', #419, #695, #791 ) ;
#1192 = ORIENTED_EDGE ( 'NONE', *, *, #374, .F. ) ;
#1193 = CARTESIAN_POINT ( 'NONE',  ( 0.07261451051828989034, -43.00000000000000000, -9.999736353167531178 ) ) ;
#1194 = DIRECTION ( 'NONE',  ( 1.000000000000000000, -0.000000000000000000, 4.625929269271489858E-16 ) ) ;
#1195 = LINE ( 'NONE', #240, #862 ) ;
#1196 = MANIFOLD_SOLID_BREP ( 'Boss-Extrude1[2]', #905 ) ;
#1197 = EDGE_CURVE ( 'NONE', #672, #124, #273, .T. ) ;
#1198 = VERTEX_POINT ( 'NONE', #208 ) ;
#1199 = CALENDAR_DATE ( 2026, 23, 7 ) ;
#1200 = DIRECTION ( 'NONE',  ( 0.000000000000000000, -0.000000000000000000, -1.000000000000000000 ) ) ;
#1201 = LINE ( 'NONE', #425, #564 ) ;
#1202 = ORIENTED_EDGE ( 'NONE', *, *, #464, .F. ) ;
#1203 = AXIS2_PLACEMENT_3D ( 'NONE', #848, #388, #178 ) ;
#1204 = VECTOR ( 'NONE', #284, 1000.000000000000000 ) ;
#1205 = AXIS2_PLACEMENT_3D ( 'NONE', #17, #789, #1166 ) ;
#1206 = DIRECTION ( 'NONE',  ( 5.551115123125901031E-15, 0.000000000000000000, 1.000000000000000000 ) ) ;
#1207 = EDGE_CURVE ( 'NONE', #566, #867, #589, .T. ) ;
#1208 = EDGE_LOOP ( 'NONE', ( #394, #457, #405, #1043, #4, #1192, #1036, #241 ) ) ;
#1209 = LINE ( 'NONE', #819, #575 ) ;
#1210 = CARTESIAN_POINT ( 'NONE',  ( 138.3273854894824240, -39.99999999999999289, -9.999736353167559599 ) ) ;
#1211 = AXIS2_PLACEMENT_3D ( 'NONE', #1162, #414, #682 ) ;
#1212 = DESIGN_CONTEXT ( 'detailed design', #199, 'design' ) ;
#1213 = MANIFOLD_SOLID_BREP ( 'Boss-Extrude1[1]', #474 ) ;
#1214 = CIRCLE ( 'NONE', #1089, 99.99999999999997158 ) ;
#1215 = CARTESIAN_POINT ( 'NONE',  ( 138.3273854894816566, -43.00000000000000000, -380.0002636468323658 ) ) ;
#1216 = VECTOR ( 'NONE', #736, 1000.000000000000000 ) ;
#1217 = FACE_OUTER_BOUND ( 'NONE', #260, .T. ) ;
#1218 = EDGE_CURVE ( 'NONE', #633, #486, #897, .T. ) ;
#1219 = CARTESIAN_POINT ( 'NONE',  ( -0.07261451051828989034, 3.000000000000000000, 9.999736353167531178 ) ) ;
#1220 = ORIENTED_EDGE ( 'NONE', *, *, #159, .T. ) ;
#1221 = CARTESIAN_POINT ( 'NONE',  ( 238.3273854894817134, 0.000000000000000000, -95.00026364683247948 ) ) ;
#1222 = APPROVAL_DATE_TIME ( #643, #601 ) ;
#1223 = ORIENTED_EDGE ( 'NONE', *, *, #423, .F. ) ;
#1224 = LINE ( 'NONE', #652, #492 ) ;
#1225 = CC_DESIGN_DATE_AND_TIME_ASSIGNMENT ( #417, #326, ( #902 ) ) ;
#1226 = DIRECTION ( 'NONE',  ( 0.000000000000000000, 0.000000000000000000, 1.000000000000000000 ) ) ;
#1227 = ORIENTED_EDGE ( 'NONE', *, *, #24, .F. ) ;
#1228 = AXIS2_PLACEMENT_3D ( 'NONE', #397, #413, #321 ) ;
#1229 = VECTOR ( 'NONE', #1045, 1000.000000000000000 ) ;
#1230 = ORIENTED_EDGE ( 'NONE', *, *, #1218, .T. ) ;
#1231 = CARTESIAN_POINT ( 'NONE',  ( 138.3273854894816566, 3.000000000000000000, -380.0002636468323658 ) ) ;
ENDSEC;
END-ISO-10303-21;
