ISO-10303-21;
HEADER;
FILE_DESCRIPTION (( 'STEP AP203' ),
    '1' );
FILE_NAME ('Pulley40mm_Default_sldprt.STEP',
    '2026-07-23T12:35:16',
    ( '' ),
    ( '' ),
    'SwSTEP 2.0',
    'SolidWorks 2025',
    '' );
FILE_SCHEMA (( 'CONFIG_CONTROL_DESIGN' ));
ENDSEC;

DATA;
#1 = CC_DESIGN_DATE_AND_TIME_ASSIGNMENT ( #92, #385, ( #238 ) ) ;
#2 = ORIENTED_EDGE ( 'NONE', *, *, #61, .F. ) ;
#3 = CYLINDRICAL_SURFACE ( 'NONE', #280, 18.49999999999999645 ) ;
#4 = SHAPE_DEFINITION_REPRESENTATION ( #148, #378 ) ;
#5 = DIRECTION ( 'NONE',  ( -0.000000000000000000, -0.000000000000000000, -1.000000000000000000 ) ) ;
#6 = EDGE_CURVE ( 'NONE', #376, #147, #86, .T. ) ;
#7 = PERSON ( 'UNSPECIFIED', 'UNSPECIFIED', 'UNSPECIFIED', ('UNSPECIFIED'), ('UNSPECIFIED'), ('UNSPECIFIED') ) ;
#8 = CARTESIAN_POINT ( 'NONE',  ( 0.000000000000000000, 0.000000000000000000, -8.602081939942721078 ) ) ;
#9 = CARTESIAN_POINT ( 'NONE',  ( 0.000000000000000000, 0.000000000000000000, 0.000000000000000000 ) ) ;
#10 = ADVANCED_FACE ( 'NONE', ( #284, #404 ), #95, .T. ) ;
#11 = DIRECTION ( 'NONE',  ( -1.000000000000000000, 0.000000000000000000, 0.000000000000000000 ) ) ;
#12 = DIRECTION ( 'NONE',  ( 0.000000000000000000, 0.000000000000000000, 1.000000000000000000 ) ) ;
#13 = ORIENTED_EDGE ( 'NONE', *, *, #42, .T. ) ;
#14 = AXIS2_PLACEMENT_3D ( 'NONE', #105, #170, #139 ) ;
#15 = CARTESIAN_POINT ( 'NONE',  ( 0.000000000000000000, 0.000000000000000000, 12.00000000000000000 ) ) ;
#16 = CC_DESIGN_PERSON_AND_ORGANIZATION_ASSIGNMENT ( #310, #186, ( #128 ) ) ;
#17 = CYLINDRICAL_SURFACE ( 'NONE', #157, 5.000000000000000000 ) ;
#18 = ORIENTED_EDGE ( 'NONE', *, *, #112, .T. ) ;
#19 = CARTESIAN_POINT ( 'NONE',  ( 20.00000000000000000, 2.449293598294706513E-15, 2.999999999999999112 ) ) ;
#20 = VERTEX_POINT ( 'NONE', #180 ) ;
#21 = ADVANCED_FACE ( 'NONE', ( #349 ), #217, .T. ) ;
#22 = APPLICATION_PROTOCOL_DEFINITION ( 'international standard', 'config_control_design', 1994, #236 ) ;
#23 = VERTEX_POINT ( 'NONE', #55 ) ;
#24 = VERTEX_POINT ( 'NONE', #409 ) ;
#25 = ORIENTED_EDGE ( 'NONE', *, *, #178, .T. ) ;
#26 = AXIS2_PLACEMENT_3D ( 'NONE', #224, #389, #65 ) ;
#27 = DIRECTION ( 'NONE',  ( -0.000000000000000000, -0.000000000000000000, -1.000000000000000000 ) ) ;
#28 = EDGE_LOOP ( 'NONE', ( #111, #123 ) ) ;
#29 = DIRECTION ( 'NONE',  ( -0.000000000000000000, -0.000000000000000000, -1.000000000000000000 ) ) ;
#30 = CALENDAR_DATE ( 2026, 23, 7 ) ;
#31 = EDGE_CURVE ( 'NONE', #20, #211, #331, .T. ) ;
#32 = AXIS2_PLACEMENT_3D ( 'NONE', #388, #35, #73 ) ;
#33 = CARTESIAN_POINT ( 'NONE',  ( -20.00000000000000000, 0.000000000000000000, 9.000000000000001776 ) ) ;
#34 = DIRECTION ( 'NONE',  ( 1.000000000000000000, 0.000000000000000000, -0.000000000000000000 ) ) ;
#35 = DIRECTION ( 'NONE',  ( -0.000000000000000000, -0.000000000000000000, -1.000000000000000000 ) ) ;
#36 = CC_DESIGN_PERSON_AND_ORGANIZATION_ASSIGNMENT ( #402, #247, ( #99 ) ) ;
#37 = DIRECTION ( 'NONE',  ( -0.000000000000000000, -0.000000000000000000, -1.000000000000000000 ) ) ;
#38 = AXIS2_PLACEMENT_3D ( 'NONE', #344, #189, #121 ) ;
#39 = DIRECTION ( 'NONE',  ( -0.000000000000000000, -0.000000000000000000, -1.000000000000000000 ) ) ;
#40 = APPLICATION_CONTEXT ( 'configuration controlled 3d designs of mechanical parts and assemblies' ) ;
#41 = ORIENTED_EDGE ( 'NONE', *, *, #192, .F. ) ;
#42 = EDGE_CURVE ( 'NONE', #397, #108, #252, .T. ) ;
#43 = LINE ( 'NONE', #299, #249 ) ;
#44 = EDGE_LOOP ( 'NONE', ( #266, #287, #91, #339 ) ) ;
#45 = DIRECTION ( 'NONE',  ( -0.000000000000000000, -0.000000000000000000, -1.000000000000000000 ) ) ;
#46 = ORIENTED_EDGE ( 'NONE', *, *, #326, .F. ) ;
#47 = DIRECTION ( 'NONE',  ( -1.000000000000000000, 0.000000000000000000, 0.000000000000000000 ) ) ;
#48 = ORIENTED_EDGE ( 'NONE', *, *, #342, .F. ) ;
#49 = MECHANICAL_CONTEXT ( 'NONE', #236, 'mechanical' ) ;
#50 = AXIS2_PLACEMENT_3D ( 'NONE', #364, #45, #11 ) ;
#51 = CIRCLE ( 'NONE', #298, 20.00000000000000000 ) ;
#52 = CIRCLE ( 'NONE', #288, 20.00000000000000000 ) ;
#53 = DIRECTION ( 'NONE',  ( 0.000000000000000000, 0.000000000000000000, 1.000000000000000000 ) ) ;
#54 = APPROVAL_DATE_TIME ( #343, #163 ) ;
#55 = CARTESIAN_POINT ( 'NONE',  ( 18.49999999999999645, 2.265596578422603002E-15, 9.000000000000001776 ) ) ;
#56 = LOCAL_TIME ( 16, 5, 16.00000000000000000, #375 ) ;
#57 = APPROVAL_ROLE ( '' ) ;
#58 = EDGE_LOOP ( 'NONE', ( #372, #408 ) ) ;
#59 = VERTEX_POINT ( 'NONE', #93 ) ;
#60 = DIRECTION ( 'NONE',  ( 1.000000000000000000, 0.000000000000000000, 0.000000000000000000 ) ) ;
#61 = EDGE_CURVE ( 'NONE', #395, #59, #260, .T. ) ;
#62 = CARTESIAN_POINT ( 'NONE',  ( 0.000000000000000000, 0.000000000000000000, 12.00000000000000000 ) ) ;
#63 = FACE_OUTER_BOUND ( 'NONE', #363, .T. ) ;
#64 = VECTOR ( 'NONE', #29, 1000.000000000000000 ) ;
#65 = DIRECTION ( 'NONE',  ( 1.000000000000000000, 0.000000000000000000, 0.000000000000000000 ) ) ;
#66 = AXIS2_PLACEMENT_3D ( 'NONE', #351, #316, #60 ) ;
#67 = CARTESIAN_POINT ( 'NONE',  ( -18.49999999999999645, 0.000000000000000000, -8.602081939942721078 ) ) ;
#68 = CC_DESIGN_PERSON_AND_ORGANIZATION_ASSIGNMENT ( #407, #251, ( #238 ) ) ;
#69 = PLANE ( 'NONE',  #300 ) ;
#70 = CARTESIAN_POINT ( 'NONE',  ( 0.000000000000000000, 0.000000000000000000, 12.00000000000000000 ) ) ;
#71 = VERTEX_POINT ( 'NONE', #215 ) ;
#72 = ADVANCED_FACE ( 'NONE', ( #357 ), #3, .T. ) ;
#73 = DIRECTION ( 'NONE',  ( -1.000000000000000000, 0.000000000000000000, 0.000000000000000000 ) ) ;
#74 = APPROVAL_PERSON_ORGANIZATION ( #210, #118, #57 ) ;
#75 = LINE ( 'NONE', #302, #176 ) ;
#76 = ORIENTED_EDGE ( 'NONE', *, *, #285, .T. ) ;
#77 = AXIS2_PLACEMENT_3D ( 'NONE', #230, #354, #289 ) ;
#78 = DIRECTION ( 'NONE',  ( 1.000000000000000000, 0.000000000000000000, -0.000000000000000000 ) ) ;
#79 = ORIENTED_EDGE ( 'NONE', *, *, #140, .T. ) ;
#80 = CARTESIAN_POINT ( 'NONE',  ( -5.000000000000000000, 0.000000000000000000, 12.00000000000000000 ) ) ;
#81 = EDGE_LOOP ( 'NONE', ( #106, #250, #400, #286 ) ) ;
#82 = EDGE_CURVE ( 'NONE', #373, #71, #353, .T. ) ;
#83 = DESIGN_CONTEXT ( 'detailed design', #40, 'design' ) ;
#84 = CARTESIAN_POINT ( 'NONE',  ( 0.000000000000000000, 0.000000000000000000, 2.999999999999999112 ) ) ;
#85 = APPROVAL_STATUS ( 'not_yet_approved' ) ;
#86 = LINE ( 'NONE', #314, #164 ) ;
#87 = CC_DESIGN_PERSON_AND_ORGANIZATION_ASSIGNMENT ( #283, #181, ( #128 ) ) ;
#88 = UNCERTAINTY_MEASURE_WITH_UNIT (LENGTH_MEASURE( 1.000000000000000082E-05 ), #143, 'distance_accuracy_value', 'NONE');
#89 = PERSON_AND_ORGANIZATION_ROLE ( 'design_owner' ) ;
#90 = CC_DESIGN_APPROVAL ( #382, ( #238 ) ) ;
#91 = ORIENTED_EDGE ( 'NONE', *, *, #403, .F. ) ;
#92 = DATE_AND_TIME ( #315, #218 ) ;
#93 = CARTESIAN_POINT ( 'NONE',  ( -5.000000000000000000, 0.000000000000000000, 12.00000000000000000 ) ) ;
#94 = AXIS2_PLACEMENT_3D ( 'NONE', #141, #401, #113 ) ;
#95 = PLANE ( 'NONE',  #272 ) ;
#96 = AXIS2_PLACEMENT_3D ( 'NONE', #84, #313, #187 ) ;
#97 = DIRECTION ( 'NONE',  ( -0.000000000000000000, -0.000000000000000000, -1.000000000000000000 ) ) ;
#98 = DIRECTION ( 'NONE',  ( 1.000000000000000000, 0.000000000000000000, 0.000000000000000000 ) ) ;
#99 = PRODUCT_DEFINITION ( 'UNKNOWN', '', #128, #83 ) ;
#100 = CYLINDRICAL_SURFACE ( 'NONE', #369, 5.000000000000000000 ) ;
#101 = DIRECTION ( 'NONE',  ( -1.000000000000000000, 0.000000000000000000, 0.000000000000000000 ) ) ;
#102 = DIRECTION ( 'NONE',  ( -1.000000000000000000, 0.000000000000000000, 0.000000000000000000 ) ) ;
#103 = VERTEX_POINT ( 'NONE', #33 ) ;
#104 = ADVANCED_FACE ( 'NONE', ( #161 ), #126, .T. ) ;
#105 = CARTESIAN_POINT ( 'NONE',  ( 0.000000000000000000, 0.000000000000000000, 2.999999999999999112 ) ) ;
#106 = ORIENTED_EDGE ( 'NONE', *, *, #140, .F. ) ;
#107 = CARTESIAN_POINT ( 'NONE',  ( 0.000000000000000000, 0.000000000000000000, 0.000000000000000000 ) ) ;
#108 = VERTEX_POINT ( 'NONE', #261 ) ;
#109 = ORGANIZATION ( 'UNSPECIFIED', 'UNSPECIFIED', '' ) ;
#110 = FACE_BOUND ( 'NONE', #206, .T. ) ;
#111 = ORIENTED_EDGE ( 'NONE', *, *, #294, .T. ) ;
#112 = EDGE_CURVE ( 'NONE', #71, #108, #228, .T. ) ;
#113 = DIRECTION ( 'NONE',  ( -1.000000000000000000, 0.000000000000000000, 0.000000000000000000 ) ) ;
#114 = CALENDAR_DATE ( 2026, 23, 7 ) ;
#115 = EDGE_LOOP ( 'NONE', ( #46, #154, #330, #182 ) ) ;
#116 = DATE_TIME_ROLE ( 'creation_date' ) ;
#117 = ORIENTED_EDGE ( 'NONE', *, *, #82, .F. ) ;
#118 = APPROVAL ( #278, 'UNSPECIFIED' ) ;
#119 = AXIS2_PLACEMENT_3D ( 'NONE', #167, #204, #295 ) ;
#120 =( NAMED_UNIT ( * ) SI_UNIT ( $, .STERADIAN. ) SOLID_ANGLE_UNIT ( ) );
#121 = DIRECTION ( 'NONE',  ( -1.000000000000000000, 0.000000000000000000, 0.000000000000000000 ) ) ;
#122 = VERTEX_POINT ( 'NONE', #166 ) ;
#123 = ORIENTED_EDGE ( 'NONE', *, *, #337, .T. ) ;
#124 = VECTOR ( 'NONE', #270, 1000.000000000000000 ) ;
#125 = DIRECTION ( 'NONE',  ( 0.000000000000000000, 0.000000000000000000, 1.000000000000000000 ) ) ;
#126 = CYLINDRICAL_SURFACE ( 'NONE', #159, 20.00000000000000000 ) ;
#127 = CC_DESIGN_APPROVAL ( #163, ( #128 ) ) ;
#128 = PRODUCT_DEFINITION_FORMATION_WITH_SPECIFIED_SOURCE ( 'ANY', '', #137, .NOT_KNOWN. ) ;
#129 = DIRECTION ( 'NONE',  ( -0.000000000000000000, -0.000000000000000000, -1.000000000000000000 ) ) ;
#130 = CC_DESIGN_DATE_AND_TIME_ASSIGNMENT ( #281, #116, ( #99 ) ) ;
#131 = DIRECTION ( 'NONE',  ( -1.000000000000000000, 0.000000000000000000, 0.000000000000000000 ) ) ;
#132 = CARTESIAN_POINT ( 'NONE',  ( 0.000000000000000000, 0.000000000000000000, 12.00000000000000000 ) ) ;
#133 = EDGE_CURVE ( 'NONE', #397, #373, #361, .T. ) ;
#134 = CARTESIAN_POINT ( 'NONE',  ( -20.00000000000000000, 0.000000000000000000, 12.00000000000000000 ) ) ;
#135 = DIRECTION ( 'NONE',  ( -0.000000000000000000, -0.000000000000000000, -1.000000000000000000 ) ) ;
#136 = CIRCLE ( 'NONE', #119, 20.00000000000000000 ) ;
#137 = PRODUCT ( 'Pulley40mm_Default_sldprt', 'Pulley40mm_Default_sldprt', '', ( #49 ) ) ;
#138 = FACE_OUTER_BOUND ( 'NONE', #184, .T. ) ;
#139 = DIRECTION ( 'NONE',  ( -1.000000000000000000, 0.000000000000000000, 0.000000000000000000 ) ) ;
#140 = EDGE_CURVE ( 'NONE', #395, #303, #359, .T. ) ;
#141 = CARTESIAN_POINT ( 'NONE',  ( 0.000000000000000000, 0.000000000000000000, 9.000000000000001776 ) ) ;
#142 = ORIENTED_EDGE ( 'NONE', *, *, #42, .F. ) ;
#143 =( LENGTH_UNIT ( ) NAMED_UNIT ( * ) SI_UNIT ( .MILLI., .METRE. ) );
#144 = EDGE_LOOP ( 'NONE', ( #282, #48 ) ) ;
#145 = COORDINATED_UNIVERSAL_TIME_OFFSET ( 3, 30, .AHEAD. ) ;
#146 = ADVANCED_FACE ( 'NONE', ( #257, #291 ), #69, .F. ) ;
#147 = VERTEX_POINT ( 'NONE', #156 ) ;
#148 = PRODUCT_DEFINITION_SHAPE ( 'NONE', 'NONE',  #99 ) ;
#149 = SECURITY_CLASSIFICATION_LEVEL ( 'unclassified' ) ;
#150 = AXIS2_PLACEMENT_3D ( 'NONE', #70, #173, #334 ) ;
#151 = DIRECTION ( 'NONE',  ( -0.000000000000000000, -0.000000000000000000, -1.000000000000000000 ) ) ;
#152 = CIRCLE ( 'NONE', #77, 20.00000000000000000 ) ;
#153 = ORIENTED_EDGE ( 'NONE', *, *, #403, .T. ) ;
#154 = ORIENTED_EDGE ( 'NONE', *, *, #6, .T. ) ;
#155 = ADVANCED_FACE ( 'NONE', ( #63, #324 ), #165, .F. ) ;
#156 = CARTESIAN_POINT ( 'NONE',  ( 20.00000000000000000, 2.449293598294706513E-15, 9.000000000000001776 ) ) ;
#157 = AXIS2_PLACEMENT_3D ( 'NONE', #392, #273, #102 ) ;
#158 = CIRCLE ( 'NONE', #94, 20.00000000000000000 ) ;
#159 = AXIS2_PLACEMENT_3D ( 'NONE', #132, #231, #198 ) ;
#160 =( GEOMETRIC_REPRESENTATION_CONTEXT ( 3 ) GLOBAL_UNCERTAINTY_ASSIGNED_CONTEXT ( ( #88 ) ) GLOBAL_UNIT_ASSIGNED_CONTEXT ( ( #143, #405, #120 ) ) REPRESENTATION_CONTEXT ( 'NONE', 'WORKASPACE' ) );
#161 = FACE_OUTER_BOUND ( 'NONE', #383, .T. ) ;
#162 = DIRECTION ( 'NONE',  ( 0.000000000000000000, 0.000000000000000000, 1.000000000000000000 ) ) ;
#163 = APPROVAL ( #85, 'UNSPECIFIED' ) ;
#164 = VECTOR ( 'NONE', #151, 1000.000000000000000 ) ;
#165 = PLANE ( 'NONE',  #335 ) ;
#166 = CARTESIAN_POINT ( 'NONE',  ( -5.000000000000000000, 0.000000000000000000, 0.000000000000000000 ) ) ;
#167 = CARTESIAN_POINT ( 'NONE',  ( 0.000000000000000000, 0.000000000000000000, 12.00000000000000000 ) ) ;
#168 = CYLINDRICAL_SURFACE ( 'NONE', #150, 20.00000000000000000 ) ;
#169 = CARTESIAN_POINT ( 'NONE',  ( 0.000000000000000000, 0.000000000000000000, 0.000000000000000000 ) ) ;
#170 = DIRECTION ( 'NONE',  ( -0.000000000000000000, -0.000000000000000000, -1.000000000000000000 ) ) ;
#171 = ORIENTED_EDGE ( 'NONE', *, *, #317, .F. ) ;
#172 = CLOSED_SHELL ( 'NONE', ( #225, #352, #21, #269, #374, #10, #263, #104, #203, #146, #72, #155 ) ) ;
#173 = DIRECTION ( 'NONE',  ( -0.000000000000000000, -0.000000000000000000, -1.000000000000000000 ) ) ;
#174 = ORIENTED_EDGE ( 'NONE', *, *, #133, .F. ) ;
#175 = EDGE_LOOP ( 'NONE', ( #256, #347, #406, #237 ) ) ;
#176 = VECTOR ( 'NONE', #39, 1000.000000000000000 ) ;
#177 = AXIS2_PLACEMENT_3D ( 'NONE', #214, #308, #345 ) ;
#178 = EDGE_CURVE ( 'NONE', #303, #122, #355, .T. ) ;
#179 = CALENDAR_DATE ( 2026, 23, 7 ) ;
#180 = CARTESIAN_POINT ( 'NONE',  ( 18.49999999999999645, 2.265596578422603002E-15, 2.999999999999999112 ) ) ;
#181 = PERSON_AND_ORGANIZATION_ROLE ( 'creator' ) ;
#182 = ORIENTED_EDGE ( 'NONE', *, *, #360, .F. ) ;
#183 = DATE_AND_TIME ( #114, #311 ) ;
#184 = EDGE_LOOP ( 'NONE', ( #309, #208 ) ) ;
#185 = VECTOR ( 'NONE', #5, 1000.000000000000000 ) ;
#186 = PERSON_AND_ORGANIZATION_ROLE ( 'design_supplier' ) ;
#187 = DIRECTION ( 'NONE',  ( -1.000000000000000000, 0.000000000000000000, 0.000000000000000000 ) ) ;
#188 = DATE_AND_TIME ( #30, #209 ) ;
#189 = DIRECTION ( 'NONE',  ( -0.000000000000000000, -0.000000000000000000, -1.000000000000000000 ) ) ;
#190 = APPROVAL_STATUS ( 'not_yet_approved' ) ;
#191 = DIRECTION ( 'NONE',  ( -0.000000000000000000, -0.000000000000000000, -1.000000000000000000 ) ) ;
#192 = EDGE_CURVE ( 'NONE', #274, #376, #152, .T. ) ;
#193 = CIRCLE ( 'NONE', #14, 18.49999999999999645 ) ;
#194 = CYLINDRICAL_SURFACE ( 'NONE', #213, 18.49999999999999645 ) ;
#195 = DIRECTION ( 'NONE',  ( -0.000000000000000000, -0.000000000000000000, -1.000000000000000000 ) ) ;
#196 = PERSON_AND_ORGANIZATION ( #7, #109 ) ;
#197 = FACE_OUTER_BOUND ( 'NONE', #44, .T. ) ;
#198 = DIRECTION ( 'NONE',  ( -1.000000000000000000, 0.000000000000000000, 0.000000000000000000 ) ) ;
#199 = FACE_OUTER_BOUND ( 'NONE', #115, .T. ) ;
#200 = ORIENTED_EDGE ( 'NONE', *, *, #296, .F. ) ;
#201 = VECTOR ( 'NONE', #27, 1000.000000000000000 ) ;
#202 = DIRECTION ( 'NONE',  ( 0.000000000000000000, 0.000000000000000000, 1.000000000000000000 ) ) ;
#203 = ADVANCED_FACE ( 'NONE', ( #229 ), #100, .F. ) ;
#204 = DIRECTION ( 'NONE',  ( 0.000000000000000000, 0.000000000000000000, 1.000000000000000000 ) ) ;
#205 = AXIS2_PLACEMENT_3D ( 'NONE', #169, #202, #78 ) ;
#206 = EDGE_LOOP ( 'NONE', ( #76, #25 ) ) ;
#207 = CYLINDRICAL_SURFACE ( 'NONE', #276, 20.00000000000000000 ) ;
#208 = ORIENTED_EDGE ( 'NONE', *, *, #356, .F. ) ;
#209 = LOCAL_TIME ( 16, 5, 16.00000000000000000, #290 ) ;
#210 = PERSON_AND_ORGANIZATION ( #7, #109 ) ;
#211 = VERTEX_POINT ( 'NONE', #358 ) ;
#212 = EDGE_CURVE ( 'NONE', #24, #211, #321, .T. ) ;
#213 = AXIS2_PLACEMENT_3D ( 'NONE', #8, #129, #327 ) ;
#214 = CARTESIAN_POINT ( 'NONE',  ( 0.000000000000000000, 0.000000000000000000, 0.000000000000000000 ) ) ;
#215 = CARTESIAN_POINT ( 'NONE',  ( -20.00000000000000000, 0.000000000000000000, 0.000000000000000000 ) ) ;
#216 = CALENDAR_DATE ( 2026, 23, 7 ) ;
#217 = CYLINDRICAL_SURFACE ( 'NONE', #38, 20.00000000000000000 ) ;
#218 = LOCAL_TIME ( 16, 5, 16.00000000000000000, #253 ) ;
#219 = ORIENTED_EDGE ( 'NONE', *, *, #285, .F. ) ;
#220 = PERSON_AND_ORGANIZATION ( #7, #109 ) ;
#221 = ORIENTED_EDGE ( 'NONE', *, *, #356, .T. ) ;
#222 = AXIS2_PLACEMENT_3D ( 'NONE', #9, #162, #98 ) ;
#223 = CARTESIAN_POINT ( 'NONE',  ( 20.00000000000000000, 2.449293598294706513E-15, 12.00000000000000000 ) ) ;
#224 = CARTESIAN_POINT ( 'NONE',  ( 0.000000000000000000, 0.000000000000000000, 0.000000000000000000 ) ) ;
#225 = ADVANCED_FACE ( 'NONE', ( #197 ), #194, .T. ) ;
#226 = DIRECTION ( 'NONE',  ( -1.000000000000000000, 0.000000000000000000, 0.000000000000000000 ) ) ;
#227 = APPROVAL_DATE_TIME ( #188, #382 ) ;
#228 = CIRCLE ( 'NONE', #222, 20.00000000000000000 ) ;
#229 = FACE_OUTER_BOUND ( 'NONE', #81, .T. ) ;
#230 = CARTESIAN_POINT ( 'NONE',  ( 0.000000000000000000, 0.000000000000000000, 12.00000000000000000 ) ) ;
#231 = DIRECTION ( 'NONE',  ( -0.000000000000000000, -0.000000000000000000, -1.000000000000000000 ) ) ;
#232 = CARTESIAN_POINT ( 'NONE',  ( 0.000000000000000000, 0.000000000000000000, 12.00000000000000000 ) ) ;
#233 = AXIS2_PLACEMENT_3D ( 'NONE', #292, #97, #131 ) ;
#234 = ORIENTED_EDGE ( 'NONE', *, *, #360, .T. ) ;
#235 = CARTESIAN_POINT ( 'NONE',  ( 5.000000000000000000, 6.123233995736766282E-16, 12.00000000000000000 ) ) ;
#236 = APPLICATION_CONTEXT ( 'configuration controlled 3d designs of mechanical parts and assemblies' ) ;
#237 = ORIENTED_EDGE ( 'NONE', *, *, #31, .F. ) ;
#238 = SECURITY_CLASSIFICATION ( '', '', #149 ) ;
#239 = APPROVAL_PERSON_ORGANIZATION ( #220, #163, #379 ) ;
#240 = DIRECTION ( 'NONE',  ( 0.000000000000000000, 0.000000000000000000, 1.000000000000000000 ) ) ;
#241 = ORIENTED_EDGE ( 'NONE', *, *, #387, .F. ) ;
#242 = FACE_OUTER_BOUND ( 'NONE', #301, .T. ) ;
#243 = EDGE_LOOP ( 'NONE', ( #393, #41, #234, #377 ) ) ;
#244 = DIRECTION ( 'NONE',  ( 0.000000000000000000, 0.000000000000000000, 1.000000000000000000 ) ) ;
#245 = ORIENTED_EDGE ( 'NONE', *, *, #387, .T. ) ;
#246 = CC_DESIGN_SECURITY_CLASSIFICATION ( #238, ( #128 ) ) ;
#247 = PERSON_AND_ORGANIZATION_ROLE ( 'creator' ) ;
#248 = CARTESIAN_POINT ( 'NONE',  ( 0.000000000000000000, 0.000000000000000000, 12.00000000000000000 ) ) ;
#249 = VECTOR ( 'NONE', #362, 1000.000000000000000 ) ;
#250 = ORIENTED_EDGE ( 'NONE', *, *, #61, .T. ) ;
#251 = PERSON_AND_ORGANIZATION_ROLE ( 'classification_officer' ) ;
#252 = LINE ( 'NONE', #223, #201 ) ;
#253 = COORDINATED_UNIVERSAL_TIME_OFFSET ( 3, 30, .AHEAD. ) ;
#254 = EDGE_LOOP ( 'NONE', ( #241, #2 ) ) ;
#255 = PERSON_AND_ORGANIZATION ( #7, #109 ) ;
#256 = ORIENTED_EDGE ( 'NONE', *, *, #312, .F. ) ;
#257 = FACE_BOUND ( 'NONE', #144, .T. ) ;
#258 = EDGE_CURVE ( 'NONE', #24, #23, #350, .T. ) ;
#259 = CARTESIAN_POINT ( 'NONE',  ( 5.000000000000000000, 6.123233995736766282E-16, 12.00000000000000000 ) ) ;
#260 = CIRCLE ( 'NONE', #66, 5.000000000000000000 ) ;
#261 = CARTESIAN_POINT ( 'NONE',  ( 20.00000000000000000, 2.449293598294706513E-15, 0.000000000000000000 ) ) ;
#262 = DIRECTION ( 'NONE',  ( -1.000000000000000000, 0.000000000000000000, 0.000000000000000000 ) ) ;
#263 = ADVANCED_FACE ( 'NONE', ( #138, #110 ), #371, .F. ) ;
#264 = CARTESIAN_POINT ( 'NONE',  ( 0.000000000000000000, 0.000000000000000000, -8.602081939942721078 ) ) ;
#265 = LINE ( 'NONE', #80, #124 ) ;
#266 = ORIENTED_EDGE ( 'NONE', *, *, #258, .T. ) ;
#267 = AXIS2_PLACEMENT_3D ( 'NONE', #399, #240, #336 ) ;
#268 = CARTESIAN_POINT ( 'NONE',  ( 20.00000000000000000, 2.449293598294706513E-15, 12.00000000000000000 ) ) ;
#269 = ADVANCED_FACE ( 'NONE', ( #199 ), #207, .T. ) ;
#270 = DIRECTION ( 'NONE',  ( -0.000000000000000000, -0.000000000000000000, -1.000000000000000000 ) ) ;
#271 = APPROVAL_PERSON_ORGANIZATION ( #196, #382, #320 ) ;
#272 = AXIS2_PLACEMENT_3D ( 'NONE', #248, #53, #380 ) ;
#273 = DIRECTION ( 'NONE',  ( -0.000000000000000000, -0.000000000000000000, -1.000000000000000000 ) ) ;
#274 = VERTEX_POINT ( 'NONE', #134 ) ;
#275 = DIRECTION ( 'NONE',  ( 1.000000000000000000, 0.000000000000000000, 0.000000000000000000 ) ) ;
#276 = AXIS2_PLACEMENT_3D ( 'NONE', #232, #332, #329 ) ;
#277 = CC_DESIGN_PERSON_AND_ORGANIZATION_ASSIGNMENT ( #255, #89, ( #137 ) ) ;
#278 = APPROVAL_STATUS ( 'not_yet_approved' ) ;
#279 = ORIENTED_EDGE ( 'NONE', *, *, #133, .T. ) ;
#280 = AXIS2_PLACEMENT_3D ( 'NONE', #264, #390, #101 ) ;
#281 = DATE_AND_TIME ( #179, #346 ) ;
#282 = ORIENTED_EDGE ( 'NONE', *, *, #258, .F. ) ;
#283 = PERSON_AND_ORGANIZATION ( #7, #109 ) ;
#284 = FACE_OUTER_BOUND ( 'NONE', #58, .T. ) ;
#285 = EDGE_CURVE ( 'NONE', #122, #303, #367, .T. ) ;
#286 = ORIENTED_EDGE ( 'NONE', *, *, #178, .F. ) ;
#287 = ORIENTED_EDGE ( 'NONE', *, *, #312, .T. ) ;
#288 = AXIS2_PLACEMENT_3D ( 'NONE', #396, #135, #394 ) ;
#289 = DIRECTION ( 'NONE',  ( 1.000000000000000000, 0.000000000000000000, 0.000000000000000000 ) ) ;
#290 = COORDINATED_UNIVERSAL_TIME_OFFSET ( 3, 30, .AHEAD. ) ;
#291 = FACE_OUTER_BOUND ( 'NONE', #28, .T. ) ;
#292 = CARTESIAN_POINT ( 'NONE',  ( 0.000000000000000000, 0.000000000000000000, 2.999999999999999112 ) ) ;
#293 = DIRECTION ( 'NONE',  ( -0.000000000000000000, 0.000000000000000000, -1.000000000000000000 ) ) ;
#294 = EDGE_CURVE ( 'NONE', #103, #147, #158, .T. ) ;
#295 = DIRECTION ( 'NONE',  ( 1.000000000000000000, 0.000000000000000000, 0.000000000000000000 ) ) ;
#296 = EDGE_CURVE ( 'NONE', #59, #122, #265, .T. ) ;
#297 = CARTESIAN_POINT ( 'NONE',  ( 5.000000000000000000, 6.123233995736766282E-16, 0.000000000000000000 ) ) ;
#298 = AXIS2_PLACEMENT_3D ( 'NONE', #328, #37, #47 ) ;
#299 = CARTESIAN_POINT ( 'NONE',  ( -20.00000000000000000, 0.000000000000000000, 12.00000000000000000 ) ) ;
#300 = AXIS2_PLACEMENT_3D ( 'NONE', #325, #125, #34 ) ;
#301 = EDGE_LOOP ( 'NONE', ( #245, #79, #219, #200 ) ) ;
#302 = CARTESIAN_POINT ( 'NONE',  ( 18.49999999999999645, 2.265596578422603002E-15, -8.602081939942721078 ) ) ;
#303 = VERTEX_POINT ( 'NONE', #297 ) ;
#304 = VECTOR ( 'NONE', #195, 1000.000000000000000 ) ;
#305 = DIRECTION ( 'NONE',  ( 1.000000000000000000, 0.000000000000000000, 0.000000000000000000 ) ) ;
#306 = ORIENTED_EDGE ( 'NONE', *, *, #82, .T. ) ;
#307 = PRODUCT_RELATED_PRODUCT_CATEGORY ( 'detail', '', ( #137 ) ) ;
#308 = DIRECTION ( 'NONE',  ( 0.000000000000000000, 0.000000000000000000, 1.000000000000000000 ) ) ;
#309 = ORIENTED_EDGE ( 'NONE', *, *, #112, .F. ) ;
#310 = PERSON_AND_ORGANIZATION ( #7, #109 ) ;
#311 = LOCAL_TIME ( 16, 5, 16.00000000000000000, #145 ) ;
#312 = EDGE_CURVE ( 'NONE', #23, #20, #75, .T. ) ;
#313 = DIRECTION ( 'NONE',  ( -0.000000000000000000, -0.000000000000000000, -1.000000000000000000 ) ) ;
#314 = CARTESIAN_POINT ( 'NONE',  ( 20.00000000000000000, 2.449293598294706513E-15, 12.00000000000000000 ) ) ;
#315 = CALENDAR_DATE ( 2026, 23, 7 ) ;
#316 = DIRECTION ( 'NONE',  ( 0.000000000000000000, 0.000000000000000000, 1.000000000000000000 ) ) ;
#317 = EDGE_CURVE ( 'NONE', #373, #397, #51, .T. ) ;
#318 = MANIFOLD_SOLID_BREP ( 'Cut-Revolve1', #172 ) ;
#319 = ORIENTED_EDGE ( 'NONE', *, *, #31, .T. ) ;
#320 = APPROVAL_ROLE ( '' ) ;
#321 = LINE ( 'NONE', #67, #185 ) ;
#322 = AXIS2_PLACEMENT_3D ( 'NONE', #107, #244, #275 ) ;
#323 = AXIS2_PLACEMENT_3D ( 'NONE', #15, #12, #305 ) ;
#324 = FACE_BOUND ( 'NONE', #341, .T. ) ;
#325 = CARTESIAN_POINT ( 'NONE',  ( -20.00000000000000000, 0.000000000000000000, 9.000000000000001776 ) ) ;
#326 = EDGE_CURVE ( 'NONE', #376, #274, #136, .T. ) ;
#327 = DIRECTION ( 'NONE',  ( -1.000000000000000000, 0.000000000000000000, 0.000000000000000000 ) ) ;
#328 = CARTESIAN_POINT ( 'NONE',  ( 0.000000000000000000, 0.000000000000000000, 2.999999999999999112 ) ) ;
#329 = DIRECTION ( 'NONE',  ( -1.000000000000000000, 0.000000000000000000, 0.000000000000000000 ) ) ;
#330 = ORIENTED_EDGE ( 'NONE', *, *, #294, .F. ) ;
#331 = CIRCLE ( 'NONE', #96, 18.49999999999999645 ) ;
#332 = DIRECTION ( 'NONE',  ( -0.000000000000000000, -0.000000000000000000, -1.000000000000000000 ) ) ;
#333 = CIRCLE ( 'NONE', #323, 5.000000000000000000 ) ;
#334 = DIRECTION ( 'NONE',  ( -1.000000000000000000, 0.000000000000000000, 0.000000000000000000 ) ) ;
#335 = AXIS2_PLACEMENT_3D ( 'NONE', #384, #293, #226 ) ;
#336 = DIRECTION ( 'NONE',  ( 1.000000000000000000, 0.000000000000000000, 0.000000000000000000 ) ) ;
#337 = EDGE_CURVE ( 'NONE', #147, #103, #52, .T. ) ;
#338 = APPROVAL_DATE_TIME ( #183, #118 ) ;
#339 = ORIENTED_EDGE ( 'NONE', *, *, #212, .F. ) ;
#340 = COORDINATED_UNIVERSAL_TIME_OFFSET ( 3, 30, .AHEAD. ) ;
#341 = EDGE_LOOP ( 'NONE', ( #153, #319 ) ) ;
#342 = EDGE_CURVE ( 'NONE', #23, #24, #348, .T. ) ;
#343 = DATE_AND_TIME ( #216, #56 ) ;
#344 = CARTESIAN_POINT ( 'NONE',  ( 0.000000000000000000, 0.000000000000000000, 12.00000000000000000 ) ) ;
#345 = DIRECTION ( 'NONE',  ( 1.000000000000000000, 0.000000000000000000, 0.000000000000000000 ) ) ;
#346 = LOCAL_TIME ( 16, 5, 16.00000000000000000, #340 ) ;
#347 = ORIENTED_EDGE ( 'NONE', *, *, #342, .T. ) ;
#348 = CIRCLE ( 'NONE', #50, 18.49999999999999645 ) ;
#349 = FACE_OUTER_BOUND ( 'NONE', #366, .T. ) ;
#350 = CIRCLE ( 'NONE', #32, 18.49999999999999645 ) ;
#351 = CARTESIAN_POINT ( 'NONE',  ( 0.000000000000000000, 0.000000000000000000, 12.00000000000000000 ) ) ;
#352 = ADVANCED_FACE ( 'NONE', ( #242 ), #17, .F. ) ;
#353 = LINE ( 'NONE', #386, #304 ) ;
#354 = DIRECTION ( 'NONE',  ( 0.000000000000000000, 0.000000000000000000, 1.000000000000000000 ) ) ;
#355 = CIRCLE ( 'NONE', #26, 5.000000000000000000 ) ;
#356 = EDGE_CURVE ( 'NONE', #108, #71, #391, .T. ) ;
#357 = FACE_OUTER_BOUND ( 'NONE', #175, .T. ) ;
#358 = CARTESIAN_POINT ( 'NONE',  ( -18.49999999999999645, 0.000000000000000000, 2.999999999999999112 ) ) ;
#359 = LINE ( 'NONE', #259, #64 ) ;
#360 = EDGE_CURVE ( 'NONE', #274, #103, #43, .T. ) ;
#361 = CIRCLE ( 'NONE', #233, 20.00000000000000000 ) ;
#362 = DIRECTION ( 'NONE',  ( -0.000000000000000000, -0.000000000000000000, -1.000000000000000000 ) ) ;
#363 = EDGE_LOOP ( 'NONE', ( #171, #174 ) ) ;
#364 = CARTESIAN_POINT ( 'NONE',  ( 0.000000000000000000, 0.000000000000000000, 9.000000000000001776 ) ) ;
#365 = FACE_OUTER_BOUND ( 'NONE', #243, .T. ) ;
#366 = EDGE_LOOP ( 'NONE', ( #370, #13, #221, #117 ) ) ;
#367 = CIRCLE ( 'NONE', #322, 5.000000000000000000 ) ;
#368 = CARTESIAN_POINT ( 'NONE',  ( -20.00000000000000000, 0.000000000000000000, 2.999999999999999112 ) ) ;
#369 = AXIS2_PLACEMENT_3D ( 'NONE', #62, #191, #262 ) ;
#370 = ORIENTED_EDGE ( 'NONE', *, *, #317, .T. ) ;
#371 = PLANE ( 'NONE',  #205 ) ;
#372 = ORIENTED_EDGE ( 'NONE', *, *, #192, .T. ) ;
#373 = VERTEX_POINT ( 'NONE', #368 ) ;
#374 = ADVANCED_FACE ( 'NONE', ( #365 ), #168, .T. ) ;
#375 = COORDINATED_UNIVERSAL_TIME_OFFSET ( 3, 30, .AHEAD. ) ;
#376 = VERTEX_POINT ( 'NONE', #268 ) ;
#377 = ORIENTED_EDGE ( 'NONE', *, *, #337, .F. ) ;
#378 = ADVANCED_BREP_SHAPE_REPRESENTATION ( 'Pulley40mm_Default_sldprt', ( #318, #177 ), #160 ) ;
#379 = APPROVAL_ROLE ( '' ) ;
#380 = DIRECTION ( 'NONE',  ( 1.000000000000000000, 0.000000000000000000, -0.000000000000000000 ) ) ;
#381 = APPLICATION_PROTOCOL_DEFINITION ( 'international standard', 'config_control_design', 1994, #40 ) ;
#382 = APPROVAL ( #190, 'UNSPECIFIED' ) ;
#383 = EDGE_LOOP ( 'NONE', ( #142, #279, #306, #18 ) ) ;
#384 = CARTESIAN_POINT ( 'NONE',  ( -20.00000000000000000, 0.000000000000000000, 3.000000000000000000 ) ) ;
#385 = DATE_TIME_ROLE ( 'classification_date' ) ;
#386 = CARTESIAN_POINT ( 'NONE',  ( -20.00000000000000000, 0.000000000000000000, 12.00000000000000000 ) ) ;
#387 = EDGE_CURVE ( 'NONE', #59, #395, #333, .T. ) ;
#388 = CARTESIAN_POINT ( 'NONE',  ( 0.000000000000000000, 0.000000000000000000, 9.000000000000001776 ) ) ;
#389 = DIRECTION ( 'NONE',  ( 0.000000000000000000, 0.000000000000000000, 1.000000000000000000 ) ) ;
#390 = DIRECTION ( 'NONE',  ( -0.000000000000000000, -0.000000000000000000, -1.000000000000000000 ) ) ;
#391 = CIRCLE ( 'NONE', #267, 20.00000000000000000 ) ;
#392 = CARTESIAN_POINT ( 'NONE',  ( 0.000000000000000000, 0.000000000000000000, 12.00000000000000000 ) ) ;
#393 = ORIENTED_EDGE ( 'NONE', *, *, #6, .F. ) ;
#394 = DIRECTION ( 'NONE',  ( -1.000000000000000000, 0.000000000000000000, 0.000000000000000000 ) ) ;
#395 = VERTEX_POINT ( 'NONE', #235 ) ;
#396 = CARTESIAN_POINT ( 'NONE',  ( 0.000000000000000000, 0.000000000000000000, 9.000000000000001776 ) ) ;
#397 = VERTEX_POINT ( 'NONE', #19 ) ;
#398 = CC_DESIGN_APPROVAL ( #118, ( #99 ) ) ;
#399 = CARTESIAN_POINT ( 'NONE',  ( 0.000000000000000000, 0.000000000000000000, 0.000000000000000000 ) ) ;
#400 = ORIENTED_EDGE ( 'NONE', *, *, #296, .T. ) ;
#401 = DIRECTION ( 'NONE',  ( -0.000000000000000000, -0.000000000000000000, -1.000000000000000000 ) ) ;
#402 = PERSON_AND_ORGANIZATION ( #7, #109 ) ;
#403 = EDGE_CURVE ( 'NONE', #211, #20, #193, .T. ) ;
#404 = FACE_BOUND ( 'NONE', #254, .T. ) ;
#405 =( NAMED_UNIT ( * ) PLANE_ANGLE_UNIT ( ) SI_UNIT ( $, .RADIAN. ) );
#406 = ORIENTED_EDGE ( 'NONE', *, *, #212, .T. ) ;
#407 = PERSON_AND_ORGANIZATION ( #7, #109 ) ;
#408 = ORIENTED_EDGE ( 'NONE', *, *, #326, .T. ) ;
#409 = CARTESIAN_POINT ( 'NONE',  ( -18.49999999999999645, 0.000000000000000000, 9.000000000000001776 ) ) ;
ENDSEC;
END-ISO-10303-21;
