ISO-10303-21;
HEADER;
FILE_DESCRIPTION (( 'STEP AP203' ),
    '1' );
FILE_NAME ('BasePlate_Default_sldprt.STEP',
    '2026-07-23T12:34:41',
    ( '' ),
    ( '' ),
    'SwSTEP 2.0',
    'SolidWorks 2025',
    '' );
FILE_SCHEMA (( 'CONFIG_CONTROL_DESIGN' ));
ENDSEC;

DATA;
#1 = PLANE ( 'NONE',  #181 ) ;
#2 = ORIENTED_EDGE ( 'NONE', *, *, #414, .F. ) ;
#3 = EDGE_CURVE ( 'NONE', #4, #591, #227, .T. ) ;
#4 = VERTEX_POINT ( 'NONE', #440 ) ;
#5 = LINE ( 'NONE', #188, #95 ) ;
#6 = LINE ( 'NONE', #563, #633 ) ;
#7 = ORIENTED_EDGE ( 'NONE', *, *, #545, .F. ) ;
#8 = CARTESIAN_POINT ( 'NONE',  ( -627.0000000000000000, 20.00000000000001776, 75.00000000000000000 ) ) ;
#9 = AXIS2_PLACEMENT_3D ( 'NONE', #401, #471, #573 ) ;
#10 = FACE_OUTER_BOUND ( 'NONE', #140, .T. ) ;
#11 = PRODUCT ( 'BasePlate_Default_sldprt', 'BasePlate_Default_sldprt', '', ( #626 ) ) ;
#12 = VERTEX_POINT ( 'NONE', #713 ) ;
#13 = LINE ( 'NONE', #8, #163 ) ;
#14 = FACE_OUTER_BOUND ( 'NONE', #305, .T. ) ;
#15 = ORIENTED_EDGE ( 'NONE', *, *, #458, .F. ) ;
#16 = PLANE ( 'NONE',  #657 ) ;
#17 = CARTESIAN_POINT ( 'NONE',  ( -139.9999999999999147, 20.00000000000001776, -125.0000000000000568 ) ) ;
#18 = FACE_OUTER_BOUND ( 'NONE', #35, .T. ) ;
#19 = CARTESIAN_POINT ( 'NONE',  ( -847.0000000000001137, 0.000000000000000000, -75.00000000000001421 ) ) ;
#20 = AXIS2_PLACEMENT_3D ( 'NONE', #186, #451, #507 ) ;
#21 =( LENGTH_UNIT ( ) NAMED_UNIT ( * ) SI_UNIT ( .MILLI., .METRE. ) );
#22 = FACE_BOUND ( 'NONE', #383, .T. ) ;
#23 = APPROVAL_ROLE ( '' ) ;
#24 = CARTESIAN_POINT ( 'NONE',  ( -139.9999999999999147, 20.00000000000001776, 125.0000000000000000 ) ) ;
#25 = LINE ( 'NONE', #256, #438 ) ;
#26 = DIRECTION ( 'NONE',  ( 0.000000000000000000, 0.000000000000000000, -1.000000000000000000 ) ) ;
#27 = EDGE_LOOP ( 'NONE', ( #223, #243, #109, #373 ) ) ;
#28 = AXIS2_PLACEMENT_3D ( 'NONE', #617, #241, #621 ) ;
#29 = DIRECTION ( 'NONE',  ( -1.000000000000000000, 0.000000000000000000, -0.000000000000000000 ) ) ;
#30 = EDGE_CURVE ( 'NONE', #461, #484, #316, .T. ) ;
#31 = CARTESIAN_POINT ( 'NONE',  ( -960.0000000000000000, 20.00000000000000000, 45.00000000000023448 ) ) ;
#32 = VECTOR ( 'NONE', #477, 1000.000000000000000 ) ;
#33 = CARTESIAN_POINT ( 'NONE',  ( -860.0000000000000000, 0.000000000000000000, 45.00000000000018474 ) ) ;
#34 = CARTESIAN_POINT ( 'NONE',  ( -827.0000000000001137, 0.000000000000000000, 75.00000000000000000 ) ) ;
#35 = EDGE_LOOP ( 'NONE', ( #129, #552, #590, #659 ) ) ;
#36 = DIRECTION ( 'NONE',  ( 0.000000000000000000, 0.000000000000000000, -1.000000000000000000 ) ) ;
#37 = CARTESIAN_POINT ( 'NONE',  ( -119.9999999999999147, 0.000000000000000000, 125.0000000000000000 ) ) ;
#38 = ORIENTED_EDGE ( 'NONE', *, *, #229, .F. ) ;
#39 = FACE_OUTER_BOUND ( 'NONE', #646, .T. ) ;
#40 = ORIENTED_EDGE ( 'NONE', *, *, #434, .T. ) ;
#41 = EDGE_CURVE ( 'NONE', #435, #495, #433, .T. ) ;
#42 = LINE ( 'NONE', #644, #397 ) ;
#43 = ORIENTED_EDGE ( 'NONE', *, *, #280, .F. ) ;
#44 = VECTOR ( 'NONE', #304, 1000.000000000000000 ) ;
#45 = ORIENTED_EDGE ( 'NONE', *, *, #703, .F. ) ;
#46 = LINE ( 'NONE', #343, #66 ) ;
#47 = ADVANCED_FACE ( 'NONE', ( #378 ), #482, .F. ) ;
#48 = EDGE_LOOP ( 'NONE', ( #258, #56, #89, #247 ) ) ;
#49 = ORIENTED_EDGE ( 'NONE', *, *, #30, .T. ) ;
#50 = FACE_OUTER_BOUND ( 'NONE', #374, .T. ) ;
#51 = CARTESIAN_POINT ( 'NONE',  ( -139.9999999999999147, 0.000000000000000000, -125.0000000000000000 ) ) ;
#52 = VECTOR ( 'NONE', #101, 1000.000000000000000 ) ;
#53 = EDGE_LOOP ( 'NONE', ( #702, #49, #413, #529 ) ) ;
#54 = DIRECTION ( 'NONE',  ( 0.000000000000000000, 0.000000000000000000, -1.000000000000000000 ) ) ;
#55 = CARTESIAN_POINT ( 'NONE',  ( -860.0000000000000000, 20.00000000000000000, 145.0000000000001705 ) ) ;
#56 = ORIENTED_EDGE ( 'NONE', *, *, #107, .F. ) ;
#57 = EDGE_CURVE ( 'NONE', #148, #97, #595, .T. ) ;
#58 = CARTESIAN_POINT ( 'NONE',  ( -847.0000000000001137, 20.00000000000001776, 75.00000000000001421 ) ) ;
#59 = VECTOR ( 'NONE', #349, 1000.000000000000000 ) ;
#60 = DIRECTION ( 'NONE',  ( -0.000000000000000000, -1.000000000000000000, -0.000000000000000000 ) ) ;
#61 = ORIENTED_EDGE ( 'NONE', *, *, #392, .F. ) ;
#62 = APPROVAL ( #459, 'UNSPECIFIED' ) ;
#63 = DIRECTION ( 'NONE',  ( -0.000000000000000000, 1.000000000000000000, -0.000000000000000000 ) ) ;
#64 = DIRECTION ( 'NONE',  ( -0.000000000000000000, -1.000000000000000000, -0.000000000000000000 ) ) ;
#65 = ORIENTED_EDGE ( 'NONE', *, *, #3, .F. ) ;
#66 = VECTOR ( 'NONE', #562, 1000.000000000000000 ) ;
#67 = APPLICATION_PROTOCOL_DEFINITION ( 'international standard', 'config_control_design', 1994, #531 ) ;
#68 = EDGE_CURVE ( 'NONE', #455, #701, #269, .T. ) ;
#69 = LINE ( 'NONE', #279, #189 ) ;
#70 = PERSON_AND_ORGANIZATION ( #587, #114 ) ;
#71 = CARTESIAN_POINT ( 'NONE',  ( -3.056976231050558052E-14, 20.00000000000000000, 145.0000000000000000 ) ) ;
#72 = EDGE_CURVE ( 'NONE', #693, #435, #6, .T. ) ;
#73 = DIRECTION ( 'NONE',  ( -1.000000000000000000, 0.000000000000000000, 4.286263797015736595E-16 ) ) ;
#74 = ORIENTED_EDGE ( 'NONE', *, *, #280, .T. ) ;
#75 = AXIS2_PLACEMENT_3D ( 'NONE', #575, #244, #404 ) ;
#76 = DIRECTION ( 'NONE',  ( 0.000000000000000000, 0.000000000000000000, 1.000000000000000000 ) ) ;
#77 = LINE ( 'NONE', #71, #90 ) ;
#78 = ADVANCED_FACE ( 'NONE', ( #14 ), #571, .F. ) ;
#79 = COORDINATED_UNIVERSAL_TIME_OFFSET ( 3, 30, .AHEAD. ) ;
#80 = DIRECTION ( 'NONE',  ( 0.000000000000000000, 0.000000000000000000, 1.000000000000000000 ) ) ;
#81 = AXIS2_PLACEMENT_3D ( 'NONE', #118, #677, #238 ) ;
#82 = APPLICATION_CONTEXT ( 'configuration controlled 3d designs of mechanical parts and assemblies' ) ;
#83 = DIRECTION ( 'NONE',  ( -4.286263797015736595E-16, 0.000000000000000000, -1.000000000000000000 ) ) ;
#84 = VERTEX_POINT ( 'NONE', #555 ) ;
#85 = FACE_OUTER_BOUND ( 'NONE', #27, .T. ) ;
#86 = ORIENTED_EDGE ( 'NONE', *, *, #485, .F. ) ;
#87 = ORIENTED_EDGE ( 'NONE', *, *, #403, .T. ) ;
#88 = CARTESIAN_POINT ( 'NONE',  ( -627.0000000000000000, 270.7987240796890660, -75.00000000000000000 ) ) ;
#89 = ORIENTED_EDGE ( 'NONE', *, *, #574, .F. ) ;
#90 = VECTOR ( 'NONE', #696, 1000.000000000000000 ) ;
#91 = VECTOR ( 'NONE', #344, 1000.000000000000000 ) ;
#92 = CARTESIAN_POINT ( 'NONE',  ( -960.0000000000000000, 20.00000000000000000, 145.0000000000001990 ) ) ;
#93 = DIRECTION ( 'NONE',  ( -0.000000000000000000, -0.000000000000000000, -1.000000000000000000 ) ) ;
#94 = LINE ( 'NONE', #34, #32 ) ;
#95 = VECTOR ( 'NONE', #446, 1000.000000000000000 ) ;
#96 =( GEOMETRIC_REPRESENTATION_CONTEXT ( 3 ) GLOBAL_UNCERTAINTY_ASSIGNED_CONTEXT ( ( #402 ) ) GLOBAL_UNIT_ASSIGNED_CONTEXT ( ( #21, #400, #579 ) ) REPRESENTATION_CONTEXT ( 'NONE', 'WORKASPACE' ) );
#97 = VERTEX_POINT ( 'NONE', #51 ) ;
#98 = ORIENTED_EDGE ( 'NONE', *, *, #631, .F. ) ;
#99 = COORDINATED_UNIVERSAL_TIME_OFFSET ( 3, 30, .AHEAD. ) ;
#100 = EDGE_CURVE ( 'NONE', #421, #204, #624, .T. ) ;
#101 = DIRECTION ( 'NONE',  ( 1.000000000000000000, 0.000000000000000000, -2.312964634635742957E-16 ) ) ;
#102 = ORIENTED_EDGE ( 'NONE', *, *, #691, .T. ) ;
#103 = AXIS2_PLACEMENT_3D ( 'NONE', #585, #683, #80 ) ;
#104 = VERTEX_POINT ( 'NONE', #515 ) ;
#105 = DATE_AND_TIME ( #715, #600 ) ;
#106 = PLANE ( 'NONE',  #674 ) ;
#107 = EDGE_CURVE ( 'NONE', #281, #151, #568, .T. ) ;
#108 = LINE ( 'NONE', #499, #517 ) ;
#109 = ORIENTED_EDGE ( 'NONE', *, *, #380, .F. ) ;
#110 = CARTESIAN_POINT ( 'NONE',  ( -847.0000000000001137, 0.000000000000000000, -75.00000000000001421 ) ) ;
#111 = VECTOR ( 'NONE', #547, 1000.000000000000000 ) ;
#112 = DIRECTION ( 'NONE',  ( 3.828355257328131187E-16, 0.000000000000000000, 1.000000000000000000 ) ) ;
#113 = EDGE_CURVE ( 'NONE', #495, #97, #667, .T. ) ;
#114 = ORGANIZATION ( 'UNSPECIFIED', 'UNSPECIFIED', '' ) ;
#115 = ORIENTED_EDGE ( 'NONE', *, *, #299, .T. ) ;
#116 = CALENDAR_DATE ( 2026, 23, 7 ) ;
#117 = DIRECTION ( 'NONE',  ( -4.286263797015736595E-16, 0.000000000000000000, -1.000000000000000000 ) ) ;
#118 = CARTESIAN_POINT ( 'NONE',  ( -627.0000000000000000, 270.7987240796890660, 75.00000000000000000 ) ) ;
#119 = ORIENTED_EDGE ( 'NONE', *, *, #414, .T. ) ;
#120 = CARTESIAN_POINT ( 'NONE',  ( -647.0000000000000000, 270.7987240796890660, 75.00000000000000000 ) ) ;
#121 = VECTOR ( 'NONE', #308, 1000.000000000000000 ) ;
#122 = CARTESIAN_POINT ( 'NONE',  ( -827.0000000000001137, 20.00000000000001776, 75.00000000000000000 ) ) ;
#123 = ADVANCED_FACE ( 'NONE', ( #125 ), #340, .F. ) ;
#124 = LINE ( 'NONE', #58, #142 ) ;
#125 = FACE_OUTER_BOUND ( 'NONE', #418, .T. ) ;
#126 = AXIS2_PLACEMENT_3D ( 'NONE', #606, #666, #278 ) ;
#127 = ADVANCED_FACE ( 'NONE', ( #663 ), #346, .F. ) ;
#128 = FACE_OUTER_BOUND ( 'NONE', #608, .T. ) ;
#129 = ORIENTED_EDGE ( 'NONE', *, *, #485, .T. ) ;
#130 = DESIGN_CONTEXT ( 'detailed design', #82, 'design' ) ;
#131 = PLANE ( 'NONE',  #625 ) ;
#132 = APPROVAL ( #505, 'UNSPECIFIED' ) ;
#133 = AXIS2_PLACEMENT_3D ( 'NONE', #270, #162, #594 ) ;
#134 = PLANE ( 'NONE',  #564 ) ;
#135 = VECTOR ( 'NONE', #64, 1000.000000000000000 ) ;
#136 = PLANE ( 'NONE',  #75 ) ;
#137 = PLANE ( 'NONE',  #9 ) ;
#138 = ORIENTED_EDGE ( 'NONE', *, *, #212, .T. ) ;
#139 = ADVANCED_FACE ( 'NONE', ( #10 ), #293, .F. ) ;
#140 = EDGE_LOOP ( 'NONE', ( #327, #358, #364, #38 ) ) ;
#141 = VECTOR ( 'NONE', #206, 1000.000000000000000 ) ;
#142 = VECTOR ( 'NONE', #237, 1000.000000000000000 ) ;
#143 = CARTESIAN_POINT ( 'NONE',  ( 0.000000000000000000, 0.000000000000000000, 0.000000000000000000 ) ) ;
#144 = CARTESIAN_POINT ( 'NONE',  ( -3.056976231050558052E-14, 0.000000000000000000, 145.0000000000000000 ) ) ;
#145 = LINE ( 'NONE', #298, #121 ) ;
#146 = ORIENTED_EDGE ( 'NONE', *, *, #57, .T. ) ;
#147 = PLANE ( 'NONE',  #133 ) ;
#148 = VERTEX_POINT ( 'NONE', #17 ) ;
#149 = VERTEX_POINT ( 'NONE', #55 ) ;
#150 = FACE_BOUND ( 'NONE', #553, .T. ) ;
#151 = VERTEX_POINT ( 'NONE', #681 ) ;
#152 = ORIENTED_EDGE ( 'NONE', *, *, #466, .T. ) ;
#153 = LINE ( 'NONE', #652, #580 ) ;
#154 = VECTOR ( 'NONE', #192, 1000.000000000000000 ) ;
#155 = CARTESIAN_POINT ( 'NONE',  ( -847.0000000000001137, 270.7987240796890660, 75.00000000000001421 ) ) ;
#156 = EDGE_CURVE ( 'NONE', #84, #701, #69, .T. ) ;
#157 = VECTOR ( 'NONE', #283, 1000.000000000000000 ) ;
#158 = LINE ( 'NONE', #88, #483 ) ;
#159 = VERTEX_POINT ( 'NONE', #190 ) ;
#160 = EDGE_CURVE ( 'NONE', #640, #464, #289, .T. ) ;
#161 = VERTEX_POINT ( 'NONE', #607 ) ;
#162 = DIRECTION ( 'NONE',  ( -2.312964634635742957E-16, 0.000000000000000000, -1.000000000000000000 ) ) ;
#163 = VECTOR ( 'NONE', #498, 1000.000000000000000 ) ;
#164 = AXIS2_PLACEMENT_3D ( 'NONE', #143, #76, #465 ) ;
#165 = VERTEX_POINT ( 'NONE', #19 ) ;
#166 = ORIENTED_EDGE ( 'NONE', *, *, #556, .T. ) ;
#167 = CC_DESIGN_PERSON_AND_ORGANIZATION_ASSIGNMENT ( #493, #224, ( #201 ) ) ;
#168 = DATE_AND_TIME ( #116, #658 ) ;
#169 = EDGE_CURVE ( 'NONE', #604, #484, #245, .T. ) ;
#170 = CARTESIAN_POINT ( 'NONE',  ( -847.0000000000001137, 270.7987240796890660, 75.00000000000001421 ) ) ;
#171 = ADVANCED_BREP_SHAPE_REPRESENTATION ( 'BasePlate_Default_sldprt', ( #548, #164 ), #96 ) ;
#172 = CARTESIAN_POINT ( 'NONE',  ( -647.0000000000000000, 270.7987240796890660, -75.00000000000000000 ) ) ;
#173 = ORIENTED_EDGE ( 'NONE', *, *, #291, .T. ) ;
#174 = EDGE_CURVE ( 'NONE', #455, #618, #108, .T. ) ;
#175 = CARTESIAN_POINT ( 'NONE',  ( -647.0000000000000000, 20.00000000000001776, 75.00000000000000000 ) ) ;
#176 = CARTESIAN_POINT ( 'NONE',  ( -119.9999999999999147, 0.000000000000000000, -125.0000000000000000 ) ) ;
#177 = ORIENTED_EDGE ( 'NONE', *, *, #156, .T. ) ;
#178 = PERSON_AND_ORGANIZATION ( #587, #114 ) ;
#179 = LINE ( 'NONE', #389, #473 ) ;
#180 = DIRECTION ( 'NONE',  ( 0.000000000000000000, 0.000000000000000000, -1.000000000000000000 ) ) ;
#181 = AXIS2_PLACEMENT_3D ( 'NONE', #335, #54, #680 ) ;
#182 = CC_DESIGN_APPROVAL ( #62, ( #526 ) ) ;
#183 = VERTEX_POINT ( 'NONE', #176 ) ;
#184 = APPROVAL_DATE_TIME ( #675, #132 ) ;
#185 = CARTESIAN_POINT ( 'NONE',  ( -3.056976231050558052E-14, 20.00000000000000000, 145.0000000000000000 ) ) ;
#186 = CARTESIAN_POINT ( 'NONE',  ( -827.0000000000001137, 270.7987240796890660, 75.00000000000000000 ) ) ;
#187 = ORIENTED_EDGE ( 'NONE', *, *, #160, .T. ) ;
#188 = CARTESIAN_POINT ( 'NONE',  ( -860.0000000000002274, 20.00000000000000000, -144.9999999999994316 ) ) ;
#189 = VECTOR ( 'NONE', #231, 1000.000000000000000 ) ;
#190 = CARTESIAN_POINT ( 'NONE',  ( -3.056976231050558052E-14, 20.00000000000000000, 145.0000000000000000 ) ) ;
#191 = EDGE_CURVE ( 'NONE', #496, #233, #386, .T. ) ;
#192 = DIRECTION ( 'NONE',  ( -1.000000000000000000, 0.000000000000000000, 0.000000000000000000 ) ) ;
#193 = FACE_OUTER_BOUND ( 'NONE', #441, .T. ) ;
#194 = APPROVAL_DATE_TIME ( #462, #62 ) ;
#195 = EDGE_CURVE ( 'NONE', #266, #165, #336, .T. ) ;
#196 = DIRECTION ( 'NONE',  ( -0.000000000000000000, -1.000000000000000000, -0.000000000000000000 ) ) ;
#197 = COORDINATED_UNIVERSAL_TIME_OFFSET ( 3, 30, .AHEAD. ) ;
#198 = DIRECTION ( 'NONE',  ( 0.000000000000000000, -0.000000000000000000, 1.000000000000000000 ) ) ;
#199 = EDGE_LOOP ( 'NONE', ( #448, #692, #236, #15 ) ) ;
#200 = VECTOR ( 'NONE', #623, 1000.000000000000000 ) ;
#201 = PRODUCT_DEFINITION_FORMATION_WITH_SPECIFIED_SOURCE ( 'ANY', '', #11, .NOT_KNOWN. ) ;
#202 = DIRECTION ( 'NONE',  ( 0.000000000000000000, -1.000000000000000000, 0.000000000000000000 ) ) ;
#203 = CARTESIAN_POINT ( 'NONE',  ( -647.0000000000000000, 20.00000000000001776, -75.00000000000000000 ) ) ;
#204 = VERTEX_POINT ( 'NONE', #503 ) ;
#205 = EDGE_CURVE ( 'NONE', #565, #693, #447, .T. ) ;
#206 = DIRECTION ( 'NONE',  ( 1.000000000000000000, -0.000000000000000000, 0.000000000000000000 ) ) ;
#207 = VECTOR ( 'NONE', #112, 1000.000000000000000 ) ;
#208 = FACE_OUTER_BOUND ( 'NONE', #601, .T. ) ;
#209 = EDGE_LOOP ( 'NONE', ( #492, #452, #334, #360 ) ) ;
#210 = VERTEX_POINT ( 'NONE', #628 ) ;
#211 = CC_DESIGN_PERSON_AND_ORGANIZATION_ASSIGNMENT ( #348, #572, ( #11 ) ) ;
#212 = EDGE_CURVE ( 'NONE', #387, #149, #537, .T. ) ;
#213 = CARTESIAN_POINT ( 'NONE',  ( -960.0000000000001137, 20.00000000000000000, -144.9999999999993747 ) ) ;
#214 = ORIENTED_EDGE ( 'NONE', *, *, #556, .F. ) ;
#215 = ORIENTED_EDGE ( 'NONE', *, *, #536, .F. ) ;
#216 = DIRECTION ( 'NONE',  ( -1.000000000000000000, 0.000000000000000000, 0.000000000000000000 ) ) ;
#217 = ADVANCED_FACE ( 'NONE', ( #128 ), #137, .F. ) ;
#218 = ORIENTED_EDGE ( 'NONE', *, *, #596, .T. ) ;
#219 = AXIS2_PLACEMENT_3D ( 'NONE', #155, #542, #371 ) ;
#220 = CARTESIAN_POINT ( 'NONE',  ( -647.0000000000000000, 0.000000000000000000, -75.00000000000000000 ) ) ;
#221 = EDGE_LOOP ( 'NONE', ( #173, #115, #313, #557 ) ) ;
#222 = CC_DESIGN_PERSON_AND_ORGANIZATION_ASSIGNMENT ( #273, #566, ( #201 ) ) ;
#223 = ORIENTED_EDGE ( 'NONE', *, *, #691, .F. ) ;
#224 = PERSON_AND_ORGANIZATION_ROLE ( 'design_supplier' ) ;
#225 = DIRECTION ( 'NONE',  ( -0.000000000000000000, -1.000000000000000000, -0.000000000000000000 ) ) ;
#226 = AXIS2_PLACEMENT_3D ( 'NONE', #328, #655, #538 ) ;
#227 = LINE ( 'NONE', #326, #111 ) ;
#228 = ORIENTED_EDGE ( 'NONE', *, *, #423, .F. ) ;
#229 = EDGE_CURVE ( 'NONE', #429, #421, #593, .T. ) ;
#230 = DIRECTION ( 'NONE',  ( 0.000000000000000000, 0.000000000000000000, -1.000000000000000000 ) ) ;
#231 = DIRECTION ( 'NONE',  ( -0.000000000000000000, -0.000000000000000000, 1.000000000000000000 ) ) ;
#232 = AXIS2_PLACEMENT_3D ( 'NONE', #251, #687, #198 ) ;
#233 = VERTEX_POINT ( 'NONE', #405 ) ;
#234 = CARTESIAN_POINT ( 'NONE',  ( -960.0000000000000000, 20.00000000000000000, 45.00000000000023448 ) ) ;
#235 = CARTESIAN_POINT ( 'NONE',  ( -139.9999999999999147, 0.000000000000000000, 125.0000000000000000 ) ) ;
#236 = ORIENTED_EDGE ( 'NONE', *, *, #521, .F. ) ;
#237 = DIRECTION ( 'NONE',  ( 0.000000000000000000, 0.000000000000000000, -1.000000000000000000 ) ) ;
#238 = DIRECTION ( 'NONE',  ( 0.000000000000000000, 0.000000000000000000, -1.000000000000000000 ) ) ;
#239 = VERTEX_POINT ( 'NONE', #246 ) ;
#240 = DIRECTION ( 'NONE',  ( -0.000000000000000000, -1.000000000000000000, -0.000000000000000000 ) ) ;
#241 = DIRECTION ( 'NONE',  ( 0.000000000000000000, -0.000000000000000000, 1.000000000000000000 ) ) ;
#242 = ADVANCED_FACE ( 'NONE', ( #690 ), #134, .F. ) ;
#243 = ORIENTED_EDGE ( 'NONE', *, *, #611, .F. ) ;
#244 = DIRECTION ( 'NONE',  ( 1.000000000000000000, 0.000000000000000000, 0.000000000000000000 ) ) ;
#245 = LINE ( 'NONE', #172, #551 ) ;
#246 = CARTESIAN_POINT ( 'NONE',  ( -960.0000000000001137, 20.00000000000000000, -44.99999999999940314 ) ) ;
#247 = ORIENTED_EDGE ( 'NONE', *, *, #260, .T. ) ;
#248 = APPROVAL_PERSON_ORGANIZATION ( #70, #62, #23 ) ;
#249 = EDGE_CURVE ( 'NONE', #151, #161, #145, .T. ) ;
#250 = CALENDAR_DATE ( 2026, 23, 7 ) ;
#251 = CARTESIAN_POINT ( 'NONE',  ( 0.000000000000000000, 20.00000000000000000, 0.000000000000000000 ) ) ;
#252 = VECTOR ( 'NONE', #26, 1000.000000000000000 ) ;
#253 = APPROVAL ( #647, 'UNSPECIFIED' ) ;
#254 = CARTESIAN_POINT ( 'NONE',  ( -627.0000000000000000, 270.7987240796890660, -75.00000000000000000 ) ) ;
#255 = LINE ( 'NONE', #144, #525 ) ;
#256 = CARTESIAN_POINT ( 'NONE',  ( -960.0000000000001137, 20.00000000000000000, -144.9999999999993747 ) ) ;
#257 = LINE ( 'NONE', #417, #711 ) ;
#258 = ORIENTED_EDGE ( 'NONE', *, *, #375, .T. ) ;
#259 = CARTESIAN_POINT ( 'NONE',  ( -860.0000000000001137, 20.00000000000000000, -44.99999999999944578 ) ) ;
#260 = EDGE_CURVE ( 'NONE', #159, #464, #77, .T. ) ;
#261 = DIRECTION ( 'NONE',  ( -1.000000000000000000, -0.000000000000000000, -0.000000000000000000 ) ) ;
#262 = VECTOR ( 'NONE', #641, 1000.000000000000000 ) ;
#263 = ORIENTED_EDGE ( 'NONE', *, *, #299, .F. ) ;
#264 = FACE_OUTER_BOUND ( 'NONE', #53, .T. ) ;
#265 = ORIENTED_EDGE ( 'NONE', *, *, #57, .F. ) ;
#266 = VERTEX_POINT ( 'NONE', #310 ) ;
#267 = AXIS2_PLACEMENT_3D ( 'NONE', #709, #216, #430 ) ;
#268 = CARTESIAN_POINT ( 'NONE',  ( -139.9999999999999147, 0.000000000000000000, 125.0000000000000000 ) ) ;
#269 = LINE ( 'NONE', #710, #307 ) ;
#270 = CARTESIAN_POINT ( 'NONE',  ( -960.0000000000000000, 20.00000000000000000, 145.0000000000001990 ) ) ;
#271 = ORIENTED_EDGE ( 'NONE', *, *, #113, .T. ) ;
#272 = ORIENTED_EDGE ( 'NONE', *, *, #72, .T. ) ;
#273 = PERSON_AND_ORGANIZATION ( #587, #114 ) ;
#274 = CARTESIAN_POINT ( 'NONE',  ( -860.0000000000000000, 0.000000000000000000, 145.0000000000001705 ) ) ;
#275 = ORIENTED_EDGE ( 'NONE', *, *, #380, .T. ) ;
#276 = ORIENTED_EDGE ( 'NONE', *, *, #100, .T. ) ;
#277 = APPROVAL_ROLE ( '' ) ;
#278 = DIRECTION ( 'NONE',  ( 0.000000000000000000, 0.000000000000000000, -1.000000000000000000 ) ) ;
#279 = CARTESIAN_POINT ( 'NONE',  ( -627.0000000000000000, 0.000000000000000000, 75.00000000000000000 ) ) ;
#280 = EDGE_CURVE ( 'NONE', #281, #104, #582, .T. ) ;
#281 = VERTEX_POINT ( 'NONE', #460 ) ;
#282 = DIRECTION ( 'NONE',  ( -0.000000000000000000, -1.000000000000000000, -0.000000000000000000 ) ) ;
#283 = DIRECTION ( 'NONE',  ( -0.000000000000000000, -1.000000000000000000, -0.000000000000000000 ) ) ;
#284 = VECTOR ( 'NONE', #359, 1000.000000000000000 ) ;
#285 = ORIENTED_EDGE ( 'NONE', *, *, #516, .F. ) ;
#286 = VECTOR ( 'NONE', #391, 1000.000000000000000 ) ;
#287 = DATE_TIME_ROLE ( 'classification_date' ) ;
#288 = CARTESIAN_POINT ( 'NONE',  ( -847.0000000000001137, 0.000000000000000000, 75.00000000000001421 ) ) ;
#289 = LINE ( 'NONE', #296, #317 ) ;
#290 = ORIENTED_EDGE ( 'NONE', *, *, #249, .T. ) ;
#291 = EDGE_CURVE ( 'NONE', #693, #210, #463, .T. ) ;
#292 = DIRECTION ( 'NONE',  ( 1.000000000000000000, -0.000000000000000000, -0.000000000000000000 ) ) ;
#293 = PLANE ( 'NONE',  #490 ) ;
#294 = VECTOR ( 'NONE', #615, 1000.000000000000000 ) ;
#295 = DIRECTION ( 'NONE',  ( 0.000000000000000000, 0.000000000000000000, -1.000000000000000000 ) ) ;
#296 = CARTESIAN_POINT ( 'NONE',  ( -960.0000000000000000, 0.000000000000000000, 145.0000000000001990 ) ) ;
#297 = CARTESIAN_POINT ( 'NONE',  ( -860.0000000000000000, 20.00000000000000000, 145.0000000000001705 ) ) ;
#298 = CARTESIAN_POINT ( 'NONE',  ( -1.548714124239619200E-13, 0.000000000000000000, -145.0000000000000000 ) ) ;
#299 = EDGE_CURVE ( 'NONE', #210, #148, #467, .T. ) ;
#300 = DIRECTION ( 'NONE',  ( 4.286263797015736595E-16, 0.000000000000000000, 1.000000000000000000 ) ) ;
#301 = SECURITY_CLASSIFICATION ( '', '', #561 ) ;
#302 = CC_DESIGN_DATE_AND_TIME_ASSIGNMENT ( #168, #287, ( #301 ) ) ;
#303 = DIRECTION ( 'NONE',  ( 0.000000000000000000, 1.000000000000000000, 0.000000000000000000 ) ) ;
#304 = DIRECTION ( 'NONE',  ( 0.000000000000000000, 0.000000000000000000, 1.000000000000000000 ) ) ;
#305 = EDGE_LOOP ( 'NONE', ( #152, #177, #642, #584 ) ) ;
#306 = DATE_TIME_ROLE ( 'creation_date' ) ;
#307 = VECTOR ( 'NONE', #431, 1000.000000000000000 ) ;
#308 = DIRECTION ( 'NONE',  ( -1.000000000000000000, 0.000000000000000000, 6.360652745248293008E-16 ) ) ;
#309 = ORIENTED_EDGE ( 'NONE', *, *, #191, .F. ) ;
#310 = CARTESIAN_POINT ( 'NONE',  ( -847.0000000000001137, 20.00000000000001776, -75.00000000000001421 ) ) ;
#311 = VECTOR ( 'NONE', #240, 1000.000000000000000 ) ;
#312 = FACE_BOUND ( 'NONE', #329, .T. ) ;
#313 = ORIENTED_EDGE ( 'NONE', *, *, #423, .T. ) ;
#314 = FACE_BOUND ( 'NONE', #479, .T. ) ;
#315 = AXIS2_PLACEMENT_3D ( 'NONE', #33, #196, #407 ) ;
#316 = LINE ( 'NONE', #539, #519 ) ;
#317 = VECTOR ( 'NONE', #399, 1000.000000000000000 ) ;
#318 = ADVANCED_FACE ( 'NONE', ( #639, #22, #685, #193 ), #530, .T. ) ;
#319 = EDGE_LOOP ( 'NONE', ( #276, #508, #583, #714 ) ) ;
#320 = LINE ( 'NONE', #92, #52 ) ;
#321 = DIRECTION ( 'NONE',  ( -0.000000000000000000, -1.000000000000000000, -0.000000000000000000 ) ) ;
#322 = ORIENTED_EDGE ( 'NONE', *, *, #660, .F. ) ;
#323 = VECTOR ( 'NONE', #230, 1000.000000000000000 ) ;
#324 = LOCAL_TIME ( 16, 4, 41.00000000000000000, #79 ) ;
#325 = CARTESIAN_POINT ( 'NONE',  ( -627.0000000000000000, 20.00000000000001776, 75.00000000000000000 ) ) ;
#326 = CARTESIAN_POINT ( 'NONE',  ( -827.0000000000001137, 0.000000000000000000, -75.00000000000000000 ) ) ;
#327 = ORIENTED_EDGE ( 'NONE', *, *, #521, .T. ) ;
#328 = CARTESIAN_POINT ( 'NONE',  ( 0.000000000000000000, 0.000000000000000000, 0.000000000000000000 ) ) ;
#329 = EDGE_LOOP ( 'NONE', ( #214, #636, #65, #285 ) ) ;
#330 = ORIENTED_EDGE ( 'NONE', *, *, #68, .T. ) ;
#331 = LINE ( 'NONE', #234, #599 ) ;
#332 = EDGE_CURVE ( 'NONE', #640, #233, #643, .T. ) ;
#333 = CARTESIAN_POINT ( 'NONE',  ( -960.0000000000001137, 0.000000000000000000, -144.9999999999993747 ) ) ;
#334 = ORIENTED_EDGE ( 'NONE', *, *, #191, .T. ) ;
#335 = CARTESIAN_POINT ( 'NONE',  ( -139.9999999999999147, 270.7987240796890660, -125.0000000000000000 ) ) ;
#336 = LINE ( 'NONE', #559, #157 ) ;
#337 = ORIENTED_EDGE ( 'NONE', *, *, #212, .F. ) ;
#338 = APPROVAL_DATE_TIME ( #105, #253 ) ;
#339 = CARTESIAN_POINT ( 'NONE',  ( -827.0000000000001137, 0.000000000000000000, 75.00000000000000000 ) ) ;
#340 = PLANE ( 'NONE',  #20 ) ;
#341 = ORIENTED_EDGE ( 'NONE', *, *, #540, .T. ) ;
#342 = EDGE_CURVE ( 'NONE', #183, #435, #635, .T. ) ;
#343 = CARTESIAN_POINT ( 'NONE',  ( -960.0000000000001137, 20.00000000000000000, -44.99999999999940314 ) ) ;
#344 = DIRECTION ( 'NONE',  ( -1.000000000000000000, 0.000000000000000000, 6.938893903907222461E-16 ) ) ;
#345 = FACE_OUTER_BOUND ( 'NONE', #468, .T. ) ;
#346 = PLANE ( 'NONE',  #28 ) ;
#347 = CC_DESIGN_APPROVAL ( #132, ( #301 ) ) ;
#348 = PERSON_AND_ORGANIZATION ( #587, #114 ) ;
#349 = DIRECTION ( 'NONE',  ( 0.000000000000000000, 0.000000000000000000, 1.000000000000000000 ) ) ;
#350 = ORIENTED_EDGE ( 'NONE', *, *, #403, .F. ) ;
#351 = DIRECTION ( 'NONE',  ( 0.000000000000000000, 0.000000000000000000, 1.000000000000000000 ) ) ;
#352 = VECTOR ( 'NONE', #321, 1000.000000000000000 ) ;
#353 = CARTESIAN_POINT ( 'NONE',  ( -3.056976231050558052E-14, 20.00000000000000000, 145.0000000000000000 ) ) ;
#354 = PERSON_AND_ORGANIZATION_ROLE ( 'creator' ) ;
#355 = CARTESIAN_POINT ( 'NONE',  ( -119.9999999999999147, 0.000000000000000000, -125.0000000000000000 ) ) ;
#356 = VECTOR ( 'NONE', #202, 1000.000000000000000 ) ;
#357 = APPROVAL_PERSON_ORGANIZATION ( #388, #132, #277 ) ;
#358 = ORIENTED_EDGE ( 'NONE', *, *, #3, .T. ) ;
#359 = DIRECTION ( 'NONE',  ( 0.000000000000000000, 0.000000000000000000, -1.000000000000000000 ) ) ;
#360 = ORIENTED_EDGE ( 'NONE', *, *, #649, .T. ) ;
#361 = EDGE_CURVE ( 'NONE', #210, #495, #586, .T. ) ;
#362 = LINE ( 'NONE', #203, #252 ) ;
#363 = CARTESIAN_POINT ( 'NONE',  ( -3.056976231050558052E-14, 0.000000000000000000, 145.0000000000000000 ) ) ;
#364 = ORIENTED_EDGE ( 'NONE', *, *, #627, .F. ) ;
#365 = ORIENTED_EDGE ( 'NONE', *, *, #367, .T. ) ;
#366 = LINE ( 'NONE', #602, #141 ) ;
#367 = EDGE_CURVE ( 'NONE', #618, #604, #362, .T. ) ;
#368 = ORIENTED_EDGE ( 'NONE', *, *, #466, .F. ) ;
#369 = ORIENTED_EDGE ( 'NONE', *, *, #361, .F. ) ;
#370 = CARTESIAN_POINT ( 'NONE',  ( -119.9999999999999147, 0.000000000000000000, 125.0000000000000000 ) ) ;
#371 = DIRECTION ( 'NONE',  ( 0.000000000000000000, 0.000000000000000000, 1.000000000000000000 ) ) ;
#372 = CARTESIAN_POINT ( 'NONE',  ( -119.9999999999999147, 270.7987240796890660, -125.0000000000000000 ) ) ;
#373 = ORIENTED_EDGE ( 'NONE', *, *, #622, .F. ) ;
#374 = EDGE_LOOP ( 'NONE', ( #337, #697, #409, #45 ) ) ;
#375 = EDGE_CURVE ( 'NONE', #464, #151, #255, .T. ) ;
#376 = VECTOR ( 'NONE', #117, 1000.000000000000000 ) ;
#377 = PLANE ( 'NONE',  #436 ) ;
#378 = FACE_OUTER_BOUND ( 'NONE', #653, .T. ) ;
#379 = ORIENTED_EDGE ( 'NONE', *, *, #41, .T. ) ;
#380 = EDGE_CURVE ( 'NONE', #496, #161, #620, .T. ) ;
#381 = LINE ( 'NONE', #185, #376 ) ;
#382 = DIRECTION ( 'NONE',  ( -0.000000000000000000, -1.000000000000000000, -0.000000000000000000 ) ) ;
#383 = EDGE_LOOP ( 'NONE', ( #87, #218, #487, #365 ) ) ;
#384 = PRODUCT_RELATED_PRODUCT_CATEGORY ( 'detail', '', ( #11 ) ) ;
#385 = LINE ( 'NONE', #398, #509 ) ;
#386 = LINE ( 'NONE', #333, #207 ) ;
#387 = VERTEX_POINT ( 'NONE', #31 ) ;
#388 = PERSON_AND_ORGANIZATION ( #587, #114 ) ;
#389 = CARTESIAN_POINT ( 'NONE',  ( -627.0000000000000000, 0.000000000000000000, -75.00000000000000000 ) ) ;
#390 = CC_DESIGN_SECURITY_CLASSIFICATION ( #301, ( #201 ) ) ;
#391 = DIRECTION ( 'NONE',  ( 0.000000000000000000, 0.000000000000000000, 1.000000000000000000 ) ) ;
#392 = EDGE_CURVE ( 'NONE', #701, #461, #257, .T. ) ;
#393 = ORIENTED_EDGE ( 'NONE', *, *, #160, .F. ) ;
#394 = SHAPE_DEFINITION_REPRESENTATION ( #616, #171 ) ;
#395 = CARTESIAN_POINT ( 'NONE',  ( -647.0000000000000000, 20.00000000000000000, -75.00000000000000000 ) ) ;
#396 = CARTESIAN_POINT ( 'NONE',  ( -1.548714124239619200E-13, 20.00000000000000000, -145.0000000000000000 ) ) ;
#397 = VECTOR ( 'NONE', #700, 1000.000000000000000 ) ;
#398 = CARTESIAN_POINT ( 'NONE',  ( -827.0000000000001137, 270.7987240796890660, 75.00000000000000000 ) ) ;
#399 = DIRECTION ( 'NONE',  ( 1.000000000000000000, 0.000000000000000000, -2.312964634635742957E-16 ) ) ;
#400 =( NAMED_UNIT ( * ) PLANE_ANGLE_UNIT ( ) SI_UNIT ( $, .RADIAN. ) );
#401 = CARTESIAN_POINT ( 'NONE',  ( -647.0000000000000000, 270.7987240796890660, 75.00000000000000000 ) ) ;
#402 = UNCERTAINTY_MEASURE_WITH_UNIT (LENGTH_MEASURE( 1.000000000000000082E-05 ), #21, 'distance_accuracy_value', 'NONE');
#403 = EDGE_CURVE ( 'NONE', #604, #706, #42, .T. ) ;
#404 = DIRECTION ( 'NONE',  ( 0.000000000000000000, 0.000000000000000000, -1.000000000000000000 ) ) ;
#405 = CARTESIAN_POINT ( 'NONE',  ( -960.0000000000000000, 0.000000000000000000, 45.00000000000023448 ) ) ;
#406 = FACE_OUTER_BOUND ( 'NONE', #668, .T. ) ;
#407 = DIRECTION ( 'NONE',  ( 0.000000000000000000, 0.000000000000000000, 1.000000000000000000 ) ) ;
#408 = ADVANCED_FACE ( 'NONE', ( #208 ), #147, .F. ) ;
#409 = ORIENTED_EDGE ( 'NONE', *, *, #332, .F. ) ;
#410 = ORIENTED_EDGE ( 'NONE', *, *, #332, .T. ) ;
#411 = CALENDAR_DATE ( 2026, 23, 7 ) ;
#412 = CARTESIAN_POINT ( 'NONE',  ( -827.0000000000001137, 20.00000000000001776, -75.00000000000000000 ) ) ;
#413 = ORIENTED_EDGE ( 'NONE', *, *, #169, .F. ) ;
#414 = EDGE_CURVE ( 'NONE', #149, #159, #320, .T. ) ;
#415 = VECTOR ( 'NONE', #554, 1000.000000000000000 ) ;
#416 = CARTESIAN_POINT ( 'NONE',  ( -627.0000000000000000, 0.000000000000000000, 75.00000000000000000 ) ) ;
#417 = CARTESIAN_POINT ( 'NONE',  ( -647.0000000000000000, 0.000000000000000000, 75.00000000000000000 ) ) ;
#418 = EDGE_LOOP ( 'NONE', ( #478, #40, #215, #650 ) ) ;
#419 = VECTOR ( 'NONE', #523, 1000.000000000000000 ) ;
#420 = CARTESIAN_POINT ( 'NONE',  ( -827.0000000000001137, 20.00000000000000000, 75.00000000000000000 ) ) ;
#421 = VERTEX_POINT ( 'NONE', #420 ) ;
#422 = PERSON_AND_ORGANIZATION ( #587, #114 ) ;
#423 = EDGE_CURVE ( 'NONE', #148, #565, #366, .T. ) ;
#424 = CARTESIAN_POINT ( 'NONE',  ( -1.548714124239619200E-13, 20.00000000000000000, -145.0000000000000000 ) ) ;
#425 = ORIENTED_EDGE ( 'NONE', *, *, #660, .T. ) ;
#426 = CLOSED_SHELL ( 'NONE', ( #242, #480, #442, #408, #318, #489, #501, #577, #123, #47, #569, #139, #665, #78, #217, #512, #127, #671, #588, #684 ) ) ;
#427 = ORIENTED_EDGE ( 'NONE', *, *, #174, .F. ) ;
#428 = DIRECTION ( 'NONE',  ( 1.000000000000000000, 0.000000000000000000, -3.828355257328131187E-16 ) ) ;
#429 = VERTEX_POINT ( 'NONE', #534 ) ;
#430 = DIRECTION ( 'NONE',  ( 0.000000000000000000, 0.000000000000000000, 1.000000000000000000 ) ) ;
#431 = DIRECTION ( 'NONE',  ( -0.000000000000000000, -1.000000000000000000, -0.000000000000000000 ) ) ;
#432 = CYLINDRICAL_SURFACE ( 'NONE', #695, 100.0000000000000142 ) ;
#433 = LINE ( 'NONE', #37, #470 ) ;
#434 = EDGE_CURVE ( 'NONE', #591, #12, #94, .T. ) ;
#435 = VERTEX_POINT ( 'NONE', #370 ) ;
#436 = AXIS2_PLACEMENT_3D ( 'NONE', #213, #428, #704 ) ;
#437 = COORDINATED_UNIVERSAL_TIME_OFFSET ( 3, 30, .AHEAD. ) ;
#438 = VECTOR ( 'NONE', #527, 1000.000000000000000 ) ;
#439 = DIRECTION ( 'NONE',  ( 6.938893903907222461E-16, 0.000000000000000000, -1.000000000000000000 ) ) ;
#440 = CARTESIAN_POINT ( 'NONE',  ( -827.0000000000001137, 0.000000000000000000, -75.00000000000000000 ) ) ;
#441 = EDGE_LOOP ( 'NONE', ( #74, #102, #524, #138, #119, #637 ) ) ;
#442 = ADVANCED_FACE ( 'NONE', ( #645 ), #377, .F. ) ;
#443 = LINE ( 'NONE', #110, #415 ) ;
#444 = DIRECTION ( 'NONE',  ( -1.000000000000000000, 0.000000000000000000, 0.000000000000000000 ) ) ;
#445 = EDGE_LOOP ( 'NONE', ( #290, #679, #43, #707 ) ) ;
#446 = DIRECTION ( 'NONE',  ( -0.000000000000000000, 1.000000000000000000, -0.000000000000000000 ) ) ;
#447 = LINE ( 'NONE', #672, #286 ) ;
#448 = ORIENTED_EDGE ( 'NONE', *, *, #195, .T. ) ;
#449 = VECTOR ( 'NONE', #282, 1000.000000000000000 ) ;
#450 = CARTESIAN_POINT ( 'NONE',  ( -847.0000000000001137, 270.7987240796890660, -75.00000000000001421 ) ) ;
#451 = DIRECTION ( 'NONE',  ( 6.938893903907222461E-16, -0.000000000000000000, 1.000000000000000000 ) ) ;
#452 = ORIENTED_EDGE ( 'NONE', *, *, #622, .T. ) ;
#453 = CARTESIAN_POINT ( 'NONE',  ( -827.0000000000001137, 270.7987240796890660, -75.00000000000000000 ) ) ;
#454 = DIRECTION ( 'NONE',  ( 0.000000000000000000, 0.000000000000000000, -1.000000000000000000 ) ) ;
#455 = VERTEX_POINT ( 'NONE', #325 ) ;
#456 = DIRECTION ( 'NONE',  ( 0.000000000000000000, 0.000000000000000000, 1.000000000000000000 ) ) ;
#457 = CARTESIAN_POINT ( 'NONE',  ( -139.9999999999999147, 270.7987240796890660, 125.0000000000000000 ) ) ;
#458 = EDGE_CURVE ( 'NONE', #266, #429, #153, .T. ) ;
#459 = APPROVAL_STATUS ( 'not_yet_approved' ) ;
#460 = CARTESIAN_POINT ( 'NONE',  ( -1.548714124239619200E-13, 20.00000000000000000, -145.0000000000000000 ) ) ;
#461 = VERTEX_POINT ( 'NONE', #597 ) ;
#462 = DATE_AND_TIME ( #250, #324 ) ;
#463 = LINE ( 'NONE', #520, #154 ) ;
#464 = VERTEX_POINT ( 'NONE', #363 ) ;
#465 = DIRECTION ( 'NONE',  ( 1.000000000000000000, 0.000000000000000000, 0.000000000000000000 ) ) ;
#466 = EDGE_CURVE ( 'NONE', #706, #84, #158, .T. ) ;
#467 = LINE ( 'NONE', #24, #284 ) ;
#468 = EDGE_LOOP ( 'NONE', ( #146, #341, #86, #228 ) ) ;
#469 = CARTESIAN_POINT ( 'NONE',  ( -119.9999999999999147, 20.00000000000000000, 125.0000000000000000 ) ) ;
#470 = VECTOR ( 'NONE', #656, 1000.000000000000000 ) ;
#471 = DIRECTION ( 'NONE',  ( 0.000000000000000000, 0.000000000000000000, 1.000000000000000000 ) ) ;
#472 = CC_DESIGN_DATE_AND_TIME_ASSIGNMENT ( #638, #306, ( #526 ) ) ;
#473 = VECTOR ( 'NONE', #292, 1000.000000000000000 ) ;
#474 = CC_DESIGN_APPROVAL ( #253, ( #201 ) ) ;
#475 = DIRECTION ( 'NONE',  ( 0.000000000000000000, -1.000000000000000000, 0.000000000000000000 ) ) ;
#476 = ORIENTED_EDGE ( 'NONE', *, *, #703, .T. ) ;
#477 = DIRECTION ( 'NONE',  ( -1.000000000000000000, 0.000000000000000000, 6.938893903907222461E-16 ) ) ;
#478 = ORIENTED_EDGE ( 'NONE', *, *, #627, .T. ) ;
#479 = EDGE_LOOP ( 'NONE', ( #598, #322, #682, #61 ) ) ;
#480 = ADVANCED_FACE ( 'NONE', ( #541 ), #488, .F. ) ;
#481 = DIRECTION ( 'NONE',  ( 1.000000000000000000, 0.000000000000000000, -6.360652745248293008E-16 ) ) ;
#482 = PLANE ( 'NONE',  #219 ) ;
#483 = VECTOR ( 'NONE', #550, 1000.000000000000000 ) ;
#484 = VERTEX_POINT ( 'NONE', #220 ) ;
#485 = EDGE_CURVE ( 'NONE', #565, #183, #698, .T. ) ;
#486 = PLANE ( 'NONE',  #267 ) ;
#487 = ORIENTED_EDGE ( 'NONE', *, *, #174, .T. ) ;
#488 = PLANE ( 'NONE',  #532 ) ;
#489 = ADVANCED_FACE ( 'NONE', ( #150, #314, #312, #39 ), #592, .F. ) ;
#490 = AXIS2_PLACEMENT_3D ( 'NONE', #612, #513, #454 ) ;
#491 = ORIENTED_EDGE ( 'NONE', *, *, #249, .F. ) ;
#492 = ORIENTED_EDGE ( 'NONE', *, *, #678, .F. ) ;
#493 = PERSON_AND_ORGANIZATION ( #587, #114 ) ;
#494 = FACE_OUTER_BOUND ( 'NONE', #199, .T. ) ;
#495 = VERTEX_POINT ( 'NONE', #268 ) ;
#496 = VERTEX_POINT ( 'NONE', #712 ) ;
#497 = COORDINATED_UNIVERSAL_TIME_OFFSET ( 3, 30, .AHEAD. ) ;
#498 = DIRECTION ( 'NONE',  ( -0.000000000000000000, 0.000000000000000000, 1.000000000000000000 ) ) ;
#499 = CARTESIAN_POINT ( 'NONE',  ( -647.0000000000000000, 20.00000000000001776, 75.00000000000000000 ) ) ;
#500 = ORIENTED_EDGE ( 'NONE', *, *, #392, .T. ) ;
#501 = ADVANCED_FACE ( 'NONE', ( #85 ), #432, .T. ) ;
#502 = LINE ( 'NONE', #288, #323 ) ;
#503 = CARTESIAN_POINT ( 'NONE',  ( -847.0000000000001137, 20.00000000000001776, 75.00000000000001421 ) ) ;
#504 = ORIENTED_EDGE ( 'NONE', *, *, #41, .F. ) ;
#505 = APPROVAL_STATUS ( 'not_yet_approved' ) ;
#506 = LINE ( 'NONE', #170, #449 ) ;
#507 = DIRECTION ( 'NONE',  ( 1.000000000000000000, 0.000000000000000000, -6.938893903907222461E-16 ) ) ;
#508 = ORIENTED_EDGE ( 'NONE', *, *, #545, .T. ) ;
#509 = VECTOR ( 'NONE', #225, 1000.000000000000000 ) ;
#510 = FACE_OUTER_BOUND ( 'NONE', #560, .T. ) ;
#511 = APPROVAL_PERSON_ORGANIZATION ( #422, #253, #661 ) ;
#512 = ADVANCED_FACE ( 'NONE', ( #264 ), #486, .F. ) ;
#513 = DIRECTION ( 'NONE',  ( 1.000000000000000000, 0.000000000000000000, 0.000000000000000000 ) ) ;
#514 = CARTESIAN_POINT ( 'NONE',  ( -139.9999999999999147, 270.7987240796890660, 125.0000000000000000 ) ) ;
#515 = CARTESIAN_POINT ( 'NONE',  ( -860.0000000000002274, 20.00000000000000000, -144.9999999999994316 ) ) ;
#516 = EDGE_CURVE ( 'NONE', #165, #4, #443, .T. ) ;
#517 = VECTOR ( 'NONE', #444, 1000.000000000000000 ) ;
#518 = CARTESIAN_POINT ( 'NONE',  ( -1.548714124239619200E-13, 20.00000000000000000, -145.0000000000000000 ) ) ;
#519 = VECTOR ( 'NONE', #93, 1000.000000000000000 ) ;
#520 = CARTESIAN_POINT ( 'NONE',  ( -119.9999999999999147, 20.00000000000001776, 125.0000000000000000 ) ) ;
#521 = EDGE_CURVE ( 'NONE', #429, #4, #610, .T. ) ;
#522 = CARTESIAN_POINT ( 'NONE',  ( -860.0000000000001137, 20.00000000000000000, -44.99999999999944578 ) ) ;
#523 = DIRECTION ( 'NONE',  ( -0.000000000000000000, -1.000000000000000000, -0.000000000000000000 ) ) ;
#524 = ORIENTED_EDGE ( 'NONE', *, *, #678, .T. ) ;
#525 = VECTOR ( 'NONE', #83, 1000.000000000000000 ) ;
#526 = PRODUCT_DEFINITION ( 'UNKNOWN', '', #201, #130 ) ;
#527 = DIRECTION ( 'NONE',  ( 3.828355257328131187E-16, 0.000000000000000000, 1.000000000000000000 ) ) ;
#528 = DIRECTION ( 'NONE',  ( 0.000000000000000000, 0.000000000000000000, 1.000000000000000000 ) ) ;
#529 = ORIENTED_EDGE ( 'NONE', *, *, #367, .F. ) ;
#530 = PLANE ( 'NONE',  #232 ) ;
#531 = APPLICATION_CONTEXT ( 'configuration controlled 3d designs of mechanical parts and assemblies' ) ;
#532 = AXIS2_PLACEMENT_3D ( 'NONE', #424, #648, #481 ) ;
#533 = ORIENTED_EDGE ( 'NONE', *, *, #169, .T. ) ;
#534 = CARTESIAN_POINT ( 'NONE',  ( -827.0000000000001137, 20.00000000000001776, -75.00000000000000000 ) ) ;
#535 = ORIENTED_EDGE ( 'NONE', *, *, #260, .F. ) ;
#536 = EDGE_CURVE ( 'NONE', #204, #12, #506, .T. ) ;
#537 = CIRCLE ( 'NONE', #688, 100.0000000000000000 ) ;
#538 = DIRECTION ( 'NONE',  ( 0.000000000000000000, -0.000000000000000000, 1.000000000000000000 ) ) ;
#539 = CARTESIAN_POINT ( 'NONE',  ( -647.0000000000000000, 0.000000000000000000, -75.00000000000000000 ) ) ;
#540 = EDGE_CURVE ( 'NONE', #97, #183, #662, .T. ) ;
#541 = FACE_OUTER_BOUND ( 'NONE', #445, .T. ) ;
#542 = DIRECTION ( 'NONE',  ( -1.000000000000000000, 0.000000000000000000, 0.000000000000000000 ) ) ;
#543 = AXIS2_PLACEMENT_3D ( 'NONE', #522, #303, #456 ) ;
#544 = ORIENTED_EDGE ( 'NONE', *, *, #375, .F. ) ;
#545 = EDGE_CURVE ( 'NONE', #204, #266, #124, .T. ) ;
#546 = DIRECTION ( 'NONE',  ( 1.000000000000000000, -0.000000000000000000, 6.938893903907222461E-16 ) ) ;
#547 = DIRECTION ( 'NONE',  ( 0.000000000000000000, 0.000000000000000000, 1.000000000000000000 ) ) ;
#548 = MANIFOLD_SOLID_BREP ( 'Cut-Extrude1', #426 ) ;
#549 = ORIENTED_EDGE ( 'NONE', *, *, #113, .F. ) ;
#550 = DIRECTION ( 'NONE',  ( -0.000000000000000000, -1.000000000000000000, -0.000000000000000000 ) ) ;
#551 = VECTOR ( 'NONE', #382, 1000.000000000000000 ) ;
#552 = ORIENTED_EDGE ( 'NONE', *, *, #342, .T. ) ;
#553 = EDGE_LOOP ( 'NONE', ( #549, #504, #613, #578 ) ) ;
#554 = DIRECTION ( 'NONE',  ( 1.000000000000000000, 0.000000000000000000, 6.938893903907222461E-16 ) ) ;
#555 = CARTESIAN_POINT ( 'NONE',  ( -627.0000000000000000, 0.000000000000000000, -75.00000000000000000 ) ) ;
#556 = EDGE_CURVE ( 'NONE', #12, #165, #502, .T. ) ;
#557 = ORIENTED_EDGE ( 'NONE', *, *, #205, .T. ) ;
#558 = CYLINDRICAL_SURFACE ( 'NONE', #126, 100.0000000000000000 ) ;
#559 = CARTESIAN_POINT ( 'NONE',  ( -847.0000000000001137, 270.7987240796890660, -75.00000000000001421 ) ) ;
#560 = EDGE_LOOP ( 'NONE', ( #533, #425, #368, #350 ) ) ;
#561 = SECURITY_CLASSIFICATION_LEVEL ( 'unclassified' ) ;
#562 = DIRECTION ( 'NONE',  ( 0.000000000000000000, -1.000000000000000000, 0.000000000000000000 ) ) ;
#563 = CARTESIAN_POINT ( 'NONE',  ( -119.9999999999999147, 270.7987240796890660, 125.0000000000000000 ) ) ;
#564 = AXIS2_PLACEMENT_3D ( 'NONE', #353, #73, #300 ) ;
#565 = VERTEX_POINT ( 'NONE', #619 ) ;
#566 = PERSON_AND_ORGANIZATION_ROLE ( 'creator' ) ;
#567 = DIRECTION ( 'NONE',  ( -1.000000000000000000, 0.000000000000000000, -6.938893903907222461E-16 ) ) ;
#568 = LINE ( 'NONE', #396, #135 ) ;
#569 = ADVANCED_FACE ( 'NONE', ( #494 ), #106, .F. ) ;
#570 = VECTOR ( 'NONE', #589, 1000.000000000000000 ) ;
#571 = PLANE ( 'NONE',  #81 ) ;
#572 = PERSON_AND_ORGANIZATION_ROLE ( 'design_owner' ) ;
#573 = DIRECTION ( 'NONE',  ( 1.000000000000000000, 0.000000000000000000, -0.000000000000000000 ) ) ;
#574 = EDGE_CURVE ( 'NONE', #159, #281, #381, .T. ) ;
#575 = CARTESIAN_POINT ( 'NONE',  ( -119.9999999999999147, 270.7987240796890660, -125.0000000000000000 ) ) ;
#576 = CARTESIAN_POINT ( 'NONE',  ( -860.0000000000000000, 20.00000000000000000, 45.00000000000018474 ) ) ;
#577 = ADVANCED_FACE ( 'NONE', ( #50 ), #558, .T. ) ;
#578 = ORIENTED_EDGE ( 'NONE', *, *, #540, .F. ) ;
#579 =( NAMED_UNIT ( * ) SI_UNIT ( $, .STERADIAN. ) SOLID_ANGLE_UNIT ( ) );
#580 = VECTOR ( 'NONE', #546, 1000.000000000000000 ) ;
#581 = CIRCLE ( 'NONE', #543, 100.0000000000000000 ) ;
#582 = LINE ( 'NONE', #518, #262 ) ;
#583 = ORIENTED_EDGE ( 'NONE', *, *, #458, .T. ) ;
#584 = ORIENTED_EDGE ( 'NONE', *, *, #596, .F. ) ;
#585 = CARTESIAN_POINT ( 'NONE',  ( -860.0000000000001137, 0.000000000000000000, -44.99999999999944578 ) ) ;
#586 = LINE ( 'NONE', #457, #419 ) ;
#587 = PERSON ( 'UNSPECIFIED', 'UNSPECIFIED', 'UNSPECIFIED', ('UNSPECIFIED'), ('UNSPECIFIED'), ('UNSPECIFIED') ) ;
#588 = ADVANCED_FACE ( 'NONE', ( #345 ), #1, .F. ) ;
#589 = DIRECTION ( 'NONE',  ( -0.000000000000000000, -1.000000000000000000, -0.000000000000000000 ) ) ;
#590 = ORIENTED_EDGE ( 'NONE', *, *, #72, .F. ) ;
#591 = VERTEX_POINT ( 'NONE', #339 ) ;
#592 = PLANE ( 'NONE',  #226 ) ;
#593 = LINE ( 'NONE', #412, #59 ) ;
#594 = DIRECTION ( 'NONE',  ( -1.000000000000000000, 0.000000000000000000, 2.312964634635742957E-16 ) ) ;
#595 = LINE ( 'NONE', #603, #352 ) ;
#596 = EDGE_CURVE ( 'NONE', #706, #455, #13, .T. ) ;
#597 = CARTESIAN_POINT ( 'NONE',  ( -647.0000000000000000, 0.000000000000000000, 75.00000000000000000 ) ) ;
#598 = ORIENTED_EDGE ( 'NONE', *, *, #156, .F. ) ;
#599 = VECTOR ( 'NONE', #63, 1000.000000000000000 ) ;
#600 = LOCAL_TIME ( 16, 4, 41.00000000000000000, #99 ) ;
#601 = EDGE_LOOP ( 'NONE', ( #2, #476, #187, #535 ) ) ;
#602 = CARTESIAN_POINT ( 'NONE',  ( -139.9999999999999147, 20.00000000000001776, -125.0000000000000000 ) ) ;
#603 = CARTESIAN_POINT ( 'NONE',  ( -139.9999999999999147, 270.7987240796890660, -125.0000000000000000 ) ) ;
#604 = VERTEX_POINT ( 'NONE', #395 ) ;
#605 = PERSON_AND_ORGANIZATION_ROLE ( 'classification_officer' ) ;
#606 = CARTESIAN_POINT ( 'NONE',  ( -860.0000000000000000, 20.00000000000000000, 45.00000000000018474 ) ) ;
#607 = CARTESIAN_POINT ( 'NONE',  ( -860.0000000000002274, 0.000000000000000000, -144.9999999999994316 ) ) ;
#608 = EDGE_LOOP ( 'NONE', ( #330, #500, #98, #427 ) ) ;
#609 = CALENDAR_DATE ( 2026, 23, 7 ) ;
#610 = LINE ( 'NONE', #453, #311 ) ;
#611 = EDGE_CURVE ( 'NONE', #161, #104, #5, .T. ) ;
#612 = CARTESIAN_POINT ( 'NONE',  ( -827.0000000000001137, 270.7987240796890660, -75.00000000000000000 ) ) ;
#613 = ORIENTED_EDGE ( 'NONE', *, *, #342, .F. ) ;
#614 = LOCAL_TIME ( 16, 4, 41.00000000000000000, #197 ) ;
#615 = DIRECTION ( 'NONE',  ( 1.000000000000000000, 0.000000000000000000, 0.000000000000000000 ) ) ;
#616 = PRODUCT_DEFINITION_SHAPE ( 'NONE', 'NONE',  #526 ) ;
#617 = CARTESIAN_POINT ( 'NONE',  ( -119.9999999999999147, 270.7987240796890660, 125.0000000000000000 ) ) ;
#618 = VERTEX_POINT ( 'NONE', #175 ) ;
#619 = CARTESIAN_POINT ( 'NONE',  ( -119.9999999999999147, 20.00000000000001776, -125.0000000000000000 ) ) ;
#620 = CIRCLE ( 'NONE', #103, 100.0000000000000000 ) ;
#621 = DIRECTION ( 'NONE',  ( 1.000000000000000000, 0.000000000000000000, -0.000000000000000000 ) ) ;
#622 = EDGE_CURVE ( 'NONE', #239, #496, #46, .T. ) ;
#623 = DIRECTION ( 'NONE',  ( -0.000000000000000000, -1.000000000000000000, -0.000000000000000000 ) ) ;
#624 = LINE ( 'NONE', #122, #91 ) ;
#625 = AXIS2_PLACEMENT_3D ( 'NONE', #514, #630, #351 ) ;
#626 = MECHANICAL_CONTEXT ( 'NONE', #531, 'mechanical' ) ;
#627 = EDGE_CURVE ( 'NONE', #421, #591, #385, .T. ) ;
#628 = CARTESIAN_POINT ( 'NONE',  ( -139.9999999999999147, 20.00000000000001776, 125.0000000000000000 ) ) ;
#629 = ORIENTED_EDGE ( 'NONE', *, *, #536, .T. ) ;
#630 = DIRECTION ( 'NONE',  ( -1.000000000000000000, 0.000000000000000000, 0.000000000000000000 ) ) ;
#631 = EDGE_CURVE ( 'NONE', #618, #461, #670, .T. ) ;
#632 = DIRECTION ( 'NONE',  ( 0.000000000000000000, 1.000000000000000000, 0.000000000000000000 ) ) ;
#633 = VECTOR ( 'NONE', #60, 1000.000000000000000 ) ;
#634 = PERSON_AND_ORGANIZATION ( #587, #114 ) ;
#635 = LINE ( 'NONE', #355, #44 ) ;
#636 = ORIENTED_EDGE ( 'NONE', *, *, #434, .F. ) ;
#637 = ORIENTED_EDGE ( 'NONE', *, *, #574, .T. ) ;
#638 = DATE_AND_TIME ( #411, #614 ) ;
#639 = FACE_BOUND ( 'NONE', #221, .T. ) ;
#640 = VERTEX_POINT ( 'NONE', #274 ) ;
#641 = DIRECTION ( 'NONE',  ( -1.000000000000000000, 0.000000000000000000, 6.360652745248293008E-16 ) ) ;
#642 = ORIENTED_EDGE ( 'NONE', *, *, #68, .F. ) ;
#643 = CIRCLE ( 'NONE', #315, 100.0000000000000000 ) ;
#644 = CARTESIAN_POINT ( 'NONE',  ( -627.0000000000000000, 20.00000000000001776, -75.00000000000000000 ) ) ;
#645 = FACE_OUTER_BOUND ( 'NONE', #209, .T. ) ;
#646 = EDGE_LOOP ( 'NONE', ( #309, #275, #491, #544, #393, #410 ) ) ;
#647 = APPROVAL_STATUS ( 'not_yet_approved' ) ;
#648 = DIRECTION ( 'NONE',  ( 6.360652745248293008E-16, -0.000000000000000000, 1.000000000000000000 ) ) ;
#649 = EDGE_CURVE ( 'NONE', #233, #387, #331, .T. ) ;
#650 = ORIENTED_EDGE ( 'NONE', *, *, #100, .F. ) ;
#651 = VECTOR ( 'NONE', #180, 1000.000000000000000 ) ;
#652 = CARTESIAN_POINT ( 'NONE',  ( -847.0000000000001137, 20.00000000000001776, -75.00000000000001421 ) ) ;
#653 = EDGE_LOOP ( 'NONE', ( #629, #166, #664, #7 ) ) ;
#654 = EDGE_LOOP ( 'NONE', ( #272, #379, #369, #699 ) ) ;
#655 = DIRECTION ( 'NONE',  ( 0.000000000000000000, 1.000000000000000000, 0.000000000000000000 ) ) ;
#656 = DIRECTION ( 'NONE',  ( -1.000000000000000000, 0.000000000000000000, 0.000000000000000000 ) ) ;
#657 = AXIS2_PLACEMENT_3D ( 'NONE', #254, #295, #29 ) ;
#658 = LOCAL_TIME ( 16, 4, 41.00000000000000000, #437 ) ;
#659 = ORIENTED_EDGE ( 'NONE', *, *, #205, .F. ) ;
#660 = EDGE_CURVE ( 'NONE', #484, #84, #179, .T. ) ;
#661 = APPROVAL_ROLE ( '' ) ;
#662 = LINE ( 'NONE', #676, #294 ) ;
#663 = FACE_OUTER_BOUND ( 'NONE', #654, .T. ) ;
#664 = ORIENTED_EDGE ( 'NONE', *, *, #195, .F. ) ;
#665 = ADVANCED_FACE ( 'NONE', ( #510 ), #16, .F. ) ;
#666 = DIRECTION ( 'NONE',  ( 0.000000000000000000, -1.000000000000000000, 0.000000000000000000 ) ) ;
#667 = LINE ( 'NONE', #235, #651 ) ;
#668 = EDGE_LOOP ( 'NONE', ( #673, #271, #265, #263 ) ) ;
#669 = CC_DESIGN_PERSON_AND_ORGANIZATION_ASSIGNMENT ( #634, #354, ( #526 ) ) ;
#670 = LINE ( 'NONE', #120, #200 ) ;
#671 = ADVANCED_FACE ( 'NONE', ( #406 ), #131, .F. ) ;
#672 = CARTESIAN_POINT ( 'NONE',  ( -119.9999999999999147, 20.00000000000001776, -125.0000000000000000 ) ) ;
#673 = ORIENTED_EDGE ( 'NONE', *, *, #361, .T. ) ;
#674 = AXIS2_PLACEMENT_3D ( 'NONE', #450, #439, #567 ) ;
#675 = DATE_AND_TIME ( #609, #705 ) ;
#676 = CARTESIAN_POINT ( 'NONE',  ( -139.9999999999999147, 0.000000000000000000, -125.0000000000000000 ) ) ;
#677 = DIRECTION ( 'NONE',  ( 1.000000000000000000, -0.000000000000000000, 0.000000000000000000 ) ) ;
#678 = EDGE_CURVE ( 'NONE', #239, #387, #25, .T. ) ;
#679 = ORIENTED_EDGE ( 'NONE', *, *, #611, .T. ) ;
#680 = DIRECTION ( 'NONE',  ( -1.000000000000000000, 0.000000000000000000, -0.000000000000000000 ) ) ;
#681 = CARTESIAN_POINT ( 'NONE',  ( -1.548714124239619200E-13, 0.000000000000000000, -145.0000000000000000 ) ) ;
#682 = ORIENTED_EDGE ( 'NONE', *, *, #30, .F. ) ;
#683 = DIRECTION ( 'NONE',  ( -0.000000000000000000, -1.000000000000000000, -0.000000000000000000 ) ) ;
#684 = ADVANCED_FACE ( 'NONE', ( #18 ), #136, .F. ) ;
#685 = FACE_BOUND ( 'NONE', #319, .T. ) ;
#686 = LINE ( 'NONE', #297, #356 ) ;
#687 = DIRECTION ( 'NONE',  ( 0.000000000000000000, 1.000000000000000000, 0.000000000000000000 ) ) ;
#688 = AXIS2_PLACEMENT_3D ( 'NONE', #576, #632, #528 ) ;
#689 = APPLICATION_PROTOCOL_DEFINITION ( 'international standard', 'config_control_design', 1994, #82 ) ;
#690 = FACE_OUTER_BOUND ( 'NONE', #48, .T. ) ;
#691 = EDGE_CURVE ( 'NONE', #104, #239, #581, .T. ) ;
#692 = ORIENTED_EDGE ( 'NONE', *, *, #516, .T. ) ;
#693 = VERTEX_POINT ( 'NONE', #469 ) ;
#694 = CARTESIAN_POINT ( 'NONE',  ( -627.0000000000000000, 20.00000000000001776, -75.00000000000000000 ) ) ;
#695 = AXIS2_PLACEMENT_3D ( 'NONE', #259, #475, #36 ) ;
#696 = DIRECTION ( 'NONE',  ( -0.000000000000000000, -1.000000000000000000, -0.000000000000000000 ) ) ;
#697 = ORIENTED_EDGE ( 'NONE', *, *, #649, .F. ) ;
#698 = LINE ( 'NONE', #372, #570 ) ;
#699 = ORIENTED_EDGE ( 'NONE', *, *, #291, .F. ) ;
#700 = DIRECTION ( 'NONE',  ( 1.000000000000000000, -0.000000000000000000, 0.000000000000000000 ) ) ;
#701 = VERTEX_POINT ( 'NONE', #416 ) ;
#702 = ORIENTED_EDGE ( 'NONE', *, *, #631, .T. ) ;
#703 = EDGE_CURVE ( 'NONE', #149, #640, #686, .T. ) ;
#704 = DIRECTION ( 'NONE',  ( -3.828355257328131187E-16, 0.000000000000000000, -1.000000000000000000 ) ) ;
#705 = LOCAL_TIME ( 16, 4, 41.00000000000000000, #497 ) ;
#706 = VERTEX_POINT ( 'NONE', #694 ) ;
#707 = ORIENTED_EDGE ( 'NONE', *, *, #107, .T. ) ;
#708 = CC_DESIGN_PERSON_AND_ORGANIZATION_ASSIGNMENT ( #178, #605, ( #301 ) ) ;
#709 = CARTESIAN_POINT ( 'NONE',  ( -647.0000000000000000, 270.7987240796890660, -75.00000000000000000 ) ) ;
#710 = CARTESIAN_POINT ( 'NONE',  ( -627.0000000000000000, 270.7987240796890660, 75.00000000000000000 ) ) ;
#711 = VECTOR ( 'NONE', #261, 1000.000000000000000 ) ;
#712 = CARTESIAN_POINT ( 'NONE',  ( -960.0000000000001137, 0.000000000000000000, -44.99999999999940314 ) ) ;
#713 = CARTESIAN_POINT ( 'NONE',  ( -847.0000000000001137, 0.000000000000000000, 75.00000000000001421 ) ) ;
#714 = ORIENTED_EDGE ( 'NONE', *, *, #229, .T. ) ;
#715 = CALENDAR_DATE ( 2026, 23, 7 ) ;
ENDSEC;
END-ISO-10303-21;
