ISO-10303-21;
HEADER;
FILE_DESCRIPTION (( 'STEP AP203' ),
    '1' );
FILE_NAME ('BigBallBearingInner_Default_sldprt.STEP',
    '2026-07-23T12:34:44',
    ( '' ),
    ( '' ),
    'SwSTEP 2.0',
    'SolidWorks 2025',
    '' );
FILE_SCHEMA (( 'CONFIG_CONTROL_DESIGN' ));
ENDSEC;

DATA;
#1 = PERSON_AND_ORGANIZATION ( #65, #105 ) ;
#2 = ORIENTED_EDGE ( 'NONE', *, *, #108, .F. ) ;
#3 = COORDINATED_UNIVERSAL_TIME_OFFSET ( 3, 30, .AHEAD. ) ;
#4 = EDGE_CURVE ( 'NONE', #163, #220, #216, .T. ) ;
#5 = VERTEX_POINT ( 'NONE', #107 ) ;
#6 = ORIENTED_EDGE ( 'NONE', *, *, #201, .T. ) ;
#7 = VERTEX_POINT ( 'NONE', #144 ) ;
#8 = DIRECTION ( 'NONE',  ( 0.000000000000000000, 0.000000000000000000, -1.000000000000000000 ) ) ;
#9 = DIRECTION ( 'NONE',  ( 0.000000000000000000, 0.000000000000000000, 1.000000000000000000 ) ) ;
#10 = DIRECTION ( 'NONE',  ( 0.000000000000000000, 1.000000000000000000, 0.000000000000000000 ) ) ;
#11 = CARTESIAN_POINT ( 'NONE',  ( 0.000000000000000000, 43.00000000000000000, 0.000000000000000000 ) ) ;
#12 = ADVANCED_FACE ( 'NONE', ( #127 ), #87, .F. ) ;
#13 = AXIS2_PLACEMENT_3D ( 'NONE', #207, #222, #185 ) ;
#14 = ADVANCED_FACE ( 'NONE', ( #46 ), #165, .T. ) ;
#15 = DIRECTION ( 'NONE',  ( 0.000000000000000000, 0.000000000000000000, -1.000000000000000000 ) ) ;
#16 = DIRECTION ( 'NONE',  ( 0.000000000000000000, 0.000000000000000000, -1.000000000000000000 ) ) ;
#17 = APPROVAL ( #42, 'UNSPECIFIED' ) ;
#18 = APPROVAL_PERSON_ORGANIZATION ( #25, #17, #228 ) ;
#19 = DATE_TIME_ROLE ( 'creation_date' ) ;
#20 = AXIS2_PLACEMENT_3D ( 'NONE', #38, #168, #50 ) ;
#21 = PERSON_AND_ORGANIZATION_ROLE ( 'creator' ) ;
#22 = AXIS2_PLACEMENT_3D ( 'NONE', #234, #59, #200 ) ;
#23 = PERSON_AND_ORGANIZATION ( #65, #105 ) ;
#24 = CARTESIAN_POINT ( 'NONE',  ( 7.347880794884118356E-15, 43.00000000000000000, 60.00000000000000000 ) ) ;
#25 = PERSON_AND_ORGANIZATION ( #65, #105 ) ;
#26 = ADVANCED_FACE ( 'NONE', ( #231 ), #63, .F. ) ;
#27 = CARTESIAN_POINT ( 'NONE',  ( 0.000000000000000000, 43.00000000000000000, -60.00000000000000000 ) ) ;
#28 = PERSON_AND_ORGANIZATION ( #65, #105 ) ;
#29 = ORIENTED_EDGE ( 'NONE', *, *, #176, .F. ) ;
#30 = EDGE_LOOP ( 'NONE', ( #82, #180 ) ) ;
#31 = CC_DESIGN_PERSON_AND_ORGANIZATION_ASSIGNMENT ( #136, #58, ( #218 ) ) ;
#32 = ORIENTED_EDGE ( 'NONE', *, *, #4, .T. ) ;
#33 = CARTESIAN_POINT ( 'NONE',  ( 0.000000000000000000, 0.000000000000000000, 0.000000000000000000 ) ) ;
#34 = AXIS2_PLACEMENT_3D ( 'NONE', #226, #55, #210 ) ;
#35 = DIRECTION ( 'NONE',  ( 0.000000000000000000, 0.000000000000000000, 1.000000000000000000 ) ) ;
#36 = CC_DESIGN_PERSON_AND_ORGANIZATION_ASSIGNMENT ( #28, #156, ( #150 ) ) ;
#37 = EDGE_LOOP ( 'NONE', ( #134, #162, #64, #202 ) ) ;
#38 = CARTESIAN_POINT ( 'NONE',  ( 0.000000000000000000, 42.99999999999998579, 0.000000000000000000 ) ) ;
#39 = CIRCLE ( 'NONE', #20, 50.00000000000000000 ) ;
#40 = VERTEX_POINT ( 'NONE', #49 ) ;
#41 = EDGE_CURVE ( 'NONE', #106, #40, #205, .T. ) ;
#42 = APPROVAL_STATUS ( 'not_yet_approved' ) ;
#43 = LOCAL_TIME ( 16, 4, 44.00000000000000000, #199 ) ;
#44 = DIRECTION ( 'NONE',  ( 0.000000000000000000, 1.000000000000000000, 0.000000000000000000 ) ) ;
#45 = CALENDAR_DATE ( 2026, 23, 7 ) ;
#46 = FACE_OUTER_BOUND ( 'NONE', #93, .T. ) ;
#47 = ORIENTED_EDGE ( 'NONE', *, *, #41, .F. ) ;
#48 = AXIS2_PLACEMENT_3D ( 'NONE', #91, #146, #95 ) ;
#49 = CARTESIAN_POINT ( 'NONE',  ( 6.123233995736766085E-15, 0.000000000000000000, 50.00000000000000000 ) ) ;
#50 = DIRECTION ( 'NONE',  ( 0.000000000000000000, 0.000000000000000000, 1.000000000000000000 ) ) ;
#51 = DIRECTION ( 'NONE',  ( -0.000000000000000000, -1.000000000000000000, -0.000000000000000000 ) ) ;
#52 =( LENGTH_UNIT ( ) NAMED_UNIT ( * ) SI_UNIT ( .MILLI., .METRE. ) );
#53 = CIRCLE ( 'NONE', #173, 50.00000000000000000 ) ;
#54 = ORIENTED_EDGE ( 'NONE', *, *, #196, .T. ) ;
#55 = DIRECTION ( 'NONE',  ( 0.000000000000000000, 0.000000000000000000, 1.000000000000000000 ) ) ;
#56 = EDGE_CURVE ( 'NONE', #5, #220, #161, .T. ) ;
#57 = PERSON_AND_ORGANIZATION ( #65, #105 ) ;
#58 = PERSON_AND_ORGANIZATION_ROLE ( 'classification_officer' ) ;
#59 = DIRECTION ( 'NONE',  ( -0.000000000000000000, -1.000000000000000000, -0.000000000000000000 ) ) ;
#60 = DIRECTION ( 'NONE',  ( -0.000000000000000000, -1.000000000000000000, -0.000000000000000000 ) ) ;
#61 = ORIENTED_EDGE ( 'NONE', *, *, #212, .T. ) ;
#62 = APPROVAL ( #118, 'UNSPECIFIED' ) ;
#63 = CYLINDRICAL_SURFACE ( 'NONE', #209, 50.00000000000000000 ) ;
#64 = ORIENTED_EDGE ( 'NONE', *, *, #94, .T. ) ;
#65 = PERSON ( 'UNSPECIFIED', 'UNSPECIFIED', 'UNSPECIFIED', ('UNSPECIFIED'), ('UNSPECIFIED'), ('UNSPECIFIED') ) ;
#66 = FACE_OUTER_BOUND ( 'NONE', #120, .T. ) ;
#67 = APPLICATION_CONTEXT ( 'configuration controlled 3d designs of mechanical parts and assemblies' ) ;
#68 = CARTESIAN_POINT ( 'NONE',  ( 0.000000000000000000, 43.00000000000000000, 0.000000000000000000 ) ) ;
#69 =( GEOMETRIC_REPRESENTATION_CONTEXT ( 3 ) GLOBAL_UNCERTAINTY_ASSIGNED_CONTEXT ( ( #204 ) ) GLOBAL_UNIT_ASSIGNED_CONTEXT ( ( #52, #92, #237 ) ) REPRESENTATION_CONTEXT ( 'NONE', 'WORKASPACE' ) );
#70 = ADVANCED_FACE ( 'NONE', ( #233, #100 ), #177, .F. ) ;
#71 = AXIS2_PLACEMENT_3D ( 'NONE', #11, #166, #149 ) ;
#72 = DIRECTION ( 'NONE',  ( 0.000000000000000000, -1.000000000000000000, 0.000000000000000000 ) ) ;
#73 = CC_DESIGN_APPROVAL ( #229, ( #150 ) ) ;
#74 = DIRECTION ( 'NONE',  ( -0.000000000000000000, -1.000000000000000000, -0.000000000000000000 ) ) ;
#75 = LOCAL_TIME ( 16, 4, 44.00000000000000000, #142 ) ;
#76 = CC_DESIGN_PERSON_AND_ORGANIZATION_ASSIGNMENT ( #99, #21, ( #124 ) ) ;
#77 = APPROVAL_ROLE ( '' ) ;
#78 = CALENDAR_DATE ( 2026, 23, 7 ) ;
#79 = PERSON_AND_ORGANIZATION_ROLE ( 'design_supplier' ) ;
#80 = CC_DESIGN_SECURITY_CLASSIFICATION ( #218, ( #150 ) ) ;
#81 = SECURITY_CLASSIFICATION_LEVEL ( 'unclassified' ) ;
#82 = ORIENTED_EDGE ( 'NONE', *, *, #4, .F. ) ;
#83 = SHAPE_DEFINITION_REPRESENTATION ( #131, #169 ) ;
#84 = VERTEX_POINT ( 'NONE', #27 ) ;
#85 = PRODUCT_RELATED_PRODUCT_CATEGORY ( 'detail', '', ( #243 ) ) ;
#86 = ORIENTED_EDGE ( 'NONE', *, *, #176, .T. ) ;
#87 = CYLINDRICAL_SURFACE ( 'NONE', #232, 50.00000000000000000 ) ;
#88 = EDGE_LOOP ( 'NONE', ( #137, #54 ) ) ;
#89 = ADVANCED_FACE ( 'NONE', ( #102, #66 ), #129, .T. ) ;
#90 = CARTESIAN_POINT ( 'NONE',  ( 7.347880794884118356E-15, 0.000000000000000000, 60.00000000000000000 ) ) ;
#91 = CARTESIAN_POINT ( 'NONE',  ( 0.000000000000000000, 0.000000000000000000, 0.000000000000000000 ) ) ;
#92 =( NAMED_UNIT ( * ) PLANE_ANGLE_UNIT ( ) SI_UNIT ( $, .RADIAN. ) );
#93 = EDGE_LOOP ( 'NONE', ( #171, #128, #198, #32 ) ) ;
#94 = EDGE_CURVE ( 'NONE', #220, #163, #236, .T. ) ;
#95 = DIRECTION ( 'NONE',  ( 0.000000000000000000, 0.000000000000000000, -1.000000000000000000 ) ) ;
#96 = DATE_TIME_ROLE ( 'classification_date' ) ;
#97 = AXIS2_PLACEMENT_3D ( 'NONE', #208, #109, #35 ) ;
#98 = AXIS2_PLACEMENT_3D ( 'NONE', #68, #239, #248 ) ;
#99 = PERSON_AND_ORGANIZATION ( #65, #105 ) ;
#100 = FACE_OUTER_BOUND ( 'NONE', #30, .T. ) ;
#101 = DATE_AND_TIME ( #213, #75 ) ;
#102 = FACE_BOUND ( 'NONE', #88, .T. ) ;
#103 = CC_DESIGN_DATE_AND_TIME_ASSIGNMENT ( #230, #96, ( #218 ) ) ;
#104 = ORIENTED_EDGE ( 'NONE', *, *, #153, .F. ) ;
#105 = ORGANIZATION ( 'UNSPECIFIED', 'UNSPECIFIED', '' ) ;
#106 = VERTEX_POINT ( 'NONE', #130 ) ;
#107 = CARTESIAN_POINT ( 'NONE',  ( 7.347880794884118356E-15, 43.00000000000000000, 60.00000000000000000 ) ) ;
#108 = EDGE_CURVE ( 'NONE', #40, #211, #155, .T. ) ;
#109 = DIRECTION ( 'NONE',  ( -0.000000000000000000, -1.000000000000000000, -0.000000000000000000 ) ) ;
#110 = CARTESIAN_POINT ( 'NONE',  ( 0.000000000000000000, 184.4213562373095385, -50.00000000000000000 ) ) ;
#111 = LINE ( 'NONE', #167, #190 ) ;
#112 = AXIS2_PLACEMENT_3D ( 'NONE', #151, #10, #9 ) ;
#113 = APPLICATION_PROTOCOL_DEFINITION ( 'international standard', 'config_control_design', 1994, #67 ) ;
#114 = EDGE_LOOP ( 'NONE', ( #47, #104, #227, #86 ) ) ;
#115 = LOCAL_TIME ( 16, 4, 44.00000000000000000, #3 ) ;
#116 = DATE_AND_TIME ( #78, #115 ) ;
#117 = EDGE_CURVE ( 'NONE', #84, #163, #111, .T. ) ;
#118 = APPROVAL_STATUS ( 'not_yet_approved' ) ;
#119 = AXIS2_PLACEMENT_3D ( 'NONE', #217, #125, #122 ) ;
#120 = EDGE_LOOP ( 'NONE', ( #61, #6 ) ) ;
#121 = APPLICATION_PROTOCOL_DEFINITION ( 'international standard', 'config_control_design', 1994, #187 ) ;
#122 = DIRECTION ( 'NONE',  ( 0.000000000000000000, -0.000000000000000000, 1.000000000000000000 ) ) ;
#123 = PERSON_AND_ORGANIZATION_ROLE ( 'design_owner' ) ;
#124 = PRODUCT_DEFINITION ( 'UNKNOWN', '', #150, #164 ) ;
#125 = DIRECTION ( 'NONE',  ( 0.000000000000000000, 1.000000000000000000, 0.000000000000000000 ) ) ;
#126 = VECTOR ( 'NONE', #60, 1000.000000000000000 ) ;
#127 = FACE_OUTER_BOUND ( 'NONE', #114, .T. ) ;
#128 = ORIENTED_EDGE ( 'NONE', *, *, #212, .F. ) ;
#129 = PLANE ( 'NONE',  #98 ) ;
#130 = CARTESIAN_POINT ( 'NONE',  ( 6.123233995736766085E-15, 42.99999999999998579, 50.00000000000000000 ) ) ;
#131 = PRODUCT_DEFINITION_SHAPE ( 'NONE', 'NONE',  #124 ) ;
#132 = ADVANCED_FACE ( 'NONE', ( #242 ), #133, .T. ) ;
#133 = CYLINDRICAL_SURFACE ( 'NONE', #184, 60.00000000000000000 ) ;
#134 = ORIENTED_EDGE ( 'NONE', *, *, #201, .F. ) ;
#135 = COORDINATED_UNIVERSAL_TIME_OFFSET ( 3, 30, .AHEAD. ) ;
#136 = PERSON_AND_ORGANIZATION ( #65, #105 ) ;
#137 = ORIENTED_EDGE ( 'NONE', *, *, #153, .T. ) ;
#138 = APPROVAL_DATE_TIME ( #101, #17 ) ;
#139 = CLOSED_SHELL ( 'NONE', ( #26, #132, #14, #89, #70, #12 ) ) ;
#140 = CARTESIAN_POINT ( 'NONE',  ( 6.123233995736766085E-15, 184.4213562373095385, 50.00000000000000000 ) ) ;
#141 = CC_DESIGN_PERSON_AND_ORGANIZATION_ASSIGNMENT ( #154, #123, ( #243 ) ) ;
#142 = COORDINATED_UNIVERSAL_TIME_OFFSET ( 3, 30, .AHEAD. ) ;
#143 = LOCAL_TIME ( 16, 4, 44.00000000000000000, #158 ) ;
#144 = CARTESIAN_POINT ( 'NONE',  ( 0.000000000000000000, 42.99999999999998579, -50.00000000000000000 ) ) ;
#145 = CARTESIAN_POINT ( 'NONE',  ( 0.000000000000000000, 184.4213562373095385, 0.000000000000000000 ) ) ;
#146 = DIRECTION ( 'NONE',  ( 0.000000000000000000, -1.000000000000000000, 0.000000000000000000 ) ) ;
#147 = CC_DESIGN_PERSON_AND_ORGANIZATION_ASSIGNMENT ( #23, #79, ( #150 ) ) ;
#148 = APPROVAL_PERSON_ORGANIZATION ( #1, #229, #172 ) ;
#149 = DIRECTION ( 'NONE',  ( 0.000000000000000000, 0.000000000000000000, 1.000000000000000000 ) ) ;
#150 = PRODUCT_DEFINITION_FORMATION_WITH_SPECIFIED_SOURCE ( 'ANY', '', #243, .NOT_KNOWN. ) ;
#151 = CARTESIAN_POINT ( 'NONE',  ( 0.000000000000000000, 43.00000000000000000, 0.000000000000000000 ) ) ;
#152 = EDGE_LOOP ( 'NONE', ( #29, #2 ) ) ;
#153 = EDGE_CURVE ( 'NONE', #7, #106, #39, .T. ) ;
#154 = PERSON_AND_ORGANIZATION ( #65, #105 ) ;
#155 = CIRCLE ( 'NONE', #48, 50.00000000000000000 ) ;
#156 = PERSON_AND_ORGANIZATION_ROLE ( 'creator' ) ;
#157 = APPROVAL_DATE_TIME ( #160, #62 ) ;
#158 = COORDINATED_UNIVERSAL_TIME_OFFSET ( 3, 30, .AHEAD. ) ;
#159 = CARTESIAN_POINT ( 'NONE',  ( 0.000000000000000000, 184.4213562373095385, 0.000000000000000000 ) ) ;
#160 = DATE_AND_TIME ( #175, #170 ) ;
#161 = LINE ( 'NONE', #24, #126 ) ;
#162 = ORIENTED_EDGE ( 'NONE', *, *, #56, .T. ) ;
#163 = VERTEX_POINT ( 'NONE', #206 ) ;
#164 = DESIGN_CONTEXT ( 'detailed design', #187, 'design' ) ;
#165 = CYLINDRICAL_SURFACE ( 'NONE', #22, 60.00000000000000000 ) ;
#166 = DIRECTION ( 'NONE',  ( 0.000000000000000000, 1.000000000000000000, 0.000000000000000000 ) ) ;
#167 = CARTESIAN_POINT ( 'NONE',  ( 0.000000000000000000, 43.00000000000000000, -60.00000000000000000 ) ) ;
#168 = DIRECTION ( 'NONE',  ( -0.000000000000000000, -1.000000000000000000, -0.000000000000000000 ) ) ;
#169 = ADVANCED_BREP_SHAPE_REPRESENTATION ( 'BigBallBearingInner_Default_sldprt', ( #189, #34 ), #69 ) ;
#170 = LOCAL_TIME ( 16, 4, 44.00000000000000000, #135 ) ;
#171 = ORIENTED_EDGE ( 'NONE', *, *, #56, .F. ) ;
#172 = APPROVAL_ROLE ( '' ) ;
#173 = AXIS2_PLACEMENT_3D ( 'NONE', #33, #72, #15 ) ;
#174 = VECTOR ( 'NONE', #215, 1000.000000000000000 ) ;
#175 = CALENDAR_DATE ( 2026, 23, 7 ) ;
#176 = EDGE_CURVE ( 'NONE', #211, #40, #53, .T. ) ;
#177 = PLANE ( 'NONE',  #119 ) ;
#178 = APPROVAL_STATUS ( 'not_yet_approved' ) ;
#179 = ORIENTED_EDGE ( 'NONE', *, *, #241, .F. ) ;
#180 = ORIENTED_EDGE ( 'NONE', *, *, #94, .F. ) ;
#181 = CC_DESIGN_DATE_AND_TIME_ASSIGNMENT ( #116, #19, ( #124 ) ) ;
#182 = DIRECTION ( 'NONE',  ( 0.000000000000000000, 0.000000000000000000, -1.000000000000000000 ) ) ;
#183 = CARTESIAN_POINT ( 'NONE',  ( 0.000000000000000000, 0.000000000000000000, 0.000000000000000000 ) ) ;
#184 = AXIS2_PLACEMENT_3D ( 'NONE', #223, #51, #16 ) ;
#185 = DIRECTION ( 'NONE',  ( 0.000000000000000000, 0.000000000000000000, 1.000000000000000000 ) ) ;
#186 = DIRECTION ( 'NONE',  ( -0.000000000000000000, -1.000000000000000000, -0.000000000000000000 ) ) ;
#187 = APPLICATION_CONTEXT ( 'configuration controlled 3d designs of mechanical parts and assemblies' ) ;
#188 = CARTESIAN_POINT ( 'NONE',  ( 0.000000000000000000, 0.000000000000000000, -50.00000000000000000 ) ) ;
#189 = MANIFOLD_SOLID_BREP ( 'Cut-Extrude1', #139 ) ;
#190 = VECTOR ( 'NONE', #74, 1000.000000000000000 ) ;
#191 = ORIENTED_EDGE ( 'NONE', *, *, #108, .T. ) ;
#192 = MECHANICAL_CONTEXT ( 'NONE', #67, 'mechanical' ) ;
#193 = CC_DESIGN_APPROVAL ( #62, ( #124 ) ) ;
#194 = CALENDAR_DATE ( 2026, 23, 7 ) ;
#195 = CIRCLE ( 'NONE', #97, 50.00000000000000000 ) ;
#196 = EDGE_CURVE ( 'NONE', #106, #7, #195, .T. ) ;
#197 = APPROVAL_DATE_TIME ( #249, #229 ) ;
#198 = ORIENTED_EDGE ( 'NONE', *, *, #117, .T. ) ;
#199 = COORDINATED_UNIVERSAL_TIME_OFFSET ( 3, 30, .AHEAD. ) ;
#200 = DIRECTION ( 'NONE',  ( 0.000000000000000000, 0.000000000000000000, -1.000000000000000000 ) ) ;
#201 = EDGE_CURVE ( 'NONE', #5, #84, #214, .T. ) ;
#202 = ORIENTED_EDGE ( 'NONE', *, *, #117, .F. ) ;
#203 = DIRECTION ( 'NONE',  ( -0.000000000000000000, -1.000000000000000000, -0.000000000000000000 ) ) ;
#204 = UNCERTAINTY_MEASURE_WITH_UNIT (LENGTH_MEASURE( 1.000000000000000082E-05 ), #52, 'distance_accuracy_value', 'NONE');
#205 = LINE ( 'NONE', #140, #174 ) ;
#206 = CARTESIAN_POINT ( 'NONE',  ( 0.000000000000000000, 0.000000000000000000, -60.00000000000000000 ) ) ;
#207 = CARTESIAN_POINT ( 'NONE',  ( 0.000000000000000000, 0.000000000000000000, 0.000000000000000000 ) ) ;
#208 = CARTESIAN_POINT ( 'NONE',  ( 0.000000000000000000, 42.99999999999998579, 0.000000000000000000 ) ) ;
#209 = AXIS2_PLACEMENT_3D ( 'NONE', #145, #203, #182 ) ;
#210 = DIRECTION ( 'NONE',  ( 1.000000000000000000, 0.000000000000000000, 0.000000000000000000 ) ) ;
#211 = VERTEX_POINT ( 'NONE', #188 ) ;
#212 = EDGE_CURVE ( 'NONE', #84, #5, #224, .T. ) ;
#213 = CALENDAR_DATE ( 2026, 23, 7 ) ;
#214 = CIRCLE ( 'NONE', #112, 60.00000000000000000 ) ;
#215 = DIRECTION ( 'NONE',  ( -0.000000000000000000, -1.000000000000000000, -0.000000000000000000 ) ) ;
#216 = CIRCLE ( 'NONE', #247, 60.00000000000000000 ) ;
#217 = CARTESIAN_POINT ( 'NONE',  ( 0.000000000000000000, 0.000000000000000000, 0.000000000000000000 ) ) ;
#218 = SECURITY_CLASSIFICATION ( '', '', #81 ) ;
#219 = ORIENTED_EDGE ( 'NONE', *, *, #196, .F. ) ;
#220 = VERTEX_POINT ( 'NONE', #90 ) ;
#221 = DIRECTION ( 'NONE',  ( 0.000000000000000000, 0.000000000000000000, 1.000000000000000000 ) ) ;
#222 = DIRECTION ( 'NONE',  ( 0.000000000000000000, 1.000000000000000000, 0.000000000000000000 ) ) ;
#223 = CARTESIAN_POINT ( 'NONE',  ( 0.000000000000000000, 43.00000000000000000, 0.000000000000000000 ) ) ;
#224 = CIRCLE ( 'NONE', #71, 60.00000000000000000 ) ;
#225 = ORIENTED_EDGE ( 'NONE', *, *, #41, .T. ) ;
#226 = CARTESIAN_POINT ( 'NONE',  ( 0.000000000000000000, 0.000000000000000000, 0.000000000000000000 ) ) ;
#227 = ORIENTED_EDGE ( 'NONE', *, *, #241, .T. ) ;
#228 = APPROVAL_ROLE ( '' ) ;
#229 = APPROVAL ( #178, 'UNSPECIFIED' ) ;
#230 = DATE_AND_TIME ( #45, #143 ) ;
#231 = FACE_OUTER_BOUND ( 'NONE', #245, .T. ) ;
#232 = AXIS2_PLACEMENT_3D ( 'NONE', #159, #235, #8 ) ;
#233 = FACE_BOUND ( 'NONE', #152, .T. ) ;
#234 = CARTESIAN_POINT ( 'NONE',  ( 0.000000000000000000, 43.00000000000000000, 0.000000000000000000 ) ) ;
#235 = DIRECTION ( 'NONE',  ( -0.000000000000000000, -1.000000000000000000, -0.000000000000000000 ) ) ;
#236 = CIRCLE ( 'NONE', #13, 60.00000000000000000 ) ;
#237 =( NAMED_UNIT ( * ) SI_UNIT ( $, .STERADIAN. ) SOLID_ANGLE_UNIT ( ) );
#238 = CC_DESIGN_APPROVAL ( #17, ( #218 ) ) ;
#239 = DIRECTION ( 'NONE',  ( 0.000000000000000000, 1.000000000000000000, 0.000000000000000000 ) ) ;
#240 = LINE ( 'NONE', #110, #244 ) ;
#241 = EDGE_CURVE ( 'NONE', #7, #211, #240, .T. ) ;
#242 = FACE_OUTER_BOUND ( 'NONE', #37, .T. ) ;
#243 = PRODUCT ( 'BigBallBearingInner_Default_sldprt', 'BigBallBearingInner_Default_sldprt', '', ( #192 ) ) ;
#244 = VECTOR ( 'NONE', #186, 1000.000000000000000 ) ;
#245 = EDGE_LOOP ( 'NONE', ( #219, #225, #191, #179 ) ) ;
#246 = APPROVAL_PERSON_ORGANIZATION ( #57, #62, #77 ) ;
#247 = AXIS2_PLACEMENT_3D ( 'NONE', #183, #44, #221 ) ;
#248 = DIRECTION ( 'NONE',  ( 0.000000000000000000, -0.000000000000000000, 1.000000000000000000 ) ) ;
#249 = DATE_AND_TIME ( #194, #43 ) ;
ENDSEC;
END-ISO-10303-21;
