ISO-10303-21;
HEADER;
FILE_DESCRIPTION (( 'STEP AP203' ),
    '1' );
FILE_NAME ('BigBallBearing_Default_sldprt.STEP',
    '2026-07-23T12:34:42',
    ( '' ),
    ( '' ),
    'SwSTEP 2.0',
    'SolidWorks 2025',
    '' );
FILE_SCHEMA (( 'CONFIG_CONTROL_DESIGN' ));
ENDSEC;

DATA;
#1 = DIRECTION ( 'NONE',  ( 0.000000000000000000, 0.000000000000000000, -1.000000000000000000 ) ) ;
#2 = PERSON_AND_ORGANIZATION ( #17, #244 ) ;
#3 = CC_DESIGN_PERSON_AND_ORGANIZATION_ASSIGNMENT ( #245, #152, ( #166 ) ) ;
#4 = ORIENTED_EDGE ( 'NONE', *, *, #79, .T. ) ;
#5 = VERTEX_POINT ( 'NONE', #234 ) ;
#6 = ORIENTED_EDGE ( 'NONE', *, *, #13, .F. ) ;
#7 = CARTESIAN_POINT ( 'NONE',  ( 0.000000000000000000, 16.00000000000000000, -75.00000000000001421 ) ) ;
#8 = CIRCLE ( 'NONE', #37, 75.00000000000001421 ) ;
#9 = DIRECTION ( 'NONE',  ( 0.000000000000000000, -0.000000000000000000, 1.000000000000000000 ) ) ;
#10 = CARTESIAN_POINT ( 'NONE',  ( 0.000000000000000000, 16.00000000000000000, 0.000000000000000000 ) ) ;
#11 = DIRECTION ( 'NONE',  ( 0.000000000000000000, 0.000000000000000000, 1.000000000000000000 ) ) ;
#12 = EDGE_CURVE ( 'NONE', #246, #24, #63, .T. ) ;
#13 = EDGE_CURVE ( 'NONE', #39, #125, #130, .T. ) ;
#14 = ORIENTED_EDGE ( 'NONE', *, *, #79, .F. ) ;
#15 = FACE_BOUND ( 'NONE', #128, .T. ) ;
#16 = AXIS2_PLACEMENT_3D ( 'NONE', #185, #140, #71 ) ;
#17 = PERSON ( 'UNSPECIFIED', 'UNSPECIFIED', 'UNSPECIFIED', ('UNSPECIFIED'), ('UNSPECIFIED'), ('UNSPECIFIED') ) ;
#18 = ORIENTED_EDGE ( 'NONE', *, *, #34, .T. ) ;
#19 = CC_DESIGN_APPROVAL ( #103, ( #49 ) ) ;
#20 = DATE_AND_TIME ( #226, #156 ) ;
#21 = AXIS2_PLACEMENT_3D ( 'NONE', #10, #116, #119 ) ;
#22 = ORIENTED_EDGE ( 'NONE', *, *, #186, .F. ) ;
#23 = APPROVAL_ROLE ( '' ) ;
#24 = VERTEX_POINT ( 'NONE', #36 ) ;
#25 = DIRECTION ( 'NONE',  ( 0.000000000000000000, 1.000000000000000000, 0.000000000000000000 ) ) ;
#26 = ORIENTED_EDGE ( 'NONE', *, *, #239, .F. ) ;
#27 = VERTEX_POINT ( 'NONE', #43 ) ;
#28 = AXIS2_PLACEMENT_3D ( 'NONE', #84, #45, #107 ) ;
#29 = DIRECTION ( 'NONE',  ( -0.000000000000000000, -1.000000000000000000, -0.000000000000000000 ) ) ;
#30 = LOCAL_TIME ( 16, 4, 42.00000000000000000, #228 ) ;
#31 = CLOSED_SHELL ( 'NONE', ( #189, #52, #105, #133, #181, #219 ) ) ;
#32 = EDGE_CURVE ( 'NONE', #125, #39, #46, .T. ) ;
#33 = DIRECTION ( 'NONE',  ( 0.000000000000000000, 1.000000000000000000, 0.000000000000000000 ) ) ;
#34 = EDGE_CURVE ( 'NONE', #86, #5, #176, .T. ) ;
#35 = SECURITY_CLASSIFICATION_LEVEL ( 'unclassified' ) ;
#36 = CARTESIAN_POINT ( 'NONE',  ( 9.184850993605150311E-15, 0.000000000000000000, 75.00000000000001421 ) ) ;
#37 = AXIS2_PLACEMENT_3D ( 'NONE', #161, #180, #11 ) ;
#38 = PERSON_AND_ORGANIZATION ( #17, #244 ) ;
#39 = VERTEX_POINT ( 'NONE', #172 ) ;
#40 = COORDINATED_UNIVERSAL_TIME_OFFSET ( 3, 30, .AHEAD. ) ;
#41 = FACE_OUTER_BOUND ( 'NONE', #194, .T. ) ;
#42 = ORIENTED_EDGE ( 'NONE', *, *, #205, .T. ) ;
#43 = CARTESIAN_POINT ( 'NONE',  ( 0.000000000000000000, 16.00000000000001421, -60.00000000000000000 ) ) ;
#44 = LINE ( 'NONE', #117, #60 ) ;
#45 = DIRECTION ( 'NONE',  ( -0.000000000000000000, -1.000000000000000000, -0.000000000000000000 ) ) ;
#46 = CIRCLE ( 'NONE', #141, 60.00000000000000000 ) ;
#47 = DIRECTION ( 'NONE',  ( -0.000000000000000000, -1.000000000000000000, -0.000000000000000000 ) ) ;
#48 = LOCAL_TIME ( 16, 4, 42.00000000000000000, #40 ) ;
#49 = PRODUCT_DEFINITION ( 'UNKNOWN', '', #166, #207 ) ;
#50 = APPLICATION_PROTOCOL_DEFINITION ( 'international standard', 'config_control_design', 1994, #95 ) ;
#51 = CYLINDRICAL_SURFACE ( 'NONE', #153, 60.00000000000000000 ) ;
#52 = ADVANCED_FACE ( 'NONE', ( #197 ), #56, .T. ) ;
#53 = DATE_TIME_ROLE ( 'creation_date' ) ;
#54 = COORDINATED_UNIVERSAL_TIME_OFFSET ( 3, 30, .AHEAD. ) ;
#55 = PERSON_AND_ORGANIZATION_ROLE ( 'creator' ) ;
#56 = CYLINDRICAL_SURFACE ( 'NONE', #58, 75.00000000000001421 ) ;
#57 = PERSON_AND_ORGANIZATION_ROLE ( 'creator' ) ;
#58 = AXIS2_PLACEMENT_3D ( 'NONE', #114, #80, #1 ) ;
#59 = CARTESIAN_POINT ( 'NONE',  ( 0.000000000000000000, 16.00000000000000000, -75.00000000000001421 ) ) ;
#60 = VECTOR ( 'NONE', #47, 1000.000000000000000 ) ;
#61 = FACE_BOUND ( 'NONE', #163, .T. ) ;
#62 = APPROVAL_PERSON_ORGANIZATION ( #2, #178, #213 ) ;
#63 = LINE ( 'NONE', #112, #167 ) ;
#64 = DIRECTION ( 'NONE',  ( 0.000000000000000000, -1.000000000000000000, 0.000000000000000000 ) ) ;
#65 =( NAMED_UNIT ( * ) SI_UNIT ( $, .STERADIAN. ) SOLID_ANGLE_UNIT ( ) );
#66 = PERSON_AND_ORGANIZATION ( #17, #244 ) ;
#67 = FACE_OUTER_BOUND ( 'NONE', #212, .T. ) ;
#68 = ADVANCED_BREP_SHAPE_REPRESENTATION ( 'BigBallBearing_Default_sldprt', ( #127, #126 ), #83 ) ;
#69 = CC_DESIGN_PERSON_AND_ORGANIZATION_ASSIGNMENT ( #66, #73, ( #120 ) ) ;
#70 = PRODUCT_RELATED_PRODUCT_CATEGORY ( 'detail', '', ( #120 ) ) ;
#71 = DIRECTION ( 'NONE',  ( 0.000000000000000000, 0.000000000000000000, 1.000000000000000000 ) ) ;
#72 = CIRCLE ( 'NONE', #142, 60.00000000000000000 ) ;
#73 = PERSON_AND_ORGANIZATION_ROLE ( 'design_owner' ) ;
#74 = CALENDAR_DATE ( 2026, 23, 7 ) ;
#75 = DATE_TIME_ROLE ( 'classification_date' ) ;
#76 = LINE ( 'NONE', #151, #159 ) ;
#77 = PERSON_AND_ORGANIZATION ( #17, #244 ) ;
#78 = CARTESIAN_POINT ( 'NONE',  ( 0.000000000000000000, 16.00000000000000000, 0.000000000000000000 ) ) ;
#79 = EDGE_CURVE ( 'NONE', #158, #39, #76, .T. ) ;
#80 = DIRECTION ( 'NONE',  ( -0.000000000000000000, -1.000000000000000000, -0.000000000000000000 ) ) ;
#81 = ORIENTED_EDGE ( 'NONE', *, *, #146, .F. ) ;
#82 = ORIENTED_EDGE ( 'NONE', *, *, #34, .F. ) ;
#83 =( GEOMETRIC_REPRESENTATION_CONTEXT ( 3 ) GLOBAL_UNCERTAINTY_ASSIGNED_CONTEXT ( ( #223 ) ) GLOBAL_UNIT_ASSIGNED_CONTEXT ( ( #235, #143, #65 ) ) REPRESENTATION_CONTEXT ( 'NONE', 'WORKASPACE' ) );
#84 = CARTESIAN_POINT ( 'NONE',  ( 0.000000000000000000, 16.00000000000001421, 0.000000000000000000 ) ) ;
#85 = PRODUCT_DEFINITION_SHAPE ( 'NONE', 'NONE',  #49 ) ;
#86 = VERTEX_POINT ( 'NONE', #59 ) ;
#87 = MECHANICAL_CONTEXT ( 'NONE', #95, 'mechanical' ) ;
#88 = CARTESIAN_POINT ( 'NONE',  ( 9.184850993605150311E-15, 16.00000000000000000, 75.00000000000001421 ) ) ;
#89 = SECURITY_CLASSIFICATION ( '', '', #35 ) ;
#90 = ORIENTED_EDGE ( 'NONE', *, *, #211, .T. ) ;
#91 = APPROVAL_DATE_TIME ( #20, #178 ) ;
#92 = LOCAL_TIME ( 16, 4, 42.00000000000000000, #54 ) ;
#93 = EDGE_LOOP ( 'NONE', ( #22, #81 ) ) ;
#94 = DATE_AND_TIME ( #247, #30 ) ;
#95 = APPLICATION_CONTEXT ( 'configuration controlled 3d designs of mechanical parts and assemblies' ) ;
#96 = DIRECTION ( 'NONE',  ( -0.000000000000000000, -1.000000000000000000, -0.000000000000000000 ) ) ;
#97 = PERSON_AND_ORGANIZATION ( #17, #244 ) ;
#98 = ORIENTED_EDGE ( 'NONE', *, *, #157, .T. ) ;
#99 = DIRECTION ( 'NONE',  ( 0.000000000000000000, -0.000000000000000000, 1.000000000000000000 ) ) ;
#100 = ORIENTED_EDGE ( 'NONE', *, *, #211, .F. ) ;
#101 = DIRECTION ( 'NONE',  ( 0.000000000000000000, -1.000000000000000000, 0.000000000000000000 ) ) ;
#102 = AXIS2_PLACEMENT_3D ( 'NONE', #202, #240, #9 ) ;
#103 = APPROVAL ( #225, 'UNSPECIFIED' ) ;
#104 = CARTESIAN_POINT ( 'NONE',  ( 0.000000000000000000, 185.7056274847714405, 0.000000000000000000 ) ) ;
#105 = ADVANCED_FACE ( 'NONE', ( #132 ), #155, .T. ) ;
#106 = PLANE ( 'NONE',  #102 ) ;
#107 = DIRECTION ( 'NONE',  ( 0.000000000000000000, 0.000000000000000000, 1.000000000000000000 ) ) ;
#108 = APPROVAL_PERSON_ORGANIZATION ( #193, #222, #23 ) ;
#109 = DATE_AND_TIME ( #129, #48 ) ;
#110 = ORIENTED_EDGE ( 'NONE', *, *, #12, .T. ) ;
#111 = DATE_AND_TIME ( #74, #188 ) ;
#112 = CARTESIAN_POINT ( 'NONE',  ( 9.184850993605150311E-15, 16.00000000000000000, 75.00000000000001421 ) ) ;
#113 = PLANE ( 'NONE',  #210 ) ;
#114 = CARTESIAN_POINT ( 'NONE',  ( 0.000000000000000000, 16.00000000000000000, 0.000000000000000000 ) ) ;
#115 = EDGE_LOOP ( 'NONE', ( #135, #187, #18, #182 ) ) ;
#116 = DIRECTION ( 'NONE',  ( 0.000000000000000000, 1.000000000000000000, 0.000000000000000000 ) ) ;
#117 = CARTESIAN_POINT ( 'NONE',  ( 0.000000000000000000, 185.7056274847714405, -60.00000000000000000 ) ) ;
#118 = AXIS2_PLACEMENT_3D ( 'NONE', #200, #33, #208 ) ;
#119 = DIRECTION ( 'NONE',  ( 0.000000000000000000, 0.000000000000000000, 1.000000000000000000 ) ) ;
#120 = PRODUCT ( 'BigBallBearing_Default_sldprt', 'BigBallBearing_Default_sldprt', '', ( #87 ) ) ;
#121 = ORIENTED_EDGE ( 'NONE', *, *, #146, .T. ) ;
#122 = CC_DESIGN_PERSON_AND_ORGANIZATION_ASSIGNMENT ( #249, #57, ( #49 ) ) ;
#123 = ORIENTED_EDGE ( 'NONE', *, *, #169, .T. ) ;
#124 = AXIS2_PLACEMENT_3D ( 'NONE', #78, #154, #232 ) ;
#125 = VERTEX_POINT ( 'NONE', #233 ) ;
#126 = AXIS2_PLACEMENT_3D ( 'NONE', #179, #177, #243 ) ;
#127 = MANIFOLD_SOLID_BREP ( 'Cut-Extrude1', #31 ) ;
#128 = EDGE_LOOP ( 'NONE', ( #145, #6 ) ) ;
#129 = CALENDAR_DATE ( 2026, 23, 7 ) ;
#130 = CIRCLE ( 'NONE', #206, 60.00000000000000000 ) ;
#131 = AXIS2_PLACEMENT_3D ( 'NONE', #104, #162, #183 ) ;
#132 = FACE_OUTER_BOUND ( 'NONE', #115, .T. ) ;
#133 = ADVANCED_FACE ( 'NONE', ( #61, #41 ), #113, .T. ) ;
#134 = COORDINATED_UNIVERSAL_TIME_OFFSET ( 3, 30, .AHEAD. ) ;
#135 = ORIENTED_EDGE ( 'NONE', *, *, #12, .F. ) ;
#136 = APPROVAL_PERSON_ORGANIZATION ( #77, #103, #150 ) ;
#137 = CARTESIAN_POINT ( 'NONE',  ( 0.000000000000000000, 16.00000000000000000, 0.000000000000000000 ) ) ;
#138 = CC_DESIGN_SECURITY_CLASSIFICATION ( #89, ( #166 ) ) ;
#139 = CARTESIAN_POINT ( 'NONE',  ( 0.000000000000000000, 185.7056274847714405, 0.000000000000000000 ) ) ;
#140 = DIRECTION ( 'NONE',  ( 0.000000000000000000, 1.000000000000000000, 0.000000000000000000 ) ) ;
#141 = AXIS2_PLACEMENT_3D ( 'NONE', #199, #101, #170 ) ;
#142 = AXIS2_PLACEMENT_3D ( 'NONE', #218, #144, #209 ) ;
#143 =( NAMED_UNIT ( * ) PLANE_ANGLE_UNIT ( ) SI_UNIT ( $, .RADIAN. ) );
#144 = DIRECTION ( 'NONE',  ( -0.000000000000000000, -1.000000000000000000, -0.000000000000000000 ) ) ;
#145 = ORIENTED_EDGE ( 'NONE', *, *, #32, .F. ) ;
#146 = EDGE_CURVE ( 'NONE', #24, #5, #231, .T. ) ;
#147 = APPLICATION_PROTOCOL_DEFINITION ( 'international standard', 'config_control_design', 1994, #237 ) ;
#148 = APPROVAL_DATE_TIME ( #94, #103 ) ;
#149 = PERSON_AND_ORGANIZATION_ROLE ( 'classification_officer' ) ;
#150 = APPROVAL_ROLE ( '' ) ;
#151 = CARTESIAN_POINT ( 'NONE',  ( 7.347880794884118356E-15, 185.7056274847714405, 60.00000000000000000 ) ) ;
#152 = PERSON_AND_ORGANIZATION_ROLE ( 'design_supplier' ) ;
#153 = AXIS2_PLACEMENT_3D ( 'NONE', #139, #29, #221 ) ;
#154 = DIRECTION ( 'NONE',  ( -0.000000000000000000, -1.000000000000000000, -0.000000000000000000 ) ) ;
#155 = CYLINDRICAL_SURFACE ( 'NONE', #124, 75.00000000000001421 ) ;
#156 = LOCAL_TIME ( 16, 4, 42.00000000000000000, #134 ) ;
#157 = EDGE_CURVE ( 'NONE', #86, #246, #8, .T. ) ;
#158 = VERTEX_POINT ( 'NONE', #238 ) ;
#159 = VECTOR ( 'NONE', #229, 1000.000000000000000 ) ;
#160 = DIRECTION ( 'NONE',  ( -0.000000000000000000, -1.000000000000000000, -0.000000000000000000 ) ) ;
#161 = CARTESIAN_POINT ( 'NONE',  ( 0.000000000000000000, 16.00000000000000000, 0.000000000000000000 ) ) ;
#162 = DIRECTION ( 'NONE',  ( -0.000000000000000000, -1.000000000000000000, -0.000000000000000000 ) ) ;
#163 = EDGE_LOOP ( 'NONE', ( #90, #42 ) ) ;
#164 = CIRCLE ( 'NONE', #21, 75.00000000000001421 ) ;
#165 = APPROVAL_DATE_TIME ( #230, #222 ) ;
#166 = PRODUCT_DEFINITION_FORMATION_WITH_SPECIFIED_SOURCE ( 'ANY', '', #120, .NOT_KNOWN. ) ;
#167 = VECTOR ( 'NONE', #96, 1000.000000000000000 ) ;
#168 = APPROVAL_STATUS ( 'not_yet_approved' ) ;
#169 = EDGE_CURVE ( 'NONE', #27, #125, #44, .T. ) ;
#170 = DIRECTION ( 'NONE',  ( 0.000000000000000000, 0.000000000000000000, -1.000000000000000000 ) ) ;
#171 = CALENDAR_DATE ( 2026, 23, 7 ) ;
#172 = CARTESIAN_POINT ( 'NONE',  ( 7.347880794884118356E-15, 0.000000000000000000, 60.00000000000000000 ) ) ;
#173 = ORIENTED_EDGE ( 'NONE', *, *, #13, .T. ) ;
#174 = CC_DESIGN_DATE_AND_TIME_ASSIGNMENT ( #111, #75, ( #89 ) ) ;
#175 = ORIENTED_EDGE ( 'NONE', *, *, #169, .F. ) ;
#176 = LINE ( 'NONE', #7, #184 ) ;
#177 = DIRECTION ( 'NONE',  ( 0.000000000000000000, 0.000000000000000000, 1.000000000000000000 ) ) ;
#178 = APPROVAL ( #168, 'UNSPECIFIED' ) ;
#179 = CARTESIAN_POINT ( 'NONE',  ( 0.000000000000000000, 0.000000000000000000, 0.000000000000000000 ) ) ;
#180 = DIRECTION ( 'NONE',  ( 0.000000000000000000, 1.000000000000000000, 0.000000000000000000 ) ) ;
#181 = ADVANCED_FACE ( 'NONE', ( #15, #224 ), #106, .F. ) ;
#182 = ORIENTED_EDGE ( 'NONE', *, *, #186, .T. ) ;
#183 = DIRECTION ( 'NONE',  ( 0.000000000000000000, 0.000000000000000000, -1.000000000000000000 ) ) ;
#184 = VECTOR ( 'NONE', #160, 1000.000000000000000 ) ;
#185 = CARTESIAN_POINT ( 'NONE',  ( 0.000000000000000000, 0.000000000000000000, 0.000000000000000000 ) ) ;
#186 = EDGE_CURVE ( 'NONE', #5, #24, #203, .T. ) ;
#187 = ORIENTED_EDGE ( 'NONE', *, *, #157, .F. ) ;
#188 = LOCAL_TIME ( 16, 4, 42.00000000000000000, #195 ) ;
#189 = ADVANCED_FACE ( 'NONE', ( #67 ), #220, .F. ) ;
#190 = SHAPE_DEFINITION_REPRESENTATION ( #85, #68 ) ;
#191 = CIRCLE ( 'NONE', #28, 60.00000000000000000 ) ;
#192 = ORIENTED_EDGE ( 'NONE', *, *, #239, .T. ) ;
#193 = PERSON_AND_ORGANIZATION ( #17, #244 ) ;
#194 = EDGE_LOOP ( 'NONE', ( #98, #192 ) ) ;
#195 = COORDINATED_UNIVERSAL_TIME_OFFSET ( 3, 30, .AHEAD. ) ;
#196 = CC_DESIGN_PERSON_AND_ORGANIZATION_ASSIGNMENT ( #38, #149, ( #89 ) ) ;
#197 = FACE_OUTER_BOUND ( 'NONE', #217, .T. ) ;
#198 = ORIENTED_EDGE ( 'NONE', *, *, #32, .T. ) ;
#199 = CARTESIAN_POINT ( 'NONE',  ( 0.000000000000000000, 0.000000000000000000, 0.000000000000000000 ) ) ;
#200 = CARTESIAN_POINT ( 'NONE',  ( 0.000000000000000000, 0.000000000000000000, 0.000000000000000000 ) ) ;
#201 = CC_DESIGN_PERSON_AND_ORGANIZATION_ASSIGNMENT ( #97, #55, ( #166 ) ) ;
#202 = CARTESIAN_POINT ( 'NONE',  ( 0.000000000000000000, 0.000000000000000000, 0.000000000000000000 ) ) ;
#203 = CIRCLE ( 'NONE', #16, 75.00000000000001421 ) ;
#204 = CC_DESIGN_APPROVAL ( #178, ( #166 ) ) ;
#205 = EDGE_CURVE ( 'NONE', #158, #27, #72, .T. ) ;
#206 = AXIS2_PLACEMENT_3D ( 'NONE', #214, #64, #216 ) ;
#207 = DESIGN_CONTEXT ( 'detailed design', #237, 'design' ) ;
#208 = DIRECTION ( 'NONE',  ( 0.000000000000000000, 0.000000000000000000, 1.000000000000000000 ) ) ;
#209 = DIRECTION ( 'NONE',  ( 0.000000000000000000, 0.000000000000000000, 1.000000000000000000 ) ) ;
#210 = AXIS2_PLACEMENT_3D ( 'NONE', #137, #25, #99 ) ;
#211 = EDGE_CURVE ( 'NONE', #27, #158, #191, .T. ) ;
#212 = EDGE_LOOP ( 'NONE', ( #242, #4, #173, #175 ) ) ;
#213 = APPROVAL_ROLE ( '' ) ;
#214 = CARTESIAN_POINT ( 'NONE',  ( 0.000000000000000000, 0.000000000000000000, 0.000000000000000000 ) ) ;
#215 = EDGE_LOOP ( 'NONE', ( #14, #100, #123, #198 ) ) ;
#216 = DIRECTION ( 'NONE',  ( 0.000000000000000000, 0.000000000000000000, -1.000000000000000000 ) ) ;
#217 = EDGE_LOOP ( 'NONE', ( #26, #110, #121, #82 ) ) ;
#218 = CARTESIAN_POINT ( 'NONE',  ( 0.000000000000000000, 16.00000000000001421, 0.000000000000000000 ) ) ;
#219 = ADVANCED_FACE ( 'NONE', ( #236 ), #51, .F. ) ;
#220 = CYLINDRICAL_SURFACE ( 'NONE', #131, 60.00000000000000000 ) ;
#221 = DIRECTION ( 'NONE',  ( 0.000000000000000000, 0.000000000000000000, -1.000000000000000000 ) ) ;
#222 = APPROVAL ( #227, 'UNSPECIFIED' ) ;
#223 = UNCERTAINTY_MEASURE_WITH_UNIT (LENGTH_MEASURE( 1.000000000000000082E-05 ), #235, 'distance_accuracy_value', 'NONE');
#224 = FACE_OUTER_BOUND ( 'NONE', #93, .T. ) ;
#225 = APPROVAL_STATUS ( 'not_yet_approved' ) ;
#226 = CALENDAR_DATE ( 2026, 23, 7 ) ;
#227 = APPROVAL_STATUS ( 'not_yet_approved' ) ;
#228 = COORDINATED_UNIVERSAL_TIME_OFFSET ( 3, 30, .AHEAD. ) ;
#229 = DIRECTION ( 'NONE',  ( -0.000000000000000000, -1.000000000000000000, -0.000000000000000000 ) ) ;
#230 = DATE_AND_TIME ( #171, #92 ) ;
#231 = CIRCLE ( 'NONE', #118, 75.00000000000001421 ) ;
#232 = DIRECTION ( 'NONE',  ( 0.000000000000000000, 0.000000000000000000, -1.000000000000000000 ) ) ;
#233 = CARTESIAN_POINT ( 'NONE',  ( 0.000000000000000000, 0.000000000000000000, -60.00000000000000000 ) ) ;
#234 = CARTESIAN_POINT ( 'NONE',  ( 0.000000000000000000, 0.000000000000000000, -75.00000000000001421 ) ) ;
#235 =( LENGTH_UNIT ( ) NAMED_UNIT ( * ) SI_UNIT ( .MILLI., .METRE. ) );
#236 = FACE_OUTER_BOUND ( 'NONE', #215, .T. ) ;
#237 = APPLICATION_CONTEXT ( 'configuration controlled 3d designs of mechanical parts and assemblies' ) ;
#238 = CARTESIAN_POINT ( 'NONE',  ( 7.347880794884118356E-15, 16.00000000000001421, 60.00000000000000000 ) ) ;
#239 = EDGE_CURVE ( 'NONE', #246, #86, #164, .T. ) ;
#240 = DIRECTION ( 'NONE',  ( 0.000000000000000000, 1.000000000000000000, 0.000000000000000000 ) ) ;
#241 = CC_DESIGN_DATE_AND_TIME_ASSIGNMENT ( #109, #53, ( #49 ) ) ;
#242 = ORIENTED_EDGE ( 'NONE', *, *, #205, .F. ) ;
#243 = DIRECTION ( 'NONE',  ( 1.000000000000000000, 0.000000000000000000, 0.000000000000000000 ) ) ;
#244 = ORGANIZATION ( 'UNSPECIFIED', 'UNSPECIFIED', '' ) ;
#245 = PERSON_AND_ORGANIZATION ( #17, #244 ) ;
#246 = VERTEX_POINT ( 'NONE', #88 ) ;
#247 = CALENDAR_DATE ( 2026, 23, 7 ) ;
#248 = CC_DESIGN_APPROVAL ( #222, ( #89 ) ) ;
#249 = PERSON_AND_ORGANIZATION ( #17, #244 ) ;
ENDSEC;
END-ISO-10303-21;
