ISO-10303-21;
HEADER;
FILE_DESCRIPTION (( 'STEP AP203' ),
    '1' );
FILE_NAME ('Link3LeftLShape_Default_sldprt.STEP',
    '2026-07-23T12:35:05',
    ( '' ),
    ( '' ),
    'SwSTEP 2.0',
    'SolidWorks 2025',
    '' );
FILE_SCHEMA (( 'CONFIG_CONTROL_DESIGN' ));
ENDSEC;

DATA;
#1 = CARTESIAN_POINT ( 'NONE',  ( -133.7500000000000853, 0.000000000000000000, -110.0000000000000284 ) ) ;
#2 = ORIENTED_EDGE ( 'NONE', *, *, #324, .F. ) ;
#3 = DIRECTION ( 'NONE',  ( -1.000000000000000000, 0.000000000000000000, 0.000000000000000000 ) ) ;
#4 = DIRECTION ( 'NONE',  ( -1.000000000000000000, 0.000000000000000000, 1.387778780781445182E-16 ) ) ;
#5 = ORIENTED_EDGE ( 'NONE', *, *, #426, .F. ) ;
#6 = PERSON_AND_ORGANIZATION_ROLE ( 'design_supplier' ) ;
#7 = PLANE ( 'NONE',  #216 ) ;
#8 = ADVANCED_BREP_SHAPE_REPRESENTATION ( 'Link3LeftLShape_Default_sldprt', ( #106, #48 ), #95 ) ;
#9 = ORIENTED_EDGE ( 'NONE', *, *, #102, .F. ) ;
#10 = PERSON_AND_ORGANIZATION ( #181, #276 ) ;
#11 = EDGE_CURVE ( 'NONE', #283, #252, #126, .T. ) ;
#12 = CARTESIAN_POINT ( 'NONE',  ( -133.7500000000000853, 20.00000000000000000, -110.0000000000000284 ) ) ;
#13 = ORIENTED_EDGE ( 'NONE', *, *, #489, .F. ) ;
#14 = CC_DESIGN_APPROVAL ( #233, ( #232 ) ) ;
#15 = PERSON_AND_ORGANIZATION_ROLE ( 'creator' ) ;
#16 = VECTOR ( 'NONE', #425, 1000.000000000000000 ) ;
#17 = CC_DESIGN_PERSON_AND_ORGANIZATION_ASSIGNMENT ( #338, #92, ( #114 ) ) ;
#18 = ORIENTED_EDGE ( 'NONE', *, *, #241, .F. ) ;
#19 = ORIENTED_EDGE ( 'NONE', *, *, #457, .T. ) ;
#20 = FACE_OUTER_BOUND ( 'NONE', #277, .T. ) ;
#21 = CARTESIAN_POINT ( 'NONE',  ( -113.7500000000000142, 20.00000000000000000, 9.999999999999975131 ) ) ;
#22 = CARTESIAN_POINT ( 'NONE',  ( -113.7500000000000142, 20.00000000000000000, 9.999999999999975131 ) ) ;
#23 = VECTOR ( 'NONE', #354, 1000.000000000000000 ) ;
#24 = EDGE_CURVE ( 'NONE', #484, #175, #459, .T. ) ;
#25 = LINE ( 'NONE', #107, #198 ) ;
#26 = CC_DESIGN_APPROVAL ( #105, ( #121 ) ) ;
#27 = EDGE_CURVE ( 'NONE', #411, #364, #500, .T. ) ;
#28 = CARTESIAN_POINT ( 'NONE',  ( -113.7500000000000142, 20.00000000000000000, -10.00000000000002487 ) ) ;
#29 = CARTESIAN_POINT ( 'NONE',  ( -113.7500000000000142, 0.000000000000000000, 9.999999999999975131 ) ) ;
#30 = EDGE_CURVE ( 'NONE', #252, #477, #148, .T. ) ;
#31 = CARTESIAN_POINT ( 'NONE',  ( -51.10000000000000142, 10.00000000000000000, 9.999999999999989342 ) ) ;
#32 = DIRECTION ( 'NONE',  ( -2.745056929018243809E-16, 0.000000000000000000, -1.000000000000000000 ) ) ;
#33 = ORIENTED_EDGE ( 'NONE', *, *, #452, .T. ) ;
#34 = CARTESIAN_POINT ( 'NONE',  ( -91.00000000000000000, 10.00000000000000000, 15.93969696196701591 ) ) ;
#35 = DIRECTION ( 'NONE',  ( -1.000000000000000000, 0.000000000000000000, 0.000000000000000000 ) ) ;
#36 = AXIS2_PLACEMENT_3D ( 'NONE', #359, #479, #35 ) ;
#37 = ORIENTED_EDGE ( 'NONE', *, *, #27, .F. ) ;
#38 = CARTESIAN_POINT ( 'NONE',  ( -93.10000000000000853, 10.00000000000000000, 15.93969696196701591 ) ) ;
#39 = ORIENTED_EDGE ( 'NONE', *, *, #238, .T. ) ;
#40 = PERSON_AND_ORGANIZATION_ROLE ( 'design_owner' ) ;
#41 = CARTESIAN_POINT ( 'NONE',  ( 0.000000000000000000, 0.000000000000000000, 10.00000000000000000 ) ) ;
#42 = EDGE_LOOP ( 'NONE', ( #13, #196 ) ) ;
#43 = FACE_OUTER_BOUND ( 'NONE', #87, .T. ) ;
#44 = CARTESIAN_POINT ( 'NONE',  ( -133.7500000000000000, 20.00000000000000000, 9.999999999999971578 ) ) ;
#45 = CC_DESIGN_SECURITY_CLASSIFICATION ( #121, ( #232 ) ) ;
#46 = APPROVAL_STATUS ( 'not_yet_approved' ) ;
#47 = FACE_OUTER_BOUND ( 'NONE', #207, .T. ) ;
#48 = AXIS2_PLACEMENT_3D ( 'NONE', #328, #475, #235 ) ;
#49 = ORIENTED_EDGE ( 'NONE', *, *, #192, .T. ) ;
#50 = EDGE_CURVE ( 'NONE', #218, #178, #187, .T. ) ;
#51 = CARTESIAN_POINT ( 'NONE',  ( -91.00000000000000000, 10.00000000000000000, 9.999999999999980460 ) ) ;
#52 = ORIENTED_EDGE ( 'NONE', *, *, #79, .T. ) ;
#53 = EDGE_CURVE ( 'NONE', #428, #486, #306, .T. ) ;
#54 = APPROVAL_STATUS ( 'not_yet_approved' ) ;
#55 = ORIENTED_EDGE ( 'NONE', *, *, #426, .T. ) ;
#56 = DATE_AND_TIME ( #453, #189 ) ;
#57 = ORIENTED_EDGE ( 'NONE', *, *, #30, .T. ) ;
#58 = PERSON_AND_ORGANIZATION ( #181, #276 ) ;
#59 = DIRECTION ( 'NONE',  ( -1.000000000000000000, 0.000000000000000000, 0.000000000000000000 ) ) ;
#60 = CARTESIAN_POINT ( 'NONE',  ( -113.7500000000000853, 20.00000000000000000, -9.999999999999971578 ) ) ;
#61 = EDGE_CURVE ( 'NONE', #341, #486, #347, .T. ) ;
#62 = CARTESIAN_POINT ( 'NONE',  ( -113.7500000000000995, 0.000000000000000000, -110.0000000000000142 ) ) ;
#63 = EDGE_CURVE ( 'NONE', #218, #428, #167, .T. ) ;
#64 = CARTESIAN_POINT ( 'NONE',  ( -48.99999999999999289, 10.00000000000000000, 15.93969696196700170 ) ) ;
#65 = LINE ( 'NONE', #377, #184 ) ;
#66 = CARTESIAN_POINT ( 'NONE',  ( -113.7500000000000995, 0.000000000000000000, -110.0000000000000142 ) ) ;
#67 = AXIS2_PLACEMENT_3D ( 'NONE', #292, #253, #442 ) ;
#68 = AXIS2_PLACEMENT_3D ( 'NONE', #492, #300, #262 ) ;
#69 = FACE_OUTER_BOUND ( 'NONE', #374, .T. ) ;
#70 = APPROVAL ( #478, 'UNSPECIFIED' ) ;
#71 = VERTEX_POINT ( 'NONE', #228 ) ;
#72 = CARTESIAN_POINT ( 'NONE',  ( -48.99999999999999289, 10.00000000000000000, 9.999999999999989342 ) ) ;
#73 = DIRECTION ( 'NONE',  ( -2.745056929018243809E-16, -0.000000000000000000, -1.000000000000000000 ) ) ;
#74 = ORIENTED_EDGE ( 'NONE', *, *, #154, .T. ) ;
#75 = CYLINDRICAL_SURFACE ( 'NONE', #201, 2.100000000000004530 ) ;
#76 = DIRECTION ( 'NONE',  ( -1.000000000000000000, 0.000000000000000000, 0.000000000000000000 ) ) ;
#77 = AXIS2_PLACEMENT_3D ( 'NONE', #182, #343, #497 ) ;
#78 = ORIENTED_EDGE ( 'NONE', *, *, #120, .F. ) ;
#79 = EDGE_CURVE ( 'NONE', #330, #153, #305, .T. ) ;
#80 = LINE ( 'NONE', #482, #369 ) ;
#81 = CARTESIAN_POINT ( 'NONE',  ( -133.7500000000000853, 0.000000000000000000, -110.0000000000000284 ) ) ;
#82 = ORIENTED_EDGE ( 'NONE', *, *, #63, .T. ) ;
#83 = DIRECTION ( 'NONE',  ( -0.000000000000000000, -0.000000000000000000, -1.000000000000000000 ) ) ;
#84 = CARTESIAN_POINT ( 'NONE',  ( 0.000000000000000000, 20.00000000000000000, 0.000000000000000000 ) ) ;
#85 = ORIENTED_EDGE ( 'NONE', *, *, #208, .F. ) ;
#86 = FACE_OUTER_BOUND ( 'NONE', #375, .T. ) ;
#87 = EDGE_LOOP ( 'NONE', ( #180, #220, #124, #255 ) ) ;
#88 = DIRECTION ( 'NONE',  ( 6.938893903907228378E-16, -0.000000000000000000, 1.000000000000000000 ) ) ;
#89 = AXIS2_PLACEMENT_3D ( 'NONE', #117, #278, #429 ) ;
#90 = VERTEX_POINT ( 'NONE', #149 ) ;
#91 = ORIENTED_EDGE ( 'NONE', *, *, #185, .T. ) ;
#92 = PERSON_AND_ORGANIZATION_ROLE ( 'creator' ) ;
#93 = EDGE_LOOP ( 'NONE', ( #521, #162, #55, #280 ) ) ;
#94 = DATE_TIME_ROLE ( 'creation_date' ) ;
#95 =( GEOMETRIC_REPRESENTATION_CONTEXT ( 3 ) GLOBAL_UNCERTAINTY_ASSIGNED_CONTEXT ( ( #303 ) ) GLOBAL_UNIT_ASSIGNED_CONTEXT ( ( #315, #205, #466 ) ) REPRESENTATION_CONTEXT ( 'NONE', 'WORKASPACE' ) );
#96 = ORIENTED_EDGE ( 'NONE', *, *, #413, .F. ) ;
#97 = VECTOR ( 'NONE', #417, 1000.000000000000000 ) ;
#98 = DESIGN_CONTEXT ( 'detailed design', #503, 'design' ) ;
#99 = ADVANCED_FACE ( 'NONE', ( #379 ), #380, .F. ) ;
#100 = DIRECTION ( 'NONE',  ( 0.000000000000000000, 1.000000000000000000, -0.000000000000000000 ) ) ;
#101 = DIRECTION ( 'NONE',  ( -1.000000000000000000, 0.000000000000000000, 0.000000000000000000 ) ) ;
#102 = EDGE_CURVE ( 'NONE', #116, #283, #502, .T. ) ;
#103 = CIRCLE ( 'NONE', #373, 2.100000000000004530 ) ;
#104 = DIRECTION ( 'NONE',  ( -0.000000000000000000, 1.000000000000000000, -0.000000000000000000 ) ) ;
#105 = APPROVAL ( #46, 'UNSPECIFIED' ) ;
#106 = MANIFOLD_SOLID_BREP ( 'Cut-Extrude1', #337 ) ;
#107 = CARTESIAN_POINT ( 'NONE',  ( 0.000000000000000000, 0.000000000000000000, -10.00000000000000000 ) ) ;
#108 = DIRECTION ( 'NONE',  ( -1.000000000000000000, -0.000000000000000000, 2.440050603571770850E-16 ) ) ;
#109 = ADVANCED_FACE ( 'NONE', ( #463 ), #345, .F. ) ;
#110 = LINE ( 'NONE', #159, #263 ) ;
#111 = PRODUCT ( 'Link3LeftLShape_Default_sldprt', 'Link3LeftLShape_Default_sldprt', '', ( #358 ) ) ;
#112 = CC_DESIGN_APPROVAL ( #70, ( #114 ) ) ;
#113 = VECTOR ( 'NONE', #108, 1000.000000000000000 ) ;
#114 = PRODUCT_DEFINITION ( 'UNKNOWN', '', #232, #98 ) ;
#115 = FACE_OUTER_BOUND ( 'NONE', #318, .T. ) ;
#116 = VERTEX_POINT ( 'NONE', #21 ) ;
#117 = CARTESIAN_POINT ( 'NONE',  ( -93.75000000000008527, 20.00000000000000000, -29.99999999999997158 ) ) ;
#118 = CARTESIAN_POINT ( 'NONE',  ( 0.000000000000000000, 20.00000000000000000, -10.00000000000000000 ) ) ;
#119 = EDGE_LOOP ( 'NONE', ( #401, #169, #140, #465 ) ) ;
#120 = EDGE_CURVE ( 'NONE', #246, #248, #25, .T. ) ;
#121 = SECURITY_CLASSIFICATION ( '', '', #223 ) ;
#122 = DIRECTION ( 'NONE',  ( -1.000000000000000000, 0.000000000000000000, 0.000000000000000000 ) ) ;
#123 = CIRCLE ( 'NONE', #36, 2.100000000000004530 ) ;
#124 = ORIENTED_EDGE ( 'NONE', *, *, #63, .F. ) ;
#125 = DIRECTION ( 'NONE',  ( -2.745056929018243809E-16, -0.000000000000000000, -1.000000000000000000 ) ) ;
#126 = CIRCLE ( 'NONE', #68, 20.00000000000000355 ) ;
#127 = DIRECTION ( 'NONE',  ( 2.075183223598423177E-16, 0.000000000000000000, -1.000000000000000000 ) ) ;
#128 = EDGE_LOOP ( 'NONE', ( #431, #332 ) ) ;
#129 = CARTESIAN_POINT ( 'NONE',  ( -133.7500000000000853, 20.00000000000000000, -110.0000000000000284 ) ) ;
#130 = LINE ( 'NONE', #171, #259 ) ;
#131 = ORIENTED_EDGE ( 'NONE', *, *, #151, .F. ) ;
#132 = DIRECTION ( 'NONE',  ( 0.000000000000000000, -1.000000000000000000, 0.000000000000000000 ) ) ;
#133 = ORIENTED_EDGE ( 'NONE', *, *, #61, .F. ) ;
#134 = SHAPE_DEFINITION_REPRESENTATION ( #179, #8 ) ;
#135 = LINE ( 'NONE', #44, #501 ) ;
#136 = ORIENTED_EDGE ( 'NONE', *, *, #50, .F. ) ;
#137 = PERSON_AND_ORGANIZATION ( #181, #276 ) ;
#138 = ORIENTED_EDGE ( 'NONE', *, *, #468, .T. ) ;
#139 = ADVANCED_FACE ( 'NONE', ( #349 ), #224, .T. ) ;
#140 = ORIENTED_EDGE ( 'NONE', *, *, #241, .T. ) ;
#141 = APPROVAL_DATE_TIME ( #56, #105 ) ;
#142 = APPROVAL_PERSON_ORGANIZATION ( #163, #70, #301 ) ;
#143 = CARTESIAN_POINT ( 'NONE',  ( -46.89999999999999858, 10.00000000000000000, -9.999999999999985789 ) ) ;
#144 = AXIS2_PLACEMENT_3D ( 'NONE', #206, #4, #408 ) ;
#145 = VECTOR ( 'NONE', #483, 1000.000000000000000 ) ;
#146 = CARTESIAN_POINT ( 'NONE',  ( -93.75000000000008527, 0.000000000000000000, -29.99999999999997158 ) ) ;
#147 = CC_DESIGN_PERSON_AND_ORGANIZATION_ASSIGNMENT ( #258, #261, ( #121 ) ) ;
#148 = LINE ( 'NONE', #309, #97 ) ;
#149 = CARTESIAN_POINT ( 'NONE',  ( -133.7500000000000853, 20.00000000000000000, -110.0000000000000284 ) ) ;
#150 = FACE_BOUND ( 'NONE', #204, .T. ) ;
#151 = EDGE_CURVE ( 'NONE', #336, #252, #231, .T. ) ;
#152 = DIRECTION ( 'NONE',  ( -2.745056929018243809E-16, -0.000000000000000000, -1.000000000000000000 ) ) ;
#153 = VERTEX_POINT ( 'NONE', #423 ) ;
#154 = EDGE_CURVE ( 'NONE', #368, #246, #65, .T. ) ;
#155 = LINE ( 'NONE', #165, #420 ) ;
#156 = CARTESIAN_POINT ( 'NONE',  ( -88.90000000000000568, 10.00000000000000000, -9.999999999999975131 ) ) ;
#157 = ORIENTED_EDGE ( 'NONE', *, *, #387, .T. ) ;
#158 = FACE_OUTER_BOUND ( 'NONE', #257, .T. ) ;
#159 = CARTESIAN_POINT ( 'NONE',  ( -88.89999999999999147, 10.00000000000000000, 15.93969696196701591 ) ) ;
#160 = VERTEX_POINT ( 'NONE', #190 ) ;
#161 = PLANE ( 'NONE',  #229 ) ;
#162 = ORIENTED_EDGE ( 'NONE', *, *, #352, .T. ) ;
#163 = PERSON_AND_ORGANIZATION ( #181, #276 ) ;
#164 = CARTESIAN_POINT ( 'NONE',  ( 0.000000000000000000, 0.000000000000000000, 10.00000000000000000 ) ) ;
#165 = CARTESIAN_POINT ( 'NONE',  ( -51.10000000000000142, 10.00000000000000000, 15.93969696196700170 ) ) ;
#166 = LOCAL_TIME ( 16, 5, 5.000000000000000000, #491 ) ;
#167 = CIRCLE ( 'NONE', #265, 20.00000000000000355 ) ;
#168 = DIRECTION ( 'NONE',  ( -1.000000000000000000, -0.000000000000000000, 2.440050603571770850E-16 ) ) ;
#169 = ORIENTED_EDGE ( 'NONE', *, *, #102, .T. ) ;
#170 = ADVANCED_FACE ( 'NONE', ( #350, #150, #20 ), #312, .F. ) ;
#171 = CARTESIAN_POINT ( 'NONE',  ( 0.000000000000000000, 20.00000000000000000, 10.00000000000000000 ) ) ;
#172 = ORIENTED_EDGE ( 'NONE', *, *, #468, .F. ) ;
#173 = APPROVAL_DATE_TIME ( #177, #70 ) ;
#174 = DIRECTION ( 'NONE',  ( -2.075183223598423177E-16, -0.000000000000000000, 1.000000000000000000 ) ) ;
#175 = VERTEX_POINT ( 'NONE', #143 ) ;
#176 = VECTOR ( 'NONE', #195, 1000.000000000000000 ) ;
#177 = DATE_AND_TIME ( #494, #385 ) ;
#178 = VERTEX_POINT ( 'NONE', #66 ) ;
#179 = PRODUCT_DEFINITION_SHAPE ( 'NONE', 'NONE',  #114 ) ;
#180 = ORIENTED_EDGE ( 'NONE', *, *, #457, .F. ) ;
#181 = PERSON ( 'UNSPECIFIED', 'UNSPECIFIED', 'UNSPECIFIED', ('UNSPECIFIED'), ('UNSPECIFIED'), ('UNSPECIFIED') ) ;
#182 = CARTESIAN_POINT ( 'NONE',  ( -113.7500000000000853, 20.00000000000000000, -9.999999999999971578 ) ) ;
#183 = DIRECTION ( 'NONE',  ( 0.000000000000000000, -1.000000000000000000, 0.000000000000000000 ) ) ;
#184 = VECTOR ( 'NONE', #384, 1000.000000000000000 ) ;
#185 = EDGE_CURVE ( 'NONE', #411, #218, #326, .T. ) ;
#186 = APPLICATION_CONTEXT ( 'configuration controlled 3d designs of mechanical parts and assemblies' ) ;
#187 = LINE ( 'NONE', #62, #211 ) ;
#188 = DIRECTION ( 'NONE',  ( -0.000000000000000000, -0.000000000000000000, -1.000000000000000000 ) ) ;
#189 = LOCAL_TIME ( 16, 5, 5.000000000000000000, #215 ) ;
#190 = CARTESIAN_POINT ( 'NONE',  ( -51.10000000000000853, 10.00000000000000000, -9.999999999999985789 ) ) ;
#191 = DIRECTION ( 'NONE',  ( -0.000000000000000000, -1.000000000000000000, -0.000000000000000000 ) ) ;
#192 = EDGE_CURVE ( 'NONE', #175, #160, #123, .T. ) ;
#193 = DIRECTION ( 'NONE',  ( -1.000000000000000000, 0.000000000000000000, 0.000000000000000000 ) ) ;
#194 = LINE ( 'NONE', #118, #506 ) ;
#195 = DIRECTION ( 'NONE',  ( -1.000000000000000000, -0.000000000000000000, -6.938893903907232322E-16 ) ) ;
#196 = ORIENTED_EDGE ( 'NONE', *, *, #352, .F. ) ;
#197 = AXIS2_PLACEMENT_3D ( 'NONE', #325, #388, #193 ) ;
#198 = VECTOR ( 'NONE', #188, 1000.000000000000000 ) ;
#199 = CARTESIAN_POINT ( 'NONE',  ( 0.000000000000000000, 20.00000000000000000, -10.00000000000000000 ) ) ;
#200 = EDGE_LOOP ( 'NONE', ( #445, #471, #443, #74 ) ) ;
#201 = AXIS2_PLACEMENT_3D ( 'NONE', #34, #125, #3 ) ;
#202 = APPLICATION_PROTOCOL_DEFINITION ( 'international standard', 'config_control_design', 1994, #503 ) ;
#203 = PLANE ( 'NONE',  #310 ) ;
#204 = EDGE_LOOP ( 'NONE', ( #2, #339 ) ) ;
#205 =( NAMED_UNIT ( * ) PLANE_ANGLE_UNIT ( ) SI_UNIT ( $, .RADIAN. ) );
#206 = CARTESIAN_POINT ( 'NONE',  ( -113.7500000000000995, 20.00000000000000000, -110.0000000000000142 ) ) ;
#207 = EDGE_LOOP ( 'NONE', ( #37, #91, #290, #172 ) ) ;
#208 = EDGE_CURVE ( 'NONE', #160, #175, #103, .T. ) ;
#209 = CALENDAR_DATE ( 2026, 23, 7 ) ;
#210 = VECTOR ( 'NONE', #288, 1000.000000000000000 ) ;
#211 = VECTOR ( 'NONE', #507, 1000.000000000000000 ) ;
#212 = PLANE ( 'NONE',  #67 ) ;
#213 = ORIENTED_EDGE ( 'NONE', *, *, #324, .T. ) ;
#214 = EDGE_CURVE ( 'NONE', #178, #336, #351, .T. ) ;
#215 = COORDINATED_UNIVERSAL_TIME_OFFSET ( 3, 30, .AHEAD. ) ;
#216 = AXIS2_PLACEMENT_3D ( 'NONE', #84, #132, #329 ) ;
#217 = CARTESIAN_POINT ( 'NONE',  ( -113.7500000000000995, 20.00000000000000000, -110.0000000000000142 ) ) ;
#218 = VERTEX_POINT ( 'NONE', #438 ) ;
#219 = APPROVAL_ROLE ( '' ) ;
#220 = ORIENTED_EDGE ( 'NONE', *, *, #53, .F. ) ;
#221 = AXIS2_PLACEMENT_3D ( 'NONE', #476, #152, #236 ) ;
#222 = ORIENTED_EDGE ( 'NONE', *, *, #404, .T. ) ;
#223 = SECURITY_CLASSIFICATION_LEVEL ( 'unclassified' ) ;
#224 = CYLINDRICAL_SURFACE ( 'NONE', #319, 20.00000000000000355 ) ;
#225 = ADVANCED_FACE ( 'NONE', ( #355, #469, #514 ), #386, .F. ) ;
#226 = DIRECTION ( 'NONE',  ( -2.745056929018243809E-16, 0.000000000000000000, -1.000000000000000000 ) ) ;
#227 = CC_DESIGN_DATE_AND_TIME_ASSIGNMENT ( #342, #94, ( #114 ) ) ;
#228 = CARTESIAN_POINT ( 'NONE',  ( -93.10000000000000853, 10.00000000000000000, 9.999999999999980460 ) ) ;
#229 = AXIS2_PLACEMENT_3D ( 'NONE', #322, #122, #247 ) ;
#230 = DIRECTION ( 'NONE',  ( -2.745056929018243809E-16, -0.000000000000000000, -1.000000000000000000 ) ) ;
#231 = LINE ( 'NONE', #311, #515 ) ;
#232 = PRODUCT_DEFINITION_FORMATION_WITH_SPECIFIED_SOURCE ( 'ANY', '', #111, .NOT_KNOWN. ) ;
#233 = APPROVAL ( #54, 'UNSPECIFIED' ) ;
#234 = CARTESIAN_POINT ( 'NONE',  ( -133.7500000000000000, 20.00000000000000000, 9.999999999999971578 ) ) ;
#235 = DIRECTION ( 'NONE',  ( 1.000000000000000000, 0.000000000000000000, 0.000000000000000000 ) ) ;
#236 = DIRECTION ( 'NONE',  ( -1.000000000000000000, 0.000000000000000000, 0.000000000000000000 ) ) ;
#237 = AXIS2_PLACEMENT_3D ( 'NONE', #51, #485, #363 ) ;
#238 = EDGE_CURVE ( 'NONE', #414, #330, #110, .T. ) ;
#239 = FACE_OUTER_BOUND ( 'NONE', #266, .T. ) ;
#240 = EDGE_LOOP ( 'NONE', ( #454, #260, #295, #9 ) ) ;
#241 = EDGE_CURVE ( 'NONE', #283, #246, #275, .T. ) ;
#242 = LOCAL_TIME ( 16, 5, 5.000000000000000000, #299 ) ;
#243 = CARTESIAN_POINT ( 'NONE',  ( -93.75000000000008527, 20.00000000000000000, -29.99999999999997158 ) ) ;
#244 = AXIS2_PLACEMENT_3D ( 'NONE', #430, #127, #396 ) ;
#245 = CARTESIAN_POINT ( 'NONE',  ( -49.00000000000000000, 10.00000000000000000, -9.999999999999985789 ) ) ;
#246 = VERTEX_POINT ( 'NONE', #41 ) ;
#247 = DIRECTION ( 'NONE',  ( 0.000000000000000000, 0.000000000000000000, 1.000000000000000000 ) ) ;
#248 = VERTEX_POINT ( 'NONE', #316 ) ;
#249 = CARTESIAN_POINT ( 'NONE',  ( -46.89999999999999147, 10.00000000000000000, 9.999999999999989342 ) ) ;
#250 = ADVANCED_FACE ( 'NONE', ( #239 ), #203, .F. ) ;
#251 = DIRECTION ( 'NONE',  ( 1.000000000000000000, -0.000000000000000000, 2.075183223598423424E-16 ) ) ;
#252 = VERTEX_POINT ( 'NONE', #520 ) ;
#253 = DIRECTION ( 'NONE',  ( -6.938893903907233308E-16, 0.000000000000000000, 1.000000000000000000 ) ) ;
#254 = PRODUCT_RELATED_PRODUCT_CATEGORY ( 'detail', '', ( #111 ) ) ;
#255 = ORIENTED_EDGE ( 'NONE', *, *, #185, .F. ) ;
#256 = DIRECTION ( 'NONE',  ( 0.000000000000000000, 1.000000000000000000, -0.000000000000000000 ) ) ;
#257 = EDGE_LOOP ( 'NONE', ( #286, #39, #52, #409 ) ) ;
#258 = PERSON_AND_ORGANIZATION ( #181, #276 ) ;
#259 = VECTOR ( 'NONE', #251, 1000.000000000000000 ) ;
#260 = ORIENTED_EDGE ( 'NONE', *, *, #30, .F. ) ;
#261 = PERSON_AND_ORGANIZATION_ROLE ( 'classification_officer' ) ;
#262 = DIRECTION ( 'NONE',  ( 0.000000000000000000, 0.000000000000000000, -1.000000000000000000 ) ) ;
#263 = VECTOR ( 'NONE', #73, 1000.000000000000000 ) ;
#264 = VECTOR ( 'NONE', #383, 1000.000000000000000 ) ;
#265 = AXIS2_PLACEMENT_3D ( 'NONE', #146, #100, #460 ) ;
#266 = EDGE_LOOP ( 'NONE', ( #440, #57, #327, #495 ) ) ;
#267 = AXIS2_PLACEMENT_3D ( 'NONE', #72, #402, #517 ) ;
#268 = CC_DESIGN_PERSON_AND_ORGANIZATION_ASSIGNMENT ( #437, #40, ( #111 ) ) ;
#269 = DIRECTION ( 'NONE',  ( -2.745056929018243809E-16, -0.000000000000000000, -1.000000000000000000 ) ) ;
#270 = CARTESIAN_POINT ( 'NONE',  ( -48.99999999999999289, 10.00000000000000000, 15.93969696196700170 ) ) ;
#271 = LOCAL_TIME ( 16, 5, 5.000000000000000000, #446 ) ;
#272 = DIRECTION ( 'NONE',  ( -2.745056929018243809E-16, -0.000000000000000000, -1.000000000000000000 ) ) ;
#273 = DIRECTION ( 'NONE',  ( -1.000000000000000000, 0.000000000000000000, 0.000000000000000000 ) ) ;
#274 = CARTESIAN_POINT ( 'NONE',  ( -46.89999999999999147, 10.00000000000000000, 15.93969696196700170 ) ) ;
#275 = LINE ( 'NONE', #164, #16 ) ;
#276 = ORGANIZATION ( 'UNSPECIFIED', 'UNSPECIFIED', '' ) ;
#277 = EDGE_LOOP ( 'NONE', ( #393, #474, #133, #302 ) ) ;
#278 = DIRECTION ( 'NONE',  ( -0.000000000000000000, -1.000000000000000000, 0.000000000000000000 ) ) ;
#279 = DIRECTION ( 'NONE',  ( 0.000000000000000000, -1.000000000000000000, 0.000000000000000000 ) ) ;
#280 = ORIENTED_EDGE ( 'NONE', *, *, #208, .T. ) ;
#281 = DIRECTION ( 'NONE',  ( -0.000000000000000000, -1.000000000000000000, -0.000000000000000000 ) ) ;
#282 = CARTESIAN_POINT ( 'NONE',  ( 0.000000000000000000, 0.000000000000000000, 0.000000000000000000 ) ) ;
#283 = VERTEX_POINT ( 'NONE', #29 ) ;
#284 = APPLICATION_PROTOCOL_DEFINITION ( 'international standard', 'config_control_design', 1994, #186 ) ;
#285 = DIRECTION ( 'NONE',  ( -2.745056929018243809E-16, 0.000000000000000000, -1.000000000000000000 ) ) ;
#286 = ORIENTED_EDGE ( 'NONE', *, *, #432, .T. ) ;
#287 = ADVANCED_FACE ( 'NONE', ( #69 ), #313, .F. ) ;
#288 = DIRECTION ( 'NONE',  ( -0.000000000000000000, -1.000000000000000000, -0.000000000000000000 ) ) ;
#289 = CARTESIAN_POINT ( 'NONE',  ( -113.7500000000000853, 0.000000000000000000, -9.999999999999971578 ) ) ;
#290 = ORIENTED_EDGE ( 'NONE', *, *, #50, .T. ) ;
#291 = DIRECTION ( 'NONE',  ( 0.000000000000000000, 1.000000000000000000, 0.000000000000000000 ) ) ;
#292 = CARTESIAN_POINT ( 'NONE',  ( -133.7500000000000853, 20.00000000000000000, -110.0000000000000284 ) ) ;
#293 = ORIENTED_EDGE ( 'NONE', *, *, #27, .T. ) ;
#294 = LINE ( 'NONE', #12, #145 ) ;
#295 = ORIENTED_EDGE ( 'NONE', *, *, #11, .F. ) ;
#296 = APPROVAL_DATE_TIME ( #366, #233 ) ;
#297 = ORIENTED_EDGE ( 'NONE', *, *, #238, .F. ) ;
#298 = EDGE_CURVE ( 'NONE', #341, #248, #194, .T. ) ;
#299 = COORDINATED_UNIVERSAL_TIME_OFFSET ( 3, 30, .AHEAD. ) ;
#300 = DIRECTION ( 'NONE',  ( -0.000000000000000000, -1.000000000000000000, 0.000000000000000000 ) ) ;
#301 = APPROVAL_ROLE ( '' ) ;
#302 = ORIENTED_EDGE ( 'NONE', *, *, #298, .T. ) ;
#303 = UNCERTAINTY_MEASURE_WITH_UNIT (LENGTH_MEASURE( 1.000000000000000082E-05 ), #315, 'distance_accuracy_value', 'NONE');
#304 = ADVANCED_FACE ( 'NONE', ( #115 ), #473, .T. ) ;
#305 = CIRCLE ( 'NONE', #467, 2.100000000000004530 ) ;
#306 = LINE ( 'NONE', #419, #480 ) ;
#307 = EDGE_CURVE ( 'NONE', #71, #153, #427, .T. ) ;
#308 = CARTESIAN_POINT ( 'NONE',  ( -91.00000000000001421, 10.00000000000000000, -9.999999999999975131 ) ) ;
#309 = CARTESIAN_POINT ( 'NONE',  ( -133.7500000000000000, 20.00000000000000000, -10.00000000000001066 ) ) ;
#310 = AXIS2_PLACEMENT_3D ( 'NONE', #234, #508, #392 ) ;
#311 = CARTESIAN_POINT ( 'NONE',  ( -133.7500000000000000, 0.000000000000000000, 9.999999999999971578 ) ) ;
#312 = PLANE ( 'NONE',  #77 ) ;
#313 = CYLINDRICAL_SURFACE ( 'NONE', #221, 2.100000000000004530 ) ;
#314 = EDGE_LOOP ( 'NONE', ( #85, #406 ) ) ;
#315 =( LENGTH_UNIT ( ) NAMED_UNIT ( * ) SI_UNIT ( .MILLI., .METRE. ) );
#316 = CARTESIAN_POINT ( 'NONE',  ( 0.000000000000000000, 0.000000000000000000, -10.00000000000000000 ) ) ;
#317 = CIRCLE ( 'NONE', #439, 20.00000000000000355 ) ;
#318 = EDGE_LOOP ( 'NONE', ( #18, #448, #131, #323, #136, #82, #96, #78 ) ) ;
#319 = AXIS2_PLACEMENT_3D ( 'NONE', #28, #183, #505 ) ;
#320 = CARTESIAN_POINT ( 'NONE',  ( 0.000000000000000000, 20.00000000000000000, -10.00000000000000000 ) ) ;
#321 = CARTESIAN_POINT ( 'NONE',  ( -113.7500000000000853, 0.000000000000000000, -29.99999999999996803 ) ) ;
#322 = CARTESIAN_POINT ( 'NONE',  ( 0.000000000000000000, 20.00000000000000000, -10.00000000000000000 ) ) ;
#323 = ORIENTED_EDGE ( 'NONE', *, *, #214, .F. ) ;
#324 = EDGE_CURVE ( 'NONE', #153, #330, #382, .T. ) ;
#325 = CARTESIAN_POINT ( 'NONE',  ( -91.00000000000000000, 10.00000000000000000, 9.999999999999980460 ) ) ;
#326 = LINE ( 'NONE', #321, #394 ) ;
#327 = ORIENTED_EDGE ( 'NONE', *, *, #387, .F. ) ;
#328 = CARTESIAN_POINT ( 'NONE',  ( 0.000000000000000000, 0.000000000000000000, 0.000000000000000000 ) ) ;
#329 = DIRECTION ( 'NONE',  ( 0.000000000000000000, -0.000000000000000000, -1.000000000000000000 ) ) ;
#330 = VERTEX_POINT ( 'NONE', #156 ) ;
#331 = LINE ( 'NONE', #289, #365 ) ;
#332 = ORIENTED_EDGE ( 'NONE', *, *, #360, .F. ) ;
#333 = PERSON_AND_ORGANIZATION ( #181, #276 ) ;
#334 = APPROVAL_PERSON_ORGANIZATION ( #137, #105, #412 ) ;
#335 = FACE_OUTER_BOUND ( 'NONE', #456, .T. ) ;
#336 = VERTEX_POINT ( 'NONE', #81 ) ;
#337 = CLOSED_SHELL ( 'NONE', ( #99, #462, #346, #170, #418, #399, #250, #225, #381, #304, #139, #493, #287, #109 ) ) ;
#338 = PERSON_AND_ORGANIZATION ( #181, #276 ) ;
#339 = ORIENTED_EDGE ( 'NONE', *, *, #79, .F. ) ;
#340 = AXIS2_PLACEMENT_3D ( 'NONE', #243, #291, #398 ) ;
#341 = VERTEX_POINT ( 'NONE', #199 ) ;
#342 = DATE_AND_TIME ( #455, #166 ) ;
#343 = DIRECTION ( 'NONE',  ( 2.440050603571770850E-16, -0.000000000000000000, 1.000000000000000000 ) ) ;
#344 = VECTOR ( 'NONE', #83, 1000.000000000000000 ) ;
#345 = CYLINDRICAL_SURFACE ( 'NONE', #470, 2.100000000000004530 ) ;
#346 = ADVANCED_FACE ( 'NONE', ( #357 ), #161, .F. ) ;
#347 = LINE ( 'NONE', #60, #113 ) ;
#348 = CC_DESIGN_PERSON_AND_ORGANIZATION_ASSIGNMENT ( #333, #15, ( #232 ) ) ;
#349 = FACE_OUTER_BOUND ( 'NONE', #240, .T. ) ;
#350 = FACE_BOUND ( 'NONE', #314, .T. ) ;
#351 = LINE ( 'NONE', #1, #176 ) ;
#352 = EDGE_CURVE ( 'NONE', #484, #490, #519, .T. ) ;
#353 = CYLINDRICAL_SURFACE ( 'NONE', #340, 20.00000000000000000 ) ;
#354 = DIRECTION ( 'NONE',  ( -2.745056929018243809E-16, -0.000000000000000000, -1.000000000000000000 ) ) ;
#355 = FACE_BOUND ( 'NONE', #42, .T. ) ;
#356 = DIRECTION ( 'NONE',  ( -2.745056929018243809E-16, -0.000000000000000000, -1.000000000000000000 ) ) ;
#357 = FACE_OUTER_BOUND ( 'NONE', #200, .T. ) ;
#358 = MECHANICAL_CONTEXT ( 'NONE', #186, 'mechanical' ) ;
#359 = CARTESIAN_POINT ( 'NONE',  ( -49.00000000000000000, 10.00000000000000000, -9.999999999999985789 ) ) ;
#360 = EDGE_CURVE ( 'NONE', #414, #71, #472, .T. ) ;
#361 = ORIENTED_EDGE ( 'NONE', *, *, #61, .T. ) ;
#362 = LINE ( 'NONE', #320, #344 ) ;
#363 = DIRECTION ( 'NONE',  ( -1.000000000000000000, 0.000000000000000000, 0.000000000000000000 ) ) ;
#364 = VERTEX_POINT ( 'NONE', #217 ) ;
#365 = VECTOR ( 'NONE', #168, 1000.000000000000000 ) ;
#366 = DATE_AND_TIME ( #209, #242 ) ;
#367 = CARTESIAN_POINT ( 'NONE',  ( -113.7500000000000853, 20.00000000000000000, -30.00000000000000000 ) ) ;
#368 = VERTEX_POINT ( 'NONE', #371 ) ;
#369 = VECTOR ( 'NONE', #281, 1000.000000000000000 ) ;
#370 = EDGE_CURVE ( 'NONE', #364, #90, #294, .T. ) ;
#371 = CARTESIAN_POINT ( 'NONE',  ( 0.000000000000000000, 20.00000000000000000, 10.00000000000000000 ) ) ;
#372 = ORIENTED_EDGE ( 'NONE', *, *, #360, .T. ) ;
#373 = AXIS2_PLACEMENT_3D ( 'NONE', #245, #285, #76 ) ;
#374 = EDGE_LOOP ( 'NONE', ( #297, #372, #435, #213 ) ) ;
#375 = EDGE_LOOP ( 'NONE', ( #481, #390, #516, #138 ) ) ;
#376 = CALENDAR_DATE ( 2026, 23, 7 ) ;
#377 = CARTESIAN_POINT ( 'NONE',  ( 0.000000000000000000, 20.00000000000000000, 10.00000000000000000 ) ) ;
#378 = CC_DESIGN_DATE_AND_TIME_ASSIGNMENT ( #487, #496, ( #121 ) ) ;
#379 = FACE_OUTER_BOUND ( 'NONE', #450, .T. ) ;
#380 = CYLINDRICAL_SURFACE ( 'NONE', #513, 2.100000000000004530 ) ;
#381 = ADVANCED_FACE ( 'NONE', ( #335 ), #7, .F. ) ;
#382 = CIRCLE ( 'NONE', #451, 2.100000000000004530 ) ;
#383 = DIRECTION ( 'NONE',  ( -1.387778780781445182E-16, -0.000000000000000000, -1.000000000000000000 ) ) ;
#384 = DIRECTION ( 'NONE',  ( -0.000000000000000000, -1.000000000000000000, -0.000000000000000000 ) ) ;
#385 = LOCAL_TIME ( 16, 5, 5.000000000000000000, #449 ) ;
#386 = PLANE ( 'NONE',  #244 ) ;
#387 = EDGE_CURVE ( 'NONE', #90, #477, #135, .T. ) ;
#388 = DIRECTION ( 'NONE',  ( -2.075183223598423177E-16, -0.000000000000000000, 1.000000000000000000 ) ) ;
#389 = CARTESIAN_POINT ( 'NONE',  ( -91.00000000000001421, 10.00000000000000000, -9.999999999999975131 ) ) ;
#390 = ORIENTED_EDGE ( 'NONE', *, *, #424, .F. ) ;
#391 = LINE ( 'NONE', #129, #210 ) ;
#392 = DIRECTION ( 'NONE',  ( -6.938893903907228378E-16, 0.000000000000000000, -1.000000000000000000 ) ) ;
#393 = ORIENTED_EDGE ( 'NONE', *, *, #413, .T. ) ;
#394 = VECTOR ( 'NONE', #279, 1000.000000000000000 ) ;
#395 = EDGE_CURVE ( 'NONE', #116, #368, #130, .T. ) ;
#396 = DIRECTION ( 'NONE',  ( -1.000000000000000000, 0.000000000000000000, -2.075183223598423177E-16 ) ) ;
#397 = ORIENTED_EDGE ( 'NONE', *, *, #24, .T. ) ;
#398 = DIRECTION ( 'NONE',  ( 0.000000000000000000, 0.000000000000000000, 1.000000000000000000 ) ) ;
#399 = ADVANCED_FACE ( 'NONE', ( #86 ), #212, .F. ) ;
#400 = CARTESIAN_POINT ( 'NONE',  ( -48.99999999999999289, 10.00000000000000000, 9.999999999999989342 ) ) ;
#401 = ORIENTED_EDGE ( 'NONE', *, *, #395, .F. ) ;
#402 = DIRECTION ( 'NONE',  ( -2.075183223598423177E-16, -0.000000000000000000, 1.000000000000000000 ) ) ;
#403 = CARTESIAN_POINT ( 'NONE',  ( -88.89999999999999147, 10.00000000000000000, 9.999999999999980460 ) ) ;
#404 = EDGE_CURVE ( 'NONE', #477, #116, #317, .T. ) ;
#405 = DIRECTION ( 'NONE',  ( 0.000000000000000000, 0.000000000000000000, -1.000000000000000000 ) ) ;
#406 = ORIENTED_EDGE ( 'NONE', *, *, #192, .F. ) ;
#407 = CIRCLE ( 'NONE', #89, 20.00000000000000355 ) ;
#408 = DIRECTION ( 'NONE',  ( 1.387778780781445182E-16, 0.000000000000000000, 1.000000000000000000 ) ) ;
#409 = ORIENTED_EDGE ( 'NONE', *, *, #307, .F. ) ;
#410 = AXIS2_PLACEMENT_3D ( 'NONE', #400, #174, #488 ) ;
#411 = VERTEX_POINT ( 'NONE', #367 ) ;
#412 = APPROVAL_ROLE ( '' ) ;
#413 = EDGE_CURVE ( 'NONE', #248, #428, #331, .T. ) ;
#414 = VERTEX_POINT ( 'NONE', #403 ) ;
#415 = VECTOR ( 'NONE', #269, 1000.000000000000000 ) ;
#416 = ORIENTED_EDGE ( 'NONE', *, *, #370, .T. ) ;
#417 = DIRECTION ( 'NONE',  ( -0.000000000000000000, 1.000000000000000000, -0.000000000000000000 ) ) ;
#418 = ADVANCED_FACE ( 'NONE', ( #47 ), #447, .F. ) ;
#419 = CARTESIAN_POINT ( 'NONE',  ( -93.75000000000008527, 20.00000000000000000, -9.999999999999976907 ) ) ;
#420 = VECTOR ( 'NONE', #356, 1000.000000000000000 ) ;
#421 = VECTOR ( 'NONE', #422, 1000.000000000000000 ) ;
#422 = DIRECTION ( 'NONE',  ( 0.000000000000000000, -1.000000000000000000, 0.000000000000000000 ) ) ;
#423 = CARTESIAN_POINT ( 'NONE',  ( -93.10000000000002274, 10.00000000000000000, -9.999999999999975131 ) ) ;
#424 = EDGE_CURVE ( 'NONE', #90, #336, #391, .T. ) ;
#425 = DIRECTION ( 'NONE',  ( 1.000000000000000000, -0.000000000000000000, 2.075183223598423424E-16 ) ) ;
#426 = EDGE_CURVE ( 'NONE', #490, #160, #155, .T. ) ;
#427 = LINE ( 'NONE', #38, #23 ) ;
#428 = VERTEX_POINT ( 'NONE', #441 ) ;
#429 = DIRECTION ( 'NONE',  ( 0.000000000000000000, 0.000000000000000000, -1.000000000000000000 ) ) ;
#430 = CARTESIAN_POINT ( 'NONE',  ( 0.000000000000000000, 20.00000000000000000, 10.00000000000000000 ) ) ;
#431 = ORIENTED_EDGE ( 'NONE', *, *, #432, .F. ) ;
#432 = EDGE_CURVE ( 'NONE', #71, #414, #498, .T. ) ;
#433 = CARTESIAN_POINT ( 'NONE',  ( -133.7500000000000000, 20.00000000000000000, -10.00000000000001066 ) ) ;
#434 = DIRECTION ( 'NONE',  ( 0.000000000000000000, -1.000000000000000000, 0.000000000000000000 ) ) ;
#435 = ORIENTED_EDGE ( 'NONE', *, *, #307, .T. ) ;
#436 = AXIS2_PLACEMENT_3D ( 'NONE', #282, #434, #464 ) ;
#437 = PERSON_AND_ORGANIZATION ( #181, #276 ) ;
#438 = CARTESIAN_POINT ( 'NONE',  ( -113.7500000000000853, 0.000000000000000000, -30.00000000000000000 ) ) ;
#439 = AXIS2_PLACEMENT_3D ( 'NONE', #444, #256, #405 ) ;
#440 = ORIENTED_EDGE ( 'NONE', *, *, #151, .T. ) ;
#441 = CARTESIAN_POINT ( 'NONE',  ( -93.75000000000008527, 0.000000000000000000, -9.999999999999976907 ) ) ;
#442 = DIRECTION ( 'NONE',  ( 1.000000000000000000, 0.000000000000000000, 6.938893903907233308E-16 ) ) ;
#443 = ORIENTED_EDGE ( 'NONE', *, *, #452, .F. ) ;
#444 = CARTESIAN_POINT ( 'NONE',  ( -113.7500000000000142, 20.00000000000000000, -10.00000000000002487 ) ) ;
#445 = ORIENTED_EDGE ( 'NONE', *, *, #120, .T. ) ;
#446 = COORDINATED_UNIVERSAL_TIME_OFFSET ( 3, 30, .AHEAD. ) ;
#447 = PLANE ( 'NONE',  #144 ) ;
#448 = ORIENTED_EDGE ( 'NONE', *, *, #11, .T. ) ;
#449 = COORDINATED_UNIVERSAL_TIME_OFFSET ( 3, 30, .AHEAD. ) ;
#450 = EDGE_LOOP ( 'NONE', ( #509, #397, #49, #5 ) ) ;
#451 = AXIS2_PLACEMENT_3D ( 'NONE', #389, #32, #510 ) ;
#452 = EDGE_CURVE ( 'NONE', #368, #341, #362, .T. ) ;
#453 = CALENDAR_DATE ( 2026, 23, 7 ) ;
#454 = ORIENTED_EDGE ( 'NONE', *, *, #404, .F. ) ;
#455 = CALENDAR_DATE ( 2026, 23, 7 ) ;
#456 = EDGE_LOOP ( 'NONE', ( #157, #222, #511, #33, #361, #19, #293, #416 ) ) ;
#457 = EDGE_CURVE ( 'NONE', #486, #411, #407, .T. ) ;
#458 = CARTESIAN_POINT ( 'NONE',  ( -113.7500000000000995, 20.00000000000000000, -110.0000000000000142 ) ) ;
#459 = LINE ( 'NONE', #274, #415 ) ;
#460 = DIRECTION ( 'NONE',  ( 0.000000000000000000, 0.000000000000000000, -1.000000000000000000 ) ) ;
#461 = DIRECTION ( 'NONE',  ( 6.938893903907228378E-16, -0.000000000000000000, 1.000000000000000000 ) ) ;
#462 = ADVANCED_FACE ( 'NONE', ( #158 ), #75, .F. ) ;
#463 = FACE_OUTER_BOUND ( 'NONE', #93, .T. ) ;
#464 = DIRECTION ( 'NONE',  ( 0.000000000000000000, -0.000000000000000000, -1.000000000000000000 ) ) ;
#465 = ORIENTED_EDGE ( 'NONE', *, *, #154, .F. ) ;
#466 =( NAMED_UNIT ( * ) SI_UNIT ( $, .STERADIAN. ) SOLID_ANGLE_UNIT ( ) );
#467 = AXIS2_PLACEMENT_3D ( 'NONE', #308, #226, #101 ) ;
#468 = EDGE_CURVE ( 'NONE', #364, #178, #80, .T. ) ;
#469 = FACE_BOUND ( 'NONE', #128, .T. ) ;
#470 = AXIS2_PLACEMENT_3D ( 'NONE', #64, #230, #59 ) ;
#471 = ORIENTED_EDGE ( 'NONE', *, *, #298, .F. ) ;
#472 = CIRCLE ( 'NONE', #237, 2.100000000000004530 ) ;
#473 = PLANE ( 'NONE',  #436 ) ;
#474 = ORIENTED_EDGE ( 'NONE', *, *, #53, .T. ) ;
#475 = DIRECTION ( 'NONE',  ( 0.000000000000000000, 0.000000000000000000, 1.000000000000000000 ) ) ;
#476 = CARTESIAN_POINT ( 'NONE',  ( -91.00000000000000000, 10.00000000000000000, 15.93969696196701591 ) ) ;
#477 = VERTEX_POINT ( 'NONE', #433 ) ;
#478 = APPROVAL_STATUS ( 'not_yet_approved' ) ;
#479 = DIRECTION ( 'NONE',  ( -2.745056929018243809E-16, 0.000000000000000000, -1.000000000000000000 ) ) ;
#480 = VECTOR ( 'NONE', #104, 1000.000000000000000 ) ;
#481 = ORIENTED_EDGE ( 'NONE', *, *, #214, .T. ) ;
#482 = CARTESIAN_POINT ( 'NONE',  ( -113.7500000000000995, 20.00000000000000000, -110.0000000000000142 ) ) ;
#483 = DIRECTION ( 'NONE',  ( -1.000000000000000000, -0.000000000000000000, -6.938893903907232322E-16 ) ) ;
#484 = VERTEX_POINT ( 'NONE', #249 ) ;
#485 = DIRECTION ( 'NONE',  ( -2.075183223598423177E-16, -0.000000000000000000, 1.000000000000000000 ) ) ;
#486 = VERTEX_POINT ( 'NONE', #512 ) ;
#487 = DATE_AND_TIME ( #376, #271 ) ;
#488 = DIRECTION ( 'NONE',  ( -1.000000000000000000, 0.000000000000000000, 0.000000000000000000 ) ) ;
#489 = EDGE_CURVE ( 'NONE', #490, #484, #518, .T. ) ;
#490 = VERTEX_POINT ( 'NONE', #31 ) ;
#491 = COORDINATED_UNIVERSAL_TIME_OFFSET ( 3, 30, .AHEAD. ) ;
#492 = CARTESIAN_POINT ( 'NONE',  ( -113.7500000000000142, 0.000000000000000000, -10.00000000000002487 ) ) ;
#493 = ADVANCED_FACE ( 'NONE', ( #43 ), #353, .F. ) ;
#494 = CALENDAR_DATE ( 2026, 23, 7 ) ;
#495 = ORIENTED_EDGE ( 'NONE', *, *, #424, .T. ) ;
#496 = DATE_TIME_ROLE ( 'classification_date' ) ;
#497 = DIRECTION ( 'NONE',  ( 1.000000000000000000, 0.000000000000000000, -2.440050603571770850E-16 ) ) ;
#498 = CIRCLE ( 'NONE', #197, 2.100000000000004530 ) ;
#499 = CC_DESIGN_PERSON_AND_ORGANIZATION_ASSIGNMENT ( #58, #6, ( #232 ) ) ;
#500 = LINE ( 'NONE', #458, #264 ) ;
#501 = VECTOR ( 'NONE', #88, 1000.000000000000000 ) ;
#502 = LINE ( 'NONE', #22, #421 ) ;
#503 = APPLICATION_CONTEXT ( 'configuration controlled 3d designs of mechanical parts and assemblies' ) ;
#504 = APPROVAL_PERSON_ORGANIZATION ( #10, #233, #219 ) ;
#505 = DIRECTION ( 'NONE',  ( 0.000000000000000000, 0.000000000000000000, -1.000000000000000000 ) ) ;
#506 = VECTOR ( 'NONE', #191, 1000.000000000000000 ) ;
#507 = DIRECTION ( 'NONE',  ( -1.387778780781445182E-16, -0.000000000000000000, -1.000000000000000000 ) ) ;
#508 = DIRECTION ( 'NONE',  ( 1.000000000000000000, 0.000000000000000000, -6.938893903907228378E-16 ) ) ;
#509 = ORIENTED_EDGE ( 'NONE', *, *, #489, .T. ) ;
#510 = DIRECTION ( 'NONE',  ( -1.000000000000000000, 0.000000000000000000, 0.000000000000000000 ) ) ;
#511 = ORIENTED_EDGE ( 'NONE', *, *, #395, .T. ) ;
#512 = CARTESIAN_POINT ( 'NONE',  ( -93.75000000000008527, 20.00000000000000000, -9.999999999999976907 ) ) ;
#513 = AXIS2_PLACEMENT_3D ( 'NONE', #270, #272, #273 ) ;
#514 = FACE_OUTER_BOUND ( 'NONE', #119, .T. ) ;
#515 = VECTOR ( 'NONE', #461, 1000.000000000000000 ) ;
#516 = ORIENTED_EDGE ( 'NONE', *, *, #370, .F. ) ;
#517 = DIRECTION ( 'NONE',  ( -1.000000000000000000, 0.000000000000000000, 0.000000000000000000 ) ) ;
#518 = CIRCLE ( 'NONE', #267, 2.100000000000004530 ) ;
#519 = CIRCLE ( 'NONE', #410, 2.100000000000004530 ) ;
#520 = CARTESIAN_POINT ( 'NONE',  ( -133.7500000000000000, 0.000000000000000000, -10.00000000000001066 ) ) ;
#521 = ORIENTED_EDGE ( 'NONE', *, *, #24, .F. ) ;
ENDSEC;
END-ISO-10303-21;
