ISO-10303-21;
HEADER;
FILE_DESCRIPTION (( 'STEP AP203' ),
    '1' );
FILE_NAME ('Link3LShapeConnectorBig_Default_sldprt.STEP',
    '2026-07-23T12:35:00',
    ( '' ),
    ( '' ),
    'SwSTEP 2.0',
    'SolidWorks 2025',
    '' );
FILE_SCHEMA (( 'CONFIG_CONTROL_DESIGN' ));
ENDSEC;

DATA;
#1 = DIRECTION ( 'NONE',  ( -0.000000000000000000, -1.000000000000000000, -0.000000000000000000 ) ) ;
#2 = VERTEX_POINT ( 'NONE', #328 ) ;
#3 = AXIS2_PLACEMENT_3D ( 'NONE', #655, #181, #852 ) ;
#4 = DIRECTION ( 'NONE',  ( -0.000000000000000000, -1.000000000000000000, -0.000000000000000000 ) ) ;
#5 = CARTESIAN_POINT ( 'NONE',  ( 75.00000000000000000, -134.1640786499874025, -10.00000000000000178 ) ) ;
#6 = DIRECTION ( 'NONE',  ( -1.000000000000000000, 0.000000000000000000, 2.312964634635742895E-17 ) ) ;
#7 = VERTEX_POINT ( 'NONE', #678 ) ;
#8 = AXIS2_PLACEMENT_3D ( 'NONE', #623, #608, #743 ) ;
#9 = PLANE ( 'NONE',  #653 ) ;
#10 = FACE_OUTER_BOUND ( 'NONE', #19, .T. ) ;
#11 = DIRECTION ( 'NONE',  ( 0.000000000000000000, 0.000000000000000000, 1.000000000000000000 ) ) ;
#12 = ORIENTED_EDGE ( 'NONE', *, *, #668, .F. ) ;
#13 = CARTESIAN_POINT ( 'NONE',  ( -150.0000000000000000, 20.00000000000000000, 30.00000000000000000 ) ) ;
#14 = VERTEX_POINT ( 'NONE', #193 ) ;
#15 = DIRECTION ( 'NONE',  ( -0.000000000000000000, 1.000000000000000000, -0.000000000000000000 ) ) ;
#16 = CARTESIAN_POINT ( 'NONE',  ( 0.000000000000000000, 0.000000000000000000, 0.000000000000000000 ) ) ;
#17 = EDGE_LOOP ( 'NONE', ( #515, #89, #828, #888 ) ) ;
#18 = CARTESIAN_POINT ( 'NONE',  ( 0.000000000000000000, 20.00000000000000000, -75.00000000000001421 ) ) ;
#19 = EDGE_LOOP ( 'NONE', ( #544, #367, #624, #131 ) ) ;
#20 = CIRCLE ( 'NONE', #858, 20.00000000000000000 ) ;
#21 = CARTESIAN_POINT ( 'NONE',  ( -75.00000000000000000, 0.000000000000000000, -10.00000000000000178 ) ) ;
#22 = PERSON_AND_ORGANIZATION_ROLE ( 'design_supplier' ) ;
#23 = VERTEX_POINT ( 'NONE', #124 ) ;
#24 = FACE_BOUND ( 'NONE', #595, .T. ) ;
#25 = VECTOR ( 'NONE', #702, 1000.000000000000000 ) ;
#26 = EDGE_CURVE ( 'NONE', #417, #256, #155, .T. ) ;
#27 = AXIS2_PLACEMENT_3D ( 'NONE', #864, #321, #581 ) ;
#28 = FACE_OUTER_BOUND ( 'NONE', #522, .T. ) ;
#29 = VERTEX_POINT ( 'NONE', #682 ) ;
#30 = DIRECTION ( 'NONE',  ( 0.000000000000000000, 1.000000000000000000, 0.000000000000000000 ) ) ;
#31 = CARTESIAN_POINT ( 'NONE',  ( 0.000000000000000000, 20.00000000000000000, 0.000000000000000000 ) ) ;
#32 = ADVANCED_FACE ( 'NONE', ( #397 ), #747, .T. ) ;
#33 = VERTEX_POINT ( 'NONE', #870 ) ;
#34 = LINE ( 'NONE', #313, #630 ) ;
#35 = CARTESIAN_POINT ( 'NONE',  ( -66.17647058823530415, 20.00000000000000000, -35.29411764705883314 ) ) ;
#36 = VECTOR ( 'NONE', #390, 1000.000000000000000 ) ;
#37 = EDGE_CURVE ( 'NONE', #403, #7, #344, .T. ) ;
#38 = LINE ( 'NONE', #791, #53 ) ;
#39 = EDGE_LOOP ( 'NONE', ( #276, #12, #319, #170 ) ) ;
#40 = VECTOR ( 'NONE', #760, 1000.000000000000000 ) ;
#41 = PERSON_AND_ORGANIZATION ( #538, #366 ) ;
#42 = EDGE_CURVE ( 'NONE', #322, #746, #461, .T. ) ;
#43 = DIRECTION ( 'NONE',  ( -0.000000000000000000, -1.000000000000000000, -0.000000000000000000 ) ) ;
#44 = ORIENTED_EDGE ( 'NONE', *, *, #625, .T. ) ;
#45 = DIRECTION ( 'NONE',  ( 0.000000000000000000, 1.000000000000000000, 0.000000000000000000 ) ) ;
#46 = ORIENTED_EDGE ( 'NONE', *, *, #549, .F. ) ;
#47 = ADVANCED_FACE ( 'NONE', ( #128 ), #65, .F. ) ;
#48 = FACE_OUTER_BOUND ( 'NONE', #537, .T. ) ;
#49 = APPROVAL_PERSON_ORGANIZATION ( #279, #786, #352 ) ;
#50 = DIRECTION ( 'NONE',  ( 0.000000000000000000, 0.000000000000000000, 1.000000000000000000 ) ) ;
#51 = ORIENTED_EDGE ( 'NONE', *, *, #222, .F. ) ;
#52 = LINE ( 'NONE', #542, #427 ) ;
#53 = VECTOR ( 'NONE', #856, 1000.000000000000000 ) ;
#54 = CARTESIAN_POINT ( 'NONE',  ( 75.00000000000001421, 0.000000000000000000, 30.00000000000000000 ) ) ;
#55 = EDGE_LOOP ( 'NONE', ( #220, #761, #154, #526 ) ) ;
#56 = DIRECTION ( 'NONE',  ( 0.000000000000000000, -0.000000000000000000, 1.000000000000000000 ) ) ;
#57 = ADVANCED_FACE ( 'NONE', ( #393, #674 ), #259, .F. ) ;
#58 = CYLINDRICAL_SURFACE ( 'NONE', #809, 60.00000000000000000 ) ;
#59 = EDGE_LOOP ( 'NONE', ( #729, #863, #839, #807 ) ) ;
#60 = DIRECTION ( 'NONE',  ( 0.000000000000000000, 0.000000000000000000, -1.000000000000000000 ) ) ;
#61 = VECTOR ( 'NONE', #680, 1000.000000000000000 ) ;
#62 = EDGE_CURVE ( 'NONE', #611, #865, #52, .T. ) ;
#63 = DIRECTION ( 'NONE',  ( 1.387778780781445478E-15, 0.000000000000000000, 1.000000000000000000 ) ) ;
#64 = ORIENTED_EDGE ( 'NONE', *, *, #731, .T. ) ;
#65 = PLANE ( 'NONE',  #744 ) ;
#66 = VECTOR ( 'NONE', #71, 1000.000000000000000 ) ;
#67 = VECTOR ( 'NONE', #559, 1000.000000000000000 ) ;
#68 = DIRECTION ( 'NONE',  ( -0.000000000000000000, -1.000000000000000000, -0.000000000000000000 ) ) ;
#69 = ORIENTED_EDGE ( 'NONE', *, *, #717, .T. ) ;
#70 = EDGE_CURVE ( 'NONE', #330, #87, #246, .T. ) ;
#71 = DIRECTION ( 'NONE',  ( -0.000000000000000000, 1.000000000000000000, -0.000000000000000000 ) ) ;
#72 = LINE ( 'NONE', #145, #278 ) ;
#73 = VERTEX_POINT ( 'NONE', #400 ) ;
#74 = LINE ( 'NONE', #18, #872 ) ;
#75 = EDGE_CURVE ( 'NONE', #530, #274, #332, .T. ) ;
#76 = CARTESIAN_POINT ( 'NONE',  ( -150.0000000000000000, 0.000000000000000000, 10.00000000000000000 ) ) ;
#77 = ORIENTED_EDGE ( 'NONE', *, *, #113, .T. ) ;
#78 = PRODUCT_DEFINITION_FORMATION_WITH_SPECIFIED_SOURCE ( 'ANY', '', #263, .NOT_KNOWN. ) ;
#79 = CARTESIAN_POINT ( 'NONE',  ( -66.17647058823530415, 0.000000000000000000, 35.29411764705883314 ) ) ;
#80 = CARTESIAN_POINT ( 'NONE',  ( -75.00000000000000000, 20.00000000000000000, -10.00000000000000178 ) ) ;
#81 =( NAMED_UNIT ( * ) SI_UNIT ( $, .STERADIAN. ) SOLID_ANGLE_UNIT ( ) );
#82 = EDGE_LOOP ( 'NONE', ( #473, #681, #342, #231 ) ) ;
#83 = VECTOR ( 'NONE', #15, 1000.000000000000000 ) ;
#84 = CARTESIAN_POINT ( 'NONE',  ( -75.00000000000001421, 20.00000000000000000, 30.00000000000000000 ) ) ;
#85 = DIRECTION ( 'NONE',  ( 0.000000000000000000, 1.000000000000000000, 0.000000000000000000 ) ) ;
#86 = PERSON_AND_ORGANIZATION ( #538, #366 ) ;
#87 = VERTEX_POINT ( 'NONE', #669 ) ;
#88 = CARTESIAN_POINT ( 'NONE',  ( 75.00000000000001421, 0.000000000000000000, 40.00000000000000000 ) ) ;
#89 = ORIENTED_EDGE ( 'NONE', *, *, #380, .T. ) ;
#90 = CARTESIAN_POINT ( 'NONE',  ( 0.000000000000000000, 20.00000000000000000, 0.000000000000000000 ) ) ;
#91 = ORIENTED_EDGE ( 'NONE', *, *, #490, .F. ) ;
#92 = EDGE_CURVE ( 'NONE', #118, #695, #302, .T. ) ;
#93 = CYLINDRICAL_SURFACE ( 'NONE', #607, 20.00000000000000000 ) ;
#94 = VECTOR ( 'NONE', #273, 1000.000000000000000 ) ;
#95 = CARTESIAN_POINT ( 'NONE',  ( 130.0000000000000000, 20.00000000000000000, -30.00000000000000000 ) ) ;
#96 = ORIENTED_EDGE ( 'NONE', *, *, #70, .F. ) ;
#97 = PLANE ( 'NONE',  #3 ) ;
#98 = CC_DESIGN_PERSON_AND_ORGANIZATION_ASSIGNMENT ( #288, #567, ( #619 ) ) ;
#99 = AXIS2_PLACEMENT_3D ( 'NONE', #156, #143, #629 ) ;
#100 = CARTESIAN_POINT ( 'NONE',  ( 0.000000000000000000, 20.00000000000000000, 0.000000000000000000 ) ) ;
#101 = ORIENTED_EDGE ( 'NONE', *, *, #516, .T. ) ;
#102 = CARTESIAN_POINT ( 'NONE',  ( -75.00000000000000000, 0.000000000000000000, 10.00000000000000178 ) ) ;
#103 = DIRECTION ( 'NONE',  ( -0.000000000000000000, 1.000000000000000000, -0.000000000000000000 ) ) ;
#104 = ADVANCED_FACE ( 'NONE', ( #48 ), #616, .F. ) ;
#105 = DIRECTION ( 'NONE',  ( -0.000000000000000000, -1.000000000000000000, -0.000000000000000000 ) ) ;
#106 = VERTEX_POINT ( 'NONE', #816 ) ;
#107 = CC_DESIGN_PERSON_AND_ORGANIZATION_ASSIGNMENT ( #449, #22, ( #78 ) ) ;
#108 = COORDINATED_UNIVERSAL_TIME_OFFSET ( 3, 30, .AHEAD. ) ;
#109 = CARTESIAN_POINT ( 'NONE',  ( -130.0000000000000000, 0.000000000000000000, -9.999999999999998224 ) ) ;
#110 = VERTEX_POINT ( 'NONE', #405 ) ;
#111 = CIRCLE ( 'NONE', #173, 75.00000000000001421 ) ;
#112 = CIRCLE ( 'NONE', #258, 10.00000000000000178 ) ;
#113 = EDGE_CURVE ( 'NONE', #667, #423, #685, .T. ) ;
#114 = LINE ( 'NONE', #512, #720 ) ;
#115 = ORIENTED_EDGE ( 'NONE', *, *, #356, .F. ) ;
#116 = DIRECTION ( 'NONE',  ( 0.000000000000000000, 0.000000000000000000, 1.000000000000000000 ) ) ;
#117 = DIRECTION ( 'NONE',  ( 0.000000000000000000, 0.000000000000000000, 1.000000000000000000 ) ) ;
#118 = VERTEX_POINT ( 'NONE', #875 ) ;
#119 = CC_DESIGN_PERSON_AND_ORGANIZATION_ASSIGNMENT ( #41, #437, ( #78 ) ) ;
#120 = VERTEX_POINT ( 'NONE', #262 ) ;
#121 = CC_DESIGN_APPROVAL ( #786, ( #619 ) ) ;
#122 = CARTESIAN_POINT ( 'NONE',  ( 75.00000000000000000, 20.00000000000000000, 10.00000000000000178 ) ) ;
#123 = ORIENTED_EDGE ( 'NONE', *, *, #369, .F. ) ;
#124 = CARTESIAN_POINT ( 'NONE',  ( 0.000000000000000000, 20.00000000000000000, 60.00000000000000000 ) ) ;
#125 = VECTOR ( 'NONE', #893, 1000.000000000000000 ) ;
#126 = CARTESIAN_POINT ( 'NONE',  ( -75.00000000000000000, 20.00000000000000000, 10.00000000000000178 ) ) ;
#127 = ORIENTED_EDGE ( 'NONE', *, *, #650, .T. ) ;
#128 = FACE_OUTER_BOUND ( 'NONE', #799, .T. ) ;
#129 = EDGE_CURVE ( 'NONE', #691, #322, #539, .T. ) ;
#130 = CARTESIAN_POINT ( 'NONE',  ( 150.0000000000000000, 20.00000000000000000, 10.00000000000000000 ) ) ;
#131 = ORIENTED_EDGE ( 'NONE', *, *, #37, .T. ) ;
#132 = CARTESIAN_POINT ( 'NONE',  ( 0.000000000000000000, 20.00000000000000000, 0.000000000000000000 ) ) ;
#133 = ADVANCED_FACE ( 'NONE', ( #212 ), #626, .F. ) ;
#134 = AXIS2_PLACEMENT_3D ( 'NONE', #195, #540, #479 ) ;
#135 = CARTESIAN_POINT ( 'NONE',  ( 0.000000000000000000, 0.000000000000000000, 0.000000000000000000 ) ) ;
#136 = ORIENTED_EDGE ( 'NONE', *, *, #142, .T. ) ;
#137 = DIRECTION ( 'NONE',  ( -1.000000000000000000, -0.000000000000000000, -2.312964634635742895E-17 ) ) ;
#138 = AXIS2_PLACEMENT_3D ( 'NONE', #690, #832, #218 ) ;
#139 = AXIS2_PLACEMENT_3D ( 'NONE', #696, #290, #830 ) ;
#140 = CARTESIAN_POINT ( 'NONE',  ( 75.00000000000001421, 20.00000000000000000, -30.00000000000000000 ) ) ;
#141 = VERTEX_POINT ( 'NONE', #355 ) ;
#142 = EDGE_CURVE ( 'NONE', #120, #23, #847, .T. ) ;
#143 = DIRECTION ( 'NONE',  ( 2.312964634635742895E-17, 0.000000000000000000, -1.000000000000000000 ) ) ;
#144 = LINE ( 'NONE', #561, #66 ) ;
#145 = CARTESIAN_POINT ( 'NONE',  ( 75.00000000000000000, -134.1640786499874025, 10.00000000000000178 ) ) ;
#146 = ORIENTED_EDGE ( 'NONE', *, *, #774, .T. ) ;
#147 = CARTESIAN_POINT ( 'NONE',  ( -130.0000000000000000, 20.00000000000000000, -9.999999999999998224 ) ) ;
#148 = LINE ( 'NONE', #152, #40 ) ;
#149 = DIRECTION ( 'NONE',  ( 0.000000000000000000, 1.000000000000000000, 0.000000000000000000 ) ) ;
#150 = ORIENTED_EDGE ( 'NONE', *, *, #703, .T. ) ;
#151 = CARTESIAN_POINT ( 'NONE',  ( -66.17647058823530415, 0.000000000000000000, -35.29411764705883314 ) ) ;
#152 = CARTESIAN_POINT ( 'NONE',  ( -75.00000000000000000, -134.1640786499874025, -10.00000000000000178 ) ) ;
#153 = EDGE_CURVE ( 'NONE', #695, #274, #111, .T. ) ;
#154 = ORIENTED_EDGE ( 'NONE', *, *, #545, .T. ) ;
#155 = CIRCLE ( 'NONE', #320, 60.00000000000000000 ) ;
#156 = CARTESIAN_POINT ( 'NONE',  ( -150.0000000000000000, -134.1640786499874025, 10.00000000000000000 ) ) ;
#157 = DIRECTION ( 'NONE',  ( 0.000000000000000000, 0.000000000000000000, -1.000000000000000000 ) ) ;
#158 = EDGE_CURVE ( 'NONE', #395, #291, #571, .T. ) ;
#159 = DIRECTION ( 'NONE',  ( -0.000000000000000000, -1.000000000000000000, -0.000000000000000000 ) ) ;
#160 = EDGE_LOOP ( 'NONE', ( #250, #643, #792, #882 ) ) ;
#161 = CARTESIAN_POINT ( 'NONE',  ( -66.17647058823530415, 20.00000000000000000, 35.29411764705883314 ) ) ;
#162 = DIRECTION ( 'NONE',  ( 0.000000000000000000, 1.000000000000000000, 0.000000000000000000 ) ) ;
#163 = SHAPE_DEFINITION_REPRESENTATION ( #316, #727 ) ;
#164 = ORIENTED_EDGE ( 'NONE', *, *, #835, .T. ) ;
#165 = EDGE_CURVE ( 'NONE', #330, #438, #148, .T. ) ;
#166 = DIRECTION ( 'NONE',  ( 0.000000000000000000, 0.000000000000000000, 1.000000000000000000 ) ) ;
#167 = CC_DESIGN_APPROVAL ( #297, ( #78 ) ) ;
#168 = CARTESIAN_POINT ( 'NONE',  ( -130.0000000000000000, 20.00000000000000000, 30.00000000000000000 ) ) ;
#169 = DATE_AND_TIME ( #584, #554 ) ;
#170 = ORIENTED_EDGE ( 'NONE', *, *, #227, .F. ) ;
#171 = DIRECTION ( 'NONE',  ( 1.000000000000000000, -0.000000000000000000, -0.000000000000000000 ) ) ;
#172 = ADVANCED_FACE ( 'NONE', ( #10 ), #432, .T. ) ;
#173 = AXIS2_PLACEMENT_3D ( 'NONE', #90, #550, #819 ) ;
#174 = CIRCLE ( 'NONE', #677, 20.00000000000000000 ) ;
#175 = DIRECTION ( 'NONE',  ( 1.387778780781445478E-15, 0.000000000000000000, 1.000000000000000000 ) ) ;
#176 = APPROVAL_DATE_TIME ( #169, #297 ) ;
#177 = CYLINDRICAL_SURFACE ( 'NONE', #848, 60.00000000000000000 ) ;
#178 = CC_DESIGN_PERSON_AND_ORGANIZATION_ASSIGNMENT ( #209, #627, ( #263 ) ) ;
#179 = LINE ( 'NONE', #794, #450 ) ;
#180 = ORIENTED_EDGE ( 'NONE', *, *, #26, .F. ) ;
#181 = DIRECTION ( 'NONE',  ( 2.312964634635742895E-17, 0.000000000000000000, 1.000000000000000000 ) ) ;
#182 = ORIENTED_EDGE ( 'NONE', *, *, #307, .F. ) ;
#183 = VECTOR ( 'NONE', #137, 1000.000000000000000 ) ;
#184 = DIRECTION ( 'NONE',  ( 0.000000000000000000, 1.000000000000000000, 0.000000000000000000 ) ) ;
#185 = EDGE_CURVE ( 'NONE', #73, #639, #773, .T. ) ;
#186 = DIRECTION ( 'NONE',  ( 0.000000000000000000, 0.000000000000000000, 1.000000000000000000 ) ) ;
#187 = ORIENTED_EDGE ( 'NONE', *, *, #738, .T. ) ;
#188 = DIRECTION ( 'NONE',  ( -0.000000000000000000, 1.000000000000000000, -0.000000000000000000 ) ) ;
#189 = EDGE_CURVE ( 'NONE', #338, #201, #496, .T. ) ;
#190 = CARTESIAN_POINT ( 'NONE',  ( 130.0000000000000000, 20.00000000000000000, -9.999999999999998224 ) ) ;
#191 = VERTEX_POINT ( 'NONE', #425 ) ;
#192 = ADVANCED_FACE ( 'NONE', ( #755 ), #707, .F. ) ;
#193 = CARTESIAN_POINT ( 'NONE',  ( 75.00000000000001421, 20.00000000000000000, -30.00000000000000000 ) ) ;
#194 = LOCAL_TIME ( 16, 5, 0.000000000000000000, #709 ) ;
#195 = CARTESIAN_POINT ( 'NONE',  ( 75.00000000000001421, 20.00000000000000000, -40.00000000000000000 ) ) ;
#196 = ORIENTED_EDGE ( 'NONE', *, *, #283, .T. ) ;
#197 = EDGE_CURVE ( 'NONE', #663, #700, #144, .T. ) ;
#198 = ORIENTED_EDGE ( 'NONE', *, *, #576, .T. ) ;
#199 = AXIS2_PLACEMENT_3D ( 'NONE', #520, #272, #546 ) ;
#200 = DIRECTION ( 'NONE',  ( 0.000000000000000000, 1.000000000000000000, 0.000000000000000000 ) ) ;
#201 = VERTEX_POINT ( 'NONE', #347 ) ;
#202 = ADVANCED_FACE ( 'NONE', ( #410 ), #698, .F. ) ;
#203 = CARTESIAN_POINT ( 'NONE',  ( 150.0000000000000000, 20.00000000000000000, 30.00000000000000000 ) ) ;
#204 = PLANE ( 'NONE',  #879 ) ;
#205 = ORIENTED_EDGE ( 'NONE', *, *, #207, .T. ) ;
#206 = DIRECTION ( 'NONE',  ( 0.000000000000000000, -1.000000000000000000, 0.000000000000000000 ) ) ;
#207 = EDGE_CURVE ( 'NONE', #363, #438, #693, .T. ) ;
#208 = LOCAL_TIME ( 16, 5, 0.000000000000000000, #224 ) ;
#209 = PERSON_AND_ORGANIZATION ( #538, #366 ) ;
#210 = ORIENTED_EDGE ( 'NONE', *, *, #775, .T. ) ;
#211 = DIRECTION ( 'NONE',  ( 0.000000000000000000, 1.000000000000000000, 0.000000000000000000 ) ) ;
#212 = FACE_OUTER_BOUND ( 'NONE', #82, .T. ) ;
#213 = AXIS2_PLACEMENT_3D ( 'NONE', #651, #300, #239 ) ;
#214 = APPROVAL ( #236, 'UNSPECIFIED' ) ;
#215 = CIRCLE ( 'NONE', #345, 75.00000000000001421 ) ;
#216 = ORIENTED_EDGE ( 'NONE', *, *, #165, .T. ) ;
#217 = DIRECTION ( 'NONE',  ( 0.000000000000000000, 0.000000000000000000, 1.000000000000000000 ) ) ;
#218 = DIRECTION ( 'NONE',  ( -0.000000000000000000, 0.000000000000000000, 1.000000000000000000 ) ) ;
#219 = CARTESIAN_POINT ( 'NONE',  ( -130.0000000000000000, 0.000000000000000000, 9.999999999999998224 ) ) ;
#220 = ORIENTED_EDGE ( 'NONE', *, *, #708, .F. ) ;
#221 = CARTESIAN_POINT ( 'NONE',  ( -75.00000000000000000, 20.00000000000000000, -10.00000000000000178 ) ) ;
#222 = EDGE_CURVE ( 'NONE', #87, #363, #636, .T. ) ;
#223 = CARTESIAN_POINT ( 'NONE',  ( -150.0000000000000000, -134.1640786499874025, 10.00000000000000000 ) ) ;
#224 = COORDINATED_UNIVERSAL_TIME_OFFSET ( 3, 30, .AHEAD. ) ;
#225 = EDGE_LOOP ( 'NONE', ( #541, #127, #123, #252, #892, #589, #471, #413, #654, #388, #686, #69, #822, #795, #585, #358, #146, #241, #465, #205, #285 ) ) ;
#226 = CARTESIAN_POINT ( 'NONE',  ( 0.000000000000000000, 20.00000000000000000, 0.000000000000000000 ) ) ;
#227 = EDGE_CURVE ( 'NONE', #73, #663, #890, .T. ) ;
#228 = CYLINDRICAL_SURFACE ( 'NONE', #371, 20.00000000000000000 ) ;
#229 = LINE ( 'NONE', #557, #514 ) ;
#230 = AXIS2_PLACEMENT_3D ( 'NONE', #631, #206, #415 ) ;
#231 = ORIENTED_EDGE ( 'NONE', *, *, #189, .F. ) ;
#232 = CIRCLE ( 'NONE', #445, 20.00000000000000000 ) ;
#233 = CARTESIAN_POINT ( 'NONE',  ( 150.0000000000000000, 0.000000000000000000, 10.00000000000000178 ) ) ;
#234 = CYLINDRICAL_SURFACE ( 'NONE', #213, 75.00000000000001421 ) ;
#235 = ADVANCED_FACE ( 'NONE', ( #482 ), #228, .T. ) ;
#236 = APPROVAL_STATUS ( 'not_yet_approved' ) ;
#237 = ORIENTED_EDGE ( 'NONE', *, *, #92, .F. ) ;
#238 = DIRECTION ( 'NONE',  ( -0.000000000000000000, 1.000000000000000000, -0.000000000000000000 ) ) ;
#239 = DIRECTION ( 'NONE',  ( 0.000000000000000000, 0.000000000000000000, -1.000000000000000000 ) ) ;
#240 = ADVANCED_FACE ( 'NONE', ( #837 ), #486, .F. ) ;
#241 = ORIENTED_EDGE ( 'NONE', *, *, #502, .F. ) ;
#242 = CARTESIAN_POINT ( 'NONE',  ( 150.0000000000000000, 20.00000000000000000, 30.00000000000000000 ) ) ;
#243 = CIRCLE ( 'NONE', #384, 10.00000000000000178 ) ;
#244 = DIRECTION ( 'NONE',  ( 0.000000000000000000, 0.000000000000000000, -1.000000000000000000 ) ) ;
#245 = APPROVAL_DATE_TIME ( #510, #214 ) ;
#246 = LINE ( 'NONE', #812, #271 ) ;
#247 = DIRECTION ( 'NONE',  ( -1.000000000000000000, 0.000000000000000000, -2.312964634635742895E-17 ) ) ;
#248 = VERTEX_POINT ( 'NONE', #508 ) ;
#249 = CYLINDRICAL_SURFACE ( 'NONE', #579, 10.00000000000000178 ) ;
#250 = ORIENTED_EDGE ( 'NONE', *, *, #717, .F. ) ;
#251 = CARTESIAN_POINT ( 'NONE',  ( 75.00000000000000000, 0.000000000000000000, -10.00000000000000178 ) ) ;
#252 = ORIENTED_EDGE ( 'NONE', *, *, #323, .T. ) ;
#253 = CIRCLE ( 'NONE', #268, 10.00000000000000178 ) ;
#254 = ADVANCED_FACE ( 'NONE', ( #656 ), #660, .T. ) ;
#255 = CARTESIAN_POINT ( 'NONE',  ( -75.00000000000001421, 0.000000000000000000, 40.00000000000000000 ) ) ;
#256 = VERTEX_POINT ( 'NONE', #375 ) ;
#257 = VECTOR ( 'NONE', #646, 1000.000000000000000 ) ;
#258 = AXIS2_PLACEMENT_3D ( 'NONE', #491, #211, #217 ) ;
#259 = PLANE ( 'NONE',  #8 ) ;
#260 = FACE_OUTER_BOUND ( 'NONE', #658, .T. ) ;
#261 = ORIENTED_EDGE ( 'NONE', *, *, #42, .T. ) ;
#262 = CARTESIAN_POINT ( 'NONE',  ( 7.347880794884118356E-15, 20.00000000000000000, -60.00000000000000000 ) ) ;
#263 = PRODUCT ( 'Link3LShapeConnectorBig_Default_sldprt', 'Link3LShapeConnectorBig_Default_sldprt', '', ( #833 ) ) ;
#264 = ADVANCED_FACE ( 'NONE', ( #779 ), #849, .T. ) ;
#265 = CARTESIAN_POINT ( 'NONE',  ( -68.73863542433761609, 0.000000000000000000, -30.00000000000000000 ) ) ;
#266 = ORIENTED_EDGE ( 'NONE', *, *, #452, .F. ) ;
#267 = CARTESIAN_POINT ( 'NONE',  ( 150.0000000000000000, -134.1640786499874025, 10.00000000000000000 ) ) ;
#268 = AXIS2_PLACEMENT_3D ( 'NONE', #255, #802, #464 ) ;
#269 = CYLINDRICAL_SURFACE ( 'NONE', #134, 10.00000000000000178 ) ;
#270 = ORIENTED_EDGE ( 'NONE', *, *, #75, .T. ) ;
#271 = VECTOR ( 'NONE', #800, 1000.000000000000000 ) ;
#272 = DIRECTION ( 'NONE',  ( 2.312964634635742895E-17, 0.000000000000000000, 1.000000000000000000 ) ) ;
#273 = DIRECTION ( 'NONE',  ( 0.000000000000000000, 0.000000000000000000, -1.000000000000000000 ) ) ;
#274 = VERTEX_POINT ( 'NONE', #35 ) ;
#275 = DIRECTION ( 'NONE',  ( 0.000000000000000000, 0.000000000000000000, 1.000000000000000000 ) ) ;
#276 = ORIENTED_EDGE ( 'NONE', *, *, #185, .T. ) ;
#277 = DIRECTION ( 'NONE',  ( -0.000000000000000000, -1.000000000000000000, -0.000000000000000000 ) ) ;
#278 = VECTOR ( 'NONE', #412, 1000.000000000000000 ) ;
#279 = PERSON_AND_ORGANIZATION ( #538, #366 ) ;
#280 = ORIENTED_EDGE ( 'NONE', *, *, #820, .T. ) ;
#281 = DIRECTION ( 'NONE',  ( 0.000000000000000000, -1.000000000000000000, 0.000000000000000000 ) ) ;
#282 = DIRECTION ( 'NONE',  ( 2.312964634635742895E-17, 0.000000000000000000, -1.000000000000000000 ) ) ;
#283 = EDGE_CURVE ( 'NONE', #23, #120, #485, .T. ) ;
#284 = CARTESIAN_POINT ( 'NONE',  ( 75.00000000000000000, 0.000000000000000000, 10.00000000000000178 ) ) ;
#285 = ORIENTED_EDGE ( 'NONE', *, *, #622, .T. ) ;
#286 = DIRECTION ( 'NONE',  ( 0.000000000000000000, 0.000000000000000000, 1.000000000000000000 ) ) ;
#287 = CARTESIAN_POINT ( 'NONE',  ( -150.0000000000000000, -134.1640786499874025, -10.00000000000000000 ) ) ;
#288 = PERSON_AND_ORGANIZATION ( #538, #366 ) ;
#289 = ORIENTED_EDGE ( 'NONE', *, *, #299, .T. ) ;
#290 = DIRECTION ( 'NONE',  ( 0.000000000000000000, 1.000000000000000000, 0.000000000000000000 ) ) ;
#291 = VERTEX_POINT ( 'NONE', #311 ) ;
#292 = DIRECTION ( 'NONE',  ( 1.000000000000000000, -0.000000000000000000, 2.312964634635742895E-17 ) ) ;
#293 = DIRECTION ( 'NONE',  ( 0.000000000000000000, 0.000000000000000000, 1.000000000000000000 ) ) ;
#294 = AXIS2_PLACEMENT_3D ( 'NONE', #573, #159, #11 ) ;
#295 = ORIENTED_EDGE ( 'NONE', *, *, #687, .T. ) ;
#296 = PLANE ( 'NONE',  #689 ) ;
#297 = APPROVAL ( #844, 'UNSPECIFIED' ) ;
#298 = ORIENTED_EDGE ( 'NONE', *, *, #796, .T. ) ;
#299 = EDGE_CURVE ( 'NONE', #841, #552, #315, .T. ) ;
#300 = DIRECTION ( 'NONE',  ( -0.000000000000000000, -1.000000000000000000, -0.000000000000000000 ) ) ;
#301 = CALENDAR_DATE ( 2026, 23, 7 ) ;
#302 = CIRCLE ( 'NONE', #503, 75.00000000000001421 ) ;
#303 = ORIENTED_EDGE ( 'NONE', *, *, #523, .T. ) ;
#304 = VECTOR ( 'NONE', #305, 1000.000000000000000 ) ;
#305 = DIRECTION ( 'NONE',  ( -0.000000000000000000, -1.000000000000000000, -0.000000000000000000 ) ) ;
#306 = CARTESIAN_POINT ( 'NONE',  ( 68.73863542433761609, 20.00000000000000000, -30.00000000000000000 ) ) ;
#307 = EDGE_CURVE ( 'NONE', #417, #23, #582, .T. ) ;
#308 = COORDINATED_UNIVERSAL_TIME_OFFSET ( 3, 30, .AHEAD. ) ;
#309 = ORIENTED_EDGE ( 'NONE', *, *, #556, .T. ) ;
#310 = DIRECTION ( 'NONE',  ( -0.000000000000000000, 1.000000000000000000, -0.000000000000000000 ) ) ;
#311 = CARTESIAN_POINT ( 'NONE',  ( 130.0000000000000000, 20.00000000000000000, 30.00000000000000000 ) ) ;
#312 = VERTEX_POINT ( 'NONE', #95 ) ;
#313 = CARTESIAN_POINT ( 'NONE',  ( -150.0000000000000000, 20.00000000000000000, 10.00000000000000000 ) ) ;
#314 = CC_DESIGN_SECURITY_CLASSIFICATION ( #740, ( #78 ) ) ;
#315 = LINE ( 'NONE', #587, #257 ) ;
#316 = PRODUCT_DEFINITION_SHAPE ( 'NONE', 'NONE',  #619 ) ;
#317 = EDGE_CURVE ( 'NONE', #312, #667, #577, .T. ) ;
#318 = CARTESIAN_POINT ( 'NONE',  ( 0.000000000000000000, -134.1640786499874025, 0.000000000000000000 ) ) ;
#319 = ORIENTED_EDGE ( 'NONE', *, *, #197, .F. ) ;
#320 = AXIS2_PLACEMENT_3D ( 'NONE', #739, #750, #116 ) ;
#321 = DIRECTION ( 'NONE',  ( -0.000000000000000000, -1.000000000000000000, -0.000000000000000000 ) ) ;
#322 = VERTEX_POINT ( 'NONE', #853 ) ;
#323 = EDGE_CURVE ( 'NONE', #2, #141, #871, .T. ) ;
#324 = CARTESIAN_POINT ( 'NONE',  ( -75.00000000000000000, 0.000000000000000000, 10.00000000000000178 ) ) ;
#325 = ORIENTED_EDGE ( 'NONE', *, *, #767, .T. ) ;
#326 = AXIS2_PLACEMENT_3D ( 'NONE', #190, #394, #881 ) ;
#327 = EDGE_CURVE ( 'NONE', #312, #14, #379, .T. ) ;
#328 = CARTESIAN_POINT ( 'NONE',  ( -75.00000000000001421, 20.00000000000000000, 30.00000000000000000 ) ) ;
#329 = DIRECTION ( 'NONE',  ( 0.000000000000000000, 1.000000000000000000, 0.000000000000000000 ) ) ;
#330 = VERTEX_POINT ( 'NONE', #21 ) ;
#331 = AXIS2_PLACEMENT_3D ( 'NONE', #860, #382, #387 ) ;
#332 = LINE ( 'NONE', #804, #560 ) ;
#333 = ADVANCED_FACE ( 'NONE', ( #28 ), #234, .T. ) ;
#334 = DIRECTION ( 'NONE',  ( 1.000000000000000000, -0.000000000000000000, -2.312964634635742895E-17 ) ) ;
#335 = ORIENTED_EDGE ( 'NONE', *, *, #502, .T. ) ;
#336 = DIRECTION ( 'NONE',  ( -1.000000000000000000, 0.000000000000000000, -0.000000000000000000 ) ) ;
#337 = CARTESIAN_POINT ( 'NONE',  ( 75.00000000000001421, 0.000000000000000000, 30.00000000000000000 ) ) ;
#338 = VERTEX_POINT ( 'NONE', #783 ) ;
#339 = CIRCLE ( 'NONE', #842, 75.00000000000001421 ) ;
#340 = DIRECTION ( 'NONE',  ( 0.000000000000000000, 1.000000000000000000, 0.000000000000000000 ) ) ;
#341 = DIRECTION ( 'NONE',  ( 0.000000000000000000, 1.000000000000000000, 0.000000000000000000 ) ) ;
#342 = ORIENTED_EDGE ( 'NONE', *, *, #447, .F. ) ;
#343 = VECTOR ( 'NONE', #292, 1000.000000000000000 ) ;
#344 = LINE ( 'NONE', #267, #443 ) ;
#345 = AXIS2_PLACEMENT_3D ( 'NONE', #725, #590, #716 ) ;
#346 = ORIENTED_EDGE ( 'NONE', *, *, #37, .F. ) ;
#347 = CARTESIAN_POINT ( 'NONE',  ( -75.00000000000001421, 0.000000000000000000, -30.00000000000000000 ) ) ;
#348 = VERTEX_POINT ( 'NONE', #168 ) ;
#349 = CARTESIAN_POINT ( 'NONE',  ( -68.73863542433761609, 20.00000000000000000, -30.00000000000000000 ) ) ;
#350 = DIRECTION ( 'NONE',  ( -0.000000000000000000, -1.000000000000000000, -0.000000000000000000 ) ) ;
#351 = AXIS2_PLACEMENT_3D ( 'NONE', #458, #30, #787 ) ;
#352 = APPROVAL_ROLE ( '' ) ;
#353 = ORIENTED_EDGE ( 'NONE', *, *, #62, .T. ) ;
#354 = CARTESIAN_POINT ( 'NONE',  ( 75.00000000000000000, 0.000000000000000000, -10.00000000000000178 ) ) ;
#355 = CARTESIAN_POINT ( 'NONE',  ( -66.17647058823530415, 20.00000000000000000, 35.29411764705883314 ) ) ;
#356 = EDGE_CURVE ( 'NONE', #256, #417, #604, .T. ) ;
#357 = VECTOR ( 'NONE', #769, 1000.000000000000000 ) ;
#358 = ORIENTED_EDGE ( 'NONE', *, *, #153, .T. ) ;
#359 = CARTESIAN_POINT ( 'NONE',  ( 130.0000000000000000, 0.000000000000000000, 30.00000000000000000 ) ) ;
#360 = EDGE_LOOP ( 'NONE', ( #771, #665, #558, #266 ) ) ;
#361 = DIRECTION ( 'NONE',  ( -1.000000000000000000, 0.000000000000000000, -2.312964634635742895E-17 ) ) ;
#362 = CARTESIAN_POINT ( 'NONE',  ( 130.0000000000000000, 20.00000000000000000, 9.999999999999994671 ) ) ;
#363 = VERTEX_POINT ( 'NONE', #762 ) ;
#364 = DIRECTION ( 'NONE',  ( 0.000000000000000000, 1.000000000000000000, 0.000000000000000000 ) ) ;
#365 = CARTESIAN_POINT ( 'NONE',  ( -75.00000000000001421, 20.00000000000000000, -40.00000000000000000 ) ) ;
#366 = ORGANIZATION ( 'UNSPECIFIED', 'UNSPECIFIED', '' ) ;
#367 = ORIENTED_EDGE ( 'NONE', *, *, #158, .F. ) ;
#368 = LINE ( 'NONE', #13, #732 ) ;
#369 = EDGE_CURVE ( 'NONE', #2, #348, #368, .T. ) ;
#370 = DIRECTION ( 'NONE',  ( -0.000000000000000000, -1.000000000000000000, -0.000000000000000000 ) ) ;
#371 = AXIS2_PLACEMENT_3D ( 'NONE', #825, #566, #157 ) ;
#372 = EDGE_LOOP ( 'NONE', ( #834, #648, #781, #570 ) ) ;
#373 = CIRCLE ( 'NONE', #562, 10.00000000000000178 ) ;
#374 = FACE_OUTER_BOUND ( 'NONE', #845, .T. ) ;
#375 = CARTESIAN_POINT ( 'NONE',  ( 7.347880794884118356E-15, 0.000000000000000000, -60.00000000000000000 ) ) ;
#376 = DATE_AND_TIME ( #714, #670 ) ;
#377 = ORIENTED_EDGE ( 'NONE', *, *, #796, .F. ) ;
#378 = FACE_OUTER_BOUND ( 'NONE', #511, .T. ) ;
#379 = LINE ( 'NONE', #306, #719 ) ;
#380 = EDGE_CURVE ( 'NONE', #348, #865, #701, .T. ) ;
#381 = CIRCLE ( 'NONE', #294, 10.00000000000000178 ) ;
#382 = DIRECTION ( 'NONE',  ( 0.000000000000000000, 0.000000000000000000, 1.000000000000000000 ) ) ;
#383 = ORIENTED_EDGE ( 'NONE', *, *, #158, .T. ) ;
#384 = AXIS2_PLACEMENT_3D ( 'NONE', #814, #200, #609 ) ;
#385 = DIRECTION ( 'NONE',  ( 0.000000000000000000, 0.000000000000000000, 1.000000000000000000 ) ) ;
#386 = ORIENTED_EDGE ( 'NONE', *, *, #189, .T. ) ;
#387 = DIRECTION ( 'NONE',  ( 1.000000000000000000, 0.000000000000000000, -0.000000000000000000 ) ) ;
#388 = ORIENTED_EDGE ( 'NONE', *, *, #42, .F. ) ;
#389 = CARTESIAN_POINT ( 'NONE',  ( 75.00000000000000000, 20.00000000000000000, 10.00000000000000178 ) ) ;
#390 = DIRECTION ( 'NONE',  ( -0.000000000000000000, 1.000000000000000000, -0.000000000000000000 ) ) ;
#391 = ORIENTED_EDGE ( 'NONE', *, *, #549, .T. ) ;
#392 = AXIS2_PLACEMENT_3D ( 'NONE', #362, #149, #293 ) ;
#393 = FACE_OUTER_BOUND ( 'NONE', #749, .T. ) ;
#394 = DIRECTION ( 'NONE',  ( 0.000000000000000000, -1.000000000000000000, 0.000000000000000000 ) ) ;
#395 = VERTEX_POINT ( 'NONE', #359 ) ;
#396 = VECTOR ( 'NONE', #518, 1000.000000000000000 ) ;
#397 = FACE_OUTER_BOUND ( 'NONE', #17, .T. ) ;
#398 = CARTESIAN_POINT ( 'NONE',  ( 130.0000000000000000, 20.00000000000000000, -9.999999999999998224 ) ) ;
#399 = ORIENTED_EDGE ( 'NONE', *, *, #612, .F. ) ;
#400 = CARTESIAN_POINT ( 'NONE',  ( -150.0000000000000000, 0.000000000000000000, 10.00000000000000178 ) ) ;
#401 = EDGE_CURVE ( 'NONE', #248, #363, #831, .T. ) ;
#402 = LINE ( 'NONE', #54, #823 ) ;
#403 = VERTEX_POINT ( 'NONE', #233 ) ;
#404 = AXIS2_PLACEMENT_3D ( 'NONE', #16, #416, #770 ) ;
#405 = CARTESIAN_POINT ( 'NONE',  ( 150.0000000000000000, 0.000000000000000000, -10.00000000000000000 ) ) ;
#406 = ADVANCED_FACE ( 'NONE', ( #649, #24 ), #9, .T. ) ;
#407 = CARTESIAN_POINT ( 'NONE',  ( 0.000000000000000000, 0.000000000000000000, 0.000000000000000000 ) ) ;
#408 = ORIENTED_EDGE ( 'NONE', *, *, #850, .T. ) ;
#409 = AXIS2_PLACEMENT_3D ( 'NONE', #441, #723, #718 ) ;
#410 = FACE_OUTER_BOUND ( 'NONE', #360, .T. ) ;
#411 = CIRCLE ( 'NONE', #27, 10.00000000000000178 ) ;
#412 = DIRECTION ( 'NONE',  ( -0.000000000000000000, 1.000000000000000000, -0.000000000000000000 ) ) ;
#413 = ORIENTED_EDGE ( 'NONE', *, *, #883, .T. ) ;
#414 = DIRECTION ( 'NONE',  ( 0.000000000000000000, 0.000000000000000000, -1.000000000000000000 ) ) ;
#415 = DIRECTION ( 'NONE',  ( 0.000000000000000000, 0.000000000000000000, -1.000000000000000000 ) ) ;
#416 = DIRECTION ( 'NONE',  ( 0.000000000000000000, 0.000000000000000000, 1.000000000000000000 ) ) ;
#417 = VERTEX_POINT ( 'NONE', #778 ) ;
#418 = PLANE ( 'NONE',  #99 ) ;
#419 = EDGE_CURVE ( 'NONE', #611, #2, #484, .T. ) ;
#420 = CARTESIAN_POINT ( 'NONE',  ( -75.00000000000001421, 20.00000000000000000, -30.00000000000000000 ) ) ;
#421 = AXIS2_PLACEMENT_3D ( 'NONE', #219, #1, #422 ) ;
#422 = DIRECTION ( 'NONE',  ( 0.000000000000000000, 0.000000000000000000, 1.000000000000000000 ) ) ;
#423 = VERTEX_POINT ( 'NONE', #640 ) ;
#424 = FACE_OUTER_BOUND ( 'NONE', #684, .T. ) ;
#425 = CARTESIAN_POINT ( 'NONE',  ( 66.17647058823530415, 20.00000000000000000, 35.29411764705883314 ) ) ;
#426 = CC_DESIGN_PERSON_AND_ORGANIZATION_ASSIGNMENT ( #854, #592, ( #740 ) ) ;
#427 = VECTOR ( 'NONE', #477, 1000.000000000000000 ) ;
#428 = DATE_AND_TIME ( #498, #208 ) ;
#429 = EDGE_LOOP ( 'NONE', ( #765, #877, #628, #444 ) ) ;
#430 = LINE ( 'NONE', #354, #487 ) ;
#431 = EDGE_LOOP ( 'NONE', ( #289, #391, #261, #753 ) ) ;
#432 = CYLINDRICAL_SURFACE ( 'NONE', #230, 20.00000000000000000 ) ;
#433 = MANIFOLD_SOLID_BREP ( 'Fillet2', #885 ) ;
#434 = ORIENTED_EDGE ( 'NONE', *, *, #207, .F. ) ;
#435 = FACE_OUTER_BOUND ( 'NONE', #429, .T. ) ;
#436 = DIRECTION ( 'NONE',  ( 0.000000000000000000, 0.000000000000000000, 1.000000000000000000 ) ) ;
#437 = PERSON_AND_ORGANIZATION_ROLE ( 'creator' ) ;
#438 = VERTEX_POINT ( 'NONE', #221 ) ;
#439 = DIRECTION ( 'NONE',  ( 0.000000000000000000, 0.000000000000000000, 1.000000000000000000 ) ) ;
#440 = APPLICATION_CONTEXT ( 'configuration controlled 3d designs of mechanical parts and assemblies' ) ;
#441 = CARTESIAN_POINT ( 'NONE',  ( 0.000000000000000000, 20.00000000000000000, 0.000000000000000000 ) ) ;
#442 = DATE_TIME_ROLE ( 'classification_date' ) ;
#443 = VECTOR ( 'NONE', #188, 1000.000000000000000 ) ;
#444 = ORIENTED_EDGE ( 'NONE', *, *, #222, .T. ) ;
#445 = AXIS2_PLACEMENT_3D ( 'NONE', #645, #565, #711 ) ;
#446 = PLANE ( 'NONE',  #331 ) ;
#447 = EDGE_CURVE ( 'NONE', #201, #530, #112, .T. ) ;
#448 = DIRECTION ( 'NONE',  ( -0.000000000000000000, -1.000000000000000000, -0.000000000000000000 ) ) ;
#449 = PERSON_AND_ORGANIZATION ( #538, #366 ) ;
#450 = VECTOR ( 'NONE', #798, 1000.000000000000000 ) ;
#451 = LINE ( 'NONE', #664, #460 ) ;
#452 = EDGE_CURVE ( 'NONE', #141, #494, #569, .T. ) ;
#453 = CIRCLE ( 'NONE', #351, 20.00000000000000000 ) ;
#454 = LINE ( 'NONE', #529, #304 ) ;
#455 = EDGE_LOOP ( 'NONE', ( #869, #237, #459, #298 ) ) ;
#456 = CC_DESIGN_DATE_AND_TIME_ASSIGNMENT ( #428, #704, ( #619 ) ) ;
#457 = VECTOR ( 'NONE', #466, 1000.000000000000000 ) ;
#458 = CARTESIAN_POINT ( 'NONE',  ( -130.0000000000000000, 20.00000000000000000, 9.999999999999998224 ) ) ;
#459 = ORIENTED_EDGE ( 'NONE', *, *, #612, .T. ) ;
#460 = VECTOR ( 'NONE', #596, 1000.000000000000000 ) ;
#461 = LINE ( 'NONE', #389, #457 ) ;
#462 = UNCERTAINTY_MEASURE_WITH_UNIT (LENGTH_MEASURE( 1.000000000000000082E-05 ), #891, 'distance_accuracy_value', 'NONE');
#463 = ADVANCED_FACE ( 'NONE', ( #435 ), #93, .T. ) ;
#464 = DIRECTION ( 'NONE',  ( 0.000000000000000000, 0.000000000000000000, 1.000000000000000000 ) ) ;
#465 = ORIENTED_EDGE ( 'NONE', *, *, #401, .T. ) ;
#466 = DIRECTION ( 'NONE',  ( -0.000000000000000000, -0.000000000000000000, 1.000000000000000000 ) ) ;
#467 = DIRECTION ( 'NONE',  ( 0.000000000000000000, 0.000000000000000000, 1.000000000000000000 ) ) ;
#468 = ORIENTED_EDGE ( 'NONE', *, *, #509, .T. ) ;
#469 = CC_DESIGN_DATE_AND_TIME_ASSIGNMENT ( #376, #442, ( #740 ) ) ;
#470 = VECTOR ( 'NONE', #887, 1000.000000000000000 ) ;
#471 = ORIENTED_EDGE ( 'NONE', *, *, #657, .T. ) ;
#472 = CARTESIAN_POINT ( 'NONE',  ( 150.0000000000000000, -134.1640786499874025, -10.00000000000000000 ) ) ;
#473 = ORIENTED_EDGE ( 'NONE', *, *, #774, .F. ) ;
#474 = DIRECTION ( 'NONE',  ( 1.000000000000000000, 0.000000000000000000, -0.000000000000000000 ) ) ;
#475 = CARTESIAN_POINT ( 'NONE',  ( 0.000000000000000000, 20.00000000000000000, 0.000000000000000000 ) ) ;
#476 = ORIENTED_EDGE ( 'NONE', *, *, #129, .T. ) ;
#477 = DIRECTION ( 'NONE',  ( -1.000000000000000000, 0.000000000000000000, 0.000000000000000000 ) ) ;
#478 = ADVANCED_FACE ( 'NONE', ( #840 ), #418, .T. ) ;
#479 = DIRECTION ( 'NONE',  ( 0.000000000000000000, 0.000000000000000000, -1.000000000000000000 ) ) ;
#480 = ORIENTED_EDGE ( 'NONE', *, *, #327, .F. ) ;
#481 = CIRCLE ( 'NONE', #392, 20.00000000000000000 ) ;
#482 = FACE_OUTER_BOUND ( 'NONE', #372, .T. ) ;
#483 = ORIENTED_EDGE ( 'NONE', *, *, #317, .T. ) ;
#484 = LINE ( 'NONE', #84, #801 ) ;
#485 = CIRCLE ( 'NONE', #652, 60.00000000000000000 ) ;
#486 = PLANE ( 'NONE',  #138 ) ;
#487 = VECTOR ( 'NONE', #634, 1000.000000000000000 ) ;
#488 =( NAMED_UNIT ( * ) PLANE_ANGLE_UNIT ( ) SI_UNIT ( $, .RADIAN. ) );
#489 = ORIENTED_EDGE ( 'NONE', *, *, #545, .F. ) ;
#490 = EDGE_CURVE ( 'NONE', #552, #110, #430, .T. ) ;
#491 = CARTESIAN_POINT ( 'NONE',  ( -75.00000000000001421, 0.000000000000000000, -40.00000000000000000 ) ) ;
#492 = DIRECTION ( 'NONE',  ( 0.000000000000000000, 0.000000000000000000, -1.000000000000000000 ) ) ;
#493 = APPLICATION_PROTOCOL_DEFINITION ( 'international standard', 'config_control_design', 1994, #440 ) ;
#494 = VERTEX_POINT ( 'NONE', #79 ) ;
#495 = LINE ( 'NONE', #349, #759 ) ;
#496 = LINE ( 'NONE', #420, #357 ) ;
#497 = CIRCLE ( 'NONE', #421, 20.00000000000000000 ) ;
#498 = CALENDAR_DATE ( 2026, 23, 7 ) ;
#499 = EDGE_LOOP ( 'NONE', ( #811, #210, #476, #46 ) ) ;
#500 = DIRECTION ( 'NONE',  ( 0.000000000000000000, 1.000000000000000000, 0.000000000000000000 ) ) ;
#501 = CARTESIAN_POINT ( 'NONE',  ( 0.000000000000000000, 20.00000000000000000, 0.000000000000000000 ) ) ;
#502 = EDGE_CURVE ( 'NONE', #248, #338, #495, .T. ) ;
#503 = AXIS2_PLACEMENT_3D ( 'NONE', #132, #184, #735 ) ;
#504 = AXIS2_PLACEMENT_3D ( 'NONE', #692, #4, #836 ) ;
#505 = DIRECTION ( 'NONE',  ( 0.000000000000000000, 1.000000000000000000, -0.000000000000000000 ) ) ;
#506 = ORIENTED_EDGE ( 'NONE', *, *, #894, .T. ) ;
#507 = DIRECTION ( 'NONE',  ( 0.000000000000000000, -0.000000000000000000, 1.000000000000000000 ) ) ;
#508 = CARTESIAN_POINT ( 'NONE',  ( -130.0000000000000000, 20.00000000000000000, -30.00000000000000000 ) ) ;
#509 = EDGE_CURVE ( 'NONE', #737, #757, #373, .T. ) ;
#510 = DATE_AND_TIME ( #301, #194 ) ;
#511 = EDGE_LOOP ( 'NONE', ( #480, #483, #77, #851 ) ) ;
#512 = CARTESIAN_POINT ( 'NONE',  ( 75.00000000000000000, -134.1640786499874025, -10.00000000000000178 ) ) ;
#513 = DIRECTION ( 'NONE',  ( -1.000000000000000000, -0.000000000000000000, -0.000000000000000000 ) ) ;
#514 = VECTOR ( 'NONE', #6, 1000.000000000000000 ) ;
#515 = ORIENTED_EDGE ( 'NONE', *, *, #369, .T. ) ;
#516 = EDGE_CURVE ( 'NONE', #403, #395, #232, .T. ) ;
#517 = CARTESIAN_POINT ( 'NONE',  ( 75.00000000000001421, 20.00000000000000000, 40.00000000000000000 ) ) ;
#518 = DIRECTION ( 'NONE',  ( 0.000000000000000000, -1.000000000000000000, 0.000000000000000000 ) ) ;
#519 = AXIS2_PLACEMENT_3D ( 'NONE', #365, #350, #492 ) ;
#520 = CARTESIAN_POINT ( 'NONE',  ( 150.0000000000000000, -134.1640786499874025, 10.00000000000000000 ) ) ;
#521 = LINE ( 'NONE', #806, #36 ) ;
#522 = EDGE_LOOP ( 'NONE', ( #777, #303, #610, #270 ) ) ;
#523 = EDGE_CURVE ( 'NONE', #695, #574, #74, .T. ) ;
#524 = APPROVAL_ROLE ( '' ) ;
#525 = CARTESIAN_POINT ( 'NONE',  ( -75.00000000000000000, 20.00000000000000000, 10.00000000000000178 ) ) ;
#526 = ORIENTED_EDGE ( 'NONE', *, *, #637, .T. ) ;
#527 = SECURITY_CLASSIFICATION_LEVEL ( 'unclassified' ) ;
#528 = VECTOR ( 'NONE', #171, 1000.000000000000000 ) ;
#529 = CARTESIAN_POINT ( 'NONE',  ( 66.17647058823530415, 20.00000000000000000, -35.29411764705883314 ) ) ;
#530 = VERTEX_POINT ( 'NONE', #151 ) ;
#531 = ADVANCED_FACE ( 'NONE', ( #424 ), #296, .T. ) ;
#532 = FACE_OUTER_BOUND ( 'NONE', #815, .T. ) ;
#533 = EDGE_LOOP ( 'NONE', ( #803, #44, #136, #182 ) ) ;
#534 = DIRECTION ( 'NONE',  ( -1.000000000000000000, -0.000000000000000000, -0.000000000000000000 ) ) ;
#535 = APPLICATION_CONTEXT ( 'configuration controlled 3d designs of mechanical parts and assemblies' ) ;
#536 = DIRECTION ( 'NONE',  ( -1.000000000000000000, 0.000000000000000000, -0.000000000000000000 ) ) ;
#537 = EDGE_LOOP ( 'NONE', ( #280, #408, #187, #346 ) ) ;
#538 = PERSON ( 'UNSPECIFIED', 'UNSPECIFIED', 'UNSPECIFIED', ('UNSPECIFIED'), ('UNSPECIFIED'), ('UNSPECIFIED') ) ;
#539 = LINE ( 'NONE', #808, #183 ) ;
#540 = DIRECTION ( 'NONE',  ( -0.000000000000000000, -1.000000000000000000, -0.000000000000000000 ) ) ;
#541 = ORIENTED_EDGE ( 'NONE', *, *, #668, .T. ) ;
#542 = CARTESIAN_POINT ( 'NONE',  ( -150.0000000000000000, 0.000000000000000000, 30.00000000000000000 ) ) ;
#543 = FACE_OUTER_BOUND ( 'NONE', #160, .T. ) ;
#544 = ORIENTED_EDGE ( 'NONE', *, *, #883, .F. ) ;
#545 = EDGE_CURVE ( 'NONE', #494, #757, #215, .T. ) ;
#546 = DIRECTION ( 'NONE',  ( 1.000000000000000000, 0.000000000000000000, -2.312964634635742895E-17 ) ) ;
#547 = LINE ( 'NONE', #130, #572 ) ;
#548 = ORIENTED_EDGE ( 'NONE', *, *, #165, .F. ) ;
#549 = EDGE_CURVE ( 'NONE', #552, #322, #114, .T. ) ;
#550 = DIRECTION ( 'NONE',  ( 0.000000000000000000, 1.000000000000000000, 0.000000000000000000 ) ) ;
#551 = ADVANCED_FACE ( 'NONE', ( #378 ), #446, .F. ) ;
#552 = VERTEX_POINT ( 'NONE', #251 ) ;
#553 = DIRECTION ( 'NONE',  ( -1.000000000000000000, 0.000000000000000000, 0.000000000000000000 ) ) ;
#554 = LOCAL_TIME ( 16, 5, 0.000000000000000000, #108 ) ;
#555 = DIRECTION ( 'NONE',  ( 0.000000000000000000, 0.000000000000000000, -1.000000000000000000 ) ) ;
#556 = EDGE_CURVE ( 'NONE', #737, #395, #38, .T. ) ;
#557 = CARTESIAN_POINT ( 'NONE',  ( 150.0000000000000000, 0.000000000000000000, 10.00000000000000000 ) ) ;
#558 = ORIENTED_EDGE ( 'NONE', *, *, #805, .F. ) ;
#559 = DIRECTION ( 'NONE',  ( 0.000000000000000000, -1.000000000000000000, 0.000000000000000000 ) ) ;
#560 = VECTOR ( 'NONE', #340, 1000.000000000000000 ) ;
#561 = CARTESIAN_POINT ( 'NONE',  ( -75.00000000000000000, -134.1640786499874025, 10.00000000000000178 ) ) ;
#562 = AXIS2_PLACEMENT_3D ( 'NONE', #88, #364, #286 ) ;
#563 = APPLICATION_PROTOCOL_DEFINITION ( 'international standard', 'config_control_design', 1994, #535 ) ;
#564 = ORIENTED_EDGE ( 'NONE', *, *, #805, .T. ) ;
#565 = DIRECTION ( 'NONE',  ( -0.000000000000000000, -1.000000000000000000, -0.000000000000000000 ) ) ;
#566 = DIRECTION ( 'NONE',  ( 0.000000000000000000, -1.000000000000000000, 0.000000000000000000 ) ) ;
#567 = PERSON_AND_ORGANIZATION_ROLE ( 'creator' ) ;
#568 = ORIENTED_EDGE ( 'NONE', *, *, #113, .F. ) ;
#569 = LINE ( 'NONE', #161, #621 ) ;
#570 = ORIENTED_EDGE ( 'NONE', *, *, #380, .F. ) ;
#571 = LINE ( 'NONE', #763, #125 ) ;
#572 = VECTOR ( 'NONE', #334, 1000.000000000000000 ) ;
#573 = CARTESIAN_POINT ( 'NONE',  ( 75.00000000000001421, 20.00000000000000000, 40.00000000000000000 ) ) ;
#574 = VERTEX_POINT ( 'NONE', #862 ) ;
#575 = CARTESIAN_POINT ( 'NONE',  ( -75.00000000000000000, -134.1640786499874025, 10.00000000000000178 ) ) ;
#576 = EDGE_CURVE ( 'NONE', #87, #106, #174, .T. ) ;
#577 = LINE ( 'NONE', #712, #396 ) ;
#578 = AXIS2_PLACEMENT_3D ( 'NONE', #501, #85, #275 ) ;
#579 = AXIS2_PLACEMENT_3D ( 'NONE', #517, #43, #782 ) ;
#580 = ORIENTED_EDGE ( 'NONE', *, *, #673, .T. ) ;
#581 = DIRECTION ( 'NONE',  ( 0.000000000000000000, 0.000000000000000000, 1.000000000000000000 ) ) ;
#582 = LINE ( 'NONE', #857, #635 ) ;
#583 = DESIGN_CONTEXT ( 'detailed design', #440, 'design' ) ;
#584 = CALENDAR_DATE ( 2026, 23, 7 ) ;
#585 = ORIENTED_EDGE ( 'NONE', *, *, #92, .T. ) ;
#586 = LINE ( 'NONE', #242, #528 ) ;
#587 = CARTESIAN_POINT ( 'NONE',  ( 75.00000000000000000, 0.000000000000000000, 10.00000000000000178 ) ) ;
#588 = APPROVAL_PERSON_ORGANIZATION ( #724, #214, #524 ) ;
#589 = ORIENTED_EDGE ( 'NONE', *, *, #889, .T. ) ;
#590 = DIRECTION ( 'NONE',  ( 0.000000000000000000, 1.000000000000000000, 0.000000000000000000 ) ) ;
#591 = ORIENTED_EDGE ( 'NONE', *, *, #820, .F. ) ;
#592 = PERSON_AND_ORGANIZATION_ROLE ( 'classification_officer' ) ;
#593 = AXIS2_PLACEMENT_3D ( 'NONE', #788, #370, #175 ) ;
#594 = FACE_OUTER_BOUND ( 'NONE', #59, .T. ) ;
#595 = EDGE_LOOP ( 'NONE', ( #734, #710 ) ) ;
#596 = DIRECTION ( 'NONE',  ( -0.000000000000000000, 1.000000000000000000, -0.000000000000000000 ) ) ;
#597 = ORIENTED_EDGE ( 'NONE', *, *, #687, .F. ) ;
#598 = ADVANCED_FACE ( 'NONE', ( #662 ), #177, .F. ) ;
#599 = LOCAL_TIME ( 16, 5, 0.000000000000000000, #838 ) ;
#600 = DIRECTION ( 'NONE',  ( -0.000000000000000000, 1.000000000000000000, -0.000000000000000000 ) ) ;
#601 = ORIENTED_EDGE ( 'NONE', *, *, #780, .F. ) ;
#602 = ADVANCED_FACE ( 'NONE', ( #594 ), #249, .F. ) ;
#603 = CARTESIAN_POINT ( 'NONE',  ( 68.73863542433761609, 0.000000000000000000, -30.00000000000000000 ) ) ;
#604 = CIRCLE ( 'NONE', #504, 60.00000000000000000 ) ;
#605 = LINE ( 'NONE', #265, #61 ) ;
#606 = ORIENTED_EDGE ( 'NONE', *, *, #197, .T. ) ;
#607 = AXIS2_PLACEMENT_3D ( 'NONE', #147, #281, #414 ) ;
#608 = DIRECTION ( 'NONE',  ( 0.000000000000000000, 1.000000000000000000, 0.000000000000000000 ) ) ;
#609 = DIRECTION ( 'NONE',  ( 0.000000000000000000, 0.000000000000000000, 1.000000000000000000 ) ) ;
#610 = ORIENTED_EDGE ( 'NONE', *, *, #780, .T. ) ;
#611 = VERTEX_POINT ( 'NONE', #666 ) ;
#612 = EDGE_CURVE ( 'NONE', #118, #29, #454, .T. ) ;
#613 = CYLINDRICAL_SURFACE ( 'NONE', #326, 20.00000000000000000 ) ;
#614 = ORIENTED_EDGE ( 'NONE', *, *, #625, .F. ) ;
#615 =( GEOMETRIC_REPRESENTATION_CONTEXT ( 3 ) GLOBAL_UNCERTAINTY_ASSIGNED_CONTEXT ( ( #462 ) ) GLOBAL_UNIT_ASSIGNED_CONTEXT ( ( #891, #488, #81 ) ) REPRESENTATION_CONTEXT ( 'NONE', 'WORKASPACE' ) );
#616 = PLANE ( 'NONE',  #199 ) ;
#617 = CARTESIAN_POINT ( 'NONE',  ( -75.00000000000001421, 20.00000000000000000, -40.00000000000000000 ) ) ;
#618 = EDGE_LOOP ( 'NONE', ( #785, #633, #742, #399 ) ) ;
#619 = PRODUCT_DEFINITION ( 'UNKNOWN', '', #78, #583 ) ;
#620 = AXIS2_PLACEMENT_3D ( 'NONE', #5, #282, #361 ) ;
#621 = VECTOR ( 'NONE', #758, 1000.000000000000000 ) ;
#622 = EDGE_CURVE ( 'NONE', #438, #700, #722, .T. ) ;
#623 = CARTESIAN_POINT ( 'NONE',  ( 0.000000000000000000, 0.000000000000000000, 0.000000000000000000 ) ) ;
#624 = ORIENTED_EDGE ( 'NONE', *, *, #516, .F. ) ;
#625 = EDGE_CURVE ( 'NONE', #256, #120, #451, .T. ) ;
#626 = CYLINDRICAL_SURFACE ( 'NONE', #519, 10.00000000000000178 ) ;
#627 = PERSON_AND_ORGANIZATION_ROLE ( 'design_owner' ) ;
#628 = ORIENTED_EDGE ( 'NONE', *, *, #576, .F. ) ;
#629 = DIRECTION ( 'NONE',  ( -1.000000000000000000, 0.000000000000000000, -2.312964634635742895E-17 ) ) ;
#630 = VECTOR ( 'NONE', #247, 1000.000000000000000 ) ;
#631 = CARTESIAN_POINT ( 'NONE',  ( 130.0000000000000000, 20.00000000000000000, 9.999999999999994671 ) ) ;
#632 = EDGE_CURVE ( 'NONE', #14, #118, #411, .T. ) ;
#633 = ORIENTED_EDGE ( 'NONE', *, *, #826, .F. ) ;
#634 = DIRECTION ( 'NONE',  ( 1.000000000000000000, -0.000000000000000000, 2.312964634635742895E-17 ) ) ;
#635 = VECTOR ( 'NONE', #103, 1000.000000000000000 ) ;
#636 = LINE ( 'NONE', #287, #83 ) ;
#637 = EDGE_CURVE ( 'NONE', #757, #191, #179, .T. ) ;
#638 = DATE_AND_TIME ( #642, #599 ) ;
#639 = VERTEX_POINT ( 'NONE', #728 ) ;
#640 = CARTESIAN_POINT ( 'NONE',  ( 75.00000000000001421, 0.000000000000000000, -30.00000000000000000 ) ) ;
#641 = CARTESIAN_POINT ( 'NONE',  ( -75.00000000000001421, 20.00000000000000000, 40.00000000000000000 ) ) ;
#642 = CALENDAR_DATE ( 2026, 23, 7 ) ;
#643 = ORIENTED_EDGE ( 'NONE', *, *, #775, .F. ) ;
#644 = ADVANCED_FACE ( 'NONE', ( #374 ), #97, .T. ) ;
#645 = CARTESIAN_POINT ( 'NONE',  ( 130.0000000000000000, 0.000000000000000000, 9.999999999999994671 ) ) ;
#646 = DIRECTION ( 'NONE',  ( 0.000000000000000000, 0.000000000000000000, -1.000000000000000000 ) ) ;
#647 = AXIS2_PLACEMENT_3D ( 'NONE', #135, #45, #671 ) ;
#648 = ORIENTED_EDGE ( 'NONE', *, *, #185, .F. ) ;
#649 = FACE_OUTER_BOUND ( 'NONE', #225, .T. ) ;
#650 = EDGE_CURVE ( 'NONE', #639, #348, #453, .T. ) ;
#651 = CARTESIAN_POINT ( 'NONE',  ( 0.000000000000000000, 20.00000000000000000, 0.000000000000000000 ) ) ;
#652 = AXIS2_PLACEMENT_3D ( 'NONE', #31, #162, #436 ) ;
#653 = AXIS2_PLACEMENT_3D ( 'NONE', #226, #500, #507 ) ;
#654 = ORIENTED_EDGE ( 'NONE', *, *, #738, .F. ) ;
#655 = CARTESIAN_POINT ( 'NONE',  ( -75.00000000000000000, -134.1640786499874025, -10.00000000000000178 ) ) ;
#656 = FACE_OUTER_BOUND ( 'NONE', #455, .T. ) ;
#657 = EDGE_CURVE ( 'NONE', #33, #291, #586, .T. ) ;
#658 = EDGE_LOOP ( 'NONE', ( #614, #672, #721, #196 ) ) ;
#659 = CARTESIAN_POINT ( 'NONE',  ( 130.0000000000000000, 0.000000000000000000, -30.00000000000000000 ) ) ;
#660 = CYLINDRICAL_SURFACE ( 'NONE', #789, 75.00000000000001421 ) ;
#661 = CIRCLE ( 'NONE', #647, 75.00000000000001421 ) ;
#662 = FACE_OUTER_BOUND ( 'NONE', #533, .T. ) ;
#663 = VERTEX_POINT ( 'NONE', #102 ) ;
#664 = CARTESIAN_POINT ( 'NONE',  ( 7.347880794884118356E-15, -134.1640786499874025, -60.00000000000000000 ) ) ;
#665 = ORIENTED_EDGE ( 'NONE', *, *, #419, .F. ) ;
#666 = CARTESIAN_POINT ( 'NONE',  ( -75.00000000000001421, 0.000000000000000000, 30.00000000000000000 ) ) ;
#667 = VERTEX_POINT ( 'NONE', #659 ) ;
#668 = EDGE_CURVE ( 'NONE', #700, #639, #34, .T. ) ;
#669 = CARTESIAN_POINT ( 'NONE',  ( -150.0000000000000000, 0.000000000000000000, -10.00000000000000000 ) ) ;
#670 = LOCAL_TIME ( 16, 5, 0.000000000000000000, #308 ) ;
#671 = DIRECTION ( 'NONE',  ( 0.000000000000000000, 0.000000000000000000, 1.000000000000000000 ) ) ;
#672 = ORIENTED_EDGE ( 'NONE', *, *, #356, .T. ) ;
#673 = EDGE_CURVE ( 'NONE', #106, #248, #521, .T. ) ;
#674 = FACE_BOUND ( 'NONE', #859, .T. ) ;
#675 = CARTESIAN_POINT ( 'NONE',  ( 66.17647058823530415, 0.000000000000000000, 35.29411764705883314 ) ) ;
#676 = ORIENTED_EDGE ( 'NONE', *, *, #299, .F. ) ;
#677 = AXIS2_PLACEMENT_3D ( 'NONE', #109, #105, #385 ) ;
#678 = CARTESIAN_POINT ( 'NONE',  ( 150.0000000000000000, 20.00000000000000000, 10.00000000000000000 ) ) ;
#679 = ADVANCED_FACE ( 'NONE', ( #543 ), #613, .T. ) ;
#680 = DIRECTION ( 'NONE',  ( 1.000000000000000000, -0.000000000000000000, -0.000000000000000000 ) ) ;
#681 = ORIENTED_EDGE ( 'NONE', *, *, #75, .F. ) ;
#682 = CARTESIAN_POINT ( 'NONE',  ( 66.17647058823530415, 0.000000000000000000, -35.29411764705883314 ) ) ;
#683 = DIRECTION ( 'NONE',  ( -0.000000000000000000, -1.000000000000000000, -0.000000000000000000 ) ) ;
#684 = EDGE_LOOP ( 'NONE', ( #606, #715, #548, #597 ) ) ;
#685 = LINE ( 'NONE', #603, #829 ) ;
#686 = ORIENTED_EDGE ( 'NONE', *, *, #129, .F. ) ;
#687 = EDGE_CURVE ( 'NONE', #663, #330, #873, .T. ) ;
#688 = AXIS2_PLACEMENT_3D ( 'NONE', #641, #277, #555 ) ;
#689 = AXIS2_PLACEMENT_3D ( 'NONE', #575, #846, #733 ) ;
#690 = CARTESIAN_POINT ( 'NONE',  ( 75.00000000000000000, -134.1640786499874025, 10.00000000000000178 ) ) ;
#691 = VERTEX_POINT ( 'NONE', #741 ) ;
#692 = CARTESIAN_POINT ( 'NONE',  ( 0.000000000000000000, 0.000000000000000000, 0.000000000000000000 ) ) ;
#693 = LINE ( 'NONE', #80, #730 ) ;
#694 = APPROVAL_STATUS ( 'not_yet_approved' ) ;
#695 = VERTEX_POINT ( 'NONE', #876 ) ;
#696 = CARTESIAN_POINT ( 'NONE',  ( -130.0000000000000000, 20.00000000000000000, -9.999999999999998224 ) ) ;
#697 = CC_DESIGN_APPROVAL ( #214, ( #740 ) ) ;
#698 = CYLINDRICAL_SURFACE ( 'NONE', #688, 10.00000000000000178 ) ;
#699 = CARTESIAN_POINT ( 'NONE',  ( -130.0000000000000000, 0.000000000000000000, 30.00000000000000000 ) ) ;
#700 = VERTEX_POINT ( 'NONE', #126 ) ;
#701 = LINE ( 'NONE', #772, #67 ) ;
#702 = DIRECTION ( 'NONE',  ( -0.000000000000000000, 1.000000000000000000, -0.000000000000000000 ) ) ;
#703 = EDGE_CURVE ( 'NONE', #29, #423, #243, .T. ) ;
#704 = DATE_TIME_ROLE ( 'creation_date' ) ;
#705 = ORIENTED_EDGE ( 'NONE', *, *, #731, .F. ) ;
#706 = DIRECTION ( 'NONE',  ( 1.000000000000000000, -0.000000000000000000, -0.000000000000000000 ) ) ;
#707 = PLANE ( 'NONE',  #620 ) ;
#708 = EDGE_CURVE ( 'NONE', #141, #191, #726, .T. ) ;
#709 = COORDINATED_UNIVERSAL_TIME_OFFSET ( 3, 30, .AHEAD. ) ;
#710 = ORIENTED_EDGE ( 'NONE', *, *, #142, .F. ) ;
#711 = DIRECTION ( 'NONE',  ( -1.387778780781445676E-15, 0.000000000000000000, 1.000000000000000000 ) ) ;
#712 = CARTESIAN_POINT ( 'NONE',  ( 130.0000000000000000, 20.00000000000000000, -30.00000000000000000 ) ) ;
#713 = APPROVAL_PERSON_ORGANIZATION ( #86, #297, #790 ) ;
#714 = CALENDAR_DATE ( 2026, 23, 7 ) ;
#715 = ORIENTED_EDGE ( 'NONE', *, *, #622, .F. ) ;
#716 = DIRECTION ( 'NONE',  ( 0.000000000000000000, 0.000000000000000000, 1.000000000000000000 ) ) ;
#717 = EDGE_CURVE ( 'NONE', #691, #312, #20, .T. ) ;
#718 = DIRECTION ( 'NONE',  ( 0.000000000000000000, 0.000000000000000000, -1.000000000000000000 ) ) ;
#719 = VECTOR ( 'NONE', #513, 1000.000000000000000 ) ;
#720 = VECTOR ( 'NONE', #238, 1000.000000000000000 ) ;
#721 = ORIENTED_EDGE ( 'NONE', *, *, #307, .T. ) ;
#722 = LINE ( 'NONE', #525, #886 ) ;
#723 = DIRECTION ( 'NONE',  ( -0.000000000000000000, -1.000000000000000000, -0.000000000000000000 ) ) ;
#724 = PERSON_AND_ORGANIZATION ( #538, #366 ) ;
#725 = CARTESIAN_POINT ( 'NONE',  ( 0.000000000000000000, 0.000000000000000000, 0.000000000000000000 ) ) ;
#726 = CIRCLE ( 'NONE', #768, 75.00000000000001421 ) ;
#727 = ADVANCED_BREP_SHAPE_REPRESENTATION ( 'Link3LShapeConnectorBig_Default_sldprt', ( #433, #404 ), #615 ) ;
#728 = CARTESIAN_POINT ( 'NONE',  ( -150.0000000000000000, 20.00000000000000000, 10.00000000000000000 ) ) ;
#729 = ORIENTED_EDGE ( 'NONE', *, *, #889, .F. ) ;
#730 = VECTOR ( 'NONE', #843, 1000.000000000000000 ) ;
#731 = EDGE_CURVE ( 'NONE', #106, #201, #605, .T. ) ;
#732 = VECTOR ( 'NONE', #553, 1000.000000000000000 ) ;
#733 = DIRECTION ( 'NONE',  ( 0.000000000000000000, 0.000000000000000000, 1.000000000000000000 ) ) ;
#734 = ORIENTED_EDGE ( 'NONE', *, *, #283, .F. ) ;
#735 = DIRECTION ( 'NONE',  ( 0.000000000000000000, 0.000000000000000000, 1.000000000000000000 ) ) ;
#736 = LINE ( 'NONE', #472, #470 ) ;
#737 = VERTEX_POINT ( 'NONE', #337 ) ;
#738 = EDGE_CURVE ( 'NONE', #746, #7, #547, .T. ) ;
#739 = CARTESIAN_POINT ( 'NONE',  ( 0.000000000000000000, 0.000000000000000000, 0.000000000000000000 ) ) ;
#740 = SECURITY_CLASSIFICATION ( '', '', #527 ) ;
#741 = CARTESIAN_POINT ( 'NONE',  ( 150.0000000000000000, 20.00000000000000000, -10.00000000000000000 ) ) ;
#742 = ORIENTED_EDGE ( 'NONE', *, *, #703, .F. ) ;
#743 = DIRECTION ( 'NONE',  ( 0.000000000000000000, -0.000000000000000000, 1.000000000000000000 ) ) ;
#744 = AXIS2_PLACEMENT_3D ( 'NONE', #203, #60, #336 ) ;
#745 = DIRECTION ( 'NONE',  ( 0.000000000000000000, 0.000000000000000000, -1.000000000000000000 ) ) ;
#746 = VERTEX_POINT ( 'NONE', #122 ) ;
#747 = PLANE ( 'NONE',  #813 ) ;
#748 = FACE_OUTER_BOUND ( 'NONE', #618, .T. ) ;
#749 = EDGE_LOOP ( 'NONE', ( #353, #506, #884, #295, #874, #198, #64, #855, #601, #377, #150, #568, #164, #91, #676, #591, #101, #861, #468, #489, #564 ) ) ;
#750 = DIRECTION ( 'NONE',  ( -0.000000000000000000, -1.000000000000000000, -0.000000000000000000 ) ) ;
#751 = ADVANCED_FACE ( 'NONE', ( #748 ), #269, .F. ) ;
#752 = CARTESIAN_POINT ( 'NONE',  ( -68.73863542433761609, 20.00000000000000000, -30.00000000000000000 ) ) ;
#753 = ORIENTED_EDGE ( 'NONE', *, *, #850, .F. ) ;
#754 = VECTOR ( 'NONE', #505, 1000.000000000000000 ) ;
#755 = FACE_OUTER_BOUND ( 'NONE', #499, .T. ) ;
#756 = ADVANCED_FACE ( 'NONE', ( #260 ), #58, .F. ) ;
#757 = VERTEX_POINT ( 'NONE', #675 ) ;
#758 = DIRECTION ( 'NONE',  ( -0.000000000000000000, -1.000000000000000000, -0.000000000000000000 ) ) ;
#759 = VECTOR ( 'NONE', #706, 1000.000000000000000 ) ;
#760 = DIRECTION ( 'NONE',  ( -0.000000000000000000, 1.000000000000000000, -0.000000000000000000 ) ) ;
#761 = ORIENTED_EDGE ( 'NONE', *, *, #452, .T. ) ;
#762 = CARTESIAN_POINT ( 'NONE',  ( -150.0000000000000000, 20.00000000000000000, -10.00000000000000000 ) ) ;
#763 = CARTESIAN_POINT ( 'NONE',  ( 130.0000000000000000, 20.00000000000000000, 30.00000000000000000 ) ) ;
#764 = CARTESIAN_POINT ( 'NONE',  ( 130.0000000000000000, 0.000000000000000000, -9.999999999999998224 ) ) ;
#765 = ORIENTED_EDGE ( 'NONE', *, *, #401, .F. ) ;
#766 = DIRECTION ( 'NONE',  ( -0.000000000000000000, -1.000000000000000000, -0.000000000000000000 ) ) ;
#767 = EDGE_CURVE ( 'NONE', #33, #737, #402, .T. ) ;
#768 = AXIS2_PLACEMENT_3D ( 'NONE', #475, #329, #467 ) ;
#769 = DIRECTION ( 'NONE',  ( 0.000000000000000000, -1.000000000000000000, 0.000000000000000000 ) ) ;
#770 = DIRECTION ( 'NONE',  ( 1.000000000000000000, 0.000000000000000000, 0.000000000000000000 ) ) ;
#771 = ORIENTED_EDGE ( 'NONE', *, *, #323, .F. ) ;
#772 = CARTESIAN_POINT ( 'NONE',  ( -130.0000000000000000, 20.00000000000000000, 30.00000000000000000 ) ) ;
#773 = LINE ( 'NONE', #223, #25 ) ;
#774 = EDGE_CURVE ( 'NONE', #274, #338, #784, .T. ) ;
#775 = EDGE_CURVE ( 'NONE', #110, #691, #736, .T. ) ;
#776 = DIRECTION ( 'NONE',  ( 0.000000000000000000, 0.000000000000000000, 1.000000000000000000 ) ) ;
#777 = ORIENTED_EDGE ( 'NONE', *, *, #153, .F. ) ;
#778 = CARTESIAN_POINT ( 'NONE',  ( 0.000000000000000000, 0.000000000000000000, 60.00000000000000000 ) ) ;
#779 = FACE_OUTER_BOUND ( 'NONE', #55, .T. ) ;
#780 = EDGE_CURVE ( 'NONE', #574, #530, #339, .T. ) ;
#781 = ORIENTED_EDGE ( 'NONE', *, *, #894, .F. ) ;
#782 = DIRECTION ( 'NONE',  ( 0.000000000000000000, 0.000000000000000000, -1.000000000000000000 ) ) ;
#783 = CARTESIAN_POINT ( 'NONE',  ( -75.00000000000001421, 20.00000000000000000, -30.00000000000000000 ) ) ;
#784 = CIRCLE ( 'NONE', #880, 10.00000000000000178 ) ;
#785 = ORIENTED_EDGE ( 'NONE', *, *, #632, .F. ) ;
#786 = APPROVAL ( #694, 'UNSPECIFIED' ) ;
#787 = DIRECTION ( 'NONE',  ( 0.000000000000000000, 0.000000000000000000, 1.000000000000000000 ) ) ;
#788 = CARTESIAN_POINT ( 'NONE',  ( -75.00000000000001421, 20.00000000000000000, 40.00000000000000000 ) ) ;
#789 = AXIS2_PLACEMENT_3D ( 'NONE', #100, #448, #244 ) ;
#790 = APPROVAL_ROLE ( '' ) ;
#791 = CARTESIAN_POINT ( 'NONE',  ( 150.0000000000000000, 0.000000000000000000, 30.00000000000000000 ) ) ;
#792 = ORIENTED_EDGE ( 'NONE', *, *, #835, .F. ) ;
#793 = ADVANCED_FACE ( 'NONE', ( #532 ), #204, .T. ) ;
#794 = CARTESIAN_POINT ( 'NONE',  ( 66.17647058823530415, 20.00000000000000000, 35.29411764705883314 ) ) ;
#795 = ORIENTED_EDGE ( 'NONE', *, *, #632, .T. ) ;
#796 = EDGE_CURVE ( 'NONE', #29, #574, #661, .T. ) ;
#797 = CIRCLE ( 'NONE', #867, 20.00000000000000000 ) ;
#798 = DIRECTION ( 'NONE',  ( 0.000000000000000000, 1.000000000000000000, 0.000000000000000000 ) ) ;
#799 = EDGE_LOOP ( 'NONE', ( #309, #383, #818, #325 ) ) ;
#800 = DIRECTION ( 'NONE',  ( -1.000000000000000000, 0.000000000000000000, 2.312964634635742895E-17 ) ) ;
#801 = VECTOR ( 'NONE', #824, 1000.000000000000000 ) ;
#802 = DIRECTION ( 'NONE',  ( 0.000000000000000000, 1.000000000000000000, 0.000000000000000000 ) ) ;
#803 = ORIENTED_EDGE ( 'NONE', *, *, #26, .T. ) ;
#804 = CARTESIAN_POINT ( 'NONE',  ( -66.17647058823530415, 20.00000000000000000, -35.29411764705883314 ) ) ;
#805 = EDGE_CURVE ( 'NONE', #494, #611, #253, .T. ) ;
#806 = CARTESIAN_POINT ( 'NONE',  ( -130.0000000000000000, 20.00000000000000000, -30.00000000000000000 ) ) ;
#807 = ORIENTED_EDGE ( 'NONE', *, *, #767, .F. ) ;
#808 = CARTESIAN_POINT ( 'NONE',  ( 75.00000000000000000, 20.00000000000000000, -10.00000000000000178 ) ) ;
#809 = AXIS2_PLACEMENT_3D ( 'NONE', #817, #600, #50 ) ;
#810 = DIRECTION ( 'NONE',  ( -0.000000000000000000, -1.000000000000000000, -0.000000000000000000 ) ) ;
#811 = ORIENTED_EDGE ( 'NONE', *, *, #490, .T. ) ;
#812 = CARTESIAN_POINT ( 'NONE',  ( -75.00000000000000000, 0.000000000000000000, -10.00000000000000178 ) ) ;
#813 = AXIS2_PLACEMENT_3D ( 'NONE', #878, #56, #474 ) ;
#814 = CARTESIAN_POINT ( 'NONE',  ( 75.00000000000001421, 0.000000000000000000, -40.00000000000000000 ) ) ;
#815 = EDGE_LOOP ( 'NONE', ( #705, #580, #335, #386 ) ) ;
#816 = CARTESIAN_POINT ( 'NONE',  ( -130.0000000000000000, 0.000000000000000000, -30.00000000000000000 ) ) ;
#817 = CARTESIAN_POINT ( 'NONE',  ( 0.000000000000000000, -134.1640786499874025, 0.000000000000000000 ) ) ;
#818 = ORIENTED_EDGE ( 'NONE', *, *, #657, .F. ) ;
#819 = DIRECTION ( 'NONE',  ( 0.000000000000000000, 0.000000000000000000, 1.000000000000000000 ) ) ;
#820 = EDGE_CURVE ( 'NONE', #403, #841, #229, .T. ) ;
#821 = APPROVAL_DATE_TIME ( #638, #786 ) ;
#822 = ORIENTED_EDGE ( 'NONE', *, *, #327, .T. ) ;
#823 = VECTOR ( 'NONE', #810, 1000.000000000000000 ) ;
#824 = DIRECTION ( 'NONE',  ( -0.000000000000000000, 1.000000000000000000, -0.000000000000000000 ) ) ;
#825 = CARTESIAN_POINT ( 'NONE',  ( -130.0000000000000000, 20.00000000000000000, 9.999999999999998224 ) ) ;
#826 = EDGE_CURVE ( 'NONE', #423, #14, #827, .T. ) ;
#827 = LINE ( 'NONE', #140, #754 ) ;
#828 = ORIENTED_EDGE ( 'NONE', *, *, #62, .F. ) ;
#829 = VECTOR ( 'NONE', #534, 1000.000000000000000 ) ;
#830 = DIRECTION ( 'NONE',  ( 0.000000000000000000, 0.000000000000000000, 1.000000000000000000 ) ) ;
#831 = CIRCLE ( 'NONE', #139, 20.00000000000000000 ) ;
#832 = DIRECTION ( 'NONE',  ( -1.000000000000000000, 0.000000000000000000, -0.000000000000000000 ) ) ;
#833 = MECHANICAL_CONTEXT ( 'NONE', #535, 'mechanical' ) ;
#834 = ORIENTED_EDGE ( 'NONE', *, *, #650, .F. ) ;
#835 = EDGE_CURVE ( 'NONE', #667, #110, #797, .T. ) ;
#836 = DIRECTION ( 'NONE',  ( 0.000000000000000000, 0.000000000000000000, 1.000000000000000000 ) ) ;
#837 = FACE_OUTER_BOUND ( 'NONE', #431, .T. ) ;
#838 = COORDINATED_UNIVERSAL_TIME_OFFSET ( 3, 30, .AHEAD. ) ;
#839 = ORIENTED_EDGE ( 'NONE', *, *, #509, .F. ) ;
#840 = FACE_OUTER_BOUND ( 'NONE', #39, .T. ) ;
#841 = VERTEX_POINT ( 'NONE', #284 ) ;
#842 = AXIS2_PLACEMENT_3D ( 'NONE', #407, #341, #186 ) ;
#843 = DIRECTION ( 'NONE',  ( 1.000000000000000000, -0.000000000000000000, -2.312964634635742895E-17 ) ) ;
#844 = APPROVAL_STATUS ( 'not_yet_approved' ) ;
#845 = EDGE_LOOP ( 'NONE', ( #216, #434, #51, #96 ) ) ;
#846 = DIRECTION ( 'NONE',  ( -1.000000000000000000, 0.000000000000000000, 0.000000000000000000 ) ) ;
#847 = CIRCLE ( 'NONE', #578, 60.00000000000000000 ) ;
#848 = AXIS2_PLACEMENT_3D ( 'NONE', #318, #310, #166 ) ;
#849 = CYLINDRICAL_SURFACE ( 'NONE', #409, 75.00000000000001421 ) ;
#850 = EDGE_CURVE ( 'NONE', #841, #746, #72, .T. ) ;
#851 = ORIENTED_EDGE ( 'NONE', *, *, #826, .T. ) ;
#852 = DIRECTION ( 'NONE',  ( 1.000000000000000000, 0.000000000000000000, -2.312964634635742895E-17 ) ) ;
#853 = CARTESIAN_POINT ( 'NONE',  ( 75.00000000000000000, 20.00000000000000000, -10.00000000000000178 ) ) ;
#854 = PERSON_AND_ORGANIZATION ( #538, #366 ) ;
#855 = ORIENTED_EDGE ( 'NONE', *, *, #447, .T. ) ;
#856 = DIRECTION ( 'NONE',  ( 1.000000000000000000, -0.000000000000000000, -0.000000000000000000 ) ) ;
#857 = CARTESIAN_POINT ( 'NONE',  ( 0.000000000000000000, -134.1640786499874025, 60.00000000000000000 ) ) ;
#858 = AXIS2_PLACEMENT_3D ( 'NONE', #398, #868, #117 ) ;
#859 = EDGE_LOOP ( 'NONE', ( #180, #115 ) ) ;
#860 = CARTESIAN_POINT ( 'NONE',  ( 68.73863542433761609, 20.00000000000000000, -30.00000000000000000 ) ) ;
#861 = ORIENTED_EDGE ( 'NONE', *, *, #556, .F. ) ;
#862 = CARTESIAN_POINT ( 'NONE',  ( 0.000000000000000000, 0.000000000000000000, -75.00000000000001421 ) ) ;
#863 = ORIENTED_EDGE ( 'NONE', *, *, #637, .F. ) ;
#864 = CARTESIAN_POINT ( 'NONE',  ( 75.00000000000001421, 20.00000000000000000, -40.00000000000000000 ) ) ;
#865 = VERTEX_POINT ( 'NONE', #699 ) ;
#866 = PRODUCT_RELATED_PRODUCT_CATEGORY ( 'detail', '', ( #263 ) ) ;
#867 = AXIS2_PLACEMENT_3D ( 'NONE', #764, #68, #776 ) ;
#868 = DIRECTION ( 'NONE',  ( 0.000000000000000000, 1.000000000000000000, 0.000000000000000000 ) ) ;
#869 = ORIENTED_EDGE ( 'NONE', *, *, #523, .F. ) ;
#870 = CARTESIAN_POINT ( 'NONE',  ( 75.00000000000001421, 20.00000000000000000, 30.00000000000000000 ) ) ;
#871 = CIRCLE ( 'NONE', #593, 10.00000000000000178 ) ;
#872 = VECTOR ( 'NONE', #766, 1000.000000000000000 ) ;
#873 = LINE ( 'NONE', #324, #94 ) ;
#874 = ORIENTED_EDGE ( 'NONE', *, *, #70, .T. ) ;
#875 = CARTESIAN_POINT ( 'NONE',  ( 66.17647058823530415, 20.00000000000000000, -35.29411764705883314 ) ) ;
#876 = CARTESIAN_POINT ( 'NONE',  ( 0.000000000000000000, 20.00000000000000000, -75.00000000000001421 ) ) ;
#877 = ORIENTED_EDGE ( 'NONE', *, *, #673, .F. ) ;
#878 = CARTESIAN_POINT ( 'NONE',  ( -150.0000000000000000, 20.00000000000000000, 30.00000000000000000 ) ) ;
#879 = AXIS2_PLACEMENT_3D ( 'NONE', #752, #745, #536 ) ;
#880 = AXIS2_PLACEMENT_3D ( 'NONE', #617, #683, #63 ) ;
#881 = DIRECTION ( 'NONE',  ( 0.000000000000000000, 0.000000000000000000, -1.000000000000000000 ) ) ;
#882 = ORIENTED_EDGE ( 'NONE', *, *, #317, .F. ) ;
#883 = EDGE_CURVE ( 'NONE', #291, #7, #481, .T. ) ;
#884 = ORIENTED_EDGE ( 'NONE', *, *, #227, .T. ) ;
#885 = CLOSED_SHELL ( 'NONE', ( #598, #333, #254, #264, #47, #551, #406, #57, #756, #240, #192, #104, #793, #32, #644, #478, #531, #202, #602, #751, #133, #235, #463, #679, #172 ) ) ;
#886 = VECTOR ( 'NONE', #439, 1000.000000000000000 ) ;
#887 = DIRECTION ( 'NONE',  ( -0.000000000000000000, 1.000000000000000000, -0.000000000000000000 ) ) ;
#888 = ORIENTED_EDGE ( 'NONE', *, *, #419, .T. ) ;
#889 = EDGE_CURVE ( 'NONE', #191, #33, #381, .T. ) ;
#890 = LINE ( 'NONE', #76, #343 ) ;
#891 =( LENGTH_UNIT ( ) NAMED_UNIT ( * ) SI_UNIT ( .MILLI., .METRE. ) );
#892 = ORIENTED_EDGE ( 'NONE', *, *, #708, .T. ) ;
#893 = DIRECTION ( 'NONE',  ( -0.000000000000000000, 1.000000000000000000, -0.000000000000000000 ) ) ;
#894 = EDGE_CURVE ( 'NONE', #865, #73, #497, .T. ) ;
ENDSEC;
END-ISO-10303-21;
