ISO-10303-21;
HEADER;
FILE_DESCRIPTION (( 'STEP AP203' ),
    '1' );
FILE_NAME ('Link1Body_Default_sldprt.STEP',
    '2026-07-23T12:34:47',
    ( '' ),
    ( '' ),
    'SwSTEP 2.0',
    'SolidWorks 2025',
    '' );
FILE_SCHEMA (( 'CONFIG_CONTROL_DESIGN' ));
ENDSEC;

DATA;
#1 = ORIENTED_EDGE ( 'NONE', *, *, #518, .T. ) ;
#2 = FACE_OUTER_BOUND ( 'NONE', #890, .T. ) ;
#3 = VECTOR ( 'NONE', #144, 1000.000000000000000 ) ;
#4 = DIRECTION ( 'NONE',  ( -0.000000000000000000, -0.000000000000000000, 1.000000000000000000 ) ) ;
#5 = AXIS2_PLACEMENT_3D ( 'NONE', #362, #260, #61 ) ;
#6 = AXIS2_PLACEMENT_3D ( 'NONE', #1191, #793, #406 ) ;
#7 = AXIS2_PLACEMENT_3D ( 'NONE', #1227, #847, #819 ) ;
#8 = DIRECTION ( 'NONE',  ( 0.000000000000000000, 0.000000000000000000, -1.000000000000000000 ) ) ;
#9 = LINE ( 'NONE', #1124, #110 ) ;
#10 = ORIENTED_EDGE ( 'NONE', *, *, #130, .F. ) ;
#11 = DIRECTION ( 'NONE',  ( -1.000000000000000000, -2.168404344971008868E-16, -0.000000000000000000 ) ) ;
#12 = FACE_OUTER_BOUND ( 'NONE', #1274, .T. ) ;
#13 = DIRECTION ( 'NONE',  ( 1.000000000000000000, 0.000000000000000000, 0.000000000000000000 ) ) ;
#14 = EDGE_CURVE ( 'NONE', #56, #653, #1183, .T. ) ;
#15 = VERTEX_POINT ( 'NONE', #483 ) ;
#16 = CYLINDRICAL_SURFACE ( 'NONE', #665, 7.500000000000000888 ) ;
#17 = PLANE ( 'NONE',  #436 ) ;
#18 = FACE_BOUND ( 'NONE', #756, .T. ) ;
#19 = DIRECTION ( 'NONE',  ( 0.000000000000000000, 0.000000000000000000, 1.000000000000000000 ) ) ;
#20 = ORIENTED_EDGE ( 'NONE', *, *, #746, .T. ) ;
#21 = LINE ( 'NONE', #214, #1061 ) ;
#22 = EDGE_CURVE ( 'NONE', #780, #1173, #1037, .T. ) ;
#23 = ORIENTED_EDGE ( 'NONE', *, *, #188, .F. ) ;
#24 = CARTESIAN_POINT ( 'NONE',  ( 2.000000000000000000, -7.228416147400480440, -15.52417469626002777 ) ) ;
#25 = AXIS2_PLACEMENT_3D ( 'NONE', #1189, #791, #669 ) ;
#26 = CIRCLE ( 'NONE', #536, 81.25000000000008527 ) ;
#27 = DIRECTION ( 'NONE',  ( 1.000000000000000000, 0.000000000000000000, 0.000000000000000000 ) ) ;
#28 = DIRECTION ( 'NONE',  ( 1.000000000000000000, 0.000000000000000000, 0.000000000000000000 ) ) ;
#29 = AXIS2_PLACEMENT_3D ( 'NONE', #897, #988, #1282 ) ;
#30 = VERTEX_POINT ( 'NONE', #280 ) ;
#31 = EDGE_CURVE ( 'NONE', #1295, #527, #1016, .T. ) ;
#32 = LINE ( 'NONE', #435, #811 ) ;
#33 = EDGE_CURVE ( 'NONE', #247, #1103, #1057, .T. ) ;
#34 = CARTESIAN_POINT ( 'NONE',  ( 50.00000000000000000, -93.75000000000008527, 0.000000000000000000 ) ) ;
#35 = DIRECTION ( 'NONE',  ( 0.000000000000000000, 0.000000000000000000, -1.000000000000000000 ) ) ;
#36 = ORIENTED_EDGE ( 'NONE', *, *, #242, .T. ) ;
#37 = VERTEX_POINT ( 'NONE', #390 ) ;
#38 = LINE ( 'NONE', #994, #306 ) ;
#39 = EDGE_CURVE ( 'NONE', #993, #452, #1280, .T. ) ;
#40 = PERSON_AND_ORGANIZATION_ROLE ( 'creator' ) ;
#41 = DIRECTION ( 'NONE',  ( 0.000000000000000000, 1.000000000000000000, 0.000000000000000000 ) ) ;
#42 = ORIENTED_EDGE ( 'NONE', *, *, #898, .F. ) ;
#43 = VERTEX_POINT ( 'NONE', #122 ) ;
#44 = CARTESIAN_POINT ( 'NONE',  ( 50.00000000000000000, -93.75000000000008527, 20.00000000000000000 ) ) ;
#45 = AXIS2_PLACEMENT_3D ( 'NONE', #206, #608, #1019 ) ;
#46 = DATE_TIME_ROLE ( 'creation_date' ) ;
#47 = CARTESIAN_POINT ( 'NONE',  ( 1.999999999999998668, -7.228416147400480440, 210.0000000000000284 ) ) ;
#48 = EDGE_CURVE ( 'NONE', #104, #451, #300, .T. ) ;
#49 = VECTOR ( 'NONE', #1192, 1000.000000000000000 ) ;
#50 = VECTOR ( 'NONE', #882, 1000.000000000000000 ) ;
#51 = VERTEX_POINT ( 'NONE', #201 ) ;
#52 = VERTEX_POINT ( 'NONE', #832 ) ;
#53 = DIRECTION ( 'NONE',  ( -0.000000000000000000, -0.000000000000000000, 1.000000000000000000 ) ) ;
#54 = PERSON_AND_ORGANIZATION_ROLE ( 'classification_officer' ) ;
#55 = CARTESIAN_POINT ( 'NONE',  ( 90.00000000000000000, 12.49999999999999822, 0.000000000000000000 ) ) ;
#56 = VERTEX_POINT ( 'NONE', #310 ) ;
#57 = ADVANCED_FACE ( 'NONE', ( #703 ), #907, .F. ) ;
#58 = VERTEX_POINT ( 'NONE', #901 ) ;
#59 = DIRECTION ( 'NONE',  ( -0.000000000000000000, -0.000000000000000000, 1.000000000000000000 ) ) ;
#60 = DATE_AND_TIME ( #651, #344 ) ;
#61 = DIRECTION ( 'NONE',  ( 1.000000000000000000, 0.000000000000000000, 0.000000000000000000 ) ) ;
#62 = VERTEX_POINT ( 'NONE', #602 ) ;
#63 = ORIENTED_EDGE ( 'NONE', *, *, #1146, .T. ) ;
#64 = DIRECTION ( 'NONE',  ( 0.000000000000000000, 0.000000000000000000, -1.000000000000000000 ) ) ;
#65 = ADVANCED_FACE ( 'NONE', ( #1093 ), #826, .F. ) ;
#66 = DIRECTION ( 'NONE',  ( 1.000000000000000000, 0.000000000000000000, 0.000000000000000000 ) ) ;
#67 = CARTESIAN_POINT ( 'NONE',  ( -2.000000000000000000, 7.228416147400480440, -15.52417469626002777 ) ) ;
#68 = AXIS2_PLACEMENT_3D ( 'NONE', #1135, #232, #935 ) ;
#69 = ORIENTED_EDGE ( 'NONE', *, *, #370, .T. ) ;
#70 = VECTOR ( 'NONE', #517, 1000.000000000000000 ) ;
#71 = VECTOR ( 'NONE', #1014, 1000.000000000000000 ) ;
#72 = ORIENTED_EDGE ( 'NONE', *, *, #630, .T. ) ;
#73 = DIRECTION ( 'NONE',  ( 0.000000000000000000, 0.000000000000000000, -1.000000000000000000 ) ) ;
#74 = VECTOR ( 'NONE', #671, 1000.000000000000000 ) ;
#75 = FACE_OUTER_BOUND ( 'NONE', #633, .T. ) ;
#76 = VERTEX_POINT ( 'NONE', #101 ) ;
#77 = ORIENTED_EDGE ( 'NONE', *, *, #33, .F. ) ;
#78 = DIRECTION ( 'NONE',  ( 0.000000000000000000, 0.000000000000000000, 1.000000000000000000 ) ) ;
#79 = EDGE_CURVE ( 'NONE', #51, #52, #88, .T. ) ;
#80 = DIRECTION ( 'NONE',  ( -0.000000000000000000, -0.000000000000000000, 1.000000000000000000 ) ) ;
#81 = ORIENTED_EDGE ( 'NONE', *, *, #89, .T. ) ;
#82 = ORIENTED_EDGE ( 'NONE', *, *, #638, .T. ) ;
#83 = CARTESIAN_POINT ( 'NONE',  ( 2.000000000000000000, 7.228416147400480440, 230.0000000000000000 ) ) ;
#84 = LINE ( 'NONE', #989, #706 ) ;
#85 = ADVANCED_FACE ( 'NONE', ( #1204 ), #1102, .F. ) ;
#86 = VERTEX_POINT ( 'NONE', #1299 ) ;
#87 = CC_DESIGN_SECURITY_CLASSIFICATION ( #808, ( #1239 ) ) ;
#88 = CIRCLE ( 'NONE', #454, 7.500000000000000888 ) ;
#89 = EDGE_CURVE ( 'NONE', #653, #544, #410, .T. ) ;
#90 = ORIENTED_EDGE ( 'NONE', *, *, #642, .T. ) ;
#91 = CARTESIAN_POINT ( 'NONE',  ( 49.99999999999999289, -12.50000000000000711, 0.000000000000000000 ) ) ;
#92 = AXIS2_PLACEMENT_3D ( 'NONE', #1291, #396, #307 ) ;
#93 = DIRECTION ( 'NONE',  ( -1.000000000000000000, 2.168404344971008868E-16, 0.000000000000000000 ) ) ;
#94 = CARTESIAN_POINT ( 'NONE',  ( 70.00000000000000000, 0.000000000000000000, 20.00000000000000000 ) ) ;
#95 = CARTESIAN_POINT ( 'NONE',  ( 0.000000000000000000, 0.000000000000000000, 20.00000000000000000 ) ) ;
#96 = ORIENTED_EDGE ( 'NONE', *, *, #732, .F. ) ;
#97 = CARTESIAN_POINT ( 'NONE',  ( 5.000000000000000000, 0.000000000000000000, 244.1421356237309794 ) ) ;
#98 = EDGE_CURVE ( 'NONE', #502, #413, #1121, .T. ) ;
#99 = DIRECTION ( 'NONE',  ( 1.000000000000000000, 0.000000000000000000, 0.000000000000000000 ) ) ;
#100 = LINE ( 'NONE', #797, #1078 ) ;
#101 = CARTESIAN_POINT ( 'NONE',  ( 2.000000000000000000, 7.228416147400480440, 210.0000000000000284 ) ) ;
#102 = ORIENTED_EDGE ( 'NONE', *, *, #1186, .F. ) ;
#103 = CARTESIAN_POINT ( 'NONE',  ( -2.000000000000000000, 7.228416147400480440, 0.000000000000000000 ) ) ;
#104 = VERTEX_POINT ( 'NONE', #501 ) ;
#105 = EDGE_CURVE ( 'NONE', #697, #263, #718, .T. ) ;
#106 = CARTESIAN_POINT ( 'NONE',  ( 80.00000000000000000, 1.224646799147352665E-15, 20.00000000000000000 ) ) ;
#107 = DIRECTION ( 'NONE',  ( -1.000000000000000000, -0.000000000000000000, -0.000000000000000000 ) ) ;
#108 = ORIENTED_EDGE ( 'NONE', *, *, #1077, .F. ) ;
#109 = DIRECTION ( 'NONE',  ( 0.000000000000000000, 0.000000000000000000, -1.000000000000000000 ) ) ;
#110 = VECTOR ( 'NONE', #418, 1000.000000000000000 ) ;
#111 = LINE ( 'NONE', #621, #956 ) ;
#112 = AXIS2_PLACEMENT_3D ( 'NONE', #1156, #777, #1246 ) ;
#113 = AXIS2_PLACEMENT_3D ( 'NONE', #589, #295, #687 ) ;
#114 = EDGE_CURVE ( 'NONE', #1033, #779, #975, .T. ) ;
#115 = DIRECTION ( 'NONE',  ( 1.000000000000000000, 0.000000000000000000, 0.000000000000000000 ) ) ;
#116 = CARTESIAN_POINT ( 'NONE',  ( 2.000000000000000000, -4.582575694955840717, 230.0000000000000000 ) ) ;
#117 = EDGE_LOOP ( 'NONE', ( #439, #358, #632, #1176 ) ) ;
#118 = DIRECTION ( 'NONE',  ( 1.000000000000000000, 0.000000000000000000, -0.000000000000000000 ) ) ;
#119 = ORIENTED_EDGE ( 'NONE', *, *, #547, .T. ) ;
#120 = DIRECTION ( 'NONE',  ( -0.000000000000000000, -0.000000000000000000, 1.000000000000000000 ) ) ;
#121 = DIRECTION ( 'NONE',  ( -0.000000000000000000, -0.000000000000000000, -1.000000000000000000 ) ) ;
#122 = CARTESIAN_POINT ( 'NONE',  ( 49.99999999999999289, -12.50000000000000711, 20.00000000000000000 ) ) ;
#123 = ORIENTED_EDGE ( 'NONE', *, *, #1010, .F. ) ;
#124 = DIRECTION ( 'NONE',  ( 0.000000000000000000, 0.000000000000000000, 1.000000000000000000 ) ) ;
#125 = DIRECTION ( 'NONE',  ( 1.000000000000000000, 0.000000000000000000, 0.000000000000000000 ) ) ;
#126 = FACE_OUTER_BOUND ( 'NONE', #747, .T. ) ;
#127 = DIRECTION ( 'NONE',  ( 1.000000000000000000, 0.000000000000000000, 0.000000000000000000 ) ) ;
#128 = EDGE_CURVE ( 'NONE', #1081, #881, #726, .T. ) ;
#129 = EDGE_LOOP ( 'NONE', ( #713, #440, #1064, #10, #405, #690, #850, #351, #272 ) ) ;
#130 = EDGE_CURVE ( 'NONE', #332, #146, #9, .T. ) ;
#131 = VERTEX_POINT ( 'NONE', #116 ) ;
#132 = ORGANIZATION ( 'UNSPECIFIED', 'UNSPECIFIED', '' ) ;
#133 = LINE ( 'NONE', #429, #1098 ) ;
#134 = AXIS2_PLACEMENT_3D ( 'NONE', #315, #933, #717 ) ;
#135 = AXIS2_PLACEMENT_3D ( 'NONE', #1108, #293, #1195 ) ;
#136 = CIRCLE ( 'NONE', #1221, 12.49999999999999645 ) ;
#137 = FACE_OUTER_BOUND ( 'NONE', #287, .T. ) ;
#138 = DIRECTION ( 'NONE',  ( -1.000000000000000000, 2.168404344971008868E-16, 0.000000000000000000 ) ) ;
#139 = VECTOR ( 'NONE', #999, 1000.000000000000000 ) ;
#140 = ORIENTED_EDGE ( 'NONE', *, *, #1275, .T. ) ;
#141 = ORIENTED_EDGE ( 'NONE', *, *, #518, .F. ) ;
#142 = DIRECTION ( 'NONE',  ( 0.000000000000000000, 0.000000000000000000, -1.000000000000000000 ) ) ;
#143 = ADVANCED_FACE ( 'NONE', ( #316 ), #222, .T. ) ;
#144 = DIRECTION ( 'NONE',  ( 1.000000000000000000, 2.168404344971008868E-16, -0.000000000000000000 ) ) ;
#145 = EDGE_LOOP ( 'NONE', ( #849, #741, #836, #179 ) ) ;
#146 = VERTEX_POINT ( 'NONE', #1114 ) ;
#147 = CARTESIAN_POINT ( 'NONE',  ( 0.000000000000000000, 0.000000000000000000, 230.0000000000000000 ) ) ;
#148 = EDGE_CURVE ( 'NONE', #1069, #451, #155, .T. ) ;
#149 = CALENDAR_DATE ( 2026, 23, 7 ) ;
#150 = LINE ( 'NONE', #55, #175 ) ;
#151 = ORIENTED_EDGE ( 'NONE', *, *, #401, .T. ) ;
#152 = ORIENTED_EDGE ( 'NONE', *, *, #171, .T. ) ;
#153 = CYLINDRICAL_SURFACE ( 'NONE', #327, 7.500000000000000888 ) ;
#154 = LOCAL_TIME ( 16, 4, 47.00000000000000000, #1158 ) ;
#155 = CIRCLE ( 'NONE', #534, 12.49999999999999645 ) ;
#156 = PERSON_AND_ORGANIZATION ( #658, #132 ) ;
#157 = DIRECTION ( 'NONE',  ( -0.000000000000000000, -0.000000000000000000, -1.000000000000000000 ) ) ;
#158 = VECTOR ( 'NONE', #53, 1000.000000000000000 ) ;
#159 = EDGE_CURVE ( 'NONE', #1178, #161, #424, .T. ) ;
#160 = AXIS2_PLACEMENT_3D ( 'NONE', #729, #208, #618 ) ;
#161 = VERTEX_POINT ( 'NONE', #927 ) ;
#162 = ORIENTED_EDGE ( 'NONE', *, *, #1101, .F. ) ;
#163 = CARTESIAN_POINT ( 'NONE',  ( 90.00000000000000000, 0.000000000000000000, 210.0000000000000284 ) ) ;
#164 = SHAPE_DEFINITION_REPRESENTATION ( #1126, #834 ) ;
#165 = CARTESIAN_POINT ( 'NONE',  ( -2.000000000000000000, 7.228416147400480440, 20.00000000000000000 ) ) ;
#166 = EDGE_LOOP ( 'NONE', ( #902, #510, #578, #1117 ) ) ;
#167 = ORIENTED_EDGE ( 'NONE', *, *, #105, .F. ) ;
#168 = DIRECTION ( 'NONE',  ( -0.000000000000000000, -0.000000000000000000, -1.000000000000000000 ) ) ;
#169 = FACE_OUTER_BOUND ( 'NONE', #479, .T. ) ;
#170 = DIRECTION ( 'NONE',  ( -0.000000000000000000, -0.000000000000000000, 1.000000000000000000 ) ) ;
#171 = EDGE_CURVE ( 'NONE', #303, #248, #302, .T. ) ;
#172 = EDGE_LOOP ( 'NONE', ( #464, #1172, #982, #873, #874, #1237, #102, #948, #1138 ) ) ;
#173 = DIRECTION ( 'NONE',  ( -1.000000000000000000, 0.000000000000000000, -0.000000000000000000 ) ) ;
#174 = ADVANCED_FACE ( 'NONE', ( #557 ), #1222, .F. ) ;
#175 = VECTOR ( 'NONE', #252, 1000.000000000000000 ) ;
#176 = ORIENTED_EDGE ( 'NONE', *, *, #1193, .T. ) ;
#177 = CIRCLE ( 'NONE', #346, 5.000000000000000000 ) ;
#178 = VECTOR ( 'NONE', #168, 1000.000000000000000 ) ;
#179 = ORIENTED_EDGE ( 'NONE', *, *, #705, .T. ) ;
#180 = LINE ( 'NONE', #97, #282 ) ;
#181 = CIRCLE ( 'NONE', #979, 9.999999999999994671 ) ;
#182 = EDGE_CURVE ( 'NONE', #451, #303, #150, .T. ) ;
#183 = CARTESIAN_POINT ( 'NONE',  ( 11.76470588235294024, -22.05882352941176450, 230.0000000000000000 ) ) ;
#184 = DIRECTION ( 'NONE',  ( 1.000000000000000000, 0.000000000000000000, 0.000000000000000000 ) ) ;
#185 = ORIENTED_EDGE ( 'NONE', *, *, #79, .T. ) ;
#186 = FACE_OUTER_BOUND ( 'NONE', #816, .T. ) ;
#187 = EDGE_CURVE ( 'NONE', #1007, #37, #911, .T. ) ;
#188 = EDGE_CURVE ( 'NONE', #1094, #679, #744, .T. ) ;
#189 = DIRECTION ( 'NONE',  ( -0.000000000000000000, -0.000000000000000000, -1.000000000000000000 ) ) ;
#190 = EDGE_LOOP ( 'NONE', ( #639, #336 ) ) ;
#191 = ORIENTED_EDGE ( 'NONE', *, *, #630, .F. ) ;
#192 = LINE ( 'NONE', #1104, #959 ) ;
#193 = LINE ( 'NONE', #872, #664 ) ;
#194 = CARTESIAN_POINT ( 'NONE',  ( 50.00000000000000000, -93.75000000000008527, 230.0000000000000000 ) ) ;
#195 = CARTESIAN_POINT ( 'NONE',  ( 2.000000000000000000, -7.228416147400480440, -15.52417469626002777 ) ) ;
#196 = ORIENTED_EDGE ( 'NONE', *, *, #912, .T. ) ;
#197 = DIRECTION ( 'NONE',  ( -0.000000000000000000, -1.000000000000000000, 0.000000000000000000 ) ) ;
#198 = AXIS2_PLACEMENT_3D ( 'NONE', #1015, #1231, #722 ) ;
#199 = DIRECTION ( 'NONE',  ( -0.000000000000000000, -0.000000000000000000, 1.000000000000000000 ) ) ;
#200 = CYLINDRICAL_SURFACE ( 'NONE', #1223, 25.00000000000000000 ) ;
#201 = CARTESIAN_POINT ( 'NONE',  ( 2.000000000000000000, 7.228416147400480440, 20.00000000000000000 ) ) ;
#202 = EDGE_CURVE ( 'NONE', #857, #1069, #228, .T. ) ;
#203 = EDGE_LOOP ( 'NONE', ( #191, #1256, #466, #720 ) ) ;
#204 = LINE ( 'NONE', #923, #814 ) ;
#205 = CARTESIAN_POINT ( 'NONE',  ( -2.000000000000000000, 7.228416147400480440, 230.0000000000000000 ) ) ;
#206 = CARTESIAN_POINT ( 'NONE',  ( 0.000000000000000000, 0.000000000000000000, 230.0000000000000000 ) ) ;
#207 = ORIENTED_EDGE ( 'NONE', *, *, #257, .T. ) ;
#208 = DIRECTION ( 'NONE',  ( -0.000000000000000000, -0.000000000000000000, 1.000000000000000000 ) ) ;
#209 = FACE_OUTER_BOUND ( 'NONE', #1257, .T. ) ;
#210 = EDGE_CURVE ( 'NONE', #924, #697, #301, .T. ) ;
#211 = FACE_OUTER_BOUND ( 'NONE', #1041, .T. ) ;
#212 = CARTESIAN_POINT ( 'NONE',  ( 90.00000000000000000, 12.49999999999999822, 20.00000000000000000 ) ) ;
#213 = EDGE_LOOP ( 'NONE', ( #1276, #384, #942, #1002 ) ) ;
#214 = CARTESIAN_POINT ( 'NONE',  ( 2.000000000000000000, -7.228416147400480440, 210.0000000000000284 ) ) ;
#215 = CIRCLE ( 'NONE', #768, 81.25000000000008527 ) ;
#216 = AXIS2_PLACEMENT_3D ( 'NONE', #624, #820, #1209 ) ;
#217 = ORIENTED_EDGE ( 'NONE', *, *, #1220, .T. ) ;
#218 = CARTESIAN_POINT ( 'NONE',  ( 90.00000000000000000, -12.49999999999999822, 230.0000000000000000 ) ) ;
#219 = VECTOR ( 'NONE', #590, 1000.000000000000000 ) ;
#220 = VECTOR ( 'NONE', #1071, 1000.000000000000000 ) ;
#221 = DIRECTION ( 'NONE',  ( -0.000000000000000000, -0.000000000000000000, -1.000000000000000000 ) ) ;
#222 = CYLINDRICAL_SURFACE ( 'NONE', #216, 25.00000000000000000 ) ;
#223 = EDGE_LOOP ( 'NONE', ( #162, #96, #36, #1249 ) ) ;
#224 = DIRECTION ( 'NONE',  ( 0.000000000000000000, -1.000000000000000000, -0.000000000000000000 ) ) ;
#225 = PLANE ( 'NONE',  #704 ) ;
#226 = ADVANCED_FACE ( 'NONE', ( #1241, #538 ), #549, .F. ) ;
#227 = CYLINDRICAL_SURFACE ( 'NONE', #299, 9.999999999999994671 ) ;
#228 = LINE ( 'NONE', #861, #3 ) ;
#229 = ORIENTED_EDGE ( 'NONE', *, *, #395, .T. ) ;
#230 = CARTESIAN_POINT ( 'NONE',  ( 11.76470588235294024, -22.05882352941176450, 20.00000000000000000 ) ) ;
#231 =( LENGTH_UNIT ( ) NAMED_UNIT ( * ) SI_UNIT ( .MILLI., .METRE. ) );
#232 = DIRECTION ( 'NONE',  ( 0.000000000000000000, 0.000000000000000000, 1.000000000000000000 ) ) ;
#233 = ORIENTED_EDGE ( 'NONE', *, *, #688, .T. ) ;
#234 = ORIENTED_EDGE ( 'NONE', *, *, #931, .T. ) ;
#235 = DIRECTION ( 'NONE',  ( 1.000000000000000000, -0.000000000000000000, 0.000000000000000000 ) ) ;
#236 = AXIS2_PLACEMENT_3D ( 'NONE', #889, #783, #493 ) ;
#237 = CIRCLE ( 'NONE', #281, 25.00000000000000000 ) ;
#238 = AXIS2_PLACEMENT_3D ( 'NONE', #887, #575, #1080 ) ;
#239 = DIRECTION ( 'NONE',  ( 1.000000000000000000, 0.000000000000000000, 0.000000000000000000 ) ) ;
#240 = AXIS2_PLACEMENT_3D ( 'NONE', #320, #121, #733 ) ;
#241 = EDGE_LOOP ( 'NONE', ( #967, #707, #363, #1115 ) ) ;
#242 = EDGE_CURVE ( 'NONE', #583, #56, #1074, .T. ) ;
#243 = VERTEX_POINT ( 'NONE', #438 ) ;
#244 = DIRECTION ( 'NONE',  ( 1.000000000000000000, 0.000000000000000000, 0.000000000000000000 ) ) ;
#245 = DATE_AND_TIME ( #369, #154 ) ;
#246 = CARTESIAN_POINT ( 'NONE',  ( 0.000000000000000000, 0.000000000000000000, -14.14213562373095279 ) ) ;
#247 = VERTEX_POINT ( 'NONE', #636 ) ;
#248 = VERTEX_POINT ( 'NONE', #444 ) ;
#249 = DIRECTION ( 'NONE',  ( -0.000000000000000000, -0.000000000000000000, 1.000000000000000000 ) ) ;
#250 = EDGE_CURVE ( 'NONE', #617, #243, #833, .T. ) ;
#251 = PERSON_AND_ORGANIZATION_ROLE ( 'design_owner' ) ;
#252 = DIRECTION ( 'NONE',  ( -1.000000000000000000, 2.168404344971008868E-16, 0.000000000000000000 ) ) ;
#253 = ORIENTED_EDGE ( 'NONE', *, *, #450, .T. ) ;
#254 = VERTEX_POINT ( 'NONE', #1142 ) ;
#255 = CARTESIAN_POINT ( 'NONE',  ( 0.000000000000000000, 0.000000000000000000, -15.52417469626002777 ) ) ;
#256 = CC_DESIGN_APPROVAL ( #309, ( #1239 ) ) ;
#257 = EDGE_CURVE ( 'NONE', #527, #583, #258, .T. ) ;
#258 = CIRCLE ( 'NONE', #434, 25.00000000000000000 ) ;
#259 = APPROVAL_DATE_TIME ( #866, #1219 ) ;
#260 = DIRECTION ( 'NONE',  ( 0.000000000000000000, 0.000000000000000000, -1.000000000000000000 ) ) ;
#261 = AXIS2_PLACEMENT_3D ( 'NONE', #475, #505, #568 ) ;
#262 = CIRCLE ( 'NONE', #730, 7.500000000000000888 ) ;
#263 = VERTEX_POINT ( 'NONE', #1131 ) ;
#264 = ORIENTED_EDGE ( 'NONE', *, *, #22, .F. ) ;
#265 = CARTESIAN_POINT ( 'NONE',  ( -2.000000000000000000, -4.582575694955840717, -14.14213562373095279 ) ) ;
#266 = COORDINATED_UNIVERSAL_TIME_OFFSET ( 3, 30, .AHEAD. ) ;
#267 = DIRECTION ( 'NONE',  ( -2.168404344971008868E-16, -1.000000000000000000, 0.000000000000000000 ) ) ;
#268 = EDGE_CURVE ( 'NONE', #779, #884, #961, .T. ) ;
#269 = APPLICATION_CONTEXT ( 'configuration controlled 3d designs of mechanical parts and assemblies' ) ;
#270 = ORIENTED_EDGE ( 'NONE', *, *, #114, .T. ) ;
#271 = ADVANCED_FACE ( 'NONE', ( #738 ), #753, .T. ) ;
#272 = ORIENTED_EDGE ( 'NONE', *, *, #79, .F. ) ;
#273 = DIRECTION ( 'NONE',  ( -0.000000000000000000, -0.000000000000000000, 1.000000000000000000 ) ) ;
#274 = EDGE_LOOP ( 'NONE', ( #908, #1230, #598, #754 ) ) ;
#275 = EDGE_CURVE ( 'NONE', #545, #1033, #947, .T. ) ;
#276 = EDGE_LOOP ( 'NONE', ( #648, #885, #1205, #949 ) ) ;
#277 = DIRECTION ( 'NONE',  ( -0.000000000000000000, -0.000000000000000000, 1.000000000000000000 ) ) ;
#278 = AXIS2_PLACEMENT_3D ( 'NONE', #594, #107, #1006 ) ;
#279 = DIRECTION ( 'NONE',  ( 0.000000000000000000, 0.000000000000000000, -1.000000000000000000 ) ) ;
#280 = CARTESIAN_POINT ( 'NONE',  ( 5.000000000000000000, 0.000000000000000000, 230.0000000000000000 ) ) ;
#281 = AXIS2_PLACEMENT_3D ( 'NONE', #662, #273, #244 ) ;
#282 = VECTOR ( 'NONE', #1272, 1000.000000000000000 ) ;
#283 = ORIENTED_EDGE ( 'NONE', *, *, #360, .T. ) ;
#284 = CARTESIAN_POINT ( 'NONE',  ( 80.00000000000000000, 1.224646799147352665E-15, 210.0000000000000284 ) ) ;
#285 = EDGE_CURVE ( 'NONE', #1056, #1081, #640, .T. ) ;
#286 = CARTESIAN_POINT ( 'NONE',  ( 0.000000000000000000, 0.000000000000000000, 210.0000000000000284 ) ) ;
#287 = EDGE_LOOP ( 'NONE', ( #760, #1127, #1066, #1167, #23, #1279, #822 ) ) ;
#288 = ORIENTED_EDGE ( 'NONE', *, *, #853, .T. ) ;
#289 = DIRECTION ( 'NONE',  ( -0.000000000000000000, -0.000000000000000000, -1.000000000000000000 ) ) ;
#290 = LINE ( 'NONE', #600, #616 ) ;
#291 = EDGE_CURVE ( 'NONE', #1082, #332, #449, .T. ) ;
#292 = LINE ( 'NONE', #790, #516 ) ;
#293 = DIRECTION ( 'NONE',  ( 0.000000000000000000, 0.000000000000000000, 1.000000000000000000 ) ) ;
#294 = ORIENTED_EDGE ( 'NONE', *, *, #14, .F. ) ;
#295 = DIRECTION ( 'NONE',  ( -0.000000000000000000, -0.000000000000000000, -1.000000000000000000 ) ) ;
#296 = DIRECTION ( 'NONE',  ( -0.000000000000000000, 0.000000000000000000, 1.000000000000000000 ) ) ;
#297 = APPROVAL ( #758, 'UNSPECIFIED' ) ;
#298 = DIRECTION ( 'NONE',  ( -0.000000000000000000, -0.000000000000000000, 1.000000000000000000 ) ) ;
#299 = AXIS2_PLACEMENT_3D ( 'NONE', #743, #221, #1025 ) ;
#300 = LINE ( 'NONE', #212, #615 ) ;
#301 = CIRCLE ( 'NONE', #411, 5.000000000000000000 ) ;
#302 = CIRCLE ( 'NONE', #893, 81.25000000000009948 ) ;
#303 = VERTEX_POINT ( 'NONE', #1149 ) ;
#304 = LINE ( 'NONE', #480, #50 ) ;
#305 = AXIS2_PLACEMENT_3D ( 'NONE', #147, #1266, #354 ) ;
#306 = VECTOR ( 'NONE', #485, 1000.000000000000000 ) ;
#307 = DIRECTION ( 'NONE',  ( 1.000000000000000000, 0.000000000000000000, 0.000000000000000000 ) ) ;
#308 = DIRECTION ( 'NONE',  ( 0.000000000000000000, 0.000000000000000000, -1.000000000000000000 ) ) ;
#309 = APPROVAL ( #1247, 'UNSPECIFIED' ) ;
#310 = CARTESIAN_POINT ( 'NONE',  ( 49.99999999999999289, -12.50000000000000711, 210.0000000000000284 ) ) ;
#311 = ORIENTED_EDGE ( 'NONE', *, *, #31, .T. ) ;
#312 = CARTESIAN_POINT ( 'NONE',  ( 60.00000000000001421, 0.000000000000000000, 20.00000000000000000 ) ) ;
#313 = ORIENTED_EDGE ( 'NONE', *, *, #656, .T. ) ;
#314 = DIRECTION ( 'NONE',  ( -0.000000000000000000, -0.000000000000000000, 1.000000000000000000 ) ) ;
#315 = CARTESIAN_POINT ( 'NONE',  ( 50.00000000000001421, 93.75000000000009948, 20.00000000000000000 ) ) ;
#316 = FACE_OUTER_BOUND ( 'NONE', #166, .T. ) ;
#317 = VERTEX_POINT ( 'NONE', #1049 ) ;
#318 = CARTESIAN_POINT ( 'NONE',  ( -1.999999999999999556, 4.582575694955840717, 210.0000000000000284 ) ) ;
#319 = DIRECTION ( 'NONE',  ( -2.168404344971008868E-16, -1.000000000000000000, 0.000000000000000000 ) ) ;
#320 = CARTESIAN_POINT ( 'NONE',  ( 0.000000000000000000, 0.000000000000000000, 0.000000000000000000 ) ) ;
#321 = CARTESIAN_POINT ( 'NONE',  ( -2.000000000000000000, -4.582575694955840717, 244.1421356237309794 ) ) ;
#322 = VERTEX_POINT ( 'NONE', #47 ) ;
#323 = CARTESIAN_POINT ( 'NONE',  ( -2.000000000000000000, 7.228416147400480440, 230.0000000000000000 ) ) ;
#324 =( GEOMETRIC_REPRESENTATION_CONTEXT ( 3 ) GLOBAL_UNCERTAINTY_ASSIGNED_CONTEXT ( ( #772 ) ) GLOBAL_UNIT_ASSIGNED_CONTEXT ( ( #231, #825, #623 ) ) REPRESENTATION_CONTEXT ( 'NONE', 'WORKASPACE' ) );
#325 = EDGE_CURVE ( 'NONE', #1007, #617, #1248, .T. ) ;
#326 = DIRECTION ( 'NONE',  ( 1.000000000000000000, 0.000000000000000000, 0.000000000000000000 ) ) ;
#327 = AXIS2_PLACEMENT_3D ( 'NONE', #255, #546, #467 ) ;
#328 = VECTOR ( 'NONE', #883, 1000.000000000000000 ) ;
#329 = EDGE_CURVE ( 'NONE', #1013, #62, #771, .T. ) ;
#330 = CARTESIAN_POINT ( 'NONE',  ( 49.99999999999999289, -12.50000000000000711, 20.00000000000000000 ) ) ;
#331 = DIRECTION ( 'NONE',  ( -0.000000000000000000, -0.000000000000000000, 1.000000000000000000 ) ) ;
#332 = VERTEX_POINT ( 'NONE', #774 ) ;
#333 = DIRECTION ( 'NONE',  ( 1.000000000000000000, 0.000000000000000000, 0.000000000000000000 ) ) ;
#334 = CYLINDRICAL_SURFACE ( 'NONE', #788, 9.999999999999994671 ) ;
#335 = DIRECTION ( 'NONE',  ( 1.000000000000000000, 0.000000000000000000, 0.000000000000000000 ) ) ;
#336 = ORIENTED_EDGE ( 'NONE', *, *, #1166, .F. ) ;
#337 = ORIENTED_EDGE ( 'NONE', *, *, #921, .F. ) ;
#338 = DIRECTION ( 'NONE',  ( -1.000000000000000000, 0.000000000000000000, 0.000000000000000000 ) ) ;
#339 = DIRECTION ( 'NONE',  ( 1.000000000000000000, 0.000000000000000000, 0.000000000000000000 ) ) ;
#340 = DIRECTION ( 'NONE',  ( -0.000000000000000000, -0.000000000000000000, 1.000000000000000000 ) ) ;
#341 = EDGE_CURVE ( 'NONE', #1271, #1056, #193, .T. ) ;
#342 = EDGE_LOOP ( 'NONE', ( #379, #609, #937, #805 ) ) ;
#343 = ORIENTED_EDGE ( 'NONE', *, *, #1268, .F. ) ;
#344 = LOCAL_TIME ( 16, 4, 47.00000000000000000, #972 ) ;
#345 = FACE_OUTER_BOUND ( 'NONE', #1162, .T. ) ;
#346 = AXIS2_PLACEMENT_3D ( 'NONE', #716, #1023, #416 ) ;
#347 = VECTOR ( 'NONE', #891, 1000.000000000000000 ) ;
#348 = MECHANICAL_CONTEXT ( 'NONE', #269, 'mechanical' ) ;
#349 = DIRECTION ( 'NONE',  ( -0.000000000000000000, -0.000000000000000000, 1.000000000000000000 ) ) ;
#350 = CIRCLE ( 'NONE', #1079, 5.000000000000000000 ) ;
#351 = ORIENTED_EDGE ( 'NONE', *, *, #560, .F. ) ;
#352 = EDGE_CURVE ( 'NONE', #767, #52, #892, .T. ) ;
#353 = ORIENTED_EDGE ( 'NONE', *, *, #1275, .F. ) ;
#354 = DIRECTION ( 'NONE',  ( 1.000000000000000000, 0.000000000000000000, 0.000000000000000000 ) ) ;
#355 = COORDINATED_UNIVERSAL_TIME_OFFSET ( 3, 30, .AHEAD. ) ;
#356 = CARTESIAN_POINT ( 'NONE',  ( -25.00000000000000000, 0.000000000000000000, 20.00000000000000000 ) ) ;
#357 = VERTEX_POINT ( 'NONE', #899 ) ;
#358 = ORIENTED_EDGE ( 'NONE', *, *, #366, .F. ) ;
#359 = CARTESIAN_POINT ( 'NONE',  ( 50.00000000000001421, 93.75000000000009948, 210.0000000000000284 ) ) ;
#360 = EDGE_CURVE ( 'NONE', #986, #263, #1090, .T. ) ;
#361 = APPROVAL_DATE_TIME ( #1269, #297 ) ;
#362 = CARTESIAN_POINT ( 'NONE',  ( 0.000000000000000000, 0.000000000000000000, 244.1421356237309794 ) ) ;
#363 = ORIENTED_EDGE ( 'NONE', *, *, #1085, .T. ) ;
#364 = ORIENTED_EDGE ( 'NONE', *, *, #275, .T. ) ;
#365 = PLANE ( 'NONE',  #112 ) ;
#366 = EDGE_CURVE ( 'NONE', #884, #30, #476, .T. ) ;
#367 = AXIS2_PLACEMENT_3D ( 'NONE', #524, #1035, #842 ) ;
#368 = AXIS2_PLACEMENT_3D ( 'NONE', #1032, #941, #1036 ) ;
#369 = CALENDAR_DATE ( 2026, 23, 7 ) ;
#370 = EDGE_CURVE ( 'NONE', #446, #1007, #391, .T. ) ;
#371 = LINE ( 'NONE', #1187, #49 ) ;
#372 = VECTOR ( 'NONE', #1148, 1000.000000000000000 ) ;
#373 = AXIS2_PLACEMENT_3D ( 'NONE', #1175, #582, #403 ) ;
#374 = ORIENTED_EDGE ( 'NONE', *, *, #329, .T. ) ;
#375 = ORIENTED_EDGE ( 'NONE', *, *, #98, .T. ) ;
#376 = CARTESIAN_POINT ( 'NONE',  ( 90.00000000000000000, -12.49999999999999822, 20.00000000000000000 ) ) ;
#377 = PERSON_AND_ORGANIZATION_ROLE ( 'creator' ) ;
#378 = DIRECTION ( 'NONE',  ( -0.000000000000000000, -0.000000000000000000, 1.000000000000000000 ) ) ;
#379 = ORIENTED_EDGE ( 'NONE', *, *, #1235, .T. ) ;
#380 = CARTESIAN_POINT ( 'NONE',  ( 90.00000000000000000, -12.49999999999999822, 20.00000000000000000 ) ) ;
#381 = FACE_OUTER_BOUND ( 'NONE', #241, .T. ) ;
#382 = EDGE_CURVE ( 'NONE', #56, #864, #371, .T. ) ;
#383 = ORIENTED_EDGE ( 'NONE', *, *, #148, .F. ) ;
#384 = ORIENTED_EDGE ( 'NONE', *, *, #48, .F. ) ;
#385 = CARTESIAN_POINT ( 'NONE',  ( 0.000000000000000000, 0.000000000000000000, 244.1421356237309794 ) ) ;
#386 = APPROVAL_PERSON_ORGANIZATION ( #457, #309, #1062 ) ;
#387 = APPLICATION_CONTEXT ( 'configuration controlled 3d designs of mechanical parts and assemblies' ) ;
#388 = AXIS2_PLACEMENT_3D ( 'NONE', #1153, #35, #127 ) ;
#389 = CARTESIAN_POINT ( 'NONE',  ( 5.000000000000000000, 0.000000000000000000, 20.00000000000000000 ) ) ;
#390 = CARTESIAN_POINT ( 'NONE',  ( 11.76470588235294024, -22.05882352941176450, 20.00000000000000000 ) ) ;
#391 = CIRCLE ( 'NONE', #261, 25.00000000000000000 ) ;
#392 = AXIS2_PLACEMENT_3D ( 'NONE', #1022, #427, #333 ) ;
#393 = ORIENTED_EDGE ( 'NONE', *, *, #442, .F. ) ;
#394 = CYLINDRICAL_SURFACE ( 'NONE', #978, 7.500000000000000888 ) ;
#395 = EDGE_CURVE ( 'NONE', #317, #1262, #1242, .T. ) ;
#396 = DIRECTION ( 'NONE',  ( 0.000000000000000000, 0.000000000000000000, -1.000000000000000000 ) ) ;
#397 = CARTESIAN_POINT ( 'NONE',  ( 90.00000000000000000, -12.49999999999999822, 0.000000000000000000 ) ) ;
#398 = DIRECTION ( 'NONE',  ( -0.000000000000000000, -0.000000000000000000, 1.000000000000000000 ) ) ;
#399 = ORIENTED_EDGE ( 'NONE', *, *, #912, .F. ) ;
#400 = PLANE ( 'NONE',  #477 ) ;
#401 = EDGE_CURVE ( 'NONE', #1295, #58, #801, .T. ) ;
#402 = CARTESIAN_POINT ( 'NONE',  ( 11.76470588235293668, 22.05882352941176805, 210.0000000000000284 ) ) ;
#403 = DIRECTION ( 'NONE',  ( 1.000000000000000000, 0.000000000000000000, 0.000000000000000000 ) ) ;
#404 = DIRECTION ( 'NONE',  ( 1.000000000000000000, -0.000000000000000000, 0.000000000000000000 ) ) ;
#405 = ORIENTED_EDGE ( 'NONE', *, *, #863, .F. ) ;
#406 = DIRECTION ( 'NONE',  ( -1.000000000000000000, 0.000000000000000000, 0.000000000000000000 ) ) ;
#407 = DIRECTION ( 'NONE',  ( 1.000000000000000000, 0.000000000000000000, 0.000000000000000000 ) ) ;
#408 = ADVANCED_FACE ( 'NONE', ( #765 ), #1159, .F. ) ;
#409 = CARTESIAN_POINT ( 'NONE',  ( -2.000000000000000000, -7.228416147400480440, 0.000000000000000000 ) ) ;
#410 = LINE ( 'NONE', #711, #787 ) ;
#411 = AXIS2_PLACEMENT_3D ( 'NONE', #463, #331, #335 ) ;
#412 = VECTOR ( 'NONE', #867, 1000.000000000000000 ) ;
#413 = VERTEX_POINT ( 'NONE', #995 ) ;
#414 = CARTESIAN_POINT ( 'NONE',  ( 80.00000000000000000, 1.224646799147352665E-15, 115.0000000000000000 ) ) ;
#415 = CIRCLE ( 'NONE', #1145, 7.500000000000000888 ) ;
#416 = DIRECTION ( 'NONE',  ( 1.000000000000000000, 0.000000000000000000, 0.000000000000000000 ) ) ;
#417 = PLANE ( 'NONE',  #7 ) ;
#418 = DIRECTION ( 'NONE',  ( 0.000000000000000000, 1.000000000000000000, 0.000000000000000000 ) ) ;
#419 = ADVANCED_FACE ( 'NONE', ( #169 ), #973, .F. ) ;
#420 = ORIENTED_EDGE ( 'NONE', *, *, #425, .T. ) ;
#421 = CARTESIAN_POINT ( 'NONE',  ( -25.00000000000000000, 0.000000000000000000, 20.00000000000000000 ) ) ;
#422 = DIRECTION ( 'NONE',  ( 1.000000000000000000, 0.000000000000000000, 0.000000000000000000 ) ) ;
#423 = CYLINDRICAL_SURFACE ( 'NONE', #367, 5.000000000000000000 ) ;
#424 = LINE ( 'NONE', #1215, #876 ) ;
#425 = EDGE_CURVE ( 'NONE', #104, #15, #290, .T. ) ;
#426 = ORIENTED_EDGE ( 'NONE', *, *, #1040, .F. ) ;
#427 = DIRECTION ( 'NONE',  ( 0.000000000000000000, 0.000000000000000000, 1.000000000000000000 ) ) ;
#428 = ADVANCED_FACE ( 'NONE', ( #667, #499 ), #699, .F. ) ;
#429 = CARTESIAN_POINT ( 'NONE',  ( 50.00000000000002842, 12.49999999999999645, 210.0000000000000284 ) ) ;
#430 = CARTESIAN_POINT ( 'NONE',  ( 11.76470588235293668, 22.05882352941176805, 210.0000000000000284 ) ) ;
#431 = CARTESIAN_POINT ( 'NONE',  ( 50.00000000000001421, 93.75000000000009948, 0.000000000000000000 ) ) ;
#432 = ORIENTED_EDGE ( 'NONE', *, *, #547, .F. ) ;
#433 = DIRECTION ( 'NONE',  ( 0.000000000000000000, 0.000000000000000000, -1.000000000000000000 ) ) ;
#434 = AXIS2_PLACEMENT_3D ( 'NONE', #734, #952, #239 ) ;
#435 = CARTESIAN_POINT ( 'NONE',  ( 2.000000000000000000, 4.582575694955840717, 244.1421356237309794 ) ) ;
#436 = AXIS2_PLACEMENT_3D ( 'NONE', #824, #319, #1134 ) ;
#437 = CIRCLE ( 'NONE', #373, 7.500000000000000888 ) ;
#438 = CARTESIAN_POINT ( 'NONE',  ( 11.76470588235294024, -22.05882352941176450, 0.000000000000000000 ) ) ;
#439 = ORIENTED_EDGE ( 'NONE', *, *, #794, .F. ) ;
#440 = ORIENTED_EDGE ( 'NONE', *, *, #285, .F. ) ;
#441 = FACE_OUTER_BOUND ( 'NONE', #1132, .T. ) ;
#442 = EDGE_CURVE ( 'NONE', #1173, #993, #1297, .T. ) ;
#443 = CARTESIAN_POINT ( 'NONE',  ( 70.00000000000000000, 0.000000000000000000, 210.0000000000000284 ) ) ;
#444 = CARTESIAN_POINT ( 'NONE',  ( 11.76470588235293668, 22.05882352941176805, 0.000000000000000000 ) ) ;
#445 = ORIENTED_EDGE ( 'NONE', *, *, #1010, .T. ) ;
#446 = VERTEX_POINT ( 'NONE', #709 ) ;
#447 = CARTESIAN_POINT ( 'NONE',  ( 49.99999999999999289, -12.50000000000000711, 230.0000000000000000 ) ) ;
#448 = PERSON_AND_ORGANIZATION_ROLE ( 'design_supplier' ) ;
#449 = LINE ( 'NONE', #852, #1240 ) ;
#450 = EDGE_CURVE ( 'NONE', #413, #161, #1105, .T. ) ;
#451 = VERTEX_POINT ( 'NONE', #1009 ) ;
#452 = VERTEX_POINT ( 'NONE', #106 ) ;
#453 = CARTESIAN_POINT ( 'NONE',  ( 2.000000000000000000, 7.228416147400480440, 245.5241746962600473 ) ) ;
#454 = AXIS2_PLACEMENT_3D ( 'NONE', #95, #513, #813 ) ;
#455 = VECTOR ( 'NONE', #142, 1000.000000000000000 ) ;
#456 = AXIS2_PLACEMENT_3D ( 'NONE', #714, #433, #1110 ) ;
#457 = PERSON_AND_ORGANIZATION ( #658, #132 ) ;
#458 = CARTESIAN_POINT ( 'NONE',  ( 0.000000000000000000, 0.000000000000000000, 210.0000000000000284 ) ) ;
#459 = ORIENTED_EDGE ( 'NONE', *, *, #755, .T. ) ;
#460 = ORIENTED_EDGE ( 'NONE', *, *, #210, .T. ) ;
#461 = CARTESIAN_POINT ( 'NONE',  ( 90.00000000000000000, 0.000000000000000000, 20.00000000000000000 ) ) ;
#462 = CALENDAR_DATE ( 2026, 23, 7 ) ;
#463 = CARTESIAN_POINT ( 'NONE',  ( 0.000000000000000000, 0.000000000000000000, 210.0000000000000284 ) ) ;
#464 = ORIENTED_EDGE ( 'NONE', *, *, #1235, .F. ) ;
#465 = ADVANCED_FACE ( 'NONE', ( #1255 ), #966, .F. ) ;
#466 = ORIENTED_EDGE ( 'NONE', *, *, #360, .F. ) ;
#467 = DIRECTION ( 'NONE',  ( 1.000000000000000000, 0.000000000000000000, 0.000000000000000000 ) ) ;
#468 = FACE_OUTER_BOUND ( 'NONE', #551, .T. ) ;
#469 = CARTESIAN_POINT ( 'NONE',  ( 49.99999999999999289, -12.50000000000000711, 210.0000000000000284 ) ) ;
#470 = EDGE_LOOP ( 'NONE', ( #375, #564, #374, #1028 ) ) ;
#471 = CYLINDRICAL_SURFACE ( 'NONE', #474, 12.49999999999999645 ) ;
#472 = ADVANCED_FACE ( 'NONE', ( #468 ), #17, .F. ) ;
#473 = AXIS2_PLACEMENT_3D ( 'NONE', #759, #659, #629 ) ;
#474 = AXIS2_PLACEMENT_3D ( 'NONE', #461, #655, #1046 ) ;
#475 = CARTESIAN_POINT ( 'NONE',  ( 0.000000000000000000, 0.000000000000000000, 20.00000000000000000 ) ) ;
#476 = CIRCLE ( 'NONE', #92, 5.000000000000000000 ) ;
#477 = AXIS2_PLACEMENT_3D ( 'NONE', #781, #173, #800 ) ;
#478 = ORIENTED_EDGE ( 'NONE', *, *, #275, .F. ) ;
#479 = EDGE_LOOP ( 'NONE', ( #532, #1154, #1245, #337 ) ) ;
#480 = CARTESIAN_POINT ( 'NONE',  ( -2.000000000000000000, 4.582575694955840717, 244.1421356237309794 ) ) ;
#481 = EDGE_CURVE ( 'NONE', #679, #1072, #133, .T. ) ;
#482 = CARTESIAN_POINT ( 'NONE',  ( 1.999999999999999112, -7.228416147400482217, 0.000000000000000000 ) ) ;
#483 = CARTESIAN_POINT ( 'NONE',  ( 50.00000000000002842, 12.49999999999999645, 20.00000000000000000 ) ) ;
#484 = ORIENTED_EDGE ( 'NONE', *, *, #250, .F. ) ;
#485 = DIRECTION ( 'NONE',  ( 0.000000000000000000, 0.000000000000000000, -1.000000000000000000 ) ) ;
#486 = CYLINDRICAL_SURFACE ( 'NONE', #938, 25.00000000000000000 ) ;
#487 = DIRECTION ( 'NONE',  ( 1.000000000000000000, 0.000000000000000000, 0.000000000000000000 ) ) ;
#488 = EDGE_CURVE ( 'NONE', #146, #1056, #177, .T. ) ;
#489 = EDGE_LOOP ( 'NONE', ( #1216, #484, #42, #561, #1168, #383, #749 ) ) ;
#490 = LINE ( 'NONE', #498, #1143 ) ;
#491 = LOCAL_TIME ( 16, 4, 47.00000000000000000, #871 ) ;
#492 = DIRECTION ( 'NONE',  ( -0.000000000000000000, -0.000000000000000000, 1.000000000000000000 ) ) ;
#493 = DIRECTION ( 'NONE',  ( 1.000000000000000000, 0.000000000000000000, 0.000000000000000000 ) ) ;
#494 = VECTOR ( 'NONE', #157, 1000.000000000000000 ) ;
#495 = CIRCLE ( 'NONE', #238, 5.000000000000000000 ) ;
#496 = ADVANCED_FACE ( 'NONE', ( #209 ), #529, .F. ) ;
#497 = ORIENTED_EDGE ( 'NONE', *, *, #187, .T. ) ;
#498 = CARTESIAN_POINT ( 'NONE',  ( 2.000000000000000000, -7.228416147400480440, 0.000000000000000000 ) ) ;
#499 = FACE_OUTER_BOUND ( 'NONE', #715, .T. ) ;
#500 = DIRECTION ( 'NONE',  ( 1.000000000000000000, 0.000000000000000000, 0.000000000000000000 ) ) ;
#501 = CARTESIAN_POINT ( 'NONE',  ( 90.00000000000000000, 12.49999999999999822, 20.00000000000000000 ) ) ;
#502 = VERTEX_POINT ( 'NONE', #1112 ) ;
#503 = CARTESIAN_POINT ( 'NONE',  ( 90.00000000000000000, -12.49999999999999822, 210.0000000000000284 ) ) ;
#504 = CC_DESIGN_PERSON_AND_ORGANIZATION_ASSIGNMENT ( #1254, #251, ( #631 ) ) ;
#505 = DIRECTION ( 'NONE',  ( 0.000000000000000000, 0.000000000000000000, 1.000000000000000000 ) ) ;
#506 = FACE_OUTER_BOUND ( 'NONE', #990, .T. ) ;
#507 = DIRECTION ( 'NONE',  ( -2.168404344971008868E-16, 1.000000000000000000, 0.000000000000000000 ) ) ;
#508 = ORIENTED_EDGE ( 'NONE', *, *, #182, .T. ) ;
#509 = DIRECTION ( 'NONE',  ( 0.000000000000000000, 1.000000000000000000, 0.000000000000000000 ) ) ;
#510 = ORIENTED_EDGE ( 'NONE', *, *, #325, .T. ) ;
#511 = FACE_OUTER_BOUND ( 'NONE', #1160, .T. ) ;
#512 = LOCAL_TIME ( 16, 4, 47.00000000000000000, #266 ) ;
#513 = DIRECTION ( 'NONE',  ( 0.000000000000000000, 0.000000000000000000, 1.000000000000000000 ) ) ;
#514 = EDGE_LOOP ( 'NONE', ( #311, #620, #929, #775 ) ) ;
#515 = CARTESIAN_POINT ( 'NONE',  ( 90.00000000000000000, -12.49999999999999822, 20.00000000000000000 ) ) ;
#516 = VECTOR ( 'NONE', #189, 1000.000000000000000 ) ;
#517 = DIRECTION ( 'NONE',  ( 0.000000000000000000, -1.000000000000000000, 0.000000000000000000 ) ) ;
#518 = EDGE_CURVE ( 'NONE', #76, #86, #554, .T. ) ;
#519 = CARTESIAN_POINT ( 'NONE',  ( -2.000000000000000000, -7.228416147400480440, 245.5241746962600473 ) ) ;
#520 = DIRECTION ( 'NONE',  ( -1.000000000000000000, -2.168404344971008868E-16, 0.000000000000000000 ) ) ;
#521 = EDGE_LOOP ( 'NONE', ( #478, #569, #426, #432 ) ) ;
#522 = DIRECTION ( 'NONE',  ( -0.000000000000000000, -1.000000000000000000, 0.000000000000000000 ) ) ;
#523 = CARTESIAN_POINT ( 'NONE',  ( -25.00000000000000000, 0.000000000000000000, 210.0000000000000284 ) ) ;
#524 = CARTESIAN_POINT ( 'NONE',  ( 0.000000000000000000, 0.000000000000000000, 244.1421356237309794 ) ) ;
#525 = DIRECTION ( 'NONE',  ( -0.000000000000000000, -0.000000000000000000, 1.000000000000000000 ) ) ;
#526 = EDGE_CURVE ( 'NONE', #37, #243, #1119, .T. ) ;
#527 = VERTEX_POINT ( 'NONE', #523 ) ;
#528 = DIRECTION ( 'NONE',  ( -0.000000000000000000, -0.000000000000000000, -1.000000000000000000 ) ) ;
#529 = CYLINDRICAL_SURFACE ( 'NONE', #198, 81.25000000000007105 ) ;
#530 = FACE_BOUND ( 'NONE', #190, .T. ) ;
#531 = CARTESIAN_POINT ( 'NONE',  ( -2.000000000000000000, 7.228416147400480440, 230.0000000000000000 ) ) ;
#532 = ORIENTED_EDGE ( 'NONE', *, *, #888, .T. ) ;
#533 = PRODUCT_DEFINITION ( 'UNKNOWN', '', #1239, #1170 ) ;
#534 = AXIS2_PLACEMENT_3D ( 'NONE', #920, #19, #13 ) ;
#535 = CARTESIAN_POINT ( 'NONE',  ( 90.00000000000000000, 12.49999999999999822, 230.0000000000000000 ) ) ;
#536 = AXIS2_PLACEMENT_3D ( 'NONE', #44, #1060, #677 ) ;
#537 = PLANE ( 'NONE',  #700 ) ;
#538 = FACE_OUTER_BOUND ( 'NONE', #489, .T. ) ;
#539 = ORIENTED_EDGE ( 'NONE', *, *, #1220, .F. ) ;
#540 = ORIENTED_EDGE ( 'NONE', *, *, #668, .T. ) ;
#541 = LINE ( 'NONE', #376, #178 ) ;
#542 = PERSON_AND_ORGANIZATION ( #658, #132 ) ;
#543 = DIRECTION ( 'NONE',  ( -0.000000000000000000, -0.000000000000000000, 1.000000000000000000 ) ) ;
#544 = VERTEX_POINT ( 'NONE', #218 ) ;
#545 = VERTEX_POINT ( 'NONE', #1034 ) ;
#546 = DIRECTION ( 'NONE',  ( -0.000000000000000000, -0.000000000000000000, 1.000000000000000000 ) ) ;
#547 = EDGE_CURVE ( 'NONE', #1033, #86, #111, .T. ) ;
#548 = PERSON_AND_ORGANIZATION ( #658, #132 ) ;
#549 = PLANE ( 'NONE',  #473 ) ;
#550 = ORIENTED_EDGE ( 'NONE', *, *, #202, .T. ) ;
#551 = EDGE_LOOP ( 'NONE', ( #916, #869, #981, #1050 ) ) ;
#552 = FACE_OUTER_BOUND ( 'NONE', #213, .T. ) ;
#553 = VECTOR ( 'NONE', #1026, 1000.000000000000000 ) ;
#554 = CIRCLE ( 'NONE', #856, 7.500000000000000888 ) ;
#555 = CIRCLE ( 'NONE', #113, 7.500000000000000888 ) ;
#556 = DATE_AND_TIME ( #1053, #1120 ) ;
#557 = FACE_OUTER_BOUND ( 'NONE', #342, .T. ) ;
#558 = EDGE_CURVE ( 'NONE', #1262, #1088, #1180, .T. ) ;
#559 = ORIENTED_EDGE ( 'NONE', *, *, #159, .F. ) ;
#560 = EDGE_CURVE ( 'NONE', #52, #502, #829, .T. ) ;
#561 = ORIENTED_EDGE ( 'NONE', *, *, #171, .F. ) ;
#562 = LINE ( 'NONE', #757, #1058 ) ;
#563 = DIRECTION ( 'NONE',  ( 0.000000000000000000, 0.000000000000000000, -1.000000000000000000 ) ) ;
#564 = ORIENTED_EDGE ( 'NONE', *, *, #737, .T. ) ;
#565 = EDGE_CURVE ( 'NONE', #1045, #1072, #910, .T. ) ;
#566 = ORIENTED_EDGE ( 'NONE', *, *, #1157, .F. ) ;
#567 = LINE ( 'NONE', #453, #455 ) ;
#568 = DIRECTION ( 'NONE',  ( 1.000000000000000000, 0.000000000000000000, 0.000000000000000000 ) ) ;
#569 = ORIENTED_EDGE ( 'NONE', *, *, #877, .T. ) ;
#570 = EDGE_LOOP ( 'NONE', ( #660, #294, #963, #82 ) ) ;
#571 = CYLINDRICAL_SURFACE ( 'NONE', #1202, 12.49999999999999645 ) ;
#572 = ADVANCED_FACE ( 'NONE', ( #612 ), #225, .F. ) ;
#573 = VECTOR ( 'NONE', #918, 1000.000000000000000 ) ;
#574 = CIRCLE ( 'NONE', #160, 12.49999999999999645 ) ;
#575 = DIRECTION ( 'NONE',  ( -0.000000000000000000, -0.000000000000000000, -1.000000000000000000 ) ) ;
#576 = CIRCLE ( 'NONE', #751, 81.25000000000009948 ) ;
#577 = ORIENTED_EDGE ( 'NONE', *, *, #839, .T. ) ;
#578 = ORIENTED_EDGE ( 'NONE', *, *, #250, .T. ) ;
#579 = CARTESIAN_POINT ( 'NONE',  ( 90.00000000000000000, 12.49999999999999822, 210.0000000000000284 ) ) ;
#580 = CC_DESIGN_PERSON_AND_ORGANIZATION_ASSIGNMENT ( #951, #40, ( #1239 ) ) ;
#581 = EDGE_CURVE ( 'NONE', #357, #986, #936, .T. ) ;
#582 = DIRECTION ( 'NONE',  ( -0.000000000000000000, -0.000000000000000000, 1.000000000000000000 ) ) ;
#583 = VERTEX_POINT ( 'NONE', #932 ) ;
#584 = ORIENTED_EDGE ( 'NONE', *, *, #953, .F. ) ;
#585 = CARTESIAN_POINT ( 'NONE',  ( 2.000000000000000000, 4.582575694955840717, 230.0000000000000000 ) ) ;
#586 = FACE_OUTER_BOUND ( 'NONE', #203, .T. ) ;
#587 = ORIENTED_EDGE ( 'NONE', *, *, #1001, .T. ) ;
#588 = EDGE_LOOP ( 'NONE', ( #1184, #217, #625, #1224, #283, #233, #364, #270, #676 ) ) ;
#589 = CARTESIAN_POINT ( 'NONE',  ( 0.000000000000000000, 0.000000000000000000, 0.000000000000000000 ) ) ;
#590 = DIRECTION ( 'NONE',  ( -0.000000000000000000, -0.000000000000000000, 1.000000000000000000 ) ) ;
#591 = AXIS2_PLACEMENT_3D ( 'NONE', #1270, #398, #487 ) ;
#592 = PLANE ( 'NONE',  #838 ) ;
#593 = EDGE_CURVE ( 'NONE', #1088, #884, #32, .T. ) ;
#594 = CARTESIAN_POINT ( 'NONE',  ( -2.000000000000000000, 7.228416147400480440, 245.5241746962600473 ) ) ;
#595 = VECTOR ( 'NONE', #606, 1000.000000000000000 ) ;
#596 = VECTOR ( 'NONE', #224, 1000.000000000000000 ) ;
#597 = EDGE_CURVE ( 'NONE', #1088, #76, #1226, .T. ) ;
#598 = ORIENTED_EDGE ( 'NONE', *, *, #863, .T. ) ;
#599 = CYLINDRICAL_SURFACE ( 'NONE', #1039, 5.000000000000000000 ) ;
#600 = CARTESIAN_POINT ( 'NONE',  ( 90.00000000000000000, 12.49999999999999822, 20.00000000000000000 ) ) ;
#601 = DIRECTION ( 'NONE',  ( -0.000000000000000000, -0.000000000000000000, -1.000000000000000000 ) ) ;
#602 = CARTESIAN_POINT ( 'NONE',  ( -2.000000000000000000, 4.582575694955840717, 0.000000000000000000 ) ) ;
#603 = ORIENTED_EDGE ( 'NONE', *, *, #481, .F. ) ;
#604 = CARTESIAN_POINT ( 'NONE',  ( -2.000000000000000000, -4.582575694955840717, 0.000000000000000000 ) ) ;
#605 = ADVANCED_FACE ( 'NONE', ( #12 ), #334, .T. ) ;
#606 = DIRECTION ( 'NONE',  ( 0.000000000000000000, -1.000000000000000000, 0.000000000000000000 ) ) ;
#607 = CYLINDRICAL_SURFACE ( 'NONE', #134, 81.25000000000009948 ) ;
#608 = DIRECTION ( 'NONE',  ( 0.000000000000000000, 0.000000000000000000, -1.000000000000000000 ) ) ;
#609 = ORIENTED_EDGE ( 'NONE', *, *, #341, .T. ) ;
#610 = LINE ( 'NONE', #103, #1164 ) ;
#611 = ADVANCED_FACE ( 'NONE', ( #441 ), #846, .F. ) ;
#612 = FACE_OUTER_BOUND ( 'NONE', #276, .T. ) ;
#613 = CARTESIAN_POINT ( 'NONE',  ( 5.000000000000000000, 0.000000000000000000, 210.0000000000000284 ) ) ;
#614 = DIRECTION ( 'NONE',  ( 1.000000000000000000, 2.168404344971008868E-16, 0.000000000000000000 ) ) ;
#615 = VECTOR ( 'NONE', #1294, 1000.000000000000000 ) ;
#616 = VECTOR ( 'NONE', #93, 1000.000000000000000 ) ;
#617 = VERTEX_POINT ( 'NONE', #1042 ) ;
#618 = DIRECTION ( 'NONE',  ( 1.000000000000000000, 0.000000000000000000, 0.000000000000000000 ) ) ;
#619 = AXIS2_PLACEMENT_3D ( 'NONE', #194, #308, #710 ) ;
#620 = ORIENTED_EDGE ( 'NONE', *, *, #1157, .T. ) ;
#621 = CARTESIAN_POINT ( 'NONE',  ( -2.000000000000000000, 7.228416147400480440, 245.5241746962600473 ) ) ;
#622 = ADVANCED_FACE ( 'NONE', ( #511 ), #365, .F. ) ;
#623 =( NAMED_UNIT ( * ) SI_UNIT ( $, .STERADIAN. ) SOLID_ANGLE_UNIT ( ) );
#624 = CARTESIAN_POINT ( 'NONE',  ( 0.000000000000000000, 0.000000000000000000, 20.00000000000000000 ) ) ;
#625 = ORIENTED_EDGE ( 'NONE', *, *, #1027, .T. ) ;
#626 = CARTESIAN_POINT ( 'NONE',  ( 0.000000000000000000, 0.000000000000000000, 245.5241746962600473 ) ) ;
#627 = CARTESIAN_POINT ( 'NONE',  ( 0.000000000000000000, 0.000000000000000000, 230.0000000000000000 ) ) ;
#628 = DIRECTION ( 'NONE',  ( 1.000000000000000000, 0.000000000000000000, 0.000000000000000000 ) ) ;
#629 = DIRECTION ( 'NONE',  ( 1.000000000000000000, 0.000000000000000000, -0.000000000000000000 ) ) ;
#630 = EDGE_CURVE ( 'NONE', #697, #1044, #1169, .T. ) ;
#631 = PRODUCT ( 'Link1Body_Default_sldprt', 'Link1Body_Default_sldprt', '', ( #348 ) ) ;
#632 = ORIENTED_EDGE ( 'NONE', *, *, #593, .F. ) ;
#633 = EDGE_LOOP ( 'NONE', ( #943, #844, #969, #880 ) ) ;
#634 = DIRECTION ( 'NONE',  ( -0.000000000000000000, -0.000000000000000000, -1.000000000000000000 ) ) ;
#635 = LINE ( 'NONE', #519, #831 ) ;
#636 = CARTESIAN_POINT ( 'NONE',  ( -25.00000000000000000, 0.000000000000000000, 230.0000000000000000 ) ) ;
#637 = APPROVAL_PERSON_ORGANIZATION ( #672, #1219, #764 ) ;
#638 = EDGE_CURVE ( 'NONE', #864, #544, #1067, .T. ) ;
#639 = ORIENTED_EDGE ( 'NONE', *, *, #39, .F. ) ;
#640 = CIRCLE ( 'NONE', #68, 5.000000000000000000 ) ;
#641 = VECTOR ( 'NONE', #1261, 1000.000000000000000 ) ;
#642 = EDGE_CURVE ( 'NONE', #864, #1094, #136, .T. ) ;
#643 = ORIENTED_EDGE ( 'NONE', *, *, #22, .T. ) ;
#644 = DIRECTION ( 'NONE',  ( 1.000000000000000000, 0.000000000000000000, 0.000000000000000000 ) ) ;
#645 = CIRCLE ( 'NONE', #879, 81.25000000000009948 ) ;
#646 = AXIS2_PLACEMENT_3D ( 'NONE', #851, #59, #858 ) ;
#647 = DIRECTION ( 'NONE',  ( 0.000000000000000000, -1.000000000000000000, -0.000000000000000000 ) ) ;
#648 = ORIENTED_EDGE ( 'NONE', *, *, #992, .T. ) ;
#649 = ORIENTED_EDGE ( 'NONE', *, *, #953, .T. ) ;
#650 = DIRECTION ( 'NONE',  ( -0.000000000000000000, -0.000000000000000000, 1.000000000000000000 ) ) ;
#651 = CALENDAR_DATE ( 2026, 23, 7 ) ;
#652 = CARTESIAN_POINT ( 'NONE',  ( 90.00000000000000000, 12.49999999999999822, 210.0000000000000284 ) ) ;
#653 = VERTEX_POINT ( 'NONE', #447 ) ;
#654 = ORIENTED_EDGE ( 'NONE', *, *, #984, .T. ) ;
#655 = DIRECTION ( 'NONE',  ( -0.000000000000000000, -0.000000000000000000, -1.000000000000000000 ) ) ;
#656 = EDGE_CURVE ( 'NONE', #58, #247, #237, .T. ) ;
#657 = CARTESIAN_POINT ( 'NONE',  ( 0.000000000000000000, 0.000000000000000000, 0.000000000000000000 ) ) ;
#658 = PERSON ( 'UNSPECIFIED', 'UNSPECIFIED', 'UNSPECIFIED', ('UNSPECIFIED'), ('UNSPECIFIED'), ('UNSPECIFIED') ) ;
#659 = DIRECTION ( 'NONE',  ( 0.000000000000000000, 0.000000000000000000, 1.000000000000000000 ) ) ;
#660 = ORIENTED_EDGE ( 'NONE', *, *, #89, .F. ) ;
#661 = ORIENTED_EDGE ( 'NONE', *, *, #1171, .F. ) ;
#662 = CARTESIAN_POINT ( 'NONE',  ( 0.000000000000000000, 0.000000000000000000, 230.0000000000000000 ) ) ;
#663 = VECTOR ( 'NONE', #138, 1000.000000000000000 ) ;
#664 = VECTOR ( 'NONE', #1165, 1000.000000000000000 ) ;
#665 = AXIS2_PLACEMENT_3D ( 'NONE', #626, #109, #1116 ) ;
#666 = APPLICATION_PROTOCOL_DEFINITION ( 'international standard', 'config_control_design', 1994, #387 ) ;
#667 = FACE_BOUND ( 'NONE', #588, .T. ) ;
#668 = EDGE_CURVE ( 'NONE', #37, #43, #26, .T. ) ;
#669 = DIRECTION ( 'NONE',  ( 1.000000000000000000, 0.000000000000000000, 0.000000000000000000 ) ) ;
#670 = ORIENTED_EDGE ( 'NONE', *, *, #755, .F. ) ;
#671 = DIRECTION ( 'NONE',  ( 0.000000000000000000, 0.000000000000000000, -1.000000000000000000 ) ) ;
#672 = PERSON_AND_ORGANIZATION ( #658, #132 ) ;
#673 = CARTESIAN_POINT ( 'NONE',  ( 0.000000000000000000, 0.000000000000000000, 210.0000000000000284 ) ) ;
#674 = ADVANCED_FACE ( 'NONE', ( #345 ), #1238, .F. ) ;
#675 = ORIENTED_EDGE ( 'NONE', *, *, #984, .F. ) ;
#676 = ORIENTED_EDGE ( 'NONE', *, *, #268, .T. ) ;
#677 = DIRECTION ( 'NONE',  ( 1.000000000000000000, 0.000000000000000000, 0.000000000000000000 ) ) ;
#678 = ORIENTED_EDGE ( 'NONE', *, *, #597, .T. ) ;
#679 = VERTEX_POINT ( 'NONE', #870 ) ;
#680 = FACE_OUTER_BOUND ( 'NONE', #740, .T. ) ;
#681 = ADVANCED_FACE ( 'NONE', ( #552 ), #471, .T. ) ;
#682 = VECTOR ( 'NONE', #914, 1000.000000000000000 ) ;
#683 = VECTOR ( 'NONE', #634, 1000.000000000000000 ) ;
#684 = CARTESIAN_POINT ( 'NONE',  ( 1.999999999999999112, 4.582575694955839829, 210.0000000000000284 ) ) ;
#685 = ORIENTED_EDGE ( 'NONE', *, *, #638, .F. ) ;
#686 = ORIENTED_EDGE ( 'NONE', *, *, #739, .F. ) ;
#687 = DIRECTION ( 'NONE',  ( 1.000000000000000000, 0.000000000000000000, 0.000000000000000000 ) ) ;
#688 = EDGE_CURVE ( 'NONE', #263, #545, #878, .T. ) ;
#689 = CARTESIAN_POINT ( 'NONE',  ( 90.00000000000000000, 12.49999999999999822, 210.0000000000000284 ) ) ;
#690 = ORIENTED_EDGE ( 'NONE', *, *, #450, .F. ) ;
#691 = ORIENTED_EDGE ( 'NONE', *, *, #1166, .T. ) ;
#692 = DIRECTION ( 'NONE',  ( -1.000000000000000000, 0.000000000000000000, 0.000000000000000000 ) ) ;
#693 = CARTESIAN_POINT ( 'NONE',  ( 90.00000000000000000, 12.49999999999999822, 20.00000000000000000 ) ) ;
#694 = ADVANCED_FACE ( 'NONE', ( #865 ), #153, .F. ) ;
#695 = CARTESIAN_POINT ( 'NONE',  ( 0.000000000000000000, 0.000000000000000000, 20.00000000000000000 ) ) ;
#696 = DIRECTION ( 'NONE',  ( -0.000000000000000000, -0.000000000000000000, -1.000000000000000000 ) ) ;
#697 = VERTEX_POINT ( 'NONE', #950 ) ;
#698 = CARTESIAN_POINT ( 'NONE',  ( 0.000000000000000000, 0.000000000000000000, -15.52417469626002777 ) ) ;
#699 = PLANE ( 'NONE',  #997 ) ;
#700 = AXIS2_PLACEMENT_3D ( 'NONE', #830, #913, #628 ) ;
#701 = VECTOR ( 'NONE', #41, 1000.000000000000000 ) ;
#702 = CARTESIAN_POINT ( 'NONE',  ( 60.00000000000001421, 0.000000000000000000, 210.0000000000000284 ) ) ;
#703 = FACE_OUTER_BOUND ( 'NONE', #521, .T. ) ;
#704 = AXIS2_PLACEMENT_3D ( 'NONE', #24, #235, #818 ) ;
#705 = EDGE_CURVE ( 'NONE', #779, #76, #567, .T. ) ;
#706 = VECTOR ( 'NONE', #906, 1000.000000000000000 ) ;
#707 = ORIENTED_EDGE ( 'NONE', *, *, #370, .F. ) ;
#708 = DIRECTION ( 'NONE',  ( -0.000000000000000000, -0.000000000000000000, 1.000000000000000000 ) ) ;
#709 = CARTESIAN_POINT ( 'NONE',  ( 11.76470588235293668, 22.05882352941176805, 20.00000000000000000 ) ) ;
#710 = DIRECTION ( 'NONE',  ( 1.000000000000000000, 0.000000000000000000, 0.000000000000000000 ) ) ;
#711 = CARTESIAN_POINT ( 'NONE',  ( 90.00000000000000000, -12.49999999999999822, 230.0000000000000000 ) ) ;
#712 = EDGE_CURVE ( 'NONE', #254, #146, #562, .T. ) ;
#713 = ORIENTED_EDGE ( 'NONE', *, *, #1146, .F. ) ;
#714 = CARTESIAN_POINT ( 'NONE',  ( 50.00000000000001421, 93.75000000000009948, 230.0000000000000000 ) ) ;
#715 = EDGE_LOOP ( 'NONE', ( #955, #81, #445, #1288, #587, #313, #728 ) ) ;
#716 = CARTESIAN_POINT ( 'NONE',  ( 0.000000000000000000, 0.000000000000000000, 20.00000000000000000 ) ) ;
#717 = DIRECTION ( 'NONE',  ( -1.000000000000000000, 0.000000000000000000, 0.000000000000000000 ) ) ;
#718 = LINE ( 'NONE', #321, #553 ) ;
#719 = VECTOR ( 'NONE', #1208, 1000.000000000000000 ) ;
#720 = ORIENTED_EDGE ( 'NONE', *, *, #1268, .T. ) ;
#721 = CARTESIAN_POINT ( 'NONE',  ( 2.000000000000000000, -7.228416147400480440, 245.5241746962600473 ) ) ;
#722 = DIRECTION ( 'NONE',  ( -1.000000000000000000, 0.000000000000000000, 0.000000000000000000 ) ) ;
#723 = ADVANCED_FACE ( 'NONE', ( #1052 ), #964, .F. ) ;
#724 = FACE_BOUND ( 'NONE', #1281, .T. ) ;
#725 = CC_DESIGN_APPROVAL ( #1219, ( #808 ) ) ;
#726 = LINE ( 'NONE', #1012, #682 ) ;
#727 = AXIS2_PLACEMENT_3D ( 'NONE', #627, #1030, #125 ) ;
#728 = ORIENTED_EDGE ( 'NONE', *, *, #33, .T. ) ;
#729 = CARTESIAN_POINT ( 'NONE',  ( 90.00000000000000000, 0.000000000000000000, 230.0000000000000000 ) ) ;
#730 = AXIS2_PLACEMENT_3D ( 'NONE', #903, #78, #1197 ) ;
#731 = DIRECTION ( 'NONE',  ( -1.000000000000000000, 2.168404344971008868E-16, 0.000000000000000000 ) ) ;
#732 = EDGE_CURVE ( 'NONE', #583, #1103, #1258, .T. ) ;
#733 = DIRECTION ( 'NONE',  ( 1.000000000000000000, 0.000000000000000000, 0.000000000000000000 ) ) ;
#734 = CARTESIAN_POINT ( 'NONE',  ( 0.000000000000000000, 0.000000000000000000, 210.0000000000000284 ) ) ;
#735 = ORIENTED_EDGE ( 'NONE', *, *, #1171, .T. ) ;
#736 = CARTESIAN_POINT ( 'NONE',  ( 70.00000000000000000, 0.000000000000000000, 115.0000000000000000 ) ) ;
#737 = EDGE_CURVE ( 'NONE', #413, #1013, #1163, .T. ) ;
#738 = FACE_OUTER_BOUND ( 'NONE', #514, .T. ) ;
#739 = EDGE_CURVE ( 'NONE', #761, #1069, #541, .T. ) ;
#740 = EDGE_LOOP ( 'NONE', ( #577, #735, #185, #1155 ) ) ;
#741 = ORIENTED_EDGE ( 'NONE', *, *, #593, .T. ) ;
#742 = CARTESIAN_POINT ( 'NONE',  ( 0.000000000000000000, 0.000000000000000000, 245.5241746962600473 ) ) ;
#743 = CARTESIAN_POINT ( 'NONE',  ( 70.00000000000000000, 0.000000000000000000, 115.0000000000000000 ) ) ;
#744 = LINE ( 'NONE', #652, #663 ) ;
#745 = AXIS2_PLACEMENT_3D ( 'NONE', #657, #965, #66 ) ;
#746 = EDGE_CURVE ( 'NONE', #131, #317, #970, .T. ) ;
#747 = EDGE_LOOP ( 'NONE', ( #152, #1244, #399, #974 ) ) ;
#748 = AXIS2_PLACEMENT_3D ( 'NONE', #1068, #795, #407 ) ;
#749 = ORIENTED_EDGE ( 'NONE', *, *, #202, .F. ) ;
#750 = DIRECTION ( 'NONE',  ( -1.000000000000000000, 0.000000000000000000, 0.000000000000000000 ) ) ;
#751 = AXIS2_PLACEMENT_3D ( 'NONE', #1203, #8, #1214 ) ;
#752 = APPROVAL_ROLE ( '' ) ;
#753 = CYLINDRICAL_SURFACE ( 'NONE', #1263, 25.00000000000000000 ) ;
#754 = ORIENTED_EDGE ( 'NONE', *, *, #291, .F. ) ;
#755 = EDGE_CURVE ( 'NONE', #357, #322, #38, .T. ) ;
#756 = EDGE_LOOP ( 'NONE', ( #678, #1, #1190, #460, #72, #1211, #649, #229, #1087 ) ) ;
#757 = CARTESIAN_POINT ( 'NONE',  ( 2.000000000000000000, -4.582575694955840717, -14.14213562373095279 ) ) ;
#758 = APPROVAL_STATUS ( 'not_yet_approved' ) ;
#759 = CARTESIAN_POINT ( 'NONE',  ( 50.00000000000000000, -93.75000000000008527, 0.000000000000000000 ) ) ;
#760 = ORIENTED_EDGE ( 'NONE', *, *, #242, .F. ) ;
#761 = VERTEX_POINT ( 'NONE', #380 ) ;
#762 = CARTESIAN_POINT ( 'NONE',  ( -2.000000000000000000, 7.228416147400480440, 210.0000000000000284 ) ) ;
#763 = ADVANCED_FACE ( 'NONE', ( #1174 ), #599, .F. ) ;
#764 = APPROVAL_ROLE ( '' ) ;
#765 = FACE_OUTER_BOUND ( 'NONE', #896, .T. ) ;
#766 = ORIENTED_EDGE ( 'NONE', *, *, #968, .T. ) ;
#767 = VERTEX_POINT ( 'NONE', #977 ) ;
#768 = AXIS2_PLACEMENT_3D ( 'NONE', #34, #926, #27 ) ;
#769 = DIRECTION ( 'NONE',  ( -0.000000000000000000, -0.000000000000000000, 1.000000000000000000 ) ) ;
#770 = AXIS2_PLACEMENT_3D ( 'NONE', #246, #340, #28 ) ;
#771 = CIRCLE ( 'NONE', #748, 5.000000000000000000 ) ;
#772 = UNCERTAINTY_MEASURE_WITH_UNIT (LENGTH_MEASURE( 1.000000000000000082E-05 ), #231, 'distance_accuracy_value', 'NONE');
#773 = AXIS2_PLACEMENT_3D ( 'NONE', #985, #80, #500 ) ;
#774 = CARTESIAN_POINT ( 'NONE',  ( 1.999999999999998668, -7.228416147400480440, 20.00000000000000000 ) ) ;
#775 = ORIENTED_EDGE ( 'NONE', *, *, #401, .F. ) ;
#776 = ORIENTED_EDGE ( 'NONE', *, *, #1243, .T. ) ;
#777 = DIRECTION ( 'NONE',  ( 1.000000000000000000, 0.000000000000000000, -0.000000000000000000 ) ) ;
#778 = CC_DESIGN_DATE_AND_TIME_ASSIGNMENT ( #556, #1260, ( #808 ) ) ;
#779 = VERTEX_POINT ( 'NONE', #83 ) ;
#780 = VERTEX_POINT ( 'NONE', #284 ) ;
#781 = CARTESIAN_POINT ( 'NONE',  ( -2.000000000000000000, 7.228416147400480440, -15.52417469626002777 ) ) ;
#782 = DIRECTION ( 'NONE',  ( -1.000000000000000000, 0.000000000000000000, 0.000000000000000000 ) ) ;
#783 = DIRECTION ( 'NONE',  ( -0.000000000000000000, -0.000000000000000000, 1.000000000000000000 ) ) ;
#784 = EDGE_CURVE ( 'NONE', #1094, #1045, #1179, .T. ) ;
#785 = VERTEX_POINT ( 'NONE', #1089 ) ;
#786 = FACE_OUTER_BOUND ( 'NONE', #223, .T. ) ;
#787 = VECTOR ( 'NONE', #614, 1000.000000000000000 ) ;
#788 = AXIS2_PLACEMENT_3D ( 'NONE', #736, #939, #338 ) ;
#789 = VECTOR ( 'NONE', #528, 1000.000000000000000 ) ;
#790 = CARTESIAN_POINT ( 'NONE',  ( 11.76470588235293668, 22.05882352941176805, 20.00000000000000000 ) ) ;
#791 = DIRECTION ( 'NONE',  ( 0.000000000000000000, 0.000000000000000000, 1.000000000000000000 ) ) ;
#792 = EDGE_LOOP ( 'NONE', ( #675, #353, #1236, #1150 ) ) ;
#793 = DIRECTION ( 'NONE',  ( -0.000000000000000000, -0.000000000000000000, 1.000000000000000000 ) ) ;
#794 = EDGE_CURVE ( 'NONE', #30, #1262, #180, .T. ) ;
#795 = DIRECTION ( 'NONE',  ( -0.000000000000000000, -0.000000000000000000, -1.000000000000000000 ) ) ;
#796 = ADVANCED_FACE ( 'NONE', ( #680 ), #394, .F. ) ;
#797 = CARTESIAN_POINT ( 'NONE',  ( 50.00000000000002842, 12.49999999999999645, 20.00000000000000000 ) ) ;
#798 = ORIENTED_EDGE ( 'NONE', *, *, #784, .T. ) ;
#799 = ORIENTED_EDGE ( 'NONE', *, *, #1259, .T. ) ;
#800 = DIRECTION ( 'NONE',  ( -0.000000000000000000, 0.000000000000000000, 1.000000000000000000 ) ) ;
#801 = LINE ( 'NONE', #402, #219 ) ;
#802 = ADVANCED_FACE ( 'NONE', ( #186 ), #400, .F. ) ;
#803 = CARTESIAN_POINT ( 'NONE',  ( 2.000000000000000000, 7.228416147400480440, -15.52417469626002777 ) ) ;
#804 = CARTESIAN_POINT ( 'NONE',  ( 90.00000000000000000, -12.49999999999999822, 20.00000000000000000 ) ) ;
#805 = ORIENTED_EDGE ( 'NONE', *, *, #128, .T. ) ;
#806 = DIRECTION ( 'NONE',  ( -1.000000000000000000, 0.000000000000000000, 0.000000000000000000 ) ) ;
#807 = CARTESIAN_POINT ( 'NONE',  ( 60.00000000000001421, 0.000000000000000000, 115.0000000000000000 ) ) ;
#808 = SECURITY_CLASSIFICATION ( '', '', #860 ) ;
#809 = AXIS2_PLACEMENT_3D ( 'NONE', #895, #378, #184 ) ;
#810 = ADVANCED_FACE ( 'NONE', ( #1289 ), #571, .T. ) ;
#811 = VECTOR ( 'NONE', #840, 1000.000000000000000 ) ;
#812 = DIRECTION ( 'NONE',  ( 1.000000000000000000, 0.000000000000000000, 0.000000000000000000 ) ) ;
#813 = DIRECTION ( 'NONE',  ( 1.000000000000000000, 0.000000000000000000, 0.000000000000000000 ) ) ;
#814 = VECTOR ( 'NONE', #522, 1000.000000000000000 ) ;
#815 = CIRCLE ( 'NONE', #240, 5.000000000000000000 ) ;
#816 = EDGE_LOOP ( 'NONE', ( #253, #559, #1196, #1070 ) ) ;
#817 = LINE ( 'NONE', #414, #789 ) ;
#818 = DIRECTION ( 'NONE',  ( 0.000000000000000000, 0.000000000000000000, -1.000000000000000000 ) ) ;
#819 = DIRECTION ( 'NONE',  ( 1.000000000000000000, 0.000000000000000000, -0.000000000000000000 ) ) ;
#820 = DIRECTION ( 'NONE',  ( -0.000000000000000000, -0.000000000000000000, -1.000000000000000000 ) ) ;
#821 = CC_DESIGN_PERSON_AND_ORGANIZATION_ASSIGNMENT ( #156, #54, ( #808 ) ) ;
#822 = ORIENTED_EDGE ( 'NONE', *, *, #382, .F. ) ;
#823 = CARTESIAN_POINT ( 'NONE',  ( -2.000000000000000000, -7.228416147400480440, 230.0000000000000000 ) ) ;
#824 = CARTESIAN_POINT ( 'NONE',  ( 90.00000000000000000, 12.49999999999999822, 210.0000000000000284 ) ) ;
#825 =( NAMED_UNIT ( * ) PLANE_ANGLE_UNIT ( ) SI_UNIT ( $, .RADIAN. ) );
#826 = PLANE ( 'NONE',  #1140 ) ;
#827 = EDGE_LOOP ( 'NONE', ( #123, #685, #90, #798 ) ) ;
#828 = LINE ( 'NONE', #515, #71 ) ;
#829 = LINE ( 'NONE', #1218, #70 ) ;
#830 = CARTESIAN_POINT ( 'NONE',  ( 50.00000000000000000, -93.75000000000008527, 210.0000000000000284 ) ) ;
#831 = VECTOR ( 'NONE', #1233, 1000.000000000000000 ) ;
#832 = CARTESIAN_POINT ( 'NONE',  ( -2.000000000000000000, 7.228416147400480440, 20.00000000000000000 ) ) ;
#833 = CIRCLE ( 'NONE', #1097, 25.00000000000000000 ) ;
#834 = ADVANCED_BREP_SHAPE_REPRESENTATION ( 'Link1Body_Default_sldprt', ( #1106, #745 ), #324 ) ;
#835 = AXIS2_PLACEMENT_3D ( 'NONE', #693, #267, #1096 ) ;
#836 = ORIENTED_EDGE ( 'NONE', *, *, #268, .F. ) ;
#837 = LINE ( 'NONE', #1225, #328 ) ;
#838 = AXIS2_PLACEMENT_3D ( 'NONE', #1273, #1005, #279 ) ;
#839 = EDGE_CURVE ( 'NONE', #767, #785, #555, .T. ) ;
#840 = DIRECTION ( 'NONE',  ( -0.000000000000000000, -0.000000000000000000, 1.000000000000000000 ) ) ;
#841 = ADVANCED_FACE ( 'NONE', ( #786 ), #1095, .F. ) ;
#842 = DIRECTION ( 'NONE',  ( 1.000000000000000000, 0.000000000000000000, 0.000000000000000000 ) ) ;
#843 = CARTESIAN_POINT ( 'NONE',  ( 0.000000000000000000, 0.000000000000000000, 0.000000000000000000 ) ) ;
#844 = ORIENTED_EDGE ( 'NONE', *, *, #1065, .T. ) ;
#845 = ORIENTED_EDGE ( 'NONE', *, *, #1243, .F. ) ;
#846 = CYLINDRICAL_SURFACE ( 'NONE', #1122, 7.500000000000000888 ) ;
#847 = DIRECTION ( 'NONE',  ( 0.000000000000000000, 0.000000000000000000, 1.000000000000000000 ) ) ;
#848 = DIRECTION ( 'NONE',  ( 1.000000000000000000, 0.000000000000000000, 0.000000000000000000 ) ) ;
#849 = ORIENTED_EDGE ( 'NONE', *, *, #597, .F. ) ;
#850 = ORIENTED_EDGE ( 'NONE', *, *, #98, .F. ) ;
#851 = CARTESIAN_POINT ( 'NONE',  ( 0.000000000000000000, 0.000000000000000000, -14.14213562373095279 ) ) ;
#852 = CARTESIAN_POINT ( 'NONE',  ( 1.999999999999998668, -7.228416147400480440, -15.52417469626002777 ) ) ;
#853 = EDGE_CURVE ( 'NONE', #785, #881, #490, .T. ) ;
#854 = ORIENTED_EDGE ( 'NONE', *, *, #877, .F. ) ;
#855 = VECTOR ( 'NONE', #170, 1000.000000000000000 ) ;
#856 = AXIS2_PLACEMENT_3D ( 'NONE', #1129, #120, #422 ) ;
#857 = VERTEX_POINT ( 'NONE', #91 ) ;
#858 = DIRECTION ( 'NONE',  ( 1.000000000000000000, 0.000000000000000000, 0.000000000000000000 ) ) ;
#859 = CIRCLE ( 'NONE', #29, 25.00000000000000000 ) ;
#860 = SECURITY_CLASSIFICATION_LEVEL ( 'unclassified' ) ;
#861 = CARTESIAN_POINT ( 'NONE',  ( 90.00000000000000000, -12.49999999999999822, 0.000000000000000000 ) ) ;
#862 = ORIENTED_EDGE ( 'NONE', *, *, #1136, .F. ) ;
#863 = EDGE_CURVE ( 'NONE', #161, #332, #262, .T. ) ;
#864 = VERTEX_POINT ( 'NONE', #503 ) ;
#865 = FACE_OUTER_BOUND ( 'NONE', #274, .T. ) ;
#866 = DATE_AND_TIME ( #462, #512 ) ;
#867 = DIRECTION ( 'NONE',  ( 0.000000000000000000, 1.000000000000000000, 0.000000000000000000 ) ) ;
#868 = ORIENTED_EDGE ( 'NONE', *, *, #395, .F. ) ;
#869 = ORIENTED_EDGE ( 'NONE', *, *, #784, .F. ) ;
#870 = CARTESIAN_POINT ( 'NONE',  ( 50.00000000000002842, 12.49999999999999645, 210.0000000000000284 ) ) ;
#871 = COORDINATED_UNIVERSAL_TIME_OFFSET ( 3, 30, .AHEAD. ) ;
#872 = CARTESIAN_POINT ( 'NONE',  ( 5.000000000000000000, 0.000000000000000000, -14.14213562373095279 ) ) ;
#873 = ORIENTED_EDGE ( 'NONE', *, *, #888, .F. ) ;
#874 = ORIENTED_EDGE ( 'NONE', *, *, #329, .F. ) ;
#875 = DIRECTION ( 'NONE',  ( 1.000000000000000000, 0.000000000000000000, 0.000000000000000000 ) ) ;
#876 = VECTOR ( 'NONE', #525, 1000.000000000000000 ) ;
#877 = EDGE_CURVE ( 'NONE', #545, #924, #304, .T. ) ;
#878 = CIRCLE ( 'NONE', #305, 5.000000000000000000 ) ;
#879 = AXIS2_PLACEMENT_3D ( 'NONE', #1185, #289, #692 ) ;
#880 = ORIENTED_EDGE ( 'NONE', *, *, #488, .T. ) ;
#881 = VERTEX_POINT ( 'NONE', #886 ) ;
#882 = DIRECTION ( 'NONE',  ( 0.000000000000000000, 0.000000000000000000, -1.000000000000000000 ) ) ;
#883 = DIRECTION ( 'NONE',  ( 0.000000000000000000, -1.000000000000000000, 0.000000000000000000 ) ) ;
#884 = VERTEX_POINT ( 'NONE', #585 ) ;
#885 = ORIENTED_EDGE ( 'NONE', *, *, #291, .T. ) ;
#886 = CARTESIAN_POINT ( 'NONE',  ( 2.000000000000000000, 4.582575694955840717, 0.000000000000000000 ) ) ;
#887 = CARTESIAN_POINT ( 'NONE',  ( 0.000000000000000000, 0.000000000000000000, 0.000000000000000000 ) ) ;
#888 = EDGE_CURVE ( 'NONE', #62, #767, #1277, .T. ) ;
#889 = CARTESIAN_POINT ( 'NONE',  ( 70.00000000000000000, 0.000000000000000000, 210.0000000000000284 ) ) ;
#890 = EDGE_LOOP ( 'NONE', ( #1075, #459, #862, #343 ) ) ;
#891 = DIRECTION ( 'NONE',  ( 0.000000000000000000, 1.000000000000000000, 0.000000000000000000 ) ) ;
#892 = LINE ( 'NONE', #67, #641 ) ;
#893 = AXIS2_PLACEMENT_3D ( 'NONE', #431, #696, #1043 ) ;
#894 = LINE ( 'NONE', #1286, #139 ) ;
#895 = CARTESIAN_POINT ( 'NONE',  ( 0.000000000000000000, 0.000000000000000000, 210.0000000000000284 ) ) ;
#896 = EDGE_LOOP ( 'NONE', ( #508, #108, #976, #1059 ) ) ;
#897 = CARTESIAN_POINT ( 'NONE',  ( 0.000000000000000000, 0.000000000000000000, 0.000000000000000000 ) ) ;
#898 = EDGE_CURVE ( 'NONE', #248, #617, #859, .T. ) ;
#899 = CARTESIAN_POINT ( 'NONE',  ( 1.999999999999999112, -7.228416147400482217, 230.0000000000000000 ) ) ;
#900 = DIRECTION ( 'NONE',  ( 0.000000000000000000, 0.000000000000000000, 1.000000000000000000 ) ) ;
#901 = CARTESIAN_POINT ( 'NONE',  ( 11.76470588235293668, 22.05882352941176805, 230.0000000000000000 ) ) ;
#902 = ORIENTED_EDGE ( 'NONE', *, *, #187, .F. ) ;
#903 = CARTESIAN_POINT ( 'NONE',  ( 0.000000000000000000, 0.000000000000000000, 20.00000000000000000 ) ) ;
#904 = CC_DESIGN_PERSON_AND_ORGANIZATION_ASSIGNMENT ( #542, #377, ( #533 ) ) ;
#905 = DIRECTION ( 'NONE',  ( -1.000000000000000000, 0.000000000000000000, -0.000000000000000000 ) ) ;
#906 = DIRECTION ( 'NONE',  ( 0.000000000000000000, 1.000000000000000000, 0.000000000000000000 ) ) ;
#907 = PLANE ( 'NONE',  #278 ) ;
#908 = ORIENTED_EDGE ( 'NONE', *, *, #1186, .T. ) ;
#909 = FACE_OUTER_BOUND ( 'NONE', #570, .T. ) ;
#910 = LINE ( 'NONE', #535, #1264 ) ;
#911 = CIRCLE ( 'NONE', #368, 25.00000000000000000 ) ;
#912 = EDGE_CURVE ( 'NONE', #15, #446, #645, .T. ) ;
#913 = DIRECTION ( 'NONE',  ( 0.000000000000000000, 0.000000000000000000, -1.000000000000000000 ) ) ;
#914 = DIRECTION ( 'NONE',  ( 0.000000000000000000, 0.000000000000000000, -1.000000000000000000 ) ) ;
#915 = VECTOR ( 'NONE', #298, 1000.000000000000000 ) ;
#916 = ORIENTED_EDGE ( 'NONE', *, *, #565, .F. ) ;
#917 = PLANE ( 'NONE',  #1020 ) ;
#918 = DIRECTION ( 'NONE',  ( 0.000000000000000000, 1.000000000000000000, 0.000000000000000000 ) ) ;
#919 = DIRECTION ( 'NONE',  ( -0.000000000000000000, -0.000000000000000000, 1.000000000000000000 ) ) ;
#920 = CARTESIAN_POINT ( 'NONE',  ( 90.00000000000000000, 0.000000000000000000, 0.000000000000000000 ) ) ;
#921 = EDGE_CURVE ( 'NONE', #62, #502, #192, .T. ) ;
#922 = ORIENTED_EDGE ( 'NONE', *, *, #688, .F. ) ;
#923 = CARTESIAN_POINT ( 'NONE',  ( 2.000000000000000000, -7.228416147400480440, 0.000000000000000000 ) ) ;
#924 = VERTEX_POINT ( 'NONE', #318 ) ;
#925 = DIRECTION ( 'NONE',  ( 0.000000000000000000, 0.000000000000000000, -1.000000000000000000 ) ) ;
#926 = DIRECTION ( 'NONE',  ( -0.000000000000000000, -0.000000000000000000, -1.000000000000000000 ) ) ;
#927 = CARTESIAN_POINT ( 'NONE',  ( -2.000000000000000000, -7.228416147400480440, 20.00000000000000000 ) ) ;
#928 = ADVANCED_FACE ( 'NONE', ( #930 ), #1008, .F. ) ;
#929 = ORIENTED_EDGE ( 'NONE', *, *, #656, .F. ) ;
#930 = FACE_OUTER_BOUND ( 'NONE', #145, .T. ) ;
#931 = EDGE_CURVE ( 'NONE', #761, #104, #1099, .T. ) ;
#932 = CARTESIAN_POINT ( 'NONE',  ( 11.76470588235294024, -22.05882352941176450, 210.0000000000000284 ) ) ;
#933 = DIRECTION ( 'NONE',  ( -0.000000000000000000, -0.000000000000000000, -1.000000000000000000 ) ) ;
#934 = CC_DESIGN_APPROVAL ( #297, ( #533 ) ) ;
#935 = DIRECTION ( 'NONE',  ( 1.000000000000000000, 0.000000000000000000, 0.000000000000000000 ) ) ;
#936 = CIRCLE ( 'NONE', #727, 7.500000000000000888 ) ;
#937 = ORIENTED_EDGE ( 'NONE', *, *, #285, .T. ) ;
#938 = AXIS2_PLACEMENT_3D ( 'NONE', #695, #1278, #782 ) ;
#939 = DIRECTION ( 'NONE',  ( -0.000000000000000000, -0.000000000000000000, -1.000000000000000000 ) ) ;
#940 = FACE_BOUND ( 'NONE', #129, .T. ) ;
#941 = DIRECTION ( 'NONE',  ( 0.000000000000000000, 0.000000000000000000, 1.000000000000000000 ) ) ;
#942 = ORIENTED_EDGE ( 'NONE', *, *, #931, .F. ) ;
#943 = ORIENTED_EDGE ( 'NONE', *, *, #341, .F. ) ;
#944 = CARTESIAN_POINT ( 'NONE',  ( 2.000000000000000000, -4.582575694955840717, 244.1421356237309794 ) ) ;
#945 = ADVANCED_FACE ( 'NONE', ( #2 ), #16, .F. ) ;
#946 = PERSON_AND_ORGANIZATION ( #658, #132 ) ;
#947 = LINE ( 'NONE', #531, #701 ) ;
#948 = ORIENTED_EDGE ( 'NONE', *, *, #992, .F. ) ;
#949 = ORIENTED_EDGE ( 'NONE', *, *, #712, .F. ) ;
#950 = CARTESIAN_POINT ( 'NONE',  ( -1.999999999999999112, -4.582575694955839829, 210.0000000000000284 ) ) ;
#951 = PERSON_AND_ORGANIZATION ( #658, #132 ) ;
#952 = DIRECTION ( 'NONE',  ( -0.000000000000000000, -0.000000000000000000, 1.000000000000000000 ) ) ;
#953 = EDGE_CURVE ( 'NONE', #322, #317, #21, .T. ) ;
#954 = AXIS2_PLACEMENT_3D ( 'NONE', #443, #919, #339 ) ;
#955 = ORIENTED_EDGE ( 'NONE', *, *, #1101, .T. ) ;
#956 = VECTOR ( 'NONE', #925, 1000.000000000000000 ) ;
#957 = EDGE_LOOP ( 'NONE', ( #1021, #854, #922, #167 ) ) ;
#958 = DIRECTION ( 'NONE',  ( -0.000000000000000000, -0.000000000000000000, 1.000000000000000000 ) ) ;
#959 = VECTOR ( 'NONE', #708, 1000.000000000000000 ) ;
#960 = APPROVAL_STATUS ( 'not_yet_approved' ) ;
#961 = LINE ( 'NONE', #1234, #1198 ) ;
#962 = ORIENTED_EDGE ( 'NONE', *, *, #794, .T. ) ;
#963 = ORIENTED_EDGE ( 'NONE', *, *, #382, .T. ) ;
#964 = CYLINDRICAL_SURFACE ( 'NONE', #646, 5.000000000000000000 ) ;
#965 = DIRECTION ( 'NONE',  ( 0.000000000000000000, 0.000000000000000000, 1.000000000000000000 ) ) ;
#966 = CYLINDRICAL_SURFACE ( 'NONE', #5, 5.000000000000000000 ) ;
#967 = ORIENTED_EDGE ( 'NONE', *, *, #325, .F. ) ;
#968 = EDGE_CURVE ( 'NONE', #43, #761, #828, .T. ) ;
#969 = ORIENTED_EDGE ( 'NONE', *, *, #712, .T. ) ;
#970 = LINE ( 'NONE', #944, #1125 ) ;
#971 = ADVANCED_FACE ( 'NONE', ( #909 ), #917, .F. ) ;
#972 = COORDINATED_UNIVERSAL_TIME_OFFSET ( 3, 30, .AHEAD. ) ;
#973 = PLANE ( 'NONE',  #1201 ) ;
#974 = ORIENTED_EDGE ( 'NONE', *, *, #1077, .T. ) ;
#975 = CIRCLE ( 'NONE', #45, 7.500000000000000888 ) ;
#976 = ORIENTED_EDGE ( 'NONE', *, *, #425, .F. ) ;
#977 = CARTESIAN_POINT ( 'NONE',  ( -2.000000000000000000, 7.228416147400480440, 0.000000000000000000 ) ) ;
#978 = AXIS2_PLACEMENT_3D ( 'NONE', #698, #277, #1003 ) ;
#979 = AXIS2_PLACEMENT_3D ( 'NONE', #94, #900, #1293 ) ;
#980 = CARTESIAN_POINT ( 'NONE',  ( 50.00000000000002842, 12.49999999999999645, 230.0000000000000000 ) ) ;
#981 = ORIENTED_EDGE ( 'NONE', *, *, #188, .T. ) ;
#982 = ORIENTED_EDGE ( 'NONE', *, *, #839, .F. ) ;
#983 = DIRECTION ( 'NONE',  ( 1.000000000000000000, 0.000000000000000000, 0.000000000000000000 ) ) ;
#984 = EDGE_CURVE ( 'NONE', #780, #452, #817, .T. ) ;
#985 = CARTESIAN_POINT ( 'NONE',  ( 0.000000000000000000, 0.000000000000000000, -14.14213562373095279 ) ) ;
#986 = VERTEX_POINT ( 'NONE', #823 ) ;
#987 = ORIENTED_EDGE ( 'NONE', *, *, #526, .T. ) ;
#988 = DIRECTION ( 'NONE',  ( 0.000000000000000000, 0.000000000000000000, 1.000000000000000000 ) ) ;
#989 = CARTESIAN_POINT ( 'NONE',  ( 2.000000000000000000, -7.228416147400480440, 20.00000000000000000 ) ) ;
#990 = EDGE_LOOP ( 'NONE', ( #566, #207, #1251, #77 ) ) ;
#991 = CC_DESIGN_DATE_AND_TIME_ASSIGNMENT ( #245, #46, ( #533 ) ) ;
#992 = EDGE_CURVE ( 'NONE', #254, #1082, #204, .T. ) ;
#993 = VERTEX_POINT ( 'NONE', #312 ) ;
#994 = CARTESIAN_POINT ( 'NONE',  ( 1.999999999999998668, -7.228416147400480440, 245.5241746962600473 ) ) ;
#995 = CARTESIAN_POINT ( 'NONE',  ( -1.999999999999999112, -4.582575694955839829, 20.00000000000000000 ) ) ;
#996 = CLOSED_SHELL ( 'NONE', ( #271, #1253, #605, #143, #174, #1047, #496, #65, #681, #408, #1250, #1118, #1210, #226, #723, #85, #419, #796, #572, #802, #694, #1290, #465, #841, #971, #810, #472, #674, #1091, #1292, #428, #763, #928, #57, #611, #622, #1111, #945 ) ) ;
#997 = AXIS2_PLACEMENT_3D ( 'NONE', #1004, #563, #99 ) ;
#998 = VECTOR ( 'NONE', #958, 1000.000000000000000 ) ;
#999 = DIRECTION ( 'NONE',  ( -0.000000000000000000, -0.000000000000000000, 1.000000000000000000 ) ) ;
#1000 = DIRECTION ( 'NONE',  ( 0.000000000000000000, 0.000000000000000000, -1.000000000000000000 ) ) ;
#1001 = EDGE_CURVE ( 'NONE', #1072, #58, #1284, .T. ) ;
#1002 = ORIENTED_EDGE ( 'NONE', *, *, #739, .T. ) ;
#1003 = DIRECTION ( 'NONE',  ( 1.000000000000000000, 0.000000000000000000, 0.000000000000000000 ) ) ;
#1004 = CARTESIAN_POINT ( 'NONE',  ( 50.00000000000000000, -93.75000000000008527, 230.0000000000000000 ) ) ;
#1005 = DIRECTION ( 'NONE',  ( -1.000000000000000000, -0.000000000000000000, -0.000000000000000000 ) ) ;
#1006 = DIRECTION ( 'NONE',  ( 0.000000000000000000, 0.000000000000000000, -1.000000000000000000 ) ) ;
#1007 = VERTEX_POINT ( 'NONE', #421 ) ;
#1008 = PLANE ( 'NONE',  #1267 ) ;
#1009 = CARTESIAN_POINT ( 'NONE',  ( 90.00000000000000000, 12.49999999999999822, 0.000000000000000000 ) ) ;
#1010 = EDGE_CURVE ( 'NONE', #544, #1045, #574, .T. ) ;
#1011 = DIRECTION ( 'NONE',  ( 0.000000000000000000, 0.000000000000000000, -1.000000000000000000 ) ) ;
#1012 = CARTESIAN_POINT ( 'NONE',  ( 2.000000000000000000, 4.582575694955840717, -14.14213562373095279 ) ) ;
#1013 = VERTEX_POINT ( 'NONE', #604 ) ;
#1014 = DIRECTION ( 'NONE',  ( 1.000000000000000000, 2.168404344971008868E-16, -0.000000000000000000 ) ) ;
#1015 = CARTESIAN_POINT ( 'NONE',  ( 50.00000000000000000, -93.75000000000008527, 20.00000000000000000 ) ) ;
#1016 = CIRCLE ( 'NONE', #809, 25.00000000000000000 ) ;
#1017 = AXIS2_PLACEMENT_3D ( 'NONE', #359, #249, #750 ) ;
#1018 = CARTESIAN_POINT ( 'NONE',  ( 5.000000000000000000, 0.000000000000000000, 0.000000000000000000 ) ) ;
#1019 = DIRECTION ( 'NONE',  ( 1.000000000000000000, 0.000000000000000000, 0.000000000000000000 ) ) ;
#1020 = AXIS2_PLACEMENT_3D ( 'NONE', #1029, #1206, #11 ) ;
#1021 = ORIENTED_EDGE ( 'NONE', *, *, #210, .F. ) ;
#1022 = CARTESIAN_POINT ( 'NONE',  ( 90.00000000000000000, 0.000000000000000000, 20.00000000000000000 ) ) ;
#1023 = DIRECTION ( 'NONE',  ( 0.000000000000000000, 0.000000000000000000, 1.000000000000000000 ) ) ;
#1024 = EDGE_CURVE ( 'NONE', #1178, #1013, #610, .T. ) ;
#1025 = DIRECTION ( 'NONE',  ( -1.000000000000000000, 0.000000000000000000, 0.000000000000000000 ) ) ;
#1026 = DIRECTION ( 'NONE',  ( -0.000000000000000000, -0.000000000000000000, 1.000000000000000000 ) ) ;
#1027 = EDGE_CURVE ( 'NONE', #131, #357, #1212, .T. ) ;
#1028 = ORIENTED_EDGE ( 'NONE', *, *, #921, .T. ) ;
#1029 = CARTESIAN_POINT ( 'NONE',  ( 90.00000000000000000, -12.49999999999999822, 210.0000000000000284 ) ) ;
#1030 = DIRECTION ( 'NONE',  ( 0.000000000000000000, 0.000000000000000000, -1.000000000000000000 ) ) ;
#1031 = CARTESIAN_POINT ( 'NONE',  ( 0.000000000000000000, 0.000000000000000000, 230.0000000000000000 ) ) ;
#1032 = CARTESIAN_POINT ( 'NONE',  ( 0.000000000000000000, 0.000000000000000000, 20.00000000000000000 ) ) ;
#1033 = VERTEX_POINT ( 'NONE', #323 ) ;
#1034 = CARTESIAN_POINT ( 'NONE',  ( -2.000000000000000000, 4.582575694955840717, 230.0000000000000000 ) ) ;
#1035 = DIRECTION ( 'NONE',  ( 0.000000000000000000, 0.000000000000000000, -1.000000000000000000 ) ) ;
#1036 = DIRECTION ( 'NONE',  ( 1.000000000000000000, 0.000000000000000000, 0.000000000000000000 ) ) ;
#1037 = CIRCLE ( 'NONE', #236, 9.999999999999994671 ) ;
#1038 = ORIENTED_EDGE ( 'NONE', *, *, #128, .F. ) ;
#1039 = AXIS2_PLACEMENT_3D ( 'NONE', #385, #73, #983 ) ;
#1040 = EDGE_CURVE ( 'NONE', #86, #924, #837, .T. ) ;
#1041 = EDGE_LOOP ( 'NONE', ( #539, #962, #868, #1133 ) ) ;
#1042 = CARTESIAN_POINT ( 'NONE',  ( -25.00000000000000000, 0.000000000000000000, 0.000000000000000000 ) ) ;
#1043 = DIRECTION ( 'NONE',  ( -1.000000000000000000, 0.000000000000000000, 0.000000000000000000 ) ) ;
#1044 = VERTEX_POINT ( 'NONE', #1194 ) ;
#1045 = VERTEX_POINT ( 'NONE', #1086 ) ;
#1046 = DIRECTION ( 'NONE',  ( -1.000000000000000000, 0.000000000000000000, 0.000000000000000000 ) ) ;
#1047 = ADVANCED_FACE ( 'NONE', ( #75 ), #1107, .F. ) ;
#1048 = APPLICATION_PROTOCOL_DEFINITION ( 'international standard', 'config_control_design', 1994, #269 ) ;
#1049 = CARTESIAN_POINT ( 'NONE',  ( 1.999999999999999112, -4.582575694955839829, 210.0000000000000284 ) ) ;
#1050 = ORIENTED_EDGE ( 'NONE', *, *, #481, .T. ) ;
#1051 = EDGE_LOOP ( 'NONE', ( #63, #661, #288, #1038 ) ) ;
#1052 = FACE_OUTER_BOUND ( 'NONE', #470, .T. ) ;
#1053 = CALENDAR_DATE ( 2026, 23, 7 ) ;
#1054 = DIRECTION ( 'NONE',  ( 0.000000000000000000, 0.000000000000000000, 1.000000000000000000 ) ) ;
#1055 = CIRCLE ( 'NONE', #954, 9.999999999999994671 ) ;
#1056 = VERTEX_POINT ( 'NONE', #389 ) ;
#1057 = CIRCLE ( 'NONE', #591, 25.00000000000000000 ) ;
#1058 = VECTOR ( 'NONE', #769, 1000.000000000000000 ) ;
#1059 = ORIENTED_EDGE ( 'NONE', *, *, #48, .T. ) ;
#1060 = DIRECTION ( 'NONE',  ( -0.000000000000000000, -0.000000000000000000, -1.000000000000000000 ) ) ;
#1061 = VECTOR ( 'NONE', #509, 1000.000000000000000 ) ;
#1062 = APPROVAL_ROLE ( '' ) ;
#1063 = CARTESIAN_POINT ( 'NONE',  ( -2.000000000000000000, 7.228416147400480440, -15.52417469626002777 ) ) ;
#1064 = ORIENTED_EDGE ( 'NONE', *, *, #488, .F. ) ;
#1065 = EDGE_CURVE ( 'NONE', #1271, #254, #495, .T. ) ;
#1066 = ORIENTED_EDGE ( 'NONE', *, *, #31, .F. ) ;
#1067 = LINE ( 'NONE', #1252, #158 ) ;
#1068 = CARTESIAN_POINT ( 'NONE',  ( 0.000000000000000000, 0.000000000000000000, 0.000000000000000000 ) ) ;
#1069 = VERTEX_POINT ( 'NONE', #397 ) ;
#1070 = ORIENTED_EDGE ( 'NONE', *, *, #737, .F. ) ;
#1071 = DIRECTION ( 'NONE',  ( -0.000000000000000000, -0.000000000000000000, 1.000000000000000000 ) ) ;
#1072 = VERTEX_POINT ( 'NONE', #980 ) ;
#1073 = APPROVAL_PERSON_ORGANIZATION ( #946, #297, #752 ) ;
#1074 = CIRCLE ( 'NONE', #388, 81.25000000000008527 ) ;
#1075 = ORIENTED_EDGE ( 'NONE', *, *, #581, .F. ) ;
#1076 = DIRECTION ( 'NONE',  ( -0.000000000000000000, -0.000000000000000000, 1.000000000000000000 ) ) ;
#1077 = EDGE_CURVE ( 'NONE', #15, #303, #100, .T. ) ;
#1078 = VECTOR ( 'NONE', #1182, 1000.000000000000000 ) ;
#1079 = AXIS2_PLACEMENT_3D ( 'NONE', #1031, #1011, #115 ) ;
#1080 = DIRECTION ( 'NONE',  ( 1.000000000000000000, 0.000000000000000000, 0.000000000000000000 ) ) ;
#1081 = VERTEX_POINT ( 'NONE', #1188 ) ;
#1082 = VERTEX_POINT ( 'NONE', #482 ) ;
#1083 = CARTESIAN_POINT ( 'NONE',  ( -2.000000000000000000, 7.228416147400480440, 0.000000000000000000 ) ) ;
#1084 = PRODUCT_RELATED_PRODUCT_CATEGORY ( 'detail', '', ( #631 ) ) ;
#1085 = EDGE_CURVE ( 'NONE', #446, #248, #292, .T. ) ;
#1086 = CARTESIAN_POINT ( 'NONE',  ( 90.00000000000000000, 12.49999999999999822, 230.0000000000000000 ) ) ;
#1087 = ORIENTED_EDGE ( 'NONE', *, *, #558, .T. ) ;
#1088 = VERTEX_POINT ( 'NONE', #684 ) ;
#1089 = CARTESIAN_POINT ( 'NONE',  ( 2.000000000000000000, 7.228416147400480440, 0.000000000000000000 ) ) ;
#1090 = LINE ( 'NONE', #205, #412 ) ;
#1091 = ADVANCED_FACE ( 'NONE', ( #506 ), #200, .T. ) ;
#1092 = DIRECTION ( 'NONE',  ( -1.000000000000000000, 0.000000000000000000, 0.000000000000000000 ) ) ;
#1093 = FACE_OUTER_BOUND ( 'NONE', #1144, .T. ) ;
#1094 = VERTEX_POINT ( 'NONE', #689 ) ;
#1095 = CYLINDRICAL_SURFACE ( 'NONE', #6, 81.25000000000007105 ) ;
#1096 = DIRECTION ( 'NONE',  ( 1.000000000000000000, -2.168404344971008868E-16, 0.000000000000000000 ) ) ;
#1097 = AXIS2_PLACEMENT_3D ( 'NONE', #843, #1054, #848 ) ;
#1098 = VECTOR ( 'NONE', #4, 1000.000000000000000 ) ;
#1099 = CIRCLE ( 'NONE', #392, 12.49999999999999645 ) ;
#1100 = CARTESIAN_POINT ( 'NONE',  ( 0.000000000000000000, 0.000000000000000000, 0.000000000000000000 ) ) ;
#1101 = EDGE_CURVE ( 'NONE', #1103, #653, #1181, .T. ) ;
#1102 = PLANE ( 'NONE',  #1177 ) ;
#1103 = VERTEX_POINT ( 'NONE', #183 ) ;
#1104 = CARTESIAN_POINT ( 'NONE',  ( -2.000000000000000000, 4.582575694955840717, -14.14213562373095279 ) ) ;
#1105 = LINE ( 'NONE', #165, #595 ) ;
#1106 = MANIFOLD_SOLID_BREP ( 'Mirror1', #996 ) ;
#1107 = CYLINDRICAL_SURFACE ( 'NONE', #773, 5.000000000000000000 ) ;
#1108 = CARTESIAN_POINT ( 'NONE',  ( 0.000000000000000000, 0.000000000000000000, 20.00000000000000000 ) ) ;
#1109 = ORIENTED_EDGE ( 'NONE', *, *, #1001, .F. ) ;
#1110 = DIRECTION ( 'NONE',  ( -1.000000000000000000, 0.000000000000000000, 0.000000000000000000 ) ) ;
#1111 = ADVANCED_FACE ( 'NONE', ( #586 ), #592, .F. ) ;
#1112 = CARTESIAN_POINT ( 'NONE',  ( -1.999999999999999556, 4.582575694955840717, 20.00000000000000000 ) ) ;
#1113 = LINE ( 'NONE', #330, #719 ) ;
#1114 = CARTESIAN_POINT ( 'NONE',  ( 1.999999999999999112, -4.582575694955839829, 20.00000000000000000 ) ) ;
#1115 = ORIENTED_EDGE ( 'NONE', *, *, #898, .T. ) ;
#1116 = DIRECTION ( 'NONE',  ( 1.000000000000000000, 0.000000000000000000, 0.000000000000000000 ) ) ;
#1117 = ORIENTED_EDGE ( 'NONE', *, *, #526, .F. ) ;
#1118 = ADVANCED_FACE ( 'NONE', ( #381 ), #486, .T. ) ;
#1119 = LINE ( 'NONE', #230, #683 ) ;
#1120 = LOCAL_TIME ( 16, 4, 47.00000000000000000, #355 ) ;
#1121 = CIRCLE ( 'NONE', #135, 5.000000000000000000 ) ;
#1122 = AXIS2_PLACEMENT_3D ( 'NONE', #742, #1139, #644 ) ;
#1123 = FACE_OUTER_BOUND ( 'NONE', #1151, .T. ) ;
#1124 = CARTESIAN_POINT ( 'NONE',  ( 2.000000000000000000, -7.228416147400480440, 20.00000000000000000 ) ) ;
#1125 = VECTOR ( 'NONE', #64, 1000.000000000000000 ) ;
#1126 = PRODUCT_DEFINITION_SHAPE ( 'NONE', 'NONE',  #533 ) ;
#1127 = ORIENTED_EDGE ( 'NONE', *, *, #257, .F. ) ;
#1128 = CARTESIAN_POINT ( 'NONE',  ( 2.000000000000000000, -7.228416147400480440, 230.0000000000000000 ) ) ;
#1129 = CARTESIAN_POINT ( 'NONE',  ( 0.000000000000000000, 0.000000000000000000, 210.0000000000000284 ) ) ;
#1130 = FACE_OUTER_BOUND ( 'NONE', #792, .T. ) ;
#1131 = CARTESIAN_POINT ( 'NONE',  ( -2.000000000000000000, -4.582575694955840717, 230.0000000000000000 ) ) ;
#1132 = EDGE_LOOP ( 'NONE', ( #1265, #119, #141, #1229 ) ) ;
#1133 = ORIENTED_EDGE ( 'NONE', *, *, #746, .F. ) ;
#1134 = DIRECTION ( 'NONE',  ( 1.000000000000000000, -2.168404344971008868E-16, 0.000000000000000000 ) ) ;
#1135 = CARTESIAN_POINT ( 'NONE',  ( 0.000000000000000000, 0.000000000000000000, 20.00000000000000000 ) ) ;
#1136 = EDGE_CURVE ( 'NONE', #1044, #322, #437, .T. ) ;
#1137 = ORIENTED_EDGE ( 'NONE', *, *, #668, .F. ) ;
#1138 = ORIENTED_EDGE ( 'NONE', *, *, #1065, .F. ) ;
#1139 = DIRECTION ( 'NONE',  ( 0.000000000000000000, 0.000000000000000000, -1.000000000000000000 ) ) ;
#1140 = AXIS2_PLACEMENT_3D ( 'NONE', #804, #507, #520 ) ;
#1141 = APPROVAL_DATE_TIME ( #60, #309 ) ;
#1142 = CARTESIAN_POINT ( 'NONE',  ( 2.000000000000000000, -4.582575694955840717, 0.000000000000000000 ) ) ;
#1143 = VECTOR ( 'NONE', #197, 1000.000000000000000 ) ;
#1144 = EDGE_LOOP ( 'NONE', ( #550, #686, #1147, #776 ) ) ;
#1145 = AXIS2_PLACEMENT_3D ( 'NONE', #1100, #601, #812 ) ;
#1146 = EDGE_CURVE ( 'NONE', #1081, #51, #84, .T. ) ;
#1147 = ORIENTED_EDGE ( 'NONE', *, *, #968, .F. ) ;
#1148 = DIRECTION ( 'NONE',  ( 0.000000000000000000, -1.000000000000000000, 0.000000000000000000 ) ) ;
#1149 = CARTESIAN_POINT ( 'NONE',  ( 50.00000000000002842, 12.49999999999999645, 0.000000000000000000 ) ) ;
#1150 = ORIENTED_EDGE ( 'NONE', *, *, #39, .T. ) ;
#1151 = EDGE_LOOP ( 'NONE', ( #540, #766, #234, #420, #196, #69, #497 ) ) ;
#1152 = CARTESIAN_POINT ( 'NONE',  ( 11.76470588235294024, -22.05882352941176450, 210.0000000000000284 ) ) ;
#1153 = CARTESIAN_POINT ( 'NONE',  ( 50.00000000000000000, -93.75000000000008527, 210.0000000000000284 ) ) ;
#1154 = ORIENTED_EDGE ( 'NONE', *, *, #352, .T. ) ;
#1155 = ORIENTED_EDGE ( 'NONE', *, *, #352, .F. ) ;
#1156 = CARTESIAN_POINT ( 'NONE',  ( 2.000000000000000000, -7.228416147400480440, 245.5241746962600473 ) ) ;
#1157 = EDGE_CURVE ( 'NONE', #527, #247, #894, .T. ) ;
#1158 = COORDINATED_UNIVERSAL_TIME_OFFSET ( 3, 30, .AHEAD. ) ;
#1159 = PLANE ( 'NONE',  #835 ) ;
#1160 = EDGE_LOOP ( 'NONE', ( #1287, #20, #584, #670 ) ) ;
#1161 = AXIS2_PLACEMENT_3D ( 'NONE', #1213, #314, #326 ) ;
#1162 = EDGE_LOOP ( 'NONE', ( #1109, #603, #176, #151 ) ) ;
#1163 = LINE ( 'NONE', #265, #74 ) ;
#1164 = VECTOR ( 'NONE', #1217, 1000.000000000000000 ) ;
#1165 = DIRECTION ( 'NONE',  ( -0.000000000000000000, -0.000000000000000000, 1.000000000000000000 ) ) ;
#1166 = EDGE_CURVE ( 'NONE', #452, #993, #181, .T. ) ;
#1167 = ORIENTED_EDGE ( 'NONE', *, *, #1193, .F. ) ;
#1168 = ORIENTED_EDGE ( 'NONE', *, *, #182, .F. ) ;
#1169 = LINE ( 'NONE', #762, #372 ) ;
#1170 = DESIGN_CONTEXT ( 'detailed design', #387, 'design' ) ;
#1171 = EDGE_CURVE ( 'NONE', #785, #51, #1298, .T. ) ;
#1172 = ORIENTED_EDGE ( 'NONE', *, *, #853, .F. ) ;
#1173 = VERTEX_POINT ( 'NONE', #702 ) ;
#1174 = FACE_OUTER_BOUND ( 'NONE', #957, .T. ) ;
#1175 = CARTESIAN_POINT ( 'NONE',  ( 0.000000000000000000, 0.000000000000000000, 210.0000000000000284 ) ) ;
#1176 = ORIENTED_EDGE ( 'NONE', *, *, #558, .F. ) ;
#1177 = AXIS2_PLACEMENT_3D ( 'NONE', #195, #404, #1000 ) ;
#1178 = VERTEX_POINT ( 'NONE', #409 ) ;
#1179 = LINE ( 'NONE', #579, #220 ) ;
#1180 = CIRCLE ( 'NONE', #1161, 5.000000000000000000 ) ;
#1181 = CIRCLE ( 'NONE', #619, 81.25000000000008527 ) ;
#1182 = DIRECTION ( 'NONE',  ( -0.000000000000000000, -0.000000000000000000, -1.000000000000000000 ) ) ;
#1183 = LINE ( 'NONE', #469, #855 ) ;
#1184 = ORIENTED_EDGE ( 'NONE', *, *, #366, .T. ) ;
#1185 = CARTESIAN_POINT ( 'NONE',  ( 50.00000000000001421, 93.75000000000009948, 20.00000000000000000 ) ) ;
#1186 = EDGE_CURVE ( 'NONE', #1082, #1178, #415, .T. ) ;
#1187 = CARTESIAN_POINT ( 'NONE',  ( 90.00000000000000000, -12.49999999999999822, 210.0000000000000284 ) ) ;
#1188 = CARTESIAN_POINT ( 'NONE',  ( 1.999999999999999112, 4.582575694955839829, 20.00000000000000000 ) ) ;
#1189 = CARTESIAN_POINT ( 'NONE',  ( 70.00000000000000000, 0.000000000000000000, 20.00000000000000000 ) ) ;
#1190 = ORIENTED_EDGE ( 'NONE', *, *, #1040, .T. ) ;
#1191 = CARTESIAN_POINT ( 'NONE',  ( 50.00000000000000000, -93.75000000000008527, 210.0000000000000284 ) ) ;
#1192 = DIRECTION ( 'NONE',  ( 1.000000000000000000, 2.168404344971008868E-16, 0.000000000000000000 ) ) ;
#1193 = EDGE_CURVE ( 'NONE', #679, #1295, #576, .T. ) ;
#1194 = CARTESIAN_POINT ( 'NONE',  ( -2.000000000000000000, -7.228416147400480440, 210.0000000000000284 ) ) ;
#1195 = DIRECTION ( 'NONE',  ( 1.000000000000000000, 0.000000000000000000, 0.000000000000000000 ) ) ;
#1196 = ORIENTED_EDGE ( 'NONE', *, *, #1024, .T. ) ;
#1197 = DIRECTION ( 'NONE',  ( 1.000000000000000000, 0.000000000000000000, 0.000000000000000000 ) ) ;
#1198 = VECTOR ( 'NONE', #647, 1000.000000000000000 ) ;
#1199 = DIRECTION ( 'NONE',  ( -0.000000000000000000, -0.000000000000000000, -1.000000000000000000 ) ) ;
#1200 = VECTOR ( 'NONE', #1199, 1000.000000000000000 ) ;
#1201 = AXIS2_PLACEMENT_3D ( 'NONE', #1063, #905, #296 ) ;
#1202 = AXIS2_PLACEMENT_3D ( 'NONE', #1296, #1076, #806 ) ;
#1203 = CARTESIAN_POINT ( 'NONE',  ( 50.00000000000001421, 93.75000000000009948, 210.0000000000000284 ) ) ;
#1204 = FACE_OUTER_BOUND ( 'NONE', #1051, .T. ) ;
#1205 = ORIENTED_EDGE ( 'NONE', *, *, #130, .T. ) ;
#1206 = DIRECTION ( 'NONE',  ( -2.168404344971008868E-16, 1.000000000000000000, 0.000000000000000000 ) ) ;
#1207 = CARTESIAN_POINT ( 'NONE',  ( 2.000000000000000000, -7.228416147400480440, 210.0000000000000284 ) ) ;
#1208 = DIRECTION ( 'NONE',  ( -0.000000000000000000, -0.000000000000000000, -1.000000000000000000 ) ) ;
#1209 = DIRECTION ( 'NONE',  ( -1.000000000000000000, 0.000000000000000000, 0.000000000000000000 ) ) ;
#1210 = ADVANCED_FACE ( 'NONE', ( #530, #940, #1123 ), #417, .T. ) ;
#1211 = ORIENTED_EDGE ( 'NONE', *, *, #1136, .T. ) ;
#1212 = LINE ( 'NONE', #1128, #596 ) ;
#1213 = CARTESIAN_POINT ( 'NONE',  ( 0.000000000000000000, 0.000000000000000000, 210.0000000000000284 ) ) ;
#1214 = DIRECTION ( 'NONE',  ( -1.000000000000000000, 0.000000000000000000, 0.000000000000000000 ) ) ;
#1215 = CARTESIAN_POINT ( 'NONE',  ( -2.000000000000000000, -7.228416147400480440, -15.52417469626002777 ) ) ;
#1216 = ORIENTED_EDGE ( 'NONE', *, *, #1259, .F. ) ;
#1217 = DIRECTION ( 'NONE',  ( 0.000000000000000000, 1.000000000000000000, 0.000000000000000000 ) ) ;
#1218 = CARTESIAN_POINT ( 'NONE',  ( -2.000000000000000000, 7.228416147400480440, 20.00000000000000000 ) ) ;
#1219 = APPROVAL ( #960, 'UNSPECIFIED' ) ;
#1220 = EDGE_CURVE ( 'NONE', #30, #131, #350, .T. ) ;
#1221 = AXIS2_PLACEMENT_3D ( 'NONE', #163, #650, #875 ) ;
#1222 = CYLINDRICAL_SURFACE ( 'NONE', #770, 5.000000000000000000 ) ;
#1223 = AXIS2_PLACEMENT_3D ( 'NONE', #286, #492, #1092 ) ;
#1224 = ORIENTED_EDGE ( 'NONE', *, *, #581, .T. ) ;
#1225 = CARTESIAN_POINT ( 'NONE',  ( -2.000000000000000000, 7.228416147400480440, 210.0000000000000284 ) ) ;
#1226 = LINE ( 'NONE', #1207, #573 ) ;
#1227 = CARTESIAN_POINT ( 'NONE',  ( 50.00000000000000000, -93.75000000000008527, 20.00000000000000000 ) ) ;
#1228 = DIRECTION ( 'NONE',  ( -1.000000000000000000, 0.000000000000000000, 0.000000000000000000 ) ) ;
#1229 = ORIENTED_EDGE ( 'NONE', *, *, #705, .F. ) ;
#1230 = ORIENTED_EDGE ( 'NONE', *, *, #159, .T. ) ;
#1231 = DIRECTION ( 'NONE',  ( -0.000000000000000000, -0.000000000000000000, -1.000000000000000000 ) ) ;
#1232 = CC_DESIGN_PERSON_AND_ORGANIZATION_ASSIGNMENT ( #548, #448, ( #1239 ) ) ;
#1233 = DIRECTION ( 'NONE',  ( 0.000000000000000000, 0.000000000000000000, -1.000000000000000000 ) ) ;
#1234 = CARTESIAN_POINT ( 'NONE',  ( 2.000000000000000000, -7.228416147400480440, 230.0000000000000000 ) ) ;
#1235 = EDGE_CURVE ( 'NONE', #881, #1271, #815, .T. ) ;
#1236 = ORIENTED_EDGE ( 'NONE', *, *, #442, .T. ) ;
#1237 = ORIENTED_EDGE ( 'NONE', *, *, #1024, .F. ) ;
#1238 = CYLINDRICAL_SURFACE ( 'NONE', #1017, 81.25000000000009948 ) ;
#1239 = PRODUCT_DEFINITION_FORMATION_WITH_SPECIFIED_SOURCE ( 'ANY', '', #631, .NOT_KNOWN. ) ;
#1240 = VECTOR ( 'NONE', #349, 1000.000000000000000 ) ;
#1241 = FACE_BOUND ( 'NONE', #172, .T. ) ;
#1242 = CIRCLE ( 'NONE', #1283, 5.000000000000000000 ) ;
#1243 = EDGE_CURVE ( 'NONE', #43, #857, #1113, .T. ) ;
#1244 = ORIENTED_EDGE ( 'NONE', *, *, #1085, .F. ) ;
#1245 = ORIENTED_EDGE ( 'NONE', *, *, #560, .T. ) ;
#1246 = DIRECTION ( 'NONE',  ( 0.000000000000000000, 0.000000000000000000, 1.000000000000000000 ) ) ;
#1247 = APPROVAL_STATUS ( 'not_yet_approved' ) ;
#1248 = LINE ( 'NONE', #356, #494 ) ;
#1249 = ORIENTED_EDGE ( 'NONE', *, *, #14, .T. ) ;
#1250 = ADVANCED_FACE ( 'NONE', ( #126 ), #607, .F. ) ;
#1251 = ORIENTED_EDGE ( 'NONE', *, *, #732, .T. ) ;
#1252 = CARTESIAN_POINT ( 'NONE',  ( 90.00000000000000000, -12.49999999999999822, 210.0000000000000284 ) ) ;
#1253 = ADVANCED_FACE ( 'NONE', ( #211 ), #423, .F. ) ;
#1254 = PERSON_AND_ORGANIZATION ( #658, #132 ) ;
#1255 = FACE_OUTER_BOUND ( 'NONE', #117, .T. ) ;
#1256 = ORIENTED_EDGE ( 'NONE', *, *, #105, .T. ) ;
#1257 = EDGE_LOOP ( 'NONE', ( #799, #845, #1137, #987 ) ) ;
#1258 = LINE ( 'NONE', #1152, #998 ) ;
#1259 = EDGE_CURVE ( 'NONE', #243, #857, #215, .T. ) ;
#1260 = DATE_TIME_ROLE ( 'classification_date' ) ;
#1261 = DIRECTION ( 'NONE',  ( -0.000000000000000000, -0.000000000000000000, 1.000000000000000000 ) ) ;
#1262 = VERTEX_POINT ( 'NONE', #613 ) ;
#1263 = AXIS2_PLACEMENT_3D ( 'NONE', #458, #543, #1228 ) ;
#1264 = VECTOR ( 'NONE', #731, 1000.000000000000000 ) ;
#1265 = ORIENTED_EDGE ( 'NONE', *, *, #114, .F. ) ;
#1266 = DIRECTION ( 'NONE',  ( 0.000000000000000000, 0.000000000000000000, -1.000000000000000000 ) ) ;
#1267 = AXIS2_PLACEMENT_3D ( 'NONE', #721, #118, #124 ) ;
#1268 = EDGE_CURVE ( 'NONE', #986, #1044, #635, .T. ) ;
#1269 = DATE_AND_TIME ( #149, #491 ) ;
#1270 = CARTESIAN_POINT ( 'NONE',  ( 0.000000000000000000, 0.000000000000000000, 230.0000000000000000 ) ) ;
#1271 = VERTEX_POINT ( 'NONE', #1018 ) ;
#1272 = DIRECTION ( 'NONE',  ( 0.000000000000000000, 0.000000000000000000, -1.000000000000000000 ) ) ;
#1273 = CARTESIAN_POINT ( 'NONE',  ( -2.000000000000000000, 7.228416147400480440, 245.5241746962600473 ) ) ;
#1274 = EDGE_LOOP ( 'NONE', ( #264, #654, #691, #393 ) ) ;
#1275 = EDGE_CURVE ( 'NONE', #1173, #780, #1055, .T. ) ;
#1276 = ORIENTED_EDGE ( 'NONE', *, *, #148, .T. ) ;
#1277 = LINE ( 'NONE', #1083, #347 ) ;
#1278 = DIRECTION ( 'NONE',  ( -0.000000000000000000, -0.000000000000000000, -1.000000000000000000 ) ) ;
#1279 = ORIENTED_EDGE ( 'NONE', *, *, #642, .F. ) ;
#1280 = CIRCLE ( 'NONE', #25, 9.999999999999994671 ) ;
#1281 = EDGE_LOOP ( 'NONE', ( #140, #643 ) ) ;
#1282 = DIRECTION ( 'NONE',  ( 1.000000000000000000, 0.000000000000000000, 0.000000000000000000 ) ) ;
#1283 = AXIS2_PLACEMENT_3D ( 'NONE', #673, #199, #1285 ) ;
#1284 = CIRCLE ( 'NONE', #456, 81.25000000000009948 ) ;
#1285 = DIRECTION ( 'NONE',  ( 1.000000000000000000, 0.000000000000000000, 0.000000000000000000 ) ) ;
#1286 = CARTESIAN_POINT ( 'NONE',  ( -25.00000000000000000, 0.000000000000000000, 210.0000000000000284 ) ) ;
#1287 = ORIENTED_EDGE ( 'NONE', *, *, #1027, .F. ) ;
#1288 = ORIENTED_EDGE ( 'NONE', *, *, #565, .T. ) ;
#1289 = FACE_OUTER_BOUND ( 'NONE', #827, .T. ) ;
#1290 = ADVANCED_FACE ( 'NONE', ( #1130 ), #227, .T. ) ;
#1291 = CARTESIAN_POINT ( 'NONE',  ( 0.000000000000000000, 0.000000000000000000, 230.0000000000000000 ) ) ;
#1292 = ADVANCED_FACE ( 'NONE', ( #724, #18, #137 ), #537, .T. ) ;
#1293 = DIRECTION ( 'NONE',  ( 1.000000000000000000, 0.000000000000000000, 0.000000000000000000 ) ) ;
#1294 = DIRECTION ( 'NONE',  ( -0.000000000000000000, -0.000000000000000000, -1.000000000000000000 ) ) ;
#1295 = VERTEX_POINT ( 'NONE', #430 ) ;
#1296 = CARTESIAN_POINT ( 'NONE',  ( 90.00000000000000000, 0.000000000000000000, 210.0000000000000284 ) ) ;
#1297 = LINE ( 'NONE', #807, #1200 ) ;
#1298 = LINE ( 'NONE', #803, #915 ) ;
#1299 = CARTESIAN_POINT ( 'NONE',  ( -2.000000000000000000, 7.228416147400480440, 210.0000000000000284 ) ) ;
ENDSEC;
END-ISO-10303-21;
