ISO-10303-21;
HEADER;
FILE_DESCRIPTION (( 'STEP AP203' ),
    '1' );
FILE_NAME ('Link3Shaft_Default_sldprt.STEP',
    '2026-07-23T12:35:07',
    ( '' ),
    ( '' ),
    'SwSTEP 2.0',
    'SolidWorks 2025',
    '' );
FILE_SCHEMA (( 'CONFIG_CONTROL_DESIGN' ));
ENDSEC;

DATA;
#1 = APPROVAL_ROLE ( '' ) ;
#2 = ORIENTED_EDGE ( 'NONE', *, *, #164, .F. ) ;
#3 = CALENDAR_DATE ( 2026, 23, 7 ) ;
#4 = PERSON_AND_ORGANIZATION ( #149, #51 ) ;
#5 = ORIENTED_EDGE ( 'NONE', *, *, #132, .T. ) ;
#6 = LINE ( 'NONE', #56, #145 ) ;
#7 = VERTEX_POINT ( 'NONE', #100 ) ;
#8 = ORIENTED_EDGE ( 'NONE', *, *, #110, .F. ) ;
#9 = CC_DESIGN_PERSON_AND_ORGANIZATION_ASSIGNMENT ( #69, #66, ( #168 ) ) ;
#10 = PERSON_AND_ORGANIZATION_ROLE ( 'design_owner' ) ;
#11 = CALENDAR_DATE ( 2026, 23, 7 ) ;
#12 = DIRECTION ( 'NONE',  ( 1.000000000000000000, 0.000000000000000000, 0.000000000000000000 ) ) ;
#13 = APPROVAL ( #46, 'UNSPECIFIED' ) ;
#14 = APPROVAL_DATE_TIME ( #130, #41 ) ;
#15 = LOCAL_TIME ( 16, 5, 7.000000000000000000, #70 ) ;
#16 = APPROVAL_PERSON_ORGANIZATION ( #62, #13, #34 ) ;
#17 = APPROVAL_STATUS ( 'not_yet_approved' ) ;
#18 = CC_DESIGN_PERSON_AND_ORGANIZATION_ASSIGNMENT ( #74, #64, ( #171 ) ) ;
#19 = DIRECTION ( 'NONE',  ( -0.000000000000000000, -0.000000000000000000, -1.000000000000000000 ) ) ;
#20 = EDGE_CURVE ( 'NONE', #61, #72, #32, .T. ) ;
#21 = AXIS2_PLACEMENT_3D ( 'NONE', #169, #167, #57 ) ;
#22 = DIRECTION ( 'NONE',  ( 1.000000000000000000, 0.000000000000000000, -0.000000000000000000 ) ) ;
#23 =( NAMED_UNIT ( * ) PLANE_ANGLE_UNIT ( ) SI_UNIT ( $, .RADIAN. ) );
#24 = MECHANICAL_CONTEXT ( 'NONE', #96, 'mechanical' ) ;
#25 = PLANE ( 'NONE',  #42 ) ;
#26 = PERSON_AND_ORGANIZATION ( #149, #51 ) ;
#27 = ORIENTED_EDGE ( 'NONE', *, *, #132, .F. ) ;
#28 = PERSON_AND_ORGANIZATION_ROLE ( 'design_supplier' ) ;
#29 = AXIS2_PLACEMENT_3D ( 'NONE', #91, #175, #160 ) ;
#30 = APPROVAL_PERSON_ORGANIZATION ( #26, #97, #53 ) ;
#31 = CARTESIAN_POINT ( 'NONE',  ( 0.000000000000000000, 0.000000000000000000, 0.000000000000000000 ) ) ;
#32 = LINE ( 'NONE', #82, #173 ) ;
#33 = ORIENTED_EDGE ( 'NONE', *, *, #20, .T. ) ;
#34 = APPROVAL_ROLE ( '' ) ;
#35 = DIRECTION ( 'NONE',  ( 0.000000000000000000, 0.000000000000000000, 1.000000000000000000 ) ) ;
#36 =( NAMED_UNIT ( * ) SI_UNIT ( $, .STERADIAN. ) SOLID_ANGLE_UNIT ( ) );
#37 = CC_DESIGN_DATE_AND_TIME_ASSIGNMENT ( #122, #79, ( #59 ) ) ;
#38 = LOCAL_TIME ( 16, 5, 7.000000000000000000, #102 ) ;
#39 = DIRECTION ( 'NONE',  ( 0.000000000000000000, 0.000000000000000000, 1.000000000000000000 ) ) ;
#40 = CARTESIAN_POINT ( 'NONE',  ( 4.999999999999999112, 6.123233995736765296E-16, 0.000000000000000000 ) ) ;
#41 = APPROVAL ( #75, 'UNSPECIFIED' ) ;
#42 = AXIS2_PLACEMENT_3D ( 'NONE', #146, #39, #22 ) ;
#43 = FACE_OUTER_BOUND ( 'NONE', #45, .T. ) ;
#44 = CARTESIAN_POINT ( 'NONE',  ( 0.000000000000000000, 0.000000000000000000, 0.000000000000000000 ) ) ;
#45 = EDGE_LOOP ( 'NONE', ( #8, #154 ) ) ;
#46 = APPROVAL_STATUS ( 'not_yet_approved' ) ;
#47 = CALENDAR_DATE ( 2026, 23, 7 ) ;
#48 = CARTESIAN_POINT ( 'NONE',  ( 0.000000000000000000, 0.000000000000000000, 101.8499999999999943 ) ) ;
#49 = APPLICATION_PROTOCOL_DEFINITION ( 'international standard', 'config_control_design', 1994, #96 ) ;
#50 = CARTESIAN_POINT ( 'NONE',  ( 0.000000000000000000, 0.000000000000000000, 101.8499999999999943 ) ) ;
#51 = ORGANIZATION ( 'UNSPECIFIED', 'UNSPECIFIED', '' ) ;
#52 = COORDINATED_UNIVERSAL_TIME_OFFSET ( 3, 30, .AHEAD. ) ;
#53 = APPROVAL_ROLE ( '' ) ;
#54 = ORIENTED_EDGE ( 'NONE', *, *, #76, .F. ) ;
#55 = AXIS2_PLACEMENT_3D ( 'NONE', #50, #158, #108 ) ;
#56 = CARTESIAN_POINT ( 'NONE',  ( 4.999999999999999112, 6.123233995736765296E-16, 101.8499999999999943 ) ) ;
#57 = DIRECTION ( 'NONE',  ( 1.000000000000000000, 0.000000000000000000, 0.000000000000000000 ) ) ;
#58 = CARTESIAN_POINT ( 'NONE',  ( -4.999999999999999112, 0.000000000000000000, 0.000000000000000000 ) ) ;
#59 = SECURITY_CLASSIFICATION ( '', '', #147 ) ;
#60 = CLOSED_SHELL ( 'NONE', ( #162, #67, #123, #101 ) ) ;
#61 = VERTEX_POINT ( 'NONE', #151 ) ;
#62 = PERSON_AND_ORGANIZATION ( #149, #51 ) ;
#63 = CIRCLE ( 'NONE', #21, 4.999999999999999112 ) ;
#64 = PERSON_AND_ORGANIZATION_ROLE ( 'creator' ) ;
#65 = CIRCLE ( 'NONE', #166, 4.999999999999999112 ) ;
#66 = PERSON_AND_ORGANIZATION_ROLE ( 'creator' ) ;
#67 = ADVANCED_FACE ( 'NONE', ( #88 ), #138, .T. ) ;
#68 = CC_DESIGN_APPROVAL ( #41, ( #171 ) ) ;
#69 = PERSON_AND_ORGANIZATION ( #149, #51 ) ;
#70 = COORDINATED_UNIVERSAL_TIME_OFFSET ( 3, 30, .AHEAD. ) ;
#71 = DIRECTION ( 'NONE',  ( -1.000000000000000000, 0.000000000000000000, 0.000000000000000000 ) ) ;
#72 = VERTEX_POINT ( 'NONE', #58 ) ;
#73 = MANIFOLD_SOLID_BREP ( 'Boss-Extrude1', #60 ) ;
#74 = PERSON_AND_ORGANIZATION ( #149, #51 ) ;
#75 = APPROVAL_STATUS ( 'not_yet_approved' ) ;
#76 = EDGE_CURVE ( 'NONE', #7, #127, #6, .T. ) ;
#77 = DATE_AND_TIME ( #3, #15 ) ;
#78 = EDGE_CURVE ( 'NONE', #127, #72, #63, .T. ) ;
#79 = DATE_TIME_ROLE ( 'classification_date' ) ;
#80 = PERSON_AND_ORGANIZATION_ROLE ( 'classification_officer' ) ;
#81 = CC_DESIGN_SECURITY_CLASSIFICATION ( #59, ( #168 ) ) ;
#82 = CARTESIAN_POINT ( 'NONE',  ( -4.999999999999999112, 0.000000000000000000, 101.8499999999999943 ) ) ;
#83 = EDGE_LOOP ( 'NONE', ( #54, #2, #33, #152 ) ) ;
#84 = ADVANCED_BREP_SHAPE_REPRESENTATION ( 'Link3Shaft_Default_sldprt', ( #73, #116 ), #125 ) ;
#85 = DIRECTION ( 'NONE',  ( 1.000000000000000000, 0.000000000000000000, 0.000000000000000000 ) ) ;
#86 = DIRECTION ( 'NONE',  ( 0.000000000000000000, 0.000000000000000000, 1.000000000000000000 ) ) ;
#87 = PRODUCT ( 'Link3Shaft_Default_sldprt', 'Link3Shaft_Default_sldprt', '', ( #24 ) ) ;
#88 = FACE_OUTER_BOUND ( 'NONE', #83, .T. ) ;
#89 = CALENDAR_DATE ( 2026, 23, 7 ) ;
#90 = DATE_AND_TIME ( #11, #112 ) ;
#91 = CARTESIAN_POINT ( 'NONE',  ( 0.000000000000000000, 0.000000000000000000, 101.8499999999999943 ) ) ;
#92 =( LENGTH_UNIT ( ) NAMED_UNIT ( * ) SI_UNIT ( .MILLI., .METRE. ) );
#93 = CC_DESIGN_PERSON_AND_ORGANIZATION_ASSIGNMENT ( #121, #80, ( #59 ) ) ;
#94 = ORIENTED_EDGE ( 'NONE', *, *, #20, .F. ) ;
#95 = CIRCLE ( 'NONE', #29, 4.999999999999999112 ) ;
#96 = APPLICATION_CONTEXT ( 'configuration controlled 3d designs of mechanical parts and assemblies' ) ;
#97 = APPROVAL ( #17, 'UNSPECIFIED' ) ;
#98 = CC_DESIGN_APPROVAL ( #97, ( #59 ) ) ;
#99 = PLANE ( 'NONE',  #104 ) ;
#100 = CARTESIAN_POINT ( 'NONE',  ( 4.999999999999999112, 6.123233995736765296E-16, 101.8499999999999943 ) ) ;
#101 = ADVANCED_FACE ( 'NONE', ( #43 ), #99, .F. ) ;
#102 = COORDINATED_UNIVERSAL_TIME_OFFSET ( 3, 30, .AHEAD. ) ;
#103 = UNCERTAINTY_MEASURE_WITH_UNIT (LENGTH_MEASURE( 1.000000000000000082E-05 ), #92, 'distance_accuracy_value', 'NONE');
#104 = AXIS2_PLACEMENT_3D ( 'NONE', #44, #86, #153 ) ;
#105 = COORDINATED_UNIVERSAL_TIME_OFFSET ( 3, 30, .AHEAD. ) ;
#106 = DIRECTION ( 'NONE',  ( 1.000000000000000000, 0.000000000000000000, 0.000000000000000000 ) ) ;
#107 = CARTESIAN_POINT ( 'NONE',  ( 0.000000000000000000, 0.000000000000000000, 0.000000000000000000 ) ) ;
#108 = DIRECTION ( 'NONE',  ( -1.000000000000000000, 0.000000000000000000, 0.000000000000000000 ) ) ;
#109 = CC_DESIGN_PERSON_AND_ORGANIZATION_ASSIGNMENT ( #4, #28, ( #168 ) ) ;
#110 = EDGE_CURVE ( 'NONE', #72, #127, #134, .T. ) ;
#111 = DIRECTION ( 'NONE',  ( -0.000000000000000000, -0.000000000000000000, -1.000000000000000000 ) ) ;
#112 = LOCAL_TIME ( 16, 5, 7.000000000000000000, #105 ) ;
#113 = DIRECTION ( 'NONE',  ( 0.000000000000000000, 0.000000000000000000, 1.000000000000000000 ) ) ;
#114 = ORIENTED_EDGE ( 'NONE', *, *, #78, .T. ) ;
#115 = CYLINDRICAL_SURFACE ( 'NONE', #55, 4.999999999999999112 ) ;
#116 = AXIS2_PLACEMENT_3D ( 'NONE', #107, #35, #12 ) ;
#117 = FACE_OUTER_BOUND ( 'NONE', #124, .T. ) ;
#118 = PERSON_AND_ORGANIZATION ( #149, #51 ) ;
#119 = DATE_TIME_ROLE ( 'creation_date' ) ;
#120 = AXIS2_PLACEMENT_3D ( 'NONE', #31, #113, #85 ) ;
#121 = PERSON_AND_ORGANIZATION ( #149, #51 ) ;
#122 = DATE_AND_TIME ( #161, #159 ) ;
#123 = ADVANCED_FACE ( 'NONE', ( #140 ), #25, .T. ) ;
#124 = EDGE_LOOP ( 'NONE', ( #27, #156, #114, #94 ) ) ;
#125 =( GEOMETRIC_REPRESENTATION_CONTEXT ( 3 ) GLOBAL_UNCERTAINTY_ASSIGNED_CONTEXT ( ( #103 ) ) GLOBAL_UNIT_ASSIGNED_CONTEXT ( ( #92, #23, #36 ) ) REPRESENTATION_CONTEXT ( 'NONE', 'WORKASPACE' ) );
#126 = CARTESIAN_POINT ( 'NONE',  ( 0.000000000000000000, 0.000000000000000000, 101.8499999999999943 ) ) ;
#127 = VERTEX_POINT ( 'NONE', #40 ) ;
#128 = DIRECTION ( 'NONE',  ( 0.000000000000000000, 0.000000000000000000, 1.000000000000000000 ) ) ;
#129 = PERSON_AND_ORGANIZATION ( #149, #51 ) ;
#130 = DATE_AND_TIME ( #47, #144 ) ;
#131 = APPLICATION_CONTEXT ( 'configuration controlled 3d designs of mechanical parts and assemblies' ) ;
#132 = EDGE_CURVE ( 'NONE', #7, #61, #65, .T. ) ;
#133 = APPROVAL_PERSON_ORGANIZATION ( #129, #41, #1 ) ;
#134 = CIRCLE ( 'NONE', #120, 4.999999999999999112 ) ;
#135 = CC_DESIGN_APPROVAL ( #13, ( #168 ) ) ;
#136 = APPROVAL_DATE_TIME ( #77, #97 ) ;
#137 = CC_DESIGN_DATE_AND_TIME_ASSIGNMENT ( #90, #119, ( #171 ) ) ;
#138 = CYLINDRICAL_SURFACE ( 'NONE', #139, 4.999999999999999112 ) ;
#139 = AXIS2_PLACEMENT_3D ( 'NONE', #126, #19, #71 ) ;
#140 = FACE_OUTER_BOUND ( 'NONE', #148, .T. ) ;
#141 = DATE_AND_TIME ( #89, #38 ) ;
#142 = DESIGN_CONTEXT ( 'detailed design', #131, 'design' ) ;
#143 = APPLICATION_PROTOCOL_DEFINITION ( 'international standard', 'config_control_design', 1994, #131 ) ;
#144 = LOCAL_TIME ( 16, 5, 7.000000000000000000, #172 ) ;
#145 = VECTOR ( 'NONE', #111, 1000.000000000000000 ) ;
#146 = CARTESIAN_POINT ( 'NONE',  ( 0.000000000000000000, 0.000000000000000000, 101.8499999999999943 ) ) ;
#147 = SECURITY_CLASSIFICATION_LEVEL ( 'unclassified' ) ;
#148 = EDGE_LOOP ( 'NONE', ( #165, #5 ) ) ;
#149 = PERSON ( 'UNSPECIFIED', 'UNSPECIFIED', 'UNSPECIFIED', ('UNSPECIFIED'), ('UNSPECIFIED'), ('UNSPECIFIED') ) ;
#150 = PRODUCT_RELATED_PRODUCT_CATEGORY ( 'detail', '', ( #87 ) ) ;
#151 = CARTESIAN_POINT ( 'NONE',  ( -4.999999999999999112, 0.000000000000000000, 101.8499999999999943 ) ) ;
#152 = ORIENTED_EDGE ( 'NONE', *, *, #110, .T. ) ;
#153 = DIRECTION ( 'NONE',  ( 1.000000000000000000, 0.000000000000000000, -0.000000000000000000 ) ) ;
#154 = ORIENTED_EDGE ( 'NONE', *, *, #78, .F. ) ;
#155 = PRODUCT_DEFINITION_SHAPE ( 'NONE', 'NONE',  #171 ) ;
#156 = ORIENTED_EDGE ( 'NONE', *, *, #76, .T. ) ;
#157 = CC_DESIGN_PERSON_AND_ORGANIZATION_ASSIGNMENT ( #118, #10, ( #87 ) ) ;
#158 = DIRECTION ( 'NONE',  ( -0.000000000000000000, -0.000000000000000000, -1.000000000000000000 ) ) ;
#159 = LOCAL_TIME ( 16, 5, 7.000000000000000000, #52 ) ;
#160 = DIRECTION ( 'NONE',  ( 1.000000000000000000, 0.000000000000000000, 0.000000000000000000 ) ) ;
#161 = CALENDAR_DATE ( 2026, 23, 7 ) ;
#162 = ADVANCED_FACE ( 'NONE', ( #117 ), #115, .T. ) ;
#163 = SHAPE_DEFINITION_REPRESENTATION ( #155, #84 ) ;
#164 = EDGE_CURVE ( 'NONE', #61, #7, #95, .T. ) ;
#165 = ORIENTED_EDGE ( 'NONE', *, *, #164, .T. ) ;
#166 = AXIS2_PLACEMENT_3D ( 'NONE', #48, #128, #106 ) ;
#167 = DIRECTION ( 'NONE',  ( 0.000000000000000000, 0.000000000000000000, 1.000000000000000000 ) ) ;
#168 = PRODUCT_DEFINITION_FORMATION_WITH_SPECIFIED_SOURCE ( 'ANY', '', #87, .NOT_KNOWN. ) ;
#169 = CARTESIAN_POINT ( 'NONE',  ( 0.000000000000000000, 0.000000000000000000, 0.000000000000000000 ) ) ;
#170 = DIRECTION ( 'NONE',  ( -0.000000000000000000, -0.000000000000000000, -1.000000000000000000 ) ) ;
#171 = PRODUCT_DEFINITION ( 'UNKNOWN', '', #168, #142 ) ;
#172 = COORDINATED_UNIVERSAL_TIME_OFFSET ( 3, 30, .AHEAD. ) ;
#173 = VECTOR ( 'NONE', #170, 1000.000000000000000 ) ;
#174 = APPROVAL_DATE_TIME ( #141, #13 ) ;
#175 = DIRECTION ( 'NONE',  ( 0.000000000000000000, 0.000000000000000000, 1.000000000000000000 ) ) ;
ENDSEC;
END-ISO-10303-21;
