ISO-10303-21;
HEADER;
FILE_DESCRIPTION (( 'STEP AP203' ),
    '1' );
FILE_NAME ('Link2LShapeConnectorFront_Default_sldprt.STEP',
    '2026-07-23T12:34:55',
    ( '' ),
    ( '' ),
    'SwSTEP 2.0',
    'SolidWorks 2025',
    '' );
FILE_SCHEMA (( 'CONFIG_CONTROL_DESIGN' ));
ENDSEC;

DATA;
#1 = ORIENTED_EDGE ( 'NONE', *, *, #745, .T. ) ;
#2 = ORIENTED_EDGE ( 'NONE', *, *, #207, .T. ) ;
#3 = CARTESIAN_POINT ( 'NONE',  ( -30.00000000000000000, -49.24428900898052319, -10.00000000000000000 ) ) ;
#4 = EDGE_CURVE ( 'NONE', #989, #440, #393, .T. ) ;
#5 = CARTESIAN_POINT ( 'NONE',  ( 0.000000000000000000, 20.00000000000000000, 0.000000000000000000 ) ) ;
#6 = VECTOR ( 'NONE', #520, 1000.000000000000000 ) ;
#7 = ORIENTED_EDGE ( 'NONE', *, *, #997, .F. ) ;
#8 = LINE ( 'NONE', #701, #750 ) ;
#9 = CARTESIAN_POINT ( 'NONE',  ( 0.000000000000000000, 20.00000000000000000, 0.000000000000000000 ) ) ;
#10 = DIRECTION ( 'NONE',  ( 0.000000000000000000, 0.000000000000000000, 1.000000000000000000 ) ) ;
#11 = VECTOR ( 'NONE', #763, 1000.000000000000000 ) ;
#12 = EDGE_LOOP ( 'NONE', ( #660, #984, #203, #208, #313, #2, #670, #69, #389, #799, #133, #824, #621, #730, #604, #179, #24, #609, #832, #1060, #1108 ) ) ;
#13 = LINE ( 'NONE', #369, #934 ) ;
#14 = EDGE_LOOP ( 'NONE', ( #863, #648, #944, #63 ) ) ;
#15 = CYLINDRICAL_SURFACE ( 'NONE', #904, 5.000000000000000000 ) ;
#16 = VECTOR ( 'NONE', #1082, 1000.000000000000000 ) ;
#17 = CARTESIAN_POINT ( 'NONE',  ( -75.00000000000000000, 0.000000000000000000, -10.00000000000000000 ) ) ;
#18 = VERTEX_POINT ( 'NONE', #653 ) ;
#19 =( LENGTH_UNIT ( ) NAMED_UNIT ( * ) SI_UNIT ( .MILLI., .METRE. ) );
#20 = EDGE_CURVE ( 'NONE', #401, #850, #566, .T. ) ;
#21 = EDGE_LOOP ( 'NONE', ( #368, #299, #446, #370, #816, #190, #1056, #968, #665 ) ) ;
#22 = LINE ( 'NONE', #192, #791 ) ;
#23 = CARTESIAN_POINT ( 'NONE',  ( 30.00000000000000000, 0.000000000000000000, -10.00000000000000000 ) ) ;
#24 = ORIENTED_EDGE ( 'NONE', *, *, #201, .F. ) ;
#25 = CARTESIAN_POINT ( 'NONE',  ( 0.000000000000000000, 0.000000000000000000, 0.000000000000000000 ) ) ;
#26 = EDGE_CURVE ( 'NONE', #411, #348, #146, .T. ) ;
#27 = CARTESIAN_POINT ( 'NONE',  ( 0.000000000000000000, -49.24428900898052319, 0.000000000000000000 ) ) ;
#28 = VERTEX_POINT ( 'NONE', #52 ) ;
#29 = ORIENTED_EDGE ( 'NONE', *, *, #338, .T. ) ;
#30 = DIRECTION ( 'NONE',  ( -0.000000000000000000, 1.000000000000000000, -0.000000000000000000 ) ) ;
#31 = VECTOR ( 'NONE', #248, 1000.000000000000000 ) ;
#32 = EDGE_CURVE ( 'NONE', #558, #975, #232, .T. ) ;
#33 = VECTOR ( 'NONE', #487, 1000.000000000000000 ) ;
#34 = DIRECTION ( 'NONE',  ( 1.977293933768771203E-16, 0.000000000000000000, -1.000000000000000000 ) ) ;
#35 = ORIENTED_EDGE ( 'NONE', *, *, #543, .F. ) ;
#36 = VERTEX_POINT ( 'NONE', #316 ) ;
#37 = CARTESIAN_POINT ( 'NONE',  ( 0.000000000000000000, 0.000000000000000000, 5.000000000000000000 ) ) ;
#38 = CYLINDRICAL_SURFACE ( 'NONE', #519, 9.750000000000001776 ) ;
#39 = EDGE_CURVE ( 'NONE', #736, #999, #504, .T. ) ;
#40 = ORIENTED_EDGE ( 'NONE', *, *, #502, .T. ) ;
#41 = VERTEX_POINT ( 'NONE', #917 ) ;
#42 = CARTESIAN_POINT ( 'NONE',  ( 0.000000000000000000, 20.00000000000000000, 5.000000000000000000 ) ) ;
#43 = PLANE ( 'NONE',  #966 ) ;
#44 = ORIENTED_EDGE ( 'NONE', *, *, #629, .F. ) ;
#45 = EDGE_CURVE ( 'NONE', #985, #563, #145, .T. ) ;
#46 = ORIENTED_EDGE ( 'NONE', *, *, #624, .F. ) ;
#47 = CARTESIAN_POINT ( 'NONE',  ( -75.00000000000000000, 0.000000000000000000, 10.25000000000000178 ) ) ;
#48 = LOCAL_TIME ( 16, 4, 55.00000000000000000, #85 ) ;
#49 = CIRCLE ( 'NONE', #1027, 5.000000000000000000 ) ;
#50 = VECTOR ( 'NONE', #484, 1000.000000000000000 ) ;
#51 = DIRECTION ( 'NONE',  ( 1.000000000000000000, 0.000000000000000000, -1.639104385880485620E-16 ) ) ;
#52 = CARTESIAN_POINT ( 'NONE',  ( 75.00000000000000000, 20.00000000000000000, -10.00000000000000000 ) ) ;
#53 = VERTEX_POINT ( 'NONE', #576 ) ;
#54 = CARTESIAN_POINT ( 'NONE',  ( -65.25000000000000000, 20.00000000000000000, 10.25000000000000000 ) ) ;
#55 = EDGE_CURVE ( 'NONE', #1050, #770, #746, .T. ) ;
#56 = DIRECTION ( 'NONE',  ( -1.000000000000000000, 0.000000000000000000, -9.834626315282911255E-16 ) ) ;
#57 = DIRECTION ( 'NONE',  ( -0.000000000000000000, 1.000000000000000000, -0.000000000000000000 ) ) ;
#58 = ORIENTED_EDGE ( 'NONE', *, *, #137, .F. ) ;
#59 = LINE ( 'NONE', #1098, #589 ) ;
#60 = EDGE_CURVE ( 'NONE', #558, #498, #151, .T. ) ;
#61 = PERSON_AND_ORGANIZATION ( #803, #430 ) ;
#62 = CARTESIAN_POINT ( 'NONE',  ( 75.00000000000000000, 0.000000000000000000, 10.24999999999999822 ) ) ;
#63 = ORIENTED_EDGE ( 'NONE', *, *, #32, .F. ) ;
#64 = CARTESIAN_POINT ( 'NONE',  ( 75.00000000000000000, 20.00000000000000000, 10.24999999999999822 ) ) ;
#65 = ADVANCED_FACE ( 'NONE', ( #1096 ), #410, .F. ) ;
#66 = VECTOR ( 'NONE', #56, 1000.000000000000000 ) ;
#67 = APPROVAL_DATE_TIME ( #162, #711 ) ;
#68 = DIRECTION ( 'NONE',  ( 0.000000000000000000, 0.000000000000000000, 1.000000000000000000 ) ) ;
#69 = ORIENTED_EDGE ( 'NONE', *, *, #242, .T. ) ;
#70 = DIRECTION ( 'NONE',  ( -0.000000000000000000, 1.000000000000000000, -0.000000000000000000 ) ) ;
#71 = AXIS2_PLACEMENT_3D ( 'NONE', #930, #400, #323 ) ;
#72 = APPLICATION_PROTOCOL_DEFINITION ( 'international standard', 'config_control_design', 1994, #1002 ) ;
#73 = EDGE_CURVE ( 'NONE', #796, #539, #405, .T. ) ;
#74 = DIRECTION ( 'NONE',  ( -1.000000000000000000, 0.000000000000000000, -1.639104385880485867E-16 ) ) ;
#75 = EDGE_CURVE ( 'NONE', #995, #100, #849, .T. ) ;
#76 = VERTEX_POINT ( 'NONE', #839 ) ;
#77 = LINE ( 'NONE', #64, #11 ) ;
#78 = DIRECTION ( 'NONE',  ( 0.000000000000000000, 0.000000000000000000, 1.000000000000000000 ) ) ;
#79 = LINE ( 'NONE', #777, #553 ) ;
#80 = VERTEX_POINT ( 'NONE', #62 ) ;
#81 = FACE_BOUND ( 'NONE', #906, .T. ) ;
#82 = EDGE_CURVE ( 'NONE', #440, #130, #907, .T. ) ;
#83 = CARTESIAN_POINT ( 'NONE',  ( 0.000000000000000000, 0.000000000000000000, 0.000000000000000000 ) ) ;
#84 = CC_DESIGN_SECURITY_CLASSIFICATION ( #717, ( #1061 ) ) ;
#85 = COORDINATED_UNIVERSAL_TIME_OFFSET ( 3, 30, .AHEAD. ) ;
#86 = CARTESIAN_POINT ( 'NONE',  ( 75.00000000000000000, 20.00000000000000000, 10.24999999999999822 ) ) ;
#87 = VECTOR ( 'NONE', #737, 1000.000000000000000 ) ;
#88 = EDGE_LOOP ( 'NONE', ( #134, #29, #781, #259 ) ) ;
#89 = FACE_OUTER_BOUND ( 'NONE', #252, .T. ) ;
#90 = VERTEX_POINT ( 'NONE', #1101 ) ;
#91 = EDGE_CURVE ( 'NONE', #76, #1054, #762, .T. ) ;
#92 = LINE ( 'NONE', #513, #464 ) ;
#93 = LINE ( 'NONE', #445, #699 ) ;
#94 = ORIENTED_EDGE ( 'NONE', *, *, #216, .T. ) ;
#95 = CARTESIAN_POINT ( 'NONE',  ( 22.36067977499790871, 0.000000000000000000, 19.99999999999998579 ) ) ;
#96 = DIRECTION ( 'NONE',  ( 0.000000000000000000, 0.000000000000000000, 1.000000000000000000 ) ) ;
#97 = CARTESIAN_POINT ( 'NONE',  ( 30.00000000000000000, 0.000000000000000000, 10.00000000000000000 ) ) ;
#98 = ORIENTED_EDGE ( 'NONE', *, *, #895, .T. ) ;
#99 = DIRECTION ( 'NONE',  ( -0.000000000000000000, -1.000000000000000000, -0.000000000000000000 ) ) ;
#100 = VERTEX_POINT ( 'NONE', #1015 ) ;
#101 = CARTESIAN_POINT ( 'NONE',  ( 0.000000000000000000, 20.00000000000000000, 0.000000000000000000 ) ) ;
#102 = DIRECTION ( 'NONE',  ( 0.000000000000000000, 0.000000000000000000, 1.000000000000000000 ) ) ;
#103 = VECTOR ( 'NONE', #956, 1000.000000000000000 ) ;
#104 = ADVANCED_FACE ( 'NONE', ( #415 ), #935, .T. ) ;
#105 = CIRCLE ( 'NONE', #319, 9.750000000000000000 ) ;
#106 = ORIENTED_EDGE ( 'NONE', *, *, #560, .T. ) ;
#107 = CIRCLE ( 'NONE', #809, 30.00000000000000000 ) ;
#108 = DIRECTION ( 'NONE',  ( 0.000000000000000000, 0.000000000000000000, -1.000000000000000000 ) ) ;
#109 = DIRECTION ( 'NONE',  ( -0.000000000000000000, 0.000000000000000000, -1.000000000000000000 ) ) ;
#110 = EDGE_CURVE ( 'NONE', #1040, #130, #676, .T. ) ;
#111 = ORIENTED_EDGE ( 'NONE', *, *, #971, .F. ) ;
#112 = ADVANCED_FACE ( 'NONE', ( #741 ), #244, .F. ) ;
#113 = LINE ( 'NONE', #783, #126 ) ;
#114 = VECTOR ( 'NONE', #127, 1000.000000000000000 ) ;
#115 = DIRECTION ( 'NONE',  ( -0.000000000000000000, 1.000000000000000000, -0.000000000000000000 ) ) ;
#116 = ORIENTED_EDGE ( 'NONE', *, *, #838, .T. ) ;
#117 = ORIENTED_EDGE ( 'NONE', *, *, #394, .T. ) ;
#118 = CARTESIAN_POINT ( 'NONE',  ( -75.00000000000000000, -49.24428900898052319, -10.00000000000000000 ) ) ;
#119 = EDGE_CURVE ( 'NONE', #348, #995, #186, .T. ) ;
#120 = PRODUCT_DEFINITION_SHAPE ( 'NONE', 'NONE',  #594 ) ;
#121 = DIRECTION ( 'NONE',  ( -0.000000000000000000, 1.000000000000000000, -0.000000000000000000 ) ) ;
#122 = EDGE_LOOP ( 'NONE', ( #306, #705, #458, #156 ) ) ;
#123 = AXIS2_PLACEMENT_3D ( 'NONE', #491, #756, #853 ) ;
#124 = ORIENTED_EDGE ( 'NONE', *, *, #432, .T. ) ;
#125 = DIRECTION ( 'NONE',  ( -0.000000000000000000, 0.000000000000000000, 1.000000000000000000 ) ) ;
#126 = VECTOR ( 'NONE', #982, 1000.000000000000000 ) ;
#127 = DIRECTION ( 'NONE',  ( -1.000000000000000000, 0.000000000000000000, 9.834626315282913227E-16 ) ) ;
#128 = AXIS2_PLACEMENT_3D ( 'NONE', #138, #480, #1005 ) ;
#129 = ORIENTED_EDGE ( 'NONE', *, *, #992, .F. ) ;
#130 = VERTEX_POINT ( 'NONE', #228 ) ;
#131 = CARTESIAN_POINT ( 'NONE',  ( 75.00000000000000000, 0.000000000000000000, 20.00000000000000355 ) ) ;
#132 = CARTESIAN_POINT ( 'NONE',  ( 30.00000000000000000, -49.24428900898052319, 10.00000000000000000 ) ) ;
#133 = ORIENTED_EDGE ( 'NONE', *, *, #560, .F. ) ;
#134 = ORIENTED_EDGE ( 'NONE', *, *, #624, .T. ) ;
#135 = DIRECTION ( 'NONE',  ( 0.000000000000000000, 0.000000000000000000, 1.000000000000000000 ) ) ;
#136 = DIRECTION ( 'NONE',  ( 0.000000000000000000, 1.000000000000000000, 0.000000000000000000 ) ) ;
#137 = EDGE_CURVE ( 'NONE', #28, #1050, #572, .T. ) ;
#138 = CARTESIAN_POINT ( 'NONE',  ( 75.00000000000000000, 20.00000000000000000, 20.00000000000000355 ) ) ;
#139 = ORIENTED_EDGE ( 'NONE', *, *, #353, .T. ) ;
#140 = DIRECTION ( 'NONE',  ( 0.000000000000000000, 0.000000000000000000, -1.000000000000000000 ) ) ;
#141 = VECTOR ( 'NONE', #706, 1000.000000000000000 ) ;
#142 = VECTOR ( 'NONE', #304, 1000.000000000000000 ) ;
#143 = VECTOR ( 'NONE', #645, 1000.000000000000000 ) ;
#144 = CARTESIAN_POINT ( 'NONE',  ( 65.25000000000000000, 0.000000000000000000, -19.99999999999998579 ) ) ;
#145 = CIRCLE ( 'NONE', #305, 30.00000000000000000 ) ;
#146 = LINE ( 'NONE', #155, #33 ) ;
#147 = CC_DESIGN_PERSON_AND_ORGANIZATION_ASSIGNMENT ( #688, #596, ( #1061 ) ) ;
#148 = EDGE_LOOP ( 'NONE', ( #383, #812, #927, #856 ) ) ;
#149 = DIRECTION ( 'NONE',  ( -0.000000000000000000, 1.000000000000000000, -0.000000000000000000 ) ) ;
#150 = EDGE_CURVE ( 'NONE', #440, #937, #614, .T. ) ;
#151 = LINE ( 'NONE', #492, #1099 ) ;
#152 = ORIENTED_EDGE ( 'NONE', *, *, #373, .T. ) ;
#153 = CARTESIAN_POINT ( 'NONE',  ( 0.000000000000000000, 20.00000000000000000, 0.000000000000000000 ) ) ;
#154 = EDGE_CURVE ( 'NONE', #343, #41, #820, .T. ) ;
#155 = CARTESIAN_POINT ( 'NONE',  ( 7.228416147400480440, -49.24428900898052319, 1.999999999999997780 ) ) ;
#156 = ORIENTED_EDGE ( 'NONE', *, *, #1070, .T. ) ;
#157 = CARTESIAN_POINT ( 'NONE',  ( 30.00000000000000000, 0.000000000000000000, -10.00000000000000000 ) ) ;
#158 = VECTOR ( 'NONE', #318, 1000.000000000000000 ) ;
#159 = EDGE_CURVE ( 'NONE', #18, #1054, #444, .T. ) ;
#160 = ADVANCED_FACE ( 'NONE', ( #251 ), #960, .F. ) ;
#161 = VECTOR ( 'NONE', #827, 1000.000000000000000 ) ;
#162 = DATE_AND_TIME ( #328, #48 ) ;
#163 = DIRECTION ( 'NONE',  ( 1.639104385880485867E-16, 0.000000000000000000, -1.000000000000000000 ) ) ;
#164 = ORIENTED_EDGE ( 'NONE', *, *, #45, .T. ) ;
#165 = DIRECTION ( 'NONE',  ( 1.639104385880485867E-16, 0.000000000000000000, 1.000000000000000000 ) ) ;
#166 = CARTESIAN_POINT ( 'NONE',  ( 30.00000000000000000, 20.00000000000000000, 10.00000000000000000 ) ) ;
#167 = ORIENTED_EDGE ( 'NONE', *, *, #4, .F. ) ;
#168 = CARTESIAN_POINT ( 'NONE',  ( 7.228416147400479552, 0.000000000000000000, -2.000000000000001332 ) ) ;
#169 = CARTESIAN_POINT ( 'NONE',  ( -75.00000000000000000, -1.387778780781445676E-14, 10.00000000000000000 ) ) ;
#170 = DATE_TIME_ROLE ( 'classification_date' ) ;
#171 = CARTESIAN_POINT ( 'NONE',  ( 0.000000000000000000, 0.000000000000000000, 0.000000000000000000 ) ) ;
#172 = EDGE_CURVE ( 'NONE', #931, #1040, #602, .T. ) ;
#173 = ORIENTED_EDGE ( 'NONE', *, *, #55, .F. ) ;
#174 = DIRECTION ( 'NONE',  ( 0.000000000000000000, 0.000000000000000000, 1.000000000000000000 ) ) ;
#175 = DIRECTION ( 'NONE',  ( 0.000000000000000000, 0.000000000000000000, 1.000000000000000000 ) ) ;
#176 = VECTOR ( 'NONE', #359, 1000.000000000000000 ) ;
#177 = CARTESIAN_POINT ( 'NONE',  ( -30.00000000000000000, 20.00000000000000000, 10.00000000000000000 ) ) ;
#178 = VECTOR ( 'NONE', #979, 1000.000000000000000 ) ;
#179 = ORIENTED_EDGE ( 'NONE', *, *, #394, .F. ) ;
#180 = LINE ( 'NONE', #435, #592 ) ;
#181 = DIRECTION ( 'NONE',  ( -1.000000000000000000, 0.000000000000000000, -0.000000000000000000 ) ) ;
#182 = AXIS2_PLACEMENT_3D ( 'NONE', #205, #462, #625 ) ;
#183 = CARTESIAN_POINT ( 'NONE',  ( 0.000000000000000000, -49.24428900898052319, 0.000000000000000000 ) ) ;
#184 = VERTEX_POINT ( 'NONE', #86 ) ;
#185 = DIRECTION ( 'NONE',  ( -1.000000000000000000, 0.000000000000000000, 0.000000000000000000 ) ) ;
#186 = CIRCLE ( 'NONE', #326, 7.500000000000000000 ) ;
#187 = PLANE ( 'NONE',  #398 ) ;
#188 = ADVANCED_FACE ( 'NONE', ( #704 ), #868, .F. ) ;
#189 = FACE_BOUND ( 'NONE', #21, .T. ) ;
#190 = ORIENTED_EDGE ( 'NONE', *, *, #75, .F. ) ;
#191 = DIRECTION ( 'NONE',  ( -1.000000000000000000, 0.000000000000000000, 1.639104385880485867E-16 ) ) ;
#192 = CARTESIAN_POINT ( 'NONE',  ( -65.25000000000000000, 20.00000000000000000, -19.99999999999998579 ) ) ;
#193 = APPROVAL ( #1095, 'UNSPECIFIED' ) ;
#194 = DIRECTION ( 'NONE',  ( -0.000000000000000000, -1.000000000000000000, -0.000000000000000000 ) ) ;
#195 = CIRCLE ( 'NONE', #247, 9.750000000000000000 ) ;
#196 = ORIENTED_EDGE ( 'NONE', *, *, #475, .T. ) ;
#197 = VECTOR ( 'NONE', #959, 1000.000000000000000 ) ;
#198 = CIRCLE ( 'NONE', #538, 5.000000000000000000 ) ;
#199 = CARTESIAN_POINT ( 'NONE',  ( 0.000000000000000000, 0.000000000000000000, 0.000000000000000000 ) ) ;
#200 = CARTESIAN_POINT ( 'NONE',  ( -75.00000000000000000, -49.24428900898052319, 10.00000000000000000 ) ) ;
#201 = EDGE_CURVE ( 'NONE', #396, #700, #514, .T. ) ;
#202 = EDGE_LOOP ( 'NONE', ( #451, #152, #900, #890 ) ) ;
#203 = ORIENTED_EDGE ( 'NONE', *, *, #73, .T. ) ;
#204 = DIRECTION ( 'NONE',  ( -0.000000000000000000, 0.000000000000000000, 1.000000000000000000 ) ) ;
#205 = CARTESIAN_POINT ( 'NONE',  ( -75.00000000000000000, 20.00000000000000000, 20.00000000000000355 ) ) ;
#206 = ORIENTED_EDGE ( 'NONE', *, *, #216, .F. ) ;
#207 = EDGE_CURVE ( 'NONE', #556, #1097, #433, .T. ) ;
#208 = ORIENTED_EDGE ( 'NONE', *, *, #290, .T. ) ;
#209 = FACE_OUTER_BOUND ( 'NONE', #317, .T. ) ;
#210 = CARTESIAN_POINT ( 'NONE',  ( 65.25000000000000000, 0.000000000000000000, 10.24999999999999822 ) ) ;
#211 = VERTEX_POINT ( 'NONE', #177 ) ;
#212 = VECTOR ( 'NONE', #70, 1000.000000000000000 ) ;
#213 = ORIENTED_EDGE ( 'NONE', *, *, #475, .F. ) ;
#214 = CYLINDRICAL_SURFACE ( 'NONE', #501, 7.500000000000000000 ) ;
#215 = AXIS2_PLACEMENT_3D ( 'NONE', #25, #357, #697 ) ;
#216 = EDGE_CURVE ( 'NONE', #981, #840, #953, .T. ) ;
#217 = DIRECTION ( 'NONE',  ( -0.000000000000000000, 1.000000000000000000, -0.000000000000000000 ) ) ;
#218 = ORIENTED_EDGE ( 'NONE', *, *, #234, .F. ) ;
#219 = VERTEX_POINT ( 'NONE', #525 ) ;
#220 = DIRECTION ( 'NONE',  ( 0.000000000000000000, 0.000000000000000000, 1.000000000000000000 ) ) ;
#221 = EDGE_CURVE ( 'NONE', #28, #725, #79, .T. ) ;
#222 = CARTESIAN_POINT ( 'NONE',  ( -7.228416147400479552, -49.24428900898052319, -2.000000000000001776 ) ) ;
#223 = EDGE_LOOP ( 'NONE', ( #124, #196, #550, #747 ) ) ;
#224 = ORIENTED_EDGE ( 'NONE', *, *, #643, .T. ) ;
#225 = LINE ( 'NONE', #575, #686 ) ;
#226 = DIRECTION ( 'NONE',  ( -0.000000000000000000, -0.000000000000000000, -1.000000000000000000 ) ) ;
#227 = PRODUCT_RELATED_PRODUCT_CATEGORY ( 'detail', '', ( #579 ) ) ;
#228 = CARTESIAN_POINT ( 'NONE',  ( 75.00000000000000000, 0.000000000000000000, -10.24999999999998757 ) ) ;
#229 = AXIS2_PLACEMENT_3D ( 'NONE', #183, #948, #875 ) ;
#230 = DIRECTION ( 'NONE',  ( 0.000000000000000000, 0.000000000000000000, 1.000000000000000000 ) ) ;
#231 = AXIS2_PLACEMENT_3D ( 'NONE', #437, #976, #528 ) ;
#232 = LINE ( 'NONE', #1090, #485 ) ;
#233 = VECTOR ( 'NONE', #804, 1000.000000000000000 ) ;
#234 = EDGE_CURVE ( 'NONE', #931, #1050, #93, .T. ) ;
#235 = ORIENTED_EDGE ( 'NONE', *, *, #234, .T. ) ;
#236 = FACE_OUTER_BOUND ( 'NONE', #12, .T. ) ;
#237 = CALENDAR_DATE ( 2026, 23, 7 ) ;
#238 = CARTESIAN_POINT ( 'NONE',  ( 0.000000000000000000, 20.00000000000000000, 0.000000000000000000 ) ) ;
#239 = VERTEX_POINT ( 'NONE', #347 ) ;
#240 = MANIFOLD_SOLID_BREP ( 'Mirror4', #503 ) ;
#241 = DIRECTION ( 'NONE',  ( -0.000000000000000000, 0.000000000000000000, 1.000000000000000000 ) ) ;
#242 = EDGE_CURVE ( 'NONE', #721, #363, #356, .T. ) ;
#243 = PERSON_AND_ORGANIZATION ( #803, #430 ) ;
#244 = PLANE ( 'NONE',  #672 ) ;
#245 = EDGE_LOOP ( 'NONE', ( #846, #470, #307, #483 ) ) ;
#246 = CARTESIAN_POINT ( 'NONE',  ( 22.36067977499791581, 20.00000000000000000, -19.99999999999997868 ) ) ;
#247 = AXIS2_PLACEMENT_3D ( 'NONE', #578, #851, #671 ) ;
#248 = DIRECTION ( 'NONE',  ( 0.000000000000000000, -0.000000000000000000, -1.000000000000000000 ) ) ;
#249 = VECTOR ( 'NONE', #402, 1000.000000000000000 ) ;
#250 = CALENDAR_DATE ( 2026, 23, 7 ) ;
#251 = FACE_OUTER_BOUND ( 'NONE', #148, .T. ) ;
#252 = EDGE_LOOP ( 'NONE', ( #515, #459, #1075, #546 ) ) ;
#253 = PLANE ( 'NONE',  #479 ) ;
#254 = DIRECTION ( 'NONE',  ( 0.000000000000000000, 1.000000000000000000, 0.000000000000000000 ) ) ;
#255 = CALENDAR_DATE ( 2026, 23, 7 ) ;
#256 = DIRECTION ( 'NONE',  ( 0.000000000000000000, 0.000000000000000000, 1.000000000000000000 ) ) ;
#257 = ORIENTED_EDGE ( 'NONE', *, *, #159, .T. ) ;
#258 = CARTESIAN_POINT ( 'NONE',  ( -75.00000000000000000, 20.00000000000000000, -10.24999999999998757 ) ) ;
#259 = ORIENTED_EDGE ( 'NONE', *, *, #873, .F. ) ;
#260 = DIRECTION ( 'NONE',  ( 1.000000000000000000, 0.000000000000000000, -1.639104385880485867E-16 ) ) ;
#261 = CARTESIAN_POINT ( 'NONE',  ( 75.00000000000000000, 20.00000000000000000, -10.00000000000000000 ) ) ;
#262 = ORIENTED_EDGE ( 'NONE', *, *, #895, .F. ) ;
#263 = CARTESIAN_POINT ( 'NONE',  ( 75.00000000000000000, 20.00000000000000000, -19.99999999999998934 ) ) ;
#264 = VECTOR ( 'NONE', #724, 1000.000000000000000 ) ;
#265 = CYLINDRICAL_SURFACE ( 'NONE', #340, 30.00000000000000000 ) ;
#266 = LINE ( 'NONE', #607, #874 ) ;
#267 = AXIS2_PLACEMENT_3D ( 'NONE', #612, #533, #288 ) ;
#268 = ORIENTED_EDGE ( 'NONE', *, *, #1004, .T. ) ;
#269 = CARTESIAN_POINT ( 'NONE',  ( 30.00000000000000000, 20.00000000000000000, -10.00000000000000000 ) ) ;
#270 = EDGE_CURVE ( 'NONE', #918, #811, #772, .T. ) ;
#271 = ORIENTED_EDGE ( 'NONE', *, *, #283, .F. ) ;
#272 = DIRECTION ( 'NONE',  ( 1.000000000000000000, -0.000000000000000000, 1.639104385880485867E-16 ) ) ;
#273 = DIRECTION ( 'NONE',  ( 0.000000000000000000, 1.000000000000000000, 0.000000000000000000 ) ) ;
#274 = EDGE_LOOP ( 'NONE', ( #1066, #650, #1020, #1 ) ) ;
#275 = DIRECTION ( 'NONE',  ( 0.000000000000000000, 0.000000000000000000, -1.000000000000000000 ) ) ;
#276 = ADVANCED_FACE ( 'NONE', ( #861, #189 ), #1038, .T. ) ;
#277 = CARTESIAN_POINT ( 'NONE',  ( -22.36067977499790871, 0.000000000000000000, 19.99999999999998579 ) ) ;
#278 = CARTESIAN_POINT ( 'NONE',  ( -22.36067977499791581, 20.00000000000000000, -19.99999999999997868 ) ) ;
#279 = ORIENTED_EDGE ( 'NONE', *, *, #744, .F. ) ;
#280 =( NAMED_UNIT ( * ) PLANE_ANGLE_UNIT ( ) SI_UNIT ( $, .RADIAN. ) );
#281 = ORIENTED_EDGE ( 'NONE', *, *, #580, .F. ) ;
#282 = DIRECTION ( 'NONE',  ( -0.000000000000000000, -1.000000000000000000, -0.000000000000000000 ) ) ;
#283 = EDGE_CURVE ( 'NONE', #770, #805, #689, .T. ) ;
#284 = CARTESIAN_POINT ( 'NONE',  ( 7.228416147400479552, -49.24428900898052319, -2.000000000000001332 ) ) ;
#285 = VERTEX_POINT ( 'NONE', #529 ) ;
#286 = CIRCLE ( 'NONE', #215, 30.00000000000000000 ) ;
#287 = ORIENTED_EDGE ( 'NONE', *, *, #221, .T. ) ;
#288 = DIRECTION ( 'NONE',  ( 0.000000000000000000, 0.000000000000000000, 1.000000000000000000 ) ) ;
#289 = DIRECTION ( 'NONE',  ( 0.000000000000000000, 0.000000000000000000, -1.000000000000000000 ) ) ;
#290 = EDGE_CURVE ( 'NONE', #539, #90, #266, .T. ) ;
#291 = VERTEX_POINT ( 'NONE', #620 ) ;
#292 = EDGE_LOOP ( 'NONE', ( #375, #384, #695, #881 ) ) ;
#293 = CARTESIAN_POINT ( 'NONE',  ( 75.00000000000000000, 20.00000000000000000, 20.00000000000000355 ) ) ;
#294 = DIRECTION ( 'NONE',  ( -1.000000000000000000, 0.000000000000000000, 0.000000000000000000 ) ) ;
#295 = ORIENTED_EDGE ( 'NONE', *, *, #749, .T. ) ;
#296 = ORIENTED_EDGE ( 'NONE', *, *, #270, .T. ) ;
#297 = CARTESIAN_POINT ( 'NONE',  ( 22.36067977499791581, 20.00000000000000000, -19.99999999999997868 ) ) ;
#298 = CARTESIAN_POINT ( 'NONE',  ( -65.25000000000000000, 20.00000000000000000, -10.24999999999998757 ) ) ;
#299 = ORIENTED_EDGE ( 'NONE', *, *, #490, .T. ) ;
#300 = EDGE_LOOP ( 'NONE', ( #836, #642, #493, #794 ) ) ;
#301 = CYLINDRICAL_SURFACE ( 'NONE', #978, 30.00000000000000000 ) ;
#302 = ADVANCED_FACE ( 'NONE', ( #792 ), #43, .T. ) ;
#303 = CIRCLE ( 'NONE', #664, 5.000000000000000000 ) ;
#304 = DIRECTION ( 'NONE',  ( 0.000000000000000000, -0.000000000000000000, -1.000000000000000000 ) ) ;
#305 = AXIS2_PLACEMENT_3D ( 'NONE', #238, #662, #751 ) ;
#306 = ORIENTED_EDGE ( 'NONE', *, *, #537, .T. ) ;
#307 = ORIENTED_EDGE ( 'NONE', *, *, #745, .F. ) ;
#308 = DIRECTION ( 'NONE',  ( 0.000000000000000000, 1.000000000000000000, 0.000000000000000000 ) ) ;
#309 = CC_DESIGN_PERSON_AND_ORGANIZATION_ASSIGNMENT ( #414, #409, ( #1061 ) ) ;
#310 = EDGE_CURVE ( 'NONE', #539, #378, #631, .T. ) ;
#311 = CARTESIAN_POINT ( 'NONE',  ( -4.582575694955839829, 0.000000000000000000, -2.000000000000002220 ) ) ;
#312 = CARTESIAN_POINT ( 'NONE',  ( -7.228416147400480440, -49.24428900898052319, 1.999999999999997780 ) ) ;
#313 = ORIENTED_EDGE ( 'NONE', *, *, #1032, .T. ) ;
#314 = CARTESIAN_POINT ( 'NONE',  ( 0.000000000000000000, -49.24428900898052319, 0.000000000000000000 ) ) ;
#315 = EDGE_CURVE ( 'NONE', #80, #778, #416, .T. ) ;
#316 = CARTESIAN_POINT ( 'NONE',  ( 4.582575694955840717, 20.00000000000000000, 2.000000000000000444 ) ) ;
#317 = EDGE_LOOP ( 'NONE', ( #488, #584, #474, #106 ) ) ;
#318 = DIRECTION ( 'NONE',  ( 0.000000000000000000, -1.000000000000000000, 0.000000000000000000 ) ) ;
#319 = AXIS2_PLACEMENT_3D ( 'NONE', #522, #99, #349 ) ;
#320 = VECTOR ( 'NONE', #272, 1000.000000000000000 ) ;
#321 = MECHANICAL_CONTEXT ( 'NONE', #1002, 'mechanical' ) ;
#322 = ADVANCED_FACE ( 'NONE', ( #892 ), #972, .T. ) ;
#323 = DIRECTION ( 'NONE',  ( 0.000000000000000000, 0.000000000000000000, 1.000000000000000000 ) ) ;
#324 = ORIENTED_EDGE ( 'NONE', *, *, #1004, .F. ) ;
#325 = DIRECTION ( 'NONE',  ( 0.000000000000000000, 0.000000000000000000, 1.000000000000000000 ) ) ;
#326 = AXIS2_PLACEMENT_3D ( 'NONE', #334, #1087, #659 ) ;
#327 = VECTOR ( 'NONE', #121, 1000.000000000000000 ) ;
#328 = CALENDAR_DATE ( 2026, 23, 7 ) ;
#329 = DIRECTION ( 'NONE',  ( 9.834626315282913227E-16, 0.000000000000000000, -1.000000000000000000 ) ) ;
#330 = ORIENTED_EDGE ( 'NONE', *, *, #586, .T. ) ;
#331 = FACE_OUTER_BOUND ( 'NONE', #245, .T. ) ;
#332 = LINE ( 'NONE', #1023, #31 ) ;
#333 = APPROVAL_ROLE ( '' ) ;
#334 = CARTESIAN_POINT ( 'NONE',  ( 0.000000000000000000, 20.00000000000000000, 0.000000000000000000 ) ) ;
#335 = ORIENTED_EDGE ( 'NONE', *, *, #1079, .F. ) ;
#336 = CARTESIAN_POINT ( 'NONE',  ( 4.582575694955839829, -49.24428900898052319, -2.000000000000002220 ) ) ;
#337 = LOCAL_TIME ( 16, 4, 55.00000000000000000, #679 ) ;
#338 = EDGE_CURVE ( 'NONE', #955, #995, #457, .T. ) ;
#339 = FACE_OUTER_BOUND ( 'NONE', #567, .T. ) ;
#340 = AXIS2_PLACEMENT_3D ( 'NONE', #101, #801, #108 ) ;
#341 = APPROVAL_ROLE ( '' ) ;
#342 = DIRECTION ( 'NONE',  ( 0.000000000000000000, -0.000000000000000000, 1.000000000000000000 ) ) ;
#343 = VERTEX_POINT ( 'NONE', #1059 ) ;
#344 = CARTESIAN_POINT ( 'NONE',  ( 7.228416147400479552, 20.00000000000000000, -2.000000000000001332 ) ) ;
#345 = PLANE ( 'NONE',  #773 ) ;
#346 = ADVANCED_FACE ( 'NONE', ( #542 ), #988, .F. ) ;
#347 = CARTESIAN_POINT ( 'NONE',  ( 4.582575694955839829, 0.000000000000000000, -2.000000000000002220 ) ) ;
#348 = VERTEX_POINT ( 'NONE', #993 ) ;
#349 = DIRECTION ( 'NONE',  ( 0.000000000000000000, 0.000000000000000000, 1.000000000000000000 ) ) ;
#350 = EDGE_LOOP ( 'NONE', ( #562, #896, #1045, #427 ) ) ;
#351 = FACE_OUTER_BOUND ( 'NONE', #388, .T. ) ;
#352 = DIRECTION ( 'NONE',  ( -1.000000000000000000, 0.000000000000000000, 0.000000000000000000 ) ) ;
#353 = EDGE_CURVE ( 'NONE', #981, #36, #391, .T. ) ;
#354 = ORIENTED_EDGE ( 'NONE', *, *, #481, .T. ) ;
#355 = FACE_OUTER_BOUND ( 'NONE', #300, .T. ) ;
#356 = CIRCLE ( 'NONE', #922, 9.750000000000000000 ) ;
#357 = DIRECTION ( 'NONE',  ( 0.000000000000000000, 1.000000000000000000, 0.000000000000000000 ) ) ;
#358 = AXIS2_PLACEMENT_3D ( 'NONE', #263, #185, #616 ) ;
#359 = DIRECTION ( 'NONE',  ( -1.000000000000000000, 0.000000000000000000, -0.000000000000000000 ) ) ;
#360 = EDGE_LOOP ( 'NONE', ( #1029, #634, #759, #213 ) ) ;
#361 = DIRECTION ( 'NONE',  ( -0.000000000000000000, 1.000000000000000000, -0.000000000000000000 ) ) ;
#362 = EDGE_CURVE ( 'NONE', #184, #805, #888, .T. ) ;
#363 = VERTEX_POINT ( 'NONE', #554 ) ;
#364 = DIRECTION ( 'NONE',  ( 0.000000000000000000, 0.000000000000000000, 1.000000000000000000 ) ) ;
#365 = VECTOR ( 'NONE', #835, 1000.000000000000000 ) ;
#366 = AXIS2_PLACEMENT_3D ( 'NONE', #210, #194, #720 ) ;
#367 = CARTESIAN_POINT ( 'NONE',  ( 75.00000000000000000, 0.000000000000000000, -10.00000000000000000 ) ) ;
#368 = ORIENTED_EDGE ( 'NONE', *, *, #270, .F. ) ;
#369 = CARTESIAN_POINT ( 'NONE',  ( 65.25000000000000000, 20.00000000000000000, 20.00000000000000000 ) ) ;
#370 = ORIENTED_EDGE ( 'NONE', *, *, #516, .T. ) ;
#371 = CARTESIAN_POINT ( 'NONE',  ( 7.228416147400479552, 0.000000000000000000, -2.000000000000001776 ) ) ;
#372 = VECTOR ( 'NONE', #439, 1000.000000000000000 ) ;
#373 = EDGE_CURVE ( 'NONE', #700, #770, #1069, .T. ) ;
#374 = LINE ( 'NONE', #713, #178 ) ;
#375 = ORIENTED_EDGE ( 'NONE', *, *, #855, .T. ) ;
#376 = FACE_OUTER_BOUND ( 'NONE', #994, .T. ) ;
#377 = CARTESIAN_POINT ( 'NONE',  ( 75.00000000000000000, 0.000000000000000000, 10.00000000000000000 ) ) ;
#378 = VERTEX_POINT ( 'NONE', #911 ) ;
#379 = VECTOR ( 'NONE', #1081, 1000.000000000000000 ) ;
#380 = ORIENTED_EDGE ( 'NONE', *, *, #154, .T. ) ;
#381 = CYLINDRICAL_SURFACE ( 'NONE', #395, 30.00000000000000000 ) ;
#382 = DIRECTION ( 'NONE',  ( -0.000000000000000000, 1.000000000000000000, -0.000000000000000000 ) ) ;
#383 = ORIENTED_EDGE ( 'NONE', *, *, #785, .T. ) ;
#384 = ORIENTED_EDGE ( 'NONE', *, *, #1079, .T. ) ;
#385 = LINE ( 'NONE', #727, #143 ) ;
#386 = DIRECTION ( 'NONE',  ( 0.000000000000000000, -1.000000000000000000, 0.000000000000000000 ) ) ;
#387 = ADVANCED_FACE ( 'NONE', ( #468 ), #810, .T. ) ;
#388 = EDGE_LOOP ( 'NONE', ( #913, #574, #742, #714 ) ) ;
#389 = ORIENTED_EDGE ( 'NONE', *, *, #580, .T. ) ;
#390 = DIRECTION ( 'NONE',  ( 1.000000000000000000, 0.000000000000000000, 0.000000000000000000 ) ) ;
#391 = LINE ( 'NONE', #898, #1104 ) ;
#392 = LOCAL_TIME ( 16, 4, 55.00000000000000000, #1122 ) ;
#393 = LINE ( 'NONE', #734, #16 ) ;
#394 = EDGE_CURVE ( 'NONE', #700, #931, #453, .T. ) ;
#395 = AXIS2_PLACEMENT_3D ( 'NONE', #564, #1089, #1001 ) ;
#396 = VERTEX_POINT ( 'NONE', #377 ) ;
#397 = DIRECTION ( 'NONE',  ( -0.000000000000000000, -1.000000000000000000, -0.000000000000000000 ) ) ;
#398 = AXIS2_PLACEMENT_3D ( 'NONE', #885, #181, #204 ) ;
#399 = DIRECTION ( 'NONE',  ( -0.000000000000000000, -1.000000000000000000, -0.000000000000000000 ) ) ;
#400 = DIRECTION ( 'NONE',  ( -0.000000000000000000, -1.000000000000000000, -0.000000000000000000 ) ) ;
#401 = VERTEX_POINT ( 'NONE', #1065 ) ;
#402 = DIRECTION ( 'NONE',  ( -0.000000000000000000, 1.000000000000000000, -0.000000000000000000 ) ) ;
#403 = EDGE_CURVE ( 'NONE', #411, #981, #641, .T. ) ;
#404 = CARTESIAN_POINT ( 'NONE',  ( 0.000000000000000000, 20.00000000000000000, -30.00000000000000000 ) ) ;
#405 = LINE ( 'NONE', #497, #365 ) ;
#406 = ORIENTED_EDGE ( 'NONE', *, *, #831, .T. ) ;
#407 = CARTESIAN_POINT ( 'NONE',  ( -4.582575694955840717, 20.00000000000000000, 2.000000000000000444 ) ) ;
#408 = ADVANCED_FACE ( 'NONE', ( #814 ), #38, .T. ) ;
#409 = PERSON_AND_ORGANIZATION_ROLE ( 'design_supplier' ) ;
#410 = PLANE ( 'NONE',  #128 ) ;
#411 = VERTEX_POINT ( 'NONE', #472 ) ;
#412 = CARTESIAN_POINT ( 'NONE',  ( 65.25000000000000000, 20.00000000000000000, -19.99999999999998579 ) ) ;
#413 = AXIS2_PLACEMENT_3D ( 'NONE', #222, #165, #260 ) ;
#414 = PERSON_AND_ORGANIZATION ( #803, #430 ) ;
#415 = FACE_OUTER_BOUND ( 'NONE', #14, .T. ) ;
#416 = CIRCLE ( 'NONE', #366, 9.749999999999998224 ) ;
#417 = ORIENTED_EDGE ( 'NONE', *, *, #545, .T. ) ;
#418 = PLANE ( 'NONE',  #500 ) ;
#419 = CALENDAR_DATE ( 2026, 23, 7 ) ;
#420 = CARTESIAN_POINT ( 'NONE',  ( -75.00000000000000000, 20.00000000000000000, -10.00000000000000000 ) ) ;
#421 = ADVANCED_FACE ( 'NONE', ( #728 ), #1074, .T. ) ;
#422 = ORIENTED_EDGE ( 'NONE', *, *, #545, .F. ) ;
#423 = CARTESIAN_POINT ( 'NONE',  ( -30.00000000000000000, -49.24428900898052319, 10.00000000000000000 ) ) ;
#424 = LINE ( 'NONE', #765, #1009 ) ;
#425 = PERSON_AND_ORGANIZATION ( #803, #430 ) ;
#426 = DIRECTION ( 'NONE',  ( 0.000000000000000000, 0.000000000000000000, 1.000000000000000000 ) ) ;
#427 = ORIENTED_EDGE ( 'NONE', *, *, #338, .F. ) ;
#428 = DIRECTION ( 'NONE',  ( 0.000000000000000000, 0.000000000000000000, 1.000000000000000000 ) ) ;
#429 = APPROVAL ( #933, 'UNSPECIFIED' ) ;
#430 = ORGANIZATION ( 'UNSPECIFIED', 'UNSPECIFIED', '' ) ;
#431 = DIRECTION ( 'NONE',  ( -0.000000000000000000, -1.000000000000000000, -0.000000000000000000 ) ) ;
#432 = EDGE_CURVE ( 'NONE', #985, #41, #374, .T. ) ;
#433 = LINE ( 'NONE', #17, #176 ) ;
#434 = ORIENTED_EDGE ( 'NONE', *, *, #362, .T. ) ;
#435 = CARTESIAN_POINT ( 'NONE',  ( -30.00000000000000000, 0.000000000000000000, -10.00000000000000000 ) ) ;
#436 = ORIENTED_EDGE ( 'NONE', *, *, #290, .F. ) ;
#437 = CARTESIAN_POINT ( 'NONE',  ( 65.25000000000000000, 20.00000000000000000, 10.24999999999999822 ) ) ;
#438 = ADVANCED_FACE ( 'NONE', ( #636 ), #760, .T. ) ;
#439 = DIRECTION ( 'NONE',  ( 1.000000000000000000, 0.000000000000000000, 0.000000000000000000 ) ) ;
#440 = VERTEX_POINT ( 'NONE', #144 ) ;
#441 = DIRECTION ( 'NONE',  ( -1.000000000000000000, 0.000000000000000000, 0.000000000000000000 ) ) ;
#442 = CARTESIAN_POINT ( 'NONE',  ( 65.25000000000000000, 20.00000000000000000, 10.24999999999999822 ) ) ;
#443 = EDGE_CURVE ( 'NONE', #401, #53, #593, .T. ) ;
#444 = CIRCLE ( 'NONE', #987, 30.00000000000000000 ) ;
#445 = CARTESIAN_POINT ( 'NONE',  ( 30.00000000000000000, -49.24428900898052319, -10.00000000000000000 ) ) ;
#446 = ORIENTED_EDGE ( 'NONE', *, *, #992, .T. ) ;
#447 = LINE ( 'NONE', #605, #141 ) ;
#448 = DIRECTION ( 'NONE',  ( -1.000000000000000000, 0.000000000000000000, 0.000000000000000000 ) ) ;
#449 = DIRECTION ( 'NONE',  ( 0.000000000000000000, 1.000000000000000000, 0.000000000000000000 ) ) ;
#450 = EDGE_CURVE ( 'NONE', #18, #291, #658, .T. ) ;
#451 = ORIENTED_EDGE ( 'NONE', *, *, #201, .T. ) ;
#452 = LINE ( 'NONE', #1057, #845 ) ;
#453 = LINE ( 'NONE', #23, #233 ) ;
#454 = VERTEX_POINT ( 'NONE', #775 ) ;
#455 = EDGE_CURVE ( 'NONE', #80, #396, #1105, .T. ) ;
#456 = DIRECTION ( 'NONE',  ( -0.000000000000000000, 1.000000000000000000, -0.000000000000000000 ) ) ;
#457 = LINE ( 'NONE', #284, #264 ) ;
#458 = ORIENTED_EDGE ( 'NONE', *, *, #45, .F. ) ;
#459 = ORIENTED_EDGE ( 'NONE', *, *, #957, .T. ) ;
#460 = DIRECTION ( 'NONE',  ( -1.000000000000000000, 0.000000000000000000, 0.000000000000000000 ) ) ;
#461 = ADVANCED_FACE ( 'NONE', ( #339 ), #565, .F. ) ;
#462 = DIRECTION ( 'NONE',  ( 3.295489889614618425E-16, -0.000000000000000000, 1.000000000000000000 ) ) ;
#463 = ORIENTED_EDGE ( 'NONE', *, *, #971, .T. ) ;
#464 = VECTOR ( 'NONE', #858, 1000.000000000000000 ) ;
#465 = EDGE_LOOP ( 'NONE', ( #1062, #633, #279, #690 ) ) ;
#466 = DIRECTION ( 'NONE',  ( 1.000000000000000000, -0.000000000000000000, 3.295489889614618425E-16 ) ) ;
#467 = ADVANCED_FACE ( 'NONE', ( #1120 ), #345, .F. ) ;
#468 = FACE_OUTER_BOUND ( 'NONE', #521, .T. ) ;
#469 = VERTEX_POINT ( 'NONE', #311 ) ;
#470 = ORIENTED_EDGE ( 'NONE', *, *, #20, .F. ) ;
#471 = DIRECTION ( 'NONE',  ( 1.000000000000000000, -0.000000000000000000, 3.295489889614618425E-16 ) ) ;
#472 = CARTESIAN_POINT ( 'NONE',  ( 7.228416147400480440, 0.000000000000000000, 1.999999999999997780 ) ) ;
#473 = EDGE_CURVE ( 'NONE', #291, #869, #613, .T. ) ;
#474 = ORIENTED_EDGE ( 'NONE', *, *, #802, .T. ) ;
#475 = EDGE_CURVE ( 'NONE', #41, #999, #692, .T. ) ;
#476 = ORIENTED_EDGE ( 'NONE', *, *, #150, .T. ) ;
#477 = LINE ( 'NONE', #118, #87 ) ;
#478 = CARTESIAN_POINT ( 'NONE',  ( 22.36067977499791581, 20.00000000000000000, -19.99999999999997868 ) ) ;
#479 = AXIS2_PLACEMENT_3D ( 'NONE', #945, #241, #1021 ) ;
#480 = DIRECTION ( 'NONE',  ( 3.295489889614618425E-16, 0.000000000000000000, -1.000000000000000000 ) ) ;
#481 = EDGE_CURVE ( 'NONE', #796, #343, #486, .T. ) ;
#482 = AXIS2_PLACEMENT_3D ( 'NONE', #54, #651, #833 ) ;
#483 = ORIENTED_EDGE ( 'NONE', *, *, #207, .F. ) ;
#484 = DIRECTION ( 'NONE',  ( -0.000000000000000000, 1.000000000000000000, -0.000000000000000000 ) ) ;
#485 = VECTOR ( 'NONE', #758, 1000.000000000000000 ) ;
#486 = LINE ( 'NONE', #569, #161 ) ;
#487 = DIRECTION ( 'NONE',  ( -0.000000000000000000, 1.000000000000000000, -0.000000000000000000 ) ) ;
#488 = ORIENTED_EDGE ( 'NONE', *, *, #450, .F. ) ;
#489 = FACE_OUTER_BOUND ( 'NONE', #1000, .T. ) ;
#490 = EDGE_CURVE ( 'NONE', #918, #498, #921, .T. ) ;
#491 = CARTESIAN_POINT ( 'NONE',  ( 0.000000000000000000, 0.000000000000000000, 0.000000000000000000 ) ) ;
#492 = CARTESIAN_POINT ( 'NONE',  ( -7.228416147400480440, -49.24428900898052319, 1.999999999999997780 ) ) ;
#493 = ORIENTED_EDGE ( 'NONE', *, *, #221, .F. ) ;
#494 = LINE ( 'NONE', #336, #830 ) ;
#495 = AXIS2_PLACEMENT_3D ( 'NONE', #768, #698, #256 ) ;
#496 = APPROVAL_STATUS ( 'not_yet_approved' ) ;
#497 = CARTESIAN_POINT ( 'NONE',  ( -75.00000000000000000, 0.000000000000000000, -19.99999999999998934 ) ) ;
#498 = VERTEX_POINT ( 'NONE', #946 ) ;
#499 = FACE_OUTER_BOUND ( 'NONE', #615, .T. ) ;
#500 = AXIS2_PLACEMENT_3D ( 'NONE', #1118, #841, #1103 ) ;
#501 = AXIS2_PLACEMENT_3D ( 'NONE', #314, #30, #220 ) ;
#502 = EDGE_CURVE ( 'NONE', #343, #378, #332, .T. ) ;
#503 = CLOSED_SHELL ( 'NONE', ( #707, #608, #276, #910, #889, #669, #1085, #815, #774, #65, #1022, #467, #461, #764, #188, #160, #112, #738, #941, #879, #687, #408, #302, #322, #387, #595, #963, #438, #346, #104, #757, #421 ) ) ;
#504 = LINE ( 'NONE', #1026, #1119 ) ;
#505 = ORIENTED_EDGE ( 'NONE', *, *, #637, .T. ) ;
#506 = DIRECTION ( 'NONE',  ( -0.000000000000000000, 1.000000000000000000, -0.000000000000000000 ) ) ;
#507 = CARTESIAN_POINT ( 'NONE',  ( 75.00000000000000000, -49.24428900898052319, -10.00000000000000000 ) ) ;
#508 = AXIS2_PLACEMENT_3D ( 'NONE', #312, #329, #923 ) ;
#509 = PERSON_AND_ORGANIZATION ( #803, #430 ) ;
#510 = DIRECTION ( 'NONE',  ( -1.000000000000000000, 0.000000000000000000, -0.000000000000000000 ) ) ;
#511 = VERTEX_POINT ( 'NONE', #939 ) ;
#512 = LINE ( 'NONE', #246, #732 ) ;
#513 = CARTESIAN_POINT ( 'NONE',  ( -30.00000000000000000, -49.24428900898052319, -10.00000000000000000 ) ) ;
#514 = LINE ( 'NONE', #97, #1008 ) ;
#515 = ORIENTED_EDGE ( 'NONE', *, *, #362, .F. ) ;
#516 = EDGE_CURVE ( 'NONE', #285, #511, #424, .T. ) ;
#517 = ORIENTED_EDGE ( 'NONE', *, *, #432, .F. ) ;
#518 = CARTESIAN_POINT ( 'NONE',  ( 75.00000000000000000, 20.00000000000000000, -10.24999999999998757 ) ) ;
#519 = AXIS2_PLACEMENT_3D ( 'NONE', #561, #386, #289 ) ;
#520 = DIRECTION ( 'NONE',  ( -1.000000000000000000, -0.000000000000000000, 1.977293933768771203E-16 ) ) ;
#521 = EDGE_LOOP ( 'NONE', ( #924, #598, #262, #436 ) ) ;
#522 = CARTESIAN_POINT ( 'NONE',  ( -65.25000000000000000, 0.000000000000000000, 10.25000000000000000 ) ) ;
#523 = EDGE_CURVE ( 'NONE', #1097, #721, #1111, .T. ) ;
#524 = DIRECTION ( 'NONE',  ( 0.000000000000000000, 1.000000000000000000, 0.000000000000000000 ) ) ;
#525 = CARTESIAN_POINT ( 'NONE',  ( 65.25000000000000000, 20.00000000000000000, 20.00000000000000000 ) ) ;
#526 = ORIENTED_EDGE ( 'NONE', *, *, #629, .T. ) ;
#527 = CARTESIAN_POINT ( 'NONE',  ( 75.00000000000000000, 0.000000000000000000, -9.999999999999996447 ) ) ;
#528 = DIRECTION ( 'NONE',  ( 0.000000000000000000, 0.000000000000000000, -1.000000000000000000 ) ) ;
#529 = CARTESIAN_POINT ( 'NONE',  ( -7.228416147400479552, 20.00000000000000000, -2.000000000000001332 ) ) ;
#530 = ORIENTED_EDGE ( 'NONE', *, *, #657, .F. ) ;
#531 = LINE ( 'NONE', #882, #1112 ) ;
#532 = ORIENTED_EDGE ( 'NONE', *, *, #60, .F. ) ;
#533 = DIRECTION ( 'NONE',  ( 0.000000000000000000, 1.000000000000000000, 0.000000000000000000 ) ) ;
#534 = APPROVAL_PERSON_ORGANIZATION ( #843, #711, #341 ) ;
#535 = AXIS2_PLACEMENT_3D ( 'NONE', #199, #1052, #541 ) ;
#536 = CARTESIAN_POINT ( 'NONE',  ( 75.00000000000000000, 20.00000000000000000, -19.99999999999998934 ) ) ;
#537 = EDGE_CURVE ( 'NONE', #736, #1102, #107, .T. ) ;
#538 = AXIS2_PLACEMENT_3D ( 'NONE', #661, #308, #230 ) ;
#539 = VERTEX_POINT ( 'NONE', #169 ) ;
#540 = ORIENTED_EDGE ( 'NONE', *, *, #137, .T. ) ;
#541 = DIRECTION ( 'NONE',  ( -1.776356839400250465E-15, 0.000000000000000000, 1.000000000000000000 ) ) ;
#542 = FACE_OUTER_BOUND ( 'NONE', #639, .T. ) ;
#543 = EDGE_CURVE ( 'NONE', #556, #850, #92, .T. ) ;
#544 = ORIENTED_EDGE ( 'NONE', *, *, #744, .T. ) ;
#545 = EDGE_CURVE ( 'NONE', #840, #975, #865, .T. ) ;
#546 = ORIENTED_EDGE ( 'NONE', *, *, #1076, .T. ) ;
#547 = CARTESIAN_POINT ( 'NONE',  ( 65.25000000000000000, 20.00000000000000000, -10.24999999999998757 ) ) ;
#548 = DIRECTION ( 'NONE',  ( -1.000000000000000000, 0.000000000000000000, -1.977293933768771203E-16 ) ) ;
#549 = EDGE_LOOP ( 'NONE', ( #111, #876, #476, #787 ) ) ;
#550 = ORIENTED_EDGE ( 'NONE', *, *, #39, .F. ) ;
#551 = CARTESIAN_POINT ( 'NONE',  ( 30.00000000000000000, 20.00000000000000000, 10.00000000000000000 ) ) ;
#552 = EDGE_CURVE ( 'NONE', #130, #725, #733, .T. ) ;
#553 = VECTOR ( 'NONE', #880, 1000.000000000000000 ) ;
#554 = CARTESIAN_POINT ( 'NONE',  ( -65.25000000000000000, 0.000000000000000000, -19.99999999999998579 ) ) ;
#555 = VECTOR ( 'NONE', #680, 1000.000000000000000 ) ;
#556 = VERTEX_POINT ( 'NONE', #652 ) ;
#557 = VECTOR ( 'NONE', #1037, 1000.000000000000000 ) ;
#558 = VERTEX_POINT ( 'NONE', #998 ) ;
#559 = LINE ( 'NONE', #131, #1116 ) ;
#560 = EDGE_CURVE ( 'NONE', #937, #291, #286, .T. ) ;
#561 = CARTESIAN_POINT ( 'NONE',  ( 65.25000000000000000, 20.00000000000000000, -10.24999999999998757 ) ) ;
#562 = ORIENTED_EDGE ( 'NONE', *, *, #693, .T. ) ;
#563 = VERTEX_POINT ( 'NONE', #708 ) ;
#564 = CARTESIAN_POINT ( 'NONE',  ( 0.000000000000000000, 20.00000000000000000, 0.000000000000000000 ) ) ;
#565 = PLANE ( 'NONE',  #573 ) ;
#566 = LINE ( 'NONE', #420, #555 ) ;
#567 = EDGE_LOOP ( 'NONE', ( #800, #682, #540, #218 ) ) ;
#568 = LINE ( 'NONE', #1073, #50 ) ;
#569 = CARTESIAN_POINT ( 'NONE',  ( -75.00000000000000000, 20.00000000000000000, 10.25000000000000178 ) ) ;
#570 = CC_DESIGN_APPROVAL ( #429, ( #717 ) ) ;
#571 = CC_DESIGN_PERSON_AND_ORGANIZATION_ASSIGNMENT ( #61, #1106, ( #579 ) ) ;
#572 = LINE ( 'NONE', #261, #965 ) ;
#573 = AXIS2_PLACEMENT_3D ( 'NONE', #507, #606, #852 ) ;
#574 = ORIENTED_EDGE ( 'NONE', *, *, #450, .T. ) ;
#575 = CARTESIAN_POINT ( 'NONE',  ( -30.00000000000000000, 20.00000000000000000, 10.00000000000000000 ) ) ;
#576 = CARTESIAN_POINT ( 'NONE',  ( -75.00000000000000000, 20.00000000000000000, -10.24999999999998757 ) ) ;
#577 = ORIENTED_EDGE ( 'NONE', *, *, #82, .F. ) ;
#578 = CARTESIAN_POINT ( 'NONE',  ( -65.25000000000000000, 20.00000000000000000, -10.24999999999998757 ) ) ;
#579 = PRODUCT ( 'Link2LShapeConnectorFront_Default_sldprt', 'Link2LShapeConnectorFront_Default_sldprt', '', ( #321 ) ) ;
#580 = EDGE_CURVE ( 'NONE', #363, #869, #113, .T. ) ;
#581 = AXIS2_PLACEMENT_3D ( 'NONE', #27, #217, #983 ) ;
#582 = COORDINATED_UNIVERSAL_TIME_OFFSET ( 3, 30, .AHEAD. ) ;
#583 = DIRECTION ( 'NONE',  ( -1.000000000000000000, 0.000000000000000000, -1.639104385880485620E-16 ) ) ;
#584 = ORIENTED_EDGE ( 'NONE', *, *, #793, .F. ) ;
#585 = DIRECTION ( 'NONE',  ( -0.000000000000000000, 0.000000000000000000, 1.000000000000000000 ) ) ;
#586 = EDGE_CURVE ( 'NONE', #811, #36, #303, .T. ) ;
#587 = DATE_AND_TIME ( #237, #1024 ) ;
#588 = CARTESIAN_POINT ( 'NONE',  ( 7.228416147400479552, -49.24428900898052319, -2.000000000000001776 ) ) ;
#589 = VECTOR ( 'NONE', #771, 1000.000000000000000 ) ;
#590 = ORIENTED_EDGE ( 'NONE', *, *, #1058, .T. ) ;
#591 = CARTESIAN_POINT ( 'NONE',  ( -4.582575694955841605, 0.000000000000000000, 2.000000000000000444 ) ) ;
#592 = VECTOR ( 'NONE', #275, 1000.000000000000000 ) ;
#593 = LINE ( 'NONE', #867, #142 ) ;
#594 = PRODUCT_DEFINITION ( 'UNKNOWN', '', #1061, #893 ) ;
#595 = ADVANCED_FACE ( 'NONE', ( #376 ), #970, .T. ) ;
#596 = PERSON_AND_ORGANIZATION_ROLE ( 'creator' ) ;
#597 = DIRECTION ( 'NONE',  ( -8.881784197001252323E-16, 0.000000000000000000, 1.000000000000000000 ) ) ;
#598 = ORIENTED_EDGE ( 'NONE', *, *, #831, .F. ) ;
#599 = FACE_OUTER_BOUND ( 'NONE', #644, .T. ) ;
#600 = DIRECTION ( 'NONE',  ( 0.000000000000000000, 0.000000000000000000, 1.000000000000000000 ) ) ;
#601 = DATE_AND_TIME ( #255, #337 ) ;
#602 = LINE ( 'NONE', #367, #860 ) ;
#603 = EDGE_CURVE ( 'NONE', #363, #76, #22, .T. ) ;
#604 = ORIENTED_EDGE ( 'NONE', *, *, #172, .F. ) ;
#605 = CARTESIAN_POINT ( 'NONE',  ( -22.36067977499790871, 20.00000000000000000, 19.99999999999998579 ) ) ;
#606 = DIRECTION ( 'NONE',  ( -0.000000000000000000, 0.000000000000000000, -1.000000000000000000 ) ) ;
#607 = CARTESIAN_POINT ( 'NONE',  ( -30.00000000000000000, 0.000000000000000000, 10.00000000000000000 ) ) ;
#608 = ADVANCED_FACE ( 'NONE', ( #351 ), #265, .T. ) ;
#609 = ORIENTED_EDGE ( 'NONE', *, *, #455, .F. ) ;
#610 = DIRECTION ( 'NONE',  ( -0.000000000000000000, -1.000000000000000000, -0.000000000000000000 ) ) ;
#611 = CC_DESIGN_APPROVAL ( #193, ( #594 ) ) ;
#612 = CARTESIAN_POINT ( 'NONE',  ( 0.000000000000000000, 0.000000000000000000, 0.000000000000000000 ) ) ;
#613 = CIRCLE ( 'NONE', #1094, 30.00000000000000000 ) ;
#614 = LINE ( 'NONE', #1033, #6 ) ;
#615 = EDGE_LOOP ( 'NONE', ( #530, #417, #116, #296 ) ) ;
#616 = DIRECTION ( 'NONE',  ( 0.000000000000000000, 0.000000000000000000, 1.000000000000000000 ) ) ;
#617 = ORIENTED_EDGE ( 'NONE', *, *, #657, .T. ) ;
#618 = LINE ( 'NONE', #627, #197 ) ;
#619 = VECTOR ( 'NONE', #668, 1000.000000000000000 ) ;
#620 = CARTESIAN_POINT ( 'NONE',  ( 0.000000000000000000, 0.000000000000000000, -30.00000000000000000 ) ) ;
#621 = ORIENTED_EDGE ( 'NONE', *, *, #82, .T. ) ;
#622 = CARTESIAN_POINT ( 'NONE',  ( -7.228416147400479552, 0.000000000000000000, -2.000000000000001776 ) ) ;
#623 = FACE_OUTER_BOUND ( 'NONE', #350, .T. ) ;
#624 = EDGE_CURVE ( 'NONE', #239, #955, #897, .T. ) ;
#625 = DIRECTION ( 'NONE',  ( 1.000000000000000000, 0.000000000000000000, -3.295489889614618425E-16 ) ) ;
#626 = EDGE_LOOP ( 'NONE', ( #117, #235, #990, #753 ) ) ;
#627 = CARTESIAN_POINT ( 'NONE',  ( 0.000000000000000000, -49.24428900898052319, 5.000000000000000000 ) ) ;
#628 = AXIS2_PLACEMENT_3D ( 'NONE', #754, #1017, #1030 ) ;
#629 = EDGE_CURVE ( 'NONE', #725, #989, #828, .T. ) ;
#630 = CIRCLE ( 'NONE', #886, 30.00000000000000000 ) ;
#631 = LINE ( 'NONE', #200, #674 ) ;
#632 = AXIS2_PLACEMENT_3D ( 'NONE', #925, #837, #585 ) ;
#633 = ORIENTED_EDGE ( 'NONE', *, *, #516, .F. ) ;
#634 = ORIENTED_EDGE ( 'NONE', *, *, #481, .F. ) ;
#635 = FACE_OUTER_BOUND ( 'NONE', #1016, .T. ) ;
#636 = FACE_OUTER_BOUND ( 'NONE', #465, .T. ) ;
#637 = EDGE_CURVE ( 'NONE', #1054, #869, #452, .T. ) ;
#638 = ORIENTED_EDGE ( 'NONE', *, *, #403, .T. ) ;
#639 = EDGE_LOOP ( 'NONE', ( #544, #129, #532, #726 ) ) ;
#640 = DIRECTION ( 'NONE',  ( -0.000000000000000000, -1.000000000000000000, -0.000000000000000000 ) ) ;
#641 = LINE ( 'NONE', #905, #114 ) ;
#642 = ORIENTED_EDGE ( 'NONE', *, *, #552, .T. ) ;
#643 = EDGE_CURVE ( 'NONE', #961, #558, #735, .T. ) ;
#644 = EDGE_LOOP ( 'NONE', ( #638, #139, #590, #806 ) ) ;
#645 = DIRECTION ( 'NONE',  ( -0.000000000000000000, 1.000000000000000000, -0.000000000000000000 ) ) ;
#646 = DIRECTION ( 'NONE',  ( 0.000000000000000000, -1.000000000000000000, 0.000000000000000000 ) ) ;
#647 = CIRCLE ( 'NONE', #974, 7.500000000000000000 ) ;
#648 = ORIENTED_EDGE ( 'NONE', *, *, #490, .F. ) ;
#649 = VECTOR ( 'NONE', #1031, 1000.000000000000000 ) ;
#650 = ORIENTED_EDGE ( 'NONE', *, *, #997, .T. ) ;
#651 = DIRECTION ( 'NONE',  ( 0.000000000000000000, -1.000000000000000000, 0.000000000000000000 ) ) ;
#652 = CARTESIAN_POINT ( 'NONE',  ( -30.00000000000000000, 0.000000000000000000, -10.00000000000000000 ) ) ;
#653 = CARTESIAN_POINT ( 'NONE',  ( 0.000000000000000000, 20.00000000000000000, -30.00000000000000000 ) ) ;
#654 = ORIENTED_EDGE ( 'NONE', *, *, #310, .F. ) ;
#655 = VECTOR ( 'NONE', #829, 1000.000000000000000 ) ;
#656 = FACE_OUTER_BOUND ( 'NONE', #202, .T. ) ;
#657 = EDGE_CURVE ( 'NONE', #840, #811, #618, .T. ) ;
#658 = LINE ( 'NONE', #404, #887 ) ;
#659 = DIRECTION ( 'NONE',  ( 0.000000000000000000, 0.000000000000000000, 1.000000000000000000 ) ) ;
#660 = ORIENTED_EDGE ( 'NONE', *, *, #39, .T. ) ;
#661 = CARTESIAN_POINT ( 'NONE',  ( 0.000000000000000000, 20.00000000000000000, 0.000000000000000000 ) ) ;
#662 = DIRECTION ( 'NONE',  ( 0.000000000000000000, 1.000000000000000000, 0.000000000000000000 ) ) ;
#663 = AXIS2_PLACEMENT_3D ( 'NONE', #1043, #449, #10 ) ;
#664 = AXIS2_PLACEMENT_3D ( 'NONE', #9, #712, #1042 ) ;
#665 = ORIENTED_EDGE ( 'NONE', *, *, #586, .F. ) ;
#666 = CARTESIAN_POINT ( 'NONE',  ( 0.000000000000000000, -49.24428900898052319, 0.000000000000000000 ) ) ;
#667 = APPLICATION_PROTOCOL_DEFINITION ( 'international standard', 'config_control_design', 1994, #872 ) ;
#668 = DIRECTION ( 'NONE',  ( 1.000000000000000000, 0.000000000000000000, 1.977293933768771203E-16 ) ) ;
#669 = ADVANCED_FACE ( 'NONE', ( #1063 ), #187, .T. ) ;
#670 = ORIENTED_EDGE ( 'NONE', *, *, #523, .T. ) ;
#671 = DIRECTION ( 'NONE',  ( 0.000000000000000000, 0.000000000000000000, 1.000000000000000000 ) ) ;
#672 = AXIS2_PLACEMENT_3D ( 'NONE', #588, #163, #74 ) ;
#673 = VECTOR ( 'NONE', #798, 1000.000000000000000 ) ;
#674 = VECTOR ( 'NONE', #115, 1000.000000000000000 ) ;
#675 = DATE_AND_TIME ( #250, #392 ) ;
#676 = LINE ( 'NONE', #1019, #655 ) ;
#677 = ORIENTED_EDGE ( 'NONE', *, *, #20, .T. ) ;
#678 = CARTESIAN_POINT ( 'NONE',  ( 75.00000000000000000, 0.000000000000000000, -19.99999999999998934 ) ) ;
#679 = COORDINATED_UNIVERSAL_TIME_OFFSET ( 3, 30, .AHEAD. ) ;
#680 = DIRECTION ( 'NONE',  ( 1.000000000000000000, 0.000000000000000000, 0.000000000000000000 ) ) ;
#681 = CC_DESIGN_APPROVAL ( #711, ( #1061 ) ) ;
#682 = ORIENTED_EDGE ( 'NONE', *, *, #842, .T. ) ;
#683 = PLANE ( 'NONE',  #628 ) ;
#684 = VECTOR ( 'NONE', #397, 1000.000000000000000 ) ;
#685 = CARTESIAN_POINT ( 'NONE',  ( -75.00000000000000000, 0.000000000000000000, -19.99999999999998934 ) ) ;
#686 = VECTOR ( 'NONE', #460, 1000.000000000000000 ) ;
#687 = ADVANCED_FACE ( 'NONE', ( #790 ), #964, .T. ) ;
#688 = PERSON_AND_ORGANIZATION ( #803, #430 ) ;
#689 = LINE ( 'NONE', #166, #372 ) ;
#690 = ORIENTED_EDGE ( 'NONE', *, *, #1121, .F. ) ;
#691 = LINE ( 'NONE', #423, #212 ) ;
#692 = LINE ( 'NONE', #740, #557 ) ;
#693 = EDGE_CURVE ( 'NONE', #955, #411, #977, .T. ) ;
#694 = CARTESIAN_POINT ( 'NONE',  ( -65.25000000000000000, 0.000000000000000000, -10.24999999999998757 ) ) ;
#695 = ORIENTED_EDGE ( 'NONE', *, *, #749, .F. ) ;
#696 = LINE ( 'NONE', #877, #789 ) ;
#697 = DIRECTION ( 'NONE',  ( 0.000000000000000000, 0.000000000000000000, 1.000000000000000000 ) ) ;
#698 = DIRECTION ( 'NONE',  ( 0.000000000000000000, 1.000000000000000000, 0.000000000000000000 ) ) ;
#699 = VECTOR ( 'NONE', #1113, 1000.000000000000000 ) ;
#700 = VERTEX_POINT ( 'NONE', #878 ) ;
#701 = CARTESIAN_POINT ( 'NONE',  ( 7.228416147400480440, 20.00000000000000000, 1.999999999999997780 ) ) ;
#702 = CARTESIAN_POINT ( 'NONE',  ( -75.00000000000000000, 0.000000000000000000, -10.24999999999998757 ) ) ;
#703 = AXIS2_PLACEMENT_3D ( 'NONE', #83, #431, #175 ) ;
#704 = FACE_OUTER_BOUND ( 'NONE', #626, .T. ) ;
#705 = ORIENTED_EDGE ( 'NONE', *, *, #1044, .F. ) ;
#706 = DIRECTION ( 'NONE',  ( -0.000000000000000000, -1.000000000000000000, -0.000000000000000000 ) ) ;
#707 = ADVANCED_FACE ( 'NONE', ( #635 ), #15, .F. ) ;
#708 = CARTESIAN_POINT ( 'NONE',  ( 22.36067977499790871, 20.00000000000000000, 19.99999999999998579 ) ) ;
#709 = DIRECTION ( 'NONE',  ( -0.000000000000000000, -1.000000000000000000, -0.000000000000000000 ) ) ;
#710 = ORIENTED_EDGE ( 'NONE', *, *, #552, .F. ) ;
#711 = APPROVAL ( #496, 'UNSPECIFIED' ) ;
#712 = DIRECTION ( 'NONE',  ( 0.000000000000000000, 1.000000000000000000, 0.000000000000000000 ) ) ;
#713 = CARTESIAN_POINT ( 'NONE',  ( -75.00000000000000000, 20.00000000000000000, 20.00000000000000355 ) ) ;
#714 = ORIENTED_EDGE ( 'NONE', *, *, #637, .F. ) ;
#715 = ORIENTED_EDGE ( 'NONE', *, *, #353, .F. ) ;
#716 = DIRECTION ( 'NONE',  ( 0.000000000000000000, 0.000000000000000000, 1.000000000000000000 ) ) ;
#717 = SECURITY_CLASSIFICATION ( '', '', #1100 ) ;
#718 = EDGE_CURVE ( 'NONE', #219, #184, #719, .T. ) ;
#719 = CIRCLE ( 'NONE', #1064, 9.749999999999998224 ) ;
#720 = DIRECTION ( 'NONE',  ( 0.000000000000000000, 0.000000000000000000, 1.000000000000000000 ) ) ;
#721 = VERTEX_POINT ( 'NONE', #702 ) ;
#722 = ORIENTED_EDGE ( 'NONE', *, *, #718, .F. ) ;
#723 = CARTESIAN_POINT ( 'NONE',  ( 0.000000000000000000, 0.000000000000000000, 0.000000000000000000 ) ) ;
#724 = DIRECTION ( 'NONE',  ( -0.000000000000000000, 1.000000000000000000, -0.000000000000000000 ) ) ;
#725 = VERTEX_POINT ( 'NONE', #1048 ) ;
#726 = ORIENTED_EDGE ( 'NONE', *, *, #643, .F. ) ;
#727 = CARTESIAN_POINT ( 'NONE',  ( 75.00000000000000000, -49.24428900898052319, -10.00000000000000000 ) ) ;
#728 = FACE_OUTER_BOUND ( 'NONE', #908, .T. ) ;
#729 = ORIENTED_EDGE ( 'NONE', *, *, #403, .F. ) ;
#730 = ORIENTED_EDGE ( 'NONE', *, *, #110, .F. ) ;
#731 = FACE_OUTER_BOUND ( 'NONE', #122, .T. ) ;
#732 = VECTOR ( 'NONE', #748, 1000.000000000000000 ) ;
#733 = LINE ( 'NONE', #518, #379 ) ;
#734 = CARTESIAN_POINT ( 'NONE',  ( 65.25000000000000000, 20.00000000000000000, -19.99999999999998579 ) ) ;
#735 = CIRCLE ( 'NONE', #267, 7.500000000000000000 ) ;
#736 = VERTEX_POINT ( 'NONE', #277 ) ;
#737 = DIRECTION ( 'NONE',  ( -0.000000000000000000, 1.000000000000000000, -0.000000000000000000 ) ) ;
#738 = ADVANCED_FACE ( 'NONE', ( #623 ), #214, .F. ) ;
#739 = AXIS2_PLACEMENT_3D ( 'NONE', #1053, #109, #294 ) ;
#740 = CARTESIAN_POINT ( 'NONE',  ( -65.25000000000000000, 20.00000000000000000, 20.00000000000000000 ) ) ;
#741 = FACE_OUTER_BOUND ( 'NONE', #88, .T. ) ;
#742 = ORIENTED_EDGE ( 'NONE', *, *, #473, .T. ) ;
#743 = DIRECTION ( 'NONE',  ( 0.000000000000000000, 0.000000000000000000, 1.000000000000000000 ) ) ;
#744 = EDGE_CURVE ( 'NONE', #961, #285, #818, .T. ) ;
#745 = EDGE_CURVE ( 'NONE', #1097, #401, #477, .T. ) ;
#746 = LINE ( 'NONE', #1011, #940 ) ;
#747 = ORIENTED_EDGE ( 'NONE', *, *, #1070, .F. ) ;
#748 = DIRECTION ( 'NONE',  ( -1.000000000000000000, -0.000000000000000000, 1.977293933768771203E-16 ) ) ;
#749 = EDGE_CURVE ( 'NONE', #563, #219, #986, .T. ) ;
#750 = VECTOR ( 'NONE', #870, 1000.000000000000000 ) ;
#751 = DIRECTION ( 'NONE',  ( 0.000000000000000000, 0.000000000000000000, 1.000000000000000000 ) ) ;
#752 = AXIS2_PLACEMENT_3D ( 'NONE', #3, #448, #716 ) ;
#753 = ORIENTED_EDGE ( 'NONE', *, *, #373, .F. ) ;
#754 = CARTESIAN_POINT ( 'NONE',  ( 0.000000000000000000, 0.000000000000000000, 0.000000000000000000 ) ) ;
#755 = VECTOR ( 'NONE', #583, 1000.000000000000000 ) ;
#756 = DIRECTION ( 'NONE',  ( 0.000000000000000000, 0.000000000000000000, 1.000000000000000000 ) ) ;
#757 = ADVANCED_FACE ( 'NONE', ( #902 ), #909, .T. ) ;
#758 = DIRECTION ( 'NONE',  ( 1.000000000000000000, -0.000000000000000000, 9.834626315282913227E-16 ) ) ;
#759 = ORIENTED_EDGE ( 'NONE', *, *, #1039, .F. ) ;
#760 = PLANE ( 'NONE',  #413 ) ;
#761 = APPROVAL_DATE_TIME ( #675, #193 ) ;
#762 = LINE ( 'NONE', #1107, #619 ) ;
#763 = DIRECTION ( 'NONE',  ( 0.000000000000000000, -1.000000000000000000, 0.000000000000000000 ) ) ;
#764 = ADVANCED_FACE ( 'NONE', ( #656 ), #807, .F. ) ;
#765 = CARTESIAN_POINT ( 'NONE',  ( -7.228416147400479552, 20.00000000000000000, -2.000000000000001776 ) ) ;
#766 = DATE_TIME_ROLE ( 'creation_date' ) ;
#767 = AXIS2_PLACEMENT_3D ( 'NONE', #780, #967, #102 ) ;
#768 = CARTESIAN_POINT ( 'NONE',  ( -65.25000000000000000, 20.00000000000000000, 10.25000000000000000 ) ) ;
#769 = VECTOR ( 'NONE', #191, 1000.000000000000000 ) ;
#770 = VERTEX_POINT ( 'NONE', #551 ) ;
#771 = DIRECTION ( 'NONE',  ( -0.000000000000000000, 1.000000000000000000, -0.000000000000000000 ) ) ;
#772 = CIRCLE ( 'NONE', #663, 5.000000000000000000 ) ;
#773 = AXIS2_PLACEMENT_3D ( 'NONE', #478, #1003, #1086 ) ;
#774 = ADVANCED_FACE ( 'NONE', ( #731 ), #381, .T. ) ;
#775 = CARTESIAN_POINT ( 'NONE',  ( 22.36067977499791581, 20.00000000000000000, -19.99999999999997868 ) ) ;
#776 = PERSON_AND_ORGANIZATION ( #803, #430 ) ;
#777 = CARTESIAN_POINT ( 'NONE',  ( 75.00000000000000000, 20.00000000000000000, -19.99999999999998934 ) ) ;
#778 = VERTEX_POINT ( 'NONE', #825 ) ;
#779 = DIRECTION ( 'NONE',  ( -0.000000000000000000, 1.000000000000000000, -0.000000000000000000 ) ) ;
#780 = CARTESIAN_POINT ( 'NONE',  ( 30.00000000000000000, -49.24428900898052319, -10.00000000000000000 ) ) ;
#781 = ORIENTED_EDGE ( 'NONE', *, *, #75, .T. ) ;
#782 = CARTESIAN_POINT ( 'NONE',  ( -22.36067977499791581, 20.00000000000000000, -19.99999999999997868 ) ) ;
#783 = CARTESIAN_POINT ( 'NONE',  ( -22.36067977499791581, 0.000000000000000000, -19.99999999999997868 ) ) ;
#784 = DIRECTION ( 'NONE',  ( 0.000000000000000000, 0.000000000000000000, 1.000000000000000000 ) ) ;
#785 = EDGE_CURVE ( 'NONE', #469, #239, #49, .T. ) ;
#786 = AXIS2_PLACEMENT_3D ( 'NONE', #171, #709, #597 ) ;
#787 = ORIENTED_EDGE ( 'NONE', *, *, #802, .F. ) ;
#788 = DIRECTION ( 'NONE',  ( 0.000000000000000000, 0.000000000000000000, 1.000000000000000000 ) ) ;
#789 = VECTOR ( 'NONE', #610, 1000.000000000000000 ) ;
#790 = FACE_OUTER_BOUND ( 'NONE', #1012, .T. ) ;
#791 = VECTOR ( 'NONE', #456, 1000.000000000000000 ) ;
#792 = FACE_OUTER_BOUND ( 'NONE', #1036, .T. ) ;
#793 = EDGE_CURVE ( 'NONE', #454, #18, #630, .T. ) ;
#794 = ORIENTED_EDGE ( 'NONE', *, *, #842, .F. ) ;
#795 = CARTESIAN_POINT ( 'NONE',  ( 75.00000000000000000, 20.00000000000000000, -19.99999999999998934 ) ) ;
#796 = VERTEX_POINT ( 'NONE', #47 ) ;
#797 = DIRECTION ( 'NONE',  ( 0.000000000000000000, 0.000000000000000000, 1.000000000000000000 ) ) ;
#798 = DIRECTION ( 'NONE',  ( -0.000000000000000000, -0.000000000000000000, -1.000000000000000000 ) ) ;
#799 = ORIENTED_EDGE ( 'NONE', *, *, #473, .F. ) ;
#800 = ORIENTED_EDGE ( 'NONE', *, *, #172, .T. ) ;
#801 = DIRECTION ( 'NONE',  ( -0.000000000000000000, -1.000000000000000000, -0.000000000000000000 ) ) ;
#802 = EDGE_CURVE ( 'NONE', #454, #937, #813, .T. ) ;
#803 = PERSON ( 'UNSPECIFIED', 'UNSPECIFIED', 'UNSPECIFIED', ('UNSPECIFIED'), ('UNSPECIFIED'), ('UNSPECIFIED') ) ;
#804 = DIRECTION ( 'NONE',  ( 0.000000000000000000, 0.000000000000000000, -1.000000000000000000 ) ) ;
#805 = VERTEX_POINT ( 'NONE', #1078 ) ;
#806 = ORIENTED_EDGE ( 'NONE', *, *, #26, .F. ) ;
#807 = PLANE ( 'NONE',  #1080 ) ;
#808 = CC_DESIGN_PERSON_AND_ORGANIZATION_ASSIGNMENT ( #776, #848, ( #717 ) ) ;
#809 = AXIS2_PLACEMENT_3D ( 'NONE', #952, #254, #600 ) ;
#810 = PLANE ( 'NONE',  #739 ) ;
#811 = VERTEX_POINT ( 'NONE', #42 ) ;
#812 = ORIENTED_EDGE ( 'NONE', *, *, #873, .T. ) ;
#813 = LINE ( 'NONE', #297, #684 ) ;
#814 = FACE_OUTER_BOUND ( 'NONE', #1034, .T. ) ;
#815 = ADVANCED_FACE ( 'NONE', ( #209 ), #301, .T. ) ;
#816 = ORIENTED_EDGE ( 'NONE', *, *, #821, .F. ) ;
#817 = ORIENTED_EDGE ( 'NONE', *, *, #91, .F. ) ;
#818 = LINE ( 'NONE', #1068, #249 ) ;
#819 = DIRECTION ( 'NONE',  ( 0.000000000000000000, 0.000000000000000000, -1.000000000000000000 ) ) ;
#820 = CIRCLE ( 'NONE', #495, 9.750000000000000000 ) ;
#821 = EDGE_CURVE ( 'NONE', #100, #511, #198, .T. ) ;
#822 = ORIENTED_EDGE ( 'NONE', *, *, #785, .F. ) ;
#823 = UNCERTAINTY_MEASURE_WITH_UNIT (LENGTH_MEASURE( 1.000000000000000082E-05 ), #19, 'distance_accuracy_value', 'NONE');
#824 = ORIENTED_EDGE ( 'NONE', *, *, #150, .F. ) ;
#825 = CARTESIAN_POINT ( 'NONE',  ( 65.25000000000000000, 0.000000000000000000, 20.00000000000000000 ) ) ;
#826 = LOCAL_TIME ( 16, 4, 55.00000000000000000, #1018 ) ;
#827 = DIRECTION ( 'NONE',  ( -0.000000000000000000, 1.000000000000000000, -0.000000000000000000 ) ) ;
#828 = CIRCLE ( 'NONE', #958, 9.750000000000000000 ) ;
#829 = DIRECTION ( 'NONE',  ( -0.000000000000000000, -0.000000000000000000, -1.000000000000000000 ) ) ;
#830 = VECTOR ( 'NONE', #149, 1000.000000000000000 ) ;
#831 = EDGE_CURVE ( 'NONE', #211, #378, #225, .T. ) ;
#832 = ORIENTED_EDGE ( 'NONE', *, *, #315, .T. ) ;
#833 = DIRECTION ( 'NONE',  ( 0.000000000000000000, 0.000000000000000000, -1.000000000000000000 ) ) ;
#834 = CARTESIAN_POINT ( 'NONE',  ( -7.228416147400480440, 20.00000000000000000, 1.999999999999997780 ) ) ;
#835 = DIRECTION ( 'NONE',  ( 0.000000000000000000, -0.000000000000000000, -1.000000000000000000 ) ) ;
#836 = ORIENTED_EDGE ( 'NONE', *, *, #110, .T. ) ;
#837 = DIRECTION ( 'NONE',  ( -1.000000000000000000, 0.000000000000000000, -0.000000000000000000 ) ) ;
#838 = EDGE_CURVE ( 'NONE', #975, #918, #568, .T. ) ;
#839 = CARTESIAN_POINT ( 'NONE',  ( -65.25000000000000000, 20.00000000000000000, -19.99999999999998579 ) ) ;
#840 = VERTEX_POINT ( 'NONE', #37 ) ;
#841 = DIRECTION ( 'NONE',  ( 9.834626315282913227E-16, 0.000000000000000000, 1.000000000000000000 ) ) ;
#842 = EDGE_CURVE ( 'NONE', #1040, #28, #385, .T. ) ;
#843 = PERSON_AND_ORGANIZATION ( #803, #430 ) ;
#844 = CARTESIAN_POINT ( 'NONE',  ( 7.228416147400479552, 20.00000000000000000, -2.000000000000001776 ) ) ;
#845 = VECTOR ( 'NONE', #282, 1000.000000000000000 ) ;
#846 = ORIENTED_EDGE ( 'NONE', *, *, #543, .T. ) ;
#847 = CARTESIAN_POINT ( 'NONE',  ( 22.36067977499791581, 0.000000000000000000, -19.99999999999997868 ) ) ;
#848 = PERSON_AND_ORGANIZATION_ROLE ( 'classification_officer' ) ;
#849 = LINE ( 'NONE', #844, #755 ) ;
#850 = VERTEX_POINT ( 'NONE', #991 ) ;
#851 = DIRECTION ( 'NONE',  ( 0.000000000000000000, 1.000000000000000000, 0.000000000000000000 ) ) ;
#852 = DIRECTION ( 'NONE',  ( -1.000000000000000000, 0.000000000000000000, 0.000000000000000000 ) ) ;
#853 = DIRECTION ( 'NONE',  ( 1.000000000000000000, 0.000000000000000000, 0.000000000000000000 ) ) ;
#854 = DIRECTION ( 'NONE',  ( 0.000000000000000000, 1.000000000000000000, 0.000000000000000000 ) ) ;
#855 = EDGE_CURVE ( 'NONE', #1102, #778, #559, .T. ) ;
#856 = ORIENTED_EDGE ( 'NONE', *, *, #903, .F. ) ;
#857 = CARTESIAN_POINT ( 'NONE',  ( -7.228416147400479552, -1.387778780781445676E-14, -2.000000000000001332 ) ) ;
#858 = DIRECTION ( 'NONE',  ( -0.000000000000000000, 1.000000000000000000, -0.000000000000000000 ) ) ;
#859 = SHAPE_DEFINITION_REPRESENTATION ( #120, #901 ) ;
#860 = VECTOR ( 'NONE', #1123, 1000.000000000000000 ) ;
#861 = FACE_OUTER_BOUND ( 'NONE', #1071, .T. ) ;
#862 = APPROVAL_PERSON_ORGANIZATION ( #243, #429, #333 ) ;
#863 = ORIENTED_EDGE ( 'NONE', *, *, #60, .T. ) ;
#864 =( NAMED_UNIT ( * ) SI_UNIT ( $, .STERADIAN. ) SOLID_ANGLE_UNIT ( ) );
#865 = CIRCLE ( 'NONE', #703, 5.000000000000000000 ) ;
#866 = ORIENTED_EDGE ( 'NONE', *, *, #603, .T. ) ;
#867 = CARTESIAN_POINT ( 'NONE',  ( -75.00000000000000000, 20.00000000000000000, -19.99999999999998934 ) ) ;
#868 = PLANE ( 'NONE',  #767 ) ;
#869 = VERTEX_POINT ( 'NONE', #932 ) ;
#870 = DIRECTION ( 'NONE',  ( 1.000000000000000000, -0.000000000000000000, -9.834626315282911255E-16 ) ) ;
#871 = DIRECTION ( 'NONE',  ( 0.000000000000000000, 1.000000000000000000, 0.000000000000000000 ) ) ;
#872 = APPLICATION_CONTEXT ( 'configuration controlled 3d designs of mechanical parts and assemblies' ) ;
#873 = EDGE_CURVE ( 'NONE', #239, #100, #494, .T. ) ;
#874 = VECTOR ( 'NONE', #954, 1000.000000000000000 ) ;
#875 = DIRECTION ( 'NONE',  ( 0.000000000000000000, 0.000000000000000000, 1.000000000000000000 ) ) ;
#876 = ORIENTED_EDGE ( 'NONE', *, *, #4, .T. ) ;
#877 = CARTESIAN_POINT ( 'NONE',  ( 22.36067977499790871, 20.00000000000000000, 19.99999999999998579 ) ) ;
#878 = CARTESIAN_POINT ( 'NONE',  ( 30.00000000000000000, 0.000000000000000000, 10.00000000000000000 ) ) ;
#879 = ADVANCED_FACE ( 'NONE', ( #499 ), #1013, .F. ) ;
#880 = DIRECTION ( 'NONE',  ( -0.000000000000000000, -0.000000000000000000, -1.000000000000000000 ) ) ;
#881 = ORIENTED_EDGE ( 'NONE', *, *, #1044, .T. ) ;
#882 = CARTESIAN_POINT ( 'NONE',  ( -30.00000000000000000, 20.00000000000000000, -10.00000000000000000 ) ) ;
#883 = AXIS2_PLACEMENT_3D ( 'NONE', #795, #441, #174 ) ;
#884 = ORIENTED_EDGE ( 'NONE', *, *, #32, .T. ) ;
#885 = CARTESIAN_POINT ( 'NONE',  ( -75.00000000000000000, 20.00000000000000000, -19.99999999999998934 ) ) ;
#886 = AXIS2_PLACEMENT_3D ( 'NONE', #914, #996, #743 ) ;
#887 = VECTOR ( 'NONE', #399, 1000.000000000000000 ) ;
#888 = LINE ( 'NONE', #536, #673 ) ;
#889 = ADVANCED_FACE ( 'NONE', ( #489 ), #1109, .T. ) ;
#890 = ORIENTED_EDGE ( 'NONE', *, *, #1076, .F. ) ;
#891 = CARTESIAN_POINT ( 'NONE',  ( 0.000000000000000000, -49.24428900898052319, 0.000000000000000000 ) ) ;
#892 = FACE_OUTER_BOUND ( 'NONE', #223, .T. ) ;
#893 = DESIGN_CONTEXT ( 'detailed design', #872, 'design' ) ;
#894 = ORIENTED_EDGE ( 'NONE', *, *, #502, .F. ) ;
#895 = EDGE_CURVE ( 'NONE', #90, #211, #691, .T. ) ;
#896 = ORIENTED_EDGE ( 'NONE', *, *, #26, .T. ) ;
#897 = LINE ( 'NONE', #371, #320 ) ;
#898 = CARTESIAN_POINT ( 'NONE',  ( 4.582575694955840717, -49.24428900898052319, 2.000000000000000444 ) ) ;
#899 = ORIENTED_EDGE ( 'NONE', *, *, #793, .T. ) ;
#900 = ORIENTED_EDGE ( 'NONE', *, *, #283, .T. ) ;
#901 = ADVANCED_BREP_SHAPE_REPRESENTATION ( 'Link2LShapeConnectorFront_Default_sldprt', ( #240, #123 ), #920 ) ;
#902 = FACE_OUTER_BOUND ( 'NONE', #360, .T. ) ;
#903 = EDGE_CURVE ( 'NONE', #469, #511, #59, .T. ) ;
#904 = AXIS2_PLACEMENT_3D ( 'NONE', #891, #779, #364 ) ;
#905 = CARTESIAN_POINT ( 'NONE',  ( 7.228416147400480440, 0.000000000000000000, 1.999999999999997780 ) ) ;
#906 = EDGE_LOOP ( 'NONE', ( #884, #422, #206, #729, #1088, #46, #822, #1067, #224 ) ) ;
#907 = CIRCLE ( 'NONE', #71, 9.750000000000000000 ) ;
#908 = EDGE_LOOP ( 'NONE', ( #949, #1117, #980, #7 ) ) ;
#909 = CYLINDRICAL_SURFACE ( 'NONE', #482, 9.750000000000000000 ) ;
#910 = ADVANCED_FACE ( 'NONE', ( #236, #81 ), #683, .F. ) ;
#911 = CARTESIAN_POINT ( 'NONE',  ( -75.00000000000000000, 20.00000000000000000, 10.00000000000000000 ) ) ;
#912 = ORIENTED_EDGE ( 'NONE', *, *, #1032, .F. ) ;
#913 = ORIENTED_EDGE ( 'NONE', *, *, #159, .F. ) ;
#914 = CARTESIAN_POINT ( 'NONE',  ( 0.000000000000000000, 20.00000000000000000, 0.000000000000000000 ) ) ;
#915 = CARTESIAN_POINT ( 'NONE',  ( 0.000000000000000000, 0.000000000000000000, 0.000000000000000000 ) ) ;
#916 = CC_DESIGN_DATE_AND_TIME_ASSIGNMENT ( #587, #766, ( #594 ) ) ;
#917 = CARTESIAN_POINT ( 'NONE',  ( -65.25000000000000000, 20.00000000000000000, 20.00000000000000000 ) ) ;
#918 = VERTEX_POINT ( 'NONE', #407 ) ;
#919 = CARTESIAN_POINT ( 'NONE',  ( 0.000000000000000000, 20.00000000000000000, 0.000000000000000000 ) ) ;
#920 =( GEOMETRIC_REPRESENTATION_CONTEXT ( 3 ) GLOBAL_UNCERTAINTY_ASSIGNED_CONTEXT ( ( #823 ) ) GLOBAL_UNIT_ASSIGNED_CONTEXT ( ( #19, #280, #864 ) ) REPRESENTATION_CONTEXT ( 'NONE', 'WORKASPACE' ) );
#921 = LINE ( 'NONE', #834, #66 ) ;
#922 = AXIS2_PLACEMENT_3D ( 'NONE', #694, #943, #784 ) ;
#923 = DIRECTION ( 'NONE',  ( -1.000000000000000000, 0.000000000000000000, -9.834626315282913227E-16 ) ) ;
#924 = ORIENTED_EDGE ( 'NONE', *, *, #310, .T. ) ;
#925 = CARTESIAN_POINT ( 'NONE',  ( -75.00000000000000000, 20.00000000000000000, -19.99999999999998934 ) ) ;
#926 = DIRECTION ( 'NONE',  ( -1.000000000000000000, 0.000000000000000000, 3.295489889614618425E-16 ) ) ;
#927 = ORIENTED_EDGE ( 'NONE', *, *, #821, .T. ) ;
#928 = CARTESIAN_POINT ( 'NONE',  ( -22.36067977499790871, 20.00000000000000000, 19.99999999999998579 ) ) ;
#929 = EDGE_CURVE ( 'NONE', #76, #53, #195, .T. ) ;
#930 = CARTESIAN_POINT ( 'NONE',  ( 65.25000000000000000, 0.000000000000000000, -10.24999999999998757 ) ) ;
#931 = VERTEX_POINT ( 'NONE', #157 ) ;
#932 = CARTESIAN_POINT ( 'NONE',  ( -22.36067977499791581, 0.000000000000000000, -19.99999999999997868 ) ) ;
#933 = APPROVAL_STATUS ( 'not_yet_approved' ) ;
#934 = VECTOR ( 'NONE', #361, 1000.000000000000000 ) ;
#935 = PLANE ( 'NONE',  #508 ) ;
#936 = VECTOR ( 'NONE', #466, 1000.000000000000000 ) ;
#937 = VERTEX_POINT ( 'NONE', #847 ) ;
#938 = DIRECTION ( 'NONE',  ( -0.000000000000000000, -1.000000000000000000, -0.000000000000000000 ) ) ;
#939 = CARTESIAN_POINT ( 'NONE',  ( -4.582575694955839829, 20.00000000000000000, -2.000000000000002220 ) ) ;
#940 = VECTOR ( 'NONE', #68, 1000.000000000000000 ) ;
#941 = ADVANCED_FACE ( 'NONE', ( #599 ), #418, .F. ) ;
#942 = DATE_AND_TIME ( #419, #826 ) ;
#943 = DIRECTION ( 'NONE',  ( -0.000000000000000000, -1.000000000000000000, -0.000000000000000000 ) ) ;
#944 = ORIENTED_EDGE ( 'NONE', *, *, #838, .F. ) ;
#945 = CARTESIAN_POINT ( 'NONE',  ( -75.00000000000000000, -49.24428900898052319, -10.00000000000000000 ) ) ;
#946 = CARTESIAN_POINT ( 'NONE',  ( -7.228416147400480440, 20.00000000000000000, 1.999999999999997780 ) ) ;
#947 = APPROVAL_DATE_TIME ( #601, #429 ) ;
#948 = DIRECTION ( 'NONE',  ( -0.000000000000000000, 1.000000000000000000, -0.000000000000000000 ) ) ;
#949 = ORIENTED_EDGE ( 'NONE', *, *, #929, .F. ) ;
#950 = PLANE ( 'NONE',  #883 ) ;
#951 = ORIENTED_EDGE ( 'NONE', *, *, #957, .F. ) ;
#952 = CARTESIAN_POINT ( 'NONE',  ( 0.000000000000000000, 0.000000000000000000, 0.000000000000000000 ) ) ;
#953 = CIRCLE ( 'NONE', #786, 5.000000000000000000 ) ;
#954 = DIRECTION ( 'NONE',  ( 1.000000000000000000, 0.000000000000000000, 0.000000000000000000 ) ) ;
#955 = VERTEX_POINT ( 'NONE', #168 ) ;
#956 = DIRECTION ( 'NONE',  ( -0.000000000000000000, 1.000000000000000000, -0.000000000000000000 ) ) ;
#957 = EDGE_CURVE ( 'NONE', #184, #80, #77, .T. ) ;
#958 = AXIS2_PLACEMENT_3D ( 'NONE', #547, #871, #797 ) ;
#959 = DIRECTION ( 'NONE',  ( -0.000000000000000000, 1.000000000000000000, -0.000000000000000000 ) ) ;
#960 = CYLINDRICAL_SURFACE ( 'NONE', #229, 5.000000000000000000 ) ;
#961 = VERTEX_POINT ( 'NONE', #857 ) ;
#962 = CARTESIAN_POINT ( 'NONE',  ( 75.00000000000000000, -49.24428900898052319, 10.00000000000000000 ) ) ;
#963 = ADVANCED_FACE ( 'NONE', ( #331 ), #253, .T. ) ;
#964 = CYLINDRICAL_SURFACE ( 'NONE', #231, 9.750000000000000000 ) ;
#965 = VECTOR ( 'NONE', #352, 1000.000000000000000 ) ;
#966 = AXIS2_PLACEMENT_3D ( 'NONE', #278, #34, #548 ) ;
#967 = DIRECTION ( 'NONE',  ( -1.000000000000000000, 0.000000000000000000, 0.000000000000000000 ) ) ;
#968 = ORIENTED_EDGE ( 'NONE', *, *, #1058, .F. ) ;
#969 = CARTESIAN_POINT ( 'NONE',  ( -75.00000000000000000, 0.000000000000000000, -9.999999999999996447 ) ) ;
#970 = PLANE ( 'NONE',  #752 ) ;
#971 = EDGE_CURVE ( 'NONE', #989, #454, #512, .T. ) ;
#972 = PLANE ( 'NONE',  #182 ) ;
#973 = ORIENTED_EDGE ( 'NONE', *, *, #315, .F. ) ;
#974 = AXIS2_PLACEMENT_3D ( 'NONE', #153, #938, #428 ) ;
#975 = VERTEX_POINT ( 'NONE', #591 ) ;
#976 = DIRECTION ( 'NONE',  ( 0.000000000000000000, -1.000000000000000000, 0.000000000000000000 ) ) ;
#977 = CIRCLE ( 'NONE', #535, 7.500000000000000000 ) ;
#978 = AXIS2_PLACEMENT_3D ( 'NONE', #919, #1084, #140 ) ;
#979 = DIRECTION ( 'NONE',  ( -1.000000000000000000, 0.000000000000000000, 3.295489889614618425E-16 ) ) ;
#980 = ORIENTED_EDGE ( 'NONE', *, *, #242, .F. ) ;
#981 = VERTEX_POINT ( 'NONE', #1092 ) ;
#982 = DIRECTION ( 'NONE',  ( 1.000000000000000000, 0.000000000000000000, 1.977293933768771203E-16 ) ) ;
#983 = DIRECTION ( 'NONE',  ( 0.000000000000000000, 0.000000000000000000, 1.000000000000000000 ) ) ;
#984 = ORIENTED_EDGE ( 'NONE', *, *, #1039, .T. ) ;
#985 = VERTEX_POINT ( 'NONE', #928 ) ;
#986 = LINE ( 'NONE', #293, #936 ) ;
#987 = AXIS2_PLACEMENT_3D ( 'NONE', #5, #854, #426 ) ;
#988 = CYLINDRICAL_SURFACE ( 'NONE', #581, 7.500000000000000000 ) ;
#989 = VERTEX_POINT ( 'NONE', #412 ) ;
#990 = ORIENTED_EDGE ( 'NONE', *, *, #55, .T. ) ;
#991 = CARTESIAN_POINT ( 'NONE',  ( -30.00000000000000000, 20.00000000000000000, -10.00000000000000000 ) ) ;
#992 = EDGE_CURVE ( 'NONE', #498, #285, #647, .T. ) ;
#993 = CARTESIAN_POINT ( 'NONE',  ( 7.228416147400480440, 20.00000000000000000, 1.999999999999997780 ) ) ;
#994 = EDGE_LOOP ( 'NONE', ( #98, #324, #35, #912 ) ) ;
#995 = VERTEX_POINT ( 'NONE', #344 ) ;
#996 = DIRECTION ( 'NONE',  ( 0.000000000000000000, 1.000000000000000000, 0.000000000000000000 ) ) ;
#997 = EDGE_CURVE ( 'NONE', #53, #721, #1035, .T. ) ;
#998 = CARTESIAN_POINT ( 'NONE',  ( -7.228416147400480440, 0.000000000000000000, 1.999999999999997780 ) ) ;
#999 = VERTEX_POINT ( 'NONE', #1046 ) ;
#1000 = EDGE_LOOP ( 'NONE', ( #1077, #354, #40, #654 ) ) ;
#1001 = DIRECTION ( 'NONE',  ( 0.000000000000000000, 0.000000000000000000, -1.000000000000000000 ) ) ;
#1002 = APPLICATION_CONTEXT ( 'configuration controlled 3d designs of mechanical parts and assemblies' ) ;
#1003 = DIRECTION ( 'NONE',  ( 1.977293933768771203E-16, -0.000000000000000000, 1.000000000000000000 ) ) ;
#1004 = EDGE_CURVE ( 'NONE', #850, #211, #531, .T. ) ;
#1005 = DIRECTION ( 'NONE',  ( -1.000000000000000000, 0.000000000000000000, -3.295489889614618425E-16 ) ) ;
#1006 = ORIENTED_EDGE ( 'NONE', *, *, #929, .T. ) ;
#1007 = CARTESIAN_POINT ( 'NONE',  ( 30.00000000000000000, -49.24428900898052319, 10.00000000000000000 ) ) ;
#1008 = VECTOR ( 'NONE', #510, 1000.000000000000000 ) ;
#1009 = VECTOR ( 'NONE', #51, 1000.000000000000000 ) ;
#1010 = CC_DESIGN_DATE_AND_TIME_ASSIGNMENT ( #942, #170, ( #717 ) ) ;
#1011 = CARTESIAN_POINT ( 'NONE',  ( 30.00000000000000000, 20.00000000000000000, -10.00000000000000000 ) ) ;
#1012 = EDGE_LOOP ( 'NONE', ( #722, #335, #973, #951 ) ) ;
#1013 = CYLINDRICAL_SURFACE ( 'NONE', #1028, 5.000000000000000000 ) ;
#1014 = PERSON_AND_ORGANIZATION_ROLE ( 'creator' ) ;
#1015 = CARTESIAN_POINT ( 'NONE',  ( 4.582575694955839829, 20.00000000000000000, -2.000000000000002220 ) ) ;
#1016 = EDGE_LOOP ( 'NONE', ( #94, #617, #330, #715 ) ) ;
#1017 = DIRECTION ( 'NONE',  ( 0.000000000000000000, 1.000000000000000000, 0.000000000000000000 ) ) ;
#1018 = COORDINATED_UNIVERSAL_TIME_OFFSET ( 3, 30, .AHEAD. ) ;
#1019 = CARTESIAN_POINT ( 'NONE',  ( 75.00000000000000000, 0.000000000000000000, -19.99999999999998934 ) ) ;
#1020 = ORIENTED_EDGE ( 'NONE', *, *, #523, .F. ) ;
#1021 = DIRECTION ( 'NONE',  ( 1.000000000000000000, 0.000000000000000000, 0.000000000000000000 ) ) ;
#1022 = ADVANCED_FACE ( 'NONE', ( #89 ), #1041, .F. ) ;
#1023 = CARTESIAN_POINT ( 'NONE',  ( -75.00000000000000000, 20.00000000000000000, -19.99999999999998934 ) ) ;
#1024 = LOCAL_TIME ( 16, 4, 55.00000000000000000, #582 ) ;
#1025 = APPROVAL_ROLE ( '' ) ;
#1026 = CARTESIAN_POINT ( 'NONE',  ( -75.00000000000000000, 0.000000000000000000, 20.00000000000000355 ) ) ;
#1027 = AXIS2_PLACEMENT_3D ( 'NONE', #723, #640, #135 ) ;
#1028 = AXIS2_PLACEMENT_3D ( 'NONE', #666, #506, #325 ) ;
#1029 = ORIENTED_EDGE ( 'NONE', *, *, #154, .F. ) ;
#1030 = DIRECTION ( 'NONE',  ( 0.000000000000000000, -0.000000000000000000, 1.000000000000000000 ) ) ;
#1031 = DIRECTION ( 'NONE',  ( 0.000000000000000000, -0.000000000000000000, -1.000000000000000000 ) ) ;
#1032 = EDGE_CURVE ( 'NONE', #90, #556, #180, .T. ) ;
#1033 = CARTESIAN_POINT ( 'NONE',  ( 22.36067977499791581, 0.000000000000000000, -19.99999999999997868 ) ) ;
#1034 = EDGE_LOOP ( 'NONE', ( #44, #710, #577, #167 ) ) ;
#1035 = LINE ( 'NONE', #258, #158 ) ;
#1036 = EDGE_LOOP ( 'NONE', ( #281, #866, #1083, #505 ) ) ;
#1037 = DIRECTION ( 'NONE',  ( 0.000000000000000000, -1.000000000000000000, 0.000000000000000000 ) ) ;
#1038 = PLANE ( 'NONE',  #1114 ) ;
#1039 = EDGE_CURVE ( 'NONE', #999, #796, #105, .T. ) ;
#1040 = VERTEX_POINT ( 'NONE', #527 ) ;
#1041 = PLANE ( 'NONE',  #358 ) ;
#1042 = DIRECTION ( 'NONE',  ( 0.000000000000000000, 0.000000000000000000, 1.000000000000000000 ) ) ;
#1043 = CARTESIAN_POINT ( 'NONE',  ( 0.000000000000000000, 20.00000000000000000, 0.000000000000000000 ) ) ;
#1044 = EDGE_CURVE ( 'NONE', #563, #1102, #696, .T. ) ;
#1045 = ORIENTED_EDGE ( 'NONE', *, *, #119, .T. ) ;
#1046 = CARTESIAN_POINT ( 'NONE',  ( -65.25000000000000000, 0.000000000000000000, 20.00000000000000000 ) ) ;
#1047 = VECTOR ( 'NONE', #226, 1000.000000000000000 ) ;
#1048 = CARTESIAN_POINT ( 'NONE',  ( 75.00000000000000000, 20.00000000000000000, -10.24999999999998757 ) ) ;
#1049 = CARTESIAN_POINT ( 'NONE',  ( 0.000000000000000000, 20.00000000000000000, 0.000000000000000000 ) ) ;
#1050 = VERTEX_POINT ( 'NONE', #269 ) ;
#1051 = LINE ( 'NONE', #622, #769 ) ;
#1052 = DIRECTION ( 'NONE',  ( -0.000000000000000000, -1.000000000000000000, -0.000000000000000000 ) ) ;
#1053 = CARTESIAN_POINT ( 'NONE',  ( -30.00000000000000000, -49.24428900898052319, 10.00000000000000000 ) ) ;
#1054 = VERTEX_POINT ( 'NONE', #782 ) ;
#1055 = LINE ( 'NONE', #962, #103 ) ;
#1056 = ORIENTED_EDGE ( 'NONE', *, *, #119, .F. ) ;
#1057 = CARTESIAN_POINT ( 'NONE',  ( -22.36067977499791581, 20.00000000000000000, -19.99999999999997868 ) ) ;
#1058 = EDGE_CURVE ( 'NONE', #36, #348, #8, .T. ) ;
#1059 = CARTESIAN_POINT ( 'NONE',  ( -75.00000000000000000, 20.00000000000000000, 10.25000000000000178 ) ) ;
#1060 = ORIENTED_EDGE ( 'NONE', *, *, #855, .F. ) ;
#1061 = PRODUCT_DEFINITION_FORMATION_WITH_SPECIFIED_SOURCE ( 'ANY', '', #579, .NOT_KNOWN. ) ;
#1062 = ORIENTED_EDGE ( 'NONE', *, *, #903, .T. ) ;
#1063 = FACE_OUTER_BOUND ( 'NONE', #274, .T. ) ;
#1064 = AXIS2_PLACEMENT_3D ( 'NONE', #442, #524, #96 ) ;
#1065 = CARTESIAN_POINT ( 'NONE',  ( -75.00000000000000000, 20.00000000000000000, -10.00000000000000000 ) ) ;
#1066 = ORIENTED_EDGE ( 'NONE', *, *, #443, .T. ) ;
#1067 = ORIENTED_EDGE ( 'NONE', *, *, #1121, .T. ) ;
#1068 = CARTESIAN_POINT ( 'NONE',  ( -7.228416147400479552, -49.24428900898052319, -2.000000000000001332 ) ) ;
#1069 = LINE ( 'NONE', #132, #327 ) ;
#1070 = EDGE_CURVE ( 'NONE', #985, #736, #447, .T. ) ;
#1071 = EDGE_LOOP ( 'NONE', ( #894, #380, #517, #164, #295, #1072, #434, #271, #173, #58, #287, #526, #463, #899, #257, #817, #1006, #1091, #677, #268, #406 ) ) ;
#1072 = ORIENTED_EDGE ( 'NONE', *, *, #718, .T. ) ;
#1073 = CARTESIAN_POINT ( 'NONE',  ( -4.582575694955840717, -49.24428900898052319, 2.000000000000000444 ) ) ;
#1074 = CYLINDRICAL_SURFACE ( 'NONE', #1115, 9.750000000000001776 ) ;
#1075 = ORIENTED_EDGE ( 'NONE', *, *, #455, .T. ) ;
#1076 = EDGE_CURVE ( 'NONE', #396, #805, #1055, .T. ) ;
#1077 = ORIENTED_EDGE ( 'NONE', *, *, #73, .F. ) ;
#1078 = CARTESIAN_POINT ( 'NONE',  ( 75.00000000000000000, 20.00000000000000000, 10.00000000000000000 ) ) ;
#1079 = EDGE_CURVE ( 'NONE', #778, #219, #13, .T. ) ;
#1080 = AXIS2_PLACEMENT_3D ( 'NONE', #1007, #125, #390 ) ;
#1081 = DIRECTION ( 'NONE',  ( -0.000000000000000000, 1.000000000000000000, -0.000000000000000000 ) ) ;
#1082 = DIRECTION ( 'NONE',  ( 0.000000000000000000, -1.000000000000000000, 0.000000000000000000 ) ) ;
#1083 = ORIENTED_EDGE ( 'NONE', *, *, #91, .T. ) ;
#1084 = DIRECTION ( 'NONE',  ( -0.000000000000000000, -1.000000000000000000, -0.000000000000000000 ) ) ;
#1085 = ADVANCED_FACE ( 'NONE', ( #355 ), #950, .F. ) ;
#1086 = DIRECTION ( 'NONE',  ( 1.000000000000000000, 0.000000000000000000, -1.977293933768771203E-16 ) ) ;
#1087 = DIRECTION ( 'NONE',  ( 0.000000000000000000, 1.000000000000000000, 0.000000000000000000 ) ) ;
#1088 = ORIENTED_EDGE ( 'NONE', *, *, #693, .F. ) ;
#1089 = DIRECTION ( 'NONE',  ( -0.000000000000000000, -1.000000000000000000, -0.000000000000000000 ) ) ;
#1090 = CARTESIAN_POINT ( 'NONE',  ( -7.228416147400480440, 0.000000000000000000, 1.999999999999997780 ) ) ;
#1091 = ORIENTED_EDGE ( 'NONE', *, *, #443, .F. ) ;
#1092 = CARTESIAN_POINT ( 'NONE',  ( 4.582575694955839829, 0.000000000000000000, 2.000000000000000000 ) ) ;
#1093 = APPROVAL_PERSON_ORGANIZATION ( #425, #193, #1025 ) ;
#1094 = AXIS2_PLACEMENT_3D ( 'NONE', #915, #136, #78 ) ;
#1095 = APPROVAL_STATUS ( 'not_yet_approved' ) ;
#1096 = FACE_OUTER_BOUND ( 'NONE', #292, .T. ) ;
#1097 = VERTEX_POINT ( 'NONE', #969 ) ;
#1098 = CARTESIAN_POINT ( 'NONE',  ( -4.582575694955839829, -49.24428900898052319, -2.000000000000002220 ) ) ;
#1099 = VECTOR ( 'NONE', #57, 1000.000000000000000 ) ;
#1100 = SECURITY_CLASSIFICATION_LEVEL ( 'unclassified' ) ;
#1101 = CARTESIAN_POINT ( 'NONE',  ( -30.00000000000000000, 0.000000000000000000, 10.00000000000000000 ) ) ;
#1102 = VERTEX_POINT ( 'NONE', #95 ) ;
#1103 = DIRECTION ( 'NONE',  ( 1.000000000000000000, 0.000000000000000000, -9.834626315282913227E-16 ) ) ;
#1104 = VECTOR ( 'NONE', #382, 1000.000000000000000 ) ;
#1105 = LINE ( 'NONE', #678, #1047 ) ;
#1106 = PERSON_AND_ORGANIZATION_ROLE ( 'design_owner' ) ;
#1107 = CARTESIAN_POINT ( 'NONE',  ( -22.36067977499791581, 20.00000000000000000, -19.99999999999997868 ) ) ;
#1108 = ORIENTED_EDGE ( 'NONE', *, *, #537, .F. ) ;
#1109 = PLANE ( 'NONE',  #632 ) ;
#1110 = CC_DESIGN_PERSON_AND_ORGANIZATION_ASSIGNMENT ( #509, #1014, ( #594 ) ) ;
#1111 = LINE ( 'NONE', #685, #649 ) ;
#1112 = VECTOR ( 'NONE', #788, 1000.000000000000000 ) ;
#1113 = DIRECTION ( 'NONE',  ( -0.000000000000000000, 1.000000000000000000, -0.000000000000000000 ) ) ;
#1114 = AXIS2_PLACEMENT_3D ( 'NONE', #1049, #273, #342 ) ;
#1115 = AXIS2_PLACEMENT_3D ( 'NONE', #298, #646, #819 ) ;
#1116 = VECTOR ( 'NONE', #471, 1000.000000000000000 ) ;
#1117 = ORIENTED_EDGE ( 'NONE', *, *, #603, .F. ) ;
#1118 = CARTESIAN_POINT ( 'NONE',  ( 7.228416147400480440, -49.24428900898052319, 1.999999999999997780 ) ) ;
#1119 = VECTOR ( 'NONE', #926, 1000.000000000000000 ) ;
#1120 = FACE_OUTER_BOUND ( 'NONE', #549, .T. ) ;
#1121 = EDGE_CURVE ( 'NONE', #469, #961, #1051, .T. ) ;
#1122 = COORDINATED_UNIVERSAL_TIME_OFFSET ( 3, 30, .AHEAD. ) ;
#1123 = DIRECTION ( 'NONE',  ( 1.000000000000000000, 0.000000000000000000, 0.000000000000000000 ) ) ;
ENDSEC;
END-ISO-10303-21;
