ISO-10303-21;
HEADER;
FILE_DESCRIPTION (( 'STEP AP203' ),
    '1' );
FILE_NAME ('MotorBackCap_Default_sldprt.STEP',
    '2026-07-23T12:35:10',
    ( '' ),
    ( '' ),
    'SwSTEP 2.0',
    'SolidWorks 2025',
    '' );
FILE_SCHEMA (( 'CONFIG_CONTROL_DESIGN' ));
ENDSEC;

DATA;
#1 = CARTESIAN_POINT ( 'NONE',  ( 11.31370849898490150, 0.000000000000000000, -9.663708498984624029 ) ) ;
#2 = VERTEX_POINT ( 'NONE', #499 ) ;
#3 = ADVANCED_FACE ( 'NONE', ( #803 ), #792, .F. ) ;
#4 = EDGE_LOOP ( 'NONE', ( #107, #469 ) ) ;
#5 = DIRECTION ( 'NONE',  ( -0.000000000000000000, -1.000000000000000000, -0.000000000000000000 ) ) ;
#6 = ORIENTED_EDGE ( 'NONE', *, *, #506, .F. ) ;
#7 = ORIENTED_EDGE ( 'NONE', *, *, #467, .T. ) ;
#8 = EDGE_CURVE ( 'NONE', #859, #363, #175, .T. ) ;
#9 = CYLINDRICAL_SURFACE ( 'NONE', #85, 1.649999999999998579 ) ;
#10 = DIRECTION ( 'NONE',  ( 0.000000000000000000, 0.000000000000000000, 1.000000000000000000 ) ) ;
#11 = ORIENTED_EDGE ( 'NONE', *, *, #880, .F. ) ;
#12 = CARTESIAN_POINT ( 'NONE',  ( 1.999999999999999112, 0.000000000000000000, -4.582575694955840717 ) ) ;
#13 = EDGE_LOOP ( 'NONE', ( #523, #599 ) ) ;
#14 = VECTOR ( 'NONE', #861, 1000.000000000000000 ) ;
#15 = DIRECTION ( 'NONE',  ( 0.000000000000000000, 0.000000000000000000, 1.000000000000000000 ) ) ;
#16 = PERSON_AND_ORGANIZATION_ROLE ( 'creator' ) ;
#17 = ORIENTED_EDGE ( 'NONE', *, *, #225, .T. ) ;
#18 = ORIENTED_EDGE ( 'NONE', *, *, #492, .T. ) ;
#19 = CARTESIAN_POINT ( 'NONE',  ( -16.00000000000000000, -4.666904755831215112, -1.650000000000110489 ) ) ;
#20 = AXIS2_PLACEMENT_3D ( 'NONE', #710, #636, #854 ) ;
#21 = DATE_TIME_ROLE ( 'creation_date' ) ;
#22 = ADVANCED_FACE ( 'NONE', ( #278 ), #489, .F. ) ;
#23 = CARTESIAN_POINT ( 'NONE',  ( 11.31370849898474162, -4.666904755831215112, 11.31370849898478248 ) ) ;
#24 = ORIENTED_EDGE ( 'NONE', *, *, #430, .F. ) ;
#25 = DIRECTION ( 'NONE',  ( 0.000000000000000000, 0.000000000000000000, 1.000000000000000000 ) ) ;
#26 = APPROVAL_STATUS ( 'not_yet_approved' ) ;
#27 = EDGE_CURVE ( 'NONE', #868, #760, #52, .T. ) ;
#28 = CARTESIAN_POINT ( 'NONE',  ( 16.00000000000000000, -4.666904755831215112, -1.649999999999998579 ) ) ;
#29 = ORIENTED_EDGE ( 'NONE', *, *, #333, .T. ) ;
#30 = DIRECTION ( 'NONE',  ( 0.000000000000000000, 0.000000000000000000, -1.000000000000000000 ) ) ;
#31 = CIRCLE ( 'NONE', #681, 5.000000000000000000 ) ;
#32 = PERSON_AND_ORGANIZATION ( #512, #747 ) ;
#33 = VECTOR ( 'NONE', #102, 1000.000000000000000 ) ;
#34 = CARTESIAN_POINT ( 'NONE',  ( 11.31370849898490150, 10.00000000000000000, -12.96370849898462119 ) ) ;
#35 = EDGE_LOOP ( 'NONE', ( #82, #643, #300, #813, #415 ) ) ;
#36 = CARTESIAN_POINT ( 'NONE',  ( 0.000000000000000000, 10.00000000000000000, -27.00000000000000000 ) ) ;
#37 = APPROVAL_DATE_TIME ( #895, #140 ) ;
#38 = FACE_OUTER_BOUND ( 'NONE', #176, .T. ) ;
#39 = ORIENTED_EDGE ( 'NONE', *, *, #133, .F. ) ;
#40 = PRODUCT_DEFINITION ( 'UNKNOWN', '', #910, #601 ) ;
#41 = CARTESIAN_POINT ( 'NONE',  ( -11.31370849898465991, -4.666904755831215112, -9.663708498984860285 ) ) ;
#42 = CARTESIAN_POINT ( 'NONE',  ( 0.000000000000000000, 10.00000000000000000, -27.00000000000000000 ) ) ;
#43 = VERTEX_POINT ( 'NONE', #645 ) ;
#44 = DIRECTION ( 'NONE',  ( 0.000000000000000000, 1.000000000000000000, 0.000000000000000000 ) ) ;
#45 = EDGE_CURVE ( 'NONE', #313, #335, #86, .T. ) ;
#46 = CIRCLE ( 'NONE', #804, 1.649999999999998579 ) ;
#47 = LINE ( 'NONE', #338, #124 ) ;
#48 = VECTOR ( 'NONE', #652, 1000.000000000000000 ) ;
#49 = EDGE_LOOP ( 'NONE', ( #445, #693, #88, #29 ) ) ;
#50 = APPROVAL_PERSON_ORGANIZATION ( #603, #811, #377 ) ;
#51 = CARTESIAN_POINT ( 'NONE',  ( 11.31370849898490150, 0.000000000000000000, -12.96370849898462119 ) ) ;
#52 = CIRCLE ( 'NONE', #367, 1.649999999999998579 ) ;
#53 = EDGE_CURVE ( 'NONE', #280, #707, #514, .T. ) ;
#54 = CYLINDRICAL_SURFACE ( 'NONE', #308, 5.000000000000000000 ) ;
#55 = ORIENTED_EDGE ( 'NONE', *, *, #824, .T. ) ;
#56 = DIRECTION ( 'NONE',  ( 0.000000000000000000, 0.000000000000000000, 1.000000000000000000 ) ) ;
#57 = DIRECTION ( 'NONE',  ( -0.000000000000000000, -1.000000000000000000, -0.000000000000000000 ) ) ;
#58 = ORIENTED_EDGE ( 'NONE', *, *, #919, .F. ) ;
#59 = EDGE_CURVE ( 'NONE', #760, #934, #149, .T. ) ;
#60 = LINE ( 'NONE', #145, #214 ) ;
#61 = CARTESIAN_POINT ( 'NONE',  ( -5.586370142149013368E-14, -4.666904755831215112, 16.00000000000000000 ) ) ;
#62 = ORIENTED_EDGE ( 'NONE', *, *, #835, .F. ) ;
#63 = AXIS2_PLACEMENT_3D ( 'NONE', #892, #174, #610 ) ;
#64 = VECTOR ( 'NONE', #414, 1000.000000000000000 ) ;
#65 = DIRECTION ( 'NONE',  ( 0.000000000000000000, 1.000000000000000000, 0.000000000000000000 ) ) ;
#66 = EDGE_CURVE ( 'NONE', #865, #71, #799, .T. ) ;
#67 = DIRECTION ( 'NONE',  ( 0.000000000000000000, 0.000000000000000000, 1.000000000000000000 ) ) ;
#68 = AXIS2_PLACEMENT_3D ( 'NONE', #752, #520, #814 ) ;
#69 = EDGE_LOOP ( 'NONE', ( #638, #221, #342, #355 ) ) ;
#70 = FACE_BOUND ( 'NONE', #35, .T. ) ;
#71 = VERTEX_POINT ( 'NONE', #494 ) ;
#72 = PRODUCT_DEFINITION_SHAPE ( 'NONE', 'NONE',  #40 ) ;
#73 = PERSON_AND_ORGANIZATION_ROLE ( 'design_owner' ) ;
#74 = EDGE_LOOP ( 'NONE', ( #125, #270, #738, #449 ) ) ;
#75 = DIRECTION ( 'NONE',  ( 0.000000000000000000, 1.000000000000000000, 0.000000000000000000 ) ) ;
#76 = CARTESIAN_POINT ( 'NONE',  ( -11.31370849898482156, 10.00000000000000000, 11.31370849898470077 ) ) ;
#77 = DIRECTION ( 'NONE',  ( 0.000000000000000000, 0.000000000000000000, 1.000000000000000000 ) ) ;
#78 = ORIENTED_EDGE ( 'NONE', *, *, #291, .F. ) ;
#79 = AXIS2_PLACEMENT_3D ( 'NONE', #839, #686, #769 ) ;
#80 = AXIS2_PLACEMENT_3D ( 'NONE', #257, #321, #748 ) ;
#81 = SECURITY_CLASSIFICATION ( '', '', #532 ) ;
#82 = ORIENTED_EDGE ( 'NONE', *, *, #492, .F. ) ;
#83 = EDGE_LOOP ( 'NONE', ( #62, #58 ) ) ;
#84 = EDGE_CURVE ( 'NONE', #517, #741, #866, .T. ) ;
#85 = AXIS2_PLACEMENT_3D ( 'NONE', #825, #242, #302 ) ;
#86 = CIRCLE ( 'NONE', #158, 1.649999999999998579 ) ;
#87 = FACE_OUTER_BOUND ( 'NONE', #568, .T. ) ;
#88 = ORIENTED_EDGE ( 'NONE', *, *, #291, .T. ) ;
#89 = ORIENTED_EDGE ( 'NONE', *, *, #775, .T. ) ;
#90 = CARTESIAN_POINT ( 'NONE',  ( 0.000000000000000000, 0.000000000000000000, 5.000000000000000000 ) ) ;
#91 = APPROVAL_ROLE ( '' ) ;
#92 = ORIENTED_EDGE ( 'NONE', *, *, #830, .F. ) ;
#93 = EDGE_LOOP ( 'NONE', ( #942, #876 ) ) ;
#94 = AXIS2_PLACEMENT_3D ( 'NONE', #216, #434, #725 ) ;
#95 = ADVANCED_FACE ( 'NONE', ( #785 ), #142, .F. ) ;
#96 = FACE_OUTER_BOUND ( 'NONE', #119, .T. ) ;
#97 = AXIS2_PLACEMENT_3D ( 'NONE', #706, #147, #938 ) ;
#98 = DIRECTION ( 'NONE',  ( -0.000000000000000000, -1.000000000000000000, -0.000000000000000000 ) ) ;
#99 = EDGE_LOOP ( 'NONE', ( #918, #200, #18, #481 ) ) ;
#100 = FACE_BOUND ( 'NONE', #737, .T. ) ;
#101 = COORDINATED_UNIVERSAL_TIME_OFFSET ( 3, 30, .AHEAD. ) ;
#102 = DIRECTION ( 'NONE',  ( -0.000000000000000000, 1.000000000000000000, -0.000000000000000000 ) ) ;
#103 = CARTESIAN_POINT ( 'NONE',  ( -11.31370849898482156, -4.666904755831215112, 11.31370849898470077 ) ) ;
#104 = APPROVAL_STATUS ( 'not_yet_approved' ) ;
#105 = EDGE_CURVE ( 'NONE', #934, #438, #930, .T. ) ;
#106 = FACE_OUTER_BOUND ( 'NONE', #578, .T. ) ;
#107 = ORIENTED_EDGE ( 'NONE', *, *, #353, .F. ) ;
#108 = CARTESIAN_POINT ( 'NONE',  ( -11.31370849898465991, 0.000000000000000000, -9.663708498984860285 ) ) ;
#109 = AXIS2_PLACEMENT_3D ( 'NONE', #836, #98, #626 ) ;
#110 = CIRCLE ( 'NONE', #97, 1.649999999999998801 ) ;
#111 = CARTESIAN_POINT ( 'NONE',  ( 11.31370849898474162, 0.000000000000000000, 9.663708498984782125 ) ) ;
#112 = ORIENTED_EDGE ( 'NONE', *, *, #552, .F. ) ;
#113 = ADVANCED_FACE ( 'NONE', ( #431 ), #722, .F. ) ;
#114 = CARTESIAN_POINT ( 'NONE',  ( -1.999999999999999112, 10.00000000000000000, -4.582575694955840717 ) ) ;
#115 = DIRECTION ( 'NONE',  ( -0.000000000000000000, 1.000000000000000000, -0.000000000000000000 ) ) ;
#116 = ORIENTED_EDGE ( 'NONE', *, *, #734, .F. ) ;
#117 = DIRECTION ( 'NONE',  ( 0.000000000000000000, 0.000000000000000000, 1.000000000000000000 ) ) ;
#118 = CARTESIAN_POINT ( 'NONE',  ( 0.000000000000000000, -10.77032961426900748, 0.000000000000000000 ) ) ;
#119 = EDGE_LOOP ( 'NONE', ( #534, #223, #295, #191 ) ) ;
#120 = CARTESIAN_POINT ( 'NONE',  ( 11.31370849898474162, 10.00000000000000000, 11.31370849898478248 ) ) ;
#121 = EDGE_CURVE ( 'NONE', #152, #922, #932, .T. ) ;
#122 = CIRCLE ( 'NONE', #323, 1.649999999999998579 ) ;
#123 = CARTESIAN_POINT ( 'NONE',  ( 11.31370849898474162, 0.000000000000000000, 11.31370849898478248 ) ) ;
#124 = VECTOR ( 'NONE', #776, 1000.000000000000000 ) ;
#125 = ORIENTED_EDGE ( 'NONE', *, *, #59, .F. ) ;
#126 = DIRECTION ( 'NONE',  ( -0.000000000000000000, 1.000000000000000000, -0.000000000000000000 ) ) ;
#127 = LINE ( 'NONE', #913, #64 ) ;
#128 = VERTEX_POINT ( 'NONE', #592 ) ;
#129 = DIRECTION ( 'NONE',  ( -0.000000000000000000, 1.000000000000000000, -0.000000000000000000 ) ) ;
#130 = VECTOR ( 'NONE', #505, 1000.000000000000000 ) ;
#131 = CARTESIAN_POINT ( 'NONE',  ( -11.31370849898465991, 0.000000000000000000, -12.96370849898485744 ) ) ;
#132 = EDGE_LOOP ( 'NONE', ( #828, #627, #703, #6 ) ) ;
#133 = EDGE_CURVE ( 'NONE', #438, #934, #356, .T. ) ;
#134 = DIRECTION ( 'NONE',  ( -0.000000000000000000, -1.000000000000000000, -0.000000000000000000 ) ) ;
#135 = CARTESIAN_POINT ( 'NONE',  ( -5.586370142149013368E-14, 10.00000000000000000, 16.00000000000000000 ) ) ;
#136 = DIRECTION ( 'NONE',  ( 0.000000000000000000, 0.000000000000000000, 1.000000000000000000 ) ) ;
#137 = EDGE_LOOP ( 'NONE', ( #844, #555, #328, #422 ) ) ;
#138 = CIRCLE ( 'NONE', #605, 1.649999999999998579 ) ;
#139 = CIRCLE ( 'NONE', #634, 1.650000000000000355 ) ;
#140 = APPROVAL ( #104, 'UNSPECIFIED' ) ;
#141 = FACE_BOUND ( 'NONE', #618, .T. ) ;
#142 = CYLINDRICAL_SURFACE ( 'NONE', #20, 1.649999999999998579 ) ;
#143 = PERSON_AND_ORGANIZATION ( #512, #747 ) ;
#144 = VERTEX_POINT ( 'NONE', #383 ) ;
#145 = CARTESIAN_POINT ( 'NONE',  ( -5.586370142149013368E-14, -4.666904755831215112, 17.64999999999999858 ) ) ;
#146 = CARTESIAN_POINT ( 'NONE',  ( 11.31370849898490150, 0.000000000000000000, -11.31370849898462261 ) ) ;
#147 = DIRECTION ( 'NONE',  ( -0.000000000000000000, -1.000000000000000000, -0.000000000000000000 ) ) ;
#148 = ORIENTED_EDGE ( 'NONE', *, *, #524, .T. ) ;
#149 = LINE ( 'NONE', #354, #766 ) ;
#150 = ADVANCED_FACE ( 'NONE', ( #458, #371, #160, #462, #237, #100, #155, #678, #735, #87 ), #231, .F. ) ;
#151 = DIRECTION ( 'NONE',  ( -0.000000000000000000, 1.000000000000000000, -0.000000000000000000 ) ) ;
#152 = VERTEX_POINT ( 'NONE', #90 ) ;
#153 = AXIS2_PLACEMENT_3D ( 'NONE', #211, #352, #639 ) ;
#154 = AXIS2_PLACEMENT_3D ( 'NONE', #23, #394, #816 ) ;
#155 = FACE_BOUND ( 'NONE', #936, .T. ) ;
#156 = ORIENTED_EDGE ( 'NONE', *, *, #874, .F. ) ;
#157 = ADVANCED_FACE ( 'NONE', ( #96 ), #9, .F. ) ;
#158 = AXIS2_PLACEMENT_3D ( 'NONE', #566, #726, #349 ) ;
#159 = ORIENTED_EDGE ( 'NONE', *, *, #788, .T. ) ;
#160 = FACE_BOUND ( 'NONE', #771, .T. ) ;
#161 = CARTESIAN_POINT ( 'NONE',  ( -16.00000000000000000, 10.00000000000000000, -1.650000000000110489 ) ) ;
#162 = ORIENTED_EDGE ( 'NONE', *, *, #557, .T. ) ;
#163 = AXIS2_PLACEMENT_3D ( 'NONE', #76, #869, #800 ) ;
#164 = CARTESIAN_POINT ( 'NONE',  ( -5.586370142149013368E-14, 10.00000000000000000, 17.64999999999999858 ) ) ;
#165 = EDGE_CURVE ( 'NONE', #807, #373, #188, .T. ) ;
#166 = DIRECTION ( 'NONE',  ( -0.000000000000000000, 1.000000000000000000, -0.000000000000000000 ) ) ;
#167 = CARTESIAN_POINT ( 'NONE',  ( 16.00000000000000000, 0.000000000000000000, 1.649999999999998579 ) ) ;
#168 = CIRCLE ( 'NONE', #746, 27.00000000000000000 ) ;
#169 = CARTESIAN_POINT ( 'NONE',  ( -11.31370849898482156, -4.666904755831215112, 11.31370849898470077 ) ) ;
#170 = VECTOR ( 'NONE', #907, 1000.000000000000000 ) ;
#171 = DIRECTION ( 'NONE',  ( -0.000000000000000000, 1.000000000000000000, -0.000000000000000000 ) ) ;
#172 = DIRECTION ( 'NONE',  ( 0.000000000000000000, 0.000000000000000000, 1.000000000000000000 ) ) ;
#173 = DATE_AND_TIME ( #521, #773 ) ;
#174 = DIRECTION ( 'NONE',  ( -0.000000000000000000, 1.000000000000000000, -0.000000000000000000 ) ) ;
#175 = CIRCLE ( 'NONE', #297, 1.649999999999998579 ) ;
#176 = EDGE_LOOP ( 'NONE', ( #437, #162, #287, #528 ) ) ;
#177 = CARTESIAN_POINT ( 'NONE',  ( -11.31370849898482156, 0.000000000000000000, 11.31370849898470077 ) ) ;
#178 = EDGE_CURVE ( 'NONE', #285, #865, #672, .T. ) ;
#179 = DIRECTION ( 'NONE',  ( 0.000000000000000000, 0.000000000000000000, 1.000000000000000000 ) ) ;
#180 = VECTOR ( 'NONE', #745, 1000.000000000000000 ) ;
#181 = ORIENTED_EDGE ( 'NONE', *, *, #66, .F. ) ;
#182 = CARTESIAN_POINT ( 'NONE',  ( 1.999999999999999112, 10.00000000000000000, -4.582575694955840717 ) ) ;
#183 = AXIS2_PLACEMENT_3D ( 'NONE', #196, #472, #845 ) ;
#184 = VECTOR ( 'NONE', #406, 1000.000000000000000 ) ;
#185 = CC_DESIGN_PERSON_AND_ORGANIZATION_ASSIGNMENT ( #820, #16, ( #910 ) ) ;
#186 = CARTESIAN_POINT ( 'NONE',  ( -1.999999999999999112, -10.77032961426900748, 4.582575694955840717 ) ) ;
#187 = EDGE_LOOP ( 'NONE', ( #729, #339, #763, #511 ) ) ;
#188 = CIRCLE ( 'NONE', #937, 1.649999999999998579 ) ;
#189 = FACE_OUTER_BOUND ( 'NONE', #187, .T. ) ;
#190 = DIRECTION ( 'NONE',  ( -0.000000000000000000, 1.000000000000000000, -0.000000000000000000 ) ) ;
#191 = ORIENTED_EDGE ( 'NONE', *, *, #874, .T. ) ;
#192 = EDGE_CURVE ( 'NONE', #741, #663, #314, .T. ) ;
#193 = DIRECTION ( 'NONE',  ( -0.000000000000000000, 1.000000000000000000, -0.000000000000000000 ) ) ;
#194 = FACE_OUTER_BOUND ( 'NONE', #519, .T. ) ;
#195 = ORIENTED_EDGE ( 'NONE', *, *, #53, .F. ) ;
#196 = CARTESIAN_POINT ( 'NONE',  ( -16.00000000000000000, 10.00000000000000000, -1.117274028429802674E-13 ) ) ;
#197 = AXIS2_PLACEMENT_3D ( 'NONE', #794, #493, #790 ) ;
#198 = CARTESIAN_POINT ( 'NONE',  ( 0.000000000000000000, 0.000000000000000000, 0.000000000000000000 ) ) ;
#199 = AXIS2_PLACEMENT_3D ( 'NONE', #351, #550, #136 ) ;
#200 = ORIENTED_EDGE ( 'NONE', *, *, #593, .T. ) ;
#201 = DIRECTION ( 'NONE',  ( 0.000000000000000000, 0.000000000000000000, 1.000000000000000000 ) ) ;
#202 = ADVANCED_FACE ( 'NONE', ( #808 ), #531, .T. ) ;
#203 = CARTESIAN_POINT ( 'NONE',  ( 0.000000000000000000, -10.77032961426900748, 0.000000000000000000 ) ) ;
#204 = VERTEX_POINT ( 'NONE', #749 ) ;
#205 = PLANE ( 'NONE',  #197 ) ;
#206 = CLOSED_SHELL ( 'NONE', ( #695, #457, #795, #113, #208, #933, #3, #713, #375, #562, #202, #389, #150, #817, #515, #739, #894, #95, #343, #780, #536, #220, #22, #622, #157 ) ) ;
#207 = DIRECTION ( 'NONE',  ( -0.000000000000000000, 1.000000000000000000, -0.000000000000000000 ) ) ;
#208 = ADVANCED_FACE ( 'NONE', ( #388 ), #535, .F. ) ;
#209 = DIRECTION ( 'NONE',  ( 0.000000000000000000, 1.000000000000000000, 0.000000000000000000 ) ) ;
#210 = VERTEX_POINT ( 'NONE', #584 ) ;
#211 = CARTESIAN_POINT ( 'NONE',  ( 0.000000000000000000, 10.00000000000000000, 0.000000000000000000 ) ) ;
#212 = CARTESIAN_POINT ( 'NONE',  ( -16.00000000000000000, 10.00000000000000000, -1.117274028429802674E-13 ) ) ;
#213 = VERTEX_POINT ( 'NONE', #665 ) ;
#214 = VECTOR ( 'NONE', #569, 1000.000000000000000 ) ;
#215 = EDGE_CURVE ( 'NONE', #543, #909, #648, .T. ) ;
#216 = CARTESIAN_POINT ( 'NONE',  ( 1.675911042644704011E-13, 0.000000000000000000, -15.99999999999999645 ) ) ;
#217 = DIRECTION ( 'NONE',  ( 0.000000000000000000, 0.000000000000000000, 1.000000000000000000 ) ) ;
#218 = DIRECTION ( 'NONE',  ( -0.000000000000000000, -1.000000000000000000, -0.000000000000000000 ) ) ;
#219 = ORIENTED_EDGE ( 'NONE', *, *, #824, .F. ) ;
#220 = ADVANCED_FACE ( 'NONE', ( #740 ), #319, .F. ) ;
#221 = ORIENTED_EDGE ( 'NONE', *, *, #301, .T. ) ;
#222 = LINE ( 'NONE', #303, #669 ) ;
#223 = ORIENTED_EDGE ( 'NONE', *, *, #262, .T. ) ;
#224 = DIRECTION ( 'NONE',  ( -0.000000000000000000, -1.000000000000000000, -0.000000000000000000 ) ) ;
#225 = EDGE_CURVE ( 'NONE', #43, #304, #168, .T. ) ;
#226 = DIRECTION ( 'NONE',  ( 0.000000000000000000, 0.000000000000000000, 1.000000000000000000 ) ) ;
#227 = ORIENTED_EDGE ( 'NONE', *, *, #708, .T. ) ;
#228 = AXIS2_PLACEMENT_3D ( 'NONE', #103, #324, #608 ) ;
#229 = ORIENTED_EDGE ( 'NONE', *, *, #45, .F. ) ;
#230 = AXIS2_PLACEMENT_3D ( 'NONE', #503, #5, #642 ) ;
#231 = PLANE ( 'NONE',  #68 ) ;
#232 =( NAMED_UNIT ( * ) PLANE_ANGLE_UNIT ( ) SI_UNIT ( $, .RADIAN. ) );
#233 = EDGE_CURVE ( 'NONE', #387, #210, #899, .T. ) ;
#234 = ORIENTED_EDGE ( 'NONE', *, *, #524, .F. ) ;
#235 = FACE_BOUND ( 'NONE', #852, .T. ) ;
#236 = ORIENTED_EDGE ( 'NONE', *, *, #754, .T. ) ;
#237 = FACE_BOUND ( 'NONE', #655, .T. ) ;
#238 = AXIS2_PLACEMENT_3D ( 'NONE', #453, #879, #602 ) ;
#239 = ORIENTED_EDGE ( 'NONE', *, *, #121, .F. ) ;
#240 = FACE_OUTER_BOUND ( 'NONE', #395, .T. ) ;
#241 = AXIS2_PLACEMENT_3D ( 'NONE', #309, #675, #25 ) ;
#242 = DIRECTION ( 'NONE',  ( -0.000000000000000000, 1.000000000000000000, -0.000000000000000000 ) ) ;
#243 = CALENDAR_DATE ( 2026, 23, 7 ) ;
#244 = DIRECTION ( 'NONE',  ( -0.000000000000000000, -1.000000000000000000, -0.000000000000000000 ) ) ;
#245 = DIRECTION ( 'NONE',  ( -0.000000000000000000, 1.000000000000000000, -0.000000000000000000 ) ) ;
#246 = CIRCLE ( 'NONE', #230, 1.650000000000000355 ) ;
#247 = COORDINATED_UNIVERSAL_TIME_OFFSET ( 3, 30, .AHEAD. ) ;
#248 = CARTESIAN_POINT ( 'NONE',  ( 16.00000000000000000, 10.00000000000000000, -1.649999999999998579 ) ) ;
#249 = VERTEX_POINT ( 'NONE', #774 ) ;
#250 = EDGE_CURVE ( 'NONE', #213, #391, #455, .T. ) ;
#251 = DIRECTION ( 'NONE',  ( 0.000000000000000000, 1.000000000000000000, 0.000000000000000000 ) ) ;
#252 = PERSON_AND_ORGANIZATION_ROLE ( 'design_supplier' ) ;
#253 = CYLINDRICAL_SURFACE ( 'NONE', #154, 1.650000000000000355 ) ;
#254 = VERTEX_POINT ( 'NONE', #621 ) ;
#255 = CARTESIAN_POINT ( 'NONE',  ( 11.31370849898474162, -4.666904755831215112, 9.663708498984782125 ) ) ;
#256 = EDGE_CURVE ( 'NONE', #144, #663, #495, .T. ) ;
#257 = CARTESIAN_POINT ( 'NONE',  ( 16.00000000000000000, -4.666904755831215112, 0.000000000000000000 ) ) ;
#258 = ORIENTED_EDGE ( 'NONE', *, *, #850, .F. ) ;
#259 = DIRECTION ( 'NONE',  ( 0.000000000000000000, 0.000000000000000000, 1.000000000000000000 ) ) ;
#260 = AXIS2_PLACEMENT_3D ( 'NONE', #720, #129, #565 ) ;
#261 = VECTOR ( 'NONE', #717, 1000.000000000000000 ) ;
#262 = EDGE_CURVE ( 'NONE', #847, #658, #273, .T. ) ;
#263 = FACE_OUTER_BOUND ( 'NONE', #99, .T. ) ;
#264 = ORIENTED_EDGE ( 'NONE', *, *, #452, .F. ) ;
#265 = CARTESIAN_POINT ( 'NONE',  ( 1.675911042644704011E-13, 10.00000000000000000, -15.99999999999999645 ) ) ;
#266 = DIRECTION ( 'NONE',  ( -0.000000000000000000, 1.000000000000000000, -0.000000000000000000 ) ) ;
#267 = EDGE_LOOP ( 'NONE', ( #863, #236, #7, #870 ) ) ;
#268 = DIRECTION ( 'NONE',  ( 0.000000000000000000, 0.000000000000000000, 1.000000000000000000 ) ) ;
#269 = DIRECTION ( 'NONE',  ( -0.000000000000000000, 1.000000000000000000, -0.000000000000000000 ) ) ;
#270 = ORIENTED_EDGE ( 'NONE', *, *, #452, .T. ) ;
#271 = CARTESIAN_POINT ( 'NONE',  ( -11.31370849898482156, 0.000000000000000000, 9.663708498984702189 ) ) ;
#272 = EDGE_CURVE ( 'NONE', #71, #865, #772, .T. ) ;
#273 = CIRCLE ( 'NONE', #306, 1.649999999999998579 ) ;
#274 = CARTESIAN_POINT ( 'NONE',  ( 1.999999999999999112, 0.000000000000000000, 4.582575694955840717 ) ) ;
#275 = CIRCLE ( 'NONE', #837, 27.00000000000000000 ) ;
#276 = ORIENTED_EDGE ( 'NONE', *, *, #45, .T. ) ;
#277 = DIRECTION ( 'NONE',  ( -0.000000000000000000, 1.000000000000000000, -0.000000000000000000 ) ) ;
#278 = FACE_OUTER_BOUND ( 'NONE', #74, .T. ) ;
#279 = DIRECTION ( 'NONE',  ( 0.000000000000000000, 0.000000000000000000, 1.000000000000000000 ) ) ;
#280 = VERTEX_POINT ( 'NONE', #416 ) ;
#281 = FACE_BOUND ( 'NONE', #881, .T. ) ;
#282 = DIRECTION ( 'NONE',  ( 0.000000000000000000, 0.000000000000000000, 1.000000000000000000 ) ) ;
#283 =( LENGTH_UNIT ( ) NAMED_UNIT ( * ) SI_UNIT ( .MILLI., .METRE. ) );
#284 = EDGE_CURVE ( 'NONE', #304, #43, #714, .T. ) ;
#285 = VERTEX_POINT ( 'NONE', #690 ) ;
#286 = CARTESIAN_POINT ( 'NONE',  ( -5.586370142149013368E-14, 0.000000000000000000, 16.00000000000000000 ) ) ;
#287 = ORIENTED_EDGE ( 'NONE', *, *, #215, .T. ) ;
#288 = DIRECTION ( 'NONE',  ( 0.000000000000000000, 0.000000000000000000, 1.000000000000000000 ) ) ;
#289 = ORIENTED_EDGE ( 'NONE', *, *, #664, .T. ) ;
#290 = AXIS2_PLACEMENT_3D ( 'NONE', #533, #244, #883 ) ;
#291 = EDGE_CURVE ( 'NONE', #373, #897, #842, .T. ) ;
#292 = LOCAL_TIME ( 16, 5, 10.00000000000000000, #247 ) ;
#293 = DIRECTION ( 'NONE',  ( -0.000000000000000000, 1.000000000000000000, -0.000000000000000000 ) ) ;
#294 = CARTESIAN_POINT ( 'NONE',  ( 16.00000000000000000, 10.00000000000000000, 0.000000000000000000 ) ) ;
#295 = ORIENTED_EDGE ( 'NONE', *, *, #403, .T. ) ;
#296 = DIRECTION ( 'NONE',  ( -0.000000000000000000, -1.000000000000000000, -0.000000000000000000 ) ) ;
#297 = AXIS2_PLACEMENT_3D ( 'NONE', #146, #224, #217 ) ;
#298 = CYLINDRICAL_SURFACE ( 'NONE', #325, 1.649999999999998579 ) ;
#299 = VERTEX_POINT ( 'NONE', #182 ) ;
#300 = ORIENTED_EDGE ( 'NONE', *, *, #256, .F. ) ;
#301 = EDGE_CURVE ( 'NONE', #548, #128, #482, .T. ) ;
#302 = DIRECTION ( 'NONE',  ( 0.000000000000000000, 0.000000000000000000, 1.000000000000000000 ) ) ;
#303 = CARTESIAN_POINT ( 'NONE',  ( 3.306546357697853733E-15, 10.00000000000000000, 27.00000000000000000 ) ) ;
#304 = VERTEX_POINT ( 'NONE', #36 ) ;
#305 = LINE ( 'NONE', #498, #924 ) ;
#306 = AXIS2_PLACEMENT_3D ( 'NONE', #765, #340, #625 ) ;
#307 = ORIENTED_EDGE ( 'NONE', *, *, #272, .F. ) ;
#308 = AXIS2_PLACEMENT_3D ( 'NONE', #118, #637, #480 ) ;
#309 = CARTESIAN_POINT ( 'NONE',  ( 16.00000000000000000, 10.00000000000000000, 0.000000000000000000 ) ) ;
#310 = CC_DESIGN_DATE_AND_TIME_ASSIGNMENT ( #326, #826, ( #81 ) ) ;
#311 = ORIENTED_EDGE ( 'NONE', *, *, #616, .T. ) ;
#312 = CARTESIAN_POINT ( 'NONE',  ( 1.999999999999999112, 10.00000000000000000, 4.582575694955840717 ) ) ;
#313 = VERTEX_POINT ( 'NONE', #271 ) ;
#314 = LINE ( 'NONE', #513, #600 ) ;
#315 = EDGE_CURVE ( 'NONE', #128, #249, #337, .T. ) ;
#316 = CARTESIAN_POINT ( 'NONE',  ( 1.999999999999999112, 10.00000000000000000, 4.582575694955840717 ) ) ;
#317 = ORIENTED_EDGE ( 'NONE', *, *, #27, .F. ) ;
#318 = APPLICATION_CONTEXT ( 'configuration controlled 3d designs of mechanical parts and assemblies' ) ;
#319 = CYLINDRICAL_SURFACE ( 'NONE', #228, 1.649999999999998579 ) ;
#320 = APPROVAL_DATE_TIME ( #173, #628 ) ;
#321 = DIRECTION ( 'NONE',  ( -0.000000000000000000, 1.000000000000000000, -0.000000000000000000 ) ) ;
#322 = EDGE_CURVE ( 'NONE', #411, #897, #510, .T. ) ;
#323 = AXIS2_PLACEMENT_3D ( 'NONE', #177, #694, #920 ) ;
#324 = DIRECTION ( 'NONE',  ( -0.000000000000000000, 1.000000000000000000, -0.000000000000000000 ) ) ;
#325 = AXIS2_PLACEMENT_3D ( 'NONE', #801, #151, #10 ) ;
#326 = DATE_AND_TIME ( #243, #573 ) ;
#327 = CARTESIAN_POINT ( 'NONE',  ( -11.31370849898482156, 10.00000000000000000, 9.663708498984702189 ) ) ;
#328 = ORIENTED_EDGE ( 'NONE', *, *, #579, .T. ) ;
#329 = CARTESIAN_POINT ( 'NONE',  ( 11.31370849898490150, 0.000000000000000000, -11.31370849898462261 ) ) ;
#330 = DIRECTION ( 'NONE',  ( 0.000000000000000000, 1.000000000000000000, 0.000000000000000000 ) ) ;
#331 = ORIENTED_EDGE ( 'NONE', *, *, #284, .F. ) ;
#332 = DIRECTION ( 'NONE',  ( 0.000000000000000000, 1.000000000000000000, 0.000000000000000000 ) ) ;
#333 = EDGE_CURVE ( 'NONE', #897, #411, #527, .T. ) ;
#334 = CYLINDRICAL_SURFACE ( 'NONE', #413, 1.649999999999998579 ) ;
#335 = VERTEX_POINT ( 'NONE', #829 ) ;
#336 = DIRECTION ( 'NONE',  ( 0.000000000000000000, 0.000000000000000000, 1.000000000000000000 ) ) ;
#337 = CIRCLE ( 'NONE', #380, 1.650000000000000355 ) ;
#338 = CARTESIAN_POINT ( 'NONE',  ( 11.31370849898490150, -4.666904755831215112, -12.96370849898462119 ) ) ;
#339 = ORIENTED_EDGE ( 'NONE', *, *, #721, .T. ) ;
#340 = DIRECTION ( 'NONE',  ( -0.000000000000000000, -1.000000000000000000, -0.000000000000000000 ) ) ;
#341 = DIRECTION ( 'NONE',  ( 0.000000000000000000, 0.000000000000000000, 1.000000000000000000 ) ) ;
#342 = ORIENTED_EDGE ( 'NONE', *, *, #315, .T. ) ;
#343 = ADVANCED_FACE ( 'NONE', ( #466 ), #704, .F. ) ;
#344 = DIRECTION ( 'NONE',  ( 0.000000000000000000, 1.000000000000000000, 0.000000000000000000 ) ) ;
#345 = CARTESIAN_POINT ( 'NONE',  ( 11.31370849898490150, -4.666904755831215112, -11.31370849898462261 ) ) ;
#346 = EDGE_LOOP ( 'NONE', ( #689, #647 ) ) ;
#347 = EDGE_CURVE ( 'NONE', #249, #128, #507, .T. ) ;
#348 = CYLINDRICAL_SURFACE ( 'NONE', #260, 1.650000000000000355 ) ;
#349 = DIRECTION ( 'NONE',  ( 0.000000000000000000, 0.000000000000000000, 1.000000000000000000 ) ) ;
#350 = VECTOR ( 'NONE', #193, 1000.000000000000000 ) ;
#351 = CARTESIAN_POINT ( 'NONE',  ( 1.675911042644704011E-13, 10.00000000000000000, -15.99999999999999645 ) ) ;
#352 = DIRECTION ( 'NONE',  ( 0.000000000000000000, 1.000000000000000000, 0.000000000000000000 ) ) ;
#353 = EDGE_CURVE ( 'NONE', #658, #847, #425, .T. ) ;
#354 = CARTESIAN_POINT ( 'NONE',  ( -5.566163469963082448E-14, -4.666904755831215112, 14.35000000000000320 ) ) ;
#355 = ORIENTED_EDGE ( 'NONE', *, *, #683, .F. ) ;
#356 = CIRCLE ( 'NONE', #433, 1.649999999999998579 ) ;
#357 = DIRECTION ( 'NONE',  ( 0.000000000000000000, 0.000000000000000000, 1.000000000000000000 ) ) ;
#358 = AXIS2_PLACEMENT_3D ( 'NONE', #212, #561, #576 ) ;
#359 = ORIENTED_EDGE ( 'NONE', *, *, #225, .F. ) ;
#360 = EDGE_CURVE ( 'NONE', #335, #313, #122, .T. ) ;
#361 = APPLICATION_PROTOCOL_DEFINITION ( 'international standard', 'config_control_design', 1994, #318 ) ;
#362 = ORIENTED_EDGE ( 'NONE', *, *, #575, .T. ) ;
#363 = VERTEX_POINT ( 'NONE', #51 ) ;
#364 = CARTESIAN_POINT ( 'NONE',  ( -1.999999999999999112, 0.000000000000000000, 4.582575694955840717 ) ) ;
#365 = ORIENTED_EDGE ( 'NONE', *, *, #541, .F. ) ;
#366 = AXIS2_PLACEMENT_3D ( 'NONE', #615, #546, #549 ) ;
#367 = AXIS2_PLACEMENT_3D ( 'NONE', #420, #296, #435 ) ;
#368 = LINE ( 'NONE', #587, #261 ) ;
#369 = ORIENTED_EDGE ( 'NONE', *, *, #683, .T. ) ;
#370 = EDGE_LOOP ( 'NONE', ( #443, #564 ) ) ;
#371 = FACE_BOUND ( 'NONE', #83, .T. ) ;
#372 = PLANE ( 'NONE',  #382 ) ;
#373 = VERTEX_POINT ( 'NONE', #108 ) ;
#374 = ORIENTED_EDGE ( 'NONE', *, *, #764, .T. ) ;
#375 = ADVANCED_FACE ( 'NONE', ( #189 ), #761, .F. ) ;
#376 = CARTESIAN_POINT ( 'NONE',  ( -11.31370849898465991, 0.000000000000000000, -11.31370849898485886 ) ) ;
#377 = APPROVAL_ROLE ( '' ) ;
#378 = ORIENTED_EDGE ( 'NONE', *, *, #475, .F. ) ;
#379 = FACE_BOUND ( 'NONE', #682, .T. ) ;
#380 = AXIS2_PLACEMENT_3D ( 'NONE', #120, #756, #336 ) ;
#381 = ORIENTED_EDGE ( 'NONE', *, *, #754, .F. ) ;
#382 = AXIS2_PLACEMENT_3D ( 'NONE', #728, #500, #226 ) ;
#383 = CARTESIAN_POINT ( 'NONE',  ( 0.000000000000000000, 10.00000000000000000, 5.000000000000000000 ) ) ;
#384 = EDGE_CURVE ( 'NONE', #363, #859, #46, .T. ) ;
#385 = SHAPE_DEFINITION_REPRESENTATION ( #72, #778 ) ;
#386 = CARTESIAN_POINT ( 'NONE',  ( -1.999999999999999112, 0.000000000000000000, -4.582575694955840717 ) ) ;
#387 = VERTEX_POINT ( 'NONE', #450 ) ;
#388 = FACE_OUTER_BOUND ( 'NONE', #793, .T. ) ;
#389 = ADVANCED_FACE ( 'NONE', ( #281, #644, #379, #742, #141, #590, #486, #235, #70, #935 ), #670, .T. ) ;
#390 = DIRECTION ( 'NONE',  ( 0.000000000000000000, 1.000000000000000000, 0.000000000000000000 ) ) ;
#391 = VERTEX_POINT ( 'NONE', #715 ) ;
#392 = DIRECTION ( 'NONE',  ( 0.000000000000000000, 1.000000000000000000, 0.000000000000000000 ) ) ;
#393 = PERSON_AND_ORGANIZATION ( #512, #747 ) ;
#394 = DIRECTION ( 'NONE',  ( -0.000000000000000000, 1.000000000000000000, -0.000000000000000000 ) ) ;
#395 = EDGE_LOOP ( 'NONE', ( #359, #903, #89, #649 ) ) ;
#396 = CIRCLE ( 'NONE', #470, 1.649999999999998579 ) ;
#397 = DIRECTION ( 'NONE',  ( 0.000000000000000000, 0.000000000000000000, 1.000000000000000000 ) ) ;
#398 = AXIS2_PLACEMENT_3D ( 'NONE', #702, #269, #427 ) ;
#399 = CC_DESIGN_SECURITY_CLASSIFICATION ( #81, ( #910 ) ) ;
#400 = PERSON_AND_ORGANIZATION_ROLE ( 'creator' ) ;
#401 = DIRECTION ( 'NONE',  ( -0.000000000000000000, -1.000000000000000000, -0.000000000000000000 ) ) ;
#402 = EDGE_LOOP ( 'NONE', ( #582, #276, #311, #611 ) ) ;
#403 = EDGE_CURVE ( 'NONE', #658, #909, #931, .T. ) ;
#404 = CARTESIAN_POINT ( 'NONE',  ( 0.000000000000000000, 10.00000000000000000, 0.000000000000000000 ) ) ;
#405 = AXIS2_PLACEMENT_3D ( 'NONE', #169, #166, #659 ) ;
#406 = DIRECTION ( 'NONE',  ( -0.000000000000000000, 1.000000000000000000, -0.000000000000000000 ) ) ;
#407 = EDGE_LOOP ( 'NONE', ( #796, #17 ) ) ;
#408 = CC_DESIGN_DATE_AND_TIME_ASSIGNMENT ( #667, #21, ( #40 ) ) ;
#409 = CARTESIAN_POINT ( 'NONE',  ( 11.31370849898474162, 10.00000000000000000, 11.31370849898478248 ) ) ;
#410 = DIRECTION ( 'NONE',  ( -0.000000000000000000, 1.000000000000000000, -0.000000000000000000 ) ) ;
#411 = VERTEX_POINT ( 'NONE', #812 ) ;
#412 = DIRECTION ( 'NONE',  ( 0.000000000000000000, 1.000000000000000000, 0.000000000000000000 ) ) ;
#413 = AXIS2_PLACEMENT_3D ( 'NONE', #345, #781, #630 ) ;
#414 = DIRECTION ( 'NONE',  ( -0.000000000000000000, 1.000000000000000000, -0.000000000000000000 ) ) ;
#415 = ORIENTED_EDGE ( 'NONE', *, *, #233, .F. ) ;
#416 = CARTESIAN_POINT ( 'NONE',  ( -11.31370849898482156, 10.00000000000000000, 12.96370849898469935 ) ) ;
#417 = CARTESIAN_POINT ( 'NONE',  ( 3.306546357697853733E-15, 0.000000000000000000, 27.00000000000000000 ) ) ;
#418 = EDGE_LOOP ( 'NONE', ( #195, #378 ) ) ;
#419 = LINE ( 'NONE', #926, #14 ) ;
#420 = CARTESIAN_POINT ( 'NONE',  ( -5.586370142149013368E-14, 0.000000000000000000, 16.00000000000000000 ) ) ;
#421 = CARTESIAN_POINT ( 'NONE',  ( 0.000000000000000000, 0.000000000000000000, 0.000000000000000000 ) ) ;
#422 = ORIENTED_EDGE ( 'NONE', *, *, #585, .T. ) ;
#423 = DIRECTION ( 'NONE',  ( 0.000000000000000000, -0.000000000000000000, 1.000000000000000000 ) ) ;
#424 = DIRECTION ( 'NONE',  ( 0.000000000000000000, 0.000000000000000000, 1.000000000000000000 ) ) ;
#425 = CIRCLE ( 'NONE', #79, 1.649999999999998579 ) ;
#426 = AXIS2_PLACEMENT_3D ( 'NONE', #294, #864, #288 ) ;
#427 = DIRECTION ( 'NONE',  ( 0.000000000000000000, 0.000000000000000000, 1.000000000000000000 ) ) ;
#428 = ORIENTED_EDGE ( 'NONE', *, *, #579, .F. ) ;
#429 = CARTESIAN_POINT ( 'NONE',  ( 11.31370849898490150, 10.00000000000000000, -11.31370849898462261 ) ) ;
#430 = EDGE_CURVE ( 'NONE', #551, #743, #758, .T. ) ;
#431 = FACE_OUTER_BOUND ( 'NONE', #878, .T. ) ;
#432 = EDGE_LOOP ( 'NONE', ( #11, #331, #159, #289 ) ) ;
#433 = AXIS2_PLACEMENT_3D ( 'NONE', #884, #392, #596 ) ;
#434 = DIRECTION ( 'NONE',  ( -0.000000000000000000, -1.000000000000000000, -0.000000000000000000 ) ) ;
#435 = DIRECTION ( 'NONE',  ( 0.000000000000000000, 0.000000000000000000, 1.000000000000000000 ) ) ;
#436 = DIRECTION ( 'NONE',  ( -0.000000000000000000, -1.000000000000000000, -0.000000000000000000 ) ) ;
#437 = ORIENTED_EDGE ( 'NONE', *, *, #353, .T. ) ;
#438 = VERTEX_POINT ( 'NONE', #164 ) ;
#439 = ORIENTED_EDGE ( 'NONE', *, *, #708, .F. ) ;
#440 = VECTOR ( 'NONE', #522, 1000.000000000000000 ) ;
#441 = LOCAL_TIME ( 16, 5, 10.00000000000000000, #676 ) ;
#442 = DIRECTION ( 'NONE',  ( 0.000000000000000000, 0.000000000000000000, 1.000000000000000000 ) ) ;
#443 = ORIENTED_EDGE ( 'NONE', *, *, #347, .F. ) ;
#444 = EDGE_CURVE ( 'NONE', #313, #707, #419, .T. ) ;
#445 = ORIENTED_EDGE ( 'NONE', *, *, #764, .F. ) ;
#446 = CARTESIAN_POINT ( 'NONE',  ( -16.00000000000000000, -4.666904755831215112, -1.117274028429802674E-13 ) ) ;
#447 = PRODUCT ( 'MotorBackCap_Default_sldprt', 'MotorBackCap_Default_sldprt', '', ( #809 ) ) ;
#448 = CALENDAR_DATE ( 2026, 23, 7 ) ;
#449 = ORIENTED_EDGE ( 'NONE', *, *, #133, .T. ) ;
#450 = CARTESIAN_POINT ( 'NONE',  ( -1.999999999999999112, 10.00000000000000000, -4.582575694955840717 ) ) ;
#451 = ORIENTED_EDGE ( 'NONE', *, *, #664, .F. ) ;
#452 = EDGE_CURVE ( 'NONE', #760, #868, #396, .T. ) ;
#453 = CARTESIAN_POINT ( 'NONE',  ( 0.000000000000000000, 0.000000000000000000, 0.000000000000000000 ) ) ;
#454 = CARTESIAN_POINT ( 'NONE',  ( 1.675911042644704011E-13, 0.000000000000000000, -14.34999999999999964 ) ) ;
#455 = CIRCLE ( 'NONE', #923, 1.649999999999997025 ) ;
#456 = EDGE_LOOP ( 'NONE', ( #219, #668, #810, #802 ) ) ;
#457 = ADVANCED_FACE ( 'NONE', ( #853 ), #348, .F. ) ;
#458 = FACE_BOUND ( 'NONE', #4, .T. ) ;
#459 = APPROVAL_DATE_TIME ( #753, #811 ) ;
#460 = LINE ( 'NONE', #759, #33 ) ;
#461 = ORIENTED_EDGE ( 'NONE', *, *, #215, .F. ) ;
#462 = FACE_BOUND ( 'NONE', #574, .T. ) ;
#463 = CALENDAR_DATE ( 2026, 23, 7 ) ;
#464 = AXIS2_PLACEMENT_3D ( 'NONE', #873, #525, #30 ) ;
#465 = DIRECTION ( 'NONE',  ( -0.000000000000000000, 1.000000000000000000, -0.000000000000000000 ) ) ;
#466 = FACE_OUTER_BOUND ( 'NONE', #560, .T. ) ;
#467 = EDGE_CURVE ( 'NONE', #927, #71, #305, .T. ) ;
#468 = CARTESIAN_POINT ( 'NONE',  ( 11.31370849898490150, 10.00000000000000000, -11.31370849898462261 ) ) ;
#469 = ORIENTED_EDGE ( 'NONE', *, *, #262, .F. ) ;
#470 = AXIS2_PLACEMENT_3D ( 'NONE', #286, #134, #662 ) ;
#471 = CC_DESIGN_APPROVAL ( #628, ( #40 ) ) ;
#472 = DIRECTION ( 'NONE',  ( 0.000000000000000000, 1.000000000000000000, 0.000000000000000000 ) ) ;
#473 = LINE ( 'NONE', #28, #819 ) ;
#474 = ORIENTED_EDGE ( 'NONE', *, *, #322, .T. ) ;
#475 = EDGE_CURVE ( 'NONE', #707, #280, #138, .T. ) ;
#476 = DIRECTION ( 'NONE',  ( 0.000000000000000000, 0.000000000000000000, 1.000000000000000000 ) ) ;
#477 = CARTESIAN_POINT ( 'NONE',  ( 11.31370849898490150, 10.00000000000000000, -9.663708498984624029 ) ) ;
#478 = ORIENTED_EDGE ( 'NONE', *, *, #775, .F. ) ;
#479 = CARTESIAN_POINT ( 'NONE',  ( 0.000000000000000000, 10.00000000000000000, 0.000000000000000000 ) ) ;
#480 = DIRECTION ( 'NONE',  ( 0.000000000000000000, 0.000000000000000000, 1.000000000000000000 ) ) ;
#481 = ORIENTED_EDGE ( 'NONE', *, *, #886, .F. ) ;
#482 = LINE ( 'NONE', #255, #666 ) ;
#483 = CIRCLE ( 'NONE', #607, 27.00000000000000000 ) ;
#484 = CARTESIAN_POINT ( 'NONE',  ( 16.00000000000000000, 0.000000000000000000, -1.649999999999998579 ) ) ;
#485 = ORIENTED_EDGE ( 'NONE', *, *, #360, .F. ) ;
#486 = FACE_BOUND ( 'NONE', #346, .T. ) ;
#487 = LINE ( 'NONE', #921, #635 ) ;
#488 = ORIENTED_EDGE ( 'NONE', *, *, #192, .T. ) ;
#489 = CYLINDRICAL_SURFACE ( 'NONE', #929, 1.649999999999998579 ) ;
#490 = DIRECTION ( 'NONE',  ( 0.000000000000000000, 0.000000000000000000, 1.000000000000000000 ) ) ;
#491 = ORIENTED_EDGE ( 'NONE', *, *, #575, .F. ) ;
#492 = EDGE_CURVE ( 'NONE', #299, #387, #698, .T. ) ;
#493 = DIRECTION ( 'NONE',  ( 1.000000000000000000, 0.000000000000000000, 0.000000000000000000 ) ) ;
#494 = CARTESIAN_POINT ( 'NONE',  ( -16.00000000000000000, 10.00000000000000000, 1.649999999999887335 ) ) ;
#495 = CIRCLE ( 'NONE', #586, 5.000000000000000000 ) ;
#496 = AXIS2_PLACEMENT_3D ( 'NONE', #61, #266, #770 ) ;
#497 = FACE_OUTER_BOUND ( 'NONE', #614, .T. ) ;
#498 = CARTESIAN_POINT ( 'NONE',  ( -16.00000000000000000, -4.666904755831215112, 1.649999999999887335 ) ) ;
#499 = CARTESIAN_POINT ( 'NONE',  ( 1.677931709863297103E-13, 0.000000000000000000, -17.64999999999999503 ) ) ;
#500 = DIRECTION ( 'NONE',  ( -1.000000000000000000, 0.000000000000000000, 0.000000000000000000 ) ) ;
#501 = ORIENTED_EDGE ( 'NONE', *, *, #233, .T. ) ;
#502 = CARTESIAN_POINT ( 'NONE',  ( 1.999999999999999112, 0.000000000000000000, 4.582575694955840717 ) ) ;
#503 = CARTESIAN_POINT ( 'NONE',  ( 11.31370849898474162, 0.000000000000000000, 11.31370849898478248 ) ) ;
#504 = EDGE_LOOP ( 'NONE', ( #570, #116, #491, #239, #365 ) ) ;
#505 = DIRECTION ( 'NONE',  ( 0.000000000000000000, 0.000000000000000000, 1.000000000000000000 ) ) ;
#506 = EDGE_CURVE ( 'NONE', #868, #438, #60, .T. ) ;
#507 = CIRCLE ( 'NONE', #888, 1.650000000000000355 ) ;
#508 =( NAMED_UNIT ( * ) SI_UNIT ( $, .STERADIAN. ) SOLID_ANGLE_UNIT ( ) );
#509 = ORIENTED_EDGE ( 'NONE', *, *, #593, .F. ) ;
#510 = CIRCLE ( 'NONE', #544, 1.649999999999998579 ) ;
#511 = ORIENTED_EDGE ( 'NONE', *, *, #192, .F. ) ;
#512 = PERSON ( 'UNSPECIFIED', 'UNSPECIFIED', 'UNSPECIFIED', ('UNSPECIFIED'), ('UNSPECIFIED'), ('UNSPECIFIED') ) ;
#513 = CARTESIAN_POINT ( 'NONE',  ( 1.999999999999999112, -10.77032961426900748, 4.582575694955840717 ) ) ;
#514 = CIRCLE ( 'NONE', #163, 1.649999999999998579 ) ;
#515 = ADVANCED_FACE ( 'NONE', ( #633 ), #205, .F. ) ;
#516 = CARTESIAN_POINT ( 'NONE',  ( 0.000000000000000000, 0.000000000000000000, 0.000000000000000000 ) ) ;
#517 = VERTEX_POINT ( 'NONE', #12 ) ;
#518 = FACE_OUTER_BOUND ( 'NONE', #267, .T. ) ;
#519 = EDGE_LOOP ( 'NONE', ( #939, #55, #538, #92 ) ) ;
#520 = DIRECTION ( 'NONE',  ( 0.000000000000000000, 1.000000000000000000, 0.000000000000000000 ) ) ;
#521 = CALENDAR_DATE ( 2026, 23, 7 ) ;
#522 = DIRECTION ( 'NONE',  ( -0.000000000000000000, 1.000000000000000000, -0.000000000000000000 ) ) ;
#523 = ORIENTED_EDGE ( 'NONE', *, *, #8, .F. ) ;
#524 = EDGE_CURVE ( 'NONE', #2, #661, #860, .T. ) ;
#525 = DIRECTION ( 'NONE',  ( -0.000000000000000000, -1.000000000000000000, -0.000000000000000000 ) ) ;
#526 = CARTESIAN_POINT ( 'NONE',  ( 0.000000000000000000, 0.000000000000000000, 0.000000000000000000 ) ) ;
#527 = CIRCLE ( 'NONE', #619, 1.649999999999998579 ) ;
#528 = ORIENTED_EDGE ( 'NONE', *, *, #403, .F. ) ;
#529 = VECTOR ( 'NONE', #547, 1000.000000000000000 ) ;
#530 = CC_DESIGN_APPROVAL ( #811, ( #910 ) ) ;
#531 = CYLINDRICAL_SURFACE ( 'NONE', #464, 27.00000000000000000 ) ;
#532 = SECURITY_CLASSIFICATION_LEVEL ( 'unclassified' ) ;
#533 = CARTESIAN_POINT ( 'NONE',  ( 0.000000000000000000, 0.000000000000000000, 0.000000000000000000 ) ) ;
#534 = ORIENTED_EDGE ( 'NONE', *, *, #557, .F. ) ;
#535 = CYLINDRICAL_SURFACE ( 'NONE', #898, 1.649999999999998801 ) ;
#536 = ADVANCED_FACE ( 'NONE', ( #518 ), #692, .F. ) ;
#537 = CYLINDRICAL_SURFACE ( 'NONE', #731, 27.00000000000000000 ) ;
#538 = ORIENTED_EDGE ( 'NONE', *, *, #430, .T. ) ;
#539 = DIRECTION ( 'NONE',  ( 0.000000000000000000, 1.000000000000000000, 0.000000000000000000 ) ) ;
#540 = PERSON_AND_ORGANIZATION ( #512, #747 ) ;
#541 = EDGE_CURVE ( 'NONE', #741, #152, #556, .T. ) ;
#542 = LINE ( 'NONE', #827, #620 ) ;
#543 = VERTEX_POINT ( 'NONE', #248 ) ;
#544 = AXIS2_PLACEMENT_3D ( 'NONE', #700, #539, #904 ) ;
#545 = AXIS2_PLACEMENT_3D ( 'NONE', #928, #57, #279 ) ;
#546 = DIRECTION ( 'NONE',  ( -0.000000000000000000, 1.000000000000000000, -0.000000000000000000 ) ) ;
#547 = DIRECTION ( 'NONE',  ( -0.000000000000000000, 1.000000000000000000, -0.000000000000000000 ) ) ;
#548 = VERTEX_POINT ( 'NONE', #111 ) ;
#549 = DIRECTION ( 'NONE',  ( 0.000000000000000000, 0.000000000000000000, 1.000000000000000000 ) ) ;
#550 = DIRECTION ( 'NONE',  ( 0.000000000000000000, 1.000000000000000000, 0.000000000000000000 ) ) ;
#551 = VERTEX_POINT ( 'NONE', #34 ) ;
#552 = EDGE_CURVE ( 'NONE', #661, #213, #598, .T. ) ;
#553 = CARTESIAN_POINT ( 'NONE',  ( 0.000000000000000000, -10.77032961426900748, 0.000000000000000000 ) ) ;
#554 = DIRECTION ( 'NONE',  ( -0.000000000000000000, -1.000000000000000000, -0.000000000000000000 ) ) ;
#555 = ORIENTED_EDGE ( 'NONE', *, *, #121, .T. ) ;
#556 = CIRCLE ( 'NONE', #290, 5.000000000000000000 ) ;
#557 = EDGE_CURVE ( 'NONE', #847, #543, #473, .T. ) ;
#558 =( GEOMETRIC_REPRESENTATION_CONTEXT ( 3 ) GLOBAL_UNCERTAINTY_ASSIGNED_CONTEXT ( ( #784 ) ) GLOBAL_UNIT_ASSIGNED_CONTEXT ( ( #283, #232, #508 ) ) REPRESENTATION_CONTEXT ( 'NONE', 'WORKASPACE' ) );
#559 = LINE ( 'NONE', #851, #529 ) ;
#560 = EDGE_LOOP ( 'NONE', ( #631, #148, #777, #798 ) ) ;
#561 = DIRECTION ( 'NONE',  ( 0.000000000000000000, 1.000000000000000000, 0.000000000000000000 ) ) ;
#562 = ADVANCED_FACE ( 'NONE', ( #240 ), #537, .T. ) ;
#563 = DIRECTION ( 'NONE',  ( 0.000000000000000000, 0.000000000000000000, 1.000000000000000000 ) ) ;
#564 = ORIENTED_EDGE ( 'NONE', *, *, #315, .F. ) ;
#565 = DIRECTION ( 'NONE',  ( 0.000000000000000000, 0.000000000000000000, 1.000000000000000000 ) ) ;
#566 = CARTESIAN_POINT ( 'NONE',  ( -11.31370849898482156, 0.000000000000000000, 11.31370849898470077 ) ) ;
#567 = CARTESIAN_POINT ( 'NONE',  ( -11.31370849898465991, 10.00000000000000000, -9.663708498984860285 ) ) ;
#568 = EDGE_LOOP ( 'NONE', ( #451, #478 ) ) ;
#569 = DIRECTION ( 'NONE',  ( -0.000000000000000000, 1.000000000000000000, -0.000000000000000000 ) ) ;
#570 = ORIENTED_EDGE ( 'NONE', *, *, #84, .F. ) ;
#571 = CIRCLE ( 'NONE', #109, 1.649999999999997025 ) ;
#572 = CARTESIAN_POINT ( 'NONE',  ( -5.586370142149013368E-14, 0.000000000000000000, 17.64999999999999858 ) ) ;
#573 = LOCAL_TIME ( 16, 5, 10.00000000000000000, #901 ) ;
#574 = EDGE_LOOP ( 'NONE', ( #485, #229 ) ) ;
#575 = EDGE_CURVE ( 'NONE', #922, #838, #831, .T. ) ;
#576 = DIRECTION ( 'NONE',  ( 0.000000000000000000, 0.000000000000000000, 1.000000000000000000 ) ) ;
#577 = CARTESIAN_POINT ( 'NONE',  ( 16.00000000000000000, 10.00000000000000000, 1.649999999999998579 ) ) ;
#578 = EDGE_LOOP ( 'NONE', ( #583, #594, #369, #871 ) ) ;
#579 = EDGE_CURVE ( 'NONE', #922, #210, #688, .T. ) ;
#580 = ORIENTED_EDGE ( 'NONE', *, *, #900, .T. ) ;
#581 = CARTESIAN_POINT ( 'NONE',  ( -5.566163469963082448E-14, 10.00000000000000000, 14.35000000000000320 ) ) ;
#582 = ORIENTED_EDGE ( 'NONE', *, *, #444, .F. ) ;
#583 = ORIENTED_EDGE ( 'NONE', *, *, #301, .F. ) ;
#584 = CARTESIAN_POINT ( 'NONE',  ( -1.999999999999999112, 10.00000000000000000, 4.582575694955840717 ) ) ;
#585 = EDGE_CURVE ( 'NONE', #210, #144, #31, .T. ) ;
#586 = AXIS2_PLACEMENT_3D ( 'NONE', #404, #332, #833 ) ;
#587 = CARTESIAN_POINT ( 'NONE',  ( 1.677931709863297103E-13, -4.666904755831215112, -17.64999999999999503 ) ) ;
#588 = ORIENTED_EDGE ( 'NONE', *, *, #178, .T. ) ;
#589 = AXIS2_PLACEMENT_3D ( 'NONE', #516, #736, #646 ) ;
#590 = FACE_BOUND ( 'NONE', #93, .T. ) ;
#591 = EDGE_LOOP ( 'NONE', ( #768, #488, #787, #509 ) ) ;
#592 = CARTESIAN_POINT ( 'NONE',  ( 11.31370849898474162, 10.00000000000000000, 9.663708498984782125 ) ) ;
#593 = EDGE_CURVE ( 'NONE', #517, #299, #902, .T. ) ;
#594 = ORIENTED_EDGE ( 'NONE', *, *, #919, .T. ) ;
#595 = CARTESIAN_POINT ( 'NONE',  ( 0.000000000000000000, 10.00000000000000000, 0.000000000000000000 ) ) ;
#596 = DIRECTION ( 'NONE',  ( 0.000000000000000000, 0.000000000000000000, 1.000000000000000000 ) ) ;
#597 = CALENDAR_DATE ( 2026, 23, 7 ) ;
#598 = LINE ( 'NONE', #613, #940 ) ;
#599 = ORIENTED_EDGE ( 'NONE', *, *, #384, .F. ) ;
#600 = VECTOR ( 'NONE', #245, 1000.000000000000000 ) ;
#601 = DESIGN_CONTEXT ( 'detailed design', #318, 'design' ) ;
#602 = DIRECTION ( 'NONE',  ( 0.000000000000000000, 0.000000000000000000, 1.000000000000000000 ) ) ;
#603 = PERSON_AND_ORGANIZATION ( #512, #747 ) ;
#604 = CARTESIAN_POINT ( 'NONE',  ( 0.000000000000000000, 10.00000000000000000, 0.000000000000000000 ) ) ;
#605 = AXIS2_PLACEMENT_3D ( 'NONE', #877, #65, #857 ) ;
#606 = ORIENTED_EDGE ( 'NONE', *, *, #727, .T. ) ;
#607 = AXIS2_PLACEMENT_3D ( 'NONE', #526, #390, #823 ) ;
#608 = DIRECTION ( 'NONE',  ( 0.000000000000000000, 0.000000000000000000, 1.000000000000000000 ) ) ;
#609 = COORDINATED_UNIVERSAL_TIME_OFFSET ( 3, 30, .AHEAD. ) ;
#610 = DIRECTION ( 'NONE',  ( 0.000000000000000000, 0.000000000000000000, 1.000000000000000000 ) ) ;
#611 = ORIENTED_EDGE ( 'NONE', *, *, #53, .T. ) ;
#612 = DIRECTION ( 'NONE',  ( -0.000000000000000000, -1.000000000000000000, -0.000000000000000000 ) ) ;
#613 = CARTESIAN_POINT ( 'NONE',  ( 1.675911042644704011E-13, -4.666904755831215112, -14.34999999999999964 ) ) ;
#614 = EDGE_LOOP ( 'NONE', ( #580, #374, #474, #78 ) ) ;
#615 = CARTESIAN_POINT ( 'NONE',  ( 1.675911042644704011E-13, -4.666904755831215112, -15.99999999999999645 ) ) ;
#616 = EDGE_CURVE ( 'NONE', #335, #280, #542, .T. ) ;
#617 = LINE ( 'NONE', #42, #170 ) ;
#618 = EDGE_LOOP ( 'NONE', ( #307, #181 ) ) ;
#619 = AXIS2_PLACEMENT_3D ( 'NONE', #911, #344, #259 ) ;
#620 = VECTOR ( 'NONE', #115, 1000.000000000000000 ) ;
#621 = CARTESIAN_POINT ( 'NONE',  ( 11.31370849898474162, 0.000000000000000000, 12.96370849898478284 ) ) ;
#622 = ADVANCED_FACE ( 'NONE', ( #106 ), #253, .F. ) ;
#623 = CYLINDRICAL_SURFACE ( 'NONE', #496, 1.649999999999998579 ) ;
#624 = ORIENTED_EDGE ( 'NONE', *, *, #654, .F. ) ;
#625 = DIRECTION ( 'NONE',  ( 0.000000000000000000, 0.000000000000000000, 1.000000000000000000 ) ) ;
#626 = DIRECTION ( 'NONE',  ( 0.000000000000000000, 0.000000000000000000, 1.000000000000000000 ) ) ;
#627 = ORIENTED_EDGE ( 'NONE', *, *, #59, .T. ) ;
#628 = APPROVAL ( #26, 'UNSPECIFIED' ) ;
#629 = DIRECTION ( 'NONE',  ( 0.000000000000000000, 1.000000000000000000, 0.000000000000000000 ) ) ;
#630 = DIRECTION ( 'NONE',  ( 0.000000000000000000, 0.000000000000000000, 1.000000000000000000 ) ) ;
#631 = ORIENTED_EDGE ( 'NONE', *, *, #882, .F. ) ;
#632 = AXIS2_PLACEMENT_3D ( 'NONE', #783, #75, #423 ) ;
#633 = FACE_OUTER_BOUND ( 'NONE', #591, .T. ) ;
#634 = AXIS2_PLACEMENT_3D ( 'NONE', #123, #554, #341 ) ;
#635 = VECTOR ( 'NONE', #190, 1000.000000000000000 ) ;
#636 = DIRECTION ( 'NONE',  ( -0.000000000000000000, 1.000000000000000000, -0.000000000000000000 ) ) ;
#637 = DIRECTION ( 'NONE',  ( -0.000000000000000000, 1.000000000000000000, -0.000000000000000000 ) ) ;
#638 = ORIENTED_EDGE ( 'NONE', *, *, #835, .T. ) ;
#639 = DIRECTION ( 'NONE',  ( 0.000000000000000000, 0.000000000000000000, 1.000000000000000000 ) ) ;
#640 = CC_DESIGN_PERSON_AND_ORGANIZATION_ASSIGNMENT ( #815, #757, ( #81 ) ) ;
#641 = CARTESIAN_POINT ( 'NONE',  ( 1.675911042644704011E-13, -4.666904755831215112, -15.99999999999999645 ) ) ;
#642 = DIRECTION ( 'NONE',  ( 0.000000000000000000, 0.000000000000000000, 1.000000000000000000 ) ) ;
#643 = ORIENTED_EDGE ( 'NONE', *, *, #691, .F. ) ;
#644 = FACE_BOUND ( 'NONE', #370, .T. ) ;
#645 = CARTESIAN_POINT ( 'NONE',  ( 3.306546357697853733E-15, 10.00000000000000000, 27.00000000000000000 ) ) ;
#646 = DIRECTION ( 'NONE',  ( 1.000000000000000000, 0.000000000000000000, 0.000000000000000000 ) ) ;
#647 = ORIENTED_EDGE ( 'NONE', *, *, #727, .F. ) ;
#648 = CIRCLE ( 'NONE', #241, 1.649999999999998579 ) ;
#649 = ORIENTED_EDGE ( 'NONE', *, *, #788, .F. ) ;
#650 = VECTOR ( 'NONE', #277, 1000.000000000000000 ) ;
#651 = CIRCLE ( 'NONE', #545, 1.649999999999998801 ) ;
#652 = DIRECTION ( 'NONE',  ( -0.000000000000000000, 1.000000000000000000, -0.000000000000000000 ) ) ;
#653 = ORIENTED_EDGE ( 'NONE', *, *, #105, .F. ) ;
#654 = EDGE_CURVE ( 'NONE', #743, #551, #805, .T. ) ;
#655 = EDGE_LOOP ( 'NONE', ( #258, #381 ) ) ;
#656 = LINE ( 'NONE', #660, #48 ) ;
#657 = ORIENTED_EDGE ( 'NONE', *, *, #616, .F. ) ;
#658 = VERTEX_POINT ( 'NONE', #167 ) ;
#659 = DIRECTION ( 'NONE',  ( 0.000000000000000000, 0.000000000000000000, 1.000000000000000000 ) ) ;
#660 = CARTESIAN_POINT ( 'NONE',  ( -1.999999999999999112, -10.77032961426900748, -4.582575694955840717 ) ) ;
#661 = VERTEX_POINT ( 'NONE', #454 ) ;
#662 = DIRECTION ( 'NONE',  ( 0.000000000000000000, 0.000000000000000000, 1.000000000000000000 ) ) ;
#663 = VERTEX_POINT ( 'NONE', #316 ) ;
#664 = EDGE_CURVE ( 'NONE', #204, #841, #483, .T. ) ;
#665 = CARTESIAN_POINT ( 'NONE',  ( 1.675911042644704011E-13, 10.00000000000000000, -14.34999999999999964 ) ) ;
#666 = VECTOR ( 'NONE', #126, 1000.000000000000000 ) ;
#667 = DATE_AND_TIME ( #597, #441 ) ;
#668 = ORIENTED_EDGE ( 'NONE', *, *, #384, .T. ) ;
#669 = VECTOR ( 'NONE', #218, 1000.000000000000000 ) ;
#670 = PLANE ( 'NONE',  #632 ) ;
#671 = ORIENTED_EDGE ( 'NONE', *, *, #165, .F. ) ;
#672 = LINE ( 'NONE', #19, #180 ) ;
#673 = CC_DESIGN_PERSON_AND_ORGANIZATION_ASSIGNMENT ( #679, #252, ( #910 ) ) ;
#674 = DIRECTION ( 'NONE',  ( 0.000000000000000000, 1.000000000000000000, 0.000000000000000000 ) ) ;
#675 = DIRECTION ( 'NONE',  ( 0.000000000000000000, 1.000000000000000000, 0.000000000000000000 ) ) ;
#676 = COORDINATED_UNIVERSAL_TIME_OFFSET ( 3, 30, .AHEAD. ) ;
#677 = CYLINDRICAL_SURFACE ( 'NONE', #80, 1.649999999999998579 ) ;
#678 = FACE_BOUND ( 'NONE', #13, .T. ) ;
#679 = PERSON_AND_ORGANIZATION ( #512, #747 ) ;
#680 = DIRECTION ( 'NONE',  ( 0.000000000000000000, 0.000000000000000000, -1.000000000000000000 ) ) ;
#681 = AXIS2_PLACEMENT_3D ( 'NONE', #604, #330, #179 ) ;
#682 = EDGE_LOOP ( 'NONE', ( #39, #653 ) ) ;
#683 = EDGE_CURVE ( 'NONE', #254, #249, #460, .T. ) ;
#684 = AXIS2_PLACEMENT_3D ( 'NONE', #198, #917, #563 ) ;
#685 = APPROVAL_PERSON_ORGANIZATION ( #393, #140, #91 ) ;
#686 = DIRECTION ( 'NONE',  ( -0.000000000000000000, -1.000000000000000000, -0.000000000000000000 ) ) ;
#687 = APPROVAL_ROLE ( '' ) ;
#688 = LINE ( 'NONE', #186, #440 ) ;
#689 = ORIENTED_EDGE ( 'NONE', *, *, #250, .F. ) ;
#690 = CARTESIAN_POINT ( 'NONE',  ( -16.00000000000000000, 0.000000000000000000, -1.650000000000110489 ) ) ;
#691 = EDGE_CURVE ( 'NONE', #663, #299, #762, .T. ) ;
#692 = CYLINDRICAL_SURFACE ( 'NONE', #63, 1.649999999999998801 ) ;
#693 = ORIENTED_EDGE ( 'NONE', *, *, #165, .T. ) ;
#694 = DIRECTION ( 'NONE',  ( -0.000000000000000000, -1.000000000000000000, -0.000000000000000000 ) ) ;
#695 = ADVANCED_FACE ( 'NONE', ( #38 ), #677, .F. ) ;
#696 = DIRECTION ( 'NONE',  ( 0.000000000000000000, 0.000000000000000000, 1.000000000000000000 ) ) ;
#697 = ORIENTED_EDGE ( 'NONE', *, *, #882, .T. ) ;
#698 = CIRCLE ( 'NONE', #153, 5.000000000000000000 ) ;
#699 = CIRCLE ( 'NONE', #821, 1.649999999999998579 ) ;
#700 = CARTESIAN_POINT ( 'NONE',  ( -11.31370849898465991, 10.00000000000000000, -11.31370849898485886 ) ) ;
#701 = LOCAL_TIME ( 16, 5, 10.00000000000000000, #609 ) ;
#702 = CARTESIAN_POINT ( 'NONE',  ( -11.31370849898465991, -4.666904755831215112, -11.31370849898485886 ) ) ;
#703 = ORIENTED_EDGE ( 'NONE', *, *, #105, .T. ) ;
#704 = CYLINDRICAL_SURFACE ( 'NONE', #366, 1.649999999999997025 ) ;
#705 = AXIS2_PLACEMENT_3D ( 'NONE', #641, #858, #424 ) ;
#706 = CARTESIAN_POINT ( 'NONE',  ( -16.00000000000000000, 0.000000000000000000, -1.117274028429802674E-13 ) ) ;
#707 = VERTEX_POINT ( 'NONE', #327 ) ;
#708 = EDGE_CURVE ( 'NONE', #661, #2, #571, .T. ) ;
#709 = DIRECTION ( 'NONE',  ( -0.000000000000000000, 1.000000000000000000, -0.000000000000000000 ) ) ;
#710 = CARTESIAN_POINT ( 'NONE',  ( 11.31370849898490150, -4.666904755831215112, -11.31370849898462261 ) ) ;
#711 = FACE_OUTER_BOUND ( 'NONE', #132, .T. ) ;
#712 = ORIENTED_EDGE ( 'NONE', *, *, #467, .F. ) ;
#713 = ADVANCED_FACE ( 'NONE', ( #194 ), #334, .F. ) ;
#714 = CIRCLE ( 'NONE', #834, 27.00000000000000000 ) ;
#715 = CARTESIAN_POINT ( 'NONE',  ( 1.677931709863297103E-13, 10.00000000000000000, -17.64999999999999503 ) ) ;
#716 = DIRECTION ( 'NONE',  ( 0.000000000000000000, 1.000000000000000000, 0.000000000000000000 ) ) ;
#717 = DIRECTION ( 'NONE',  ( -0.000000000000000000, 1.000000000000000000, -0.000000000000000000 ) ) ;
#718 = ORIENTED_EDGE ( 'NONE', *, *, #444, .T. ) ;
#719 = CC_DESIGN_PERSON_AND_ORGANIZATION_ASSIGNMENT ( #143, #73, ( #447 ) ) ;
#720 = CARTESIAN_POINT ( 'NONE',  ( 11.31370849898474162, -4.666904755831215112, 11.31370849898478248 ) ) ;
#721 = EDGE_CURVE ( 'NONE', #152, #144, #487, .T. ) ;
#722 = CYLINDRICAL_SURFACE ( 'NONE', #405, 1.649999999999998579 ) ;
#723 = APPLICATION_PROTOCOL_DEFINITION ( 'international standard', 'config_control_design', 1994, #890 ) ;
#724 = ORIENTED_EDGE ( 'NONE', *, *, #850, .T. ) ;
#725 = DIRECTION ( 'NONE',  ( 0.000000000000000000, 0.000000000000000000, 1.000000000000000000 ) ) ;
#726 = DIRECTION ( 'NONE',  ( -0.000000000000000000, -1.000000000000000000, -0.000000000000000000 ) ) ;
#727 = EDGE_CURVE ( 'NONE', #391, #213, #908, .T. ) ;
#728 = CARTESIAN_POINT ( 'NONE',  ( -1.999999999999999112, -10.77032961426900748, -4.582575694955840717 ) ) ;
#729 = ORIENTED_EDGE ( 'NONE', *, *, #541, .T. ) ;
#730 = CARTESIAN_POINT ( 'NONE',  ( -5.586370142149013368E-14, -4.666904755831215112, 16.00000000000000000 ) ) ;
#731 = AXIS2_PLACEMENT_3D ( 'NONE', #595, #401, #896 ) ;
#732 = AXIS2_PLACEMENT_3D ( 'NONE', #203, #410, #696 ) ;
#733 = EDGE_LOOP ( 'NONE', ( #227, #697, #606, #112 ) ) ;
#734 = EDGE_CURVE ( 'NONE', #838, #517, #941, .T. ) ;
#735 = FACE_BOUND ( 'NONE', #504, .T. ) ;
#736 = DIRECTION ( 'NONE',  ( 0.000000000000000000, 0.000000000000000000, 1.000000000000000000 ) ) ;
#737 = EDGE_LOOP ( 'NONE', ( #856, #671 ) ) ;
#738 = ORIENTED_EDGE ( 'NONE', *, *, #506, .T. ) ;
#739 = ADVANCED_FACE ( 'NONE', ( #840 ), #54, .F. ) ;
#740 = FACE_OUTER_BOUND ( 'NONE', #402, .T. ) ;
#741 = VERTEX_POINT ( 'NONE', #274 ) ;
#742 = FACE_BOUND ( 'NONE', #418, .T. ) ;
#743 = VERTEX_POINT ( 'NONE', #477 ) ;
#744 = CC_DESIGN_PERSON_AND_ORGANIZATION_ASSIGNMENT ( #540, #400, ( #40 ) ) ;
#745 = DIRECTION ( 'NONE',  ( -0.000000000000000000, 1.000000000000000000, -0.000000000000000000 ) ) ;
#746 = AXIS2_PLACEMENT_3D ( 'NONE', #893, #251, #442 ) ;
#747 = ORGANIZATION ( 'UNSPECIFIED', 'UNSPECIFIED', '' ) ;
#748 = DIRECTION ( 'NONE',  ( 0.000000000000000000, 0.000000000000000000, 1.000000000000000000 ) ) ;
#749 = CARTESIAN_POINT ( 'NONE',  ( 0.000000000000000000, 0.000000000000000000, -27.00000000000000000 ) ) ;
#750 = DIRECTION ( 'NONE',  ( 0.000000000000000000, 0.000000000000000000, 1.000000000000000000 ) ) ;
#751 = ORIENTED_EDGE ( 'NONE', *, *, #475, .T. ) ;
#752 = CARTESIAN_POINT ( 'NONE',  ( 0.000000000000000000, 0.000000000000000000, 0.000000000000000000 ) ) ;
#753 = DATE_AND_TIME ( #463, #292 ) ;
#754 = EDGE_CURVE ( 'NONE', #285, #927, #651, .T. ) ;
#755 = CARTESIAN_POINT ( 'NONE',  ( 1.999999999999999112, -10.77032961426900748, -4.582575694955840717 ) ) ;
#756 = DIRECTION ( 'NONE',  ( 0.000000000000000000, 1.000000000000000000, 0.000000000000000000 ) ) ;
#757 = PERSON_AND_ORGANIZATION_ROLE ( 'classification_officer' ) ;
#758 = CIRCLE ( 'NONE', #872, 1.649999999999998579 ) ;
#759 = CARTESIAN_POINT ( 'NONE',  ( 11.31370849898474162, -4.666904755831215112, 12.96370849898478284 ) ) ;
#760 = VERTEX_POINT ( 'NONE', #855 ) ;
#761 = CYLINDRICAL_SURFACE ( 'NONE', #906, 5.000000000000000000 ) ;
#762 = LINE ( 'NONE', #312, #791 ) ;
#763 = ORIENTED_EDGE ( 'NONE', *, *, #256, .T. ) ;
#764 = EDGE_CURVE ( 'NONE', #807, #411, #559, .T. ) ;
#765 = CARTESIAN_POINT ( 'NONE',  ( 16.00000000000000000, 0.000000000000000000, 0.000000000000000000 ) ) ;
#766 = VECTOR ( 'NONE', #207, 1000.000000000000000 ) ;
#767 = CYLINDRICAL_SURFACE ( 'NONE', #732, 5.000000000000000000 ) ;
#768 = ORIENTED_EDGE ( 'NONE', *, *, #84, .T. ) ;
#769 = DIRECTION ( 'NONE',  ( 0.000000000000000000, 0.000000000000000000, 1.000000000000000000 ) ) ;
#770 = DIRECTION ( 'NONE',  ( 0.000000000000000000, 0.000000000000000000, 1.000000000000000000 ) ) ;
#771 = EDGE_LOOP ( 'NONE', ( #317, #264 ) ) ;
#772 = CIRCLE ( 'NONE', #183, 1.649999999999998801 ) ;
#773 = LOCAL_TIME ( 16, 5, 10.00000000000000000, #101 ) ;
#774 = CARTESIAN_POINT ( 'NONE',  ( 11.31370849898474162, 10.00000000000000000, 12.96370849898478284 ) ) ;
#775 = EDGE_CURVE ( 'NONE', #841, #204, #275, .T. ) ;
#776 = DIRECTION ( 'NONE',  ( -0.000000000000000000, 1.000000000000000000, -0.000000000000000000 ) ) ;
#777 = ORIENTED_EDGE ( 'NONE', *, *, #552, .T. ) ;
#778 = ADVANCED_BREP_SHAPE_REPRESENTATION ( 'MotorBackCap_Default_sldprt', ( #912, #589 ), #558 ) ;
#779 = CARTESIAN_POINT ( 'NONE',  ( 16.00000000000000000, -4.666904755831215112, 1.649999999999998579 ) ) ;
#780 = ADVANCED_FACE ( 'NONE', ( #843 ), #786, .F. ) ;
#781 = DIRECTION ( 'NONE',  ( -0.000000000000000000, 1.000000000000000000, -0.000000000000000000 ) ) ;
#782 = EDGE_LOOP ( 'NONE', ( #362, #806, #501, #428 ) ) ;
#783 = CARTESIAN_POINT ( 'NONE',  ( 0.000000000000000000, 10.00000000000000000, 0.000000000000000000 ) ) ;
#784 = UNCERTAINTY_MEASURE_WITH_UNIT (LENGTH_MEASURE( 1.000000000000000082E-05 ), #283, 'distance_accuracy_value', 'NONE');
#785 = FACE_OUTER_BOUND ( 'NONE', #456, .T. ) ;
#786 = CYLINDRICAL_SURFACE ( 'NONE', #398, 1.649999999999998579 ) ;
#787 = ORIENTED_EDGE ( 'NONE', *, *, #691, .T. ) ;
#788 = EDGE_CURVE ( 'NONE', #304, #204, #617, .T. ) ;
#789 = VECTOR ( 'NONE', #268, 1000.000000000000000 ) ;
#790 = DIRECTION ( 'NONE',  ( 0.000000000000000000, 0.000000000000000000, -1.000000000000000000 ) ) ;
#791 = VECTOR ( 'NONE', #680, 1000.000000000000000 ) ;
#792 = CYLINDRICAL_SURFACE ( 'NONE', #705, 1.649999999999997025 ) ;
#793 = EDGE_LOOP ( 'NONE', ( #724, #588, #832, #712 ) ) ;
#794 = CARTESIAN_POINT ( 'NONE',  ( 1.999999999999999112, -10.77032961426900748, 4.582575694955840717 ) ) ;
#795 = ADVANCED_FACE ( 'NONE', ( #711 ), #623, .F. ) ;
#796 = ORIENTED_EDGE ( 'NONE', *, *, #284, .T. ) ;
#797 = CARTESIAN_POINT ( 'NONE',  ( -11.31370849898465991, 0.000000000000000000, -11.31370849898485886 ) ) ;
#798 = ORIENTED_EDGE ( 'NONE', *, *, #250, .T. ) ;
#799 = CIRCLE ( 'NONE', #358, 1.649999999999998801 ) ;
#800 = DIRECTION ( 'NONE',  ( 0.000000000000000000, 0.000000000000000000, 1.000000000000000000 ) ) ;
#801 = CARTESIAN_POINT ( 'NONE',  ( -11.31370849898465991, -4.666904755831215112, -11.31370849898485886 ) ) ;
#802 = ORIENTED_EDGE ( 'NONE', *, *, #654, .T. ) ;
#803 = FACE_OUTER_BOUND ( 'NONE', #733, .T. ) ;
#804 = AXIS2_PLACEMENT_3D ( 'NONE', #329, #612, #357 ) ;
#805 = CIRCLE ( 'NONE', #891, 1.649999999999998579 ) ;
#806 = ORIENTED_EDGE ( 'NONE', *, *, #886, .T. ) ;
#807 = VERTEX_POINT ( 'NONE', #131 ) ;
#808 = FACE_OUTER_BOUND ( 'NONE', #432, .T. ) ;
#809 = MECHANICAL_CONTEXT ( 'NONE', #890, 'mechanical' ) ;
#810 = ORIENTED_EDGE ( 'NONE', *, *, #830, .T. ) ;
#811 = APPROVAL ( #889, 'UNSPECIFIED' ) ;
#812 = CARTESIAN_POINT ( 'NONE',  ( -11.31370849898465991, 10.00000000000000000, -12.96370849898485744 ) ) ;
#813 = ORIENTED_EDGE ( 'NONE', *, *, #585, .F. ) ;
#814 = DIRECTION ( 'NONE',  ( 0.000000000000000000, -0.000000000000000000, 1.000000000000000000 ) ) ;
#815 = PERSON_AND_ORGANIZATION ( #512, #747 ) ;
#816 = DIRECTION ( 'NONE',  ( 0.000000000000000000, 0.000000000000000000, 1.000000000000000000 ) ) ;
#817 = ADVANCED_FACE ( 'NONE', ( #263 ), #767, .F. ) ;
#818 = DIRECTION ( 'NONE',  ( -0.000000000000000000, 1.000000000000000000, -0.000000000000000000 ) ) ;
#819 = VECTOR ( 'NONE', #465, 1000.000000000000000 ) ;
#820 = PERSON_AND_ORGANIZATION ( #512, #747 ) ;
#821 = AXIS2_PLACEMENT_3D ( 'NONE', #797, #436, #77 ) ;
#822 = CC_DESIGN_APPROVAL ( #140, ( #81 ) ) ;
#823 = DIRECTION ( 'NONE',  ( 0.000000000000000000, 0.000000000000000000, 1.000000000000000000 ) ) ;
#824 = EDGE_CURVE ( 'NONE', #363, #551, #47, .T. ) ;
#825 = CARTESIAN_POINT ( 'NONE',  ( 16.00000000000000000, -4.666904755831215112, 0.000000000000000000 ) ) ;
#826 = DATE_TIME_ROLE ( 'classification_date' ) ;
#827 = CARTESIAN_POINT ( 'NONE',  ( -11.31370849898482156, -4.666904755831215112, 12.96370849898469935 ) ) ;
#828 = ORIENTED_EDGE ( 'NONE', *, *, #27, .T. ) ;
#829 = CARTESIAN_POINT ( 'NONE',  ( -11.31370849898482156, 0.000000000000000000, 12.96370849898469935 ) ) ;
#830 = EDGE_CURVE ( 'NONE', #859, #743, #127, .T. ) ;
#831 = LINE ( 'NONE', #386, #848 ) ;
#832 = ORIENTED_EDGE ( 'NONE', *, *, #66, .T. ) ;
#833 = DIRECTION ( 'NONE',  ( 0.000000000000000000, 0.000000000000000000, 1.000000000000000000 ) ) ;
#834 = AXIS2_PLACEMENT_3D ( 'NONE', #479, #412, #56 ) ;
#835 = EDGE_CURVE ( 'NONE', #254, #548, #139, .T. ) ;
#836 = CARTESIAN_POINT ( 'NONE',  ( 1.675911042644704011E-13, 0.000000000000000000, -15.99999999999999645 ) ) ;
#837 = AXIS2_PLACEMENT_3D ( 'NONE', #421, #209, #490 ) ;
#838 = VERTEX_POINT ( 'NONE', #846 ) ;
#839 = CARTESIAN_POINT ( 'NONE',  ( 16.00000000000000000, 0.000000000000000000, 0.000000000000000000 ) ) ;
#840 = FACE_OUTER_BOUND ( 'NONE', #137, .T. ) ;
#841 = VERTEX_POINT ( 'NONE', #417 ) ;
#842 = LINE ( 'NONE', #41, #350 ) ;
#843 = FACE_OUTER_BOUND ( 'NONE', #49, .T. ) ;
#844 = ORIENTED_EDGE ( 'NONE', *, *, #721, .F. ) ;
#845 = DIRECTION ( 'NONE',  ( 0.000000000000000000, 0.000000000000000000, 1.000000000000000000 ) ) ;
#846 = CARTESIAN_POINT ( 'NONE',  ( -1.999999999999999112, 0.000000000000000000, -4.582575694955840717 ) ) ;
#847 = VERTEX_POINT ( 'NONE', #484 ) ;
#848 = VECTOR ( 'NONE', #885, 1000.000000000000000 ) ;
#849 = DIRECTION ( 'NONE',  ( 0.000000000000000000, 1.000000000000000000, 0.000000000000000000 ) ) ;
#850 = EDGE_CURVE ( 'NONE', #927, #285, #110, .T. ) ;
#851 = CARTESIAN_POINT ( 'NONE',  ( -11.31370849898465991, -4.666904755831215112, -12.96370849898485744 ) ) ;
#852 = EDGE_LOOP ( 'NONE', ( #624, #24 ) ) ;
#853 = FACE_OUTER_BOUND ( 'NONE', #69, .T. ) ;
#854 = DIRECTION ( 'NONE',  ( 0.000000000000000000, 0.000000000000000000, 1.000000000000000000 ) ) ;
#855 = CARTESIAN_POINT ( 'NONE',  ( -5.566163469963082448E-14, 0.000000000000000000, 14.35000000000000320 ) ) ;
#856 = ORIENTED_EDGE ( 'NONE', *, *, #900, .F. ) ;
#857 = DIRECTION ( 'NONE',  ( 0.000000000000000000, 0.000000000000000000, 1.000000000000000000 ) ) ;
#858 = DIRECTION ( 'NONE',  ( -0.000000000000000000, 1.000000000000000000, -0.000000000000000000 ) ) ;
#859 = VERTEX_POINT ( 'NONE', #1 ) ;
#860 = CIRCLE ( 'NONE', #94, 1.649999999999997025 ) ;
#861 = DIRECTION ( 'NONE',  ( -0.000000000000000000, 1.000000000000000000, -0.000000000000000000 ) ) ;
#862 = APPROVAL_PERSON_ORGANIZATION ( #32, #628, #687 ) ;
#863 = ORIENTED_EDGE ( 'NONE', *, *, #178, .F. ) ;
#864 = DIRECTION ( 'NONE',  ( 0.000000000000000000, 1.000000000000000000, 0.000000000000000000 ) ) ;
#865 = VERTEX_POINT ( 'NONE', #161 ) ;
#866 = LINE ( 'NONE', #502, #130 ) ;
#867 = CARTESIAN_POINT ( 'NONE',  ( -16.00000000000000000, 0.000000000000000000, 1.649999999999887335 ) ) ;
#868 = VERTEX_POINT ( 'NONE', #572 ) ;
#869 = DIRECTION ( 'NONE',  ( 0.000000000000000000, 1.000000000000000000, 0.000000000000000000 ) ) ;
#870 = ORIENTED_EDGE ( 'NONE', *, *, #272, .T. ) ;
#871 = ORIENTED_EDGE ( 'NONE', *, *, #347, .T. ) ;
#872 = AXIS2_PLACEMENT_3D ( 'NONE', #429, #849, #201 ) ;
#873 = CARTESIAN_POINT ( 'NONE',  ( 0.000000000000000000, 10.00000000000000000, 0.000000000000000000 ) ) ;
#874 = EDGE_CURVE ( 'NONE', #909, #543, #925, .T. ) ;
#875 = FACE_OUTER_BOUND ( 'NONE', #782, .T. ) ;
#876 = ORIENTED_EDGE ( 'NONE', *, *, #322, .F. ) ;
#877 = CARTESIAN_POINT ( 'NONE',  ( -11.31370849898482156, 10.00000000000000000, 11.31370849898470077 ) ) ;
#878 = EDGE_LOOP ( 'NONE', ( #914, #718, #751, #657 ) ) ;
#879 = DIRECTION ( 'NONE',  ( -0.000000000000000000, -1.000000000000000000, -0.000000000000000000 ) ) ;
#880 = EDGE_CURVE ( 'NONE', #43, #841, #222, .T. ) ;
#881 = EDGE_LOOP ( 'NONE', ( #156, #461 ) ) ;
#882 = EDGE_CURVE ( 'NONE', #2, #391, #368, .T. ) ;
#883 = DIRECTION ( 'NONE',  ( 0.000000000000000000, 0.000000000000000000, 1.000000000000000000 ) ) ;
#884 = CARTESIAN_POINT ( 'NONE',  ( -5.586370142149013368E-14, 10.00000000000000000, 16.00000000000000000 ) ) ;
#885 = DIRECTION ( 'NONE',  ( 0.000000000000000000, 0.000000000000000000, -1.000000000000000000 ) ) ;
#886 = EDGE_CURVE ( 'NONE', #838, #387, #656, .T. ) ;
#887 = DIRECTION ( 'NONE',  ( -0.000000000000000000, -1.000000000000000000, -0.000000000000000000 ) ) ;
#888 = AXIS2_PLACEMENT_3D ( 'NONE', #409, #629, #117 ) ;
#889 = APPROVAL_STATUS ( 'not_yet_approved' ) ;
#890 = APPLICATION_CONTEXT ( 'configuration controlled 3d designs of mechanical parts and assemblies' ) ;
#891 = AXIS2_PLACEMENT_3D ( 'NONE', #468, #674, #750 ) ;
#892 = CARTESIAN_POINT ( 'NONE',  ( -16.00000000000000000, -4.666904755831215112, -1.117274028429802674E-13 ) ) ;
#893 = CARTESIAN_POINT ( 'NONE',  ( 0.000000000000000000, 10.00000000000000000, 0.000000000000000000 ) ) ;
#894 = ADVANCED_FACE ( 'NONE', ( #875 ), #372, .F. ) ;
#895 = DATE_AND_TIME ( #448, #701 ) ;
#896 = DIRECTION ( 'NONE',  ( 0.000000000000000000, 0.000000000000000000, -1.000000000000000000 ) ) ;
#897 = VERTEX_POINT ( 'NONE', #567 ) ;
#898 = AXIS2_PLACEMENT_3D ( 'NONE', #446, #818, #172 ) ;
#899 = LINE ( 'NONE', #114, #789 ) ;
#900 = EDGE_CURVE ( 'NONE', #373, #807, #699, .T. ) ;
#901 = COORDINATED_UNIVERSAL_TIME_OFFSET ( 3, 30, .AHEAD. ) ;
#902 = LINE ( 'NONE', #755, #184 ) ;
#903 = ORIENTED_EDGE ( 'NONE', *, *, #880, .T. ) ;
#904 = DIRECTION ( 'NONE',  ( 0.000000000000000000, 0.000000000000000000, 1.000000000000000000 ) ) ;
#905 = PRODUCT_RELATED_PRODUCT_CATEGORY ( 'detail', '', ( #447 ) ) ;
#906 = AXIS2_PLACEMENT_3D ( 'NONE', #553, #916, #397 ) ;
#907 = DIRECTION ( 'NONE',  ( -0.000000000000000000, -1.000000000000000000, -0.000000000000000000 ) ) ;
#908 = CIRCLE ( 'NONE', #199, 1.649999999999997025 ) ;
#909 = VERTEX_POINT ( 'NONE', #577 ) ;
#910 = PRODUCT_DEFINITION_FORMATION_WITH_SPECIFIED_SOURCE ( 'ANY', '', #447, .NOT_KNOWN. ) ;
#911 = CARTESIAN_POINT ( 'NONE',  ( -11.31370849898465991, 10.00000000000000000, -11.31370849898485886 ) ) ;
#912 = MANIFOLD_SOLID_BREP ( 'Cut-Extrude2', #206 ) ;
#913 = CARTESIAN_POINT ( 'NONE',  ( 11.31370849898490150, -4.666904755831215112, -9.663708498984624029 ) ) ;
#914 = ORIENTED_EDGE ( 'NONE', *, *, #360, .T. ) ;
#915 = AXIS2_PLACEMENT_3D ( 'NONE', #135, #716, #67 ) ;
#916 = DIRECTION ( 'NONE',  ( -0.000000000000000000, 1.000000000000000000, -0.000000000000000000 ) ) ;
#917 = DIRECTION ( 'NONE',  ( -0.000000000000000000, -1.000000000000000000, -0.000000000000000000 ) ) ;
#918 = ORIENTED_EDGE ( 'NONE', *, *, #734, .T. ) ;
#919 = EDGE_CURVE ( 'NONE', #548, #254, #246, .T. ) ;
#920 = DIRECTION ( 'NONE',  ( 0.000000000000000000, 0.000000000000000000, 1.000000000000000000 ) ) ;
#921 = CARTESIAN_POINT ( 'NONE',  ( 0.000000000000000000, -10.77032961426900748, 5.000000000000000000 ) ) ;
#922 = VERTEX_POINT ( 'NONE', #364 ) ;
#923 = AXIS2_PLACEMENT_3D ( 'NONE', #265, #44, #476 ) ;
#924 = VECTOR ( 'NONE', #709, 1000.000000000000000 ) ;
#925 = CIRCLE ( 'NONE', #426, 1.649999999999998579 ) ;
#926 = CARTESIAN_POINT ( 'NONE',  ( -11.31370849898482156, -4.666904755831215112, 9.663708498984702189 ) ) ;
#927 = VERTEX_POINT ( 'NONE', #867 ) ;
#928 = CARTESIAN_POINT ( 'NONE',  ( -16.00000000000000000, 0.000000000000000000, -1.117274028429802674E-13 ) ) ;
#929 = AXIS2_PLACEMENT_3D ( 'NONE', #730, #293, #282 ) ;
#930 = CIRCLE ( 'NONE', #915, 1.649999999999998579 ) ;
#931 = LINE ( 'NONE', #779, #650 ) ;
#932 = CIRCLE ( 'NONE', #238, 5.000000000000000000 ) ;
#933 = ADVANCED_FACE ( 'NONE', ( #497 ), #298, .F. ) ;
#934 = VERTEX_POINT ( 'NONE', #581 ) ;
#935 = FACE_OUTER_BOUND ( 'NONE', #407, .T. ) ;
#936 = EDGE_LOOP ( 'NONE', ( #439, #234 ) ) ;
#937 = AXIS2_PLACEMENT_3D ( 'NONE', #376, #887, #15 ) ;
#938 = DIRECTION ( 'NONE',  ( 0.000000000000000000, 0.000000000000000000, 1.000000000000000000 ) ) ;
#939 = ORIENTED_EDGE ( 'NONE', *, *, #8, .T. ) ;
#940 = VECTOR ( 'NONE', #171, 1000.000000000000000 ) ;
#941 = CIRCLE ( 'NONE', #684, 5.000000000000000000 ) ;
#942 = ORIENTED_EDGE ( 'NONE', *, *, #333, .F. ) ;
ENDSEC;
END-ISO-10303-21;
