ISO-10303-21;
HEADER;
FILE_DESCRIPTION (( 'STEP AP203' ),
    '1' );
FILE_NAME ('RodRight_Default_sldprt.STEP',
    '2026-07-23T12:35:22',
    ( '' ),
    ( '' ),
    'SwSTEP 2.0',
    'SolidWorks 2025',
    '' );
FILE_SCHEMA (( 'CONFIG_CONTROL_DESIGN' ));
ENDSEC;

DATA;
#1 = CARTESIAN_POINT ( 'NONE',  ( -125.0000000000000000, 20.00000000000000000, -35.00000000000000000 ) ) ;
#2 = EDGE_LOOP ( 'NONE', ( #445, #406, #216, #43 ) ) ;
#3 = EDGE_CURVE ( 'NONE', #394, #196, #60, .T. ) ;
#4 = DIRECTION ( 'NONE',  ( -0.000000000000000000, 1.000000000000000000, -0.000000000000000000 ) ) ;
#5 = VECTOR ( 'NONE', #298, 1000.000000000000000 ) ;
#6 = ORIENTED_EDGE ( 'NONE', *, *, #443, .T. ) ;
#7 = VECTOR ( 'NONE', #428, 1000.000000000000000 ) ;
#8 = FACE_OUTER_BOUND ( 'NONE', #398, .T. ) ;
#9 = EDGE_LOOP ( 'NONE', ( #525, #532, #138, #351 ) ) ;
#10 = EDGE_CURVE ( 'NONE', #268, #394, #459, .T. ) ;
#11 = PERSON_AND_ORGANIZATION ( #183, #419 ) ;
#12 = CARTESIAN_POINT ( 'NONE',  ( -21.00000000000000000, 20.00000000000000000, -200.0000000000000568 ) ) ;
#13 = ORIENTED_EDGE ( 'NONE', *, *, #511, .T. ) ;
#14 = CC_DESIGN_PERSON_AND_ORGANIZATION_ASSIGNMENT ( #407, #306, ( #447 ) ) ;
#15 = APPROVAL_ROLE ( '' ) ;
#16 = DIRECTION ( 'NONE',  ( 0.000000000000000000, 1.000000000000000000, -0.000000000000000000 ) ) ;
#17 = ORIENTED_EDGE ( 'NONE', *, *, #219, .T. ) ;
#18 = CARTESIAN_POINT ( 'NONE',  ( -21.00000000000000000, 20.00000000000000000, -197.9000000000000625 ) ) ;
#19 = LINE ( 'NONE', #147, #427 ) ;
#20 = ADVANCED_FACE ( 'NONE', ( #280 ), #329, .F. ) ;
#21 = LINE ( 'NONE', #189, #72 ) ;
#22 = CYLINDRICAL_SURFACE ( 'NONE', #131, 16.00000000000001421 ) ;
#23 = CC_DESIGN_SECURITY_CLASSIFICATION ( #293, ( #447 ) ) ;
#24 = CYLINDRICAL_SURFACE ( 'NONE', #470, 57.06324059485717726 ) ;
#25 = CARTESIAN_POINT ( 'NONE',  ( -21.00000000000000000, 0.000000000000000000, -200.0000000000000568 ) ) ;
#26 = EDGE_LOOP ( 'NONE', ( #431, #412 ) ) ;
#27 = ADVANCED_FACE ( 'NONE', ( #327 ), #22, .F. ) ;
#28 = PRODUCT_DEFINITION_SHAPE ( 'NONE', 'NONE',  #314 ) ;
#29 = DIRECTION ( 'NONE',  ( -0.2588190451025206840, 0.000000000000000000, -0.9659258262890683122 ) ) ;
#30 = VECTOR ( 'NONE', #509, 1000.000000000000000 ) ;
#31 = CARTESIAN_POINT ( 'NONE',  ( -55.11885782231924935, 20.00000000000000000, -295.7999730980483832 ) ) ;
#32 = EDGE_CURVE ( 'NONE', #297, #221, #551, .T. ) ;
#33 = DIRECTION ( 'NONE',  ( 0.000000000000000000, 0.000000000000000000, -1.000000000000000000 ) ) ;
#34 = CARTESIAN_POINT ( 'NONE',  ( 0.000000000000000000, 0.000000000000000000, 0.000000000000000000 ) ) ;
#35 = EDGE_CURVE ( 'NONE', #482, #437, #180, .T. ) ;
#36 = DIRECTION ( 'NONE',  ( -0.000000000000000000, 1.000000000000000000, -0.000000000000000000 ) ) ;
#37 = ORIENTED_EDGE ( 'NONE', *, *, #278, .T. ) ;
#38 = CARTESIAN_POINT ( 'NONE',  ( -21.00000000000000000, 0.000000000000000000, -202.1000000000000512 ) ) ;
#39 = FACE_BOUND ( 'NONE', #299, .T. ) ;
#40 = ORIENTED_EDGE ( 'NONE', *, *, #242, .T. ) ;
#41 = LINE ( 'NONE', #78, #301 ) ;
#42 = CIRCLE ( 'NONE', #359, 2.099999999999990763 ) ;
#43 = ORIENTED_EDGE ( 'NONE', *, *, #355, .T. ) ;
#44 = DIRECTION ( 'NONE',  ( 0.000000000000000000, 1.000000000000000000, -0.000000000000000000 ) ) ;
#45 = VERTEX_POINT ( 'NONE', #156 ) ;
#46 = CC_DESIGN_PERSON_AND_ORGANIZATION_ASSIGNMENT ( #302, #136, ( #314 ) ) ;
#47 = UNCERTAINTY_MEASURE_WITH_UNIT (LENGTH_MEASURE( 1.000000000000000082E-05 ), #393, 'distance_accuracy_value', 'NONE');
#48 = PERSON_AND_ORGANIZATION ( #183, #419 ) ;
#49 = DIRECTION ( 'NONE',  ( 0.000000000000000000, 0.000000000000000000, 1.000000000000000000 ) ) ;
#50 = ORIENTED_EDGE ( 'NONE', *, *, #487, .T. ) ;
#51 = DIRECTION ( 'NONE',  ( 0.000000000000000000, 1.000000000000000000, 0.000000000000000000 ) ) ;
#52 = AXIS2_PLACEMENT_3D ( 'NONE', #215, #488, #485 ) ;
#53 = DIRECTION ( 'NONE',  ( 0.000000000000000000, -1.000000000000000000, 0.000000000000000000 ) ) ;
#54 = CC_DESIGN_PERSON_AND_ORGANIZATION_ASSIGNMENT ( #56, #269, ( #522 ) ) ;
#55 = ORIENTED_EDGE ( 'NONE', *, *, #173, .T. ) ;
#56 = PERSON_AND_ORGANIZATION ( #183, #419 ) ;
#57 = CARTESIAN_POINT ( 'NONE',  ( 21.00000000000000000, 20.00000000000000000, -202.1000000000000512 ) ) ;
#58 = ORIENTED_EDGE ( 'NONE', *, *, #556, .T. ) ;
#59 = PLANE ( 'NONE',  #237 ) ;
#60 = LINE ( 'NONE', #65, #289 ) ;
#61 = CIRCLE ( 'NONE', #337, 16.00000000000001421 ) ;
#62 = ADVANCED_FACE ( 'NONE', ( #232 ), #372, .F. ) ;
#63 = CARTESIAN_POINT ( 'NONE',  ( 0.000000000000000000, -45.25483399593907308, -280.0000000000000568 ) ) ;
#64 = DIRECTION ( 'NONE',  ( -0.2588190451025213501, 0.000000000000000000, 0.9659258262890680902 ) ) ;
#65 = CARTESIAN_POINT ( 'NONE',  ( 55.11885782231936304, 20.00000000000000000, -295.7999730980486106 ) ) ;
#66 = AXIS2_PLACEMENT_3D ( 'NONE', #315, #220, #527 ) ;
#67 = DIRECTION ( 'NONE',  ( 0.000000000000000000, 0.000000000000000000, 1.000000000000000000 ) ) ;
#68 = CARTESIAN_POINT ( 'NONE',  ( -55.11885782231924935, 0.000000000000000000, -295.7999730980483832 ) ) ;
#69 = DIRECTION ( 'NONE',  ( -0.000000000000000000, 1.000000000000000000, -0.000000000000000000 ) ) ;
#70 = CARTESIAN_POINT ( 'NONE',  ( -125.0000000000000000, 20.00000000000000000, -35.00000000000000000 ) ) ;
#71 = ADVANCED_FACE ( 'NONE', ( #500 ), #466, .F. ) ;
#72 = VECTOR ( 'NONE', #236, 1000.000000000000114 ) ;
#73 = LINE ( 'NONE', #343, #481 ) ;
#74 = ORIENTED_EDGE ( 'NONE', *, *, #421, .F. ) ;
#75 = CARTESIAN_POINT ( 'NONE',  ( -21.00000000000000000, 0.000000000000000000, -200.0000000000000568 ) ) ;
#76 = FACE_BOUND ( 'NONE', #341, .T. ) ;
#77 = ORIENTED_EDGE ( 'NONE', *, *, #200, .F. ) ;
#78 = CARTESIAN_POINT ( 'NONE',  ( -21.00000000000000000, -45.25483399593907308, -197.9000000000000625 ) ) ;
#79 = LINE ( 'NONE', #167, #403 ) ;
#80 = ORIENTED_EDGE ( 'NONE', *, *, #267, .T. ) ;
#81 =( NAMED_UNIT ( * ) PLANE_ANGLE_UNIT ( ) SI_UNIT ( $, .RADIAN. ) );
#82 = CIRCLE ( 'NONE', #524, 2.099999999999990763 ) ;
#83 = EDGE_LOOP ( 'NONE', ( #384, #358, #77, #207 ) ) ;
#84 = APPROVAL ( #177, 'UNSPECIFIED' ) ;
#85 = PERSON_AND_ORGANIZATION ( #183, #419 ) ;
#86 = CARTESIAN_POINT ( 'NONE',  ( 21.00000000000000000, 20.00000000000000000, -200.0000000000000568 ) ) ;
#87 = EDGE_LOOP ( 'NONE', ( #480, #227 ) ) ;
#88 = CARTESIAN_POINT ( 'NONE',  ( -125.0000000000000000, 20.00000000000000000, -4.346199070024311105E-14 ) ) ;
#89 = EDGE_LOOP ( 'NONE', ( #100, #186, #519, #452 ) ) ;
#90 = COORDINATED_UNIVERSAL_TIME_OFFSET ( 3, 30, .AHEAD. ) ;
#91 = ADVANCED_FACE ( 'NONE', ( #377 ), #24, .T. ) ;
#92 = CARTESIAN_POINT ( 'NONE',  ( -125.0000000000000000, 0.000000000000000000, -4.346199070024311105E-14 ) ) ;
#93 = AXIS2_PLACEMENT_3D ( 'NONE', #368, #545, #235 ) ;
#94 = ORIENTED_EDGE ( 'NONE', *, *, #225, .T. ) ;
#95 = PERSON_AND_ORGANIZATION_ROLE ( 'creator' ) ;
#96 = DIRECTION ( 'NONE',  ( 0.2588190451025212946, 0.000000000000000000, -0.9659258262890680902 ) ) ;
#97 = VERTEX_POINT ( 'NONE', #151 ) ;
#98 = COORDINATED_UNIVERSAL_TIME_OFFSET ( 3, 30, .AHEAD. ) ;
#99 = CYLINDRICAL_SURFACE ( 'NONE', #209, 2.099999999999990763 ) ;
#100 = ORIENTED_EDGE ( 'NONE', *, *, #104, .T. ) ;
#101 = ORIENTED_EDGE ( 'NONE', *, *, #106, .T. ) ;
#102 = VECTOR ( 'NONE', #233, 1000.000000000000000 ) ;
#103 = LINE ( 'NONE', #68, #549 ) ;
#104 = EDGE_CURVE ( 'NONE', #308, #295, #103, .T. ) ;
#105 = FACE_BOUND ( 'NONE', #124, .T. ) ;
#106 = EDGE_CURVE ( 'NONE', #555, #537, #446, .T. ) ;
#107 = DIRECTION ( 'NONE',  ( 0.000000000000000000, 0.000000000000000000, 1.000000000000000000 ) ) ;
#108 = VECTOR ( 'NONE', #468, 1000.000000000000000 ) ;
#109 = CC_DESIGN_APPROVAL ( #457, ( #293 ) ) ;
#110 = CARTESIAN_POINT ( 'NONE',  ( 125.0000000000000000, 20.00000000000000000, -1.659266706149784044E-13 ) ) ;
#111 = DIRECTION ( 'NONE',  ( -0.000000000000000000, -1.000000000000000000, -0.000000000000000000 ) ) ;
#112 = DIRECTION ( 'NONE',  ( -0.000000000000000000, 1.000000000000000000, -0.000000000000000000 ) ) ;
#113 = CARTESIAN_POINT ( 'NONE',  ( 125.0000000000000000, 20.00000000000000000, -1.659266706149784044E-13 ) ) ;
#114 = ORIENTED_EDGE ( 'NONE', *, *, #309, .F. ) ;
#115 = AXIS2_PLACEMENT_3D ( 'NONE', #263, #4, #49 ) ;
#116 = CC_DESIGN_APPROVAL ( #335, ( #447 ) ) ;
#117 = DIRECTION ( 'NONE',  ( 0.000000000000000000, 0.000000000000000000, -1.000000000000000000 ) ) ;
#118 = ORIENTED_EDGE ( 'NONE', *, *, #188, .T. ) ;
#119 = DIRECTION ( 'NONE',  ( 0.000000000000000000, 1.000000000000000000, -0.000000000000000000 ) ) ;
#120 = DIRECTION ( 'NONE',  ( 0.000000000000000000, 0.000000000000000000, 1.000000000000000000 ) ) ;
#121 = ORIENTED_EDGE ( 'NONE', *, *, #140, .F. ) ;
#122 = DIRECTION ( 'NONE',  ( 0.000000000000000000, 0.000000000000000000, -1.000000000000000000 ) ) ;
#123 = CARTESIAN_POINT ( 'NONE',  ( 21.00000000000000000, -45.25483399593907308, -197.9000000000000625 ) ) ;
#124 = EDGE_LOOP ( 'NONE', ( #292, #114 ) ) ;
#125 = DATE_AND_TIME ( #181, #210 ) ;
#126 = VECTOR ( 'NONE', #503, 1000.000000000000000 ) ;
#127 = DIRECTION ( 'NONE',  ( 0.000000000000000000, 1.000000000000000000, -0.000000000000000000 ) ) ;
#128 = EDGE_LOOP ( 'NONE', ( #6, #205 ) ) ;
#129 = CALENDAR_DATE ( 2026, 23, 7 ) ;
#130 = DIRECTION ( 'NONE',  ( 0.000000000000000000, 0.000000000000000000, -1.000000000000000000 ) ) ;
#131 = AXIS2_PLACEMENT_3D ( 'NONE', #285, #465, #67 ) ;
#132 = VERTEX_POINT ( 'NONE', #460 ) ;
#133 = DATE_AND_TIME ( #129, #534 ) ;
#134 = VECTOR ( 'NONE', #279, 1000.000000000000000 ) ;
#135 = ORIENTED_EDGE ( 'NONE', *, *, #511, .F. ) ;
#136 = PERSON_AND_ORGANIZATION_ROLE ( 'creator' ) ;
#137 = PLANE ( 'NONE',  #322 ) ;
#138 = ORIENTED_EDGE ( 'NONE', *, *, #429, .T. ) ;
#139 = LINE ( 'NONE', #197, #102 ) ;
#140 = EDGE_CURVE ( 'NONE', #272, #401, #375, .T. ) ;
#141 = ORIENTED_EDGE ( 'NONE', *, *, #246, .F. ) ;
#142 = DIRECTION ( 'NONE',  ( 0.000000000000000000, 0.000000000000000000, 1.000000000000000000 ) ) ;
#143 = CIRCLE ( 'NONE', #558, 2.099999999999990763 ) ;
#144 = VECTOR ( 'NONE', #346, 1000.000000000000000 ) ;
#145 = EDGE_CURVE ( 'NONE', #363, #196, #21, .T. ) ;
#146 = AXIS2_PLACEMENT_3D ( 'NONE', #34, #203, #474 ) ;
#147 = CARTESIAN_POINT ( 'NONE',  ( 0.000000000000000000, -45.25483399593907308, -264.0000000000000568 ) ) ;
#148 = CARTESIAN_POINT ( 'NONE',  ( -125.0000000000000000, 20.00000000000000000, -4.346199070024311105E-14 ) ) ;
#149 = EDGE_CURVE ( 'NONE', #366, #45, #244, .T. ) ;
#150 = PLANE ( 'NONE',  #458 ) ;
#151 = CARTESIAN_POINT ( 'NONE',  ( 21.00000000000000000, 20.00000000000000000, -197.9000000000000625 ) ) ;
#152 = AXIS2_PLACEMENT_3D ( 'NONE', #110, #508, #281 ) ;
#153 = LOCAL_TIME ( 16, 5, 22.00000000000000000, #399 ) ;
#154 = DIRECTION ( 'NONE',  ( 0.000000000000000000, 0.000000000000000000, -1.000000000000000000 ) ) ;
#155 = EDGE_CURVE ( 'NONE', #515, #387, #417, .T. ) ;
#156 = CARTESIAN_POINT ( 'NONE',  ( -21.00000000000000000, 20.00000000000000000, -202.1000000000000512 ) ) ;
#157 = DIRECTION ( 'NONE',  ( 0.000000000000000000, 1.000000000000000000, -0.000000000000000000 ) ) ;
#158 = ORIENTED_EDGE ( 'NONE', *, *, #155, .F. ) ;
#159 = PLANE ( 'NONE',  #402 ) ;
#160 = ORIENTED_EDGE ( 'NONE', *, *, #373, .F. ) ;
#161 = ADVANCED_FACE ( 'NONE', ( #105, #505, #420, #194 ), #150, .F. ) ;
#162 = VECTOR ( 'NONE', #547, 1000.000000000000000 ) ;
#163 = CARTESIAN_POINT ( 'NONE',  ( 1.959434878635766315E-15, 20.00000000000000000, -296.0000000000001137 ) ) ;
#164 = LINE ( 'NONE', #287, #108 ) ;
#165 = ORIENTED_EDGE ( 'NONE', *, *, #542, .F. ) ;
#166 = LINE ( 'NONE', #31, #371 ) ;
#167 = CARTESIAN_POINT ( 'NONE',  ( 125.0000000000000000, 20.00000000000000000, -1.659266706149784044E-13 ) ) ;
#168 = VERTEX_POINT ( 'NONE', #397 ) ;
#169 = VERTEX_POINT ( 'NONE', #561 ) ;
#170 = CALENDAR_DATE ( 2026, 23, 7 ) ;
#171 = AXIS2_PLACEMENT_3D ( 'NONE', #257, #290, #33 ) ;
#172 = FACE_OUTER_BOUND ( 'NONE', #185, .T. ) ;
#173 = EDGE_CURVE ( 'NONE', #442, #482, #559, .T. ) ;
#174 = ORIENTED_EDGE ( 'NONE', *, *, #324, .F. ) ;
#175 = CARTESIAN_POINT ( 'NONE',  ( -4.163336342344337027E-14, 0.000000000000000000, -281.0309196568320544 ) ) ;
#176 = ORIENTED_EDGE ( 'NONE', *, *, #516, .F. ) ;
#177 = APPROVAL_STATUS ( 'not_yet_approved' ) ;
#178 = VECTOR ( 'NONE', #190, 1000.000000000000000 ) ;
#179 = ORIENTED_EDGE ( 'NONE', *, *, #443, .F. ) ;
#180 = CIRCLE ( 'NONE', #312, 16.00000000000001421 ) ;
#181 = CALENDAR_DATE ( 2026, 23, 7 ) ;
#182 = FACE_OUTER_BOUND ( 'NONE', #338, .T. ) ;
#183 = PERSON ( 'UNSPECIFIED', 'UNSPECIFIED', 'UNSPECIFIED', ('UNSPECIFIED'), ('UNSPECIFIED'), ('UNSPECIFIED') ) ;
#184 = AXIS2_PLACEMENT_3D ( 'NONE', #414, #261, #130 ) ;
#185 = EDGE_LOOP ( 'NONE', ( #493, #528, #262, #433 ) ) ;
#186 = ORIENTED_EDGE ( 'NONE', *, *, #225, .F. ) ;
#187 = DIRECTION ( 'NONE',  ( -0.000000000000000000, 1.000000000000000000, -0.000000000000000000 ) ) ;
#188 = EDGE_CURVE ( 'NONE', #295, #401, #164, .T. ) ;
#189 = CARTESIAN_POINT ( 'NONE',  ( 124.9999999999999716, 0.000000000000000000, -35.00000000000012790 ) ) ;
#190 = DIRECTION ( 'NONE',  ( -0.2588190451025213501, 0.000000000000000000, 0.9659258262890680902 ) ) ;
#191 = AXIS2_PLACEMENT_3D ( 'NONE', #228, #495, #96 ) ;
#192 = CC_DESIGN_PERSON_AND_ORGANIZATION_ASSIGNMENT ( #484, #95, ( #447 ) ) ;
#193 = LOCAL_TIME ( 16, 5, 22.00000000000000000, #454 ) ;
#194 = FACE_OUTER_BOUND ( 'NONE', #254, .T. ) ;
#195 = DIRECTION ( 'NONE',  ( 0.000000000000000000, 1.000000000000000000, 0.000000000000000000 ) ) ;
#196 = VERTEX_POINT ( 'NONE', #340 ) ;
#197 = CARTESIAN_POINT ( 'NONE',  ( 125.0000000000000000, 20.00000000000000000, -1.659266706149784044E-13 ) ) ;
#198 = DIRECTION ( 'NONE',  ( -0.000000000000000000, 1.000000000000000000, -0.000000000000000000 ) ) ;
#199 = VECTOR ( 'NONE', #435, 1000.000000000000000 ) ;
#200 = EDGE_CURVE ( 'NONE', #248, #268, #79, .T. ) ;
#201 = FACE_OUTER_BOUND ( 'NONE', #439, .T. ) ;
#202 = ORIENTED_EDGE ( 'NONE', *, *, #242, .F. ) ;
#203 = DIRECTION ( 'NONE',  ( 0.000000000000000000, 0.000000000000000000, 1.000000000000000000 ) ) ;
#204 = CARTESIAN_POINT ( 'NONE',  ( 124.9999999999999716, 20.00000000000000000, -35.00000000000012790 ) ) ;
#205 = ORIENTED_EDGE ( 'NONE', *, *, #324, .T. ) ;
#206 = LINE ( 'NONE', #70, #199 ) ;
#207 = ORIENTED_EDGE ( 'NONE', *, *, #415, .T. ) ;
#208 = CC_DESIGN_DATE_AND_TIME_ASSIGNMENT ( #133, #313, ( #314 ) ) ;
#209 = AXIS2_PLACEMENT_3D ( 'NONE', #274, #310, #490 ) ;
#210 = LOCAL_TIME ( 16, 5, 22.00000000000000000, #526 ) ;
#211 = CARTESIAN_POINT ( 'NONE',  ( -4.163336342344337027E-14, 20.00000000000000000, -338.0941602516892317 ) ) ;
#212 = ORIENTED_EDGE ( 'NONE', *, *, #373, .T. ) ;
#213 = SHAPE_DEFINITION_REPRESENTATION ( #28, #422 ) ;
#214 = ORIENTED_EDGE ( 'NONE', *, *, #32, .T. ) ;
#215 = CARTESIAN_POINT ( 'NONE',  ( 124.9999999999999716, 20.00000000000000000, -35.00000000000012790 ) ) ;
#216 = ORIENTED_EDGE ( 'NONE', *, *, #3, .T. ) ;
#217 = AXIS2_PLACEMENT_3D ( 'NONE', #63, #198, #107 ) ;
#218 = CIRCLE ( 'NONE', #184, 2.099999999999990763 ) ;
#219 = EDGE_CURVE ( 'NONE', #555, #45, #73, .T. ) ;
#220 = DIRECTION ( 'NONE',  ( 0.000000000000000000, 1.000000000000000000, -0.000000000000000000 ) ) ;
#221 = VERTEX_POINT ( 'NONE', #1 ) ;
#222 = PERSON_AND_ORGANIZATION ( #183, #419 ) ;
#223 = DIRECTION ( 'NONE',  ( 0.000000000000000000, 0.000000000000000000, -1.000000000000000000 ) ) ;
#224 = ORIENTED_EDGE ( 'NONE', *, *, #392, .F. ) ;
#225 = EDGE_CURVE ( 'NONE', #221, #295, #206, .T. ) ;
#226 = APPROVAL_STATUS ( 'not_yet_approved' ) ;
#227 = ORIENTED_EDGE ( 'NONE', *, *, #35, .F. ) ;
#228 = CARTESIAN_POINT ( 'NONE',  ( -55.11885782231924935, 20.00000000000000000, -295.7999730980483832 ) ) ;
#229 = AXIS2_PLACEMENT_3D ( 'NONE', #471, #36, #120 ) ;
#230 = CC_DESIGN_APPROVAL ( #84, ( #314 ) ) ;
#231 = EDGE_LOOP ( 'NONE', ( #174, #489, #486, #304 ) ) ;
#232 = FACE_OUTER_BOUND ( 'NONE', #83, .T. ) ;
#233 = DIRECTION ( 'NONE',  ( -0.000000000000000000, -1.000000000000000000, -0.000000000000000000 ) ) ;
#234 = EDGE_CURVE ( 'NONE', #275, #442, #276, .T. ) ;
#235 = DIRECTION ( 'NONE',  ( 0.000000000000000000, 0.000000000000000000, 1.000000000000000000 ) ) ;
#236 = DIRECTION ( 'NONE',  ( -0.2588190451025206840, 0.000000000000000000, -0.9659258262890683122 ) ) ;
#237 = AXIS2_PLACEMENT_3D ( 'NONE', #318, #53, #364 ) ;
#238 = CARTESIAN_POINT ( 'NONE',  ( 0.000000000000000000, 20.00000000000000000, -264.0000000000000568 ) ) ;
#239 = CARTESIAN_POINT ( 'NONE',  ( 21.00000000000000000, -45.25483399593907308, -200.0000000000000568 ) ) ;
#240 = DIRECTION ( 'NONE',  ( -4.898587196589411843E-16, 0.000000000000000000, -1.000000000000000000 ) ) ;
#241 = DIRECTION ( 'NONE',  ( 0.000000000000000000, 0.000000000000000000, -1.000000000000000000 ) ) ;
#242 = EDGE_CURVE ( 'NONE', #442, #275, #61, .T. ) ;
#243 = CARTESIAN_POINT ( 'NONE',  ( 0.000000000000000000, 0.000000000000000000, -264.0000000000000568 ) ) ;
#244 = CIRCLE ( 'NONE', #93, 2.099999999999990763 ) ;
#245 = AXIS2_PLACEMENT_3D ( 'NONE', #517, #256, #122 ) ;
#246 = EDGE_CURVE ( 'NONE', #401, #132, #518, .T. ) ;
#247 = CARTESIAN_POINT ( 'NONE',  ( -125.0000000000000000, 0.000000000000000000, -4.346199070024311105E-14 ) ) ;
#248 = VERTEX_POINT ( 'NONE', #113 ) ;
#249 = APPLICATION_PROTOCOL_DEFINITION ( 'international standard', 'config_control_design', 1994, #258 ) ;
#250 = ADVANCED_FACE ( 'NONE', ( #523 ), #333, .F. ) ;
#251 = FACE_BOUND ( 'NONE', #128, .T. ) ;
#252 = ORIENTED_EDGE ( 'NONE', *, *, #421, .T. ) ;
#253 = DIRECTION ( 'NONE',  ( -7.930164461608269314E-16, 0.000000000000000000, -1.000000000000000000 ) ) ;
#254 = EDGE_LOOP ( 'NONE', ( #37, #13, #214, #252, #212, #334, #560 ) ) ;
#255 = AXIS2_PLACEMENT_3D ( 'NONE', #294, #296, #557 ) ;
#256 = DIRECTION ( 'NONE',  ( 0.000000000000000000, 1.000000000000000000, -0.000000000000000000 ) ) ;
#257 = CARTESIAN_POINT ( 'NONE',  ( 0.000000000000000000, 0.000000000000000000, -280.0000000000000568 ) ) ;
#258 = APPLICATION_CONTEXT ( 'configuration controlled 3d designs of mechanical parts and assemblies' ) ;
#259 = ORIENTED_EDGE ( 'NONE', *, *, #35, .T. ) ;
#260 = DATE_TIME_ROLE ( 'classification_date' ) ;
#261 = DIRECTION ( 'NONE',  ( 0.000000000000000000, 1.000000000000000000, -0.000000000000000000 ) ) ;
#262 = ORIENTED_EDGE ( 'NONE', *, *, #542, .T. ) ;
#263 = CARTESIAN_POINT ( 'NONE',  ( -21.00000000000000000, -45.25483399593907308, -200.0000000000000568 ) ) ;
#264 = ORIENTED_EDGE ( 'NONE', *, *, #104, .F. ) ;
#265 = CIRCLE ( 'NONE', #380, 57.06324059485717726 ) ;
#266 = APPROVAL_PERSON_ORGANIZATION ( #48, #335, #15 ) ;
#267 = EDGE_CURVE ( 'NONE', #169, #97, #438, .T. ) ;
#268 = VERTEX_POINT ( 'NONE', #204 ) ;
#269 = PERSON_AND_ORGANIZATION_ROLE ( 'design_owner' ) ;
#270 = CYLINDRICAL_SURFACE ( 'NONE', #291, 57.06324059485717726 ) ;
#271 = PRODUCT_RELATED_PRODUCT_CATEGORY ( 'detail', '', ( #522 ) ) ;
#272 = VERTEX_POINT ( 'NONE', #386 ) ;
#273 = PERSON_AND_ORGANIZATION_ROLE ( 'classification_officer' ) ;
#274 = CARTESIAN_POINT ( 'NONE',  ( -21.00000000000000000, -45.25483399593907308, -200.0000000000000568 ) ) ;
#275 = VERTEX_POINT ( 'NONE', #243 ) ;
#276 = CIRCLE ( 'NONE', #171, 16.00000000000001421 ) ;
#277 = EDGE_LOOP ( 'NONE', ( #449, #530, #160, #553 ) ) ;
#278 = EDGE_CURVE ( 'NONE', #394, #473, #300, .T. ) ;
#279 = DIRECTION ( 'NONE',  ( -0.000000000000000000, -1.000000000000000000, -0.000000000000000000 ) ) ;
#280 = FACE_OUTER_BOUND ( 'NONE', #491, .T. ) ;
#281 = DIRECTION ( 'NONE',  ( 7.930164461608270300E-16, 0.000000000000000000, 1.000000000000000000 ) ) ;
#282 = ADVANCED_FACE ( 'NONE', ( #201 ), #159, .F. ) ;
#283 = DIRECTION ( 'NONE',  ( 0.000000000000000000, -1.000000000000000000, 0.000000000000000000 ) ) ;
#284 = CIRCLE ( 'NONE', #436, 2.099999999999990763 ) ;
#285 = CARTESIAN_POINT ( 'NONE',  ( 0.000000000000000000, -45.25483399593907308, -280.0000000000000568 ) ) ;
#286 = ADVANCED_FACE ( 'NONE', ( #76, #251, #39, #389 ), #59, .T. ) ;
#287 = CARTESIAN_POINT ( 'NONE',  ( -125.0000000000000000, 0.000000000000000000, -35.00000000000000000 ) ) ;
#288 = EDGE_CURVE ( 'NONE', #387, #97, #82, .T. ) ;
#289 = VECTOR ( 'NONE', #541, 1000.000000000000000 ) ;
#290 = DIRECTION ( 'NONE',  ( 0.000000000000000000, 1.000000000000000000, -0.000000000000000000 ) ) ;
#291 = AXIS2_PLACEMENT_3D ( 'NONE', #536, #455, #451 ) ;
#292 = ORIENTED_EDGE ( 'NONE', *, *, #149, .F. ) ;
#293 = SECURITY_CLASSIFICATION ( '', '', #317 ) ;
#294 = CARTESIAN_POINT ( 'NONE',  ( 21.00000000000000000, 20.00000000000000000, -200.0000000000000568 ) ) ;
#295 = VERTEX_POINT ( 'NONE', #303 ) ;
#296 = DIRECTION ( 'NONE',  ( 0.000000000000000000, 1.000000000000000000, -0.000000000000000000 ) ) ;
#297 = VERTEX_POINT ( 'NONE', #411 ) ;
#298 = DIRECTION ( 'NONE',  ( -0.000000000000000000, 1.000000000000000000, -0.000000000000000000 ) ) ;
#299 = EDGE_LOOP ( 'NONE', ( #496, #40 ) ) ;
#300 = CIRCLE ( 'NONE', #418, 57.06324059485717726 ) ;
#301 = VECTOR ( 'NONE', #69, 1000.000000000000000 ) ;
#302 = PERSON_AND_ORGANIZATION ( #183, #419 ) ;
#303 = CARTESIAN_POINT ( 'NONE',  ( -125.0000000000000000, 0.000000000000000000, -35.00000000000000000 ) ) ;
#304 = ORIENTED_EDGE ( 'NONE', *, *, #267, .F. ) ;
#305 = ADVANCED_FACE ( 'NONE', ( #362 ), #444, .F. ) ;
#306 = PERSON_AND_ORGANIZATION_ROLE ( 'design_supplier' ) ;
#307 = LINE ( 'NONE', #88, #390 ) ;
#308 = VERTEX_POINT ( 'NONE', #357 ) ;
#309 = EDGE_CURVE ( 'NONE', #45, #366, #143, .T. ) ;
#310 = DIRECTION ( 'NONE',  ( -0.000000000000000000, 1.000000000000000000, -0.000000000000000000 ) ) ;
#311 = ORIENTED_EDGE ( 'NONE', *, *, #106, .F. ) ;
#312 = AXIS2_PLACEMENT_3D ( 'NONE', #424, #195, #142 ) ;
#313 = DATE_TIME_ROLE ( 'creation_date' ) ;
#314 = PRODUCT_DEFINITION ( 'UNKNOWN', '', #447, #331 ) ;
#315 = CARTESIAN_POINT ( 'NONE',  ( -4.163336342344337027E-14, 0.000000000000000000, -281.0309196568320544 ) ) ;
#316 = ORIENTED_EDGE ( 'NONE', *, *, #3, .F. ) ;
#317 = SECURITY_CLASSIFICATION_LEVEL ( 'unclassified' ) ;
#318 = CARTESIAN_POINT ( 'NONE',  ( -4.163336342344337027E-14, 0.000000000000000000, -281.0309196568320544 ) ) ;
#319 = ORIENTED_EDGE ( 'NONE', *, *, #429, .F. ) ;
#320 = EDGE_LOOP ( 'NONE', ( #512, #316, #409, #344 ) ) ;
#321 = VECTOR ( 'NONE', #29, 1000.000000000000114 ) ;
#322 = AXIS2_PLACEMENT_3D ( 'NONE', #464, #240, #502 ) ;
#323 = DIRECTION ( 'NONE',  ( 0.000000000000000000, 0.000000000000000000, 1.000000000000000000 ) ) ;
#324 = EDGE_CURVE ( 'NONE', #515, #169, #218, .T. ) ;
#325 = CARTESIAN_POINT ( 'NONE',  ( 21.00000000000000000, -45.25483399593907308, -202.1000000000000512 ) ) ;
#326 = CARTESIAN_POINT ( 'NONE',  ( -4.163336342344337027E-14, 20.00000000000000000, -281.0309196568320544 ) ) ;
#327 = FACE_OUTER_BOUND ( 'NONE', #9, .T. ) ;
#328 = CIRCLE ( 'NONE', #361, 16.00000000000001421 ) ;
#329 = CYLINDRICAL_SURFACE ( 'NONE', #217, 16.00000000000001421 ) ;
#330 = ADVANCED_FACE ( 'NONE', ( #172 ), #441, .F. ) ;
#331 = DESIGN_CONTEXT ( 'detailed design', #453, 'design' ) ;
#332 = CARTESIAN_POINT ( 'NONE',  ( 125.0000000000000000, 0.000000000000000000, -1.659266706149784044E-13 ) ) ;
#333 = CYLINDRICAL_SURFACE ( 'NONE', #229, 2.099999999999990763 ) ;
#334 = ORIENTED_EDGE ( 'NONE', *, *, #200, .T. ) ;
#335 = APPROVAL ( #352, 'UNSPECIFIED' ) ;
#336 = CARTESIAN_POINT ( 'NONE',  ( -125.0000000000000000, 20.00000000000000000, -35.00000000000000000 ) ) ;
#337 = AXIS2_PLACEMENT_3D ( 'NONE', #552, #157, #430 ) ;
#338 = EDGE_LOOP ( 'NONE', ( #311, #17, #562, #165 ) ) ;
#339 = DIRECTION ( 'NONE',  ( 0.000000000000000000, 1.000000000000000000, 0.000000000000000000 ) ) ;
#340 = CARTESIAN_POINT ( 'NONE',  ( 55.11885782231936304, 0.000000000000000000, -295.7999730980486106 ) ) ;
#341 = EDGE_LOOP ( 'NONE', ( #354, #101 ) ) ;
#342 = CARTESIAN_POINT ( 'NONE',  ( -4.163336342344337027E-14, 20.00000000000000000, -338.0941602516892317 ) ) ;
#343 = CARTESIAN_POINT ( 'NONE',  ( -21.00000000000000000, -45.25483399593907308, -202.1000000000000512 ) ) ;
#344 = ORIENTED_EDGE ( 'NONE', *, *, #413, .T. ) ;
#345 = DATE_AND_TIME ( #170, #193 ) ;
#346 = DIRECTION ( 'NONE',  ( 1.000000000000000000, 0.000000000000000000, -4.898587196589411843E-16 ) ) ;
#347 = EDGE_LOOP ( 'NONE', ( #539, #456, #476, #141, #521, #264, #224 ) ) ;
#348 = APPROVAL_PERSON_ORGANIZATION ( #11, #457, #440 ) ;
#349 = CALENDAR_DATE ( 2026, 23, 7 ) ;
#350 = DIRECTION ( 'NONE',  ( 0.000000000000000000, 0.000000000000000000, 1.000000000000000000 ) ) ;
#351 = ORIENTED_EDGE ( 'NONE', *, *, #501, .T. ) ;
#352 = APPROVAL_STATUS ( 'not_yet_approved' ) ;
#353 = DIRECTION ( 'NONE',  ( 0.000000000000000000, 0.000000000000000000, -1.000000000000000000 ) ) ;
#354 = ORIENTED_EDGE ( 'NONE', *, *, #478, .T. ) ;
#355 = EDGE_CURVE ( 'NONE', #196, #168, #543, .T. ) ;
#356 = DATE_AND_TIME ( #349, #153 ) ;
#357 = CARTESIAN_POINT ( 'NONE',  ( -55.11885782231924935, 0.000000000000000000, -295.7999730980483832 ) ) ;
#358 = ORIENTED_EDGE ( 'NONE', *, *, #413, .F. ) ;
#359 = AXIS2_PLACEMENT_3D ( 'NONE', #75, #119, #385 ) ;
#360 = APPROVAL_DATE_TIME ( #125, #335 ) ;
#361 = AXIS2_PLACEMENT_3D ( 'NONE', #388, #339, #467 ) ;
#362 = FACE_OUTER_BOUND ( 'NONE', #320, .T. ) ;
#363 = VERTEX_POINT ( 'NONE', #408 ) ;
#364 = DIRECTION ( 'NONE',  ( 0.000000000000000000, -0.000000000000000000, -1.000000000000000000 ) ) ;
#365 = ADVANCED_FACE ( 'NONE', ( #400 ), #492, .F. ) ;
#366 = VERTEX_POINT ( 'NONE', #18 ) ;
#367 = CARTESIAN_POINT ( 'NONE',  ( 21.00000000000000000, 0.000000000000000000, -200.0000000000000568 ) ) ;
#368 = CARTESIAN_POINT ( 'NONE',  ( -21.00000000000000000, 20.00000000000000000, -200.0000000000000568 ) ) ;
#369 = AXIS2_PLACEMENT_3D ( 'NONE', #25, #379, #241 ) ;
#370 = CARTESIAN_POINT ( 'NONE',  ( -125.0000000000000000, 20.00000000000000000, -35.00000000000000000 ) ) ;
#371 = VECTOR ( 'NONE', #111, 1000.000000000000000 ) ;
#372 = PLANE ( 'NONE',  #152 ) ;
#373 = EDGE_CURVE ( 'NONE', #272, #248, #307, .T. ) ;
#374 = CARTESIAN_POINT ( 'NONE',  ( 124.9999999999999716, 20.00000000000000000, -35.00000000000012790 ) ) ;
#375 = LINE ( 'NONE', #148, #162 ) ;
#376 = CC_DESIGN_PERSON_AND_ORGANIZATION_ASSIGNMENT ( #85, #273, ( #293 ) ) ;
#377 = FACE_OUTER_BOUND ( 'NONE', #2, .T. ) ;
#378 = LINE ( 'NONE', #211, #7 ) ;
#379 = DIRECTION ( 'NONE',  ( 0.000000000000000000, 1.000000000000000000, -0.000000000000000000 ) ) ;
#380 = AXIS2_PLACEMENT_3D ( 'NONE', #175, #16, #353 ) ;
#381 = LOCAL_TIME ( 16, 5, 22.00000000000000000, #98 ) ;
#382 = ADVANCED_FACE ( 'NONE', ( #8 ), #270, .T. ) ;
#383 = DIRECTION ( 'NONE',  ( 0.000000000000000000, -0.000000000000000000, -1.000000000000000000 ) ) ;
#384 = ORIENTED_EDGE ( 'NONE', *, *, #461, .T. ) ;
#385 = DIRECTION ( 'NONE',  ( 0.000000000000000000, 0.000000000000000000, -1.000000000000000000 ) ) ;
#386 = CARTESIAN_POINT ( 'NONE',  ( -125.0000000000000000, 20.00000000000000000, -4.346199070024311105E-14 ) ) ;
#387 = VERTEX_POINT ( 'NONE', #57 ) ;
#388 = CARTESIAN_POINT ( 'NONE',  ( 0.000000000000000000, 20.00000000000000000, -280.0000000000000568 ) ) ;
#389 = FACE_OUTER_BOUND ( 'NONE', #347, .T. ) ;
#390 = VECTOR ( 'NONE', #404, 1000.000000000000000 ) ;
#391 = EDGE_LOOP ( 'NONE', ( #158, #179, #80, #50 ) ) ;
#392 = EDGE_CURVE ( 'NONE', #168, #308, #265, .T. ) ;
#393 =( LENGTH_UNIT ( ) NAMED_UNIT ( * ) SI_UNIT ( .MILLI., .METRE. ) );
#394 = VERTEX_POINT ( 'NONE', #529 ) ;
#395 = ADVANCED_FACE ( 'NONE', ( #182 ), #99, .F. ) ;
#396 = CALENDAR_DATE ( 2026, 23, 7 ) ;
#397 = CARTESIAN_POINT ( 'NONE',  ( -4.163336342344337027E-14, 0.000000000000000000, -338.0941602516892317 ) ) ;
#398 = EDGE_LOOP ( 'NONE', ( #135, #58, #497, #176 ) ) ;
#399 = COORDINATED_UNIVERSAL_TIME_OFFSET ( 3, 30, .AHEAD. ) ;
#400 = FACE_OUTER_BOUND ( 'NONE', #89, .T. ) ;
#401 = VERTEX_POINT ( 'NONE', #92 ) ;
#402 = AXIS2_PLACEMENT_3D ( 'NONE', #336, #514, #117 ) ;
#403 = VECTOR ( 'NONE', #253, 1000.000000000000000 ) ;
#404 = DIRECTION ( 'NONE',  ( 1.000000000000000000, 0.000000000000000000, -4.898587196589411843E-16 ) ) ;
#405 = ADVANCED_FACE ( 'NONE', ( #448 ), #137, .F. ) ;
#406 = ORIENTED_EDGE ( 'NONE', *, *, #278, .F. ) ;
#407 = PERSON_AND_ORGANIZATION ( #183, #419 ) ;
#408 = CARTESIAN_POINT ( 'NONE',  ( 124.9999999999999716, 0.000000000000000000, -35.00000000000012790 ) ) ;
#409 = ORIENTED_EDGE ( 'NONE', *, *, #10, .F. ) ;
#410 = APPROVAL_DATE_TIME ( #356, #457 ) ;
#411 = CARTESIAN_POINT ( 'NONE',  ( -55.11885782231924935, 20.00000000000000000, -295.7999730980483832 ) ) ;
#412 = ORIENTED_EDGE ( 'NONE', *, *, #288, .F. ) ;
#413 = EDGE_CURVE ( 'NONE', #268, #363, #538, .T. ) ;
#414 = CARTESIAN_POINT ( 'NONE',  ( 21.00000000000000000, 0.000000000000000000, -200.0000000000000568 ) ) ;
#415 = EDGE_CURVE ( 'NONE', #248, #132, #139, .T. ) ;
#416 = CARTESIAN_POINT ( 'NONE',  ( -4.163336342344337027E-14, 20.00000000000000000, -281.0309196568320544 ) ) ;
#417 = LINE ( 'NONE', #325, #126 ) ;
#418 = AXIS2_PLACEMENT_3D ( 'NONE', #426, #44, #554 ) ;
#419 = ORGANIZATION ( 'UNSPECIFIED', 'UNSPECIFIED', '' ) ;
#420 = FACE_BOUND ( 'NONE', #87, .T. ) ;
#421 = EDGE_CURVE ( 'NONE', #221, #272, #546, .T. ) ;
#422 = ADVANCED_BREP_SHAPE_REPRESENTATION ( 'RodRight_Default_sldprt', ( #548, #146 ), #472 ) ;
#423 = DIRECTION ( 'NONE',  ( -0.000000000000000000, -1.000000000000000000, -0.000000000000000000 ) ) ;
#424 = CARTESIAN_POINT ( 'NONE',  ( 0.000000000000000000, 20.00000000000000000, -280.0000000000000568 ) ) ;
#425 =( NAMED_UNIT ( * ) SI_UNIT ( $, .STERADIAN. ) SOLID_ANGLE_UNIT ( ) );
#426 = CARTESIAN_POINT ( 'NONE',  ( -4.163336342344337027E-14, 20.00000000000000000, -281.0309196568320544 ) ) ;
#427 = VECTOR ( 'NONE', #187, 1000.000000000000000 ) ;
#428 = DIRECTION ( 'NONE',  ( -0.000000000000000000, -1.000000000000000000, -0.000000000000000000 ) ) ;
#429 = EDGE_CURVE ( 'NONE', #275, #437, #19, .T. ) ;
#430 = DIRECTION ( 'NONE',  ( 0.000000000000000000, 0.000000000000000000, -1.000000000000000000 ) ) ;
#431 = ORIENTED_EDGE ( 'NONE', *, *, #487, .F. ) ;
#432 = MECHANICAL_CONTEXT ( 'NONE', #258, 'mechanical' ) ;
#433 = ORIENTED_EDGE ( 'NONE', *, *, #149, .T. ) ;
#434 = CARTESIAN_POINT ( 'NONE',  ( 21.00000000000000000, 0.000000000000000000, -202.1000000000000512 ) ) ;
#435 = DIRECTION ( 'NONE',  ( -0.000000000000000000, -1.000000000000000000, -0.000000000000000000 ) ) ;
#436 = AXIS2_PLACEMENT_3D ( 'NONE', #367, #540, #154 ) ;
#437 = VERTEX_POINT ( 'NONE', #238 ) ;
#438 = LINE ( 'NONE', #123, #5 ) ;
#439 = EDGE_LOOP ( 'NONE', ( #118, #121, #74, #94 ) ) ;
#440 = APPROVAL_ROLE ( '' ) ;
#441 = CYLINDRICAL_SURFACE ( 'NONE', #115, 2.099999999999990763 ) ;
#442 = VERTEX_POINT ( 'NONE', #507 ) ;
#443 = EDGE_CURVE ( 'NONE', #169, #515, #284, .T. ) ;
#444 = PLANE ( 'NONE',  #52 ) ;
#445 = ORIENTED_EDGE ( 'NONE', *, *, #556, .F. ) ;
#446 = CIRCLE ( 'NONE', #369, 2.099999999999990763 ) ;
#447 = PRODUCT_DEFINITION_FORMATION_WITH_SPECIFIED_SOURCE ( 'ANY', '', #522, .NOT_KNOWN. ) ;
#448 = FACE_OUTER_BOUND ( 'NONE', #277, .T. ) ;
#449 = ORIENTED_EDGE ( 'NONE', *, *, #246, .T. ) ;
#450 = DATE_AND_TIME ( #396, #381 ) ;
#451 = DIRECTION ( 'NONE',  ( 0.000000000000000000, 0.000000000000000000, -1.000000000000000000 ) ) ;
#452 = ORIENTED_EDGE ( 'NONE', *, *, #516, .T. ) ;
#453 = APPLICATION_CONTEXT ( 'configuration controlled 3d designs of mechanical parts and assemblies' ) ;
#454 = COORDINATED_UNIVERSAL_TIME_OFFSET ( 3, 30, .AHEAD. ) ;
#455 = DIRECTION ( 'NONE',  ( -0.000000000000000000, -1.000000000000000000, -0.000000000000000000 ) ) ;
#456 = ORIENTED_EDGE ( 'NONE', *, *, #145, .F. ) ;
#457 = APPROVAL ( #226, 'UNSPECIFIED' ) ;
#458 = AXIS2_PLACEMENT_3D ( 'NONE', #326, #283, #383 ) ;
#459 = LINE ( 'NONE', #544, #321 ) ;
#460 = CARTESIAN_POINT ( 'NONE',  ( 125.0000000000000000, 0.000000000000000000, -1.659266706149784044E-13 ) ) ;
#461 = EDGE_CURVE ( 'NONE', #132, #363, #477, .T. ) ;
#462 = DIRECTION ( 'NONE',  ( 0.000000000000000000, 0.000000000000000000, -1.000000000000000000 ) ) ;
#463 = VECTOR ( 'NONE', #475, 1000.000000000000000 ) ;
#464 = CARTESIAN_POINT ( 'NONE',  ( -125.0000000000000000, 20.00000000000000000, -4.346199070024311105E-14 ) ) ;
#465 = DIRECTION ( 'NONE',  ( -0.000000000000000000, 1.000000000000000000, -0.000000000000000000 ) ) ;
#466 = CYLINDRICAL_SURFACE ( 'NONE', #498, 2.099999999999990763 ) ;
#467 = DIRECTION ( 'NONE',  ( 0.000000000000000000, 0.000000000000000000, 1.000000000000000000 ) ) ;
#468 = DIRECTION ( 'NONE',  ( 0.000000000000000000, 0.000000000000000000, 1.000000000000000000 ) ) ;
#469 = CC_DESIGN_DATE_AND_TIME_ASSIGNMENT ( #345, #260, ( #293 ) ) ;
#470 = AXIS2_PLACEMENT_3D ( 'NONE', #416, #423, #462 ) ;
#471 = CARTESIAN_POINT ( 'NONE',  ( 21.00000000000000000, -45.25483399593907308, -200.0000000000000568 ) ) ;
#472 =( GEOMETRIC_REPRESENTATION_CONTEXT ( 3 ) GLOBAL_UNCERTAINTY_ASSIGNED_CONTEXT ( ( #47 ) ) GLOBAL_UNIT_ASSIGNED_CONTEXT ( ( #393, #81, #425 ) ) REPRESENTATION_CONTEXT ( 'NONE', 'WORKASPACE' ) );
#473 = VERTEX_POINT ( 'NONE', #342 ) ;
#474 = DIRECTION ( 'NONE',  ( 1.000000000000000000, 0.000000000000000000, 0.000000000000000000 ) ) ;
#475 = DIRECTION ( 'NONE',  ( -0.000000000000000000, 1.000000000000000000, -0.000000000000000000 ) ) ;
#476 = ORIENTED_EDGE ( 'NONE', *, *, #461, .F. ) ;
#477 = LINE ( 'NONE', #332, #30 ) ;
#478 = EDGE_CURVE ( 'NONE', #537, #555, #42, .T. ) ;
#479 = CARTESIAN_POINT ( 'NONE',  ( 1.959434878635766709E-15, -45.25483399593907308, -296.0000000000001137 ) ) ;
#480 = ORIENTED_EDGE ( 'NONE', *, *, #501, .F. ) ;
#481 = VECTOR ( 'NONE', #520, 1000.000000000000000 ) ;
#482 = VERTEX_POINT ( 'NONE', #163 ) ;
#483 = CLOSED_SHELL ( 'NONE', ( #395, #71, #20, #382, #91, #365, #282, #405, #62, #305, #161, #286, #27, #250, #330 ) ) ;
#484 = PERSON_AND_ORGANIZATION ( #183, #419 ) ;
#485 = DIRECTION ( 'NONE',  ( 0.2588190451025206840, 0.000000000000000000, 0.9659258262890683122 ) ) ;
#486 = ORIENTED_EDGE ( 'NONE', *, *, #288, .T. ) ;
#487 = EDGE_CURVE ( 'NONE', #97, #387, #506, .T. ) ;
#488 = DIRECTION ( 'NONE',  ( -0.9659258262890683122, 0.000000000000000000, 0.2588190451025206840 ) ) ;
#489 = ORIENTED_EDGE ( 'NONE', *, *, #155, .T. ) ;
#490 = DIRECTION ( 'NONE',  ( 0.000000000000000000, 0.000000000000000000, 1.000000000000000000 ) ) ;
#491 = EDGE_LOOP ( 'NONE', ( #202, #55, #259, #319 ) ) ;
#492 = PLANE ( 'NONE',  #191 ) ;
#493 = ORIENTED_EDGE ( 'NONE', *, *, #219, .F. ) ;
#494 = APPLICATION_PROTOCOL_DEFINITION ( 'international standard', 'config_control_design', 1994, #453 ) ;
#495 = DIRECTION ( 'NONE',  ( 0.9659258262890682012, -0.000000000000000000, 0.2588190451025213501 ) ) ;
#496 = ORIENTED_EDGE ( 'NONE', *, *, #234, .T. ) ;
#497 = ORIENTED_EDGE ( 'NONE', *, *, #392, .T. ) ;
#498 = AXIS2_PLACEMENT_3D ( 'NONE', #239, #112, #323 ) ;
#499 = APPROVAL_PERSON_ORGANIZATION ( #222, #84, #531 ) ;
#500 = FACE_OUTER_BOUND ( 'NONE', #231, .T. ) ;
#501 = EDGE_CURVE ( 'NONE', #437, #482, #328, .T. ) ;
#502 = DIRECTION ( 'NONE',  ( -1.000000000000000000, 0.000000000000000000, 4.898587196589411843E-16 ) ) ;
#503 = DIRECTION ( 'NONE',  ( -0.000000000000000000, 1.000000000000000000, -0.000000000000000000 ) ) ;
#504 = DIRECTION ( 'NONE',  ( 0.000000000000000000, 0.000000000000000000, 1.000000000000000000 ) ) ;
#505 = FACE_BOUND ( 'NONE', #26, .T. ) ;
#506 = CIRCLE ( 'NONE', #255, 2.099999999999990763 ) ;
#507 = CARTESIAN_POINT ( 'NONE',  ( 1.959434878635766315E-15, 0.000000000000000000, -296.0000000000001137 ) ) ;
#508 = DIRECTION ( 'NONE',  ( -1.000000000000000000, 0.000000000000000000, 7.930164461608270300E-16 ) ) ;
#509 = DIRECTION ( 'NONE',  ( -7.930164461608269314E-16, 0.000000000000000000, -1.000000000000000000 ) ) ;
#510 = CARTESIAN_POINT ( 'NONE',  ( -55.11885782231924935, 20.00000000000000000, -295.7999730980483832 ) ) ;
#511 = EDGE_CURVE ( 'NONE', #473, #297, #550, .T. ) ;
#512 = ORIENTED_EDGE ( 'NONE', *, *, #145, .T. ) ;
#513 = CARTESIAN_POINT ( 'NONE',  ( -21.00000000000000000, 0.000000000000000000, -197.9000000000000625 ) ) ;
#514 = DIRECTION ( 'NONE',  ( 1.000000000000000000, 0.000000000000000000, 0.000000000000000000 ) ) ;
#515 = VERTEX_POINT ( 'NONE', #434 ) ;
#516 = EDGE_CURVE ( 'NONE', #297, #308, #166, .T. ) ;
#517 = CARTESIAN_POINT ( 'NONE',  ( -4.163336342344337027E-14, 20.00000000000000000, -281.0309196568320544 ) ) ;
#518 = LINE ( 'NONE', #247, #144 ) ;
#519 = ORIENTED_EDGE ( 'NONE', *, *, #32, .F. ) ;
#520 = DIRECTION ( 'NONE',  ( -0.000000000000000000, 1.000000000000000000, -0.000000000000000000 ) ) ;
#521 = ORIENTED_EDGE ( 'NONE', *, *, #188, .F. ) ;
#522 = PRODUCT ( 'RodRight_Default_sldprt', 'RodRight_Default_sldprt', '', ( #432 ) ) ;
#523 = FACE_OUTER_BOUND ( 'NONE', #391, .T. ) ;
#524 = AXIS2_PLACEMENT_3D ( 'NONE', #86, #127, #223 ) ;
#525 = ORIENTED_EDGE ( 'NONE', *, *, #173, .F. ) ;
#526 = COORDINATED_UNIVERSAL_TIME_OFFSET ( 3, 30, .AHEAD. ) ;
#527 = DIRECTION ( 'NONE',  ( 0.000000000000000000, 0.000000000000000000, -1.000000000000000000 ) ) ;
#528 = ORIENTED_EDGE ( 'NONE', *, *, #478, .F. ) ;
#529 = CARTESIAN_POINT ( 'NONE',  ( 55.11885782231936304, 20.00000000000000000, -295.7999730980486106 ) ) ;
#530 = ORIENTED_EDGE ( 'NONE', *, *, #415, .F. ) ;
#531 = APPROVAL_ROLE ( '' ) ;
#532 = ORIENTED_EDGE ( 'NONE', *, *, #234, .F. ) ;
#533 = VECTOR ( 'NONE', #504, 1000.000000000000000 ) ;
#534 = LOCAL_TIME ( 16, 5, 22.00000000000000000, #90 ) ;
#535 = APPROVAL_DATE_TIME ( #450, #84 ) ;
#536 = CARTESIAN_POINT ( 'NONE',  ( -4.163336342344337027E-14, 20.00000000000000000, -281.0309196568320544 ) ) ;
#537 = VERTEX_POINT ( 'NONE', #513 ) ;
#538 = LINE ( 'NONE', #374, #134 ) ;
#539 = ORIENTED_EDGE ( 'NONE', *, *, #355, .F. ) ;
#540 = DIRECTION ( 'NONE',  ( 0.000000000000000000, 1.000000000000000000, -0.000000000000000000 ) ) ;
#541 = DIRECTION ( 'NONE',  ( -0.000000000000000000, -1.000000000000000000, -0.000000000000000000 ) ) ;
#542 = EDGE_CURVE ( 'NONE', #537, #366, #41, .T. ) ;
#543 = CIRCLE ( 'NONE', #66, 57.06324059485717726 ) ;
#544 = CARTESIAN_POINT ( 'NONE',  ( 124.9999999999999716, 20.00000000000000000, -35.00000000000012790 ) ) ;
#545 = DIRECTION ( 'NONE',  ( 0.000000000000000000, 1.000000000000000000, 0.000000000000000000 ) ) ;
#546 = LINE ( 'NONE', #370, #533 ) ;
#547 = DIRECTION ( 'NONE',  ( -0.000000000000000000, -1.000000000000000000, -0.000000000000000000 ) ) ;
#548 = MANIFOLD_SOLID_BREP ( 'Cut-Extrude2', #483 ) ;
#549 = VECTOR ( 'NONE', #64, 1000.000000000000000 ) ;
#550 = CIRCLE ( 'NONE', #245, 57.06324059485717726 ) ;
#551 = LINE ( 'NONE', #510, #178 ) ;
#552 = CARTESIAN_POINT ( 'NONE',  ( 0.000000000000000000, 0.000000000000000000, -280.0000000000000568 ) ) ;
#553 = ORIENTED_EDGE ( 'NONE', *, *, #140, .T. ) ;
#554 = DIRECTION ( 'NONE',  ( 0.000000000000000000, 0.000000000000000000, -1.000000000000000000 ) ) ;
#555 = VERTEX_POINT ( 'NONE', #38 ) ;
#556 = EDGE_CURVE ( 'NONE', #473, #168, #378, .T. ) ;
#557 = DIRECTION ( 'NONE',  ( 0.000000000000000000, 0.000000000000000000, -1.000000000000000000 ) ) ;
#558 = AXIS2_PLACEMENT_3D ( 'NONE', #12, #51, #350 ) ;
#559 = LINE ( 'NONE', #479, #463 ) ;
#560 = ORIENTED_EDGE ( 'NONE', *, *, #10, .T. ) ;
#561 = CARTESIAN_POINT ( 'NONE',  ( 21.00000000000000000, 0.000000000000000000, -197.9000000000000625 ) ) ;
#562 = ORIENTED_EDGE ( 'NONE', *, *, #309, .T. ) ;
ENDSEC;
END-ISO-10303-21;
