ISO-10303-21;
HEADER;
FILE_DESCRIPTION (( 'STEP AP203' ),
    '1' );
FILE_NAME ('angular contact ball bearing_68_din_DIN 628 - 7201B - 8-SI-NC-8_68_sldprt.STEP',
    '2026-07-31T10:19:19',
    ( '' ),
    ( '' ),
    'SwSTEP 2.0',
    'SolidWorks 2025',
    '' );
FILE_SCHEMA (( 'CONFIG_CONTROL_DESIGN' ));
ENDSEC;

DATA;
#1 = CARTESIAN_POINT ( 'NONE',  ( -4.400000000000000355, 0.000000000000000000, 0.000000000000000000 ) ) ;
#2 = CARTESIAN_POINT ( 'NONE',  ( 4.400000000000001243, 0.000000000000000000, 0.000000000000000000 ) ) ;
#3 = ADVANCED_FACE ( 'NONE', ( #378 ), #312, .T. ) ;
#4 = DIRECTION ( 'NONE',  ( 1.000000000000000000, 0.000000000000000000, 0.000000000000000000 ) ) ;
#5 = FACE_OUTER_BOUND ( 'NONE', #297, .T. ) ;
#6 = FACE_OUTER_BOUND ( 'NONE', #650, .T. ) ;
#7 = ADVANCED_BREP_SHAPE_REPRESENTATION ( 'angular contact ball bearing_68_din_DIN 628 - 7201B - 8-SI-NC-8_68_sldprt', ( #426, #170 ), #327 ) ;
#8 = DIRECTION ( 'NONE',  ( 0.000000000000000000, 0.000000000000000000, -1.000000000000000000 ) ) ;
#9 = ORIENTED_EDGE ( 'NONE', *, *, #227, .T. ) ;
#10 = DIRECTION ( 'NONE',  ( 1.000000000000000000, 0.000000000000000000, 0.000000000000000000 ) ) ;
#11 = CIRCLE ( 'NONE', #458, 6.599999999999999645 ) ;
#12 = CIRCLE ( 'NONE', #103, 16.00000000000000000 ) ;
#13 = CARTESIAN_POINT ( 'NONE',  ( 5.000000000000000888, 9.827790563157505106E-16, 8.024999999999996803 ) ) ;
#14 = ORIENTED_EDGE ( 'NONE', *, *, #629, .F. ) ;
#15 = FACE_OUTER_BOUND ( 'NONE', #277, .T. ) ;
#16 = CARTESIAN_POINT ( 'NONE',  ( -2.598076211353316900, 0.000000000000000000, 0.000000000000000000 ) ) ;
#17 = ORIENTED_EDGE ( 'NONE', *, *, #62, .F. ) ;
#18 = DIRECTION ( 'NONE',  ( 1.000000000000000000, 0.000000000000000000, 0.000000000000000000 ) ) ;
#19 = LOCAL_TIME ( 13, 49, 19.00000000000000000, #481 ) ;
#20 = CARTESIAN_POINT ( 'NONE',  ( 5.000000000000000888, 0.000000000000000000, -8.024999999999996803 ) ) ;
#21 = DIRECTION ( 'NONE',  ( -1.000000000000000000, -0.000000000000000000, -0.000000000000000000 ) ) ;
#22 = ORIENTED_EDGE ( 'NONE', *, *, #454, .T. ) ;
#23 = DIRECTION ( 'NONE',  ( 0.000000000000000000, 0.000000000000000000, -1.000000000000000000 ) ) ;
#24 = AXIS2_PLACEMENT_3D ( 'NONE', #507, #123, #64 ) ;
#25 = CIRCLE ( 'NONE', #697, 13.97499999999999964 ) ;
#26 = COORDINATED_UNIVERSAL_TIME_OFFSET ( 3, 30, .AHEAD. ) ;
#27 = CARTESIAN_POINT ( 'NONE',  ( 5.000000000000000888, 0.000000000000000000, 0.000000000000000000 ) ) ;
#28 = ORIENTED_EDGE ( 'NONE', *, *, #354, .T. ) ;
#29 = ADVANCED_FACE ( 'NONE', ( #705 ), #325, .F. ) ;
#30 = DIRECTION ( 'NONE',  ( 1.000000000000000000, 0.000000000000000000, 0.000000000000000000 ) ) ;
#31 = PERSON_AND_ORGANIZATION_ROLE ( 'design_supplier' ) ;
#32 = ORIENTED_EDGE ( 'NONE', *, *, #249, .T. ) ;
#33 = CARTESIAN_POINT ( 'NONE',  ( -20.63749999999999574, 0.000000000000000000, -13.97499999999999964 ) ) ;
#34 = PRODUCT_DEFINITION ( 'UNKNOWN', '', #387, #599 ) ;
#35 = AXIS2_PLACEMENT_3D ( 'NONE', #324, #4, #308 ) ;
#36 = DIRECTION ( 'NONE',  ( -1.000000000000000000, 0.000000000000000000, -0.000000000000000000 ) ) ;
#37 = ORIENTED_EDGE ( 'NONE', *, *, #179, .F. ) ;
#38 = ADVANCED_FACE ( 'NONE', ( #5 ), #251, .F. ) ;
#39 = EDGE_CURVE ( 'NONE', #596, #504, #633, .T. ) ;
#40 = AXIS2_PLACEMENT_3D ( 'NONE', #723, #48, #105 ) ;
#41 = AXIS2_PLACEMENT_3D ( 'NONE', #288, #224, #211 ) ;
#42 = AXIS2_PLACEMENT_3D ( 'NONE', #735, #412, #23 ) ;
#43 = DIRECTION ( 'NONE',  ( -0.000000000000000000, 0.000000000000000000, 1.000000000000000000 ) ) ;
#44 = ORIENTED_EDGE ( 'NONE', *, *, #361, .T. ) ;
#45 = CARTESIAN_POINT ( 'NONE',  ( -5.000000000000000888, 0.000000000000000000, -13.97499999999999964 ) ) ;
#46 = ORIENTED_EDGE ( 'NONE', *, *, #553, .T. ) ;
#47 = APPROVAL_PERSON_ORGANIZATION ( #541, #486, #555 ) ;
#48 = DIRECTION ( 'NONE',  ( 1.000000000000000000, 0.000000000000000000, 0.000000000000000000 ) ) ;
#49 = ORIENTED_EDGE ( 'NONE', *, *, #757, .F. ) ;
#50 = PERSON ( 'UNSPECIFIED', 'UNSPECIFIED', 'UNSPECIFIED', ('UNSPECIFIED'), ('UNSPECIFIED'), ('UNSPECIFIED') ) ;
#51 = EDGE_LOOP ( 'NONE', ( #37, #424, #532, #209 ) ) ;
#52 = FACE_OUTER_BOUND ( 'NONE', #415, .T. ) ;
#53 = CARTESIAN_POINT ( 'NONE',  ( -5.000000000000000888, 0.000000000000000000, -6.599999999999999645 ) ) ;
#54 = AXIS2_PLACEMENT_3D ( 'NONE', #582, #394, #584 ) ;
#55 = EDGE_CURVE ( 'NONE', #173, #798, #265, .T. ) ;
#56 = VERTEX_POINT ( 'NONE', #702 ) ;
#57 = CYLINDRICAL_SURFACE ( 'NONE', #284, 13.97499999999999964 ) ;
#58 = ADVANCED_FACE ( 'NONE', ( #817 ), #592, .T. ) ;
#59 = CARTESIAN_POINT ( 'NONE',  ( 4.399999999999997691, 0.000000000000000000, 0.000000000000000000 ) ) ;
#60 = AXIS2_PLACEMENT_3D ( 'NONE', #82, #135, #207 ) ;
#61 = CARTESIAN_POINT ( 'NONE',  ( 5.000000000000000888, 0.000000000000000000, 0.000000000000000000 ) ) ;
#62 = EDGE_CURVE ( 'NONE', #289, #504, #447, .T. ) ;
#63 = CARTESIAN_POINT ( 'NONE',  ( -5.000000000000000888, 0.000000000000000000, 0.000000000000000000 ) ) ;
#64 = DIRECTION ( 'NONE',  ( 0.000000000000000000, 0.000000000000000000, 1.000000000000000000 ) ) ;
#65 = CIRCLE ( 'NONE', #783, 16.00000000000000000 ) ;
#66 = DIRECTION ( 'NONE',  ( 0.000000000000000000, 0.000000000000000000, -1.000000000000000000 ) ) ;
#67 = EDGE_LOOP ( 'NONE', ( #239, #494, #287, #559 ) ) ;
#68 = PRODUCT ( 'angular contact ball bearing_68_din_DIN 628 - 7201B - 8-SI-NC-8_68_sldprt', 'angular contact ball bearing_68_din_DIN 628 - 7201B - 8-SI-NC-8_68_sldprt', '', ( #75 ) ) ;
#69 = DIRECTION ( 'NONE',  ( 1.000000000000000000, 0.000000000000000000, 0.000000000000000000 ) ) ;
#70 = ADVANCED_FACE ( 'NONE', ( #695 ), #185, .T. ) ;
#71 = CARTESIAN_POINT ( 'NONE',  ( 0.000000000000000000, 1.347111479062088405E-15, -11.00000000000000000 ) ) ;
#72 = ORIENTED_EDGE ( 'NONE', *, *, #445, .T. ) ;
#73 = CARTESIAN_POINT ( 'NONE',  ( -20.63749999999999929, 7.347880794884118750E-16, 5.999999999999999112 ) ) ;
#74 = CIRCLE ( 'NONE', #765, 3.000000000000000888 ) ;
#75 = MECHANICAL_CONTEXT ( 'NONE', #485, 'mechanical' ) ;
#76 = DIRECTION ( 'NONE',  ( 1.000000000000000000, 0.000000000000000000, 0.000000000000000000 ) ) ;
#77 = VERTEX_POINT ( 'NONE', #126 ) ;
#78 = DIRECTION ( 'NONE',  ( 0.000000000000000000, 0.000000000000000000, -1.000000000000000000 ) ) ;
#79 = AXIS2_PLACEMENT_3D ( 'NONE', #503, #183, #810 ) ;
#80 = ADVANCED_FACE ( 'NONE', ( #382 ), #57, .F. ) ;
#81 = AXIS2_PLACEMENT_3D ( 'NONE', #328, #588, #8 ) ;
#82 = CARTESIAN_POINT ( 'NONE',  ( 2.598076211353316012, 0.000000000000000000, 0.000000000000000000 ) ) ;
#83 = CARTESIAN_POINT ( 'NONE',  ( -20.63749999999999929, 9.827790563157505106E-16, 8.024999999999996803 ) ) ;
#84 = VERTEX_POINT ( 'NONE', #53 ) ;
#85 = CARTESIAN_POINT ( 'NONE',  ( 5.000000000000000888, 0.000000000000000000, 0.000000000000000000 ) ) ;
#86 = CARTESIAN_POINT ( 'NONE',  ( 5.000000000000000888, 0.000000000000000000, -6.599999999999999645 ) ) ;
#87 = DIRECTION ( 'NONE',  ( 0.000000000000000000, 0.000000000000000000, -1.000000000000000000 ) ) ;
#88 = EDGE_LOOP ( 'NONE', ( #216, #653, #335, #109 ) ) ;
#89 = DIRECTION ( 'NONE',  ( 1.000000000000000000, 0.000000000000000000, 0.000000000000000000 ) ) ;
#90 = AXIS2_PLACEMENT_3D ( 'NONE', #59, #461, #459 ) ;
#91 =( NAMED_UNIT ( * ) PLANE_ANGLE_UNIT ( ) SI_UNIT ( $, .RADIAN. ) );
#92 = EDGE_CURVE ( 'NONE', #790, #678, #333, .T. ) ;
#93 = CARTESIAN_POINT ( 'NONE',  ( 5.000000000000000888, 0.000000000000000000, -12.50000000000000000 ) ) ;
#94 = VERTEX_POINT ( 'NONE', #192 ) ;
#95 = CARTESIAN_POINT ( 'NONE',  ( 5.000000000000000888, 1.922695474661344271E-15, 15.40000000000000036 ) ) ;
#96 = EDGE_CURVE ( 'NONE', #542, #119, #131, .T. ) ;
#97 = AXIS2_PLACEMENT_3D ( 'NONE', #2, #665, #87 ) ;
#98 = CALENDAR_DATE ( 2026, 31, 7 ) ;
#99 = DIRECTION ( 'NONE',  ( -0.000000000000000000, 1.000000000000000000, 1.224646799147353207E-16 ) ) ;
#100 = APPROVAL ( #369, 'UNSPECIFIED' ) ;
#101 = ORIENTED_EDGE ( 'NONE', *, *, #767, .T. ) ;
#102 = LINE ( 'NONE', #304, #512 ) ;
#103 = AXIS2_PLACEMENT_3D ( 'NONE', #377, #253, #756 ) ;
#104 = VERTEX_POINT ( 'NONE', #453 ) ;
#105 = DIRECTION ( 'NONE',  ( 0.000000000000000000, 0.000000000000000000, -1.000000000000000000 ) ) ;
#106 = EDGE_CURVE ( 'NONE', #77, #147, #242, .T. ) ;
#107 = AXIS2_PLACEMENT_3D ( 'NONE', #516, #631, #583 ) ;
#108 = PLANE ( 'NONE',  #296 ) ;
#109 = ORIENTED_EDGE ( 'NONE', *, *, #674, .F. ) ;
#110 = CALENDAR_DATE ( 2026, 31, 7 ) ;
#111 = AXIS2_PLACEMENT_3D ( 'NONE', #780, #605, #208 ) ;
#112 = AXIS2_PLACEMENT_3D ( 'NONE', #410, #658, #727 ) ;
#113 = DIRECTION ( 'NONE',  ( 1.000000000000000000, 0.000000000000000000, 0.000000000000000000 ) ) ;
#114 = ORIENTED_EDGE ( 'NONE', *, *, #800, .T. ) ;
#115 = DIRECTION ( 'NONE',  ( 0.000000000000000000, 0.000000000000000000, 1.000000000000000000 ) ) ;
#116 = ORIENTED_EDGE ( 'NONE', *, *, #629, .T. ) ;
#117 = DIRECTION ( 'NONE',  ( 1.000000000000000000, 0.000000000000000000, 0.000000000000000000 ) ) ;
#118 = EDGE_CURVE ( 'NONE', #443, #787, #746, .T. ) ;
#119 = VERTEX_POINT ( 'NONE', #610 ) ;
#120 = ORIENTED_EDGE ( 'NONE', *, *, #799, .T. ) ;
#121 = DIRECTION ( 'NONE',  ( 0.000000000000000000, 0.000000000000000000, -1.000000000000000000 ) ) ;
#122 = CIRCLE ( 'NONE', #818, 0.5999999999999998668 ) ;
#123 = DIRECTION ( 'NONE',  ( -1.000000000000000000, -0.000000000000000000, -0.000000000000000000 ) ) ;
#124 = DIRECTION ( 'NONE',  ( 1.000000000000000000, 0.000000000000000000, 0.000000000000000000 ) ) ;
#125 = EDGE_CURVE ( 'NONE', #498, #601, #406, .T. ) ;
#126 = CARTESIAN_POINT ( 'NONE',  ( 5.000000000000000888, 1.530808498934191521E-15, 12.50000000000000000 ) ) ;
#127 = EDGE_CURVE ( 'NONE', #504, #787, #595, .T. ) ;
#128 = DIRECTION ( 'NONE',  ( 0.000000000000000000, 0.000000000000000000, -1.000000000000000000 ) ) ;
#129 = APPROVAL_PERSON_ORGANIZATION ( #299, #100, #356 ) ;
#130 = CARTESIAN_POINT ( 'NONE',  ( 2.598076211353315568, 1.530808498934191521E-15, -12.50000000000000000 ) ) ;
#131 = CIRCLE ( 'NONE', #748, 15.40000000000000036 ) ;
#132 = ORIENTED_EDGE ( 'NONE', *, *, #151, .F. ) ;
#133 = VECTOR ( 'NONE', #497, 1000.000000000000000 ) ;
#134 = CARTESIAN_POINT ( 'NONE',  ( 4.399999999999997691, 0.000000000000000000, 0.000000000000000000 ) ) ;
#135 = DIRECTION ( 'NONE',  ( 1.000000000000000000, 0.000000000000000000, 0.000000000000000000 ) ) ;
#136 = DIRECTION ( 'NONE',  ( 0.000000000000000000, -1.224646799147353454E-16, 1.000000000000000000 ) ) ;
#137 = AXIS2_PLACEMENT_3D ( 'NONE', #440, #194, #381 ) ;
#138 = PRODUCT_DEFINITION_SHAPE ( 'NONE', 'NONE',  #34 ) ;
#139 = ORIENTED_EDGE ( 'NONE', *, *, #55, .T. ) ;
#140 = CARTESIAN_POINT ( 'NONE',  ( -20.63749999999999929, 0.000000000000000000, 0.000000000000000000 ) ) ;
#141 = DIRECTION ( 'NONE',  ( 1.000000000000000000, 0.000000000000000000, 0.000000000000000000 ) ) ;
#142 = EDGE_CURVE ( 'NONE', #764, #645, #319, .T. ) ;
#143 = ORIENTED_EDGE ( 'NONE', *, *, #383, .F. ) ;
#144 = CARTESIAN_POINT ( 'NONE',  ( 4.400000000000000355, 0.000000000000000000, -15.40000000000000036 ) ) ;
#145 = APPROVAL_STATUS ( 'not_yet_approved' ) ;
#146 = DIRECTION ( 'NONE',  ( 1.000000000000000000, 0.000000000000000000, 0.000000000000000000 ) ) ;
#147 = VERTEX_POINT ( 'NONE', #93 ) ;
#148 = AXIS2_PLACEMENT_3D ( 'NONE', #144, #405, #469 ) ;
#149 = CIRCLE ( 'NONE', #820, 12.50000000000000000 ) ;
#150 = FACE_OUTER_BOUND ( 'NONE', #617, .T. ) ;
#151 = EDGE_CURVE ( 'NONE', #56, #104, #392, .T. ) ;
#152 = ORIENTED_EDGE ( 'NONE', *, *, #292, .T. ) ;
#153 = DIRECTION ( 'NONE',  ( 0.000000000000000000, 0.000000000000000000, 1.000000000000000000 ) ) ;
#154 = EDGE_CURVE ( 'NONE', #504, #289, #65, .T. ) ;
#155 = CARTESIAN_POINT ( 'NONE',  ( 0.000000000000000000, 0.000000000000000000, 0.000000000000000000 ) ) ;
#156 = FACE_OUTER_BOUND ( 'NONE', #501, .T. ) ;
#157 = ORIENTED_EDGE ( 'NONE', *, *, #142, .T. ) ;
#158 = DIRECTION ( 'NONE',  ( 0.000000000000000000, -1.000000000000000000, 0.000000000000000000 ) ) ;
#159 = TOROIDAL_SURFACE ( 'NONE', #221, 15.40000000000000036, 0.6000000000000007550 ) ;
#160 = CARTESIAN_POINT ( 'NONE',  ( -4.399999999999997691, 0.000000000000000000, 0.000000000000000000 ) ) ;
#161 = ORIENTED_EDGE ( 'NONE', *, *, #179, .T. ) ;
#162 = CARTESIAN_POINT ( 'NONE',  ( -5.000000000000000888, 0.000000000000000000, -15.40000000000000036 ) ) ;
#163 = TOROIDAL_SURFACE ( 'NONE', #40, 15.40000000000000036, 0.6000000000000007550 ) ;
#164 = PERSON_AND_ORGANIZATION ( #50, #664 ) ;
#165 = ORIENTED_EDGE ( 'NONE', *, *, #575, .T. ) ;
#166 = DIRECTION ( 'NONE',  ( 0.000000000000000000, 0.000000000000000000, -1.000000000000000000 ) ) ;
#167 = TOROIDAL_SURFACE ( 'NONE', #344, 6.599999999999999645, 0.6000000000000007550 ) ;
#168 = DIRECTION ( 'NONE',  ( -1.000000000000000000, -0.000000000000000000, -0.000000000000000000 ) ) ;
#169 = ORIENTED_EDGE ( 'NONE', *, *, #39, .F. ) ;
#170 = AXIS2_PLACEMENT_3D ( 'NONE', #264, #527, #347 ) ;
#171 = DATE_TIME_ROLE ( 'classification_date' ) ;
#172 = ORIENTED_EDGE ( 'NONE', *, *, #142, .F. ) ;
#173 = VERTEX_POINT ( 'NONE', #13 ) ;
#174 = TOROIDAL_SURFACE ( 'NONE', #282, 11.00000000000000000, 3.000000000000000444 ) ;
#175 = CIRCLE ( 'NONE', #643, 0.6000000000000007550 ) ;
#176 = EDGE_LOOP ( 'NONE', ( #777, #234 ) ) ;
#177 = ORIENTED_EDGE ( 'NONE', *, *, #724, .T. ) ;
#178 = VECTOR ( 'NONE', #393, 1000.000000000000000 ) ;
#179 = EDGE_CURVE ( 'NONE', #787, #542, #122, .T. ) ;
#180 = CARTESIAN_POINT ( 'NONE',  ( -4.399999999999997691, 7.347880794884118750E-16, 5.999999999999999112 ) ) ;
#181 = DIRECTION ( 'NONE',  ( 0.000000000000000000, 0.000000000000000000, -1.000000000000000000 ) ) ;
#182 = ORIENTED_EDGE ( 'NONE', *, *, #154, .F. ) ;
#183 = DIRECTION ( 'NONE',  ( 1.000000000000000000, 0.000000000000000000, 0.000000000000000000 ) ) ;
#184 = EDGE_CURVE ( 'NONE', #295, #202, #654, .T. ) ;
#185 = TOROIDAL_SURFACE ( 'NONE', #670, 6.599999999999999645, 0.6000000000000007550 ) ;
#186 = LINE ( 'NONE', #316, #482 ) ;
#187 = AXIS2_PLACEMENT_3D ( 'NONE', #514, #641, #322 ) ;
#188 = DIRECTION ( 'NONE',  ( 0.000000000000000000, 0.000000000000000000, -1.000000000000000000 ) ) ;
#189 = ADVANCED_FACE ( 'NONE', ( #156 ), #271, .T. ) ;
#190 = ORIENTED_EDGE ( 'NONE', *, *, #800, .F. ) ;
#191 = CARTESIAN_POINT ( 'NONE',  ( 4.399999999999999467, 0.000000000000000000, 0.000000000000000000 ) ) ;
#192 = CARTESIAN_POINT ( 'NONE',  ( 4.399999999999997691, 0.000000000000000000, -5.999999999999999112 ) ) ;
#193 = LINE ( 'NONE', #425, #351 ) ;
#194 = DIRECTION ( 'NONE',  ( 1.000000000000000000, 0.000000000000000000, 0.000000000000000000 ) ) ;
#195 = AXIS2_PLACEMENT_3D ( 'NONE', #720, #709, #279 ) ;
#196 = ORIENTED_EDGE ( 'NONE', *, *, #674, .T. ) ;
#197 = CALENDAR_DATE ( 2026, 31, 7 ) ;
#198 = FACE_BOUND ( 'NONE', #612, .T. ) ;
#199 = AXIS2_PLACEMENT_3D ( 'NONE', #558, #373, #739 ) ;
#200 = ADVANCED_FACE ( 'NONE', ( #528, #198 ), #460, .T. ) ;
#201 = DIRECTION ( 'NONE',  ( 0.000000000000000000, 0.000000000000000000, -1.000000000000000000 ) ) ;
#202 = VERTEX_POINT ( 'NONE', #413 ) ;
#203 = APPLICATION_PROTOCOL_DEFINITION ( 'international standard', 'config_control_design', 1994, #263 ) ;
#204 = CYLINDRICAL_SURFACE ( 'NONE', #490, 8.024999999999996803 ) ;
#205 = AXIS2_PLACEMENT_3D ( 'NONE', #635, #570, #513 ) ;
#206 = ORIENTED_EDGE ( 'NONE', *, *, #404, .F. ) ;
#207 = DIRECTION ( 'NONE',  ( 0.000000000000000000, 0.000000000000000000, 1.000000000000000000 ) ) ;
#208 = DIRECTION ( 'NONE',  ( -0.000000000000000000, 0.000000000000000000, 1.000000000000000000 ) ) ;
#209 = ORIENTED_EDGE ( 'NONE', *, *, #96, .F. ) ;
#210 = EDGE_CURVE ( 'NONE', #436, #673, #593, .T. ) ;
#211 = DIRECTION ( 'NONE',  ( 0.000000000000000000, 0.000000000000000000, 1.000000000000000000 ) ) ;
#212 = CIRCLE ( 'NONE', #81, 8.024999999999996803 ) ;
#213 = CIRCLE ( 'NONE', #321, 5.999999999999999112 ) ;
#214 = PERSON_AND_ORGANIZATION ( #50, #664 ) ;
#215 = DIRECTION ( 'NONE',  ( 0.000000000000000000, -1.000000000000000000, 0.000000000000000000 ) ) ;
#216 = ORIENTED_EDGE ( 'NONE', *, *, #718, .F. ) ;
#217 = CARTESIAN_POINT ( 'NONE',  ( -5.000000000000000888, 1.711443901808426101E-15, 13.97499999999999964 ) ) ;
#218 = CC_DESIGN_DATE_AND_TIME_ASSIGNMENT ( #437, #171, ( #794 ) ) ;
#219 = EDGE_LOOP ( 'NONE', ( #781, #302 ) ) ;
#220 = DIRECTION ( 'NONE',  ( 1.000000000000000000, 0.000000000000000000, 0.000000000000000000 ) ) ;
#221 = AXIS2_PLACEMENT_3D ( 'NONE', #711, #270, #523 ) ;
#222 = APPROVAL_DATE_TIME ( #293, #435 ) ;
#223 = ORIENTED_EDGE ( 'NONE', *, *, #626, .F. ) ;
#224 = DIRECTION ( 'NONE',  ( -1.000000000000000000, -0.000000000000000000, -0.000000000000000000 ) ) ;
#225 = AXIS2_PLACEMENT_3D ( 'NONE', #776, #402, #652 ) ;
#226 = PERSON_AND_ORGANIZATION ( #50, #664 ) ;
#227 = EDGE_CURVE ( 'NONE', #809, #94, #471, .T. ) ;
#228 = ORIENTED_EDGE ( 'NONE', *, *, #301, .F. ) ;
#229 = PERSON_AND_ORGANIZATION_ROLE ( 'creator' ) ;
#230 = DIRECTION ( 'NONE',  ( 1.000000000000000000, 0.000000000000000000, 0.000000000000000000 ) ) ;
#231 = CC_DESIGN_PERSON_AND_ORGANIZATION_ASSIGNMENT ( #422, #550, ( #387 ) ) ;
#232 = ORIENTED_EDGE ( 'NONE', *, *, #731, .F. ) ;
#233 = AXIS2_PLACEMENT_3D ( 'NONE', #752, #259, #701 ) ;
#234 = ORIENTED_EDGE ( 'NONE', *, *, #724, .F. ) ;
#235 = COORDINATED_UNIVERSAL_TIME_OFFSET ( 3, 30, .AHEAD. ) ;
#236 = CARTESIAN_POINT ( 'NONE',  ( -20.63749999999999574, 1.530808498934191521E-15, 12.50000000000000000 ) ) ;
#237 = EDGE_LOOP ( 'NONE', ( #228, #72, #432, #669 ) ) ;
#238 = EDGE_CURVE ( 'NONE', #498, #173, #343, .T. ) ;
#239 = ORIENTED_EDGE ( 'NONE', *, *, #604, .T. ) ;
#240 = AXIS2_PLACEMENT_3D ( 'NONE', #134, #530, #78 ) ;
#241 = CARTESIAN_POINT ( 'NONE',  ( -4.400000000000001243, 1.959434878635765131E-15, 16.00000000000000000 ) ) ;
#242 = CIRCLE ( 'NONE', #187, 12.50000000000000000 ) ;
#243 = ORIENTED_EDGE ( 'NONE', *, *, #383, .T. ) ;
#244 = ORIENTED_EDGE ( 'NONE', *, *, #526, .F. ) ;
#245 = DIRECTION ( 'NONE',  ( 0.000000000000000000, 1.224646799147352961E-16, 1.000000000000000000 ) ) ;
#246 = CARTESIAN_POINT ( 'NONE',  ( -4.400000000000000355, 1.885956070686923806E-15, 15.40000000000000036 ) ) ;
#247 = ADVANCED_FACE ( 'NONE', ( #397 ), #204, .T. ) ;
#248 = CIRCLE ( 'NONE', #35, 15.40000000000000036 ) ;
#249 = EDGE_CURVE ( 'NONE', #798, #173, #212, .T. ) ;
#250 = DIRECTION ( 'NONE',  ( 0.000000000000000000, -1.000000000000000000, 0.000000000000000000 ) ) ;
#251 = CYLINDRICAL_SURFACE ( 'NONE', #79, 5.999999999999999112 ) ;
#252 = AXIS2_PLACEMENT_3D ( 'NONE', #462, #21, #472 ) ;
#253 = DIRECTION ( 'NONE',  ( 1.000000000000000000, 0.000000000000000000, 0.000000000000000000 ) ) ;
#254 = AXIS2_PLACEMENT_3D ( 'NONE', #341, #158, #355 ) ;
#255 = DIRECTION ( 'NONE',  ( 0.000000000000000000, 0.000000000000000000, -1.000000000000000000 ) ) ;
#256 = DIRECTION ( 'NONE',  ( 1.000000000000000000, 0.000000000000000000, 0.000000000000000000 ) ) ;
#257 = DIRECTION ( 'NONE',  ( 1.000000000000000000, 0.000000000000000000, 0.000000000000000000 ) ) ;
#258 = DIRECTION ( 'NONE',  ( 0.000000000000000000, 0.000000000000000000, -1.000000000000000000 ) ) ;
#259 = DIRECTION ( 'NONE',  ( 1.000000000000000000, 0.000000000000000000, 0.000000000000000000 ) ) ;
#260 = CIRCLE ( 'NONE', #518, 8.024999999999996803 ) ;
#261 = DIRECTION ( 'NONE',  ( 0.000000000000000000, 1.224646799147352961E-16, 1.000000000000000000 ) ) ;
#262 = ADVANCED_FACE ( 'NONE', ( #407, #600 ), #275, .T. ) ;
#263 = APPLICATION_CONTEXT ( 'configuration controlled 3d designs of mechanical parts and assemblies' ) ;
#264 = CARTESIAN_POINT ( 'NONE',  ( 0.000000000000000000, 0.000000000000000000, 0.000000000000000000 ) ) ;
#265 = CIRCLE ( 'NONE', #390, 8.024999999999996803 ) ;
#266 = DIRECTION ( 'NONE',  ( 1.000000000000000000, 0.000000000000000000, 0.000000000000000000 ) ) ;
#267 = AXIS2_PLACEMENT_3D ( 'NONE', #71, #721, #136 ) ;
#268 = ORIENTED_EDGE ( 'NONE', *, *, #55, .F. ) ;
#269 = AXIS2_PLACEMENT_3D ( 'NONE', #246, #571, #577 ) ;
#270 = DIRECTION ( 'NONE',  ( 1.000000000000000000, 0.000000000000000000, 0.000000000000000000 ) ) ;
#271 = CYLINDRICAL_SURFACE ( 'NONE', #380, 9.500000000000000000 ) ;
#272 = EDGE_LOOP ( 'NONE', ( #630, #353, #313, #722 ) ) ;
#273 = DIRECTION ( 'NONE',  ( 0.000000000000000000, 0.000000000000000000, 1.000000000000000000 ) ) ;
#274 = ADVANCED_FACE ( 'NONE', ( #150 ), #732, .T. ) ;
#275 = PLANE ( 'NONE',  #111 ) ;
#276 = VECTOR ( 'NONE', #655, 1000.000000000000000 ) ;
#277 = EDGE_LOOP ( 'NONE', ( #169, #556, #815, #182 ) ) ;
#278 = FACE_BOUND ( 'NONE', #726, .T. ) ;
#279 = DIRECTION ( 'NONE',  ( 0.000000000000000000, 0.000000000000000000, -1.000000000000000000 ) ) ;
#280 = CARTESIAN_POINT ( 'NONE',  ( 4.400000000000000355, 1.885956070686923806E-15, 15.40000000000000036 ) ) ;
#281 = ORIENTED_EDGE ( 'NONE', *, *, #337, .T. ) ;
#282 = AXIS2_PLACEMENT_3D ( 'NONE', #623, #168, #115 ) ;
#283 = CIRCLE ( 'NONE', #137, 15.40000000000000036 ) ;
#284 = AXIS2_PLACEMENT_3D ( 'NONE', #510, #441, #188 ) ;
#285 = DIRECTION ( 'NONE',  ( 1.000000000000000000, 0.000000000000000000, 0.000000000000000000 ) ) ;
#286 = CARTESIAN_POINT ( 'NONE',  ( -0.3864906208435106572, 1.711443901808425904E-15, -13.97499999999999964 ) ) ;
#287 = ORIENTED_EDGE ( 'NONE', *, *, #417, .F. ) ;
#288 = CARTESIAN_POINT ( 'NONE',  ( 0.000000000000000000, 0.000000000000000000, 0.000000000000000000 ) ) ;
#289 = VERTEX_POINT ( 'NONE', #660 ) ;
#290 = CYLINDRICAL_SURFACE ( 'NONE', #112, 12.50000000000000000 ) ;
#291 = AXIS2_PLACEMENT_3D ( 'NONE', #311, #250, #121 ) ;
#292 = EDGE_CURVE ( 'NONE', #734, #606, #642, .T. ) ;
#293 = DATE_AND_TIME ( #197, #740 ) ;
#294 = DIRECTION ( 'NONE',  ( 0.000000000000000000, 0.000000000000000000, -1.000000000000000000 ) ) ;
#295 = VERTEX_POINT ( 'NONE', #286 ) ;
#296 = AXIS2_PLACEMENT_3D ( 'NONE', #619, #36, #43 ) ;
#297 = EDGE_LOOP ( 'NONE', ( #206, #427, #802, #101 ) ) ;
#298 = ORIENTED_EDGE ( 'NONE', *, *, #591, .F. ) ;
#299 = PERSON_AND_ORGANIZATION ( #50, #664 ) ;
#300 = CARTESIAN_POINT ( 'NONE',  ( 0.000000000000000000, 1.347111479062088405E-15, -11.00000000000000000 ) ) ;
#301 = EDGE_CURVE ( 'NONE', #468, #340, #25, .T. ) ;
#302 = ORIENTED_EDGE ( 'NONE', *, *, #591, .T. ) ;
#303 = CC_DESIGN_APPROVAL ( #435, ( #34 ) ) ;
#304 = CARTESIAN_POINT ( 'NONE',  ( -20.63749999999999574, 0.000000000000000000, -16.00000000000000000 ) ) ;
#305 = ORIENTED_EDGE ( 'NONE', *, *, #125, .T. ) ;
#306 = ORIENTED_EDGE ( 'NONE', *, *, #292, .F. ) ;
#307 = VECTOR ( 'NONE', #331, 1000.000000000000000 ) ;
#308 = DIRECTION ( 'NONE',  ( 0.000000000000000000, 0.000000000000000000, -1.000000000000000000 ) ) ;
#309 = CARTESIAN_POINT ( 'NONE',  ( -5.000000000000000888, 0.000000000000000000, 0.000000000000000000 ) ) ;
#310 = ORIENTED_EDGE ( 'NONE', *, *, #429, .F. ) ;
#311 = CARTESIAN_POINT ( 'NONE',  ( -4.400000000000000355, 0.000000000000000000, -15.40000000000000036 ) ) ;
#312 = CYLINDRICAL_SURFACE ( 'NONE', #566, 16.00000000000000000 ) ;
#313 = ORIENTED_EDGE ( 'NONE', *, *, #792, .T. ) ;
#314 = ADVANCED_FACE ( 'NONE', ( #545 ), #174, .T. ) ;
#315 = AXIS2_PLACEMENT_3D ( 'NONE', #155, #768, #273 ) ;
#316 = CARTESIAN_POINT ( 'NONE',  ( -20.63749999999999929, 0.000000000000000000, -8.024999999999996803 ) ) ;
#317 = DIRECTION ( 'NONE',  ( 1.000000000000000000, 0.000000000000000000, 0.000000000000000000 ) ) ;
#318 = CARTESIAN_POINT ( 'NONE',  ( 4.400000000000001243, 0.000000000000000000, -16.00000000000000000 ) ) ;
#319 = CIRCLE ( 'NONE', #522, 9.500000000000000000 ) ;
#320 = DIRECTION ( 'NONE',  ( 0.000000000000000000, 0.000000000000000000, -1.000000000000000000 ) ) ;
#321 = AXIS2_PLACEMENT_3D ( 'NONE', #662, #89, #812 ) ;
#322 = DIRECTION ( 'NONE',  ( 0.000000000000000000, 0.000000000000000000, -1.000000000000000000 ) ) ;
#323 = EDGE_CURVE ( 'NONE', #295, #645, #500, .T. ) ;
#324 = CARTESIAN_POINT ( 'NONE',  ( -5.000000000000000888, 0.000000000000000000, 0.000000000000000000 ) ) ;
#325 = CYLINDRICAL_SURFACE ( 'NONE', #54, 13.97499999999999964 ) ;
#326 = ADVANCED_FACE ( 'NONE', ( #733, #423 ), #108, .T. ) ;
#327 =( GEOMETRIC_REPRESENTATION_CONTEXT ( 3 ) GLOBAL_UNCERTAINTY_ASSIGNED_CONTEXT ( ( #431 ) ) GLOBAL_UNIT_ASSIGNED_CONTEXT ( ( #647, #91, #534 ) ) REPRESENTATION_CONTEXT ( 'NONE', 'WORKASPACE' ) );
#328 = CARTESIAN_POINT ( 'NONE',  ( 5.000000000000000888, 0.000000000000000000, 0.000000000000000000 ) ) ;
#329 = CC_DESIGN_PERSON_AND_ORGANIZATION_ASSIGNMENT ( #164, #229, ( #34 ) ) ;
#330 = ORIENTED_EDGE ( 'NONE', *, *, #553, .F. ) ;
#331 = DIRECTION ( 'NONE',  ( 1.000000000000000000, 0.000000000000000000, 0.000000000000000000 ) ) ;
#332 = PERSON_AND_ORGANIZATION_ROLE ( 'design_owner' ) ;
#333 = CIRCLE ( 'NONE', #499, 9.500000000000000000 ) ;
#334 = DIRECTION ( 'NONE',  ( 0.000000000000000000, 1.000000000000000000, -1.224646799147353207E-16 ) ) ;
#335 = ORIENTED_EDGE ( 'NONE', *, *, #249, .F. ) ;
#336 = DIRECTION ( 'NONE',  ( 1.000000000000000000, 0.000000000000000000, 0.000000000000000000 ) ) ;
#337 = EDGE_CURVE ( 'NONE', #678, #764, #551, .T. ) ;
#338 = DIRECTION ( 'NONE',  ( 0.000000000000000000, -1.000000000000000000, 0.000000000000000000 ) ) ;
#339 = DIRECTION ( 'NONE',  ( 1.000000000000000000, 0.000000000000000000, 0.000000000000000000 ) ) ;
#340 = VERTEX_POINT ( 'NONE', #45 ) ;
#341 = CARTESIAN_POINT ( 'NONE',  ( -4.399999999999999467, 0.000000000000000000, -6.599999999999999645 ) ) ;
#342 = LINE ( 'NONE', #598, #276 ) ;
#343 = LINE ( 'NONE', #83, #760 ) ;
#344 = AXIS2_PLACEMENT_3D ( 'NONE', #191, #117, #581 ) ;
#345 = ORIENTED_EDGE ( 'NONE', *, *, #323, .F. ) ;
#346 = DIRECTION ( 'NONE',  ( 1.000000000000000000, 0.000000000000000000, 0.000000000000000000 ) ) ;
#347 = DIRECTION ( 'NONE',  ( 1.000000000000000000, 0.000000000000000000, 0.000000000000000000 ) ) ;
#348 = CARTESIAN_POINT ( 'NONE',  ( 4.399999999999999467, 8.082668874372531019E-16, 6.599999999999999645 ) ) ;
#349 = ORIENTED_EDGE ( 'NONE', *, *, #62, .T. ) ;
#350 = CARTESIAN_POINT ( 'NONE',  ( -20.63749999999999574, 0.000000000000000000, 0.000000000000000000 ) ) ;
#351 = VECTOR ( 'NONE', #220, 1000.000000000000000 ) ;
#352 = CARTESIAN_POINT ( 'NONE',  ( -20.63749999999999929, 1.163414459189985485E-15, 9.500000000000000000 ) ) ;
#353 = ORIENTED_EDGE ( 'NONE', *, *, #210, .T. ) ;
#354 = EDGE_CURVE ( 'NONE', #436, #498, #620, .T. ) ;
#355 = DIRECTION ( 'NONE',  ( 0.000000000000000000, 0.000000000000000000, -1.000000000000000000 ) ) ;
#356 = APPROVAL_ROLE ( '' ) ;
#357 = DIRECTION ( 'NONE',  ( 0.000000000000000000, 0.000000000000000000, -1.000000000000000000 ) ) ;
#358 = ORIENTED_EDGE ( 'NONE', *, *, #799, .F. ) ;
#359 = CARTESIAN_POINT ( 'NONE',  ( -20.63749999999999929, 0.000000000000000000, 0.000000000000000000 ) ) ;
#360 = CIRCLE ( 'NONE', #291, 0.5999999999999998668 ) ;
#361 = EDGE_CURVE ( 'NONE', #601, #77, #804, .T. ) ;
#362 = SHAPE_DEFINITION_REPRESENTATION ( #138, #7 ) ;
#363 = ORIENTED_EDGE ( 'NONE', *, *, #118, .T. ) ;
#364 = AXIS2_PLACEMENT_3D ( 'NONE', #359, #625, #671 ) ;
#365 = AXIS2_PLACEMENT_3D ( 'NONE', #562, #808, #750 ) ;
#366 = AXIS2_PLACEMENT_3D ( 'NONE', #350, #615, #782 ) ;
#367 = ORIENTED_EDGE ( 'NONE', *, *, #39, .T. ) ;
#368 = EDGE_CURVE ( 'NONE', #56, #809, #11, .T. ) ;
#369 = APPROVAL_STATUS ( 'not_yet_approved' ) ;
#370 = CARTESIAN_POINT ( 'NONE',  ( -5.000000000000000888, 0.000000000000000000, 0.000000000000000000 ) ) ;
#371 = ORIENTED_EDGE ( 'NONE', *, *, #227, .F. ) ;
#372 = COORDINATED_UNIVERSAL_TIME_OFFSET ( 3, 30, .AHEAD. ) ;
#373 = DIRECTION ( 'NONE',  ( -1.000000000000000000, -0.000000000000000000, -0.000000000000000000 ) ) ;
#374 = ORIENTED_EDGE ( 'NONE', *, *, #238, .F. ) ;
#375 = CC_DESIGN_SECURITY_CLASSIFICATION ( #794, ( #387 ) ) ;
#376 = ORIENTED_EDGE ( 'NONE', *, *, #572, .F. ) ;
#377 = CARTESIAN_POINT ( 'NONE',  ( 4.400000000000001243, 0.000000000000000000, 0.000000000000000000 ) ) ;
#378 = FACE_OUTER_BOUND ( 'NONE', #700, .T. ) ;
#379 = ORIENTED_EDGE ( 'NONE', *, *, #505, .F. ) ;
#380 = AXIS2_PLACEMENT_3D ( 'NONE', #656, #786, #648 ) ;
#381 = DIRECTION ( 'NONE',  ( 0.000000000000000000, 0.000000000000000000, -1.000000000000000000 ) ) ;
#382 = FACE_OUTER_BOUND ( 'NONE', #237, .T. ) ;
#383 = EDGE_CURVE ( 'NONE', #104, #94, #609, .T. ) ;
#384 = FACE_OUTER_BOUND ( 'NONE', #666, .T. ) ;
#385 = DIRECTION ( 'NONE',  ( 1.000000000000000000, 0.000000000000000000, 0.000000000000000000 ) ) ;
#386 = ADVANCED_FACE ( 'NONE', ( #395 ), #703, .T. ) ;
#387 = PRODUCT_DEFINITION_FORMATION_WITH_SPECIFIED_SOURCE ( 'ANY', '', #68, .NOT_KNOWN. ) ;
#388 = CARTESIAN_POINT ( 'NONE',  ( 0.3864906208434974455, 0.000000000000000000, 0.000000000000000000 ) ) ;
#389 = DIRECTION ( 'NONE',  ( 1.000000000000000000, 0.000000000000000000, 0.000000000000000000 ) ) ;
#390 = AXIS2_PLACEMENT_3D ( 'NONE', #638, #691, #762 ) ;
#391 = ADVANCED_FACE ( 'NONE', ( #6 ), #521, .T. ) ;
#392 = CIRCLE ( 'NONE', #681, 0.6000000000000007550 ) ;
#393 = DIRECTION ( 'NONE',  ( 1.000000000000000000, 0.000000000000000000, 0.000000000000000000 ) ) ;
#394 = DIRECTION ( 'NONE',  ( 1.000000000000000000, 0.000000000000000000, 0.000000000000000000 ) ) ;
#395 = FACE_OUTER_BOUND ( 'NONE', #621, .T. ) ;
#396 = DIRECTION ( 'NONE',  ( 0.000000000000000000, 0.000000000000000000, -1.000000000000000000 ) ) ;
#397 = FACE_OUTER_BOUND ( 'NONE', #743, .T. ) ;
#398 = ORIENTED_EDGE ( 'NONE', *, *, #685, .T. ) ;
#399 = DIRECTION ( 'NONE',  ( 1.000000000000000000, 0.000000000000000000, 0.000000000000000000 ) ) ;
#400 = CARTESIAN_POINT ( 'NONE',  ( 4.400000000000001243, 1.959434878635765131E-15, 16.00000000000000000 ) ) ;
#401 = CIRCLE ( 'NONE', #586, 6.599999999999999645 ) ;
#402 = DIRECTION ( 'NONE',  ( 0.000000000000000000, -1.000000000000000000, 0.000000000000000000 ) ) ;
#403 = EDGE_LOOP ( 'NONE', ( #363, #161, #232, #310 ) ) ;
#404 = EDGE_CURVE ( 'NONE', #734, #104, #597, .T. ) ;
#405 = DIRECTION ( 'NONE',  ( 0.000000000000000000, -1.000000000000000000, 0.000000000000000000 ) ) ;
#406 = CIRCLE ( 'NONE', #565, 3.000000000000000888 ) ;
#407 = FACE_BOUND ( 'NONE', #438, .T. ) ;
#408 = CIRCLE ( 'NONE', #254, 0.6000000000000007550 ) ;
#409 = EDGE_LOOP ( 'NONE', ( #116, #367, #17, #749 ) ) ;
#410 = CARTESIAN_POINT ( 'NONE',  ( -20.63749999999999574, 0.000000000000000000, 0.000000000000000000 ) ) ;
#411 = ORIENTED_EDGE ( 'NONE', *, *, #127, .F. ) ;
#412 = DIRECTION ( 'NONE',  ( 1.000000000000000000, 0.000000000000000000, 0.000000000000000000 ) ) ;
#413 = CARTESIAN_POINT ( 'NONE',  ( -0.3864906208435106572, 0.000000000000000000, 13.97499999999999964 ) ) ;
#414 = LOCAL_TIME ( 13, 49, 19.00000000000000000, #738 ) ;
#415 = EDGE_LOOP ( 'NONE', ( #661, #496, #717, #371 ) ) ;
#416 = DIRECTION ( 'NONE',  ( 0.000000000000000000, 0.000000000000000000, -1.000000000000000000 ) ) ;
#417 = EDGE_CURVE ( 'NONE', #84, #552, #797, .T. ) ;
#418 = DIRECTION ( 'NONE',  ( 0.000000000000000000, -1.224646799147353454E-16, 1.000000000000000000 ) ) ;
#419 = EDGE_LOOP ( 'NONE', ( #614, #801, #165, #492 ) ) ;
#420 = CARTESIAN_POINT ( 'NONE',  ( -5.000000000000000888, 8.082668874372531019E-16, 6.599999999999999645 ) ) ;
#421 = AXIS2_PLACEMENT_3D ( 'NONE', #590, #10, #778 ) ;
#422 = PERSON_AND_ORGANIZATION ( #50, #664 ) ;
#423 = FACE_OUTER_BOUND ( 'NONE', #176, .T. ) ;
#424 = ORIENTED_EDGE ( 'NONE', *, *, #649, .T. ) ;
#425 = CARTESIAN_POINT ( 'NONE',  ( -20.63749999999999929, 0.000000000000000000, -9.500000000000000000 ) ) ;
#426 = MANIFOLD_SOLID_BREP ( 'OuterRace', #770 ) ;
#427 = ORIENTED_EDGE ( 'NONE', *, *, #604, .F. ) ;
#428 = CIRCLE ( 'NONE', #205, 13.97499999999999964 ) ;
#429 = EDGE_CURVE ( 'NONE', #443, #119, #707, .T. ) ;
#430 = APPROVAL_DATE_TIME ( #557, #486 ) ;
#431 = UNCERTAINTY_MEASURE_WITH_UNIT (LENGTH_MEASURE( 1.000000000000000082E-05 ), #647, 'distance_accuracy_value', 'NONE');
#432 = ORIENTED_EDGE ( 'NONE', *, *, #184, .F. ) ;
#433 = AXIS2_PLACEMENT_3D ( 'NONE', #687, #113, #487 ) ;
#434 = AXIS2_PLACEMENT_3D ( 'NONE', #1, #698, #128 ) ;
#435 = APPROVAL ( #145, 'UNSPECIFIED' ) ;
#436 = VERTEX_POINT ( 'NONE', #639 ) ;
#437 = DATE_AND_TIME ( #98, #628 ) ;
#438 = EDGE_LOOP ( 'NONE', ( #754, #755 ) ) ;
#439 = ORIENTED_EDGE ( 'NONE', *, *, #649, .F. ) ;
#440 = CARTESIAN_POINT ( 'NONE',  ( -5.000000000000000888, 0.000000000000000000, 0.000000000000000000 ) ) ;
#441 = DIRECTION ( 'NONE',  ( 1.000000000000000000, 0.000000000000000000, 0.000000000000000000 ) ) ;
#442 = TOROIDAL_SURFACE ( 'NONE', #455, 6.599999999999999645, 0.6000000000000007550 ) ;
#443 = VERTEX_POINT ( 'NONE', #318 ) ;
#444 = LINE ( 'NONE', #704, #178 ) ;
#445 = EDGE_CURVE ( 'NONE', #468, #202, #578, .T. ) ;
#446 = ORIENTED_EDGE ( 'NONE', *, *, #689, .F. ) ;
#447 = CIRCLE ( 'NONE', #696, 16.00000000000000000 ) ;
#448 = AXIS2_PLACEMENT_3D ( 'NONE', #646, #69, #585 ) ;
#449 = DIRECTION ( 'NONE',  ( 0.000000000000000000, 1.000000000000000000, -1.224646799147353207E-16 ) ) ;
#450 = DIRECTION ( 'NONE',  ( 1.000000000000000000, 0.000000000000000000, 0.000000000000000000 ) ) ;
#451 = EDGE_LOOP ( 'NONE', ( #398, #488, #547, #190 ) ) ;
#452 = FACE_OUTER_BOUND ( 'NONE', #409, .T. ) ;
#453 = CARTESIAN_POINT ( 'NONE',  ( 4.399999999999997691, 7.715274834628324392E-16, 5.999999999999999112 ) ) ;
#454 = EDGE_CURVE ( 'NONE', #790, #645, #193, .T. ) ;
#455 = AXIS2_PLACEMENT_3D ( 'NONE', #594, #285, #587 ) ;
#456 = CARTESIAN_POINT ( 'NONE',  ( -4.399999999999997691, 0.000000000000000000, -5.999999999999999112 ) ) ;
#457 = ORIENTED_EDGE ( 'NONE', *, *, #572, .T. ) ;
#458 = AXIS2_PLACEMENT_3D ( 'NONE', #27, #336, #706 ) ;
#459 = DIRECTION ( 'NONE',  ( 0.000000000000000000, 0.000000000000000000, -1.000000000000000000 ) ) ;
#460 = PLANE ( 'NONE',  #579 ) ;
#461 = DIRECTION ( 'NONE',  ( 1.000000000000000000, 0.000000000000000000, 0.000000000000000000 ) ) ;
#462 = CARTESIAN_POINT ( 'NONE',  ( -0.3864906208435106016, 0.000000000000000000, 0.000000000000000000 ) ) ;
#463 = ORIENTED_EDGE ( 'NONE', *, *, #731, .T. ) ;
#464 = PERSON_AND_ORGANIZATION ( #50, #664 ) ;
#465 = CIRCLE ( 'NONE', #107, 15.40000000000000036 ) ;
#466 = CARTESIAN_POINT ( 'NONE',  ( -20.63749999999999929, 0.000000000000000000, 0.000000000000000000 ) ) ;
#467 = ADVANCED_FACE ( 'NONE', ( #675 ), #163, .T. ) ;
#468 = VERTEX_POINT ( 'NONE', #217 ) ;
#469 = DIRECTION ( 'NONE',  ( 0.000000000000000000, 0.000000000000000000, -1.000000000000000000 ) ) ;
#470 = CARTESIAN_POINT ( 'NONE',  ( 0.000000000000000000, 0.000000000000000000, 11.00000000000000000 ) ) ;
#471 = CIRCLE ( 'NONE', #225, 0.6000000000000007550 ) ;
#472 = DIRECTION ( 'NONE',  ( 0.000000000000000000, 0.000000000000000000, -1.000000000000000000 ) ) ;
#473 = AXIS2_PLACEMENT_3D ( 'NONE', #85, #30, #166 ) ;
#474 = ORIENTED_EDGE ( 'NONE', *, *, #127, .T. ) ;
#475 = CARTESIAN_POINT ( 'NONE',  ( 2.598076211353315568, 0.000000000000000000, 12.50000000000000000 ) ) ;
#476 = APPLICATION_PROTOCOL_DEFINITION ( 'international standard', 'config_control_design', 1994, #485 ) ;
#477 = CARTESIAN_POINT ( 'NONE',  ( 0.000000000000000000, 0.000000000000000000, 11.00000000000000000 ) ) ;
#478 = EDGE_LOOP ( 'NONE', ( #683, #525, #120, #624 ) ) ;
#479 = CARTESIAN_POINT ( 'NONE',  ( 0.3864906208434974455, 0.000000000000000000, 8.024999999999996803 ) ) ;
#480 = ADVANCED_FACE ( 'NONE', ( #489 ), #791, .T. ) ;
#481 = COORDINATED_UNIVERSAL_TIME_OFFSET ( 3, 30, .AHEAD. ) ;
#482 = VECTOR ( 'NONE', #257, 1000.000000000000000 ) ;
#483 = ORIENTED_EDGE ( 'NONE', *, *, #515, .T. ) ;
#484 = FACE_OUTER_BOUND ( 'NONE', #657, .T. ) ;
#485 = APPLICATION_CONTEXT ( 'configuration controlled 3d designs of mechanical parts and assemblies' ) ;
#486 = APPROVAL ( #686, 'UNSPECIFIED' ) ;
#487 = DIRECTION ( 'NONE',  ( 0.000000000000000000, 0.000000000000000000, -1.000000000000000000 ) ) ;
#488 = ORIENTED_EDGE ( 'NONE', *, *, #323, .T. ) ;
#489 = FACE_OUTER_BOUND ( 'NONE', #88, .T. ) ;
#490 = AXIS2_PLACEMENT_3D ( 'NONE', #466, #339, #716 ) ;
#491 = ADVANCED_FACE ( 'NONE', ( #484 ), #290, .F. ) ;
#492 = ORIENTED_EDGE ( 'NONE', *, *, #685, .F. ) ;
#493 = DATE_TIME_ROLE ( 'creation_date' ) ;
#494 = ORIENTED_EDGE ( 'NONE', *, *, #626, .T. ) ;
#495 = CC_DESIGN_APPROVAL ( #486, ( #387 ) ) ;
#496 = ORIENTED_EDGE ( 'NONE', *, *, #151, .T. ) ;
#497 = DIRECTION ( 'NONE',  ( 1.000000000000000000, 0.000000000000000000, 0.000000000000000000 ) ) ;
#498 = VERTEX_POINT ( 'NONE', #479 ) ;
#499 = AXIS2_PLACEMENT_3D ( 'NONE', #309, #450, #699 ) ;
#500 = CIRCLE ( 'NONE', #554, 3.000000000000000888 ) ;
#501 = EDGE_LOOP ( 'NONE', ( #561, #281, #244, #741 ) ) ;
#502 = FACE_OUTER_BOUND ( 'NONE', #795, .T. ) ;
#503 = CARTESIAN_POINT ( 'NONE',  ( -20.63749999999999929, 0.000000000000000000, 0.000000000000000000 ) ) ;
#504 = VERTEX_POINT ( 'NONE', #241 ) ;
#505 = EDGE_CURVE ( 'NONE', #147, #77, #622, .T. ) ;
#506 = DIRECTION ( 'NONE',  ( 0.000000000000000000, 0.000000000000000000, -1.000000000000000000 ) ) ;
#507 = CARTESIAN_POINT ( 'NONE',  ( 0.000000000000000000, 0.000000000000000000, 0.000000000000000000 ) ) ;
#508 = ORIENTED_EDGE ( 'NONE', *, *, #368, .T. ) ;
#509 = DIRECTION ( 'NONE',  ( 1.000000000000000000, 0.000000000000000000, 0.000000000000000000 ) ) ;
#510 = CARTESIAN_POINT ( 'NONE',  ( -20.63749999999999574, 0.000000000000000000, 0.000000000000000000 ) ) ;
#511 = VERTEX_POINT ( 'NONE', #162 ) ;
#512 = VECTOR ( 'NONE', #346, 1000.000000000000000 ) ;
#513 = DIRECTION ( 'NONE',  ( 0.000000000000000000, 0.000000000000000000, -1.000000000000000000 ) ) ;
#514 = CARTESIAN_POINT ( 'NONE',  ( 5.000000000000000888, 0.000000000000000000, 0.000000000000000000 ) ) ;
#515 = EDGE_CURVE ( 'NONE', #606, #84, #408, .T. ) ;
#516 = CARTESIAN_POINT ( 'NONE',  ( 5.000000000000000888, 0.000000000000000000, 0.000000000000000000 ) ) ;
#517 = ORIENTED_EDGE ( 'NONE', *, *, #354, .F. ) ;
#518 = AXIS2_PLACEMENT_3D ( 'NONE', #388, #519, #640 ) ;
#519 = DIRECTION ( 'NONE',  ( -1.000000000000000000, -0.000000000000000000, -0.000000000000000000 ) ) ;
#520 = CARTESIAN_POINT ( 'NONE',  ( -4.400000000000001243, 0.000000000000000000, 0.000000000000000000 ) ) ;
#521 = CYLINDRICAL_SURFACE ( 'NONE', #759, 9.500000000000000000 ) ;
#522 = AXIS2_PLACEMENT_3D ( 'NONE', #16, #266, #201 ) ;
#523 = DIRECTION ( 'NONE',  ( 0.000000000000000000, 0.000000000000000000, -1.000000000000000000 ) ) ;
#524 = DIRECTION ( 'NONE',  ( 0.000000000000000000, 0.000000000000000000, -1.000000000000000000 ) ) ;
#525 = ORIENTED_EDGE ( 'NONE', *, *, #792, .F. ) ;
#526 = EDGE_CURVE ( 'NONE', #645, #764, #719, .T. ) ;
#527 = DIRECTION ( 'NONE',  ( 0.000000000000000000, 0.000000000000000000, 1.000000000000000000 ) ) ;
#528 = FACE_OUTER_BOUND ( 'NONE', #688, .T. ) ;
#529 = ORIENTED_EDGE ( 'NONE', *, *, #106, .F. ) ;
#530 = DIRECTION ( 'NONE',  ( 1.000000000000000000, 0.000000000000000000, 0.000000000000000000 ) ) ;
#531 = DIRECTION ( 'NONE',  ( 1.000000000000000000, 0.000000000000000000, 0.000000000000000000 ) ) ;
#532 = ORIENTED_EDGE ( 'NONE', *, *, #429, .T. ) ;
#533 = FACE_OUTER_BOUND ( 'NONE', #478, .T. ) ;
#534 =( NAMED_UNIT ( * ) SI_UNIT ( $, .STERADIAN. ) SOLID_ANGLE_UNIT ( ) );
#535 = AXIS2_PLACEMENT_3D ( 'NONE', #160, #676, #294 ) ;
#536 = DIRECTION ( 'NONE',  ( 0.000000000000000000, 1.224646799147353207E-16, 1.000000000000000000 ) ) ;
#537 = TOROIDAL_SURFACE ( 'NONE', #41, 11.00000000000000000, 3.000000000000000444 ) ;
#538 = EDGE_LOOP ( 'NONE', ( #345, #589, #114, #157 ) ) ;
#539 = ADVANCED_FACE ( 'NONE', ( #502, #278 ), #607, .T. ) ;
#540 = LINE ( 'NONE', #33, #819 ) ;
#541 = PERSON_AND_ORGANIZATION ( #50, #664 ) ;
#542 = VERTEX_POINT ( 'NONE', #95 ) ;
#543 = DIRECTION ( 'NONE',  ( 1.000000000000000000, 0.000000000000000000, 0.000000000000000000 ) ) ;
#544 = DATE_AND_TIME ( #803, #414 ) ;
#545 = FACE_OUTER_BOUND ( 'NONE', #272, .T. ) ;
#546 = APPROVAL_PERSON_ORGANIZATION ( #464, #435, #608 ) ;
#547 = ORIENTED_EDGE ( 'NONE', *, *, #526, .T. ) ;
#548 = CARTESIAN_POINT ( 'NONE',  ( -2.598076211353316900, 0.000000000000000000, 0.000000000000000000 ) ) ;
#549 = ADVANCED_FACE ( 'NONE', ( #533 ), #730, .F. ) ;
#550 = PERSON_AND_ORGANIZATION_ROLE ( 'creator' ) ;
#551 = LINE ( 'NONE', #352, #771 ) ;
#552 = VERTEX_POINT ( 'NONE', #420 ) ;
#553 = EDGE_CURVE ( 'NONE', #601, #673, #149, .T. ) ;
#554 = AXIS2_PLACEMENT_3D ( 'NONE', #300, #99, #418 ) ;
#555 = APPROVAL_ROLE ( '' ) ;
#556 = ORIENTED_EDGE ( 'NONE', *, *, #757, .T. ) ;
#557 = DATE_AND_TIME ( #110, #19 ) ;
#558 = CARTESIAN_POINT ( 'NONE',  ( 0.3864906208434974455, 0.000000000000000000, 0.000000000000000000 ) ) ;
#559 = ORIENTED_EDGE ( 'NONE', *, *, #515, .F. ) ;
#560 = CIRCLE ( 'NONE', #60, 12.50000000000000000 ) ;
#561 = ORIENTED_EDGE ( 'NONE', *, *, #92, .T. ) ;
#562 = CARTESIAN_POINT ( 'NONE',  ( -5.000000000000000888, 0.000000000000000000, 0.000000000000000000 ) ) ;
#563 = ORIENTED_EDGE ( 'NONE', *, *, #404, .T. ) ;
#564 = ADVANCED_FACE ( 'NONE', ( #613 ), #537, .T. ) ;
#565 = AXIS2_PLACEMENT_3D ( 'NONE', #477, #215, #712 ) ;
#566 = AXIS2_PLACEMENT_3D ( 'NONE', #632, #317, #758 ) ;
#567 = CARTESIAN_POINT ( 'NONE',  ( -2.598076211353316900, 1.163414459189985485E-15, 9.500000000000000000 ) ) ;
#568 = DIRECTION ( 'NONE',  ( 1.000000000000000000, 0.000000000000000000, 0.000000000000000000 ) ) ;
#569 = CC_DESIGN_PERSON_AND_ORGANIZATION_ASSIGNMENT ( #226, #31, ( #387 ) ) ;
#570 = DIRECTION ( 'NONE',  ( -1.000000000000000000, -0.000000000000000000, -0.000000000000000000 ) ) ;
#571 = DIRECTION ( 'NONE',  ( 0.000000000000000000, 1.000000000000000000, -1.224646799147353207E-16 ) ) ;
#572 = EDGE_CURVE ( 'NONE', #289, #443, #102, .T. ) ;
#573 = CIRCLE ( 'NONE', #90, 5.999999999999999112 ) ;
#574 = ORIENTED_EDGE ( 'NONE', *, *, #154, .T. ) ;
#575 = EDGE_CURVE ( 'NONE', #340, #295, #540, .T. ) ;
#576 = CARTESIAN_POINT ( 'NONE',  ( -5.000000000000000888, 1.163414459189985485E-15, 9.500000000000000000 ) ) ;
#577 = DIRECTION ( 'NONE',  ( 0.000000000000000000, 1.224646799147353207E-16, 1.000000000000000000 ) ) ;
#578 = LINE ( 'NONE', #821, #634 ) ;
#579 = AXIS2_PLACEMENT_3D ( 'NONE', #710, #531, #524 ) ;
#580 = AXIS2_PLACEMENT_3D ( 'NONE', #548, #18, #416 ) ;
#581 = DIRECTION ( 'NONE',  ( 0.000000000000000000, 0.000000000000000000, -1.000000000000000000 ) ) ;
#582 = CARTESIAN_POINT ( 'NONE',  ( -20.63749999999999574, 0.000000000000000000, 0.000000000000000000 ) ) ;
#583 = DIRECTION ( 'NONE',  ( 0.000000000000000000, 0.000000000000000000, -1.000000000000000000 ) ) ;
#584 = DIRECTION ( 'NONE',  ( 0.000000000000000000, 0.000000000000000000, -1.000000000000000000 ) ) ;
#585 = DIRECTION ( 'NONE',  ( 0.000000000000000000, 0.000000000000000000, -1.000000000000000000 ) ) ;
#586 = AXIS2_PLACEMENT_3D ( 'NONE', #761, #124, #506 ) ;
#587 = DIRECTION ( 'NONE',  ( 0.000000000000000000, 0.000000000000000000, -1.000000000000000000 ) ) ;
#588 = DIRECTION ( 'NONE',  ( 1.000000000000000000, 0.000000000000000000, 0.000000000000000000 ) ) ;
#589 = ORIENTED_EDGE ( 'NONE', *, *, #184, .T. ) ;
#590 = CARTESIAN_POINT ( 'NONE',  ( -5.000000000000000888, 0.000000000000000000, 0.000000000000000000 ) ) ;
#591 = EDGE_CURVE ( 'NONE', #552, #84, #682, .T. ) ;
#592 = TOROIDAL_SURFACE ( 'NONE', #24, 11.00000000000000000, 3.000000000000000444 ) ;
#593 = CIRCLE ( 'NONE', #267, 3.000000000000000888 ) ;
#594 = CARTESIAN_POINT ( 'NONE',  ( -4.399999999999999467, 0.000000000000000000, 0.000000000000000000 ) ) ;
#595 = LINE ( 'NONE', #772, #668 ) ;
#596 = VERTEX_POINT ( 'NONE', #788 ) ;
#597 = LINE ( 'NONE', #73, #307 ) ;
#598 = CARTESIAN_POINT ( 'NONE',  ( -20.63749999999999574, 0.000000000000000000, -12.50000000000000000 ) ) ;
#599 = DESIGN_CONTEXT ( 'detailed design', #263, 'design' ) ;
#600 = FACE_OUTER_BOUND ( 'NONE', #693, .T. ) ;
#601 = VERTEX_POINT ( 'NONE', #475 ) ;
#602 = FACE_OUTER_BOUND ( 'NONE', #51, .T. ) ;
#603 = CC_DESIGN_APPROVAL ( #100, ( #794 ) ) ;
#604 = EDGE_CURVE ( 'NONE', #606, #734, #213, .T. ) ;
#605 = DIRECTION ( 'NONE',  ( -1.000000000000000000, 0.000000000000000000, -0.000000000000000000 ) ) ;
#606 = VERTEX_POINT ( 'NONE', #456 ) ;
#607 = PLANE ( 'NONE',  #42 ) ;
#608 = APPROVAL_ROLE ( '' ) ;
#609 = CIRCLE ( 'NONE', #240, 5.999999999999999112 ) ;
#610 = CARTESIAN_POINT ( 'NONE',  ( 5.000000000000000888, 0.000000000000000000, -15.40000000000000036 ) ) ;
#611 = CC_DESIGN_PERSON_AND_ORGANIZATION_ASSIGNMENT ( #789, #616, ( #794 ) ) ;
#612 = EDGE_LOOP ( 'NONE', ( #446, #729 ) ) ;
#613 = FACE_OUTER_BOUND ( 'NONE', #451, .T. ) ;
#614 = ORIENTED_EDGE ( 'NONE', *, *, #445, .F. ) ;
#615 = DIRECTION ( 'NONE',  ( 1.000000000000000000, 0.000000000000000000, 0.000000000000000000 ) ) ;
#616 = PERSON_AND_ORGANIZATION_ROLE ( 'classification_officer' ) ;
#617 = EDGE_LOOP ( 'NONE', ( #132, #508, #9, #143 ) ) ;
#618 = ADVANCED_FACE ( 'NONE', ( #452 ), #784, .T. ) ;
#619 = CARTESIAN_POINT ( 'NONE',  ( -5.000000000000000888, 9.500000000000000000, 0.000000000000000000 ) ) ;
#620 = CIRCLE ( 'NONE', #199, 8.024999999999996803 ) ;
#621 = EDGE_LOOP ( 'NONE', ( #411, #574, #457, #439 ) ) ;
#622 = CIRCLE ( 'NONE', #473, 12.50000000000000000 ) ;
#623 = CARTESIAN_POINT ( 'NONE',  ( 0.000000000000000000, 0.000000000000000000, 0.000000000000000000 ) ) ;
#624 = ORIENTED_EDGE ( 'NONE', *, *, #505, .T. ) ;
#625 = DIRECTION ( 'NONE',  ( 1.000000000000000000, 0.000000000000000000, 0.000000000000000000 ) ) ;
#626 = EDGE_CURVE ( 'NONE', #734, #552, #175, .T. ) ;
#627 = ORIENTED_EDGE ( 'NONE', *, *, #337, .F. ) ;
#628 = LOCAL_TIME ( 13, 49, 19.00000000000000000, #235 ) ;
#629 = EDGE_CURVE ( 'NONE', #511, #596, #283, .T. ) ;
#630 = ORIENTED_EDGE ( 'NONE', *, *, #718, .T. ) ;
#631 = DIRECTION ( 'NONE',  ( 1.000000000000000000, 0.000000000000000000, 0.000000000000000000 ) ) ;
#632 = CARTESIAN_POINT ( 'NONE',  ( -20.63749999999999574, 0.000000000000000000, 0.000000000000000000 ) ) ;
#633 = CIRCLE ( 'NONE', #269, 0.5999999999999998668 ) ;
#634 = VECTOR ( 'NONE', #256, 1000.000000000000000 ) ;
#635 = CARTESIAN_POINT ( 'NONE',  ( -0.3864906208435106016, 0.000000000000000000, 0.000000000000000000 ) ) ;
#636 = EDGE_CURVE ( 'NONE', #606, #94, #444, .T. ) ;
#637 = FACE_OUTER_BOUND ( 'NONE', #67, .T. ) ;
#638 = CARTESIAN_POINT ( 'NONE',  ( 5.000000000000000888, 0.000000000000000000, 0.000000000000000000 ) ) ;
#639 = CARTESIAN_POINT ( 'NONE',  ( 0.3864906208434974455, 1.256793777624971115E-15, -8.024999999999996803 ) ) ;
#640 = DIRECTION ( 'NONE',  ( 0.000000000000000000, 0.000000000000000000, 1.000000000000000000 ) ) ;
#641 = DIRECTION ( 'NONE',  ( 1.000000000000000000, 0.000000000000000000, 0.000000000000000000 ) ) ;
#642 = CIRCLE ( 'NONE', #535, 5.999999999999999112 ) ;
#643 = AXIS2_PLACEMENT_3D ( 'NONE', #816, #449, #245 ) ;
#644 = CARTESIAN_POINT ( 'NONE',  ( -20.63749999999999929, 0.000000000000000000, 0.000000000000000000 ) ) ;
#645 = VERTEX_POINT ( 'NONE', #694 ) ;
#646 = CARTESIAN_POINT ( 'NONE',  ( -20.63749999999999574, 0.000000000000000000, 0.000000000000000000 ) ) ;
#647 =( LENGTH_UNIT ( ) NAMED_UNIT ( * ) SI_UNIT ( .MILLI., .METRE. ) );
#648 = DIRECTION ( 'NONE',  ( 0.000000000000000000, 0.000000000000000000, -1.000000000000000000 ) ) ;
#649 = EDGE_CURVE ( 'NONE', #787, #443, #12, .T. ) ;
#650 = EDGE_LOOP ( 'NONE', ( #627, #177, #22, #172 ) ) ;
#651 = DIRECTION ( 'NONE',  ( 0.000000000000000000, 0.000000000000000000, -1.000000000000000000 ) ) ;
#652 = DIRECTION ( 'NONE',  ( 0.000000000000000000, 0.000000000000000000, -1.000000000000000000 ) ) ;
#653 = ORIENTED_EDGE ( 'NONE', *, *, #238, .T. ) ;
#654 = CIRCLE ( 'NONE', #252, 13.97499999999999964 ) ;
#655 = DIRECTION ( 'NONE',  ( 1.000000000000000000, 0.000000000000000000, 0.000000000000000000 ) ) ;
#656 = CARTESIAN_POINT ( 'NONE',  ( -20.63749999999999929, 0.000000000000000000, 0.000000000000000000 ) ) ;
#657 = EDGE_LOOP ( 'NONE', ( #330, #44, #807, #358 ) ) ;
#658 = DIRECTION ( 'NONE',  ( 1.000000000000000000, 0.000000000000000000, 0.000000000000000000 ) ) ;
#659 = ADVANCED_FACE ( 'NONE', ( #52 ), #167, .T. ) ;
#660 = CARTESIAN_POINT ( 'NONE',  ( -4.400000000000001243, 0.000000000000000000, -16.00000000000000000 ) ) ;
#661 = ORIENTED_EDGE ( 'NONE', *, *, #689, .T. ) ;
#662 = CARTESIAN_POINT ( 'NONE',  ( -4.399999999999997691, 0.000000000000000000, 0.000000000000000000 ) ) ;
#663 = CC_DESIGN_DATE_AND_TIME_ASSIGNMENT ( #544, #493, ( #34 ) ) ;
#664 = ORGANIZATION ( 'UNSPECIFIED', 'UNSPECIFIED', '' ) ;
#665 = DIRECTION ( 'NONE',  ( 1.000000000000000000, 0.000000000000000000, 0.000000000000000000 ) ) ;
#666 = EDGE_LOOP ( 'NONE', ( #306, #563, #243, #713 ) ) ;
#667 = DIRECTION ( 'NONE',  ( 1.000000000000000000, 0.000000000000000000, 0.000000000000000000 ) ) ;
#668 = VECTOR ( 'NONE', #76, 1000.000000000000000 ) ;
#669 = ORIENTED_EDGE ( 'NONE', *, *, #575, .F. ) ;
#670 = AXIS2_PLACEMENT_3D ( 'NONE', #751, #389, #181 ) ;
#671 = DIRECTION ( 'NONE',  ( 0.000000000000000000, 0.000000000000000000, -1.000000000000000000 ) ) ;
#672 = CALENDAR_DATE ( 2026, 31, 7 ) ;
#673 = VERTEX_POINT ( 'NONE', #130 ) ;
#674 = EDGE_CURVE ( 'NONE', #436, #798, #186, .T. ) ;
#675 = FACE_OUTER_BOUND ( 'NONE', #403, .T. ) ;
#676 = DIRECTION ( 'NONE',  ( 1.000000000000000000, 0.000000000000000000, 0.000000000000000000 ) ) ;
#677 = TOROIDAL_SURFACE ( 'NONE', #315, 11.00000000000000000, 3.000000000000000444 ) ;
#678 = VERTEX_POINT ( 'NONE', #576 ) ;
#679 = CC_DESIGN_PERSON_AND_ORGANIZATION_ASSIGNMENT ( #214, #332, ( #68 ) ) ;
#680 = SECURITY_CLASSIFICATION_LEVEL ( 'unclassified' ) ;
#681 = AXIS2_PLACEMENT_3D ( 'NONE', #348, #334, #261 ) ;
#682 = CIRCLE ( 'NONE', #365, 6.599999999999999645 ) ;
#683 = ORIENTED_EDGE ( 'NONE', *, *, #361, .F. ) ;
#684 = ORIENTED_EDGE ( 'NONE', *, *, #210, .F. ) ;
#685 = EDGE_CURVE ( 'NONE', #202, #295, #428, .T. ) ;
#686 = APPROVAL_STATUS ( 'not_yet_approved' ) ;
#687 = CARTESIAN_POINT ( 'NONE',  ( 4.399999999999999467, 0.000000000000000000, 0.000000000000000000 ) ) ;
#688 = EDGE_LOOP ( 'NONE', ( #32, #139 ) ) ;
#689 = EDGE_CURVE ( 'NONE', #809, #56, #401, .T. ) ;
#690 = DIRECTION ( 'NONE',  ( 1.000000000000000000, 0.000000000000000000, 0.000000000000000000 ) ) ;
#691 = DIRECTION ( 'NONE',  ( 1.000000000000000000, 0.000000000000000000, 0.000000000000000000 ) ) ;
#692 = TOROIDAL_SURFACE ( 'NONE', #195, 15.40000000000000036, 0.6000000000000007550 ) ;
#693 = EDGE_LOOP ( 'NONE', ( #14, #49 ) ) ;
#694 = CARTESIAN_POINT ( 'NONE',  ( -2.598076211353316900, 0.000000000000000000, -9.500000000000000000 ) ) ;
#695 = FACE_OUTER_BOUND ( 'NONE', #773, .T. ) ;
#696 = AXIS2_PLACEMENT_3D ( 'NONE', #814, #568, #258 ) ;
#697 = AXIS2_PLACEMENT_3D ( 'NONE', #370, #745, #357 ) ;
#698 = DIRECTION ( 'NONE',  ( 1.000000000000000000, 0.000000000000000000, 0.000000000000000000 ) ) ;
#699 = DIRECTION ( 'NONE',  ( 0.000000000000000000, 0.000000000000000000, -1.000000000000000000 ) ) ;
#700 = EDGE_LOOP ( 'NONE', ( #349, #474, #747, #376 ) ) ;
#701 = DIRECTION ( 'NONE',  ( 0.000000000000000000, 0.000000000000000000, -1.000000000000000000 ) ) ;
#702 = CARTESIAN_POINT ( 'NONE',  ( 5.000000000000000888, 8.082668874372531019E-16, 6.599999999999999645 ) ) ;
#703 = CYLINDRICAL_SURFACE ( 'NONE', #448, 16.00000000000000000 ) ;
#704 = CARTESIAN_POINT ( 'NONE',  ( -20.63749999999999929, 0.000000000000000000, -5.999999999999999112 ) ) ;
#705 = FACE_OUTER_BOUND ( 'NONE', #419, .T. ) ;
#706 = DIRECTION ( 'NONE',  ( 0.000000000000000000, 0.000000000000000000, -1.000000000000000000 ) ) ;
#707 = CIRCLE ( 'NONE', #148, 0.5999999999999998668 ) ;
#708 = EDGE_CURVE ( 'NONE', #340, #468, #714, .T. ) ;
#709 = DIRECTION ( 'NONE',  ( 1.000000000000000000, 0.000000000000000000, 0.000000000000000000 ) ) ;
#710 = CARTESIAN_POINT ( 'NONE',  ( 5.000000000000000000, 6.599999999999999645, 0.000000000000000000 ) ) ;
#711 = CARTESIAN_POINT ( 'NONE',  ( 4.400000000000000355, 0.000000000000000000, 0.000000000000000000 ) ) ;
#712 = DIRECTION ( 'NONE',  ( 0.000000000000000000, 0.000000000000000000, -1.000000000000000000 ) ) ;
#713 = ORIENTED_EDGE ( 'NONE', *, *, #636, .F. ) ;
#714 = CIRCLE ( 'NONE', #233, 13.97499999999999964 ) ;
#715 = EDGE_CURVE ( 'NONE', #511, #289, #360, .T. ) ;
#716 = DIRECTION ( 'NONE',  ( 0.000000000000000000, 0.000000000000000000, -1.000000000000000000 ) ) ;
#717 = ORIENTED_EDGE ( 'NONE', *, *, #767, .F. ) ;
#718 = EDGE_CURVE ( 'NONE', #498, #436, #260, .T. ) ;
#719 = CIRCLE ( 'NONE', #580, 9.500000000000000000 ) ;
#720 = CARTESIAN_POINT ( 'NONE',  ( -4.400000000000000355, 0.000000000000000000, 0.000000000000000000 ) ) ;
#721 = DIRECTION ( 'NONE',  ( -0.000000000000000000, 1.000000000000000000, 1.224646799147353207E-16 ) ) ;
#722 = ORIENTED_EDGE ( 'NONE', *, *, #125, .F. ) ;
#723 = CARTESIAN_POINT ( 'NONE',  ( 4.400000000000000355, 0.000000000000000000, 0.000000000000000000 ) ) ;
#724 = EDGE_CURVE ( 'NONE', #678, #790, #813, .T. ) ;
#725 = DIRECTION ( 'NONE',  ( 0.000000000000000000, 0.000000000000000000, -1.000000000000000000 ) ) ;
#726 = EDGE_LOOP ( 'NONE', ( #379, #529 ) ) ;
#727 = DIRECTION ( 'NONE',  ( 0.000000000000000000, 0.000000000000000000, -1.000000000000000000 ) ) ;
#728 = LOCAL_TIME ( 13, 49, 19.00000000000000000, #372 ) ;
#729 = ORIENTED_EDGE ( 'NONE', *, *, #368, .F. ) ;
#730 = CYLINDRICAL_SURFACE ( 'NONE', #366, 12.50000000000000000 ) ;
#731 = EDGE_CURVE ( 'NONE', #119, #542, #465, .T. ) ;
#732 = TOROIDAL_SURFACE ( 'NONE', #433, 6.599999999999999645, 0.6000000000000007550 ) ;
#733 = FACE_BOUND ( 'NONE', #219, .T. ) ;
#734 = VERTEX_POINT ( 'NONE', #180 ) ;
#735 = CARTESIAN_POINT ( 'NONE',  ( 5.000000000000000888, 15.40000000000000036, 0.000000000000000000 ) ) ;
#736 = PRODUCT_RELATED_PRODUCT_CATEGORY ( 'detail', '', ( #68 ) ) ;
#737 = ORIENTED_EDGE ( 'NONE', *, *, #96, .T. ) ;
#738 = COORDINATED_UNIVERSAL_TIME_OFFSET ( 3, 30, .AHEAD. ) ;
#739 = DIRECTION ( 'NONE',  ( 0.000000000000000000, 0.000000000000000000, 1.000000000000000000 ) ) ;
#740 = LOCAL_TIME ( 13, 49, 19.00000000000000000, #26 ) ;
#741 = ORIENTED_EDGE ( 'NONE', *, *, #454, .F. ) ;
#742 = ADVANCED_FACE ( 'NONE', ( #384 ), #763, .F. ) ;
#743 = EDGE_LOOP ( 'NONE', ( #374, #517, #196, #268 ) ) ;
#744 = APPROVAL_DATE_TIME ( #793, #100 ) ;
#745 = DIRECTION ( 'NONE',  ( 1.000000000000000000, 0.000000000000000000, 0.000000000000000000 ) ) ;
#746 = CIRCLE ( 'NONE', #97, 16.00000000000000000 ) ;
#747 = ORIENTED_EDGE ( 'NONE', *, *, #118, .F. ) ;
#748 = AXIS2_PLACEMENT_3D ( 'NONE', #61, #385, #255 ) ;
#749 = ORIENTED_EDGE ( 'NONE', *, *, #715, .F. ) ;
#750 = DIRECTION ( 'NONE',  ( 0.000000000000000000, 0.000000000000000000, -1.000000000000000000 ) ) ;
#751 = CARTESIAN_POINT ( 'NONE',  ( -4.399999999999999467, 0.000000000000000000, 0.000000000000000000 ) ) ;
#752 = CARTESIAN_POINT ( 'NONE',  ( -5.000000000000000888, 0.000000000000000000, 0.000000000000000000 ) ) ;
#753 = AXIS2_PLACEMENT_3D ( 'NONE', #63, #690, #320 ) ;
#754 = ORIENTED_EDGE ( 'NONE', *, *, #708, .T. ) ;
#755 = ORIENTED_EDGE ( 'NONE', *, *, #301, .T. ) ;
#756 = DIRECTION ( 'NONE',  ( 0.000000000000000000, 0.000000000000000000, -1.000000000000000000 ) ) ;
#757 = EDGE_CURVE ( 'NONE', #596, #511, #248, .T. ) ;
#758 = DIRECTION ( 'NONE',  ( 0.000000000000000000, 0.000000000000000000, -1.000000000000000000 ) ) ;
#759 = AXIS2_PLACEMENT_3D ( 'NONE', #140, #399, #651 ) ;
#760 = VECTOR ( 'NONE', #146, 1000.000000000000000 ) ;
#761 = CARTESIAN_POINT ( 'NONE',  ( 5.000000000000000888, 0.000000000000000000, 0.000000000000000000 ) ) ;
#762 = DIRECTION ( 'NONE',  ( 0.000000000000000000, 0.000000000000000000, -1.000000000000000000 ) ) ;
#763 = CYLINDRICAL_SURFACE ( 'NONE', #805, 5.999999999999999112 ) ;
#764 = VERTEX_POINT ( 'NONE', #567 ) ;
#765 = AXIS2_PLACEMENT_3D ( 'NONE', #470, #338, #396 ) ;
#766 = ADVANCED_FACE ( 'NONE', ( #637 ), #442, .T. ) ;
#767 = EDGE_CURVE ( 'NONE', #94, #104, #573, .T. ) ;
#768 = DIRECTION ( 'NONE',  ( -1.000000000000000000, -0.000000000000000000, -0.000000000000000000 ) ) ;
#769 = DIRECTION ( 'NONE',  ( 0.000000000000000000, 1.000000000000000000, -1.224646799147353207E-16 ) ) ;
#770 = CLOSED_SHELL ( 'NONE', ( #467, #3, #618, #80, #491, #564, #766, #742, #659, #189, #480, #314, #58, #247, #391, #200, #274, #38, #70, #326, #774, #549, #29, #811, #386, #775, #539, #262 ) ) ;
#771 = VECTOR ( 'NONE', #230, 1000.000000000000000 ) ;
#772 = CARTESIAN_POINT ( 'NONE',  ( -20.63749999999999574, 1.959434878635765131E-15, 16.00000000000000000 ) ) ;
#773 = EDGE_LOOP ( 'NONE', ( #223, #152, #483, #298 ) ) ;
#774 = ADVANCED_FACE ( 'NONE', ( #779 ), #677, .T. ) ;
#775 = ADVANCED_FACE ( 'NONE', ( #602 ), #159, .T. ) ;
#776 = CARTESIAN_POINT ( 'NONE',  ( 4.399999999999999467, 0.000000000000000000, -6.599999999999999645 ) ) ;
#777 = ORIENTED_EDGE ( 'NONE', *, *, #92, .F. ) ;
#778 = DIRECTION ( 'NONE',  ( 0.000000000000000000, 0.000000000000000000, -1.000000000000000000 ) ) ;
#779 = FACE_OUTER_BOUND ( 'NONE', #538, .T. ) ;
#780 = CARTESIAN_POINT ( 'NONE',  ( -5.000000000000000888, 13.97499999999999964, 0.000000000000000000 ) ) ;
#781 = ORIENTED_EDGE ( 'NONE', *, *, #417, .T. ) ;
#782 = DIRECTION ( 'NONE',  ( 0.000000000000000000, 0.000000000000000000, -1.000000000000000000 ) ) ;
#783 = AXIS2_PLACEMENT_3D ( 'NONE', #520, #141, #725 ) ;
#784 = TOROIDAL_SURFACE ( 'NONE', #434, 15.40000000000000036, 0.6000000000000007550 ) ;
#785 = CARTESIAN_POINT ( 'NONE',  ( -5.000000000000000888, 0.000000000000000000, -9.500000000000000000 ) ) ;
#786 = DIRECTION ( 'NONE',  ( 1.000000000000000000, 0.000000000000000000, 0.000000000000000000 ) ) ;
#787 = VERTEX_POINT ( 'NONE', #400 ) ;
#788 = CARTESIAN_POINT ( 'NONE',  ( -5.000000000000000888, 1.922695474661344271E-15, 15.40000000000000036 ) ) ;
#789 = PERSON_AND_ORGANIZATION ( #50, #664 ) ;
#790 = VERTEX_POINT ( 'NONE', #785 ) ;
#791 = CYLINDRICAL_SURFACE ( 'NONE', #364, 8.024999999999996803 ) ;
#792 = EDGE_CURVE ( 'NONE', #673, #601, #560, .T. ) ;
#793 = DATE_AND_TIME ( #672, #728 ) ;
#794 = SECURITY_CLASSIFICATION ( '', '', #680 ) ;
#795 = EDGE_LOOP ( 'NONE', ( #463, #737 ) ) ;
#796 = CARTESIAN_POINT ( 'NONE',  ( 2.598076211353316012, 0.000000000000000000, 0.000000000000000000 ) ) ;
#797 = CIRCLE ( 'NONE', #421, 6.599999999999999645 ) ;
#798 = VERTEX_POINT ( 'NONE', #20 ) ;
#799 = EDGE_CURVE ( 'NONE', #673, #147, #342, .T. ) ;
#800 = EDGE_CURVE ( 'NONE', #202, #764, #74, .T. ) ;
#801 = ORIENTED_EDGE ( 'NONE', *, *, #708, .F. ) ;
#802 = ORIENTED_EDGE ( 'NONE', *, *, #636, .T. ) ;
#803 = CALENDAR_DATE ( 2026, 31, 7 ) ;
#804 = LINE ( 'NONE', #236, #133 ) ;
#805 = AXIS2_PLACEMENT_3D ( 'NONE', #644, #509, #66 ) ;
#806 = EDGE_LOOP ( 'NONE', ( #684, #28, #305, #46 ) ) ;
#807 = ORIENTED_EDGE ( 'NONE', *, *, #106, .T. ) ;
#808 = DIRECTION ( 'NONE',  ( 1.000000000000000000, 0.000000000000000000, 0.000000000000000000 ) ) ;
#809 = VERTEX_POINT ( 'NONE', #86 ) ;
#810 = DIRECTION ( 'NONE',  ( 0.000000000000000000, 0.000000000000000000, -1.000000000000000000 ) ) ;
#811 = ADVANCED_FACE ( 'NONE', ( #15 ), #692, .T. ) ;
#812 = DIRECTION ( 'NONE',  ( 0.000000000000000000, 0.000000000000000000, -1.000000000000000000 ) ) ;
#813 = CIRCLE ( 'NONE', #753, 9.500000000000000000 ) ;
#814 = CARTESIAN_POINT ( 'NONE',  ( -4.400000000000001243, 0.000000000000000000, 0.000000000000000000 ) ) ;
#815 = ORIENTED_EDGE ( 'NONE', *, *, #715, .T. ) ;
#816 = CARTESIAN_POINT ( 'NONE',  ( -4.399999999999999467, 8.082668874372531019E-16, 6.599999999999999645 ) ) ;
#817 = FACE_OUTER_BOUND ( 'NONE', #806, .T. ) ;
#818 = AXIS2_PLACEMENT_3D ( 'NONE', #280, #769, #536 ) ;
#819 = VECTOR ( 'NONE', #543, 1000.000000000000000 ) ;
#820 = AXIS2_PLACEMENT_3D ( 'NONE', #796, #667, #153 ) ;
#821 = CARTESIAN_POINT ( 'NONE',  ( -20.63749999999999574, 1.711443901808426101E-15, 13.97499999999999964 ) ) ;
ENDSEC;
END-ISO-10303-21;
