ISO-10303-21;
HEADER;
FILE_DESCRIPTION (( 'STEP AP203' ),
    '1' );
FILE_NAME ('BasePlate_Default_sldprt.STEP',
    '2026-07-31T10:18:39',
    ( '' ),
    ( '' ),
    'SwSTEP 2.0',
    'SolidWorks 2025',
    '' );
FILE_SCHEMA (( 'CONFIG_CONTROL_DESIGN' ));
ENDSEC;

DATA;
#1 = CARTESIAN_POINT ( 'NONE',  ( -960.0000000000000000, 20.00000000000000000, 45.00000000000023448 ) ) ;
#2 = LINE ( 'NONE', #111, #504 ) ;
#3 = ORIENTED_EDGE ( 'NONE', *, *, #660, .F. ) ;
#4 = APPROVAL_ROLE ( '' ) ;
#5 = LINE ( 'NONE', #497, #125 ) ;
#6 = VECTOR ( 'NONE', #429, 1000.000000000000000 ) ;
#7 = ORIENTED_EDGE ( 'NONE', *, *, #440, .F. ) ;
#8 = LOCAL_TIME ( 13, 48, 39.00000000000000000, #336 ) ;
#9 = LINE ( 'NONE', #676, #525 ) ;
#10 = ORIENTED_EDGE ( 'NONE', *, *, #461, .F. ) ;
#11 = EDGE_CURVE ( 'NONE', #350, #715, #400, .T. ) ;
#12 = DIRECTION ( 'NONE',  ( -2.312964634635742957E-16, 0.000000000000000000, -1.000000000000000000 ) ) ;
#13 = VERTEX_POINT ( 'NONE', #614 ) ;
#14 = DIRECTION ( 'NONE',  ( 0.000000000000000000, -1.000000000000000000, 0.000000000000000000 ) ) ;
#15 = VECTOR ( 'NONE', #14, 1000.000000000000000 ) ;
#16 = ORIENTED_EDGE ( 'NONE', *, *, #11, .T. ) ;
#17 = VECTOR ( 'NONE', #669, 1000.000000000000000 ) ;
#18 = VECTOR ( 'NONE', #512, 1000.000000000000000 ) ;
#19 = DIRECTION ( 'NONE',  ( -0.000000000000000000, -1.000000000000000000, -0.000000000000000000 ) ) ;
#20 = ORIENTED_EDGE ( 'NONE', *, *, #535, .T. ) ;
#21 = CARTESIAN_POINT ( 'NONE',  ( -860.0000000000002274, 0.000000000000000000, -144.9999999999994316 ) ) ;
#22 = ORIENTED_EDGE ( 'NONE', *, *, #314, .F. ) ;
#23 = EDGE_CURVE ( 'NONE', #549, #342, #235, .T. ) ;
#24 = CARTESIAN_POINT ( 'NONE',  ( -960.0000000000001137, 0.000000000000000000, -44.99999999999940314 ) ) ;
#25 = CARTESIAN_POINT ( 'NONE',  ( -1.548714124239619200E-13, 20.00000000000000000, -145.0000000000000000 ) ) ;
#26 = VERTEX_POINT ( 'NONE', #61 ) ;
#27 = LOCAL_TIME ( 13, 48, 39.00000000000000000, #396 ) ;
#28 = PRODUCT_DEFINITION ( 'UNKNOWN', '', #625, #424 ) ;
#29 = CARTESIAN_POINT ( 'NONE',  ( -847.0000000000001137, 270.7987240796890660, -75.00000000000001421 ) ) ;
#30 = DIRECTION ( 'NONE',  ( -0.000000000000000000, -1.000000000000000000, -0.000000000000000000 ) ) ;
#31 = ORIENTED_EDGE ( 'NONE', *, *, #74, .F. ) ;
#32 = LINE ( 'NONE', #427, #489 ) ;
#33 = DIRECTION ( 'NONE',  ( 0.000000000000000000, 0.000000000000000000, -1.000000000000000000 ) ) ;
#34 = EDGE_CURVE ( 'NONE', #76, #505, #122, .T. ) ;
#35 = ORIENTED_EDGE ( 'NONE', *, *, #23, .F. ) ;
#36 = CYLINDRICAL_SURFACE ( 'NONE', #333, 100.0000000000000000 ) ;
#37 = APPROVAL ( #321, 'UNSPECIFIED' ) ;
#38 = ORIENTED_EDGE ( 'NONE', *, *, #134, .T. ) ;
#39 = FACE_BOUND ( 'NONE', #481, .T. ) ;
#40 = DIRECTION ( 'NONE',  ( 0.000000000000000000, 0.000000000000000000, -1.000000000000000000 ) ) ;
#41 = ORIENTED_EDGE ( 'NONE', *, *, #198, .F. ) ;
#42 = ORIENTED_EDGE ( 'NONE', *, *, #360, .T. ) ;
#43 =( LENGTH_UNIT ( ) NAMED_UNIT ( * ) SI_UNIT ( .MILLI., .METRE. ) );
#44 = FACE_OUTER_BOUND ( 'NONE', #369, .T. ) ;
#45 = VERTEX_POINT ( 'NONE', #555 ) ;
#46 = ADVANCED_FACE ( 'NONE', ( #117 ), #713, .F. ) ;
#47 = DATE_AND_TIME ( #325, #381 ) ;
#48 = LINE ( 'NONE', #275, #242 ) ;
#49 = CARTESIAN_POINT ( 'NONE',  ( -627.0000000000000000, 270.7987240796890660, 75.00000000000000000 ) ) ;
#50 = DIRECTION ( 'NONE',  ( 1.000000000000000000, 0.000000000000000000, 0.000000000000000000 ) ) ;
#51 = ADVANCED_FACE ( 'NONE', ( #112 ), #284, .F. ) ;
#52 = AXIS2_PLACEMENT_3D ( 'NONE', #637, #516, #575 ) ;
#53 = CARTESIAN_POINT ( 'NONE',  ( 0.000000000000000000, 20.00000000000000000, 0.000000000000000000 ) ) ;
#54 = AXIS2_PLACEMENT_3D ( 'NONE', #543, #262, #201 ) ;
#55 = CARTESIAN_POINT ( 'NONE',  ( -627.0000000000000000, 20.00000000000001776, 75.00000000000000000 ) ) ;
#56 = PERSON_AND_ORGANIZATION ( #443, #233 ) ;
#57 = CARTESIAN_POINT ( 'NONE',  ( -860.0000000000000000, 0.000000000000000000, 145.0000000000001705 ) ) ;
#58 = LINE ( 'NONE', #379, #547 ) ;
#59 = ADVANCED_FACE ( 'NONE', ( #444 ), #664, .F. ) ;
#60 = CARTESIAN_POINT ( 'NONE',  ( -860.0000000000002274, 20.00000000000000000, -144.9999999999994316 ) ) ;
#61 = CARTESIAN_POINT ( 'NONE',  ( -139.9999999999999147, 20.00000000000001776, -125.0000000000000568 ) ) ;
#62 = AXIS2_PLACEMENT_3D ( 'NONE', #632, #12, #356 ) ;
#63 = DIRECTION ( 'NONE',  ( 1.000000000000000000, -0.000000000000000000, 0.000000000000000000 ) ) ;
#64 = CC_DESIGN_APPROVAL ( #365, ( #625 ) ) ;
#65 = EDGE_CURVE ( 'NONE', #642, #176, #338, .T. ) ;
#66 = LINE ( 'NONE', #238, #148 ) ;
#67 = EDGE_LOOP ( 'NONE', ( #434, #318, #296, #85 ) ) ;
#68 = DATE_AND_TIME ( #353, #308 ) ;
#69 = CC_DESIGN_DATE_AND_TIME_ASSIGNMENT ( #164, #707, ( #28 ) ) ;
#70 = LINE ( 'NONE', #293, #254 ) ;
#71 = DIRECTION ( 'NONE',  ( 0.000000000000000000, 0.000000000000000000, 1.000000000000000000 ) ) ;
#72 = ORIENTED_EDGE ( 'NONE', *, *, #290, .F. ) ;
#73 = CARTESIAN_POINT ( 'NONE',  ( -119.9999999999999147, 0.000000000000000000, 125.0000000000000000 ) ) ;
#74 = EDGE_CURVE ( 'NONE', #103, #300, #559, .T. ) ;
#75 = VECTOR ( 'NONE', #488, 1000.000000000000000 ) ;
#76 = VERTEX_POINT ( 'NONE', #565 ) ;
#77 = CIRCLE ( 'NONE', #560, 100.0000000000000000 ) ;
#78 = EDGE_CURVE ( 'NONE', #598, #213, #620, .T. ) ;
#79 = ORIENTED_EDGE ( 'NONE', *, *, #114, .F. ) ;
#80 = CARTESIAN_POINT ( 'NONE',  ( -119.9999999999999147, 20.00000000000001776, -125.0000000000000000 ) ) ;
#81 = PLANE ( 'NONE',  #52 ) ;
#82 = VERTEX_POINT ( 'NONE', #681 ) ;
#83 = CARTESIAN_POINT ( 'NONE',  ( -647.0000000000000000, 20.00000000000001776, 75.00000000000000000 ) ) ;
#84 = CARTESIAN_POINT ( 'NONE',  ( -847.0000000000001137, 270.7987240796890660, 75.00000000000001421 ) ) ;
#85 = ORIENTED_EDGE ( 'NONE', *, *, #274, .T. ) ;
#86 = AXIS2_PLACEMENT_3D ( 'NONE', #456, #166, #389 ) ;
#87 = VECTOR ( 'NONE', #714, 1000.000000000000000 ) ;
#88 = EDGE_CURVE ( 'NONE', #82, #13, #66, .T. ) ;
#89 = CARTESIAN_POINT ( 'NONE',  ( 0.000000000000000000, 0.000000000000000000, 0.000000000000000000 ) ) ;
#90 = DIRECTION ( 'NONE',  ( 0.000000000000000000, 0.000000000000000000, 1.000000000000000000 ) ) ;
#91 = ORIENTED_EDGE ( 'NONE', *, *, #328, .F. ) ;
#92 = FACE_OUTER_BOUND ( 'NONE', #576, .T. ) ;
#93 = ADVANCED_FACE ( 'NONE', ( #530 ), #578, .F. ) ;
#94 = LINE ( 'NONE', #197, #75 ) ;
#95 = ORIENTED_EDGE ( 'NONE', *, *, #236, .T. ) ;
#96 = FACE_OUTER_BOUND ( 'NONE', #650, .T. ) ;
#97 = DIRECTION ( 'NONE',  ( -1.000000000000000000, 0.000000000000000000, 6.360652745248293008E-16 ) ) ;
#98 = VERTEX_POINT ( 'NONE', #73 ) ;
#99 = VECTOR ( 'NONE', #33, 1000.000000000000000 ) ;
#100 = DIRECTION ( 'NONE',  ( 0.000000000000000000, 0.000000000000000000, 1.000000000000000000 ) ) ;
#101 = CIRCLE ( 'NONE', #279, 100.0000000000000000 ) ;
#102 = DIRECTION ( 'NONE',  ( -1.000000000000000000, 0.000000000000000000, 0.000000000000000000 ) ) ;
#103 = VERTEX_POINT ( 'NONE', #359 ) ;
#104 = ADVANCED_FACE ( 'NONE', ( #139 ), #687, .F. ) ;
#105 = VERTEX_POINT ( 'NONE', #248 ) ;
#106 = DATE_AND_TIME ( #270, #27 ) ;
#107 = DIRECTION ( 'NONE',  ( 1.000000000000000000, -0.000000000000000000, 0.000000000000000000 ) ) ;
#108 = CARTESIAN_POINT ( 'NONE',  ( -647.0000000000000000, 270.7987240796890660, -75.00000000000000000 ) ) ;
#109 = ORIENTED_EDGE ( 'NONE', *, *, #157, .T. ) ;
#110 = PERSON_AND_ORGANIZATION ( #443, #233 ) ;
#111 = CARTESIAN_POINT ( 'NONE',  ( -647.0000000000000000, 270.7987240796890660, 75.00000000000000000 ) ) ;
#112 = FACE_OUTER_BOUND ( 'NONE', #133, .T. ) ;
#113 = VECTOR ( 'NONE', #19, 1000.000000000000000 ) ;
#114 = EDGE_CURVE ( 'NONE', #598, #26, #246, .T. ) ;
#115 = VECTOR ( 'NONE', #107, 1000.000000000000000 ) ;
#116 = LINE ( 'NONE', #605, #115 ) ;
#117 = FACE_OUTER_BOUND ( 'NONE', #485, .T. ) ;
#118 = PERSON_AND_ORGANIZATION_ROLE ( 'creator' ) ;
#119 = PLANE ( 'NONE',  #589 ) ;
#120 = CARTESIAN_POINT ( 'NONE',  ( -827.0000000000001137, 270.7987240796890660, -75.00000000000000000 ) ) ;
#121 = CARTESIAN_POINT ( 'NONE',  ( -847.0000000000001137, 270.7987240796890660, -75.00000000000001421 ) ) ;
#122 = LINE ( 'NONE', #108, #514 ) ;
#123 = DIRECTION ( 'NONE',  ( 1.000000000000000000, 0.000000000000000000, -6.360652745248293008E-16 ) ) ;
#124 = PLANE ( 'NONE',  #240 ) ;
#125 = VECTOR ( 'NONE', #455, 1000.000000000000000 ) ;
#126 = ORIENTED_EDGE ( 'NONE', *, *, #469, .F. ) ;
#127 = CC_DESIGN_PERSON_AND_ORGANIZATION_ASSIGNMENT ( #223, #442, ( #625 ) ) ;
#128 = DIRECTION ( 'NONE',  ( -1.000000000000000000, 0.000000000000000000, 0.000000000000000000 ) ) ;
#129 = ORIENTED_EDGE ( 'NONE', *, *, #480, .T. ) ;
#130 = ADVANCED_FACE ( 'NONE', ( #416 ), #81, .F. ) ;
#131 = FACE_OUTER_BOUND ( 'NONE', #511, .T. ) ;
#132 = LINE ( 'NONE', #181, #15 ) ;
#133 = EDGE_LOOP ( 'NONE', ( #190, #38, #307, #361 ) ) ;
#134 = EDGE_CURVE ( 'NONE', #534, #184, #9, .T. ) ;
#135 = VECTOR ( 'NONE', #193, 1000.000000000000000 ) ;
#136 = ORIENTED_EDGE ( 'NONE', *, *, #281, .F. ) ;
#137 = AXIS2_PLACEMENT_3D ( 'NONE', #678, #409, #123 ) ;
#138 = CARTESIAN_POINT ( 'NONE',  ( -139.9999999999999147, 20.00000000000001776, 125.0000000000000000 ) ) ;
#139 = FACE_OUTER_BOUND ( 'NONE', #302, .T. ) ;
#140 = ORIENTED_EDGE ( 'NONE', *, *, #34, .T. ) ;
#141 = CARTESIAN_POINT ( 'NONE',  ( -627.0000000000000000, 0.000000000000000000, -75.00000000000000000 ) ) ;
#142 = CARTESIAN_POINT ( 'NONE',  ( -827.0000000000001137, 20.00000000000001776, 75.00000000000000000 ) ) ;
#143 = ORIENTED_EDGE ( 'NONE', *, *, #171, .F. ) ;
#144 = ADVANCED_FACE ( 'NONE', ( #402 ), #124, .F. ) ;
#145 = PLANE ( 'NONE',  #405 ) ;
#146 = LINE ( 'NONE', #695, #6 ) ;
#147 = ORIENTED_EDGE ( 'NONE', *, *, #171, .T. ) ;
#148 = VECTOR ( 'NONE', #458, 1000.000000000000000 ) ;
#149 = AXIS2_PLACEMENT_3D ( 'NONE', #362, #312, #585 ) ;
#150 = FACE_OUTER_BOUND ( 'NONE', #709, .T. ) ;
#151 = ORIENTED_EDGE ( 'NONE', *, *, #641, .F. ) ;
#152 = DIRECTION ( 'NONE',  ( 0.000000000000000000, -1.000000000000000000, 0.000000000000000000 ) ) ;
#153 = DIRECTION ( 'NONE',  ( 1.000000000000000000, 0.000000000000000000, -0.000000000000000000 ) ) ;
#154 = VERTEX_POINT ( 'NONE', #521 ) ;
#155 = PERSON_AND_ORGANIZATION ( #443, #233 ) ;
#156 = LINE ( 'NONE', #84, #343 ) ;
#157 = EDGE_CURVE ( 'NONE', #350, #642, #132, .T. ) ;
#158 = ORIENTED_EDGE ( 'NONE', *, *, #114, .T. ) ;
#159 = ORIENTED_EDGE ( 'NONE', *, *, #426, .F. ) ;
#160 = APPROVAL_ROLE ( '' ) ;
#161 = CARTESIAN_POINT ( 'NONE',  ( -119.9999999999999147, 20.00000000000001776, 125.0000000000000000 ) ) ;
#162 = PRODUCT_RELATED_PRODUCT_CATEGORY ( 'detail', '', ( #217 ) ) ;
#163 = DIRECTION ( 'NONE',  ( -0.000000000000000000, -1.000000000000000000, -0.000000000000000000 ) ) ;
#164 = DATE_AND_TIME ( #496, #8 ) ;
#165 = CARTESIAN_POINT ( 'NONE',  ( -1.548714124239619200E-13, 20.00000000000000000, -145.0000000000000000 ) ) ;
#166 = DIRECTION ( 'NONE',  ( 0.000000000000000000, 0.000000000000000000, 1.000000000000000000 ) ) ;
#167 = ADVANCED_FACE ( 'NONE', ( #291 ), #407, .F. ) ;
#168 =( NAMED_UNIT ( * ) SI_UNIT ( $, .STERADIAN. ) SOLID_ANGLE_UNIT ( ) );
#169 = CARTESIAN_POINT ( 'NONE',  ( -827.0000000000001137, 270.7987240796890660, -75.00000000000000000 ) ) ;
#170 = ORIENTED_EDGE ( 'NONE', *, *, #189, .F. ) ;
#171 = EDGE_CURVE ( 'NONE', #631, #289, #465, .T. ) ;
#172 = PERSON_AND_ORGANIZATION ( #443, #233 ) ;
#173 = VECTOR ( 'NONE', #376, 1000.000000000000000 ) ;
#174 = VECTOR ( 'NONE', #387, 1000.000000000000000 ) ;
#175 = DIRECTION ( 'NONE',  ( 0.000000000000000000, 0.000000000000000000, 1.000000000000000000 ) ) ;
#176 = VERTEX_POINT ( 'NONE', #410 ) ;
#177 = ORIENTED_EDGE ( 'NONE', *, *, #495, .F. ) ;
#178 = LINE ( 'NONE', #237, #647 ) ;
#179 = DIRECTION ( 'NONE',  ( 0.000000000000000000, 0.000000000000000000, -1.000000000000000000 ) ) ;
#180 = EDGE_CURVE ( 'NONE', #631, #105, #630, .T. ) ;
#181 = CARTESIAN_POINT ( 'NONE',  ( -960.0000000000001137, 20.00000000000000000, -44.99999999999940314 ) ) ;
#182 = AXIS2_PLACEMENT_3D ( 'NONE', #384, #711, #285 ) ;
#183 = EDGE_CURVE ( 'NONE', #594, #76, #206, .T. ) ;
#184 = VERTEX_POINT ( 'NONE', #644 ) ;
#185 = DIRECTION ( 'NONE',  ( 0.000000000000000000, 0.000000000000000000, 1.000000000000000000 ) ) ;
#186 = DIRECTION ( 'NONE',  ( 0.000000000000000000, 0.000000000000000000, 1.000000000000000000 ) ) ;
#187 = ORIENTED_EDGE ( 'NONE', *, *, #403, .T. ) ;
#188 = SHAPE_DEFINITION_REPRESENTATION ( #383, #399 ) ;
#189 = EDGE_CURVE ( 'NONE', #549, #436, #593, .T. ) ;
#190 = ORIENTED_EDGE ( 'NONE', *, *, #294, .T. ) ;
#191 = CC_DESIGN_PERSON_AND_ORGANIZATION_ASSIGNMENT ( #561, #710, ( #625 ) ) ;
#192 = LINE ( 'NONE', #401, #453 ) ;
#193 = DIRECTION ( 'NONE',  ( 0.000000000000000000, 0.000000000000000000, -1.000000000000000000 ) ) ;
#194 = ORIENTED_EDGE ( 'NONE', *, *, #74, .T. ) ;
#195 = VECTOR ( 'NONE', #339, 1000.000000000000000 ) ;
#196 = DIRECTION ( 'NONE',  ( 0.000000000000000000, 0.000000000000000000, -1.000000000000000000 ) ) ;
#197 = CARTESIAN_POINT ( 'NONE',  ( -960.0000000000000000, 0.000000000000000000, 145.0000000000001990 ) ) ;
#198 = EDGE_CURVE ( 'NONE', #471, #425, #533, .T. ) ;
#199 = ORIENTED_EDGE ( 'NONE', *, *, #569, .T. ) ;
#200 = MANIFOLD_SOLID_BREP ( 'Cut-Extrude1', #568 ) ;
#201 = DIRECTION ( 'NONE',  ( -1.000000000000000000, 0.000000000000000000, -0.000000000000000000 ) ) ;
#202 = CARTESIAN_POINT ( 'NONE',  ( -827.0000000000001137, 0.000000000000000000, 75.00000000000000000 ) ) ;
#203 = EDGE_CURVE ( 'NONE', #377, #591, #94, .T. ) ;
#204 = ORIENTED_EDGE ( 'NONE', *, *, #266, .T. ) ;
#205 = PLANE ( 'NONE',  #635 ) ;
#206 = LINE ( 'NONE', #648, #208 ) ;
#207 = ORIENTED_EDGE ( 'NONE', *, *, #290, .T. ) ;
#208 = VECTOR ( 'NONE', #40, 1000.000000000000000 ) ;
#209 = VECTOR ( 'NONE', #590, 1000.000000000000000 ) ;
#210 = CC_DESIGN_APPROVAL ( #500, ( #474 ) ) ;
#211 = CARTESIAN_POINT ( 'NONE',  ( -3.056976231050558052E-14, 0.000000000000000000, 145.0000000000000000 ) ) ;
#212 = DIRECTION ( 'NONE',  ( 0.000000000000000000, -0.000000000000000000, 1.000000000000000000 ) ) ;
#213 = VERTEX_POINT ( 'NONE', #251 ) ;
#214 = EDGE_CURVE ( 'NONE', #289, #98, #268, .T. ) ;
#215 = DIRECTION ( 'NONE',  ( 1.000000000000000000, 0.000000000000000000, -2.312964634635742957E-16 ) ) ;
#216 = ORIENTED_EDGE ( 'NONE', *, *, #480, .F. ) ;
#217 = PRODUCT ( 'BasePlate_Default_sldprt', 'BasePlate_Default_sldprt', '', ( #449 ) ) ;
#218 = ORIENTED_EDGE ( 'NONE', *, *, #691, .T. ) ;
#219 = PERSON_AND_ORGANIZATION ( #443, #233 ) ;
#220 = PLANE ( 'NONE',  #395 ) ;
#221 = ORIENTED_EDGE ( 'NONE', *, *, #672, .T. ) ;
#222 = AXIS2_PLACEMENT_3D ( 'NONE', #618, #232, #502 ) ;
#223 = PERSON_AND_ORGANIZATION ( #443, #233 ) ;
#224 = APPROVAL_PERSON_ORGANIZATION ( #56, #500, #4 ) ;
#225 = FACE_BOUND ( 'NONE', #468, .T. ) ;
#226 = EDGE_LOOP ( 'NONE', ( #352, #109, #477, #357 ) ) ;
#227 = DATE_TIME_ROLE ( 'classification_date' ) ;
#228 = CARTESIAN_POINT ( 'NONE',  ( -827.0000000000001137, 20.00000000000000000, 75.00000000000000000 ) ) ;
#229 = CARTESIAN_POINT ( 'NONE',  ( -139.9999999999999147, 270.7987240796890660, 125.0000000000000000 ) ) ;
#230 = APPLICATION_PROTOCOL_DEFINITION ( 'international standard', 'config_control_design', 1994, #649 ) ;
#231 = DIRECTION ( 'NONE',  ( -0.000000000000000000, -1.000000000000000000, -0.000000000000000000 ) ) ;
#232 = DIRECTION ( 'NONE',  ( -1.000000000000000000, 0.000000000000000000, 0.000000000000000000 ) ) ;
#233 = ORGANIZATION ( 'UNSPECIFIED', 'UNSPECIFIED', '' ) ;
#234 = CARTESIAN_POINT ( 'NONE',  ( -647.0000000000000000, 0.000000000000000000, 75.00000000000000000 ) ) ;
#235 = LINE ( 'NONE', #120, #265 ) ;
#236 = EDGE_CURVE ( 'NONE', #105, #98, #58, .T. ) ;
#237 = CARTESIAN_POINT ( 'NONE',  ( -827.0000000000001137, 270.7987240796890660, 75.00000000000000000 ) ) ;
#238 = CARTESIAN_POINT ( 'NONE',  ( -3.056976231050558052E-14, 20.00000000000000000, 145.0000000000000000 ) ) ;
#239 = ORIENTED_EDGE ( 'NONE', *, *, #78, .T. ) ;
#240 = AXIS2_PLACEMENT_3D ( 'NONE', #460, #345, #572 ) ;
#241 = CARTESIAN_POINT ( 'NONE',  ( -827.0000000000001137, 270.7987240796890660, 75.00000000000000000 ) ) ;
#242 = VECTOR ( 'NONE', #185, 1000.000000000000000 ) ;
#243 = UNCERTAINTY_MEASURE_WITH_UNIT (LENGTH_MEASURE( 1.000000000000000082E-05 ), #43, 'distance_accuracy_value', 'NONE');
#244 = EDGE_CURVE ( 'NONE', #103, #654, #433, .T. ) ;
#245 = ORIENTED_EDGE ( 'NONE', *, *, #360, .F. ) ;
#246 = LINE ( 'NONE', #684, #135 ) ;
#247 = EDGE_LOOP ( 'NONE', ( #531, #72, #126, #177 ) ) ;
#248 = CARTESIAN_POINT ( 'NONE',  ( -119.9999999999999147, 0.000000000000000000, -125.0000000000000000 ) ) ;
#249 = ORIENTED_EDGE ( 'NONE', *, *, #281, .T. ) ;
#250 = CARTESIAN_POINT ( 'NONE',  ( -627.0000000000000000, 270.7987240796890660, -75.00000000000000000 ) ) ;
#251 = CARTESIAN_POINT ( 'NONE',  ( -139.9999999999999147, 0.000000000000000000, 125.0000000000000000 ) ) ;
#252 = VECTOR ( 'NONE', #435, 1000.000000000000000 ) ;
#253 = EDGE_LOOP ( 'NONE', ( #129, #207, #507, #624 ) ) ;
#254 = VECTOR ( 'NONE', #523, 1000.000000000000000 ) ;
#255 = CARTESIAN_POINT ( 'NONE',  ( -119.9999999999999147, 0.000000000000000000, 125.0000000000000000 ) ) ;
#256 = EDGE_CURVE ( 'NONE', #436, #421, #705, .T. ) ;
#257 = DIRECTION ( 'NONE',  ( 0.000000000000000000, 0.000000000000000000, 1.000000000000000000 ) ) ;
#258 = ORIENTED_EDGE ( 'NONE', *, *, #371, .T. ) ;
#259 = FACE_OUTER_BOUND ( 'NONE', #292, .T. ) ;
#260 = ORIENTED_EDGE ( 'NONE', *, *, #461, .T. ) ;
#261 = ADVANCED_FACE ( 'NONE', ( #653 ), #544, .F. ) ;
#262 = DIRECTION ( 'NONE',  ( 0.000000000000000000, 0.000000000000000000, -1.000000000000000000 ) ) ;
#263 = DIRECTION ( 'NONE',  ( 0.000000000000000000, 0.000000000000000000, 1.000000000000000000 ) ) ;
#264 = VERTEX_POINT ( 'NONE', #600 ) ;
#265 = VECTOR ( 'NONE', #163, 1000.000000000000000 ) ;
#266 = EDGE_CURVE ( 'NONE', #154, #471, #596, .T. ) ;
#267 = FACE_BOUND ( 'NONE', #247, .T. ) ;
#268 = LINE ( 'NONE', #702, #487 ) ;
#269 = ORIENTED_EDGE ( 'NONE', *, *, #386, .F. ) ;
#270 = CALENDAR_DATE ( 2026, 31, 7 ) ;
#271 = CARTESIAN_POINT ( 'NONE',  ( -627.0000000000000000, 20.00000000000001776, -75.00000000000000000 ) ) ;
#272 = ORIENTED_EDGE ( 'NONE', *, *, #700, .T. ) ;
#273 = APPROVAL_DATE_TIME ( #106, #37 ) ;
#274 = EDGE_CURVE ( 'NONE', #82, #591, #146, .T. ) ;
#275 = CARTESIAN_POINT ( 'NONE',  ( -827.0000000000001137, 0.000000000000000000, -75.00000000000000000 ) ) ;
#276 = DIRECTION ( 'NONE',  ( 0.000000000000000000, 0.000000000000000000, -1.000000000000000000 ) ) ;
#277 = ORIENTED_EDGE ( 'NONE', *, *, #700, .F. ) ;
#278 = DATE_AND_TIME ( #556, #537 ) ;
#279 = AXIS2_PLACEMENT_3D ( 'NONE', #538, #30, #257 ) ;
#280 = FACE_BOUND ( 'NONE', #493, .T. ) ;
#281 = EDGE_CURVE ( 'NONE', #213, #264, #492, .T. ) ;
#282 = DIRECTION ( 'NONE',  ( -0.000000000000000000, 0.000000000000000000, 1.000000000000000000 ) ) ;
#283 = DIRECTION ( 'NONE',  ( 0.000000000000000000, 1.000000000000000000, 0.000000000000000000 ) ) ;
#284 = PLANE ( 'NONE',  #222 ) ;
#285 = DIRECTION ( 'NONE',  ( 0.000000000000000000, 0.000000000000000000, 1.000000000000000000 ) ) ;
#286 = ORIENTED_EDGE ( 'NONE', *, *, #660, .T. ) ;
#287 = EDGE_CURVE ( 'NONE', #13, #154, #317, .T. ) ;
#288 = AXIS2_PLACEMENT_3D ( 'NONE', #390, #100, #50 ) ;
#289 = VERTEX_POINT ( 'NONE', #698 ) ;
#290 = EDGE_CURVE ( 'NONE', #462, #534, #586, .T. ) ;
#291 = FACE_OUTER_BOUND ( 'NONE', #655, .T. ) ;
#292 = EDGE_LOOP ( 'NONE', ( #245, #269, #3, #638 ) ) ;
#293 = CARTESIAN_POINT ( 'NONE',  ( -860.0000000000000000, 20.00000000000000000, 145.0000000000001705 ) ) ;
#294 = EDGE_CURVE ( 'NONE', #421, #534, #156, .T. ) ;
#295 = DIRECTION ( 'NONE',  ( -0.000000000000000000, -1.000000000000000000, -0.000000000000000000 ) ) ;
#296 = ORIENTED_EDGE ( 'NONE', *, *, #88, .F. ) ;
#297 = VECTOR ( 'NONE', #263, 1000.000000000000000 ) ;
#298 = VECTOR ( 'NONE', #366, 1000.000000000000000 ) ;
#299 = ORIENTED_EDGE ( 'NONE', *, *, #244, .T. ) ;
#300 = VERTEX_POINT ( 'NONE', #305 ) ;
#301 = CARTESIAN_POINT ( 'NONE',  ( -627.0000000000000000, 0.000000000000000000, -75.00000000000000000 ) ) ;
#302 = EDGE_LOOP ( 'NONE', ( #699, #20, #346, #573 ) ) ;
#303 = EDGE_CURVE ( 'NONE', #642, #471, #101, .T. ) ;
#304 = FACE_BOUND ( 'NONE', #517, .T. ) ;
#305 = CARTESIAN_POINT ( 'NONE',  ( -627.0000000000000000, 20.00000000000001776, 75.00000000000000000 ) ) ;
#306 = AXIS2_PLACEMENT_3D ( 'NONE', #241, #351, #467 ) ;
#307 = ORIENTED_EDGE ( 'NONE', *, *, #508, .F. ) ;
#308 = LOCAL_TIME ( 13, 48, 39.00000000000000000, #518 ) ;
#309 = DIRECTION ( 'NONE',  ( 0.000000000000000000, 1.000000000000000000, 0.000000000000000000 ) ) ;
#310 = CARTESIAN_POINT ( 'NONE',  ( -1.548714124239619200E-13, 0.000000000000000000, -145.0000000000000000 ) ) ;
#311 = ORIENTED_EDGE ( 'NONE', *, *, #391, .F. ) ;
#312 = DIRECTION ( 'NONE',  ( -0.000000000000000000, -1.000000000000000000, -0.000000000000000000 ) ) ;
#313 = CARTESIAN_POINT ( 'NONE',  ( -119.9999999999999147, 270.7987240796890660, 125.0000000000000000 ) ) ;
#314 = EDGE_CURVE ( 'NONE', #608, #549, #423, .T. ) ;
#315 = ORIENTED_EDGE ( 'NONE', *, *, #495, .T. ) ;
#316 = PLANE ( 'NONE',  #464 ) ;
#317 = LINE ( 'NONE', #25, #252 ) ;
#318 = ORIENTED_EDGE ( 'NONE', *, *, #287, .F. ) ;
#319 = VECTOR ( 'NONE', #97, 1000.000000000000000 ) ;
#320 = APPROVAL_PERSON_ORGANIZATION ( #172, #37, #551 ) ;
#321 = APPROVAL_STATUS ( 'not_yet_approved' ) ;
#322 = CARTESIAN_POINT ( 'NONE',  ( -627.0000000000000000, 0.000000000000000000, 75.00000000000000000 ) ) ;
#323 = ORIENTED_EDGE ( 'NONE', *, *, #236, .F. ) ;
#324 = ADVANCED_FACE ( 'NONE', ( #610 ), #446, .F. ) ;
#325 = CALENDAR_DATE ( 2026, 31, 7 ) ;
#326 = CARTESIAN_POINT ( 'NONE',  ( -847.0000000000001137, 20.00000000000001776, 75.00000000000001421 ) ) ;
#327 = DIRECTION ( 'NONE',  ( -0.000000000000000000, -1.000000000000000000, -0.000000000000000000 ) ) ;
#328 = EDGE_CURVE ( 'NONE', #594, #404, #2, .T. ) ;
#329 = PERSON_AND_ORGANIZATION_ROLE ( 'classification_officer' ) ;
#330 = DIRECTION ( 'NONE',  ( 0.000000000000000000, 0.000000000000000000, -1.000000000000000000 ) ) ;
#331 = DIRECTION ( 'NONE',  ( 3.828355257328131187E-16, 0.000000000000000000, 1.000000000000000000 ) ) ;
#332 =( NAMED_UNIT ( * ) PLANE_ANGLE_UNIT ( ) SI_UNIT ( $, .RADIAN. ) );
#333 = AXIS2_PLACEMENT_3D ( 'NONE', #486, #152, #697 ) ;
#334 = DIRECTION ( 'NONE',  ( -0.000000000000000000, -0.000000000000000000, -1.000000000000000000 ) ) ;
#335 = ORIENTED_EDGE ( 'NONE', *, *, #157, .F. ) ;
#336 = COORDINATED_UNIVERSAL_TIME_OFFSET ( 3, 30, .AHEAD. ) ;
#337 = CARTESIAN_POINT ( 'NONE',  ( -847.0000000000001137, 20.00000000000001776, 75.00000000000001421 ) ) ;
#338 = LINE ( 'NONE', #611, #613 ) ;
#339 = DIRECTION ( 'NONE',  ( -0.000000000000000000, -1.000000000000000000, -0.000000000000000000 ) ) ;
#340 = EDGE_LOOP ( 'NONE', ( #411, #187, #604, #581 ) ) ;
#341 = CC_DESIGN_PERSON_AND_ORGANIZATION_ASSIGNMENT ( #110, #329, ( #474 ) ) ;
#342 = VERTEX_POINT ( 'NONE', #392 ) ;
#343 = VECTOR ( 'NONE', #367, 1000.000000000000000 ) ;
#344 = VECTOR ( 'NONE', #643, 1000.000000000000000 ) ;
#345 = DIRECTION ( 'NONE',  ( -1.000000000000000000, 0.000000000000000000, 4.286263797015736595E-16 ) ) ;
#346 = ORIENTED_EDGE ( 'NONE', *, *, #203, .T. ) ;
#347 = EDGE_CURVE ( 'NONE', #13, #425, #501, .T. ) ;
#348 = CARTESIAN_POINT ( 'NONE',  ( -139.9999999999999147, 0.000000000000000000, -125.0000000000000000 ) ) ;
#349 = CARTESIAN_POINT ( 'NONE',  ( -119.9999999999999147, 20.00000000000001776, -125.0000000000000000 ) ) ;
#350 = VERTEX_POINT ( 'NONE', #617 ) ;
#351 = DIRECTION ( 'NONE',  ( 6.938893903907222461E-16, -0.000000000000000000, 1.000000000000000000 ) ) ;
#352 = ORIENTED_EDGE ( 'NONE', *, *, #11, .F. ) ;
#353 = CALENDAR_DATE ( 2026, 31, 7 ) ;
#354 = VECTOR ( 'NONE', #282, 1000.000000000000000 ) ;
#355 =( GEOMETRIC_REPRESENTATION_CONTEXT ( 3 ) GLOBAL_UNCERTAINTY_ASSIGNED_CONTEXT ( ( #243 ) ) GLOBAL_UNIT_ASSIGNED_CONTEXT ( ( #43, #332, #168 ) ) REPRESENTATION_CONTEXT ( 'NONE', 'WORKASPACE' ) );
#356 = DIRECTION ( 'NONE',  ( -1.000000000000000000, 0.000000000000000000, 2.312964634635742957E-16 ) ) ;
#357 = ORIENTED_EDGE ( 'NONE', *, *, #386, .T. ) ;
#358 = DIRECTION ( 'NONE',  ( 0.000000000000000000, -0.000000000000000000, 1.000000000000000000 ) ) ;
#359 = CARTESIAN_POINT ( 'NONE',  ( -627.0000000000000000, 20.00000000000001776, -75.00000000000000000 ) ) ;
#360 = EDGE_CURVE ( 'NONE', #715, #45, #601, .T. ) ;
#361 = ORIENTED_EDGE ( 'NONE', *, *, #371, .F. ) ;
#362 = CARTESIAN_POINT ( 'NONE',  ( -860.0000000000000000, 0.000000000000000000, 45.00000000000018474 ) ) ;
#363 = CARTESIAN_POINT ( 'NONE',  ( -860.0000000000002274, 20.00000000000000000, -144.9999999999994316 ) ) ;
#364 = ORIENTED_EDGE ( 'NONE', *, *, #180, .F. ) ;
#365 = APPROVAL ( #609, 'UNSPECIFIED' ) ;
#366 = DIRECTION ( 'NONE',  ( -1.000000000000000000, 0.000000000000000000, 0.000000000000000000 ) ) ;
#367 = DIRECTION ( 'NONE',  ( -0.000000000000000000, -1.000000000000000000, -0.000000000000000000 ) ) ;
#368 = VECTOR ( 'NONE', #398, 1000.000000000000000 ) ;
#369 = EDGE_LOOP ( 'NONE', ( #494, #221, #16, #42, #218, #408 ) ) ;
#370 = VECTOR ( 'NONE', #459, 1000.000000000000000 ) ;
#371 = EDGE_CURVE ( 'NONE', #421, #608, #667, .T. ) ;
#372 = PLANE ( 'NONE',  #54 ) ;
#373 = DIRECTION ( 'NONE',  ( -1.000000000000000000, 0.000000000000000000, 6.938893903907222461E-16 ) ) ;
#374 = ORIENTED_EDGE ( 'NONE', *, *, #65, .F. ) ;
#375 = DIRECTION ( 'NONE',  ( 0.000000000000000000, 0.000000000000000000, -1.000000000000000000 ) ) ;
#376 = DIRECTION ( 'NONE',  ( -0.000000000000000000, -1.000000000000000000, -0.000000000000000000 ) ) ;
#377 = VERTEX_POINT ( 'NONE', #57 ) ;
#378 = PERSON_AND_ORGANIZATION_ROLE ( 'design_owner' ) ;
#379 = CARTESIAN_POINT ( 'NONE',  ( -119.9999999999999147, 0.000000000000000000, -125.0000000000000000 ) ) ;
#380 = ORIENTED_EDGE ( 'NONE', *, *, #569, .F. ) ;
#381 = LOCAL_TIME ( 13, 48, 39.00000000000000000, #382 ) ;
#382 = COORDINATED_UNIVERSAL_TIME_OFFSET ( 3, 30, .AHEAD. ) ;
#383 = PRODUCT_DEFINITION_SHAPE ( 'NONE', 'NONE',  #28 ) ;
#384 = CARTESIAN_POINT ( 'NONE',  ( -860.0000000000000000, 20.00000000000000000, 45.00000000000018474 ) ) ;
#385 = EDGE_LOOP ( 'NONE', ( #447, #95, #587, #143 ) ) ;
#386 = EDGE_CURVE ( 'NONE', #176, #715, #450, .T. ) ;
#387 = DIRECTION ( 'NONE',  ( -1.000000000000000000, 0.000000000000000000, 0.000000000000000000 ) ) ;
#388 = DIRECTION ( 'NONE',  ( -1.000000000000000000, 0.000000000000000000, 6.360652745248293008E-16 ) ) ;
#389 = DIRECTION ( 'NONE',  ( 1.000000000000000000, 0.000000000000000000, -0.000000000000000000 ) ) ;
#390 = CARTESIAN_POINT ( 'NONE',  ( 0.000000000000000000, 0.000000000000000000, 0.000000000000000000 ) ) ;
#391 = EDGE_CURVE ( 'NONE', #654, #703, #397, .T. ) ;
#392 = CARTESIAN_POINT ( 'NONE',  ( -827.0000000000001137, 0.000000000000000000, -75.00000000000000000 ) ) ;
#393 = ORIENTED_EDGE ( 'NONE', *, *, #303, .T. ) ;
#394 = VECTOR ( 'NONE', #692, 1000.000000000000000 ) ;
#395 = AXIS2_PLACEMENT_3D ( 'NONE', #169, #439, #657 ) ;
#396 = COORDINATED_UNIVERSAL_TIME_OFFSET ( 3, 30, .AHEAD. ) ;
#397 = LINE ( 'NONE', #322, #18 ) ;
#398 = DIRECTION ( 'NONE',  ( 3.828355257328131187E-16, 0.000000000000000000, 1.000000000000000000 ) ) ;
#399 = ADVANCED_BREP_SHAPE_REPRESENTATION ( 'BasePlate_Default_sldprt', ( #200, #288 ), #355 ) ;
#400 = LINE ( 'NONE', #451, #368 ) ;
#401 = CARTESIAN_POINT ( 'NONE',  ( -847.0000000000001137, 0.000000000000000000, -75.00000000000001421 ) ) ;
#402 = FACE_OUTER_BOUND ( 'NONE', #67, .T. ) ;
#403 = EDGE_CURVE ( 'NONE', #404, #505, #510, .T. ) ;
#404 = VERTEX_POINT ( 'NONE', #234 ) ;
#405 = AXIS2_PLACEMENT_3D ( 'NONE', #250, #196, #639 ) ;
#406 = CARTESIAN_POINT ( 'NONE',  ( -627.0000000000000000, 270.7987240796890660, 75.00000000000000000 ) ) ;
#407 = PLANE ( 'NONE',  #428 ) ;
#408 = ORIENTED_EDGE ( 'NONE', *, *, #88, .T. ) ;
#409 = DIRECTION ( 'NONE',  ( 6.360652745248293008E-16, -0.000000000000000000, 1.000000000000000000 ) ) ;
#410 = CARTESIAN_POINT ( 'NONE',  ( -960.0000000000000000, 0.000000000000000000, 45.00000000000023448 ) ) ;
#411 = ORIENTED_EDGE ( 'NONE', *, *, #328, .T. ) ;
#412 = ORIENTED_EDGE ( 'NONE', *, *, #256, .T. ) ;
#413 = DIRECTION ( 'NONE',  ( 0.000000000000000000, -1.000000000000000000, 0.000000000000000000 ) ) ;
#414 = ADVANCED_FACE ( 'NONE', ( #562, #280, #225, #44 ), #119, .T. ) ;
#415 = AXIS2_PLACEMENT_3D ( 'NONE', #29, #491, #652 ) ;
#416 = FACE_OUTER_BOUND ( 'NONE', #385, .T. ) ;
#417 = ORIENTED_EDGE ( 'NONE', *, *, #214, .T. ) ;
#418 = CARTESIAN_POINT ( 'NONE',  ( -139.9999999999999147, 270.7987240796890660, -125.0000000000000000 ) ) ;
#419 = DIRECTION ( 'NONE',  ( -0.000000000000000000, -1.000000000000000000, -0.000000000000000000 ) ) ;
#420 = CC_DESIGN_PERSON_AND_ORGANIZATION_ASSIGNMENT ( #155, #378, ( #217 ) ) ;
#421 = VERTEX_POINT ( 'NONE', #337 ) ;
#422 = CYLINDRICAL_SURFACE ( 'NONE', #712, 100.0000000000000142 ) ;
#423 = LINE ( 'NONE', #479, #209 ) ;
#424 = DESIGN_CONTEXT ( 'detailed design', #683, 'design' ) ;
#425 = VERTEX_POINT ( 'NONE', #60 ) ;
#426 = EDGE_CURVE ( 'NONE', #76, #103, #506, .T. ) ;
#427 = CARTESIAN_POINT ( 'NONE',  ( -960.0000000000000000, 20.00000000000000000, 145.0000000000001990 ) ) ;
#428 = AXIS2_PLACEMENT_3D ( 'NONE', #626, #128, #71 ) ;
#429 = DIRECTION ( 'NONE',  ( -0.000000000000000000, -1.000000000000000000, -0.000000000000000000 ) ) ;
#430 = AXIS2_PLACEMENT_3D ( 'NONE', #663, #102, #175 ) ;
#431 = ORIENTED_EDGE ( 'NONE', *, *, #426, .T. ) ;
#432 = CARTESIAN_POINT ( 'NONE',  ( -860.0000000000001137, 20.00000000000000000, -44.99999999999944578 ) ) ;
#433 = LINE ( 'NONE', #640, #173 ) ;
#434 = ORIENTED_EDGE ( 'NONE', *, *, #440, .T. ) ;
#435 = DIRECTION ( 'NONE',  ( -0.000000000000000000, -1.000000000000000000, -0.000000000000000000 ) ) ;
#436 = VERTEX_POINT ( 'NONE', #228 ) ;
#437 = ORIENTED_EDGE ( 'NONE', *, *, #287, .T. ) ;
#438 = CARTESIAN_POINT ( 'NONE',  ( -627.0000000000000000, 0.000000000000000000, 75.00000000000000000 ) ) ;
#439 = DIRECTION ( 'NONE',  ( 1.000000000000000000, 0.000000000000000000, 0.000000000000000000 ) ) ;
#440 = EDGE_CURVE ( 'NONE', #591, #154, #5, .T. ) ;
#441 = ORIENTED_EDGE ( 'NONE', *, *, #391, .T. ) ;
#442 = PERSON_AND_ORGANIZATION_ROLE ( 'design_supplier' ) ;
#443 = PERSON ( 'UNSPECIFIED', 'UNSPECIFIED', 'UNSPECIFIED', ('UNSPECIFIED'), ('UNSPECIFIED'), ('UNSPECIFIED') ) ;
#444 = FACE_OUTER_BOUND ( 'NONE', #661, .T. ) ;
#445 = COORDINATED_UNIVERSAL_TIME_OFFSET ( 3, 30, .AHEAD. ) ;
#446 = PLANE ( 'NONE',  #430 ) ;
#447 = ORIENTED_EDGE ( 'NONE', *, *, #180, .T. ) ;
#448 = EDGE_CURVE ( 'NONE', #289, #598, #612, .T. ) ;
#449 = MECHANICAL_CONTEXT ( 'NONE', #649, 'mechanical' ) ;
#450 = LINE ( 'NONE', #558, #17 ) ;
#451 = CARTESIAN_POINT ( 'NONE',  ( -960.0000000000001137, 20.00000000000000000, -144.9999999999993747 ) ) ;
#452 = VECTOR ( 'NONE', #295, 1000.000000000000000 ) ;
#453 = VECTOR ( 'NONE', #619, 1000.000000000000000 ) ;
#454 = APPROVAL_DATE_TIME ( #68, #500 ) ;
#455 = DIRECTION ( 'NONE',  ( -4.286263797015736595E-16, 0.000000000000000000, -1.000000000000000000 ) ) ;
#456 = CARTESIAN_POINT ( 'NONE',  ( -647.0000000000000000, 270.7987240796890660, 75.00000000000000000 ) ) ;
#457 = ADVANCED_FACE ( 'NONE', ( #708 ), #220, .F. ) ;
#458 = DIRECTION ( 'NONE',  ( -4.286263797015736595E-16, 0.000000000000000000, -1.000000000000000000 ) ) ;
#459 = DIRECTION ( 'NONE',  ( -0.000000000000000000, -1.000000000000000000, -0.000000000000000000 ) ) ;
#460 = CARTESIAN_POINT ( 'NONE',  ( -3.056976231050558052E-14, 20.00000000000000000, 145.0000000000000000 ) ) ;
#461 = EDGE_CURVE ( 'NONE', #26, #631, #116, .T. ) ;
#462 = VERTEX_POINT ( 'NONE', #554 ) ;
#463 = AXIS2_PLACEMENT_3D ( 'NONE', #49, #63, #276 ) ;
#464 = AXIS2_PLACEMENT_3D ( 'NONE', #89, #546, #358 ) ;
#465 = LINE ( 'NONE', #349, #503 ) ;
#466 = ORIENTED_EDGE ( 'NONE', *, *, #448, .T. ) ;
#467 = DIRECTION ( 'NONE',  ( 1.000000000000000000, 0.000000000000000000, -6.938893903907222461E-16 ) ) ;
#468 = EDGE_LOOP ( 'NONE', ( #412, #258, #659, #645 ) ) ;
#469 = EDGE_CURVE ( 'NONE', #342, #462, #48, .T. ) ;
#470 = DIRECTION ( 'NONE',  ( -0.000000000000000000, -1.000000000000000000, -0.000000000000000000 ) ) ;
#471 = VERTEX_POINT ( 'NONE', #21 ) ;
#472 = DIRECTION ( 'NONE',  ( -0.000000000000000000, -1.000000000000000000, -0.000000000000000000 ) ) ;
#473 = VECTOR ( 'NONE', #483, 1000.000000000000000 ) ;
#474 = SECURITY_CLASSIFICATION ( '', '', #662 ) ;
#475 = CARTESIAN_POINT ( 'NONE',  ( -827.0000000000001137, 20.00000000000001776, -75.00000000000000000 ) ) ;
#476 = CC_DESIGN_SECURITY_CLASSIFICATION ( #474, ( #625 ) ) ;
#477 = ORIENTED_EDGE ( 'NONE', *, *, #65, .T. ) ;
#478 = LINE ( 'NONE', #694, #344 ) ;
#479 = CARTESIAN_POINT ( 'NONE',  ( -847.0000000000001137, 20.00000000000001776, -75.00000000000001421 ) ) ;
#480 = EDGE_CURVE ( 'NONE', #436, #462, #178, .T. ) ;
#481 = EDGE_LOOP ( 'NONE', ( #311, #151, #696, #603 ) ) ;
#482 = LINE ( 'NONE', #301, #671 ) ;
#483 = DIRECTION ( 'NONE',  ( -1.000000000000000000, 0.000000000000000000, 6.938893903907222461E-16 ) ) ;
#484 = EDGE_CURVE ( 'NONE', #264, #105, #571, .T. ) ;
#485 = EDGE_LOOP ( 'NONE', ( #299, #441, #668, #31 ) ) ;
#486 = CARTESIAN_POINT ( 'NONE',  ( -860.0000000000000000, 20.00000000000000000, 45.00000000000018474 ) ) ;
#487 = VECTOR ( 'NONE', #419, 1000.000000000000000 ) ;
#488 = DIRECTION ( 'NONE',  ( 1.000000000000000000, 0.000000000000000000, -2.312964634635742957E-16 ) ) ;
#489 = VECTOR ( 'NONE', #215, 1000.000000000000000 ) ;
#490 = ORIENTED_EDGE ( 'NONE', *, *, #621, .T. ) ;
#491 = DIRECTION ( 'NONE',  ( 6.938893903907222461E-16, 0.000000000000000000, -1.000000000000000000 ) ) ;
#492 = LINE ( 'NONE', #541, #99 ) ;
#493 = EDGE_LOOP ( 'NONE', ( #431, #194, #272, #513 ) ) ;
#494 = ORIENTED_EDGE ( 'NONE', *, *, #347, .T. ) ;
#495 = EDGE_CURVE ( 'NONE', #184, #342, #192, .T. ) ;
#496 = CALENDAR_DATE ( 2026, 31, 7 ) ;
#497 = CARTESIAN_POINT ( 'NONE',  ( -3.056976231050558052E-14, 0.000000000000000000, 145.0000000000000000 ) ) ;
#498 = EDGE_LOOP ( 'NONE', ( #204, #688, #706, #437 ) ) ;
#499 = APPROVAL_DATE_TIME ( #47, #365 ) ;
#500 = APPROVAL ( #677, 'UNSPECIFIED' ) ;
#501 = LINE ( 'NONE', #165, #658 ) ;
#502 = DIRECTION ( 'NONE',  ( 0.000000000000000000, 0.000000000000000000, 1.000000000000000000 ) ) ;
#503 = VECTOR ( 'NONE', #186, 1000.000000000000000 ) ;
#504 = VECTOR ( 'NONE', #231, 1000.000000000000000 ) ;
#505 = VERTEX_POINT ( 'NONE', #675 ) ;
#506 = LINE ( 'NONE', #271, #87 ) ;
#507 = ORIENTED_EDGE ( 'NONE', *, *, #294, .F. ) ;
#508 = EDGE_CURVE ( 'NONE', #608, #184, #577, .T. ) ;
#509 = CARTESIAN_POINT ( 'NONE',  ( -647.0000000000000000, 20.00000000000001776, 75.00000000000000000 ) ) ;
#510 = LINE ( 'NONE', #552, #615 ) ;
#511 = EDGE_LOOP ( 'NONE', ( #553, #315, #35, #22 ) ) ;
#512 = DIRECTION ( 'NONE',  ( -0.000000000000000000, -0.000000000000000000, 1.000000000000000000 ) ) ;
#513 = ORIENTED_EDGE ( 'NONE', *, *, #183, .T. ) ;
#514 = VECTOR ( 'NONE', #327, 1000.000000000000000 ) ;
#515 = APPROVAL_PERSON_ORGANIZATION ( #219, #365, #160 ) ;
#516 = DIRECTION ( 'NONE',  ( 1.000000000000000000, 0.000000000000000000, 0.000000000000000000 ) ) ;
#517 = EDGE_LOOP ( 'NONE', ( #136, #380, #323, #579 ) ) ;
#518 = COORDINATED_UNIVERSAL_TIME_OFFSET ( 3, 30, .AHEAD. ) ;
#519 = ADVANCED_FACE ( 'NONE', ( #566 ), #622, .F. ) ;
#520 = LINE ( 'NONE', #406, #370 ) ;
#521 = CARTESIAN_POINT ( 'NONE',  ( -1.548714124239619200E-13, 0.000000000000000000, -145.0000000000000000 ) ) ;
#522 = EDGE_LOOP ( 'NONE', ( #682, #563, #216, #170 ) ) ;
#523 = DIRECTION ( 'NONE',  ( 0.000000000000000000, -1.000000000000000000, 0.000000000000000000 ) ) ;
#524 = EDGE_LOOP ( 'NONE', ( #417, #199, #606, #542 ) ) ;
#525 = VECTOR ( 'NONE', #179, 1000.000000000000000 ) ;
#526 = VECTOR ( 'NONE', #686, 1000.000000000000000 ) ;
#527 = CARTESIAN_POINT ( 'NONE',  ( -119.9999999999999147, 270.7987240796890660, -125.0000000000000000 ) ) ;
#528 = EDGE_CURVE ( 'NONE', #300, #703, #520, .T. ) ;
#529 = ORIENTED_EDGE ( 'NONE', *, *, #303, .F. ) ;
#530 = FACE_OUTER_BOUND ( 'NONE', #253, .T. ) ;
#531 = ORIENTED_EDGE ( 'NONE', *, *, #134, .F. ) ;
#532 = DIRECTION ( 'NONE',  ( 1.000000000000000000, -0.000000000000000000, -0.000000000000000000 ) ) ;
#533 = LINE ( 'NONE', #363, #394 ) ;
#534 = VERTEX_POINT ( 'NONE', #574 ) ;
#535 = EDGE_CURVE ( 'NONE', #45, #377, #70, .T. ) ;
#536 = PLANE ( 'NONE',  #415 ) ;
#537 = LOCAL_TIME ( 13, 48, 39.00000000000000000, #445 ) ;
#538 = CARTESIAN_POINT ( 'NONE',  ( -860.0000000000001137, 0.000000000000000000, -44.99999999999944578 ) ) ;
#539 = EDGE_LOOP ( 'NONE', ( #466, #158, #260, #147 ) ) ;
#540 = DIRECTION ( 'NONE',  ( 0.000000000000000000, 0.000000000000000000, 1.000000000000000000 ) ) ;
#541 = CARTESIAN_POINT ( 'NONE',  ( -139.9999999999999147, 0.000000000000000000, 125.0000000000000000 ) ) ;
#542 = ORIENTED_EDGE ( 'NONE', *, *, #448, .F. ) ;
#543 = CARTESIAN_POINT ( 'NONE',  ( -139.9999999999999147, 270.7987240796890660, -125.0000000000000000 ) ) ;
#544 = PLANE ( 'NONE',  #634 ) ;
#545 = ORIENTED_EDGE ( 'NONE', *, *, #528, .T. ) ;
#546 = DIRECTION ( 'NONE',  ( 0.000000000000000000, 1.000000000000000000, 0.000000000000000000 ) ) ;
#547 = VECTOR ( 'NONE', #90, 1000.000000000000000 ) ;
#548 = CIRCLE ( 'NONE', #149, 100.0000000000000000 ) ;
#549 = VERTEX_POINT ( 'NONE', #629 ) ;
#550 = ADVANCED_FACE ( 'NONE', ( #131 ), #536, .F. ) ;
#551 = APPROVAL_ROLE ( '' ) ;
#552 = CARTESIAN_POINT ( 'NONE',  ( -647.0000000000000000, 0.000000000000000000, -75.00000000000000000 ) ) ;
#553 = ORIENTED_EDGE ( 'NONE', *, *, #508, .T. ) ;
#554 = CARTESIAN_POINT ( 'NONE',  ( -827.0000000000001137, 0.000000000000000000, 75.00000000000000000 ) ) ;
#555 = CARTESIAN_POINT ( 'NONE',  ( -860.0000000000000000, 20.00000000000000000, 145.0000000000001705 ) ) ;
#556 = CALENDAR_DATE ( 2026, 31, 7 ) ;
#557 = ADVANCED_FACE ( 'NONE', ( #701 ), #205, .F. ) ;
#558 = CARTESIAN_POINT ( 'NONE',  ( -960.0000000000000000, 20.00000000000000000, 45.00000000000023448 ) ) ;
#559 = LINE ( 'NONE', #55, #354 ) ;
#560 = AXIS2_PLACEMENT_3D ( 'NONE', #588, #309, #540 ) ;
#561 = PERSON_AND_ORGANIZATION ( #443, #233 ) ;
#562 = FACE_BOUND ( 'NONE', #539, .T. ) ;
#563 = ORIENTED_EDGE ( 'NONE', *, *, #469, .T. ) ;
#564 = DIRECTION ( 'NONE',  ( 0.000000000000000000, -0.000000000000000000, 1.000000000000000000 ) ) ;
#565 = CARTESIAN_POINT ( 'NONE',  ( -647.0000000000000000, 20.00000000000000000, -75.00000000000000000 ) ) ;
#566 = FACE_OUTER_BOUND ( 'NONE', #498, .T. ) ;
#567 = ORIENTED_EDGE ( 'NONE', *, *, #672, .F. ) ;
#568 = CLOSED_SHELL ( 'NONE', ( #144, #519, #557, #104, #414, #623, #597, #607, #93, #51, #550, #457, #651, #46, #59, #324, #261, #167, #584, #130 ) ) ;
#569 = EDGE_CURVE ( 'NONE', #98, #213, #646, .T. ) ;
#570 = VECTOR ( 'NONE', #472, 1000.000000000000000 ) ;
#571 = LINE ( 'NONE', #348, #526 ) ;
#572 = DIRECTION ( 'NONE',  ( 4.286263797015736595E-16, 0.000000000000000000, 1.000000000000000000 ) ) ;
#573 = ORIENTED_EDGE ( 'NONE', *, *, #274, .F. ) ;
#574 = CARTESIAN_POINT ( 'NONE',  ( -847.0000000000001137, 0.000000000000000000, 75.00000000000001421 ) ) ;
#575 = DIRECTION ( 'NONE',  ( 0.000000000000000000, 0.000000000000000000, -1.000000000000000000 ) ) ;
#576 = EDGE_LOOP ( 'NONE', ( #140, #627, #679, #159 ) ) ;
#577 = LINE ( 'NONE', #121, #195 ) ;
#578 = PLANE ( 'NONE',  #306 ) ;
#579 = ORIENTED_EDGE ( 'NONE', *, *, #484, .F. ) ;
#580 = VECTOR ( 'NONE', #673, 1000.000000000000000 ) ;
#581 = ORIENTED_EDGE ( 'NONE', *, *, #183, .F. ) ;
#582 = CARTESIAN_POINT ( 'NONE',  ( -847.0000000000001137, 20.00000000000001776, -75.00000000000001421 ) ) ;
#583 = ORIENTED_EDGE ( 'NONE', *, *, #628, .T. ) ;
#584 = ADVANCED_FACE ( 'NONE', ( #150 ), #372, .F. ) ;
#585 = DIRECTION ( 'NONE',  ( 0.000000000000000000, 0.000000000000000000, 1.000000000000000000 ) ) ;
#586 = LINE ( 'NONE', #202, #656 ) ;
#587 = ORIENTED_EDGE ( 'NONE', *, *, #214, .F. ) ;
#588 = CARTESIAN_POINT ( 'NONE',  ( -860.0000000000001137, 20.00000000000000000, -44.99999999999944578 ) ) ;
#589 = AXIS2_PLACEMENT_3D ( 'NONE', #53, #283, #564 ) ;
#590 = DIRECTION ( 'NONE',  ( 1.000000000000000000, -0.000000000000000000, 6.938893903907222461E-16 ) ) ;
#591 = VERTEX_POINT ( 'NONE', #211 ) ;
#592 = LINE ( 'NONE', #418, #570 ) ;
#593 = LINE ( 'NONE', #475, #297 ) ;
#594 = VERTEX_POINT ( 'NONE', #83 ) ;
#595 = DIRECTION ( 'NONE',  ( 1.000000000000000000, 0.000000000000000000, -3.828355257328131187E-16 ) ) ;
#596 = LINE ( 'NONE', #310, #319 ) ;
#597 = ADVANCED_FACE ( 'NONE', ( #704 ), #422, .T. ) ;
#598 = VERTEX_POINT ( 'NONE', #138 ) ;
#599 = APPLICATION_PROTOCOL_DEFINITION ( 'international standard', 'config_control_design', 1994, #683 ) ;
#600 = CARTESIAN_POINT ( 'NONE',  ( -139.9999999999999147, 0.000000000000000000, -125.0000000000000000 ) ) ;
#601 = CIRCLE ( 'NONE', #182, 100.0000000000000000 ) ;
#602 = CC_DESIGN_DATE_AND_TIME_ASSIGNMENT ( #278, #227, ( #474 ) ) ;
#603 = ORIENTED_EDGE ( 'NONE', *, *, #628, .F. ) ;
#604 = ORIENTED_EDGE ( 'NONE', *, *, #34, .F. ) ;
#605 = CARTESIAN_POINT ( 'NONE',  ( -139.9999999999999147, 20.00000000000001776, -125.0000000000000000 ) ) ;
#606 = ORIENTED_EDGE ( 'NONE', *, *, #78, .F. ) ;
#607 = ADVANCED_FACE ( 'NONE', ( #259 ), #36, .T. ) ;
#608 = VERTEX_POINT ( 'NONE', #582 ) ;
#609 = APPROVAL_STATUS ( 'not_yet_approved' ) ;
#610 = FACE_OUTER_BOUND ( 'NONE', #340, .T. ) ;
#611 = CARTESIAN_POINT ( 'NONE',  ( -960.0000000000001137, 0.000000000000000000, -144.9999999999993747 ) ) ;
#612 = LINE ( 'NONE', #161, #580 ) ;
#613 = VECTOR ( 'NONE', #331, 1000.000000000000000 ) ;
#614 = CARTESIAN_POINT ( 'NONE',  ( -1.548714124239619200E-13, 20.00000000000000000, -145.0000000000000000 ) ) ;
#615 = VECTOR ( 'NONE', #334, 1000.000000000000000 ) ;
#616 = PERSON_AND_ORGANIZATION ( #443, #233 ) ;
#617 = CARTESIAN_POINT ( 'NONE',  ( -960.0000000000001137, 20.00000000000000000, -44.99999999999940314 ) ) ;
#618 = CARTESIAN_POINT ( 'NONE',  ( -847.0000000000001137, 270.7987240796890660, 75.00000000000001421 ) ) ;
#619 = DIRECTION ( 'NONE',  ( 1.000000000000000000, 0.000000000000000000, 6.938893903907222461E-16 ) ) ;
#620 = LINE ( 'NONE', #229, #452 ) ;
#621 = EDGE_CURVE ( 'NONE', #26, #264, #592, .T. ) ;
#622 = PLANE ( 'NONE',  #137 ) ;
#623 = ADVANCED_FACE ( 'NONE', ( #304, #39, #267, #96 ), #316, .F. ) ;
#624 = ORIENTED_EDGE ( 'NONE', *, *, #256, .F. ) ;
#625 = PRODUCT_DEFINITION_FORMATION_WITH_SPECIFIED_SOURCE ( 'ANY', '', #217, .NOT_KNOWN. ) ;
#626 = CARTESIAN_POINT ( 'NONE',  ( -139.9999999999999147, 270.7987240796890660, 125.0000000000000000 ) ) ;
#627 = ORIENTED_EDGE ( 'NONE', *, *, #641, .T. ) ;
#628 = EDGE_CURVE ( 'NONE', #703, #404, #478, .T. ) ;
#629 = CARTESIAN_POINT ( 'NONE',  ( -827.0000000000001137, 20.00000000000001776, -75.00000000000000000 ) ) ;
#630 = LINE ( 'NONE', #527, #113 ) ;
#631 = VERTEX_POINT ( 'NONE', #80 ) ;
#632 = CARTESIAN_POINT ( 'NONE',  ( -960.0000000000000000, 20.00000000000000000, 145.0000000000001990 ) ) ;
#633 = ORIENTED_EDGE ( 'NONE', *, *, #266, .F. ) ;
#634 = AXIS2_PLACEMENT_3D ( 'NONE', #313, #212, #153 ) ;
#635 = AXIS2_PLACEMENT_3D ( 'NONE', #636, #595, #690 ) ;
#636 = CARTESIAN_POINT ( 'NONE',  ( -960.0000000000001137, 20.00000000000000000, -144.9999999999993747 ) ) ;
#637 = CARTESIAN_POINT ( 'NONE',  ( -119.9999999999999147, 270.7987240796890660, -125.0000000000000000 ) ) ;
#638 = ORIENTED_EDGE ( 'NONE', *, *, #535, .F. ) ;
#639 = DIRECTION ( 'NONE',  ( -1.000000000000000000, 0.000000000000000000, -0.000000000000000000 ) ) ;
#640 = CARTESIAN_POINT ( 'NONE',  ( -627.0000000000000000, 270.7987240796890660, -75.00000000000000000 ) ) ;
#641 = EDGE_CURVE ( 'NONE', #505, #654, #482, .T. ) ;
#642 = VERTEX_POINT ( 'NONE', #24 ) ;
#643 = DIRECTION ( 'NONE',  ( -1.000000000000000000, -0.000000000000000000, -0.000000000000000000 ) ) ;
#644 = CARTESIAN_POINT ( 'NONE',  ( -847.0000000000001137, 0.000000000000000000, -75.00000000000001421 ) ) ;
#645 = ORIENTED_EDGE ( 'NONE', *, *, #189, .T. ) ;
#646 = LINE ( 'NONE', #255, #298 ) ;
#647 = VECTOR ( 'NONE', #470, 1000.000000000000000 ) ;
#648 = CARTESIAN_POINT ( 'NONE',  ( -647.0000000000000000, 20.00000000000001776, -75.00000000000000000 ) ) ;
#649 = APPLICATION_CONTEXT ( 'configuration controlled 3d designs of mechanical parts and assemblies' ) ;
#650 = EDGE_LOOP ( 'NONE', ( #374, #393, #633, #7, #693, #286 ) ) ;
#651 = ADVANCED_FACE ( 'NONE', ( #92 ), #145, .F. ) ;
#652 = DIRECTION ( 'NONE',  ( -1.000000000000000000, 0.000000000000000000, -6.938893903907222461E-16 ) ) ;
#653 = FACE_OUTER_BOUND ( 'NONE', #524, .T. ) ;
#654 = VERTEX_POINT ( 'NONE', #141 ) ;
#655 = EDGE_LOOP ( 'NONE', ( #239, #249, #674, #79 ) ) ;
#656 = VECTOR ( 'NONE', #373, 1000.000000000000000 ) ;
#657 = DIRECTION ( 'NONE',  ( 0.000000000000000000, 0.000000000000000000, -1.000000000000000000 ) ) ;
#658 = VECTOR ( 'NONE', #388, 1000.000000000000000 ) ;
#659 = ORIENTED_EDGE ( 'NONE', *, *, #314, .T. ) ;
#660 = EDGE_CURVE ( 'NONE', #377, #176, #548, .T. ) ;
#661 = EDGE_LOOP ( 'NONE', ( #545, #583, #91, #277 ) ) ;
#662 = SECURITY_CLASSIFICATION_LEVEL ( 'unclassified' ) ;
#663 = CARTESIAN_POINT ( 'NONE',  ( -647.0000000000000000, 270.7987240796890660, -75.00000000000000000 ) ) ;
#664 = PLANE ( 'NONE',  #86 ) ;
#665 = CC_DESIGN_PERSON_AND_ORGANIZATION_ASSIGNMENT ( #616, #118, ( #28 ) ) ;
#666 = LINE ( 'NONE', #509, #174 ) ;
#667 = LINE ( 'NONE', #326, #680 ) ;
#668 = ORIENTED_EDGE ( 'NONE', *, *, #528, .F. ) ;
#669 = DIRECTION ( 'NONE',  ( -0.000000000000000000, 1.000000000000000000, -0.000000000000000000 ) ) ;
#670 = ORIENTED_EDGE ( 'NONE', *, *, #484, .T. ) ;
#671 = VECTOR ( 'NONE', #532, 1000.000000000000000 ) ;
#672 = EDGE_CURVE ( 'NONE', #425, #350, #77, .T. ) ;
#673 = DIRECTION ( 'NONE',  ( -1.000000000000000000, 0.000000000000000000, 0.000000000000000000 ) ) ;
#674 = ORIENTED_EDGE ( 'NONE', *, *, #621, .F. ) ;
#675 = CARTESIAN_POINT ( 'NONE',  ( -647.0000000000000000, 0.000000000000000000, -75.00000000000000000 ) ) ;
#676 = CARTESIAN_POINT ( 'NONE',  ( -847.0000000000001137, 0.000000000000000000, 75.00000000000001421 ) ) ;
#677 = APPROVAL_STATUS ( 'not_yet_approved' ) ;
#678 = CARTESIAN_POINT ( 'NONE',  ( -1.548714124239619200E-13, 20.00000000000000000, -145.0000000000000000 ) ) ;
#679 = ORIENTED_EDGE ( 'NONE', *, *, #244, .F. ) ;
#680 = VECTOR ( 'NONE', #330, 1000.000000000000000 ) ;
#681 = CARTESIAN_POINT ( 'NONE',  ( -3.056976231050558052E-14, 20.00000000000000000, 145.0000000000000000 ) ) ;
#682 = ORIENTED_EDGE ( 'NONE', *, *, #23, .T. ) ;
#683 = APPLICATION_CONTEXT ( 'configuration controlled 3d designs of mechanical parts and assemblies' ) ;
#684 = CARTESIAN_POINT ( 'NONE',  ( -139.9999999999999147, 20.00000000000001776, 125.0000000000000000 ) ) ;
#685 = EDGE_LOOP ( 'NONE', ( #567, #41, #529, #335 ) ) ;
#686 = DIRECTION ( 'NONE',  ( 1.000000000000000000, 0.000000000000000000, 0.000000000000000000 ) ) ;
#687 = PLANE ( 'NONE',  #62 ) ;
#688 = ORIENTED_EDGE ( 'NONE', *, *, #198, .T. ) ;
#689 = CC_DESIGN_APPROVAL ( #37, ( #28 ) ) ;
#690 = DIRECTION ( 'NONE',  ( -3.828355257328131187E-16, 0.000000000000000000, -1.000000000000000000 ) ) ;
#691 = EDGE_CURVE ( 'NONE', #45, #82, #32, .T. ) ;
#692 = DIRECTION ( 'NONE',  ( -0.000000000000000000, 1.000000000000000000, -0.000000000000000000 ) ) ;
#693 = ORIENTED_EDGE ( 'NONE', *, *, #203, .F. ) ;
#694 = CARTESIAN_POINT ( 'NONE',  ( -647.0000000000000000, 0.000000000000000000, 75.00000000000000000 ) ) ;
#695 = CARTESIAN_POINT ( 'NONE',  ( -3.056976231050558052E-14, 20.00000000000000000, 145.0000000000000000 ) ) ;
#696 = ORIENTED_EDGE ( 'NONE', *, *, #403, .F. ) ;
#697 = DIRECTION ( 'NONE',  ( 0.000000000000000000, 0.000000000000000000, -1.000000000000000000 ) ) ;
#698 = CARTESIAN_POINT ( 'NONE',  ( -119.9999999999999147, 20.00000000000000000, 125.0000000000000000 ) ) ;
#699 = ORIENTED_EDGE ( 'NONE', *, *, #691, .F. ) ;
#700 = EDGE_CURVE ( 'NONE', #300, #594, #666, .T. ) ;
#701 = FACE_OUTER_BOUND ( 'NONE', #226, .T. ) ;
#702 = CARTESIAN_POINT ( 'NONE',  ( -119.9999999999999147, 270.7987240796890660, 125.0000000000000000 ) ) ;
#703 = VERTEX_POINT ( 'NONE', #438 ) ;
#704 = FACE_OUTER_BOUND ( 'NONE', #685, .T. ) ;
#705 = LINE ( 'NONE', #142, #473 ) ;
#706 = ORIENTED_EDGE ( 'NONE', *, *, #347, .F. ) ;
#707 = DATE_TIME_ROLE ( 'creation_date' ) ;
#708 = FACE_OUTER_BOUND ( 'NONE', #522, .T. ) ;
#709 = EDGE_LOOP ( 'NONE', ( #490, #670, #364, #10 ) ) ;
#710 = PERSON_AND_ORGANIZATION_ROLE ( 'creator' ) ;
#711 = DIRECTION ( 'NONE',  ( 0.000000000000000000, 1.000000000000000000, 0.000000000000000000 ) ) ;
#712 = AXIS2_PLACEMENT_3D ( 'NONE', #432, #413, #375 ) ;
#713 = PLANE ( 'NONE',  #463 ) ;
#714 = DIRECTION ( 'NONE',  ( 1.000000000000000000, -0.000000000000000000, 0.000000000000000000 ) ) ;
#715 = VERTEX_POINT ( 'NONE', #1 ) ;
ENDSEC;
END-ISO-10303-21;
