ISO-10303-21;
HEADER;
FILE_DESCRIPTION (( 'STEP AP203' ),
    '1' );
FILE_NAME ('BigBallBearing_Default_sldprt.STEP',
    '2026-07-31T10:18:40',
    ( '' ),
    ( '' ),
    'SwSTEP 2.0',
    'SolidWorks 2025',
    '' );
FILE_SCHEMA (( 'CONFIG_CONTROL_DESIGN' ));
ENDSEC;

DATA;
#1 = DIRECTION ( 'NONE',  ( 0.000000000000000000, 0.000000000000000000, 1.000000000000000000 ) ) ;
#2 = CYLINDRICAL_SURFACE ( 'NONE', #148, 75.00000000000001421 ) ;
#3 = FACE_OUTER_BOUND ( 'NONE', #19, .T. ) ;
#4 = CARTESIAN_POINT ( 'NONE',  ( 0.000000000000000000, 16.00000000000000000, 0.000000000000000000 ) ) ;
#5 = DIRECTION ( 'NONE',  ( 0.000000000000000000, 0.000000000000000000, 1.000000000000000000 ) ) ;
#6 = DIRECTION ( 'NONE',  ( -0.000000000000000000, -1.000000000000000000, -0.000000000000000000 ) ) ;
#7 = ADVANCED_FACE ( 'NONE', ( #39, #23 ), #220, .F. ) ;
#8 = DIRECTION ( 'NONE',  ( 0.000000000000000000, 0.000000000000000000, 1.000000000000000000 ) ) ;
#9 = APPROVAL_PERSON_ORGANIZATION ( #95, #33, #113 ) ;
#10 = DIRECTION ( 'NONE',  ( 0.000000000000000000, 0.000000000000000000, 1.000000000000000000 ) ) ;
#11 = PERSON_AND_ORGANIZATION_ROLE ( 'design_supplier' ) ;
#12 = PRODUCT_RELATED_PRODUCT_CATEGORY ( 'detail', '', ( #114 ) ) ;
#13 = PERSON_AND_ORGANIZATION_ROLE ( 'creator' ) ;
#14 = PERSON_AND_ORGANIZATION_ROLE ( 'design_owner' ) ;
#15 = APPROVAL_STATUS ( 'not_yet_approved' ) ;
#16 = CIRCLE ( 'NONE', #160, 75.00000000000001421 ) ;
#17 = AXIS2_PLACEMENT_3D ( 'NONE', #243, #8, #49 ) ;
#18 = ADVANCED_FACE ( 'NONE', ( #180, #3 ), #128, .T. ) ;
#19 = EDGE_LOOP ( 'NONE', ( #123, #20 ) ) ;
#20 = ORIENTED_EDGE ( 'NONE', *, *, #76, .T. ) ;
#21 = FACE_OUTER_BOUND ( 'NONE', #177, .T. ) ;
#22 = AXIS2_PLACEMENT_3D ( 'NONE', #104, #215, #59 ) ;
#23 = FACE_OUTER_BOUND ( 'NONE', #57, .T. ) ;
#24 = MANIFOLD_SOLID_BREP ( 'Cut-Extrude1', #103 ) ;
#25 = CARTESIAN_POINT ( 'NONE',  ( 0.000000000000000000, 0.000000000000000000, 0.000000000000000000 ) ) ;
#26 = DIRECTION ( 'NONE',  ( 0.000000000000000000, 1.000000000000000000, 0.000000000000000000 ) ) ;
#27 = EDGE_CURVE ( 'NONE', #184, #213, #16, .T. ) ;
#28 = EDGE_CURVE ( 'NONE', #213, #214, #237, .T. ) ;
#29 = DATE_TIME_ROLE ( 'creation_date' ) ;
#30 = CARTESIAN_POINT ( 'NONE',  ( 9.184850993605150311E-15, 16.00000000000000000, 75.00000000000001421 ) ) ;
#31 = PRODUCT_DEFINITION_SHAPE ( 'NONE', 'NONE',  #100 ) ;
#32 = CALENDAR_DATE ( 2026, 31, 7 ) ;
#33 = APPROVAL ( #245, 'UNSPECIFIED' ) ;
#34 = AXIS2_PLACEMENT_3D ( 'NONE', #126, #83, #106 ) ;
#35 = ORIENTED_EDGE ( 'NONE', *, *, #218, .T. ) ;
#36 = UNCERTAINTY_MEASURE_WITH_UNIT (LENGTH_MEASURE( 1.000000000000000082E-05 ), #67, 'distance_accuracy_value', 'NONE');
#37 = ORIENTED_EDGE ( 'NONE', *, *, #28, .F. ) ;
#38 = CYLINDRICAL_SURFACE ( 'NONE', #54, 60.00000000000000000 ) ;
#39 = FACE_BOUND ( 'NONE', #77, .T. ) ;
#40 = CC_DESIGN_APPROVAL ( #197, ( #136 ) ) ;
#41 = EDGE_CURVE ( 'NONE', #205, #156, #194, .T. ) ;
#42 = ORIENTED_EDGE ( 'NONE', *, *, #28, .T. ) ;
#43 = CYLINDRICAL_SURFACE ( 'NONE', #122, 60.00000000000000000 ) ;
#44 = ORIENTED_EDGE ( 'NONE', *, *, #174, .F. ) ;
#45 = LOCAL_TIME ( 13, 48, 40.00000000000000000, #151 ) ;
#46 = CARTESIAN_POINT ( 'NONE',  ( 0.000000000000000000, 0.000000000000000000, -75.00000000000001421 ) ) ;
#47 = VECTOR ( 'NONE', #81, 1000.000000000000000 ) ;
#48 = DIRECTION ( 'NONE',  ( 0.000000000000000000, 0.000000000000000000, -1.000000000000000000 ) ) ;
#49 = DIRECTION ( 'NONE',  ( 1.000000000000000000, 0.000000000000000000, 0.000000000000000000 ) ) ;
#50 = ORGANIZATION ( 'UNSPECIFIED', 'UNSPECIFIED', '' ) ;
#51 = CYLINDRICAL_SURFACE ( 'NONE', #60, 75.00000000000001421 ) ;
#52 = APPROVAL_DATE_TIME ( #226, #197 ) ;
#53 = PERSON_AND_ORGANIZATION_ROLE ( 'classification_officer' ) ;
#54 = AXIS2_PLACEMENT_3D ( 'NONE', #109, #63, #201 ) ;
#55 = ADVANCED_FACE ( 'NONE', ( #165 ), #2, .T. ) ;
#56 = CC_DESIGN_DATE_AND_TIME_ASSIGNMENT ( #168, #29, ( #100 ) ) ;
#57 = EDGE_LOOP ( 'NONE', ( #159, #120 ) ) ;
#58 = DIRECTION ( 'NONE',  ( -0.000000000000000000, -1.000000000000000000, -0.000000000000000000 ) ) ;
#59 = DIRECTION ( 'NONE',  ( 0.000000000000000000, -0.000000000000000000, 1.000000000000000000 ) ) ;
#60 = AXIS2_PLACEMENT_3D ( 'NONE', #110, #6, #48 ) ;
#61 = EDGE_CURVE ( 'NONE', #214, #161, #119, .T. ) ;
#62 = DIRECTION ( 'NONE',  ( 0.000000000000000000, 0.000000000000000000, -1.000000000000000000 ) ) ;
#63 = DIRECTION ( 'NONE',  ( -0.000000000000000000, -1.000000000000000000, -0.000000000000000000 ) ) ;
#64 = PERSON ( 'UNSPECIFIED', 'UNSPECIFIED', 'UNSPECIFIED', ('UNSPECIFIED'), ('UNSPECIFIED'), ('UNSPECIFIED') ) ;
#65 = FACE_OUTER_BOUND ( 'NONE', #232, .T. ) ;
#66 = CARTESIAN_POINT ( 'NONE',  ( 0.000000000000000000, 16.00000000000000000, -75.00000000000001421 ) ) ;
#67 =( LENGTH_UNIT ( ) NAMED_UNIT ( * ) SI_UNIT ( .MILLI., .METRE. ) );
#68 = COORDINATED_UNIVERSAL_TIME_OFFSET ( 3, 30, .AHEAD. ) ;
#69 = CIRCLE ( 'NONE', #240, 75.00000000000001421 ) ;
#70 = CARTESIAN_POINT ( 'NONE',  ( 0.000000000000000000, 0.000000000000000000, 0.000000000000000000 ) ) ;
#71 = APPROVAL_ROLE ( '' ) ;
#72 = COORDINATED_UNIVERSAL_TIME_OFFSET ( 3, 30, .AHEAD. ) ;
#73 = CC_DESIGN_PERSON_AND_ORGANIZATION_ASSIGNMENT ( #207, #53, ( #136 ) ) ;
#74 = SHAPE_DEFINITION_REPRESENTATION ( #31, #170 ) ;
#75 = PERSON_AND_ORGANIZATION ( #64, #50 ) ;
#76 = EDGE_CURVE ( 'NONE', #213, #184, #69, .T. ) ;
#77 = EDGE_LOOP ( 'NONE', ( #176, #195 ) ) ;
#78 = CC_DESIGN_PERSON_AND_ORGANIZATION_ASSIGNMENT ( #173, #13, ( #100 ) ) ;
#79 = LOCAL_TIME ( 13, 48, 40.00000000000000000, #72 ) ;
#80 = AXIS2_PLACEMENT_3D ( 'NONE', #204, #236, #182 ) ;
#81 = DIRECTION ( 'NONE',  ( -0.000000000000000000, -1.000000000000000000, -0.000000000000000000 ) ) ;
#82 = ADVANCED_FACE ( 'NONE', ( #65 ), #38, .F. ) ;
#83 = DIRECTION ( 'NONE',  ( 0.000000000000000000, 1.000000000000000000, 0.000000000000000000 ) ) ;
#84 = DIRECTION ( 'NONE',  ( 0.000000000000000000, 1.000000000000000000, 0.000000000000000000 ) ) ;
#85 = DIRECTION ( 'NONE',  ( 0.000000000000000000, 0.000000000000000000, -1.000000000000000000 ) ) ;
#86 = ORIENTED_EDGE ( 'NONE', *, *, #216, .T. ) ;
#87 = AXIS2_PLACEMENT_3D ( 'NONE', #70, #134, #241 ) ;
#88 = CARTESIAN_POINT ( 'NONE',  ( 7.347880794884118356E-15, 185.7056274847714405, 60.00000000000000000 ) ) ;
#89 = APPLICATION_PROTOCOL_DEFINITION ( 'international standard', 'config_control_design', 1994, #94 ) ;
#90 = CARTESIAN_POINT ( 'NONE',  ( 7.347880794884118356E-15, 16.00000000000001421, 60.00000000000000000 ) ) ;
#91 = CALENDAR_DATE ( 2026, 31, 7 ) ;
#92 = PERSON_AND_ORGANIZATION_ROLE ( 'creator' ) ;
#93 = CALENDAR_DATE ( 2026, 31, 7 ) ;
#94 = APPLICATION_CONTEXT ( 'configuration controlled 3d designs of mechanical parts and assemblies' ) ;
#95 = PERSON_AND_ORGANIZATION ( #64, #50 ) ;
#96 =( GEOMETRIC_REPRESENTATION_CONTEXT ( 3 ) GLOBAL_UNCERTAINTY_ASSIGNED_CONTEXT ( ( #36 ) ) GLOBAL_UNIT_ASSIGNED_CONTEXT ( ( #67, #206, #135 ) ) REPRESENTATION_CONTEXT ( 'NONE', 'WORKASPACE' ) );
#97 = ORIENTED_EDGE ( 'NONE', *, *, #130, .T. ) ;
#98 = ORIENTED_EDGE ( 'NONE', *, *, #164, .F. ) ;
#99 = ORIENTED_EDGE ( 'NONE', *, *, #196, .T. ) ;
#100 = PRODUCT_DEFINITION ( 'UNKNOWN', '', #222, #212 ) ;
#101 = CC_DESIGN_APPROVAL ( #33, ( #222 ) ) ;
#102 = ORIENTED_EDGE ( 'NONE', *, *, #41, .T. ) ;
#103 = CLOSED_SHELL ( 'NONE', ( #108, #55, #183, #18, #7, #82 ) ) ;
#104 = CARTESIAN_POINT ( 'NONE',  ( 0.000000000000000000, 0.000000000000000000, 0.000000000000000000 ) ) ;
#105 = CC_DESIGN_DATE_AND_TIME_ASSIGNMENT ( #193, #116, ( #136 ) ) ;
#106 = DIRECTION ( 'NONE',  ( 0.000000000000000000, -0.000000000000000000, 1.000000000000000000 ) ) ;
#107 = CARTESIAN_POINT ( 'NONE',  ( 0.000000000000000000, 0.000000000000000000, 0.000000000000000000 ) ) ;
#108 = ADVANCED_FACE ( 'NONE', ( #21 ), #43, .F. ) ;
#109 = CARTESIAN_POINT ( 'NONE',  ( 0.000000000000000000, 185.7056274847714405, 0.000000000000000000 ) ) ;
#110 = CARTESIAN_POINT ( 'NONE',  ( 0.000000000000000000, 16.00000000000000000, 0.000000000000000000 ) ) ;
#111 = VECTOR ( 'NONE', #147, 1000.000000000000000 ) ;
#112 = COORDINATED_UNIVERSAL_TIME_OFFSET ( 3, 30, .AHEAD. ) ;
#113 = APPROVAL_ROLE ( '' ) ;
#114 = PRODUCT ( 'BigBallBearing_Default_sldprt', 'BigBallBearing_Default_sldprt', '', ( #153 ) ) ;
#115 = COORDINATED_UNIVERSAL_TIME_OFFSET ( 3, 30, .AHEAD. ) ;
#116 = DATE_TIME_ROLE ( 'classification_date' ) ;
#117 = LOCAL_TIME ( 13, 48, 40.00000000000000000, #68 ) ;
#118 = CC_DESIGN_PERSON_AND_ORGANIZATION_ASSIGNMENT ( #191, #14, ( #114 ) ) ;
#119 = CIRCLE ( 'NONE', #181, 75.00000000000001421 ) ;
#120 = ORIENTED_EDGE ( 'NONE', *, *, #61, .F. ) ;
#121 = ORIENTED_EDGE ( 'NONE', *, *, #164, .T. ) ;
#122 = AXIS2_PLACEMENT_3D ( 'NONE', #186, #235, #62 ) ;
#123 = ORIENTED_EDGE ( 'NONE', *, *, #27, .T. ) ;
#124 = APPROVAL_PERSON_ORGANIZATION ( #242, #197, #244 ) ;
#125 = CARTESIAN_POINT ( 'NONE',  ( 9.184850993605150311E-15, 16.00000000000000000, 75.00000000000001421 ) ) ;
#126 = CARTESIAN_POINT ( 'NONE',  ( 0.000000000000000000, 16.00000000000000000, 0.000000000000000000 ) ) ;
#127 = EDGE_LOOP ( 'NONE', ( #158, #42, #178, #44 ) ) ;
#128 = PLANE ( 'NONE',  #34 ) ;
#129 = DIRECTION ( 'NONE',  ( -0.000000000000000000, -1.000000000000000000, -0.000000000000000000 ) ) ;
#130 = EDGE_CURVE ( 'NONE', #248, #137, #132, .T. ) ;
#131 = CARTESIAN_POINT ( 'NONE',  ( 0.000000000000000000, 16.00000000000001421, 0.000000000000000000 ) ) ;
#132 = CIRCLE ( 'NONE', #198, 60.00000000000000000 ) ;
#133 = APPROVAL_DATE_TIME ( #228, #33 ) ;
#134 = DIRECTION ( 'NONE',  ( 0.000000000000000000, 1.000000000000000000, 0.000000000000000000 ) ) ;
#135 =( NAMED_UNIT ( * ) SI_UNIT ( $, .STERADIAN. ) SOLID_ANGLE_UNIT ( ) );
#136 = SECURITY_CLASSIFICATION ( '', '', #227 ) ;
#137 = VERTEX_POINT ( 'NONE', #143 ) ;
#138 = EDGE_LOOP ( 'NONE', ( #37, #247, #233, #99 ) ) ;
#139 = ORIENTED_EDGE ( 'NONE', *, *, #130, .F. ) ;
#140 = ORIENTED_EDGE ( 'NONE', *, *, #149, .T. ) ;
#141 = DIRECTION ( 'NONE',  ( 0.000000000000000000, 1.000000000000000000, 0.000000000000000000 ) ) ;
#142 = CARTESIAN_POINT ( 'NONE',  ( 0.000000000000000000, 16.00000000000001421, 0.000000000000000000 ) ) ;
#143 = CARTESIAN_POINT ( 'NONE',  ( 0.000000000000000000, 16.00000000000001421, -60.00000000000000000 ) ) ;
#144 = CARTESIAN_POINT ( 'NONE',  ( 0.000000000000000000, 16.00000000000000000, 0.000000000000000000 ) ) ;
#145 = DIRECTION ( 'NONE',  ( -0.000000000000000000, -1.000000000000000000, -0.000000000000000000 ) ) ;
#146 = CC_DESIGN_APPROVAL ( #249, ( #100 ) ) ;
#147 = DIRECTION ( 'NONE',  ( -0.000000000000000000, -1.000000000000000000, -0.000000000000000000 ) ) ;
#148 = AXIS2_PLACEMENT_3D ( 'NONE', #144, #221, #163 ) ;
#149 = EDGE_CURVE ( 'NONE', #156, #205, #175, .T. ) ;
#150 = LINE ( 'NONE', #189, #111 ) ;
#151 = COORDINATED_UNIVERSAL_TIME_OFFSET ( 3, 30, .AHEAD. ) ;
#152 = CALENDAR_DATE ( 2026, 31, 7 ) ;
#153 = MECHANICAL_CONTEXT ( 'NONE', #94, 'mechanical' ) ;
#154 = APPLICATION_PROTOCOL_DEFINITION ( 'international standard', 'config_control_design', 1994, #172 ) ;
#155 = AXIS2_PLACEMENT_3D ( 'NONE', #107, #185, #85 ) ;
#156 = VERTEX_POINT ( 'NONE', #166 ) ;
#157 = LOCAL_TIME ( 13, 48, 40.00000000000000000, #112 ) ;
#158 = ORIENTED_EDGE ( 'NONE', *, *, #76, .F. ) ;
#159 = ORIENTED_EDGE ( 'NONE', *, *, #196, .F. ) ;
#160 = AXIS2_PLACEMENT_3D ( 'NONE', #4, #26, #1 ) ;
#161 = VERTEX_POINT ( 'NONE', #46 ) ;
#162 = CIRCLE ( 'NONE', #187, 60.00000000000000000 ) ;
#163 = DIRECTION ( 'NONE',  ( 0.000000000000000000, 0.000000000000000000, -1.000000000000000000 ) ) ;
#164 = EDGE_CURVE ( 'NONE', #137, #156, #239, .T. ) ;
#165 = FACE_OUTER_BOUND ( 'NONE', #127, .T. ) ;
#166 = CARTESIAN_POINT ( 'NONE',  ( 0.000000000000000000, 0.000000000000000000, -60.00000000000000000 ) ) ;
#167 = DIRECTION ( 'NONE',  ( 0.000000000000000000, 0.000000000000000000, 1.000000000000000000 ) ) ;
#168 = DATE_AND_TIME ( #209, #79 ) ;
#169 = DATE_AND_TIME ( #93, #157 ) ;
#170 = ADVANCED_BREP_SHAPE_REPRESENTATION ( 'BigBallBearing_Default_sldprt', ( #24, #17 ), #96 ) ;
#171 = APPROVAL_DATE_TIME ( #169, #249 ) ;
#172 = APPLICATION_CONTEXT ( 'configuration controlled 3d designs of mechanical parts and assemblies' ) ;
#173 = PERSON_AND_ORGANIZATION ( #64, #50 ) ;
#174 = EDGE_CURVE ( 'NONE', #184, #161, #150, .T. ) ;
#175 = CIRCLE ( 'NONE', #155, 60.00000000000000000 ) ;
#176 = ORIENTED_EDGE ( 'NONE', *, *, #149, .F. ) ;
#177 = EDGE_LOOP ( 'NONE', ( #139, #86, #102, #98 ) ) ;
#178 = ORIENTED_EDGE ( 'NONE', *, *, #61, .T. ) ;
#179 = CC_DESIGN_SECURITY_CLASSIFICATION ( #136, ( #222 ) ) ;
#180 = FACE_BOUND ( 'NONE', #202, .T. ) ;
#181 = AXIS2_PLACEMENT_3D ( 'NONE', #25, #141, #167 ) ;
#182 = DIRECTION ( 'NONE',  ( 0.000000000000000000, 0.000000000000000000, -1.000000000000000000 ) ) ;
#183 = ADVANCED_FACE ( 'NONE', ( #224 ), #51, .T. ) ;
#184 = VERTEX_POINT ( 'NONE', #66 ) ;
#185 = DIRECTION ( 'NONE',  ( 0.000000000000000000, -1.000000000000000000, 0.000000000000000000 ) ) ;
#186 = CARTESIAN_POINT ( 'NONE',  ( 0.000000000000000000, 185.7056274847714405, 0.000000000000000000 ) ) ;
#187 = AXIS2_PLACEMENT_3D ( 'NONE', #131, #129, #10 ) ;
#188 = CARTESIAN_POINT ( 'NONE',  ( 0.000000000000000000, 185.7056274847714405, -60.00000000000000000 ) ) ;
#189 = CARTESIAN_POINT ( 'NONE',  ( 0.000000000000000000, 16.00000000000000000, -75.00000000000001421 ) ) ;
#190 = PERSON_AND_ORGANIZATION ( #64, #50 ) ;
#191 = PERSON_AND_ORGANIZATION ( #64, #50 ) ;
#192 = APPROVAL_PERSON_ORGANIZATION ( #230, #249, #71 ) ;
#193 = DATE_AND_TIME ( #91, #200 ) ;
#194 = CIRCLE ( 'NONE', #80, 60.00000000000000000 ) ;
#195 = ORIENTED_EDGE ( 'NONE', *, *, #41, .F. ) ;
#196 = EDGE_CURVE ( 'NONE', #161, #214, #208, .T. ) ;
#197 = APPROVAL ( #211, 'UNSPECIFIED' ) ;
#198 = AXIS2_PLACEMENT_3D ( 'NONE', #142, #58, #219 ) ;
#199 = ORIENTED_EDGE ( 'NONE', *, *, #218, .F. ) ;
#200 = LOCAL_TIME ( 13, 48, 40.00000000000000000, #115 ) ;
#201 = DIRECTION ( 'NONE',  ( 0.000000000000000000, 0.000000000000000000, -1.000000000000000000 ) ) ;
#202 = EDGE_LOOP ( 'NONE', ( #35, #97 ) ) ;
#203 = CC_DESIGN_PERSON_AND_ORGANIZATION_ASSIGNMENT ( #75, #92, ( #222 ) ) ;
#204 = CARTESIAN_POINT ( 'NONE',  ( 0.000000000000000000, 0.000000000000000000, 0.000000000000000000 ) ) ;
#205 = VERTEX_POINT ( 'NONE', #210 ) ;
#206 =( NAMED_UNIT ( * ) PLANE_ANGLE_UNIT ( ) SI_UNIT ( $, .RADIAN. ) );
#207 = PERSON_AND_ORGANIZATION ( #64, #50 ) ;
#208 = CIRCLE ( 'NONE', #87, 75.00000000000001421 ) ;
#209 = CALENDAR_DATE ( 2026, 31, 7 ) ;
#210 = CARTESIAN_POINT ( 'NONE',  ( 7.347880794884118356E-15, 0.000000000000000000, 60.00000000000000000 ) ) ;
#211 = APPROVAL_STATUS ( 'not_yet_approved' ) ;
#212 = DESIGN_CONTEXT ( 'detailed design', #172, 'design' ) ;
#213 = VERTEX_POINT ( 'NONE', #30 ) ;
#214 = VERTEX_POINT ( 'NONE', #223 ) ;
#215 = DIRECTION ( 'NONE',  ( 0.000000000000000000, 1.000000000000000000, 0.000000000000000000 ) ) ;
#216 = EDGE_CURVE ( 'NONE', #248, #205, #238, .T. ) ;
#217 = CARTESIAN_POINT ( 'NONE',  ( 0.000000000000000000, 16.00000000000000000, 0.000000000000000000 ) ) ;
#218 = EDGE_CURVE ( 'NONE', #137, #248, #162, .T. ) ;
#219 = DIRECTION ( 'NONE',  ( 0.000000000000000000, 0.000000000000000000, 1.000000000000000000 ) ) ;
#220 = PLANE ( 'NONE',  #22 ) ;
#221 = DIRECTION ( 'NONE',  ( -0.000000000000000000, -1.000000000000000000, -0.000000000000000000 ) ) ;
#222 = PRODUCT_DEFINITION_FORMATION_WITH_SPECIFIED_SOURCE ( 'ANY', '', #114, .NOT_KNOWN. ) ;
#223 = CARTESIAN_POINT ( 'NONE',  ( 9.184850993605150311E-15, 0.000000000000000000, 75.00000000000001421 ) ) ;
#224 = FACE_OUTER_BOUND ( 'NONE', #138, .T. ) ;
#225 = DIRECTION ( 'NONE',  ( -0.000000000000000000, -1.000000000000000000, -0.000000000000000000 ) ) ;
#226 = DATE_AND_TIME ( #32, #45 ) ;
#227 = SECURITY_CLASSIFICATION_LEVEL ( 'unclassified' ) ;
#228 = DATE_AND_TIME ( #152, #117 ) ;
#229 = VECTOR ( 'NONE', #145, 1000.000000000000000 ) ;
#230 = PERSON_AND_ORGANIZATION ( #64, #50 ) ;
#231 = CC_DESIGN_PERSON_AND_ORGANIZATION_ASSIGNMENT ( #190, #11, ( #222 ) ) ;
#232 = EDGE_LOOP ( 'NONE', ( #234, #199, #121, #140 ) ) ;
#233 = ORIENTED_EDGE ( 'NONE', *, *, #174, .T. ) ;
#234 = ORIENTED_EDGE ( 'NONE', *, *, #216, .F. ) ;
#235 = DIRECTION ( 'NONE',  ( -0.000000000000000000, -1.000000000000000000, -0.000000000000000000 ) ) ;
#236 = DIRECTION ( 'NONE',  ( 0.000000000000000000, -1.000000000000000000, 0.000000000000000000 ) ) ;
#237 = LINE ( 'NONE', #125, #47 ) ;
#238 = LINE ( 'NONE', #88, #229 ) ;
#239 = LINE ( 'NONE', #188, #246 ) ;
#240 = AXIS2_PLACEMENT_3D ( 'NONE', #217, #84, #5 ) ;
#241 = DIRECTION ( 'NONE',  ( 0.000000000000000000, 0.000000000000000000, 1.000000000000000000 ) ) ;
#242 = PERSON_AND_ORGANIZATION ( #64, #50 ) ;
#243 = CARTESIAN_POINT ( 'NONE',  ( 0.000000000000000000, 0.000000000000000000, 0.000000000000000000 ) ) ;
#244 = APPROVAL_ROLE ( '' ) ;
#245 = APPROVAL_STATUS ( 'not_yet_approved' ) ;
#246 = VECTOR ( 'NONE', #225, 1000.000000000000000 ) ;
#247 = ORIENTED_EDGE ( 'NONE', *, *, #27, .F. ) ;
#248 = VERTEX_POINT ( 'NONE', #90 ) ;
#249 = APPROVAL ( #15, 'UNSPECIFIED' ) ;
ENDSEC;
END-ISO-10303-21;
