ISO-10303-21;
HEADER;
FILE_DESCRIPTION (( 'STEP AP203' ),
    '1' );
FILE_NAME ('BigBallBearingInner_Default_sldprt.STEP',
    '2026-07-31T10:18:43',
    ( '' ),
    ( '' ),
    'SwSTEP 2.0',
    'SolidWorks 2025',
    '' );
FILE_SCHEMA (( 'CONFIG_CONTROL_DESIGN' ));
ENDSEC;

DATA;
#1 = AXIS2_PLACEMENT_3D ( 'NONE', #184, #224, #160 ) ;
#2 = CC_DESIGN_APPROVAL ( #165, ( #130 ) ) ;
#3 = ORIENTED_EDGE ( 'NONE', *, *, #101, .F. ) ;
#4 = DIRECTION ( 'NONE',  ( 0.000000000000000000, 1.000000000000000000, 0.000000000000000000 ) ) ;
#5 = ORIENTED_EDGE ( 'NONE', *, *, #198, .F. ) ;
#6 = ADVANCED_FACE ( 'NONE', ( #21, #176 ), #42, .T. ) ;
#7 = CARTESIAN_POINT ( 'NONE',  ( 6.123233995736766085E-15, 42.99999999999998579, 50.00000000000000000 ) ) ;
#8 = DIRECTION ( 'NONE',  ( -0.000000000000000000, -1.000000000000000000, -0.000000000000000000 ) ) ;
#9 = PLANE ( 'NONE',  #1 ) ;
#10 = DIRECTION ( 'NONE',  ( -0.000000000000000000, -1.000000000000000000, -0.000000000000000000 ) ) ;
#11 = DIRECTION ( 'NONE',  ( 0.000000000000000000, 0.000000000000000000, -1.000000000000000000 ) ) ;
#12 = COORDINATED_UNIVERSAL_TIME_OFFSET ( 3, 30, .AHEAD. ) ;
#13 = PERSON_AND_ORGANIZATION ( #125, #73 ) ;
#14 = AXIS2_PLACEMENT_3D ( 'NONE', #199, #8, #204 ) ;
#15 = DATE_AND_TIME ( #226, #196 ) ;
#16 = EDGE_CURVE ( 'NONE', #135, #218, #233, .T. ) ;
#17 = EDGE_LOOP ( 'NONE', ( #98, #236 ) ) ;
#18 = ADVANCED_FACE ( 'NONE', ( #232 ), #41, .T. ) ;
#19 = LOCAL_TIME ( 13, 48, 43.00000000000000000, #193 ) ;
#20 = ORIENTED_EDGE ( 'NONE', *, *, #84, .F. ) ;
#21 = FACE_BOUND ( 'NONE', #65, .T. ) ;
#22 = ORIENTED_EDGE ( 'NONE', *, *, #94, .T. ) ;
#23 = EDGE_LOOP ( 'NONE', ( #3, #131, #175, #64 ) ) ;
#24 = CARTESIAN_POINT ( 'NONE',  ( 0.000000000000000000, 0.000000000000000000, 0.000000000000000000 ) ) ;
#25 = CARTESIAN_POINT ( 'NONE',  ( 7.347880794884118356E-15, 0.000000000000000000, 60.00000000000000000 ) ) ;
#26 = FACE_OUTER_BOUND ( 'NONE', #23, .T. ) ;
#27 = CIRCLE ( 'NONE', #48, 50.00000000000000000 ) ;
#28 = DIRECTION ( 'NONE',  ( 0.000000000000000000, 0.000000000000000000, 1.000000000000000000 ) ) ;
#29 = APPROVAL_ROLE ( '' ) ;
#30 = PRODUCT_DEFINITION ( 'UNKNOWN', '', #162, #191 ) ;
#31 = APPROVAL_DATE_TIME ( #56, #245 ) ;
#32 = CARTESIAN_POINT ( 'NONE',  ( 0.000000000000000000, 0.000000000000000000, 0.000000000000000000 ) ) ;
#33 = PERSON_AND_ORGANIZATION_ROLE ( 'design_supplier' ) ;
#34 = UNCERTAINTY_MEASURE_WITH_UNIT (LENGTH_MEASURE( 1.000000000000000082E-05 ), #35, 'distance_accuracy_value', 'NONE');
#35 =( LENGTH_UNIT ( ) NAMED_UNIT ( * ) SI_UNIT ( .MILLI., .METRE. ) );
#36 = AXIS2_PLACEMENT_3D ( 'NONE', #238, #205, #202 ) ;
#37 = ORIENTED_EDGE ( 'NONE', *, *, #122, .F. ) ;
#38 = VERTEX_POINT ( 'NONE', #72 ) ;
#39 = AXIS2_PLACEMENT_3D ( 'NONE', #70, #161, #219 ) ;
#40 = ORIENTED_EDGE ( 'NONE', *, *, #16, .T. ) ;
#41 = CYLINDRICAL_SURFACE ( 'NONE', #14, 60.00000000000000000 ) ;
#42 = PLANE ( 'NONE',  #213 ) ;
#43 = DIRECTION ( 'NONE',  ( 0.000000000000000000, -1.000000000000000000, 0.000000000000000000 ) ) ;
#44 = AXIS2_PLACEMENT_3D ( 'NONE', #124, #180, #120 ) ;
#45 = CARTESIAN_POINT ( 'NONE',  ( 0.000000000000000000, 184.4213562373095385, 0.000000000000000000 ) ) ;
#46 = DIRECTION ( 'NONE',  ( -0.000000000000000000, -1.000000000000000000, -0.000000000000000000 ) ) ;
#47 = CYLINDRICAL_SURFACE ( 'NONE', #234, 50.00000000000000000 ) ;
#48 = AXIS2_PLACEMENT_3D ( 'NONE', #87, #100, #28 ) ;
#49 = FACE_OUTER_BOUND ( 'NONE', #136, .T. ) ;
#50 = EDGE_CURVE ( 'NONE', #135, #61, #27, .T. ) ;
#51 = COORDINATED_UNIVERSAL_TIME_OFFSET ( 3, 30, .AHEAD. ) ;
#52 = PERSON_AND_ORGANIZATION_ROLE ( 'creator' ) ;
#53 = APPROVAL_PERSON_ORGANIZATION ( #208, #147, #148 ) ;
#54 = APPROVAL_ROLE ( '' ) ;
#55 = PRODUCT_DEFINITION_SHAPE ( 'NONE', 'NONE',  #30 ) ;
#56 = DATE_AND_TIME ( #206, #134 ) ;
#57 = AXIS2_PLACEMENT_3D ( 'NONE', #223, #200, #85 ) ;
#58 = EDGE_LOOP ( 'NONE', ( #113, #37 ) ) ;
#59 = EDGE_CURVE ( 'NONE', #197, #38, #143, .T. ) ;
#60 = VERTEX_POINT ( 'NONE', #25 ) ;
#61 = VERTEX_POINT ( 'NONE', #141 ) ;
#62 = CIRCLE ( 'NONE', #44, 60.00000000000000000 ) ;
#63 = CC_DESIGN_SECURITY_CLASSIFICATION ( #130, ( #162 ) ) ;
#64 = ORIENTED_EDGE ( 'NONE', *, *, #201, .T. ) ;
#65 = EDGE_LOOP ( 'NONE', ( #214, #211 ) ) ;
#66 = PRODUCT_RELATED_PRODUCT_CATEGORY ( 'detail', '', ( #192 ) ) ;
#67 = CYLINDRICAL_SURFACE ( 'NONE', #138, 60.00000000000000000 ) ;
#68 = CARTESIAN_POINT ( 'NONE',  ( 0.000000000000000000, 184.4213562373095385, -50.00000000000000000 ) ) ;
#69 = LINE ( 'NONE', #68, #129 ) ;
#70 = CARTESIAN_POINT ( 'NONE',  ( 0.000000000000000000, 42.99999999999998579, 0.000000000000000000 ) ) ;
#71 = EDGE_CURVE ( 'NONE', #197, #133, #163, .T. ) ;
#72 = CARTESIAN_POINT ( 'NONE',  ( 7.347880794884118356E-15, 43.00000000000000000, 60.00000000000000000 ) ) ;
#73 = ORGANIZATION ( 'UNSPECIFIED', 'UNSPECIFIED', '' ) ;
#74 = CC_DESIGN_PERSON_AND_ORGANIZATION_ASSIGNMENT ( #13, #52, ( #162 ) ) ;
#75 = MECHANICAL_CONTEXT ( 'NONE', #179, 'mechanical' ) ;
#76 = DATE_AND_TIME ( #151, #19 ) ;
#77 = DATE_TIME_ROLE ( 'creation_date' ) ;
#78 = CALENDAR_DATE ( 2026, 31, 7 ) ;
#79 = COORDINATED_UNIVERSAL_TIME_OFFSET ( 3, 30, .AHEAD. ) ;
#80 = AXIS2_PLACEMENT_3D ( 'NONE', #167, #242, #142 ) ;
#81 = DIRECTION ( 'NONE',  ( 0.000000000000000000, -0.000000000000000000, 1.000000000000000000 ) ) ;
#82 = CARTESIAN_POINT ( 'NONE',  ( 0.000000000000000000, 43.00000000000000000, 0.000000000000000000 ) ) ;
#83 = FACE_BOUND ( 'NONE', #17, .T. ) ;
#84 = EDGE_CURVE ( 'NONE', #61, #115, #69, .T. ) ;
#85 = DIRECTION ( 'NONE',  ( 0.000000000000000000, 0.000000000000000000, -1.000000000000000000 ) ) ;
#86 = CC_DESIGN_DATE_AND_TIME_ASSIGNMENT ( #149, #91, ( #130 ) ) ;
#87 = CARTESIAN_POINT ( 'NONE',  ( 0.000000000000000000, 42.99999999999998579, 0.000000000000000000 ) ) ;
#88 = CARTESIAN_POINT ( 'NONE',  ( 0.000000000000000000, 43.00000000000000000, -60.00000000000000000 ) ) ;
#89 = DIRECTION ( 'NONE',  ( 0.000000000000000000, 0.000000000000000000, -1.000000000000000000 ) ) ;
#90 = ADVANCED_FACE ( 'NONE', ( #221 ), #47, .F. ) ;
#91 = DATE_TIME_ROLE ( 'classification_date' ) ;
#92 = CIRCLE ( 'NONE', #80, 60.00000000000000000 ) ;
#93 = PERSON_AND_ORGANIZATION_ROLE ( 'classification_officer' ) ;
#94 = EDGE_CURVE ( 'NONE', #115, #218, #144, .T. ) ;
#95 = ORIENTED_EDGE ( 'NONE', *, *, #227, .T. ) ;
#96 =( GEOMETRIC_REPRESENTATION_CONTEXT ( 3 ) GLOBAL_UNCERTAINTY_ASSIGNED_CONTEXT ( ( #34 ) ) GLOBAL_UNIT_ASSIGNED_CONTEXT ( ( #35, #108, #126 ) ) REPRESENTATION_CONTEXT ( 'NONE', 'WORKASPACE' ) );
#97 = ORIENTED_EDGE ( 'NONE', *, *, #154, .T. ) ;
#98 = ORIENTED_EDGE ( 'NONE', *, *, #94, .F. ) ;
#99 = AXIS2_PLACEMENT_3D ( 'NONE', #32, #249, #229 ) ;
#100 = DIRECTION ( 'NONE',  ( -0.000000000000000000, -1.000000000000000000, -0.000000000000000000 ) ) ;
#101 = EDGE_CURVE ( 'NONE', #38, #60, #139, .T. ) ;
#102 = DIRECTION ( 'NONE',  ( -0.000000000000000000, -1.000000000000000000, -0.000000000000000000 ) ) ;
#103 = CARTESIAN_POINT ( 'NONE',  ( 0.000000000000000000, 0.000000000000000000, -60.00000000000000000 ) ) ;
#104 = APPROVAL_PERSON_ORGANIZATION ( #146, #245, #29 ) ;
#105 = CARTESIAN_POINT ( 'NONE',  ( 0.000000000000000000, 184.4213562373095385, 0.000000000000000000 ) ) ;
#106 = DIRECTION ( 'NONE',  ( -0.000000000000000000, -1.000000000000000000, -0.000000000000000000 ) ) ;
#107 = CC_DESIGN_PERSON_AND_ORGANIZATION_ASSIGNMENT ( #209, #33, ( #162 ) ) ;
#108 =( NAMED_UNIT ( * ) PLANE_ANGLE_UNIT ( ) SI_UNIT ( $, .RADIAN. ) );
#109 = CIRCLE ( 'NONE', #150, 60.00000000000000000 ) ;
#110 = SECURITY_CLASSIFICATION_LEVEL ( 'unclassified' ) ;
#111 = APPROVAL_STATUS ( 'not_yet_approved' ) ;
#112 = APPROVAL_DATE_TIME ( #15, #147 ) ;
#113 = ORIENTED_EDGE ( 'NONE', *, *, #201, .F. ) ;
#114 = EDGE_LOOP ( 'NONE', ( #116, #40, #95, #20 ) ) ;
#115 = VERTEX_POINT ( 'NONE', #166 ) ;
#116 = ORIENTED_EDGE ( 'NONE', *, *, #50, .F. ) ;
#117 = ADVANCED_FACE ( 'NONE', ( #49 ), #121, .F. ) ;
#118 = CC_DESIGN_PERSON_AND_ORGANIZATION_ASSIGNMENT ( #207, #153, ( #192 ) ) ;
#119 = CARTESIAN_POINT ( 'NONE',  ( 6.123233995736766085E-15, 0.000000000000000000, 50.00000000000000000 ) ) ;
#120 = DIRECTION ( 'NONE',  ( 0.000000000000000000, 0.000000000000000000, 1.000000000000000000 ) ) ;
#121 = CYLINDRICAL_SURFACE ( 'NONE', #127, 50.00000000000000000 ) ;
#122 = EDGE_CURVE ( 'NONE', #60, #133, #62, .T. ) ;
#123 = CARTESIAN_POINT ( 'NONE',  ( 0.000000000000000000, 43.00000000000000000, -60.00000000000000000 ) ) ;
#124 = CARTESIAN_POINT ( 'NONE',  ( 0.000000000000000000, 0.000000000000000000, 0.000000000000000000 ) ) ;
#125 = PERSON ( 'UNSPECIFIED', 'UNSPECIFIED', 'UNSPECIFIED', ('UNSPECIFIED'), ('UNSPECIFIED'), ('UNSPECIFIED') ) ;
#126 =( NAMED_UNIT ( * ) SI_UNIT ( $, .STERADIAN. ) SOLID_ANGLE_UNIT ( ) );
#127 = AXIS2_PLACEMENT_3D ( 'NONE', #45, #181, #89 ) ;
#128 = CALENDAR_DATE ( 2026, 31, 7 ) ;
#129 = VECTOR ( 'NONE', #102, 1000.000000000000000 ) ;
#130 = SECURITY_CLASSIFICATION ( '', '', #110 ) ;
#131 = ORIENTED_EDGE ( 'NONE', *, *, #59, .F. ) ;
#132 = APPROVAL_DATE_TIME ( #190, #165 ) ;
#133 = VERTEX_POINT ( 'NONE', #103 ) ;
#134 = LOCAL_TIME ( 13, 48, 43.00000000000000000, #186 ) ;
#135 = VERTEX_POINT ( 'NONE', #7 ) ;
#136 = EDGE_LOOP ( 'NONE', ( #173, #5, #212, #22 ) ) ;
#137 = DIRECTION ( 'NONE',  ( 0.000000000000000000, 0.000000000000000000, -1.000000000000000000 ) ) ;
#138 = AXIS2_PLACEMENT_3D ( 'NONE', #183, #10, #137 ) ;
#139 = LINE ( 'NONE', #222, #178 ) ;
#140 = MANIFOLD_SOLID_BREP ( 'Cut-Extrude1', #248 ) ;
#141 = CARTESIAN_POINT ( 'NONE',  ( 0.000000000000000000, 42.99999999999998579, -50.00000000000000000 ) ) ;
#142 = DIRECTION ( 'NONE',  ( 0.000000000000000000, 0.000000000000000000, 1.000000000000000000 ) ) ;
#143 = CIRCLE ( 'NONE', #36, 60.00000000000000000 ) ;
#144 = CIRCLE ( 'NONE', #239, 50.00000000000000000 ) ;
#145 = DIRECTION ( 'NONE',  ( 0.000000000000000000, 0.000000000000000000, -1.000000000000000000 ) ) ;
#146 = PERSON_AND_ORGANIZATION ( #125, #73 ) ;
#147 = APPROVAL ( #225, 'UNSPECIFIED' ) ;
#148 = APPROVAL_ROLE ( '' ) ;
#149 = DATE_AND_TIME ( #78, #168 ) ;
#150 = AXIS2_PLACEMENT_3D ( 'NONE', #203, #241, #237 ) ;
#151 = CALENDAR_DATE ( 2026, 31, 7 ) ;
#152 = ADVANCED_FACE ( 'NONE', ( #83, #182 ), #9, .F. ) ;
#153 = PERSON_AND_ORGANIZATION_ROLE ( 'design_owner' ) ;
#154 = EDGE_CURVE ( 'NONE', #38, #197, #109, .T. ) ;
#155 = DIRECTION ( 'NONE',  ( -0.000000000000000000, -1.000000000000000000, -0.000000000000000000 ) ) ;
#156 = CC_DESIGN_PERSON_AND_ORGANIZATION_ASSIGNMENT ( #169, #244, ( #30 ) ) ;
#157 = ORIENTED_EDGE ( 'NONE', *, *, #71, .F. ) ;
#158 = ORIENTED_EDGE ( 'NONE', *, *, #122, .T. ) ;
#159 = ORIENTED_EDGE ( 'NONE', *, *, #59, .T. ) ;
#160 = DIRECTION ( 'NONE',  ( 0.000000000000000000, -0.000000000000000000, 1.000000000000000000 ) ) ;
#161 = DIRECTION ( 'NONE',  ( -0.000000000000000000, -1.000000000000000000, -0.000000000000000000 ) ) ;
#162 = PRODUCT_DEFINITION_FORMATION_WITH_SPECIFIED_SOURCE ( 'ANY', '', #192, .NOT_KNOWN. ) ;
#163 = LINE ( 'NONE', #88, #210 ) ;
#164 = ADVANCED_FACE ( 'NONE', ( #26 ), #67, .T. ) ;
#165 = APPROVAL ( #111, 'UNSPECIFIED' ) ;
#166 = CARTESIAN_POINT ( 'NONE',  ( 0.000000000000000000, 0.000000000000000000, -50.00000000000000000 ) ) ;
#167 = CARTESIAN_POINT ( 'NONE',  ( 0.000000000000000000, 0.000000000000000000, 0.000000000000000000 ) ) ;
#168 = LOCAL_TIME ( 13, 48, 43.00000000000000000, #12 ) ;
#169 = PERSON_AND_ORGANIZATION ( #125, #73 ) ;
#170 = LOCAL_TIME ( 13, 48, 43.00000000000000000, #79 ) ;
#171 = APPROVAL_STATUS ( 'not_yet_approved' ) ;
#172 = EDGE_LOOP ( 'NONE', ( #159, #97 ) ) ;
#173 = ORIENTED_EDGE ( 'NONE', *, *, #16, .F. ) ;
#174 = CIRCLE ( 'NONE', #57, 50.00000000000000000 ) ;
#175 = ORIENTED_EDGE ( 'NONE', *, *, #71, .T. ) ;
#176 = FACE_OUTER_BOUND ( 'NONE', #172, .T. ) ;
#177 = ORIENTED_EDGE ( 'NONE', *, *, #154, .F. ) ;
#178 = VECTOR ( 'NONE', #46, 1000.000000000000000 ) ;
#179 = APPLICATION_CONTEXT ( 'configuration controlled 3d designs of mechanical parts and assemblies' ) ;
#180 = DIRECTION ( 'NONE',  ( 0.000000000000000000, 1.000000000000000000, 0.000000000000000000 ) ) ;
#181 = DIRECTION ( 'NONE',  ( -0.000000000000000000, -1.000000000000000000, -0.000000000000000000 ) ) ;
#182 = FACE_OUTER_BOUND ( 'NONE', #58, .T. ) ;
#183 = CARTESIAN_POINT ( 'NONE',  ( 0.000000000000000000, 43.00000000000000000, 0.000000000000000000 ) ) ;
#184 = CARTESIAN_POINT ( 'NONE',  ( 0.000000000000000000, 0.000000000000000000, 0.000000000000000000 ) ) ;
#185 = APPLICATION_CONTEXT ( 'configuration controlled 3d designs of mechanical parts and assemblies' ) ;
#186 = COORDINATED_UNIVERSAL_TIME_OFFSET ( 3, 30, .AHEAD. ) ;
#187 = CIRCLE ( 'NONE', #39, 50.00000000000000000 ) ;
#188 = APPLICATION_PROTOCOL_DEFINITION ( 'international standard', 'config_control_design', 1994, #185 ) ;
#189 = PERSON_AND_ORGANIZATION ( #125, #73 ) ;
#190 = DATE_AND_TIME ( #128, #170 ) ;
#191 = DESIGN_CONTEXT ( 'detailed design', #185, 'design' ) ;
#192 = PRODUCT ( 'BigBallBearingInner_Default_sldprt', 'BigBallBearingInner_Default_sldprt', '', ( #75 ) ) ;
#193 = COORDINATED_UNIVERSAL_TIME_OFFSET ( 3, 30, .AHEAD. ) ;
#194 = EDGE_LOOP ( 'NONE', ( #177, #195, #158, #157 ) ) ;
#195 = ORIENTED_EDGE ( 'NONE', *, *, #101, .T. ) ;
#196 = LOCAL_TIME ( 13, 48, 43.00000000000000000, #51 ) ;
#197 = VERTEX_POINT ( 'NONE', #123 ) ;
#198 = EDGE_CURVE ( 'NONE', #61, #135, #187, .T. ) ;
#199 = CARTESIAN_POINT ( 'NONE',  ( 0.000000000000000000, 43.00000000000000000, 0.000000000000000000 ) ) ;
#200 = DIRECTION ( 'NONE',  ( 0.000000000000000000, -1.000000000000000000, 0.000000000000000000 ) ) ;
#201 = EDGE_CURVE ( 'NONE', #133, #60, #92, .T. ) ;
#202 = DIRECTION ( 'NONE',  ( 0.000000000000000000, 0.000000000000000000, 1.000000000000000000 ) ) ;
#203 = CARTESIAN_POINT ( 'NONE',  ( 0.000000000000000000, 43.00000000000000000, 0.000000000000000000 ) ) ;
#204 = DIRECTION ( 'NONE',  ( 0.000000000000000000, 0.000000000000000000, -1.000000000000000000 ) ) ;
#205 = DIRECTION ( 'NONE',  ( 0.000000000000000000, 1.000000000000000000, 0.000000000000000000 ) ) ;
#206 = CALENDAR_DATE ( 2026, 31, 7 ) ;
#207 = PERSON_AND_ORGANIZATION ( #125, #73 ) ;
#208 = PERSON_AND_ORGANIZATION ( #125, #73 ) ;
#209 = PERSON_AND_ORGANIZATION ( #125, #73 ) ;
#210 = VECTOR ( 'NONE', #106, 1000.000000000000000 ) ;
#211 = ORIENTED_EDGE ( 'NONE', *, *, #50, .T. ) ;
#212 = ORIENTED_EDGE ( 'NONE', *, *, #84, .T. ) ;
#213 = AXIS2_PLACEMENT_3D ( 'NONE', #82, #4, #81 ) ;
#214 = ORIENTED_EDGE ( 'NONE', *, *, #198, .T. ) ;
#215 = APPROVAL_PERSON_ORGANIZATION ( #228, #165, #54 ) ;
#216 = CARTESIAN_POINT ( 'NONE',  ( 6.123233995736766085E-15, 184.4213562373095385, 50.00000000000000000 ) ) ;
#217 = CC_DESIGN_PERSON_AND_ORGANIZATION_ASSIGNMENT ( #189, #93, ( #130 ) ) ;
#218 = VERTEX_POINT ( 'NONE', #119 ) ;
#219 = DIRECTION ( 'NONE',  ( 0.000000000000000000, 0.000000000000000000, 1.000000000000000000 ) ) ;
#220 = CC_DESIGN_APPROVAL ( #147, ( #162 ) ) ;
#221 = FACE_OUTER_BOUND ( 'NONE', #114, .T. ) ;
#222 = CARTESIAN_POINT ( 'NONE',  ( 7.347880794884118356E-15, 43.00000000000000000, 60.00000000000000000 ) ) ;
#223 = CARTESIAN_POINT ( 'NONE',  ( 0.000000000000000000, 0.000000000000000000, 0.000000000000000000 ) ) ;
#224 = DIRECTION ( 'NONE',  ( 0.000000000000000000, 1.000000000000000000, 0.000000000000000000 ) ) ;
#225 = APPROVAL_STATUS ( 'not_yet_approved' ) ;
#226 = CALENDAR_DATE ( 2026, 31, 7 ) ;
#227 = EDGE_CURVE ( 'NONE', #218, #115, #174, .T. ) ;
#228 = PERSON_AND_ORGANIZATION ( #125, #73 ) ;
#229 = DIRECTION ( 'NONE',  ( 1.000000000000000000, 0.000000000000000000, 0.000000000000000000 ) ) ;
#230 = VECTOR ( 'NONE', #155, 1000.000000000000000 ) ;
#231 = ADVANCED_BREP_SHAPE_REPRESENTATION ( 'BigBallBearingInner_Default_sldprt', ( #140, #99 ), #96 ) ;
#232 = FACE_OUTER_BOUND ( 'NONE', #194, .T. ) ;
#233 = LINE ( 'NONE', #216, #230 ) ;
#234 = AXIS2_PLACEMENT_3D ( 'NONE', #105, #240, #11 ) ;
#235 = SHAPE_DEFINITION_REPRESENTATION ( #55, #231 ) ;
#236 = ORIENTED_EDGE ( 'NONE', *, *, #227, .F. ) ;
#237 = DIRECTION ( 'NONE',  ( 0.000000000000000000, 0.000000000000000000, 1.000000000000000000 ) ) ;
#238 = CARTESIAN_POINT ( 'NONE',  ( 0.000000000000000000, 43.00000000000000000, 0.000000000000000000 ) ) ;
#239 = AXIS2_PLACEMENT_3D ( 'NONE', #24, #43, #145 ) ;
#240 = DIRECTION ( 'NONE',  ( -0.000000000000000000, -1.000000000000000000, -0.000000000000000000 ) ) ;
#241 = DIRECTION ( 'NONE',  ( 0.000000000000000000, 1.000000000000000000, 0.000000000000000000 ) ) ;
#242 = DIRECTION ( 'NONE',  ( 0.000000000000000000, 1.000000000000000000, 0.000000000000000000 ) ) ;
#243 = CC_DESIGN_APPROVAL ( #245, ( #30 ) ) ;
#244 = PERSON_AND_ORGANIZATION_ROLE ( 'creator' ) ;
#245 = APPROVAL ( #171, 'UNSPECIFIED' ) ;
#246 = CC_DESIGN_DATE_AND_TIME_ASSIGNMENT ( #76, #77, ( #30 ) ) ;
#247 = APPLICATION_PROTOCOL_DEFINITION ( 'international standard', 'config_control_design', 1994, #179 ) ;
#248 = CLOSED_SHELL ( 'NONE', ( #90, #18, #164, #6, #152, #117 ) ) ;
#249 = DIRECTION ( 'NONE',  ( 0.000000000000000000, 0.000000000000000000, 1.000000000000000000 ) ) ;
ENDSEC;
END-ISO-10303-21;
