ISO-10303-21;
HEADER;
FILE_DESCRIPTION (( 'STEP AP203' ),
    '1' );
FILE_NAME ('BigBallBearingHolder_Default_sldprt.STEP',
    '2026-07-23T12:34:43',
    ( '' ),
    ( '' ),
    'SwSTEP 2.0',
    'SolidWorks 2025',
    '' );
FILE_SCHEMA (( 'CONFIG_CONTROL_DESIGN' ));
ENDSEC;

DATA;
#1 = DIRECTION ( 'NONE',  ( -0.000000000000000000, -1.000000000000000000, -0.000000000000000000 ) ) ;
#2 = ORIENTED_EDGE ( 'NONE', *, *, #98, .F. ) ;
#3 = CARTESIAN_POINT ( 'NONE',  ( 0.000000000000000000, 8.000000000000000000, 75.00000000000000000 ) ) ;
#4 = EDGE_CURVE ( 'NONE', #154, #298, #297, .T. ) ;
#5 = ORIENTED_EDGE ( 'NONE', *, *, #30, .F. ) ;
#6 = CYLINDRICAL_SURFACE ( 'NONE', #401, 90.00000000000000000 ) ;
#7 = ORIENTED_EDGE ( 'NONE', *, *, #30, .T. ) ;
#8 = APPROVAL ( #59, 'UNSPECIFIED' ) ;
#9 = DIRECTION ( 'NONE',  ( 0.000000000000000000, 1.000000000000000000, -0.000000000000000000 ) ) ;
#10 = EDGE_CURVE ( 'NONE', #384, #307, #91, .T. ) ;
#11 = LINE ( 'NONE', #75, #280 ) ;
#12 = VERTEX_POINT ( 'NONE', #47 ) ;
#13 = CC_DESIGN_APPROVAL ( #120, ( #22 ) ) ;
#14 = DIRECTION ( 'NONE',  ( 1.000000000000000000, -0.000000000000000000, 0.000000000000000000 ) ) ;
#15 = ORIENTED_EDGE ( 'NONE', *, *, #206, .T. ) ;
#16 = CARTESIAN_POINT ( 'NONE',  ( -75.00000000000000000, -8.000000000000000000, 0.000000000000000000 ) ) ;
#17 = ORIENTED_EDGE ( 'NONE', *, *, #200, .T. ) ;
#18 = PRODUCT ( 'BigBallBearingHolder_Default_sldprt', 'BigBallBearingHolder_Default_sldprt', '', ( #402 ) ) ;
#19 = PERSON_AND_ORGANIZATION ( #258, #251 ) ;
#20 = DIRECTION ( 'NONE',  ( 0.000000000000000000, 0.000000000000000000, 1.000000000000000000 ) ) ;
#21 = APPROVAL_ROLE ( '' ) ;
#22 = PRODUCT_DEFINITION_FORMATION_WITH_SPECIFIED_SOURCE ( 'ANY', '', #18, .NOT_KNOWN. ) ;
#23 = DIRECTION ( 'NONE',  ( 1.000000000000000000, 0.000000000000000000, 0.000000000000000000 ) ) ;
#24 = CALENDAR_DATE ( 2026, 23, 7 ) ;
#25 = DIRECTION ( 'NONE',  ( 0.000000000000000000, 0.000000000000000000, 1.000000000000000000 ) ) ;
#26 = CARTESIAN_POINT ( 'NONE',  ( 0.000000000000000000, 10.00000000000000000, 0.000000000000000000 ) ) ;
#27 = EDGE_CURVE ( 'NONE', #281, #405, #210, .T. ) ;
#28 = AXIS2_PLACEMENT_3D ( 'NONE', #336, #328, #43 ) ;
#29 = ORIENTED_EDGE ( 'NONE', *, *, #4, .F. ) ;
#30 = EDGE_CURVE ( 'NONE', #50, #81, #276, .T. ) ;
#31 = VECTOR ( 'NONE', #1, 1000.000000000000000 ) ;
#32 = AXIS2_PLACEMENT_3D ( 'NONE', #257, #69, #33 ) ;
#33 = DIRECTION ( 'NONE',  ( 0.000000000000000000, 0.000000000000000000, 1.000000000000000000 ) ) ;
#34 = CC_DESIGN_DATE_AND_TIME_ASSIGNMENT ( #341, #377, ( #264 ) ) ;
#35 = CARTESIAN_POINT ( 'NONE',  ( 0.000000000000000000, 10.00000000000000000, 0.000000000000000000 ) ) ;
#36 = LINE ( 'NONE', #294, #171 ) ;
#37 = ORIENTED_EDGE ( 'NONE', *, *, #79, .T. ) ;
#38 = AXIS2_PLACEMENT_3D ( 'NONE', #53, #183, #20 ) ;
#39 = DIRECTION ( 'NONE',  ( 0.000000000000000000, 1.000000000000000000, -0.000000000000000000 ) ) ;
#40 = LINE ( 'NONE', #94, #340 ) ;
#41 = ORIENTED_EDGE ( 'NONE', *, *, #167, .T. ) ;
#42 = CYLINDRICAL_SURFACE ( 'NONE', #372, 70.00000000000000000 ) ;
#43 = DIRECTION ( 'NONE',  ( 0.000000000000000000, 0.000000000000000000, 1.000000000000000000 ) ) ;
#44 = ORIENTED_EDGE ( 'NONE', *, *, #52, .F. ) ;
#45 = CC_DESIGN_PERSON_AND_ORGANIZATION_ASSIGNMENT ( #151, #397, ( #22 ) ) ;
#46 = DIRECTION ( 'NONE',  ( 0.000000000000000000, 0.000000000000000000, -1.000000000000000000 ) ) ;
#47 = CARTESIAN_POINT ( 'NONE',  ( -70.00000000000000000, 8.000000000000000000, 0.000000000000000000 ) ) ;
#48 = FACE_OUTER_BOUND ( 'NONE', #366, .T. ) ;
#49 = AXIS2_PLACEMENT_3D ( 'NONE', #240, #233, #392 ) ;
#50 = VERTEX_POINT ( 'NONE', #338 ) ;
#51 = PERSON_AND_ORGANIZATION_ROLE ( 'creator' ) ;
#52 = EDGE_CURVE ( 'NONE', #303, #81, #218, .T. ) ;
#53 = CARTESIAN_POINT ( 'NONE',  ( 0.000000000000000000, 8.000000000000000000, 0.000000000000000000 ) ) ;
#54 = CIRCLE ( 'NONE', #102, 75.00000000000000000 ) ;
#55 = APPLICATION_PROTOCOL_DEFINITION ( 'international standard', 'config_control_design', 1994, #72 ) ;
#56 = CALENDAR_DATE ( 2026, 23, 7 ) ;
#57 = DATE_AND_TIME ( #85, #411 ) ;
#58 = VECTOR ( 'NONE', #363, 1000.000000000000000 ) ;
#59 = APPROVAL_STATUS ( 'not_yet_approved' ) ;
#60 = DIRECTION ( 'NONE',  ( -0.000000000000000000, 1.000000000000000000, -0.000000000000000000 ) ) ;
#61 = ORIENTED_EDGE ( 'NONE', *, *, #403, .T. ) ;
#62 = ADVANCED_FACE ( 'NONE', ( #398 ), #394, .F. ) ;
#63 = DIRECTION ( 'NONE',  ( 0.000000000000000000, 0.000000000000000000, 1.000000000000000000 ) ) ;
#64 = CARTESIAN_POINT ( 'NONE',  ( 0.000000000000000000, -8.000000000000001776, 0.000000000000000000 ) ) ;
#65 = VECTOR ( 'NONE', #169, 1000.000000000000000 ) ;
#66 = CARTESIAN_POINT ( 'NONE',  ( -75.00000000000000000, 5.635901949697199598, 0.000000000000000000 ) ) ;
#67 = CLOSED_SHELL ( 'NONE', ( #62, #128, #118, #235, #337, #292, #92, #182, #348, #277, #160 ) ) ;
#68 = EDGE_CURVE ( 'NONE', #298, #163, #311, .T. ) ;
#69 = DIRECTION ( 'NONE',  ( 0.000000000000000000, 1.000000000000000000, -0.000000000000000000 ) ) ;
#70 = ORIENTED_EDGE ( 'NONE', *, *, #247, .F. ) ;
#71 = LINE ( 'NONE', #130, #31 ) ;
#72 = APPLICATION_CONTEXT ( 'configuration controlled 3d designs of mechanical parts and assemblies' ) ;
#73 = CARTESIAN_POINT ( 'NONE',  ( 0.000000000000000000, 5.635901949697199598, 0.000000000000000000 ) ) ;
#74 = CARTESIAN_POINT ( 'NONE',  ( 0.000000000000000000, 10.00000000000000000, 0.000000000000000000 ) ) ;
#75 = CARTESIAN_POINT ( 'NONE',  ( 0.000000000000000000, -10.00000000000000000, 0.000000000000000000 ) ) ;
#76 = CARTESIAN_POINT ( 'NONE',  ( 0.000000000000000000, -10.00000000000000000, 0.000000000000000000 ) ) ;
#77 = DIRECTION ( 'NONE',  ( 0.000000000000000000, 0.000000000000000000, -1.000000000000000000 ) ) ;
#78 = ORIENTED_EDGE ( 'NONE', *, *, #101, .T. ) ;
#79 = EDGE_CURVE ( 'NONE', #253, #384, #351, .T. ) ;
#80 = DIRECTION ( 'NONE',  ( -0.000000000000000000, 1.000000000000000000, -0.000000000000000000 ) ) ;
#81 = VERTEX_POINT ( 'NONE', #3 ) ;
#82 = APPROVAL_ROLE ( '' ) ;
#83 = EDGE_CURVE ( 'NONE', #239, #163, #181, .T. ) ;
#84 = AXIS2_PLACEMENT_3D ( 'NONE', #226, #385, #353 ) ;
#85 = CALENDAR_DATE ( 2026, 23, 7 ) ;
#86 = CIRCLE ( 'NONE', #316, 90.00000000000000000 ) ;
#87 =( LENGTH_UNIT ( ) NAMED_UNIT ( * ) SI_UNIT ( .MILLI., .METRE. ) );
#88 = PERSON_AND_ORGANIZATION ( #258, #251 ) ;
#89 = EDGE_LOOP ( 'NONE', ( #319, #7, #155, #369 ) ) ;
#90 = APPROVAL_STATUS ( 'not_yet_approved' ) ;
#91 = LINE ( 'NONE', #220, #58 ) ;
#92 = ADVANCED_FACE ( 'NONE', ( #355 ), #291, .T. ) ;
#93 = LINE ( 'NONE', #352, #224 ) ;
#94 = CARTESIAN_POINT ( 'NONE',  ( -90.00000000000000000, 10.00000000000000000, 0.000000000000000000 ) ) ;
#95 = LINE ( 'NONE', #66, #339 ) ;
#96 = ORIENTED_EDGE ( 'NONE', *, *, #144, .F. ) ;
#97 = DIRECTION ( 'NONE',  ( -0.000000000000000000, -1.000000000000000000, -0.000000000000000000 ) ) ;
#98 = EDGE_CURVE ( 'NONE', #303, #253, #95, .T. ) ;
#99 = DIRECTION ( 'NONE',  ( 1.000000000000000000, -0.000000000000000000, 0.000000000000000000 ) ) ;
#100 = VERTEX_POINT ( 'NONE', #164 ) ;
#101 = EDGE_CURVE ( 'NONE', #163, #405, #71, .T. ) ;
#102 = AXIS2_PLACEMENT_3D ( 'NONE', #271, #80, #389 ) ;
#103 = DIRECTION ( 'NONE',  ( -0.000000000000000000, -1.000000000000000000, -0.000000000000000000 ) ) ;
#104 = EDGE_LOOP ( 'NONE', ( #126, #165, #270, #250 ) ) ;
#105 = FACE_OUTER_BOUND ( 'NONE', #329, .T. ) ;
#106 = EDGE_CURVE ( 'NONE', #298, #114, #36, .T. ) ;
#107 = EDGE_LOOP ( 'NONE', ( #359, #140, #357, #29 ) ) ;
#108 = LINE ( 'NONE', #325, #136 ) ;
#109 = ORIENTED_EDGE ( 'NONE', *, *, #52, .T. ) ;
#110 = UNCERTAINTY_MEASURE_WITH_UNIT (LENGTH_MEASURE( 1.000000000000000082E-05 ), #87, 'distance_accuracy_value', 'NONE');
#111 = FACE_OUTER_BOUND ( 'NONE', #104, .T. ) ;
#112 = ORIENTED_EDGE ( 'NONE', *, *, #98, .T. ) ;
#113 = DIRECTION ( 'NONE',  ( 0.000000000000000000, 0.000000000000000000, 1.000000000000000000 ) ) ;
#114 = VERTEX_POINT ( 'NONE', #409 ) ;
#115 = AXIS2_PLACEMENT_3D ( 'NONE', #378, #148, #212 ) ;
#116 =( NAMED_UNIT ( * ) PLANE_ANGLE_UNIT ( ) SI_UNIT ( $, .RADIAN. ) );
#117 = AXIS2_PLACEMENT_3D ( 'NONE', #202, #333, #205 ) ;
#118 = ADVANCED_FACE ( 'NONE', ( #256 ), #134, .T. ) ;
#119 = CALENDAR_DATE ( 2026, 23, 7 ) ;
#120 = APPROVAL ( #90, 'UNSPECIFIED' ) ;
#121 = AXIS2_PLACEMENT_3D ( 'NONE', #73, #146, #113 ) ;
#122 = DATE_AND_TIME ( #24, #255 ) ;
#123 = ORIENTED_EDGE ( 'NONE', *, *, #27, .F. ) ;
#124 =( NAMED_UNIT ( * ) SI_UNIT ( $, .STERADIAN. ) SOLID_ANGLE_UNIT ( ) );
#125 = AXIS2_PLACEMENT_3D ( 'NONE', #306, #25, #23 ) ;
#126 = ORIENTED_EDGE ( 'NONE', *, *, #272, .T. ) ;
#127 = VECTOR ( 'NONE', #99, 1000.000000000000000 ) ;
#128 = ADVANCED_FACE ( 'NONE', ( #289 ), #380, .T. ) ;
#129 = DIRECTION ( 'NONE',  ( -1.000000000000000000, 0.000000000000000000, 0.000000000000000000 ) ) ;
#130 = CARTESIAN_POINT ( 'NONE',  ( 90.00000000000000000, 10.00000000000000000, 0.000000000000000000 ) ) ;
#131 = CARTESIAN_POINT ( 'NONE',  ( 0.000000000000000000, 10.00000000000000000, 0.000000000000000000 ) ) ;
#132 = DIRECTION ( 'NONE',  ( 0.000000000000000000, 0.000000000000000000, -1.000000000000000000 ) ) ;
#133 = CC_DESIGN_SECURITY_CLASSIFICATION ( #248, ( #22 ) ) ;
#134 = PLANE ( 'NONE',  #191 ) ;
#135 = ORIENTED_EDGE ( 'NONE', *, *, #27, .T. ) ;
#136 = VECTOR ( 'NONE', #14, 1000.000000000000000 ) ;
#137 = CARTESIAN_POINT ( 'NONE',  ( -75.00000000000000000, 8.000000000000000000, 0.000000000000000000 ) ) ;
#138 = ORIENTED_EDGE ( 'NONE', *, *, #323, .T. ) ;
#139 = DIRECTION ( 'NONE',  ( 0.000000000000000000, 0.000000000000000000, 1.000000000000000000 ) ) ;
#140 = ORIENTED_EDGE ( 'NONE', *, *, #83, .T. ) ;
#141 = CARTESIAN_POINT ( 'NONE',  ( 0.000000000000000000, 8.000000000000000000, 0.000000000000000000 ) ) ;
#142 = ORIENTED_EDGE ( 'NONE', *, *, #317, .F. ) ;
#143 = CARTESIAN_POINT ( 'NONE',  ( -70.00000000000000000, -8.000000000000000000, 0.000000000000000000 ) ) ;
#144 = EDGE_CURVE ( 'NONE', #239, #100, #40, .T. ) ;
#145 = ORIENTED_EDGE ( 'NONE', *, *, #177, .T. ) ;
#146 = DIRECTION ( 'NONE',  ( -0.000000000000000000, 1.000000000000000000, -0.000000000000000000 ) ) ;
#147 = EDGE_CURVE ( 'NONE', #307, #281, #400, .T. ) ;
#148 = DIRECTION ( 'NONE',  ( 0.000000000000000000, 1.000000000000000000, -0.000000000000000000 ) ) ;
#149 = COORDINATED_UNIVERSAL_TIME_OFFSET ( 3, 30, .AHEAD. ) ;
#150 = EDGE_LOOP ( 'NONE', ( #17, #61, #391, #201, #78, #123, #266, #217 ) ) ;
#151 = PERSON_AND_ORGANIZATION ( #258, #251 ) ;
#152 = APPROVAL_ROLE ( '' ) ;
#153 = PERSON_AND_ORGANIZATION ( #258, #251 ) ;
#154 = VERTEX_POINT ( 'NONE', #228 ) ;
#155 = ORIENTED_EDGE ( 'NONE', *, *, #364, .T. ) ;
#156 = AXIS2_PLACEMENT_3D ( 'NONE', #131, #225, #199 ) ;
#157 = SHAPE_DEFINITION_REPRESENTATION ( #246, #185 ) ;
#158 = PLANE ( 'NONE',  #284 ) ;
#159 = VECTOR ( 'NONE', #360, 1000.000000000000000 ) ;
#160 = ADVANCED_FACE ( 'NONE', ( #412 ), #158, .T. ) ;
#161 = DIRECTION ( 'NONE',  ( 0.000000000000000000, 1.000000000000000000, -0.000000000000000000 ) ) ;
#162 = DIRECTION ( 'NONE',  ( 0.000000000000000000, 1.000000000000000000, -0.000000000000000000 ) ) ;
#163 = VERTEX_POINT ( 'NONE', #285 ) ;
#164 = CARTESIAN_POINT ( 'NONE',  ( -90.00000000000000000, -10.00000000000000000, 0.000000000000000000 ) ) ;
#165 = ORIENTED_EDGE ( 'NONE', *, *, #101, .F. ) ;
#166 = FACE_OUTER_BOUND ( 'NONE', #388, .T. ) ;
#167 = EDGE_CURVE ( 'NONE', #178, #281, #93, .T. ) ;
#168 = CIRCLE ( 'NONE', #28, 75.00000000000000000 ) ;
#169 = DIRECTION ( 'NONE',  ( 1.000000000000000000, 0.000000000000000000, 0.000000000000000000 ) ) ;
#170 = ORIENTED_EDGE ( 'NONE', *, *, #4, .T. ) ;
#171 = VECTOR ( 'NONE', #354, 1000.000000000000000 ) ;
#172 = CARTESIAN_POINT ( 'NONE',  ( 0.000000000000000000, 10.00000000000000000, 0.000000000000000000 ) ) ;
#173 = ORIENTED_EDGE ( 'NONE', *, *, #345, .T. ) ;
#174 = CARTESIAN_POINT ( 'NONE',  ( -90.00000000000000000, 10.00000000000000000, 0.000000000000000000 ) ) ;
#175 = ORIENTED_EDGE ( 'NONE', *, *, #272, .F. ) ;
#176 = CARTESIAN_POINT ( 'NONE',  ( 0.000000000000000000, 10.00000000000000000, 0.000000000000000000 ) ) ;
#177 = EDGE_CURVE ( 'NONE', #384, #178, #267, .T. ) ;
#178 = VERTEX_POINT ( 'NONE', #408 ) ;
#179 = DESIGN_CONTEXT ( 'detailed design', #332, 'design' ) ;
#180 = SECURITY_CLASSIFICATION_LEVEL ( 'unclassified' ) ;
#181 = CIRCLE ( 'NONE', #406, 90.00000000000000000 ) ;
#182 = ADVANCED_FACE ( 'NONE', ( #197 ), #320, .F. ) ;
#183 = DIRECTION ( 'NONE',  ( -0.000000000000000000, 1.000000000000000000, -0.000000000000000000 ) ) ;
#184 = CIRCLE ( 'NONE', #286, 70.00000000000000000 ) ;
#185 = ADVANCED_BREP_SHAPE_REPRESENTATION ( 'BigBallBearingHolder_Default_sldprt', ( #245, #125 ), #243 ) ;
#186 = PERSON_AND_ORGANIZATION ( #258, #251 ) ;
#187 = DIRECTION ( 'NONE',  ( 0.000000000000000000, 0.000000000000000000, 1.000000000000000000 ) ) ;
#188 = ORIENTED_EDGE ( 'NONE', *, *, #381, .T. ) ;
#189 = CC_DESIGN_PERSON_AND_ORGANIZATION_ASSIGNMENT ( #19, #244, ( #264 ) ) ;
#190 = DIRECTION ( 'NONE',  ( 1.000000000000000000, 0.000000000000000000, 0.000000000000000000 ) ) ;
#191 = AXIS2_PLACEMENT_3D ( 'NONE', #383, #132, #259 ) ;
#192 = CARTESIAN_POINT ( 'NONE',  ( -70.00000000000000000, -8.000000000000000000, 0.000000000000000000 ) ) ;
#193 = EDGE_CURVE ( 'NONE', #12, #303, #282, .T. ) ;
#194 = DIRECTION ( 'NONE',  ( 0.000000000000000000, 0.000000000000000000, 1.000000000000000000 ) ) ;
#195 = APPROVAL_PERSON_ORGANIZATION ( #342, #8, #21 ) ;
#196 = ORIENTED_EDGE ( 'NONE', *, *, #79, .F. ) ;
#197 = FACE_OUTER_BOUND ( 'NONE', #386, .T. ) ;
#198 = ORIENTED_EDGE ( 'NONE', *, *, #206, .F. ) ;
#199 = DIRECTION ( 'NONE',  ( -1.000000000000000000, 0.000000000000000000, -0.000000000000000000 ) ) ;
#200 = EDGE_CURVE ( 'NONE', #324, #396, #379, .T. ) ;
#201 = ORIENTED_EDGE ( 'NONE', *, *, #68, .T. ) ;
#202 = CARTESIAN_POINT ( 'NONE',  ( -70.00000000000000000, 8.000000000000000000, 0.000000000000000000 ) ) ;
#203 = APPROVAL ( #370, 'UNSPECIFIED' ) ;
#204 = LOCAL_TIME ( 16, 4, 43.00000000000000000, #373 ) ;
#205 = DIRECTION ( 'NONE',  ( 0.000000000000000000, -0.000000000000000000, -1.000000000000000000 ) ) ;
#206 = EDGE_CURVE ( 'NONE', #253, #50, #54, .T. ) ;
#207 = DIRECTION ( 'NONE',  ( 1.000000000000000000, -0.000000000000000000, 0.000000000000000000 ) ) ;
#208 = ORIENTED_EDGE ( 'NONE', *, *, #268, .F. ) ;
#209 = CARTESIAN_POINT ( 'NONE',  ( 0.000000000000000000, 8.000000000000000000, 0.000000000000000000 ) ) ;
#210 = LINE ( 'NONE', #76, #376 ) ;
#211 = DIRECTION ( 'NONE',  ( -0.000000000000000000, -1.000000000000000000, -0.000000000000000000 ) ) ;
#212 = DIRECTION ( 'NONE',  ( 0.000000000000000000, 0.000000000000000000, 1.000000000000000000 ) ) ;
#213 = COORDINATED_UNIVERSAL_TIME_OFFSET ( 3, 30, .AHEAD. ) ;
#214 = DATE_TIME_ROLE ( 'classification_date' ) ;
#215 = PERSON_AND_ORGANIZATION_ROLE ( 'design_owner' ) ;
#216 = PERSON_AND_ORGANIZATION ( #258, #251 ) ;
#217 = ORIENTED_EDGE ( 'NONE', *, *, #268, .T. ) ;
#218 = CIRCLE ( 'NONE', #38, 75.00000000000000000 ) ;
#219 = APPROVAL_DATE_TIME ( #122, #120 ) ;
#220 = CARTESIAN_POINT ( 'NONE',  ( -70.00000000000000000, 10.00000000000000000, 0.000000000000000000 ) ) ;
#221 = DATE_AND_TIME ( #56, #343 ) ;
#222 = CARTESIAN_POINT ( 'NONE',  ( 75.00000000000000000, 5.635901949697199598, 0.000000000000000000 ) ) ;
#223 = DIRECTION ( 'NONE',  ( 0.000000000000000000, 0.000000000000000000, 1.000000000000000000 ) ) ;
#224 = VECTOR ( 'NONE', #382, 1000.000000000000000 ) ;
#225 = DIRECTION ( 'NONE',  ( 0.000000000000000000, 0.000000000000000000, -1.000000000000000000 ) ) ;
#226 = CARTESIAN_POINT ( 'NONE',  ( 0.000000000000000000, -8.000000000000001776, 0.000000000000000000 ) ) ;
#227 = ORIENTED_EDGE ( 'NONE', *, *, #106, .T. ) ;
#228 = CARTESIAN_POINT ( 'NONE',  ( -70.00000000000000000, 10.00000000000000000, 0.000000000000000000 ) ) ;
#229 = VECTOR ( 'NONE', #279, 1000.000000000000000 ) ;
#230 = ORIENTED_EDGE ( 'NONE', *, *, #381, .F. ) ;
#231 = AXIS2_PLACEMENT_3D ( 'NONE', #35, #161, #313 ) ;
#232 = VECTOR ( 'NONE', #390, 1000.000000000000000 ) ;
#233 = DIRECTION ( 'NONE',  ( -0.000000000000000000, 1.000000000000000000, -0.000000000000000000 ) ) ;
#234 = CYLINDRICAL_SURFACE ( 'NONE', #350, 70.00000000000000000 ) ;
#235 = ADVANCED_FACE ( 'NONE', ( #48 ), #42, .F. ) ;
#236 = CARTESIAN_POINT ( 'NONE',  ( 70.00000000000000000, 10.00000000000000000, 0.000000000000000000 ) ) ;
#237 = EDGE_LOOP ( 'NONE', ( #327, #321, #112, #37, #263, #230, #96, #138 ) ) ;
#238 = CARTESIAN_POINT ( 'NONE',  ( 75.00000000000000000, 8.000000000000000000, 0.000000000000000000 ) ) ;
#239 = VERTEX_POINT ( 'NONE', #174 ) ;
#240 = CARTESIAN_POINT ( 'NONE',  ( 0.000000000000000000, -8.000000000000000000, 0.000000000000000000 ) ) ;
#241 = EDGE_LOOP ( 'NONE', ( #142, #312, #331, #44, #361 ) ) ;
#242 = PERSON_AND_ORGANIZATION ( #258, #251 ) ;
#243 =( GEOMETRIC_REPRESENTATION_CONTEXT ( 3 ) GLOBAL_UNCERTAINTY_ASSIGNED_CONTEXT ( ( #110 ) ) GLOBAL_UNIT_ASSIGNED_CONTEXT ( ( #87, #116, #124 ) ) REPRESENTATION_CONTEXT ( 'NONE', 'WORKASPACE' ) );
#244 = PERSON_AND_ORGANIZATION_ROLE ( 'creator' ) ;
#245 = MANIFOLD_SOLID_BREP ( 'Cut-Revolve1', #67 ) ;
#246 = PRODUCT_DEFINITION_SHAPE ( 'NONE', 'NONE',  #264 ) ;
#247 = EDGE_CURVE ( 'NONE', #154, #12, #358, .T. ) ;
#248 = SECURITY_CLASSIFICATION ( '', '', #180 ) ;
#249 = PERSON_AND_ORGANIZATION_ROLE ( 'classification_officer' ) ;
#250 = ORIENTED_EDGE ( 'NONE', *, *, #144, .T. ) ;
#251 = ORGANIZATION ( 'UNSPECIFIED', 'UNSPECIFIED', '' ) ;
#252 = APPROVAL_DATE_TIME ( #57, #8 ) ;
#253 = VERTEX_POINT ( 'NONE', #16 ) ;
#254 = CARTESIAN_POINT ( 'NONE',  ( 0.000000000000000000, -10.00000000000000000, 0.000000000000000000 ) ) ;
#255 = LOCAL_TIME ( 16, 4, 43.00000000000000000, #310 ) ;
#256 = FACE_OUTER_BOUND ( 'NONE', #150, .T. ) ;
#257 = CARTESIAN_POINT ( 'NONE',  ( 0.000000000000000000, -10.00000000000000000, 0.000000000000000000 ) ) ;
#258 = PERSON ( 'UNSPECIFIED', 'UNSPECIFIED', 'UNSPECIFIED', ('UNSPECIFIED'), ('UNSPECIFIED'), ('UNSPECIFIED') ) ;
#259 = DIRECTION ( 'NONE',  ( -1.000000000000000000, 0.000000000000000000, -0.000000000000000000 ) ) ;
#260 = CC_DESIGN_APPROVAL ( #203, ( #248 ) ) ;
#261 = ORIENTED_EDGE ( 'NONE', *, *, #147, .T. ) ;
#262 = DIRECTION ( 'NONE',  ( -0.000000000000000000, 1.000000000000000000, 0.000000000000000000 ) ) ;
#263 = ORIENTED_EDGE ( 'NONE', *, *, #10, .T. ) ;
#264 = PRODUCT_DEFINITION ( 'UNKNOWN', '', #22, #179 ) ;
#265 = DIRECTION ( 'NONE',  ( 0.000000000000000000, 0.000000000000000000, -1.000000000000000000 ) ) ;
#266 = ORIENTED_EDGE ( 'NONE', *, *, #167, .F. ) ;
#267 = CIRCLE ( 'NONE', #84, 70.00000000000000000 ) ;
#268 = EDGE_CURVE ( 'NONE', #178, #324, #299, .T. ) ;
#269 = CYLINDRICAL_SURFACE ( 'NONE', #121, 75.00000000000000000 ) ;
#270 = ORIENTED_EDGE ( 'NONE', *, *, #83, .F. ) ;
#271 = CARTESIAN_POINT ( 'NONE',  ( 0.000000000000000000, -8.000000000000000000, 0.000000000000000000 ) ) ;
#272 = EDGE_CURVE ( 'NONE', #100, #405, #86, .T. ) ;
#273 = DIRECTION ( 'NONE',  ( -0.000000000000000000, -1.000000000000000000, -0.000000000000000000 ) ) ;
#274 = CARTESIAN_POINT ( 'NONE',  ( 0.000000000000000000, 5.635901949697199598, 75.00000000000000000 ) ) ;
#275 = CARTESIAN_POINT ( 'NONE',  ( -70.00000000000000000, -10.00000000000000000, 0.000000000000000000 ) ) ;
#276 = LINE ( 'NONE', #274, #393 ) ;
#277 = ADVANCED_FACE ( 'NONE', ( #166 ), #269, .F. ) ;
#278 = ORIENTED_EDGE ( 'NONE', *, *, #317, .T. ) ;
#279 = DIRECTION ( 'NONE',  ( -1.000000000000000000, 0.000000000000000000, 0.000000000000000000 ) ) ;
#280 = VECTOR ( 'NONE', #207, 1000.000000000000000 ) ;
#281 = VERTEX_POINT ( 'NONE', #330 ) ;
#282 = LINE ( 'NONE', #318, #314 ) ;
#283 = VECTOR ( 'NONE', #190, 1000.000000000000000 ) ;
#284 = AXIS2_PLACEMENT_3D ( 'NONE', #192, #262, #223 ) ;
#285 = CARTESIAN_POINT ( 'NONE',  ( 90.00000000000000000, 10.00000000000000000, 0.000000000000000000 ) ) ;
#286 = AXIS2_PLACEMENT_3D ( 'NONE', #141, #302, #265 ) ;
#287 = APPROVAL_PERSON_ORGANIZATION ( #242, #203, #82 ) ;
#288 = CC_DESIGN_APPROVAL ( #8, ( #264 ) ) ;
#289 = FACE_OUTER_BOUND ( 'NONE', #237, .T. ) ;
#290 = APPROVAL_DATE_TIME ( #221, #203 ) ;
#291 = PLANE ( 'NONE',  #231 ) ;
#292 = ADVANCED_FACE ( 'NONE', ( #111 ), #6, .T. ) ;
#293 = ORIENTED_EDGE ( 'NONE', *, *, #10, .F. ) ;
#294 = CARTESIAN_POINT ( 'NONE',  ( 70.00000000000000000, 10.00000000000000000, 0.000000000000000000 ) ) ;
#295 = CC_DESIGN_PERSON_AND_ORGANIZATION_ASSIGNMENT ( #153, #249, ( #248 ) ) ;
#296 = CARTESIAN_POINT ( 'NONE',  ( 0.000000000000000000, -10.00000000000000000, 0.000000000000000000 ) ) ;
#297 = CIRCLE ( 'NONE', #115, 70.00000000000000000 ) ;
#298 = VERTEX_POINT ( 'NONE', #236 ) ;
#299 = LINE ( 'NONE', #387, #65 ) ;
#300 = ORIENTED_EDGE ( 'NONE', *, *, #177, .F. ) ;
#301 = DIRECTION ( 'NONE',  ( 0.000000000000000000, 0.000000000000000000, -1.000000000000000000 ) ) ;
#302 = DIRECTION ( 'NONE',  ( 0.000000000000000000, -1.000000000000000000, 0.000000000000000000 ) ) ;
#303 = VERTEX_POINT ( 'NONE', #137 ) ;
#304 = CARTESIAN_POINT ( 'NONE',  ( -70.00000000000000000, 10.00000000000000000, 0.000000000000000000 ) ) ;
#305 = ORIENTED_EDGE ( 'NONE', *, *, #147, .F. ) ;
#306 = CARTESIAN_POINT ( 'NONE',  ( 0.000000000000000000, 0.000000000000000000, 0.000000000000000000 ) ) ;
#307 = VERTEX_POINT ( 'NONE', #275 ) ;
#308 = CARTESIAN_POINT ( 'NONE',  ( 90.00000000000000000, -10.00000000000000000, 0.000000000000000000 ) ) ;
#309 = CC_DESIGN_PERSON_AND_ORGANIZATION_ASSIGNMENT ( #216, #51, ( #22 ) ) ;
#310 = COORDINATED_UNIVERSAL_TIME_OFFSET ( 3, 30, .AHEAD. ) ;
#311 = LINE ( 'NONE', #26, #127 ) ;
#312 = ORIENTED_EDGE ( 'NONE', *, *, #403, .F. ) ;
#313 = DIRECTION ( 'NONE',  ( 0.000000000000000000, 0.000000000000000000, 1.000000000000000000 ) ) ;
#314 = VECTOR ( 'NONE', #129, 1000.000000000000000 ) ;
#315 = DIRECTION ( 'NONE',  ( 0.000000000000000000, -1.000000000000000000, 0.000000000000000000 ) ) ;
#316 = AXIS2_PLACEMENT_3D ( 'NONE', #296, #9, #139 ) ;
#317 = EDGE_CURVE ( 'NONE', #114, #12, #184, .T. ) ;
#318 = CARTESIAN_POINT ( 'NONE',  ( 0.000000000000000000, 8.000000000000000000, 0.000000000000000000 ) ) ;
#319 = ORIENTED_EDGE ( 'NONE', *, *, #345, .F. ) ;
#320 = PLANE ( 'NONE',  #407 ) ;
#321 = ORIENTED_EDGE ( 'NONE', *, *, #193, .T. ) ;
#322 = CARTESIAN_POINT ( 'NONE',  ( 0.000000000000000000, 10.00000000000000000, 0.000000000000000000 ) ) ;
#323 = EDGE_CURVE ( 'NONE', #239, #154, #108, .T. ) ;
#324 = VERTEX_POINT ( 'NONE', #395 ) ;
#325 = CARTESIAN_POINT ( 'NONE',  ( 0.000000000000000000, 10.00000000000000000, 0.000000000000000000 ) ) ;
#326 = CC_DESIGN_DATE_AND_TIME_ASSIGNMENT ( #399, #214, ( #248 ) ) ;
#327 = ORIENTED_EDGE ( 'NONE', *, *, #247, .T. ) ;
#328 = DIRECTION ( 'NONE',  ( -0.000000000000000000, 1.000000000000000000, -0.000000000000000000 ) ) ;
#329 = EDGE_LOOP ( 'NONE', ( #293, #145, #41, #305 ) ) ;
#330 = CARTESIAN_POINT ( 'NONE',  ( 70.00000000000000000, -10.00000000000000000, 0.000000000000000000 ) ) ;
#331 = ORIENTED_EDGE ( 'NONE', *, *, #364, .F. ) ;
#332 = APPLICATION_CONTEXT ( 'configuration controlled 3d designs of mechanical parts and assemblies' ) ;
#333 = DIRECTION ( 'NONE',  ( 0.000000000000000000, -1.000000000000000000, 0.000000000000000000 ) ) ;
#334 = DIRECTION ( 'NONE',  ( 1.000000000000000000, -0.000000000000000000, 0.000000000000000000 ) ) ;
#335 = CIRCLE ( 'NONE', #49, 75.00000000000000000 ) ;
#336 = CARTESIAN_POINT ( 'NONE',  ( 0.000000000000000000, 8.000000000000000000, 0.000000000000000000 ) ) ;
#337 = ADVANCED_FACE ( 'NONE', ( #105 ), #234, .F. ) ;
#338 = CARTESIAN_POINT ( 'NONE',  ( 0.000000000000000000, -8.000000000000000000, 75.00000000000000000 ) ) ;
#339 = VECTOR ( 'NONE', #315, 1000.000000000000000 ) ;
#340 = VECTOR ( 'NONE', #97, 1000.000000000000000 ) ;
#341 = DATE_AND_TIME ( #119, #204 ) ;
#342 = PERSON_AND_ORGANIZATION ( #258, #251 ) ;
#343 = LOCAL_TIME ( 16, 4, 43.00000000000000000, #213 ) ;
#344 = APPROVAL_PERSON_ORGANIZATION ( #186, #120, #152 ) ;
#345 = EDGE_CURVE ( 'NONE', #50, #324, #335, .T. ) ;
#346 = APPLICATION_PROTOCOL_DEFINITION ( 'international standard', 'config_control_design', 1994, #332 ) ;
#347 = EDGE_LOOP ( 'NONE', ( #15, #173, #208, #300, #196 ) ) ;
#348 = ADVANCED_FACE ( 'NONE', ( #368 ), #362, .T. ) ;
#349 = DIRECTION ( 'NONE',  ( -0.000000000000000000, 1.000000000000000000, -0.000000000000000000 ) ) ;
#350 = AXIS2_PLACEMENT_3D ( 'NONE', #74, #103, #301 ) ;
#351 = LINE ( 'NONE', #64, #283 ) ;
#352 = CARTESIAN_POINT ( 'NONE',  ( 70.00000000000000000, 10.00000000000000000, 0.000000000000000000 ) ) ;
#353 = DIRECTION ( 'NONE',  ( 0.000000000000000000, 0.000000000000000000, 1.000000000000000000 ) ) ;
#354 = DIRECTION ( 'NONE',  ( -0.000000000000000000, -1.000000000000000000, -0.000000000000000000 ) ) ;
#355 = FACE_OUTER_BOUND ( 'NONE', #107, .T. ) ;
#356 = AXIS2_PLACEMENT_3D ( 'NONE', #375, #60, #187 ) ;
#357 = ORIENTED_EDGE ( 'NONE', *, *, #68, .F. ) ;
#358 = LINE ( 'NONE', #304, #159 ) ;
#359 = ORIENTED_EDGE ( 'NONE', *, *, #323, .F. ) ;
#360 = DIRECTION ( 'NONE',  ( -0.000000000000000000, -1.000000000000000000, -0.000000000000000000 ) ) ;
#361 = ORIENTED_EDGE ( 'NONE', *, *, #193, .F. ) ;
#362 = PLANE ( 'NONE',  #117 ) ;
#363 = DIRECTION ( 'NONE',  ( -0.000000000000000000, -1.000000000000000000, -0.000000000000000000 ) ) ;
#364 = EDGE_CURVE ( 'NONE', #81, #396, #168, .T. ) ;
#365 = LINE ( 'NONE', #209, #229 ) ;
#366 = EDGE_LOOP ( 'NONE', ( #227, #278, #70, #170 ) ) ;
#367 = CC_DESIGN_PERSON_AND_ORGANIZATION_ASSIGNMENT ( #88, #215, ( #18 ) ) ;
#368 = FACE_OUTER_BOUND ( 'NONE', #241, .T. ) ;
#369 = ORIENTED_EDGE ( 'NONE', *, *, #200, .F. ) ;
#370 = APPROVAL_STATUS ( 'not_yet_approved' ) ;
#371 = PRODUCT_RELATED_PRODUCT_CATEGORY ( 'detail', '', ( #18 ) ) ;
#372 = AXIS2_PLACEMENT_3D ( 'NONE', #176, #273, #46 ) ;
#373 = COORDINATED_UNIVERSAL_TIME_OFFSET ( 3, 30, .AHEAD. ) ;
#374 = CALENDAR_DATE ( 2026, 23, 7 ) ;
#375 = CARTESIAN_POINT ( 'NONE',  ( 0.000000000000000000, 5.635901949697199598, 0.000000000000000000 ) ) ;
#376 = VECTOR ( 'NONE', #334, 1000.000000000000000 ) ;
#377 = DATE_TIME_ROLE ( 'creation_date' ) ;
#378 = CARTESIAN_POINT ( 'NONE',  ( 0.000000000000000000, 10.00000000000000000, 0.000000000000000000 ) ) ;
#379 = LINE ( 'NONE', #222, #232 ) ;
#380 = PLANE ( 'NONE',  #156 ) ;
#381 = EDGE_CURVE ( 'NONE', #100, #307, #11, .T. ) ;
#382 = DIRECTION ( 'NONE',  ( -0.000000000000000000, -1.000000000000000000, -0.000000000000000000 ) ) ;
#383 = CARTESIAN_POINT ( 'NONE',  ( 0.000000000000000000, 10.00000000000000000, 0.000000000000000000 ) ) ;
#384 = VERTEX_POINT ( 'NONE', #143 ) ;
#385 = DIRECTION ( 'NONE',  ( -0.000000000000000000, 1.000000000000000000, -0.000000000000000000 ) ) ;
#386 = EDGE_LOOP ( 'NONE', ( #188, #261, #135, #175 ) ) ;
#387 = CARTESIAN_POINT ( 'NONE',  ( 0.000000000000000000, -8.000000000000001776, 0.000000000000000000 ) ) ;
#388 = EDGE_LOOP ( 'NONE', ( #5, #198, #2, #109 ) ) ;
#389 = DIRECTION ( 'NONE',  ( 0.000000000000000000, 0.000000000000000000, 1.000000000000000000 ) ) ;
#390 = DIRECTION ( 'NONE',  ( -0.000000000000000000, 1.000000000000000000, -0.000000000000000000 ) ) ;
#391 = ORIENTED_EDGE ( 'NONE', *, *, #106, .F. ) ;
#392 = DIRECTION ( 'NONE',  ( 0.000000000000000000, 0.000000000000000000, 1.000000000000000000 ) ) ;
#393 = VECTOR ( 'NONE', #349, 1000.000000000000000 ) ;
#394 = CYLINDRICAL_SURFACE ( 'NONE', #356, 75.00000000000000000 ) ;
#395 = CARTESIAN_POINT ( 'NONE',  ( 75.00000000000000000, -8.000000000000000000, 0.000000000000000000 ) ) ;
#396 = VERTEX_POINT ( 'NONE', #238 ) ;
#397 = PERSON_AND_ORGANIZATION_ROLE ( 'design_supplier' ) ;
#398 = FACE_OUTER_BOUND ( 'NONE', #89, .T. ) ;
#399 = DATE_AND_TIME ( #374, #410 ) ;
#400 = CIRCLE ( 'NONE', #32, 70.00000000000000000 ) ;
#401 = AXIS2_PLACEMENT_3D ( 'NONE', #172, #211, #77 ) ;
#402 = MECHANICAL_CONTEXT ( 'NONE', #72, 'mechanical' ) ;
#403 = EDGE_CURVE ( 'NONE', #396, #114, #365, .T. ) ;
#404 = COORDINATED_UNIVERSAL_TIME_OFFSET ( 3, 30, .AHEAD. ) ;
#405 = VERTEX_POINT ( 'NONE', #308 ) ;
#406 = AXIS2_PLACEMENT_3D ( 'NONE', #322, #162, #63 ) ;
#407 = AXIS2_PLACEMENT_3D ( 'NONE', #254, #39, #194 ) ;
#408 = CARTESIAN_POINT ( 'NONE',  ( 70.00000000000000000, -8.000000000000001776, 0.000000000000000000 ) ) ;
#409 = CARTESIAN_POINT ( 'NONE',  ( 70.00000000000000000, 8.000000000000000000, 0.000000000000000000 ) ) ;
#410 = LOCAL_TIME ( 16, 4, 43.00000000000000000, #149 ) ;
#411 = LOCAL_TIME ( 16, 4, 43.00000000000000000, #404 ) ;
#412 = FACE_OUTER_BOUND ( 'NONE', #347, .T. ) ;
ENDSEC;
END-ISO-10303-21;
