ISO-10303-21;
HEADER;
FILE_DESCRIPTION (( 'STEP AP203' ),
    '1' );
FILE_NAME ('Flange_Default_sldprt.STEP',
    '2026-07-23T12:34:46',
    ( '' ),
    ( '' ),
    'SwSTEP 2.0',
    'SolidWorks 2025',
    '' );
FILE_SCHEMA (( 'CONFIG_CONTROL_DESIGN' ));
ENDSEC;

DATA;
#1 = CARTESIAN_POINT ( 'NONE',  ( 2.500000000000000000, 16.00000000000000000, 0.000000000000000000 ) ) ;
#2 = ORIENTED_EDGE ( 'NONE', *, *, #534, .T. ) ;
#3 = VECTOR ( 'NONE', #57, 1000.000000000000000 ) ;
#4 = CARTESIAN_POINT ( 'NONE',  ( 0.000000000000000000, -16.00000000000000000, 8.000000000000000000 ) ) ;
#5 = EDGE_LOOP ( 'NONE', ( #434, #182, #174, #40 ) ) ;
#6 = EDGE_CURVE ( 'NONE', #77, #481, #15, .T. ) ;
#7 = CYLINDRICAL_SURFACE ( 'NONE', #62, 2.500000000000000000 ) ;
#8 = ORIENTED_EDGE ( 'NONE', *, *, #89, .F. ) ;
#9 = DIRECTION ( 'NONE',  ( -0.000000000000000000, -0.000000000000000000, 1.000000000000000000 ) ) ;
#10 = ORIENTED_EDGE ( 'NONE', *, *, #571, .F. ) ;
#11 = CARTESIAN_POINT ( 'NONE',  ( 0.000000000000000000, 0.000000000000000000, 0.000000000000000000 ) ) ;
#12 = CARTESIAN_POINT ( 'NONE',  ( 0.000000000000000000, -16.00000000000000000, 0.000000000000000000 ) ) ;
#13 = EDGE_CURVE ( 'NONE', #269, #61, #353, .T. ) ;
#14 = DIRECTION ( 'NONE',  ( 1.000000000000000000, 0.000000000000000000, 0.000000000000000000 ) ) ;
#15 = CIRCLE ( 'NONE', #420, 5.000000000000000000 ) ;
#16 = EDGE_CURVE ( 'NONE', #603, #273, #496, .T. ) ;
#17 = CLOSED_SHELL ( 'NONE', ( #144, #310, #48, #424, #463, #497, #488, #314, #217, #65, #175, #433, #335, #326, #208, #446, #294 ) ) ;
#18 = DIRECTION ( 'NONE',  ( 1.000000000000000000, 0.000000000000000000, 0.000000000000000000 ) ) ;
#19 = AXIS2_PLACEMENT_3D ( 'NONE', #378, #432, #427 ) ;
#20 = DIRECTION ( 'NONE',  ( -0.000000000000000000, -0.000000000000000000, 1.000000000000000000 ) ) ;
#21 = FACE_OUTER_BOUND ( 'NONE', #320, .T. ) ;
#22 = DIRECTION ( 'NONE',  ( -0.000000000000000000, -0.000000000000000000, -1.000000000000000000 ) ) ;
#23 = CARTESIAN_POINT ( 'NONE',  ( 18.50000000000000000, 0.000000000000000000, 0.000000000000000000 ) ) ;
#24 = PERSON_AND_ORGANIZATION_ROLE ( 'classification_officer' ) ;
#25 = DIRECTION ( 'NONE',  ( 1.000000000000000000, 0.000000000000000000, 0.000000000000000000 ) ) ;
#26 = ORIENTED_EDGE ( 'NONE', *, *, #387, .T. ) ;
#27 = AXIS2_PLACEMENT_3D ( 'NONE', #419, #9, #92 ) ;
#28 = DIRECTION ( 'NONE',  ( -1.000000000000000000, 0.000000000000000000, 0.000000000000000000 ) ) ;
#29 = CIRCLE ( 'NONE', #531, 5.000000000000000000 ) ;
#30 = EDGE_LOOP ( 'NONE', ( #215, #52, #459, #140 ) ) ;
#31 = DATE_AND_TIME ( #311, #522 ) ;
#32 = EDGE_LOOP ( 'NONE', ( #554, #255, #225, #138 ) ) ;
#33 = PERSON_AND_ORGANIZATION ( #487, #492 ) ;
#34 = LINE ( 'NONE', #76, #347 ) ;
#35 = ORIENTED_EDGE ( 'NONE', *, *, #237, .T. ) ;
#36 = CARTESIAN_POINT ( 'NONE',  ( 0.000000000000000000, 0.000000000000000000, 11.00000000000000000 ) ) ;
#37 = ORIENTED_EDGE ( 'NONE', *, *, #107, .F. ) ;
#38 = DIRECTION ( 'NONE',  ( 1.000000000000000000, 0.000000000000000000, 0.000000000000000000 ) ) ;
#39 = EDGE_CURVE ( 'NONE', #355, #514, #343, .T. ) ;
#40 = ORIENTED_EDGE ( 'NONE', *, *, #331, .F. ) ;
#41 = DIRECTION ( 'NONE',  ( 1.000000000000000000, 0.000000000000000000, 0.000000000000000000 ) ) ;
#42 = ORIENTED_EDGE ( 'NONE', *, *, #137, .F. ) ;
#43 = CARTESIAN_POINT ( 'NONE',  ( -5.000000000000000000, 0.000000000000000000, 33.00000000000000000 ) ) ;
#44 = EDGE_LOOP ( 'NONE', ( #73, #135, #411, #525 ) ) ;
#45 = AXIS2_PLACEMENT_3D ( 'NONE', #501, #118, #72 ) ;
#46 = PLANE ( 'NONE',  #111 ) ;
#47 = VERTEX_POINT ( 'NONE', #300 ) ;
#48 = ADVANCED_FACE ( 'NONE', ( #448 ), #580, .F. ) ;
#49 = CARTESIAN_POINT ( 'NONE',  ( 0.000000000000000000, 0.000000000000000000, 33.00000000000000000 ) ) ;
#50 = VERTEX_POINT ( 'NONE', #576 ) ;
#51 = CARTESIAN_POINT ( 'NONE',  ( -27.00000000000000000, 0.000000000000000000, 8.000000000000000000 ) ) ;
#52 = ORIENTED_EDGE ( 'NONE', *, *, #382, .F. ) ;
#53 = VECTOR ( 'NONE', #224, 1000.000000000000000 ) ;
#54 = CARTESIAN_POINT ( 'NONE',  ( 0.000000000000000000, 0.000000000000000000, 8.000000000000000000 ) ) ;
#55 = EDGE_CURVE ( 'NONE', #86, #371, #295, .T. ) ;
#56 = VERTEX_POINT ( 'NONE', #581 ) ;
#57 = DIRECTION ( 'NONE',  ( -0.000000000000000000, -0.000000000000000000, -1.000000000000000000 ) ) ;
#58 = DIRECTION ( 'NONE',  ( 0.000000000000000000, 0.000000000000000000, 1.000000000000000000 ) ) ;
#59 = CARTESIAN_POINT ( 'NONE',  ( 0.000000000000000000, 0.000000000000000000, 8.000000000000000000 ) ) ;
#60 = DIRECTION ( 'NONE',  ( 0.000000000000000000, 0.000000000000000000, 1.000000000000000000 ) ) ;
#61 = VERTEX_POINT ( 'NONE', #199 ) ;
#62 = AXIS2_PLACEMENT_3D ( 'NONE', #558, #238, #38 ) ;
#63 = CARTESIAN_POINT ( 'NONE',  ( 18.50000000000000000, 0.000000000000000000, 8.000000000000000000 ) ) ;
#64 = CARTESIAN_POINT ( 'NONE',  ( 16.00000000000000000, 0.000000000000000000, 0.000000000000000000 ) ) ;
#65 = ADVANCED_FACE ( 'NONE', ( #254, #541, #389, #535, #21 ), #203, .F. ) ;
#66 = DIRECTION ( 'NONE',  ( 1.000000000000000000, 0.000000000000000000, 0.000000000000000000 ) ) ;
#67 = EDGE_LOOP ( 'NONE', ( #166, #468, #461, #379 ) ) ;
#68 = DIRECTION ( 'NONE',  ( -0.000000000000000000, -0.000000000000000000, -1.000000000000000000 ) ) ;
#69 = EDGE_LOOP ( 'NONE', ( #431, #8, #592, #35 ) ) ;
#70 = CALENDAR_DATE ( 2026, 23, 7 ) ;
#71 = AXIS2_PLACEMENT_3D ( 'NONE', #321, #280, #179 ) ;
#72 = DIRECTION ( 'NONE',  ( -1.000000000000000000, 1.224646799147353454E-16, 0.000000000000000000 ) ) ;
#73 = ORIENTED_EDGE ( 'NONE', *, *, #543, .F. ) ;
#74 = CC_DESIGN_PERSON_AND_ORGANIZATION_ASSIGNMENT ( #33, #24, ( #394 ) ) ;
#75 = PERSON_AND_ORGANIZATION_ROLE ( 'design_supplier' ) ;
#76 = CARTESIAN_POINT ( 'NONE',  ( -2.500000000000000444, -16.00000000000000000, 0.000000000000000000 ) ) ;
#77 = VERTEX_POINT ( 'NONE', #103 ) ;
#78 = EDGE_CURVE ( 'NONE', #163, #514, #369, .T. ) ;
#79 = SECURITY_CLASSIFICATION_LEVEL ( 'unclassified' ) ;
#80 = CYLINDRICAL_SURFACE ( 'NONE', #121, 27.00000000000000000 ) ;
#81 = ORIENTED_EDGE ( 'NONE', *, *, #127, .T. ) ;
#82 = CARTESIAN_POINT ( 'NONE',  ( 5.000000000000000000, 6.123233995736766282E-16, 33.00000000000000000 ) ) ;
#83 = AXIS2_PLACEMENT_3D ( 'NONE', #142, #184, #381 ) ;
#84 = ORIENTED_EDGE ( 'NONE', *, *, #251, .T. ) ;
#85 = CARTESIAN_POINT ( 'NONE',  ( -16.00000000000000000, 0.000000000000000000, 0.000000000000000000 ) ) ;
#86 = VERTEX_POINT ( 'NONE', #293 ) ;
#87 = CARTESIAN_POINT ( 'NONE',  ( 13.50000000000000178, 3.061616997868381662E-16, 0.000000000000000000 ) ) ;
#88 = ORIENTED_EDGE ( 'NONE', *, *, #16, .F. ) ;
#89 = EDGE_CURVE ( 'NONE', #284, #589, #380, .T. ) ;
#90 = AXIS2_PLACEMENT_3D ( 'NONE', #145, #246, #486 ) ;
#91 = PRODUCT_DEFINITION_SHAPE ( 'NONE', 'NONE',  #99 ) ;
#92 = DIRECTION ( 'NONE',  ( 1.000000000000000000, 0.000000000000000000, 0.000000000000000000 ) ) ;
#93 = ORIENTED_EDGE ( 'NONE', *, *, #55, .T. ) ;
#94 = CIRCLE ( 'NONE', #83, 2.500000000000000444 ) ;
#95 = FACE_OUTER_BOUND ( 'NONE', #44, .T. ) ;
#96 = ORIENTED_EDGE ( 'NONE', *, *, #490, .F. ) ;
#97 = DIRECTION ( 'NONE',  ( -0.000000000000000000, -0.000000000000000000, -1.000000000000000000 ) ) ;
#98 = DIRECTION ( 'NONE',  ( -0.000000000000000000, -0.000000000000000000, -1.000000000000000000 ) ) ;
#99 = PRODUCT_DEFINITION ( 'UNKNOWN', '', #372, #149 ) ;
#100 = LINE ( 'NONE', #23, #526 ) ;
#101 = AXIS2_PLACEMENT_3D ( 'NONE', #105, #572, #241 ) ;
#102 = DIRECTION ( 'NONE',  ( -1.000000000000000000, 0.000000000000000000, 0.000000000000000000 ) ) ;
#103 = CARTESIAN_POINT ( 'NONE',  ( 5.000000000000000000, 6.123233995736766282E-16, 11.00000000000000000 ) ) ;
#104 = ORIENTED_EDGE ( 'NONE', *, *, #352, .F. ) ;
#105 = CARTESIAN_POINT ( 'NONE',  ( 0.000000000000000000, -16.00000000000000000, 0.000000000000000000 ) ) ;
#106 = DIRECTION ( 'NONE',  ( 1.000000000000000000, 0.000000000000000000, 0.000000000000000000 ) ) ;
#107 = EDGE_CURVE ( 'NONE', #355, #477, #189, .T. ) ;
#108 = DIRECTION ( 'NONE',  ( 0.000000000000000000, 0.000000000000000000, 1.000000000000000000 ) ) ;
#109 = FACE_OUTER_BOUND ( 'NONE', #67, .T. ) ;
#110 = CC_DESIGN_APPROVAL ( #266, ( #99 ) ) ;
#111 = AXIS2_PLACEMENT_3D ( 'NONE', #49, #332, #190 ) ;
#112 = DIRECTION ( 'NONE',  ( 1.000000000000000000, 0.000000000000000000, 0.000000000000000000 ) ) ;
#113 = EDGE_CURVE ( 'NONE', #284, #596, #100, .T. ) ;
#114 = DIRECTION ( 'NONE',  ( -0.000000000000000000, -0.000000000000000000, 1.000000000000000000 ) ) ;
#115 = ORIENTED_EDGE ( 'NONE', *, *, #262, .F. ) ;
#116 = AXIS2_PLACEMENT_3D ( 'NONE', #205, #537, #106 ) ;
#117 = CC_DESIGN_DATE_AND_TIME_ASSIGNMENT ( #462, #544, ( #99 ) ) ;
#118 = DIRECTION ( 'NONE',  ( 1.224646799147353207E-16, 1.000000000000000000, -0.000000000000000000 ) ) ;
#119 = EDGE_LOOP ( 'NONE', ( #81, #333 ) ) ;
#120 = CC_DESIGN_APPROVAL ( #183, ( #372 ) ) ;
#121 = AXIS2_PLACEMENT_3D ( 'NONE', #272, #417, #598 ) ;
#122 = FACE_OUTER_BOUND ( 'NONE', #557, .T. ) ;
#123 = ORIENTED_EDGE ( 'NONE', *, *, #237, .F. ) ;
#124 = APPROVAL_ROLE ( '' ) ;
#125 = CARTESIAN_POINT ( 'NONE',  ( 0.000000000000000000, 0.000000000000000000, 33.00000000000000000 ) ) ;
#126 = ORIENTED_EDGE ( 'NONE', *, *, #560, .T. ) ;
#127 = EDGE_CURVE ( 'NONE', #61, #269, #508, .T. ) ;
#128 = DIRECTION ( 'NONE',  ( 1.000000000000000000, 0.000000000000000000, 0.000000000000000000 ) ) ;
#129 = ORIENTED_EDGE ( 'NONE', *, *, #390, .T. ) ;
#130 = LINE ( 'NONE', #43, #271 ) ;
#131 = CIRCLE ( 'NONE', #396, 2.499999999999998668 ) ;
#132 = EDGE_LOOP ( 'NONE', ( #507, #454, #220, #10 ) ) ;
#133 = DIRECTION ( 'NONE',  ( 1.000000000000000000, 0.000000000000000000, 0.000000000000000000 ) ) ;
#134 = AXIS2_PLACEMENT_3D ( 'NONE', #484, #248, #450 ) ;
#135 = ORIENTED_EDGE ( 'NONE', *, *, #244, .F. ) ;
#136 = DIRECTION ( 'NONE',  ( 1.000000000000000000, 0.000000000000000000, 0.000000000000000000 ) ) ;
#137 = EDGE_CURVE ( 'NONE', #276, #47, #602, .T. ) ;
#138 = ORIENTED_EDGE ( 'NONE', *, *, #13, .F. ) ;
#139 = FACE_OUTER_BOUND ( 'NONE', #188, .T. ) ;
#140 = ORIENTED_EDGE ( 'NONE', *, *, #438, .T. ) ;
#141 = VECTOR ( 'NONE', #228, 1000.000000000000000 ) ;
#142 = CARTESIAN_POINT ( 'NONE',  ( -16.00000000000000000, 0.000000000000000000, 8.000000000000000000 ) ) ;
#143 = ORIENTED_EDGE ( 'NONE', *, *, #231, .F. ) ;
#144 = ADVANCED_FACE ( 'NONE', ( #109 ), #402, .F. ) ;
#145 = CARTESIAN_POINT ( 'NONE',  ( 16.00000000000000000, 0.000000000000000000, 0.000000000000000000 ) ) ;
#146 = CARTESIAN_POINT ( 'NONE',  ( 0.000000000000000000, 16.00000000000000000, 8.000000000000000000 ) ) ;
#147 = CARTESIAN_POINT ( 'NONE',  ( 0.000000000000000000, 0.000000000000000000, 0.000000000000000000 ) ) ;
#148 = CC_DESIGN_SECURITY_CLASSIFICATION ( #394, ( #372 ) ) ;
#149 = DESIGN_CONTEXT ( 'detailed design', #240, 'design' ) ;
#150 = CIRCLE ( 'NONE', #101, 2.500000000000000444 ) ;
#151 = CIRCLE ( 'NONE', #504, 2.500000000000000000 ) ;
#152 = DIRECTION ( 'NONE',  ( -0.000000000000000000, -0.000000000000000000, 1.000000000000000000 ) ) ;
#153 = CARTESIAN_POINT ( 'NONE',  ( 13.50000000000000178, 3.061616997868381662E-16, 0.000000000000000000 ) ) ;
#154 = DIRECTION ( 'NONE',  ( -0.000000000000000000, -0.000000000000000000, 1.000000000000000000 ) ) ;
#155 =( NAMED_UNIT ( * ) SI_UNIT ( $, .STERADIAN. ) SOLID_ANGLE_UNIT ( ) );
#156 = LINE ( 'NONE', #346, #425 ) ;
#157 = AXIS2_PLACEMENT_3D ( 'NONE', #36, #308, #410 ) ;
#158 = CYLINDRICAL_SURFACE ( 'NONE', #233, 5.000000000000000000 ) ;
#159 = ORIENTED_EDGE ( 'NONE', *, *, #201, .F. ) ;
#160 = EDGE_CURVE ( 'NONE', #47, #276, #359, .T. ) ;
#161 = PERSON_AND_ORGANIZATION ( #487, #492 ) ;
#162 = DIRECTION ( 'NONE',  ( 0.000000000000000000, 0.000000000000000000, 1.000000000000000000 ) ) ;
#163 = VERTEX_POINT ( 'NONE', #445 ) ;
#164 = APPROVAL_STATUS ( 'not_yet_approved' ) ;
#165 = PLANE ( 'NONE',  #523 ) ;
#166 = ORIENTED_EDGE ( 'NONE', *, *, #438, .F. ) ;
#167 = UNCERTAINTY_MEASURE_WITH_UNIT (LENGTH_MEASURE( 1.000000000000000082E-05 ), #485, 'distance_accuracy_value', 'NONE');
#168 = AXIS2_PLACEMENT_3D ( 'NONE', #296, #341, #25 ) ;
#169 = CALENDAR_DATE ( 2026, 23, 7 ) ;
#170 = AXIS2_PLACEMENT_3D ( 'NONE', #354, #513, #358 ) ;
#171 = FACE_BOUND ( 'NONE', #423, .T. ) ;
#172 = ORIENTED_EDGE ( 'NONE', *, *, #55, .F. ) ;
#173 = CARTESIAN_POINT ( 'NONE',  ( 0.000000000000000000, 16.00000000000000000, 8.000000000000000000 ) ) ;
#174 = ORIENTED_EDGE ( 'NONE', *, *, #317, .T. ) ;
#175 = ADVANCED_FACE ( 'NONE', ( #299 ), #489, .F. ) ;
#176 = CYLINDRICAL_SURFACE ( 'NONE', #373, 2.499999999999998668 ) ;
#177 = ORIENTED_EDGE ( 'NONE', *, *, #201, .T. ) ;
#178 = ADVANCED_BREP_SHAPE_REPRESENTATION ( 'Flange_Default_sldprt', ( #480, #327 ), #456 ) ;
#179 = DIRECTION ( 'NONE',  ( 1.000000000000000000, 0.000000000000000000, 0.000000000000000000 ) ) ;
#180 = AXIS2_PLACEMENT_3D ( 'NONE', #460, #302, #404 ) ;
#181 = AXIS2_PLACEMENT_3D ( 'NONE', #146, #108, #340 ) ;
#182 = ORIENTED_EDGE ( 'NONE', *, *, #543, .T. ) ;
#183 = APPROVAL ( #449, 'UNSPECIFIED' ) ;
#184 = DIRECTION ( 'NONE',  ( 0.000000000000000000, 0.000000000000000000, 1.000000000000000000 ) ) ;
#185 = AXIS2_PLACEMENT_3D ( 'NONE', #147, #289, #530 ) ;
#186 = EDGE_LOOP ( 'NONE', ( #564, #479 ) ) ;
#187 = CARTESIAN_POINT ( 'NONE',  ( -13.50000000000000000, 0.000000000000000000, 0.000000000000000000 ) ) ;
#188 = EDGE_LOOP ( 'NONE', ( #376, #93 ) ) ;
#189 = CIRCLE ( 'NONE', #218, 2.500000000000000444 ) ;
#190 = DIRECTION ( 'NONE',  ( 1.000000000000000000, 0.000000000000000000, -0.000000000000000000 ) ) ;
#191 = EDGE_LOOP ( 'NONE', ( #418, #37, #559, #428 ) ) ;
#192 = EDGE_CURVE ( 'NONE', #589, #284, #585, .T. ) ;
#193 = AXIS2_PLACEMENT_3D ( 'NONE', #232, #478, #136 ) ;
#194 = DIRECTION ( 'NONE',  ( 0.000000000000000000, 0.000000000000000000, 1.000000000000000000 ) ) ;
#195 = DIRECTION ( 'NONE',  ( 0.000000000000000000, 0.000000000000000000, 1.000000000000000000 ) ) ;
#196 = APPLICATION_PROTOCOL_DEFINITION ( 'international standard', 'config_control_design', 1994, #213 ) ;
#197 = DIRECTION ( 'NONE',  ( 0.000000000000000000, 0.000000000000000000, 1.000000000000000000 ) ) ;
#198 = DIRECTION ( 'NONE',  ( 1.000000000000000000, 0.000000000000000000, 0.000000000000000000 ) ) ;
#199 = CARTESIAN_POINT ( 'NONE',  ( 8.000000000000000000, 0.000000000000000000, 8.000000000000000000 ) ) ;
#200 = CIRCLE ( 'NONE', #71, 5.000000000000000000 ) ;
#201 = EDGE_CURVE ( 'NONE', #276, #313, #156, .T. ) ;
#202 = LINE ( 'NONE', #204, #533 ) ;
#203 = PLANE ( 'NONE',  #185 ) ;
#204 = CARTESIAN_POINT ( 'NONE',  ( -2.500000000000000000, 16.00000000000000000, 0.000000000000000000 ) ) ;
#205 = CARTESIAN_POINT ( 'NONE',  ( 0.000000000000000000, 0.000000000000000000, 11.00000000000000000 ) ) ;
#206 = COORDINATED_UNIVERSAL_TIME_OFFSET ( 3, 30, .AHEAD. ) ;
#207 = DIRECTION ( 'NONE',  ( -1.000000000000000000, 0.000000000000000000, 0.000000000000000000 ) ) ;
#208 = ADVANCED_FACE ( 'NONE', ( #413 ), #158, .T. ) ;
#209 = CIRCLE ( 'NONE', #405, 2.500000000000000000 ) ;
#210 = DATE_AND_TIME ( #169, #540 ) ;
#211 = DIRECTION ( 'NONE',  ( 0.000000000000000000, 0.000000000000000000, 1.000000000000000000 ) ) ;
#212 = ORIENTED_EDGE ( 'NONE', *, *, #39, .F. ) ;
#213 = APPLICATION_CONTEXT ( 'configuration controlled 3d designs of mechanical parts and assemblies' ) ;
#214 = FACE_OUTER_BOUND ( 'NONE', #306, .T. ) ;
#215 = ORIENTED_EDGE ( 'NONE', *, *, #251, .F. ) ;
#216 = APPROVAL_ROLE ( '' ) ;
#217 = ADVANCED_FACE ( 'NONE', ( #556, #268, #511, #171, #363, #315 ), #165, .T. ) ;
#218 = AXIS2_PLACEMENT_3D ( 'NONE', #334, #60, #66 ) ;
#219 = FACE_OUTER_BOUND ( 'NONE', #32, .T. ) ;
#220 = ORIENTED_EDGE ( 'NONE', *, *, #344, .T. ) ;
#221 = APPROVAL_PERSON_ORGANIZATION ( #593, #183, #259 ) ;
#222 = APPROVAL_DATE_TIME ( #210, #183 ) ;
#223 = CIRCLE ( 'NONE', #329, 2.999999999999999112 ) ;
#224 = DIRECTION ( 'NONE',  ( -0.000000000000000000, -0.000000000000000000, -1.000000000000000000 ) ) ;
#225 = ORIENTED_EDGE ( 'NONE', *, *, #305, .T. ) ;
#226 = CARTESIAN_POINT ( 'NONE',  ( -2.500000000000000000, 16.00000000000000000, 0.000000000000000000 ) ) ;
#227 = ORIENTED_EDGE ( 'NONE', *, *, #107, .T. ) ;
#228 = DIRECTION ( 'NONE',  ( -0.000000000000000000, -0.000000000000000000, 1.000000000000000000 ) ) ;
#229 = PRODUCT ( 'Flange_Default_sldprt', 'Flange_Default_sldprt', '', ( #345 ) ) ;
#230 = ORIENTED_EDGE ( 'NONE', *, *, #509, .T. ) ;
#231 = EDGE_CURVE ( 'NONE', #465, #313, #361, .T. ) ;
#232 = CARTESIAN_POINT ( 'NONE',  ( 0.000000000000000000, 16.00000000000000000, 0.000000000000000000 ) ) ;
#233 = AXIS2_PLACEMENT_3D ( 'NONE', #349, #594, #207 ) ;
#234 = EDGE_LOOP ( 'NONE', ( #599, #566 ) ) ;
#235 = CARTESIAN_POINT ( 'NONE',  ( -16.00000000000000000, 0.000000000000000000, 0.000000000000000000 ) ) ;
#236 = ORIENTED_EDGE ( 'NONE', *, *, #89, .T. ) ;
#237 = EDGE_CURVE ( 'NONE', #596, #50, #131, .T. ) ;
#238 = DIRECTION ( 'NONE',  ( -0.000000000000000000, -0.000000000000000000, 1.000000000000000000 ) ) ;
#239 = ORIENTED_EDGE ( 'NONE', *, *, #78, .F. ) ;
#240 = APPLICATION_CONTEXT ( 'configuration controlled 3d designs of mechanical parts and assemblies' ) ;
#241 = DIRECTION ( 'NONE',  ( 1.000000000000000000, 0.000000000000000000, 0.000000000000000000 ) ) ;
#242 = DIRECTION ( 'NONE',  ( 1.000000000000000000, 0.000000000000000000, 0.000000000000000000 ) ) ;
#243 = DIRECTION ( 'NONE',  ( -0.000000000000000000, -0.000000000000000000, 1.000000000000000000 ) ) ;
#244 = EDGE_CURVE ( 'NONE', #547, #339, #502, .T. ) ;
#245 = CARTESIAN_POINT ( 'NONE',  ( 0.000000000000000000, -16.00000000000000000, 0.000000000000000000 ) ) ;
#246 = DIRECTION ( 'NONE',  ( 0.000000000000000000, 0.000000000000000000, 1.000000000000000000 ) ) ;
#247 = CARTESIAN_POINT ( 'NONE',  ( 2.500000000000000000, 16.00000000000000000, 0.000000000000000000 ) ) ;
#248 = DIRECTION ( 'NONE',  ( -0.000000000000000000, -0.000000000000000000, -1.000000000000000000 ) ) ;
#249 = AXIS2_PLACEMENT_3D ( 'NONE', #4, #277, #41 ) ;
#250 = CYLINDRICAL_SURFACE ( 'NONE', #338, 2.500000000000000444 ) ;
#251 = EDGE_CURVE ( 'NONE', #86, #77, #584, .T. ) ;
#252 = DIRECTION ( 'NONE',  ( 0.000000000000000000, 0.000000000000000000, 1.000000000000000000 ) ) ;
#253 = PERSON_AND_ORGANIZATION ( #487, #492 ) ;
#254 = FACE_BOUND ( 'NONE', #261, .T. ) ;
#255 = ORIENTED_EDGE ( 'NONE', *, *, #6, .F. ) ;
#256 = DIRECTION ( 'NONE',  ( 1.000000000000000000, 0.000000000000000000, -0.000000000000000000 ) ) ;
#257 = EDGE_LOOP ( 'NONE', ( #437, #239 ) ) ;
#258 = CIRCLE ( 'NONE', #542, 27.00000000000000000 ) ;
#259 = APPROVAL_ROLE ( '' ) ;
#260 = CARTESIAN_POINT ( 'NONE',  ( 16.00000000000000000, 0.000000000000000000, 8.000000000000000000 ) ) ;
#261 = EDGE_LOOP ( 'NONE', ( #227, #26 ) ) ;
#262 = EDGE_CURVE ( 'NONE', #273, #56, #34, .T. ) ;
#263 = APPROVAL_DATE_TIME ( #590, #266 ) ;
#264 = DIRECTION ( 'NONE',  ( 0.000000000000000000, 0.000000000000000000, -1.000000000000000000 ) ) ;
#265 = ORIENTED_EDGE ( 'NONE', *, *, #344, .F. ) ;
#266 = APPROVAL ( #164, 'UNSPECIFIED' ) ;
#267 = APPROVAL_DATE_TIME ( #31, #357 ) ;
#268 = FACE_BOUND ( 'NONE', #257, .T. ) ;
#269 = VERTEX_POINT ( 'NONE', #464 ) ;
#270 = APPROVAL_PERSON_ORGANIZATION ( #552, #357, #124 ) ;
#271 = VECTOR ( 'NONE', #97, 1000.000000000000000 ) ;
#272 = CARTESIAN_POINT ( 'NONE',  ( 0.000000000000000000, 0.000000000000000000, 8.000000000000000000 ) ) ;
#273 = VERTEX_POINT ( 'NONE', #546 ) ;
#274 = DIRECTION ( 'NONE',  ( -0.000000000000000000, -0.000000000000000000, 1.000000000000000000 ) ) ;
#275 = EDGE_CURVE ( 'NONE', #50, #596, #595, .T. ) ;
#276 = VERTEX_POINT ( 'NONE', #587 ) ;
#277 = DIRECTION ( 'NONE',  ( 0.000000000000000000, 0.000000000000000000, 1.000000000000000000 ) ) ;
#278 = ORIENTED_EDGE ( 'NONE', *, *, #275, .F. ) ;
#279 = APPROVAL_PERSON_ORGANIZATION ( #253, #266, #216 ) ;
#280 = DIRECTION ( 'NONE',  ( 0.000000000000000000, 0.000000000000000000, 1.000000000000000000 ) ) ;
#281 = AXIS2_PLACEMENT_3D ( 'NONE', #235, #561, #286 ) ;
#282 = EDGE_LOOP ( 'NONE', ( #236, #287 ) ) ;
#283 = CARTESIAN_POINT ( 'NONE',  ( 0.000000000000000000, 0.000000000000000000, 11.00000000000000000 ) ) ;
#284 = VERTEX_POINT ( 'NONE', #553 ) ;
#285 = EDGE_CURVE ( 'NONE', #481, #269, #436, .T. ) ;
#286 = DIRECTION ( 'NONE',  ( 1.000000000000000000, 0.000000000000000000, 0.000000000000000000 ) ) ;
#287 = ORIENTED_EDGE ( 'NONE', *, *, #192, .T. ) ;
#288 = DIRECTION ( 'NONE',  ( 0.000000000000000000, 0.000000000000000000, 1.000000000000000000 ) ) ;
#289 = DIRECTION ( 'NONE',  ( 0.000000000000000000, 0.000000000000000000, 1.000000000000000000 ) ) ;
#290 = AXIS2_PLACEMENT_3D ( 'NONE', #64, #252, #112 ) ;
#291 = AXIS2_PLACEMENT_3D ( 'NONE', #398, #154, #582 ) ;
#292 = ORIENTED_EDGE ( 'NONE', *, *, #192, .F. ) ;
#293 = CARTESIAN_POINT ( 'NONE',  ( 5.000000000000000000, 6.123233995736766282E-16, 33.00000000000000000 ) ) ;
#294 = ADVANCED_FACE ( 'NONE', ( #219 ), #475, .F. ) ;
#295 = CIRCLE ( 'NONE', #377, 5.000000000000000000 ) ;
#296 = CARTESIAN_POINT ( 'NONE',  ( 0.000000000000000000, 0.000000000000000000, 8.000000000000000000 ) ) ;
#297 = ORIENTED_EDGE ( 'NONE', *, *, #275, .T. ) ;
#298 = DIRECTION ( 'NONE',  ( 0.000000000000000000, 0.000000000000000000, 1.000000000000000000 ) ) ;
#299 = FACE_OUTER_BOUND ( 'NONE', #519, .T. ) ;
#300 = CARTESIAN_POINT ( 'NONE',  ( -27.00000000000000000, 0.000000000000000000, 8.000000000000000000 ) ) ;
#301 = APPLICATION_PROTOCOL_DEFINITION ( 'international standard', 'config_control_design', 1994, #240 ) ;
#302 = DIRECTION ( 'NONE',  ( 0.000000000000000000, 0.000000000000000000, 1.000000000000000000 ) ) ;
#303 = ORIENTED_EDGE ( 'NONE', *, *, #6, .T. ) ;
#304 = CARTESIAN_POINT ( 'NONE',  ( 27.00000000000000000, 3.306546357697853733E-15, 0.000000000000000000 ) ) ;
#305 = EDGE_CURVE ( 'NONE', #77, #61, #223, .T. ) ;
#306 = EDGE_LOOP ( 'NONE', ( #172, #84, #303, #503 ) ) ;
#307 = VECTOR ( 'NONE', #471, 1000.000000000000000 ) ;
#308 = DIRECTION ( 'NONE',  ( 0.000000000000000000, 0.000000000000000000, 1.000000000000000000 ) ) ;
#309 = ORIENTED_EDGE ( 'NONE', *, *, #231, .T. ) ;
#310 = ADVANCED_FACE ( 'NONE', ( #214 ), #591, .T. ) ;
#311 = CALENDAR_DATE ( 2026, 23, 7 ) ;
#312 = DIRECTION ( 'NONE',  ( 1.000000000000000000, 0.000000000000000000, 0.000000000000000000 ) ) ;
#313 = VERTEX_POINT ( 'NONE', #304 ) ;
#314 = ADVANCED_FACE ( 'NONE', ( #122 ), #80, .T. ) ;
#315 = FACE_OUTER_BOUND ( 'NONE', #234, .T. ) ;
#316 = VERTEX_POINT ( 'NONE', #467 ) ;
#317 = EDGE_CURVE ( 'NONE', #383, #350, #209, .T. ) ;
#318 = AXIS2_PLACEMENT_3D ( 'NONE', #458, #506, #312 ) ;
#319 = CARTESIAN_POINT ( 'NONE',  ( 16.00000000000000000, 0.000000000000000000, 0.000000000000000000 ) ) ;
#320 = EDGE_LOOP ( 'NONE', ( #143, #96 ) ) ;
#321 = CARTESIAN_POINT ( 'NONE',  ( 0.000000000000000000, 0.000000000000000000, 33.00000000000000000 ) ) ;
#322 = ORIENTED_EDGE ( 'NONE', *, *, #78, .T. ) ;
#323 = AXIS2_PLACEMENT_3D ( 'NONE', #573, #58, #400 ) ;
#324 = FACE_OUTER_BOUND ( 'NONE', #191, .T. ) ;
#325 = DIRECTION ( 'NONE',  ( 0.000000000000000000, 0.000000000000000000, 1.000000000000000000 ) ) ;
#326 = ADVANCED_FACE ( 'NONE', ( #324 ), #469, .F. ) ;
#327 = AXIS2_PLACEMENT_3D ( 'NONE', #11, #194, #529 ) ;
#328 = DIRECTION ( 'NONE',  ( -0.000000000000000000, -0.000000000000000000, 1.000000000000000000 ) ) ;
#329 = AXIS2_PLACEMENT_3D ( 'NONE', #498, #452, #264 ) ;
#330 = ORIENTED_EDGE ( 'NONE', *, *, #113, .F. ) ;
#331 = EDGE_CURVE ( 'NONE', #547, #350, #370, .T. ) ;
#332 = DIRECTION ( 'NONE',  ( 0.000000000000000000, 0.000000000000000000, 1.000000000000000000 ) ) ;
#333 = ORIENTED_EDGE ( 'NONE', *, *, #13, .T. ) ;
#334 = CARTESIAN_POINT ( 'NONE',  ( -16.00000000000000000, 0.000000000000000000, 0.000000000000000000 ) ) ;
#335 = ADVANCED_FACE ( 'NONE', ( #95 ), #7, .F. ) ;
#336 = DIRECTION ( 'NONE',  ( -0.000000000000000000, -0.000000000000000000, 1.000000000000000000 ) ) ;
#337 = DIRECTION ( 'NONE',  ( 1.000000000000000000, 0.000000000000000000, 0.000000000000000000 ) ) ;
#338 = AXIS2_PLACEMENT_3D ( 'NONE', #245, #20, #198 ) ;
#339 = VERTEX_POINT ( 'NONE', #226 ) ;
#340 = DIRECTION ( 'NONE',  ( 1.000000000000000000, 0.000000000000000000, 0.000000000000000000 ) ) ;
#341 = DIRECTION ( 'NONE',  ( 0.000000000000000000, 0.000000000000000000, 1.000000000000000000 ) ) ;
#342 = CARTESIAN_POINT ( 'NONE',  ( 2.500000000000000444, -16.00000000000000000, 0.000000000000000000 ) ) ;
#343 = LINE ( 'NONE', #493, #588 ) ;
#344 = EDGE_CURVE ( 'NONE', #56, #316, #577, .T. ) ;
#345 = MECHANICAL_CONTEXT ( 'NONE', #213, 'mechanical' ) ;
#346 = CARTESIAN_POINT ( 'NONE',  ( 27.00000000000000000, 3.306546357697853733E-15, 8.000000000000000000 ) ) ;
#347 = VECTOR ( 'NONE', #114, 1000.000000000000000 ) ;
#348 = PRODUCT_RELATED_PRODUCT_CATEGORY ( 'detail', '', ( #229 ) ) ;
#349 = CARTESIAN_POINT ( 'NONE',  ( 0.000000000000000000, 0.000000000000000000, 33.00000000000000000 ) ) ;
#350 = VERTEX_POINT ( 'NONE', #527 ) ;
#351 = DATE_AND_TIME ( #362, #482 ) ;
#352 = EDGE_CURVE ( 'NONE', #316, #56, #494, .T. ) ;
#353 = CIRCLE ( 'NONE', #600, 8.000000000000000000 ) ;
#354 = CARTESIAN_POINT ( 'NONE',  ( 16.00000000000000000, 0.000000000000000000, 8.000000000000000000 ) ) ;
#355 = VERTEX_POINT ( 'NONE', #187 ) ;
#356 = CALENDAR_DATE ( 2026, 23, 7 ) ;
#357 = APPROVAL ( #451, 'UNSPECIFIED' ) ;
#358 = DIRECTION ( 'NONE',  ( 1.000000000000000000, 0.000000000000000000, 0.000000000000000000 ) ) ;
#359 = CIRCLE ( 'NONE', #168, 27.00000000000000000 ) ;
#360 = ORIENTED_EDGE ( 'NONE', *, *, #352, .T. ) ;
#361 = CIRCLE ( 'NONE', #318, 27.00000000000000000 ) ;
#362 = CALENDAR_DATE ( 2026, 23, 7 ) ;
#363 = FACE_BOUND ( 'NONE', #472, .T. ) ;
#364 = ORIENTED_EDGE ( 'NONE', *, *, #160, .F. ) ;
#365 = EDGE_CURVE ( 'NONE', #589, #50, #375, .T. ) ;
#366 = DIRECTION ( 'NONE',  ( 0.000000000000000000, 0.000000000000000000, 1.000000000000000000 ) ) ;
#367 = ORIENTED_EDGE ( 'NONE', *, *, #16, .T. ) ;
#368 = CC_DESIGN_PERSON_AND_ORGANIZATION_ASSIGNMENT ( #161, #75, ( #372 ) ) ;
#369 = CIRCLE ( 'NONE', #323, 2.500000000000000444 ) ;
#370 = LINE ( 'NONE', #1, #141 ) ;
#371 = VERTEX_POINT ( 'NONE', #422 ) ;
#372 = PRODUCT_DEFINITION_FORMATION_WITH_SPECIFIED_SOURCE ( 'ANY', '', #229, .NOT_KNOWN. ) ;
#373 = AXIS2_PLACEMENT_3D ( 'NONE', #319, #274, #575 ) ;
#374 = VECTOR ( 'NONE', #336, 1000.000000000000000 ) ;
#375 = LINE ( 'NONE', #87, #307 ) ;
#376 = ORIENTED_EDGE ( 'NONE', *, *, #382, .T. ) ;
#377 = AXIS2_PLACEMENT_3D ( 'NONE', #538, #197, #392 ) ;
#378 = CARTESIAN_POINT ( 'NONE',  ( 0.000000000000000000, -16.00000000000000000, 8.000000000000000000 ) ) ;
#379 = ORIENTED_EDGE ( 'NONE', *, *, #305, .F. ) ;
#380 = CIRCLE ( 'NONE', #90, 2.499999999999998668 ) ;
#381 = DIRECTION ( 'NONE',  ( 1.000000000000000000, 0.000000000000000000, 0.000000000000000000 ) ) ;
#382 = EDGE_CURVE ( 'NONE', #371, #86, #200, .T. ) ;
#383 = VERTEX_POINT ( 'NONE', #563 ) ;
#384 = FACE_OUTER_BOUND ( 'NONE', #470, .T. ) ;
#385 = VECTOR ( 'NONE', #328, 1000.000000000000000 ) ;
#386 = CARTESIAN_POINT ( 'NONE',  ( 0.000000000000000000, 0.000000000000000000, 11.00000000000000000 ) ) ;
#387 = EDGE_CURVE ( 'NONE', #477, #355, #568, .T. ) ;
#388 = FACE_OUTER_BOUND ( 'NONE', #132, .T. ) ;
#389 = FACE_BOUND ( 'NONE', #282, .T. ) ;
#390 = EDGE_CURVE ( 'NONE', #477, #163, #518, .T. ) ;
#391 = PERSON_AND_ORGANIZATION ( #487, #492 ) ;
#392 = DIRECTION ( 'NONE',  ( 1.000000000000000000, 0.000000000000000000, 0.000000000000000000 ) ) ;
#393 = CARTESIAN_POINT ( 'NONE',  ( -13.50000000000000000, 0.000000000000000000, 8.000000000000000000 ) ) ;
#394 = SECURITY_CLASSIFICATION ( '', '', #79 ) ;
#395 = DIRECTION ( 'NONE',  ( -0.000000000000000000, -0.000000000000000000, 1.000000000000000000 ) ) ;
#396 = AXIS2_PLACEMENT_3D ( 'NONE', #260, #162, #408 ) ;
#397 = CARTESIAN_POINT ( 'NONE',  ( 0.000000000000000000, 16.00000000000000000, 0.000000000000000000 ) ) ;
#398 = CARTESIAN_POINT ( 'NONE',  ( 0.000000000000000000, -16.00000000000000000, 0.000000000000000000 ) ) ;
#399 = LINE ( 'NONE', #51, #3 ) ;
#400 = DIRECTION ( 'NONE',  ( 1.000000000000000000, 0.000000000000000000, 0.000000000000000000 ) ) ;
#401 = EDGE_CURVE ( 'NONE', #371, #481, #130, .T. ) ;
#402 = TOROIDAL_SURFACE ( 'NONE', #116, 8.000000000000000000, 3.000000000000000000 ) ;
#403 = COORDINATED_UNIVERSAL_TIME_OFFSET ( 3, 30, .AHEAD. ) ;
#404 = DIRECTION ( 'NONE',  ( 1.000000000000000000, 0.000000000000000000, 0.000000000000000000 ) ) ;
#405 = AXIS2_PLACEMENT_3D ( 'NONE', #173, #366, #128 ) ;
#406 = EDGE_CURVE ( 'NONE', #514, #163, #94, .T. ) ;
#407 = PERSON_AND_ORGANIZATION ( #487, #492 ) ;
#408 = DIRECTION ( 'NONE',  ( 1.000000000000000000, 0.000000000000000000, 0.000000000000000000 ) ) ;
#409 = ORIENTED_EDGE ( 'NONE', *, *, #365, .T. ) ;
#410 = DIRECTION ( 'NONE',  ( 1.000000000000000000, 0.000000000000000000, 0.000000000000000000 ) ) ;
#411 = ORIENTED_EDGE ( 'NONE', *, *, #331, .T. ) ;
#412 = PERSON_AND_ORGANIZATION_ROLE ( 'creator' ) ;
#413 = FACE_OUTER_BOUND ( 'NONE', #30, .T. ) ;
#414 = ORIENTED_EDGE ( 'NONE', *, *, #244, .T. ) ;
#415 = AXIS2_PLACEMENT_3D ( 'NONE', #125, #549, #28 ) ;
#416 = PERSON_AND_ORGANIZATION_ROLE ( 'creator' ) ;
#417 = DIRECTION ( 'NONE',  ( -0.000000000000000000, -0.000000000000000000, -1.000000000000000000 ) ) ;
#418 = ORIENTED_EDGE ( 'NONE', *, *, #390, .F. ) ;
#419 = CARTESIAN_POINT ( 'NONE',  ( 16.00000000000000000, 0.000000000000000000, 0.000000000000000000 ) ) ;
#420 = AXIS2_PLACEMENT_3D ( 'NONE', #386, #325, #570 ) ;
#421 = EDGE_LOOP ( 'NONE', ( #414, #126 ) ) ;
#422 = CARTESIAN_POINT ( 'NONE',  ( -5.000000000000000000, 0.000000000000000000, 33.00000000000000000 ) ) ;
#423 = EDGE_LOOP ( 'NONE', ( #123, #278 ) ) ;
#424 = ADVANCED_FACE ( 'NONE', ( #430 ), #569, .F. ) ;
#425 = VECTOR ( 'NONE', #68, 1000.000000000000000 ) ;
#426 = CIRCLE ( 'NONE', #181, 2.500000000000000000 ) ;
#427 = DIRECTION ( 'NONE',  ( 1.000000000000000000, 0.000000000000000000, 0.000000000000000000 ) ) ;
#428 = ORIENTED_EDGE ( 'NONE', *, *, #406, .T. ) ;
#429 = AXIS2_PLACEMENT_3D ( 'NONE', #495, #443, #337 ) ;
#430 = FACE_OUTER_BOUND ( 'NONE', #5, .T. ) ;
#431 = ORIENTED_EDGE ( 'NONE', *, *, #365, .F. ) ;
#432 = DIRECTION ( 'NONE',  ( 0.000000000000000000, 0.000000000000000000, 1.000000000000000000 ) ) ;
#433 = ADVANCED_FACE ( 'NONE', ( #520 ), #524, .F. ) ;
#434 = ORIENTED_EDGE ( 'NONE', *, *, #560, .F. ) ;
#435 = CARTESIAN_POINT ( 'NONE',  ( -18.50000000000000000, 3.061616997868384620E-16, 0.000000000000000000 ) ) ;
#436 = CIRCLE ( 'NONE', #45, 2.999999999999999112 ) ;
#437 = ORIENTED_EDGE ( 'NONE', *, *, #406, .F. ) ;
#438 = EDGE_CURVE ( 'NONE', #481, #77, #29, .T. ) ;
#439 = FACE_OUTER_BOUND ( 'NONE', #512, .T. ) ;
#440 = DIRECTION ( 'NONE',  ( 0.000000000000000000, 0.000000000000000000, 1.000000000000000000 ) ) ;
#441 = ORIENTED_EDGE ( 'NONE', *, *, #509, .F. ) ;
#442 = LINE ( 'NONE', #342, #374 ) ;
#443 = DIRECTION ( 'NONE',  ( -0.000000000000000000, -0.000000000000000000, 1.000000000000000000 ) ) ;
#444 = CARTESIAN_POINT ( 'NONE',  ( -5.000000000000000000, 0.000000000000000000, 11.00000000000000000 ) ) ;
#445 = CARTESIAN_POINT ( 'NONE',  ( -18.50000000000000000, 3.061616997868384620E-16, 8.000000000000000000 ) ) ;
#446 = ADVANCED_FACE ( 'NONE', ( #139 ), #46, .T. ) ;
#447 = CARTESIAN_POINT ( 'NONE',  ( -27.00000000000000000, 0.000000000000000000, 0.000000000000000000 ) ) ;
#448 = FACE_OUTER_BOUND ( 'NONE', #562, .T. ) ;
#449 = APPROVAL_STATUS ( 'not_yet_approved' ) ;
#450 = DIRECTION ( 'NONE',  ( 1.000000000000000000, 0.000000000000000000, 0.000000000000000000 ) ) ;
#451 = APPROVAL_STATUS ( 'not_yet_approved' ) ;
#452 = DIRECTION ( 'NONE',  ( 0.000000000000000000, -1.000000000000000000, 0.000000000000000000 ) ) ;
#453 = AXIS2_PLACEMENT_3D ( 'NONE', #59, #22, #102 ) ;
#454 = ORIENTED_EDGE ( 'NONE', *, *, #262, .T. ) ;
#455 = CC_DESIGN_PERSON_AND_ORGANIZATION_ASSIGNMENT ( #510, #412, ( #99 ) ) ;
#456 =( GEOMETRIC_REPRESENTATION_CONTEXT ( 3 ) GLOBAL_UNCERTAINTY_ASSIGNED_CONTEXT ( ( #167 ) ) GLOBAL_UNIT_ASSIGNED_CONTEXT ( ( #485, #491, #155 ) ) REPRESENTATION_CONTEXT ( 'NONE', 'WORKASPACE' ) );
#457 = DATE_TIME_ROLE ( 'classification_date' ) ;
#458 = CARTESIAN_POINT ( 'NONE',  ( 0.000000000000000000, 0.000000000000000000, 0.000000000000000000 ) ) ;
#459 = ORIENTED_EDGE ( 'NONE', *, *, #401, .T. ) ;
#460 = CARTESIAN_POINT ( 'NONE',  ( 0.000000000000000000, 16.00000000000000000, 0.000000000000000000 ) ) ;
#461 = ORIENTED_EDGE ( 'NONE', *, *, #127, .F. ) ;
#462 = DATE_AND_TIME ( #356, #567 ) ;
#463 = ADVANCED_FACE ( 'NONE', ( #384 ), #176, .F. ) ;
#464 = CARTESIAN_POINT ( 'NONE',  ( -8.000000000000000000, 9.797174393178825657E-16, 8.000000000000000000 ) ) ;
#465 = VERTEX_POINT ( 'NONE', #447 ) ;
#466 = CC_DESIGN_PERSON_AND_ORGANIZATION_ASSIGNMENT ( #391, #548, ( #229 ) ) ;
#467 = CARTESIAN_POINT ( 'NONE',  ( 2.500000000000000444, -16.00000000000000000, 8.000000000000000000 ) ) ;
#468 = ORIENTED_EDGE ( 'NONE', *, *, #285, .T. ) ;
#469 = CYLINDRICAL_SURFACE ( 'NONE', #550, 2.500000000000000444 ) ;
#470 = EDGE_LOOP ( 'NONE', ( #292, #409, #297, #330 ) ) ;
#471 = DIRECTION ( 'NONE',  ( -0.000000000000000000, -0.000000000000000000, 1.000000000000000000 ) ) ;
#472 = EDGE_LOOP ( 'NONE', ( #104, #265 ) ) ;
#473 = CC_DESIGN_PERSON_AND_ORGANIZATION_ASSIGNMENT ( #407, #416, ( #372 ) ) ;
#474 = LOCAL_TIME ( 16, 4, 46.00000000000000000, #505 ) ;
#475 = TOROIDAL_SURFACE ( 'NONE', #157, 8.000000000000000000, 3.000000000000000000 ) ;
#476 = DIRECTION ( 'NONE',  ( 0.000000000000000000, 0.000000000000000000, 1.000000000000000000 ) ) ;
#477 = VERTEX_POINT ( 'NONE', #435 ) ;
#478 = DIRECTION ( 'NONE',  ( -0.000000000000000000, -0.000000000000000000, 1.000000000000000000 ) ) ;
#479 = ORIENTED_EDGE ( 'NONE', *, *, #317, .F. ) ;
#480 = MANIFOLD_SOLID_BREP ( 'Fillet1', #17 ) ;
#481 = VERTEX_POINT ( 'NONE', #444 ) ;
#482 = LOCAL_TIME ( 16, 4, 46.00000000000000000, #597 ) ;
#483 = DIRECTION ( 'NONE',  ( 1.000000000000000000, 0.000000000000000000, 0.000000000000000000 ) ) ;
#484 = CARTESIAN_POINT ( 'NONE',  ( 0.000000000000000000, 0.000000000000000000, 8.000000000000000000 ) ) ;
#485 =( LENGTH_UNIT ( ) NAMED_UNIT ( * ) SI_UNIT ( .MILLI., .METRE. ) );
#486 = DIRECTION ( 'NONE',  ( 1.000000000000000000, 0.000000000000000000, 0.000000000000000000 ) ) ;
#487 = PERSON ( 'UNSPECIFIED', 'UNSPECIFIED', 'UNSPECIFIED', ('UNSPECIFIED'), ('UNSPECIFIED'), ('UNSPECIFIED') ) ;
#488 = ADVANCED_FACE ( 'NONE', ( #439 ), #539, .T. ) ;
#489 = CYLINDRICAL_SURFACE ( 'NONE', #291, 2.500000000000000444 ) ;
#490 = EDGE_CURVE ( 'NONE', #313, #465, #258, .T. ) ;
#491 =( NAMED_UNIT ( * ) PLANE_ANGLE_UNIT ( ) SI_UNIT ( $, .RADIAN. ) );
#492 = ORGANIZATION ( 'UNSPECIFIED', 'UNSPECIFIED', '' ) ;
#493 = CARTESIAN_POINT ( 'NONE',  ( -13.50000000000000000, 0.000000000000000000, 0.000000000000000000 ) ) ;
#494 = CIRCLE ( 'NONE', #19, 2.500000000000000444 ) ;
#495 = CARTESIAN_POINT ( 'NONE',  ( -16.00000000000000000, 0.000000000000000000, 0.000000000000000000 ) ) ;
#496 = CIRCLE ( 'NONE', #517, 2.500000000000000444 ) ;
#497 = ADVANCED_FACE ( 'NONE', ( #388 ), #250, .F. ) ;
#498 = CARTESIAN_POINT ( 'NONE',  ( 8.000000000000000000, 0.000000000000000000, 11.00000000000000000 ) ) ;
#499 = ORIENTED_EDGE ( 'NONE', *, *, #571, .T. ) ;
#500 = COORDINATED_UNIVERSAL_TIME_OFFSET ( 3, 30, .AHEAD. ) ;
#501 = CARTESIAN_POINT ( 'NONE',  ( -8.000000000000000000, 9.797174393178825657E-16, 11.00000000000000000 ) ) ;
#502 = CIRCLE ( 'NONE', #180, 2.500000000000000000 ) ;
#503 = ORIENTED_EDGE ( 'NONE', *, *, #401, .F. ) ;
#504 = AXIS2_PLACEMENT_3D ( 'NONE', #397, #288, #483 ) ;
#505 = COORDINATED_UNIVERSAL_TIME_OFFSET ( 3, 30, .AHEAD. ) ;
#506 = DIRECTION ( 'NONE',  ( 0.000000000000000000, 0.000000000000000000, 1.000000000000000000 ) ) ;
#507 = ORIENTED_EDGE ( 'NONE', *, *, #534, .F. ) ;
#508 = CIRCLE ( 'NONE', #134, 8.000000000000000000 ) ;
#509 = EDGE_CURVE ( 'NONE', #47, #465, #399, .T. ) ;
#510 = PERSON_AND_ORGANIZATION ( #487, #492 ) ;
#511 = FACE_BOUND ( 'NONE', #186, .T. ) ;
#512 = EDGE_LOOP ( 'NONE', ( #42, #177, #516, #441 ) ) ;
#513 = DIRECTION ( 'NONE',  ( 0.000000000000000000, 0.000000000000000000, 1.000000000000000000 ) ) ;
#514 = VERTEX_POINT ( 'NONE', #393 ) ;
#515 = DIRECTION ( 'NONE',  ( -0.000000000000000000, -0.000000000000000000, 1.000000000000000000 ) ) ;
#516 = ORIENTED_EDGE ( 'NONE', *, *, #490, .T. ) ;
#517 = AXIS2_PLACEMENT_3D ( 'NONE', #12, #195, #18 ) ;
#518 = LINE ( 'NONE', #601, #385 ) ;
#519 = EDGE_LOOP ( 'NONE', ( #115, #88, #499, #360 ) ) ;
#520 = FACE_OUTER_BOUND ( 'NONE', #69, .T. ) ;
#521 = ORIENTED_EDGE ( 'NONE', *, *, #387, .F. ) ;
#522 = LOCAL_TIME ( 16, 4, 46.00000000000000000, #206 ) ;
#523 = AXIS2_PLACEMENT_3D ( 'NONE', #545, #211, #256 ) ;
#524 = CYLINDRICAL_SURFACE ( 'NONE', #27, 2.499999999999998668 ) ;
#525 = ORIENTED_EDGE ( 'NONE', *, *, #555, .T. ) ;
#526 = VECTOR ( 'NONE', #395, 1000.000000000000000 ) ;
#527 = CARTESIAN_POINT ( 'NONE',  ( 2.500000000000000000, 16.00000000000000000, 8.000000000000000000 ) ) ;
#528 = CARTESIAN_POINT ( 'NONE',  ( 0.000000000000000000, 0.000000000000000000, 8.000000000000000000 ) ) ;
#529 = DIRECTION ( 'NONE',  ( 1.000000000000000000, 0.000000000000000000, 0.000000000000000000 ) ) ;
#530 = DIRECTION ( 'NONE',  ( 1.000000000000000000, 0.000000000000000000, -0.000000000000000000 ) ) ;
#531 = AXIS2_PLACEMENT_3D ( 'NONE', #283, #476, #565 ) ;
#532 = CARTESIAN_POINT ( 'NONE',  ( 0.000000000000000000, 0.000000000000000000, 0.000000000000000000 ) ) ;
#533 = VECTOR ( 'NONE', #152, 1000.000000000000000 ) ;
#534 = EDGE_CURVE ( 'NONE', #273, #603, #150, .T. ) ;
#535 = FACE_BOUND ( 'NONE', #551, .T. ) ;
#536 = CARTESIAN_POINT ( 'NONE',  ( 2.500000000000000444, -16.00000000000000000, 0.000000000000000000 ) ) ;
#537 = DIRECTION ( 'NONE',  ( 0.000000000000000000, 0.000000000000000000, 1.000000000000000000 ) ) ;
#538 = CARTESIAN_POINT ( 'NONE',  ( 0.000000000000000000, 0.000000000000000000, 33.00000000000000000 ) ) ;
#539 = CYLINDRICAL_SURFACE ( 'NONE', #453, 27.00000000000000000 ) ;
#540 = LOCAL_TIME ( 16, 4, 46.00000000000000000, #500 ) ;
#541 = FACE_BOUND ( 'NONE', #421, .T. ) ;
#542 = AXIS2_PLACEMENT_3D ( 'NONE', #532, #298, #579 ) ;
#543 = EDGE_CURVE ( 'NONE', #339, #383, #202, .T. ) ;
#544 = DATE_TIME_ROLE ( 'creation_date' ) ;
#545 = CARTESIAN_POINT ( 'NONE',  ( 0.000000000000000000, 0.000000000000000000, 8.000000000000000000 ) ) ;
#546 = CARTESIAN_POINT ( 'NONE',  ( -2.500000000000000444, -16.00000000000000000, 0.000000000000000000 ) ) ;
#547 = VERTEX_POINT ( 'NONE', #247 ) ;
#548 = PERSON_AND_ORGANIZATION_ROLE ( 'design_owner' ) ;
#549 = DIRECTION ( 'NONE',  ( -0.000000000000000000, -0.000000000000000000, -1.000000000000000000 ) ) ;
#550 = AXIS2_PLACEMENT_3D ( 'NONE', #85, #515, #133 ) ;
#551 = EDGE_LOOP ( 'NONE', ( #367, #2 ) ) ;
#552 = PERSON_AND_ORGANIZATION ( #487, #492 ) ;
#553 = CARTESIAN_POINT ( 'NONE',  ( 18.50000000000000000, 0.000000000000000000, 0.000000000000000000 ) ) ;
#554 = ORIENTED_EDGE ( 'NONE', *, *, #285, .F. ) ;
#555 = EDGE_CURVE ( 'NONE', #350, #383, #426, .T. ) ;
#556 = FACE_BOUND ( 'NONE', #119, .T. ) ;
#557 = EDGE_LOOP ( 'NONE', ( #159, #364, #230, #309 ) ) ;
#558 = CARTESIAN_POINT ( 'NONE',  ( 0.000000000000000000, 16.00000000000000000, 0.000000000000000000 ) ) ;
#559 = ORIENTED_EDGE ( 'NONE', *, *, #39, .T. ) ;
#560 = EDGE_CURVE ( 'NONE', #339, #547, #151, .T. ) ;
#561 = DIRECTION ( 'NONE',  ( 0.000000000000000000, 0.000000000000000000, 1.000000000000000000 ) ) ;
#562 = EDGE_LOOP ( 'NONE', ( #521, #129, #322, #212 ) ) ;
#563 = CARTESIAN_POINT ( 'NONE',  ( -2.500000000000000000, 16.00000000000000000, 8.000000000000000000 ) ) ;
#564 = ORIENTED_EDGE ( 'NONE', *, *, #555, .F. ) ;
#565 = DIRECTION ( 'NONE',  ( 1.000000000000000000, 0.000000000000000000, 0.000000000000000000 ) ) ;
#566 = ORIENTED_EDGE ( 'NONE', *, *, #137, .T. ) ;
#567 = LOCAL_TIME ( 16, 4, 46.00000000000000000, #403 ) ;
#568 = CIRCLE ( 'NONE', #281, 2.500000000000000444 ) ;
#569 = CYLINDRICAL_SURFACE ( 'NONE', #193, 2.500000000000000000 ) ;
#570 = DIRECTION ( 'NONE',  ( 1.000000000000000000, 0.000000000000000000, 0.000000000000000000 ) ) ;
#571 = EDGE_CURVE ( 'NONE', #603, #316, #442, .T. ) ;
#572 = DIRECTION ( 'NONE',  ( 0.000000000000000000, 0.000000000000000000, 1.000000000000000000 ) ) ;
#573 = CARTESIAN_POINT ( 'NONE',  ( -16.00000000000000000, 0.000000000000000000, 8.000000000000000000 ) ) ;
#574 = AXIS2_PLACEMENT_3D ( 'NONE', #54, #440, #14 ) ;
#575 = DIRECTION ( 'NONE',  ( 1.000000000000000000, 0.000000000000000000, 0.000000000000000000 ) ) ;
#576 = CARTESIAN_POINT ( 'NONE',  ( 13.50000000000000178, 3.061616997868381662E-16, 8.000000000000000000 ) ) ;
#577 = CIRCLE ( 'NONE', #249, 2.500000000000000444 ) ;
#578 = CC_DESIGN_DATE_AND_TIME_ASSIGNMENT ( #351, #457, ( #394 ) ) ;
#579 = DIRECTION ( 'NONE',  ( 1.000000000000000000, 0.000000000000000000, 0.000000000000000000 ) ) ;
#580 = CYLINDRICAL_SURFACE ( 'NONE', #429, 2.500000000000000444 ) ;
#581 = CARTESIAN_POINT ( 'NONE',  ( -2.500000000000000444, -16.00000000000000000, 8.000000000000000000 ) ) ;
#582 = DIRECTION ( 'NONE',  ( 1.000000000000000000, 0.000000000000000000, 0.000000000000000000 ) ) ;
#583 = CC_DESIGN_APPROVAL ( #357, ( #394 ) ) ;
#584 = LINE ( 'NONE', #82, #53 ) ;
#585 = CIRCLE ( 'NONE', #290, 2.499999999999998668 ) ;
#586 = SHAPE_DEFINITION_REPRESENTATION ( #91, #178 ) ;
#587 = CARTESIAN_POINT ( 'NONE',  ( 27.00000000000000000, 3.306546357697853733E-15, 8.000000000000000000 ) ) ;
#588 = VECTOR ( 'NONE', #243, 1000.000000000000000 ) ;
#589 = VERTEX_POINT ( 'NONE', #153 ) ;
#590 = DATE_AND_TIME ( #70, #474 ) ;
#591 = CYLINDRICAL_SURFACE ( 'NONE', #415, 5.000000000000000000 ) ;
#592 = ORIENTED_EDGE ( 'NONE', *, *, #113, .T. ) ;
#593 = PERSON_AND_ORGANIZATION ( #487, #492 ) ;
#594 = DIRECTION ( 'NONE',  ( -0.000000000000000000, -0.000000000000000000, -1.000000000000000000 ) ) ;
#595 = CIRCLE ( 'NONE', #170, 2.499999999999998668 ) ;
#596 = VERTEX_POINT ( 'NONE', #63 ) ;
#597 = COORDINATED_UNIVERSAL_TIME_OFFSET ( 3, 30, .AHEAD. ) ;
#598 = DIRECTION ( 'NONE',  ( -1.000000000000000000, 0.000000000000000000, 0.000000000000000000 ) ) ;
#599 = ORIENTED_EDGE ( 'NONE', *, *, #160, .T. ) ;
#600 = AXIS2_PLACEMENT_3D ( 'NONE', #528, #98, #242 ) ;
#601 = CARTESIAN_POINT ( 'NONE',  ( -18.50000000000000000, 3.061616997868383141E-16, 0.000000000000000000 ) ) ;
#602 = CIRCLE ( 'NONE', #574, 27.00000000000000000 ) ;
#603 = VERTEX_POINT ( 'NONE', #536 ) ;
ENDSEC;
END-ISO-10303-21;
