ISO-10303-21;
HEADER;
FILE_DESCRIPTION (( 'STEP AP203' ),
    '1' );
FILE_NAME ('Link2LShapeConnectorFront_Default_sldprt.STEP',
    '2026-07-31T10:18:59',
    ( '' ),
    ( '' ),
    'SwSTEP 2.0',
    'SolidWorks 2025',
    '' );
FILE_SCHEMA (( 'CONFIG_CONTROL_DESIGN' ));
ENDSEC;

DATA;
#1 = EDGE_CURVE ( 'NONE', #589, #259, #767, .T. ) ;
#2 = DIRECTION ( 'NONE',  ( 0.000000000000000000, 0.000000000000000000, 1.000000000000000000 ) ) ;
#3 = DIRECTION ( 'NONE',  ( 1.000000000000000000, 0.000000000000000000, 0.000000000000000000 ) ) ;
#4 = PRODUCT_DEFINITION_SHAPE ( 'NONE', 'NONE',  #939 ) ;
#5 = DIRECTION ( 'NONE',  ( 0.000000000000000000, 0.000000000000000000, -1.000000000000000000 ) ) ;
#6 = EDGE_CURVE ( 'NONE', #132, #756, #937, .T. ) ;
#7 = AXIS2_PLACEMENT_3D ( 'NONE', #176, #75, #2 ) ;
#8 = VECTOR ( 'NONE', #674, 1000.000000000000000 ) ;
#9 = LINE ( 'NONE', #869, #696 ) ;
#10 = DIRECTION ( 'NONE',  ( -1.000000000000000000, 0.000000000000000000, -9.834626315282911255E-16 ) ) ;
#11 = CARTESIAN_POINT ( 'NONE',  ( 7.228416147400480440, 20.00000000000000000, 1.999999999999997780 ) ) ;
#12 = ORIENTED_EDGE ( 'NONE', *, *, #628, .F. ) ;
#13 = DIRECTION ( 'NONE',  ( 1.977293933768771203E-16, 0.000000000000000000, -1.000000000000000000 ) ) ;
#14 = EDGE_CURVE ( 'NONE', #1103, #284, #171, .T. ) ;
#15 = FACE_OUTER_BOUND ( 'NONE', #300, .T. ) ;
#16 = APPROVAL_PERSON_ORGANIZATION ( #480, #990, #1004 ) ;
#17 = DIRECTION ( 'NONE',  ( 0.000000000000000000, 0.000000000000000000, -1.000000000000000000 ) ) ;
#18 = DIRECTION ( 'NONE',  ( -1.000000000000000000, 0.000000000000000000, -0.000000000000000000 ) ) ;
#19 = EDGE_CURVE ( 'NONE', #880, #214, #557, .T. ) ;
#20 = CARTESIAN_POINT ( 'NONE',  ( 0.000000000000000000, 0.000000000000000000, 0.000000000000000000 ) ) ;
#21 = CARTESIAN_POINT ( 'NONE',  ( 65.25000000000000000, 20.00000000000000000, -19.99999999999998579 ) ) ;
#22 = EDGE_CURVE ( 'NONE', #134, #118, #9, .T. ) ;
#23 = DIRECTION ( 'NONE',  ( -0.000000000000000000, 1.000000000000000000, -0.000000000000000000 ) ) ;
#24 = CARTESIAN_POINT ( 'NONE',  ( -75.00000000000000000, 20.00000000000000000, 10.25000000000000178 ) ) ;
#25 = CYLINDRICAL_SURFACE ( 'NONE', #289, 9.750000000000001776 ) ;
#26 = FACE_BOUND ( 'NONE', #744, .T. ) ;
#27 = CIRCLE ( 'NONE', #468, 5.000000000000000000 ) ;
#28 = AXIS2_PLACEMENT_3D ( 'NONE', #497, #1002, #584 ) ;
#29 = CARTESIAN_POINT ( 'NONE',  ( -4.582575694955840717, 20.00000000000000000, 2.000000000000000444 ) ) ;
#30 = ORIENTED_EDGE ( 'NONE', *, *, #1012, .F. ) ;
#31 = FACE_OUTER_BOUND ( 'NONE', #495, .T. ) ;
#32 = EDGE_CURVE ( 'NONE', #756, #880, #341, .T. ) ;
#33 = DIRECTION ( 'NONE',  ( -0.000000000000000000, -1.000000000000000000, -0.000000000000000000 ) ) ;
#34 = EDGE_CURVE ( 'NONE', #489, #841, #695, .T. ) ;
#35 = EDGE_LOOP ( 'NONE', ( #1088, #438, #245, #863 ) ) ;
#36 = CARTESIAN_POINT ( 'NONE',  ( -75.00000000000000000, 20.00000000000000000, -19.99999999999998934 ) ) ;
#37 = ORIENTED_EDGE ( 'NONE', *, *, #22, .T. ) ;
#38 = DIRECTION ( 'NONE',  ( 0.000000000000000000, 0.000000000000000000, -1.000000000000000000 ) ) ;
#39 = ORIENTED_EDGE ( 'NONE', *, *, #19, .T. ) ;
#40 = VECTOR ( 'NONE', #165, 1000.000000000000000 ) ;
#41 = ORIENTED_EDGE ( 'NONE', *, *, #770, .F. ) ;
#42 = CIRCLE ( 'NONE', #153, 9.749999999999998224 ) ;
#43 = VECTOR ( 'NONE', #579, 1000.000000000000000 ) ;
#44 = DIRECTION ( 'NONE',  ( 0.000000000000000000, 1.000000000000000000, 0.000000000000000000 ) ) ;
#45 = VERTEX_POINT ( 'NONE', #959 ) ;
#46 = EDGE_LOOP ( 'NONE', ( #1056, #1099, #467, #957 ) ) ;
#47 = DIRECTION ( 'NONE',  ( -0.000000000000000000, -1.000000000000000000, -0.000000000000000000 ) ) ;
#48 = DIRECTION ( 'NONE',  ( 0.000000000000000000, 0.000000000000000000, 1.000000000000000000 ) ) ;
#49 = ORIENTED_EDGE ( 'NONE', *, *, #646, .F. ) ;
#50 = EDGE_CURVE ( 'NONE', #306, #502, #785, .T. ) ;
#51 = ORIENTED_EDGE ( 'NONE', *, *, #50, .F. ) ;
#52 = DIRECTION ( 'NONE',  ( 0.000000000000000000, 0.000000000000000000, 1.000000000000000000 ) ) ;
#53 = ADVANCED_FACE ( 'NONE', ( #704 ), #73, .F. ) ;
#54 = ORIENTED_EDGE ( 'NONE', *, *, #691, .F. ) ;
#55 = ORIENTED_EDGE ( 'NONE', *, *, #687, .T. ) ;
#56 = VERTEX_POINT ( 'NONE', #518 ) ;
#57 = CARTESIAN_POINT ( 'NONE',  ( 75.00000000000000000, 20.00000000000000000, -10.00000000000000000 ) ) ;
#58 = EDGE_CURVE ( 'NONE', #486, #755, #943, .T. ) ;
#59 = AXIS2_PLACEMENT_3D ( 'NONE', #615, #532, #1112 ) ;
#60 = VECTOR ( 'NONE', #992, 1000.000000000000000 ) ;
#61 = AXIS2_PLACEMENT_3D ( 'NONE', #322, #588, #666 ) ;
#62 = ORIENTED_EDGE ( 'NONE', *, *, #914, .F. ) ;
#63 = EDGE_CURVE ( 'NONE', #735, #179, #424, .T. ) ;
#64 = EDGE_LOOP ( 'NONE', ( #1001, #971, #86, #895 ) ) ;
#65 = SHAPE_DEFINITION_REPRESENTATION ( #4, #110 ) ;
#66 = PLANE ( 'NONE',  #226 ) ;
#67 = ORIENTED_EDGE ( 'NONE', *, *, #216, .T. ) ;
#68 = LINE ( 'NONE', #422, #644 ) ;
#69 = DIRECTION ( 'NONE',  ( 0.000000000000000000, -0.000000000000000000, -1.000000000000000000 ) ) ;
#70 = DIRECTION ( 'NONE',  ( 0.000000000000000000, 0.000000000000000000, 1.000000000000000000 ) ) ;
#71 = EDGE_LOOP ( 'NONE', ( #542, #904, #649, #450 ) ) ;
#72 = ADVANCED_FACE ( 'NONE', ( #428 ), #439, .F. ) ;
#73 = PLANE ( 'NONE',  #242 ) ;
#74 = LINE ( 'NONE', #1113, #1043 ) ;
#75 = DIRECTION ( 'NONE',  ( 0.000000000000000000, 1.000000000000000000, 0.000000000000000000 ) ) ;
#76 = AXIS2_PLACEMENT_3D ( 'NONE', #120, #1058, #470 ) ;
#77 = EDGE_CURVE ( 'NONE', #836, #516, #525, .T. ) ;
#78 = AXIS2_PLACEMENT_3D ( 'NONE', #922, #47, #1019 ) ;
#79 = DIRECTION ( 'NONE',  ( -0.000000000000000000, 1.000000000000000000, -0.000000000000000000 ) ) ;
#80 = EDGE_LOOP ( 'NONE', ( #386, #672, #1090, #1000 ) ) ;
#81 = PLANE ( 'NONE',  #857 ) ;
#82 = EDGE_CURVE ( 'NONE', #412, #134, #642, .T. ) ;
#83 = PLANE ( 'NONE',  #893 ) ;
#84 = CARTESIAN_POINT ( 'NONE',  ( 0.000000000000000000, 0.000000000000000000, 0.000000000000000000 ) ) ;
#85 = DIRECTION ( 'NONE',  ( -1.000000000000000000, 0.000000000000000000, 0.000000000000000000 ) ) ;
#86 = ORIENTED_EDGE ( 'NONE', *, *, #618, .T. ) ;
#87 = EDGE_CURVE ( 'NONE', #524, #836, #42, .T. ) ;
#88 = CARTESIAN_POINT ( 'NONE',  ( 7.228416147400479552, 0.000000000000000000, -2.000000000000001776 ) ) ;
#89 = PERSON_AND_ORGANIZATION_ROLE ( 'classification_officer' ) ;
#90 = CARTESIAN_POINT ( 'NONE',  ( 4.582575694955839829, 20.00000000000000000, -2.000000000000002220 ) ) ;
#91 = CARTESIAN_POINT ( 'NONE',  ( 0.000000000000000000, 0.000000000000000000, 0.000000000000000000 ) ) ;
#92 = EDGE_LOOP ( 'NONE', ( #634, #832, #416, #667 ) ) ;
#93 = CARTESIAN_POINT ( 'NONE',  ( -75.00000000000000000, 0.000000000000000000, -10.24999999999998757 ) ) ;
#94 = ORIENTED_EDGE ( 'NONE', *, *, #581, .T. ) ;
#95 = DIRECTION ( 'NONE',  ( -1.000000000000000000, -0.000000000000000000, 1.977293933768771203E-16 ) ) ;
#96 = FACE_OUTER_BOUND ( 'NONE', #46, .T. ) ;
#97 = VERTEX_POINT ( 'NONE', #689 ) ;
#98 = DIRECTION ( 'NONE',  ( 0.000000000000000000, 1.000000000000000000, 0.000000000000000000 ) ) ;
#99 = VECTOR ( 'NONE', #850, 1000.000000000000000 ) ;
#100 = CIRCLE ( 'NONE', #786, 5.000000000000000000 ) ;
#101 = VECTOR ( 'NONE', #571, 1000.000000000000000 ) ;
#102 = FACE_OUTER_BOUND ( 'NONE', #740, .T. ) ;
#103 = CARTESIAN_POINT ( 'NONE',  ( -30.00000000000000000, -49.24428900898052319, -10.00000000000000000 ) ) ;
#104 = DIRECTION ( 'NONE',  ( -0.000000000000000000, -1.000000000000000000, -0.000000000000000000 ) ) ;
#105 = VERTEX_POINT ( 'NONE', #357 ) ;
#106 = CYLINDRICAL_SURFACE ( 'NONE', #788, 30.00000000000000000 ) ;
#107 = ADVANCED_FACE ( 'NONE', ( #268, #26 ), #463, .T. ) ;
#108 = EDGE_LOOP ( 'NONE', ( #761, #496, #745, #54 ) ) ;
#109 = DIRECTION ( 'NONE',  ( -0.000000000000000000, 1.000000000000000000, -0.000000000000000000 ) ) ;
#110 = ADVANCED_BREP_SHAPE_REPRESENTATION ( 'Link2LShapeConnectorFront_Default_sldprt', ( #465, #794 ), #490 ) ;
#111 = FACE_OUTER_BOUND ( 'NONE', #64, .T. ) ;
#112 = LINE ( 'NONE', #374, #210 ) ;
#113 = LINE ( 'NONE', #283, #633 ) ;
#114 = CARTESIAN_POINT ( 'NONE',  ( 75.00000000000000000, 20.00000000000000000, 10.00000000000000000 ) ) ;
#115 = EDGE_CURVE ( 'NONE', #284, #147, #721, .T. ) ;
#116 = DIRECTION ( 'NONE',  ( -1.000000000000000000, 0.000000000000000000, -0.000000000000000000 ) ) ;
#117 = CARTESIAN_POINT ( 'NONE',  ( 65.25000000000000000, 20.00000000000000000, -19.99999999999998579 ) ) ;
#118 = VERTEX_POINT ( 'NONE', #302 ) ;
#119 = FACE_OUTER_BOUND ( 'NONE', #108, .T. ) ;
#120 = CARTESIAN_POINT ( 'NONE',  ( 30.00000000000000000, -49.24428900898052319, 10.00000000000000000 ) ) ;
#121 = ADVANCED_FACE ( 'NONE', ( #645 ), #124, .F. ) ;
#122 = EDGE_LOOP ( 'NONE', ( #311, #591, #493, #499 ) ) ;
#123 = DATE_TIME_ROLE ( 'creation_date' ) ;
#124 = CYLINDRICAL_SURFACE ( 'NONE', #414, 5.000000000000000000 ) ;
#125 = CYLINDRICAL_SURFACE ( 'NONE', #432, 9.750000000000001776 ) ;
#126 = EDGE_CURVE ( 'NONE', #998, #675, #393, .T. ) ;
#127 = ORIENTED_EDGE ( 'NONE', *, *, #355, .T. ) ;
#128 = ADVANCED_FACE ( 'NONE', ( #15 ), #475, .F. ) ;
#129 = DIRECTION ( 'NONE',  ( -0.000000000000000000, 1.000000000000000000, -0.000000000000000000 ) ) ;
#130 = CC_DESIGN_PERSON_AND_ORGANIZATION_ASSIGNMENT ( #270, #1100, ( #419 ) ) ;
#131 = LINE ( 'NONE', #117, #187 ) ;
#132 = VERTEX_POINT ( 'NONE', #1067 ) ;
#133 = DIRECTION ( 'NONE',  ( 1.000000000000000000, 0.000000000000000000, -3.295489889614618425E-16 ) ) ;
#134 = VERTEX_POINT ( 'NONE', #21 ) ;
#135 = CIRCLE ( 'NONE', #7, 30.00000000000000000 ) ;
#136 = CARTESIAN_POINT ( 'NONE',  ( 0.000000000000000000, 0.000000000000000000, 0.000000000000000000 ) ) ;
#137 = VECTOR ( 'NONE', #670, 1000.000000000000000 ) ;
#138 = ADVANCED_FACE ( 'NONE', ( #815 ), #1062, .F. ) ;
#139 = VERTEX_POINT ( 'NONE', #291 ) ;
#140 = ADVANCED_FACE ( 'NONE', ( #31 ), #286, .T. ) ;
#141 = ORIENTED_EDGE ( 'NONE', *, *, #978, .T. ) ;
#142 = CARTESIAN_POINT ( 'NONE',  ( 4.582575694955840717, 20.00000000000000000, 2.000000000000000444 ) ) ;
#143 = CARTESIAN_POINT ( 'NONE',  ( -30.00000000000000000, 20.00000000000000000, 10.00000000000000000 ) ) ;
#144 = ORIENTED_EDGE ( 'NONE', *, *, #1061, .F. ) ;
#145 = ORIENTED_EDGE ( 'NONE', *, *, #6, .F. ) ;
#146 = EDGE_CURVE ( 'NONE', #489, #1018, #372, .T. ) ;
#147 = VERTEX_POINT ( 'NONE', #983 ) ;
#148 = CARTESIAN_POINT ( 'NONE',  ( -75.00000000000000000, 20.00000000000000000, -19.99999999999998934 ) ) ;
#149 = ORIENTED_EDGE ( 'NONE', *, *, #321, .F. ) ;
#150 = ORIENTED_EDGE ( 'NONE', *, *, #811, .F. ) ;
#151 = DATE_AND_TIME ( #925, #402 ) ;
#152 = CARTESIAN_POINT ( 'NONE',  ( 0.000000000000000000, 0.000000000000000000, -30.00000000000000000 ) ) ;
#153 = AXIS2_PLACEMENT_3D ( 'NONE', #677, #246, #610 ) ;
#154 = ORIENTED_EDGE ( 'NONE', *, *, #87, .T. ) ;
#155 = CARTESIAN_POINT ( 'NONE',  ( -4.582575694955840717, -49.24428900898052319, 2.000000000000000444 ) ) ;
#156 = ORIENTED_EDGE ( 'NONE', *, *, #1, .F. ) ;
#157 = CARTESIAN_POINT ( 'NONE',  ( 30.00000000000000000, 20.00000000000000000, 10.00000000000000000 ) ) ;
#158 = CC_DESIGN_APPROVAL ( #990, ( #939 ) ) ;
#159 = ORIENTED_EDGE ( 'NONE', *, *, #659, .F. ) ;
#160 = ORIENTED_EDGE ( 'NONE', *, *, #728, .F. ) ;
#161 = DIRECTION ( 'NONE',  ( 1.639104385880485867E-16, 0.000000000000000000, 1.000000000000000000 ) ) ;
#162 = CARTESIAN_POINT ( 'NONE',  ( 7.228416147400479552, 0.000000000000000000, -2.000000000000001332 ) ) ;
#163 = ORIENTED_EDGE ( 'NONE', *, *, #702, .F. ) ;
#164 = CARTESIAN_POINT ( 'NONE',  ( -75.00000000000000000, 20.00000000000000000, -10.24999999999998757 ) ) ;
#165 = DIRECTION ( 'NONE',  ( -0.000000000000000000, 1.000000000000000000, -0.000000000000000000 ) ) ;
#166 = CYLINDRICAL_SURFACE ( 'NONE', #362, 5.000000000000000000 ) ;
#167 = DIRECTION ( 'NONE',  ( -0.000000000000000000, 1.000000000000000000, -0.000000000000000000 ) ) ;
#168 = CARTESIAN_POINT ( 'NONE',  ( 0.000000000000000000, 20.00000000000000000, 0.000000000000000000 ) ) ;
#169 = VECTOR ( 'NONE', #182, 1000.000000000000000 ) ;
#170 = VERTEX_POINT ( 'NONE', #551 ) ;
#171 = LINE ( 'NONE', #88, #1041 ) ;
#172 = DIRECTION ( 'NONE',  ( 1.000000000000000000, 0.000000000000000000, 1.977293933768771203E-16 ) ) ;
#173 = AXIS2_PLACEMENT_3D ( 'NONE', #168, #98, #784 ) ;
#174 = CARTESIAN_POINT ( 'NONE',  ( -7.228416147400480440, 20.00000000000000000, 1.999999999999997780 ) ) ;
#175 = EDGE_LOOP ( 'NONE', ( #818, #329, #665, #229, #798, #1098, #1039, #39, #868, #491, #395, #156, #927, #234, #643, #1050, #751, #149, #608, #758, #30 ) ) ;
#176 = CARTESIAN_POINT ( 'NONE',  ( 0.000000000000000000, 20.00000000000000000, 0.000000000000000000 ) ) ;
#177 = MECHANICAL_CONTEXT ( 'NONE', #440, 'mechanical' ) ;
#178 = PLANE ( 'NONE',  #364 ) ;
#179 = VERTEX_POINT ( 'NONE', #114 ) ;
#180 = DIRECTION ( 'NONE',  ( 0.000000000000000000, 0.000000000000000000, 1.000000000000000000 ) ) ;
#181 = EDGE_CURVE ( 'NONE', #911, #502, #27, .T. ) ;
#182 = DIRECTION ( 'NONE',  ( -1.000000000000000000, 0.000000000000000000, 3.295489889614618425E-16 ) ) ;
#183 = CARTESIAN_POINT ( 'NONE',  ( 0.000000000000000000, 20.00000000000000000, 5.000000000000000000 ) ) ;
#184 = DIRECTION ( 'NONE',  ( -1.776356839400250465E-15, 0.000000000000000000, 1.000000000000000000 ) ) ;
#185 = ORIENTED_EDGE ( 'NONE', *, *, #1003, .T. ) ;
#186 = VECTOR ( 'NONE', #725, 1000.000000000000000 ) ;
#187 = VECTOR ( 'NONE', #219, 1000.000000000000000 ) ;
#188 = DIRECTION ( 'NONE',  ( 0.000000000000000000, 0.000000000000000000, 1.000000000000000000 ) ) ;
#189 = CARTESIAN_POINT ( 'NONE',  ( 65.25000000000000000, 20.00000000000000000, -10.24999999999998757 ) ) ;
#190 = DIRECTION ( 'NONE',  ( 0.000000000000000000, 0.000000000000000000, 1.000000000000000000 ) ) ;
#191 = CYLINDRICAL_SURFACE ( 'NONE', #472, 9.750000000000000000 ) ;
#192 = VECTOR ( 'NONE', #1065, 1000.000000000000000 ) ;
#193 = LOCAL_TIME ( 13, 48, 59.00000000000000000, #673 ) ;
#194 = DIRECTION ( 'NONE',  ( -0.000000000000000000, 1.000000000000000000, -0.000000000000000000 ) ) ;
#195 = DIRECTION ( 'NONE',  ( 0.000000000000000000, 0.000000000000000000, 1.000000000000000000 ) ) ;
#196 = CARTESIAN_POINT ( 'NONE',  ( 30.00000000000000000, -49.24428900898052319, -10.00000000000000000 ) ) ;
#197 = ORIENTED_EDGE ( 'NONE', *, *, #618, .F. ) ;
#198 = CARTESIAN_POINT ( 'NONE',  ( 75.00000000000000000, 20.00000000000000000, -19.99999999999998934 ) ) ;
#199 = EDGE_CURVE ( 'NONE', #1085, #614, #100, .T. ) ;
#200 = FACE_OUTER_BOUND ( 'NONE', #681, .T. ) ;
#201 = CARTESIAN_POINT ( 'NONE',  ( 7.228416147400479552, 20.00000000000000000, -2.000000000000001776 ) ) ;
#202 = ORIENTED_EDGE ( 'NONE', *, *, #1061, .T. ) ;
#203 = ADVANCED_FACE ( 'NONE', ( #119 ), #388, .F. ) ;
#204 = DIRECTION ( 'NONE',  ( 0.000000000000000000, 0.000000000000000000, 1.000000000000000000 ) ) ;
#205 = VECTOR ( 'NONE', #376, 1000.000000000000000 ) ;
#206 = EDGE_CURVE ( 'NONE', #278, #524, #535, .T. ) ;
#207 = VERTEX_POINT ( 'NONE', #874 ) ;
#208 = DIRECTION ( 'NONE',  ( 0.000000000000000000, 0.000000000000000000, -1.000000000000000000 ) ) ;
#209 = ORIENTED_EDGE ( 'NONE', *, *, #213, .F. ) ;
#210 = VECTOR ( 'NONE', #104, 1000.000000000000000 ) ;
#211 = ADVANCED_FACE ( 'NONE', ( #102 ), #1071, .F. ) ;
#212 = DIRECTION ( 'NONE',  ( 0.000000000000000000, 0.000000000000000000, -1.000000000000000000 ) ) ;
#213 = EDGE_CURVE ( 'NONE', #530, #755, #793, .T. ) ;
#214 = VERTEX_POINT ( 'NONE', #261 ) ;
#215 = ADVANCED_FACE ( 'NONE', ( #342 ), #81, .F. ) ;
#216 = EDGE_CURVE ( 'NONE', #45, #132, #74, .T. ) ;
#217 = ORIENTED_EDGE ( 'NONE', *, *, #344, .F. ) ;
#218 = CARTESIAN_POINT ( 'NONE',  ( 0.000000000000000000, 20.00000000000000000, 0.000000000000000000 ) ) ;
#219 = DIRECTION ( 'NONE',  ( 0.000000000000000000, -1.000000000000000000, 0.000000000000000000 ) ) ;
#220 = EDGE_CURVE ( 'NONE', #207, #981, #685, .T. ) ;
#221 = ORIENTED_EDGE ( 'NONE', *, *, #656, .F. ) ;
#222 = VERTEX_POINT ( 'NONE', #860 ) ;
#223 = ORIENTED_EDGE ( 'NONE', *, *, #581, .F. ) ;
#224 = VECTOR ( 'NONE', #172, 1000.000000000000000 ) ;
#225 = DIRECTION ( 'NONE',  ( -0.000000000000000000, 1.000000000000000000, -0.000000000000000000 ) ) ;
#226 = AXIS2_PLACEMENT_3D ( 'NONE', #235, #746, #907 ) ;
#227 = UNCERTAINTY_MEASURE_WITH_UNIT (LENGTH_MEASURE( 1.000000000000000082E-05 ), #1119, 'distance_accuracy_value', 'NONE');
#228 = ORIENTED_EDGE ( 'NONE', *, *, #336, .T. ) ;
#229 = ORIENTED_EDGE ( 'NONE', *, *, #1075, .T. ) ;
#230 = FACE_OUTER_BOUND ( 'NONE', #35, .T. ) ;
#231 = CC_DESIGN_DATE_AND_TIME_ASSIGNMENT ( #151, #847, ( #529 ) ) ;
#232 = EDGE_LOOP ( 'NONE', ( #738, #650, #1014, #403, #274, #154, #1034, #427, #323, #197, #399, #1021, #37, #511, #663, #445, #569, #145, #407, #962, #1066 ) ) ;
#233 = DIRECTION ( 'NONE',  ( -0.000000000000000000, 1.000000000000000000, -0.000000000000000000 ) ) ;
#234 = ORIENTED_EDGE ( 'NONE', *, *, #985, .F. ) ;
#235 = CARTESIAN_POINT ( 'NONE',  ( -30.00000000000000000, -49.24428900898052319, 10.00000000000000000 ) ) ;
#236 = ORIENTED_EDGE ( 'NONE', *, *, #739, .T. ) ;
#237 = DIRECTION ( 'NONE',  ( -0.000000000000000000, -1.000000000000000000, -0.000000000000000000 ) ) ;
#238 = ORIENTED_EDGE ( 'NONE', *, *, #14, .F. ) ;
#239 = CLOSED_SHELL ( 'NONE', ( #121, #492, #107, #390, #140, #680, #203, #652, #852, #433, #976, #215, #531, #488, #72, #254, #138, #899, #53, #211, #886, #526, #936, #835, #576, #464, #671, #266, #128, #844, #368, #952 ) ) ;
#240 = CARTESIAN_POINT ( 'NONE',  ( 0.000000000000000000, -49.24428900898052319, 5.000000000000000000 ) ) ;
#241 = EDGE_CURVE ( 'NONE', #849, #779, #253, .T. ) ;
#242 = AXIS2_PLACEMENT_3D ( 'NONE', #365, #1053, #619 ) ;
#243 = AXIS2_PLACEMENT_3D ( 'NONE', #601, #276, #367 ) ;
#244 = VECTOR ( 'NONE', #829, 1000.000000000000000 ) ;
#245 = ORIENTED_EDGE ( 'NONE', *, *, #216, .F. ) ;
#246 = DIRECTION ( 'NONE',  ( 0.000000000000000000, 1.000000000000000000, 0.000000000000000000 ) ) ;
#247 = EDGE_CURVE ( 'NONE', #1096, #314, #267, .T. ) ;
#248 = APPROVAL_DATE_TIME ( #851, #523 ) ;
#249 = CARTESIAN_POINT ( 'NONE',  ( -7.228416147400479552, -49.24428900898052319, -2.000000000000001332 ) ) ;
#250 = CARTESIAN_POINT ( 'NONE',  ( 75.00000000000000000, 20.00000000000000000, -10.24999999999998757 ) ) ;
#251 = VERTEX_POINT ( 'NONE', #604 ) ;
#252 = DIRECTION ( 'NONE',  ( 0.000000000000000000, 1.000000000000000000, 0.000000000000000000 ) ) ;
#253 = LINE ( 'NONE', #249, #397 ) ;
#254 = ADVANCED_FACE ( 'NONE', ( #349 ), #166, .F. ) ;
#255 = DIRECTION ( 'NONE',  ( 0.000000000000000000, 1.000000000000000000, 0.000000000000000000 ) ) ;
#256 = DIRECTION ( 'NONE',  ( -1.000000000000000000, 0.000000000000000000, -9.834626315282913227E-16 ) ) ;
#257 = CARTESIAN_POINT ( 'NONE',  ( 75.00000000000000000, 20.00000000000000000, -19.99999999999998934 ) ) ;
#258 = EDGE_CURVE ( 'NONE', #132, #931, #853, .T. ) ;
#259 = VERTEX_POINT ( 'NONE', #519 ) ;
#260 = DIRECTION ( 'NONE',  ( 1.000000000000000000, -0.000000000000000000, 1.639104385880485867E-16 ) ) ;
#261 = CARTESIAN_POINT ( 'NONE',  ( -65.25000000000000000, 0.000000000000000000, -19.99999999999998579 ) ) ;
#262 = APPROVAL_DATE_TIME ( #1011, #359 ) ;
#263 = CARTESIAN_POINT ( 'NONE',  ( -22.36067977499790871, 20.00000000000000000, 19.99999999999998579 ) ) ;
#264 = ORIENTED_EDGE ( 'NONE', *, *, #728, .T. ) ;
#265 = DIRECTION ( 'NONE',  ( -0.000000000000000000, -1.000000000000000000, -0.000000000000000000 ) ) ;
#266 = ADVANCED_FACE ( 'NONE', ( #760 ), #1107, .T. ) ;
#267 = CIRCLE ( 'NONE', #559, 30.00000000000000000 ) ;
#268 = FACE_OUTER_BOUND ( 'NONE', #232, .T. ) ;
#269 = EDGE_CURVE ( 'NONE', #214, #251, #1027, .T. ) ;
#270 = PERSON_AND_ORGANIZATION ( #517, #548 ) ;
#271 = DIRECTION ( 'NONE',  ( 0.000000000000000000, 0.000000000000000000, 1.000000000000000000 ) ) ;
#272 = CARTESIAN_POINT ( 'NONE',  ( 4.582575694955839829, 0.000000000000000000, -2.000000000000002220 ) ) ;
#273 = DIRECTION ( 'NONE',  ( 0.000000000000000000, -1.000000000000000000, 0.000000000000000000 ) ) ;
#274 = ORIENTED_EDGE ( 'NONE', *, *, #206, .T. ) ;
#275 = CARTESIAN_POINT ( 'NONE',  ( -7.228416147400480440, 0.000000000000000000, 1.999999999999997780 ) ) ;
#276 = DIRECTION ( 'NONE',  ( 0.000000000000000000, 1.000000000000000000, 0.000000000000000000 ) ) ;
#277 = CARTESIAN_POINT ( 'NONE',  ( -7.228416147400479552, -1.387778780781445676E-14, -2.000000000000001332 ) ) ;
#278 = VERTEX_POINT ( 'NONE', #940 ) ;
#279 = CARTESIAN_POINT ( 'NONE',  ( -75.00000000000000000, 0.000000000000000000, 20.00000000000000355 ) ) ;
#280 = FACE_OUTER_BOUND ( 'NONE', #296, .T. ) ;
#281 = DIRECTION ( 'NONE',  ( 0.000000000000000000, 1.000000000000000000, 0.000000000000000000 ) ) ;
#282 = ORIENTED_EDGE ( 'NONE', *, *, #655, .F. ) ;
#283 = CARTESIAN_POINT ( 'NONE',  ( 75.00000000000000000, 0.000000000000000000, 20.00000000000000355 ) ) ;
#284 = VERTEX_POINT ( 'NONE', #162 ) ;
#285 = CIRCLE ( 'NONE', #910, 9.750000000000000000 ) ;
#286 = PLANE ( 'NONE',  #411 ) ;
#287 = DIRECTION ( 'NONE',  ( 0.000000000000000000, 0.000000000000000000, -1.000000000000000000 ) ) ;
#288 = EDGE_CURVE ( 'NONE', #222, #478, #1118, .T. ) ;
#289 = AXIS2_PLACEMENT_3D ( 'NONE', #708, #371, #1115 ) ;
#290 = ORIENTED_EDGE ( 'NONE', *, *, #762, .T. ) ;
#291 = CARTESIAN_POINT ( 'NONE',  ( 30.00000000000000000, 0.000000000000000000, 10.00000000000000000 ) ) ;
#292 = DIRECTION ( 'NONE',  ( -1.000000000000000000, 0.000000000000000000, 0.000000000000000000 ) ) ;
#293 = CALENDAR_DATE ( 2026, 31, 7 ) ;
#294 = EDGE_CURVE ( 'NONE', #754, #931, #877, .T. ) ;
#295 = CARTESIAN_POINT ( 'NONE',  ( 0.000000000000000000, 20.00000000000000000, 0.000000000000000000 ) ) ;
#296 = EDGE_LOOP ( 'NONE', ( #688, #94, #809, #144 ) ) ;
#297 = CARTESIAN_POINT ( 'NONE',  ( 0.000000000000000000, 20.00000000000000000, 0.000000000000000000 ) ) ;
#298 = CARTESIAN_POINT ( 'NONE',  ( -30.00000000000000000, 20.00000000000000000, -10.00000000000000000 ) ) ;
#299 = DIRECTION ( 'NONE',  ( 1.000000000000000000, 0.000000000000000000, 0.000000000000000000 ) ) ;
#300 = EDGE_LOOP ( 'NONE', ( #826, #401, #12, #709 ) ) ;
#301 = PERSON_AND_ORGANIZATION ( #517, #548 ) ;
#302 = CARTESIAN_POINT ( 'NONE',  ( 22.36067977499791581, 20.00000000000000000, -19.99999999999997868 ) ) ;
#303 = VECTOR ( 'NONE', #514, 1000.000000000000000 ) ;
#304 = AXIS2_PLACEMENT_3D ( 'NONE', #84, #693, #965 ) ;
#305 = CARTESIAN_POINT ( 'NONE',  ( 75.00000000000000000, -49.24428900898052319, -10.00000000000000000 ) ) ;
#306 = VERTEX_POINT ( 'NONE', #776 ) ;
#307 = VECTOR ( 'NONE', #714, 1000.000000000000000 ) ;
#308 = ORIENTED_EDGE ( 'NONE', *, *, #762, .F. ) ;
#309 = CARTESIAN_POINT ( 'NONE',  ( -75.00000000000000000, 20.00000000000000000, 10.00000000000000000 ) ) ;
#310 = ORIENTED_EDGE ( 'NONE', *, *, #58, .T. ) ;
#311 = ORIENTED_EDGE ( 'NONE', *, *, #550, .T. ) ;
#312 = ORIENTED_EDGE ( 'NONE', *, *, #739, .F. ) ;
#313 = FACE_OUTER_BOUND ( 'NONE', #997, .T. ) ;
#314 = VERTEX_POINT ( 'NONE', #1046 ) ;
#315 = VERTEX_POINT ( 'NONE', #945 ) ;
#316 = ORIENTED_EDGE ( 'NONE', *, *, #1012, .T. ) ;
#317 = VECTOR ( 'NONE', #556, 1000.000000000000000 ) ;
#318 = DIRECTION ( 'NONE',  ( -0.000000000000000000, -1.000000000000000000, -0.000000000000000000 ) ) ;
#319 = EDGE_CURVE ( 'NONE', #97, #278, #135, .T. ) ;
#320 = ORIENTED_EDGE ( 'NONE', *, *, #32, .F. ) ;
#321 = EDGE_CURVE ( 'NONE', #516, #735, #616, .T. ) ;
#322 = CARTESIAN_POINT ( 'NONE',  ( 0.000000000000000000, 0.000000000000000000, 0.000000000000000000 ) ) ;
#323 = ORIENTED_EDGE ( 'NONE', *, *, #355, .F. ) ;
#324 = VECTOR ( 'NONE', #1084, 1000.000000000000000 ) ;
#325 = DIRECTION ( 'NONE',  ( -1.000000000000000000, 0.000000000000000000, -0.000000000000000000 ) ) ;
#326 = VERTEX_POINT ( 'NONE', #795 ) ;
#327 = ORIENTED_EDGE ( 'NONE', *, *, #241, .F. ) ;
#328 = SECURITY_CLASSIFICATION_LEVEL ( 'unclassified' ) ;
#329 = ORIENTED_EDGE ( 'NONE', *, *, #1120, .T. ) ;
#330 = DIRECTION ( 'NONE',  ( 0.000000000000000000, 0.000000000000000000, 1.000000000000000000 ) ) ;
#331 = ORIENTED_EDGE ( 'NONE', *, *, #50, .T. ) ;
#332 = CARTESIAN_POINT ( 'NONE',  ( 22.36067977499790871, 0.000000000000000000, 19.99999999999998579 ) ) ;
#333 = DIRECTION ( 'NONE',  ( 0.000000000000000000, -1.000000000000000000, 0.000000000000000000 ) ) ;
#334 = CALENDAR_DATE ( 2026, 31, 7 ) ;
#335 = DIRECTION ( 'NONE',  ( -0.000000000000000000, 1.000000000000000000, -0.000000000000000000 ) ) ;
#336 = EDGE_CURVE ( 'NONE', #326, #998, #1038, .T. ) ;
#337 = CIRCLE ( 'NONE', #243, 30.00000000000000000 ) ;
#338 = CIRCLE ( 'NONE', #969, 5.000000000000000000 ) ;
#339 = ORIENTED_EDGE ( 'NONE', *, *, #817, .F. ) ;
#340 = EDGE_CURVE ( 'NONE', #516, #170, #732, .T. ) ;
#341 = LINE ( 'NONE', #603, #984 ) ;
#342 = FACE_OUTER_BOUND ( 'NONE', #906, .T. ) ;
#343 = AXIS2_PLACEMENT_3D ( 'NONE', #954, #281, #190 ) ;
#344 = EDGE_CURVE ( 'NONE', #779, #56, #620, .T. ) ;
#345 = DIRECTION ( 'NONE',  ( -0.000000000000000000, -0.000000000000000000, -1.000000000000000000 ) ) ;
#346 = PLANE ( 'NONE',  #958 ) ;
#347 = LINE ( 'NONE', #949, #1044 ) ;
#348 = DIRECTION ( 'NONE',  ( 0.000000000000000000, 0.000000000000000000, 1.000000000000000000 ) ) ;
#349 = FACE_OUTER_BOUND ( 'NONE', #1086, .T. ) ;
#350 = PERSON_AND_ORGANIZATION_ROLE ( 'creator' ) ;
#351 = EDGE_CURVE ( 'NONE', #259, #598, #337, .T. ) ;
#352 = CARTESIAN_POINT ( 'NONE',  ( 75.00000000000000000, 0.000000000000000000, -10.00000000000000000 ) ) ;
#353 =( NAMED_UNIT ( * ) PLANE_ANGLE_UNIT ( ) SI_UNIT ( $, .RADIAN. ) );
#354 = FACE_OUTER_BOUND ( 'NONE', #513, .T. ) ;
#355 = EDGE_CURVE ( 'NONE', #105, #623, #790, .T. ) ;
#356 = ORIENTED_EDGE ( 'NONE', *, *, #737, .T. ) ;
#357 = CARTESIAN_POINT ( 'NONE',  ( 30.00000000000000000, 20.00000000000000000, -10.00000000000000000 ) ) ;
#358 = DIRECTION ( 'NONE',  ( 1.000000000000000000, 0.000000000000000000, -1.639104385880485867E-16 ) ) ;
#359 = APPROVAL ( #421, 'UNSPECIFIED' ) ;
#360 = APPLICATION_PROTOCOL_DEFINITION ( 'international standard', 'config_control_design', 1994, #440 ) ;
#361 = ORIENTED_EDGE ( 'NONE', *, *, #77, .F. ) ;
#362 = AXIS2_PLACEMENT_3D ( 'NONE', #426, #435, #679 ) ;
#363 = FACE_OUTER_BOUND ( 'NONE', #1042, .T. ) ;
#364 = AXIS2_PLACEMENT_3D ( 'NONE', #461, #879, #256 ) ;
#365 = CARTESIAN_POINT ( 'NONE',  ( 7.228416147400480440, -49.24428900898052319, 1.999999999999997780 ) ) ;
#366 = FACE_OUTER_BOUND ( 'NONE', #741, .T. ) ;
#367 = DIRECTION ( 'NONE',  ( 0.000000000000000000, 0.000000000000000000, 1.000000000000000000 ) ) ;
#368 = ADVANCED_FACE ( 'NONE', ( #96 ), #953, .T. ) ;
#369 = VECTOR ( 'NONE', #18, 1000.000000000000000 ) ;
#370 = DIRECTION ( 'NONE',  ( 1.000000000000000000, -0.000000000000000000, 3.295489889614618425E-16 ) ) ;
#371 = DIRECTION ( 'NONE',  ( 0.000000000000000000, -1.000000000000000000, 0.000000000000000000 ) ) ;
#372 = LINE ( 'NONE', #979, #891 ) ;
#373 = CARTESIAN_POINT ( 'NONE',  ( 22.36067977499790871, 20.00000000000000000, 19.99999999999998579 ) ) ;
#374 = CARTESIAN_POINT ( 'NONE',  ( -22.36067977499791581, 20.00000000000000000, -19.99999999999997868 ) ) ;
#375 = DIRECTION ( 'NONE',  ( -1.000000000000000000, 0.000000000000000000, 0.000000000000000000 ) ) ;
#376 = DIRECTION ( 'NONE',  ( 0.000000000000000000, -0.000000000000000000, -1.000000000000000000 ) ) ;
#377 = PLANE ( 'NONE',  #1063 ) ;
#378 = CARTESIAN_POINT ( 'NONE',  ( -65.25000000000000000, 0.000000000000000000, 10.25000000000000000 ) ) ;
#379 = DIRECTION ( 'NONE',  ( 0.000000000000000000, 0.000000000000000000, -1.000000000000000000 ) ) ;
#380 = EDGE_CURVE ( 'NONE', #278, #814, #515, .T. ) ;
#381 = ORIENTED_EDGE ( 'NONE', *, *, #646, .T. ) ;
#382 = VECTOR ( 'NONE', #79, 1000.000000000000000 ) ;
#383 = DIRECTION ( 'NONE',  ( -0.000000000000000000, 1.000000000000000000, -0.000000000000000000 ) ) ;
#384 = EDGE_CURVE ( 'NONE', #566, #934, #964, .T. ) ;
#385 = VECTOR ( 'NONE', #791, 1000.000000000000000 ) ;
#386 = ORIENTED_EDGE ( 'NONE', *, *, #870, .T. ) ;
#387 = APPROVAL_PERSON_ORGANIZATION ( #301, #359, #1089 ) ;
#388 = PLANE ( 'NONE',  #430 ) ;
#389 = LINE ( 'NONE', #1064, #697 ) ;
#390 = ADVANCED_FACE ( 'NONE', ( #686, #538 ), #83, .F. ) ;
#391 = ORIENTED_EDGE ( 'NONE', *, *, #199, .F. ) ;
#392 = CARTESIAN_POINT ( 'NONE',  ( -75.00000000000000000, 20.00000000000000000, 20.00000000000000355 ) ) ;
#393 = LINE ( 'NONE', #624, #205 ) ;
#394 = CARTESIAN_POINT ( 'NONE',  ( -22.36067977499790871, 0.000000000000000000, 19.99999999999998579 ) ) ;
#395 = ORIENTED_EDGE ( 'NONE', *, *, #351, .F. ) ;
#396 = DIRECTION ( 'NONE',  ( 3.295489889614618425E-16, -0.000000000000000000, 1.000000000000000000 ) ) ;
#397 = VECTOR ( 'NONE', #769, 1000.000000000000000 ) ;
#398 = AXIS2_PLACEMENT_3D ( 'NONE', #136, #318, #52 ) ;
#399 = ORIENTED_EDGE ( 'NONE', *, *, #789, .T. ) ;
#400 = CARTESIAN_POINT ( 'NONE',  ( 75.00000000000000000, 0.000000000000000000, -10.24999999999998757 ) ) ;
#401 = ORIENTED_EDGE ( 'NONE', *, *, #978, .F. ) ;
#402 = LOCAL_TIME ( 13, 48, 59.00000000000000000, #1015 ) ;
#403 = ORIENTED_EDGE ( 'NONE', *, *, #319, .T. ) ;
#404 = LINE ( 'NONE', #651, #101 ) ;
#405 = EDGE_CURVE ( 'NONE', #97, #486, #867, .T. ) ;
#406 = ORIENTED_EDGE ( 'NONE', *, *, #14, .T. ) ;
#407 = ORIENTED_EDGE ( 'NONE', *, *, #258, .T. ) ;
#408 = LINE ( 'NONE', #240, #522 ) ;
#409 = VERTEX_POINT ( 'NONE', #521 ) ;
#410 = LINE ( 'NONE', #1035, #137 ) ;
#411 = AXIS2_PLACEMENT_3D ( 'NONE', #36, #631, #1077 ) ;
#412 = VERTEX_POINT ( 'NONE', #250 ) ;
#413 = EDGE_CURVE ( 'NONE', #97, #530, #692, .T. ) ;
#414 = AXIS2_PLACEMENT_3D ( 'NONE', #710, #881, #715 ) ;
#415 = FACE_OUTER_BOUND ( 'NONE', #780, .T. ) ;
#416 = ORIENTED_EDGE ( 'NONE', *, *, #220, .F. ) ;
#417 = ORIENTED_EDGE ( 'NONE', *, *, #340, .F. ) ;
#418 = LINE ( 'NONE', #57, #8 ) ;
#419 = PRODUCT_DEFINITION_FORMATION_WITH_SPECIFIED_SOURCE ( 'ANY', '', #600, .NOT_KNOWN. ) ;
#420 = VERTEX_POINT ( 'NONE', #90 ) ;
#421 = APPROVAL_STATUS ( 'not_yet_approved' ) ;
#422 = CARTESIAN_POINT ( 'NONE',  ( 30.00000000000000000, -49.24428900898052319, 10.00000000000000000 ) ) ;
#423 = EDGE_CURVE ( 'NONE', #207, #754, #441, .T. ) ;
#424 = LINE ( 'NONE', #858, #40 ) ;
#425 = EDGE_CURVE ( 'NONE', #582, #675, #1069, .T. ) ;
#426 = CARTESIAN_POINT ( 'NONE',  ( 0.000000000000000000, -49.24428900898052319, 0.000000000000000000 ) ) ;
#427 = ORIENTED_EDGE ( 'NONE', *, *, #694, .F. ) ;
#428 = FACE_OUTER_BOUND ( 'NONE', #568, .T. ) ;
#429 = CARTESIAN_POINT ( 'NONE',  ( -30.00000000000000000, -49.24428900898052319, 10.00000000000000000 ) ) ;
#430 = AXIS2_PLACEMENT_3D ( 'NONE', #198, #555, #188 ) ;
#431 = CARTESIAN_POINT ( 'NONE',  ( 75.00000000000000000, 0.000000000000000000, -19.99999999999998934 ) ) ;
#432 = AXIS2_PLACEMENT_3D ( 'NONE', #189, #883, #38 ) ;
#433 = ADVANCED_FACE ( 'NONE', ( #200 ), #552, .F. ) ;
#434 = DIRECTION ( 'NONE',  ( -1.000000000000000000, -0.000000000000000000, 1.977293933768771203E-16 ) ) ;
#435 = DIRECTION ( 'NONE',  ( -0.000000000000000000, 1.000000000000000000, -0.000000000000000000 ) ) ;
#436 = DIRECTION ( 'NONE',  ( 0.000000000000000000, -0.000000000000000000, 1.000000000000000000 ) ) ;
#437 = CARTESIAN_POINT ( 'NONE',  ( 0.000000000000000000, -49.24428900898052319, 0.000000000000000000 ) ) ;
#438 = ORIENTED_EDGE ( 'NONE', *, *, #258, .F. ) ;
#439 = PLANE ( 'NONE',  #968 ) ;
#440 = APPLICATION_CONTEXT ( 'configuration controlled 3d designs of mechanical parts and assemblies' ) ;
#441 = LINE ( 'NONE', #722, #676 ) ;
#442 = LINE ( 'NONE', #700, #385 ) ;
#443 = VERTEX_POINT ( 'NONE', #816 ) ;
#444 = CARTESIAN_POINT ( 'NONE',  ( -30.00000000000000000, 20.00000000000000000, -10.00000000000000000 ) ) ;
#445 = ORIENTED_EDGE ( 'NONE', *, *, #972, .F. ) ;
#446 = CARTESIAN_POINT ( 'NONE',  ( 7.228416147400480440, 0.000000000000000000, 1.999999999999997780 ) ) ;
#447 = COORDINATED_UNIVERSAL_TIME_OFFSET ( 3, 30, .AHEAD. ) ;
#448 = DIRECTION ( 'NONE',  ( -0.000000000000000000, -1.000000000000000000, -0.000000000000000000 ) ) ;
#449 = PERSON_AND_ORGANIZATION ( #517, #548 ) ;
#450 = ORIENTED_EDGE ( 'NONE', *, *, #423, .F. ) ;
#451 = AXIS2_PLACEMENT_3D ( 'NONE', #699, #861, #271 ) ;
#452 = VECTOR ( 'NONE', #1087, 1000.000000000000000 ) ;
#453 = CARTESIAN_POINT ( 'NONE',  ( 0.000000000000000000, -49.24428900898052319, 0.000000000000000000 ) ) ;
#454 = DIRECTION ( 'NONE',  ( 1.000000000000000000, 0.000000000000000000, 0.000000000000000000 ) ) ;
#455 = APPROVAL_PERSON_ORGANIZATION ( #842, #523, #1025 ) ;
#456 = CARTESIAN_POINT ( 'NONE',  ( -30.00000000000000000, 20.00000000000000000, 10.00000000000000000 ) ) ;
#457 = LINE ( 'NONE', #544, #324 ) ;
#458 = CARTESIAN_POINT ( 'NONE',  ( 7.228416147400479552, -49.24428900898052319, -2.000000000000001332 ) ) ;
#459 = DIRECTION ( 'NONE',  ( -1.000000000000000000, 0.000000000000000000, 0.000000000000000000 ) ) ;
#460 = CARTESIAN_POINT ( 'NONE',  ( -75.00000000000000000, 0.000000000000000000, -10.00000000000000000 ) ) ;
#461 = CARTESIAN_POINT ( 'NONE',  ( -7.228416147400480440, -49.24428900898052319, 1.999999999999997780 ) ) ;
#462 = EDGE_CURVE ( 'NONE', #170, #524, #711, .T. ) ;
#463 = PLANE ( 'NONE',  #718 ) ;
#464 = ADVANCED_FACE ( 'NONE', ( #806 ), #377, .T. ) ;
#465 = MANIFOLD_SOLID_BREP ( 'Mirror4', #239 ) ;
#466 = CARTESIAN_POINT ( 'NONE',  ( 65.25000000000000000, 20.00000000000000000, 20.00000000000000000 ) ) ;
#467 = ORIENTED_EDGE ( 'NONE', *, *, #1120, .F. ) ;
#468 = AXIS2_PLACEMENT_3D ( 'NONE', #805, #967, #1057 ) ;
#469 = CARTESIAN_POINT ( 'NONE',  ( 0.000000000000000000, 20.00000000000000000, 0.000000000000000000 ) ) ;
#470 = DIRECTION ( 'NONE',  ( 1.000000000000000000, 0.000000000000000000, 0.000000000000000000 ) ) ;
#471 = CARTESIAN_POINT ( 'NONE',  ( -65.25000000000000000, 0.000000000000000000, 20.00000000000000000 ) ) ;
#472 = AXIS2_PLACEMENT_3D ( 'NONE', #549, #273, #379 ) ;
#473 = ORIENTED_EDGE ( 'NONE', *, *, #19, .F. ) ;
#474 = CC_DESIGN_SECURITY_CLASSIFICATION ( #529, ( #419 ) ) ;
#475 = CYLINDRICAL_SURFACE ( 'NONE', #749, 7.500000000000000000 ) ;
#476 = DIRECTION ( 'NONE',  ( -1.000000000000000000, 0.000000000000000000, -3.295489889614618425E-16 ) ) ;
#477 = CARTESIAN_POINT ( 'NONE',  ( 75.00000000000000000, 0.000000000000000000, 10.00000000000000000 ) ) ;
#478 = VERTEX_POINT ( 'NONE', #730 ) ;
#479 = CARTESIAN_POINT ( 'NONE',  ( 75.00000000000000000, 0.000000000000000000, 10.24999999999999822 ) ) ;
#480 = PERSON_AND_ORGANIZATION ( #517, #548 ) ;
#481 = LINE ( 'NONE', #808, #1008 ) ;
#482 = ORIENTED_EDGE ( 'NONE', *, *, #933, .F. ) ;
#483 = ORIENTED_EDGE ( 'NONE', *, *, #1, .T. ) ;
#484 = VECTOR ( 'NONE', #10, 1000.000000000000000 ) ;
#485 = CIRCLE ( 'NONE', #662, 5.000000000000000000 ) ;
#486 = VERTEX_POINT ( 'NONE', #1072 ) ;
#487 = LINE ( 'NONE', #902, #734 ) ;
#488 = ADVANCED_FACE ( 'NONE', ( #892 ), #987, .F. ) ;
#489 = VERTEX_POINT ( 'NONE', #821 ) ;
#490 =( GEOMETRIC_REPRESENTATION_CONTEXT ( 3 ) GLOBAL_UNCERTAINTY_ASSIGNED_CONTEXT ( ( #227 ) ) GLOBAL_UNIT_ASSIGNED_CONTEXT ( ( #1119, #353, #621 ) ) REPRESENTATION_CONTEXT ( 'NONE', 'WORKASPACE' ) );
#491 = ORIENTED_EDGE ( 'NONE', *, *, #819, .F. ) ;
#492 = ADVANCED_FACE ( 'NONE', ( #280 ), #901, .T. ) ;
#493 = ORIENTED_EDGE ( 'NONE', *, *, #694, .T. ) ;
#494 = DIRECTION ( 'NONE',  ( -0.000000000000000000, -1.000000000000000000, -0.000000000000000000 ) ) ;
#495 = EDGE_LOOP ( 'NONE', ( #831, #228, #669, #783 ) ) ;
#496 = ORIENTED_EDGE ( 'NONE', *, *, #543, .T. ) ;
#497 = CARTESIAN_POINT ( 'NONE',  ( -75.00000000000000000, -49.24428900898052319, -10.00000000000000000 ) ) ;
#498 = EDGE_CURVE ( 'NONE', #315, #56, #389, .T. ) ;
#499 = ORIENTED_EDGE ( 'NONE', *, *, #63, .F. ) ;
#500 = FACE_OUTER_BOUND ( 'NONE', #733, .T. ) ;
#501 = VECTOR ( 'NONE', #533, 1000.000000000000000 ) ;
#502 = VERTEX_POINT ( 'NONE', #626 ) ;
#503 = EDGE_CURVE ( 'NONE', #931, #981, #726, .T. ) ;
#504 = AXIS2_PLACEMENT_3D ( 'NONE', #558, #44, #48 ) ;
#505 = LINE ( 'NONE', #1091, #929 ) ;
#506 = ORIENTED_EDGE ( 'NONE', *, *, #817, .T. ) ;
#507 = CARTESIAN_POINT ( 'NONE',  ( 22.36067977499791581, 0.000000000000000000, -19.99999999999997868 ) ) ;
#508 = AXIS2_PLACEMENT_3D ( 'NONE', #378, #888, #712 ) ;
#509 = PERSON_AND_ORGANIZATION ( #517, #548 ) ;
#510 = CARTESIAN_POINT ( 'NONE',  ( -75.00000000000000000, -1.387778780781445676E-14, 10.00000000000000000 ) ) ;
#511 = ORIENTED_EDGE ( 'NONE', *, *, #1052, .T. ) ;
#512 = EDGE_CURVE ( 'NONE', #139, #222, #970, .T. ) ;
#513 = EDGE_LOOP ( 'NONE', ( #585, #1101, #417, #361 ) ) ;
#514 = DIRECTION ( 'NONE',  ( 1.000000000000000000, 0.000000000000000000, 0.000000000000000000 ) ) ;
#515 = LINE ( 'NONE', #373, #1022 ) ;
#516 = VERTEX_POINT ( 'NONE', #479 ) ;
#517 = PERSON ( 'UNSPECIFIED', 'UNSPECIFIED', 'UNSPECIFIED', ('UNSPECIFIED'), ('UNSPECIFIED'), ('UNSPECIFIED') ) ;
#518 = CARTESIAN_POINT ( 'NONE',  ( -4.582575694955839829, 20.00000000000000000, -2.000000000000002220 ) ) ;
#519 = CARTESIAN_POINT ( 'NONE',  ( 22.36067977499791581, 0.000000000000000000, -19.99999999999997868 ) ) ;
#520 = AXIS2_PLACEMENT_3D ( 'NONE', #1026, #161, #358 ) ;
#521 = CARTESIAN_POINT ( 'NONE',  ( 75.00000000000000000, 20.00000000000000000, -10.00000000000000000 ) ) ;
#522 = VECTOR ( 'NONE', #999, 1000.000000000000000 ) ;
#523 = APPROVAL ( #1106, 'UNSPECIFIED' ) ;
#524 = VERTEX_POINT ( 'NONE', #564 ) ;
#525 = LINE ( 'NONE', #1105, #823 ) ;
#526 = ADVANCED_FACE ( 'NONE', ( #897 ), #125, .T. ) ;
#527 = CIRCLE ( 'NONE', #1051, 9.750000000000000000 ) ;
#528 = DIRECTION ( 'NONE',  ( -0.000000000000000000, -1.000000000000000000, -0.000000000000000000 ) ) ;
#529 = SECURITY_CLASSIFICATION ( '', '', #328 ) ;
#530 = VERTEX_POINT ( 'NONE', #394 ) ;
#531 = ADVANCED_FACE ( 'NONE', ( #111 ), #1079, .F. ) ;
#532 = DIRECTION ( 'NONE',  ( -0.000000000000000000, -1.000000000000000000, -0.000000000000000000 ) ) ;
#533 = DIRECTION ( 'NONE',  ( 1.000000000000000000, 0.000000000000000000, -1.639104385880485620E-16 ) ) ;
#534 = FACE_OUTER_BOUND ( 'NONE', #560, .T. ) ;
#535 = LINE ( 'NONE', #890, #186 ) ;
#536 = PERSON_AND_ORGANIZATION_ROLE ( 'creator' ) ;
#537 = VECTOR ( 'NONE', #846, 1000.000000000000000 ) ;
#538 = FACE_BOUND ( 'NONE', #824, .T. ) ;
#539 = AXIS2_PLACEMENT_3D ( 'NONE', #1031, #252, #348 ) ;
#540 = CARTESIAN_POINT ( 'NONE',  ( 7.228416147400480440, 20.00000000000000000, 1.999999999999997780 ) ) ;
#541 = AXIS2_PLACEMENT_3D ( 'NONE', #305, #567, #459 ) ;
#542 = ORIENTED_EDGE ( 'NONE', *, *, #220, .T. ) ;
#543 = EDGE_CURVE ( 'NONE', #597, #412, #716, .T. ) ;
#544 = CARTESIAN_POINT ( 'NONE',  ( -22.36067977499791581, 20.00000000000000000, -19.99999999999997868 ) ) ;
#545 = DIRECTION ( 'NONE',  ( -1.000000000000000000, 0.000000000000000000, 3.295489889614618425E-16 ) ) ;
#546 = DIRECTION ( 'NONE',  ( 3.295489889614618425E-16, 0.000000000000000000, -1.000000000000000000 ) ) ;
#547 = PERSON_AND_ORGANIZATION_ROLE ( 'design_owner' ) ;
#548 = ORGANIZATION ( 'UNSPECIFIED', 'UNSPECIFIED', '' ) ;
#549 = CARTESIAN_POINT ( 'NONE',  ( 65.25000000000000000, 20.00000000000000000, 10.24999999999999822 ) ) ;
#550 = EDGE_CURVE ( 'NONE', #735, #139, #974, .T. ) ;
#551 = CARTESIAN_POINT ( 'NONE',  ( 65.25000000000000000, 0.000000000000000000, 20.00000000000000000 ) ) ;
#552 = PLANE ( 'NONE',  #908 ) ;
#553 = DIRECTION ( 'NONE',  ( 0.000000000000000000, 0.000000000000000000, 1.000000000000000000 ) ) ;
#554 = ORIENTED_EDGE ( 'NONE', *, *, #181, .T. ) ;
#555 = DIRECTION ( 'NONE',  ( -1.000000000000000000, 0.000000000000000000, 0.000000000000000000 ) ) ;
#556 = DIRECTION ( 'NONE',  ( -0.000000000000000000, 1.000000000000000000, -0.000000000000000000 ) ) ;
#557 = CIRCLE ( 'NONE', #59, 9.750000000000000000 ) ;
#558 = CARTESIAN_POINT ( 'NONE',  ( -65.25000000000000000, 20.00000000000000000, 10.25000000000000000 ) ) ;
#559 = AXIS2_PLACEMENT_3D ( 'NONE', #944, #1032, #70 ) ;
#560 = EDGE_LOOP ( 'NONE', ( #316, #1081, #924, #703 ) ) ;
#561 = CIRCLE ( 'NONE', #61, 30.00000000000000000 ) ;
#562 = CC_DESIGN_PERSON_AND_ORGANIZATION_ASSIGNMENT ( #747, #350, ( #939 ) ) ;
#563 = DIRECTION ( 'NONE',  ( 0.000000000000000000, 0.000000000000000000, 1.000000000000000000 ) ) ;
#564 = CARTESIAN_POINT ( 'NONE',  ( 65.25000000000000000, 20.00000000000000000, 20.00000000000000000 ) ) ;
#565 = VECTOR ( 'NONE', #612, 1000.000000000000000 ) ;
#566 = VERTEX_POINT ( 'NONE', #29 ) ;
#567 = DIRECTION ( 'NONE',  ( -0.000000000000000000, 0.000000000000000000, -1.000000000000000000 ) ) ;
#568 = EDGE_LOOP ( 'NONE', ( #594, #185, #127, #150 ) ) ;
#569 = ORIENTED_EDGE ( 'NONE', *, *, #982, .T. ) ;
#570 = ORIENTED_EDGE ( 'NONE', *, *, #146, .F. ) ;
#571 = DIRECTION ( 'NONE',  ( -0.000000000000000000, 1.000000000000000000, -0.000000000000000000 ) ) ;
#572 = APPROVAL_STATUS ( 'not_yet_approved' ) ;
#573 = AXIS2_PLACEMENT_3D ( 'NONE', #20, #265, #184 ) ;
#574 = EDGE_LOOP ( 'NONE', ( #578, #912, #654, #909 ) ) ;
#575 = ORIENTED_EDGE ( 'NONE', *, *, #684, .T. ) ;
#576 = ADVANCED_FACE ( 'NONE', ( #848 ), #66, .T. ) ;
#577 = VECTOR ( 'NONE', #116, 1000.000000000000000 ) ;
#578 = ORIENTED_EDGE ( 'NONE', *, *, #587, .T. ) ;
#579 = DIRECTION ( 'NONE',  ( -0.000000000000000000, -1.000000000000000000, -0.000000000000000000 ) ) ;
#580 = COORDINATED_UNIVERSAL_TIME_OFFSET ( 3, 30, .AHEAD. ) ;
#581 = EDGE_CURVE ( 'NONE', #1096, #598, #505, .T. ) ;
#582 = VERTEX_POINT ( 'NONE', #510 ) ;
#583 = ORIENTED_EDGE ( 'NONE', *, *, #32, .T. ) ;
#584 = DIRECTION ( 'NONE',  ( 1.000000000000000000, 0.000000000000000000, 0.000000000000000000 ) ) ;
#585 = ORIENTED_EDGE ( 'NONE', *, *, #87, .F. ) ;
#586 = ORIENTED_EDGE ( 'NONE', *, *, #6, .T. ) ;
#587 = EDGE_CURVE ( 'NONE', #841, #911, #338, .T. ) ;
#588 = DIRECTION ( 'NONE',  ( 0.000000000000000000, 1.000000000000000000, 0.000000000000000000 ) ) ;
#589 = VERTEX_POINT ( 'NONE', #590 ) ;
#590 = CARTESIAN_POINT ( 'NONE',  ( 65.25000000000000000, 0.000000000000000000, -19.99999999999998579 ) ) ;
#591 = ORIENTED_EDGE ( 'NONE', *, *, #811, .T. ) ;
#592 = EDGE_CURVE ( 'NONE', #315, #1103, #876, .T. ) ;
#593 = VECTOR ( 'NONE', #383, 1000.000000000000000 ) ;
#594 = ORIENTED_EDGE ( 'NONE', *, *, #512, .T. ) ;
#595 = AXIS2_PLACEMENT_3D ( 'NONE', #148, #325, #926 ) ;
#596 = LINE ( 'NONE', #827, #859 ) ;
#597 = VERTEX_POINT ( 'NONE', #400 ) ;
#598 = VERTEX_POINT ( 'NONE', #152 ) ;
#599 = APPROVAL_DATE_TIME ( #813, #990 ) ;
#600 = PRODUCT ( 'Link2LShapeConnectorFront_Default_sldprt', 'Link2LShapeConnectorFront_Default_sldprt', '', ( #177 ) ) ;
#601 = CARTESIAN_POINT ( 'NONE',  ( 0.000000000000000000, 0.000000000000000000, 0.000000000000000000 ) ) ;
#602 = ORIENTED_EDGE ( 'NONE', *, *, #659, .T. ) ;
#603 = CARTESIAN_POINT ( 'NONE',  ( -75.00000000000000000, 20.00000000000000000, -10.24999999999998757 ) ) ;
#604 = CARTESIAN_POINT ( 'NONE',  ( -22.36067977499791581, 0.000000000000000000, -19.99999999999997868 ) ) ;
#605 = CARTESIAN_POINT ( 'NONE',  ( -65.25000000000000000, 20.00000000000000000, 10.25000000000000000 ) ) ;
#606 = PRODUCT_RELATED_PRODUCT_CATEGORY ( 'detail', '', ( #600 ) ) ;
#607 = LINE ( 'NONE', #456, #648 ) ;
#608 = ORIENTED_EDGE ( 'NONE', *, *, #340, .T. ) ;
#609 = DIRECTION ( 'NONE',  ( -0.000000000000000000, 1.000000000000000000, -0.000000000000000000 ) ) ;
#610 = DIRECTION ( 'NONE',  ( 0.000000000000000000, 0.000000000000000000, 1.000000000000000000 ) ) ;
#611 = CARTESIAN_POINT ( 'NONE',  ( -75.00000000000000000, 20.00000000000000000, 10.25000000000000178 ) ) ;
#612 = DIRECTION ( 'NONE',  ( -0.000000000000000000, 1.000000000000000000, -0.000000000000000000 ) ) ;
#613 = CARTESIAN_POINT ( 'NONE',  ( 4.582575694955839829, 0.000000000000000000, 2.000000000000000000 ) ) ;
#614 = VERTEX_POINT ( 'NONE', #142 ) ;
#615 = CARTESIAN_POINT ( 'NONE',  ( -65.25000000000000000, 0.000000000000000000, -10.24999999999998757 ) ) ;
#616 = LINE ( 'NONE', #431, #766 ) ;
#617 = DIRECTION ( 'NONE',  ( -1.000000000000000000, 0.000000000000000000, -1.977293933768771203E-16 ) ) ;
#618 = EDGE_CURVE ( 'NONE', #409, #105, #418, .T. ) ;
#619 = DIRECTION ( 'NONE',  ( 1.000000000000000000, 0.000000000000000000, -9.834626315282913227E-16 ) ) ;
#620 = LINE ( 'NONE', #960, #501 ) ;
#621 =( NAMED_UNIT ( * ) SI_UNIT ( $, .STERADIAN. ) SOLID_ANGLE_UNIT ( ) );
#622 = DIRECTION ( 'NONE',  ( -0.000000000000000000, -1.000000000000000000, -0.000000000000000000 ) ) ;
#623 = VERTEX_POINT ( 'NONE', #157 ) ;
#624 = CARTESIAN_POINT ( 'NONE',  ( -75.00000000000000000, 20.00000000000000000, -19.99999999999998934 ) ) ;
#625 = CC_DESIGN_PERSON_AND_ORGANIZATION_ASSIGNMENT ( #509, #89, ( #529 ) ) ;
#626 = CARTESIAN_POINT ( 'NONE',  ( -4.582575694955841605, 0.000000000000000000, 2.000000000000000444 ) ) ;
#627 = VECTOR ( 'NONE', #454, 1000.000000000000000 ) ;
#628 = EDGE_CURVE ( 'NONE', #306, #934, #757, .T. ) ;
#629 = FACE_OUTER_BOUND ( 'NONE', #724, .T. ) ;
#630 = VECTOR ( 'NONE', #1074, 1000.000000000000000 ) ;
#631 = DIRECTION ( 'NONE',  ( -1.000000000000000000, 0.000000000000000000, -0.000000000000000000 ) ) ;
#632 = CARTESIAN_POINT ( 'NONE',  ( -30.00000000000000000, -49.24428900898052319, -10.00000000000000000 ) ) ;
#633 = VECTOR ( 'NONE', #370, 1000.000000000000000 ) ;
#634 = ORIENTED_EDGE ( 'NONE', *, *, #425, .T. ) ;
#635 = DIRECTION ( 'NONE',  ( -1.000000000000000000, 0.000000000000000000, -1.639104385880485867E-16 ) ) ;
#636 = CARTESIAN_POINT ( 'NONE',  ( 75.00000000000000000, 20.00000000000000000, 20.00000000000000355 ) ) ;
#637 = LINE ( 'NONE', #201, #244 ) ;
#638 = ORIENTED_EDGE ( 'NONE', *, *, #321, .T. ) ;
#639 = DIRECTION ( 'NONE',  ( -0.000000000000000000, 1.000000000000000000, -0.000000000000000000 ) ) ;
#640 = DIRECTION ( 'NONE',  ( 0.000000000000000000, 0.000000000000000000, 1.000000000000000000 ) ) ;
#641 = DIRECTION ( 'NONE',  ( -0.000000000000000000, 1.000000000000000000, -0.000000000000000000 ) ) ;
#642 = CIRCLE ( 'NONE', #539, 9.750000000000000000 ) ;
#643 = ORIENTED_EDGE ( 'NONE', *, *, #288, .F. ) ;
#644 = VECTOR ( 'NONE', #233, 1000.000000000000000 ) ;
#645 = FACE_OUTER_BOUND ( 'NONE', #574, .T. ) ;
#646 = EDGE_CURVE ( 'NONE', #420, #56, #1023, .T. ) ;
#647 = CARTESIAN_POINT ( 'NONE',  ( 30.00000000000000000, 0.000000000000000000, -10.00000000000000000 ) ) ;
#648 = VECTOR ( 'NONE', #375, 1000.000000000000000 ) ;
#649 = ORIENTED_EDGE ( 'NONE', *, *, #294, .F. ) ;
#650 = ORIENTED_EDGE ( 'NONE', *, *, #753, .T. ) ;
#651 = CARTESIAN_POINT ( 'NONE',  ( 4.582575694955840717, -49.24428900898052319, 2.000000000000000444 ) ) ;
#652 = ADVANCED_FACE ( 'NONE', ( #415 ), #837, .T. ) ;
#653 = DIRECTION ( 'NONE',  ( 0.000000000000000000, 0.000000000000000000, 1.000000000000000000 ) ) ;
#654 = ORIENTED_EDGE ( 'NONE', *, *, #199, .T. ) ;
#655 = EDGE_CURVE ( 'NONE', #911, #1085, #408, .T. ) ;
#656 = EDGE_CURVE ( 'NONE', #45, #880, #752, .T. ) ;
#657 = ORIENTED_EDGE ( 'NONE', *, *, #22, .F. ) ;
#658 = CARTESIAN_POINT ( 'NONE',  ( 22.36067977499791581, 20.00000000000000000, -19.99999999999997868 ) ) ;
#659 = EDGE_CURVE ( 'NONE', #315, #849, #596, .T. ) ;
#660 = ORIENTED_EDGE ( 'NONE', *, *, #34, .T. ) ;
#661 = AXIS2_PLACEMENT_3D ( 'NONE', #453, #639, #563 ) ;
#662 = AXIS2_PLACEMENT_3D ( 'NONE', #295, #822, #653 ) ;
#663 = ORIENTED_EDGE ( 'NONE', *, *, #247, .T. ) ;
#664 = DIRECTION ( 'NONE',  ( -8.881784197001252323E-16, 0.000000000000000000, 1.000000000000000000 ) ) ;
#665 = ORIENTED_EDGE ( 'NONE', *, *, #920, .T. ) ;
#666 = DIRECTION ( 'NONE',  ( 0.000000000000000000, 0.000000000000000000, 1.000000000000000000 ) ) ;
#667 = ORIENTED_EDGE ( 'NONE', *, *, #1075, .F. ) ;
#668 = DIRECTION ( 'NONE',  ( -0.000000000000000000, -1.000000000000000000, -0.000000000000000000 ) ) ;
#669 = ORIENTED_EDGE ( 'NONE', *, *, #126, .T. ) ;
#670 = DIRECTION ( 'NONE',  ( -0.000000000000000000, -0.000000000000000000, -1.000000000000000000 ) ) ;
#671 = ADVANCED_FACE ( 'NONE', ( #230 ), #1083, .T. ) ;
#672 = ORIENTED_EDGE ( 'NONE', *, *, #146, .T. ) ;
#673 = COORDINATED_UNIVERSAL_TIME_OFFSET ( 3, 30, .AHEAD. ) ;
#674 = DIRECTION ( 'NONE',  ( -1.000000000000000000, 0.000000000000000000, 0.000000000000000000 ) ) ;
#675 = VERTEX_POINT ( 'NONE', #309 ) ;
#676 = VECTOR ( 'NONE', #287, 1000.000000000000000 ) ;
#677 = CARTESIAN_POINT ( 'NONE',  ( 65.25000000000000000, 20.00000000000000000, 10.24999999999999822 ) ) ;
#678 = VECTOR ( 'NONE', #640, 1000.000000000000000 ) ;
#679 = DIRECTION ( 'NONE',  ( 0.000000000000000000, 0.000000000000000000, 1.000000000000000000 ) ) ;
#680 = ADVANCED_FACE ( 'NONE', ( #313 ), #1097, .T. ) ;
#681 = EDGE_LOOP ( 'NONE', ( #989, #1082, #963, #966 ) ) ;
#682 = AXIS2_PLACEMENT_3D ( 'NONE', #437, #778, #884 ) ;
#683 = DIRECTION ( 'NONE',  ( 1.000000000000000000, -0.000000000000000000, 9.834626315282913227E-16 ) ) ;
#684 = EDGE_CURVE ( 'NONE', #841, #614, #404, .T. ) ;
#685 = LINE ( 'NONE', #429, #1078 ) ;
#686 = FACE_OUTER_BOUND ( 'NONE', #175, .T. ) ;
#687 = EDGE_CURVE ( 'NONE', #118, #259, #742, .T. ) ;
#688 = ORIENTED_EDGE ( 'NONE', *, *, #247, .F. ) ;
#689 = CARTESIAN_POINT ( 'NONE',  ( -22.36067977499790871, 20.00000000000000000, 19.99999999999998579 ) ) ;
#690 = CARTESIAN_POINT ( 'NONE',  ( -75.00000000000000000, 20.00000000000000000, -10.00000000000000000 ) ) ;
#691 = EDGE_CURVE ( 'NONE', #478, #409, #913, .T. ) ;
#692 = LINE ( 'NONE', #263, #1109 ) ;
#693 = DIRECTION ( 'NONE',  ( 0.000000000000000000, 1.000000000000000000, 0.000000000000000000 ) ) ;
#694 = EDGE_CURVE ( 'NONE', #623, #179, #487, .T. ) ;
#695 = LINE ( 'NONE', #446, #99 ) ;
#696 = VECTOR ( 'NONE', #95, 1000.000000000000000 ) ;
#697 = VECTOR ( 'NONE', #129, 1000.000000000000000 ) ;
#698 = AXIS2_PLACEMENT_3D ( 'NONE', #392, #396, #133 ) ;
#699 = CARTESIAN_POINT ( 'NONE',  ( 65.25000000000000000, 0.000000000000000000, 10.24999999999999822 ) ) ;
#700 = CARTESIAN_POINT ( 'NONE',  ( -30.00000000000000000, 0.000000000000000000, 10.00000000000000000 ) ) ;
#701 = PLANE ( 'NONE',  #864 ) ;
#702 = EDGE_CURVE ( 'NONE', #134, #589, #131, .T. ) ;
#703 = ORIENTED_EDGE ( 'NONE', *, *, #413, .T. ) ;
#704 = FACE_OUTER_BOUND ( 'NONE', #923, .T. ) ;
#705 = CIRCLE ( 'NONE', #173, 7.500000000000000000 ) ;
#706 = CARTESIAN_POINT ( 'NONE',  ( -75.00000000000000000, 20.00000000000000000, 20.00000000000000355 ) ) ;
#707 = ORIENTED_EDGE ( 'NONE', *, *, #982, .F. ) ;
#708 = CARTESIAN_POINT ( 'NONE',  ( -65.25000000000000000, 20.00000000000000000, -10.24999999999998757 ) ) ;
#709 = ORIENTED_EDGE ( 'NONE', *, *, #855, .F. ) ;
#710 = CARTESIAN_POINT ( 'NONE',  ( 0.000000000000000000, -49.24428900898052319, 0.000000000000000000 ) ) ;
#711 = LINE ( 'NONE', #466, #317 ) ;
#712 = DIRECTION ( 'NONE',  ( 0.000000000000000000, 0.000000000000000000, 1.000000000000000000 ) ) ;
#713 = EDGE_LOOP ( 'NONE', ( #977, #217, #327, #159 ) ) ;
#714 = DIRECTION ( 'NONE',  ( 0.000000000000000000, -0.000000000000000000, -1.000000000000000000 ) ) ;
#715 = DIRECTION ( 'NONE',  ( 0.000000000000000000, 0.000000000000000000, 1.000000000000000000 ) ) ;
#716 = LINE ( 'NONE', #800, #825 ) ;
#717 = LINE ( 'NONE', #460, #369 ) ;
#718 = AXIS2_PLACEMENT_3D ( 'NONE', #469, #973, #799 ) ;
#719 = VECTOR ( 'NONE', #225, 1000.000000000000000 ) ;
#720 = ORIENTED_EDGE ( 'NONE', *, *, #181, .F. ) ;
#721 = LINE ( 'NONE', #458, #593 ) ;
#722 = CARTESIAN_POINT ( 'NONE',  ( -30.00000000000000000, 0.000000000000000000, -10.00000000000000000 ) ) ;
#723 = AXIS2_PLACEMENT_3D ( 'NONE', #1055, #777, #553 ) ;
#724 = EDGE_LOOP ( 'NONE', ( #707, #339, #473, #320 ) ) ;
#725 = DIRECTION ( 'NONE',  ( 1.000000000000000000, -0.000000000000000000, 3.295489889614618425E-16 ) ) ;
#726 = LINE ( 'NONE', #298, #678 ) ;
#727 = ORIENTED_EDGE ( 'NONE', *, *, #77, .T. ) ;
#728 = EDGE_CURVE ( 'NONE', #1103, #420, #481, .T. ) ;
#729 = DIRECTION ( 'NONE',  ( 1.639104385880485867E-16, 0.000000000000000000, -1.000000000000000000 ) ) ;
#730 = CARTESIAN_POINT ( 'NONE',  ( 75.00000000000000000, 0.000000000000000000, -9.999999999999996447 ) ) ;
#731 = VECTOR ( 'NONE', #683, 1000.000000000000000 ) ;
#732 = CIRCLE ( 'NONE', #451, 9.749999999999998224 ) ;
#733 = EDGE_LOOP ( 'NONE', ( #1009, #310, #209, #918 ) ) ;
#734 = VECTOR ( 'NONE', #299, 1000.000000000000000 ) ;
#735 = VERTEX_POINT ( 'NONE', #477 ) ;
#736 = DIRECTION ( 'NONE',  ( -1.000000000000000000, 0.000000000000000000, 1.639104385880485867E-16 ) ) ;
#737 = EDGE_CURVE ( 'NONE', #566, #1085, #485, .T. ) ;
#738 = ORIENTED_EDGE ( 'NONE', *, *, #126, .F. ) ;
#739 = EDGE_CURVE ( 'NONE', #147, #420, #637, .T. ) ;
#740 = EDGE_LOOP ( 'NONE', ( #282, #554, #290, #356 ) ) ;
#741 = EDGE_LOOP ( 'NONE', ( #41, #727, #638, #1029 ) ) ;
#742 = LINE ( 'NONE', #658, #43 ) ;
#743 = EDGE_LOOP ( 'NONE', ( #406, #1024, #236, #160 ) ) ;
#744 = EDGE_LOOP ( 'NONE', ( #921, #889, #141, #948, #49, #312, #482, #62, #391 ) ) ;
#745 = ORIENTED_EDGE ( 'NONE', *, *, #789, .F. ) ;
#746 = DIRECTION ( 'NONE',  ( -0.000000000000000000, 0.000000000000000000, -1.000000000000000000 ) ) ;
#747 = PERSON_AND_ORGANIZATION ( #517, #548 ) ;
#748 = ORIENTED_EDGE ( 'NONE', *, *, #804, .F. ) ;
#749 = AXIS2_PLACEMENT_3D ( 'NONE', #885, #109, #204 ) ;
#750 = CARTESIAN_POINT ( 'NONE',  ( -7.228416147400479552, 20.00000000000000000, -2.000000000000001332 ) ) ;
#751 = ORIENTED_EDGE ( 'NONE', *, *, #550, .F. ) ;
#752 = LINE ( 'NONE', #1010, #452 ) ;
#753 = EDGE_CURVE ( 'NONE', #998, #486, #1111, .T. ) ;
#754 = VERTEX_POINT ( 'NONE', #894 ) ;
#755 = VERTEX_POINT ( 'NONE', #471 ) ;
#756 = VERTEX_POINT ( 'NONE', #164 ) ;
#757 = LINE ( 'NONE', #843, #719 ) ;
#758 = ORIENTED_EDGE ( 'NONE', *, *, #942, .F. ) ;
#759 = DIRECTION ( 'NONE',  ( 0.000000000000000000, 0.000000000000000000, 1.000000000000000000 ) ) ;
#760 = FACE_OUTER_BOUND ( 'NONE', #713, .T. ) ;
#761 = ORIENTED_EDGE ( 'NONE', *, *, #985, .T. ) ;
#762 = EDGE_CURVE ( 'NONE', #502, #566, #856, .T. ) ;
#763 = VECTOR ( 'NONE', #434, 1000.000000000000000 ) ;
#764 = CC_DESIGN_DATE_AND_TIME_ASSIGNMENT ( #1095, #123, ( #939 ) ) ;
#765 = COORDINATED_UNIVERSAL_TIME_OFFSET ( 3, 30, .AHEAD. ) ;
#766 = VECTOR ( 'NONE', #345, 1000.000000000000000 ) ;
#767 = LINE ( 'NONE', #507, #763 ) ;
#768 = VECTOR ( 'NONE', #1017, 1000.000000000000000 ) ;
#769 = DIRECTION ( 'NONE',  ( -0.000000000000000000, 1.000000000000000000, -0.000000000000000000 ) ) ;
#770 = EDGE_CURVE ( 'NONE', #836, #179, #410, .T. ) ;
#771 = CARTESIAN_POINT ( 'NONE',  ( 30.00000000000000000, 20.00000000000000000, -10.00000000000000000 ) ) ;
#772 = LINE ( 'NONE', #1094, #768 ) ;
#773 = VECTOR ( 'NONE', #872, 1000.000000000000000 ) ;
#774 = ORIENTED_EDGE ( 'NONE', *, *, #972, .T. ) ;
#775 = CARTESIAN_POINT ( 'NONE',  ( 22.36067977499791581, 20.00000000000000000, -19.99999999999997868 ) ) ;
#776 = CARTESIAN_POINT ( 'NONE',  ( -7.228416147400480440, 0.000000000000000000, 1.999999999999997780 ) ) ;
#777 = DIRECTION ( 'NONE',  ( 0.000000000000000000, 1.000000000000000000, 0.000000000000000000 ) ) ;
#778 = DIRECTION ( 'NONE',  ( -0.000000000000000000, 1.000000000000000000, -0.000000000000000000 ) ) ;
#779 = VERTEX_POINT ( 'NONE', #750 ) ;
#780 = EDGE_LOOP ( 'NONE', ( #223, #1093, #55, #991 ) ) ;
#781 = CARTESIAN_POINT ( 'NONE',  ( -22.36067977499791581, 0.000000000000000000, -19.99999999999997868 ) ) ;
#782 = DIRECTION ( 'NONE',  ( 0.000000000000000000, 0.000000000000000000, 1.000000000000000000 ) ) ;
#783 = ORIENTED_EDGE ( 'NONE', *, *, #425, .F. ) ;
#784 = DIRECTION ( 'NONE',  ( 0.000000000000000000, 0.000000000000000000, 1.000000000000000000 ) ) ;
#785 = LINE ( 'NONE', #275, #731 ) ;
#786 = AXIS2_PLACEMENT_3D ( 'NONE', #297, #896, #180 ) ;
#787 = CALENDAR_DATE ( 2026, 31, 7 ) ;
#788 = AXIS2_PLACEMENT_3D ( 'NONE', #1040, #622, #5 ) ;
#789 = EDGE_CURVE ( 'NONE', #409, #412, #772, .T. ) ;
#790 = LINE ( 'NONE', #771, #1005 ) ;
#791 = DIRECTION ( 'NONE',  ( 1.000000000000000000, 0.000000000000000000, 0.000000000000000000 ) ) ;
#792 = FACE_OUTER_BOUND ( 'NONE', #80, .T. ) ;
#793 = LINE ( 'NONE', #279, #839 ) ;
#794 = AXIS2_PLACEMENT_3D ( 'NONE', #91, #782, #3 ) ;
#795 = CARTESIAN_POINT ( 'NONE',  ( -75.00000000000000000, 0.000000000000000000, 10.25000000000000178 ) ) ;
#796 = CARTESIAN_POINT ( 'NONE',  ( 75.00000000000000000, 0.000000000000000000, -19.99999999999998934 ) ) ;
#797 = CARTESIAN_POINT ( 'NONE',  ( -75.00000000000000000, 0.000000000000000000, -19.99999999999998934 ) ) ;
#798 = ORIENTED_EDGE ( 'NONE', *, *, #423, .T. ) ;
#799 = DIRECTION ( 'NONE',  ( 0.000000000000000000, -0.000000000000000000, 1.000000000000000000 ) ) ;
#800 = CARTESIAN_POINT ( 'NONE',  ( 75.00000000000000000, 20.00000000000000000, -10.24999999999998757 ) ) ;
#801 = LINE ( 'NONE', #796, #192 ) ;
#802 = ORIENTED_EDGE ( 'NONE', *, *, #855, .T. ) ;
#803 = CARTESIAN_POINT ( 'NONE',  ( 0.000000000000000000, 0.000000000000000000, 5.000000000000000000 ) ) ;
#804 = EDGE_CURVE ( 'NONE', #589, #597, #285, .T. ) ;
#805 = CARTESIAN_POINT ( 'NONE',  ( 0.000000000000000000, 0.000000000000000000, 0.000000000000000000 ) ) ;
#806 = FACE_OUTER_BOUND ( 'NONE', #71, .T. ) ;
#807 = AXIS2_PLACEMENT_3D ( 'NONE', #810, #729, #635 ) ;
#808 = CARTESIAN_POINT ( 'NONE',  ( 4.582575694955839829, -49.24428900898052319, -2.000000000000002220 ) ) ;
#809 = ORIENTED_EDGE ( 'NONE', *, *, #819, .T. ) ;
#810 = CARTESIAN_POINT ( 'NONE',  ( 7.228416147400479552, -49.24428900898052319, -2.000000000000001776 ) ) ;
#811 = EDGE_CURVE ( 'NONE', #139, #623, #68, .T. ) ;
#812 = CARTESIAN_POINT ( 'NONE',  ( 0.000000000000000000, 20.00000000000000000, 0.000000000000000000 ) ) ;
#813 = DATE_AND_TIME ( #293, #935 ) ;
#814 = VERTEX_POINT ( 'NONE', #332 ) ;
#815 = FACE_OUTER_BOUND ( 'NONE', #743, .T. ) ;
#816 = CARTESIAN_POINT ( 'NONE',  ( -65.25000000000000000, 20.00000000000000000, -19.99999999999998579 ) ) ;
#817 = EDGE_CURVE ( 'NONE', #214, #443, #347, .T. ) ;
#818 = ORIENTED_EDGE ( 'NONE', *, *, #213, .T. ) ;
#819 = EDGE_CURVE ( 'NONE', #598, #251, #561, .T. ) ;
#820 = ORIENTED_EDGE ( 'NONE', *, *, #687, .F. ) ;
#821 = CARTESIAN_POINT ( 'NONE',  ( 7.228416147400480440, 0.000000000000000000, 1.999999999999997780 ) ) ;
#822 = DIRECTION ( 'NONE',  ( 0.000000000000000000, 1.000000000000000000, 0.000000000000000000 ) ) ;
#823 = VECTOR ( 'NONE', #1036, 1000.000000000000000 ) ;
#824 = EDGE_LOOP ( 'NONE', ( #331, #720, #1016, #1070, #1013, #238, #919, #602, #802 ) ) ;
#825 = VECTOR ( 'NONE', #23, 1000.000000000000000 ) ;
#826 = ORIENTED_EDGE ( 'NONE', *, *, #241, .T. ) ;
#827 = CARTESIAN_POINT ( 'NONE',  ( -7.228416147400479552, 0.000000000000000000, -2.000000000000001776 ) ) ;
#828 = CALENDAR_DATE ( 2026, 31, 7 ) ;
#829 = DIRECTION ( 'NONE',  ( -1.000000000000000000, 0.000000000000000000, -1.639104385880485620E-16 ) ) ;
#830 = CIRCLE ( 'NONE', #343, 30.00000000000000000 ) ;
#831 = ORIENTED_EDGE ( 'NONE', *, *, #920, .F. ) ;
#832 = ORIENTED_EDGE ( 'NONE', *, *, #903, .F. ) ;
#833 = CARTESIAN_POINT ( 'NONE',  ( 75.00000000000000000, -49.24428900898052319, -10.00000000000000000 ) ) ;
#834 = ORIENTED_EDGE ( 'NONE', *, *, #498, .F. ) ;
#835 = ADVANCED_FACE ( 'NONE', ( #500 ), #1007, .T. ) ;
#836 = VERTEX_POINT ( 'NONE', #862 ) ;
#837 = CYLINDRICAL_SURFACE ( 'NONE', #78, 30.00000000000000000 ) ;
#838 = ORIENTED_EDGE ( 'NONE', *, *, #384, .F. ) ;
#839 = VECTOR ( 'NONE', #545, 1000.000000000000000 ) ;
#840 = CIRCLE ( 'NONE', #304, 7.500000000000000000 ) ;
#841 = VERTEX_POINT ( 'NONE', #613 ) ;
#842 = PERSON_AND_ORGANIZATION ( #517, #548 ) ;
#843 = CARTESIAN_POINT ( 'NONE',  ( -7.228416147400480440, -49.24428900898052319, 1.999999999999997780 ) ) ;
#844 = ADVANCED_FACE ( 'NONE', ( #1048 ), #178, .T. ) ;
#845 = ORIENTED_EDGE ( 'NONE', *, *, #82, .F. ) ;
#846 = DIRECTION ( 'NONE',  ( 0.000000000000000000, -1.000000000000000000, 0.000000000000000000 ) ) ;
#847 = DATE_TIME_ROLE ( 'classification_date' ) ;
#848 = FACE_OUTER_BOUND ( 'NONE', #92, .T. ) ;
#849 = VERTEX_POINT ( 'NONE', #277 ) ;
#850 = DIRECTION ( 'NONE',  ( -1.000000000000000000, 0.000000000000000000, 9.834626315282913227E-16 ) ) ;
#851 = DATE_AND_TIME ( #334, #193 ) ;
#852 = ADVANCED_FACE ( 'NONE', ( #534 ), #106, .T. ) ;
#853 = LINE ( 'NONE', #690, #303 ) ;
#854 = DIRECTION ( 'NONE',  ( 0.000000000000000000, 0.000000000000000000, 1.000000000000000000 ) ) ;
#855 = EDGE_CURVE ( 'NONE', #849, #306, #840, .T. ) ;
#856 = LINE ( 'NONE', #155, #382 ) ;
#857 = AXIS2_PLACEMENT_3D ( 'NONE', #775, #938, #1117 ) ;
#858 = CARTESIAN_POINT ( 'NONE',  ( 75.00000000000000000, -49.24428900898052319, 10.00000000000000000 ) ) ;
#859 = VECTOR ( 'NONE', #736, 1000.000000000000000 ) ;
#860 = CARTESIAN_POINT ( 'NONE',  ( 30.00000000000000000, 0.000000000000000000, -10.00000000000000000 ) ) ;
#861 = DIRECTION ( 'NONE',  ( -0.000000000000000000, -1.000000000000000000, -0.000000000000000000 ) ) ;
#862 = CARTESIAN_POINT ( 'NONE',  ( 75.00000000000000000, 20.00000000000000000, 10.24999999999999822 ) ) ;
#863 = ORIENTED_EDGE ( 'NONE', *, *, #1110, .F. ) ;
#864 = AXIS2_PLACEMENT_3D ( 'NONE', #1060, #13, #617 ) ;
#865 = ORIENTED_EDGE ( 'NONE', *, *, #628, .T. ) ;
#866 = PERSON_AND_ORGANIZATION ( #517, #548 ) ;
#867 = LINE ( 'NONE', #706, #169 ) ;
#868 = ORIENTED_EDGE ( 'NONE', *, *, #269, .T. ) ;
#869 = CARTESIAN_POINT ( 'NONE',  ( 22.36067977499791581, 20.00000000000000000, -19.99999999999997868 ) ) ;
#870 = EDGE_CURVE ( 'NONE', #284, #489, #1020, .T. ) ;
#871 = DIRECTION ( 'NONE',  ( -0.000000000000000000, 1.000000000000000000, -0.000000000000000000 ) ) ;
#872 = DIRECTION ( 'NONE',  ( 1.000000000000000000, -0.000000000000000000, -9.834626315282911255E-16 ) ) ;
#873 = VECTOR ( 'NONE', #69, 1000.000000000000000 ) ;
#874 = CARTESIAN_POINT ( 'NONE',  ( -30.00000000000000000, 0.000000000000000000, 10.00000000000000000 ) ) ;
#875 = AXIS2_PLACEMENT_3D ( 'NONE', #605, #1054, #17 ) ;
#876 = CIRCLE ( 'NONE', #398, 5.000000000000000000 ) ;
#877 = LINE ( 'NONE', #103, #1092 ) ;
#878 = DIRECTION ( 'NONE',  ( 0.000000000000000000, 1.000000000000000000, 0.000000000000000000 ) ) ;
#879 = DIRECTION ( 'NONE',  ( 9.834626315282913227E-16, 0.000000000000000000, -1.000000000000000000 ) ) ;
#880 = VERTEX_POINT ( 'NONE', #93 ) ;
#881 = DIRECTION ( 'NONE',  ( -0.000000000000000000, 1.000000000000000000, -0.000000000000000000 ) ) ;
#882 = AXIS2_PLACEMENT_3D ( 'NONE', #1122, #996, #916 ) ;
#883 = DIRECTION ( 'NONE',  ( 0.000000000000000000, -1.000000000000000000, 0.000000000000000000 ) ) ;
#884 = DIRECTION ( 'NONE',  ( 0.000000000000000000, 0.000000000000000000, 1.000000000000000000 ) ) ;
#885 = CARTESIAN_POINT ( 'NONE',  ( 0.000000000000000000, -49.24428900898052319, 0.000000000000000000 ) ) ;
#886 = ADVANCED_FACE ( 'NONE', ( #354 ), #191, .T. ) ;
#887 = CARTESIAN_POINT ( 'NONE',  ( 30.00000000000000000, 0.000000000000000000, 10.00000000000000000 ) ) ;
#888 = DIRECTION ( 'NONE',  ( -0.000000000000000000, -1.000000000000000000, -0.000000000000000000 ) ) ;
#889 = ORIENTED_EDGE ( 'NONE', *, *, #384, .T. ) ;
#890 = CARTESIAN_POINT ( 'NONE',  ( 75.00000000000000000, 20.00000000000000000, 20.00000000000000355 ) ) ;
#891 = VECTOR ( 'NONE', #194, 1000.000000000000000 ) ;
#892 = FACE_OUTER_BOUND ( 'NONE', #122, .T. ) ;
#893 = AXIS2_PLACEMENT_3D ( 'NONE', #1033, #255, #436 ) ;
#894 = CARTESIAN_POINT ( 'NONE',  ( -30.00000000000000000, 0.000000000000000000, -10.00000000000000000 ) ) ;
#895 = ORIENTED_EDGE ( 'NONE', *, *, #1003, .F. ) ;
#896 = DIRECTION ( 'NONE',  ( 0.000000000000000000, 1.000000000000000000, 0.000000000000000000 ) ) ;
#897 = FACE_OUTER_BOUND ( 'NONE', #941, .T. ) ;
#898 = CC_DESIGN_APPROVAL ( #359, ( #419 ) ) ;
#899 = ADVANCED_FACE ( 'NONE', ( #792 ), #1121, .F. ) ;
#900 = ORIENTED_EDGE ( 'NONE', *, *, #702, .T. ) ;
#901 = CYLINDRICAL_SURFACE ( 'NONE', #986, 30.00000000000000000 ) ;
#902 = CARTESIAN_POINT ( 'NONE',  ( 30.00000000000000000, 20.00000000000000000, 10.00000000000000000 ) ) ;
#903 = EDGE_CURVE ( 'NONE', #981, #675, #607, .T. ) ;
#904 = ORIENTED_EDGE ( 'NONE', *, *, #503, .F. ) ;
#905 = ORIENTED_EDGE ( 'NONE', *, *, #269, .F. ) ;
#906 = EDGE_LOOP ( 'NONE', ( #657, #900, #483, #820 ) ) ;
#907 = DIRECTION ( 'NONE',  ( -1.000000000000000000, 0.000000000000000000, 0.000000000000000000 ) ) ;
#908 = AXIS2_PLACEMENT_3D ( 'NONE', #636, #546, #476 ) ;
#909 = ORIENTED_EDGE ( 'NONE', *, *, #684, .F. ) ;
#910 = AXIS2_PLACEMENT_3D ( 'NONE', #1104, #237, #930 ) ;
#911 = VERTEX_POINT ( 'NONE', #803 ) ;
#912 = ORIENTED_EDGE ( 'NONE', *, *, #655, .T. ) ;
#913 = LINE ( 'NONE', #833, #630 ) ;
#914 = EDGE_CURVE ( 'NONE', #614, #1018, #955, .T. ) ;
#915 = CIRCLE ( 'NONE', #882, 7.500000000000000000 ) ;
#916 = DIRECTION ( 'NONE',  ( 0.000000000000000000, 0.000000000000000000, 1.000000000000000000 ) ) ;
#917 = LOCAL_TIME ( 13, 48, 59.00000000000000000, #447 ) ;
#918 = ORIENTED_EDGE ( 'NONE', *, *, #413, .F. ) ;
#919 = ORIENTED_EDGE ( 'NONE', *, *, #592, .F. ) ;
#920 = EDGE_CURVE ( 'NONE', #326, #582, #946, .T. ) ;
#921 = ORIENTED_EDGE ( 'NONE', *, *, #737, .F. ) ;
#922 = CARTESIAN_POINT ( 'NONE',  ( 0.000000000000000000, 20.00000000000000000, 0.000000000000000000 ) ) ;
#923 = EDGE_LOOP ( 'NONE', ( #660, #575, #1059, #570 ) ) ;
#924 = ORIENTED_EDGE ( 'NONE', *, *, #319, .F. ) ;
#925 = CALENDAR_DATE ( 2026, 31, 7 ) ;
#926 = DIRECTION ( 'NONE',  ( -0.000000000000000000, 0.000000000000000000, 1.000000000000000000 ) ) ;
#927 = ORIENTED_EDGE ( 'NONE', *, *, #804, .T. ) ;
#928 = VECTOR ( 'NONE', #167, 1000.000000000000000 ) ;
#929 = VECTOR ( 'NONE', #494, 1000.000000000000000 ) ;
#930 = DIRECTION ( 'NONE',  ( 0.000000000000000000, 0.000000000000000000, 1.000000000000000000 ) ) ;
#931 = VERTEX_POINT ( 'NONE', #444 ) ;
#932 = CARTESIAN_POINT ( 'NONE',  ( 0.000000000000000000, 0.000000000000000000, 0.000000000000000000 ) ) ;
#933 = EDGE_CURVE ( 'NONE', #1018, #147, #705, .T. ) ;
#934 = VERTEX_POINT ( 'NONE', #174 ) ;
#935 = LOCAL_TIME ( 13, 48, 59.00000000000000000, #580 ) ;
#936 = ADVANCED_FACE ( 'NONE', ( #363 ), #701, .T. ) ;
#937 = LINE ( 'NONE', #1123, #873 ) ;
#938 = DIRECTION ( 'NONE',  ( 1.977293933768771203E-16, -0.000000000000000000, 1.000000000000000000 ) ) ;
#939 = PRODUCT_DEFINITION ( 'UNKNOWN', '', #419, #950 ) ;
#940 = CARTESIAN_POINT ( 'NONE',  ( 22.36067977499790871, 20.00000000000000000, 19.99999999999998579 ) ) ;
#941 = EDGE_LOOP ( 'NONE', ( #845, #1006, #748, #163 ) ) ;
#942 = EDGE_CURVE ( 'NONE', #814, #170, #113, .T. ) ;
#943 = LINE ( 'NONE', #1116, #537 ) ;
#944 = CARTESIAN_POINT ( 'NONE',  ( 0.000000000000000000, 20.00000000000000000, 0.000000000000000000 ) ) ;
#945 = CARTESIAN_POINT ( 'NONE',  ( -4.582575694955839829, 0.000000000000000000, -2.000000000000002220 ) ) ;
#946 = LINE ( 'NONE', #797, #307 ) ;
#947 = DIRECTION ( 'NONE',  ( 0.000000000000000000, 0.000000000000000000, 1.000000000000000000 ) ) ;
#948 = ORIENTED_EDGE ( 'NONE', *, *, #344, .T. ) ;
#949 = CARTESIAN_POINT ( 'NONE',  ( -65.25000000000000000, 20.00000000000000000, -19.99999999999998579 ) ) ;
#950 = DESIGN_CONTEXT ( 'detailed design', #1049, 'design' ) ;
#951 = DIRECTION ( 'NONE',  ( -1.000000000000000000, 0.000000000000000000, 0.000000000000000000 ) ) ;
#952 = ADVANCED_FACE ( 'NONE', ( #629 ), #25, .T. ) ;
#953 = CYLINDRICAL_SURFACE ( 'NONE', #875, 9.750000000000000000 ) ;
#954 = CARTESIAN_POINT ( 'NONE',  ( 0.000000000000000000, 0.000000000000000000, 0.000000000000000000 ) ) ;
#955 = LINE ( 'NONE', #540, #773 ) ;
#956 = CC_DESIGN_PERSON_AND_ORGANIZATION_ASSIGNMENT ( #449, #547, ( #600 ) ) ;
#957 = ORIENTED_EDGE ( 'NONE', *, *, #58, .F. ) ;
#958 = AXIS2_PLACEMENT_3D ( 'NONE', #257, #85, #947 ) ;
#959 = CARTESIAN_POINT ( 'NONE',  ( -75.00000000000000000, 0.000000000000000000, -9.999999999999996447 ) ) ;
#960 = CARTESIAN_POINT ( 'NONE',  ( -7.228416147400479552, 20.00000000000000000, -2.000000000000001776 ) ) ;
#961 = LINE ( 'NONE', #196, #565 ) ;
#962 = ORIENTED_EDGE ( 'NONE', *, *, #503, .T. ) ;
#963 = ORIENTED_EDGE ( 'NONE', *, *, #206, .F. ) ;
#964 = LINE ( 'NONE', #1114, #484 ) ;
#965 = DIRECTION ( 'NONE',  ( 0.000000000000000000, 0.000000000000000000, 1.000000000000000000 ) ) ;
#966 = ORIENTED_EDGE ( 'NONE', *, *, #380, .T. ) ;
#967 = DIRECTION ( 'NONE',  ( -0.000000000000000000, -1.000000000000000000, -0.000000000000000000 ) ) ;
#968 = AXIS2_PLACEMENT_3D ( 'NONE', #1045, #951, #759 ) ;
#969 = AXIS2_PLACEMENT_3D ( 'NONE', #932, #668, #664 ) ;
#970 = LINE ( 'NONE', #647, #988 ) ;
#971 = ORIENTED_EDGE ( 'NONE', *, *, #691, .T. ) ;
#972 = EDGE_CURVE ( 'NONE', #443, #314, #457, .T. ) ;
#973 = DIRECTION ( 'NONE',  ( 0.000000000000000000, 1.000000000000000000, 0.000000000000000000 ) ) ;
#974 = LINE ( 'NONE', #887, #577 ) ;
#975 = DIRECTION ( 'NONE',  ( 0.000000000000000000, 0.000000000000000000, 1.000000000000000000 ) ) ;
#976 = ADVANCED_FACE ( 'NONE', ( #366 ), #346, .F. ) ;
#977 = ORIENTED_EDGE ( 'NONE', *, *, #498, .T. ) ;
#978 = EDGE_CURVE ( 'NONE', #934, #779, #915, .T. ) ;
#979 = CARTESIAN_POINT ( 'NONE',  ( 7.228416147400480440, -49.24428900898052319, 1.999999999999997780 ) ) ;
#980 = CARTESIAN_POINT ( 'NONE',  ( -75.00000000000000000, -49.24428900898052319, 10.00000000000000000 ) ) ;
#981 = VERTEX_POINT ( 'NONE', #143 ) ;
#982 = EDGE_CURVE ( 'NONE', #443, #756, #527, .T. ) ;
#983 = CARTESIAN_POINT ( 'NONE',  ( 7.228416147400479552, 20.00000000000000000, -2.000000000000001332 ) ) ;
#984 = VECTOR ( 'NONE', #333, 1000.000000000000000 ) ;
#985 = EDGE_CURVE ( 'NONE', #478, #597, #801, .T. ) ;
#986 = AXIS2_PLACEMENT_3D ( 'NONE', #812, #33, #212 ) ;
#987 = PLANE ( 'NONE',  #76 ) ;
#988 = VECTOR ( 'NONE', #208, 1000.000000000000000 ) ;
#989 = ORIENTED_EDGE ( 'NONE', *, *, #942, .T. ) ;
#990 = APPROVAL ( #572, 'UNSPECIFIED' ) ;
#991 = ORIENTED_EDGE ( 'NONE', *, *, #351, .T. ) ;
#992 = DIRECTION ( 'NONE',  ( -0.000000000000000000, 1.000000000000000000, -0.000000000000000000 ) ) ;
#993 = CIRCLE ( 'NONE', #508, 9.750000000000000000 ) ;
#994 = APPLICATION_PROTOCOL_DEFINITION ( 'international standard', 'config_control_design', 1994, #1049 ) ;
#995 = CC_DESIGN_APPROVAL ( #523, ( #529 ) ) ;
#996 = DIRECTION ( 'NONE',  ( -0.000000000000000000, -1.000000000000000000, -0.000000000000000000 ) ) ;
#997 = EDGE_LOOP ( 'NONE', ( #586, #583, #221, #67 ) ) ;
#998 = VERTEX_POINT ( 'NONE', #24 ) ;
#999 = DIRECTION ( 'NONE',  ( -0.000000000000000000, 1.000000000000000000, -0.000000000000000000 ) ) ;
#1000 = ORIENTED_EDGE ( 'NONE', *, *, #115, .F. ) ;
#1001 = ORIENTED_EDGE ( 'NONE', *, *, #288, .T. ) ;
#1002 = DIRECTION ( 'NONE',  ( -0.000000000000000000, 0.000000000000000000, 1.000000000000000000 ) ) ;
#1003 = EDGE_CURVE ( 'NONE', #222, #105, #961, .T. ) ;
#1004 = APPROVAL_ROLE ( '' ) ;
#1005 = VECTOR ( 'NONE', #854, 1000.000000000000000 ) ;
#1006 = ORIENTED_EDGE ( 'NONE', *, *, #543, .F. ) ;
#1007 = PLANE ( 'NONE',  #698 ) ;
#1008 = VECTOR ( 'NONE', #641, 1000.000000000000000 ) ;
#1009 = ORIENTED_EDGE ( 'NONE', *, *, #405, .T. ) ;
#1010 = CARTESIAN_POINT ( 'NONE',  ( -75.00000000000000000, 0.000000000000000000, -19.99999999999998934 ) ) ;
#1011 = DATE_AND_TIME ( #828, #1030 ) ;
#1012 = EDGE_CURVE ( 'NONE', #530, #814, #830, .T. ) ;
#1013 = ORIENTED_EDGE ( 'NONE', *, *, #870, .F. ) ;
#1014 = ORIENTED_EDGE ( 'NONE', *, *, #405, .F. ) ;
#1015 = COORDINATED_UNIVERSAL_TIME_OFFSET ( 3, 30, .AHEAD. ) ;
#1016 = ORIENTED_EDGE ( 'NONE', *, *, #587, .F. ) ;
#1017 = DIRECTION ( 'NONE',  ( -0.000000000000000000, -0.000000000000000000, -1.000000000000000000 ) ) ;
#1018 = VERTEX_POINT ( 'NONE', #11 ) ;
#1019 = DIRECTION ( 'NONE',  ( 0.000000000000000000, 0.000000000000000000, -1.000000000000000000 ) ) ;
#1020 = CIRCLE ( 'NONE', #573, 7.500000000000000000 ) ;
#1021 = ORIENTED_EDGE ( 'NONE', *, *, #82, .T. ) ;
#1022 = VECTOR ( 'NONE', #448, 1000.000000000000000 ) ;
#1023 = CIRCLE ( 'NONE', #1080, 5.000000000000000000 ) ;
#1024 = ORIENTED_EDGE ( 'NONE', *, *, #115, .T. ) ;
#1025 = APPROVAL_ROLE ( '' ) ;
#1026 = CARTESIAN_POINT ( 'NONE',  ( -7.228416147400479552, -49.24428900898052319, -2.000000000000001776 ) ) ;
#1027 = LINE ( 'NONE', #781, #224 ) ;
#1028 = CARTESIAN_POINT ( 'NONE',  ( -65.25000000000000000, 20.00000000000000000, -10.24999999999998757 ) ) ;
#1029 = ORIENTED_EDGE ( 'NONE', *, *, #63, .T. ) ;
#1030 = LOCAL_TIME ( 13, 48, 59.00000000000000000, #765 ) ;
#1031 = CARTESIAN_POINT ( 'NONE',  ( 65.25000000000000000, 20.00000000000000000, -10.24999999999998757 ) ) ;
#1032 = DIRECTION ( 'NONE',  ( 0.000000000000000000, 1.000000000000000000, 0.000000000000000000 ) ) ;
#1033 = CARTESIAN_POINT ( 'NONE',  ( 0.000000000000000000, 0.000000000000000000, 0.000000000000000000 ) ) ;
#1034 = ORIENTED_EDGE ( 'NONE', *, *, #770, .T. ) ;
#1035 = CARTESIAN_POINT ( 'NONE',  ( 75.00000000000000000, 20.00000000000000000, -19.99999999999998934 ) ) ;
#1036 = DIRECTION ( 'NONE',  ( 0.000000000000000000, -1.000000000000000000, 0.000000000000000000 ) ) ;
#1037 = DIRECTION ( 'NONE',  ( -0.000000000000000000, 1.000000000000000000, -0.000000000000000000 ) ) ;
#1038 = LINE ( 'NONE', #611, #928 ) ;
#1039 = ORIENTED_EDGE ( 'NONE', *, *, #656, .T. ) ;
#1040 = CARTESIAN_POINT ( 'NONE',  ( 0.000000000000000000, 20.00000000000000000, 0.000000000000000000 ) ) ;
#1041 = VECTOR ( 'NONE', #260, 1000.000000000000000 ) ;
#1042 = EDGE_LOOP ( 'NONE', ( #905, #506, #774, #202 ) ) ;
#1043 = VECTOR ( 'NONE', #335, 1000.000000000000000 ) ;
#1044 = VECTOR ( 'NONE', #609, 1000.000000000000000 ) ;
#1045 = CARTESIAN_POINT ( 'NONE',  ( 30.00000000000000000, -49.24428900898052319, -10.00000000000000000 ) ) ;
#1046 = CARTESIAN_POINT ( 'NONE',  ( -22.36067977499791581, 20.00000000000000000, -19.99999999999997868 ) ) ;
#1047 = CARTESIAN_POINT ( 'NONE',  ( 0.000000000000000000, 20.00000000000000000, -30.00000000000000000 ) ) ;
#1048 = FACE_OUTER_BOUND ( 'NONE', #1108, .T. ) ;
#1049 = APPLICATION_CONTEXT ( 'configuration controlled 3d designs of mechanical parts and assemblies' ) ;
#1050 = ORIENTED_EDGE ( 'NONE', *, *, #512, .F. ) ;
#1051 = AXIS2_PLACEMENT_3D ( 'NONE', #1028, #878, #975 ) ;
#1052 = EDGE_CURVE ( 'NONE', #118, #1096, #1068, .T. ) ;
#1053 = DIRECTION ( 'NONE',  ( 9.834626315282913227E-16, 0.000000000000000000, 1.000000000000000000 ) ) ;
#1054 = DIRECTION ( 'NONE',  ( 0.000000000000000000, -1.000000000000000000, 0.000000000000000000 ) ) ;
#1055 = CARTESIAN_POINT ( 'NONE',  ( 0.000000000000000000, 20.00000000000000000, 0.000000000000000000 ) ) ;
#1056 = ORIENTED_EDGE ( 'NONE', *, *, #753, .F. ) ;
#1057 = DIRECTION ( 'NONE',  ( 0.000000000000000000, 0.000000000000000000, 1.000000000000000000 ) ) ;
#1058 = DIRECTION ( 'NONE',  ( -0.000000000000000000, 0.000000000000000000, 1.000000000000000000 ) ) ;
#1059 = ORIENTED_EDGE ( 'NONE', *, *, #914, .T. ) ;
#1060 = CARTESIAN_POINT ( 'NONE',  ( -22.36067977499791581, 20.00000000000000000, -19.99999999999997868 ) ) ;
#1061 = EDGE_CURVE ( 'NONE', #314, #251, #112, .T. ) ;
#1062 = PLANE ( 'NONE',  #807 ) ;
#1063 = AXIS2_PLACEMENT_3D ( 'NONE', #632, #292, #195 ) ;
#1064 = CARTESIAN_POINT ( 'NONE',  ( -4.582575694955839829, -49.24428900898052319, -2.000000000000002220 ) ) ;
#1065 = DIRECTION ( 'NONE',  ( -0.000000000000000000, -0.000000000000000000, -1.000000000000000000 ) ) ;
#1066 = ORIENTED_EDGE ( 'NONE', *, *, #903, .T. ) ;
#1067 = CARTESIAN_POINT ( 'NONE',  ( -75.00000000000000000, 20.00000000000000000, -10.00000000000000000 ) ) ;
#1068 = CIRCLE ( 'NONE', #723, 30.00000000000000000 ) ;
#1069 = LINE ( 'NONE', #980, #60 ) ;
#1070 = ORIENTED_EDGE ( 'NONE', *, *, #34, .F. ) ;
#1071 = CYLINDRICAL_SURFACE ( 'NONE', #661, 5.000000000000000000 ) ;
#1072 = CARTESIAN_POINT ( 'NONE',  ( -65.25000000000000000, 20.00000000000000000, 20.00000000000000000 ) ) ;
#1073 = CC_DESIGN_PERSON_AND_ORGANIZATION_ASSIGNMENT ( #866, #536, ( #419 ) ) ;
#1074 = DIRECTION ( 'NONE',  ( -0.000000000000000000, 1.000000000000000000, -0.000000000000000000 ) ) ;
#1075 = EDGE_CURVE ( 'NONE', #582, #207, #442, .T. ) ;
#1076 = ORIENTED_EDGE ( 'NONE', *, *, #592, .T. ) ;
#1077 = DIRECTION ( 'NONE',  ( -0.000000000000000000, 0.000000000000000000, 1.000000000000000000 ) ) ;
#1078 = VECTOR ( 'NONE', #1037, 1000.000000000000000 ) ;
#1079 = PLANE ( 'NONE',  #541 ) ;
#1080 = AXIS2_PLACEMENT_3D ( 'NONE', #218, #1102, #330 ) ;
#1081 = ORIENTED_EDGE ( 'NONE', *, *, #380, .F. ) ;
#1082 = ORIENTED_EDGE ( 'NONE', *, *, #462, .T. ) ;
#1083 = PLANE ( 'NONE',  #28 ) ;
#1084 = DIRECTION ( 'NONE',  ( 1.000000000000000000, 0.000000000000000000, 1.977293933768771203E-16 ) ) ;
#1085 = VERTEX_POINT ( 'NONE', #183 ) ;
#1086 = EDGE_LOOP ( 'NONE', ( #1076, #264, #381, #834 ) ) ;
#1087 = DIRECTION ( 'NONE',  ( 0.000000000000000000, -0.000000000000000000, -1.000000000000000000 ) ) ;
#1088 = ORIENTED_EDGE ( 'NONE', *, *, #294, .T. ) ;
#1089 = APPROVAL_ROLE ( '' ) ;
#1090 = ORIENTED_EDGE ( 'NONE', *, *, #933, .T. ) ;
#1091 = CARTESIAN_POINT ( 'NONE',  ( 0.000000000000000000, 20.00000000000000000, -30.00000000000000000 ) ) ;
#1092 = VECTOR ( 'NONE', #871, 1000.000000000000000 ) ;
#1093 = ORIENTED_EDGE ( 'NONE', *, *, #1052, .F. ) ;
#1094 = CARTESIAN_POINT ( 'NONE',  ( 75.00000000000000000, 20.00000000000000000, -19.99999999999998934 ) ) ;
#1095 = DATE_AND_TIME ( #787, #917 ) ;
#1096 = VERTEX_POINT ( 'NONE', #1047 ) ;
#1097 = PLANE ( 'NONE',  #595 ) ;
#1098 = ORIENTED_EDGE ( 'NONE', *, *, #1110, .T. ) ;
#1099 = ORIENTED_EDGE ( 'NONE', *, *, #336, .F. ) ;
#1100 = PERSON_AND_ORGANIZATION_ROLE ( 'design_supplier' ) ;
#1101 = ORIENTED_EDGE ( 'NONE', *, *, #462, .F. ) ;
#1102 = DIRECTION ( 'NONE',  ( 0.000000000000000000, 1.000000000000000000, 0.000000000000000000 ) ) ;
#1103 = VERTEX_POINT ( 'NONE', #272 ) ;
#1104 = CARTESIAN_POINT ( 'NONE',  ( 65.25000000000000000, 0.000000000000000000, -10.24999999999998757 ) ) ;
#1105 = CARTESIAN_POINT ( 'NONE',  ( 75.00000000000000000, 20.00000000000000000, 10.24999999999999822 ) ) ;
#1106 = APPROVAL_STATUS ( 'not_yet_approved' ) ;
#1107 = PLANE ( 'NONE',  #520 ) ;
#1108 = EDGE_LOOP ( 'NONE', ( #865, #838, #308, #51 ) ) ;
#1109 = VECTOR ( 'NONE', #528, 1000.000000000000000 ) ;
#1110 = EDGE_CURVE ( 'NONE', #754, #45, #717, .T. ) ;
#1111 = CIRCLE ( 'NONE', #504, 9.750000000000000000 ) ;
#1112 = DIRECTION ( 'NONE',  ( 0.000000000000000000, 0.000000000000000000, 1.000000000000000000 ) ) ;
#1113 = CARTESIAN_POINT ( 'NONE',  ( -75.00000000000000000, -49.24428900898052319, -10.00000000000000000 ) ) ;
#1114 = CARTESIAN_POINT ( 'NONE',  ( -7.228416147400480440, 20.00000000000000000, 1.999999999999997780 ) ) ;
#1115 = DIRECTION ( 'NONE',  ( 0.000000000000000000, 0.000000000000000000, -1.000000000000000000 ) ) ;
#1116 = CARTESIAN_POINT ( 'NONE',  ( -65.25000000000000000, 20.00000000000000000, 20.00000000000000000 ) ) ;
#1117 = DIRECTION ( 'NONE',  ( 1.000000000000000000, 0.000000000000000000, -1.977293933768771203E-16 ) ) ;
#1118 = LINE ( 'NONE', #352, #627 ) ;
#1119 =( LENGTH_UNIT ( ) NAMED_UNIT ( * ) SI_UNIT ( .MILLI., .METRE. ) );
#1120 = EDGE_CURVE ( 'NONE', #755, #326, #993, .T. ) ;
#1121 = CYLINDRICAL_SURFACE ( 'NONE', #682, 7.500000000000000000 ) ;
#1122 = CARTESIAN_POINT ( 'NONE',  ( 0.000000000000000000, 20.00000000000000000, 0.000000000000000000 ) ) ;
#1123 = CARTESIAN_POINT ( 'NONE',  ( -75.00000000000000000, 20.00000000000000000, -19.99999999999998934 ) ) ;
ENDSEC;
END-ISO-10303-21;
