ISO-10303-21;
HEADER;
FILE_DESCRIPTION (( 'STEP AP203' ),
    '1' );
FILE_NAME ('Link1Shaft_Default_sldprt.STEP',
    '2026-07-31T10:18:53',
    ( '' ),
    ( '' ),
    'SwSTEP 2.0',
    'SolidWorks 2025',
    '' );
FILE_SCHEMA (( 'CONFIG_CONTROL_DESIGN' ));
ENDSEC;

DATA;
#1 = AXIS2_PLACEMENT_3D ( 'NONE', #75, #4, #126 ) ;
#2 = PLANE ( 'NONE',  #79 ) ;
#3 = EDGE_LOOP ( 'NONE', ( #80, #13 ) ) ;
#4 = DIRECTION ( 'NONE',  ( -0.000000000000000000, -0.000000000000000000, -1.000000000000000000 ) ) ;
#5 = APPROVAL_ROLE ( '' ) ;
#6 = CALENDAR_DATE ( 2026, 31, 7 ) ;
#7 = APPROVAL_ROLE ( '' ) ;
#8 = DIRECTION ( 'NONE',  ( -0.000000000000000000, -0.000000000000000000, -1.000000000000000000 ) ) ;
#9 = PERSON_AND_ORGANIZATION_ROLE ( 'design_owner' ) ;
#10 = DATE_AND_TIME ( #6, #162 ) ;
#11 = PERSON_AND_ORGANIZATION_ROLE ( 'creator' ) ;
#12 = CIRCLE ( 'NONE', #46, 4.999999999999999112 ) ;
#13 = ORIENTED_EDGE ( 'NONE', *, *, #147, .T. ) ;
#14 = ORIENTED_EDGE ( 'NONE', *, *, #147, .F. ) ;
#15 = CC_DESIGN_SECURITY_CLASSIFICATION ( #108, ( #66 ) ) ;
#16 = EDGE_LOOP ( 'NONE', ( #109, #81 ) ) ;
#17 = CC_DESIGN_APPROVAL ( #133, ( #108 ) ) ;
#18 = DIRECTION ( 'NONE',  ( 1.000000000000000000, 0.000000000000000000, 0.000000000000000000 ) ) ;
#19 = DIRECTION ( 'NONE',  ( 0.000000000000000000, 0.000000000000000000, 1.000000000000000000 ) ) ;
#20 = LINE ( 'NONE', #35, #119 ) ;
#21 = ADVANCED_FACE ( 'NONE', ( #69 ), #2, .F. ) ;
#22 = PERSON_AND_ORGANIZATION ( #65, #164 ) ;
#23 = CALENDAR_DATE ( 2026, 31, 7 ) ;
#24 = DESIGN_CONTEXT ( 'detailed design', #53, 'design' ) ;
#25 = UNCERTAINTY_MEASURE_WITH_UNIT (LENGTH_MEASURE( 1.000000000000000082E-05 ), #59, 'distance_accuracy_value', 'NONE');
#26 = LOCAL_TIME ( 13, 48, 53.00000000000000000, #168 ) ;
#27 = ORIENTED_EDGE ( 'NONE', *, *, #155, .T. ) ;
#28 = PERSON_AND_ORGANIZATION ( #65, #164 ) ;
#29 = DIRECTION ( 'NONE',  ( 0.000000000000000000, 0.000000000000000000, 1.000000000000000000 ) ) ;
#30 = COORDINATED_UNIVERSAL_TIME_OFFSET ( 3, 30, .AHEAD. ) ;
#31 = CARTESIAN_POINT ( 'NONE',  ( 4.999999999999999112, 6.123233995736765296E-16, 0.000000000000000000 ) ) ;
#32 = PERSON_AND_ORGANIZATION ( #65, #164 ) ;
#33 = APPROVAL ( #107, 'UNSPECIFIED' ) ;
#34 = CARTESIAN_POINT ( 'NONE',  ( 0.000000000000000000, 0.000000000000000000, 101.8499999999999943 ) ) ;
#35 = CARTESIAN_POINT ( 'NONE',  ( 4.999999999999999112, 6.123233995736765296E-16, 101.8499999999999943 ) ) ;
#36 = DATE_TIME_ROLE ( 'classification_date' ) ;
#37 = ADVANCED_FACE ( 'NONE', ( #110 ), #95, .T. ) ;
#38 = PERSON_AND_ORGANIZATION ( #65, #164 ) ;
#39 = ADVANCED_FACE ( 'NONE', ( #89 ), #71, .T. ) ;
#40 = VERTEX_POINT ( 'NONE', #143 ) ;
#41 = ORIENTED_EDGE ( 'NONE', *, *, #155, .F. ) ;
#42 = DIRECTION ( 'NONE',  ( 1.000000000000000000, 0.000000000000000000, 0.000000000000000000 ) ) ;
#43 = AXIS2_PLACEMENT_3D ( 'NONE', #154, #29, #56 ) ;
#44 = AXIS2_PLACEMENT_3D ( 'NONE', #73, #19, #42 ) ;
#45 = DATE_AND_TIME ( #87, #92 ) ;
#46 = AXIS2_PLACEMENT_3D ( 'NONE', #173, #138, #116 ) ;
#47 = CALENDAR_DATE ( 2026, 31, 7 ) ;
#48 = CC_DESIGN_PERSON_AND_ORGANIZATION_ASSIGNMENT ( #28, #9, ( #135 ) ) ;
#49 = CC_DESIGN_APPROVAL ( #33, ( #66 ) ) ;
#50 = CIRCLE ( 'NONE', #44, 4.999999999999999112 ) ;
#51 = CLOSED_SHELL ( 'NONE', ( #121, #39, #37, #21 ) ) ;
#52 = DIRECTION ( 'NONE',  ( 1.000000000000000000, 0.000000000000000000, -0.000000000000000000 ) ) ;
#53 = APPLICATION_CONTEXT ( 'configuration controlled 3d designs of mechanical parts and assemblies' ) ;
#54 = COORDINATED_UNIVERSAL_TIME_OFFSET ( 3, 30, .AHEAD. ) ;
#55 = APPROVAL_DATE_TIME ( #10, #132 ) ;
#56 = DIRECTION ( 'NONE',  ( 1.000000000000000000, 0.000000000000000000, -0.000000000000000000 ) ) ;
#57 = DIRECTION ( 'NONE',  ( 0.000000000000000000, 0.000000000000000000, 1.000000000000000000 ) ) ;
#58 = DATE_AND_TIME ( #47, #160 ) ;
#59 =( LENGTH_UNIT ( ) NAMED_UNIT ( * ) SI_UNIT ( .MILLI., .METRE. ) );
#60 = PERSON_AND_ORGANIZATION ( #65, #164 ) ;
#61 = APPROVAL_PERSON_ORGANIZATION ( #129, #133, #172 ) ;
#62 = PRODUCT_DEFINITION_SHAPE ( 'NONE', 'NONE',  #91 ) ;
#63 = EDGE_CURVE ( 'NONE', #137, #151, #50, .T. ) ;
#64 = CC_DESIGN_DATE_AND_TIME_ASSIGNMENT ( #58, #102, ( #91 ) ) ;
#65 = PERSON ( 'UNSPECIFIED', 'UNSPECIFIED', 'UNSPECIFIED', ('UNSPECIFIED'), ('UNSPECIFIED'), ('UNSPECIFIED') ) ;
#66 = PRODUCT_DEFINITION_FORMATION_WITH_SPECIFIED_SOURCE ( 'ANY', '', #135, .NOT_KNOWN. ) ;
#67 = ORIENTED_EDGE ( 'NONE', *, *, #63, .T. ) ;
#68 = CC_DESIGN_APPROVAL ( #132, ( #91 ) ) ;
#69 = FACE_OUTER_BOUND ( 'NONE', #16, .T. ) ;
#70 = ORIENTED_EDGE ( 'NONE', *, *, #83, .F. ) ;
#71 = CYLINDRICAL_SURFACE ( 'NONE', #169, 4.999999999999999112 ) ;
#72 = DIRECTION ( 'NONE',  ( 1.000000000000000000, 0.000000000000000000, 0.000000000000000000 ) ) ;
#73 = CARTESIAN_POINT ( 'NONE',  ( 0.000000000000000000, 0.000000000000000000, 0.000000000000000000 ) ) ;
#74 = PERSON_AND_ORGANIZATION_ROLE ( 'classification_officer' ) ;
#75 = CARTESIAN_POINT ( 'NONE',  ( 0.000000000000000000, 0.000000000000000000, 101.8499999999999943 ) ) ;
#76 = PERSON_AND_ORGANIZATION_ROLE ( 'creator' ) ;
#77 = CARTESIAN_POINT ( 'NONE',  ( 0.000000000000000000, 0.000000000000000000, 0.000000000000000000 ) ) ;
#78 = DATE_AND_TIME ( #23, #26 ) ;
#79 = AXIS2_PLACEMENT_3D ( 'NONE', #166, #94, #52 ) ;
#80 = ORIENTED_EDGE ( 'NONE', *, *, #124, .T. ) ;
#81 = ORIENTED_EDGE ( 'NONE', *, *, #127, .F. ) ;
#82 = CC_DESIGN_PERSON_AND_ORGANIZATION_ASSIGNMENT ( #32, #74, ( #108 ) ) ;
#83 = EDGE_CURVE ( 'NONE', #40, #137, #125, .T. ) ;
#84 = APPLICATION_PROTOCOL_DEFINITION ( 'international standard', 'config_control_design', 1994, #53 ) ;
#85 = PERSON_AND_ORGANIZATION ( #65, #164 ) ;
#86 = CYLINDRICAL_SURFACE ( 'NONE', #1, 4.999999999999999112 ) ;
#87 = CALENDAR_DATE ( 2026, 31, 7 ) ;
#88 = DIRECTION ( 'NONE',  ( -0.000000000000000000, -0.000000000000000000, -1.000000000000000000 ) ) ;
#89 = FACE_OUTER_BOUND ( 'NONE', #111, .T. ) ;
#90 = DATE_AND_TIME ( #113, #131 ) ;
#91 = PRODUCT_DEFINITION ( 'UNKNOWN', '', #66, #24 ) ;
#92 = LOCAL_TIME ( 13, 48, 53.00000000000000000, #30 ) ;
#93 = ORIENTED_EDGE ( 'NONE', *, *, #127, .T. ) ;
#94 = DIRECTION ( 'NONE',  ( 0.000000000000000000, 0.000000000000000000, 1.000000000000000000 ) ) ;
#95 = PLANE ( 'NONE',  #43 ) ;
#96 = AXIS2_PLACEMENT_3D ( 'NONE', #144, #57, #97 ) ;
#97 = DIRECTION ( 'NONE',  ( 1.000000000000000000, 0.000000000000000000, 0.000000000000000000 ) ) ;
#98 = CARTESIAN_POINT ( 'NONE',  ( 0.000000000000000000, 0.000000000000000000, 101.8499999999999943 ) ) ;
#99 = CC_DESIGN_PERSON_AND_ORGANIZATION_ASSIGNMENT ( #170, #76, ( #91 ) ) ;
#100 = COORDINATED_UNIVERSAL_TIME_OFFSET ( 3, 30, .AHEAD. ) ;
#101 = DIRECTION ( 'NONE',  ( 0.000000000000000000, 0.000000000000000000, 1.000000000000000000 ) ) ;
#102 = DATE_TIME_ROLE ( 'creation_date' ) ;
#103 = PRODUCT_RELATED_PRODUCT_CATEGORY ( 'detail', '', ( #135 ) ) ;
#104 = DIRECTION ( 'NONE',  ( -0.000000000000000000, -0.000000000000000000, -1.000000000000000000 ) ) ;
#105 =( GEOMETRIC_REPRESENTATION_CONTEXT ( 3 ) GLOBAL_UNCERTAINTY_ASSIGNED_CONTEXT ( ( #25 ) ) GLOBAL_UNIT_ASSIGNED_CONTEXT ( ( #59, #156, #171 ) ) REPRESENTATION_CONTEXT ( 'NONE', 'WORKASPACE' ) );
#106 = COORDINATED_UNIVERSAL_TIME_OFFSET ( 3, 30, .AHEAD. ) ;
#107 = APPROVAL_STATUS ( 'not_yet_approved' ) ;
#108 = SECURITY_CLASSIFICATION ( '', '', #161 ) ;
#109 = ORIENTED_EDGE ( 'NONE', *, *, #63, .F. ) ;
#110 = FACE_OUTER_BOUND ( 'NONE', #3, .T. ) ;
#111 = EDGE_LOOP ( 'NONE', ( #41, #163, #122, #67 ) ) ;
#112 = CARTESIAN_POINT ( 'NONE',  ( 4.999999999999999112, 6.123233995736765296E-16, 101.8499999999999943 ) ) ;
#113 = CALENDAR_DATE ( 2026, 31, 7 ) ;
#114 = CARTESIAN_POINT ( 'NONE',  ( -4.999999999999999112, 0.000000000000000000, 0.000000000000000000 ) ) ;
#115 = CC_DESIGN_PERSON_AND_ORGANIZATION_ASSIGNMENT ( #22, #145, ( #66 ) ) ;
#116 = DIRECTION ( 'NONE',  ( 1.000000000000000000, 0.000000000000000000, 0.000000000000000000 ) ) ;
#117 = APPROVAL_DATE_TIME ( #90, #33 ) ;
#118 = APPROVAL_PERSON_ORGANIZATION ( #85, #132, #5 ) ;
#119 = VECTOR ( 'NONE', #104, 1000.000000000000000 ) ;
#120 = VERTEX_POINT ( 'NONE', #112 ) ;
#121 = ADVANCED_FACE ( 'NONE', ( #130 ), #86, .T. ) ;
#122 = ORIENTED_EDGE ( 'NONE', *, *, #83, .T. ) ;
#123 = EDGE_LOOP ( 'NONE', ( #14, #27, #93, #70 ) ) ;
#124 = EDGE_CURVE ( 'NONE', #40, #120, #149, .T. ) ;
#125 = LINE ( 'NONE', #142, #152 ) ;
#126 = DIRECTION ( 'NONE',  ( -1.000000000000000000, 0.000000000000000000, 0.000000000000000000 ) ) ;
#127 = EDGE_CURVE ( 'NONE', #151, #137, #153, .T. ) ;
#128 = DIRECTION ( 'NONE',  ( -1.000000000000000000, 0.000000000000000000, 0.000000000000000000 ) ) ;
#129 = PERSON_AND_ORGANIZATION ( #65, #164 ) ;
#130 = FACE_OUTER_BOUND ( 'NONE', #123, .T. ) ;
#131 = LOCAL_TIME ( 13, 48, 53.00000000000000000, #106 ) ;
#132 = APPROVAL ( #140, 'UNSPECIFIED' ) ;
#133 = APPROVAL ( #141, 'UNSPECIFIED' ) ;
#134 = APPLICATION_CONTEXT ( 'configuration controlled 3d designs of mechanical parts and assemblies' ) ;
#135 = PRODUCT ( 'Link1Shaft_Default_sldprt', 'Link1Shaft_Default_sldprt', '', ( #159 ) ) ;
#136 = AXIS2_PLACEMENT_3D ( 'NONE', #98, #157, #72 ) ;
#137 = VERTEX_POINT ( 'NONE', #114 ) ;
#138 = DIRECTION ( 'NONE',  ( 0.000000000000000000, 0.000000000000000000, 1.000000000000000000 ) ) ;
#139 = AXIS2_PLACEMENT_3D ( 'NONE', #77, #101, #18 ) ;
#140 = APPROVAL_STATUS ( 'not_yet_approved' ) ;
#141 = APPROVAL_STATUS ( 'not_yet_approved' ) ;
#142 = CARTESIAN_POINT ( 'NONE',  ( -4.999999999999999112, 0.000000000000000000, 101.8499999999999943 ) ) ;
#143 = CARTESIAN_POINT ( 'NONE',  ( -4.999999999999999112, 0.000000000000000000, 101.8499999999999943 ) ) ;
#144 = CARTESIAN_POINT ( 'NONE',  ( 0.000000000000000000, 0.000000000000000000, 0.000000000000000000 ) ) ;
#145 = PERSON_AND_ORGANIZATION_ROLE ( 'design_supplier' ) ;
#146 = MANIFOLD_SOLID_BREP ( 'Boss-Extrude1', #51 ) ;
#147 = EDGE_CURVE ( 'NONE', #120, #40, #12, .T. ) ;
#148 = APPROVAL_PERSON_ORGANIZATION ( #60, #33, #7 ) ;
#149 = CIRCLE ( 'NONE', #136, 4.999999999999999112 ) ;
#150 = CC_DESIGN_PERSON_AND_ORGANIZATION_ASSIGNMENT ( #38, #11, ( #66 ) ) ;
#151 = VERTEX_POINT ( 'NONE', #31 ) ;
#152 = VECTOR ( 'NONE', #8, 1000.000000000000000 ) ;
#153 = CIRCLE ( 'NONE', #96, 4.999999999999999112 ) ;
#154 = CARTESIAN_POINT ( 'NONE',  ( 0.000000000000000000, 0.000000000000000000, 101.8499999999999943 ) ) ;
#155 = EDGE_CURVE ( 'NONE', #120, #151, #20, .T. ) ;
#156 =( NAMED_UNIT ( * ) PLANE_ANGLE_UNIT ( ) SI_UNIT ( $, .RADIAN. ) );
#157 = DIRECTION ( 'NONE',  ( 0.000000000000000000, 0.000000000000000000, 1.000000000000000000 ) ) ;
#158 = APPROVAL_DATE_TIME ( #78, #133 ) ;
#159 = MECHANICAL_CONTEXT ( 'NONE', #134, 'mechanical' ) ;
#160 = LOCAL_TIME ( 13, 48, 53.00000000000000000, #100 ) ;
#161 = SECURITY_CLASSIFICATION_LEVEL ( 'unclassified' ) ;
#162 = LOCAL_TIME ( 13, 48, 53.00000000000000000, #54 ) ;
#163 = ORIENTED_EDGE ( 'NONE', *, *, #124, .F. ) ;
#164 = ORGANIZATION ( 'UNSPECIFIED', 'UNSPECIFIED', '' ) ;
#165 = CC_DESIGN_DATE_AND_TIME_ASSIGNMENT ( #45, #36, ( #108 ) ) ;
#166 = CARTESIAN_POINT ( 'NONE',  ( 0.000000000000000000, 0.000000000000000000, 0.000000000000000000 ) ) ;
#167 = APPLICATION_PROTOCOL_DEFINITION ( 'international standard', 'config_control_design', 1994, #134 ) ;
#168 = COORDINATED_UNIVERSAL_TIME_OFFSET ( 3, 30, .AHEAD. ) ;
#169 = AXIS2_PLACEMENT_3D ( 'NONE', #34, #88, #128 ) ;
#170 = PERSON_AND_ORGANIZATION ( #65, #164 ) ;
#171 =( NAMED_UNIT ( * ) SI_UNIT ( $, .STERADIAN. ) SOLID_ANGLE_UNIT ( ) );
#172 = APPROVAL_ROLE ( '' ) ;
#173 = CARTESIAN_POINT ( 'NONE',  ( 0.000000000000000000, 0.000000000000000000, 101.8499999999999943 ) ) ;
#174 = SHAPE_DEFINITION_REPRESENTATION ( #62, #175 ) ;
#175 = ADVANCED_BREP_SHAPE_REPRESENTATION ( 'Link1Shaft_Default_sldprt', ( #146, #139 ), #105 ) ;
ENDSEC;
END-ISO-10303-21;
