ISO-10303-21;
HEADER;
FILE_DESCRIPTION (( 'STEP AP203' ),
    '1' );
FILE_NAME ('Link3UpperShaft_Default_sldprt.STEP',
    '2026-07-31T10:19:06',
    ( '' ),
    ( '' ),
    'SwSTEP 2.0',
    'SolidWorks 2025',
    '' );
FILE_SCHEMA (( 'CONFIG_CONTROL_DESIGN' ));
ENDSEC;

DATA;
#1 = CARTESIAN_POINT ( 'NONE',  ( 14.00000000000000000, 2.000000000000002665, 7.218039900139096687 ) ) ;
#2 = VERTEX_POINT ( 'NONE', #735 ) ;
#3 = DIRECTION ( 'NONE',  ( 0.000000000000000000, 0.000000000000000000, 1.000000000000000000 ) ) ;
#4 = AXIS2_PLACEMENT_3D ( 'NONE', #513, #699, #201 ) ;
#5 = APPROVAL ( #185, 'UNSPECIFIED' ) ;
#6 = AXIS2_PLACEMENT_3D ( 'NONE', #644, #10, #659 ) ;
#7 = AXIS2_PLACEMENT_3D ( 'NONE', #504, #331, #92 ) ;
#8 = CARTESIAN_POINT ( 'NONE',  ( 6.123233995736251736E-19, 0.000000000000000000, -4.990000000000000213 ) ) ;
#9 = FACE_OUTER_BOUND ( 'NONE', #27, .T. ) ;
#10 = DIRECTION ( 'NONE',  ( -1.000000000000000000, 0.000000000000000000, 0.000000000000000000 ) ) ;
#11 = CARTESIAN_POINT ( 'NONE',  ( 14.00000000000000000, 0.000000000000000000, 0.000000000000000000 ) ) ;
#12 = PLANE ( 'NONE',  #427 ) ;
#13 = ADVANCED_FACE ( 'NONE', ( #658, #9 ), #743, .F. ) ;
#14 = DIRECTION ( 'NONE',  ( 0.000000000000000000, 0.000000000000000000, 1.000000000000000000 ) ) ;
#15 = CYLINDRICAL_SURFACE ( 'NONE', #685, 4.990000000000004654 ) ;
#16 = PLANE ( 'NONE',  #733 ) ;
#17 = PLANE ( 'NONE',  #802 ) ;
#18 = PERSON_AND_ORGANIZATION ( #623, #878 ) ;
#19 = EDGE_CURVE ( 'NONE', #559, #678, #272, .T. ) ;
#20 = AXIS2_PLACEMENT_3D ( 'NONE', #960, #21, #588 ) ;
#21 = DIRECTION ( 'NONE',  ( -1.000000000000000000, -0.000000000000000000, -0.000000000000000000 ) ) ;
#22 = VECTOR ( 'NONE', #640, 1000.000000000000000 ) ;
#23 = CYLINDRICAL_SURFACE ( 'NONE', #969, 4.990000000000001101 ) ;
#24 =( NAMED_UNIT ( * ) SI_UNIT ( $, .STERADIAN. ) SOLID_ANGLE_UNIT ( ) );
#25 = CIRCLE ( 'NONE', #430, 4.990000000000003766 ) ;
#26 = DIRECTION ( 'NONE',  ( -1.000000000000000000, -0.000000000000000000, -0.000000000000000000 ) ) ;
#27 = EDGE_LOOP ( 'NONE', ( #396, #56 ) ) ;
#28 = APPLICATION_PROTOCOL_DEFINITION ( 'international standard', 'config_control_design', 1994, #1016 ) ;
#29 = ORIENTED_EDGE ( 'NONE', *, *, #517, .T. ) ;
#30 = ADVANCED_FACE ( 'NONE', ( #334 ), #23, .T. ) ;
#31 = ORIENTED_EDGE ( 'NONE', *, *, #498, .F. ) ;
#32 = CARTESIAN_POINT ( 'NONE',  ( 14.00000000000000000, 0.000000000000000000, 0.000000000000000000 ) ) ;
#33 = DIRECTION ( 'NONE',  ( 0.000000000000000000, 0.000000000000000000, 1.000000000000000000 ) ) ;
#34 = MECHANICAL_CONTEXT ( 'NONE', #808, 'mechanical' ) ;
#35 = CARTESIAN_POINT ( 'NONE',  ( 0.000000000000000000, 2.000000000000002665, 7.218039900139096687 ) ) ;
#36 = VERTEX_POINT ( 'NONE', #177 ) ;
#37 = ADVANCED_FACE ( 'NONE', ( #823 ), #17, .F. ) ;
#38 = EDGE_LOOP ( 'NONE', ( #158, #250 ) ) ;
#39 = DIRECTION ( 'NONE',  ( -1.000000000000000000, -0.000000000000000000, -0.000000000000000000 ) ) ;
#40 = DIRECTION ( 'NONE',  ( -1.000000000000000000, -0.000000000000000000, -0.000000000000000000 ) ) ;
#41 =( NAMED_UNIT ( * ) PLANE_ANGLE_UNIT ( ) SI_UNIT ( $, .RADIAN. ) );
#42 = AXIS2_PLACEMENT_3D ( 'NONE', #714, #888, #1038 ) ;
#43 = EDGE_LOOP ( 'NONE', ( #702, #928, #78, #586 ) ) ;
#44 = LINE ( 'NONE', #609, #614 ) ;
#45 = DIRECTION ( 'NONE',  ( -0.000000000000000000, 0.000000000000000000, 1.000000000000000000 ) ) ;
#46 = EDGE_CURVE ( 'NONE', #151, #806, #125, .T. ) ;
#47 = CARTESIAN_POINT ( 'NONE',  ( 29.50000000000000000, 0.000000000000000000, 4.790000000000005365 ) ) ;
#48 = ORIENTED_EDGE ( 'NONE', *, *, #905, .F. ) ;
#49 = ORIENTED_EDGE ( 'NONE', *, *, #1030, .F. ) ;
#50 = DIRECTION ( 'NONE',  ( -0.000000000000000000, -0.000000000000000000, 1.000000000000000000 ) ) ;
#51 = CARTESIAN_POINT ( 'NONE',  ( 0.000000000000000000, 5.866058167915829334E-16, -4.790000000000006253 ) ) ;
#52 = COORDINATED_UNIVERSAL_TIME_OFFSET ( 3, 30, .AHEAD. ) ;
#53 = EDGE_CURVE ( 'NONE', #218, #481, #520, .T. ) ;
#54 = CARTESIAN_POINT ( 'NONE',  ( 26.00000000000000000, 6.110987527745297461E-16, -4.990000000000003766 ) ) ;
#55 = ORIENTED_EDGE ( 'NONE', *, *, #771, .F. ) ;
#56 = ORIENTED_EDGE ( 'NONE', *, *, #84, .T. ) ;
#57 = PLANE ( 'NONE',  #769 ) ;
#58 = CIRCLE ( 'NONE', #443, 7.490000000000001990 ) ;
#59 = CARTESIAN_POINT ( 'NONE',  ( 39.50000000000000000, 0.000000000000000000, 4.790000000000005365 ) ) ;
#60 = AXIS2_PLACEMENT_3D ( 'NONE', #210, #715, #301 ) ;
#61 = CIRCLE ( 'NONE', #190, 4.990000000000002878 ) ;
#62 = ORIENTED_EDGE ( 'NONE', *, *, #577, .F. ) ;
#63 = CARTESIAN_POINT ( 'NONE',  ( 29.50000000000000000, 0.000000000000000000, 0.000000000000000000 ) ) ;
#64 = CARTESIAN_POINT ( 'NONE',  ( 24.00000000000000000, -1.999999999999997335, 7.218039900139097576 ) ) ;
#65 = EDGE_LOOP ( 'NONE', ( #691, #673, #70, #489 ) ) ;
#66 = CARTESIAN_POINT ( 'NONE',  ( 30.50000000000000000, 6.110987527745298447E-16, -4.990000000000004654 ) ) ;
#67 = CARTESIAN_POINT ( 'NONE',  ( 0.000000000000000000, 0.000000000000000000, 7.490000000000001990 ) ) ;
#68 = ORIENTED_EDGE ( 'NONE', *, *, #220, .F. ) ;
#69 = DIRECTION ( 'NONE',  ( -1.000000000000000000, -0.000000000000000000, -0.000000000000000000 ) ) ;
#70 = ORIENTED_EDGE ( 'NONE', *, *, #895, .F. ) ;
#71 = DIRECTION ( 'NONE',  ( -1.000000000000000000, 0.000000000000000000, -0.000000000000000000 ) ) ;
#72 = AXIS2_PLACEMENT_3D ( 'NONE', #8, #330, #253 ) ;
#73 = VECTOR ( 'NONE', #816, 1000.000000000000000 ) ;
#74 = AXIS2_PLACEMENT_3D ( 'NONE', #894, #417, #3 ) ;
#75 = ORIENTED_EDGE ( 'NONE', *, *, #862, .F. ) ;
#76 = VECTOR ( 'NONE', #373, 1000.000000000000000 ) ;
#77 = CARTESIAN_POINT ( 'NONE',  ( 26.00000000000000000, 0.000000000000000000, 0.000000000000000000 ) ) ;
#78 = ORIENTED_EDGE ( 'NONE', *, *, #89, .T. ) ;
#79 = FACE_OUTER_BOUND ( 'NONE', #43, .T. ) ;
#80 = EDGE_CURVE ( 'NONE', #241, #936, #61, .T. ) ;
#81 = DIRECTION ( 'NONE',  ( 0.000000000000000000, 0.000000000000000000, 1.000000000000000000 ) ) ;
#82 = ORIENTED_EDGE ( 'NONE', *, *, #646, .T. ) ;
#83 = LINE ( 'NONE', #251, #934 ) ;
#84 = EDGE_CURVE ( 'NONE', #761, #774, #788, .T. ) ;
#85 = FACE_OUTER_BOUND ( 'NONE', #512, .T. ) ;
#86 = ORIENTED_EDGE ( 'NONE', *, *, #646, .F. ) ;
#87 = DIRECTION ( 'NONE',  ( -1.000000000000000000, 0.000000000000000000, 0.000000000000000000 ) ) ;
#88 = CIRCLE ( 'NONE', #800, 4.990000000000001101 ) ;
#89 = EDGE_CURVE ( 'NONE', #1010, #1017, #783, .T. ) ;
#90 = AXIS2_PLACEMENT_3D ( 'NONE', #114, #601, #693 ) ;
#91 = CARTESIAN_POINT ( 'NONE',  ( 0.000000000000000000, 0.000000000000000000, 0.000000000000000000 ) ) ;
#92 = DIRECTION ( 'NONE',  ( 0.000000000000000000, 0.000000000000000000, -1.000000000000000000 ) ) ;
#93 = CARTESIAN_POINT ( 'NONE',  ( 24.00000000000000000, 0.000000000000000000, 0.000000000000000000 ) ) ;
#94 = CARTESIAN_POINT ( 'NONE',  ( 26.00000000000000355, 0.000000000000000000, 0.000000000000000000 ) ) ;
#95 = ORIENTED_EDGE ( 'NONE', *, *, #771, .T. ) ;
#96 = COORDINATED_UNIVERSAL_TIME_OFFSET ( 3, 30, .AHEAD. ) ;
#97 = CYLINDRICAL_SURFACE ( 'NONE', #786, 4.790000000000000924 ) ;
#98 = LOCAL_TIME ( 13, 49, 6.000000000000000000, #260 ) ;
#99 = CARTESIAN_POINT ( 'NONE',  ( 24.00000000000000000, 2.000000000000002665, 7.228416147400479552 ) ) ;
#100 = ORIENTED_EDGE ( 'NONE', *, *, #760, .F. ) ;
#101 = SECURITY_CLASSIFICATION_LEVEL ( 'unclassified' ) ;
#102 = DIRECTION ( 'NONE',  ( -1.000000000000000000, -0.000000000000000000, -0.000000000000000000 ) ) ;
#103 = AXIS2_PLACEMENT_3D ( 'NONE', #445, #776, #351 ) ;
#104 = ORIENTED_EDGE ( 'NONE', *, *, #344, .F. ) ;
#105 = CARTESIAN_POINT ( 'NONE',  ( 54.00000000000000000, 0.000000000000000000, 0.000000000000000000 ) ) ;
#106 = VECTOR ( 'NONE', #150, 1000.000000000000000 ) ;
#107 = ORIENTED_EDGE ( 'NONE', *, *, #593, .F. ) ;
#108 = PERSON_AND_ORGANIZATION ( #623, #878 ) ;
#109 = CIRCLE ( 'NONE', #295, 4.990000000000004654 ) ;
#110 = EDGE_CURVE ( 'NONE', #630, #961, #1013, .T. ) ;
#111 = ORIENTED_EDGE ( 'NONE', *, *, #690, .T. ) ;
#112 = EDGE_LOOP ( 'NONE', ( #729, #392, #104, #180, #82, #347 ) ) ;
#113 = FACE_OUTER_BOUND ( 'NONE', #325, .T. ) ;
#114 = CARTESIAN_POINT ( 'NONE',  ( 0.000000000000000000, 0.000000000000000000, 0.000000000000000000 ) ) ;
#115 = CARTESIAN_POINT ( 'NONE',  ( 38.50000000000000000, 0.000000000000000000, 0.000000000000000000 ) ) ;
#116 = DIRECTION ( 'NONE',  ( 0.000000000000000000, 0.000000000000000000, 1.000000000000000000 ) ) ;
#117 = PRODUCT_RELATED_PRODUCT_CATEGORY ( 'detail', '', ( #457 ) ) ;
#118 = EDGE_LOOP ( 'NONE', ( #959, #277, #95, #845, #904, #246, #128, #708 ) ) ;
#119 = ORIENTED_EDGE ( 'NONE', *, *, #997, .F. ) ;
#120 = CARTESIAN_POINT ( 'NONE',  ( 30.50000000000000000, 0.000000000000000000, -4.990000000000004654 ) ) ;
#121 = FACE_BOUND ( 'NONE', #720, .T. ) ;
#122 = ADVANCED_FACE ( 'NONE', ( #706, #121 ), #366, .F. ) ;
#123 = DIRECTION ( 'NONE',  ( -1.000000000000000000, -0.000000000000000000, -0.000000000000000000 ) ) ;
#124 = VECTOR ( 'NONE', #102, 1000.000000000000000 ) ;
#125 = LINE ( 'NONE', #855, #76 ) ;
#126 = DIRECTION ( 'NONE',  ( 0.000000000000000000, 0.000000000000000000, 1.000000000000000000 ) ) ;
#127 = AXIS2_PLACEMENT_3D ( 'NONE', #765, #40, #525 ) ;
#128 = ORIENTED_EDGE ( 'NONE', *, *, #420, .T. ) ;
#129 = ORIENTED_EDGE ( 'NONE', *, *, #220, .T. ) ;
#130 = LINE ( 'NONE', #859, #243 ) ;
#131 = ADVANCED_FACE ( 'NONE', ( #915 ), #132, .T. ) ;
#132 = CYLINDRICAL_SURFACE ( 'NONE', #361, 4.790000000000006253 ) ;
#133 = DIRECTION ( 'NONE',  ( -1.000000000000000000, -0.000000000000000000, -0.000000000000000000 ) ) ;
#134 = ORIENTED_EDGE ( 'NONE', *, *, #304, .F. ) ;
#135 = CC_DESIGN_APPROVAL ( #835, ( #615 ) ) ;
#136 = ORIENTED_EDGE ( 'NONE', *, *, #867, .F. ) ;
#137 = DIRECTION ( 'NONE',  ( 1.000000000000000000, 0.000000000000000000, 0.000000000000000000 ) ) ;
#138 = CARTESIAN_POINT ( 'NONE',  ( 29.50000000000000000, 0.000000000000000000, 0.000000000000000000 ) ) ;
#139 = DIRECTION ( 'NONE',  ( -1.000000000000000000, -0.000000000000000000, -0.000000000000000000 ) ) ;
#140 = VERTEX_POINT ( 'NONE', #535 ) ;
#141 = DIRECTION ( 'NONE',  ( -1.000000000000000000, -0.000000000000000000, -0.000000000000000000 ) ) ;
#142 = VECTOR ( 'NONE', #50, 1000.000000000000000 ) ;
#143 = LINE ( 'NONE', #527, #398 ) ;
#144 = AXIS2_PLACEMENT_3D ( 'NONE', #276, #526, #286 ) ;
#145 = ADVANCED_FACE ( 'NONE', ( #441, #606 ), #57, .F. ) ;
#146 = AXIS2_PLACEMENT_3D ( 'NONE', #216, #689, #285 ) ;
#147 = EDGE_LOOP ( 'NONE', ( #456, #343 ) ) ;
#148 = CARTESIAN_POINT ( 'NONE',  ( 0.000000000000000000, 6.110987527745293517E-16, -4.990000000000000213 ) ) ;
#149 = DIRECTION ( 'NONE',  ( -1.000000000000000000, -0.000000000000000000, -0.000000000000000000 ) ) ;
#150 = DIRECTION ( 'NONE',  ( -1.000000000000000000, -0.000000000000000000, -0.000000000000000000 ) ) ;
#151 = VERTEX_POINT ( 'NONE', #541 ) ;
#152 = DIRECTION ( 'NONE',  ( 0.000000000000000000, 0.000000000000000000, 1.000000000000000000 ) ) ;
#153 = EDGE_LOOP ( 'NONE', ( #450, #641 ) ) ;
#154 = DIRECTION ( 'NONE',  ( 0.000000000000000000, 0.000000000000000000, 1.000000000000000000 ) ) ;
#155 = VERTEX_POINT ( 'NONE', #196 ) ;
#156 = EDGE_CURVE ( 'NONE', #474, #918, #448, .T. ) ;
#157 = CARTESIAN_POINT ( 'NONE',  ( 39.50000000000000000, 5.866058167915828348E-16, -4.790000000000005365 ) ) ;
#158 = ORIENTED_EDGE ( 'NONE', *, *, #360, .F. ) ;
#159 = CARTESIAN_POINT ( 'NONE',  ( 14.00000000000000000, 0.000000000000000000, 7.490000000000001990 ) ) ;
#160 = CIRCLE ( 'NONE', #144, 4.990000000000000213 ) ;
#161 = AXIS2_PLACEMENT_3D ( 'NONE', #300, #473, #946 ) ;
#162 = LINE ( 'NONE', #224, #1019 ) ;
#163 = ADVANCED_FACE ( 'NONE', ( #459 ), #840, .T. ) ;
#164 = ORIENTED_EDGE ( 'NONE', *, *, #815, .T. ) ;
#165 = CARTESIAN_POINT ( 'NONE',  ( 30.50000000000000000, 0.000000000000000000, 0.000000000000000000 ) ) ;
#166 = DIRECTION ( 'NONE',  ( 0.000000000000000000, -0.000000000000000000, -1.000000000000000000 ) ) ;
#167 = APPROVAL_PERSON_ORGANIZATION ( #178, #460, #265 ) ;
#168 = VERTEX_POINT ( 'NONE', #926 ) ;
#169 = DIRECTION ( 'NONE',  ( -1.000000000000000000, -0.000000000000000000, -0.000000000000000000 ) ) ;
#170 = EDGE_CURVE ( 'NONE', #547, #289, #202, .T. ) ;
#171 = PLANE ( 'NONE',  #208 ) ;
#172 = ORIENTED_EDGE ( 'NONE', *, *, #607, .T. ) ;
#173 = CARTESIAN_POINT ( 'NONE',  ( 4.000000000000000000, 0.000000000000000000, 4.790000000000001812 ) ) ;
#174 = ADVANCED_FACE ( 'NONE', ( #683 ), #273, .F. ) ;
#175 = VECTOR ( 'NONE', #133, 1000.000000000000000 ) ;
#176 = DIRECTION ( 'NONE',  ( -1.000000000000000000, -0.000000000000000000, -0.000000000000000000 ) ) ;
#177 = CARTESIAN_POINT ( 'NONE',  ( 26.00000000000000355, 0.000000000000000000, 7.490000000000002878 ) ) ;
#178 = PERSON_AND_ORGANIZATION ( #623, #878 ) ;
#179 = LINE ( 'NONE', #901, #73 ) ;
#180 = ORIENTED_EDGE ( 'NONE', *, *, #46, .F. ) ;
#181 = CALENDAR_DATE ( 2026, 31, 7 ) ;
#182 = DIRECTION ( 'NONE',  ( -0.000000000000000000, 0.000000000000000000, -1.000000000000000000 ) ) ;
#183 = EDGE_CURVE ( 'NONE', #547, #36, #584, .T. ) ;
#184 = ORIENTED_EDGE ( 'NONE', *, *, #760, .T. ) ;
#185 = APPROVAL_STATUS ( 'not_yet_approved' ) ;
#186 = ORIENTED_EDGE ( 'NONE', *, *, #1009, .T. ) ;
#187 = CIRCLE ( 'NONE', #581, 7.490000000000001990 ) ;
#188 = ORIENTED_EDGE ( 'NONE', *, *, #827, .T. ) ;
#189 = FACE_OUTER_BOUND ( 'NONE', #681, .T. ) ;
#190 = AXIS2_PLACEMENT_3D ( 'NONE', #138, #621, #33 ) ;
#191 = DIRECTION ( 'NONE',  ( -1.000000000000000000, -0.000000000000000000, -0.000000000000000000 ) ) ;
#192 = COORDINATED_UNIVERSAL_TIME_OFFSET ( 3, 30, .AHEAD. ) ;
#193 = ADVANCED_FACE ( 'NONE', ( #362 ), #849, .T. ) ;
#194 = ORIENTED_EDGE ( 'NONE', *, *, #198, .T. ) ;
#195 = LINE ( 'NONE', #848, #902 ) ;
#196 = CARTESIAN_POINT ( 'NONE',  ( 24.00000000000000000, 2.000000000000002665, -7.218039900139096687 ) ) ;
#197 = DIRECTION ( 'NONE',  ( 0.000000000000000000, 0.000000000000000000, 1.000000000000000000 ) ) ;
#198 = EDGE_CURVE ( 'NONE', #1033, #857, #385, .T. ) ;
#199 = EDGE_CURVE ( 'NONE', #918, #1017, #497, .T. ) ;
#200 = ORIENTED_EDGE ( 'NONE', *, *, #882, .T. ) ;
#201 = DIRECTION ( 'NONE',  ( 0.000000000000000000, 0.000000000000000000, 1.000000000000000000 ) ) ;
#202 = LINE ( 'NONE', #610, #737 ) ;
#203 = SHAPE_DEFINITION_REPRESENTATION ( #293, #428 ) ;
#204 = CARTESIAN_POINT ( 'NONE',  ( 14.00000000000000000, 0.000000000000000000, 0.000000000000000000 ) ) ;
#205 = EDGE_CURVE ( 'NONE', #474, #1010, #212, .T. ) ;
#206 = ORIENTED_EDGE ( 'NONE', *, *, #239, .T. ) ;
#207 = CARTESIAN_POINT ( 'NONE',  ( 14.00000000000000000, 0.000000000000000000, -7.490000000000001990 ) ) ;
#208 = AXIS2_PLACEMENT_3D ( 'NONE', #492, #415, #692 ) ;
#209 = DIRECTION ( 'NONE',  ( -1.000000000000000000, -0.000000000000000000, -0.000000000000000000 ) ) ;
#210 = CARTESIAN_POINT ( 'NONE',  ( 0.000000000000000000, 0.000000000000000000, 0.000000000000000000 ) ) ;
#211 = DIRECTION ( 'NONE',  ( 0.000000000000000000, 0.000000000000000000, 1.000000000000000000 ) ) ;
#212 = CIRCLE ( 'NONE', #639, 4.790000000000001812 ) ;
#213 = ORIENTED_EDGE ( 'NONE', *, *, #862, .T. ) ;
#214 = EDGE_LOOP ( 'NONE', ( #231, #574, #377, #345 ) ) ;
#215 = DIRECTION ( 'NONE',  ( 0.000000000000000000, 0.000000000000000000, 1.000000000000000000 ) ) ;
#216 = CARTESIAN_POINT ( 'NONE',  ( 38.50000000000000000, 0.000000000000000000, -4.790000000000006253 ) ) ;
#217 = CARTESIAN_POINT ( 'NONE',  ( 0.000000000000000000, 0.000000000000000000, 4.990000000000004654 ) ) ;
#218 = VERTEX_POINT ( 'NONE', #157 ) ;
#219 = LINE ( 'NONE', #1035, #483 ) ;
#220 = EDGE_CURVE ( 'NONE', #668, #857, #805, .T. ) ;
#221 = CARTESIAN_POINT ( 'NONE',  ( 39.50000000000000000, 0.000000000000000000, 0.000000000000000000 ) ) ;
#222 = ORIENTED_EDGE ( 'NONE', *, *, #80, .T. ) ;
#223 = LINE ( 'NONE', #148, #124 ) ;
#224 = CARTESIAN_POINT ( 'NONE',  ( 14.00000000000000000, -1.999999999999997335, 7.228416147400479552 ) ) ;
#225 = AXIS2_PLACEMENT_3D ( 'NONE', #745, #812, #906 ) ;
#226 = ADVANCED_FACE ( 'NONE', ( #710 ), #647, .T. ) ;
#227 = DIRECTION ( 'NONE',  ( -1.000000000000000000, -0.000000000000000000, -0.000000000000000000 ) ) ;
#228 = VECTOR ( 'NONE', #891, 1000.000000000000000 ) ;
#229 = ORIENTED_EDGE ( 'NONE', *, *, #796, .T. ) ;
#230 = DIRECTION ( 'NONE',  ( 0.000000000000000000, 0.000000000000000000, 1.000000000000000000 ) ) ;
#231 = ORIENTED_EDGE ( 'NONE', *, *, #695, .F. ) ;
#232 = CARTESIAN_POINT ( 'NONE',  ( 3.000000000000000000, 0.000000000000000000, 4.790000000000000924 ) ) ;
#233 = ADVANCED_FACE ( 'NONE', ( #963 ), #240, .F. ) ;
#234 = ORIENTED_EDGE ( 'NONE', *, *, #675, .F. ) ;
#235 = APPROVAL_PERSON_ORGANIZATION ( #912, #5, #453 ) ;
#236 = CARTESIAN_POINT ( 'NONE',  ( 0.000000000000000000, 0.000000000000000000, 0.000000000000000000 ) ) ;
#237 = EDGE_LOOP ( 'NONE', ( #555, #712 ) ) ;
#238 = FACE_OUTER_BOUND ( 'NONE', #259, .T. ) ;
#239 = EDGE_CURVE ( 'NONE', #371, #838, #25, .T. ) ;
#240 = PLANE ( 'NONE',  #1034 ) ;
#241 = VERTEX_POINT ( 'NONE', #484 ) ;
#242 = CARTESIAN_POINT ( 'NONE',  ( 14.00000000000000000, 0.000000000000000000, 0.000000000000000000 ) ) ;
#243 = VECTOR ( 'NONE', #137, 1000.000000000000000 ) ;
#244 = CIRCLE ( 'NONE', #836, 4.990000000000001101 ) ;
#245 = DIRECTION ( 'NONE',  ( -1.000000000000000000, -0.000000000000000000, -0.000000000000000000 ) ) ;
#246 = ORIENTED_EDGE ( 'NONE', *, *, #974, .F. ) ;
#247 = DIRECTION ( 'NONE',  ( -1.000000000000000000, -0.000000000000000000, -0.000000000000000000 ) ) ;
#248 = FACE_BOUND ( 'NONE', #153, .T. ) ;
#249 = AXIS2_PLACEMENT_3D ( 'NONE', #115, #353, #505 ) ;
#250 = ORIENTED_EDGE ( 'NONE', *, *, #183, .F. ) ;
#251 = CARTESIAN_POINT ( 'NONE',  ( 24.00000000000000000, -1.999999999999997335, 7.228416147400479552 ) ) ;
#252 = CARTESIAN_POINT ( 'NONE',  ( 29.50000000000000000, 0.000000000000000000, 0.000000000000000000 ) ) ;
#253 = DIRECTION ( 'NONE',  ( 0.000000000000000000, 0.000000000000000000, -1.000000000000000000 ) ) ;
#254 = DIRECTION ( 'NONE',  ( 0.000000000000000000, 0.000000000000000000, 1.000000000000000000 ) ) ;
#255 = DATE_AND_TIME ( #980, #923 ) ;
#256 = AXIS2_PLACEMENT_3D ( 'NONE', #516, #850, #116 ) ;
#257 = CIRCLE ( 'NONE', #967, 4.990000000000001101 ) ;
#258 = DIRECTION ( 'NONE',  ( -1.000000000000000000, -0.000000000000000000, -0.000000000000000000 ) ) ;
#259 = EDGE_LOOP ( 'NONE', ( #944, #847 ) ) ;
#260 = COORDINATED_UNIVERSAL_TIME_OFFSET ( 3, 30, .AHEAD. ) ;
#261 = EDGE_CURVE ( 'NONE', #493, #1011, #162, .T. ) ;
#262 = ORIENTED_EDGE ( 'NONE', *, *, #561, .F. ) ;
#263 = CARTESIAN_POINT ( 'NONE',  ( 14.00000000000000000, 0.000000000000000000, 0.000000000000000000 ) ) ;
#264 = ORIENTED_EDGE ( 'NONE', *, *, #842, .F. ) ;
#265 = APPROVAL_ROLE ( '' ) ;
#266 = PRODUCT_DEFINITION_FORMATION_WITH_SPECIFIED_SOURCE ( 'ANY', '', #457, .NOT_KNOWN. ) ;
#267 = CC_DESIGN_PERSON_AND_ORGANIZATION_ASSIGNMENT ( #18, #674, ( #266 ) ) ;
#268 = CARTESIAN_POINT ( 'NONE',  ( 14.00000000000000000, -1.999999999999997335, 7.228416147400479552 ) ) ;
#269 = ORIENTED_EDGE ( 'NONE', *, *, #358, .T. ) ;
#270 = CIRCLE ( 'NONE', #463, 4.790000000000006253 ) ;
#271 = PLANE ( 'NONE',  #966 ) ;
#272 = CIRCLE ( 'NONE', #935, 4.990000000000006430 ) ;
#273 = PLANE ( 'NONE',  #686 ) ;
#274 = CARTESIAN_POINT ( 'NONE',  ( 30.50000000000000000, 0.000000000000000000, 4.790000000000006253 ) ) ;
#275 = ADVANCED_FACE ( 'NONE', ( #723, #638 ), #390, .F. ) ;
#276 = CARTESIAN_POINT ( 'NONE',  ( 3.000000000000000000, 0.000000000000000000, 0.000000000000000000 ) ) ;
#277 = ORIENTED_EDGE ( 'NONE', *, *, #183, .T. ) ;
#278 = ORIENTED_EDGE ( 'NONE', *, *, #846, .F. ) ;
#279 = FACE_OUTER_BOUND ( 'NONE', #523, .T. ) ;
#280 = DIRECTION ( 'NONE',  ( -1.000000000000000000, -0.000000000000000000, -0.000000000000000000 ) ) ;
#281 = CARTESIAN_POINT ( 'NONE',  ( 1.224646799147250347E-18, 0.000000000000000000, 4.990000000000000213 ) ) ;
#282 = CIRCLE ( 'NONE', #369, 4.990000000000001101 ) ;
#283 = ORIENTED_EDGE ( 'NONE', *, *, #375, .T. ) ;
#284 = CARTESIAN_POINT ( 'NONE',  ( 14.00000000000000000, 0.000000000000000000, 0.000000000000000000 ) ) ;
#285 = DIRECTION ( 'NONE',  ( -0.000000000000000000, 0.000000000000000000, 1.000000000000000000 ) ) ;
#286 = DIRECTION ( 'NONE',  ( 0.000000000000000000, 0.000000000000000000, 1.000000000000000000 ) ) ;
#287 = CARTESIAN_POINT ( 'NONE',  ( 0.000000000000000000, 6.110987527745299433E-16, -4.990000000000005542 ) ) ;
#288 = EDGE_LOOP ( 'NONE', ( #781, #186 ) ) ;
#289 = VERTEX_POINT ( 'NONE', #393 ) ;
#290 = DIRECTION ( 'NONE',  ( -1.000000000000000000, -0.000000000000000000, -0.000000000000000000 ) ) ;
#291 = CIRCLE ( 'NONE', #20, 4.990000000000001101 ) ;
#292 = DIRECTION ( 'NONE',  ( -1.000000000000000000, 0.000000000000000000, -0.000000000000000000 ) ) ;
#293 = PRODUCT_DEFINITION_SHAPE ( 'NONE', 'NONE',  #615 ) ;
#294 = DIRECTION ( 'NONE',  ( -1.000000000000000000, -0.000000000000000000, -0.000000000000000000 ) ) ;
#295 = AXIS2_PLACEMENT_3D ( 'NONE', #632, #792, #81 ) ;
#296 = EDGE_LOOP ( 'NONE', ( #111, #543, #429, #86, #75, #964 ) ) ;
#297 = VERTEX_POINT ( 'NONE', #558 ) ;
#298 = EDGE_CURVE ( 'NONE', #401, #432, #109, .T. ) ;
#299 = CARTESIAN_POINT ( 'NONE',  ( 54.00000000000000000, 6.110987527745300420E-16, -4.990000000000006430 ) ) ;
#300 = CARTESIAN_POINT ( 'NONE',  ( 4.000000000000000000, 0.000000000000000000, 0.000000000000000000 ) ) ;
#301 = DIRECTION ( 'NONE',  ( 0.000000000000000000, 0.000000000000000000, 1.000000000000000000 ) ) ;
#302 = ORIENTED_EDGE ( 'NONE', *, *, #540, .F. ) ;
#303 = DIRECTION ( 'NONE',  ( -1.000000000000000000, -0.000000000000000000, -0.000000000000000000 ) ) ;
#304 = EDGE_CURVE ( 'NONE', #241, #371, #809, .T. ) ;
#305 = CARTESIAN_POINT ( 'NONE',  ( 4.000000000000000000, 0.000000000000000000, 0.000000000000000000 ) ) ;
#306 = DIRECTION ( 'NONE',  ( 0.000000000000000000, 0.000000000000000000, 1.000000000000000000 ) ) ;
#307 = VERTEX_POINT ( 'NONE', #719 ) ;
#308 = FACE_OUTER_BOUND ( 'NONE', #753, .T. ) ;
#309 = VECTOR ( 'NONE', #258, 1000.000000000000000 ) ;
#310 = LINE ( 'NONE', #471, #22 ) ;
#311 = EDGE_CURVE ( 'NONE', #553, #806, #889, .T. ) ;
#312 = CIRCLE ( 'NONE', #380, 4.790000000000005365 ) ;
#313 = AXIS2_PLACEMENT_3D ( 'NONE', #63, #478, #551 ) ;
#314 = ORIENTED_EDGE ( 'NONE', *, *, #420, .F. ) ;
#315 = DIRECTION ( 'NONE',  ( -1.000000000000000000, -0.000000000000000000, -0.000000000000000000 ) ) ;
#316 = VERTEX_POINT ( 'NONE', #66 ) ;
#317 = CARTESIAN_POINT ( 'NONE',  ( 38.50000000000000000, 0.000000000000000000, 0.000000000000000000 ) ) ;
#318 = EDGE_CURVE ( 'NONE', #756, #553, #219, .T. ) ;
#319 = CIRCLE ( 'NONE', #629, 4.990000000000004654 ) ;
#320 = CARTESIAN_POINT ( 'NONE',  ( 0.000000000000000000, 0.000000000000000000, 4.790000000000006253 ) ) ;
#321 = ORIENTED_EDGE ( 'NONE', *, *, #540, .T. ) ;
#322 = CARTESIAN_POINT ( 'NONE',  ( 14.00000000000000000, -1.999999999999997335, -7.218039900139096687 ) ) ;
#323 = CARTESIAN_POINT ( 'NONE',  ( 0.000000000000000000, 0.000000000000000000, 0.000000000000000000 ) ) ;
#324 = DIRECTION ( 'NONE',  ( -1.000000000000000000, 0.000000000000000000, -0.000000000000000000 ) ) ;
#325 = EDGE_LOOP ( 'NONE', ( #229, #384, #938, #1002 ) ) ;
#326 = CARTESIAN_POINT ( 'NONE',  ( 0.000000000000000000, 0.000000000000000000, 0.000000000000000000 ) ) ;
#327 = AXIS2_PLACEMENT_3D ( 'NONE', #868, #294, #622 ) ;
#328 = AXIS2_PLACEMENT_3D ( 'NONE', #381, #700, #514 ) ;
#329 = ADVANCED_FACE ( 'NONE', ( #544 ), #865, .T. ) ;
#330 = DIRECTION ( 'NONE',  ( 1.000000000000000000, 0.000000000000000000, 0.000000000000000000 ) ) ;
#331 = DIRECTION ( 'NONE',  ( 1.000000000000000000, 0.000000000000000000, 0.000000000000000000 ) ) ;
#332 = CARTESIAN_POINT ( 'NONE',  ( 1.224646799147250347E-18, 0.000000000000000000, 0.000000000000000000 ) ) ;
#333 = FACE_OUTER_BOUND ( 'NONE', #288, .T. ) ;
#334 = FACE_OUTER_BOUND ( 'NONE', #112, .T. ) ;
#335 = DIRECTION ( 'NONE',  ( -1.000000000000000000, -0.000000000000000000, -0.000000000000000000 ) ) ;
#336 = DIRECTION ( 'NONE',  ( 0.000000000000000000, 0.000000000000000000, 1.000000000000000000 ) ) ;
#337 = CARTESIAN_POINT ( 'NONE',  ( 24.00000000000000000, -1.999999999999997335, 7.228416147400479552 ) ) ;
#338 = PERSON_AND_ORGANIZATION ( #623, #878 ) ;
#339 = ADVANCED_FACE ( 'NONE', ( #308 ), #957, .T. ) ;
#340 = VECTOR ( 'NONE', #434, 1000.000000000000000 ) ;
#341 = VECTOR ( 'NONE', #382, 1000.000000000000000 ) ;
#342 = FACE_OUTER_BOUND ( 'NONE', #955, .T. ) ;
#343 = ORIENTED_EDGE ( 'NONE', *, *, #827, .F. ) ;
#344 = EDGE_CURVE ( 'NONE', #806, #553, #291, .T. ) ;
#345 = ORIENTED_EDGE ( 'NONE', *, *, #1009, .F. ) ;
#346 = CYLINDRICAL_SURFACE ( 'NONE', #832, 4.790000000000006253 ) ;
#347 = ORIENTED_EDGE ( 'NONE', *, *, #1030, .T. ) ;
#348 = VERTEX_POINT ( 'NONE', #1 ) ;
#349 = VERTEX_POINT ( 'NONE', #578 ) ;
#350 = EDGE_CURVE ( 'NONE', #559, #774, #179, .T. ) ;
#351 = DIRECTION ( 'NONE',  ( 0.000000000000000000, 0.000000000000000000, 1.000000000000000000 ) ) ;
#352 = DIRECTION ( 'NONE',  ( -1.000000000000000000, -0.000000000000000000, -0.000000000000000000 ) ) ;
#353 = DIRECTION ( 'NONE',  ( -1.000000000000000000, -0.000000000000000000, -0.000000000000000000 ) ) ;
#354 = CARTESIAN_POINT ( 'NONE',  ( 39.50000000000000711, 0.000000000000000000, 0.000000000000000000 ) ) ;
#355 = CIRCLE ( 'NONE', #746, 4.990000000000004654 ) ;
#356 = ORIENTED_EDGE ( 'NONE', *, *, #318, .F. ) ;
#357 = CARTESIAN_POINT ( 'NONE',  ( 0.000000000000000000, 0.000000000000000000, 0.000000000000000000 ) ) ;
#358 = EDGE_CURVE ( 'NONE', #218, #801, #596, .T. ) ;
#359 = AXIS2_PLACEMENT_3D ( 'NONE', #873, #1008, #386 ) ;
#360 = EDGE_CURVE ( 'NONE', #36, #547, #479, .T. ) ;
#361 = AXIS2_PLACEMENT_3D ( 'NONE', #452, #352, #758 ) ;
#362 = FACE_OUTER_BOUND ( 'NONE', #537, .T. ) ;
#363 = CARTESIAN_POINT ( 'NONE',  ( 0.000000000000000000, 0.000000000000000000, 0.000000000000000000 ) ) ;
#364 = EDGE_LOOP ( 'NONE', ( #716, #421 ) ) ;
#365 = CARTESIAN_POINT ( 'NONE',  ( 0.000000000000000000, 6.110987527745298447E-16, -4.990000000000004654 ) ) ;
#366 = PLANE ( 'NONE',  #146 ) ;
#367 = LINE ( 'NONE', #35, #395 ) ;
#368 = CARTESIAN_POINT ( 'NONE',  ( 54.00000000000000000, 0.000000000000000000, 0.000000000000000000 ) ) ;
#369 = AXIS2_PLACEMENT_3D ( 'NONE', #721, #1037, #197 ) ;
#370 = ORIENTED_EDGE ( 'NONE', *, *, #53, .F. ) ;
#371 = VERTEX_POINT ( 'NONE', #826 ) ;
#372 = CARTESIAN_POINT ( 'NONE',  ( 38.50000000000000000, 0.000000000000000000, 0.000000000000000000 ) ) ;
#373 = DIRECTION ( 'NONE',  ( -1.000000000000000000, -0.000000000000000000, -0.000000000000000000 ) ) ;
#374 = DIRECTION ( 'NONE',  ( -1.000000000000000000, -0.000000000000000000, -0.000000000000000000 ) ) ;
#375 = EDGE_CURVE ( 'NONE', #857, #668, #528, .T. ) ;
#376 = ORIENTED_EDGE ( 'NONE', *, *, #909, .T. ) ;
#377 = ORIENTED_EDGE ( 'NONE', *, *, #487, .T. ) ;
#378 = CARTESIAN_POINT ( 'NONE',  ( 14.00000000000000000, 0.000000000000000000, 0.000000000000000000 ) ) ;
#379 = AXIS2_PLACEMENT_3D ( 'NONE', #263, #910, #182 ) ;
#380 = AXIS2_PLACEMENT_3D ( 'NONE', #221, #227, #856 ) ;
#381 = CARTESIAN_POINT ( 'NONE',  ( 39.50000000000000711, 0.000000000000000000, 0.000000000000000000 ) ) ;
#382 = DIRECTION ( 'NONE',  ( 1.000000000000000000, 0.000000000000000000, 0.000000000000000000 ) ) ;
#383 = CC_DESIGN_PERSON_AND_ORGANIZATION_ASSIGNMENT ( #338, #986, ( #403 ) ) ;
#384 = ORIENTED_EDGE ( 'NONE', *, *, #53, .T. ) ;
#385 = LINE ( 'NONE', #320, #821 ) ;
#386 = DIRECTION ( 'NONE',  ( 0.000000000000000000, 0.000000000000000000, 1.000000000000000000 ) ) ;
#387 = ADVANCED_FACE ( 'NONE', ( #973 ), #16, .F. ) ;
#388 = ORIENTED_EDGE ( 'NONE', *, *, #205, .F. ) ;
#389 = ADVANCED_FACE ( 'NONE', ( #342 ), #423, .T. ) ;
#390 = PLANE ( 'NONE',  #567 ) ;
#391 = CARTESIAN_POINT ( 'NONE',  ( 14.00000000000000000, 0.000000000000000000, 0.000000000000000000 ) ) ;
#392 = ORIENTED_EDGE ( 'NONE', *, *, #318, .T. ) ;
#393 = CARTESIAN_POINT ( 'NONE',  ( 14.00000000000000000, 9.172604525613678137E-16, -7.490000000000001990 ) ) ;
#394 = EDGE_CURVE ( 'NONE', #801, #907, #822, .T. ) ;
#395 = VECTOR ( 'NONE', #694, 1000.000000000000000 ) ;
#396 = ORIENTED_EDGE ( 'NONE', *, *, #726, .T. ) ;
#397 = DIRECTION ( 'NONE',  ( -0.000000000000000000, 0.000000000000000000, 1.000000000000000000 ) ) ;
#398 = VECTOR ( 'NONE', #1023, 1000.000000000000000 ) ;
#399 = EDGE_LOOP ( 'NONE', ( #302, #164, #194, #68 ) ) ;
#400 = DIRECTION ( 'NONE',  ( 0.000000000000000000, 0.000000000000000000, 1.000000000000000000 ) ) ;
#401 = VERTEX_POINT ( 'NONE', #970 ) ;
#402 = CYLINDRICAL_SURFACE ( 'NONE', #464, 4.790000000000000924 ) ;
#403 = SECURITY_CLASSIFICATION ( '', '', #101 ) ;
#404 = CARTESIAN_POINT ( 'NONE',  ( 0.000000000000000000, 0.000000000000000000, 4.990000000000002878 ) ) ;
#405 = ORIENTED_EDGE ( 'NONE', *, *, #657, .T. ) ;
#406 = CARTESIAN_POINT ( 'NONE',  ( 3.000000000000000000, 5.866058167915823418E-16, -4.790000000000000924 ) ) ;
#407 = ADVANCED_FACE ( 'NONE', ( #568 ), #12, .F. ) ;
#408 = DIRECTION ( 'NONE',  ( -0.000000000000000000, 0.000000000000000000, 1.000000000000000000 ) ) ;
#409 = ORIENTED_EDGE ( 'NONE', *, *, #945, .T. ) ;
#410 = DIRECTION ( 'NONE',  ( 0.000000000000000000, 0.000000000000000000, 1.000000000000000000 ) ) ;
#411 = DIRECTION ( 'NONE',  ( 0.000000000000000000, 0.000000000000000000, -1.000000000000000000 ) ) ;
#412 = VECTOR ( 'NONE', #978, 1000.000000000000000 ) ;
#413 = CIRCLE ( 'NONE', #653, 4.790000000000006253 ) ;
#414 = EDGE_CURVE ( 'NONE', #155, #2, #636, .T. ) ;
#415 = DIRECTION ( 'NONE',  ( -1.000000000000000000, 0.000000000000000000, -0.000000000000000000 ) ) ;
#416 = CARTESIAN_POINT ( 'NONE',  ( 54.00000000000000000, 0.000000000000000000, 0.000000000000000000 ) ) ;
#417 = DIRECTION ( 'NONE',  ( -1.000000000000000000, -0.000000000000000000, -0.000000000000000000 ) ) ;
#418 = APPROVAL_PERSON_ORGANIZATION ( #994, #835, #921 ) ;
#419 = DIRECTION ( 'NONE',  ( 0.000000000000000000, 0.000000000000000000, 1.000000000000000000 ) ) ;
#420 = EDGE_CURVE ( 'NONE', #349, #991, #672, .T. ) ;
#421 = ORIENTED_EDGE ( 'NONE', *, *, #358, .F. ) ;
#422 = DATE_AND_TIME ( #590, #1005 ) ;
#423 = CYLINDRICAL_SURFACE ( 'NONE', #869, 7.490000000000001990 ) ;
#424 = VERTEX_POINT ( 'NONE', #431 ) ;
#425 = PERSON_AND_ORGANIZATION_ROLE ( 'design_owner' ) ;
#426 = ADVANCED_FACE ( 'NONE', ( #85 ), #831, .T. ) ;
#427 = AXIS2_PLACEMENT_3D ( 'NONE', #892, #742, #336 ) ;
#428 = ADVANCED_BREP_SHAPE_REPRESENTATION ( 'Link3UpperShaft_Default_sldprt', ( #475, #645 ), #727 ) ;
#429 = ORIENTED_EDGE ( 'NONE', *, *, #491, .F. ) ;
#430 = AXIS2_PLACEMENT_3D ( 'NONE', #77, #951, #400 ) ;
#431 = CARTESIAN_POINT ( 'NONE',  ( 30.50000000000000000, 0.000000000000000000, 4.990000000000004654 ) ) ;
#432 = VERTEX_POINT ( 'NONE', #488 ) ;
#433 = DIRECTION ( 'NONE',  ( 1.000000000000000000, 0.000000000000000000, 0.000000000000000000 ) ) ;
#434 = DIRECTION ( 'NONE',  ( 0.000000000000000000, 0.000000000000000000, -1.000000000000000000 ) ) ;
#435 = DIRECTION ( 'NONE',  ( -1.000000000000000000, -0.000000000000000000, -0.000000000000000000 ) ) ;
#436 = CC_DESIGN_APPROVAL ( #5, ( #403 ) ) ;
#437 = FACE_OUTER_BOUND ( 'NONE', #798, .T. ) ;
#438 = ADVANCED_FACE ( 'NONE', ( #506 ), #572, .F. ) ;
#439 = ORIENTED_EDGE ( 'NONE', *, *, #846, .T. ) ;
#440 = CARTESIAN_POINT ( 'NONE',  ( 38.50000000000000000, 5.866058167915829334E-16, -4.790000000000006253 ) ) ;
#441 = FACE_OUTER_BOUND ( 'NONE', #38, .T. ) ;
#442 = APPROVAL_STATUS ( 'not_yet_approved' ) ;
#443 = AXIS2_PLACEMENT_3D ( 'NONE', #378, #705, #1021 ) ;
#444 = EDGE_LOOP ( 'NONE', ( #530, #462 ) ) ;
#445 = CARTESIAN_POINT ( 'NONE',  ( 0.000000000000000000, 0.000000000000000000, 0.000000000000000000 ) ) ;
#446 = AXIS2_PLACEMENT_3D ( 'NONE', #851, #139, #449 ) ;
#447 = VECTOR ( 'NONE', #191, 1000.000000000000000 ) ;
#448 = LINE ( 'NONE', #861, #447 ) ;
#449 = DIRECTION ( 'NONE',  ( 0.000000000000000000, 0.000000000000000000, 1.000000000000000000 ) ) ;
#450 = ORIENTED_EDGE ( 'NONE', *, *, #804, .T. ) ;
#451 = DIRECTION ( 'NONE',  ( 0.000000000000000000, 0.000000000000000000, -1.000000000000000000 ) ) ;
#452 = CARTESIAN_POINT ( 'NONE',  ( 0.000000000000000000, 0.000000000000000000, 0.000000000000000000 ) ) ;
#453 = APPROVAL_ROLE ( '' ) ;
#454 = ADVANCED_FACE ( 'NONE', ( #333 ), #661, .F. ) ;
#455 = LINE ( 'NONE', #217, #637 ) ;
#456 = ORIENTED_EDGE ( 'NONE', *, *, #19, .F. ) ;
#457 = PRODUCT ( 'Link3UpperShaft_Default_sldprt', 'Link3UpperShaft_Default_sldprt', '', ( #34 ) ) ;
#458 = EDGE_LOOP ( 'NONE', ( #222, #439, #1024, #134 ) ) ;
#459 = FACE_OUTER_BOUND ( 'NONE', #458, .T. ) ;
#460 = APPROVAL ( #501, 'UNSPECIFIED' ) ;
#461 = CARTESIAN_POINT ( 'NONE',  ( 0.000000000000000000, 0.000000000000000000, 0.000000000000000000 ) ) ;
#462 = ORIENTED_EDGE ( 'NONE', *, *, #815, .F. ) ;
#463 = AXIS2_PLACEMENT_3D ( 'NONE', #372, #1006, #215 ) ;
#464 = AXIS2_PLACEMENT_3D ( 'NONE', #725, #169, #490 ) ;
#465 = DIRECTION ( 'NONE',  ( 0.000000000000000000, 0.000000000000000000, -1.000000000000000000 ) ) ;
#466 = ADVANCED_FACE ( 'NONE', ( #897, #248 ), #171, .F. ) ;
#467 = ORIENTED_EDGE ( 'NONE', *, *, #722, .T. ) ;
#468 = DIRECTION ( 'NONE',  ( -1.000000000000000000, -0.000000000000000000, -0.000000000000000000 ) ) ;
#469 = DIRECTION ( 'NONE',  ( 1.000000000000000000, 0.000000000000000000, 0.000000000000000000 ) ) ;
#470 = APPROVAL_DATE_TIME ( #866, #5 ) ;
#471 = CARTESIAN_POINT ( 'NONE',  ( 0.000000000000000000, 6.110987527745296475E-16, -4.990000000000002878 ) ) ;
#472 = ORIENTED_EDGE ( 'NONE', *, *, #531, .F. ) ;
#473 = DIRECTION ( 'NONE',  ( -1.000000000000000000, -0.000000000000000000, -0.000000000000000000 ) ) ;
#474 = VERTEX_POINT ( 'NONE', #940 ) ;
#475 = MANIFOLD_SOLID_BREP ( 'Cut-Extrude8', #534 ) ;
#476 = FACE_BOUND ( 'NONE', #565, .T. ) ;
#477 = EDGE_LOOP ( 'NONE', ( #264, #188, #780, #587 ) ) ;
#478 = DIRECTION ( 'NONE',  ( -1.000000000000000000, -0.000000000000000000, -0.000000000000000000 ) ) ;
#479 = CIRCLE ( 'NONE', #886, 7.490000000000002878 ) ;
#480 = AXIS2_PLACEMENT_3D ( 'NONE', #332, #965, #486 ) ;
#481 = VERTEX_POINT ( 'NONE', #440 ) ;
#482 = DIRECTION ( 'NONE',  ( 0.000000000000000000, 0.000000000000000000, -1.000000000000000000 ) ) ;
#483 = VECTOR ( 'NONE', #69, 1000.000000000000000 ) ;
#484 = CARTESIAN_POINT ( 'NONE',  ( 29.50000000000000000, 0.000000000000000000, 4.990000000000002878 ) ) ;
#485 = EDGE_LOOP ( 'NONE', ( #200, #890 ) ) ;
#486 = DIRECTION ( 'NONE',  ( 0.000000000000000000, 0.000000000000000000, 1.000000000000000000 ) ) ;
#487 = EDGE_CURVE ( 'NONE', #853, #697, #44, .T. ) ;
#488 = CARTESIAN_POINT ( 'NONE',  ( 38.50000000000000000, 0.000000000000000000, 4.990000000000004654 ) ) ;
#489 = ORIENTED_EDGE ( 'NONE', *, *, #487, .F. ) ;
#490 = DIRECTION ( 'NONE',  ( 0.000000000000000000, 0.000000000000000000, 1.000000000000000000 ) ) ;
#491 = EDGE_CURVE ( 'NONE', #961, #348, #913, .T. ) ;
#492 = CARTESIAN_POINT ( 'NONE',  ( 3.000000000000000000, 0.000000000000000000, -4.790000000000000924 ) ) ;
#493 = VERTEX_POINT ( 'NONE', #600 ) ;
#494 = CARTESIAN_POINT ( 'NONE',  ( 14.00000000000000000, -1.999999999999997335, -4.571662717217885863 ) ) ;
#495 = CIRCLE ( 'NONE', #768, 4.990000000000002878 ) ;
#496 = AXIS2_PLACEMENT_3D ( 'NONE', #711, #794, #306 ) ;
#497 = CIRCLE ( 'NONE', #42, 4.790000000000000924 ) ;
#498 = EDGE_CURVE ( 'NONE', #481, #907, #270, .T. ) ;
#499 = DIRECTION ( 'NONE',  ( 0.000000000000000000, 0.000000000000000000, 1.000000000000000000 ) ) ;
#500 = DIRECTION ( 'NONE',  ( -1.000000000000000000, -0.000000000000000000, -0.000000000000000000 ) ) ;
#501 = APPROVAL_STATUS ( 'not_yet_approved' ) ;
#502 = ADVANCED_FACE ( 'NONE', ( #189 ), #605, .F. ) ;
#503 = CARTESIAN_POINT ( 'NONE',  ( 29.50000000000000000, 0.000000000000000000, 0.000000000000000000 ) ) ;
#504 = CARTESIAN_POINT ( 'NONE',  ( 39.50000000000000711, 0.000000000000000000, -4.990000000000004654 ) ) ;
#505 = DIRECTION ( 'NONE',  ( 0.000000000000000000, 0.000000000000000000, 1.000000000000000000 ) ) ;
#506 = FACE_OUTER_BOUND ( 'NONE', #147, .T. ) ;
#507 = EDGE_LOOP ( 'NONE', ( #698, #747, #48, #589 ) ) ;
#508 = PERSON_AND_ORGANIZATION_ROLE ( 'creator' ) ;
#509 = CIRCLE ( 'NONE', #652, 4.990000000000001101 ) ;
#510 = AXIS2_PLACEMENT_3D ( 'NONE', #242, #880, #566 ) ;
#511 = ORIENTED_EDGE ( 'NONE', *, *, #414, .T. ) ;
#512 = EDGE_LOOP ( 'NONE', ( #49, #604 ) ) ;
#513 = CARTESIAN_POINT ( 'NONE',  ( 4.000000000000000000, 0.000000000000000000, 0.000000000000000000 ) ) ;
#514 = DIRECTION ( 'NONE',  ( 0.000000000000000000, 0.000000000000000000, 1.000000000000000000 ) ) ;
#515 = CALENDAR_DATE ( 2026, 31, 7 ) ;
#516 = CARTESIAN_POINT ( 'NONE',  ( 14.00000000000000000, 0.000000000000000000, 0.000000000000000000 ) ) ;
#517 = EDGE_CURVE ( 'NONE', #1010, #474, #667, .T. ) ;
#518 = DIRECTION ( 'NONE',  ( 0.000000000000000000, 0.000000000000000000, 1.000000000000000000 ) ) ;
#519 = DIRECTION ( 'NONE',  ( 0.000000000000000000, 0.000000000000000000, 1.000000000000000000 ) ) ;
#520 = LINE ( 'NONE', #51, #619 ) ;
#521 = CC_DESIGN_DATE_AND_TIME_ASSIGNMENT ( #829, #748, ( #403 ) ) ;
#522 = ORIENTED_EDGE ( 'NONE', *, *, #304, .T. ) ;
#523 = EDGE_LOOP ( 'NONE', ( #278, #405, #522, #62 ) ) ;
#524 = CARTESIAN_POINT ( 'NONE',  ( 14.00000000000000000, 2.000000000000002665, 7.228416147400479552 ) ) ;
#525 = DIRECTION ( 'NONE',  ( 0.000000000000000000, 0.000000000000000000, 1.000000000000000000 ) ) ;
#526 = DIRECTION ( 'NONE',  ( -1.000000000000000000, -0.000000000000000000, -0.000000000000000000 ) ) ;
#527 = CARTESIAN_POINT ( 'NONE',  ( 24.00000000000000000, 2.000000000000002665, 7.228416147400479552 ) ) ;
#528 = CIRCLE ( 'NONE', #563, 4.790000000000005365 ) ;
#529 = AXIS2_PLACEMENT_3D ( 'NONE', #877, #315, #642 ) ;
#530 = ORIENTED_EDGE ( 'NONE', *, *, #945, .F. ) ;
#531 = EDGE_CURVE ( 'NONE', #630, #756, #998, .T. ) ;
#532 = CYLINDRICAL_SURFACE ( 'NONE', #103, 4.990000000000002878 ) ;
#533 = CIRCLE ( 'NONE', #74, 4.990000000000000213 ) ;
#534 = CLOSED_SHELL ( 'NONE', ( #900, #680, #30, #389, #163, #874, #953, #569, #749, #233, #454, #438, #763, #13, #339, #122, #713, #633, #131, #1025, #546, #145, #329, #502, #193, #275, #968, #466, #226, #981, #37, #407, #174, #387, #426 ) ) ;
#535 = CARTESIAN_POINT ( 'NONE',  ( 14.00000000000000000, -1.999999999999997335, 7.218039900139097576 ) ) ;
#536 = CYLINDRICAL_SURFACE ( 'NONE', #327, 4.790000000000006253 ) ;
#537 = EDGE_LOOP ( 'NONE', ( #356, #184, #603, #213, #704, #813 ) ) ;
#538 = ORIENTED_EDGE ( 'NONE', *, *, #156, .T. ) ;
#539 = DIRECTION ( 'NONE',  ( -1.000000000000000000, -0.000000000000000000, -0.000000000000000000 ) ) ;
#540 = EDGE_CURVE ( 'NONE', #599, #668, #195, .T. ) ;
#541 = CARTESIAN_POINT ( 'NONE',  ( 14.00000000000000000, 0.000000000000000000, 4.990000000000001101 ) ) ;
#542 = CARTESIAN_POINT ( 'NONE',  ( 0.000000000000000000, -1.999999999999997335, 7.218039900139097576 ) ) ;
#543 = ORIENTED_EDGE ( 'NONE', *, *, #709, .T. ) ;
#544 = FACE_OUTER_BOUND ( 'NONE', #118, .T. ) ;
#545 = CYLINDRICAL_SURFACE ( 'NONE', #496, 4.990000000000005542 ) ;
#546 = ADVANCED_FACE ( 'NONE', ( #279 ), #532, .T. ) ;
#547 = VERTEX_POINT ( 'NONE', #592 ) ;
#548 = DIRECTION ( 'NONE',  ( 0.000000000000000000, 0.000000000000000000, 1.000000000000000000 ) ) ;
#549 = VECTOR ( 'NONE', #39, 1000.000000000000000 ) ;
#550 = AXIS2_PLACEMENT_3D ( 'NONE', #354, #1001, #927 ) ;
#551 = DIRECTION ( 'NONE',  ( 0.000000000000000000, 0.000000000000000000, 1.000000000000000000 ) ) ;
#552 = DIRECTION ( 'NONE',  ( 0.000000000000000000, 0.000000000000000000, 1.000000000000000000 ) ) ;
#553 = VERTEX_POINT ( 'NONE', #1003 ) ;
#554 = DIRECTION ( 'NONE',  ( -1.000000000000000000, -0.000000000000000000, -0.000000000000000000 ) ) ;
#555 = ORIENTED_EDGE ( 'NONE', *, *, #344, .T. ) ;
#556 = DIRECTION ( 'NONE',  ( -1.000000000000000000, -0.000000000000000000, -0.000000000000000000 ) ) ;
#557 = ORIENTED_EDGE ( 'NONE', *, *, #905, .T. ) ;
#558 = CARTESIAN_POINT ( 'NONE',  ( 3.000000000000000000, 6.110987527745293517E-16, -4.990000000000000213 ) ) ;
#559 = VERTEX_POINT ( 'NONE', #770 ) ;
#560 = DIRECTION ( 'NONE',  ( -1.000000000000000000, -0.000000000000000000, -0.000000000000000000 ) ) ;
#561 = EDGE_CURVE ( 'NONE', #401, #316, #839, .T. ) ;
#562 = DIRECTION ( 'NONE',  ( 0.000000000000000000, 0.000000000000000000, -1.000000000000000000 ) ) ;
#563 = AXIS2_PLACEMENT_3D ( 'NONE', #503, #245, #499 ) ;
#564 = CIRCLE ( 'NONE', #550, 4.990000000000004654 ) ;
#565 = EDGE_LOOP ( 'NONE', ( #283, #129 ) ) ;
#566 = DIRECTION ( 'NONE',  ( 0.000000000000000000, 0.000000000000000000, 1.000000000000000000 ) ) ;
#567 = AXIS2_PLACEMENT_3D ( 'NONE', #797, #469, #872 ) ;
#568 = FACE_OUTER_BOUND ( 'NONE', #875, .T. ) ;
#569 = ADVANCED_FACE ( 'NONE', ( #113 ), #346, .T. ) ;
#570 = ORIENTED_EDGE ( 'NONE', *, *, #593, .T. ) ;
#571 = FACE_OUTER_BOUND ( 'NONE', #1028, .T. ) ;
#572 = PLANE ( 'NONE',  #931 ) ;
#573 = EDGE_CURVE ( 'NONE', #1011, #493, #88, .T. ) ;
#574 = ORIENTED_EDGE ( 'NONE', *, *, #731, .T. ) ;
#575 = DIRECTION ( 'NONE',  ( 0.000000000000000000, 0.000000000000000000, 1.000000000000000000 ) ) ;
#576 = DIRECTION ( 'NONE',  ( -1.000000000000000000, -0.000000000000000000, -0.000000000000000000 ) ) ;
#577 = EDGE_CURVE ( 'NONE', #838, #371, #954, .T. ) ;
#578 = CARTESIAN_POINT ( 'NONE',  ( 24.00000000000000000, -1.999999999999997335, -7.218039900139097576 ) ) ;
#579 = ORIENTED_EDGE ( 'NONE', *, *, #573, .F. ) ;
#580 = APPROVAL_DATE_TIME ( #255, #835 ) ;
#581 = AXIS2_PLACEMENT_3D ( 'NONE', #631, #468, #950 ) ;
#582 = AXIS2_PLACEMENT_3D ( 'NONE', #165, #655, #575 ) ;
#583 = EDGE_CURVE ( 'NONE', #307, #155, #130, .T. ) ;
#584 = CIRCLE ( 'NONE', #127, 7.490000000000002878 ) ;
#585 = CARTESIAN_POINT ( 'NONE',  ( 0.000000000000000000, 0.000000000000000000, 4.790000000000006253 ) ) ;
#586 = ORIENTED_EDGE ( 'NONE', *, *, #199, .F. ) ;
#587 = ORIENTED_EDGE ( 'NONE', *, *, #84, .F. ) ;
#588 = DIRECTION ( 'NONE',  ( 0.000000000000000000, 0.000000000000000000, 1.000000000000000000 ) ) ;
#589 = ORIENTED_EDGE ( 'NONE', *, *, #785, .F. ) ;
#590 = CALENDAR_DATE ( 2026, 31, 7 ) ;
#591 = ORIENTED_EDGE ( 'NONE', *, *, #722, .F. ) ;
#592 = CARTESIAN_POINT ( 'NONE',  ( 26.00000000000000355, 9.172604525613680109E-16, -7.490000000000003766 ) ) ;
#593 = EDGE_CURVE ( 'NONE', #316, #424, #355, .T. ) ;
#594 = DIRECTION ( 'NONE',  ( -1.000000000000000000, -0.000000000000000000, -0.000000000000000000 ) ) ;
#595 = DATE_AND_TIME ( #515, #896 ) ;
#596 = CIRCLE ( 'NONE', #225, 4.790000000000005365 ) ;
#597 = AXIS2_PLACEMENT_3D ( 'NONE', #93, #87, #1040 ) ;
#598 = VECTOR ( 'NONE', #594, 1000.000000000000000 ) ;
#599 = VERTEX_POINT ( 'NONE', #677 ) ;
#600 = CARTESIAN_POINT ( 'NONE',  ( 14.00000000000000000, -1.999999999999997335, 4.571662717217885863 ) ) ;
#601 = DIRECTION ( 'NONE',  ( -1.000000000000000000, -0.000000000000000000, -0.000000000000000000 ) ) ;
#602 =( LENGTH_UNIT ( ) NAMED_UNIT ( * ) SI_UNIT ( .MILLI., .METRE. ) );
#603 = ORIENTED_EDGE ( 'NONE', *, *, #573, .T. ) ;
#604 = ORIENTED_EDGE ( 'NONE', *, *, #110, .F. ) ;
#605 = PLANE ( 'NONE',  #1014 ) ;
#606 = FACE_BOUND ( 'NONE', #985, .T. ) ;
#607 = EDGE_CURVE ( 'NONE', #1011, #991, #992, .T. ) ;
#608 = ORIENTED_EDGE ( 'NONE', *, *, #882, .F. ) ;
#609 = CARTESIAN_POINT ( 'NONE',  ( 0.000000000000000000, 0.000000000000000000, 4.990000000000000213 ) ) ;
#610 = CARTESIAN_POINT ( 'NONE',  ( 0.000000000000000000, 9.172604525613678137E-16, -7.490000000000001990 ) ) ;
#611 = CYLINDRICAL_SURFACE ( 'NONE', #60, 4.990000000000005542 ) ;
#612 = CARTESIAN_POINT ( 'NONE',  ( 3.000000000000000000, 0.000000000000000000, 4.990000000000000213 ) ) ;
#613 = ORIENTED_EDGE ( 'NONE', *, *, #350, .F. ) ;
#614 = VECTOR ( 'NONE', #290, 1000.000000000000000 ) ;
#615 = PRODUCT_DEFINITION ( 'UNKNOWN', '', #266, #876 ) ;
#616 = CIRCLE ( 'NONE', #446, 4.990000000000000213 ) ;
#617 = ORIENTED_EDGE ( 'NONE', *, *, #261, .F. ) ;
#618 = CARTESIAN_POINT ( 'NONE',  ( 26.00000000000000000, 0.000000000000000000, 0.000000000000000000 ) ) ;
#619 = VECTOR ( 'NONE', #280, 1000.000000000000000 ) ;
#620 = AXIS2_PLACEMENT_3D ( 'NONE', #236, #1026, #230 ) ;
#621 = DIRECTION ( 'NONE',  ( -1.000000000000000000, -0.000000000000000000, -0.000000000000000000 ) ) ;
#622 = DIRECTION ( 'NONE',  ( 0.000000000000000000, 0.000000000000000000, 1.000000000000000000 ) ) ;
#623 = PERSON ( 'UNSPECIFIED', 'UNSPECIFIED', 'UNSPECIFIED', ('UNSPECIFIED'), ('UNSPECIFIED'), ('UNSPECIFIED') ) ;
#624 = ORIENTED_EDGE ( 'NONE', *, *, #110, .T. ) ;
#625 = ORIENTED_EDGE ( 'NONE', *, *, #583, .T. ) ;
#626 = CARTESIAN_POINT ( 'NONE',  ( 29.50000000000000000, 5.866058167915828348E-16, -4.790000000000005365 ) ) ;
#627 = CARTESIAN_POINT ( 'NONE',  ( 14.00000000000000000, 0.000000000000000000, -7.490000000000001990 ) ) ;
#628 = DIRECTION ( 'NONE',  ( -1.000000000000000000, -0.000000000000000000, -0.000000000000000000 ) ) ;
#629 = AXIS2_PLACEMENT_3D ( 'NONE', #317, #556, #154 ) ;
#630 = VERTEX_POINT ( 'NONE', #757 ) ;
#631 = CARTESIAN_POINT ( 'NONE',  ( 14.00000000000000000, 0.000000000000000000, 0.000000000000000000 ) ) ;
#632 = CARTESIAN_POINT ( 'NONE',  ( 38.50000000000000000, 0.000000000000000000, 0.000000000000000000 ) ) ;
#633 = ADVANCED_FACE ( 'NONE', ( #682, #996 ), #271, .F. ) ;
#634 = CARTESIAN_POINT ( 'NONE',  ( 39.50000000000000711, 0.000000000000000000, 4.990000000000004654 ) ) ;
#635 = ORIENTED_EDGE ( 'NONE', *, *, #577, .T. ) ;
#636 = CIRCLE ( 'NONE', #817, 7.490000000000001990 ) ;
#637 = VECTOR ( 'NONE', #952, 1000.000000000000000 ) ;
#638 = FACE_OUTER_BOUND ( 'NONE', #237, .T. ) ;
#639 = AXIS2_PLACEMENT_3D ( 'NONE', #305, #149, #789 ) ;
#640 = DIRECTION ( 'NONE',  ( -1.000000000000000000, -0.000000000000000000, -0.000000000000000000 ) ) ;
#641 = ORIENTED_EDGE ( 'NONE', *, *, #199, .T. ) ;
#642 = DIRECTION ( 'NONE',  ( 0.000000000000000000, 0.000000000000000000, 1.000000000000000000 ) ) ;
#643 = ORIENTED_EDGE ( 'NONE', *, *, #298, .T. ) ;
#644 = CARTESIAN_POINT ( 'NONE',  ( 24.00000000000000000, 0.000000000000000000, 0.000000000000000000 ) ) ;
#645 = AXIS2_PLACEMENT_3D ( 'NONE', #1000, #679, #433 ) ;
#646 = EDGE_CURVE ( 'NONE', #151, #961, #509, .T. ) ;
#647 = CYLINDRICAL_SURFACE ( 'NONE', #620, 4.990000000000000213 ) ;
#648 = ORIENTED_EDGE ( 'NONE', *, *, #987, .T. ) ;
#649 = CARTESIAN_POINT ( 'NONE',  ( 38.50000000000000000, 0.000000000000000000, 4.790000000000006253 ) ) ;
#650 = CC_DESIGN_PERSON_AND_ORGANIZATION_ASSIGNMENT ( #108, #508, ( #615 ) ) ;
#651 = DIRECTION ( 'NONE',  ( 0.000000000000000000, 0.000000000000000000, 1.000000000000000000 ) ) ;
#652 = AXIS2_PLACEMENT_3D ( 'NONE', #11, #660, #977 ) ;
#653 = AXIS2_PLACEMENT_3D ( 'NONE', #807, #247, #410 ) ;
#654 = ORIENTED_EDGE ( 'NONE', *, *, #170, .T. ) ;
#655 = DIRECTION ( 'NONE',  ( -1.000000000000000000, -0.000000000000000000, -0.000000000000000000 ) ) ;
#656 = DIRECTION ( 'NONE',  ( 0.000000000000000000, 0.000000000000000000, -1.000000000000000000 ) ) ;
#657 = EDGE_CURVE ( 'NONE', #936, #241, #495, .T. ) ;
#658 = FACE_BOUND ( 'NONE', #364, .T. ) ;
#659 = DIRECTION ( 'NONE',  ( 0.000000000000000000, 0.000000000000000000, 1.000000000000000000 ) ) ;
#660 = DIRECTION ( 'NONE',  ( -1.000000000000000000, -0.000000000000000000, -0.000000000000000000 ) ) ;
#661 = PLANE ( 'NONE',  #72 ) ;
#662 = CARTESIAN_POINT ( 'NONE',  ( 0.000000000000000000, 0.000000000000000000, 0.000000000000000000 ) ) ;
#663 = APPLICATION_PROTOCOL_DEFINITION ( 'international standard', 'config_control_design', 1994, #808 ) ;
#664 = CC_DESIGN_PERSON_AND_ORGANIZATION_ASSIGNMENT ( #754, #425, ( #457 ) ) ;
#665 = DIRECTION ( 'NONE',  ( 1.000000000000000000, 0.000000000000000000, 0.000000000000000000 ) ) ;
#666 = DIRECTION ( 'NONE',  ( 1.000000000000000000, -0.000000000000000000, -0.000000000000000000 ) ) ;
#667 = CIRCLE ( 'NONE', #4, 4.790000000000001812 ) ;
#668 = VERTEX_POINT ( 'NONE', #626 ) ;
#669 = PERSON_AND_ORGANIZATION_ROLE ( 'design_supplier' ) ;
#670 = VECTOR ( 'NONE', #482, 1000.000000000000000 ) ;
#671 = VECTOR ( 'NONE', #999, 1000.000000000000000 ) ;
#672 = LINE ( 'NONE', #982, #309 ) ;
#673 = ORIENTED_EDGE ( 'NONE', *, *, #695, .T. ) ;
#674 = PERSON_AND_ORGANIZATION_ROLE ( 'creator' ) ;
#675 = EDGE_CURVE ( 'NONE', #307, #289, #58, .T. ) ;
#676 = ORIENTED_EDGE ( 'NONE', *, *, #987, .F. ) ;
#677 = CARTESIAN_POINT ( 'NONE',  ( 30.50000000000000000, 5.866058167915829334E-16, -4.790000000000006253 ) ) ;
#678 = VERTEX_POINT ( 'NONE', #299 ) ;
#679 = DIRECTION ( 'NONE',  ( 0.000000000000000000, 0.000000000000000000, 1.000000000000000000 ) ) ;
#680 = ADVANCED_FACE ( 'NONE', ( #824 ), #97, .T. ) ;
#681 = EDGE_LOOP ( 'NONE', ( #472, #676, #791, #376, #881, #100 ) ) ;
#682 = FACE_BOUND ( 'NONE', #444, .T. ) ;
#683 = FACE_OUTER_BOUND ( 'NONE', #485, .T. ) ;
#684 = AXIS2_PLACEMENT_3D ( 'NONE', #883, #141, #1029 ) ;
#685 = AXIS2_PLACEMENT_3D ( 'NONE', #326, #560, #976 ) ;
#686 = AXIS2_PLACEMENT_3D ( 'NONE', #920, #844, #1007 ) ;
#687 = ORIENTED_EDGE ( 'NONE', *, *, #916, .F. ) ;
#688 = DIRECTION ( 'NONE',  ( 0.000000000000000000, 0.000000000000000000, 1.000000000000000000 ) ) ;
#689 = DIRECTION ( 'NONE',  ( -1.000000000000000000, 0.000000000000000000, -0.000000000000000000 ) ) ;
#690 = EDGE_CURVE ( 'NONE', #140, #911, #187, .T. ) ;
#691 = ORIENTED_EDGE ( 'NONE', *, *, #916, .T. ) ;
#692 = DIRECTION ( 'NONE',  ( -0.000000000000000000, 0.000000000000000000, 1.000000000000000000 ) ) ;
#693 = DIRECTION ( 'NONE',  ( 0.000000000000000000, 0.000000000000000000, 1.000000000000000000 ) ) ;
#694 = DIRECTION ( 'NONE',  ( -1.000000000000000000, -0.000000000000000000, -0.000000000000000000 ) ) ;
#695 = EDGE_CURVE ( 'NONE', #297, #168, #223, .T. ) ;
#696 = FACE_OUTER_BOUND ( 'NONE', #477, .T. ) ;
#697 = VERTEX_POINT ( 'NONE', #281 ) ;
#698 = ORIENTED_EDGE ( 'NONE', *, *, #1018, .T. ) ;
#699 = DIRECTION ( 'NONE',  ( -1.000000000000000000, -0.000000000000000000, -0.000000000000000000 ) ) ;
#700 = DIRECTION ( 'NONE',  ( -1.000000000000000000, -0.000000000000000000, -0.000000000000000000 ) ) ;
#701 = LINE ( 'NONE', #542, #341 ) ;
#702 = ORIENTED_EDGE ( 'NONE', *, *, #156, .F. ) ;
#703 = AXIS2_PLACEMENT_3D ( 'NONE', #618, #539, #929 ) ;
#704 = ORIENTED_EDGE ( 'NONE', *, *, #46, .T. ) ;
#705 = DIRECTION ( 'NONE',  ( -1.000000000000000000, -0.000000000000000000, -0.000000000000000000 ) ) ;
#706 = FACE_OUTER_BOUND ( 'NONE', #750, .T. ) ;
#707 = CARTESIAN_POINT ( 'NONE',  ( 3.000000000000000000, 0.000000000000000000, 0.000000000000000000 ) ) ;
#708 = ORIENTED_EDGE ( 'NONE', *, *, #909, .F. ) ;
#709 = EDGE_CURVE ( 'NONE', #911, #348, #717, .T. ) ;
#710 = FACE_OUTER_BOUND ( 'NONE', #214, .T. ) ;
#711 = CARTESIAN_POINT ( 'NONE',  ( 0.000000000000000000, 0.000000000000000000, 0.000000000000000000 ) ) ;
#712 = ORIENTED_EDGE ( 'NONE', *, *, #311, .T. ) ;
#713 = ADVANCED_FACE ( 'NONE', ( #437 ), #767, .T. ) ;
#714 = CARTESIAN_POINT ( 'NONE',  ( 3.000000000000000000, 0.000000000000000000, 0.000000000000000000 ) ) ;
#715 = DIRECTION ( 'NONE',  ( -1.000000000000000000, -0.000000000000000000, -0.000000000000000000 ) ) ;
#716 = ORIENTED_EDGE ( 'NONE', *, *, #796, .F. ) ;
#717 = CIRCLE ( 'NONE', #256, 7.490000000000001990 ) ;
#718 = AXIS2_PLACEMENT_3D ( 'NONE', #707, #1031, #552 ) ;
#719 = CARTESIAN_POINT ( 'NONE',  ( 14.00000000000000000, 2.000000000000002665, -7.218039900139096687 ) ) ;
#720 = EDGE_LOOP ( 'NONE', ( #884, #775 ) ) ;
#721 = CARTESIAN_POINT ( 'NONE',  ( 14.00000000000000000, 0.000000000000000000, 0.000000000000000000 ) ) ;
#722 = EDGE_CURVE ( 'NONE', #2, #348, #367, .T. ) ;
#723 = FACE_BOUND ( 'NONE', #1039, .T. ) ;
#724 = ORIENTED_EDGE ( 'NONE', *, *, #583, .F. ) ;
#725 = CARTESIAN_POINT ( 'NONE',  ( 0.000000000000000000, 0.000000000000000000, 0.000000000000000000 ) ) ;
#726 = EDGE_CURVE ( 'NONE', #774, #761, #564, .T. ) ;
#727 =( GEOMETRIC_REPRESENTATION_CONTEXT ( 3 ) GLOBAL_UNCERTAINTY_ASSIGNED_CONTEXT ( ( #782 ) ) GLOBAL_UNIT_ASSIGNED_CONTEXT ( ( #602, #41, #24 ) ) REPRESENTATION_CONTEXT ( 'NONE', 'WORKASPACE' ) );
#728 = DIRECTION ( 'NONE',  ( -1.000000000000000000, -0.000000000000000000, -0.000000000000000000 ) ) ;
#729 = ORIENTED_EDGE ( 'NONE', *, *, #531, .T. ) ;
#730 = CARTESIAN_POINT ( 'NONE',  ( 14.00000000000000000, 2.000000000000002665, 7.228416147400479552 ) ) ;
#731 = EDGE_CURVE ( 'NONE', #297, #853, #160, .T. ) ;
#732 = DIRECTION ( 'NONE',  ( 0.000000000000000000, -1.000000000000000000, 0.000000000000000000 ) ) ;
#733 = AXIS2_PLACEMENT_3D ( 'NONE', #99, #732, #166 ) ;
#734 = CIRCLE ( 'NONE', #359, 4.790000000000006253 ) ;
#735 = CARTESIAN_POINT ( 'NONE',  ( 24.00000000000000000, 2.000000000000002665, 7.218039900139096687 ) ) ;
#736 = FACE_OUTER_BOUND ( 'NONE', #507, .T. ) ;
#737 = VECTOR ( 'NONE', #435, 1000.000000000000000 ) ;
#738 = DIRECTION ( 'NONE',  ( -1.000000000000000000, -0.000000000000000000, -0.000000000000000000 ) ) ;
#739 = ORIENTED_EDGE ( 'NONE', *, *, #360, .T. ) ;
#740 = CARTESIAN_POINT ( 'NONE',  ( 29.50000000000000000, 6.110987527745296475E-16, -4.990000000000002878 ) ) ;
#741 = CIRCLE ( 'NONE', #249, 4.790000000000006253 ) ;
#742 = DIRECTION ( 'NONE',  ( -1.000000000000000000, 0.000000000000000000, 0.000000000000000000 ) ) ;
#743 = PLANE ( 'NONE',  #7 ) ;
#744 = APPROVAL_DATE_TIME ( #422, #460 ) ;
#745 = CARTESIAN_POINT ( 'NONE',  ( 39.50000000000000000, 0.000000000000000000, 0.000000000000000000 ) ) ;
#746 = AXIS2_PLACEMENT_3D ( 'NONE', #843, #26, #518 ) ;
#747 = ORIENTED_EDGE ( 'NONE', *, *, #561, .T. ) ;
#748 = DATE_TIME_ROLE ( 'classification_date' ) ;
#749 = ADVANCED_FACE ( 'NONE', ( #932 ), #611, .T. ) ;
#750 = EDGE_LOOP ( 'NONE', ( #795, #864 ) ) ;
#751 = EDGE_LOOP ( 'NONE', ( #557, #570 ) ) ;
#752 = DIRECTION ( 'NONE',  ( 0.000000000000000000, 0.000000000000000000, 1.000000000000000000 ) ) ;
#753 = EDGE_LOOP ( 'NONE', ( #370, #269, #949, #31 ) ) ;
#754 = PERSON_AND_ORGANIZATION ( #623, #878 ) ;
#755 = CC_DESIGN_PERSON_AND_ORGANIZATION_ASSIGNMENT ( #834, #669, ( #266 ) ) ;
#756 = VERTEX_POINT ( 'NONE', #1027 ) ;
#757 = CARTESIAN_POINT ( 'NONE',  ( 14.00000000000000000, 2.000000000000003109, -4.571662717217884087 ) ) ;
#758 = DIRECTION ( 'NONE',  ( 0.000000000000000000, 0.000000000000000000, 1.000000000000000000 ) ) ;
#759 = DIRECTION ( 'NONE',  ( 0.000000000000000000, 0.000000000000000000, 1.000000000000000000 ) ) ;
#760 = EDGE_CURVE ( 'NONE', #756, #1011, #244, .T. ) ;
#761 = VERTEX_POINT ( 'NONE', #863 ) ;
#762 = VERTEX_POINT ( 'NONE', #64 ) ;
#763 = ADVANCED_FACE ( 'NONE', ( #696 ), #545, .T. ) ;
#764 = DIRECTION ( 'NONE',  ( 0.000000000000000000, 0.000000000000000000, 1.000000000000000000 ) ) ;
#765 = CARTESIAN_POINT ( 'NONE',  ( 26.00000000000000355, 0.000000000000000000, 0.000000000000000000 ) ) ;
#766 = COORDINATED_UNIVERSAL_TIME_OFFSET ( 3, 30, .AHEAD. ) ;
#767 = CYLINDRICAL_SURFACE ( 'NONE', #983, 4.990000000000004654 ) ;
#768 = AXIS2_PLACEMENT_3D ( 'NONE', #252, #576, #519 ) ;
#769 = AXIS2_PLACEMENT_3D ( 'NONE', #777, #292, #45 ) ;
#770 = CARTESIAN_POINT ( 'NONE',  ( 54.00000000000000000, 0.000000000000000000, 4.990000000000006430 ) ) ;
#771 = EDGE_CURVE ( 'NONE', #36, #911, #948, .T. ) ;
#772 = DIRECTION ( 'NONE',  ( 0.000000000000000000, -0.000000000000000000, 1.000000000000000000 ) ) ;
#773 = CYLINDRICAL_SURFACE ( 'NONE', #1032, 4.990000000000000213 ) ;
#774 = VERTEX_POINT ( 'NONE', #634 ) ;
#775 = ORIENTED_EDGE ( 'NONE', *, *, #498, .T. ) ;
#776 = DIRECTION ( 'NONE',  ( -1.000000000000000000, -0.000000000000000000, -0.000000000000000000 ) ) ;
#777 = CARTESIAN_POINT ( 'NONE',  ( 26.00000000000000355, 0.000000000000000000, -4.990000000000003766 ) ) ;
#778 = DIRECTION ( 'NONE',  ( -1.000000000000000000, -0.000000000000000000, -0.000000000000000000 ) ) ;
#779 = CARTESIAN_POINT ( 'NONE',  ( 4.000000000000000000, 0.000000000000000000, 4.990000000000001101 ) ) ;
#780 = ORIENTED_EDGE ( 'NONE', *, *, #350, .T. ) ;
#781 = ORIENTED_EDGE ( 'NONE', *, *, #895, .T. ) ;
#782 = UNCERTAINTY_MEASURE_WITH_UNIT (LENGTH_MEASURE( 1.000000000000000082E-05 ), #602, 'distance_accuracy_value', 'NONE');
#783 = LINE ( 'NONE', #941, #598 ) ;
#784 = DIRECTION ( 'NONE',  ( 0.000000000000000000, 0.000000000000000000, 1.000000000000000000 ) ) ;
#785 = EDGE_CURVE ( 'NONE', #432, #424, #455, .T. ) ;
#786 = AXIS2_PLACEMENT_3D ( 'NONE', #323, #303, #548 ) ;
#787 = ORIENTED_EDGE ( 'NONE', *, *, #785, .T. ) ;
#788 = CIRCLE ( 'NONE', #328, 4.990000000000004654 ) ;
#789 = DIRECTION ( 'NONE',  ( 0.000000000000000000, 0.000000000000000000, 1.000000000000000000 ) ) ;
#790 = FACE_OUTER_BOUND ( 'NONE', #65, .T. ) ;
#791 = ORIENTED_EDGE ( 'NONE', *, *, #675, .T. ) ;
#792 = DIRECTION ( 'NONE',  ( -1.000000000000000000, -0.000000000000000000, -0.000000000000000000 ) ) ;
#793 = AXIS2_PLACEMENT_3D ( 'NONE', #962, #71, #397 ) ;
#794 = DIRECTION ( 'NONE',  ( -1.000000000000000000, -0.000000000000000000, -0.000000000000000000 ) ) ;
#795 = ORIENTED_EDGE ( 'NONE', *, *, #1018, .F. ) ;
#796 = EDGE_CURVE ( 'NONE', #801, #218, #312, .T. ) ;
#797 = CARTESIAN_POINT ( 'NONE',  ( 4.000000000000000000, 0.000000000000000000, -4.990000000000001101 ) ) ;
#798 = EDGE_LOOP ( 'NONE', ( #262, #643, #787, #107 ) ) ;
#799 = PLANE ( 'NONE',  #793 ) ;
#800 = AXIS2_PLACEMENT_3D ( 'NONE', #284, #1012, #752 ) ;
#801 = VERTEX_POINT ( 'NONE', #59 ) ;
#802 = AXIS2_PLACEMENT_3D ( 'NONE', #337, #1022, #772 ) ;
#803 = DIRECTION ( 'NONE',  ( 1.000000000000000000, 0.000000000000000000, 0.000000000000000000 ) ) ;
#804 = EDGE_CURVE ( 'NONE', #1017, #918, #903, .T. ) ;
#805 = CIRCLE ( 'NONE', #313, 4.790000000000005365 ) ;
#806 = VERTEX_POINT ( 'NONE', #779 ) ;
#807 = CARTESIAN_POINT ( 'NONE',  ( 30.50000000000000000, 0.000000000000000000, 0.000000000000000000 ) ) ;
#808 = APPLICATION_CONTEXT ( 'configuration controlled 3d designs of mechanical parts and assemblies' ) ;
#809 = LINE ( 'NONE', #404, #937 ) ;
#810 = ORIENTED_EDGE ( 'NONE', *, *, #19, .T. ) ;
#811 = CARTESIAN_POINT ( 'NONE',  ( 14.00000000000000000, 2.000000000000002665, 4.571662717217883198 ) ) ;
#812 = DIRECTION ( 'NONE',  ( -1.000000000000000000, -0.000000000000000000, -0.000000000000000000 ) ) ;
#813 = ORIENTED_EDGE ( 'NONE', *, *, #311, .F. ) ;
#814 = PLANE ( 'NONE',  #597 ) ;
#815 = EDGE_CURVE ( 'NONE', #599, #1033, #734, .T. ) ;
#816 = DIRECTION ( 'NONE',  ( -1.000000000000000000, -0.000000000000000000, -0.000000000000000000 ) ) ;
#817 = AXIS2_PLACEMENT_3D ( 'NONE', #988, #666, #656 ) ;
#818 = CIRCLE ( 'NONE', #480, 4.990000000000000213 ) ;
#819 = ORIENTED_EDGE ( 'NONE', *, *, #709, .F. ) ;
#820 = CARTESIAN_POINT ( 'NONE',  ( 14.00000000000000000, -1.999999999999997335, 7.228416147400479552 ) ) ;
#821 = VECTOR ( 'NONE', #554, 1000.000000000000000 ) ;
#822 = LINE ( 'NONE', #585, #412 ) ;
#823 = FACE_OUTER_BOUND ( 'NONE', #898, .T. ) ;
#824 = FACE_OUTER_BOUND ( 'NONE', #837, .T. ) ;
#825 = CC_DESIGN_SECURITY_CLASSIFICATION ( #403, ( #266 ) ) ;
#826 = CARTESIAN_POINT ( 'NONE',  ( 26.00000000000000000, 0.000000000000000000, 4.990000000000003766 ) ) ;
#827 = EDGE_CURVE ( 'NONE', #678, #559, #887, .T. ) ;
#828 = ORIENTED_EDGE ( 'NONE', *, *, #198, .F. ) ;
#829 = DATE_AND_TIME ( #181, #98 ) ;
#830 = ORIENTED_EDGE ( 'NONE', *, *, #517, .F. ) ;
#831 = PLANE ( 'NONE',  #379 ) ;
#832 = AXIS2_PLACEMENT_3D ( 'NONE', #357, #854, #688 ) ;
#833 = EDGE_LOOP ( 'NONE', ( #608, #724, #648, #624, #893, #591 ) ) ;
#834 = PERSON_AND_ORGANIZATION ( #623, #878 ) ;
#835 = APPROVAL ( #442, 'UNSPECIFIED' ) ;
#836 = AXIS2_PLACEMENT_3D ( 'NONE', #391, #942, #126 ) ;
#837 = EDGE_LOOP ( 'NONE', ( #29, #538, #995, #993 ) ) ;
#838 = VERTEX_POINT ( 'NONE', #54 ) ;
#839 = LINE ( 'NONE', #365, #549 ) ;
#840 = CYLINDRICAL_SURFACE ( 'NONE', #90, 4.990000000000002878 ) ;
#841 = DATE_TIME_ROLE ( 'creation_date' ) ;
#842 = EDGE_CURVE ( 'NONE', #678, #761, #933, .T. ) ;
#843 = CARTESIAN_POINT ( 'NONE',  ( 30.50000000000000000, 0.000000000000000000, 0.000000000000000000 ) ) ;
#844 = DIRECTION ( 'NONE',  ( 1.000000000000000000, 0.000000000000000000, -0.000000000000000000 ) ) ;
#845 = ORIENTED_EDGE ( 'NONE', *, *, #690, .F. ) ;
#846 = EDGE_CURVE ( 'NONE', #936, #838, #310, .T. ) ;
#847 = ORIENTED_EDGE ( 'NONE', *, *, #657, .F. ) ;
#848 = CARTESIAN_POINT ( 'NONE',  ( 0.000000000000000000, 5.866058167915829334E-16, -4.790000000000006253 ) ) ;
#849 = CYLINDRICAL_SURFACE ( 'NONE', #956, 4.990000000000001101 ) ;
#850 = DIRECTION ( 'NONE',  ( -1.000000000000000000, -0.000000000000000000, -0.000000000000000000 ) ) ;
#851 = CARTESIAN_POINT ( 'NONE',  ( 1.224646799147250347E-18, 0.000000000000000000, 0.000000000000000000 ) ) ;
#852 = AXIS2_PLACEMENT_3D ( 'NONE', #368, #628, #784 ) ;
#853 = VERTEX_POINT ( 'NONE', #612 ) ;
#854 = DIRECTION ( 'NONE',  ( -1.000000000000000000, -0.000000000000000000, -0.000000000000000000 ) ) ;
#855 = CARTESIAN_POINT ( 'NONE',  ( 0.000000000000000000, 0.000000000000000000, 4.990000000000001101 ) ) ;
#856 = DIRECTION ( 'NONE',  ( 0.000000000000000000, 0.000000000000000000, 1.000000000000000000 ) ) ;
#857 = VERTEX_POINT ( 'NONE', #47 ) ;
#858 = ORIENTED_EDGE ( 'NONE', *, *, #375, .F. ) ;
#859 = CARTESIAN_POINT ( 'NONE',  ( 0.000000000000000000, 2.000000000000002665, -7.218039900139096687 ) ) ;
#860 = CC_DESIGN_APPROVAL ( #460, ( #266 ) ) ;
#861 = CARTESIAN_POINT ( 'NONE',  ( 0.000000000000000000, 5.866058167915823418E-16, -4.790000000000000924 ) ) ;
#862 = EDGE_CURVE ( 'NONE', #493, #151, #257, .T. ) ;
#863 = CARTESIAN_POINT ( 'NONE',  ( 39.50000000000000711, 6.110987527745299433E-16, -4.990000000000004654 ) ) ;
#864 = ORIENTED_EDGE ( 'NONE', *, *, #298, .F. ) ;
#865 = CYLINDRICAL_SURFACE ( 'NONE', #684, 7.490000000000001990 ) ;
#866 = DATE_AND_TIME ( #947, #990 ) ;
#867 = EDGE_CURVE ( 'NONE', #140, #762, #701, .T. ) ;
#868 = CARTESIAN_POINT ( 'NONE',  ( 0.000000000000000000, 0.000000000000000000, 0.000000000000000000 ) ) ;
#869 = AXIS2_PLACEMENT_3D ( 'NONE', #91, #738, #419 ) ;
#870 = CIRCLE ( 'NONE', #582, 4.990000000000004654 ) ;
#871 = ORIENTED_EDGE ( 'NONE', *, *, #842, .T. ) ;
#872 = DIRECTION ( 'NONE',  ( 0.000000000000000000, 0.000000000000000000, -1.000000000000000000 ) ) ;
#873 = CARTESIAN_POINT ( 'NONE',  ( 30.50000000000000000, 0.000000000000000000, 0.000000000000000000 ) ) ;
#874 = ADVANCED_FACE ( 'NONE', ( #1015 ), #536, .T. ) ;
#875 = EDGE_LOOP ( 'NONE', ( #617, #579 ) ) ;
#876 = DESIGN_CONTEXT ( 'detailed design', #1016, 'design' ) ;
#877 = CARTESIAN_POINT ( 'NONE',  ( 0.000000000000000000, 0.000000000000000000, 0.000000000000000000 ) ) ;
#878 = ORGANIZATION ( 'UNSPECIFIED', 'UNSPECIFIED', '' ) ;
#879 = EDGE_LOOP ( 'NONE', ( #687, #1036 ) ) ;
#880 = DIRECTION ( 'NONE',  ( -1.000000000000000000, -0.000000000000000000, -0.000000000000000000 ) ) ;
#881 = ORIENTED_EDGE ( 'NONE', *, *, #607, .F. ) ;
#882 = EDGE_CURVE ( 'NONE', #155, #2, #143, .T. ) ;
#883 = CARTESIAN_POINT ( 'NONE',  ( 0.000000000000000000, 0.000000000000000000, 0.000000000000000000 ) ) ;
#884 = ORIENTED_EDGE ( 'NONE', *, *, #1041, .T. ) ;
#885 = DIRECTION ( 'NONE',  ( 0.000000000000000000, 0.000000000000000000, 1.000000000000000000 ) ) ;
#886 = AXIS2_PLACEMENT_3D ( 'NONE', #94, #176, #651 ) ;
#887 = CIRCLE ( 'NONE', #852, 4.990000000000006430 ) ;
#888 = DIRECTION ( 'NONE',  ( -1.000000000000000000, -0.000000000000000000, -0.000000000000000000 ) ) ;
#889 = CIRCLE ( 'NONE', #161, 4.990000000000001101 ) ;
#890 = ORIENTED_EDGE ( 'NONE', *, *, #414, .F. ) ;
#891 = DIRECTION ( 'NONE',  ( -0.000000000000000000, -0.000000000000000000, 1.000000000000000000 ) ) ;
#892 = CARTESIAN_POINT ( 'NONE',  ( 14.00000000000000000, 0.000000000000000000, 0.000000000000000000 ) ) ;
#893 = ORIENTED_EDGE ( 'NONE', *, *, #491, .T. ) ;
#894 = CARTESIAN_POINT ( 'NONE',  ( 3.000000000000000000, 0.000000000000000000, 0.000000000000000000 ) ) ;
#895 = EDGE_CURVE ( 'NONE', #697, #168, #616, .T. ) ;
#896 = LOCAL_TIME ( 13, 49, 6.000000000000000000, #192 ) ;
#897 = FACE_OUTER_BOUND ( 'NONE', #879, .T. ) ;
#898 = EDGE_LOOP ( 'NONE', ( #119, #136, #908, #1020, #172, #314 ) ) ;
#899 = LINE ( 'NONE', #730, #228 ) ;
#900 = ADVANCED_FACE ( 'NONE', ( #790 ), #773, .T. ) ;
#901 = CARTESIAN_POINT ( 'NONE',  ( 0.000000000000000000, 0.000000000000000000, 4.990000000000005542 ) ) ;
#902 = VECTOR ( 'NONE', #919, 1000.000000000000000 ) ;
#903 = CIRCLE ( 'NONE', #718, 4.790000000000000924 ) ;
#904 = ORIENTED_EDGE ( 'NONE', *, *, #867, .T. ) ;
#905 = EDGE_CURVE ( 'NONE', #424, #316, #870, .T. ) ;
#906 = DIRECTION ( 'NONE',  ( 0.000000000000000000, 0.000000000000000000, 1.000000000000000000 ) ) ;
#907 = VERTEX_POINT ( 'NONE', #649 ) ;
#908 = ORIENTED_EDGE ( 'NONE', *, *, #939, .T. ) ;
#909 = EDGE_CURVE ( 'NONE', #289, #991, #984, .T. ) ;
#910 = DIRECTION ( 'NONE',  ( 1.000000000000000000, 0.000000000000000000, -0.000000000000000000 ) ) ;
#911 = VERTEX_POINT ( 'NONE', #159 ) ;
#912 = PERSON_AND_ORGANIZATION ( #623, #878 ) ;
#913 = LINE ( 'NONE', #524, #142 ) ;
#914 = AXIS2_PLACEMENT_3D ( 'NONE', #32, #123, #764 ) ;
#915 = FACE_OUTER_BOUND ( 'NONE', #399, .T. ) ;
#916 = EDGE_CURVE ( 'NONE', #853, #297, #533, .T. ) ;
#917 = CIRCLE ( 'NONE', #6, 7.490000000000001990 ) ;
#918 = VERTEX_POINT ( 'NONE', #406 ) ;
#919 = DIRECTION ( 'NONE',  ( -1.000000000000000000, -0.000000000000000000, -0.000000000000000000 ) ) ;
#920 = CARTESIAN_POINT ( 'NONE',  ( 24.00000000000000000, 0.000000000000000000, 0.000000000000000000 ) ) ;
#921 = APPROVAL_ROLE ( '' ) ;
#922 = CC_DESIGN_DATE_AND_TIME_ASSIGNMENT ( #595, #841, ( #615 ) ) ;
#923 = LOCAL_TIME ( 13, 49, 6.000000000000000000, #766 ) ;
#924 = EDGE_LOOP ( 'NONE', ( #810, #871, #989, #613 ) ) ;
#925 = DIRECTION ( 'NONE',  ( 1.000000000000000000, 0.000000000000000000, 0.000000000000000000 ) ) ;
#926 = CARTESIAN_POINT ( 'NONE',  ( 1.224646799147250347E-18, 6.110987527745293517E-16, -4.990000000000000213 ) ) ;
#927 = DIRECTION ( 'NONE',  ( 0.000000000000000000, 0.000000000000000000, 1.000000000000000000 ) ) ;
#928 = ORIENTED_EDGE ( 'NONE', *, *, #205, .T. ) ;
#929 = DIRECTION ( 'NONE',  ( 0.000000000000000000, 0.000000000000000000, 1.000000000000000000 ) ) ;
#930 = CARTESIAN_POINT ( 'NONE',  ( 0.000000000000000000, 0.000000000000000000, 0.000000000000000000 ) ) ;
#931 = AXIS2_PLACEMENT_3D ( 'NONE', #105, #324, #408 ) ;
#932 = FACE_OUTER_BOUND ( 'NONE', #924, .T. ) ;
#933 = LINE ( 'NONE', #287, #106 ) ;
#934 = VECTOR ( 'NONE', #958, 1000.000000000000000 ) ;
#935 = AXIS2_PLACEMENT_3D ( 'NONE', #416, #500, #14 ) ;
#936 = VERTEX_POINT ( 'NONE', #740 ) ;
#937 = VECTOR ( 'NONE', #728, 1000.000000000000000 ) ;
#938 = ORIENTED_EDGE ( 'NONE', *, *, #1041, .F. ) ;
#939 = EDGE_CURVE ( 'NONE', #140, #493, #972, .T. ) ;
#940 = CARTESIAN_POINT ( 'NONE',  ( 4.000000000000000000, 5.866058167915824404E-16, -4.790000000000001812 ) ) ;
#941 = CARTESIAN_POINT ( 'NONE',  ( 0.000000000000000000, 0.000000000000000000, 4.790000000000000924 ) ) ;
#942 = DIRECTION ( 'NONE',  ( -1.000000000000000000, -0.000000000000000000, -0.000000000000000000 ) ) ;
#943 = ORIENTED_EDGE ( 'NONE', *, *, #997, .T. ) ;
#944 = ORIENTED_EDGE ( 'NONE', *, *, #80, .F. ) ;
#945 = EDGE_CURVE ( 'NONE', #1033, #599, #413, .T. ) ;
#946 = DIRECTION ( 'NONE',  ( 0.000000000000000000, 0.000000000000000000, 1.000000000000000000 ) ) ;
#947 = CALENDAR_DATE ( 2026, 31, 7 ) ;
#948 = LINE ( 'NONE', #67, #175 ) ;
#949 = ORIENTED_EDGE ( 'NONE', *, *, #394, .T. ) ;
#950 = DIRECTION ( 'NONE',  ( 0.000000000000000000, 0.000000000000000000, 1.000000000000000000 ) ) ;
#951 = DIRECTION ( 'NONE',  ( -1.000000000000000000, -0.000000000000000000, -0.000000000000000000 ) ) ;
#952 = DIRECTION ( 'NONE',  ( -1.000000000000000000, -0.000000000000000000, -0.000000000000000000 ) ) ;
#953 = ADVANCED_FACE ( 'NONE', ( #736 ), #15, .T. ) ;
#954 = CIRCLE ( 'NONE', #703, 4.990000000000003766 ) ;
#955 = EDGE_LOOP ( 'NONE', ( #739, #654, #234, #625, #511, #467, #819, #55 ) ) ;
#956 = AXIS2_PLACEMENT_3D ( 'NONE', #930, #209, #152 ) ;
#957 = CYLINDRICAL_SURFACE ( 'NONE', #529, 4.790000000000006253 ) ;
#958 = DIRECTION ( 'NONE',  ( 0.000000000000000000, 0.000000000000000000, -1.000000000000000000 ) ) ;
#959 = ORIENTED_EDGE ( 'NONE', *, *, #170, .F. ) ;
#960 = CARTESIAN_POINT ( 'NONE',  ( 4.000000000000000000, 0.000000000000000000, 0.000000000000000000 ) ) ;
#961 = VERTEX_POINT ( 'NONE', #811 ) ;
#962 = CARTESIAN_POINT ( 'NONE',  ( 29.50000000000000000, 0.000000000000000000, -4.790000000000005365 ) ) ;
#963 = FACE_OUTER_BOUND ( 'NONE', #296, .T. ) ;
#964 = ORIENTED_EDGE ( 'NONE', *, *, #939, .F. ) ;
#965 = DIRECTION ( 'NONE',  ( -1.000000000000000000, -0.000000000000000000, -0.000000000000000000 ) ) ;
#966 = AXIS2_PLACEMENT_3D ( 'NONE', #120, #665, #411 ) ;
#967 = AXIS2_PLACEMENT_3D ( 'NONE', #204, #374, #211 ) ;
#968 = ADVANCED_FACE ( 'NONE', ( #79 ), #402, .T. ) ;
#969 = AXIS2_PLACEMENT_3D ( 'NONE', #662, #979, #254 ) ;
#970 = CARTESIAN_POINT ( 'NONE',  ( 38.50000000000000000, 6.110987527745298447E-16, -4.990000000000004654 ) ) ;
#971 = EDGE_LOOP ( 'NONE', ( #409, #321, #858, #828 ) ) ;
#972 = LINE ( 'NONE', #820, #670 ) ;
#973 = FACE_OUTER_BOUND ( 'NONE', #833, .T. ) ;
#974 = EDGE_CURVE ( 'NONE', #349, #762, #917, .T. ) ;
#975 = ORIENTED_EDGE ( 'NONE', *, *, #974, .T. ) ;
#976 = DIRECTION ( 'NONE',  ( 0.000000000000000000, 0.000000000000000000, 1.000000000000000000 ) ) ;
#977 = DIRECTION ( 'NONE',  ( 0.000000000000000000, 0.000000000000000000, 1.000000000000000000 ) ) ;
#978 = DIRECTION ( 'NONE',  ( -1.000000000000000000, -0.000000000000000000, -0.000000000000000000 ) ) ;
#979 = DIRECTION ( 'NONE',  ( -1.000000000000000000, -0.000000000000000000, -0.000000000000000000 ) ) ;
#980 = CALENDAR_DATE ( 2026, 31, 7 ) ;
#981 = ADVANCED_FACE ( 'NONE', ( #571 ), #814, .T. ) ;
#982 = CARTESIAN_POINT ( 'NONE',  ( 0.000000000000000000, -1.999999999999997335, -7.218039900139097576 ) ) ;
#983 = AXIS2_PLACEMENT_3D ( 'NONE', #363, #778, #759 ) ;
#984 = CIRCLE ( 'NONE', #510, 7.490000000000001990 ) ;
#985 = EDGE_LOOP ( 'NONE', ( #206, #635 ) ) ;
#986 = PERSON_AND_ORGANIZATION_ROLE ( 'classification_officer' ) ;
#987 = EDGE_CURVE ( 'NONE', #307, #630, #899, .T. ) ;
#988 = CARTESIAN_POINT ( 'NONE',  ( 24.00000000000000000, 0.000000000000000000, 0.000000000000000000 ) ) ;
#989 = ORIENTED_EDGE ( 'NONE', *, *, #726, .F. ) ;
#990 = LOCAL_TIME ( 13, 49, 6.000000000000000000, #52 ) ;
#991 = VERTEX_POINT ( 'NONE', #322 ) ;
#992 = LINE ( 'NONE', #268, #340 ) ;
#993 = ORIENTED_EDGE ( 'NONE', *, *, #89, .F. ) ;
#994 = PERSON_AND_ORGANIZATION ( #623, #878 ) ;
#995 = ORIENTED_EDGE ( 'NONE', *, *, #804, .F. ) ;
#996 = FACE_OUTER_BOUND ( 'NONE', #751, .T. ) ;
#997 = EDGE_CURVE ( 'NONE', #762, #349, #83, .T. ) ;
#998 = CIRCLE ( 'NONE', #914, 4.990000000000001101 ) ;
#999 = DIRECTION ( 'NONE',  ( -0.000000000000000000, -0.000000000000000000, 1.000000000000000000 ) ) ;
#1000 = CARTESIAN_POINT ( 'NONE',  ( 0.000000000000000000, 0.000000000000000000, 0.000000000000000000 ) ) ;
#1001 = DIRECTION ( 'NONE',  ( -1.000000000000000000, -0.000000000000000000, -0.000000000000000000 ) ) ;
#1002 = ORIENTED_EDGE ( 'NONE', *, *, #394, .F. ) ;
#1003 = CARTESIAN_POINT ( 'NONE',  ( 4.000000000000000000, 6.110987527745294503E-16, -4.990000000000001101 ) ) ;
#1004 = CARTESIAN_POINT ( 'NONE',  ( 14.00000000000000000, 2.000000000000002665, 7.228416147400479552 ) ) ;
#1005 = LOCAL_TIME ( 13, 49, 6.000000000000000000, #96 ) ;
#1006 = DIRECTION ( 'NONE',  ( -1.000000000000000000, -0.000000000000000000, -0.000000000000000000 ) ) ;
#1007 = DIRECTION ( 'NONE',  ( -0.000000000000000000, 0.000000000000000000, -1.000000000000000000 ) ) ;
#1008 = DIRECTION ( 'NONE',  ( -1.000000000000000000, -0.000000000000000000, -0.000000000000000000 ) ) ;
#1009 = EDGE_CURVE ( 'NONE', #168, #697, #818, .T. ) ;
#1010 = VERTEX_POINT ( 'NONE', #173 ) ;
#1011 = VERTEX_POINT ( 'NONE', #494 ) ;
#1012 = DIRECTION ( 'NONE',  ( -1.000000000000000000, -0.000000000000000000, -0.000000000000000000 ) ) ;
#1013 = LINE ( 'NONE', #1004, #671 ) ;
#1014 = AXIS2_PLACEMENT_3D ( 'NONE', #207, #925, #451 ) ;
#1015 = FACE_OUTER_BOUND ( 'NONE', #971, .T. ) ;
#1016 = APPLICATION_CONTEXT ( 'configuration controlled 3d designs of mechanical parts and assemblies' ) ;
#1017 = VERTEX_POINT ( 'NONE', #232 ) ;
#1018 = EDGE_CURVE ( 'NONE', #432, #401, #319, .T. ) ;
#1019 = VECTOR ( 'NONE', #465, 1000.000000000000000 ) ;
#1020 = ORIENTED_EDGE ( 'NONE', *, *, #261, .T. ) ;
#1021 = DIRECTION ( 'NONE',  ( 0.000000000000000000, 0.000000000000000000, 1.000000000000000000 ) ) ;
#1022 = DIRECTION ( 'NONE',  ( -0.000000000000000000, 1.000000000000000000, 0.000000000000000000 ) ) ;
#1023 = DIRECTION ( 'NONE',  ( -0.000000000000000000, -0.000000000000000000, 1.000000000000000000 ) ) ;
#1024 = ORIENTED_EDGE ( 'NONE', *, *, #239, .F. ) ;
#1025 = ADVANCED_FACE ( 'NONE', ( #238, #476 ), #799, .F. ) ;
#1026 = DIRECTION ( 'NONE',  ( -1.000000000000000000, -0.000000000000000000, -0.000000000000000000 ) ) ;
#1027 = CARTESIAN_POINT ( 'NONE',  ( 14.00000000000000000, 6.110987527745294503E-16, -4.990000000000001101 ) ) ;
#1028 = EDGE_LOOP ( 'NONE', ( #975, #943 ) ) ;
#1029 = DIRECTION ( 'NONE',  ( 0.000000000000000000, 0.000000000000000000, 1.000000000000000000 ) ) ;
#1030 = EDGE_CURVE ( 'NONE', #961, #630, #282, .T. ) ;
#1031 = DIRECTION ( 'NONE',  ( -1.000000000000000000, -0.000000000000000000, -0.000000000000000000 ) ) ;
#1032 = AXIS2_PLACEMENT_3D ( 'NONE', #461, #335, #885 ) ;
#1033 = VERTEX_POINT ( 'NONE', #274 ) ;
#1034 = AXIS2_PLACEMENT_3D ( 'NONE', #627, #803, #562 ) ;
#1035 = CARTESIAN_POINT ( 'NONE',  ( 0.000000000000000000, 6.110987527745294503E-16, -4.990000000000001101 ) ) ;
#1036 = ORIENTED_EDGE ( 'NONE', *, *, #731, .F. ) ;
#1037 = DIRECTION ( 'NONE',  ( -1.000000000000000000, -0.000000000000000000, -0.000000000000000000 ) ) ;
#1038 = DIRECTION ( 'NONE',  ( 0.000000000000000000, 0.000000000000000000, 1.000000000000000000 ) ) ;
#1039 = EDGE_LOOP ( 'NONE', ( #830, #388 ) ) ;
#1040 = DIRECTION ( 'NONE',  ( 0.000000000000000000, 0.000000000000000000, 1.000000000000000000 ) ) ;
#1041 = EDGE_CURVE ( 'NONE', #907, #481, #741, .T. ) ;
ENDSEC;
END-ISO-10303-21;
