ISO-10303-21;
HEADER;
FILE_DESCRIPTION (( 'STEP AP203' ),
    '1' );
FILE_NAME ('Link1LShapeConnectorBig_Default_sldprt.STEP',
    '2026-07-31T10:18:46',
    ( '' ),
    ( '' ),
    'SwSTEP 2.0',
    'SolidWorks 2025',
    '' );
FILE_SCHEMA (( 'CONFIG_CONTROL_DESIGN' ));
ENDSEC;

DATA;
#1 = VECTOR ( 'NONE', #448, 1000.000000000000000 ) ;
#2 = AXIS2_PLACEMENT_3D ( 'NONE', #524, #459, #729 ) ;
#3 = PLANE ( 'NONE',  #558 ) ;
#4 = ADVANCED_FACE ( 'NONE', ( #894 ), #554, .F. ) ;
#5 = DIRECTION ( 'NONE',  ( 0.000000000000000000, 0.000000000000000000, 1.000000000000000000 ) ) ;
#6 = EDGE_CURVE ( 'NONE', #195, #194, #424, .T. ) ;
#7 = DIRECTION ( 'NONE',  ( 0.000000000000000000, 1.000000000000000000, 0.000000000000000000 ) ) ;
#8 = CARTESIAN_POINT ( 'NONE',  ( 75.00000000000000000, 20.00000000000000000, 10.00000000000000178 ) ) ;
#9 = DATE_TIME_ROLE ( 'creation_date' ) ;
#10 = LINE ( 'NONE', #359, #472 ) ;
#11 = CARTESIAN_POINT ( 'NONE',  ( -75.00000000000000000, 0.000000000000000000, -10.00000000000000178 ) ) ;
#12 = VECTOR ( 'NONE', #857, 1000.000000000000000 ) ;
#13 = APPROVAL_DATE_TIME ( #447, #404 ) ;
#14 = CIRCLE ( 'NONE', #743, 75.00000000000001421 ) ;
#15 = DIRECTION ( 'NONE',  ( -0.000000000000000000, 1.000000000000000000, -0.000000000000000000 ) ) ;
#16 = VECTOR ( 'NONE', #500, 1000.000000000000000 ) ;
#17 = CARTESIAN_POINT ( 'NONE',  ( 130.0000000000000000, 20.00000000000000000, -9.999999999999998224 ) ) ;
#18 = ADVANCED_FACE ( 'NONE', ( #687 ), #490, .F. ) ;
#19 = CALENDAR_DATE ( 2026, 31, 7 ) ;
#20 = LINE ( 'NONE', #569, #830 ) ;
#21 = EDGE_CURVE ( 'NONE', #620, #752, #882, .T. ) ;
#22 = ORIENTED_EDGE ( 'NONE', *, *, #251, .F. ) ;
#23 = CYLINDRICAL_SURFACE ( 'NONE', #326, 20.00000000000000000 ) ;
#24 = ORIENTED_EDGE ( 'NONE', *, *, #722, .T. ) ;
#25 = CARTESIAN_POINT ( 'NONE',  ( -75.00000000000001421, 0.000000000000000000, -40.00000000000000000 ) ) ;
#26 = VERTEX_POINT ( 'NONE', #350 ) ;
#27 = CARTESIAN_POINT ( 'NONE',  ( -130.0000000000000000, 20.00000000000000000, 30.00000000000000000 ) ) ;
#28 = ORIENTED_EDGE ( 'NONE', *, *, #841, .T. ) ;
#29 =( GEOMETRIC_REPRESENTATION_CONTEXT ( 3 ) GLOBAL_UNCERTAINTY_ASSIGNED_CONTEXT ( ( #724 ) ) GLOBAL_UNIT_ASSIGNED_CONTEXT ( ( #136, #479, #347 ) ) REPRESENTATION_CONTEXT ( 'NONE', 'WORKASPACE' ) );
#30 = DIRECTION ( 'NONE',  ( -0.000000000000000000, -0.000000000000000000, 1.000000000000000000 ) ) ;
#31 = VECTOR ( 'NONE', #387, 1000.000000000000000 ) ;
#32 = DIRECTION ( 'NONE',  ( 0.000000000000000000, 1.000000000000000000, -0.000000000000000000 ) ) ;
#33 = VECTOR ( 'NONE', #809, 1000.000000000000000 ) ;
#34 = DIRECTION ( 'NONE',  ( 1.387778780781445478E-15, 0.000000000000000000, 1.000000000000000000 ) ) ;
#35 = FACE_OUTER_BOUND ( 'NONE', #336, .T. ) ;
#36 = DESIGN_CONTEXT ( 'detailed design', #321, 'design' ) ;
#37 = CARTESIAN_POINT ( 'NONE',  ( 75.00000000000000000, -134.1640786499874025, -10.00000000000000178 ) ) ;
#38 = EDGE_LOOP ( 'NONE', ( #415, #516, #273, #783 ) ) ;
#39 = CARTESIAN_POINT ( 'NONE',  ( 75.00000000000001421, 20.00000000000000000, 40.00000000000000000 ) ) ;
#40 = DIRECTION ( 'NONE',  ( -0.000000000000000000, -1.000000000000000000, -0.000000000000000000 ) ) ;
#41 = DIRECTION ( 'NONE',  ( -0.000000000000000000, -1.000000000000000000, -0.000000000000000000 ) ) ;
#42 = VECTOR ( 'NONE', #226, 1000.000000000000000 ) ;
#43 = ORIENTED_EDGE ( 'NONE', *, *, #841, .F. ) ;
#44 = VECTOR ( 'NONE', #163, 1000.000000000000000 ) ;
#45 = LINE ( 'NONE', #531, #116 ) ;
#46 = LINE ( 'NONE', #313, #501 ) ;
#47 = EDGE_CURVE ( 'NONE', #287, #138, #627, .T. ) ;
#48 = ORIENTED_EDGE ( 'NONE', *, *, #437, .T. ) ;
#49 = LINE ( 'NONE', #483, #281 ) ;
#50 = FACE_OUTER_BOUND ( 'NONE', #786, .T. ) ;
#51 = VERTEX_POINT ( 'NONE', #211 ) ;
#52 = ORIENTED_EDGE ( 'NONE', *, *, #528, .F. ) ;
#53 = CARTESIAN_POINT ( 'NONE',  ( 0.000000000000000000, 0.000000000000000000, 0.000000000000000000 ) ) ;
#54 = DIRECTION ( 'NONE',  ( 0.000000000000000000, -1.000000000000000000, 0.000000000000000000 ) ) ;
#55 = ORIENTED_EDGE ( 'NONE', *, *, #824, .T. ) ;
#56 = EDGE_CURVE ( 'NONE', #303, #551, #495, .T. ) ;
#57 = CIRCLE ( 'NONE', #130, 60.00000000000000000 ) ;
#58 = PRODUCT_DEFINITION_SHAPE ( 'NONE', 'NONE',  #726 ) ;
#59 = EDGE_LOOP ( 'NONE', ( #205, #679, #791, #492 ) ) ;
#60 = DIRECTION ( 'NONE',  ( -0.000000000000000000, 1.000000000000000000, -0.000000000000000000 ) ) ;
#61 = CARTESIAN_POINT ( 'NONE',  ( 130.0000000000000000, 20.00000000000000000, 30.00000000000000000 ) ) ;
#62 = DIRECTION ( 'NONE',  ( -0.000000000000000000, -1.000000000000000000, -0.000000000000000000 ) ) ;
#63 = ORIENTED_EDGE ( 'NONE', *, *, #437, .F. ) ;
#64 = CARTESIAN_POINT ( 'NONE',  ( 0.000000000000000000, 0.000000000000000000, 0.000000000000000000 ) ) ;
#65 = DIRECTION ( 'NONE',  ( -0.000000000000000000, 1.000000000000000000, -0.000000000000000000 ) ) ;
#66 = ORIENTED_EDGE ( 'NONE', *, *, #688, .F. ) ;
#67 = DIRECTION ( 'NONE',  ( 2.312964634635742895E-17, 0.000000000000000000, -1.000000000000000000 ) ) ;
#68 = EDGE_CURVE ( 'NONE', #244, #120, #70, .T. ) ;
#69 = DIRECTION ( 'NONE',  ( 0.000000000000000000, 0.000000000000000000, -1.000000000000000000 ) ) ;
#70 = LINE ( 'NONE', #355, #147 ) ;
#71 = AXIS2_PLACEMENT_3D ( 'NONE', #680, #616, #549 ) ;
#72 = ADVANCED_FACE ( 'NONE', ( #709 ), #307, .F. ) ;
#73 = LOCAL_TIME ( 13, 48, 46.00000000000000000, #154 ) ;
#74 = EDGE_CURVE ( 'NONE', #555, #498, #254, .T. ) ;
#75 = PERSON_AND_ORGANIZATION ( #399, #308 ) ;
#76 = CARTESIAN_POINT ( 'NONE',  ( 0.000000000000000000, 0.000000000000000000, 0.000000000000000000 ) ) ;
#77 = CC_DESIGN_PERSON_AND_ORGANIZATION_ASSIGNMENT ( #568, #294, ( #99 ) ) ;
#78 = EDGE_LOOP ( 'NONE', ( #306, #343, #176, #706 ) ) ;
#79 = LINE ( 'NONE', #711, #42 ) ;
#80 = CYLINDRICAL_SURFACE ( 'NONE', #762, 60.00000000000000000 ) ;
#81 = CARTESIAN_POINT ( 'NONE',  ( 150.0000000000000000, 20.00000000000000000, 30.00000000000000000 ) ) ;
#82 = LINE ( 'NONE', #510, #400 ) ;
#83 = EDGE_CURVE ( 'NONE', #695, #319, #377, .T. ) ;
#84 = CIRCLE ( 'NONE', #582, 10.00000000000000178 ) ;
#85 = CIRCLE ( 'NONE', #414, 75.00000000000001421 ) ;
#86 = DIRECTION ( 'NONE',  ( 0.000000000000000000, -1.000000000000000000, 0.000000000000000000 ) ) ;
#87 = ORIENTED_EDGE ( 'NONE', *, *, #872, .F. ) ;
#88 = DIRECTION ( 'NONE',  ( -0.000000000000000000, 1.000000000000000000, -0.000000000000000000 ) ) ;
#89 = EDGE_LOOP ( 'NONE', ( #694, #417 ) ) ;
#90 = DATE_AND_TIME ( #843, #878 ) ;
#91 = LINE ( 'NONE', #81, #1 ) ;
#92 = ORIENTED_EDGE ( 'NONE', *, *, #140, .T. ) ;
#93 = LINE ( 'NONE', #788, #44 ) ;
#94 = ORIENTED_EDGE ( 'NONE', *, *, #872, .T. ) ;
#95 = CARTESIAN_POINT ( 'NONE',  ( 150.0000000000000000, -134.1640786499874025, 10.00000000000000000 ) ) ;
#96 = ADVANCED_FACE ( 'NONE', ( #362 ), #80, .F. ) ;
#97 = ORIENTED_EDGE ( 'NONE', *, *, #799, .F. ) ;
#98 = DIRECTION ( 'NONE',  ( 0.000000000000000000, 1.000000000000000000, 0.000000000000000000 ) ) ;
#99 = PRODUCT_DEFINITION_FORMATION_WITH_SPECIFIED_SOURCE ( 'ANY', '', #617, .NOT_KNOWN. ) ;
#100 = DIRECTION ( 'NONE',  ( -1.000000000000000000, 0.000000000000000000, -2.312964634635742895E-17 ) ) ;
#101 = VERTEX_POINT ( 'NONE', #152 ) ;
#102 = AXIS2_PLACEMENT_3D ( 'NONE', #398, #540, #523 ) ;
#103 = CARTESIAN_POINT ( 'NONE',  ( -75.00000000000001421, 0.000000000000000000, 30.00000000000000000 ) ) ;
#104 = AXIS2_PLACEMENT_3D ( 'NONE', #454, #98, #636 ) ;
#105 = DIRECTION ( 'NONE',  ( -0.000000000000000000, -1.000000000000000000, -0.000000000000000000 ) ) ;
#106 = ORIENTED_EDGE ( 'NONE', *, *, #628, .T. ) ;
#107 = CARTESIAN_POINT ( 'NONE',  ( -75.00000000000001421, 20.00000000000000000, 40.00000000000000000 ) ) ;
#108 = DIRECTION ( 'NONE',  ( 0.000000000000000000, 0.000000000000000000, -1.000000000000000000 ) ) ;
#109 = CARTESIAN_POINT ( 'NONE',  ( 150.0000000000000000, 20.00000000000000000, 10.00000000000000000 ) ) ;
#110 = ORIENTED_EDGE ( 'NONE', *, *, #351, .F. ) ;
#111 = ADVANCED_FACE ( 'NONE', ( #846 ), #583, .T. ) ;
#112 = DIRECTION ( 'NONE',  ( -1.000000000000000000, 0.000000000000000000, -2.312964634635742895E-17 ) ) ;
#113 = AXIS2_PLACEMENT_3D ( 'NONE', #126, #883, #271 ) ;
#114 = CARTESIAN_POINT ( 'NONE',  ( 130.0000000000000000, 20.00000000000000000, -9.999999999999998224 ) ) ;
#115 = AXIS2_PLACEMENT_3D ( 'NONE', #114, #862, #735 ) ;
#116 = VECTOR ( 'NONE', #247, 1000.000000000000000 ) ;
#117 = VERTEX_POINT ( 'NONE', #27 ) ;
#118 = AXIS2_PLACEMENT_3D ( 'NONE', #536, #865, #249 ) ;
#119 = FACE_OUTER_BOUND ( 'NONE', #405, .T. ) ;
#120 = VERTEX_POINT ( 'NONE', #638 ) ;
#121 = ORIENTED_EDGE ( 'NONE', *, *, #816, .F. ) ;
#122 = EDGE_CURVE ( 'NONE', #647, #555, #850, .T. ) ;
#123 = DIRECTION ( 'NONE',  ( -1.000000000000000000, 0.000000000000000000, -0.000000000000000000 ) ) ;
#124 = EDGE_LOOP ( 'NONE', ( #625, #881, #513, #335 ) ) ;
#125 = VERTEX_POINT ( 'NONE', #505 ) ;
#126 = CARTESIAN_POINT ( 'NONE',  ( 130.0000000000000000, 0.000000000000000000, -9.999999999999998224 ) ) ;
#127 = CARTESIAN_POINT ( 'NONE',  ( -150.0000000000000000, 20.00000000000000000, 30.00000000000000000 ) ) ;
#128 = CIRCLE ( 'NONE', #529, 20.00000000000000000 ) ;
#129 = DIRECTION ( 'NONE',  ( 0.000000000000000000, 0.000000000000000000, 1.000000000000000000 ) ) ;
#130 = AXIS2_PLACEMENT_3D ( 'NONE', #848, #771, #704 ) ;
#131 = ORIENTED_EDGE ( 'NONE', *, *, #21, .T. ) ;
#132 = VECTOR ( 'NONE', #832, 1000.000000000000000 ) ;
#133 = CARTESIAN_POINT ( 'NONE',  ( 75.00000000000000000, 20.00000000000000000, -10.00000000000000178 ) ) ;
#134 = DIRECTION ( 'NONE',  ( 1.387778780781445478E-15, 0.000000000000000000, 1.000000000000000000 ) ) ;
#135 = ORIENTED_EDGE ( 'NONE', *, *, #262, .T. ) ;
#136 =( LENGTH_UNIT ( ) NAMED_UNIT ( * ) SI_UNIT ( .MILLI., .METRE. ) );
#137 = FACE_OUTER_BOUND ( 'NONE', #537, .T. ) ;
#138 = VERTEX_POINT ( 'NONE', #855 ) ;
#139 = APPROVAL_STATUS ( 'not_yet_approved' ) ;
#140 = EDGE_CURVE ( 'NONE', #227, #345, #82, .T. ) ;
#141 = DIRECTION ( 'NONE',  ( 0.000000000000000000, 1.000000000000000000, 0.000000000000000000 ) ) ;
#142 = ORIENTED_EDGE ( 'NONE', *, *, #528, .T. ) ;
#143 = LOCAL_TIME ( 13, 48, 46.00000000000000000, #744 ) ;
#144 = CIRCLE ( 'NONE', #585, 20.00000000000000000 ) ;
#145 = CIRCLE ( 'NONE', #658, 10.00000000000000178 ) ;
#146 = APPROVAL_DATE_TIME ( #425, #565 ) ;
#147 = VECTOR ( 'NONE', #520, 1000.000000000000000 ) ;
#148 = CARTESIAN_POINT ( 'NONE',  ( -150.0000000000000000, 0.000000000000000000, -10.00000000000000000 ) ) ;
#149 = CARTESIAN_POINT ( 'NONE',  ( 0.000000000000000000, 20.00000000000000000, 0.000000000000000000 ) ) ;
#150 = CALENDAR_DATE ( 2026, 31, 7 ) ;
#151 = DIRECTION ( 'NONE',  ( -0.000000000000000000, 1.000000000000000000, -0.000000000000000000 ) ) ;
#152 = CARTESIAN_POINT ( 'NONE',  ( -150.0000000000000000, 20.00000000000000000, -10.00000000000000000 ) ) ;
#153 = CC_DESIGN_PERSON_AND_ORGANIZATION_ASSIGNMENT ( #440, #290, ( #726 ) ) ;
#154 = COORDINATED_UNIVERSAL_TIME_OFFSET ( 3, 30, .AHEAD. ) ;
#155 = DIRECTION ( 'NONE',  ( 0.000000000000000000, 0.000000000000000000, 1.000000000000000000 ) ) ;
#156 = CARTESIAN_POINT ( 'NONE',  ( 0.000000000000000000, 0.000000000000000000, -75.00000000000001421 ) ) ;
#157 = ORIENTED_EDGE ( 'NONE', *, *, #83, .F. ) ;
#158 = CIRCLE ( 'NONE', #265, 10.00000000000000178 ) ;
#159 = CIRCLE ( 'NONE', #602, 20.00000000000000000 ) ;
#160 = DIRECTION ( 'NONE',  ( 0.000000000000000000, 0.000000000000000000, 1.000000000000000000 ) ) ;
#161 = EDGE_LOOP ( 'NONE', ( #511, #52, #747, #460 ) ) ;
#162 = VECTOR ( 'NONE', #65, 1000.000000000000000 ) ;
#163 = DIRECTION ( 'NONE',  ( -0.000000000000000000, -1.000000000000000000, -0.000000000000000000 ) ) ;
#164 = ADVANCED_FACE ( 'NONE', ( #712 ), #782, .T. ) ;
#165 = VERTEX_POINT ( 'NONE', #365 ) ;
#166 = LINE ( 'NONE', #452, #358 ) ;
#167 = ORIENTED_EDGE ( 'NONE', *, *, #594, .F. ) ;
#168 = DIRECTION ( 'NONE',  ( -0.000000000000000000, -1.000000000000000000, -0.000000000000000000 ) ) ;
#169 = ADVANCED_FACE ( 'NONE', ( #777 ), #23, .T. ) ;
#170 = DIRECTION ( 'NONE',  ( 0.000000000000000000, 0.000000000000000000, -1.000000000000000000 ) ) ;
#171 = VERTEX_POINT ( 'NONE', #156 ) ;
#172 = CARTESIAN_POINT ( 'NONE',  ( 75.00000000000000000, 0.000000000000000000, -10.00000000000000178 ) ) ;
#173 = EDGE_CURVE ( 'NONE', #723, #376, #443, .T. ) ;
#174 = CC_DESIGN_APPROVAL ( #660, ( #854 ) ) ;
#175 = DIRECTION ( 'NONE',  ( 1.000000000000000000, -0.000000000000000000, -2.312964634635742895E-17 ) ) ;
#176 = ORIENTED_EDGE ( 'NONE', *, *, #372, .T. ) ;
#177 = VECTOR ( 'NONE', #751, 1000.000000000000000 ) ;
#178 = DIRECTION ( 'NONE',  ( 0.000000000000000000, 0.000000000000000000, 1.000000000000000000 ) ) ;
#179 = ADVANCED_FACE ( 'NONE', ( #302 ), #578, .F. ) ;
#180 = CYLINDRICAL_SURFACE ( 'NONE', #475, 20.00000000000000000 ) ;
#181 = ORIENTED_EDGE ( 'NONE', *, *, #538, .T. ) ;
#182 = CYLINDRICAL_SURFACE ( 'NONE', #118, 10.00000000000000178 ) ;
#183 = ORIENTED_EDGE ( 'NONE', *, *, #184, .T. ) ;
#184 = EDGE_CURVE ( 'NONE', #858, #526, #93, .T. ) ;
#185 = CARTESIAN_POINT ( 'NONE',  ( -150.0000000000000000, 20.00000000000000000, 10.00000000000000000 ) ) ;
#186 = CARTESIAN_POINT ( 'NONE',  ( 75.00000000000001421, 20.00000000000000000, -30.00000000000000000 ) ) ;
#187 = VERTEX_POINT ( 'NONE', #240 ) ;
#188 = DIRECTION ( 'NONE',  ( -1.000000000000000000, 0.000000000000000000, -2.312964634635742895E-17 ) ) ;
#189 = DIRECTION ( 'NONE',  ( 0.000000000000000000, -1.000000000000000000, 0.000000000000000000 ) ) ;
#190 = CIRCLE ( 'NONE', #115, 20.00000000000000000 ) ;
#191 = ORIENTED_EDGE ( 'NONE', *, *, #593, .F. ) ;
#192 = EDGE_CURVE ( 'NONE', #564, #319, #502, .T. ) ;
#193 = CARTESIAN_POINT ( 'NONE',  ( 0.000000000000000000, 20.00000000000000000, 0.000000000000000000 ) ) ;
#194 = VERTEX_POINT ( 'NONE', #8 ) ;
#195 = VERTEX_POINT ( 'NONE', #567 ) ;
#196 = DIRECTION ( 'NONE',  ( 0.000000000000000000, 1.000000000000000000, 0.000000000000000000 ) ) ;
#197 = DIRECTION ( 'NONE',  ( -1.000000000000000000, 0.000000000000000000, 2.312964634635742895E-17 ) ) ;
#198 = ORIENTED_EDGE ( 'NONE', *, *, #6, .T. ) ;
#199 = ORIENTED_EDGE ( 'NONE', *, *, #514, .T. ) ;
#200 = APPLICATION_PROTOCOL_DEFINITION ( 'international standard', 'config_control_design', 1994, #546 ) ;
#201 = DIRECTION ( 'NONE',  ( 1.000000000000000000, -0.000000000000000000, -2.312964634635742895E-17 ) ) ;
#202 = AXIS2_PLACEMENT_3D ( 'NONE', #402, #67, #188 ) ;
#203 = DIRECTION ( 'NONE',  ( 1.000000000000000000, 0.000000000000000000, -0.000000000000000000 ) ) ;
#204 = CIRCLE ( 'NONE', #703, 75.00000000000001421 ) ;
#205 = ORIENTED_EDGE ( 'NONE', *, *, #688, .T. ) ;
#206 = AXIS2_PLACEMENT_3D ( 'NONE', #224, #780, #371 ) ;
#207 = APPLICATION_PROTOCOL_DEFINITION ( 'international standard', 'config_control_design', 1994, #321 ) ;
#208 = EDGE_CURVE ( 'NONE', #752, #125, #677, .T. ) ;
#209 = CARTESIAN_POINT ( 'NONE',  ( -130.0000000000000000, 20.00000000000000000, -30.00000000000000000 ) ) ;
#210 = ADVANCED_FACE ( 'NONE', ( #35 ), #732, .F. ) ;
#211 = CARTESIAN_POINT ( 'NONE',  ( 7.347880794884118356E-15, 20.00000000000000000, -60.00000000000000000 ) ) ;
#212 = ADVANCED_FACE ( 'NONE', ( #476 ), #182, .F. ) ;
#213 = CALENDAR_DATE ( 2026, 31, 7 ) ;
#214 = CARTESIAN_POINT ( 'NONE',  ( -150.0000000000000000, 0.000000000000000000, 10.00000000000000178 ) ) ;
#215 = ORIENTED_EDGE ( 'NONE', *, *, #484, .T. ) ;
#216 = DIRECTION ( 'NONE',  ( 0.000000000000000000, 0.000000000000000000, 1.000000000000000000 ) ) ;
#217 = CARTESIAN_POINT ( 'NONE',  ( -75.00000000000000000, -134.1640786499874025, -10.00000000000000178 ) ) ;
#218 = AXIS2_PLACEMENT_3D ( 'NONE', #95, #518, #793 ) ;
#219 = ADVANCED_FACE ( 'NONE', ( #810 ), #329, .T. ) ;
#220 = VECTOR ( 'NONE', #15, 1000.000000000000000 ) ;
#221 = EDGE_CURVE ( 'NONE', #870, #471, #533, .T. ) ;
#222 = AXIS2_PLACEMENT_3D ( 'NONE', #596, #746, #803 ) ;
#223 = LINE ( 'NONE', #364, #804 ) ;
#224 = CARTESIAN_POINT ( 'NONE',  ( -130.0000000000000000, 0.000000000000000000, -9.999999999999998224 ) ) ;
#225 = PERSON_AND_ORGANIZATION ( #399, #308 ) ;
#226 = DIRECTION ( 'NONE',  ( -1.000000000000000000, -0.000000000000000000, -0.000000000000000000 ) ) ;
#227 = VERTEX_POINT ( 'NONE', #325 ) ;
#228 = CARTESIAN_POINT ( 'NONE',  ( -150.0000000000000000, 20.00000000000000000, 30.00000000000000000 ) ) ;
#229 = ORIENTED_EDGE ( 'NONE', *, *, #753, .F. ) ;
#230 = COORDINATED_UNIVERSAL_TIME_OFFSET ( 3, 30, .AHEAD. ) ;
#231 = CARTESIAN_POINT ( 'NONE',  ( -66.17647058823530415, 0.000000000000000000, -35.29411764705883314 ) ) ;
#232 = VERTEX_POINT ( 'NONE', #253 ) ;
#233 = CARTESIAN_POINT ( 'NONE',  ( 75.00000000000001421, 20.00000000000000000, -40.00000000000000000 ) ) ;
#234 = AXIS2_PLACEMENT_3D ( 'NONE', #53, #817, #556 ) ;
#235 = ORIENTED_EDGE ( 'NONE', *, *, #790, .T. ) ;
#236 = AXIS2_PLACEMENT_3D ( 'NONE', #844, #852, #637 ) ;
#237 = AXIS2_PLACEMENT_3D ( 'NONE', #800, #250, #734 ) ;
#238 = DIRECTION ( 'NONE',  ( -0.000000000000000000, 1.000000000000000000, -0.000000000000000000 ) ) ;
#239 = VERTEX_POINT ( 'NONE', #807 ) ;
#240 = CARTESIAN_POINT ( 'NONE',  ( -66.17647058823530415, 0.000000000000000000, 35.29411764705883314 ) ) ;
#241 = ADVANCED_FACE ( 'NONE', ( #738 ), #457, .F. ) ;
#242 = EDGE_CURVE ( 'NONE', #120, #684, #469, .T. ) ;
#243 = FACE_OUTER_BOUND ( 'NONE', #269, .T. ) ;
#244 = VERTEX_POINT ( 'NONE', #381 ) ;
#245 = DIRECTION ( 'NONE',  ( -0.000000000000000000, -1.000000000000000000, -0.000000000000000000 ) ) ;
#246 = ADVANCED_BREP_SHAPE_REPRESENTATION ( 'Link1LShapeConnectorBig_Default_sldprt', ( #765, #339 ), #29 ) ;
#247 = DIRECTION ( 'NONE',  ( -0.000000000000000000, 1.000000000000000000, -0.000000000000000000 ) ) ;
#248 = ORIENTED_EDGE ( 'NONE', *, *, #74, .F. ) ;
#249 = DIRECTION ( 'NONE',  ( 0.000000000000000000, 0.000000000000000000, -1.000000000000000000 ) ) ;
#250 = DIRECTION ( 'NONE',  ( 0.000000000000000000, -1.000000000000000000, 0.000000000000000000 ) ) ;
#251 = EDGE_CURVE ( 'NONE', #621, #814, #190, .T. ) ;
#252 = ORIENTED_EDGE ( 'NONE', *, *, #74, .T. ) ;
#253 = CARTESIAN_POINT ( 'NONE',  ( -75.00000000000000000, 0.000000000000000000, 10.00000000000000178 ) ) ;
#254 = CIRCLE ( 'NONE', #206, 20.00000000000000000 ) ;
#255 = ORIENTED_EDGE ( 'NONE', *, *, #221, .F. ) ;
#256 = FACE_OUTER_BOUND ( 'NONE', #38, .T. ) ;
#257 = DIRECTION ( 'NONE',  ( 0.000000000000000000, 0.000000000000000000, -1.000000000000000000 ) ) ;
#258 = EDGE_LOOP ( 'NONE', ( #649, #574, #121, #97 ) ) ;
#259 = MECHANICAL_CONTEXT ( 'NONE', #546, 'mechanical' ) ;
#260 = CARTESIAN_POINT ( 'NONE',  ( 0.000000000000000000, 20.00000000000000000, 0.000000000000000000 ) ) ;
#261 = ORIENTED_EDGE ( 'NONE', *, *, #836, .F. ) ;
#262 = EDGE_CURVE ( 'NONE', #171, #629, #880, .T. ) ;
#263 = PERSON_AND_ORGANIZATION ( #399, #308 ) ;
#264 = CARTESIAN_POINT ( 'NONE',  ( -75.00000000000000000, 20.00000000000000000, 10.00000000000000178 ) ) ;
#265 = AXIS2_PLACEMENT_3D ( 'NONE', #39, #869, #873 ) ;
#266 = EDGE_CURVE ( 'NONE', #303, #620, #316, .T. ) ;
#267 = ORIENTED_EDGE ( 'NONE', *, *, #192, .T. ) ;
#268 = VECTOR ( 'NONE', #292, 1000.000000000000000 ) ;
#269 = EDGE_LOOP ( 'NONE', ( #309, #663, #772, #808 ) ) ;
#270 = PRODUCT_RELATED_PRODUCT_CATEGORY ( 'detail', '', ( #617 ) ) ;
#271 = DIRECTION ( 'NONE',  ( 0.000000000000000000, 0.000000000000000000, 1.000000000000000000 ) ) ;
#272 = CARTESIAN_POINT ( 'NONE',  ( -68.73863542433761609, 20.00000000000000000, -30.00000000000000000 ) ) ;
#273 = ORIENTED_EDGE ( 'NONE', *, *, #297, .F. ) ;
#274 = ORIENTED_EDGE ( 'NONE', *, *, #56, .T. ) ;
#275 = CARTESIAN_POINT ( 'NONE',  ( -75.00000000000000000, -134.1640786499874025, -10.00000000000000178 ) ) ;
#276 = DIRECTION ( 'NONE',  ( 0.000000000000000000, 0.000000000000000000, -1.000000000000000000 ) ) ;
#277 = ORIENTED_EDGE ( 'NONE', *, *, #548, .T. ) ;
#278 = EDGE_LOOP ( 'NONE', ( #614, #378, #248, #215 ) ) ;
#279 = DIRECTION ( 'NONE',  ( 0.000000000000000000, 0.000000000000000000, 1.000000000000000000 ) ) ;
#280 = CARTESIAN_POINT ( 'NONE',  ( -150.0000000000000000, -134.1640786499874025, -10.00000000000000000 ) ) ;
#281 = VECTOR ( 'NONE', #332, 1000.000000000000000 ) ;
#282 = EDGE_CURVE ( 'NONE', #406, #232, #659, .T. ) ;
#283 = CARTESIAN_POINT ( 'NONE',  ( -75.00000000000001421, 20.00000000000000000, 40.00000000000000000 ) ) ;
#284 = VECTOR ( 'NONE', #664, 1000.000000000000000 ) ;
#285 = CIRCLE ( 'NONE', #2, 10.00000000000000178 ) ;
#286 = CARTESIAN_POINT ( 'NONE',  ( 0.000000000000000000, 20.00000000000000000, 0.000000000000000000 ) ) ;
#287 = VERTEX_POINT ( 'NONE', #390 ) ;
#288 = CARTESIAN_POINT ( 'NONE',  ( -75.00000000000000000, 0.000000000000000000, -10.00000000000000178 ) ) ;
#289 = DIRECTION ( 'NONE',  ( 2.312964634635742895E-17, 0.000000000000000000, 1.000000000000000000 ) ) ;
#290 = PERSON_AND_ORGANIZATION_ROLE ( 'creator' ) ;
#291 = DIRECTION ( 'NONE',  ( 0.000000000000000000, 0.000000000000000000, 1.000000000000000000 ) ) ;
#292 = DIRECTION ( 'NONE',  ( -1.000000000000000000, 0.000000000000000000, 2.312964634635742895E-17 ) ) ;
#293 = VECTOR ( 'NONE', #151, 1000.000000000000000 ) ;
#294 = PERSON_AND_ORGANIZATION_ROLE ( 'design_supplier' ) ;
#295 = CC_DESIGN_PERSON_AND_ORGANIZATION_ASSIGNMENT ( #363, #645, ( #854 ) ) ;
#296 = CARTESIAN_POINT ( 'NONE',  ( -130.0000000000000000, 20.00000000000000000, -9.999999999999998224 ) ) ;
#297 = EDGE_CURVE ( 'NONE', #551, #406, #159, .T. ) ;
#298 = DIRECTION ( 'NONE',  ( 0.000000000000000000, 0.000000000000000000, -1.000000000000000000 ) ) ;
#299 = DATE_AND_TIME ( #213, #473 ) ;
#300 = DIRECTION ( 'NONE',  ( 0.000000000000000000, 1.000000000000000000, 0.000000000000000000 ) ) ;
#301 = ORIENTED_EDGE ( 'NONE', *, *, #484, .F. ) ;
#302 = FACE_OUTER_BOUND ( 'NONE', #446, .T. ) ;
#303 = VERTEX_POINT ( 'NONE', #103 ) ;
#304 = EDGE_CURVE ( 'NONE', #239, #51, #46, .T. ) ;
#305 = FACE_OUTER_BOUND ( 'NONE', #767, .T. ) ;
#306 = ORIENTED_EDGE ( 'NONE', *, *, #337, .T. ) ;
#307 = CYLINDRICAL_SURFACE ( 'NONE', #322, 10.00000000000000178 ) ;
#308 = ORGANIZATION ( 'UNSPECIFIED', 'UNSPECIFIED', '' ) ;
#309 = ORIENTED_EDGE ( 'NONE', *, *, #192, .F. ) ;
#310 = CIRCLE ( 'NONE', #341, 20.00000000000000000 ) ;
#311 = LINE ( 'NONE', #589, #12 ) ;
#312 = ORIENTED_EDGE ( 'NONE', *, *, #372, .F. ) ;
#313 = CARTESIAN_POINT ( 'NONE',  ( 7.347880794884118356E-15, -134.1640786499874025, -60.00000000000000000 ) ) ;
#314 = CARTESIAN_POINT ( 'NONE',  ( 150.0000000000000000, 20.00000000000000000, 10.00000000000000000 ) ) ;
#315 = ORIENTED_EDGE ( 'NONE', *, *, #221, .T. ) ;
#316 = LINE ( 'NONE', #462, #284 ) ;
#317 = EDGE_CURVE ( 'NONE', #695, #138, #144, .T. ) ;
#318 = CYLINDRICAL_SURFACE ( 'NONE', #431, 75.00000000000001421 ) ;
#319 = VERTEX_POINT ( 'NONE', #109 ) ;
#320 = CARTESIAN_POINT ( 'NONE',  ( -75.00000000000000000, -134.1640786499874025, 10.00000000000000178 ) ) ;
#321 = APPLICATION_CONTEXT ( 'configuration controlled 3d designs of mechanical parts and assemblies' ) ;
#322 = AXIS2_PLACEMENT_3D ( 'NONE', #570, #642, #842 ) ;
#323 = DIRECTION ( 'NONE',  ( 0.000000000000000000, 0.000000000000000000, -1.000000000000000000 ) ) ;
#324 = AXIS2_PLACEMENT_3D ( 'NONE', #427, #566, #656 ) ;
#325 = CARTESIAN_POINT ( 'NONE',  ( -75.00000000000000000, 20.00000000000000000, -10.00000000000000178 ) ) ;
#326 = AXIS2_PLACEMENT_3D ( 'NONE', #17, #450, #298 ) ;
#327 = ORIENTED_EDGE ( 'NONE', *, *, #351, .T. ) ;
#328 = FACE_OUTER_BOUND ( 'NONE', #797, .T. ) ;
#329 = PLANE ( 'NONE',  #517 ) ;
#330 = ORIENTED_EDGE ( 'NONE', *, *, #655, .T. ) ;
#331 = EDGE_CURVE ( 'NONE', #125, #891, #158, .T. ) ;
#332 = DIRECTION ( 'NONE',  ( -0.000000000000000000, -1.000000000000000000, -0.000000000000000000 ) ) ;
#333 = EDGE_CURVE ( 'NONE', #26, #552, #204, .T. ) ;
#334 = FACE_OUTER_BOUND ( 'NONE', #698, .T. ) ;
#335 = ORIENTED_EDGE ( 'NONE', *, *, #242, .T. ) ;
#336 = EDGE_LOOP ( 'NONE', ( #829, #828, #581, #24 ) ) ;
#337 = EDGE_CURVE ( 'NONE', #849, #165, #859, .T. ) ;
#338 = DIRECTION ( 'NONE',  ( -0.000000000000000000, -1.000000000000000000, -0.000000000000000000 ) ) ;
#339 = AXIS2_PLACEMENT_3D ( 'NONE', #892, #876, #474 ) ;
#340 = LINE ( 'NONE', #61, #445 ) ;
#341 = AXIS2_PLACEMENT_3D ( 'NONE', #296, #650, #160 ) ;
#342 = ORIENTED_EDGE ( 'NONE', *, *, #655, .F. ) ;
#343 = ORIENTED_EDGE ( 'NONE', *, *, #584, .T. ) ;
#344 = DIRECTION ( 'NONE',  ( -1.000000000000000000, 0.000000000000000000, 0.000000000000000000 ) ) ;
#345 = VERTEX_POINT ( 'NONE', #264 ) ;
#346 = ORIENTED_EDGE ( 'NONE', *, *, #639, .F. ) ;
#347 =( NAMED_UNIT ( * ) SI_UNIT ( $, .STERADIAN. ) SOLID_ANGLE_UNIT ( ) );
#348 = EDGE_CURVE ( 'NONE', #695, #195, #633, .T. ) ;
#349 = DIRECTION ( 'NONE',  ( -1.000000000000000000, -0.000000000000000000, -2.312964634635742895E-17 ) ) ;
#350 = CARTESIAN_POINT ( 'NONE',  ( 0.000000000000000000, 20.00000000000000000, -75.00000000000001421 ) ) ;
#351 = EDGE_CURVE ( 'NONE', #421, #870, #612, .T. ) ;
#352 = ORIENTED_EDGE ( 'NONE', *, *, #463, .F. ) ;
#353 = DIRECTION ( 'NONE',  ( 0.000000000000000000, 0.000000000000000000, 1.000000000000000000 ) ) ;
#354 = DIRECTION ( 'NONE',  ( 0.000000000000000000, 1.000000000000000000, 0.000000000000000000 ) ) ;
#355 = CARTESIAN_POINT ( 'NONE',  ( 68.73863542433761609, 0.000000000000000000, -30.00000000000000000 ) ) ;
#356 = CIRCLE ( 'NONE', #643, 10.00000000000000178 ) ;
#357 = APPROVAL_PERSON_ORGANIZATION ( #225, #404, #718 ) ;
#358 = VECTOR ( 'NONE', #105, 1000.000000000000000 ) ;
#359 = CARTESIAN_POINT ( 'NONE',  ( 66.17647058823530415, 20.00000000000000000, 35.29411764705883314 ) ) ;
#360 = ORIENTED_EDGE ( 'NONE', *, *, #337, .F. ) ;
#361 = PLANE ( 'NONE',  #236 ) ;
#362 = FACE_OUTER_BOUND ( 'NONE', #879, .T. ) ;
#363 = PERSON_AND_ORGANIZATION ( #399, #308 ) ;
#364 = CARTESIAN_POINT ( 'NONE',  ( -66.17647058823530415, 20.00000000000000000, -35.29411764705883314 ) ) ;
#365 = CARTESIAN_POINT ( 'NONE',  ( 150.0000000000000000, 0.000000000000000000, -10.00000000000000000 ) ) ;
#366 = AXIS2_PLACEMENT_3D ( 'NONE', #25, #837, #216 ) ;
#367 = APPROVAL_STATUS ( 'not_yet_approved' ) ;
#368 = AXIS2_PLACEMENT_3D ( 'NONE', #228, #648, #439 ) ;
#369 = CARTESIAN_POINT ( 'NONE',  ( -130.0000000000000000, 0.000000000000000000, 30.00000000000000000 ) ) ;
#370 = ORIENTED_EDGE ( 'NONE', *, *, #68, .F. ) ;
#371 = DIRECTION ( 'NONE',  ( 0.000000000000000000, 0.000000000000000000, 1.000000000000000000 ) ) ;
#372 = EDGE_CURVE ( 'NONE', #621, #467, #701, .T. ) ;
#373 = ORIENTED_EDGE ( 'NONE', *, *, #836, .T. ) ;
#374 = DIRECTION ( 'NONE',  ( 1.000000000000000000, -0.000000000000000000, -0.000000000000000000 ) ) ;
#375 = EDGE_CURVE ( 'NONE', #858, #26, #85, .T. ) ;
#376 = VERTEX_POINT ( 'NONE', #693 ) ;
#377 = LINE ( 'NONE', #728, #16 ) ;
#378 = ORIENTED_EDGE ( 'NONE', *, *, #509, .F. ) ;
#379 = CARTESIAN_POINT ( 'NONE',  ( -75.00000000000001421, 20.00000000000000000, -40.00000000000000000 ) ) ;
#380 = ORIENTED_EDGE ( 'NONE', *, *, #673, .T. ) ;
#381 = CARTESIAN_POINT ( 'NONE',  ( 130.0000000000000000, 0.000000000000000000, -30.00000000000000000 ) ) ;
#382 = CC_DESIGN_APPROVAL ( #565, ( #726 ) ) ;
#383 = AXIS2_PLACEMENT_3D ( 'NONE', #107, #41, #257 ) ;
#384 = LINE ( 'NONE', #314, #397 ) ;
#385 = ORIENTED_EDGE ( 'NONE', *, *, #6, .F. ) ;
#386 = VECTOR ( 'NONE', #88, 1000.000000000000000 ) ;
#387 = DIRECTION ( 'NONE',  ( 1.000000000000000000, -0.000000000000000000, 2.312964634635742895E-17 ) ) ;
#388 = CARTESIAN_POINT ( 'NONE',  ( 0.000000000000000000, 0.000000000000000000, 60.00000000000000000 ) ) ;
#389 = EDGE_LOOP ( 'NONE', ( #689, #624, #887, #142 ) ) ;
#390 = CARTESIAN_POINT ( 'NONE',  ( 75.00000000000001421, 0.000000000000000000, 30.00000000000000000 ) ) ;
#391 = CARTESIAN_POINT ( 'NONE',  ( 130.0000000000000000, 20.00000000000000000, 9.999999999999994671 ) ) ;
#392 = DIRECTION ( 'NONE',  ( 0.000000000000000000, 0.000000000000000000, 1.000000000000000000 ) ) ;
#393 = EDGE_LOOP ( 'NONE', ( #482, #683, #66, #453 ) ) ;
#394 = ADVANCED_FACE ( 'NONE', ( #137 ), #818, .F. ) ;
#395 = AXIS2_PLACEMENT_3D ( 'NONE', #499, #775, #291 ) ;
#396 = DIRECTION ( 'NONE',  ( 0.000000000000000000, 1.000000000000000000, 0.000000000000000000 ) ) ;
#397 = VECTOR ( 'NONE', #175, 1000.000000000000000 ) ;
#398 = CARTESIAN_POINT ( 'NONE',  ( 0.000000000000000000, 0.000000000000000000, 0.000000000000000000 ) ) ;
#399 = PERSON ( 'UNSPECIFIED', 'UNSPECIFIED', 'UNSPECIFIED', ('UNSPECIFIED'), ('UNSPECIFIED'), ('UNSPECIFIED') ) ;
#400 = VECTOR ( 'NONE', #838, 1000.000000000000000 ) ;
#401 = EDGE_LOOP ( 'NONE', ( #48, #590, #456, #654 ) ) ;
#402 = CARTESIAN_POINT ( 'NONE',  ( -150.0000000000000000, -134.1640786499874025, 10.00000000000000000 ) ) ;
#403 = DIRECTION ( 'NONE',  ( -0.000000000000000000, 1.000000000000000000, -0.000000000000000000 ) ) ;
#404 = APPROVAL ( #139, 'UNSPECIFIED' ) ;
#405 = EDGE_LOOP ( 'NONE', ( #274, #532, #442, #235, #634, #252, #820, #845, #886, #420, #607, #370, #373, #360, #465, #541, #657, #727, #864, #861, #739 ) ) ;
#406 = VERTEX_POINT ( 'NONE', #214 ) ;
#407 = CARTESIAN_POINT ( 'NONE',  ( -75.00000000000001421, 20.00000000000000000, -30.00000000000000000 ) ) ;
#408 = CYLINDRICAL_SURFACE ( 'NONE', #530, 75.00000000000001421 ) ;
#409 = CARTESIAN_POINT ( 'NONE',  ( 75.00000000000000000, -134.1640786499874025, 10.00000000000000178 ) ) ;
#410 = EDGE_LOOP ( 'NONE', ( #229, #167, #794, #255 ) ) ;
#411 = FACE_OUTER_BOUND ( 'NONE', #393, .T. ) ;
#412 = ADVANCED_FACE ( 'NONE', ( #50 ), #408, .T. ) ;
#413 = CARTESIAN_POINT ( 'NONE',  ( 0.000000000000000000, 20.00000000000000000, 0.000000000000000000 ) ) ;
#414 = AXIS2_PLACEMENT_3D ( 'NONE', #286, #544, #834 ) ;
#415 = ORIENTED_EDGE ( 'NONE', *, *, #764, .F. ) ;
#416 = ADVANCED_FACE ( 'NONE', ( #756 ), #769, .T. ) ;
#417 = ORIENTED_EDGE ( 'NONE', *, *, #824, .F. ) ;
#418 = CARTESIAN_POINT ( 'NONE',  ( 75.00000000000001421, 20.00000000000000000, 30.00000000000000000 ) ) ;
#419 = FACE_BOUND ( 'NONE', #508, .T. ) ;
#420 = ORIENTED_EDGE ( 'NONE', *, *, #538, .F. ) ;
#421 = VERTEX_POINT ( 'NONE', #209 ) ;
#422 = PLANE ( 'NONE',  #202 ) ;
#423 = DIRECTION ( 'NONE',  ( -0.000000000000000000, -1.000000000000000000, -0.000000000000000000 ) ) ;
#424 = LINE ( 'NONE', #409, #162 ) ;
#425 = DATE_AND_TIME ( #433, #143 ) ;
#426 = CIRCLE ( 'NONE', #234, 60.00000000000000000 ) ;
#427 = CARTESIAN_POINT ( 'NONE',  ( 0.000000000000000000, 0.000000000000000000, 0.000000000000000000 ) ) ;
#428 = LOCAL_TIME ( 13, 48, 46.00000000000000000, #833 ) ;
#429 = ORIENTED_EDGE ( 'NONE', *, *, #651, .F. ) ;
#430 = AXIS2_PLACEMENT_3D ( 'NONE', #494, #123, #557 ) ;
#431 = AXIS2_PLACEMENT_3D ( 'NONE', #868, #40, #170 ) ;
#432 = EDGE_CURVE ( 'NONE', #138, #564, #340, .T. ) ;
#433 = CALENDAR_DATE ( 2026, 31, 7 ) ;
#434 = CARTESIAN_POINT ( 'NONE',  ( -66.17647058823530415, 20.00000000000000000, -35.29411764705883314 ) ) ;
#435 = ADVANCED_FACE ( 'NONE', ( #884 ), #822, .T. ) ;
#436 = DIRECTION ( 'NONE',  ( 0.000000000000000000, 1.000000000000000000, 0.000000000000000000 ) ) ;
#437 = EDGE_CURVE ( 'NONE', #620, #117, #550, .T. ) ;
#438 = CARTESIAN_POINT ( 'NONE',  ( -68.73863542433761609, 0.000000000000000000, -30.00000000000000000 ) ) ;
#439 = DIRECTION ( 'NONE',  ( 1.000000000000000000, 0.000000000000000000, -0.000000000000000000 ) ) ;
#440 = PERSON_AND_ORGANIZATION ( #399, #308 ) ;
#441 = LINE ( 'NONE', #713, #458 ) ;
#442 = ORIENTED_EDGE ( 'NONE', *, *, #282, .T. ) ;
#443 = LINE ( 'NONE', #715, #386 ) ;
#444 = ADVANCED_FACE ( 'NONE', ( #334, #618 ), #3, .T. ) ;
#445 = VECTOR ( 'NONE', #488, 1000.000000000000000 ) ;
#446 = EDGE_LOOP ( 'NONE', ( #342, #874, #346, #890 ) ) ;
#447 = DATE_AND_TIME ( #19, #428 ) ;
#448 = DIRECTION ( 'NONE',  ( 1.000000000000000000, -0.000000000000000000, -0.000000000000000000 ) ) ;
#449 = ORIENTED_EDGE ( 'NONE', *, *, #690, .T. ) ;
#450 = DIRECTION ( 'NONE',  ( 0.000000000000000000, -1.000000000000000000, 0.000000000000000000 ) ) ;
#451 = ORIENTED_EDGE ( 'NONE', *, *, #584, .F. ) ;
#452 = CARTESIAN_POINT ( 'NONE',  ( 75.00000000000001421, 0.000000000000000000, 30.00000000000000000 ) ) ;
#453 = ORIENTED_EDGE ( 'NONE', *, *, #282, .F. ) ;
#454 = CARTESIAN_POINT ( 'NONE',  ( 130.0000000000000000, 20.00000000000000000, 9.999999999999994671 ) ) ;
#455 = CARTESIAN_POINT ( 'NONE',  ( 75.00000000000000000, -134.1640786499874025, -10.00000000000000178 ) ) ;
#456 = ORIENTED_EDGE ( 'NONE', *, *, #56, .F. ) ;
#457 = CYLINDRICAL_SURFACE ( 'NONE', #383, 10.00000000000000178 ) ;
#458 = VECTOR ( 'NONE', #86, 1000.000000000000000 ) ;
#459 = DIRECTION ( 'NONE',  ( -0.000000000000000000, -1.000000000000000000, -0.000000000000000000 ) ) ;
#460 = ORIENTED_EDGE ( 'NONE', *, *, #722, .F. ) ;
#461 = VECTOR ( 'NONE', #702, 1000.000000000000000 ) ;
#462 = CARTESIAN_POINT ( 'NONE',  ( -75.00000000000001421, 20.00000000000000000, 30.00000000000000000 ) ) ;
#463 = EDGE_CURVE ( 'NONE', #101, #227, #761, .T. ) ;
#464 = FACE_OUTER_BOUND ( 'NONE', #78, .T. ) ;
#465 = ORIENTED_EDGE ( 'NONE', *, *, #667, .F. ) ;
#466 = DIRECTION ( 'NONE',  ( -0.000000000000000000, 1.000000000000000000, -0.000000000000000000 ) ) ;
#467 = VERTEX_POINT ( 'NONE', #133 ) ;
#468 = CARTESIAN_POINT ( 'NONE',  ( -130.0000000000000000, 20.00000000000000000, 9.999999999999998224 ) ) ;
#469 = LINE ( 'NONE', #186, #477 ) ;
#470 = ADVANCED_FACE ( 'NONE', ( #119, #419 ), #697, .F. ) ;
#471 = VERTEX_POINT ( 'NONE', #893 ) ;
#472 = VECTOR ( 'NONE', #781, 1000.000000000000000 ) ;
#473 = LOCAL_TIME ( 13, 48, 46.00000000000000000, #778 ) ;
#474 = DIRECTION ( 'NONE',  ( 1.000000000000000000, 0.000000000000000000, 0.000000000000000000 ) ) ;
#475 = AXIS2_PLACEMENT_3D ( 'NONE', #391, #740, #108 ) ;
#476 = FACE_OUTER_BOUND ( 'NONE', #410, .T. ) ;
#477 = VECTOR ( 'NONE', #32, 1000.000000000000000 ) ;
#478 = ORIENTED_EDGE ( 'NONE', *, *, #333, .T. ) ;
#479 =( NAMED_UNIT ( * ) PLANE_ANGLE_UNIT ( ) SI_UNIT ( $, .RADIAN. ) );
#480 = LINE ( 'NONE', #580, #220 ) ;
#481 = ORIENTED_EDGE ( 'NONE', *, *, #785, .F. ) ;
#482 = ORIENTED_EDGE ( 'NONE', *, *, #606, .T. ) ;
#483 = CARTESIAN_POINT ( 'NONE',  ( 0.000000000000000000, 20.00000000000000000, -75.00000000000001421 ) ) ;
#484 = EDGE_CURVE ( 'NONE', #555, #101, #497, .T. ) ;
#485 = DIRECTION ( 'NONE',  ( -0.000000000000000000, -1.000000000000000000, -0.000000000000000000 ) ) ;
#486 = DIRECTION ( 'NONE',  ( -0.000000000000000000, 1.000000000000000000, -0.000000000000000000 ) ) ;
#487 = ORIENTED_EDGE ( 'NONE', *, *, #375, .T. ) ;
#488 = DIRECTION ( 'NONE',  ( -0.000000000000000000, 1.000000000000000000, -0.000000000000000000 ) ) ;
#489 = VECTOR ( 'NONE', #349, 1000.000000000000000 ) ;
#490 = CYLINDRICAL_SURFACE ( 'NONE', #588, 60.00000000000000000 ) ;
#491 = CLOSED_SHELL ( 'NONE', ( #96, #412, #435, #681, #210, #4, #444, #470, #18, #394, #748, #766, #592, #111, #164, #792, #219, #241, #72, #179, #212, #708, #416, #169, #653 ) ) ;
#492 = ORIENTED_EDGE ( 'NONE', *, *, #790, .F. ) ;
#493 = APPROVAL_ROLE ( '' ) ;
#494 = CARTESIAN_POINT ( 'NONE',  ( 75.00000000000000000, -134.1640786499874025, 10.00000000000000178 ) ) ;
#495 = LINE ( 'NONE', #770, #461 ) ;
#496 = SHAPE_DEFINITION_REPRESENTATION ( #58, #246 ) ;
#497 = LINE ( 'NONE', #280, #615 ) ;
#498 = VERTEX_POINT ( 'NONE', #877 ) ;
#499 = CARTESIAN_POINT ( 'NONE',  ( 0.000000000000000000, 0.000000000000000000, 0.000000000000000000 ) ) ;
#500 = DIRECTION ( 'NONE',  ( -0.000000000000000000, 1.000000000000000000, -0.000000000000000000 ) ) ;
#501 = VECTOR ( 'NONE', #466, 1000.000000000000000 ) ;
#502 = CIRCLE ( 'NONE', #104, 20.00000000000000000 ) ;
#503 = SECURITY_CLASSIFICATION_LEVEL ( 'unclassified' ) ;
#504 = LINE ( 'NONE', #779, #839 ) ;
#505 = CARTESIAN_POINT ( 'NONE',  ( 66.17647058823530415, 20.00000000000000000, 35.29411764705883314 ) ) ;
#506 = PERSON_AND_ORGANIZATION_ROLE ( 'creator' ) ;
#507 = CARTESIAN_POINT ( 'NONE',  ( 150.0000000000000000, -134.1640786499874025, -10.00000000000000000 ) ) ;
#508 = EDGE_LOOP ( 'NONE', ( #87, #429 ) ) ;
#509 = EDGE_CURVE ( 'NONE', #498, #421, #480, .T. ) ;
#510 = CARTESIAN_POINT ( 'NONE',  ( -75.00000000000000000, 20.00000000000000000, 10.00000000000000178 ) ) ;
#511 = ORIENTED_EDGE ( 'NONE', *, *, #331, .F. ) ;
#512 = DIRECTION ( 'NONE',  ( 0.000000000000000000, 0.000000000000000000, 1.000000000000000000 ) ) ;
#513 = ORIENTED_EDGE ( 'NONE', *, *, #68, .T. ) ;
#514 = EDGE_CURVE ( 'NONE', #814, #684, #79, .T. ) ;
#515 = DIRECTION ( 'NONE',  ( 0.000000000000000000, 0.000000000000000000, -1.000000000000000000 ) ) ;
#516 = ORIENTED_EDGE ( 'NONE', *, *, #606, .F. ) ;
#517 = AXIS2_PLACEMENT_3D ( 'NONE', #320, #670, #178 ) ;
#518 = DIRECTION ( 'NONE',  ( 2.312964634635742895E-17, 0.000000000000000000, 1.000000000000000000 ) ) ;
#519 = ORIENTED_EDGE ( 'NONE', *, *, #562, .F. ) ;
#520 = DIRECTION ( 'NONE',  ( -1.000000000000000000, -0.000000000000000000, -0.000000000000000000 ) ) ;
#521 = EDGE_CURVE ( 'NONE', #471, #629, #787, .T. ) ;
#522 = CARTESIAN_POINT ( 'NONE',  ( 75.00000000000000000, 20.00000000000000000, 10.00000000000000178 ) ) ;
#523 = DIRECTION ( 'NONE',  ( 0.000000000000000000, 0.000000000000000000, 1.000000000000000000 ) ) ;
#524 = CARTESIAN_POINT ( 'NONE',  ( 75.00000000000001421, 20.00000000000000000, -40.00000000000000000 ) ) ;
#525 = CC_DESIGN_DATE_AND_TIME_ASSIGNMENT ( #90, #9, ( #726 ) ) ;
#526 = VERTEX_POINT ( 'NONE', #719 ) ;
#527 = DIRECTION ( 'NONE',  ( -1.387778780781445676E-15, 0.000000000000000000, 1.000000000000000000 ) ) ;
#528 = EDGE_CURVE ( 'NONE', #610, #125, #10, .T. ) ;
#529 = AXIS2_PLACEMENT_3D ( 'NONE', #468, #396, #676 ) ;
#530 = AXIS2_PLACEMENT_3D ( 'NONE', #193, #485, #682 ) ;
#531 = CARTESIAN_POINT ( 'NONE',  ( -75.00000000000000000, -134.1640786499874025, 10.00000000000000178 ) ) ;
#532 = ORIENTED_EDGE ( 'NONE', *, *, #297, .T. ) ;
#533 = LINE ( 'NONE', #741, #745 ) ;
#534 = ORIENTED_EDGE ( 'NONE', *, *, #122, .F. ) ;
#535 = DIRECTION ( 'NONE',  ( 2.312964634635742895E-17, 0.000000000000000000, -1.000000000000000000 ) ) ;
#536 = CARTESIAN_POINT ( 'NONE',  ( -75.00000000000001421, 20.00000000000000000, -40.00000000000000000 ) ) ;
#537 = EDGE_LOOP ( 'NONE', ( #545, #579, #806, #385 ) ) ;
#538 = EDGE_CURVE ( 'NONE', #526, #171, #674, .T. ) ;
#539 = PERSON_AND_ORGANIZATION_ROLE ( 'design_owner' ) ;
#540 = DIRECTION ( 'NONE',  ( 0.000000000000000000, 1.000000000000000000, 0.000000000000000000 ) ) ;
#541 = ORIENTED_EDGE ( 'NONE', *, *, #348, .F. ) ;
#542 = APPROVAL_PERSON_ORGANIZATION ( #263, #565, #493 ) ;
#543 = CARTESIAN_POINT ( 'NONE',  ( -75.00000000000001421, 0.000000000000000000, 40.00000000000000000 ) ) ;
#544 = DIRECTION ( 'NONE',  ( 0.000000000000000000, 1.000000000000000000, 0.000000000000000000 ) ) ;
#545 = ORIENTED_EDGE ( 'NONE', *, *, #667, .T. ) ;
#546 = APPLICATION_CONTEXT ( 'configuration controlled 3d designs of mechanical parts and assemblies' ) ;
#547 = ORIENTED_EDGE ( 'NONE', *, *, #251, .T. ) ;
#548 = EDGE_CURVE ( 'NONE', #891, #564, #91, .T. ) ;
#549 = DIRECTION ( 'NONE',  ( 0.000000000000000000, 0.000000000000000000, 1.000000000000000000 ) ) ;
#550 = LINE ( 'NONE', #127, #675 ) ;
#551 = VERTEX_POINT ( 'NONE', #369 ) ;
#552 = VERTEX_POINT ( 'NONE', #434 ) ;
#553 = DIRECTION ( 'NONE',  ( 0.000000000000000000, -0.000000000000000000, 1.000000000000000000 ) ) ;
#554 = PLANE ( 'NONE',  #604 ) ;
#555 = VERTEX_POINT ( 'NONE', #148 ) ;
#556 = DIRECTION ( 'NONE',  ( 0.000000000000000000, 0.000000000000000000, 1.000000000000000000 ) ) ;
#557 = DIRECTION ( 'NONE',  ( -0.000000000000000000, 0.000000000000000000, 1.000000000000000000 ) ) ;
#558 = AXIS2_PLACEMENT_3D ( 'NONE', #413, #354, #553 ) ;
#559 = CARTESIAN_POINT ( 'NONE',  ( 150.0000000000000000, 0.000000000000000000, 30.00000000000000000 ) ) ;
#560 = AXIS2_PLACEMENT_3D ( 'NONE', #233, #168, #515 ) ;
#561 = DATE_TIME_ROLE ( 'classification_date' ) ;
#562 = EDGE_CURVE ( 'NONE', #498, #471, #707, .T. ) ;
#563 = DIRECTION ( 'NONE',  ( 0.000000000000000000, -0.000000000000000000, 1.000000000000000000 ) ) ;
#564 = VERTEX_POINT ( 'NONE', #784 ) ;
#565 = APPROVAL ( #750, 'UNSPECIFIED' ) ;
#566 = DIRECTION ( 'NONE',  ( -0.000000000000000000, -1.000000000000000000, -0.000000000000000000 ) ) ;
#567 = CARTESIAN_POINT ( 'NONE',  ( 75.00000000000000000, 0.000000000000000000, 10.00000000000000178 ) ) ;
#568 = PERSON_AND_ORGANIZATION ( #399, #308 ) ;
#569 = CARTESIAN_POINT ( 'NONE',  ( 130.0000000000000000, 20.00000000000000000, -30.00000000000000000 ) ) ;
#570 = CARTESIAN_POINT ( 'NONE',  ( 75.00000000000001421, 20.00000000000000000, 40.00000000000000000 ) ) ;
#571 = EDGE_CURVE ( 'NONE', #421, #101, #310, .T. ) ;
#572 = CARTESIAN_POINT ( 'NONE',  ( -75.00000000000001421, 20.00000000000000000, 30.00000000000000000 ) ) ;
#573 = CC_DESIGN_PERSON_AND_ORGANIZATION_ASSIGNMENT ( #847, #506, ( #99 ) ) ;
#574 = ORIENTED_EDGE ( 'NONE', *, *, #266, .F. ) ;
#575 = CARTESIAN_POINT ( 'NONE',  ( 0.000000000000000000, -134.1640786499874025, 0.000000000000000000 ) ) ;
#576 = DATE_AND_TIME ( #150, #73 ) ;
#577 = CARTESIAN_POINT ( 'NONE',  ( 150.0000000000000000, 20.00000000000000000, -10.00000000000000000 ) ) ;
#578 = CYLINDRICAL_SURFACE ( 'NONE', #560, 10.00000000000000178 ) ;
#579 = ORIENTED_EDGE ( 'NONE', *, *, #749, .T. ) ;
#580 = CARTESIAN_POINT ( 'NONE',  ( -130.0000000000000000, 20.00000000000000000, -30.00000000000000000 ) ) ;
#581 = ORIENTED_EDGE ( 'NONE', *, *, #548, .F. ) ;
#582 = AXIS2_PLACEMENT_3D ( 'NONE', #543, #196, #353 ) ;
#583 = PLANE ( 'NONE',  #368 ) ;
#584 = EDGE_CURVE ( 'NONE', #165, #621, #635, .T. ) ;
#585 = AXIS2_PLACEMENT_3D ( 'NONE', #605, #609, #527 ) ;
#586 = VECTOR ( 'NONE', #112, 1000.000000000000000 ) ;
#587 = ORIENTED_EDGE ( 'NONE', *, *, #375, .F. ) ;
#588 = AXIS2_PLACEMENT_3D ( 'NONE', #763, #486, #129 ) ;
#589 = CARTESIAN_POINT ( 'NONE',  ( -75.00000000000000000, 0.000000000000000000, 10.00000000000000178 ) ) ;
#590 = ORIENTED_EDGE ( 'NONE', *, *, #622, .T. ) ;
#591 = DIRECTION ( 'NONE',  ( 0.000000000000000000, 0.000000000000000000, 1.000000000000000000 ) ) ;
#592 = ADVANCED_FACE ( 'NONE', ( #305 ), #361, .T. ) ;
#593 = EDGE_CURVE ( 'NONE', #814, #244, #20, .T. ) ;
#594 = EDGE_CURVE ( 'NONE', #629, #552, #223, .T. ) ;
#595 = DIRECTION ( 'NONE',  ( -0.000000000000000000, -1.000000000000000000, -0.000000000000000000 ) ) ;
#596 = CARTESIAN_POINT ( 'NONE',  ( 150.0000000000000000, 20.00000000000000000, 30.00000000000000000 ) ) ;
#597 = CARTESIAN_POINT ( 'NONE',  ( 75.00000000000001421, 20.00000000000000000, -30.00000000000000000 ) ) ;
#598 = ORIENTED_EDGE ( 'NONE', *, *, #509, .T. ) ;
#599 = DIRECTION ( 'NONE',  ( 1.000000000000000000, -0.000000000000000000, 2.312964634635742895E-17 ) ) ;
#600 = CIRCLE ( 'NONE', #113, 20.00000000000000000 ) ;
#601 = EDGE_CURVE ( 'NONE', #187, #610, #14, .T. ) ;
#602 = AXIS2_PLACEMENT_3D ( 'NONE', #678, #245, #668 ) ;
#603 = CARTESIAN_POINT ( 'NONE',  ( -150.0000000000000000, 20.00000000000000000, 10.00000000000000000 ) ) ;
#604 = AXIS2_PLACEMENT_3D ( 'NONE', #757, #5, #203 ) ;
#605 = CARTESIAN_POINT ( 'NONE',  ( 130.0000000000000000, 0.000000000000000000, 9.999999999999994671 ) ) ;
#606 = EDGE_CURVE ( 'NONE', #406, #759, #504, .T. ) ;
#607 = ORIENTED_EDGE ( 'NONE', *, *, #639, .T. ) ;
#608 = PLANE ( 'NONE',  #705 ) ;
#609 = DIRECTION ( 'NONE',  ( -0.000000000000000000, -1.000000000000000000, -0.000000000000000000 ) ) ;
#610 = VERTEX_POINT ( 'NONE', #641 ) ;
#611 = CARTESIAN_POINT ( 'NONE',  ( 75.00000000000000000, 0.000000000000000000, -10.00000000000000178 ) ) ;
#612 = LINE ( 'NONE', #272, #177 ) ;
#613 = ORIENTED_EDGE ( 'NONE', *, *, #753, .T. ) ;
#614 = ORIENTED_EDGE ( 'NONE', *, *, #571, .F. ) ;
#615 = VECTOR ( 'NONE', #403, 1000.000000000000000 ) ;
#616 = DIRECTION ( 'NONE',  ( 0.000000000000000000, 1.000000000000000000, 0.000000000000000000 ) ) ;
#617 = PRODUCT ( 'Link1LShapeConnectorBig_Default_sldprt', 'Link1LShapeConnectorBig_Default_sldprt', '', ( #259 ) ) ;
#618 = FACE_BOUND ( 'NONE', #89, .T. ) ;
#619 = AXIS2_PLACEMENT_3D ( 'NONE', #149, #436, #392 ) ;
#620 = VERTEX_POINT ( 'NONE', #572 ) ;
#621 = VERTEX_POINT ( 'NONE', #577 ) ;
#622 = EDGE_CURVE ( 'NONE', #117, #551, #441, .T. ) ;
#623 = CARTESIAN_POINT ( 'NONE',  ( 150.0000000000000000, 0.000000000000000000, 10.00000000000000000 ) ) ;
#624 = ORIENTED_EDGE ( 'NONE', *, *, #799, .T. ) ;
#625 = ORIENTED_EDGE ( 'NONE', *, *, #514, .F. ) ;
#626 = DIRECTION ( 'NONE',  ( 0.000000000000000000, 1.000000000000000000, 0.000000000000000000 ) ) ;
#627 = LINE ( 'NONE', #559, #132 ) ;
#628 = EDGE_CURVE ( 'NONE', #376, #51, #57, .T. ) ;
#629 = VERTEX_POINT ( 'NONE', #231 ) ;
#630 = VECTOR ( 'NONE', #60, 1000.000000000000000 ) ;
#631 = AXIS2_PLACEMENT_3D ( 'NONE', #831, #54, #276 ) ;
#632 = CC_DESIGN_SECURITY_CLASSIFICATION ( #854, ( #99 ) ) ;
#633 = LINE ( 'NONE', #623, #815 ) ;
#634 = ORIENTED_EDGE ( 'NONE', *, *, #122, .T. ) ;
#635 = LINE ( 'NONE', #507, #293 ) ;
#636 = DIRECTION ( 'NONE',  ( 0.000000000000000000, 0.000000000000000000, 1.000000000000000000 ) ) ;
#637 = DIRECTION ( 'NONE',  ( -1.000000000000000000, 0.000000000000000000, -0.000000000000000000 ) ) ;
#638 = CARTESIAN_POINT ( 'NONE',  ( 75.00000000000001421, 0.000000000000000000, -30.00000000000000000 ) ) ;
#639 = EDGE_CURVE ( 'NONE', #526, #120, #356, .T. ) ;
#640 = CIRCLE ( 'NONE', #672, 10.00000000000000178 ) ;
#641 = CARTESIAN_POINT ( 'NONE',  ( 66.17647058823530415, 0.000000000000000000, 35.29411764705883314 ) ) ;
#642 = DIRECTION ( 'NONE',  ( -0.000000000000000000, -1.000000000000000000, -0.000000000000000000 ) ) ;
#643 = AXIS2_PLACEMENT_3D ( 'NONE', #646, #141, #512 ) ;
#644 = AXIS2_PLACEMENT_3D ( 'NONE', #283, #62, #134 ) ;
#645 = PERSON_AND_ORGANIZATION_ROLE ( 'classification_officer' ) ;
#646 = CARTESIAN_POINT ( 'NONE',  ( 75.00000000000001421, 0.000000000000000000, -40.00000000000000000 ) ) ;
#647 = VERTEX_POINT ( 'NONE', #288 ) ;
#648 = DIRECTION ( 'NONE',  ( 0.000000000000000000, -0.000000000000000000, 1.000000000000000000 ) ) ;
#649 = ORIENTED_EDGE ( 'NONE', *, *, #21, .F. ) ;
#650 = DIRECTION ( 'NONE',  ( 0.000000000000000000, 1.000000000000000000, 0.000000000000000000 ) ) ;
#651 = EDGE_CURVE ( 'NONE', #239, #723, #867, .T. ) ;
#652 = DIRECTION ( 'NONE',  ( 0.000000000000000000, 0.000000000000000000, 1.000000000000000000 ) ) ;
#653 = ADVANCED_FACE ( 'NONE', ( #243 ), #180, .T. ) ;
#654 = ORIENTED_EDGE ( 'NONE', *, *, #266, .T. ) ;
#655 = EDGE_CURVE ( 'NONE', #684, #858, #285, .T. ) ;
#656 = DIRECTION ( 'NONE',  ( 0.000000000000000000, 0.000000000000000000, 1.000000000000000000 ) ) ;
#657 = ORIENTED_EDGE ( 'NONE', *, *, #317, .T. ) ;
#658 = AXIS2_PLACEMENT_3D ( 'NONE', #379, #595, #34 ) ;
#659 = LINE ( 'NONE', #798, #661 ) ;
#660 = APPROVAL ( #367, 'UNSPECIFIED' ) ;
#661 = VECTOR ( 'NONE', #599, 1000.000000000000000 ) ;
#662 = CARTESIAN_POINT ( 'NONE',  ( -66.17647058823530415, 20.00000000000000000, 35.29411764705883314 ) ) ;
#663 = ORIENTED_EDGE ( 'NONE', *, *, #432, .F. ) ;
#664 = DIRECTION ( 'NONE',  ( -0.000000000000000000, 1.000000000000000000, -0.000000000000000000 ) ) ;
#665 = CYLINDRICAL_SURFACE ( 'NONE', #237, 20.00000000000000000 ) ;
#666 = EDGE_LOOP ( 'NONE', ( #851, #352, #301, #534 ) ) ;
#667 = EDGE_CURVE ( 'NONE', #195, #849, #860, .T. ) ;
#668 = DIRECTION ( 'NONE',  ( 0.000000000000000000, 0.000000000000000000, 1.000000000000000000 ) ) ;
#669 = CARTESIAN_POINT ( 'NONE',  ( 75.00000000000000000, 0.000000000000000000, 10.00000000000000178 ) ) ;
#670 = DIRECTION ( 'NONE',  ( -1.000000000000000000, 0.000000000000000000, 0.000000000000000000 ) ) ;
#671 = ORIENTED_EDGE ( 'NONE', *, *, #673, .F. ) ;
#672 = AXIS2_PLACEMENT_3D ( 'NONE', #685, #821, #279 ) ;
#673 = EDGE_CURVE ( 'NONE', #194, #319, #384, .T. ) ;
#674 = CIRCLE ( 'NONE', #395, 75.00000000000001421 ) ;
#675 = VECTOR ( 'NONE', #344, 1000.000000000000000 ) ;
#676 = DIRECTION ( 'NONE',  ( 0.000000000000000000, 0.000000000000000000, 1.000000000000000000 ) ) ;
#677 = CIRCLE ( 'NONE', #619, 75.00000000000001421 ) ;
#678 = CARTESIAN_POINT ( 'NONE',  ( -130.0000000000000000, 0.000000000000000000, 9.999999999999998224 ) ) ;
#679 = ORIENTED_EDGE ( 'NONE', *, *, #140, .F. ) ;
#680 = CARTESIAN_POINT ( 'NONE',  ( 0.000000000000000000, 20.00000000000000000, 0.000000000000000000 ) ) ;
#681 = ADVANCED_FACE ( 'NONE', ( #796 ), #318, .T. ) ;
#682 = DIRECTION ( 'NONE',  ( 0.000000000000000000, 0.000000000000000000, -1.000000000000000000 ) ) ;
#683 = ORIENTED_EDGE ( 'NONE', *, *, #690, .F. ) ;
#684 = VERTEX_POINT ( 'NONE', #597 ) ;
#685 = CARTESIAN_POINT ( 'NONE',  ( 75.00000000000001421, 0.000000000000000000, 40.00000000000000000 ) ) ;
#686 = CARTESIAN_POINT ( 'NONE',  ( 75.00000000000000000, 20.00000000000000000, -10.00000000000000178 ) ) ;
#687 = FACE_OUTER_BOUND ( 'NONE', #754, .T. ) ;
#688 = EDGE_CURVE ( 'NONE', #232, #345, #45, .T. ) ;
#689 = ORIENTED_EDGE ( 'NONE', *, *, #208, .F. ) ;
#690 = EDGE_CURVE ( 'NONE', #345, #759, #863, .T. ) ;
#691 = AXIS2_PLACEMENT_3D ( 'NONE', #889, #423, #69 ) ;
#692 = CARTESIAN_POINT ( 'NONE',  ( 130.0000000000000000, 20.00000000000000000, -30.00000000000000000 ) ) ;
#693 = CARTESIAN_POINT ( 'NONE',  ( 0.000000000000000000, 20.00000000000000000, 60.00000000000000000 ) ) ;
#694 = ORIENTED_EDGE ( 'NONE', *, *, #628, .F. ) ;
#695 = VERTEX_POINT ( 'NONE', #805 ) ;
#696 = PERSON_AND_ORGANIZATION ( #399, #308 ) ;
#697 = PLANE ( 'NONE',  #760 ) ;
#698 = EDGE_LOOP ( 'NONE', ( #449, #801, #63, #131, #856, #853, #277, #267, #671, #481, #312, #547, #199, #330, #487, #478, #613, #110, #720, #823, #92 ) ) ;
#699 = ORIENTED_EDGE ( 'NONE', *, *, #348, .T. ) ;
#700 = LINE ( 'NONE', #275, #630 ) ;
#701 = LINE ( 'NONE', #686, #489 ) ;
#702 = DIRECTION ( 'NONE',  ( -1.000000000000000000, 0.000000000000000000, 0.000000000000000000 ) ) ;
#703 = AXIS2_PLACEMENT_3D ( 'NONE', #260, #813, #591 ) ;
#704 = DIRECTION ( 'NONE',  ( 0.000000000000000000, 0.000000000000000000, 1.000000000000000000 ) ) ;
#705 = AXIS2_PLACEMENT_3D ( 'NONE', #455, #535, #100 ) ;
#706 = ORIENTED_EDGE ( 'NONE', *, *, #749, .F. ) ;
#707 = LINE ( 'NONE', #438, #733 ) ;
#708 = ADVANCED_FACE ( 'NONE', ( #256 ), #665, .T. ) ;
#709 = FACE_OUTER_BOUND ( 'NONE', #161, .T. ) ;
#710 = APPROVAL_ROLE ( '' ) ;
#711 = CARTESIAN_POINT ( 'NONE',  ( 68.73863542433761609, 20.00000000000000000, -30.00000000000000000 ) ) ;
#712 = FACE_OUTER_BOUND ( 'NONE', #666, .T. ) ;
#713 = CARTESIAN_POINT ( 'NONE',  ( -130.0000000000000000, 20.00000000000000000, 30.00000000000000000 ) ) ;
#714 = ORIENTED_EDGE ( 'NONE', *, *, #651, .T. ) ;
#715 = CARTESIAN_POINT ( 'NONE',  ( 0.000000000000000000, -134.1640786499874025, 60.00000000000000000 ) ) ;
#716 = VECTOR ( 'NONE', #201, 1000.000000000000000 ) ;
#717 = EDGE_LOOP ( 'NONE', ( #43, #587, #183, #181 ) ) ;
#718 = APPROVAL_ROLE ( '' ) ;
#719 = CARTESIAN_POINT ( 'NONE',  ( 66.17647058823530415, 0.000000000000000000, -35.29411764705883314 ) ) ;
#720 = ORIENTED_EDGE ( 'NONE', *, *, #571, .T. ) ;
#721 = DIRECTION ( 'NONE',  ( 1.000000000000000000, 0.000000000000000000, -2.312964634635742895E-17 ) ) ;
#722 = EDGE_CURVE ( 'NONE', #891, #287, #166, .T. ) ;
#723 = VERTEX_POINT ( 'NONE', #388 ) ;
#724 = UNCERTAINTY_MEASURE_WITH_UNIT (LENGTH_MEASURE( 1.000000000000000082E-05 ), #136, 'distance_accuracy_value', 'NONE');
#725 = LINE ( 'NONE', #522, #802 ) ;
#726 = PRODUCT_DEFINITION ( 'UNKNOWN', '', #99, #36 ) ;
#727 = ORIENTED_EDGE ( 'NONE', *, *, #47, .F. ) ;
#728 = CARTESIAN_POINT ( 'NONE',  ( 150.0000000000000000, -134.1640786499874025, 10.00000000000000000 ) ) ;
#729 = DIRECTION ( 'NONE',  ( 0.000000000000000000, 0.000000000000000000, 1.000000000000000000 ) ) ;
#730 = ORIENTED_EDGE ( 'NONE', *, *, #304, .F. ) ;
#731 = VECTOR ( 'NONE', #338, 1000.000000000000000 ) ;
#732 = PLANE ( 'NONE',  #222 ) ;
#733 = VECTOR ( 'NONE', #374, 1000.000000000000000 ) ;
#734 = DIRECTION ( 'NONE',  ( 0.000000000000000000, 0.000000000000000000, -1.000000000000000000 ) ) ;
#735 = DIRECTION ( 'NONE',  ( 0.000000000000000000, 0.000000000000000000, 1.000000000000000000 ) ) ;
#736 = LINE ( 'NONE', #37, #33 ) ;
#737 = ORIENTED_EDGE ( 'NONE', *, *, #173, .F. ) ;
#738 = FACE_OUTER_BOUND ( 'NONE', #258, .T. ) ;
#739 = ORIENTED_EDGE ( 'NONE', *, *, #816, .T. ) ;
#740 = DIRECTION ( 'NONE',  ( 0.000000000000000000, -1.000000000000000000, 0.000000000000000000 ) ) ;
#741 = CARTESIAN_POINT ( 'NONE',  ( -75.00000000000001421, 20.00000000000000000, -30.00000000000000000 ) ) ;
#742 = ORIENTED_EDGE ( 'NONE', *, *, #594, .T. ) ;
#743 = AXIS2_PLACEMENT_3D ( 'NONE', #76, #7, #155 ) ;
#744 = COORDINATED_UNIVERSAL_TIME_OFFSET ( 3, 30, .AHEAD. ) ;
#745 = VECTOR ( 'NONE', #189, 1000.000000000000000 ) ;
#746 = DIRECTION ( 'NONE',  ( 0.000000000000000000, 0.000000000000000000, -1.000000000000000000 ) ) ;
#747 = ORIENTED_EDGE ( 'NONE', *, *, #812, .F. ) ;
#748 = ADVANCED_FACE ( 'NONE', ( #464 ), #608, .F. ) ;
#749 = EDGE_CURVE ( 'NONE', #849, #467, #736, .T. ) ;
#750 = APPROVAL_STATUS ( 'not_yet_approved' ) ;
#751 = DIRECTION ( 'NONE',  ( 1.000000000000000000, -0.000000000000000000, -0.000000000000000000 ) ) ;
#752 = VERTEX_POINT ( 'NONE', #662 ) ;
#753 = EDGE_CURVE ( 'NONE', #552, #870, #145, .T. ) ;
#754 = EDGE_LOOP ( 'NONE', ( #730, #714, #825, #106 ) ) ;
#755 = CARTESIAN_POINT ( 'NONE',  ( -66.17647058823530415, 20.00000000000000000, 35.29411764705883314 ) ) ;
#756 = FACE_OUTER_BOUND ( 'NONE', #278, .T. ) ;
#757 = CARTESIAN_POINT ( 'NONE',  ( 68.73863542433761609, 20.00000000000000000, -30.00000000000000000 ) ) ;
#758 = CIRCLE ( 'NONE', #71, 60.00000000000000000 ) ;
#759 = VERTEX_POINT ( 'NONE', #185 ) ;
#760 = AXIS2_PLACEMENT_3D ( 'NONE', #64, #626, #563 ) ;
#761 = LINE ( 'NONE', #827, #716 ) ;
#762 = AXIS2_PLACEMENT_3D ( 'NONE', #575, #795, #652 ) ;
#763 = CARTESIAN_POINT ( 'NONE',  ( 0.000000000000000000, -134.1640786499874025, 0.000000000000000000 ) ) ;
#764 = EDGE_CURVE ( 'NONE', #759, #117, #128, .T. ) ;
#765 = MANIFOLD_SOLID_BREP ( 'Fillet2', #491 ) ;
#766 = ADVANCED_FACE ( 'NONE', ( #328 ), #871, .F. ) ;
#767 = EDGE_LOOP ( 'NONE', ( #519, #598, #327, #315 ) ) ;
#768 = LINE ( 'NONE', #755, #731 ) ;
#769 = CYLINDRICAL_SURFACE ( 'NONE', #631, 20.00000000000000000 ) ;
#770 = CARTESIAN_POINT ( 'NONE',  ( -150.0000000000000000, 0.000000000000000000, 30.00000000000000000 ) ) ;
#771 = DIRECTION ( 'NONE',  ( 0.000000000000000000, 1.000000000000000000, 0.000000000000000000 ) ) ;
#772 = ORIENTED_EDGE ( 'NONE', *, *, #317, .F. ) ;
#773 = APPROVAL_DATE_TIME ( #576, #660 ) ;
#774 = APPROVAL_PERSON_ORGANIZATION ( #75, #660, #710 ) ;
#775 = DIRECTION ( 'NONE',  ( 0.000000000000000000, 1.000000000000000000, 0.000000000000000000 ) ) ;
#776 = AXIS2_PLACEMENT_3D ( 'NONE', #217, #289, #721 ) ;
#777 = FACE_OUTER_BOUND ( 'NONE', #835, .T. ) ;
#778 = COORDINATED_UNIVERSAL_TIME_OFFSET ( 3, 30, .AHEAD. ) ;
#779 = CARTESIAN_POINT ( 'NONE',  ( -150.0000000000000000, -134.1640786499874025, 10.00000000000000000 ) ) ;
#780 = DIRECTION ( 'NONE',  ( -0.000000000000000000, -1.000000000000000000, -0.000000000000000000 ) ) ;
#781 = DIRECTION ( 'NONE',  ( 0.000000000000000000, 1.000000000000000000, 0.000000000000000000 ) ) ;
#782 = PLANE ( 'NONE',  #776 ) ;
#783 = ORIENTED_EDGE ( 'NONE', *, *, #622, .F. ) ;
#784 = CARTESIAN_POINT ( 'NONE',  ( 130.0000000000000000, 20.00000000000000000, 30.00000000000000000 ) ) ;
#785 = EDGE_CURVE ( 'NONE', #467, #194, #725, .T. ) ;
#786 = EDGE_LOOP ( 'NONE', ( #819, #28, #135, #742 ) ) ;
#787 = CIRCLE ( 'NONE', #366, 10.00000000000000178 ) ;
#788 = CARTESIAN_POINT ( 'NONE',  ( 66.17647058823530415, 20.00000000000000000, -35.29411764705883314 ) ) ;
#789 = VECTOR ( 'NONE', #323, 1000.000000000000000 ) ;
#790 = EDGE_CURVE ( 'NONE', #232, #647, #311, .T. ) ;
#791 = ORIENTED_EDGE ( 'NONE', *, *, #885, .F. ) ;
#792 = ADVANCED_FACE ( 'NONE', ( #411 ), #422, .T. ) ;
#793 = DIRECTION ( 'NONE',  ( 1.000000000000000000, 0.000000000000000000, -2.312964634635742895E-17 ) ) ;
#794 = ORIENTED_EDGE ( 'NONE', *, *, #521, .F. ) ;
#795 = DIRECTION ( 'NONE',  ( -0.000000000000000000, 1.000000000000000000, -0.000000000000000000 ) ) ;
#796 = FACE_OUTER_BOUND ( 'NONE', #389, .T. ) ;
#797 = EDGE_LOOP ( 'NONE', ( #699, #198, #380, #157 ) ) ;
#798 = CARTESIAN_POINT ( 'NONE',  ( -150.0000000000000000, 0.000000000000000000, 10.00000000000000000 ) ) ;
#799 = EDGE_CURVE ( 'NONE', #752, #187, #768, .T. ) ;
#800 = CARTESIAN_POINT ( 'NONE',  ( -130.0000000000000000, 20.00000000000000000, 9.999999999999998224 ) ) ;
#801 = ORIENTED_EDGE ( 'NONE', *, *, #764, .T. ) ;
#802 = VECTOR ( 'NONE', #30, 1000.000000000000000 ) ;
#803 = DIRECTION ( 'NONE',  ( -1.000000000000000000, 0.000000000000000000, -0.000000000000000000 ) ) ;
#804 = VECTOR ( 'NONE', #300, 1000.000000000000000 ) ;
#805 = CARTESIAN_POINT ( 'NONE',  ( 150.0000000000000000, 0.000000000000000000, 10.00000000000000178 ) ) ;
#806 = ORIENTED_EDGE ( 'NONE', *, *, #785, .T. ) ;
#807 = CARTESIAN_POINT ( 'NONE',  ( 7.347880794884118356E-15, 0.000000000000000000, -60.00000000000000000 ) ) ;
#808 = ORIENTED_EDGE ( 'NONE', *, *, #83, .T. ) ;
#809 = DIRECTION ( 'NONE',  ( -0.000000000000000000, 1.000000000000000000, -0.000000000000000000 ) ) ;
#810 = FACE_OUTER_BOUND ( 'NONE', #59, .T. ) ;
#811 = ORIENTED_EDGE ( 'NONE', *, *, #304, .T. ) ;
#812 = EDGE_CURVE ( 'NONE', #287, #610, #640, .T. ) ;
#813 = DIRECTION ( 'NONE',  ( 0.000000000000000000, 1.000000000000000000, 0.000000000000000000 ) ) ;
#814 = VERTEX_POINT ( 'NONE', #692 ) ;
#815 = VECTOR ( 'NONE', #197, 1000.000000000000000 ) ;
#816 = EDGE_CURVE ( 'NONE', #187, #303, #84, .T. ) ;
#817 = DIRECTION ( 'NONE',  ( -0.000000000000000000, -1.000000000000000000, -0.000000000000000000 ) ) ;
#818 = PLANE ( 'NONE',  #430 ) ;
#819 = ORIENTED_EDGE ( 'NONE', *, *, #333, .F. ) ;
#820 = ORIENTED_EDGE ( 'NONE', *, *, #562, .T. ) ;
#821 = DIRECTION ( 'NONE',  ( 0.000000000000000000, 1.000000000000000000, 0.000000000000000000 ) ) ;
#822 = CYLINDRICAL_SURFACE ( 'NONE', #691, 75.00000000000001421 ) ;
#823 = ORIENTED_EDGE ( 'NONE', *, *, #463, .T. ) ;
#824 = EDGE_CURVE ( 'NONE', #51, #376, #758, .T. ) ;
#825 = ORIENTED_EDGE ( 'NONE', *, *, #173, .T. ) ;
#826 = CARTESIAN_POINT ( 'NONE',  ( 66.17647058823530415, 20.00000000000000000, -35.29411764705883314 ) ) ;
#827 = CARTESIAN_POINT ( 'NONE',  ( -75.00000000000000000, 20.00000000000000000, -10.00000000000000178 ) ) ;
#828 = ORIENTED_EDGE ( 'NONE', *, *, #432, .T. ) ;
#829 = ORIENTED_EDGE ( 'NONE', *, *, #47, .T. ) ;
#830 = VECTOR ( 'NONE', #840, 1000.000000000000000 ) ;
#831 = CARTESIAN_POINT ( 'NONE',  ( -130.0000000000000000, 20.00000000000000000, -9.999999999999998224 ) ) ;
#832 = DIRECTION ( 'NONE',  ( 1.000000000000000000, -0.000000000000000000, -0.000000000000000000 ) ) ;
#833 = COORDINATED_UNIVERSAL_TIME_OFFSET ( 3, 30, .AHEAD. ) ;
#834 = DIRECTION ( 'NONE',  ( 0.000000000000000000, 0.000000000000000000, 1.000000000000000000 ) ) ;
#835 = EDGE_LOOP ( 'NONE', ( #22, #451, #261, #191 ) ) ;
#836 = EDGE_CURVE ( 'NONE', #244, #165, #600, .T. ) ;
#837 = DIRECTION ( 'NONE',  ( 0.000000000000000000, 1.000000000000000000, 0.000000000000000000 ) ) ;
#838 = DIRECTION ( 'NONE',  ( 0.000000000000000000, 0.000000000000000000, 1.000000000000000000 ) ) ;
#839 = VECTOR ( 'NONE', #238, 1000.000000000000000 ) ;
#840 = DIRECTION ( 'NONE',  ( 0.000000000000000000, -1.000000000000000000, 0.000000000000000000 ) ) ;
#841 = EDGE_CURVE ( 'NONE', #26, #171, #49, .T. ) ;
#842 = DIRECTION ( 'NONE',  ( 0.000000000000000000, 0.000000000000000000, -1.000000000000000000 ) ) ;
#843 = CALENDAR_DATE ( 2026, 31, 7 ) ;
#844 = CARTESIAN_POINT ( 'NONE',  ( -68.73863542433761609, 20.00000000000000000, -30.00000000000000000 ) ) ;
#845 = ORIENTED_EDGE ( 'NONE', *, *, #521, .T. ) ;
#846 = FACE_OUTER_BOUND ( 'NONE', #401, .T. ) ;
#847 = PERSON_AND_ORGANIZATION ( #399, #308 ) ;
#848 = CARTESIAN_POINT ( 'NONE',  ( 0.000000000000000000, 20.00000000000000000, 0.000000000000000000 ) ) ;
#849 = VERTEX_POINT ( 'NONE', #611 ) ;
#850 = LINE ( 'NONE', #11, #268 ) ;
#851 = ORIENTED_EDGE ( 'NONE', *, *, #885, .T. ) ;
#852 = DIRECTION ( 'NONE',  ( 0.000000000000000000, 0.000000000000000000, -1.000000000000000000 ) ) ;
#853 = ORIENTED_EDGE ( 'NONE', *, *, #331, .T. ) ;
#854 = SECURITY_CLASSIFICATION ( '', '', #503 ) ;
#855 = CARTESIAN_POINT ( 'NONE',  ( 130.0000000000000000, 0.000000000000000000, 30.00000000000000000 ) ) ;
#856 = ORIENTED_EDGE ( 'NONE', *, *, #208, .T. ) ;
#857 = DIRECTION ( 'NONE',  ( 0.000000000000000000, 0.000000000000000000, -1.000000000000000000 ) ) ;
#858 = VERTEX_POINT ( 'NONE', #826 ) ;
#859 = LINE ( 'NONE', #172, #31 ) ;
#860 = LINE ( 'NONE', #669, #789 ) ;
#861 = ORIENTED_EDGE ( 'NONE', *, *, #601, .F. ) ;
#862 = DIRECTION ( 'NONE',  ( 0.000000000000000000, 1.000000000000000000, 0.000000000000000000 ) ) ;
#863 = LINE ( 'NONE', #603, #586 ) ;
#864 = ORIENTED_EDGE ( 'NONE', *, *, #812, .T. ) ;
#865 = DIRECTION ( 'NONE',  ( -0.000000000000000000, -1.000000000000000000, -0.000000000000000000 ) ) ;
#866 = CC_DESIGN_APPROVAL ( #404, ( #99 ) ) ;
#867 = CIRCLE ( 'NONE', #324, 60.00000000000000000 ) ;
#868 = CARTESIAN_POINT ( 'NONE',  ( 0.000000000000000000, 20.00000000000000000, 0.000000000000000000 ) ) ;
#869 = DIRECTION ( 'NONE',  ( -0.000000000000000000, -1.000000000000000000, -0.000000000000000000 ) ) ;
#870 = VERTEX_POINT ( 'NONE', #407 ) ;
#871 = PLANE ( 'NONE',  #218 ) ;
#872 = EDGE_CURVE ( 'NONE', #723, #239, #426, .T. ) ;
#873 = DIRECTION ( 'NONE',  ( 0.000000000000000000, 0.000000000000000000, 1.000000000000000000 ) ) ;
#874 = ORIENTED_EDGE ( 'NONE', *, *, #242, .F. ) ;
#875 = CC_DESIGN_PERSON_AND_ORGANIZATION_ASSIGNMENT ( #696, #539, ( #617 ) ) ;
#876 = DIRECTION ( 'NONE',  ( 0.000000000000000000, 0.000000000000000000, 1.000000000000000000 ) ) ;
#877 = CARTESIAN_POINT ( 'NONE',  ( -130.0000000000000000, 0.000000000000000000, -30.00000000000000000 ) ) ;
#878 = LOCAL_TIME ( 13, 48, 46.00000000000000000, #230 ) ;
#879 = EDGE_LOOP ( 'NONE', ( #94, #811, #55, #737 ) ) ;
#880 = CIRCLE ( 'NONE', #102, 75.00000000000001421 ) ;
#881 = ORIENTED_EDGE ( 'NONE', *, *, #593, .T. ) ;
#882 = CIRCLE ( 'NONE', #644, 10.00000000000000178 ) ;
#883 = DIRECTION ( 'NONE',  ( -0.000000000000000000, -1.000000000000000000, -0.000000000000000000 ) ) ;
#884 = FACE_OUTER_BOUND ( 'NONE', #717, .T. ) ;
#885 = EDGE_CURVE ( 'NONE', #647, #227, #700, .T. ) ;
#886 = ORIENTED_EDGE ( 'NONE', *, *, #262, .F. ) ;
#887 = ORIENTED_EDGE ( 'NONE', *, *, #601, .T. ) ;
#888 = CC_DESIGN_DATE_AND_TIME_ASSIGNMENT ( #299, #561, ( #854 ) ) ;
#889 = CARTESIAN_POINT ( 'NONE',  ( 0.000000000000000000, 20.00000000000000000, 0.000000000000000000 ) ) ;
#890 = ORIENTED_EDGE ( 'NONE', *, *, #184, .F. ) ;
#891 = VERTEX_POINT ( 'NONE', #418 ) ;
#892 = CARTESIAN_POINT ( 'NONE',  ( 0.000000000000000000, 0.000000000000000000, 0.000000000000000000 ) ) ;
#893 = CARTESIAN_POINT ( 'NONE',  ( -75.00000000000001421, 0.000000000000000000, -30.00000000000000000 ) ) ;
#894 = FACE_OUTER_BOUND ( 'NONE', #124, .T. ) ;
ENDSEC;
END-ISO-10303-21;
