ISO-10303-21;
HEADER;
FILE_DESCRIPTION (( 'STEP AP203' ),
    '1' );
FILE_NAME ('Link2FrontShaft_Default_sldprt.STEP',
    '2026-07-23T12:34:52',
    ( '' ),
    ( '' ),
    'SwSTEP 2.0',
    'SolidWorks 2025',
    '' );
FILE_SCHEMA (( 'CONFIG_CONTROL_DESIGN' ));
ENDSEC;

DATA;
#1 = VERTEX_POINT ( 'NONE', #657 ) ;
#2 = ORIENTED_EDGE ( 'NONE', *, *, #763, .F. ) ;
#3 = PLANE ( 'NONE',  #863 ) ;
#4 = VECTOR ( 'NONE', #195, 1000.000000000000000 ) ;
#5 = AXIS2_PLACEMENT_3D ( 'NONE', #677, #667, #34 ) ;
#6 = DIRECTION ( 'NONE',  ( -1.000000000000000000, -0.000000000000000000, -0.000000000000000000 ) ) ;
#7 = AXIS2_PLACEMENT_3D ( 'NONE', #329, #732, #650 ) ;
#8 = EDGE_LOOP ( 'NONE', ( #683, #1007, #625, #839, #350, #99 ) ) ;
#9 = ORIENTED_EDGE ( 'NONE', *, *, #153, .T. ) ;
#10 = DIRECTION ( 'NONE',  ( 0.000000000000000000, 0.000000000000000000, 1.000000000000000000 ) ) ;
#11 = CARTESIAN_POINT ( 'NONE',  ( 0.000000000000000000, 0.000000000000000000, 0.000000000000000000 ) ) ;
#12 = EDGE_CURVE ( 'NONE', #154, #799, #82, .T. ) ;
#13 = ORIENTED_EDGE ( 'NONE', *, *, #110, .F. ) ;
#14 = AXIS2_PLACEMENT_3D ( 'NONE', #374, #241, #633 ) ;
#15 = ORIENTED_EDGE ( 'NONE', *, *, #387, .T. ) ;
#16 = CARTESIAN_POINT ( 'NONE',  ( 0.000000000000000000, 0.000000000000000000, 0.000000000000000000 ) ) ;
#17 = AXIS2_PLACEMENT_3D ( 'NONE', #1000, #275, #441 ) ;
#18 = DIRECTION ( 'NONE',  ( 0.000000000000000000, 0.000000000000000000, 1.000000000000000000 ) ) ;
#19 = ORIENTED_EDGE ( 'NONE', *, *, #175, .T. ) ;
#20 = EDGE_CURVE ( 'NONE', #201, #1, #854, .T. ) ;
#21 = ORIENTED_EDGE ( 'NONE', *, *, #102, .T. ) ;
#22 = DIRECTION ( 'NONE',  ( 0.000000000000000000, 0.000000000000000000, 1.000000000000000000 ) ) ;
#23 = DIRECTION ( 'NONE',  ( 0.000000000000000000, 0.000000000000000000, 1.000000000000000000 ) ) ;
#24 = DIRECTION ( 'NONE',  ( -1.000000000000000000, -0.000000000000000000, -0.000000000000000000 ) ) ;
#25 = EDGE_CURVE ( 'NONE', #631, #877, #641, .T. ) ;
#26 = DIRECTION ( 'NONE',  ( -1.000000000000000000, -0.000000000000000000, -0.000000000000000000 ) ) ;
#27 = CARTESIAN_POINT ( 'NONE',  ( 24.00000000000000000, 0.000000000000000000, 0.000000000000000000 ) ) ;
#28 = FACE_OUTER_BOUND ( 'NONE', #664, .T. ) ;
#29 = AXIS2_PLACEMENT_3D ( 'NONE', #1008, #694, #912 ) ;
#30 = VERTEX_POINT ( 'NONE', #740 ) ;
#31 = PLANE ( 'NONE',  #537 ) ;
#32 = EDGE_CURVE ( 'NONE', #783, #245, #470, .T. ) ;
#33 = AXIS2_PLACEMENT_3D ( 'NONE', #497, #812, #97 ) ;
#34 = DIRECTION ( 'NONE',  ( 0.000000000000000000, 0.000000000000000000, 1.000000000000000000 ) ) ;
#35 = CIRCLE ( 'NONE', #705, 4.990000000000000213 ) ;
#36 = DIRECTION ( 'NONE',  ( 0.000000000000000000, 0.000000000000000000, 1.000000000000000000 ) ) ;
#37 = ORIENTED_EDGE ( 'NONE', *, *, #727, .F. ) ;
#38 = DIRECTION ( 'NONE',  ( 0.000000000000000000, 0.000000000000000000, 1.000000000000000000 ) ) ;
#39 = CARTESIAN_POINT ( 'NONE',  ( 4.000000000000000000, 5.866058167915824404E-16, -4.790000000000001812 ) ) ;
#40 = CC_DESIGN_PERSON_AND_ORGANIZATION_ASSIGNMENT ( #1022, #626, ( #771 ) ) ;
#41 = AXIS2_PLACEMENT_3D ( 'NONE', #280, #446, #209 ) ;
#42 = CYLINDRICAL_SURFACE ( 'NONE', #544, 4.790000000000000924 ) ;
#43 = ORIENTED_EDGE ( 'NONE', *, *, #1003, .F. ) ;
#44 = CARTESIAN_POINT ( 'NONE',  ( 3.000000000000000000, 0.000000000000000000, -4.790000000000000924 ) ) ;
#45 = CARTESIAN_POINT ( 'NONE',  ( 39.50000000000000711, 0.000000000000000000, 0.000000000000000000 ) ) ;
#46 = ORIENTED_EDGE ( 'NONE', *, *, #378, .F. ) ;
#47 = LINE ( 'NONE', #294, #830 ) ;
#48 = AXIS2_PLACEMENT_3D ( 'NONE', #357, #290, #539 ) ;
#49 = APPROVAL_PERSON_ORGANIZATION ( #703, #924, #777 ) ;
#50 = DIRECTION ( 'NONE',  ( -1.000000000000000000, -0.000000000000000000, -0.000000000000000000 ) ) ;
#51 = VECTOR ( 'NONE', #950, 1000.000000000000000 ) ;
#52 = DIRECTION ( 'NONE',  ( -0.000000000000000000, 0.000000000000000000, 1.000000000000000000 ) ) ;
#53 = ORIENTED_EDGE ( 'NONE', *, *, #425, .T. ) ;
#54 = DIRECTION ( 'NONE',  ( 0.000000000000000000, 0.000000000000000000, 1.000000000000000000 ) ) ;
#55 = ADVANCED_FACE ( 'NONE', ( #420 ), #749, .F. ) ;
#56 = DIRECTION ( 'NONE',  ( -1.000000000000000000, -0.000000000000000000, -0.000000000000000000 ) ) ;
#57 = CARTESIAN_POINT ( 'NONE',  ( 26.00000000000000355, 0.000000000000000000, -4.990000000000003766 ) ) ;
#58 = ORIENTED_EDGE ( 'NONE', *, *, #1040, .F. ) ;
#59 = APPROVAL_STATUS ( 'not_yet_approved' ) ;
#60 = DIRECTION ( 'NONE',  ( -1.000000000000000000, -0.000000000000000000, -0.000000000000000000 ) ) ;
#61 = ORIENTED_EDGE ( 'NONE', *, *, #905, .T. ) ;
#62 = PERSON_AND_ORGANIZATION ( #183, #285 ) ;
#63 = CARTESIAN_POINT ( 'NONE',  ( 14.00000000000000000, 0.000000000000000000, 0.000000000000000000 ) ) ;
#64 = EDGE_LOOP ( 'NONE', ( #255, #927 ) ) ;
#65 = PERSON_AND_ORGANIZATION_ROLE ( 'design_owner' ) ;
#66 = AXIS2_PLACEMENT_3D ( 'NONE', #662, #242, #170 ) ;
#67 = CIRCLE ( 'NONE', #658, 4.790000000000001812 ) ;
#68 = EDGE_CURVE ( 'NONE', #877, #631, #249, .T. ) ;
#69 = CARTESIAN_POINT ( 'NONE',  ( 1.224646799147250347E-18, 0.000000000000000000, 0.000000000000000000 ) ) ;
#70 = EDGE_CURVE ( 'NONE', #1001, #234, #521, .T. ) ;
#71 = ORIENTED_EDGE ( 'NONE', *, *, #406, .F. ) ;
#72 = COORDINATED_UNIVERSAL_TIME_OFFSET ( 3, 30, .AHEAD. ) ;
#73 = AXIS2_PLACEMENT_3D ( 'NONE', #509, #360, #1012 ) ;
#74 = FACE_OUTER_BOUND ( 'NONE', #64, .T. ) ;
#75 = DIRECTION ( 'NONE',  ( 0.000000000000000000, 0.000000000000000000, 1.000000000000000000 ) ) ;
#76 = ORIENTED_EDGE ( 'NONE', *, *, #561, .F. ) ;
#77 = APPLICATION_PROTOCOL_DEFINITION ( 'international standard', 'config_control_design', 1994, #1011 ) ;
#78 = ADVANCED_FACE ( 'NONE', ( #996 ), #1006, .F. ) ;
#79 = DIRECTION ( 'NONE',  ( 1.000000000000000000, 0.000000000000000000, 0.000000000000000000 ) ) ;
#80 =( GEOMETRIC_REPRESENTATION_CONTEXT ( 3 ) GLOBAL_UNCERTAINTY_ASSIGNED_CONTEXT ( ( #630 ) ) GLOBAL_UNIT_ASSIGNED_CONTEXT ( ( #618, #992, #367 ) ) REPRESENTATION_CONTEXT ( 'NONE', 'WORKASPACE' ) );
#81 = CARTESIAN_POINT ( 'NONE',  ( 24.00000000000000000, -1.999999999999997335, 7.218039900139097576 ) ) ;
#82 = LINE ( 'NONE', #331, #954 ) ;
#83 = ORIENTED_EDGE ( 'NONE', *, *, #817, .T. ) ;
#84 = CC_DESIGN_PERSON_AND_ORGANIZATION_ASSIGNMENT ( #384, #643, ( #318 ) ) ;
#85 = CARTESIAN_POINT ( 'NONE',  ( 14.00000000000000000, 2.000000000000002665, 4.571662717217883198 ) ) ;
#86 = CIRCLE ( 'NONE', #119, 7.490000000000001990 ) ;
#87 = DIRECTION ( 'NONE',  ( 0.000000000000000000, 0.000000000000000000, 1.000000000000000000 ) ) ;
#88 = VERTEX_POINT ( 'NONE', #271 ) ;
#89 = CARTESIAN_POINT ( 'NONE',  ( 0.000000000000000000, 0.000000000000000000, 0.000000000000000000 ) ) ;
#90 = CIRCLE ( 'NONE', #942, 4.990000000000004654 ) ;
#91 = DIRECTION ( 'NONE',  ( 0.000000000000000000, 0.000000000000000000, -1.000000000000000000 ) ) ;
#92 = ORIENTED_EDGE ( 'NONE', *, *, #236, .F. ) ;
#93 = ORIENTED_EDGE ( 'NONE', *, *, #70, .F. ) ;
#94 = CARTESIAN_POINT ( 'NONE',  ( 4.000000000000000000, 0.000000000000000000, 4.990000000000001101 ) ) ;
#95 = LINE ( 'NONE', #892, #913 ) ;
#96 = ADVANCED_FACE ( 'NONE', ( #28 ), #124, .T. ) ;
#97 = DIRECTION ( 'NONE',  ( 0.000000000000000000, 0.000000000000000000, 1.000000000000000000 ) ) ;
#98 = VECTOR ( 'NONE', #258, 1000.000000000000000 ) ;
#99 = ORIENTED_EDGE ( 'NONE', *, *, #747, .F. ) ;
#100 = DIRECTION ( 'NONE',  ( 1.000000000000000000, 0.000000000000000000, 0.000000000000000000 ) ) ;
#101 = DIRECTION ( 'NONE',  ( -0.000000000000000000, 0.000000000000000000, 1.000000000000000000 ) ) ;
#102 = EDGE_CURVE ( 'NONE', #408, #511, #994, .T. ) ;
#103 = DIRECTION ( 'NONE',  ( -0.000000000000000000, 0.000000000000000000, 1.000000000000000000 ) ) ;
#104 = ORIENTED_EDGE ( 'NONE', *, *, #364, .F. ) ;
#105 = DIRECTION ( 'NONE',  ( 0.000000000000000000, 0.000000000000000000, 1.000000000000000000 ) ) ;
#106 = CARTESIAN_POINT ( 'NONE',  ( 39.50000000000000711, 0.000000000000000000, 0.000000000000000000 ) ) ;
#107 = LINE ( 'NONE', #609, #709 ) ;
#108 = ORIENTED_EDGE ( 'NONE', *, *, #495, .T. ) ;
#109 = DIRECTION ( 'NONE',  ( -1.000000000000000000, -0.000000000000000000, -0.000000000000000000 ) ) ;
#110 = EDGE_CURVE ( 'NONE', #171, #765, #682, .T. ) ;
#111 = CARTESIAN_POINT ( 'NONE',  ( 0.000000000000000000, 0.000000000000000000, 0.000000000000000000 ) ) ;
#112 = DIRECTION ( 'NONE',  ( -1.000000000000000000, -0.000000000000000000, -0.000000000000000000 ) ) ;
#113 = MANIFOLD_SOLID_BREP ( 'Cut-Extrude8', #819 ) ;
#114 = ORIENTED_EDGE ( 'NONE', *, *, #220, .T. ) ;
#115 = DIRECTION ( 'NONE',  ( 0.000000000000000000, 0.000000000000000000, 1.000000000000000000 ) ) ;
#116 = ADVANCED_FACE ( 'NONE', ( #514 ), #590, .F. ) ;
#117 = CARTESIAN_POINT ( 'NONE',  ( 26.00000000000000355, 9.172604525613680109E-16, -7.490000000000003766 ) ) ;
#118 = AXIS2_PLACEMENT_3D ( 'NONE', #811, #722, #796 ) ;
#119 = AXIS2_PLACEMENT_3D ( 'NONE', #63, #228, #696 ) ;
#120 = DIRECTION ( 'NONE',  ( -1.000000000000000000, -0.000000000000000000, -0.000000000000000000 ) ) ;
#121 = ORIENTED_EDGE ( 'NONE', *, *, #561, .T. ) ;
#122 = LINE ( 'NONE', #597, #768 ) ;
#123 = DIRECTION ( 'NONE',  ( -1.000000000000000000, -0.000000000000000000, -0.000000000000000000 ) ) ;
#124 = CYLINDRICAL_SURFACE ( 'NONE', #326, 4.990000000000004654 ) ;
#125 = ORIENTED_EDGE ( 'NONE', *, *, #32, .F. ) ;
#126 = LINE ( 'NONE', #437, #1034 ) ;
#127 = CYLINDRICAL_SURFACE ( 'NONE', #919, 4.990000000000001101 ) ;
#128 = ADVANCED_FACE ( 'NONE', ( #605 ), #42, .T. ) ;
#129 = CARTESIAN_POINT ( 'NONE',  ( 4.000000000000000000, 0.000000000000000000, 4.790000000000001812 ) ) ;
#130 = ORIENTED_EDGE ( 'NONE', *, *, #110, .T. ) ;
#131 = DIRECTION ( 'NONE',  ( 0.000000000000000000, 0.000000000000000000, -1.000000000000000000 ) ) ;
#132 = CIRCLE ( 'NONE', #163, 4.990000000000004654 ) ;
#133 = CARTESIAN_POINT ( 'NONE',  ( 3.000000000000000000, 6.110987527745293517E-16, -4.990000000000000213 ) ) ;
#134 = AXIS2_PLACEMENT_3D ( 'NONE', #600, #832, #595 ) ;
#135 = DIRECTION ( 'NONE',  ( -1.000000000000000000, -0.000000000000000000, -0.000000000000000000 ) ) ;
#136 = EDGE_CURVE ( 'NONE', #472, #487, #90, .T. ) ;
#137 = ORIENTED_EDGE ( 'NONE', *, *, #148, .F. ) ;
#138 = SECURITY_CLASSIFICATION_LEVEL ( 'unclassified' ) ;
#139 = DIRECTION ( 'NONE',  ( 0.000000000000000000, 0.000000000000000000, -1.000000000000000000 ) ) ;
#140 = VERTEX_POINT ( 'NONE', #823 ) ;
#141 = APPLICATION_PROTOCOL_DEFINITION ( 'international standard', 'config_control_design', 1994, #164 ) ;
#142 = EDGE_CURVE ( 'NONE', #584, #409, #225, .T. ) ;
#143 = LINE ( 'NONE', #224, #721 ) ;
#144 = VERTEX_POINT ( 'NONE', #686 ) ;
#145 = APPROVAL_DATE_TIME ( #551, #953 ) ;
#146 = CC_DESIGN_PERSON_AND_ORGANIZATION_ASSIGNMENT ( #698, #65, ( #846 ) ) ;
#147 = VECTOR ( 'NONE', #903, 1000.000000000000000 ) ;
#148 = EDGE_CURVE ( 'NONE', #716, #196, #893, .T. ) ;
#149 = DIRECTION ( 'NONE',  ( -1.000000000000000000, -0.000000000000000000, -0.000000000000000000 ) ) ;
#150 = VERTEX_POINT ( 'NONE', #365 ) ;
#151 = FACE_OUTER_BOUND ( 'NONE', #776, .T. ) ;
#152 = FACE_OUTER_BOUND ( 'NONE', #397, .T. ) ;
#153 = EDGE_CURVE ( 'NONE', #245, #783, #1027, .T. ) ;
#154 = VERTEX_POINT ( 'NONE', #288 ) ;
#155 = COORDINATED_UNIVERSAL_TIME_OFFSET ( 3, 30, .AHEAD. ) ;
#156 = CYLINDRICAL_SURFACE ( 'NONE', #502, 4.990000000000009983 ) ;
#157 = DIRECTION ( 'NONE',  ( -1.000000000000000000, -0.000000000000000000, -0.000000000000000000 ) ) ;
#158 = EDGE_CURVE ( 'NONE', #234, #409, #107, .T. ) ;
#159 = ORIENTED_EDGE ( 'NONE', *, *, #148, .T. ) ;
#160 = EDGE_LOOP ( 'NONE', ( #573, #159, #669, #550 ) ) ;
#161 = DIRECTION ( 'NONE',  ( 0.000000000000000000, 0.000000000000000000, 1.000000000000000000 ) ) ;
#162 = VECTOR ( 'NONE', #955, 1000.000000000000000 ) ;
#163 = AXIS2_PLACEMENT_3D ( 'NONE', #766, #109, #54 ) ;
#164 = APPLICATION_CONTEXT ( 'configuration controlled 3d designs of mechanical parts and assemblies' ) ;
#165 = DIRECTION ( 'NONE',  ( -1.000000000000000000, -0.000000000000000000, -0.000000000000000000 ) ) ;
#166 = ORIENTED_EDGE ( 'NONE', *, *, #70, .T. ) ;
#167 = EDGE_LOOP ( 'NONE', ( #256, #617, #403, #53, #707, #210 ) ) ;
#168 = FACE_OUTER_BOUND ( 'NONE', #945, .T. ) ;
#169 = AXIS2_PLACEMENT_3D ( 'NONE', #111, #123, #23 ) ;
#170 = DIRECTION ( 'NONE',  ( 0.000000000000000000, 0.000000000000000000, 1.000000000000000000 ) ) ;
#171 = VERTEX_POINT ( 'NONE', #744 ) ;
#172 = AXIS2_PLACEMENT_3D ( 'NONE', #640, #6, #802 ) ;
#173 = EDGE_LOOP ( 'NONE', ( #15, #371, #730, #788 ) ) ;
#174 = FACE_OUTER_BOUND ( 'NONE', #376, .T. ) ;
#175 = EDGE_CURVE ( 'NONE', #30, #466, #349, .T. ) ;
#176 = CARTESIAN_POINT ( 'NONE',  ( 0.000000000000000000, 9.172604525613678137E-16, -7.490000000000001990 ) ) ;
#177 = DIRECTION ( 'NONE',  ( 0.000000000000000000, 0.000000000000000000, 1.000000000000000000 ) ) ;
#178 = ORIENTED_EDGE ( 'NONE', *, *, #874, .T. ) ;
#179 = LINE ( 'NONE', #529, #247 ) ;
#180 = ADVANCED_FACE ( 'NONE', ( #191 ), #430, .T. ) ;
#181 = DIRECTION ( 'NONE',  ( -1.000000000000000000, 0.000000000000000000, -0.000000000000000000 ) ) ;
#182 = CIRCLE ( 'NONE', #934, 4.990000000000004654 ) ;
#183 = PERSON ( 'UNSPECIFIED', 'UNSPECIFIED', 'UNSPECIFIED', ('UNSPECIFIED'), ('UNSPECIFIED'), ('UNSPECIFIED') ) ;
#184 = ORIENTED_EDGE ( 'NONE', *, *, #531, .T. ) ;
#185 = LOCAL_TIME ( 16, 4, 52.00000000000000000, #394 ) ;
#186 = ORIENTED_EDGE ( 'NONE', *, *, #439, .T. ) ;
#187 = DIRECTION ( 'NONE',  ( 0.000000000000000000, 0.000000000000000000, 1.000000000000000000 ) ) ;
#188 = VECTOR ( 'NONE', #462, 1000.000000000000000 ) ;
#189 = CARTESIAN_POINT ( 'NONE',  ( 39.50000000000000711, 6.110987527745301406E-16, -4.990000000000004654 ) ) ;
#190 = EDGE_CURVE ( 'NONE', #606, #765, #1029, .T. ) ;
#191 = FACE_OUTER_BOUND ( 'NONE', #298, .T. ) ;
#192 = VERTEX_POINT ( 'NONE', #129 ) ;
#193 = DIRECTION ( 'NONE',  ( -0.000000000000000000, 0.000000000000000000, 1.000000000000000000 ) ) ;
#194 = CARTESIAN_POINT ( 'NONE',  ( 29.50000000000000000, 0.000000000000000000, -4.790000000000005365 ) ) ;
#195 = DIRECTION ( 'NONE',  ( -1.000000000000000000, -0.000000000000000000, -0.000000000000000000 ) ) ;
#196 = VERTEX_POINT ( 'NONE', #465 ) ;
#197 = FACE_BOUND ( 'NONE', #345, .T. ) ;
#198 = DIRECTION ( 'NONE',  ( -0.000000000000000000, -0.000000000000000000, 1.000000000000000000 ) ) ;
#199 = DIRECTION ( 'NONE',  ( -1.000000000000000000, -0.000000000000000000, -0.000000000000000000 ) ) ;
#200 = AXIS2_PLACEMENT_3D ( 'NONE', #1015, #602, #917 ) ;
#201 = VERTEX_POINT ( 'NONE', #692 ) ;
#202 = DIRECTION ( 'NONE',  ( 1.000000000000000000, 0.000000000000000000, 0.000000000000000000 ) ) ;
#203 = APPROVAL_PERSON_ORGANIZATION ( #321, #889, #853 ) ;
#204 = FACE_OUTER_BOUND ( 'NONE', #697, .T. ) ;
#205 = DIRECTION ( 'NONE',  ( -1.000000000000000000, -0.000000000000000000, -0.000000000000000000 ) ) ;
#206 = ORIENTED_EDGE ( 'NONE', *, *, #778, .F. ) ;
#207 = EDGE_CURVE ( 'NONE', #463, #799, #1013, .T. ) ;
#208 = FACE_OUTER_BOUND ( 'NONE', #809, .T. ) ;
#209 = DIRECTION ( 'NONE',  ( 0.000000000000000000, 0.000000000000000000, 1.000000000000000000 ) ) ;
#210 = ORIENTED_EDGE ( 'NONE', *, *, #207, .F. ) ;
#211 = DIRECTION ( 'NONE',  ( -1.000000000000000000, -0.000000000000000000, -0.000000000000000000 ) ) ;
#212 = CARTESIAN_POINT ( 'NONE',  ( 38.50000000000000000, 6.110987527745298447E-16, -4.990000000000004654 ) ) ;
#213 = DIRECTION ( 'NONE',  ( 0.000000000000000000, 0.000000000000000000, 1.000000000000000000 ) ) ;
#214 = ADVANCED_FACE ( 'NONE', ( #292, #375 ), #775, .F. ) ;
#215 = ORIENTED_EDGE ( 'NONE', *, *, #364, .T. ) ;
#216 = CARTESIAN_POINT ( 'NONE',  ( 0.000000000000000000, 0.000000000000000000, 0.000000000000000000 ) ) ;
#217 = AXIS2_PLACEMENT_3D ( 'NONE', #767, #873, #161 ) ;
#218 = LINE ( 'NONE', #540, #638 ) ;
#219 = CIRCLE ( 'NONE', #485, 4.790000000000005365 ) ;
#220 = EDGE_CURVE ( 'NONE', #562, #192, #971, .T. ) ;
#221 = AXIS2_PLACEMENT_3D ( 'NONE', #566, #652, #967 ) ;
#222 = ORIENTED_EDGE ( 'NONE', *, *, #263, .T. ) ;
#223 = DATE_TIME_ROLE ( 'classification_date' ) ;
#224 = CARTESIAN_POINT ( 'NONE',  ( 0.000000000000000000, 0.000000000000000000, 4.990000000000004654 ) ) ;
#225 = CIRCLE ( 'NONE', #309, 4.790000000000005365 ) ;
#226 = ORIENTED_EDGE ( 'NONE', *, *, #158, .T. ) ;
#227 = DIRECTION ( 'NONE',  ( 0.000000000000000000, 0.000000000000000000, 1.000000000000000000 ) ) ;
#228 = DIRECTION ( 'NONE',  ( -1.000000000000000000, -0.000000000000000000, -0.000000000000000000 ) ) ;
#229 = VERTEX_POINT ( 'NONE', #849 ) ;
#230 = CALENDAR_DATE ( 2026, 23, 7 ) ;
#231 = FACE_OUTER_BOUND ( 'NONE', #871, .T. ) ;
#232 = AXIS2_PLACEMENT_3D ( 'NONE', #867, #878, #714 ) ;
#233 = DIRECTION ( 'NONE',  ( -1.000000000000000000, -0.000000000000000000, -0.000000000000000000 ) ) ;
#234 = VERTEX_POINT ( 'NONE', #782 ) ;
#235 = CARTESIAN_POINT ( 'NONE',  ( 39.50000000000000000, 0.000000000000000000, 4.790000000000005365 ) ) ;
#236 = EDGE_CURVE ( 'NONE', #30, #760, #86, .T. ) ;
#237 = CARTESIAN_POINT ( 'NONE',  ( 39.50000000000000711, 0.000000000000000000, 4.990000000000004654 ) ) ;
#238 = ORIENTED_EDGE ( 'NONE', *, *, #639, .T. ) ;
#239 = PERSON_AND_ORGANIZATION ( #183, #285 ) ;
#240 = EDGE_LOOP ( 'NONE', ( #327, #888, #125, #991 ) ) ;
#241 = DIRECTION ( 'NONE',  ( -1.000000000000000000, -0.000000000000000000, -0.000000000000000000 ) ) ;
#242 = DIRECTION ( 'NONE',  ( -1.000000000000000000, -0.000000000000000000, -0.000000000000000000 ) ) ;
#243 = DIRECTION ( 'NONE',  ( -1.000000000000000000, -0.000000000000000000, -0.000000000000000000 ) ) ;
#244 = AXIS2_PLACEMENT_3D ( 'NONE', #761, #988, #429 ) ;
#245 = VERTEX_POINT ( 'NONE', #303 ) ;
#246 = CARTESIAN_POINT ( 'NONE',  ( 0.000000000000000000, 0.000000000000000000, 0.000000000000000000 ) ) ;
#247 = VECTOR ( 'NONE', #1002, 1000.000000000000000 ) ;
#248 = DIRECTION ( 'NONE',  ( -1.000000000000000000, -0.000000000000000000, -0.000000000000000000 ) ) ;
#249 = CIRCLE ( 'NONE', #17, 4.790000000000005365 ) ;
#250 = VERTEX_POINT ( 'NONE', #619 ) ;
#251 = EDGE_CURVE ( 'NONE', #234, #1001, #801, .T. ) ;
#252 = ORIENTED_EDGE ( 'NONE', *, *, #874, .F. ) ;
#253 = CARTESIAN_POINT ( 'NONE',  ( 14.00000000000000000, 9.172604525613678137E-16, -7.490000000000001990 ) ) ;
#254 = DIRECTION ( 'NONE',  ( 0.000000000000000000, 0.000000000000000000, 1.000000000000000000 ) ) ;
#255 = ORIENTED_EDGE ( 'NONE', *, *, #347, .T. ) ;
#256 = ORIENTED_EDGE ( 'NONE', *, *, #905, .F. ) ;
#257 = EDGE_CURVE ( 'NONE', #648, #421, #35, .T. ) ;
#258 = DIRECTION ( 'NONE',  ( -1.000000000000000000, -0.000000000000000000, -0.000000000000000000 ) ) ;
#259 = PLANE ( 'NONE',  #344 ) ;
#260 = ORIENTED_EDGE ( 'NONE', *, *, #433, .F. ) ;
#261 = ORIENTED_EDGE ( 'NONE', *, *, #295, .F. ) ;
#262 = DIRECTION ( 'NONE',  ( -1.000000000000000000, -0.000000000000000000, -0.000000000000000000 ) ) ;
#263 = EDGE_CURVE ( 'NONE', #192, #562, #67, .T. ) ;
#264 = DIRECTION ( 'NONE',  ( -1.000000000000000000, -0.000000000000000000, -0.000000000000000000 ) ) ;
#265 = CIRCLE ( 'NONE', #281, 4.990000000000003766 ) ;
#266 = CARTESIAN_POINT ( 'NONE',  ( 30.50000000000000000, 0.000000000000000000, 0.000000000000000000 ) ) ;
#267 = ORIENTED_EDGE ( 'NONE', *, *, #918, .F. ) ;
#268 = DIRECTION ( 'NONE',  ( -1.000000000000000000, -0.000000000000000000, -0.000000000000000000 ) ) ;
#269 = DIRECTION ( 'NONE',  ( 1.000000000000000000, 0.000000000000000000, 0.000000000000000000 ) ) ;
#270 = PRODUCT_RELATED_PRODUCT_CATEGORY ( 'detail', '', ( #846 ) ) ;
#271 = CARTESIAN_POINT ( 'NONE',  ( 3.000000000000000000, 0.000000000000000000, 4.790000000000000924 ) ) ;
#272 = ORIENTED_EDGE ( 'NONE', *, *, #543, .T. ) ;
#273 = DIRECTION ( 'NONE',  ( -1.000000000000000000, -0.000000000000000000, -0.000000000000000000 ) ) ;
#274 = CARTESIAN_POINT ( 'NONE',  ( 38.50000000000000000, 0.000000000000000000, 0.000000000000000000 ) ) ;
#275 = DIRECTION ( 'NONE',  ( -1.000000000000000000, -0.000000000000000000, -0.000000000000000000 ) ) ;
#276 = EDGE_CURVE ( 'NONE', #511, #408, #1024, .T. ) ;
#277 = ORIENTED_EDGE ( 'NONE', *, *, #995, .F. ) ;
#278 = DIRECTION ( 'NONE',  ( -1.000000000000000000, -0.000000000000000000, -0.000000000000000000 ) ) ;
#279 = DIRECTION ( 'NONE',  ( -1.000000000000000000, -0.000000000000000000, -0.000000000000000000 ) ) ;
#280 = CARTESIAN_POINT ( 'NONE',  ( 26.00000000000000355, 0.000000000000000000, 0.000000000000000000 ) ) ;
#281 = AXIS2_PLACEMENT_3D ( 'NONE', #746, #821, #105 ) ;
#282 = ORIENTED_EDGE ( 'NONE', *, *, #20, .T. ) ;
#283 = CARTESIAN_POINT ( 'NONE',  ( 14.00000000000000000, 0.000000000000000000, 0.000000000000000000 ) ) ;
#284 = EDGE_CURVE ( 'NONE', #409, #584, #219, .T. ) ;
#285 = ORGANIZATION ( 'UNSPECIFIED', 'UNSPECIFIED', '' ) ;
#286 = CARTESIAN_POINT ( 'NONE',  ( 0.000000000000000000, 0.000000000000000000, 0.000000000000000000 ) ) ;
#287 = AXIS2_PLACEMENT_3D ( 'NONE', #475, #886, #870 ) ;
#288 = CARTESIAN_POINT ( 'NONE',  ( 14.00000000000000000, 0.000000000000000000, 4.990000000000001101 ) ) ;
#289 = ORIENTED_EDGE ( 'NONE', *, *, #433, .T. ) ;
#290 = DIRECTION ( 'NONE',  ( 1.000000000000000000, 0.000000000000000000, 0.000000000000000000 ) ) ;
#291 = LINE ( 'NONE', #952, #636 ) ;
#292 = FACE_OUTER_BOUND ( 'NONE', #1014, .T. ) ;
#293 = ORIENTED_EDGE ( 'NONE', *, *, #947, .T. ) ;
#294 = CARTESIAN_POINT ( 'NONE',  ( 0.000000000000000000, 0.000000000000000000, 4.790000000000000924 ) ) ;
#295 = EDGE_CURVE ( 'NONE', #799, #463, #1038, .T. ) ;
#296 = DIRECTION ( 'NONE',  ( -1.000000000000000000, -0.000000000000000000, -0.000000000000000000 ) ) ;
#297 = PRODUCT_DEFINITION_SHAPE ( 'NONE', 'NONE',  #771 ) ;
#298 = EDGE_LOOP ( 'NONE', ( #963, #622 ) ) ;
#299 = APPROVAL_DATE_TIME ( #957, #924 ) ;
#300 = AXIS2_PLACEMENT_3D ( 'NONE', #246, #499, #415 ) ;
#301 = AXIS2_PLACEMENT_3D ( 'NONE', #712, #227, #941 ) ;
#302 = EDGE_CURVE ( 'NONE', #140, #844, #503, .T. ) ;
#303 = CARTESIAN_POINT ( 'NONE',  ( 30.50000000000000000, 6.110987527745298447E-16, -4.990000000000004654 ) ) ;
#304 = AXIS2_PLACEMENT_3D ( 'NONE', #313, #779, #629 ) ;
#305 = ORIENTED_EDGE ( 'NONE', *, *, #469, .F. ) ;
#306 = PERSON_AND_ORGANIZATION ( #183, #285 ) ;
#307 = AXIS2_PLACEMENT_3D ( 'NONE', #1035, #165, #565 ) ;
#308 = CARTESIAN_POINT ( 'NONE',  ( 4.000000000000000000, 0.000000000000000000, 0.000000000000000000 ) ) ;
#309 = AXIS2_PLACEMENT_3D ( 'NONE', #527, #120, #906 ) ;
#310 = ORIENTED_EDGE ( 'NONE', *, *, #68, .T. ) ;
#311 = APPROVAL_STATUS ( 'not_yet_approved' ) ;
#312 = CARTESIAN_POINT ( 'NONE',  ( 0.000000000000000000, 0.000000000000000000, 0.000000000000000000 ) ) ;
#313 = CARTESIAN_POINT ( 'NONE',  ( 26.00000000000000355, 0.000000000000000000, 0.000000000000000000 ) ) ;
#314 = ORIENTED_EDGE ( 'NONE', *, *, #142, .F. ) ;
#315 = EDGE_CURVE ( 'NONE', #828, #741, #536, .T. ) ;
#316 = CARTESIAN_POINT ( 'NONE',  ( 6.123233995736251736E-19, 0.000000000000000000, -4.990000000000000213 ) ) ;
#317 = AXIS2_PLACEMENT_3D ( 'NONE', #1039, #644, #483 ) ;
#318 = PRODUCT_DEFINITION_FORMATION_WITH_SPECIFIED_SOURCE ( 'ANY', '', #846, .NOT_KNOWN. ) ;
#319 = CARTESIAN_POINT ( 'NONE',  ( 4.000000000000000000, 6.110987527745294503E-16, -4.990000000000001101 ) ) ;
#320 = VERTEX_POINT ( 'NONE', #935 ) ;
#321 = PERSON_AND_ORGANIZATION ( #183, #285 ) ;
#322 = CARTESIAN_POINT ( 'NONE',  ( 29.50000000000000000, 6.110987527745296475E-16, -4.990000000000002878 ) ) ;
#323 = EDGE_CURVE ( 'NONE', #30, #250, #218, .T. ) ;
#324 = DIRECTION ( 'NONE',  ( 0.000000000000000000, 0.000000000000000000, 1.000000000000000000 ) ) ;
#325 = ORIENTED_EDGE ( 'NONE', *, *, #387, .F. ) ;
#326 = AXIS2_PLACEMENT_3D ( 'NONE', #355, #675, #910 ) ;
#327 = ORIENTED_EDGE ( 'NONE', *, *, #763, .T. ) ;
#328 = DIRECTION ( 'NONE',  ( -1.000000000000000000, -0.000000000000000000, -0.000000000000000000 ) ) ;
#329 = CARTESIAN_POINT ( 'NONE',  ( 3.000000000000000000, 0.000000000000000000, 0.000000000000000000 ) ) ;
#330 = EDGE_CURVE ( 'NONE', #631, #1, #700, .T. ) ;
#331 = CARTESIAN_POINT ( 'NONE',  ( 0.000000000000000000, 0.000000000000000000, 4.990000000000001101 ) ) ;
#332 = AXIS2_PLACEMENT_3D ( 'NONE', #194, #423, #101 ) ;
#333 = EDGE_LOOP ( 'NONE', ( #852, #454, #267, #104, #492, #679 ) ) ;
#334 = CARTESIAN_POINT ( 'NONE',  ( 0.000000000000000000, 0.000000000000000000, 4.990000000000002878 ) ) ;
#335 = AXIS2_PLACEMENT_3D ( 'NONE', #286, #608, #794 ) ;
#336 = FACE_OUTER_BOUND ( 'NONE', #167, .T. ) ;
#337 = EDGE_LOOP ( 'NONE', ( #493, #37, #583, #533, #538, #338 ) ) ;
#338 = ORIENTED_EDGE ( 'NONE', *, *, #481, .F. ) ;
#339 = DIRECTION ( 'NONE',  ( -1.000000000000000000, -0.000000000000000000, -0.000000000000000000 ) ) ;
#340 = CIRCLE ( 'NONE', #704, 4.990000000000000213 ) ;
#341 = AXIS2_PLACEMENT_3D ( 'NONE', #274, #264, #434 ) ;
#342 = PLANE ( 'NONE',  #287 ) ;
#343 = ORIENTED_EDGE ( 'NONE', *, *, #897, .T. ) ;
#344 = AXIS2_PLACEMENT_3D ( 'NONE', #44, #181, #599 ) ;
#345 = EDGE_LOOP ( 'NONE', ( #426, #476 ) ) ;
#346 = CARTESIAN_POINT ( 'NONE',  ( 38.50000000000000000, 0.000000000000000000, -4.790000000000006253 ) ) ;
#347 = EDGE_CURVE ( 'NONE', #844, #140, #401, .T. ) ;
#348 = FACE_OUTER_BOUND ( 'NONE', #660, .T. ) ;
#349 = LINE ( 'NONE', #754, #841 ) ;
#350 = ORIENTED_EDGE ( 'NONE', *, *, #918, .T. ) ;
#351 = LINE ( 'NONE', #810, #370 ) ;
#352 = EDGE_CURVE ( 'NONE', #144, #783, #143, .T. ) ;
#353 = CYLINDRICAL_SURFACE ( 'NONE', #628, 4.990000000000002878 ) ;
#354 = CIRCLE ( 'NONE', #317, 7.490000000000001990 ) ;
#355 = CARTESIAN_POINT ( 'NONE',  ( 0.000000000000000000, 0.000000000000000000, 0.000000000000000000 ) ) ;
#356 = ORIENTED_EDGE ( 'NONE', *, *, #961, .T. ) ;
#357 = CARTESIAN_POINT ( 'NONE',  ( 4.000000000000000000, 0.000000000000000000, -4.990000000000001101 ) ) ;
#358 = CYLINDRICAL_SURFACE ( 'NONE', #169, 4.990000000000004654 ) ;
#359 = ADVANCED_FACE ( 'NONE', ( #857 ), #342, .F. ) ;
#360 = DIRECTION ( 'NONE',  ( 1.000000000000000000, 0.000000000000000000, -0.000000000000000000 ) ) ;
#361 = ORIENTED_EDGE ( 'NONE', *, *, #961, .F. ) ;
#362 = CARTESIAN_POINT ( 'NONE',  ( 3.000000000000000000, 5.866058167915823418E-16, -4.790000000000000924 ) ) ;
#363 = CARTESIAN_POINT ( 'NONE',  ( 29.50000000000000000, 5.866058167915828348E-16, -4.790000000000005365 ) ) ;
#364 = EDGE_CURVE ( 'NONE', #154, #741, #1023, .T. ) ;
#365 = CARTESIAN_POINT ( 'NONE',  ( 14.00000000000000000, 6.110987527745294503E-16, -4.990000000000001101 ) ) ;
#366 = ORIENTED_EDGE ( 'NONE', *, *, #445, .F. ) ;
#367 =( NAMED_UNIT ( * ) SI_UNIT ( $, .STERADIAN. ) SOLID_ANGLE_UNIT ( ) );
#368 = DIRECTION ( 'NONE',  ( 1.000000000000000000, 0.000000000000000000, 0.000000000000000000 ) ) ;
#369 = CARTESIAN_POINT ( 'NONE',  ( 0.000000000000000000, -1.999999999999997335, -7.218039900139097576 ) ) ;
#370 = VECTOR ( 'NONE', #328, 1000.000000000000000 ) ;
#371 = ORIENTED_EDGE ( 'NONE', *, *, #632, .T. ) ;
#372 = LINE ( 'NONE', #516, #718 ) ;
#373 = CC_DESIGN_APPROVAL ( #953, ( #318 ) ) ;
#374 = CARTESIAN_POINT ( 'NONE',  ( 0.000000000000000000, 0.000000000000000000, 0.000000000000000000 ) ) ;
#375 = FACE_BOUND ( 'NONE', #580, .T. ) ;
#376 = EDGE_LOOP ( 'NONE', ( #780, #900, #820, #43 ) ) ;
#377 = CARTESIAN_POINT ( 'NONE',  ( 39.50000000000000711, 0.000000000000000000, -4.990000000000004654 ) ) ;
#378 = EDGE_CURVE ( 'NONE', #421, #648, #340, .T. ) ;
#379 = LINE ( 'NONE', #478, #671 ) ;
#380 = CARTESIAN_POINT ( 'NONE',  ( 0.000000000000000000, 0.000000000000000000, 4.790000000000006253 ) ) ;
#381 = ORIENTED_EDGE ( 'NONE', *, *, #930, .F. ) ;
#382 = DIRECTION ( 'NONE',  ( 0.000000000000000000, 0.000000000000000000, 1.000000000000000000 ) ) ;
#383 = VERTEX_POINT ( 'NONE', #556 ) ;
#384 = PERSON_AND_ORGANIZATION ( #183, #285 ) ;
#385 = VECTOR ( 'NONE', #422, 1000.000000000000000 ) ;
#386 = DIRECTION ( 'NONE',  ( 0.000000000000000000, 0.000000000000000000, -1.000000000000000000 ) ) ;
#387 = EDGE_CURVE ( 'NONE', #523, #724, #868, .T. ) ;
#388 = CIRCLE ( 'NONE', #341, 4.790000000000006253 ) ;
#389 = ORIENTED_EDGE ( 'NONE', *, *, #632, .F. ) ;
#390 = MECHANICAL_CONTEXT ( 'NONE', #1011, 'mechanical' ) ;
#391 = DIRECTION ( 'NONE',  ( -1.000000000000000000, -0.000000000000000000, -0.000000000000000000 ) ) ;
#392 = ADVANCED_FACE ( 'NONE', ( #646 ), #570, .T. ) ;
#393 = ORIENTED_EDGE ( 'NONE', *, *, #699, .T. ) ;
#394 = COORDINATED_UNIVERSAL_TIME_OFFSET ( 3, 30, .AHEAD. ) ;
#395 = CARTESIAN_POINT ( 'NONE',  ( 0.000000000000000000, 0.000000000000000000, 0.000000000000000000 ) ) ;
#396 = DIRECTION ( 'NONE',  ( -1.000000000000000000, -0.000000000000000000, -0.000000000000000000 ) ) ;
#397 = EDGE_LOOP ( 'NONE', ( #750, #804, #498, #546 ) ) ;
#398 = ADVANCED_FACE ( 'NONE', ( #412 ), #965, .T. ) ;
#399 = CYLINDRICAL_SURFACE ( 'NONE', #335, 4.990000000000000213 ) ;
#400 = LOCAL_TIME ( 16, 4, 52.00000000000000000, #781 ) ;
#401 = CIRCLE ( 'NONE', #987, 4.990000000000000213 ) ;
#402 = DIRECTION ( 'NONE',  ( -1.000000000000000000, -0.000000000000000000, -0.000000000000000000 ) ) ;
#403 = ORIENTED_EDGE ( 'NONE', *, *, #869, .T. ) ;
#404 = ORIENTED_EDGE ( 'NONE', *, *, #419, .T. ) ;
#405 = CARTESIAN_POINT ( 'NONE',  ( 14.00000000000000000, 0.000000000000000000, 0.000000000000000000 ) ) ;
#406 = EDGE_CURVE ( 'NONE', #760, #515, #627, .T. ) ;
#407 = CARTESIAN_POINT ( 'NONE',  ( 14.00000000000000000, 0.000000000000000000, 0.000000000000000000 ) ) ;
#408 = VERTEX_POINT ( 'NONE', #1041 ) ;
#409 = VERTEX_POINT ( 'NONE', #496 ) ;
#410 = CARTESIAN_POINT ( 'NONE',  ( 29.50000000000000000, 0.000000000000000000, 0.000000000000000000 ) ) ;
#411 = CIRCLE ( 'NONE', #944, 7.490000000000001990 ) ;
#412 = FACE_OUTER_BOUND ( 'NONE', #596, .T. ) ;
#413 = CARTESIAN_POINT ( 'NONE',  ( 39.50000000000000000, 0.000000000000000000, 0.000000000000000000 ) ) ;
#414 = ORIENTED_EDGE ( 'NONE', *, *, #352, .T. ) ;
#415 = DIRECTION ( 'NONE',  ( 0.000000000000000000, 0.000000000000000000, 1.000000000000000000 ) ) ;
#416 = AXIS2_PLACEMENT_3D ( 'NONE', #410, #26, #649 ) ;
#417 = CARTESIAN_POINT ( 'NONE',  ( 24.00000000000000000, 0.000000000000000000, 0.000000000000000000 ) ) ;
#418 = SECURITY_CLASSIFICATION ( '', '', #138 ) ;
#419 = EDGE_CURVE ( 'NONE', #828, #150, #891, .T. ) ;
#420 = FACE_OUTER_BOUND ( 'NONE', #978, .T. ) ;
#421 = VERTEX_POINT ( 'NONE', #491 ) ;
#422 = DIRECTION ( 'NONE',  ( -1.000000000000000000, -0.000000000000000000, -0.000000000000000000 ) ) ;
#423 = DIRECTION ( 'NONE',  ( -1.000000000000000000, 0.000000000000000000, -0.000000000000000000 ) ) ;
#424 = DIRECTION ( 'NONE',  ( 0.000000000000000000, 0.000000000000000000, 1.000000000000000000 ) ) ;
#425 = EDGE_CURVE ( 'NONE', #250, #154, #548, .T. ) ;
#426 = ORIENTED_EDGE ( 'NONE', *, *, #263, .F. ) ;
#427 = FACE_BOUND ( 'NONE', #528, .T. ) ;
#428 = VECTOR ( 'NONE', #386, 1000.000000000000000 ) ;
#429 = DIRECTION ( 'NONE',  ( 0.000000000000000000, 0.000000000000000000, 1.000000000000000000 ) ) ;
#430 = PLANE ( 'NONE',  #73 ) ;
#431 = EDGE_LOOP ( 'NONE', ( #876, #114, #895, #366 ) ) ;
#432 = CARTESIAN_POINT ( 'NONE',  ( 30.50000000000000000, 5.866058167915829334E-16, -4.790000000000006253 ) ) ;
#433 = EDGE_CURVE ( 'NONE', #408, #760, #95, .T. ) ;
#434 = DIRECTION ( 'NONE',  ( 0.000000000000000000, 0.000000000000000000, 1.000000000000000000 ) ) ;
#435 = DIRECTION ( 'NONE',  ( 0.000000000000000000, 0.000000000000000000, 1.000000000000000000 ) ) ;
#436 = ORIENTED_EDGE ( 'NONE', *, *, #32, .T. ) ;
#437 = CARTESIAN_POINT ( 'NONE',  ( 0.000000000000000000, 5.866058167915829334E-16, -4.790000000000006253 ) ) ;
#438 = AXIS2_PLACEMENT_3D ( 'NONE', #57, #1017, #52 ) ;
#439 = EDGE_CURVE ( 'NONE', #383, #229, #411, .T. ) ;
#440 = CARTESIAN_POINT ( 'NONE',  ( 24.00000000000000000, 2.000000000000002665, 7.228416147400479552 ) ) ;
#441 = DIRECTION ( 'NONE',  ( 0.000000000000000000, 0.000000000000000000, 1.000000000000000000 ) ) ;
#442 = ORIENTED_EDGE ( 'NONE', *, *, #153, .F. ) ;
#443 = AXIS2_PLACEMENT_3D ( 'NONE', #921, #678, #424 ) ;
#444 = DIRECTION ( 'NONE',  ( 0.000000000000000000, 0.000000000000000000, -1.000000000000000000 ) ) ;
#445 = EDGE_CURVE ( 'NONE', #1026, #88, #464, .T. ) ;
#446 = DIRECTION ( 'NONE',  ( -1.000000000000000000, -0.000000000000000000, -0.000000000000000000 ) ) ;
#447 = ADVANCED_FACE ( 'NONE', ( #152 ), #560, .T. ) ;
#448 = ORIENTED_EDGE ( 'NONE', *, *, #1040, .T. ) ;
#449 = LINE ( 'NONE', #680, #520 ) ;
#450 = DIRECTION ( 'NONE',  ( 0.000000000000000000, 0.000000000000000000, 1.000000000000000000 ) ) ;
#451 = DIRECTION ( 'NONE',  ( 0.000000000000000000, 0.000000000000000000, 1.000000000000000000 ) ) ;
#452 = CIRCLE ( 'NONE', #701, 4.990000000000001101 ) ;
#453 = ADVANCED_FACE ( 'NONE', ( #336 ), #656, .T. ) ;
#454 = ORIENTED_EDGE ( 'NONE', *, *, #406, .T. ) ;
#455 = DIRECTION ( 'NONE',  ( -1.000000000000000000, -0.000000000000000000, -0.000000000000000000 ) ) ;
#456 = AXIS2_PLACEMENT_3D ( 'NONE', #266, #759, #838 ) ;
#457 = CARTESIAN_POINT ( 'NONE',  ( 0.000000000000000000, 2.000000000000002665, -7.218039900139096687 ) ) ;
#458 = CARTESIAN_POINT ( 'NONE',  ( 14.00000000000000000, 2.000000000000002665, 7.228416147400479552 ) ) ;
#459 = EDGE_LOOP ( 'NONE', ( #389, #611, #343, #824 ) ) ;
#460 = CC_DESIGN_DATE_AND_TIME_ASSIGNMENT ( #477, #223, ( #418 ) ) ;
#461 = CIRCLE ( 'NONE', #5, 7.490000000000001990 ) ;
#462 = DIRECTION ( 'NONE',  ( -1.000000000000000000, -0.000000000000000000, -0.000000000000000000 ) ) ;
#463 = VERTEX_POINT ( 'NONE', #319 ) ;
#464 = CIRCLE ( 'NONE', #7, 4.790000000000000924 ) ;
#465 = CARTESIAN_POINT ( 'NONE',  ( 126.0000000000000000, 0.000000000000000000, 4.990000000000014424 ) ) ;
#466 = VERTEX_POINT ( 'NONE', #81 ) ;
#467 = APPROVAL_STATUS ( 'not_yet_approved' ) ;
#468 = AXIS2_PLACEMENT_3D ( 'NONE', #16, #262, #512 ) ;
#469 = EDGE_CURVE ( 'NONE', #511, #884, #577, .T. ) ;
#470 = CIRCLE ( 'NONE', #33, 4.990000000000004654 ) ;
#471 = CARTESIAN_POINT ( 'NONE',  ( 4.000000000000000000, 0.000000000000000000, 0.000000000000000000 ) ) ;
#472 = VERTEX_POINT ( 'NONE', #237 ) ;
#473 = DATE_TIME_ROLE ( 'creation_date' ) ;
#474 = DIRECTION ( 'NONE',  ( 0.000000000000000000, 0.000000000000000000, 1.000000000000000000 ) ) ;
#475 = CARTESIAN_POINT ( 'NONE',  ( 14.00000000000000000, 0.000000000000000000, 0.000000000000000000 ) ) ;
#476 = ORIENTED_EDGE ( 'NONE', *, *, #220, .F. ) ;
#477 = DATE_AND_TIME ( #859, #769 ) ;
#478 = CARTESIAN_POINT ( 'NONE',  ( 0.000000000000000000, 0.000000000000000000, 4.990000000000000213 ) ) ;
#479 = DIRECTION ( 'NONE',  ( 0.000000000000000000, 0.000000000000000000, 1.000000000000000000 ) ) ;
#480 = EDGE_LOOP ( 'NONE', ( #2, #792 ) ) ;
#481 = EDGE_CURVE ( 'NONE', #150, #606, #879, .T. ) ;
#482 = ORIENTED_EDGE ( 'NONE', *, *, #347, .F. ) ;
#483 = DIRECTION ( 'NONE',  ( 0.000000000000000000, 0.000000000000000000, 1.000000000000000000 ) ) ;
#484 = AXIS2_PLACEMENT_3D ( 'NONE', #346, #581, #193 ) ;
#485 = AXIS2_PLACEMENT_3D ( 'NONE', #786, #770, #843 ) ;
#486 = CARTESIAN_POINT ( 'NONE',  ( 14.00000000000000000, 0.000000000000000000, 0.000000000000000000 ) ) ;
#487 = VERTEX_POINT ( 'NONE', #189 ) ;
#488 = ORIENTED_EDGE ( 'NONE', *, *, #976, .F. ) ;
#489 = ADVANCED_FACE ( 'NONE', ( #348, #753 ), #259, .F. ) ;
#490 = CARTESIAN_POINT ( 'NONE',  ( 14.00000000000000000, 0.000000000000000000, 0.000000000000000000 ) ) ;
#491 = CARTESIAN_POINT ( 'NONE',  ( 3.000000000000000000, 0.000000000000000000, 4.990000000000000213 ) ) ;
#492 = ORIENTED_EDGE ( 'NONE', *, *, #425, .F. ) ;
#493 = ORIENTED_EDGE ( 'NONE', *, *, #419, .F. ) ;
#494 = PLANE ( 'NONE',  #484 ) ;
#495 = EDGE_CURVE ( 'NONE', #171, #466, #461, .T. ) ;
#496 = CARTESIAN_POINT ( 'NONE',  ( 29.50000000000000000, 0.000000000000000000, 4.790000000000005365 ) ) ;
#497 = CARTESIAN_POINT ( 'NONE',  ( 30.50000000000000000, 0.000000000000000000, 0.000000000000000000 ) ) ;
#498 = ORIENTED_EDGE ( 'NONE', *, *, #284, .F. ) ;
#499 = DIRECTION ( 'NONE',  ( -1.000000000000000000, -0.000000000000000000, -0.000000000000000000 ) ) ;
#500 = CARTESIAN_POINT ( 'NONE',  ( 26.00000000000000000, 0.000000000000000000, 4.990000000000003766 ) ) ;
#501 = ADVANCED_FACE ( 'NONE', ( #526 ), #593, .F. ) ;
#502 = AXIS2_PLACEMENT_3D ( 'NONE', #395, #50, #474 ) ;
#503 = CIRCLE ( 'NONE', #589, 4.990000000000000213 ) ;
#504 = EDGE_LOOP ( 'NONE', ( #436, #9 ) ) ;
#505 = ORIENTED_EDGE ( 'NONE', *, *, #1009, .T. ) ;
#506 = CARTESIAN_POINT ( 'NONE',  ( 30.50000000000000000, 0.000000000000000000, -4.990000000000004654 ) ) ;
#507 = CARTESIAN_POINT ( 'NONE',  ( 14.00000000000000000, -1.999999999999997335, -4.571662717217885863 ) ) ;
#508 = CC_DESIGN_PERSON_AND_ORGANIZATION_ASSIGNMENT ( #306, #866, ( #318 ) ) ;
#509 = CARTESIAN_POINT ( 'NONE',  ( 14.00000000000000000, 0.000000000000000000, 0.000000000000000000 ) ) ;
#510 = ADVANCED_FACE ( 'NONE', ( #204, #982 ), #977, .F. ) ;
#511 = VERTEX_POINT ( 'NONE', #117 ) ;
#512 = DIRECTION ( 'NONE',  ( 0.000000000000000000, 0.000000000000000000, 1.000000000000000000 ) ) ;
#513 = DIRECTION ( 'NONE',  ( -1.000000000000000000, -0.000000000000000000, -0.000000000000000000 ) ) ;
#514 = FACE_OUTER_BOUND ( 'NONE', #723, .T. ) ;
#515 = VERTEX_POINT ( 'NONE', #993 ) ;
#516 = CARTESIAN_POINT ( 'NONE',  ( 0.000000000000000000, 0.000000000000000000, 4.990000000000009983 ) ) ;
#517 = ADVANCED_FACE ( 'NONE', ( #748 ), #909, .F. ) ;
#518 = VECTOR ( 'NONE', #198, 1000.000000000000000 ) ;
#519 = PLANE ( 'NONE',  #860 ) ;
#520 = VECTOR ( 'NONE', #613, 1000.000000000000000 ) ;
#521 = CIRCLE ( 'NONE', #456, 4.790000000000006253 ) ;
#522 = DIRECTION ( 'NONE',  ( 0.000000000000000000, 0.000000000000000000, 1.000000000000000000 ) ) ;
#523 = VERTEX_POINT ( 'NONE', #837 ) ;
#524 = LINE ( 'NONE', #845, #654 ) ;
#525 = AXIS2_PLACEMENT_3D ( 'NONE', #471, #634, #861 ) ;
#526 = FACE_OUTER_BOUND ( 'NONE', #333, .T. ) ;
#527 = CARTESIAN_POINT ( 'NONE',  ( 29.50000000000000000, 0.000000000000000000, 0.000000000000000000 ) ) ;
#528 = EDGE_LOOP ( 'NONE', ( #803, #93 ) ) ;
#529 = CARTESIAN_POINT ( 'NONE',  ( 14.00000000000000000, 2.000000000000002665, 7.228416147400479552 ) ) ;
#530 = LINE ( 'NONE', #457, #620 ) ;
#531 = EDGE_CURVE ( 'NONE', #383, #229, #582, .T. ) ;
#532 = CARTESIAN_POINT ( 'NONE',  ( 1.224646799147250347E-18, 0.000000000000000000, 0.000000000000000000 ) ) ;
#533 = ORIENTED_EDGE ( 'NONE', *, *, #995, .T. ) ;
#534 = FACE_BOUND ( 'NONE', #745, .T. ) ;
#535 = CARTESIAN_POINT ( 'NONE',  ( 0.000000000000000000, 2.000000000000002665, 7.218039900139096687 ) ) ;
#536 = LINE ( 'NONE', #458, #51 ) ;
#537 = AXIS2_PLACEMENT_3D ( 'NONE', #377, #202, #829 ) ;
#538 = ORIENTED_EDGE ( 'NONE', *, *, #190, .F. ) ;
#539 = DIRECTION ( 'NONE',  ( 0.000000000000000000, 0.000000000000000000, -1.000000000000000000 ) ) ;
#540 = CARTESIAN_POINT ( 'NONE',  ( 14.00000000000000000, -1.999999999999997335, 7.228416147400479552 ) ) ;
#541 = ORIENTED_EDGE ( 'NONE', *, *, #330, .T. ) ;
#542 = APPROVAL_DATE_TIME ( #793, #889 ) ;
#543 = EDGE_CURVE ( 'NONE', #487, #472, #621, .T. ) ;
#544 = AXIS2_PLACEMENT_3D ( 'NONE', #915, #112, #435 ) ;
#545 = DIRECTION ( 'NONE',  ( -1.000000000000000000, -0.000000000000000000, -0.000000000000000000 ) ) ;
#546 = ORIENTED_EDGE ( 'NONE', *, *, #158, .F. ) ;
#547 = PERSON_AND_ORGANIZATION_ROLE ( 'classification_officer' ) ;
#548 = CIRCLE ( 'NONE', #762, 4.990000000000001101 ) ;
#549 = DIRECTION ( 'NONE',  ( 0.000000000000000000, 0.000000000000000000, 1.000000000000000000 ) ) ;
#550 = ORIENTED_EDGE ( 'NONE', *, *, #543, .F. ) ;
#551 = DATE_AND_TIME ( #230, #185 ) ;
#552 = AXIS2_PLACEMENT_3D ( 'NONE', #89, #268, #10 ) ;
#553 = DIRECTION ( 'NONE',  ( -1.000000000000000000, -0.000000000000000000, -0.000000000000000000 ) ) ;
#554 = CC_DESIGN_PERSON_AND_ORGANIZATION_ASSIGNMENT ( #239, #547, ( #418 ) ) ;
#555 = ADVANCED_FACE ( 'NONE', ( #898 ), #358, .T. ) ;
#556 = CARTESIAN_POINT ( 'NONE',  ( 24.00000000000000000, 2.000000000000002665, -7.218039900139096687 ) ) ;
#557 = ORIENTED_EDGE ( 'NONE', *, *, #806, .T. ) ;
#558 = CALENDAR_DATE ( 2026, 23, 7 ) ;
#559 = DIRECTION ( 'NONE',  ( -1.000000000000000000, -0.000000000000000000, -0.000000000000000000 ) ) ;
#560 = CYLINDRICAL_SURFACE ( 'NONE', #933, 4.790000000000006253 ) ;
#561 = EDGE_CURVE ( 'NONE', #1, #201, #388, .T. ) ;
#562 = VERTEX_POINT ( 'NONE', #39 ) ;
#563 = ORIENTED_EDGE ( 'NONE', *, *, #439, .F. ) ;
#564 = CYLINDRICAL_SURFACE ( 'NONE', #217, 4.990000000000000213 ) ;
#565 = DIRECTION ( 'NONE',  ( 0.000000000000000000, 0.000000000000000000, 1.000000000000000000 ) ) ;
#566 = CARTESIAN_POINT ( 'NONE',  ( 38.50000000000000000, 0.000000000000000000, 0.000000000000000000 ) ) ;
#567 = ORIENTED_EDGE ( 'NONE', *, *, #295, .T. ) ;
#568 = CARTESIAN_POINT ( 'NONE',  ( 1.224646799147250347E-18, 0.000000000000000000, 4.990000000000000213 ) ) ;
#569 = VECTOR ( 'NONE', #553, 1000.000000000000000 ) ;
#570 = CYLINDRICAL_SURFACE ( 'NONE', #612, 4.790000000000006253 ) ;
#571 = AXIS2_PLACEMENT_3D ( 'NONE', #926, #764, #103 ) ;
#572 = EDGE_LOOP ( 'NONE', ( #881, #356, #76, #711 ) ) ;
#573 = ORIENTED_EDGE ( 'NONE', *, *, #594, .F. ) ;
#574 = CYLINDRICAL_SURFACE ( 'NONE', #468, 4.790000000000006253 ) ;
#575 = ADVANCED_FACE ( 'NONE', ( #587 ), #519, .F. ) ;
#576 = AXIS2_PLACEMENT_3D ( 'NONE', #486, #402, #87 ) ;
#577 = LINE ( 'NONE', #176, #162 ) ;
#578 = ORIENTED_EDGE ( 'NONE', *, *, #378, .T. ) ;
#579 = AXIS2_PLACEMENT_3D ( 'NONE', #990, #205, #522 ) ;
#580 = EDGE_LOOP ( 'NONE', ( #902, #687 ) ) ;
#581 = DIRECTION ( 'NONE',  ( -1.000000000000000000, 0.000000000000000000, -0.000000000000000000 ) ) ;
#582 = LINE ( 'NONE', #440, #518 ) ;
#583 = ORIENTED_EDGE ( 'NONE', *, *, #739, .T. ) ;
#584 = VERTEX_POINT ( 'NONE', #363 ) ;
#585 = DIRECTION ( 'NONE',  ( -1.000000000000000000, -0.000000000000000000, -0.000000000000000000 ) ) ;
#586 = AXIS2_PLACEMENT_3D ( 'NONE', #216, #455, #115 ) ;
#587 = FACE_OUTER_BOUND ( 'NONE', #337, .T. ) ;
#588 = EDGE_CURVE ( 'NONE', #196, #716, #899, .T. ) ;
#589 = AXIS2_PLACEMENT_3D ( 'NONE', #69, #391, #1020 ) ;
#590 = PLANE ( 'NONE',  #598 ) ;
#591 = VERTEX_POINT ( 'NONE', #500 ) ;
#592 = CARTESIAN_POINT ( 'NONE',  ( 14.00000000000000000, -1.999999999999997335, -7.218039900139096687 ) ) ;
#593 = PLANE ( 'NONE',  #651 ) ;
#594 = EDGE_CURVE ( 'NONE', #716, #487, #816, .T. ) ;
#595 = DIRECTION ( 'NONE',  ( 0.000000000000000000, -0.000000000000000000, -1.000000000000000000 ) ) ;
#596 = EDGE_LOOP ( 'NONE', ( #361, #310, #541, #997 ) ) ;
#597 = CARTESIAN_POINT ( 'NONE',  ( 0.000000000000000000, 5.866058167915829334E-16, -4.790000000000006253 ) ) ;
#598 = AXIS2_PLACEMENT_3D ( 'NONE', #983, #827, #818 ) ;
#599 = DIRECTION ( 'NONE',  ( -0.000000000000000000, 0.000000000000000000, 1.000000000000000000 ) ) ;
#600 = CARTESIAN_POINT ( 'NONE',  ( 24.00000000000000000, 2.000000000000002665, 7.228416147400479552 ) ) ;
#601 = ORIENTED_EDGE ( 'NONE', *, *, #639, .F. ) ;
#602 = DIRECTION ( 'NONE',  ( -1.000000000000000000, -0.000000000000000000, -0.000000000000000000 ) ) ;
#603 = DIRECTION ( 'NONE',  ( 0.000000000000000000, 0.000000000000000000, 1.000000000000000000 ) ) ;
#604 = CIRCLE ( 'NONE', #416, 4.990000000000002878 ) ;
#605 = FACE_OUTER_BOUND ( 'NONE', #916, .T. ) ;
#606 = VERTEX_POINT ( 'NONE', #507 ) ;
#607 = ADVANCED_FACE ( 'NONE', ( #822 ), #353, .T. ) ;
#608 = DIRECTION ( 'NONE',  ( -1.000000000000000000, -0.000000000000000000, -0.000000000000000000 ) ) ;
#609 = CARTESIAN_POINT ( 'NONE',  ( 0.000000000000000000, 0.000000000000000000, 4.790000000000006253 ) ) ;
#610 = ADVANCED_BREP_SHAPE_REPRESENTATION ( 'Link2FrontShaft_Default_sldprt', ( #113, #301 ), #80 ) ;
#611 = ORIENTED_EDGE ( 'NONE', *, *, #778, .T. ) ;
#612 = AXIS2_PLACEMENT_3D ( 'NONE', #715, #880, #324 ) ;
#613 = DIRECTION ( 'NONE',  ( -1.000000000000000000, -0.000000000000000000, -0.000000000000000000 ) ) ;
#614 = ADVANCED_FACE ( 'NONE', ( #920 ), #156, .T. ) ;
#615 = CARTESIAN_POINT ( 'NONE',  ( 26.00000000000000000, 6.110987527745297461E-16, -4.990000000000003766 ) ) ;
#616 = DIRECTION ( 'NONE',  ( -1.000000000000000000, -0.000000000000000000, -0.000000000000000000 ) ) ;
#617 = ORIENTED_EDGE ( 'NONE', *, *, #481, .T. ) ;
#618 =( LENGTH_UNIT ( ) NAMED_UNIT ( * ) SI_UNIT ( .MILLI., .METRE. ) );
#619 = CARTESIAN_POINT ( 'NONE',  ( 14.00000000000000000, -1.999999999999997335, 4.571662717217885863 ) ) ;
#620 = VECTOR ( 'NONE', #789, 1000.000000000000000 ) ;
#621 = CIRCLE ( 'NONE', #1036, 4.990000000000004654 ) ;
#622 = ORIENTED_EDGE ( 'NONE', *, *, #315, .F. ) ;
#623 = CARTESIAN_POINT ( 'NONE',  ( 3.000000000000000000, 0.000000000000000000, 0.000000000000000000 ) ) ;
#624 = EDGE_CURVE ( 'NONE', #735, #245, #925, .T. ) ;
#625 = ORIENTED_EDGE ( 'NONE', *, *, #727, .T. ) ;
#626 = PERSON_AND_ORGANIZATION_ROLE ( 'creator' ) ;
#627 = CIRCLE ( 'NONE', #307, 7.490000000000001990 ) ;
#628 = AXIS2_PLACEMENT_3D ( 'NONE', #999, #279, #603 ) ;
#629 = DIRECTION ( 'NONE',  ( 0.000000000000000000, 0.000000000000000000, 1.000000000000000000 ) ) ;
#630 = UNCERTAINTY_MEASURE_WITH_UNIT (LENGTH_MEASURE( 1.000000000000000082E-05 ), #618, 'distance_accuracy_value', 'NONE');
#631 = VERTEX_POINT ( 'NONE', #235 ) ;
#632 = EDGE_CURVE ( 'NONE', #724, #729, #691, .T. ) ;
#633 = DIRECTION ( 'NONE',  ( 0.000000000000000000, 0.000000000000000000, 1.000000000000000000 ) ) ;
#634 = DIRECTION ( 'NONE',  ( -1.000000000000000000, -0.000000000000000000, -0.000000000000000000 ) ) ;
#635 = EDGE_LOOP ( 'NONE', ( #578, #178, #482, #601 ) ) ;
#636 = VECTOR ( 'NONE', #800, 1000.000000000000000 ) ;
#637 = DIRECTION ( 'NONE',  ( -1.000000000000000000, -0.000000000000000000, -0.000000000000000000 ) ) ;
#638 = VECTOR ( 'NONE', #139, 1000.000000000000000 ) ;
#639 = EDGE_CURVE ( 'NONE', #421, #844, #379, .T. ) ;
#640 = CARTESIAN_POINT ( 'NONE',  ( 0.000000000000000000, 0.000000000000000000, 0.000000000000000000 ) ) ;
#641 = CIRCLE ( 'NONE', #785, 4.790000000000005365 ) ;
#642 = ORIENTED_EDGE ( 'NONE', *, *, #190, .T. ) ;
#643 = PERSON_AND_ORGANIZATION_ROLE ( 'creator' ) ;
#644 = DIRECTION ( 'NONE',  ( -1.000000000000000000, -0.000000000000000000, -0.000000000000000000 ) ) ;
#645 = ADVANCED_FACE ( 'NONE', ( #774 ), #127, .T. ) ;
#646 = FACE_OUTER_BOUND ( 'NONE', #865, .T. ) ;
#647 = EDGE_LOOP ( 'NONE', ( #956, #932 ) ) ;
#648 = VERTEX_POINT ( 'NONE', #133 ) ;
#649 = DIRECTION ( 'NONE',  ( 0.000000000000000000, 0.000000000000000000, 1.000000000000000000 ) ) ;
#650 = DIRECTION ( 'NONE',  ( 0.000000000000000000, 0.000000000000000000, 1.000000000000000000 ) ) ;
#651 = AXIS2_PLACEMENT_3D ( 'NONE', #831, #368, #444 ) ;
#652 = DIRECTION ( 'NONE',  ( -1.000000000000000000, -0.000000000000000000, -0.000000000000000000 ) ) ;
#653 = DIRECTION ( 'NONE',  ( -1.000000000000000000, -0.000000000000000000, -0.000000000000000000 ) ) ;
#654 = VECTOR ( 'NONE', #131, 1000.000000000000000 ) ;
#655 = LOCAL_TIME ( 16, 4, 52.00000000000000000, #72 ) ;
#656 = CYLINDRICAL_SURFACE ( 'NONE', #795, 4.990000000000001101 ) ;
#657 = CARTESIAN_POINT ( 'NONE',  ( 38.50000000000000000, 0.000000000000000000, 4.790000000000006253 ) ) ;
#658 = AXIS2_PLACEMENT_3D ( 'NONE', #1025, #616, #939 ) ;
#659 = EDGE_CURVE ( 'NONE', #591, #729, #1004, .T. ) ;
#660 = EDGE_LOOP ( 'NONE', ( #46, #1021 ) ) ;
#661 = CARTESIAN_POINT ( 'NONE',  ( 14.00000000000000000, 0.000000000000000000, 7.490000000000001990 ) ) ;
#662 = CARTESIAN_POINT ( 'NONE',  ( 29.50000000000000000, 0.000000000000000000, 0.000000000000000000 ) ) ;
#663 = EDGE_LOOP ( 'NONE', ( #58, #974 ) ) ;
#664 = EDGE_LOOP ( 'NONE', ( #1030, #1037, #414, #442 ) ) ;
#665 = CC_DESIGN_DATE_AND_TIME_ASSIGNMENT ( #872, #473, ( #771 ) ) ;
#666 = CARTESIAN_POINT ( 'NONE',  ( 14.00000000000000000, 2.000000000000003109, -4.571662717217884087 ) ) ;
#667 = DIRECTION ( 'NONE',  ( -1.000000000000000000, 0.000000000000000000, 0.000000000000000000 ) ) ;
#668 = DIRECTION ( 'NONE',  ( 1.000000000000000000, 0.000000000000000000, 0.000000000000000000 ) ) ;
#669 = ORIENTED_EDGE ( 'NONE', *, *, #1003, .T. ) ;
#670 = FACE_OUTER_BOUND ( 'NONE', #572, .T. ) ;
#671 = VECTOR ( 'NONE', #637, 1000.000000000000000 ) ;
#672 = ADVANCED_FACE ( 'NONE', ( #208 ), #1028, .T. ) ;
#673 = CC_DESIGN_SECURITY_CLASSIFICATION ( #418, ( #318 ) ) ;
#674 = DIRECTION ( 'NONE',  ( 0.000000000000000000, 0.000000000000000000, -1.000000000000000000 ) ) ;
#675 = DIRECTION ( 'NONE',  ( -1.000000000000000000, -0.000000000000000000, -0.000000000000000000 ) ) ;
#676 = ORIENTED_EDGE ( 'NONE', *, *, #12, .F. ) ;
#677 = CARTESIAN_POINT ( 'NONE',  ( 24.00000000000000000, 0.000000000000000000, 0.000000000000000000 ) ) ;
#678 = DIRECTION ( 'NONE',  ( -1.000000000000000000, -0.000000000000000000, -0.000000000000000000 ) ) ;
#679 = ORIENTED_EDGE ( 'NONE', *, *, #323, .F. ) ;
#680 = CARTESIAN_POINT ( 'NONE',  ( 0.000000000000000000, 5.866058167915823418E-16, -4.790000000000000924 ) ) ;
#681 = DIRECTION ( 'NONE',  ( -1.000000000000000000, -0.000000000000000000, -0.000000000000000000 ) ) ;
#682 = LINE ( 'NONE', #369, #4 ) ;
#683 = ORIENTED_EDGE ( 'NONE', *, *, #531, .F. ) ;
#684 = LINE ( 'NONE', #535, #385 ) ;
#685 = AXIS2_PLACEMENT_3D ( 'NONE', #405, #964, #22 ) ;
#686 = CARTESIAN_POINT ( 'NONE',  ( 38.50000000000000000, 0.000000000000000000, 4.990000000000004654 ) ) ;
#687 = ORIENTED_EDGE ( 'NONE', *, *, #851, .T. ) ;
#688 = DIRECTION ( 'NONE',  ( -1.000000000000000000, -0.000000000000000000, -0.000000000000000000 ) ) ;
#689 = ADVANCED_FACE ( 'NONE', ( #231 ), #1005, .T. ) ;
#690 = VECTOR ( 'NONE', #681, 1000.000000000000000 ) ;
#691 = LINE ( 'NONE', #720, #569 ) ;
#692 = CARTESIAN_POINT ( 'NONE',  ( 38.50000000000000000, 5.866058167915829334E-16, -4.790000000000006253 ) ) ;
#693 = ORIENTED_EDGE ( 'NONE', *, *, #68, .F. ) ;
#694 = DIRECTION ( 'NONE',  ( -1.000000000000000000, -0.000000000000000000, -0.000000000000000000 ) ) ;
#695 = ADVANCED_FACE ( 'NONE', ( #151 ), #564, .T. ) ;
#696 = DIRECTION ( 'NONE',  ( 0.000000000000000000, 0.000000000000000000, 1.000000000000000000 ) ) ;
#697 = EDGE_LOOP ( 'NONE', ( #325, #206 ) ) ;
#698 = PERSON_AND_ORGANIZATION ( #183, #285 ) ;
#699 = EDGE_CURVE ( 'NONE', #320, #383, #530, .T. ) ;
#700 = LINE ( 'NONE', #380, #188 ) ;
#701 = AXIS2_PLACEMENT_3D ( 'NONE', #490, #653, #187 ) ;
#702 = ORIENTED_EDGE ( 'NONE', *, *, #207, .T. ) ;
#703 = PERSON_AND_ORGANIZATION ( #183, #285 ) ;
#704 = AXIS2_PLACEMENT_3D ( 'NONE', #960, #248, #18 ) ;
#705 = AXIS2_PLACEMENT_3D ( 'NONE', #623, #135, #549 ) ;
#706 = CARTESIAN_POINT ( 'NONE',  ( 30.50000000000000000, 0.000000000000000000, 0.000000000000000000 ) ) ;
#707 = ORIENTED_EDGE ( 'NONE', *, *, #12, .T. ) ;
#708 = DIRECTION ( 'NONE',  ( 0.000000000000000000, 0.000000000000000000, 1.000000000000000000 ) ) ;
#709 = VECTOR ( 'NONE', #24, 1000.000000000000000 ) ;
#710 = DIRECTION ( 'NONE',  ( 0.000000000000000000, 0.000000000000000000, 1.000000000000000000 ) ) ;
#711 = ORIENTED_EDGE ( 'NONE', *, *, #330, .F. ) ;
#712 = CARTESIAN_POINT ( 'NONE',  ( 0.000000000000000000, 0.000000000000000000, 0.000000000000000000 ) ) ;
#713 = ADVANCED_FACE ( 'NONE', ( #74 ), #1032, .F. ) ;
#714 = DIRECTION ( 'NONE',  ( 0.000000000000000000, 0.000000000000000000, 1.000000000000000000 ) ) ;
#715 = CARTESIAN_POINT ( 'NONE',  ( 0.000000000000000000, 0.000000000000000000, 0.000000000000000000 ) ) ;
#716 = VERTEX_POINT ( 'NONE', #842 ) ;
#717 = COORDINATED_UNIVERSAL_TIME_OFFSET ( 3, 30, .AHEAD. ) ;
#718 = VECTOR ( 'NONE', #835, 1000.000000000000000 ) ;
#719 = LOCAL_TIME ( 16, 4, 52.00000000000000000, #717 ) ;
#720 = CARTESIAN_POINT ( 'NONE',  ( 0.000000000000000000, 6.110987527745296475E-16, -4.990000000000002878 ) ) ;
#721 = VECTOR ( 'NONE', #545, 1000.000000000000000 ) ;
#722 = DIRECTION ( 'NONE',  ( -1.000000000000000000, -0.000000000000000000, -0.000000000000000000 ) ) ;
#723 = EDGE_LOOP ( 'NONE', ( #808, #979, #858, #448, #642, #13 ) ) ;
#724 = VERTEX_POINT ( 'NONE', #322 ) ;
#725 = CYLINDRICAL_SURFACE ( 'NONE', #552, 7.490000000000001990 ) ;
#726 = AXIS2_PLACEMENT_3D ( 'NONE', #875, #157, #479 ) ;
#727 = EDGE_CURVE ( 'NONE', #320, #828, #291, .T. ) ;
#728 = DIRECTION ( 'NONE',  ( 0.000000000000000000, 0.000000000000000000, 1.000000000000000000 ) ) ;
#729 = VERTEX_POINT ( 'NONE', #615 ) ;
#730 = ORIENTED_EDGE ( 'NONE', *, *, #659, .F. ) ;
#731 = FACE_BOUND ( 'NONE', #834, .T. ) ;
#732 = DIRECTION ( 'NONE',  ( -1.000000000000000000, -0.000000000000000000, -0.000000000000000000 ) ) ;
#733 = ADVANCED_FACE ( 'NONE', ( #929 ), #399, .T. ) ;
#734 = AXIS2_PLACEMENT_3D ( 'NONE', #27, #743, #826 ) ;
#735 = VERTEX_POINT ( 'NONE', #212 ) ;
#736 = ORIENTED_EDGE ( 'NONE', *, *, #276, .F. ) ;
#737 = LINE ( 'NONE', #334, #949 ) ;
#738 = DIRECTION ( 'NONE',  ( 1.000000000000000000, -0.000000000000000000, -0.000000000000000000 ) ) ;
#739 = EDGE_CURVE ( 'NONE', #320, #884, #354, .T. ) ;
#740 = CARTESIAN_POINT ( 'NONE',  ( 14.00000000000000000, -1.999999999999997335, 7.218039900139097576 ) ) ;
#741 = VERTEX_POINT ( 'NONE', #85 ) ;
#742 = DIRECTION ( 'NONE',  ( 0.000000000000000000, 0.000000000000000000, 1.000000000000000000 ) ) ;
#743 = DIRECTION ( 'NONE',  ( 1.000000000000000000, 0.000000000000000000, -0.000000000000000000 ) ) ;
#744 = CARTESIAN_POINT ( 'NONE',  ( 24.00000000000000000, -1.999999999999997335, -7.218039900139097576 ) ) ;
#745 = EDGE_LOOP ( 'NONE', ( #958, #693 ) ) ;
#746 = CARTESIAN_POINT ( 'NONE',  ( 26.00000000000000000, 0.000000000000000000, 0.000000000000000000 ) ) ;
#747 = EDGE_CURVE ( 'NONE', #229, #515, #684, .T. ) ;
#748 = FACE_OUTER_BOUND ( 'NONE', #755, .T. ) ;
#749 = PLANE ( 'NONE',  #571 ) ;
#750 = ORIENTED_EDGE ( 'NONE', *, *, #251, .T. ) ;
#751 = FACE_OUTER_BOUND ( 'NONE', #969, .T. ) ;
#752 = CC_DESIGN_APPROVAL ( #924, ( #771 ) ) ;
#753 = FACE_BOUND ( 'NONE', #936, .T. ) ;
#754 = CARTESIAN_POINT ( 'NONE',  ( 0.000000000000000000, -1.999999999999997335, 7.218039900139097576 ) ) ;
#755 = EDGE_LOOP ( 'NONE', ( #184, #563 ) ) ;
#756 = FACE_OUTER_BOUND ( 'NONE', #173, .T. ) ;
#757 = DIRECTION ( 'NONE',  ( 0.000000000000000000, 0.000000000000000000, 1.000000000000000000 ) ) ;
#758 = ADVANCED_FACE ( 'NONE', ( #670 ), #574, .T. ) ;
#759 = DIRECTION ( 'NONE',  ( -1.000000000000000000, -0.000000000000000000, -0.000000000000000000 ) ) ;
#760 = VERTEX_POINT ( 'NONE', #661 ) ;
#761 = CARTESIAN_POINT ( 'NONE',  ( 126.0000000000000000, 0.000000000000000000, 0.000000000000000000 ) ) ;
#762 = AXIS2_PLACEMENT_3D ( 'NONE', #407, #807, #728 ) ;
#763 = EDGE_CURVE ( 'NONE', #144, #735, #182, .T. ) ;
#764 = DIRECTION ( 'NONE',  ( -1.000000000000000000, 0.000000000000000000, -0.000000000000000000 ) ) ;
#765 = VERTEX_POINT ( 'NONE', #592 ) ;
#766 = CARTESIAN_POINT ( 'NONE',  ( 38.50000000000000000, 0.000000000000000000, 0.000000000000000000 ) ) ;
#767 = CARTESIAN_POINT ( 'NONE',  ( 0.000000000000000000, 0.000000000000000000, 0.000000000000000000 ) ) ;
#768 = VECTOR ( 'NONE', #688, 1000.000000000000000 ) ;
#769 = LOCAL_TIME ( 16, 4, 52.00000000000000000, #155 ) ;
#770 = DIRECTION ( 'NONE',  ( -1.000000000000000000, -0.000000000000000000, -0.000000000000000000 ) ) ;
#771 = PRODUCT_DEFINITION ( 'UNKNOWN', '', #318, #862 ) ;
#772 = EDGE_LOOP ( 'NONE', ( #1018, #272 ) ) ;
#773 = CYLINDRICAL_SURFACE ( 'NONE', #586, 4.990000000000002878 ) ;
#774 = FACE_OUTER_BOUND ( 'NONE', #940, .T. ) ;
#775 = PLANE ( 'NONE',  #438 ) ;
#776 = EDGE_LOOP ( 'NONE', ( #252, #814, #238, #797 ) ) ;
#777 = APPROVAL_ROLE ( '' ) ;
#778 = EDGE_CURVE ( 'NONE', #724, #523, #604, .T. ) ;
#779 = DIRECTION ( 'NONE',  ( -1.000000000000000000, -0.000000000000000000, -0.000000000000000000 ) ) ;
#780 = ORIENTED_EDGE ( 'NONE', *, *, #588, .T. ) ;
#781 = COORDINATED_UNIVERSAL_TIME_OFFSET ( 3, 30, .AHEAD. ) ;
#782 = CARTESIAN_POINT ( 'NONE',  ( 30.50000000000000000, 0.000000000000000000, 4.790000000000006253 ) ) ;
#783 = VERTEX_POINT ( 'NONE', #890 ) ;
#784 = SHAPE_DEFINITION_REPRESENTATION ( #297, #610 ) ;
#785 = AXIS2_PLACEMENT_3D ( 'NONE', #413, #894, #177 ) ;
#786 = CARTESIAN_POINT ( 'NONE',  ( 29.50000000000000000, 0.000000000000000000, 0.000000000000000000 ) ) ;
#787 = ADVANCED_FACE ( 'NONE', ( #174 ), #980, .T. ) ;
#788 = ORIENTED_EDGE ( 'NONE', *, *, #897, .F. ) ;
#789 = DIRECTION ( 'NONE',  ( 1.000000000000000000, 0.000000000000000000, 0.000000000000000000 ) ) ;
#790 = DIRECTION ( 'NONE',  ( -1.000000000000000000, -0.000000000000000000, -0.000000000000000000 ) ) ;
#791 = ADVANCED_FACE ( 'NONE', ( #815, #731 ), #494, .F. ) ;
#792 = ORIENTED_EDGE ( 'NONE', *, *, #989, .F. ) ;
#793 = DATE_AND_TIME ( #1031, #719 ) ;
#794 = DIRECTION ( 'NONE',  ( 0.000000000000000000, 0.000000000000000000, 1.000000000000000000 ) ) ;
#795 = AXIS2_PLACEMENT_3D ( 'NONE', #972, #396, #254 ) ;
#796 = DIRECTION ( 'NONE',  ( 0.000000000000000000, 0.000000000000000000, 1.000000000000000000 ) ) ;
#797 = ORIENTED_EDGE ( 'NONE', *, *, #302, .F. ) ;
#798 = AXIS2_PLACEMENT_3D ( 'NONE', #316, #79, #1010 ) ;
#799 = VERTEX_POINT ( 'NONE', #94 ) ;
#800 = DIRECTION ( 'NONE',  ( -0.000000000000000000, -0.000000000000000000, 1.000000000000000000 ) ) ;
#801 = CIRCLE ( 'NONE', #938, 4.790000000000006253 ) ;
#802 = DIRECTION ( 'NONE',  ( 0.000000000000000000, 0.000000000000000000, 1.000000000000000000 ) ) ;
#803 = ORIENTED_EDGE ( 'NONE', *, *, #251, .F. ) ;
#804 = ORIENTED_EDGE ( 'NONE', *, *, #930, .T. ) ;
#805 = DIRECTION ( 'NONE',  ( 0.000000000000000000, 0.000000000000000000, -1.000000000000000000 ) ) ;
#806 = EDGE_CURVE ( 'NONE', #466, #171, #825, .T. ) ;
#807 = DIRECTION ( 'NONE',  ( -1.000000000000000000, -0.000000000000000000, -0.000000000000000000 ) ) ;
#808 = ORIENTED_EDGE ( 'NONE', *, *, #806, .F. ) ;
#809 = EDGE_LOOP ( 'NONE', ( #305, #856, #289, #92, #19, #962, #130, #277 ) ) ;
#810 = CARTESIAN_POINT ( 'NONE',  ( 0.000000000000000000, 6.110987527745293517E-16, -4.990000000000000213 ) ) ;
#811 = CARTESIAN_POINT ( 'NONE',  ( 14.00000000000000000, 0.000000000000000000, 0.000000000000000000 ) ) ;
#812 = DIRECTION ( 'NONE',  ( -1.000000000000000000, -0.000000000000000000, -0.000000000000000000 ) ) ;
#813 = CIRCLE ( 'NONE', #685, 4.990000000000001101 ) ;
#814 = ORIENTED_EDGE ( 'NONE', *, *, #257, .T. ) ;
#815 = FACE_OUTER_BOUND ( 'NONE', #480, .T. ) ;
#816 = LINE ( 'NONE', #904, #690 ) ;
#817 = EDGE_CURVE ( 'NONE', #741, #828, #452, .T. ) ;
#818 = DIRECTION ( 'NONE',  ( 0.000000000000000000, -0.000000000000000000, 1.000000000000000000 ) ) ;
#819 = CLOSED_SHELL ( 'NONE', ( #733, #128, #645, #883, #966, #447, #555, #758, #787, #501, #713, #55, #614, #1016, #398, #791, #96, #836, #392, #510, #607, #214, #672, #575, #453, #981, #1033, #489, #695, #689, #116, #359, #517, #78, #180 ) ) ;
#820 = ORIENTED_EDGE ( 'NONE', *, *, #136, .F. ) ;
#821 = DIRECTION ( 'NONE',  ( -1.000000000000000000, -0.000000000000000000, -0.000000000000000000 ) ) ;
#822 = FACE_OUTER_BOUND ( 'NONE', #459, .T. ) ;
#823 = CARTESIAN_POINT ( 'NONE',  ( 1.224646799147250347E-18, 6.110987527745293517E-16, -4.990000000000000213 ) ) ;
#824 = ORIENTED_EDGE ( 'NONE', *, *, #851, .F. ) ;
#825 = LINE ( 'NONE', #885, #147 ) ;
#826 = DIRECTION ( 'NONE',  ( -0.000000000000000000, 0.000000000000000000, -1.000000000000000000 ) ) ;
#827 = DIRECTION ( 'NONE',  ( -0.000000000000000000, 1.000000000000000000, 0.000000000000000000 ) ) ;
#828 = VERTEX_POINT ( 'NONE', #666 ) ;
#829 = DIRECTION ( 'NONE',  ( 0.000000000000000000, 0.000000000000000000, -1.000000000000000000 ) ) ;
#830 = VECTOR ( 'NONE', #278, 1000.000000000000000 ) ;
#831 = CARTESIAN_POINT ( 'NONE',  ( 14.00000000000000000, 0.000000000000000000, -7.490000000000001990 ) ) ;
#832 = DIRECTION ( 'NONE',  ( 0.000000000000000000, -1.000000000000000000, 0.000000000000000000 ) ) ;
#833 = AXIS2_PLACEMENT_3D ( 'NONE', #943, #149, #710 ) ;
#834 = EDGE_LOOP ( 'NONE', ( #121, #282 ) ) ;
#835 = DIRECTION ( 'NONE',  ( -1.000000000000000000, -0.000000000000000000, -0.000000000000000000 ) ) ;
#836 = ADVANCED_FACE ( 'NONE', ( #427, #896 ), #3, .F. ) ;
#837 = CARTESIAN_POINT ( 'NONE',  ( 29.50000000000000000, 0.000000000000000000, 4.990000000000002878 ) ) ;
#838 = DIRECTION ( 'NONE',  ( 0.000000000000000000, 0.000000000000000000, 1.000000000000000000 ) ) ;
#839 = ORIENTED_EDGE ( 'NONE', *, *, #315, .T. ) ;
#840 = PLANE ( 'NONE',  #48 ) ;
#841 = VECTOR ( 'NONE', #668, 1000.000000000000000 ) ;
#842 = CARTESIAN_POINT ( 'NONE',  ( 126.0000000000000000, 6.110987527745311266E-16, -4.990000000000014424 ) ) ;
#843 = DIRECTION ( 'NONE',  ( 0.000000000000000000, 0.000000000000000000, 1.000000000000000000 ) ) ;
#844 = VERTEX_POINT ( 'NONE', #568 ) ;
#845 = CARTESIAN_POINT ( 'NONE',  ( 14.00000000000000000, -1.999999999999997335, 7.228416147400479552 ) ) ;
#846 = PRODUCT ( 'Link2FrontShaft_Default_sldprt', 'Link2FrontShaft_Default_sldprt', '', ( #390 ) ) ;
#847 = CARTESIAN_POINT ( 'NONE',  ( 0.000000000000000000, 6.110987527745298447E-16, -4.990000000000004654 ) ) ;
#848 = VECTOR ( 'NONE', #948, 1000.000000000000000 ) ;
#849 = CARTESIAN_POINT ( 'NONE',  ( 24.00000000000000000, 2.000000000000002665, 7.218039900139096687 ) ) ;
#850 = AXIS2_PLACEMENT_3D ( 'NONE', #308, #931, #213 ) ;
#851 = EDGE_CURVE ( 'NONE', #729, #591, #265, .T. ) ;
#852 = ORIENTED_EDGE ( 'NONE', *, *, #236, .T. ) ;
#853 = APPROVAL_ROLE ( '' ) ;
#854 = CIRCLE ( 'NONE', #221, 4.790000000000006253 ) ;
#855 = CARTESIAN_POINT ( 'NONE',  ( 14.00000000000000000, -1.999999999999997335, 7.228416147400479552 ) ) ;
#856 = ORIENTED_EDGE ( 'NONE', *, *, #276, .T. ) ;
#857 = FACE_OUTER_BOUND ( 'NONE', #663, .T. ) ;
#858 = ORIENTED_EDGE ( 'NONE', *, *, #323, .T. ) ;
#859 = CALENDAR_DATE ( 2026, 23, 7 ) ;
#860 = AXIS2_PLACEMENT_3D ( 'NONE', #914, #269, #674 ) ;
#861 = DIRECTION ( 'NONE',  ( 0.000000000000000000, 0.000000000000000000, 1.000000000000000000 ) ) ;
#862 = DESIGN_CONTEXT ( 'detailed design', #164, 'design' ) ;
#863 = AXIS2_PLACEMENT_3D ( 'NONE', #506, #100, #805 ) ;
#864 = APPROVAL_PERSON_ORGANIZATION ( #62, #953, #946 ) ;
#865 = EDGE_LOOP ( 'NONE', ( #381, #166, #226, #314 ) ) ;
#866 = PERSON_AND_ORGANIZATION_ROLE ( 'design_supplier' ) ;
#867 = CARTESIAN_POINT ( 'NONE',  ( 24.00000000000000000, 0.000000000000000000, 0.000000000000000000 ) ) ;
#868 = CIRCLE ( 'NONE', #66, 4.990000000000002878 ) ;
#869 = EDGE_CURVE ( 'NONE', #606, #250, #813, .T. ) ;
#870 = DIRECTION ( 'NONE',  ( 0.000000000000000000, 0.000000000000000000, 1.000000000000000000 ) ) ;
#871 = EDGE_LOOP ( 'NONE', ( #108, #557 ) ) ;
#872 = DATE_AND_TIME ( #558, #400 ) ;
#873 = DIRECTION ( 'NONE',  ( -1.000000000000000000, -0.000000000000000000, -0.000000000000000000 ) ) ;
#874 = EDGE_CURVE ( 'NONE', #648, #140, #351, .T. ) ;
#875 = CARTESIAN_POINT ( 'NONE',  ( 14.00000000000000000, 0.000000000000000000, 0.000000000000000000 ) ) ;
#876 = ORIENTED_EDGE ( 'NONE', *, *, #1009, .F. ) ;
#877 = VERTEX_POINT ( 'NONE', #985 ) ;
#878 = DIRECTION ( 'NONE',  ( -1.000000000000000000, 0.000000000000000000, 0.000000000000000000 ) ) ;
#879 = CIRCLE ( 'NONE', #726, 4.990000000000001101 ) ;
#880 = DIRECTION ( 'NONE',  ( -1.000000000000000000, -0.000000000000000000, -0.000000000000000000 ) ) ;
#881 = ORIENTED_EDGE ( 'NONE', *, *, #25, .T. ) ;
#882 = CIRCLE ( 'NONE', #968, 7.490000000000001990 ) ;
#883 = ADVANCED_FACE ( 'NONE', ( #168 ), #725, .T. ) ;
#884 = VERTEX_POINT ( 'NONE', #253 ) ;
#885 = CARTESIAN_POINT ( 'NONE',  ( 24.00000000000000000, -1.999999999999997335, 7.228416147400479552 ) ) ;
#886 = DIRECTION ( 'NONE',  ( -1.000000000000000000, 0.000000000000000000, 0.000000000000000000 ) ) ;
#887 = ORIENTED_EDGE ( 'NONE', *, *, #739, .F. ) ;
#888 = ORIENTED_EDGE ( 'NONE', *, *, #624, .T. ) ;
#889 = APPROVAL ( #467, 'UNSPECIFIED' ) ;
#890 = CARTESIAN_POINT ( 'NONE',  ( 30.50000000000000000, 0.000000000000000000, 4.990000000000004654 ) ) ;
#891 = CIRCLE ( 'NONE', #576, 4.990000000000001101 ) ;
#892 = CARTESIAN_POINT ( 'NONE',  ( 0.000000000000000000, 0.000000000000000000, 7.490000000000001990 ) ) ;
#893 = CIRCLE ( 'NONE', #443, 4.990000000000014424 ) ;
#894 = DIRECTION ( 'NONE',  ( -1.000000000000000000, -0.000000000000000000, -0.000000000000000000 ) ) ;
#895 = ORIENTED_EDGE ( 'NONE', *, *, #976, .T. ) ;
#896 = FACE_OUTER_BOUND ( 'NONE', #504, .T. ) ;
#897 = EDGE_CURVE ( 'NONE', #523, #591, #737, .T. ) ;
#898 = FACE_OUTER_BOUND ( 'NONE', #240, .T. ) ;
#899 = CIRCLE ( 'NONE', #244, 4.990000000000014424 ) ;
#900 = ORIENTED_EDGE ( 'NONE', *, *, #594, .T. ) ;
#901 = CIRCLE ( 'NONE', #29, 4.790000000000000924 ) ;
#902 = ORIENTED_EDGE ( 'NONE', *, *, #659, .T. ) ;
#903 = DIRECTION ( 'NONE',  ( 0.000000000000000000, 0.000000000000000000, -1.000000000000000000 ) ) ;
#904 = CARTESIAN_POINT ( 'NONE',  ( 0.000000000000000000, 6.110987527745305350E-16, -4.990000000000009983 ) ) ;
#905 = EDGE_CURVE ( 'NONE', #150, #463, #908, .T. ) ;
#906 = DIRECTION ( 'NONE',  ( 0.000000000000000000, 0.000000000000000000, 1.000000000000000000 ) ) ;
#907 = ORIENTED_EDGE ( 'NONE', *, *, #747, .T. ) ;
#908 = LINE ( 'NONE', #975, #98 ) ;
#909 = PLANE ( 'NONE',  #734 ) ;
#910 = DIRECTION ( 'NONE',  ( 0.000000000000000000, 0.000000000000000000, 1.000000000000000000 ) ) ;
#911 = ORIENTED_EDGE ( 'NONE', *, *, #469, .T. ) ;
#912 = DIRECTION ( 'NONE',  ( 0.000000000000000000, 0.000000000000000000, 1.000000000000000000 ) ) ;
#913 = VECTOR ( 'NONE', #233, 1000.000000000000000 ) ;
#914 = CARTESIAN_POINT ( 'NONE',  ( 14.00000000000000000, 0.000000000000000000, -7.490000000000001990 ) ) ;
#915 = CARTESIAN_POINT ( 'NONE',  ( 0.000000000000000000, 0.000000000000000000, 0.000000000000000000 ) ) ;
#916 = EDGE_LOOP ( 'NONE', ( #222, #505, #951, #488 ) ) ;
#917 = DIRECTION ( 'NONE',  ( 0.000000000000000000, 0.000000000000000000, 1.000000000000000000 ) ) ;
#918 = EDGE_CURVE ( 'NONE', #741, #515, #179, .T. ) ;
#919 = AXIS2_PLACEMENT_3D ( 'NONE', #312, #56, #450 ) ;
#920 = FACE_OUTER_BOUND ( 'NONE', #160, .T. ) ;
#921 = CARTESIAN_POINT ( 'NONE',  ( 126.0000000000000000, 0.000000000000000000, 0.000000000000000000 ) ) ;
#922 = ORIENTED_EDGE ( 'NONE', *, *, #102, .F. ) ;
#923 = FACE_OUTER_BOUND ( 'NONE', #772, .T. ) ;
#924 = APPROVAL ( #59, 'UNSPECIFIED' ) ;
#925 = LINE ( 'NONE', #847, #848 ) ;
#926 = CARTESIAN_POINT ( 'NONE',  ( 126.0000000000000000, 0.000000000000000000, 0.000000000000000000 ) ) ;
#927 = ORIENTED_EDGE ( 'NONE', *, *, #302, .T. ) ;
#928 = CYLINDRICAL_SURFACE ( 'NONE', #200, 4.790000000000000924 ) ;
#929 = FACE_OUTER_BOUND ( 'NONE', #635, .T. ) ;
#930 = EDGE_CURVE ( 'NONE', #1001, #584, #122, .T. ) ;
#931 = DIRECTION ( 'NONE',  ( -1.000000000000000000, -0.000000000000000000, -0.000000000000000000 ) ) ;
#932 = ORIENTED_EDGE ( 'NONE', *, *, #142, .T. ) ;
#933 = AXIS2_PLACEMENT_3D ( 'NONE', #11, #790, #75 ) ;
#934 = AXIS2_PLACEMENT_3D ( 'NONE', #970, #585, #742 ) ;
#935 = CARTESIAN_POINT ( 'NONE',  ( 14.00000000000000000, 2.000000000000002665, -7.218039900139096687 ) ) ;
#936 = EDGE_LOOP ( 'NONE', ( #293, #984 ) ) ;
#937 = CALENDAR_DATE ( 2026, 23, 7 ) ;
#938 = AXIS2_PLACEMENT_3D ( 'NONE', #706, #296, #451 ) ;
#939 = DIRECTION ( 'NONE',  ( 0.000000000000000000, 0.000000000000000000, 1.000000000000000000 ) ) ;
#940 = EDGE_LOOP ( 'NONE', ( #404, #61, #261, #676, #215, #83 ) ) ;
#941 = DIRECTION ( 'NONE',  ( 1.000000000000000000, 0.000000000000000000, 0.000000000000000000 ) ) ;
#942 = AXIS2_PLACEMENT_3D ( 'NONE', #45, #199, #36 ) ;
#943 = CARTESIAN_POINT ( 'NONE',  ( 4.000000000000000000, 0.000000000000000000, 0.000000000000000000 ) ) ;
#944 = AXIS2_PLACEMENT_3D ( 'NONE', #417, #738, #91 ) ;
#945 = EDGE_LOOP ( 'NONE', ( #21, #911, #887, #393, #186, #907, #71, #260 ) ) ;
#946 = APPROVAL_ROLE ( '' ) ;
#947 = EDGE_CURVE ( 'NONE', #88, #1026, #901, .T. ) ;
#948 = DIRECTION ( 'NONE',  ( -1.000000000000000000, -0.000000000000000000, -0.000000000000000000 ) ) ;
#949 = VECTOR ( 'NONE', #339, 1000.000000000000000 ) ;
#950 = DIRECTION ( 'NONE',  ( -0.000000000000000000, -0.000000000000000000, 1.000000000000000000 ) ) ;
#951 = ORIENTED_EDGE ( 'NONE', *, *, #947, .F. ) ;
#952 = CARTESIAN_POINT ( 'NONE',  ( 14.00000000000000000, 2.000000000000002665, 7.228416147400479552 ) ) ;
#953 = APPROVAL ( #311, 'UNSPECIFIED' ) ;
#954 = VECTOR ( 'NONE', #243, 1000.000000000000000 ) ;
#955 = DIRECTION ( 'NONE',  ( -1.000000000000000000, -0.000000000000000000, -0.000000000000000000 ) ) ;
#956 = ORIENTED_EDGE ( 'NONE', *, *, #284, .T. ) ;
#957 = DATE_AND_TIME ( #937, #655 ) ;
#958 = ORIENTED_EDGE ( 'NONE', *, *, #25, .F. ) ;
#959 = CARTESIAN_POINT ( 'NONE',  ( 26.00000000000000000, 0.000000000000000000, 0.000000000000000000 ) ) ;
#960 = CARTESIAN_POINT ( 'NONE',  ( 3.000000000000000000, 0.000000000000000000, 0.000000000000000000 ) ) ;
#961 = EDGE_CURVE ( 'NONE', #877, #201, #126, .T. ) ;
#962 = ORIENTED_EDGE ( 'NONE', *, *, #495, .F. ) ;
#963 = ORIENTED_EDGE ( 'NONE', *, *, #817, .F. ) ;
#964 = DIRECTION ( 'NONE',  ( -1.000000000000000000, -0.000000000000000000, -0.000000000000000000 ) ) ;
#965 = CYLINDRICAL_SURFACE ( 'NONE', #172, 4.790000000000006253 ) ;
#966 = ADVANCED_FACE ( 'NONE', ( #756 ), #773, .T. ) ;
#967 = DIRECTION ( 'NONE',  ( 0.000000000000000000, 0.000000000000000000, 1.000000000000000000 ) ) ;
#968 = AXIS2_PLACEMENT_3D ( 'NONE', #283, #273, #38 ) ;
#969 = EDGE_LOOP ( 'NONE', ( #567, #702 ) ) ;
#970 = CARTESIAN_POINT ( 'NONE',  ( 38.50000000000000000, 0.000000000000000000, 0.000000000000000000 ) ) ;
#971 = CIRCLE ( 'NONE', #525, 4.790000000000001812 ) ;
#972 = CARTESIAN_POINT ( 'NONE',  ( 0.000000000000000000, 0.000000000000000000, 0.000000000000000000 ) ) ;
#973 = ORIENTED_EDGE ( 'NONE', *, *, #588, .F. ) ;
#974 = ORIENTED_EDGE ( 'NONE', *, *, #869, .F. ) ;
#975 = CARTESIAN_POINT ( 'NONE',  ( 0.000000000000000000, 6.110987527745294503E-16, -4.990000000000001101 ) ) ;
#976 = EDGE_CURVE ( 'NONE', #192, #88, #47, .T. ) ;
#977 = PLANE ( 'NONE',  #332 ) ;
#978 = EDGE_LOOP ( 'NONE', ( #973, #137 ) ) ;
#979 = ORIENTED_EDGE ( 'NONE', *, *, #175, .F. ) ;
#980 = CYLINDRICAL_SURFACE ( 'NONE', #300, 4.990000000000009983 ) ;
#981 = ADVANCED_FACE ( 'NONE', ( #197, #751 ), #840, .F. ) ;
#982 = FACE_BOUND ( 'NONE', #647, .T. ) ;
#983 = CARTESIAN_POINT ( 'NONE',  ( 24.00000000000000000, -1.999999999999997335, 7.228416147400479552 ) ) ;
#984 = ORIENTED_EDGE ( 'NONE', *, *, #445, .T. ) ;
#985 = CARTESIAN_POINT ( 'NONE',  ( 39.50000000000000000, 5.866058167915828348E-16, -4.790000000000005365 ) ) ;
#986 = CC_DESIGN_APPROVAL ( #889, ( #418 ) ) ;
#987 = AXIS2_PLACEMENT_3D ( 'NONE', #532, #60, #382 ) ;
#988 = DIRECTION ( 'NONE',  ( -1.000000000000000000, -0.000000000000000000, -0.000000000000000000 ) ) ;
#989 = EDGE_CURVE ( 'NONE', #735, #144, #132, .T. ) ;
#990 = CARTESIAN_POINT ( 'NONE',  ( 30.50000000000000000, 0.000000000000000000, 0.000000000000000000 ) ) ;
#991 = ORIENTED_EDGE ( 'NONE', *, *, #352, .F. ) ;
#992 =( NAMED_UNIT ( * ) PLANE_ANGLE_UNIT ( ) SI_UNIT ( $, .RADIAN. ) );
#993 = CARTESIAN_POINT ( 'NONE',  ( 14.00000000000000000, 2.000000000000002665, 7.218039900139096687 ) ) ;
#994 = CIRCLE ( 'NONE', #41, 7.490000000000002878 ) ;
#995 = EDGE_CURVE ( 'NONE', #884, #765, #882, .T. ) ;
#996 = FACE_OUTER_BOUND ( 'NONE', #8, .T. ) ;
#997 = ORIENTED_EDGE ( 'NONE', *, *, #20, .F. ) ;
#998 = FACE_OUTER_BOUND ( 'NONE', #431, .T. ) ;
#999 = CARTESIAN_POINT ( 'NONE',  ( 0.000000000000000000, 0.000000000000000000, 0.000000000000000000 ) ) ;
#1000 = CARTESIAN_POINT ( 'NONE',  ( 39.50000000000000000, 0.000000000000000000, 0.000000000000000000 ) ) ;
#1001 = VERTEX_POINT ( 'NONE', #432 ) ;
#1002 = DIRECTION ( 'NONE',  ( -0.000000000000000000, -0.000000000000000000, 1.000000000000000000 ) ) ;
#1003 = EDGE_CURVE ( 'NONE', #196, #472, #372, .T. ) ;
#1004 = CIRCLE ( 'NONE', #1019, 4.990000000000003766 ) ;
#1005 = PLANE ( 'NONE',  #232 ) ;
#1006 = PLANE ( 'NONE',  #134 ) ;
#1007 = ORIENTED_EDGE ( 'NONE', *, *, #699, .F. ) ;
#1008 = CARTESIAN_POINT ( 'NONE',  ( 3.000000000000000000, 0.000000000000000000, 0.000000000000000000 ) ) ;
#1009 = EDGE_CURVE ( 'NONE', #562, #1026, #449, .T. ) ;
#1010 = DIRECTION ( 'NONE',  ( 0.000000000000000000, 0.000000000000000000, -1.000000000000000000 ) ) ;
#1011 = APPLICATION_CONTEXT ( 'configuration controlled 3d designs of mechanical parts and assemblies' ) ;
#1012 = DIRECTION ( 'NONE',  ( -0.000000000000000000, 0.000000000000000000, -1.000000000000000000 ) ) ;
#1013 = CIRCLE ( 'NONE', #833, 4.990000000000001101 ) ;
#1014 = EDGE_LOOP ( 'NONE', ( #922, #736 ) ) ;
#1015 = CARTESIAN_POINT ( 'NONE',  ( 0.000000000000000000, 0.000000000000000000, 0.000000000000000000 ) ) ;
#1016 = ADVANCED_FACE ( 'NONE', ( #534, #923 ), #31, .F. ) ;
#1017 = DIRECTION ( 'NONE',  ( -1.000000000000000000, 0.000000000000000000, -0.000000000000000000 ) ) ;
#1018 = ORIENTED_EDGE ( 'NONE', *, *, #136, .T. ) ;
#1019 = AXIS2_PLACEMENT_3D ( 'NONE', #959, #559, #708 ) ;
#1020 = DIRECTION ( 'NONE',  ( 0.000000000000000000, 0.000000000000000000, 1.000000000000000000 ) ) ;
#1021 = ORIENTED_EDGE ( 'NONE', *, *, #257, .F. ) ;
#1022 = PERSON_AND_ORGANIZATION ( #183, #285 ) ;
#1023 = CIRCLE ( 'NONE', #118, 4.990000000000001101 ) ;
#1024 = CIRCLE ( 'NONE', #304, 7.490000000000002878 ) ;
#1025 = CARTESIAN_POINT ( 'NONE',  ( 4.000000000000000000, 0.000000000000000000, 0.000000000000000000 ) ) ;
#1026 = VERTEX_POINT ( 'NONE', #362 ) ;
#1027 = CIRCLE ( 'NONE', #579, 4.990000000000004654 ) ;
#1028 = CYLINDRICAL_SURFACE ( 'NONE', #14, 7.490000000000001990 ) ;
#1029 = LINE ( 'NONE', #855, #428 ) ;
#1030 = ORIENTED_EDGE ( 'NONE', *, *, #624, .F. ) ;
#1031 = CALENDAR_DATE ( 2026, 23, 7 ) ;
#1032 = PLANE ( 'NONE',  #798 ) ;
#1033 = ADVANCED_FACE ( 'NONE', ( #998 ), #928, .T. ) ;
#1034 = VECTOR ( 'NONE', #211, 1000.000000000000000 ) ;
#1035 = CARTESIAN_POINT ( 'NONE',  ( 14.00000000000000000, 0.000000000000000000, 0.000000000000000000 ) ) ;
#1036 = AXIS2_PLACEMENT_3D ( 'NONE', #106, #513, #757 ) ;
#1037 = ORIENTED_EDGE ( 'NONE', *, *, #989, .T. ) ;
#1038 = CIRCLE ( 'NONE', #850, 4.990000000000001101 ) ;
#1039 = CARTESIAN_POINT ( 'NONE',  ( 14.00000000000000000, 0.000000000000000000, 0.000000000000000000 ) ) ;
#1040 = EDGE_CURVE ( 'NONE', #250, #606, #524, .T. ) ;
#1041 = CARTESIAN_POINT ( 'NONE',  ( 26.00000000000000355, 0.000000000000000000, 7.490000000000002878 ) ) ;
ENDSEC;
END-ISO-10303-21;
