ISO-10303-21;
HEADER;
FILE_DESCRIPTION (( 'STEP AP203' ),
    '1' );
FILE_NAME ('Link3RightLShape_Default_sldprt.STEP',
    '2026-07-23T12:35:06',
    ( '' ),
    ( '' ),
    'SwSTEP 2.0',
    'SolidWorks 2025',
    '' );
FILE_SCHEMA (( 'CONFIG_CONTROL_DESIGN' ));
ENDSEC;

DATA;
#1 = ORIENTED_EDGE ( 'NONE', *, *, #277, .T. ) ;
#2 = EDGE_CURVE ( 'NONE', #369, #304, #116, .T. ) ;
#3 = DIRECTION ( 'NONE',  ( -1.000000000000000000, -0.000000000000000000, 1.387778780781446464E-15 ) ) ;
#4 = PERSON_AND_ORGANIZATION ( #164, #357 ) ;
#5 = CARTESIAN_POINT ( 'NONE',  ( -198.4000000000000909, 0.000000000000000000, -29.99999999999994316 ) ) ;
#6 = ADVANCED_FACE ( 'NONE', ( #344 ), #263, .F. ) ;
#7 = APPROVAL_ROLE ( '' ) ;
#8 = DIRECTION ( 'NONE',  ( 0.000000000000000000, -1.000000000000000000, 0.000000000000000000 ) ) ;
#9 = DIRECTION ( 'NONE',  ( 1.000000000000000000, -0.000000000000000000, 2.037426901315041899E-16 ) ) ;
#10 = CARTESIAN_POINT ( 'NONE',  ( -218.4000000000000625, 20.00000000000000000, -155.0000000000000853 ) ) ;
#11 = DIRECTION ( 'NONE',  ( -0.000000000000000000, -0.000000000000000000, -1.000000000000000000 ) ) ;
#12 = CC_DESIGN_PERSON_AND_ORGANIZATION_ASSIGNMENT ( #163, #81, ( #29 ) ) ;
#13 = DIRECTION ( 'NONE',  ( 2.382861917550558372E-16, -0.000000000000000000, 1.000000000000000000 ) ) ;
#14 = PLANE ( 'NONE',  #147 ) ;
#15 = VECTOR ( 'NONE', #210, 1000.000000000000000 ) ;
#16 = AXIS2_PLACEMENT_3D ( 'NONE', #37, #323, #328 ) ;
#17 = EDGE_CURVE ( 'NONE', #27, #226, #88, .T. ) ;
#18 = PLANE ( 'NONE',  #95 ) ;
#19 = DIRECTION ( 'NONE',  ( 0.000000000000000000, -1.000000000000000000, 0.000000000000000000 ) ) ;
#20 = DIRECTION ( 'NONE',  ( 3.364312195833807668E-16, -0.000000000000000000, 1.000000000000000000 ) ) ;
#21 = ADVANCED_FACE ( 'NONE', ( #205 ), #179, .T. ) ;
#22 = MANIFOLD_SOLID_BREP ( 'Fillet1', #246 ) ;
#23 = VERTEX_POINT ( 'NONE', #149 ) ;
#24 = ORIENTED_EDGE ( 'NONE', *, *, #233, .T. ) ;
#25 = APPROVAL_STATUS ( 'not_yet_approved' ) ;
#26 = VERTEX_POINT ( 'NONE', #10 ) ;
#27 = VERTEX_POINT ( 'NONE', #118 ) ;
#28 = ORIENTED_EDGE ( 'NONE', *, *, #233, .F. ) ;
#29 = PRODUCT_DEFINITION_FORMATION_WITH_SPECIFIED_SOURCE ( 'ANY', '', #214, .NOT_KNOWN. ) ;
#30 = DIRECTION ( 'NONE',  ( 0.000000000000000000, 1.000000000000000000, 0.000000000000000000 ) ) ;
#31 = CC_DESIGN_PERSON_AND_ORGANIZATION_ASSIGNMENT ( #199, #308, ( #214 ) ) ;
#32 = AXIS2_PLACEMENT_3D ( 'NONE', #60, #175, #209 ) ;
#33 = CARTESIAN_POINT ( 'NONE',  ( 0.000000000000000000, 20.00000000000000000, -10.00000000000000000 ) ) ;
#34 = CARTESIAN_POINT ( 'NONE',  ( -238.4000000000000625, 0.000000000000000000, -155.0000000000000568 ) ) ;
#35 = CARTESIAN_POINT ( 'NONE',  ( -218.4000000000000909, 0.000000000000000000, -29.99999999999994671 ) ) ;
#36 = DIRECTION ( 'NONE',  ( -0.000000000000000000, -1.000000000000000000, -0.000000000000000000 ) ) ;
#37 = CARTESIAN_POINT ( 'NONE',  ( -218.4000000000000057, 20.00000000000000000, -10.00000000000004619 ) ) ;
#38 = CARTESIAN_POINT ( 'NONE',  ( -218.4000000000000057, 20.00000000000000000, -10.00000000000004619 ) ) ;
#39 = EDGE_CURVE ( 'NONE', #197, #101, #208, .T. ) ;
#40 = DIRECTION ( 'NONE',  ( 0.000000000000000000, -1.000000000000000000, 0.000000000000000000 ) ) ;
#41 = CARTESIAN_POINT ( 'NONE',  ( 0.000000000000000000, 20.00000000000000000, 0.000000000000000000 ) ) ;
#42 = AXIS2_PLACEMENT_3D ( 'NONE', #268, #13, #358 ) ;
#43 = CALENDAR_DATE ( 2026, 23, 7 ) ;
#44 = ORIENTED_EDGE ( 'NONE', *, *, #193, .F. ) ;
#45 = DIRECTION ( 'NONE',  ( -0.000000000000000000, 1.000000000000000000, -0.000000000000000000 ) ) ;
#46 = EDGE_LOOP ( 'NONE', ( #312, #228, #192, #170 ) ) ;
#47 = COORDINATED_UNIVERSAL_TIME_OFFSET ( 3, 30, .AHEAD. ) ;
#48 = EDGE_LOOP ( 'NONE', ( #258, #136, #174, #171 ) ) ;
#49 = CARTESIAN_POINT ( 'NONE',  ( -218.4000000000000909, 20.00000000000000000, -29.99999999999994316 ) ) ;
#50 = VERTEX_POINT ( 'NONE', #33 ) ;
#51 = AXIS2_PLACEMENT_3D ( 'NONE', #146, #8, #320 ) ;
#52 = DATE_TIME_ROLE ( 'classification_date' ) ;
#53 = VERTEX_POINT ( 'NONE', #57 ) ;
#54 = EDGE_CURVE ( 'NONE', #53, #369, #76, .T. ) ;
#55 = CARTESIAN_POINT ( 'NONE',  ( -238.4000000000000057, 20.00000000000000000, 9.999999999999952038 ) ) ;
#56 = CIRCLE ( 'NONE', #299, 20.00000000000000355 ) ;
#57 = CARTESIAN_POINT ( 'NONE',  ( -198.4000000000000909, 20.00000000000000000, -9.999999999999953815 ) ) ;
#58 = VECTOR ( 'NONE', #346, 1000.000000000000000 ) ;
#59 = DIRECTION ( 'NONE',  ( -1.000000000000000000, 0.000000000000000000, -2.037426901315041899E-16 ) ) ;
#60 = CARTESIAN_POINT ( 'NONE',  ( -198.4000000000000909, 20.00000000000000000, -29.99999999999994316 ) ) ;
#61 = EDGE_CURVE ( 'NONE', #279, #23, #294, .T. ) ;
#62 = SECURITY_CLASSIFICATION ( '', '', #278 ) ;
#63 = DIRECTION ( 'NONE',  ( -1.000000000000000000, -0.000000000000000000, 1.387778780781446464E-15 ) ) ;
#64 = DIRECTION ( 'NONE',  ( -1.000000000000000000, 0.000000000000000000, -1.914177628664061403E-16 ) ) ;
#65 = CARTESIAN_POINT ( 'NONE',  ( 0.000000000000000000, 20.00000000000000000, 10.00000000000000000 ) ) ;
#66 = EDGE_CURVE ( 'NONE', #301, #105, #350, .T. ) ;
#67 = CYLINDRICAL_SURFACE ( 'NONE', #145, 20.00000000000000355 ) ;
#68 = CARTESIAN_POINT ( 'NONE',  ( -238.4000000000000057, 0.000000000000000000, 9.999999999999952038 ) ) ;
#69 = ORIENTED_EDGE ( 'NONE', *, *, #343, .F. ) ;
#70 = CARTESIAN_POINT ( 'NONE',  ( -218.4000000000000057, 20.00000000000000000, 9.999999999999955591 ) ) ;
#71 = EDGE_CURVE ( 'NONE', #101, #53, #237, .T. ) ;
#72 = DIRECTION ( 'NONE',  ( -0.000000000000000000, -1.000000000000000000, -0.000000000000000000 ) ) ;
#73 = ORIENTED_EDGE ( 'NONE', *, *, #123, .T. ) ;
#74 = LOCAL_TIME ( 16, 5, 6.000000000000000000, #135 ) ;
#75 = ORIENTED_EDGE ( 'NONE', *, *, #167, .T. ) ;
#76 = CIRCLE ( 'NONE', #32, 20.00000000000000355 ) ;
#77 = CIRCLE ( 'NONE', #292, 20.00000000000000355 ) ;
#78 =( NAMED_UNIT ( * ) SI_UNIT ( $, .STERADIAN. ) SOLID_ANGLE_UNIT ( ) );
#79 = ORIENTED_EDGE ( 'NONE', *, *, #360, .F. ) ;
#80 = ORIENTED_EDGE ( 'NONE', *, *, #343, .T. ) ;
#81 = PERSON_AND_ORGANIZATION_ROLE ( 'creator' ) ;
#82 = EDGE_LOOP ( 'NONE', ( #112, #221, #129, #80 ) ) ;
#83 = VERTEX_POINT ( 'NONE', #318 ) ;
#84 = ADVANCED_BREP_SHAPE_REPRESENTATION ( 'Link3RightLShape_Default_sldprt', ( #22, #153 ), #213 ) ;
#85 = APPROVAL_DATE_TIME ( #347, #352 ) ;
#86 = CARTESIAN_POINT ( 'NONE',  ( 0.000000000000000000, 20.00000000000000000, 10.00000000000000000 ) ) ;
#87 = COORDINATED_UNIVERSAL_TIME_OFFSET ( 3, 30, .AHEAD. ) ;
#88 = LINE ( 'NONE', #55, #140 ) ;
#89 = AXIS2_PLACEMENT_3D ( 'NONE', #293, #30, #182 ) ;
#90 = CARTESIAN_POINT ( 'NONE',  ( 0.000000000000000000, 20.00000000000000000, 10.00000000000000000 ) ) ;
#91 = DIRECTION ( 'NONE',  ( 0.000000000000000000, -1.000000000000000000, 0.000000000000000000 ) ) ;
#92 = CC_DESIGN_APPROVAL ( #348, ( #29 ) ) ;
#93 = DIRECTION ( 'NONE',  ( 0.000000000000000000, -0.000000000000000000, -1.000000000000000000 ) ) ;
#94 = EDGE_CURVE ( 'NONE', #369, #26, #316, .T. ) ;
#95 = AXIS2_PLACEMENT_3D ( 'NONE', #41, #19, #93 ) ;
#96 = LINE ( 'NONE', #216, #158 ) ;
#97 = LINE ( 'NONE', #191, #311 ) ;
#98 = CARTESIAN_POINT ( 'NONE',  ( -238.4000000000000625, 20.00000000000000000, -155.0000000000000568 ) ) ;
#99 = ORIENTED_EDGE ( 'NONE', *, *, #61, .T. ) ;
#100 = LINE ( 'NONE', #275, #356 ) ;
#101 = VERTEX_POINT ( 'NONE', #181 ) ;
#102 = ADVANCED_FACE ( 'NONE', ( #291 ), #121, .F. ) ;
#103 = PERSON_AND_ORGANIZATION ( #164, #357 ) ;
#104 = UNCERTAINTY_MEASURE_WITH_UNIT (LENGTH_MEASURE( 1.000000000000000082E-05 ), #339, 'distance_accuracy_value', 'NONE');
#105 = VERTEX_POINT ( 'NONE', #239 ) ;
#106 = PERSON_AND_ORGANIZATION ( #164, #357 ) ;
#107 = ORIENTED_EDGE ( 'NONE', *, *, #229, .F. ) ;
#108 = ADVANCED_FACE ( 'NONE', ( #321 ), #287, .F. ) ;
#109 = APPROVAL_ROLE ( '' ) ;
#110 = VERTEX_POINT ( 'NONE', #349 ) ;
#111 = CARTESIAN_POINT ( 'NONE',  ( -218.4000000000000057, 0.000000000000000000, -10.00000000000004619 ) ) ;
#112 = ORIENTED_EDGE ( 'NONE', *, *, #39, .T. ) ;
#113 = APPROVAL_STATUS ( 'not_yet_approved' ) ;
#114 = ORIENTED_EDGE ( 'NONE', *, *, #133, .F. ) ;
#115 = LOCAL_TIME ( 16, 5, 6.000000000000000000, #87 ) ;
#116 = LINE ( 'NONE', #35, #180 ) ;
#117 = DIRECTION ( 'NONE',  ( 0.000000000000000000, 1.000000000000000000, -0.000000000000000000 ) ) ;
#118 = CARTESIAN_POINT ( 'NONE',  ( -238.4000000000000625, 20.00000000000000000, -155.0000000000000568 ) ) ;
#119 = CC_DESIGN_DATE_AND_TIME_ASSIGNMENT ( #148, #52, ( #62 ) ) ;
#120 = CARTESIAN_POINT ( 'NONE',  ( 0.000000000000000000, 0.000000000000000000, 10.00000000000000000 ) ) ;
#121 = PLANE ( 'NONE',  #272 ) ;
#122 = DIRECTION ( 'NONE',  ( 0.000000000000000000, -1.000000000000000000, 0.000000000000000000 ) ) ;
#123 = EDGE_CURVE ( 'NONE', #314, #83, #234, .T. ) ;
#124 = FACE_OUTER_BOUND ( 'NONE', #329, .T. ) ;
#125 = VECTOR ( 'NONE', #3, 1000.000000000000000 ) ;
#126 = DIRECTION ( 'NONE',  ( -0.000000000000000000, -0.000000000000000000, -1.000000000000000000 ) ) ;
#127 = FACE_OUTER_BOUND ( 'NONE', #82, .T. ) ;
#128 = LINE ( 'NONE', #98, #178 ) ;
#129 = ORIENTED_EDGE ( 'NONE', *, *, #240, .F. ) ;
#130 = CARTESIAN_POINT ( 'NONE',  ( 0.000000000000000000, 20.00000000000000000, -10.00000000000000000 ) ) ;
#131 = DATE_AND_TIME ( #367, #137 ) ;
#132 = EDGE_LOOP ( 'NONE', ( #204, #24, #99, #224, #186, #271, #281, #203 ) ) ;
#133 = EDGE_CURVE ( 'NONE', #26, #27, #295, .T. ) ;
#134 = ORIENTED_EDGE ( 'NONE', *, *, #2, .F. ) ;
#135 = COORDINATED_UNIVERSAL_TIME_OFFSET ( 3, 30, .AHEAD. ) ;
#136 = ORIENTED_EDGE ( 'NONE', *, *, #360, .T. ) ;
#137 = LOCAL_TIME ( 16, 5, 6.000000000000000000, #254 ) ;
#138 = PERSON_AND_ORGANIZATION ( #164, #357 ) ;
#139 = EDGE_LOOP ( 'NONE', ( #309, #231, #255, #342, #200, #75, #198, #338 ) ) ;
#140 = VECTOR ( 'NONE', #151, 1000.000000000000000 ) ;
#141 = COORDINATED_UNIVERSAL_TIME_OFFSET ( 3, 30, .AHEAD. ) ;
#142 = CARTESIAN_POINT ( 'NONE',  ( -238.4000000000000625, 20.00000000000000000, -155.0000000000000568 ) ) ;
#143 = CC_DESIGN_DATE_AND_TIME_ASSIGNMENT ( #283, #202, ( #332 ) ) ;
#144 = APPLICATION_CONTEXT ( 'configuration controlled 3d designs of mechanical parts and assemblies' ) ;
#145 = AXIS2_PLACEMENT_3D ( 'NONE', #38, #40, #243 ) ;
#146 = CARTESIAN_POINT ( 'NONE',  ( 0.000000000000000000, 0.000000000000000000, 0.000000000000000000 ) ) ;
#147 = AXIS2_PLACEMENT_3D ( 'NONE', #274, #355, #296 ) ;
#148 = DATE_AND_TIME ( #235, #288 ) ;
#149 = CARTESIAN_POINT ( 'NONE',  ( 0.000000000000000000, 20.00000000000000000, 10.00000000000000000 ) ) ;
#150 = CC_DESIGN_PERSON_AND_ORGANIZATION_ASSIGNMENT ( #250, #220, ( #29 ) ) ;
#151 = DIRECTION ( 'NONE',  ( 3.364312195833807668E-16, -0.000000000000000000, 1.000000000000000000 ) ) ;
#152 = DIRECTION ( 'NONE',  ( 1.000000000000000000, -0.000000000000000000, 2.037426901315041899E-16 ) ) ;
#153 = AXIS2_PLACEMENT_3D ( 'NONE', #362, #337, #303 ) ;
#154 = CARTESIAN_POINT ( 'NONE',  ( -218.4000000000000057, 20.00000000000000000, 9.999999999999955591 ) ) ;
#155 = PLANE ( 'NONE',  #42 ) ;
#156 = LINE ( 'NONE', #270, #223 ) ;
#157 = VECTOR ( 'NONE', #63, 1000.000000000000000 ) ;
#158 = VECTOR ( 'NONE', #249, 1000.000000000000000 ) ;
#159 = CARTESIAN_POINT ( 'NONE',  ( -218.4000000000000625, 0.000000000000000000, -155.0000000000000853 ) ) ;
#160 = PRODUCT_RELATED_PRODUCT_CATEGORY ( 'detail', '', ( #214 ) ) ;
#161 = FACE_OUTER_BOUND ( 'NONE', #132, .T. ) ;
#162 = DATE_AND_TIME ( #365, #74 ) ;
#163 = PERSON_AND_ORGANIZATION ( #164, #357 ) ;
#164 = PERSON ( 'UNSPECIFIED', 'UNSPECIFIED', 'UNSPECIFIED', ('UNSPECIFIED'), ('UNSPECIFIED'), ('UNSPECIFIED') ) ;
#165 = AXIS2_PLACEMENT_3D ( 'NONE', #212, #64, #218 ) ;
#166 = ORIENTED_EDGE ( 'NONE', *, *, #2, .T. ) ;
#167 = EDGE_CURVE ( 'NONE', #304, #101, #77, .T. ) ;
#168 = EDGE_LOOP ( 'NONE', ( #286, #331, #334, #134 ) ) ;
#169 = APPROVAL_DATE_TIME ( #131, #256 ) ;
#170 = ORIENTED_EDGE ( 'NONE', *, *, #172, .F. ) ;
#171 = ORIENTED_EDGE ( 'NONE', *, *, #229, .T. ) ;
#172 = EDGE_CURVE ( 'NONE', #23, #105, #317, .T. ) ;
#173 = APPROVAL_STATUS ( 'not_yet_approved' ) ;
#174 = ORIENTED_EDGE ( 'NONE', *, *, #17, .F. ) ;
#175 = DIRECTION ( 'NONE',  ( -0.000000000000000000, -1.000000000000000000, 0.000000000000000000 ) ) ;
#176 = DIRECTION ( 'NONE',  ( 1.000000000000000000, 0.000000000000000000, -3.364312195833807668E-16 ) ) ;
#177 = ADVANCED_FACE ( 'NONE', ( #267 ), #14, .F. ) ;
#178 = VECTOR ( 'NONE', #183, 1000.000000000000000 ) ;
#179 = PLANE ( 'NONE',  #51 ) ;
#180 = VECTOR ( 'NONE', #91, 1000.000000000000000 ) ;
#181 = CARTESIAN_POINT ( 'NONE',  ( -198.4000000000000909, 0.000000000000000000, -9.999999999999953815 ) ) ;
#182 = DIRECTION ( 'NONE',  ( 0.000000000000000000, 0.000000000000000000, 1.000000000000000000 ) ) ;
#183 = DIRECTION ( 'NONE',  ( -0.000000000000000000, -1.000000000000000000, -0.000000000000000000 ) ) ;
#184 = CARTESIAN_POINT ( 'NONE',  ( -238.4000000000000625, 20.00000000000000000, -155.0000000000000568 ) ) ;
#185 = DIRECTION ( 'NONE',  ( -0.000000000000000000, -1.000000000000000000, -0.000000000000000000 ) ) ;
#186 = ORIENTED_EDGE ( 'NONE', *, *, #240, .T. ) ;
#187 = CC_DESIGN_PERSON_AND_ORGANIZATION_ASSIGNMENT ( #106, #222, ( #62 ) ) ;
#188 = CC_DESIGN_APPROVAL ( #256, ( #332 ) ) ;
#189 = CARTESIAN_POINT ( 'NONE',  ( -238.4000000000000057, 20.00000000000000000, -10.00000000000003908 ) ) ;
#190 = ORIENTED_EDGE ( 'NONE', *, *, #315, .T. ) ;
#191 = CARTESIAN_POINT ( 'NONE',  ( -218.4000000000000625, 20.00000000000000000, -155.0000000000000853 ) ) ;
#192 = ORIENTED_EDGE ( 'NONE', *, *, #66, .T. ) ;
#193 = EDGE_CURVE ( 'NONE', #23, #50, #100, .T. ) ;
#194 = APPLICATION_PROTOCOL_DEFINITION ( 'international standard', 'config_control_design', 1994, #144 ) ;
#195 = DESIGN_CONTEXT ( 'detailed design', #144, 'design' ) ;
#196 = APPROVAL_PERSON_ORGANIZATION ( #253, #348, #230 ) ;
#197 = VERTEX_POINT ( 'NONE', #245 ) ;
#198 = ORIENTED_EDGE ( 'NONE', *, *, #39, .F. ) ;
#199 = PERSON_AND_ORGANIZATION ( #164, #357 ) ;
#200 = ORIENTED_EDGE ( 'NONE', *, *, #315, .F. ) ;
#201 = APPLICATION_CONTEXT ( 'configuration controlled 3d designs of mechanical parts and assemblies' ) ;
#202 = DATE_TIME_ROLE ( 'creation_date' ) ;
#203 = ORIENTED_EDGE ( 'NONE', *, *, #133, .T. ) ;
#204 = ORIENTED_EDGE ( 'NONE', *, *, #17, .T. ) ;
#205 = FACE_OUTER_BOUND ( 'NONE', #139, .T. ) ;
#206 = EDGE_CURVE ( 'NONE', #279, #301, #302, .T. ) ;
#207 = DIRECTION ( 'NONE',  ( 0.000000000000000000, 0.000000000000000000, -1.000000000000000000 ) ) ;
#208 = LINE ( 'NONE', #265, #257 ) ;
#209 = DIRECTION ( 'NONE',  ( 0.000000000000000000, 0.000000000000000000, -1.000000000000000000 ) ) ;
#210 = DIRECTION ( 'NONE',  ( -0.000000000000000000, 1.000000000000000000, -0.000000000000000000 ) ) ;
#211 = ADVANCED_FACE ( 'NONE', ( #161 ), #18, .F. ) ;
#212 = CARTESIAN_POINT ( 'NONE',  ( -218.4000000000000625, 20.00000000000000000, -155.0000000000000853 ) ) ;
#213 =( GEOMETRIC_REPRESENTATION_CONTEXT ( 3 ) GLOBAL_UNCERTAINTY_ASSIGNED_CONTEXT ( ( #104 ) ) GLOBAL_UNIT_ASSIGNED_CONTEXT ( ( #339, #333, #78 ) ) REPRESENTATION_CONTEXT ( 'NONE', 'WORKASPACE' ) );
#214 = PRODUCT ( 'Link3RightLShape_Default_sldprt', 'Link3RightLShape_Default_sldprt', '', ( #280 ) ) ;
#215 = DIRECTION ( 'NONE',  ( 1.387778780781446662E-15, -0.000000000000000000, 1.000000000000000000 ) ) ;
#216 = CARTESIAN_POINT ( 'NONE',  ( -218.4000000000000909, 20.00000000000000000, -9.999999999999948486 ) ) ;
#217 = DIRECTION ( 'NONE',  ( 1.914177628664061403E-16, -0.000000000000000000, -1.000000000000000000 ) ) ;
#218 = DIRECTION ( 'NONE',  ( -1.914177628664061403E-16, 0.000000000000000000, 1.000000000000000000 ) ) ;
#219 = EDGE_LOOP ( 'NONE', ( #366, #69, #44, #363 ) ) ;
#220 = PERSON_AND_ORGANIZATION_ROLE ( 'design_supplier' ) ;
#221 = ORIENTED_EDGE ( 'NONE', *, *, #71, .T. ) ;
#222 = PERSON_AND_ORGANIZATION_ROLE ( 'classification_officer' ) ;
#223 = VECTOR ( 'NONE', #126, 1000.000000000000000 ) ;
#224 = ORIENTED_EDGE ( 'NONE', *, *, #193, .T. ) ;
#225 = CARTESIAN_POINT ( 'NONE',  ( -238.4000000000000057, 20.00000000000000000, -10.00000000000003908 ) ) ;
#226 = VERTEX_POINT ( 'NONE', #189 ) ;
#227 = AXIS2_PLACEMENT_3D ( 'NONE', #236, #176, #351 ) ;
#228 = ORIENTED_EDGE ( 'NONE', *, *, #206, .T. ) ;
#229 = EDGE_CURVE ( 'NONE', #27, #83, #128, .T. ) ;
#230 = APPROVAL_ROLE ( '' ) ;
#231 = ORIENTED_EDGE ( 'NONE', *, *, #364, .T. ) ;
#232 = DIRECTION ( 'NONE',  ( 2.037426901315041899E-16, 0.000000000000000000, -1.000000000000000000 ) ) ;
#233 = EDGE_CURVE ( 'NONE', #226, #279, #273, .T. ) ;
#234 = LINE ( 'NONE', #34, #157 ) ;
#235 = CALENDAR_DATE ( 2026, 23, 7 ) ;
#236 = CARTESIAN_POINT ( 'NONE',  ( -238.4000000000000057, 20.00000000000000000, 9.999999999999952038 ) ) ;
#237 = LINE ( 'NONE', #264, #15 ) ;
#238 = LOCAL_TIME ( 16, 5, 6.000000000000000000, #47 ) ;
#239 = CARTESIAN_POINT ( 'NONE',  ( 0.000000000000000000, 0.000000000000000000, 10.00000000000000000 ) ) ;
#240 = EDGE_CURVE ( 'NONE', #50, #53, #96, .T. ) ;
#241 = FACE_OUTER_BOUND ( 'NONE', #284, .T. ) ;
#242 = VECTOR ( 'NONE', #72, 1000.000000000000000 ) ;
#243 = DIRECTION ( 'NONE',  ( 0.000000000000000000, 0.000000000000000000, -1.000000000000000000 ) ) ;
#244 = ADVANCED_FACE ( 'NONE', ( #241 ), #361, .F. ) ;
#245 = CARTESIAN_POINT ( 'NONE',  ( 0.000000000000000000, 0.000000000000000000, -10.00000000000000000 ) ) ;
#246 = CLOSED_SHELL ( 'NONE', ( #177, #282, #252, #244, #6, #102, #211, #21, #297, #108 ) ) ;
#247 = LINE ( 'NONE', #359, #262 ) ;
#248 = PRODUCT_DEFINITION_SHAPE ( 'NONE', 'NONE',  #332 ) ;
#249 = DIRECTION ( 'NONE',  ( -1.000000000000000000, -0.000000000000000000, 2.382861917550558372E-16 ) ) ;
#250 = PERSON_AND_ORGANIZATION ( #164, #357 ) ;
#251 = ORIENTED_EDGE ( 'NONE', *, *, #206, .F. ) ;
#252 = ADVANCED_FACE ( 'NONE', ( #298 ), #325, .F. ) ;
#253 = PERSON_AND_ORGANIZATION ( #164, #357 ) ;
#254 = COORDINATED_UNIVERSAL_TIME_OFFSET ( 3, 30, .AHEAD. ) ;
#255 = ORIENTED_EDGE ( 'NONE', *, *, #322, .F. ) ;
#256 = APPROVAL ( #113, 'UNSPECIFIED' ) ;
#257 = VECTOR ( 'NONE', #261, 1000.000000000000000 ) ;
#258 = ORIENTED_EDGE ( 'NONE', *, *, #322, .T. ) ;
#259 = LINE ( 'NONE', #225, #289 ) ;
#260 = ORIENTED_EDGE ( 'NONE', *, *, #94, .F. ) ;
#261 = DIRECTION ( 'NONE',  ( -1.000000000000000000, -0.000000000000000000, 2.382861917550558372E-16 ) ) ;
#262 = VECTOR ( 'NONE', #217, 1000.000000000000000 ) ;
#263 = PLANE ( 'NONE',  #227 ) ;
#264 = CARTESIAN_POINT ( 'NONE',  ( -198.4000000000000909, 20.00000000000000000, -9.999999999999953815 ) ) ;
#265 = CARTESIAN_POINT ( 'NONE',  ( -218.4000000000000909, 0.000000000000000000, -9.999999999999948486 ) ) ;
#266 = CARTESIAN_POINT ( 'NONE',  ( -218.4000000000000625, 20.00000000000000000, -155.0000000000000853 ) ) ;
#267 = FACE_OUTER_BOUND ( 'NONE', #219, .T. ) ;
#268 = CARTESIAN_POINT ( 'NONE',  ( -218.4000000000000909, 20.00000000000000000, -9.999999999999948486 ) ) ;
#269 = CC_DESIGN_PERSON_AND_ORGANIZATION_ASSIGNMENT ( #103, #310, ( #332 ) ) ;
#270 = CARTESIAN_POINT ( 'NONE',  ( 0.000000000000000000, 0.000000000000000000, -10.00000000000000000 ) ) ;
#271 = ORIENTED_EDGE ( 'NONE', *, *, #54, .T. ) ;
#272 = AXIS2_PLACEMENT_3D ( 'NONE', #86, #232, #59 ) ;
#273 = CIRCLE ( 'NONE', #16, 20.00000000000000355 ) ;
#274 = CARTESIAN_POINT ( 'NONE',  ( 0.000000000000000000, 20.00000000000000000, -10.00000000000000000 ) ) ;
#275 = CARTESIAN_POINT ( 'NONE',  ( 0.000000000000000000, 20.00000000000000000, -10.00000000000000000 ) ) ;
#276 = APPROVAL_PERSON_ORGANIZATION ( #4, #352, #7 ) ;
#277 = EDGE_CURVE ( 'NONE', #26, #314, #97, .T. ) ;
#278 = SECURITY_CLASSIFICATION_LEVEL ( 'unclassified' ) ;
#279 = VERTEX_POINT ( 'NONE', #154 ) ;
#280 = MECHANICAL_CONTEXT ( 'NONE', #201, 'mechanical' ) ;
#281 = ORIENTED_EDGE ( 'NONE', *, *, #94, .T. ) ;
#282 = ADVANCED_FACE ( 'NONE', ( #127 ), #155, .F. ) ;
#283 = DATE_AND_TIME ( #43, #238 ) ;
#284 = EDGE_LOOP ( 'NONE', ( #73, #107, #114, #1 ) ) ;
#285 = APPLICATION_PROTOCOL_DEFINITION ( 'international standard', 'config_control_design', 1994, #201 ) ;
#286 = ORIENTED_EDGE ( 'NONE', *, *, #54, .F. ) ;
#287 = CYLINDRICAL_SURFACE ( 'NONE', #89, 20.00000000000000000 ) ;
#288 = LOCAL_TIME ( 16, 5, 6.000000000000000000, #141 ) ;
#289 = VECTOR ( 'NONE', #45, 1000.000000000000000 ) ;
#290 = VECTOR ( 'NONE', #9, 1000.000000000000000 ) ;
#291 = FACE_OUTER_BOUND ( 'NONE', #46, .T. ) ;
#292 = AXIS2_PLACEMENT_3D ( 'NONE', #5, #117, #207 ) ;
#293 = CARTESIAN_POINT ( 'NONE',  ( -198.4000000000000909, 20.00000000000000000, -29.99999999999994316 ) ) ;
#294 = LINE ( 'NONE', #90, #290 ) ;
#295 = LINE ( 'NONE', #142, #125 ) ;
#296 = DIRECTION ( 'NONE',  ( 0.000000000000000000, 0.000000000000000000, 1.000000000000000000 ) ) ;
#297 = ADVANCED_FACE ( 'NONE', ( #124 ), #67, .T. ) ;
#298 = FACE_OUTER_BOUND ( 'NONE', #373, .T. ) ;
#299 = AXIS2_PLACEMENT_3D ( 'NONE', #111, #330, #372 ) ;
#300 = CARTESIAN_POINT ( 'NONE',  ( -218.4000000000000057, 0.000000000000000000, 9.999999999999955591 ) ) ;
#301 = VERTEX_POINT ( 'NONE', #300 ) ;
#302 = LINE ( 'NONE', #70, #319 ) ;
#303 = DIRECTION ( 'NONE',  ( 1.000000000000000000, 0.000000000000000000, 0.000000000000000000 ) ) ;
#304 = VERTEX_POINT ( 'NONE', #324 ) ;
#305 = LINE ( 'NONE', #130, #242 ) ;
#306 = ORIENTED_EDGE ( 'NONE', *, *, #364, .F. ) ;
#307 = EDGE_CURVE ( 'NONE', #105, #197, #156, .T. ) ;
#308 = PERSON_AND_ORGANIZATION_ROLE ( 'design_owner' ) ;
#309 = ORIENTED_EDGE ( 'NONE', *, *, #66, .F. ) ;
#310 = PERSON_AND_ORGANIZATION_ROLE ( 'creator' ) ;
#311 = VECTOR ( 'NONE', #36, 1000.000000000000000 ) ;
#312 = ORIENTED_EDGE ( 'NONE', *, *, #61, .F. ) ;
#313 = CALENDAR_DATE ( 2026, 23, 7 ) ;
#314 = VERTEX_POINT ( 'NONE', #159 ) ;
#315 = EDGE_CURVE ( 'NONE', #304, #314, #247, .T. ) ;
#316 = LINE ( 'NONE', #266, #58 ) ;
#317 = LINE ( 'NONE', #65, #336 ) ;
#318 = CARTESIAN_POINT ( 'NONE',  ( -238.4000000000000625, 0.000000000000000000, -155.0000000000000568 ) ) ;
#319 = VECTOR ( 'NONE', #122, 1000.000000000000000 ) ;
#320 = DIRECTION ( 'NONE',  ( 0.000000000000000000, -0.000000000000000000, -1.000000000000000000 ) ) ;
#321 = FACE_OUTER_BOUND ( 'NONE', #168, .T. ) ;
#322 = EDGE_CURVE ( 'NONE', #83, #110, #327, .T. ) ;
#323 = DIRECTION ( 'NONE',  ( 0.000000000000000000, 1.000000000000000000, -0.000000000000000000 ) ) ;
#324 = CARTESIAN_POINT ( 'NONE',  ( -218.4000000000000909, 0.000000000000000000, -29.99999999999994316 ) ) ;
#325 = PLANE ( 'NONE',  #165 ) ;
#326 = CC_DESIGN_APPROVAL ( #352, ( #62 ) ) ;
#327 = LINE ( 'NONE', #68, #354 ) ;
#328 = DIRECTION ( 'NONE',  ( 0.000000000000000000, 0.000000000000000000, -1.000000000000000000 ) ) ;
#329 = EDGE_LOOP ( 'NONE', ( #28, #79, #306, #251 ) ) ;
#330 = DIRECTION ( 'NONE',  ( -0.000000000000000000, -1.000000000000000000, 0.000000000000000000 ) ) ;
#331 = ORIENTED_EDGE ( 'NONE', *, *, #71, .F. ) ;
#332 = PRODUCT_DEFINITION ( 'UNKNOWN', '', #29, #195 ) ;
#333 =( NAMED_UNIT ( * ) PLANE_ANGLE_UNIT ( ) SI_UNIT ( $, .RADIAN. ) );
#334 = ORIENTED_EDGE ( 'NONE', *, *, #167, .F. ) ;
#335 = VECTOR ( 'NONE', #152, 1000.000000000000000 ) ;
#336 = VECTOR ( 'NONE', #185, 1000.000000000000000 ) ;
#337 = DIRECTION ( 'NONE',  ( 0.000000000000000000, 0.000000000000000000, 1.000000000000000000 ) ) ;
#338 = ORIENTED_EDGE ( 'NONE', *, *, #307, .F. ) ;
#339 =( LENGTH_UNIT ( ) NAMED_UNIT ( * ) SI_UNIT ( .MILLI., .METRE. ) );
#340 = ORIENTED_EDGE ( 'NONE', *, *, #277, .F. ) ;
#341 = APPROVAL_DATE_TIME ( #162, #348 ) ;
#342 = ORIENTED_EDGE ( 'NONE', *, *, #123, .F. ) ;
#343 = EDGE_CURVE ( 'NONE', #50, #197, #305, .T. ) ;
#344 = FACE_OUTER_BOUND ( 'NONE', #48, .T. ) ;
#345 = SHAPE_DEFINITION_REPRESENTATION ( #248, #84 ) ;
#346 = DIRECTION ( 'NONE',  ( 1.914177628664061403E-16, -0.000000000000000000, -1.000000000000000000 ) ) ;
#347 = DATE_AND_TIME ( #313, #115 ) ;
#348 = APPROVAL ( #25, 'UNSPECIFIED' ) ;
#349 = CARTESIAN_POINT ( 'NONE',  ( -238.4000000000000057, 0.000000000000000000, -10.00000000000003908 ) ) ;
#350 = LINE ( 'NONE', #120, #335 ) ;
#351 = DIRECTION ( 'NONE',  ( -3.364312195833807668E-16, 0.000000000000000000, -1.000000000000000000 ) ) ;
#352 = APPROVAL ( #173, 'UNSPECIFIED' ) ;
#353 = DIRECTION ( 'NONE',  ( 1.000000000000000000, 0.000000000000000000, -1.387778780781446662E-15 ) ) ;
#354 = VECTOR ( 'NONE', #20, 1000.000000000000000 ) ;
#355 = DIRECTION ( 'NONE',  ( -1.000000000000000000, 0.000000000000000000, 0.000000000000000000 ) ) ;
#356 = VECTOR ( 'NONE', #11, 1000.000000000000000 ) ;
#357 = ORGANIZATION ( 'UNSPECIFIED', 'UNSPECIFIED', '' ) ;
#358 = DIRECTION ( 'NONE',  ( 1.000000000000000000, 0.000000000000000000, -2.382861917550558372E-16 ) ) ;
#359 = CARTESIAN_POINT ( 'NONE',  ( -218.4000000000000625, 0.000000000000000000, -155.0000000000000853 ) ) ;
#360 = EDGE_CURVE ( 'NONE', #110, #226, #259, .T. ) ;
#361 = PLANE ( 'NONE',  #371 ) ;
#362 = CARTESIAN_POINT ( 'NONE',  ( 0.000000000000000000, 0.000000000000000000, 0.000000000000000000 ) ) ;
#363 = ORIENTED_EDGE ( 'NONE', *, *, #172, .T. ) ;
#364 = EDGE_CURVE ( 'NONE', #301, #110, #56, .T. ) ;
#365 = CALENDAR_DATE ( 2026, 23, 7 ) ;
#366 = ORIENTED_EDGE ( 'NONE', *, *, #307, .T. ) ;
#367 = CALENDAR_DATE ( 2026, 23, 7 ) ;
#368 = CC_DESIGN_SECURITY_CLASSIFICATION ( #62, ( #29 ) ) ;
#369 = VERTEX_POINT ( 'NONE', #49 ) ;
#370 = APPROVAL_PERSON_ORGANIZATION ( #138, #256, #109 ) ;
#371 = AXIS2_PLACEMENT_3D ( 'NONE', #184, #215, #353 ) ;
#372 = DIRECTION ( 'NONE',  ( 0.000000000000000000, 0.000000000000000000, -1.000000000000000000 ) ) ;
#373 = EDGE_LOOP ( 'NONE', ( #260, #166, #190, #340 ) ) ;
ENDSEC;
END-ISO-10303-21;
