ISO-10303-21;
HEADER;
FILE_DESCRIPTION (( 'STEP AP203' ),
    '1' );
FILE_NAME ('Link1RightLShape_Default_sldprt.STEP',
    '2026-07-31T10:18:51',
    ( '' ),
    ( '' ),
    'SwSTEP 2.0',
    'SolidWorks 2025',
    '' );
FILE_SCHEMA (( 'CONFIG_CONTROL_DESIGN' ));
ENDSEC;

DATA;
#1 = PERSON_AND_ORGANIZATION ( #359, #261 ) ;
#2 = CC_DESIGN_PERSON_AND_ORGANIZATION_ASSIGNMENT ( #1, #258, ( #254 ) ) ;
#3 = LINE ( 'NONE', #114, #14 ) ;
#4 = EDGE_CURVE ( 'NONE', #137, #200, #146, .T. ) ;
#5 = VECTOR ( 'NONE', #288, 1000.000000000000000 ) ;
#6 = CARTESIAN_POINT ( 'NONE',  ( -218.4000000000000057, 0.000000000000000000, 9.999999999999955591 ) ) ;
#7 = PERSON_AND_ORGANIZATION ( #359, #261 ) ;
#8 = EDGE_CURVE ( 'NONE', #79, #252, #234, .T. ) ;
#9 = VECTOR ( 'NONE', #199, 1000.000000000000000 ) ;
#10 = CARTESIAN_POINT ( 'NONE',  ( 0.000000000000000000, 20.00000000000000000, 0.000000000000000000 ) ) ;
#11 = EDGE_CURVE ( 'NONE', #137, #224, #285, .T. ) ;
#12 = PERSON_AND_ORGANIZATION_ROLE ( 'design_supplier' ) ;
#13 = CARTESIAN_POINT ( 'NONE',  ( -218.4000000000000909, 0.000000000000000000, -9.999999999999948486 ) ) ;
#14 = VECTOR ( 'NONE', #117, 1000.000000000000000 ) ;
#15 = DIRECTION ( 'NONE',  ( 1.000000000000000000, -0.000000000000000000, 2.037426901315041899E-16 ) ) ;
#16 = ORIENTED_EDGE ( 'NONE', *, *, #334, .T. ) ;
#17 = DIRECTION ( 'NONE',  ( 0.000000000000000000, 0.000000000000000000, -1.000000000000000000 ) ) ;
#18 = EDGE_LOOP ( 'NONE', ( #21, #247, #96, #298 ) ) ;
#19 = CC_DESIGN_DATE_AND_TIME_ASSIGNMENT ( #33, #120, ( #27 ) ) ;
#20 = LINE ( 'NONE', #112, #67 ) ;
#21 = ORIENTED_EDGE ( 'NONE', *, *, #34, .F. ) ;
#22 = AXIS2_PLACEMENT_3D ( 'NONE', #372, #243, #369 ) ;
#23 = AXIS2_PLACEMENT_3D ( 'NONE', #235, #291, #144 ) ;
#24 = VECTOR ( 'NONE', #151, 1000.000000000000000 ) ;
#25 = DIRECTION ( 'NONE',  ( 0.000000000000000000, -0.000000000000000000, -1.000000000000000000 ) ) ;
#26 = VERTEX_POINT ( 'NONE', #123 ) ;
#27 = PRODUCT_DEFINITION ( 'UNKNOWN', '', #77, #130 ) ;
#28 = DIRECTION ( 'NONE',  ( 1.914177628664061403E-16, -0.000000000000000000, -1.000000000000000000 ) ) ;
#29 = EDGE_LOOP ( 'NONE', ( #218, #213, #249, #171 ) ) ;
#30 = EDGE_CURVE ( 'NONE', #252, #26, #176, .T. ) ;
#31 = APPROVAL_STATUS ( 'not_yet_approved' ) ;
#32 = LINE ( 'NONE', #62, #89 ) ;
#33 = DATE_AND_TIME ( #294, #333 ) ;
#34 = EDGE_CURVE ( 'NONE', #49, #287, #68, .T. ) ;
#35 = MANIFOLD_SOLID_BREP ( 'Fillet1', #250 ) ;
#36 = EDGE_CURVE ( 'NONE', #200, #268, #264, .T. ) ;
#37 = CARTESIAN_POINT ( 'NONE',  ( -218.4000000000000625, 0.000000000000000000, -155.0000000000000853 ) ) ;
#38 = ADVANCED_FACE ( 'NONE', ( #354 ), #92, .T. ) ;
#39 = CARTESIAN_POINT ( 'NONE',  ( -238.4000000000000625, 20.00000000000000000, -155.0000000000000568 ) ) ;
#40 = DIRECTION ( 'NONE',  ( -0.000000000000000000, -1.000000000000000000, 0.000000000000000000 ) ) ;
#41 = ORIENTED_EDGE ( 'NONE', *, *, #371, .T. ) ;
#42 = APPROVAL_DATE_TIME ( #272, #263 ) ;
#43 = VECTOR ( 'NONE', #329, 1000.000000000000000 ) ;
#44 = EDGE_CURVE ( 'NONE', #277, #49, #55, .T. ) ;
#45 = DIRECTION ( 'NONE',  ( -1.914177628664061403E-16, 0.000000000000000000, 1.000000000000000000 ) ) ;
#46 = ORIENTED_EDGE ( 'NONE', *, *, #322, .T. ) ;
#47 = EDGE_CURVE ( 'NONE', #202, #76, #3, .T. ) ;
#48 = LINE ( 'NONE', #141, #318 ) ;
#49 = VERTEX_POINT ( 'NONE', #231 ) ;
#50 = PLANE ( 'NONE',  #305 ) ;
#51 = EDGE_LOOP ( 'NONE', ( #311, #194, #82, #216, #281, #188, #315, #53 ) ) ;
#52 = FACE_OUTER_BOUND ( 'NONE', #29, .T. ) ;
#53 = ORIENTED_EDGE ( 'NONE', *, *, #47, .T. ) ;
#54 = AXIS2_PLACEMENT_3D ( 'NONE', #136, #339, #17 ) ;
#55 = LINE ( 'NONE', #230, #182 ) ;
#56 = DIRECTION ( 'NONE',  ( 1.387778780781446662E-15, -0.000000000000000000, 1.000000000000000000 ) ) ;
#57 = ORIENTED_EDGE ( 'NONE', *, *, #71, .F. ) ;
#58 = CARTESIAN_POINT ( 'NONE',  ( -198.4000000000000909, 20.00000000000000000, -29.99999999999994316 ) ) ;
#59 = FACE_OUTER_BOUND ( 'NONE', #111, .T. ) ;
#60 = ORIENTED_EDGE ( 'NONE', *, *, #36, .F. ) ;
#61 = VECTOR ( 'NONE', #115, 1000.000000000000000 ) ;
#62 = CARTESIAN_POINT ( 'NONE',  ( -218.4000000000000625, 0.000000000000000000, -155.0000000000000853 ) ) ;
#63 =( NAMED_UNIT ( * ) SI_UNIT ( $, .STERADIAN. ) SOLID_ANGLE_UNIT ( ) );
#64 = EDGE_CURVE ( 'NONE', #196, #277, #320, .T. ) ;
#65 = DIRECTION ( 'NONE',  ( 0.000000000000000000, 0.000000000000000000, 1.000000000000000000 ) ) ;
#66 = CC_DESIGN_PERSON_AND_ORGANIZATION_ASSIGNMENT ( #209, #12, ( #77 ) ) ;
#67 = VECTOR ( 'NONE', #102, 1000.000000000000000 ) ;
#68 = CIRCLE ( 'NONE', #165, 20.00000000000000355 ) ;
#69 = DATE_AND_TIME ( #121, #101 ) ;
#70 = FACE_OUTER_BOUND ( 'NONE', #338, .T. ) ;
#71 = EDGE_CURVE ( 'NONE', #200, #79, #99, .T. ) ;
#72 = LINE ( 'NONE', #303, #241 ) ;
#73 = ORIENTED_EDGE ( 'NONE', *, *, #81, .T. ) ;
#74 = APPROVAL ( #242, 'UNSPECIFIED' ) ;
#75 = CARTESIAN_POINT ( 'NONE',  ( 0.000000000000000000, 20.00000000000000000, 10.00000000000000000 ) ) ;
#76 = VERTEX_POINT ( 'NONE', #39 ) ;
#77 = PRODUCT_DEFINITION_FORMATION_WITH_SPECIFIED_SOURCE ( 'ANY', '', #254, .NOT_KNOWN. ) ;
#78 = FACE_OUTER_BOUND ( 'NONE', #327, .T. ) ;
#79 = VERTEX_POINT ( 'NONE', #152 ) ;
#80 = CARTESIAN_POINT ( 'NONE',  ( -198.4000000000000909, 0.000000000000000000, -9.999999999999953815 ) ) ;
#81 = EDGE_CURVE ( 'NONE', #268, #198, #154, .T. ) ;
#82 = ORIENTED_EDGE ( 'NONE', *, *, #265, .T. ) ;
#83 = DIRECTION ( 'NONE',  ( -3.364312195833807668E-16, 0.000000000000000000, -1.000000000000000000 ) ) ;
#84 = ORIENTED_EDGE ( 'NONE', *, *, #228, .F. ) ;
#85 = AXIS2_PLACEMENT_3D ( 'NONE', #118, #232, #91 ) ;
#86 = CALENDAR_DATE ( 2026, 31, 7 ) ;
#87 = EDGE_CURVE ( 'NONE', #76, #49, #162, .T. ) ;
#88 = APPROVAL_ROLE ( '' ) ;
#89 = VECTOR ( 'NONE', #180, 1000.000000000000000 ) ;
#90 = APPROVAL_ROLE ( '' ) ;
#91 = DIRECTION ( 'NONE',  ( 1.000000000000000000, 0.000000000000000000, 0.000000000000000000 ) ) ;
#92 = CYLINDRICAL_SURFACE ( 'NONE', #192, 20.00000000000000355 ) ;
#93 = COORDINATED_UNIVERSAL_TIME_OFFSET ( 3, 30, .AHEAD. ) ;
#94 = AXIS2_PLACEMENT_3D ( 'NONE', #310, #225, #45 ) ;
#95 = LOCAL_TIME ( 13, 48, 51.00000000000000000, #93 ) ;
#96 = ORIENTED_EDGE ( 'NONE', *, *, #312, .F. ) ;
#97 = ADVANCED_FACE ( 'NONE', ( #266 ), #214, .F. ) ;
#98 = AXIS2_PLACEMENT_3D ( 'NONE', #193, #56, #177 ) ;
#99 = LINE ( 'NONE', #331, #356 ) ;
#100 = EDGE_CURVE ( 'NONE', #344, #196, #125, .T. ) ;
#101 = LOCAL_TIME ( 13, 48, 51.00000000000000000, #270 ) ;
#102 = DIRECTION ( 'NONE',  ( -0.000000000000000000, -1.000000000000000000, -0.000000000000000000 ) ) ;
#103 = ORIENTED_EDGE ( 'NONE', *, *, #292, .F. ) ;
#104 = FACE_OUTER_BOUND ( 'NONE', #164, .T. ) ;
#105 = ORIENTED_EDGE ( 'NONE', *, *, #11, .F. ) ;
#106 = CARTESIAN_POINT ( 'NONE',  ( 0.000000000000000000, 0.000000000000000000, 0.000000000000000000 ) ) ;
#107 = ORIENTED_EDGE ( 'NONE', *, *, #64, .F. ) ;
#108 = VECTOR ( 'NONE', #212, 1000.000000000000000 ) ;
#109 = AXIS2_PLACEMENT_3D ( 'NONE', #260, #256, #65 ) ;
#110 = DIRECTION ( 'NONE',  ( 2.037426901315041899E-16, 0.000000000000000000, -1.000000000000000000 ) ) ;
#111 = EDGE_LOOP ( 'NONE', ( #284, #340, #103, #226 ) ) ;
#112 = CARTESIAN_POINT ( 'NONE',  ( -238.4000000000000625, 20.00000000000000000, -155.0000000000000568 ) ) ;
#113 = ORIENTED_EDGE ( 'NONE', *, *, #100, .F. ) ;
#114 = CARTESIAN_POINT ( 'NONE',  ( -238.4000000000000625, 20.00000000000000000, -155.0000000000000568 ) ) ;
#115 = DIRECTION ( 'NONE',  ( -0.000000000000000000, 1.000000000000000000, -0.000000000000000000 ) ) ;
#116 = UNCERTAINTY_MEASURE_WITH_UNIT (LENGTH_MEASURE( 1.000000000000000082E-05 ), #233, 'distance_accuracy_value', 'NONE');
#117 = DIRECTION ( 'NONE',  ( -1.000000000000000000, -0.000000000000000000, 1.387778780781446464E-15 ) ) ;
#118 = CARTESIAN_POINT ( 'NONE',  ( 0.000000000000000000, 0.000000000000000000, 0.000000000000000000 ) ) ;
#119 = CC_DESIGN_APPROVAL ( #219, ( #27 ) ) ;
#120 = DATE_TIME_ROLE ( 'creation_date' ) ;
#121 = CALENDAR_DATE ( 2026, 31, 7 ) ;
#122 = DIRECTION ( 'NONE',  ( 0.000000000000000000, -1.000000000000000000, 0.000000000000000000 ) ) ;
#123 = CARTESIAN_POINT ( 'NONE',  ( -218.4000000000000909, 0.000000000000000000, -29.99999999999994316 ) ) ;
#124 = CC_DESIGN_SECURITY_CLASSIFICATION ( #299, ( #77 ) ) ;
#125 = LINE ( 'NONE', #360, #352 ) ;
#126 = DATE_TIME_ROLE ( 'classification_date' ) ;
#127 = PERSON_AND_ORGANIZATION_ROLE ( 'classification_officer' ) ;
#128 = AXIS2_PLACEMENT_3D ( 'NONE', #58, #40, #348 ) ;
#129 = ADVANCED_FACE ( 'NONE', ( #70 ), #158, .F. ) ;
#130 = DESIGN_CONTEXT ( 'detailed design', #262, 'design' ) ;
#131 = CARTESIAN_POINT ( 'NONE',  ( 0.000000000000000000, 0.000000000000000000, -10.00000000000000000 ) ) ;
#132 = ORIENTED_EDGE ( 'NONE', *, *, #322, .F. ) ;
#133 = PRODUCT_RELATED_PRODUCT_CATEGORY ( 'detail', '', ( #254 ) ) ;
#134 = FACE_OUTER_BOUND ( 'NONE', #307, .T. ) ;
#135 = ORIENTED_EDGE ( 'NONE', *, *, #161, .F. ) ;
#136 = CARTESIAN_POINT ( 'NONE',  ( -198.4000000000000909, 0.000000000000000000, -29.99999999999994316 ) ) ;
#137 = VERTEX_POINT ( 'NONE', #75 ) ;
#138 =( GEOMETRIC_REPRESENTATION_CONTEXT ( 3 ) GLOBAL_UNCERTAINTY_ASSIGNED_CONTEXT ( ( #116 ) ) GLOBAL_UNIT_ASSIGNED_CONTEXT ( ( #233, #147, #63 ) ) REPRESENTATION_CONTEXT ( 'NONE', 'WORKASPACE' ) );
#139 = PLANE ( 'NONE',  #98 ) ;
#140 = ORIENTED_EDGE ( 'NONE', *, *, #292, .T. ) ;
#141 = CARTESIAN_POINT ( 'NONE',  ( -218.4000000000000625, 20.00000000000000000, -155.0000000000000853 ) ) ;
#142 = ORIENTED_EDGE ( 'NONE', *, *, #240, .T. ) ;
#143 = ORIENTED_EDGE ( 'NONE', *, *, #149, .T. ) ;
#144 = DIRECTION ( 'NONE',  ( 0.000000000000000000, 0.000000000000000000, -1.000000000000000000 ) ) ;
#145 = APPROVAL_PERSON_ORGANIZATION ( #189, #74, #296 ) ;
#146 = LINE ( 'NONE', #316, #24 ) ;
#147 =( NAMED_UNIT ( * ) PLANE_ANGLE_UNIT ( ) SI_UNIT ( $, .RADIAN. ) );
#148 = CYLINDRICAL_SURFACE ( 'NONE', #109, 20.00000000000000000 ) ;
#149 = EDGE_CURVE ( 'NONE', #224, #268, #308, .T. ) ;
#150 = LINE ( 'NONE', #317, #61 ) ;
#151 = DIRECTION ( 'NONE',  ( -0.000000000000000000, -0.000000000000000000, -1.000000000000000000 ) ) ;
#152 = CARTESIAN_POINT ( 'NONE',  ( -198.4000000000000909, 20.00000000000000000, -9.999999999999953815 ) ) ;
#153 = DIRECTION ( 'NONE',  ( 0.000000000000000000, 0.000000000000000000, -1.000000000000000000 ) ) ;
#154 = LINE ( 'NONE', #13, #43 ) ;
#155 = ORIENTED_EDGE ( 'NONE', *, *, #11, .T. ) ;
#156 = DATE_AND_TIME ( #330, #95 ) ;
#157 = APPROVAL_PERSON_ORGANIZATION ( #7, #263, #90 ) ;
#158 = PLANE ( 'NONE',  #22 ) ;
#159 = ADVANCED_BREP_SHAPE_REPRESENTATION ( 'Link1RightLShape_Default_sldprt', ( #35, #85 ), #138 ) ;
#160 = PERSON_AND_ORGANIZATION_ROLE ( 'creator' ) ;
#161 = EDGE_CURVE ( 'NONE', #76, #196, #20, .T. ) ;
#162 = LINE ( 'NONE', #301, #314 ) ;
#163 = PLANE ( 'NONE',  #94 ) ;
#164 = EDGE_LOOP ( 'NONE', ( #178, #135, #336, #142 ) ) ;
#165 = AXIS2_PLACEMENT_3D ( 'NONE', #205, #297, #153 ) ;
#166 = FACE_OUTER_BOUND ( 'NONE', #367, .T. ) ;
#167 = EDGE_CURVE ( 'NONE', #287, #373, #251, .T. ) ;
#168 = ORIENTED_EDGE ( 'NONE', *, *, #371, .F. ) ;
#169 = ADVANCED_FACE ( 'NONE', ( #282 ), #163, .F. ) ;
#170 = CARTESIAN_POINT ( 'NONE',  ( -218.4000000000000057, 20.00000000000000000, 9.999999999999955591 ) ) ;
#171 = ORIENTED_EDGE ( 'NONE', *, *, #161, .T. ) ;
#172 = DIRECTION ( 'NONE',  ( 0.000000000000000000, -1.000000000000000000, 0.000000000000000000 ) ) ;
#173 = ORIENTED_EDGE ( 'NONE', *, *, #4, .F. ) ;
#174 = LOCAL_TIME ( 13, 48, 51.00000000000000000, #323 ) ;
#175 = ADVANCED_FACE ( 'NONE', ( #52 ), #341, .F. ) ;
#176 = LINE ( 'NONE', #187, #346 ) ;
#177 = DIRECTION ( 'NONE',  ( 1.000000000000000000, 0.000000000000000000, -1.387778780781446662E-15 ) ) ;
#178 = ORIENTED_EDGE ( 'NONE', *, *, #100, .T. ) ;
#179 = DIRECTION ( 'NONE',  ( -0.000000000000000000, -1.000000000000000000, -0.000000000000000000 ) ) ;
#180 = DIRECTION ( 'NONE',  ( 1.914177628664061403E-16, -0.000000000000000000, -1.000000000000000000 ) ) ;
#181 = CARTESIAN_POINT ( 'NONE',  ( 0.000000000000000000, 20.00000000000000000, 10.00000000000000000 ) ) ;
#182 = VECTOR ( 'NONE', #253, 1000.000000000000000 ) ;
#183 = COORDINATED_UNIVERSAL_TIME_OFFSET ( 3, 30, .AHEAD. ) ;
#184 = MECHANICAL_CONTEXT ( 'NONE', #324, 'mechanical' ) ;
#185 = ADVANCED_FACE ( 'NONE', ( #134 ), #50, .T. ) ;
#186 = CALENDAR_DATE ( 2026, 31, 7 ) ;
#187 = CARTESIAN_POINT ( 'NONE',  ( -218.4000000000000909, 0.000000000000000000, -29.99999999999994671 ) ) ;
#188 = ORIENTED_EDGE ( 'NONE', *, *, #8, .T. ) ;
#189 = PERSON_AND_ORGANIZATION ( #359, #261 ) ;
#190 = DIRECTION ( 'NONE',  ( -1.000000000000000000, -0.000000000000000000, 1.387778780781446464E-15 ) ) ;
#191 = DIRECTION ( 'NONE',  ( -1.000000000000000000, -0.000000000000000000, 2.382861917550558372E-16 ) ) ;
#192 = AXIS2_PLACEMENT_3D ( 'NONE', #239, #290, #358 ) ;
#193 = CARTESIAN_POINT ( 'NONE',  ( -238.4000000000000625, 20.00000000000000000, -155.0000000000000568 ) ) ;
#194 = ORIENTED_EDGE ( 'NONE', *, *, #34, .T. ) ;
#195 = CARTESIAN_POINT ( 'NONE',  ( 0.000000000000000000, 20.00000000000000000, -10.00000000000000000 ) ) ;
#196 = VERTEX_POINT ( 'NONE', #201 ) ;
#197 = CARTESIAN_POINT ( 'NONE',  ( 0.000000000000000000, 20.00000000000000000, 10.00000000000000000 ) ) ;
#198 = VERTEX_POINT ( 'NONE', #80 ) ;
#199 = DIRECTION ( 'NONE',  ( -0.000000000000000000, -0.000000000000000000, -1.000000000000000000 ) ) ;
#200 = VERTEX_POINT ( 'NONE', #195 ) ;
#201 = CARTESIAN_POINT ( 'NONE',  ( -238.4000000000000625, 0.000000000000000000, -155.0000000000000568 ) ) ;
#202 = VERTEX_POINT ( 'NONE', #362 ) ;
#203 = PRODUCT_DEFINITION_SHAPE ( 'NONE', 'NONE',  #27 ) ;
#204 = CARTESIAN_POINT ( 'NONE',  ( 0.000000000000000000, 0.000000000000000000, 10.00000000000000000 ) ) ;
#205 = CARTESIAN_POINT ( 'NONE',  ( -218.4000000000000057, 20.00000000000000000, -10.00000000000004619 ) ) ;
#206 = DATE_AND_TIME ( #186, #321 ) ;
#207 = ADVANCED_FACE ( 'NONE', ( #104 ), #139, .F. ) ;
#208 = COORDINATED_UNIVERSAL_TIME_OFFSET ( 3, 30, .AHEAD. ) ;
#209 = PERSON_AND_ORGANIZATION ( #359, #261 ) ;
#210 = CC_DESIGN_DATE_AND_TIME_ASSIGNMENT ( #156, #126, ( #299 ) ) ;
#211 = SHAPE_DEFINITION_REPRESENTATION ( #203, #159 ) ;
#212 = DIRECTION ( 'NONE',  ( 3.364312195833807668E-16, -0.000000000000000000, 1.000000000000000000 ) ) ;
#213 = ORIENTED_EDGE ( 'NONE', *, *, #44, .T. ) ;
#214 = PLANE ( 'NONE',  #332 ) ;
#215 = DIRECTION ( 'NONE',  ( -0.000000000000000000, -1.000000000000000000, -0.000000000000000000 ) ) ;
#216 = ORIENTED_EDGE ( 'NONE', *, *, #4, .T. ) ;
#217 = PLANE ( 'NONE',  #283 ) ;
#218 = ORIENTED_EDGE ( 'NONE', *, *, #64, .T. ) ;
#219 = APPROVAL ( #31, 'UNSPECIFIED' ) ;
#220 = CARTESIAN_POINT ( 'NONE',  ( -238.4000000000000057, 0.000000000000000000, -10.00000000000003908 ) ) ;
#221 = APPROVAL_PERSON_ORGANIZATION ( #350, #219, #88 ) ;
#222 = ORIENTED_EDGE ( 'NONE', *, *, #149, .F. ) ;
#223 = DIRECTION ( 'NONE',  ( -1.000000000000000000, 0.000000000000000000, -2.037426901315041899E-16 ) ) ;
#224 = VERTEX_POINT ( 'NONE', #306 ) ;
#225 = DIRECTION ( 'NONE',  ( -1.000000000000000000, 0.000000000000000000, -1.914177628664061403E-16 ) ) ;
#226 = ORIENTED_EDGE ( 'NONE', *, *, #30, .F. ) ;
#227 = CARTESIAN_POINT ( 'NONE',  ( -238.4000000000000057, 0.000000000000000000, 9.999999999999952038 ) ) ;
#228 = EDGE_CURVE ( 'NONE', #252, #202, #276, .T. ) ;
#229 = CC_DESIGN_APPROVAL ( #263, ( #77 ) ) ;
#230 = CARTESIAN_POINT ( 'NONE',  ( -238.4000000000000057, 20.00000000000000000, -10.00000000000003908 ) ) ;
#231 = CARTESIAN_POINT ( 'NONE',  ( -238.4000000000000057, 20.00000000000000000, -10.00000000000003908 ) ) ;
#232 = DIRECTION ( 'NONE',  ( 0.000000000000000000, 0.000000000000000000, 1.000000000000000000 ) ) ;
#233 =( LENGTH_UNIT ( ) NAMED_UNIT ( * ) SI_UNIT ( .MILLI., .METRE. ) );
#234 = CIRCLE ( 'NONE', #128, 20.00000000000000355 ) ;
#235 = CARTESIAN_POINT ( 'NONE',  ( -218.4000000000000057, 0.000000000000000000, -10.00000000000004619 ) ) ;
#236 = CC_DESIGN_PERSON_AND_ORGANIZATION_ASSIGNMENT ( #238, #127, ( #299 ) ) ;
#237 = CARTESIAN_POINT ( 'NONE',  ( 0.000000000000000000, 20.00000000000000000, -10.00000000000000000 ) ) ;
#238 = PERSON_AND_ORGANIZATION ( #359, #261 ) ;
#239 = CARTESIAN_POINT ( 'NONE',  ( -218.4000000000000057, 20.00000000000000000, -10.00000000000004619 ) ) ;
#240 = EDGE_CURVE ( 'NONE', #202, #344, #48, .T. ) ;
#241 = VECTOR ( 'NONE', #15, 1000.000000000000000 ) ;
#242 = APPROVAL_STATUS ( 'not_yet_approved' ) ;
#243 = DIRECTION ( 'NONE',  ( 2.382861917550558372E-16, -0.000000000000000000, 1.000000000000000000 ) ) ;
#244 = ORIENTED_EDGE ( 'NONE', *, *, #30, .T. ) ;
#245 = VECTOR ( 'NONE', #28, 1000.000000000000000 ) ;
#246 = CARTESIAN_POINT ( 'NONE',  ( 0.000000000000000000, 20.00000000000000000, -10.00000000000000000 ) ) ;
#247 = ORIENTED_EDGE ( 'NONE', *, *, #44, .F. ) ;
#248 = CARTESIAN_POINT ( 'NONE',  ( -218.4000000000000909, 20.00000000000000000, -29.99999999999994316 ) ) ;
#249 = ORIENTED_EDGE ( 'NONE', *, *, #87, .F. ) ;
#250 = CLOSED_SHELL ( 'NONE', ( #271, #129, #169, #207, #175, #302, #97, #185, #38, #347 ) ) ;
#251 = LINE ( 'NONE', #280, #274 ) ;
#252 = VERTEX_POINT ( 'NONE', #248 ) ;
#253 = DIRECTION ( 'NONE',  ( -0.000000000000000000, 1.000000000000000000, -0.000000000000000000 ) ) ;
#254 = PRODUCT ( 'Link1RightLShape_Default_sldprt', 'Link1RightLShape_Default_sldprt', '', ( #184 ) ) ;
#255 = DIRECTION ( 'NONE',  ( 0.000000000000000000, -1.000000000000000000, 0.000000000000000000 ) ) ;
#256 = DIRECTION ( 'NONE',  ( 0.000000000000000000, 1.000000000000000000, 0.000000000000000000 ) ) ;
#257 = AXIS2_PLACEMENT_3D ( 'NONE', #197, #110, #223 ) ;
#258 = PERSON_AND_ORGANIZATION_ROLE ( 'design_owner' ) ;
#259 = CC_DESIGN_PERSON_AND_ORGANIZATION_ASSIGNMENT ( #328, #160, ( #77 ) ) ;
#260 = CARTESIAN_POINT ( 'NONE',  ( -198.4000000000000909, 20.00000000000000000, -29.99999999999994316 ) ) ;
#261 = ORGANIZATION ( 'UNSPECIFIED', 'UNSPECIFIED', '' ) ;
#262 = APPLICATION_CONTEXT ( 'configuration controlled 3d designs of mechanical parts and assemblies' ) ;
#263 = APPROVAL ( #351, 'UNSPECIFIED' ) ;
#264 = LINE ( 'NONE', #237, #5 ) ;
#265 = EDGE_CURVE ( 'NONE', #287, #137, #72, .T. ) ;
#266 = FACE_OUTER_BOUND ( 'NONE', #51, .T. ) ;
#267 = DIRECTION ( 'NONE',  ( 0.000000000000000000, -0.000000000000000000, -1.000000000000000000 ) ) ;
#268 = VERTEX_POINT ( 'NONE', #131 ) ;
#269 = CIRCLE ( 'NONE', #54, 20.00000000000000355 ) ;
#270 = COORDINATED_UNIVERSAL_TIME_OFFSET ( 3, 30, .AHEAD. ) ;
#271 = ADVANCED_FACE ( 'NONE', ( #166 ), #217, .F. ) ;
#272 = DATE_AND_TIME ( #86, #174 ) ;
#273 = AXIS2_PLACEMENT_3D ( 'NONE', #313, #335, #83 ) ;
#274 = VECTOR ( 'NONE', #343, 1000.000000000000000 ) ;
#275 = CC_DESIGN_PERSON_AND_ORGANIZATION_ASSIGNMENT ( #345, #293, ( #27 ) ) ;
#276 = LINE ( 'NONE', #286, #245 ) ;
#277 = VERTEX_POINT ( 'NONE', #220 ) ;
#278 = DIRECTION ( 'NONE',  ( -1.000000000000000000, 0.000000000000000000, 0.000000000000000000 ) ) ;
#279 = EDGE_LOOP ( 'NONE', ( #84, #244, #41, #365 ) ) ;
#280 = CARTESIAN_POINT ( 'NONE',  ( -218.4000000000000057, 20.00000000000000000, 9.999999999999955591 ) ) ;
#281 = ORIENTED_EDGE ( 'NONE', *, *, #71, .T. ) ;
#282 = FACE_OUTER_BOUND ( 'NONE', #279, .T. ) ;
#283 = AXIS2_PLACEMENT_3D ( 'NONE', #246, #278, #337 ) ;
#284 = ORIENTED_EDGE ( 'NONE', *, *, #8, .F. ) ;
#285 = LINE ( 'NONE', #181, #326 ) ;
#286 = CARTESIAN_POINT ( 'NONE',  ( -218.4000000000000625, 20.00000000000000000, -155.0000000000000853 ) ) ;
#287 = VERTEX_POINT ( 'NONE', #170 ) ;
#288 = DIRECTION ( 'NONE',  ( -0.000000000000000000, -1.000000000000000000, -0.000000000000000000 ) ) ;
#289 = APPLICATION_PROTOCOL_DEFINITION ( 'international standard', 'config_control_design', 1994, #262 ) ;
#290 = DIRECTION ( 'NONE',  ( 0.000000000000000000, -1.000000000000000000, 0.000000000000000000 ) ) ;
#291 = DIRECTION ( 'NONE',  ( -0.000000000000000000, -1.000000000000000000, 0.000000000000000000 ) ) ;
#292 = EDGE_CURVE ( 'NONE', #26, #198, #269, .T. ) ;
#293 = PERSON_AND_ORGANIZATION_ROLE ( 'creator' ) ;
#294 = CALENDAR_DATE ( 2026, 31, 7 ) ;
#295 = APPROVAL_DATE_TIME ( #206, #219 ) ;
#296 = APPROVAL_ROLE ( '' ) ;
#297 = DIRECTION ( 'NONE',  ( 0.000000000000000000, 1.000000000000000000, -0.000000000000000000 ) ) ;
#298 = ORIENTED_EDGE ( 'NONE', *, *, #167, .F. ) ;
#299 = SECURITY_CLASSIFICATION ( '', '', #355 ) ;
#300 = APPROVAL_DATE_TIME ( #69, #74 ) ;
#301 = CARTESIAN_POINT ( 'NONE',  ( -238.4000000000000057, 20.00000000000000000, 9.999999999999952038 ) ) ;
#302 = ADVANCED_FACE ( 'NONE', ( #78 ), #366, .F. ) ;
#303 = CARTESIAN_POINT ( 'NONE',  ( 0.000000000000000000, 20.00000000000000000, 10.00000000000000000 ) ) ;
#304 = ORIENTED_EDGE ( 'NONE', *, *, #265, .F. ) ;
#305 = AXIS2_PLACEMENT_3D ( 'NONE', #106, #172, #25 ) ;
#306 = CARTESIAN_POINT ( 'NONE',  ( 0.000000000000000000, 0.000000000000000000, 10.00000000000000000 ) ) ;
#307 = EDGE_LOOP ( 'NONE', ( #132, #363, #107, #113, #168, #140, #342, #222 ) ) ;
#308 = LINE ( 'NONE', #364, #9 ) ;
#309 = ORIENTED_EDGE ( 'NONE', *, *, #167, .T. ) ;
#310 = CARTESIAN_POINT ( 'NONE',  ( -218.4000000000000625, 20.00000000000000000, -155.0000000000000853 ) ) ;
#311 = ORIENTED_EDGE ( 'NONE', *, *, #87, .T. ) ;
#312 = EDGE_CURVE ( 'NONE', #373, #277, #357, .T. ) ;
#313 = CARTESIAN_POINT ( 'NONE',  ( -238.4000000000000057, 20.00000000000000000, 9.999999999999952038 ) ) ;
#314 = VECTOR ( 'NONE', #361, 1000.000000000000000 ) ;
#315 = ORIENTED_EDGE ( 'NONE', *, *, #228, .T. ) ;
#316 = CARTESIAN_POINT ( 'NONE',  ( 0.000000000000000000, 20.00000000000000000, -10.00000000000000000 ) ) ;
#317 = CARTESIAN_POINT ( 'NONE',  ( -198.4000000000000909, 20.00000000000000000, -9.999999999999953815 ) ) ;
#318 = VECTOR ( 'NONE', #215, 1000.000000000000000 ) ;
#319 = APPLICATION_PROTOCOL_DEFINITION ( 'international standard', 'config_control_design', 1994, #324 ) ;
#320 = LINE ( 'NONE', #227, #108 ) ;
#321 = LOCAL_TIME ( 13, 48, 51.00000000000000000, #183 ) ;
#322 = EDGE_CURVE ( 'NONE', #373, #224, #353, .T. ) ;
#323 = COORDINATED_UNIVERSAL_TIME_OFFSET ( 3, 30, .AHEAD. ) ;
#324 = APPLICATION_CONTEXT ( 'configuration controlled 3d designs of mechanical parts and assemblies' ) ;
#325 = VECTOR ( 'NONE', #349, 1000.000000000000000 ) ;
#326 = VECTOR ( 'NONE', #179, 1000.000000000000000 ) ;
#327 = EDGE_LOOP ( 'NONE', ( #304, #309, #46, #105 ) ) ;
#328 = PERSON_AND_ORGANIZATION ( #359, #261 ) ;
#329 = DIRECTION ( 'NONE',  ( -1.000000000000000000, -0.000000000000000000, 2.382861917550558372E-16 ) ) ;
#330 = CALENDAR_DATE ( 2026, 31, 7 ) ;
#331 = CARTESIAN_POINT ( 'NONE',  ( -218.4000000000000909, 20.00000000000000000, -9.999999999999948486 ) ) ;
#332 = AXIS2_PLACEMENT_3D ( 'NONE', #10, #122, #267 ) ;
#333 = LOCAL_TIME ( 13, 48, 51.00000000000000000, #208 ) ;
#334 = EDGE_CURVE ( 'NONE', #198, #79, #150, .T. ) ;
#335 = DIRECTION ( 'NONE',  ( 1.000000000000000000, 0.000000000000000000, -3.364312195833807668E-16 ) ) ;
#336 = ORIENTED_EDGE ( 'NONE', *, *, #47, .F. ) ;
#337 = DIRECTION ( 'NONE',  ( 0.000000000000000000, 0.000000000000000000, 1.000000000000000000 ) ) ;
#338 = EDGE_LOOP ( 'NONE', ( #73, #16, #57, #370 ) ) ;
#339 = DIRECTION ( 'NONE',  ( 0.000000000000000000, 1.000000000000000000, -0.000000000000000000 ) ) ;
#340 = ORIENTED_EDGE ( 'NONE', *, *, #334, .F. ) ;
#341 = PLANE ( 'NONE',  #273 ) ;
#342 = ORIENTED_EDGE ( 'NONE', *, *, #81, .F. ) ;
#343 = DIRECTION ( 'NONE',  ( 0.000000000000000000, -1.000000000000000000, 0.000000000000000000 ) ) ;
#344 = VERTEX_POINT ( 'NONE', #37 ) ;
#345 = PERSON_AND_ORGANIZATION ( #359, #261 ) ;
#346 = VECTOR ( 'NONE', #255, 1000.000000000000000 ) ;
#347 = ADVANCED_FACE ( 'NONE', ( #59 ), #148, .F. ) ;
#348 = DIRECTION ( 'NONE',  ( 0.000000000000000000, 0.000000000000000000, -1.000000000000000000 ) ) ;
#349 = DIRECTION ( 'NONE',  ( 1.000000000000000000, -0.000000000000000000, 2.037426901315041899E-16 ) ) ;
#350 = PERSON_AND_ORGANIZATION ( #359, #261 ) ;
#351 = APPROVAL_STATUS ( 'not_yet_approved' ) ;
#352 = VECTOR ( 'NONE', #190, 1000.000000000000000 ) ;
#353 = LINE ( 'NONE', #204, #325 ) ;
#354 = FACE_OUTER_BOUND ( 'NONE', #18, .T. ) ;
#355 = SECURITY_CLASSIFICATION_LEVEL ( 'unclassified' ) ;
#356 = VECTOR ( 'NONE', #191, 1000.000000000000000 ) ;
#357 = CIRCLE ( 'NONE', #23, 20.00000000000000355 ) ;
#358 = DIRECTION ( 'NONE',  ( 0.000000000000000000, 0.000000000000000000, -1.000000000000000000 ) ) ;
#359 = PERSON ( 'UNSPECIFIED', 'UNSPECIFIED', 'UNSPECIFIED', ('UNSPECIFIED'), ('UNSPECIFIED'), ('UNSPECIFIED') ) ;
#360 = CARTESIAN_POINT ( 'NONE',  ( -238.4000000000000625, 0.000000000000000000, -155.0000000000000568 ) ) ;
#361 = DIRECTION ( 'NONE',  ( 3.364312195833807668E-16, -0.000000000000000000, 1.000000000000000000 ) ) ;
#362 = CARTESIAN_POINT ( 'NONE',  ( -218.4000000000000625, 20.00000000000000000, -155.0000000000000853 ) ) ;
#363 = ORIENTED_EDGE ( 'NONE', *, *, #312, .T. ) ;
#364 = CARTESIAN_POINT ( 'NONE',  ( 0.000000000000000000, 0.000000000000000000, -10.00000000000000000 ) ) ;
#365 = ORIENTED_EDGE ( 'NONE', *, *, #240, .F. ) ;
#366 = PLANE ( 'NONE',  #257 ) ;
#367 = EDGE_LOOP ( 'NONE', ( #143, #60, #173, #155 ) ) ;
#368 = CC_DESIGN_APPROVAL ( #74, ( #299 ) ) ;
#369 = DIRECTION ( 'NONE',  ( 1.000000000000000000, 0.000000000000000000, -2.382861917550558372E-16 ) ) ;
#370 = ORIENTED_EDGE ( 'NONE', *, *, #36, .T. ) ;
#371 = EDGE_CURVE ( 'NONE', #26, #344, #32, .T. ) ;
#372 = CARTESIAN_POINT ( 'NONE',  ( -218.4000000000000909, 20.00000000000000000, -9.999999999999948486 ) ) ;
#373 = VERTEX_POINT ( 'NONE', #6 ) ;
ENDSEC;
END-ISO-10303-21;
