ISO-10303-21;
HEADER;
FILE_DESCRIPTION (( 'STEP AP203' ),
    '1' );
FILE_NAME ('Link2LShape_Default_sldprt.STEP',
    '2026-07-23T12:34:54',
    ( '' ),
    ( '' ),
    'SwSTEP 2.0',
    'SolidWorks 2025',
    '' );
FILE_SCHEMA (( 'CONFIG_CONTROL_DESIGN' ));
ENDSEC;

DATA;
#1 = CARTESIAN_POINT ( 'NONE',  ( -95.00000000000001421, 20.00000000000000000, -118.0000000000000284 ) ) ;
#2 = LOCAL_TIME ( 16, 4, 53.00000000000000000, #193 ) ;
#3 = LINE ( 'NONE', #117, #287 ) ;
#4 = EDGE_CURVE ( 'NONE', #196, #199, #311, .T. ) ;
#5 = CARTESIAN_POINT ( 'NONE',  ( -45.00000000000000000, 0.000000000000000000, 9.999999999999980460 ) ) ;
#6 = CARTESIAN_POINT ( 'NONE',  ( -44.99999999999997868, 0.000000000000000000, -9.999999999999994671 ) ) ;
#7 = LINE ( 'NONE', #119, #308 ) ;
#8 = CARTESIAN_POINT ( 'NONE',  ( -45.00000000000000000, 0.000000000000000000, -60.00000000000002842 ) ) ;
#9 = EDGE_CURVE ( 'NONE', #72, #199, #312, .T. ) ;
#10 = VECTOR ( 'NONE', #39, 1000.000000000000000 ) ;
#11 = DIRECTION ( 'NONE',  ( -0.000000000000000000, -1.000000000000000000, -0.000000000000000000 ) ) ;
#12 = VECTOR ( 'NONE', #92, 1000.000000000000000 ) ;
#13 = CARTESIAN_POINT ( 'NONE',  ( -44.99999999999999289, 20.00000000000000000, -9.999999999999987566 ) ) ;
#14 = ORIENTED_EDGE ( 'NONE', *, *, #217, .F. ) ;
#15 = DIRECTION ( 'NONE',  ( -1.000000000000000000, 0.000000000000000000, -4.240435163498862005E-16 ) ) ;
#16 = VECTOR ( 'NONE', #361, 1000.000000000000000 ) ;
#17 = PLANE ( 'NONE',  #108 ) ;
#18 = DIRECTION ( 'NONE',  ( 0.000000000000000000, 0.000000000000000000, 1.000000000000000000 ) ) ;
#19 = DIRECTION ( 'NONE',  ( -1.000000000000000000, -0.000000000000000000, -0.000000000000000000 ) ) ;
#20 = DATE_AND_TIME ( #138, #2 ) ;
#21 = ORIENTED_EDGE ( 'NONE', *, *, #268, .F. ) ;
#22 = CC_DESIGN_PERSON_AND_ORGANIZATION_ASSIGNMENT ( #364, #283, ( #36 ) ) ;
#23 = APPROVAL_DATE_TIME ( #279, #345 ) ;
#24 = CC_DESIGN_APPROVAL ( #229, ( #36 ) ) ;
#25 = AXIS2_PLACEMENT_3D ( 'NONE', #183, #349, #38 ) ;
#26 = ORIENTED_EDGE ( 'NONE', *, *, #274, .T. ) ;
#27 = EDGE_CURVE ( 'NONE', #373, #248, #258, .T. ) ;
#28 = APPROVAL_STATUS ( 'not_yet_approved' ) ;
#29 = ORIENTED_EDGE ( 'NONE', *, *, #34, .T. ) ;
#30 = ORIENTED_EDGE ( 'NONE', *, *, #4, .T. ) ;
#31 = FACE_OUTER_BOUND ( 'NONE', #332, .T. ) ;
#32 = VECTOR ( 'NONE', #33, 1000.000000000000000 ) ;
#33 = DIRECTION ( 'NONE',  ( -0.000000000000000000, -1.000000000000000000, -0.000000000000000000 ) ) ;
#34 = EDGE_CURVE ( 'NONE', #52, #216, #55, .T. ) ;
#35 = PLANE ( 'NONE',  #87 ) ;
#36 = PRODUCT_DEFINITION ( 'UNKNOWN', '', #299, #94 ) ;
#37 = FACE_OUTER_BOUND ( 'NONE', #304, .T. ) ;
#38 = DIRECTION ( 'NONE',  ( 0.000000000000000000, 0.000000000000000000, 1.000000000000000000 ) ) ;
#39 = DIRECTION ( 'NONE',  ( -2.392722035830077493E-16, -0.000000000000000000, -1.000000000000000000 ) ) ;
#40 = CC_DESIGN_PERSON_AND_ORGANIZATION_ASSIGNMENT ( #170, #335, ( #195 ) ) ;
#41 = ORIENTED_EDGE ( 'NONE', *, *, #105, .F. ) ;
#42 = CARTESIAN_POINT ( 'NONE',  ( -44.99999999999999289, 20.00000000000000000, -9.999999999999987566 ) ) ;
#43 = ORIENTED_EDGE ( 'NONE', *, *, #200, .T. ) ;
#44 = ORGANIZATION ( 'UNSPECIFIED', 'UNSPECIFIED', '' ) ;
#45 = AXIS2_PLACEMENT_3D ( 'NONE', #63, #348, #180 ) ;
#46 = DIRECTION ( 'NONE',  ( 0.000000000000000000, 1.000000000000000000, 0.000000000000000000 ) ) ;
#47 = VECTOR ( 'NONE', #257, 1000.000000000000000 ) ;
#48 = FACE_OUTER_BOUND ( 'NONE', #363, .T. ) ;
#49 = ORIENTED_EDGE ( 'NONE', *, *, #167, .F. ) ;
#50 = APPROVAL_DATE_TIME ( #307, #229 ) ;
#51 = ADVANCED_FACE ( 'NONE', ( #81 ), #309, .F. ) ;
#52 = VERTEX_POINT ( 'NONE', #222 ) ;
#53 = ORIENTED_EDGE ( 'NONE', *, *, #212, .F. ) ;
#54 = PERSON_AND_ORGANIZATION ( #143, #44 ) ;
#55 = LINE ( 'NONE', #219, #240 ) ;
#56 = ADVANCED_FACE ( 'NONE', ( #341 ), #112, .F. ) ;
#57 = PERSON_AND_ORGANIZATION_ROLE ( 'design_supplier' ) ;
#58 = ORIENTED_EDGE ( 'NONE', *, *, #98, .F. ) ;
#59 = ORIENTED_EDGE ( 'NONE', *, *, #173, .F. ) ;
#60 = LINE ( 'NONE', #354, #234 ) ;
#61 = LINE ( 'NONE', #6, #12 ) ;
#62 = ADVANCED_FACE ( 'NONE', ( #37 ), #35, .F. ) ;
#63 = CARTESIAN_POINT ( 'NONE',  ( -45.00000000000000000, 0.000000000000000000, -60.00000000000002842 ) ) ;
#64 = CARTESIAN_POINT ( 'NONE',  ( -115.0000000000000000, 20.00000000000000000, -60.00000000000004263 ) ) ;
#65 = CARTESIAN_POINT ( 'NONE',  ( -115.0000000000000142, 0.000000000000000000, -118.0000000000000284 ) ) ;
#66 = LINE ( 'NONE', #324, #182 ) ;
#67 = AXIS2_PLACEMENT_3D ( 'NONE', #225, #176, #293 ) ;
#68 =( NAMED_UNIT ( * ) SI_UNIT ( $, .STERADIAN. ) SOLID_ANGLE_UNIT ( ) );
#69 = VERTEX_POINT ( 'NONE', #144 ) ;
#70 = CARTESIAN_POINT ( 'NONE',  ( -95.00000000000000000, 0.000000000000000000, -59.99999999999998579 ) ) ;
#71 = DIRECTION ( 'NONE',  ( -0.000000000000000000, -0.000000000000000000, -1.000000000000000000 ) ) ;
#72 = VERTEX_POINT ( 'NONE', #64 ) ;
#73 = PRODUCT_RELATED_PRODUCT_CATEGORY ( 'detail', '', ( #142 ) ) ;
#74 =( LENGTH_UNIT ( ) NAMED_UNIT ( * ) SI_UNIT ( .MILLI., .METRE. ) );
#75 = VERTEX_POINT ( 'NONE', #262 ) ;
#76 = EDGE_CURVE ( 'NONE', #52, #284, #181, .T. ) ;
#77 = CALENDAR_DATE ( 2026, 23, 7 ) ;
#78 = EDGE_LOOP ( 'NONE', ( #115, #41, #280, #83 ) ) ;
#79 = AXIS2_PLACEMENT_3D ( 'NONE', #8, #46, #100 ) ;
#80 = APPROVAL_ROLE ( '' ) ;
#81 = FACE_OUTER_BOUND ( 'NONE', #368, .T. ) ;
#82 = AXIS2_PLACEMENT_3D ( 'NONE', #89, #320, #141 ) ;
#83 = ORIENTED_EDGE ( 'NONE', *, *, #173, .T. ) ;
#84 = APPROVAL_ROLE ( '' ) ;
#85 = ORIENTED_EDGE ( 'NONE', *, *, #226, .T. ) ;
#86 = ORIENTED_EDGE ( 'NONE', *, *, #9, .T. ) ;
#87 = AXIS2_PLACEMENT_3D ( 'NONE', #1, #205, #147 ) ;
#88 = LINE ( 'NONE', #120, #338 ) ;
#89 = CARTESIAN_POINT ( 'NONE',  ( -114.9999999999999858, 20.00000000000000000, -60.00000000000002842 ) ) ;
#90 = ADVANCED_FACE ( 'NONE', ( #146 ), #321, .T. ) ;
#91 = DIRECTION ( 'NONE',  ( -0.000000000000000000, -1.000000000000000000, -0.000000000000000000 ) ) ;
#92 = DIRECTION ( 'NONE',  ( -1.000000000000000000, -0.000000000000000000, 1.156482317317872218E-16 ) ) ;
#93 = DIRECTION ( 'NONE',  ( 1.000000000000000000, -0.000000000000000000, 4.240435163498862499E-16 ) ) ;
#94 = DESIGN_CONTEXT ( 'detailed design', #213, 'design' ) ;
#95 = APPROVAL ( #28, 'UNSPECIFIED' ) ;
#96 = LINE ( 'NONE', #158, #305 ) ;
#97 = VERTEX_POINT ( 'NONE', #5 ) ;
#98 = EDGE_CURVE ( 'NONE', #284, #196, #7, .T. ) ;
#99 = FACE_OUTER_BOUND ( 'NONE', #231, .T. ) ;
#100 = DIRECTION ( 'NONE',  ( 0.000000000000000000, -0.000000000000000000, 1.000000000000000000 ) ) ;
#101 = APPROVAL_PERSON_ORGANIZATION ( #191, #229, #131 ) ;
#102 = CARTESIAN_POINT ( 'NONE',  ( 0.000000000000000000, 20.00000000000000000, 10.00000000000000000 ) ) ;
#103 = COORDINATED_UNIVERSAL_TIME_OFFSET ( 3, 30, .AHEAD. ) ;
#104 = ORIENTED_EDGE ( 'NONE', *, *, #188, .F. ) ;
#105 = EDGE_CURVE ( 'NONE', #248, #359, #235, .T. ) ;
#106 = DIRECTION ( 'NONE',  ( 1.000000000000000000, 0.000000000000000000, 0.000000000000000000 ) ) ;
#107 = ORIENTED_EDGE ( 'NONE', *, *, #268, .T. ) ;
#108 = AXIS2_PLACEMENT_3D ( 'NONE', #126, #303, #125 ) ;
#109 = DIRECTION ( 'NONE',  ( 0.000000000000000000, 0.000000000000000000, -1.000000000000000000 ) ) ;
#110 = CC_DESIGN_APPROVAL ( #95, ( #195 ) ) ;
#111 = COORDINATED_UNIVERSAL_TIME_OFFSET ( 3, 30, .AHEAD. ) ;
#112 = PLANE ( 'NONE',  #67 ) ;
#113 = CALENDAR_DATE ( 2026, 23, 7 ) ;
#114 = ORIENTED_EDGE ( 'NONE', *, *, #34, .F. ) ;
#115 = ORIENTED_EDGE ( 'NONE', *, *, #292, .T. ) ;
#116 = DIRECTION ( 'NONE',  ( 0.000000000000000000, 0.000000000000000000, 1.000000000000000000 ) ) ;
#117 = CARTESIAN_POINT ( 'NONE',  ( 0.000000000000000000, 0.000000000000000000, 10.00000000000000000 ) ) ;
#118 = ADVANCED_FACE ( 'NONE', ( #31 ), #122, .F. ) ;
#119 = CARTESIAN_POINT ( 'NONE',  ( -115.0000000000000142, 0.000000000000000000, -118.0000000000000284 ) ) ;
#120 = CARTESIAN_POINT ( 'NONE',  ( 0.000000000000000000, 20.00000000000000000, 10.00000000000000000 ) ) ;
#121 = ADVANCED_BREP_SHAPE_REPRESENTATION ( 'Link2LShape_Default_sldprt', ( #230, #366 ), #356 ) ;
#122 = PLANE ( 'NONE',  #82 ) ;
#123 = DIRECTION ( 'NONE',  ( -1.000000000000000000, -0.000000000000000000, 1.156482317317872218E-16 ) ) ;
#124 = APPLICATION_CONTEXT ( 'configuration controlled 3d designs of mechanical parts and assemblies' ) ;
#125 = DIRECTION ( 'NONE',  ( 0.000000000000000000, -0.000000000000000000, 1.000000000000000000 ) ) ;
#126 = CARTESIAN_POINT ( 'NONE',  ( -45.00000000000000000, 20.00000000000000000, -60.00000000000002842 ) ) ;
#127 = ORIENTED_EDGE ( 'NONE', *, *, #274, .F. ) ;
#128 = CARTESIAN_POINT ( 'NONE',  ( 0.000000000000000000, 0.000000000000000000, -10.00000000000000000 ) ) ;
#129 = ORIENTED_EDGE ( 'NONE', *, *, #286, .F. ) ;
#130 = VECTOR ( 'NONE', #261, 1000.000000000000000 ) ;
#131 = APPROVAL_ROLE ( '' ) ;
#132 = ORIENTED_EDGE ( 'NONE', *, *, #212, .T. ) ;
#133 = SHAPE_DEFINITION_REPRESENTATION ( #350, #121 ) ;
#134 = DIRECTION ( 'NONE',  ( -0.000000000000000000, -1.000000000000000000, -0.000000000000000000 ) ) ;
#135 = PERSON_AND_ORGANIZATION ( #143, #44 ) ;
#136 = VERTEX_POINT ( 'NONE', #353 ) ;
#137 = EDGE_CURVE ( 'NONE', #242, #75, #340, .T. ) ;
#138 = CALENDAR_DATE ( 2026, 23, 7 ) ;
#139 = ORIENTED_EDGE ( 'NONE', *, *, #105, .T. ) ;
#140 = CARTESIAN_POINT ( 'NONE',  ( -114.9999999999999858, 0.000000000000000000, -60.00000000000002842 ) ) ;
#141 = DIRECTION ( 'NONE',  ( -4.785444071660157944E-16, 0.000000000000000000, -1.000000000000000000 ) ) ;
#142 = PRODUCT ( 'Link2LShape_Default_sldprt', 'Link2LShape_Default_sldprt', '', ( #245 ) ) ;
#143 = PERSON ( 'UNSPECIFIED', 'UNSPECIFIED', 'UNSPECIFIED', ('UNSPECIFIED'), ('UNSPECIFIED'), ('UNSPECIFIED') ) ;
#144 = CARTESIAN_POINT ( 'NONE',  ( -45.00000000000000000, 20.00000000000000000, 9.999999999999980460 ) ) ;
#145 = LOCAL_TIME ( 16, 4, 53.00000000000000000, #275 ) ;
#146 = FACE_OUTER_BOUND ( 'NONE', #159, .T. ) ;
#147 = DIRECTION ( 'NONE',  ( 2.392722035830077493E-16, 0.000000000000000000, 1.000000000000000000 ) ) ;
#148 = CARTESIAN_POINT ( 'NONE',  ( -115.0000000000000142, 20.00000000000000000, -118.0000000000000284 ) ) ;
#149 = VECTOR ( 'NONE', #192, 1000.000000000000000 ) ;
#150 = FACE_OUTER_BOUND ( 'NONE', #78, .T. ) ;
#151 = EDGE_CURVE ( 'NONE', #359, #255, #61, .T. ) ;
#152 = CARTESIAN_POINT ( 'NONE',  ( -95.00000000000001421, 0.000000000000000000, -118.0000000000000284 ) ) ;
#153 = ORIENTED_EDGE ( 'NONE', *, *, #226, .F. ) ;
#154 = AXIS2_PLACEMENT_3D ( 'NONE', #329, #355, #266 ) ;
#155 = LINE ( 'NONE', #267, #367 ) ;
#156 = ORIENTED_EDGE ( 'NONE', *, *, #334, .T. ) ;
#157 = EDGE_CURVE ( 'NONE', #199, #97, #223, .T. ) ;
#158 = CARTESIAN_POINT ( 'NONE',  ( -115.0000000000000142, 20.00000000000000000, -118.0000000000000284 ) ) ;
#159 = EDGE_LOOP ( 'NONE', ( #339, #14, #53, #86 ) ) ;
#160 = CC_DESIGN_PERSON_AND_ORGANIZATION_ASSIGNMENT ( #247, #57, ( #299 ) ) ;
#161 = PLANE ( 'NONE',  #79 ) ;
#162 = APPROVAL_STATUS ( 'not_yet_approved' ) ;
#163 = ORIENTED_EDGE ( 'NONE', *, *, #151, .T. ) ;
#164 = PERSON_AND_ORGANIZATION_ROLE ( 'design_owner' ) ;
#165 = APPROVAL_PERSON_ORGANIZATION ( #198, #95, #80 ) ;
#166 = ORIENTED_EDGE ( 'NONE', *, *, #4, .F. ) ;
#167 = EDGE_CURVE ( 'NONE', #97, #136, #3, .T. ) ;
#168 = PERSON_AND_ORGANIZATION ( #143, #44 ) ;
#169 = ORIENTED_EDGE ( 'NONE', *, *, #334, .F. ) ;
#170 = PERSON_AND_ORGANIZATION ( #143, #44 ) ;
#171 = ORIENTED_EDGE ( 'NONE', *, *, #197, .F. ) ;
#172 = CC_DESIGN_SECURITY_CLASSIFICATION ( #195, ( #299 ) ) ;
#173 = EDGE_CURVE ( 'NONE', #373, #136, #88, .T. ) ;
#174 = DATE_AND_TIME ( #218, #252 ) ;
#175 = ORIENTED_EDGE ( 'NONE', *, *, #371, .T. ) ;
#176 = DIRECTION ( 'NONE',  ( 0.000000000000000000, 0.000000000000000000, 1.000000000000000000 ) ) ;
#177 = VECTOR ( 'NONE', #326, 1000.000000000000000 ) ;
#178 = CARTESIAN_POINT ( 'NONE',  ( -45.00000000000000000, 20.00000000000000000, 9.999999999999980460 ) ) ;
#179 = AXIS2_PLACEMENT_3D ( 'NONE', #232, #203, #323 ) ;
#180 = DIRECTION ( 'NONE',  ( 0.000000000000000000, 0.000000000000000000, 1.000000000000000000 ) ) ;
#181 = LINE ( 'NONE', #264, #130 ) ;
#182 = VECTOR ( 'NONE', #123, 1000.000000000000000 ) ;
#183 = CARTESIAN_POINT ( 'NONE',  ( -45.00000000000000000, 20.00000000000000000, -60.00000000000002842 ) ) ;
#184 = ORIENTED_EDGE ( 'NONE', *, *, #167, .T. ) ;
#185 = CARTESIAN_POINT ( 'NONE',  ( 0.000000000000000000, 20.00000000000000000, 10.00000000000000000 ) ) ;
#186 = CIRCLE ( 'NONE', #25, 70.00000000000000000 ) ;
#187 = LINE ( 'NONE', #13, #177 ) ;
#188 = EDGE_CURVE ( 'NONE', #216, #72, #288, .T. ) ;
#189 = CARTESIAN_POINT ( 'NONE',  ( -95.00000000000001421, 0.000000000000000000, -118.0000000000000284 ) ) ;
#190 = ORIENTED_EDGE ( 'NONE', *, *, #76, .T. ) ;
#191 = PERSON_AND_ORGANIZATION ( #143, #44 ) ;
#192 = DIRECTION ( 'NONE',  ( -0.000000000000000000, -0.000000000000000000, -1.000000000000000000 ) ) ;
#193 = COORDINATED_UNIVERSAL_TIME_OFFSET ( 3, 30, .AHEAD. ) ;
#194 = ORIENTED_EDGE ( 'NONE', *, *, #188, .T. ) ;
#195 = SECURITY_CLASSIFICATION ( '', '', #221 ) ;
#196 = VERTEX_POINT ( 'NONE', #65 ) ;
#197 = EDGE_CURVE ( 'NONE', #69, #373, #60, .T. ) ;
#198 = PERSON_AND_ORGANIZATION ( #143, #44 ) ;
#199 = VERTEX_POINT ( 'NONE', #260 ) ;
#200 = EDGE_CURVE ( 'NONE', #255, #327, #300, .T. ) ;
#201 = CARTESIAN_POINT ( 'NONE',  ( 0.000000000000000000, 20.00000000000000000, -10.00000000000000000 ) ) ;
#202 = CARTESIAN_POINT ( 'NONE',  ( -114.9999999999999858, 20.00000000000000000, -60.00000000000002842 ) ) ;
#203 = DIRECTION ( 'NONE',  ( -0.000000000000000000, -1.000000000000000000, -0.000000000000000000 ) ) ;
#204 = CARTESIAN_POINT ( 'NONE',  ( 0.000000000000000000, 20.00000000000000000, -10.00000000000000000 ) ) ;
#205 = DIRECTION ( 'NONE',  ( -1.000000000000000000, 0.000000000000000000, 2.392722035830077493E-16 ) ) ;
#206 = CC_DESIGN_PERSON_AND_ORGANIZATION_ASSIGNMENT ( #54, #164, ( #142 ) ) ;
#207 = CARTESIAN_POINT ( 'NONE',  ( -44.99999999999999289, 0.000000000000000000, -59.99999999999999289 ) ) ;
#208 = CARTESIAN_POINT ( 'NONE',  ( -95.00000000000001421, 20.00000000000000000, -118.0000000000000284 ) ) ;
#209 = CARTESIAN_POINT ( 'NONE',  ( -44.99999999999999289, 0.000000000000000000, -9.999999999999987566 ) ) ;
#210 = CARTESIAN_POINT ( 'NONE',  ( 0.000000000000000000, 20.00000000000000000, -10.00000000000000000 ) ) ;
#211 = ORIENTED_EDGE ( 'NONE', *, *, #76, .F. ) ;
#212 = EDGE_CURVE ( 'NONE', #72, #69, #186, .T. ) ;
#213 = APPLICATION_CONTEXT ( 'configuration controlled 3d designs of mechanical parts and assemblies' ) ;
#214 = CARTESIAN_POINT ( 'NONE',  ( 0.000000000000000000, 0.000000000000000000, -10.00000000000000000 ) ) ;
#215 = APPLICATION_PROTOCOL_DEFINITION ( 'international standard', 'config_control_design', 1994, #213 ) ;
#216 = VERTEX_POINT ( 'NONE', #148 ) ;
#217 = EDGE_CURVE ( 'NONE', #69, #97, #265, .T. ) ;
#218 = CALENDAR_DATE ( 2026, 23, 7 ) ;
#219 = CARTESIAN_POINT ( 'NONE',  ( -115.0000000000000142, 20.00000000000000000, -118.0000000000000284 ) ) ;
#220 = ADVANCED_FACE ( 'NONE', ( #99 ), #161, .F. ) ;
#221 = SECURITY_CLASSIFICATION_LEVEL ( 'unclassified' ) ;
#222 = CARTESIAN_POINT ( 'NONE',  ( -95.00000000000001421, 20.00000000000000000, -118.0000000000000284 ) ) ;
#223 = CIRCLE ( 'NONE', #45, 70.00000000000000000 ) ;
#224 = COORDINATED_UNIVERSAL_TIME_OFFSET ( 3, 30, .AHEAD. ) ;
#225 = CARTESIAN_POINT ( 'NONE',  ( -115.0000000000000142, 20.00000000000000000, -118.0000000000000284 ) ) ;
#226 = EDGE_CURVE ( 'NONE', #327, #284, #358, .T. ) ;
#227 = CARTESIAN_POINT ( 'NONE',  ( -115.0000000000000000, 20.00000000000000000, -60.00000000000004263 ) ) ;
#228 = AXIS2_PLACEMENT_3D ( 'NONE', #210, #239, #296 ) ;
#229 = APPROVAL ( #254, 'UNSPECIFIED' ) ;
#230 = MANIFOLD_SOLID_BREP ( 'Boss-Extrude1', #316 ) ;
#231 = EDGE_LOOP ( 'NONE', ( #336, #251, #49, #306, #166, #58, #153, #246 ) ) ;
#232 = CARTESIAN_POINT ( 'NONE',  ( -44.99999999999999289, 20.00000000000000000, -59.99999999999999289 ) ) ;
#233 = DIRECTION ( 'NONE',  ( -0.000000000000000000, -1.000000000000000000, -0.000000000000000000 ) ) ;
#234 = VECTOR ( 'NONE', #351, 1000.000000000000000 ) ;
#235 = LINE ( 'NONE', #204, #357 ) ;
#236 = DIRECTION ( 'NONE',  ( -0.000000000000000000, -1.000000000000000000, -0.000000000000000000 ) ) ;
#237 = UNCERTAINTY_MEASURE_WITH_UNIT (LENGTH_MEASURE( 1.000000000000000082E-05 ), #74, 'distance_accuracy_value', 'NONE');
#238 =( NAMED_UNIT ( * ) PLANE_ANGLE_UNIT ( ) SI_UNIT ( $, .RADIAN. ) );
#239 = DIRECTION ( 'NONE',  ( -1.000000000000000000, 0.000000000000000000, 0.000000000000000000 ) ) ;
#240 = VECTOR ( 'NONE', #19, 1000.000000000000000 ) ;
#241 = PLANE ( 'NONE',  #228 ) ;
#242 = VERTEX_POINT ( 'NONE', #42 ) ;
#243 = LINE ( 'NONE', #208, #16 ) ;
#244 = ORIENTED_EDGE ( 'NONE', *, *, #137, .F. ) ;
#245 = MECHANICAL_CONTEXT ( 'NONE', #124, 'mechanical' ) ;
#246 = ORIENTED_EDGE ( 'NONE', *, *, #200, .F. ) ;
#247 = PERSON_AND_ORGANIZATION ( #143, #44 ) ;
#248 = VERTEX_POINT ( 'NONE', #360 ) ;
#249 = ADVANCED_FACE ( 'NONE', ( #48 ), #17, .T. ) ;
#250 = DATE_TIME_ROLE ( 'creation_date' ) ;
#251 = ORIENTED_EDGE ( 'NONE', *, *, #292, .F. ) ;
#252 = LOCAL_TIME ( 16, 4, 53.00000000000000000, #224 ) ;
#253 = VECTOR ( 'NONE', #317, 1000.000000000000000 ) ;
#254 = APPROVAL_STATUS ( 'not_yet_approved' ) ;
#255 = VERTEX_POINT ( 'NONE', #209 ) ;
#256 = APPROVAL_DATE_TIME ( #20, #95 ) ;
#257 = DIRECTION ( 'NONE',  ( -0.000000000000000000, -1.000000000000000000, -0.000000000000000000 ) ) ;
#258 = LINE ( 'NONE', #201, #149 ) ;
#259 = VECTOR ( 'NONE', #71, 1000.000000000000000 ) ;
#260 = CARTESIAN_POINT ( 'NONE',  ( -115.0000000000000000, 0.000000000000000000, -60.00000000000004263 ) ) ;
#261 = DIRECTION ( 'NONE',  ( -0.000000000000000000, -1.000000000000000000, -0.000000000000000000 ) ) ;
#262 = CARTESIAN_POINT ( 'NONE',  ( -95.00000000000000000, 20.00000000000000000, -59.99999999999998579 ) ) ;
#263 = ADVANCED_FACE ( 'NONE', ( #273 ), #298, .F. ) ;
#264 = CARTESIAN_POINT ( 'NONE',  ( -95.00000000000001421, 20.00000000000000000, -118.0000000000000284 ) ) ;
#265 = LINE ( 'NONE', #178, #32 ) ;
#266 = DIRECTION ( 'NONE',  ( 1.000000000000000000, 0.000000000000000000, -1.156482317317871971E-16 ) ) ;
#267 = CARTESIAN_POINT ( 'NONE',  ( -95.00000000000000000, 20.00000000000000000, -59.99999999999998579 ) ) ;
#268 = EDGE_CURVE ( 'NONE', #75, #327, #155, .T. ) ;
#269 = DIRECTION ( 'NONE',  ( -0.000000000000000000, -1.000000000000000000, -0.000000000000000000 ) ) ;
#270 = EDGE_LOOP ( 'NONE', ( #163, #129, #169, #139 ) ) ;
#271 = APPROVAL_PERSON_ORGANIZATION ( #168, #345, #84 ) ;
#272 = FACE_OUTER_BOUND ( 'NONE', #370, .T. ) ;
#273 = FACE_OUTER_BOUND ( 'NONE', #270, .T. ) ;
#274 = EDGE_CURVE ( 'NONE', #216, #196, #96, .T. ) ;
#275 = COORDINATED_UNIVERSAL_TIME_OFFSET ( 3, 30, .AHEAD. ) ;
#276 = DIRECTION ( 'NONE',  ( 4.785444071660157944E-16, -0.000000000000000000, 1.000000000000000000 ) ) ;
#277 = CALENDAR_DATE ( 2026, 23, 7 ) ;
#278 = ORIENTED_EDGE ( 'NONE', *, *, #286, .T. ) ;
#279 = DATE_AND_TIME ( #113, #145 ) ;
#280 = ORIENTED_EDGE ( 'NONE', *, *, #27, .F. ) ;
#281 = DATE_AND_TIME ( #77, #328 ) ;
#282 = EDGE_LOOP ( 'NONE', ( #344, #127, #114, #190 ) ) ;
#283 = PERSON_AND_ORGANIZATION_ROLE ( 'creator' ) ;
#284 = VERTEX_POINT ( 'NONE', #152 ) ;
#285 = DIRECTION ( 'NONE',  ( -1.000000000000000000, -0.000000000000000000, -0.000000000000000000 ) ) ;
#286 = EDGE_CURVE ( 'NONE', #242, #255, #187, .T. ) ;
#287 = VECTOR ( 'NONE', #93, 1000.000000000000000 ) ;
#288 = LINE ( 'NONE', #202, #253 ) ;
#289 = ADVANCED_FACE ( 'NONE', ( #150 ), #241, .F. ) ;
#290 = VECTOR ( 'NONE', #276, 1000.000000000000000 ) ;
#291 = DIRECTION ( 'NONE',  ( -0.000000000000000000, -1.000000000000000000, -0.000000000000000000 ) ) ;
#292 = EDGE_CURVE ( 'NONE', #136, #359, #331, .T. ) ;
#293 = DIRECTION ( 'NONE',  ( 1.000000000000000000, 0.000000000000000000, -0.000000000000000000 ) ) ;
#294 = DIRECTION ( 'NONE',  ( 0.000000000000000000, 0.000000000000000000, -1.000000000000000000 ) ) ;
#295 = AXIS2_PLACEMENT_3D ( 'NONE', #369, #134, #109 ) ;
#296 = DIRECTION ( 'NONE',  ( 0.000000000000000000, 0.000000000000000000, 1.000000000000000000 ) ) ;
#297 = ORIENTED_EDGE ( 'NONE', *, *, #27, .T. ) ;
#298 = PLANE ( 'NONE',  #154 ) ;
#299 = PRODUCT_DEFINITION_FORMATION_WITH_SPECIFIED_SOURCE ( 'ANY', '', #142, .NOT_KNOWN. ) ;
#300 = CIRCLE ( 'NONE', #352, 50.00000000000000000 ) ;
#301 = DIRECTION ( 'NONE',  ( 4.240435163498862005E-16, 0.000000000000000000, -1.000000000000000000 ) ) ;
#302 = PLANE ( 'NONE',  #372 ) ;
#303 = DIRECTION ( 'NONE',  ( 0.000000000000000000, 1.000000000000000000, 0.000000000000000000 ) ) ;
#304 = EDGE_LOOP ( 'NONE', ( #85, #211, #365, #107 ) ) ;
#305 = VECTOR ( 'NONE', #11, 1000.000000000000000 ) ;
#306 = ORIENTED_EDGE ( 'NONE', *, *, #157, .F. ) ;
#307 = DATE_AND_TIME ( #277, #313 ) ;
#308 = VECTOR ( 'NONE', #285, 1000.000000000000000 ) ;
#309 = CYLINDRICAL_SURFACE ( 'NONE', #295, 49.99999999999999289 ) ;
#310 = APPLICATION_PROTOCOL_DEFINITION ( 'international standard', 'config_control_design', 1994, #124 ) ;
#311 = LINE ( 'NONE', #140, #290 ) ;
#312 = LINE ( 'NONE', #227, #47 ) ;
#313 = LOCAL_TIME ( 16, 4, 53.00000000000000000, #111 ) ;
#314 = CARTESIAN_POINT ( 'NONE',  ( 0.000000000000000000, 0.000000000000000000, 0.000000000000000000 ) ) ;
#315 = ORIENTED_EDGE ( 'NONE', *, *, #217, .T. ) ;
#316 = CLOSED_SHELL ( 'NONE', ( #263, #51, #62, #56, #118, #90, #347, #289, #249, #220 ) ) ;
#317 = DIRECTION ( 'NONE',  ( 4.785444071660157944E-16, -0.000000000000000000, 1.000000000000000000 ) ) ;
#318 = CC_DESIGN_DATE_AND_TIME_ASSIGNMENT ( #174, #250, ( #36 ) ) ;
#319 = CARTESIAN_POINT ( 'NONE',  ( -45.00000000000000000, 20.00000000000000000, -60.00000000000002842 ) ) ;
#320 = DIRECTION ( 'NONE',  ( 1.000000000000000000, 0.000000000000000000, -4.785444071660157944E-16 ) ) ;
#321 = CYLINDRICAL_SURFACE ( 'NONE', #325, 70.00000000000000000 ) ;
#322 = CC_DESIGN_PERSON_AND_ORGANIZATION_ASSIGNMENT ( #135, #343, ( #299 ) ) ;
#323 = DIRECTION ( 'NONE',  ( 0.000000000000000000, 0.000000000000000000, 1.000000000000000000 ) ) ;
#324 = CARTESIAN_POINT ( 'NONE',  ( -44.99999999999997868, 20.00000000000000000, -9.999999999999994671 ) ) ;
#325 = AXIS2_PLACEMENT_3D ( 'NONE', #319, #91, #294 ) ;
#326 = DIRECTION ( 'NONE',  ( -0.000000000000000000, -1.000000000000000000, -0.000000000000000000 ) ) ;
#327 = VERTEX_POINT ( 'NONE', #70 ) ;
#328 = LOCAL_TIME ( 16, 4, 53.00000000000000000, #103 ) ;
#329 = CARTESIAN_POINT ( 'NONE',  ( -44.99999999999997868, 20.00000000000000000, -9.999999999999994671 ) ) ;
#330 = CC_DESIGN_DATE_AND_TIME_ASSIGNMENT ( #281, #337, ( #195 ) ) ;
#331 = LINE ( 'NONE', #214, #259 ) ;
#332 = EDGE_LOOP ( 'NONE', ( #30, #333, #104, #26 ) ) ;
#333 = ORIENTED_EDGE ( 'NONE', *, *, #9, .F. ) ;
#334 = EDGE_CURVE ( 'NONE', #248, #242, #66, .T. ) ;
#335 = PERSON_AND_ORGANIZATION_ROLE ( 'classification_officer' ) ;
#336 = ORIENTED_EDGE ( 'NONE', *, *, #151, .F. ) ;
#337 = DATE_TIME_ROLE ( 'classification_date' ) ;
#338 = VECTOR ( 'NONE', #236, 1000.000000000000000 ) ;
#339 = ORIENTED_EDGE ( 'NONE', *, *, #157, .T. ) ;
#340 = CIRCLE ( 'NONE', #179, 50.00000000000000000 ) ;
#341 = FACE_OUTER_BOUND ( 'NONE', #282, .T. ) ;
#342 = CC_DESIGN_APPROVAL ( #345, ( #299 ) ) ;
#343 = PERSON_AND_ORGANIZATION_ROLE ( 'creator' ) ;
#344 = ORIENTED_EDGE ( 'NONE', *, *, #98, .T. ) ;
#345 = APPROVAL ( #162, 'UNSPECIFIED' ) ;
#346 = ORIENTED_EDGE ( 'NONE', *, *, #197, .T. ) ;
#347 = ADVANCED_FACE ( 'NONE', ( #272 ), #302, .F. ) ;
#348 = DIRECTION ( 'NONE',  ( 0.000000000000000000, 1.000000000000000000, 0.000000000000000000 ) ) ;
#349 = DIRECTION ( 'NONE',  ( 0.000000000000000000, 1.000000000000000000, 0.000000000000000000 ) ) ;
#350 = PRODUCT_DEFINITION_SHAPE ( 'NONE', 'NONE',  #36 ) ;
#351 = DIRECTION ( 'NONE',  ( 1.000000000000000000, -0.000000000000000000, 4.240435163498862499E-16 ) ) ;
#352 = AXIS2_PLACEMENT_3D ( 'NONE', #207, #291, #116 ) ;
#353 = CARTESIAN_POINT ( 'NONE',  ( 0.000000000000000000, 0.000000000000000000, 10.00000000000000000 ) ) ;
#354 = CARTESIAN_POINT ( 'NONE',  ( 0.000000000000000000, 20.00000000000000000, 10.00000000000000000 ) ) ;
#355 = DIRECTION ( 'NONE',  ( 1.156482317317871971E-16, -0.000000000000000000, 1.000000000000000000 ) ) ;
#356 =( GEOMETRIC_REPRESENTATION_CONTEXT ( 3 ) GLOBAL_UNCERTAINTY_ASSIGNED_CONTEXT ( ( #237 ) ) GLOBAL_UNIT_ASSIGNED_CONTEXT ( ( #74, #238, #68 ) ) REPRESENTATION_CONTEXT ( 'NONE', 'WORKASPACE' ) );
#357 = VECTOR ( 'NONE', #233, 1000.000000000000000 ) ;
#358 = LINE ( 'NONE', #189, #10 ) ;
#359 = VERTEX_POINT ( 'NONE', #128 ) ;
#360 = CARTESIAN_POINT ( 'NONE',  ( 0.000000000000000000, 20.00000000000000000, -10.00000000000000000 ) ) ;
#361 = DIRECTION ( 'NONE',  ( -2.392722035830077493E-16, -0.000000000000000000, -1.000000000000000000 ) ) ;
#362 = ORIENTED_EDGE ( 'NONE', *, *, #137, .T. ) ;
#363 = EDGE_LOOP ( 'NONE', ( #156, #362, #175, #29, #194, #132, #346, #297 ) ) ;
#364 = PERSON_AND_ORGANIZATION ( #143, #44 ) ;
#365 = ORIENTED_EDGE ( 'NONE', *, *, #371, .F. ) ;
#366 = AXIS2_PLACEMENT_3D ( 'NONE', #314, #18, #106 ) ;
#367 = VECTOR ( 'NONE', #269, 1000.000000000000000 ) ;
#368 = EDGE_LOOP ( 'NONE', ( #43, #21, #244, #278 ) ) ;
#369 = CARTESIAN_POINT ( 'NONE',  ( -44.99999999999999289, 20.00000000000000000, -59.99999999999999289 ) ) ;
#370 = EDGE_LOOP ( 'NONE', ( #184, #59, #171, #315 ) ) ;
#371 = EDGE_CURVE ( 'NONE', #75, #52, #243, .T. ) ;
#372 = AXIS2_PLACEMENT_3D ( 'NONE', #185, #301, #15 ) ;
#373 = VERTEX_POINT ( 'NONE', #102 ) ;
ENDSEC;
END-ISO-10303-21;
