ISO-10303-21;
HEADER;
FILE_DESCRIPTION (( 'STEP AP203' ),
    '1' );
FILE_NAME ('Link1StellConnectors_Default_sldprt.STEP',
    '2026-07-31T10:18:54',
    ( '' ),
    ( '' ),
    'SwSTEP 2.0',
    'SolidWorks 2025',
    '' );
FILE_SCHEMA (( 'CONFIG_CONTROL_DESIGN' ));
ENDSEC;

DATA;
#1 = PLANE ( 'NONE',  #698 ) ;
#2 = ORIENTED_EDGE ( 'NONE', *, *, #953, .F. ) ;
#3 = EDGE_CURVE ( 'NONE', #907, #407, #37, .T. ) ;
#4 = CARTESIAN_POINT ( 'NONE',  ( 238.3273854894817134, 3.000000000000000000, -155.0002636468324795 ) ) ;
#5 = ORIENTED_EDGE ( 'NONE', *, *, #999, .T. ) ;
#6 = DIRECTION ( 'NONE',  ( 0.000000000000000000, 0.000000000000000000, -1.000000000000000000 ) ) ;
#7 = EDGE_CURVE ( 'NONE', #392, #1132, #50, .T. ) ;
#8 = VERTEX_POINT ( 'NONE', #599 ) ;
#9 = LINE ( 'NONE', #311, #531 ) ;
#10 = EDGE_CURVE ( 'NONE', #620, #1008, #353, .T. ) ;
#11 = ORIENTED_EDGE ( 'NONE', *, *, #938, .F. ) ;
#12 = EDGE_CURVE ( 'NONE', #1220, #265, #807, .T. ) ;
#13 = PLANE ( 'NONE',  #54 ) ;
#14 = VECTOR ( 'NONE', #239, 1000.000000000000000 ) ;
#15 = VECTOR ( 'NONE', #1138, 1000.000000000000000 ) ;
#16 = APPROVAL_PERSON_ORGANIZATION ( #1091, #772, #610 ) ;
#17 = EDGE_LOOP ( 'NONE', ( #279, #543, #752, #1098, #220, #70, #302, #275 ) ) ;
#18 = DIRECTION ( 'NONE',  ( -1.000000000000000000, 0.000000000000000000, 1.445602896647339114E-15 ) ) ;
#19 = ORIENTED_EDGE ( 'NONE', *, *, #754, .T. ) ;
#20 = ADVANCED_FACE ( 'NONE', ( #319 ), #972, .T. ) ;
#21 = EDGE_CURVE ( 'NONE', #532, #1147, #602, .T. ) ;
#22 = DIRECTION ( 'NONE',  ( 1.000000000000000000, -0.000000000000000000, 1.734723475976807403E-17 ) ) ;
#23 = EDGE_LOOP ( 'NONE', ( #372, #165, #948, #633 ) ) ;
#24 = EDGE_CURVE ( 'NONE', #306, #170, #800, .T. ) ;
#25 = LINE ( 'NONE', #1050, #1200 ) ;
#26 = CARTESIAN_POINT ( 'NONE',  ( 138.3273854894824240, 3.000000000000000000, -9.999736353167559599 ) ) ;
#27 = ORIENTED_EDGE ( 'NONE', *, *, #1205, .F. ) ;
#28 = CARTESIAN_POINT ( 'NONE',  ( -0.07261451051828989034, -43.00000000000000000, 9.999736353167531178 ) ) ;
#29 = AXIS2_PLACEMENT_3D ( 'NONE', #743, #387, #565 ) ;
#30 = LINE ( 'NONE', #968, #867 ) ;
#31 = VECTOR ( 'NONE', #190, 1000.000000000000000 ) ;
#32 = DIRECTION ( 'NONE',  ( 1.000000000000000000, -0.000000000000000000, 1.451090930900692498E-15 ) ) ;
#33 = LINE ( 'NONE', #141, #863 ) ;
#34 = ADVANCED_FACE ( 'NONE', ( #701 ), #707, .F. ) ;
#35 = DIRECTION ( 'NONE',  ( -0.000000000000000000, -1.000000000000000000, -0.000000000000000000 ) ) ;
#36 = PLANE ( 'NONE',  #314 ) ;
#37 = LINE ( 'NONE', #536, #14 ) ;
#38 = CARTESIAN_POINT ( 'NONE',  ( 218.3273854894824524, 3.000000000000000000, -280.0007909404973248 ) ) ;
#39 = MECHANICAL_CONTEXT ( 'NONE', #906, 'mechanical' ) ;
#40 = DIRECTION ( 'NONE',  ( 5.550529771288670484E-15, -0.000000000000000000, 1.000000000000000000 ) ) ;
#41 = LINE ( 'NONE', #217, #266 ) ;
#42 = CARTESIAN_POINT ( 'NONE',  ( -0.07261451051828989034, 3.000000000000000000, 9.999736353167531178 ) ) ;
#43 = CARTESIAN_POINT ( 'NONE',  ( 238.3273854894817134, 3.000000000000000000, -155.0002636468324795 ) ) ;
#44 = PERSON_AND_ORGANIZATION ( #1226, #725 ) ;
#45 = CARTESIAN_POINT ( 'NONE',  ( 218.3273854894824524, -43.00000000000000000, -215.0002636468324511 ) ) ;
#46 = CARTESIAN_POINT ( 'NONE',  ( 0.07261451051828989034, -39.99999999999999289, -9.999736353167531178 ) ) ;
#47 = DIRECTION ( 'NONE',  ( -0.000000000000000000, -1.000000000000000000, -0.000000000000000000 ) ) ;
#48 = DIRECTION ( 'NONE',  ( -0.000000000000000000, -1.000000000000000000, -0.000000000000000000 ) ) ;
#49 = DIRECTION ( 'NONE',  ( -0.000000000000000000, -1.000000000000000000, -0.000000000000000000 ) ) ;
#50 = LINE ( 'NONE', #1070, #1155 ) ;
#51 = VECTOR ( 'NONE', #1088, 1000.000000000000000 ) ;
#52 = DIRECTION ( 'NONE',  ( 1.000000000000000000, 0.000000000000000000, 0.000000000000000000 ) ) ;
#53 = ORIENTED_EDGE ( 'NONE', *, *, #595, .T. ) ;
#54 = AXIS2_PLACEMENT_3D ( 'NONE', #694, #226, #505 ) ;
#55 = FACE_OUTER_BOUND ( 'NONE', #432, .T. ) ;
#56 = LINE ( 'NONE', #340, #724 ) ;
#57 = DIRECTION ( 'NONE',  ( 0.000000000000000000, 0.000000000000000000, 1.000000000000000000 ) ) ;
#58 = AXIS2_PLACEMENT_3D ( 'NONE', #852, #949, #556 ) ;
#59 = CARTESIAN_POINT ( 'NONE',  ( -0.07261451051828989034, -39.99999999999999289, 9.999736353167531178 ) ) ;
#60 = FACE_OUTER_BOUND ( 'NONE', #153, .T. ) ;
#61 = EDGE_CURVE ( 'NONE', #544, #663, #1075, .T. ) ;
#62 = DIRECTION ( 'NONE',  ( 0.000000000000000000, 0.000000000000000000, 1.000000000000000000 ) ) ;
#63 = CARTESIAN_POINT ( 'NONE',  ( -0.07261451051832458481, 0.000000000000000000, -380.0002636468324226 ) ) ;
#64 = ORIENTED_EDGE ( 'NONE', *, *, #856, .T. ) ;
#65 = EDGE_CURVE ( 'NONE', #934, #950, #889, .T. ) ;
#66 = ORIENTED_EDGE ( 'NONE', *, *, #1205, .T. ) ;
#67 = DIRECTION ( 'NONE',  ( 5.551115123125901031E-15, 0.000000000000000000, 1.000000000000000000 ) ) ;
#68 = ORIENTED_EDGE ( 'NONE', *, *, #263, .T. ) ;
#69 = EDGE_CURVE ( 'NONE', #848, #568, #789, .T. ) ;
#70 = ORIENTED_EDGE ( 'NONE', *, *, #318, .T. ) ;
#71 = DIRECTION ( 'NONE',  ( 0.000000000000000000, -0.000000000000000000, 1.000000000000000000 ) ) ;
#72 = ADVANCED_FACE ( 'NONE', ( #1083 ), #987, .F. ) ;
#73 = CARTESIAN_POINT ( 'NONE',  ( 218.3273854894824524, 3.000000000000000000, -215.0002636468324511 ) ) ;
#74 = CYLINDRICAL_SURFACE ( 'NONE', #1104, 80.00000000000000000 ) ;
#75 = DIRECTION ( 'NONE',  ( -1.000000000000000000, 0.000000000000000000, 0.000000000000000000 ) ) ;
#76 = ORIENTED_EDGE ( 'NONE', *, *, #1055, .F. ) ;
#77 = ORIENTED_EDGE ( 'NONE', *, *, #864, .T. ) ;
#78 = VECTOR ( 'NONE', #442, 1000.000000000000000 ) ;
#79 = CARTESIAN_POINT ( 'NONE',  ( 218.3273854894824524, -43.00000000000000000, -89.99973635316759157 ) ) ;
#80 = CARTESIAN_POINT ( 'NONE',  ( 218.3273854894824524, 0.000000000000000000, -215.0002636468324511 ) ) ;
#81 = AXIS2_PLACEMENT_3D ( 'NONE', #147, #900, #57 ) ;
#82 = AXIS2_PLACEMENT_3D ( 'NONE', #257, #1030, #185 ) ;
#83 = DIRECTION ( 'NONE',  ( -0.000000000000000000, -1.000000000000000000, -0.000000000000000000 ) ) ;
#84 = CARTESIAN_POINT ( 'NONE',  ( 0.07261451051828989034, -39.99999999999999289, -9.999736353167531178 ) ) ;
#85 = DIRECTION ( 'NONE',  ( 1.000000000000000000, -0.000000000000000000, 4.625929269271489858E-16 ) ) ;
#86 = ORIENTED_EDGE ( 'NONE', *, *, #838, .F. ) ;
#87 = ORIENTED_EDGE ( 'NONE', *, *, #253, .F. ) ;
#88 = DIRECTION ( 'NONE',  ( -1.000000000000000000, 0.000000000000000000, 7.708920570409924211E-16 ) ) ;
#89 = ORIENTED_EDGE ( 'NONE', *, *, #678, .T. ) ;
#90 = ORIENTED_EDGE ( 'NONE', *, *, #125, .F. ) ;
#91 = DIRECTION ( 'NONE',  ( 1.000000000000000000, 0.000000000000000000, 0.000000000000000000 ) ) ;
#92 = ORIENTED_EDGE ( 'NONE', *, *, #395, .T. ) ;
#93 = FACE_OUTER_BOUND ( 'NONE', #732, .T. ) ;
#94 = VERTEX_POINT ( 'NONE', #1190 ) ;
#95 = ORIENTED_EDGE ( 'NONE', *, *, #65, .F. ) ;
#96 = ADVANCED_FACE ( 'NONE', ( #282 ), #74, .F. ) ;
#97 = CARTESIAN_POINT ( 'NONE',  ( 238.3273854894817134, 3.000000000000000000, -215.0002636468324511 ) ) ;
#98 = ORIENTED_EDGE ( 'NONE', *, *, #577, .T. ) ;
#99 = VECTOR ( 'NONE', #996, 1000.000000000000000 ) ;
#100 = CARTESIAN_POINT ( 'NONE',  ( 99.92738548948166510, -39.99999999999999289, -380.0002636468324226 ) ) ;
#101 = VECTOR ( 'NONE', #148, 1000.000000000000000 ) ;
#102 = CC_DESIGN_SECURITY_CLASSIFICATION ( #121, ( #476 ) ) ;
#103 = EDGE_CURVE ( 'NONE', #463, #773, #631, .T. ) ;
#104 = VERTEX_POINT ( 'NONE', #587 ) ;
#105 = CARTESIAN_POINT ( 'NONE',  ( 138.3273854894823955, 3.000000000000000000, -360.0007909404973248 ) ) ;
#106 = VERTEX_POINT ( 'NONE', #116 ) ;
#107 = DIRECTION ( 'NONE',  ( -1.000000000000000000, 0.000000000000000000, 0.000000000000000000 ) ) ;
#108 = VERTEX_POINT ( 'NONE', #1080 ) ;
#109 = LINE ( 'NONE', #672, #300 ) ;
#110 = ORIENTED_EDGE ( 'NONE', *, *, #103, .T. ) ;
#111 = DIRECTION ( 'NONE',  ( 1.000000000000000000, 0.000000000000000000, 0.000000000000000000 ) ) ;
#112 = ORIENTED_EDGE ( 'NONE', *, *, #499, .F. ) ;
#113 = LINE ( 'NONE', #857, #1201 ) ;
#114 = ORIENTED_EDGE ( 'NONE', *, *, #180, .F. ) ;
#115 = PLANE ( 'NONE',  #120 ) ;
#116 = CARTESIAN_POINT ( 'NONE',  ( 218.3273854894824524, 0.000000000000000000, -280.0007909404973248 ) ) ;
#117 = ADVANCED_FACE ( 'NONE', ( #418 ), #551, .F. ) ;
#118 = DIRECTION ( 'NONE',  ( 4.625929269271489858E-16, 0.000000000000000000, -1.000000000000000000 ) ) ;
#119 = AXIS2_PLACEMENT_3D ( 'NONE', #46, #1093, #555 ) ;
#120 = AXIS2_PLACEMENT_3D ( 'NONE', #969, #85, #1229 ) ;
#121 = SECURITY_CLASSIFICATION ( '', '', #324 ) ;
#122 = ORIENTED_EDGE ( 'NONE', *, *, #213, .F. ) ;
#123 = DIRECTION ( 'NONE',  ( 5.551115123125856066E-15, -0.000000000000000000, -1.000000000000000000 ) ) ;
#124 = CARTESIAN_POINT ( 'NONE',  ( 238.3273854894817134, -43.00000000000000000, -155.0002636468324795 ) ) ;
#125 = EDGE_CURVE ( 'NONE', #773, #836, #496, .T. ) ;
#126 = DIRECTION ( 'NONE',  ( 1.000000000000000000, -0.000000000000000000, -0.000000000000000000 ) ) ;
#127 = DIRECTION ( 'NONE',  ( -0.000000000000000000, -1.000000000000000000, -0.000000000000000000 ) ) ;
#128 = EDGE_CURVE ( 'NONE', #568, #572, #733, .T. ) ;
#129 = CARTESIAN_POINT ( 'NONE',  ( 138.3273854894817134, -43.00000000000000000, 9.999736353167461900 ) ) ;
#130 = CARTESIAN_POINT ( 'NONE',  ( 138.3273854894816566, 3.000000000000000000, -380.0002636468323658 ) ) ;
#131 = EDGE_CURVE ( 'NONE', #94, #934, #390, .T. ) ;
#132 = DIRECTION ( 'NONE',  ( 0.000000000000000000, 0.000000000000000000, -1.000000000000000000 ) ) ;
#133 = VECTOR ( 'NONE', #123, 1000.000000000000000 ) ;
#134 = CARTESIAN_POINT ( 'NONE',  ( 138.3273854894824240, -43.00000000000000000, -89.99973635316756315 ) ) ;
#135 = APPROVAL_PERSON_ORGANIZATION ( #835, #824, #940 ) ;
#136 = CARTESIAN_POINT ( 'NONE',  ( 238.3273854894817134, -39.99999999999999289, -95.00026364683247948 ) ) ;
#137 = DIRECTION ( 'NONE',  ( -0.000000000000000000, -1.000000000000000000, -0.000000000000000000 ) ) ;
#138 = ADVANCED_FACE ( 'NONE', ( #808 ), #1167, .F. ) ;
#139 = DIRECTION ( 'NONE',  ( 0.000000000000000000, 0.000000000000000000, 1.000000000000000000 ) ) ;
#140 = CARTESIAN_POINT ( 'NONE',  ( 138.3273854894824240, -39.99999999999999289, -89.99973635316756315 ) ) ;
#141 = CARTESIAN_POINT ( 'NONE',  ( 238.3273854894817134, 0.000000000000000000, -215.0002636468324511 ) ) ;
#142 = CARTESIAN_POINT ( 'NONE',  ( 218.3273854894824524, -39.99999999999999289, -155.0002636468325079 ) ) ;
#143 = DIRECTION ( 'NONE',  ( 0.9999736353167627545, 0.000000000000000000, -0.007261451051829232242 ) ) ;
#144 = EDGE_LOOP ( 'NONE', ( #68, #929, #404, #66 ) ) ;
#145 = ADVANCED_FACE ( 'NONE', ( #230 ), #1064, .F. ) ;
#146 = CARTESIAN_POINT ( 'NONE',  ( 218.3273854894824524, -39.99999999999999289, -89.99973635316759157 ) ) ;
#147 = CARTESIAN_POINT ( 'NONE',  ( 138.3273854894817134, 3.000000000000000000, -280.0002636468323658 ) ) ;
#148 = DIRECTION ( 'NONE',  ( -0.000000000000000000, -1.000000000000000000, -0.000000000000000000 ) ) ;
#149 = EDGE_CURVE ( 'NONE', #1147, #773, #472, .T. ) ;
#150 = CARTESIAN_POINT ( 'NONE',  ( -0.07261451051832458481, -39.99999999999999289, -380.0002636468324226 ) ) ;
#151 = CIRCLE ( 'NONE', #352, 79.99999999999998579 ) ;
#152 = PERSON_AND_ORGANIZATION_ROLE ( 'creator' ) ;
#153 = EDGE_LOOP ( 'NONE', ( #163, #462, #244, #639 ) ) ;
#154 = ORIENTED_EDGE ( 'NONE', *, *, #785, .T. ) ;
#155 = CIRCLE ( 'NONE', #221, 79.99999999999998579 ) ;
#156 = DIRECTION ( 'NONE',  ( -0.000000000000000000, -1.000000000000000000, -0.000000000000000000 ) ) ;
#157 = VECTOR ( 'NONE', #127, 1000.000000000000000 ) ;
#158 = CARTESIAN_POINT ( 'NONE',  ( 238.3273854894817134, 0.000000000000000000, -95.00026364683247948 ) ) ;
#159 = EDGE_CURVE ( 'NONE', #710, #1116, #1160, .T. ) ;
#160 = ORIENTED_EDGE ( 'NONE', *, *, #1063, .T. ) ;
#161 = DATE_AND_TIME ( #240, #357 ) ;
#162 = VERTEX_POINT ( 'NONE', #675 ) ;
#163 = ORIENTED_EDGE ( 'NONE', *, *, #985, .T. ) ;
#164 = CARTESIAN_POINT ( 'NONE',  ( 238.3273854894817134, 3.000000000000000000, -155.0002636468324795 ) ) ;
#165 = ORIENTED_EDGE ( 'NONE', *, *, #313, .F. ) ;
#166 = ORIENTED_EDGE ( 'NONE', *, *, #131, .T. ) ;
#167 = DIRECTION ( 'NONE',  ( -1.000000000000000000, 0.000000000000000000, -1.451090930900692301E-15 ) ) ;
#168 = LINE ( 'NONE', #546, #1143 ) ;
#169 = CARTESIAN_POINT ( 'NONE',  ( -0.07261451051828989034, -39.99999999999999289, 9.999736353167531178 ) ) ;
#170 = VERTEX_POINT ( 'NONE', #498 ) ;
#171 = VERTEX_POINT ( 'NONE', #129 ) ;
#172 = AXIS2_PLACEMENT_3D ( 'NONE', #140, #223, #790 ) ;
#173 = DIRECTION ( 'NONE',  ( -0.000000000000000000, -1.000000000000000000, -0.000000000000000000 ) ) ;
#174 = AXIS2_PLACEMENT_3D ( 'NONE', #405, #35, #419 ) ;
#175 = VECTOR ( 'NONE', #503, 1000.000000000000227 ) ;
#176 = EDGE_LOOP ( 'NONE', ( #1133, #567, #1141, #1182, #1112, #87, #649, #1217 ) ) ;
#177 = EDGE_LOOP ( 'NONE', ( #656, #559, #739, #702, #354, #687, #671, #1203 ) ) ;
#178 = DIRECTION ( 'NONE',  ( -1.000000000000000000, 0.000000000000000000, -1.387778780781496754E-15 ) ) ;
#179 = EDGE_LOOP ( 'NONE', ( #427, #122, #312, #853 ) ) ;
#180 = EDGE_CURVE ( 'NONE', #817, #811, #501, .T. ) ;
#181 = CARTESIAN_POINT ( 'NONE',  ( 138.3273854894816566, -39.99999999999999289, -380.0002636468323658 ) ) ;
#182 = ORIENTED_EDGE ( 'NONE', *, *, #399, .T. ) ;
#183 = ORIENTED_EDGE ( 'NONE', *, *, #410, .F. ) ;
#184 = DIRECTION ( 'NONE',  ( 1.000000000000000000, -0.000000000000000000, 1.451090930900692498E-15 ) ) ;
#185 = DIRECTION ( 'NONE',  ( 0.000000000000000000, 0.000000000000000000, -1.000000000000000000 ) ) ;
#186 = ORIENTED_EDGE ( 'NONE', *, *, #499, .T. ) ;
#187 = CARTESIAN_POINT ( 'NONE',  ( 238.3273854894816850, 3.000000000000000000, -90.00026364683253632 ) ) ;
#188 = ORIENTED_EDGE ( 'NONE', *, *, #971, .T. ) ;
#189 = CARTESIAN_POINT ( 'NONE',  ( 0.07261451051828989034, -43.00000000000000000, -9.999736353167531178 ) ) ;
#190 = DIRECTION ( 'NONE',  ( -0.000000000000000000, -1.000000000000000000, -0.000000000000000000 ) ) ;
#191 = ORIENTED_EDGE ( 'NONE', *, *, #594, .F. ) ;
#192 = VECTOR ( 'NONE', #132, 1000.000000000000000 ) ;
#193 = DESIGN_CONTEXT ( 'detailed design', #1069, 'design' ) ;
#194 = AXIS2_PLACEMENT_3D ( 'NONE', #589, #393, #583 ) ;
#195 = DIRECTION ( 'NONE',  ( 0.000000000000000000, 1.000000000000000000, 0.000000000000000000 ) ) ;
#196 = DIRECTION ( 'NONE',  ( 0.000000000000000000, 0.000000000000000000, 1.000000000000000000 ) ) ;
#197 = VERTEX_POINT ( 'NONE', #335 ) ;
#198 = EDGE_CURVE ( 'NONE', #394, #836, #519, .T. ) ;
#199 = EDGE_LOOP ( 'NONE', ( #98, #964, #1061, #452 ) ) ;
#200 = DIRECTION ( 'NONE',  ( 0.000000000000000000, -1.000000000000000000, 0.000000000000000000 ) ) ;
#201 = ORIENTED_EDGE ( 'NONE', *, *, #149, .T. ) ;
#202 = EDGE_CURVE ( 'NONE', #104, #415, #720, .T. ) ;
#203 = DIRECTION ( 'NONE',  ( 0.000000000000000000, 1.000000000000000000, -0.000000000000000000 ) ) ;
#204 = DIRECTION ( 'NONE',  ( -0.000000000000000000, -1.000000000000000000, -0.000000000000000000 ) ) ;
#205 = PRODUCT_RELATED_PRODUCT_CATEGORY ( 'detail', '', ( #327 ) ) ;
#206 = VERTEX_POINT ( 'NONE', #616 ) ;
#207 = PLANE ( 'NONE',  #271 ) ;
#208 = VECTOR ( 'NONE', #1166, 1000.000000000000000 ) ;
#209 = VECTOR ( 'NONE', #238, 1000.000000000000000 ) ;
#210 = VECTOR ( 'NONE', #839, 1000.000000000000000 ) ;
#211 = LINE ( 'NONE', #774, #416 ) ;
#212 = ADVANCED_FACE ( 'NONE', ( #893 ), #604, .T. ) ;
#213 = EDGE_CURVE ( 'NONE', #1228, #1147, #343, .T. ) ;
#214 = DIRECTION ( 'NONE',  ( 5.551115123125901031E-15, 0.000000000000000000, 1.000000000000000000 ) ) ;
#215 = EDGE_CURVE ( 'NONE', #1230, #666, #994, .T. ) ;
#216 = APPROVAL_DATE_TIME ( #161, #772 ) ;
#217 = CARTESIAN_POINT ( 'NONE',  ( 138.3273854894816566, -39.99999999999999289, -380.0002636468323658 ) ) ;
#218 = APPROVAL ( #781, 'UNSPECIFIED' ) ;
#219 = AXIS2_PLACEMENT_3D ( 'NONE', #42, #805, #911 ) ;
#220 = ORIENTED_EDGE ( 'NONE', *, *, #10, .T. ) ;
#221 = AXIS2_PLACEMENT_3D ( 'NONE', #447, #49, #706 ) ;
#222 = ADVANCED_FACE ( 'NONE', ( #887 ), #903, .F. ) ;
#223 = DIRECTION ( 'NONE',  ( 0.000000000000000000, -1.000000000000000000, 0.000000000000000000 ) ) ;
#224 = AXIS2_PLACEMENT_3D ( 'NONE', #896, #517, #52 ) ;
#225 = PERSON_AND_ORGANIZATION_ROLE ( 'creator' ) ;
#226 = DIRECTION ( 'NONE',  ( 0.000000000000000000, 1.000000000000000000, 0.000000000000000000 ) ) ;
#227 = DIRECTION ( 'NONE',  ( -0.000000000000000000, -1.000000000000000000, -0.000000000000000000 ) ) ;
#228 = ADVANCED_FACE ( 'NONE', ( #1172 ), #36, .F. ) ;
#229 = DIRECTION ( 'NONE',  ( 0.9999736353167627545, -0.000000000000000000, 0.007261451051829060505 ) ) ;
#230 = FACE_OUTER_BOUND ( 'NONE', #1092, .T. ) ;
#231 = APPROVAL_DATE_TIME ( #982, #218 ) ;
#232 = ORIENTED_EDGE ( 'NONE', *, *, #1015, .T. ) ;
#233 = LINE ( 'NONE', #521, #796 ) ;
#234 = LINE ( 'NONE', #1087, #976 ) ;
#235 = CARTESIAN_POINT ( 'NONE',  ( 138.3273854894817134, 0.000000000000000000, -280.0002636468323658 ) ) ;
#236 = EDGE_CURVE ( 'NONE', #402, #1220, #705, .T. ) ;
#237 = LINE ( 'NONE', #158, #192 ) ;
#238 = DIRECTION ( 'NONE',  ( 0.000000000000000000, 0.000000000000000000, -1.000000000000000000 ) ) ;
#239 = DIRECTION ( 'NONE',  ( -0.000000000000000000, -1.000000000000000000, -0.000000000000000000 ) ) ;
#240 = CALENDAR_DATE ( 2026, 31, 7 ) ;
#241 = ORIENTED_EDGE ( 'NONE', *, *, #1057, .F. ) ;
#242 = LINE ( 'NONE', #674, #398 ) ;
#243 = DIRECTION ( 'NONE',  ( 0.000000000000000000, -1.000000000000000000, 0.000000000000000000 ) ) ;
#244 = ORIENTED_EDGE ( 'NONE', *, *, #1154, .F. ) ;
#245 = CARTESIAN_POINT ( 'NONE',  ( -0.07261451051828989034, -43.00000000000000000, 9.999736353167531178 ) ) ;
#246 = VECTOR ( 'NONE', #32, 1000.000000000000000 ) ;
#247 = APPROVAL_STATUS ( 'not_yet_approved' ) ;
#248 = ORIENTED_EDGE ( 'NONE', *, *, #433, .T. ) ;
#249 = ORIENTED_EDGE ( 'NONE', *, *, #3, .F. ) ;
#250 = VECTOR ( 'NONE', #794, 1000.000000000000000 ) ;
#251 = CARTESIAN_POINT ( 'NONE',  ( 138.3273854894824240, 3.000000000000000000, -89.99973635316756315 ) ) ;
#252 = VECTOR ( 'NONE', #173, 1000.000000000000000 ) ;
#253 = EDGE_CURVE ( 'NONE', #1016, #950, #237, .T. ) ;
#254 = DIRECTION ( 'NONE',  ( 0.000000000000000000, 0.000000000000000000, -1.000000000000000000 ) ) ;
#255 = CARTESIAN_POINT ( 'NONE',  ( 218.3273854894824524, 0.000000000000000000, -215.0002636468324511 ) ) ;
#256 = ORIENTED_EDGE ( 'NONE', *, *, #236, .T. ) ;
#257 = CARTESIAN_POINT ( 'NONE',  ( 138.3273854894817134, 3.000000000000000000, -90.00026364683252211 ) ) ;
#258 = CARTESIAN_POINT ( 'NONE',  ( 238.3273854894817134, -43.00000000000000000, -95.00026364683247948 ) ) ;
#259 = DIRECTION ( 'NONE',  ( -0.000000000000000000, -1.000000000000000000, -0.000000000000000000 ) ) ;
#260 = ORIENTED_EDGE ( 'NONE', *, *, #131, .F. ) ;
#261 = ORIENTED_EDGE ( 'NONE', *, *, #708, .F. ) ;
#262 = CARTESIAN_POINT ( 'NONE',  ( 238.3273854894817134, -39.99999999999999289, -275.0002636468324795 ) ) ;
#263 = EDGE_CURVE ( 'NONE', #937, #666, #508, .T. ) ;
#264 = ORIENTED_EDGE ( 'NONE', *, *, #253, .T. ) ;
#265 = VERTEX_POINT ( 'NONE', #812 ) ;
#266 = VECTOR ( 'NONE', #1079, 1000.000000000000000 ) ;
#267 = FACE_OUTER_BOUND ( 'NONE', #652, .T. ) ;
#268 = CARTESIAN_POINT ( 'NONE',  ( 238.3273854894816850, 0.000000000000000000, -90.00026364683253632 ) ) ;
#269 = ORIENTED_EDGE ( 'NONE', *, *, #952, .T. ) ;
#270 = VECTOR ( 'NONE', #88, 1000.000000000000000 ) ;
#271 = AXIS2_PLACEMENT_3D ( 'NONE', #865, #766, #18 ) ;
#272 = LINE ( 'NONE', #1130, #682 ) ;
#273 = DIRECTION ( 'NONE',  ( 0.000000000000000000, -0.000000000000000000, -1.000000000000000000 ) ) ;
#274 = SHAPE_DEFINITION_REPRESENTATION ( #1073, #1173 ) ;
#275 = ORIENTED_EDGE ( 'NONE', *, *, #1005, .T. ) ;
#276 = ORIENTED_EDGE ( 'NONE', *, *, #198, .T. ) ;
#277 = EDGE_CURVE ( 'NONE', #950, #959, #233, .T. ) ;
#278 = CARTESIAN_POINT ( 'NONE',  ( 138.3273854894817134, -39.99999999999999289, 9.999736353167461900 ) ) ;
#279 = ORIENTED_EDGE ( 'NONE', *, *, #1055, .T. ) ;
#280 = EDGE_CURVE ( 'NONE', #197, #818, #1169, .T. ) ;
#281 = LINE ( 'NONE', #659, #400 ) ;
#282 = FACE_OUTER_BOUND ( 'NONE', #293, .T. ) ;
#283 = DIRECTION ( 'NONE',  ( -0.000000000000000000, -1.000000000000000000, -0.000000000000000000 ) ) ;
#284 = DIRECTION ( 'NONE',  ( -0.000000000000000000, -1.000000000000000000, -0.000000000000000000 ) ) ;
#285 = DIRECTION ( 'NONE',  ( -1.000000000000000000, 0.000000000000000000, -1.387778780781496754E-15 ) ) ;
#286 = ORIENTED_EDGE ( 'NONE', *, *, #1164, .F. ) ;
#287 = ORIENTED_EDGE ( 'NONE', *, *, #999, .F. ) ;
#288 = FACE_OUTER_BOUND ( 'NONE', #1023, .T. ) ;
#289 = ORIENTED_EDGE ( 'NONE', *, *, #757, .F. ) ;
#290 = CARTESIAN_POINT ( 'NONE',  ( 138.3273854894824240, -39.99999999999999289, -280.0007909404973248 ) ) ;
#291 = EDGE_CURVE ( 'NONE', #544, #817, #778, .T. ) ;
#292 = DIRECTION ( 'NONE',  ( 0.000000000000000000, -0.000000000000000000, 1.000000000000000000 ) ) ;
#293 = EDGE_LOOP ( 'NONE', ( #611, #114, #1174, #770 ) ) ;
#294 = MANIFOLD_SOLID_BREP ( 'Boss-Extrude1[1]', #1052 ) ;
#295 = DIRECTION ( 'NONE',  ( -1.000000000000000000, 0.000000000000000000, 1.445602896647339114E-15 ) ) ;
#296 = ORIENTED_EDGE ( 'NONE', *, *, #873, .T. ) ;
#297 = CLOSED_SHELL ( 'NONE', ( #348, #573, #530, #668, #34, #444, #882, #542, #729, #763 ) ) ;
#298 = AXIS2_PLACEMENT_3D ( 'NONE', #1113, #608, #67 ) ;
#299 = CARTESIAN_POINT ( 'NONE',  ( 218.3273854894824524, -43.00000000000000000, -155.0002636468325079 ) ) ;
#300 = VECTOR ( 'NONE', #591, 1000.000000000000000 ) ;
#301 = FACE_OUTER_BOUND ( 'NONE', #645, .T. ) ;
#302 = ORIENTED_EDGE ( 'NONE', *, *, #712, .T. ) ;
#303 = CARTESIAN_POINT ( 'NONE',  ( 138.3273854894817134, 0.000000000000000000, -90.00026364683252211 ) ) ;
#304 = ORIENTED_EDGE ( 'NONE', *, *, #433, .F. ) ;
#305 = LINE ( 'NONE', #588, #548 ) ;
#306 = VERTEX_POINT ( 'NONE', #45 ) ;
#307 = LINE ( 'NONE', #130, #977 ) ;
#308 = MANIFOLD_SOLID_BREP ( 'Boss-Extrude1[2]', #297 ) ;
#309 = ORIENTED_EDGE ( 'NONE', *, *, #202, .F. ) ;
#310 = EDGE_CURVE ( 'NONE', #265, #162, #793, .T. ) ;
#311 = CARTESIAN_POINT ( 'NONE',  ( 218.3273854894824524, 3.000000000000000000, -280.0007909404973248 ) ) ;
#312 = ORIENTED_EDGE ( 'NONE', *, *, #621, .F. ) ;
#313 = EDGE_CURVE ( 'NONE', #568, #920, #1177, .T. ) ;
#314 = AXIS2_PLACEMENT_3D ( 'NONE', #788, #713, #1096 ) ;
#315 = CIRCLE ( 'NONE', #1199, 80.00000000000000000 ) ;
#316 = VECTOR ( 'NONE', #391, 1000.000000000000000 ) ;
#317 = DIRECTION ( 'NONE',  ( -1.000000000000000000, 0.000000000000000000, -1.445602896647340100E-15 ) ) ;
#318 = EDGE_CURVE ( 'NONE', #1008, #553, #689, .T. ) ;
#319 = FACE_OUTER_BOUND ( 'NONE', #767, .T. ) ;
#320 = CARTESIAN_POINT ( 'NONE',  ( 138.3273854894817134, 3.000000000000000000, 9.999736353167461900 ) ) ;
#321 = CARTESIAN_POINT ( 'NONE',  ( 0.07261451051828989034, 0.000000000000000000, -9.999736353167531178 ) ) ;
#322 = CARTESIAN_POINT ( 'NONE',  ( 138.3273854894824240, -43.00000000000000000, -89.99973635316756315 ) ) ;
#323 = CARTESIAN_POINT ( 'NONE',  ( -0.07261451051832458481, 0.000000000000000000, -380.0002636468324226 ) ) ;
#324 = SECURITY_CLASSIFICATION_LEVEL ( 'unclassified' ) ;
#325 = DIRECTION ( 'NONE',  ( -0.000000000000000000, -1.000000000000000000, -0.000000000000000000 ) ) ;
#326 = CYLINDRICAL_SURFACE ( 'NONE', #683, 100.0000000000000000 ) ;
#327 = PRODUCT ( 'Link1StellConnectors_Default_sldprt', 'Link1StellConnectors_Default_sldprt', '', ( #39 ) ) ;
#328 = VECTOR ( 'NONE', #918, 1000.000000000000000 ) ;
#329 = DIRECTION ( 'NONE',  ( 0.000000000000000000, 0.000000000000000000, -1.000000000000000000 ) ) ;
#330 = CIRCLE ( 'NONE', #529, 100.0000000000000000 ) ;
#331 = AXIS2_PLACEMENT_3D ( 'NONE', #761, #1140, #295 ) ;
#332 = PERSON_AND_ORGANIZATION_ROLE ( 'classification_officer' ) ;
#333 = VERTEX_POINT ( 'NONE', #898 ) ;
#334 = DIRECTION ( 'NONE',  ( 1.000000000000000000, -0.000000000000000000, 4.625929269271489858E-16 ) ) ;
#335 = CARTESIAN_POINT ( 'NONE',  ( 138.3273854894816566, 3.000000000000000000, -380.0002636468323658 ) ) ;
#336 = CARTESIAN_POINT ( 'NONE',  ( 99.92738548948166510, 3.000000000000000000, -380.0002636468324226 ) ) ;
#337 = DIRECTION ( 'NONE',  ( 1.000000000000000000, -0.000000000000000000, -0.000000000000000000 ) ) ;
#338 = VERTEX_POINT ( 'NONE', #434 ) ;
#339 = LINE ( 'NONE', #607, #1059 ) ;
#340 = CARTESIAN_POINT ( 'NONE',  ( 238.3273854894816850, -39.99999999999999289, -90.00026364683253632 ) ) ;
#341 = CLOSED_SHELL ( 'NONE', ( #833, #1213, #497, #1231, #804, #228, #117, #145, #138, #212 ) ) ;
#342 = EDGE_CURVE ( 'NONE', #818, #1220, #272, .T. ) ;
#343 = LINE ( 'NONE', #691, #506 ) ;
#344 = CARTESIAN_POINT ( 'NONE',  ( 218.3273854894824808, 3.000000000000000000, -275.0002636468323658 ) ) ;
#345 = APPLICATION_PROTOCOL_DEFINITION ( 'international standard', 'config_control_design', 1994, #906 ) ;
#346 = ORIENTED_EDGE ( 'NONE', *, *, #395, .F. ) ;
#347 = VERTEX_POINT ( 'NONE', #939 ) ;
#348 = ADVANCED_FACE ( 'NONE', ( #541 ), #564, .T. ) ;
#349 = DIRECTION ( 'NONE',  ( 4.625929269271485914E-16, 0.000000000000000000, 1.000000000000000000 ) ) ;
#350 = EDGE_CURVE ( 'NONE', #94, #1016, #822, .T. ) ;
#351 = CARTESIAN_POINT ( 'NONE',  ( 138.3273854894823955, -39.99999999999999289, -360.0007909404973248 ) ) ;
#352 = AXIS2_PLACEMENT_3D ( 'NONE', #1224, #259, #654 ) ;
#353 = CIRCLE ( 'NONE', #622, 79.99999999999998579 ) ;
#354 = ORIENTED_EDGE ( 'NONE', *, *, #577, .F. ) ;
#355 = EDGE_LOOP ( 'NONE', ( #1029, #731, #309, #1028 ) ) ;
#356 = VECTOR ( 'NONE', #923, 1000.000000000000000 ) ;
#357 = LOCAL_TIME ( 13, 48, 54.00000000000000000, #626 ) ;
#358 = ORIENTED_EDGE ( 'NONE', *, *, #686, .T. ) ;
#359 = ORIENTED_EDGE ( 'NONE', *, *, #776, .F. ) ;
#360 = CC_DESIGN_PERSON_AND_ORGANIZATION_ASSIGNMENT ( #606, #152, ( #476 ) ) ;
#361 = LINE ( 'NONE', #657, #744 ) ;
#362 = CARTESIAN_POINT ( 'NONE',  ( -0.07261451051832458481, 3.000000000000000000, -380.0002636468324226 ) ) ;
#363 = ADVANCED_FACE ( 'NONE', ( #933 ), #370, .F. ) ;
#364 = DIRECTION ( 'NONE',  ( 0.000000000000000000, 0.000000000000000000, -1.000000000000000000 ) ) ;
#365 = DIRECTION ( 'NONE',  ( -0.000000000000000000, -1.000000000000000000, -0.000000000000000000 ) ) ;
#366 = ORIENTED_EDGE ( 'NONE', *, *, #3, .T. ) ;
#367 = ORIENTED_EDGE ( 'NONE', *, *, #621, .T. ) ;
#368 = LINE ( 'NONE', #262, #1062 ) ;
#369 = EDGE_CURVE ( 'NONE', #206, #848, #151, .T. ) ;
#370 = PLANE ( 'NONE',  #875 ) ;
#371 = DIRECTION ( 'NONE',  ( 0.000000000000000000, -1.000000000000000000, 0.000000000000000000 ) ) ;
#372 = ORIENTED_EDGE ( 'NONE', *, *, #375, .T. ) ;
#373 = ORIENTED_EDGE ( 'NONE', *, *, #492, .F. ) ;
#374 = VECTOR ( 'NONE', #325, 1000.000000000000000 ) ;
#375 = EDGE_CURVE ( 'NONE', #106, #920, #558, .T. ) ;
#376 = CARTESIAN_POINT ( 'NONE',  ( 0.07261451051825866532, -39.99999999999999289, -360.0007909404973816 ) ) ;
#377 = ORIENTED_EDGE ( 'NONE', *, *, #873, .F. ) ;
#378 = AXIS2_PLACEMENT_3D ( 'NONE', #401, #334, #118 ) ;
#379 = AXIS2_PLACEMENT_3D ( 'NONE', #1157, #966, #214 ) ;
#380 = ORIENTED_EDGE ( 'NONE', *, *, #864, .F. ) ;
#381 = EDGE_LOOP ( 'NONE', ( #160, #373, #459, #942 ) ) ;
#382 = EDGE_CURVE ( 'NONE', #415, #532, #632, .T. ) ;
#383 = DIRECTION ( 'NONE',  ( -1.000000000000000000, 0.000000000000000000, -0.000000000000000000 ) ) ;
#384 = ORIENTED_EDGE ( 'NONE', *, *, #159, .F. ) ;
#385 = ADVANCED_FACE ( 'NONE', ( #1110 ), #1208, .F. ) ;
#386 = DIRECTION ( 'NONE',  ( 0.000000000000000000, 0.000000000000000000, -1.000000000000000000 ) ) ;
#387 = DIRECTION ( 'NONE',  ( -1.387778780781496557E-15, 0.000000000000000000, 1.000000000000000000 ) ) ;
#388 = FACE_OUTER_BOUND ( 'NONE', #909, .T. ) ;
#389 = ORIENTED_EDGE ( 'NONE', *, *, #914, .T. ) ;
#390 = LINE ( 'NONE', #502, #133 ) ;
#391 = DIRECTION ( 'NONE',  ( -1.000000000000000000, -0.000000000000000000, -0.000000000000000000 ) ) ;
#392 = VERTEX_POINT ( 'NONE', #736 ) ;
#393 = DIRECTION ( 'NONE',  ( -0.000000000000000000, -1.000000000000000000, -0.000000000000000000 ) ) ;
#394 = VERTEX_POINT ( 'NONE', #169 ) ;
#395 = EDGE_CURVE ( 'NONE', #407, #584, #1021, .T. ) ;
#396 = LINE ( 'NONE', #597, #175 ) ;
#397 = ORIENTED_EDGE ( 'NONE', *, *, #598, .T. ) ;
#398 = VECTOR ( 'NONE', #137, 1000.000000000000000 ) ;
#399 = EDGE_CURVE ( 'NONE', #830, #487, #242, .T. ) ;
#400 = VECTOR ( 'NONE', #1137, 1000.000000000000000 ) ;
#401 = CARTESIAN_POINT ( 'NONE',  ( 218.3273854894824524, 3.000000000000000000, -215.0002636468324511 ) ) ;
#402 = VERTEX_POINT ( 'NONE', #991 ) ;
#403 = CARTESIAN_POINT ( 'NONE',  ( 238.3273854894816850, 3.000000000000000000, -280.0002636468323658 ) ) ;
#404 = ORIENTED_EDGE ( 'NONE', *, *, #1026, .F. ) ;
#405 = CARTESIAN_POINT ( 'NONE',  ( 138.3273854894817134, -39.99999999999999289, -280.0002636468323658 ) ) ;
#406 = EDGE_CURVE ( 'NONE', #692, #532, #886, .T. ) ;
#407 = VERTEX_POINT ( 'NONE', #1053 ) ;
#408 = CARTESIAN_POINT ( 'NONE',  ( 138.3273854894823671, -43.00000000000000000, -360.0007909404973248 ) ) ;
#409 = DIRECTION ( 'NONE',  ( 0.000000000000000000, 1.000000000000000000, 0.000000000000000000 ) ) ;
#410 = EDGE_CURVE ( 'NONE', #750, #1085, #449, .T. ) ;
#411 = CARTESIAN_POINT ( 'NONE',  ( 138.3273854894817134, -39.99999999999999289, -280.0002636468323658 ) ) ;
#412 = AXIS2_PLACEMENT_3D ( 'NONE', #134, #913, #510 ) ;
#413 = AXIS2_PLACEMENT_3D ( 'NONE', #980, #422, #139 ) ;
#414 = PRODUCT_DEFINITION ( 'UNKNOWN', '', #476, #193 ) ;
#415 = VERTEX_POINT ( 'NONE', #146 ) ;
#416 = VECTOR ( 'NONE', #500, 1000.000000000000000 ) ;
#417 = CARTESIAN_POINT ( 'NONE',  ( 238.3273854894817134, 0.000000000000000000, -275.0002636468324795 ) ) ;
#418 = FACE_OUTER_BOUND ( 'NONE', #179, .T. ) ;
#419 = DIRECTION ( 'NONE',  ( 0.000000000000000000, 0.000000000000000000, -1.000000000000000000 ) ) ;
#420 = DIRECTION ( 'NONE',  ( -0.000000000000000000, -1.000000000000000000, -0.000000000000000000 ) ) ;
#421 = DIRECTION ( 'NONE',  ( 0.000000000000000000, 0.000000000000000000, -1.000000000000000000 ) ) ;
#422 = DIRECTION ( 'NONE',  ( 0.000000000000000000, 1.000000000000000000, 0.000000000000000000 ) ) ;
#423 = PERSON_AND_ORGANIZATION ( #1226, #725 ) ;
#424 = CARTESIAN_POINT ( 'NONE',  ( 0.07261451051828989034, -39.99999999999999289, -9.999736353167531178 ) ) ;
#425 = DIRECTION ( 'NONE',  ( -0.000000000000000000, -1.000000000000000000, -0.000000000000000000 ) ) ;
#426 = DIRECTION ( 'NONE',  ( -1.000000000000000000, 0.000000000000000000, 0.000000000000000000 ) ) ;
#427 = ORIENTED_EDGE ( 'NONE', *, *, #21, .T. ) ;
#428 = DIRECTION ( 'NONE',  ( 0.000000000000000000, 0.000000000000000000, -1.000000000000000000 ) ) ;
#429 = AXIS2_PLACEMENT_3D ( 'NONE', #150, #143, #528 ) ;
#430 = CARTESIAN_POINT ( 'NONE',  ( 138.3273854894817134, 3.000000000000000000, -90.00026364683252211 ) ) ;
#431 = AXIS2_PLACEMENT_3D ( 'NONE', #1114, #478, #167 ) ;
#432 = EDGE_LOOP ( 'NONE', ( #1197, #1049, #377, #256 ) ) ;
#433 = EDGE_CURVE ( 'NONE', #620, #584, #305, .T. ) ;
#434 = CARTESIAN_POINT ( 'NONE',  ( 238.3273854894816850, -43.00000000000000000, -280.0002636468323658 ) ) ;
#435 = PLANE ( 'NONE',  #1078 ) ;
#436 = EDGE_CURVE ( 'NONE', #775, #710, #41, .T. ) ;
#437 = DIRECTION ( 'NONE',  ( 0.007261451051829059637, 0.000000000000000000, -0.9999736353167626435 ) ) ;
#438 = DIRECTION ( 'NONE',  ( 0.000000000000000000, 0.000000000000000000, -1.000000000000000000 ) ) ;
#439 = ORIENTED_EDGE ( 'NONE', *, *, #61, .F. ) ;
#440 = VERTEX_POINT ( 'NONE', #962 ) ;
#441 = DIRECTION ( 'NONE',  ( 1.000000000000000000, -0.000000000000000000, -1.445602896647339114E-15 ) ) ;
#442 = DIRECTION ( 'NONE',  ( -0.000000000000000000, -1.000000000000000000, -0.000000000000000000 ) ) ;
#443 = DIRECTION ( 'NONE',  ( 0.000000000000000000, 0.000000000000000000, -1.000000000000000000 ) ) ;
#444 = ADVANCED_FACE ( 'NONE', ( #690 ), #1179, .F. ) ;
#445 = EDGE_LOOP ( 'NONE', ( #474, #1045, #76, #53 ) ) ;
#446 = EDGE_LOOP ( 'NONE', ( #579, #1100, #640, #560 ) ) ;
#447 = CARTESIAN_POINT ( 'NONE',  ( 138.3273854894824240, 0.000000000000000000, -280.0007909404973248 ) ) ;
#448 = CARTESIAN_POINT ( 'NONE',  ( 218.3273854894824524, -39.99999999999999289, -89.99973635316759157 ) ) ;
#449 = CIRCLE ( 'NONE', #819, 100.0000000000000000 ) ;
#450 = EDGE_CURVE ( 'NONE', #836, #171, #234, .T. ) ;
#451 = VECTOR ( 'NONE', #782, 1000.000000000000000 ) ;
#452 = ORIENTED_EDGE ( 'NONE', *, *, #981, .T. ) ;
#453 = EDGE_CURVE ( 'NONE', #663, #811, #1105, .T. ) ;
#454 = EDGE_LOOP ( 'NONE', ( #765, #1111, #1152, #19 ) ) ;
#455 = LOCAL_TIME ( 13, 48, 54.00000000000000000, #1185 ) ;
#456 = CARTESIAN_POINT ( 'NONE',  ( 238.3273854894817134, -39.99999999999999289, -95.00026364683247948 ) ) ;
#457 = CARTESIAN_POINT ( 'NONE',  ( -0.07261451051832458481, -43.00000000000000000, -380.0002636468324226 ) ) ;
#458 = EDGE_LOOP ( 'NONE', ( #90, #760, #1124, #1145, #650, #837, #191, #990 ) ) ;
#459 = ORIENTED_EDGE ( 'NONE', *, *, #318, .F. ) ;
#460 = CARTESIAN_POINT ( 'NONE',  ( -0.07261451051828989034, 0.000000000000000000, 9.999736353167531178 ) ) ;
#461 = COORDINATED_UNIVERSAL_TIME_OFFSET ( 3, 30, .AHEAD. ) ;
#462 = ORIENTED_EDGE ( 'NONE', *, *, #399, .F. ) ;
#463 = VERTEX_POINT ( 'NONE', #424 ) ;
#464 = DIRECTION ( 'NONE',  ( -1.000000000000000000, 0.000000000000000000, 0.000000000000000000 ) ) ;
#465 = ORIENTED_EDGE ( 'NONE', *, *, #350, .T. ) ;
#466 = DIRECTION ( 'NONE',  ( -1.000000000000000000, 0.000000000000000000, -1.451090930900692301E-15 ) ) ;
#467 = EDGE_CURVE ( 'NONE', #333, #206, #892, .T. ) ;
#468 = DATE_TIME_ROLE ( 'classification_date' ) ;
#469 = EDGE_LOOP ( 'NONE', ( #747, #439, #681, #77 ) ) ;
#470 = ORIENTED_EDGE ( 'NONE', *, *, #776, .T. ) ;
#471 = VECTOR ( 'NONE', #184, 1000.000000000000000 ) ;
#472 = LINE ( 'NONE', #189, #592 ) ;
#473 = DIRECTION ( 'NONE',  ( -0.000000000000000000, -0.000000000000000000, -1.000000000000000000 ) ) ;
#474 = ORIENTED_EDGE ( 'NONE', *, *, #850, .T. ) ;
#475 = AXIS2_PLACEMENT_3D ( 'NONE', #513, #614, #992 ) ;
#476 = PRODUCT_DEFINITION_FORMATION_WITH_SPECIFIED_SOURCE ( 'ANY', '', #327, .NOT_KNOWN. ) ;
#477 = EDGE_LOOP ( 'NONE', ( #264, #95, #260, #465 ) ) ;
#478 = DIRECTION ( 'NONE',  ( 1.451090930900692301E-15, 0.000000000000000000, -1.000000000000000000 ) ) ;
#479 = ORIENTED_EDGE ( 'NONE', *, *, #1148, .F. ) ;
#480 = CARTESIAN_POINT ( 'NONE',  ( 238.3273854894817134, -39.99999999999999289, -215.0002636468324511 ) ) ;
#481 = ORIENTED_EDGE ( 'NONE', *, *, #128, .F. ) ;
#482 = CARTESIAN_POINT ( 'NONE',  ( 138.3273854894816566, -43.00000000000000000, -380.0002636468323658 ) ) ;
#483 = ORIENTED_EDGE ( 'NONE', *, *, #1216, .T. ) ;
#484 = CARTESIAN_POINT ( 'NONE',  ( 218.3273854894824808, -43.00000000000000000, -95.00026364683250790 ) ) ;
#485 = FACE_OUTER_BOUND ( 'NONE', #445, .T. ) ;
#486 = ADVANCED_FACE ( 'NONE', ( #613 ), #13, .T. ) ;
#487 = VERTEX_POINT ( 'NONE', #321 ) ;
#488 = DIRECTION ( 'NONE',  ( -0.000000000000000000, -1.000000000000000000, -0.000000000000000000 ) ) ;
#489 = ORIENTED_EDGE ( 'NONE', *, *, #280, .T. ) ;
#490 = AXIS2_PLACEMENT_3D ( 'NONE', #1033, #283, #386 ) ;
#491 = CIRCLE ( 'NONE', #194, 79.99999999999998579 ) ;
#492 = EDGE_CURVE ( 'NONE', #553, #306, #1171, .T. ) ;
#493 =( GEOMETRIC_REPRESENTATION_CONTEXT ( 3 ) GLOBAL_UNCERTAINTY_ASSIGNED_CONTEXT ( ( #1136 ) ) GLOBAL_UNIT_ASSIGNED_CONTEXT ( ( #883, #801, #791 ) ) REPRESENTATION_CONTEXT ( 'NONE', 'WORKASPACE' ) );
#494 = ORIENTED_EDGE ( 'NONE', *, *, #1154, .T. ) ;
#495 = DIRECTION ( 'NONE',  ( 0.000000000000000000, -0.000000000000000000, 1.000000000000000000 ) ) ;
#496 = LINE ( 'NONE', #28, #662 ) ;
#497 = ADVANCED_FACE ( 'NONE', ( #522 ), #326, .T. ) ;
#498 = CARTESIAN_POINT ( 'NONE',  ( 238.3273854894817134, -43.00000000000000000, -215.0002636468324511 ) ) ;
#499 = EDGE_CURVE ( 'NONE', #392, #104, #339, .T. ) ;
#500 = DIRECTION ( 'NONE',  ( -4.625929269271489858E-16, -0.000000000000000000, 1.000000000000000000 ) ) ;
#501 = LINE ( 'NONE', #525, #722 ) ;
#502 = CARTESIAN_POINT ( 'NONE',  ( 238.3273854894817134, 3.000000000000000000, -95.00026364683247948 ) ) ;
#503 = DIRECTION ( 'NONE',  ( -0.007261451051829059637, -0.000000000000000000, 0.9999736353167626435 ) ) ;
#504 = DIRECTION ( 'NONE',  ( -1.000000000000000000, 0.000000000000000000, -1.387778780781496754E-15 ) ) ;
#505 = DIRECTION ( 'NONE',  ( 0.000000000000000000, -0.000000000000000000, 1.000000000000000000 ) ) ;
#506 = VECTOR ( 'NONE', #48, 1000.000000000000000 ) ;
#507 = AXIS2_PLACEMENT_3D ( 'NONE', #97, #1017, #383 ) ;
#508 = LINE ( 'NONE', #512, #742 ) ;
#509 = VECTOR ( 'NONE', #22, 1000.000000000000000 ) ;
#510 = DIRECTION ( 'NONE',  ( 0.000000000000000000, 0.000000000000000000, -1.000000000000000000 ) ) ;
#511 = AXIS2_PLACEMENT_3D ( 'NONE', #771, #409, #495 ) ;
#512 = CARTESIAN_POINT ( 'NONE',  ( 138.3273854894817134, 0.000000000000000000, 9.999736353167476111 ) ) ;
#513 = CARTESIAN_POINT ( 'NONE',  ( 238.3273854894817134, 3.000000000000000000, -155.0002636468324795 ) ) ;
#514 = DIRECTION ( 'NONE',  ( -0.000000000000000000, -1.000000000000000000, -0.000000000000000000 ) ) ;
#515 = CARTESIAN_POINT ( 'NONE',  ( 138.3273854894824240, 3.000000000000000000, -280.0007909404973248 ) ) ;
#516 = LINE ( 'NONE', #890, #509 ) ;
#517 = DIRECTION ( 'NONE',  ( 0.000000000000000000, 0.000000000000000000, 1.000000000000000000 ) ) ;
#518 = DIRECTION ( 'NONE',  ( 1.000000000000000000, -0.000000000000000000, -1.445602896647339114E-15 ) ) ;
#519 = LINE ( 'NONE', #59, #78 ) ;
#520 = DIRECTION ( 'NONE',  ( -0.000000000000000000, -1.000000000000000000, -0.000000000000000000 ) ) ;
#521 = CARTESIAN_POINT ( 'NONE',  ( 238.3273854894817134, 0.000000000000000000, -155.0002636468324795 ) ) ;
#522 = FACE_OUTER_BOUND ( 'NONE', #862, .T. ) ;
#523 = EDGE_CURVE ( 'NONE', #920, #347, #33, .T. ) ;
#524 = EDGE_CURVE ( 'NONE', #347, #586, #1149, .T. ) ;
#525 = CARTESIAN_POINT ( 'NONE',  ( 138.3273854894824240, 3.000000000000000000, -9.999736353167559599 ) ) ;
#526 = LINE ( 'NONE', #820, #877 ) ;
#527 = AXIS2_PLACEMENT_3D ( 'NONE', #983, #1068, #884 ) ;
#528 = DIRECTION ( 'NONE',  ( -0.007261451051829231375, 0.000000000000000000, -0.9999736353167626435 ) ) ;
#529 = AXIS2_PLACEMENT_3D ( 'NONE', #635, #995, #888 ) ;
#530 = ADVANCED_FACE ( 'NONE', ( #55 ), #435, .F. ) ;
#531 = VECTOR ( 'NONE', #1047, 1000.000000000000000 ) ;
#532 = VERTEX_POINT ( 'NONE', #79 ) ;
#533 = ORIENTED_EDGE ( 'NONE', *, *, #885, .F. ) ;
#534 = DIRECTION ( 'NONE',  ( 0.000000000000000000, 1.000000000000000000, 0.000000000000000000 ) ) ;
#535 = DIRECTION ( 'NONE',  ( 0.000000000000000000, -0.000000000000000000, -1.000000000000000000 ) ) ;
#536 = CARTESIAN_POINT ( 'NONE',  ( 0.07261451051825866532, -39.99999999999999289, -360.0007909404973816 ) ) ;
#537 = CARTESIAN_POINT ( 'NONE',  ( 238.3273854894816850, -43.00000000000000000, -90.00026364683253632 ) ) ;
#538 = ORIENTED_EDGE ( 'NONE', *, *, #213, .T. ) ;
#539 = EDGE_LOOP ( 'NONE', ( #590, #1196, #5, #166, #1127, #154, #928, #494 ) ) ;
#540 = DIRECTION ( 'NONE',  ( 0.000000000000000000, -0.000000000000000000, 1.000000000000000000 ) ) ;
#541 = FACE_OUTER_BOUND ( 'NONE', #762, .T. ) ;
#542 = ADVANCED_FACE ( 'NONE', ( #267 ), #734, .F. ) ;
#543 = ORIENTED_EDGE ( 'NONE', *, *, #436, .T. ) ;
#544 = VERTEX_POINT ( 'NONE', #1003 ) ;
#545 = CARTESIAN_POINT ( 'NONE',  ( 99.92738548948169353, 3.000000000000000000, 9.999736353167531178 ) ) ;
#546 = CARTESIAN_POINT ( 'NONE',  ( 218.3273854894824524, -39.99999999999999289, -155.0002636468325079 ) ) ;
#547 = DIRECTION ( 'NONE',  ( -4.625929269271489858E-16, -0.000000000000000000, 1.000000000000000000 ) ) ;
#548 = VECTOR ( 'NONE', #47, 1000.000000000000000 ) ;
#549 = PLANE ( 'NONE',  #29 ) ;
#550 = VECTOR ( 'NONE', #881, 1000.000000000000227 ) ;
#551 = CYLINDRICAL_SURFACE ( 'NONE', #643, 80.00000000000000000 ) ;
#552 = APPROVAL_STATUS ( 'not_yet_approved' ) ;
#553 = VERTEX_POINT ( 'NONE', #1181 ) ;
#554 = ORIENTED_EDGE ( 'NONE', *, *, #65, .T. ) ;
#555 = DIRECTION ( 'NONE',  ( 1.000000000000000000, 0.000000000000000000, -0.000000000000000000 ) ) ;
#556 = DIRECTION ( 'NONE',  ( 0.000000000000000000, 0.000000000000000000, 1.000000000000000000 ) ) ;
#557 = EDGE_CURVE ( 'NONE', #1218, #1132, #617, .T. ) ;
#558 = LINE ( 'NONE', #255, #1198 ) ;
#559 = ORIENTED_EDGE ( 'NONE', *, *, #524, .F. ) ;
#560 = ORIENTED_EDGE ( 'NONE', *, *, #492, .T. ) ;
#561 = FACE_OUTER_BOUND ( 'NONE', #576, .T. ) ;
#562 = EDGE_LOOP ( 'NONE', ( #1004, #2, #897, #276 ) ) ;
#563 = DIRECTION ( 'NONE',  ( -0.000000000000000000, -1.000000000000000000, -0.000000000000000000 ) ) ;
#564 = CYLINDRICAL_SURFACE ( 'NONE', #490, 99.99999999999997158 ) ;
#565 = DIRECTION ( 'NONE',  ( 1.000000000000000000, 0.000000000000000000, 1.387778780781496557E-15 ) ) ;
#566 = DATE_AND_TIME ( #726, #1158 ) ;
#567 = ORIENTED_EDGE ( 'NONE', *, *, #985, .F. ) ;
#568 = VERTEX_POINT ( 'NONE', #73 ) ;
#569 = CARTESIAN_POINT ( 'NONE',  ( 218.3273854894824524, -43.00000000000000000, -280.0007909404973248 ) ) ;
#570 = ORIENTED_EDGE ( 'NONE', *, *, #1005, .F. ) ;
#571 = CARTESIAN_POINT ( 'NONE',  ( 138.3273854894816566, 0.000000000000000000, -380.0002636468323658 ) ) ;
#572 = VERTEX_POINT ( 'NONE', #894 ) ;
#573 = ADVANCED_FACE ( 'NONE', ( #912 ), #700, .F. ) ;
#574 = DIRECTION ( 'NONE',  ( -1.000000000000000000, -0.000000000000000000, -0.000000000000000000 ) ) ;
#575 = CARTESIAN_POINT ( 'NONE',  ( 218.3273854894824524, 0.000000000000000000, -155.0002636468325079 ) ) ;
#576 = EDGE_LOOP ( 'NONE', ( #845, #1176, #840, #1025, #746, #346, #1117, #1038 ) ) ;
#577 = EDGE_CURVE ( 'NONE', #162, #106, #155, .T. ) ;
#578 = PLANE ( 'NONE',  #603 ) ;
#579 = ORIENTED_EDGE ( 'NONE', *, *, #24, .T. ) ;
#580 = LINE ( 'NONE', #26, #748 ) ;
#581 = ORIENTED_EDGE ( 'NONE', *, *, #436, .F. ) ;
#582 = CC_DESIGN_PERSON_AND_ORGANIZATION_ASSIGNMENT ( #908, #997, ( #327 ) ) ;
#583 = DIRECTION ( 'NONE',  ( 0.000000000000000000, 0.000000000000000000, 1.000000000000000000 ) ) ;
#584 = VERTEX_POINT ( 'NONE', #917 ) ;
#585 = CARTESIAN_POINT ( 'NONE',  ( -0.07261451051832458481, -43.00000000000000000, -380.0002636468324226 ) ) ;
#586 = VERTEX_POINT ( 'NONE', #1089 ) ;
#587 = CARTESIAN_POINT ( 'NONE',  ( 218.3273854894824524, -39.99999999999999289, -155.0002636468325079 ) ) ;
#588 = CARTESIAN_POINT ( 'NONE',  ( 138.3273854894823955, -39.99999999999999289, -360.0007909404973248 ) ) ;
#589 = CARTESIAN_POINT ( 'NONE',  ( 138.3273854894824240, -43.00000000000000000, -280.0007909404973248 ) ) ;
#590 = ORIENTED_EDGE ( 'NONE', *, *, #838, .T. ) ;
#591 = DIRECTION ( 'NONE',  ( -0.000000000000000000, -1.000000000000000000, -0.000000000000000000 ) ) ;
#592 = VECTOR ( 'NONE', #574, 1000.000000000000000 ) ;
#593 = VECTOR ( 'NONE', #204, 1000.000000000000000 ) ;
#594 = EDGE_CURVE ( 'NONE', #171, #1218, #330, .T. ) ;
#595 = EDGE_CURVE ( 'NONE', #108, #338, #816, .T. ) ;
#596 = DIRECTION ( 'NONE',  ( 0.000000000000000000, -0.000000000000000000, -1.000000000000000000 ) ) ;
#597 = CARTESIAN_POINT ( 'NONE',  ( -0.07261451051828989034, -39.99999999999999289, 9.999736353167531178 ) ) ;
#598 = EDGE_CURVE ( 'NONE', #170, #338, #526, .T. ) ;
#599 = CARTESIAN_POINT ( 'NONE',  ( -0.07261451051828989034, 3.000000000000000000, 9.999736353167531178 ) ) ;
#600 = PERSON_AND_ORGANIZATION ( #1226, #725 ) ;
#601 = DIRECTION ( 'NONE',  ( -0.000000000000000000, -1.000000000000000000, 0.000000000000000000 ) ) ;
#602 = CIRCLE ( 'NONE', #412, 80.00000000000000000 ) ;
#603 = AXIS2_PLACEMENT_3D ( 'NONE', #759, #195, #292 ) ;
#604 = PLANE ( 'NONE',  #901 ) ;
#605 = AXIS2_PLACEMENT_3D ( 'NONE', #680, #200, #596 ) ;
#606 = PERSON_AND_ORGANIZATION ( #1226, #725 ) ;
#607 = CARTESIAN_POINT ( 'NONE',  ( 238.3273854894817134, -39.99999999999999289, -155.0002636468324795 ) ) ;
#608 = DIRECTION ( 'NONE',  ( -1.000000000000000000, 0.000000000000000000, 5.551115123125901031E-15 ) ) ;
#609 = ORIENTED_EDGE ( 'NONE', *, *, #1074, .T. ) ;
#610 = APPROVAL_ROLE ( '' ) ;
#611 = ORIENTED_EDGE ( 'NONE', *, *, #453, .T. ) ;
#612 = ADVANCED_FACE ( 'NONE', ( #60 ), #806, .F. ) ;
#613 = FACE_OUTER_BOUND ( 'NONE', #17, .T. ) ;
#614 = DIRECTION ( 'NONE',  ( -1.387778780781496557E-15, 0.000000000000000000, 1.000000000000000000 ) ) ;
#615 = CARTESIAN_POINT ( 'NONE',  ( 0.07261451051828989034, -43.00000000000000000, -9.999736353167531178 ) ) ;
#616 = CARTESIAN_POINT ( 'NONE',  ( 138.3273854894823955, 3.000000000000000000, -360.0007909404973248 ) ) ;
#617 = LINE ( 'NONE', #258, #209 ) ;
#618 = DIRECTION ( 'NONE',  ( -0.000000000000000000, -1.000000000000000000, -0.000000000000000000 ) ) ;
#619 = DATE_AND_TIME ( #1072, #926 ) ;
#620 = VERTEX_POINT ( 'NONE', #351 ) ;
#621 = EDGE_CURVE ( 'NONE', #415, #1228, #315, .T. ) ;
#622 = AXIS2_PLACEMENT_3D ( 'NONE', #1159, #895, #62 ) ;
#623 = AXIS2_PLACEMENT_3D ( 'NONE', #235, #534, #71 ) ;
#624 = LINE ( 'NONE', #780, #550 ) ;
#625 = CC_DESIGN_APPROVAL ( #824, ( #121 ) ) ;
#626 = COORDINATED_UNIVERSAL_TIME_OFFSET ( 3, 30, .AHEAD. ) ;
#627 = ORIENTED_EDGE ( 'NONE', *, *, #988, .T. ) ;
#628 = CC_DESIGN_PERSON_AND_ORGANIZATION_ASSIGNMENT ( #423, #225, ( #414 ) ) ;
#629 = LINE ( 'NONE', #457, #902 ) ;
#630 = EDGE_CURVE ( 'NONE', #1116, #407, #629, .T. ) ;
#631 = LINE ( 'NONE', #84, #1121 ) ;
#632 = LINE ( 'NONE', #448, #696 ) ;
#633 = ORIENTED_EDGE ( 'NONE', *, *, #1123, .T. ) ;
#634 = CARTESIAN_POINT ( 'NONE',  ( -0.07261451051828989034, 0.000000000000000000, 9.999736353167531178 ) ) ;
#635 = CARTESIAN_POINT ( 'NONE',  ( 138.3273854894817134, -43.00000000000000000, -90.00026364683252211 ) ) ;
#636 = CARTESIAN_POINT ( 'NONE',  ( 238.3273854894817134, -39.99999999999999289, -215.0002636468324511 ) ) ;
#637 = ADVANCED_FACE ( 'NONE', ( #1039 ), #931, .F. ) ;
#638 = APPROVAL_DATE_TIME ( #566, #824 ) ;
#639 = ORIENTED_EDGE ( 'NONE', *, *, #180, .T. ) ;
#640 = ORIENTED_EDGE ( 'NONE', *, *, #712, .F. ) ;
#641 = LINE ( 'NONE', #1134, #904 ) ;
#642 = CC_DESIGN_DATE_AND_TIME_ASSIGNMENT ( #619, #786, ( #414 ) ) ;
#643 = AXIS2_PLACEMENT_3D ( 'NONE', #872, #1120, #6 ) ;
#644 = AXIS2_PLACEMENT_3D ( 'NONE', #290, #365, #1131 ) ;
#645 = EDGE_LOOP ( 'NONE', ( #389, #261, #112, #1022 ) ) ;
#646 = CIRCLE ( 'NONE', #669, 99.99999999999997158 ) ;
#647 = CARTESIAN_POINT ( 'NONE',  ( 0.07261451051825866532, -39.99999999999999289, -360.0007909404973816 ) ) ;
#648 = ORIENTED_EDGE ( 'NONE', *, *, #1071, .T. ) ;
#649 = ORIENTED_EDGE ( 'NONE', *, *, #1216, .F. ) ;
#650 = ORIENTED_EDGE ( 'NONE', *, *, #914, .F. ) ;
#651 = LINE ( 'NONE', #826, #316 ) ;
#652 = EDGE_LOOP ( 'NONE', ( #1191, #286, #802, #868 ) ) ;
#653 = CARTESIAN_POINT ( 'NONE',  ( 138.3273854894824240, 3.000000000000000000, -89.99973635316756315 ) ) ;
#654 = DIRECTION ( 'NONE',  ( 0.000000000000000000, 0.000000000000000000, 1.000000000000000000 ) ) ;
#655 = FACE_OUTER_BOUND ( 'NONE', #658, .T. ) ;
#656 = ORIENTED_EDGE ( 'NONE', *, *, #971, .F. ) ;
#657 = CARTESIAN_POINT ( 'NONE',  ( 238.3273854894817134, -43.00000000000000000, -155.0002636468324795 ) ) ;
#658 = EDGE_LOOP ( 'NONE', ( #944, #1036, #1125, #248 ) ) ;
#659 = CARTESIAN_POINT ( 'NONE',  ( 0.07261451051825866532, 3.000000000000000000, -360.0007909404973816 ) ) ;
#660 = PLANE ( 'NONE',  #1043 ) ;
#661 = CARTESIAN_POINT ( 'NONE',  ( 238.3273854894817134, 3.000000000000000000, -95.00026364683247948 ) ) ;
#662 = VECTOR ( 'NONE', #1170, 1000.000000000000227 ) ;
#663 = VERTEX_POINT ( 'NONE', #1142 ) ;
#664 = VECTOR ( 'NONE', #349, 1000.000000000000000 ) ;
#665 = DIRECTION ( 'NONE',  ( 0.000000000000000000, 1.000000000000000000, -0.000000000000000000 ) ) ;
#666 = VERTEX_POINT ( 'NONE', #1215 ) ;
#667 = AXIS2_PLACEMENT_3D ( 'NONE', #136, #426, #693 ) ;
#668 = ADVANCED_FACE ( 'NONE', ( #93 ), #741, .F. ) ;
#669 = AXIS2_PLACEMENT_3D ( 'NONE', #411, #1153, #196 ) ;
#670 = EDGE_CURVE ( 'NONE', #959, #663, #1128, .T. ) ;
#671 = ORIENTED_EDGE ( 'NONE', *, *, #12, .F. ) ;
#672 = CARTESIAN_POINT ( 'NONE',  ( 238.3273854894817134, 3.000000000000000000, -215.0002636468324511 ) ) ;
#673 = ORIENTED_EDGE ( 'NONE', *, *, #1011, .T. ) ;
#674 = CARTESIAN_POINT ( 'NONE',  ( 0.07261451051828989034, 3.000000000000000000, -9.999736353167531178 ) ) ;
#675 = CARTESIAN_POINT ( 'NONE',  ( 138.3273854894823955, 0.000000000000000000, -360.0007909404973248 ) ) ;
#676 = ORIENTED_EDGE ( 'NONE', *, *, #630, .T. ) ;
#677 = PLANE ( 'NONE',  #331 ) ;
#678 = EDGE_CURVE ( 'NONE', #775, #1048, #758, .T. ) ;
#679 = CARTESIAN_POINT ( 'NONE',  ( -0.07261451051832458481, -39.99999999999999289, -380.0002636468324226 ) ) ;
#680 = CARTESIAN_POINT ( 'NONE',  ( 138.3273854894824240, 0.000000000000000000, -89.99973635316756315 ) ) ;
#681 = ORIENTED_EDGE ( 'NONE', *, *, #785, .F. ) ;
#682 = VECTOR ( 'NONE', #75, 1000.000000000000000 ) ;
#683 = AXIS2_PLACEMENT_3D ( 'NONE', #876, #860, #1094 ) ;
#684 = BREP_WITH_VOIDS ( 'NONE', #795, ( #1082 ) );
#685 = CARTESIAN_POINT ( 'NONE',  ( 238.3273854894816850, -39.99999999999999289, -90.00026364683253632 ) ) ;
#686 = EDGE_CURVE ( 'NONE', #333, #265, #281, .T. ) ;
#687 = ORIENTED_EDGE ( 'NONE', *, *, #310, .F. ) ;
#688 = APPROVAL_ROLE ( '' ) ;
#689 = LINE ( 'NONE', #975, #1221 ) ;
#690 = FACE_OUTER_BOUND ( 'NONE', #23, .T. ) ;
#691 = CARTESIAN_POINT ( 'NONE',  ( 138.3273854894824240, -39.99999999999999289, -9.999736353167559599 ) ) ;
#692 = VERTEX_POINT ( 'NONE', #299 ) ;
#693 = DIRECTION ( 'NONE',  ( 0.000000000000000000, 0.000000000000000000, 1.000000000000000000 ) ) ;
#694 = CARTESIAN_POINT ( 'NONE',  ( 138.3273854894817134, -39.99999999999999289, -280.0002636468323658 ) ) ;
#695 = FACE_OUTER_BOUND ( 'NONE', #823, .T. ) ;
#696 = VECTOR ( 'NONE', #1202, 1000.000000000000000 ) ;
#697 = CC_DESIGN_DATE_AND_TIME_ASSIGNMENT ( #737, #468, ( #121 ) ) ;
#698 = AXIS2_PLACEMENT_3D ( 'NONE', #661, #107, #1044 ) ;
#699 = VECTOR ( 'NONE', #464, 1000.000000000000000 ) ;
#700 = PLANE ( 'NONE',  #1223 ) ;
#701 = FACE_OUTER_BOUND ( 'NONE', #199, .T. ) ;
#702 = ORIENTED_EDGE ( 'NONE', *, *, #375, .F. ) ;
#703 = CARTESIAN_POINT ( 'NONE',  ( 138.3273854894817134, -39.99999999999999289, -90.00026364683252211 ) ) ;
#704 = FACE_OUTER_BOUND ( 'NONE', #177, .T. ) ;
#705 = LINE ( 'NONE', #1106, #51 ) ;
#706 = DIRECTION ( 'NONE',  ( 0.000000000000000000, 0.000000000000000000, 1.000000000000000000 ) ) ;
#707 = CYLINDRICAL_SURFACE ( 'NONE', #1041, 79.99999999999995737 ) ;
#708 = EDGE_CURVE ( 'NONE', #104, #692, #168, .T. ) ;
#709 = COORDINATED_UNIVERSAL_TIME_OFFSET ( 3, 30, .AHEAD. ) ;
#710 = VERTEX_POINT ( 'NONE', #827 ) ;
#711 = DIRECTION ( 'NONE',  ( 0.9999736353167627545, 0.000000000000000000, -0.007261451051829232242 ) ) ;
#712 = EDGE_CURVE ( 'NONE', #553, #866, #1207, .T. ) ;
#713 = DIRECTION ( 'NONE',  ( 1.000000000000000000, -0.000000000000000000, 5.550529771288700461E-15 ) ) ;
#714 = DIRECTION ( 'NONE',  ( 0.000000000000000000, 0.000000000000000000, 1.000000000000000000 ) ) ;
#715 = DIRECTION ( 'NONE',  ( 0.007261451051829231375, 0.000000000000000000, 0.9999736353167626435 ) ) ;
#716 = CARTESIAN_POINT ( 'NONE',  ( 218.3273854894824524, -39.99999999999999289, -280.0007909404973248 ) ) ;
#717 = ORIENTED_EDGE ( 'NONE', *, *, #885, .T. ) ;
#718 = DIRECTION ( 'NONE',  ( -0.007261451051829231375, 0.000000000000000000, -0.9999736353167626435 ) ) ;
#719 = FACE_OUTER_BOUND ( 'NONE', #539, .T. ) ;
#720 = LINE ( 'NONE', #142, #208 ) ;
#721 = CARTESIAN_POINT ( 'NONE',  ( 138.3273854894824240, -39.99999999999999289, -89.99973635316756315 ) ) ;
#722 = VECTOR ( 'NONE', #420, 1000.000000000000000 ) ;
#723 = DIRECTION ( 'NONE',  ( -0.000000000000000000, -1.000000000000000000, -0.000000000000000000 ) ) ;
#724 = VECTOR ( 'NONE', #156, 1000.000000000000000 ) ;
#725 = ORGANIZATION ( 'UNSPECIFIED', 'UNSPECIFIED', '' ) ;
#726 = CALENDAR_DATE ( 2026, 31, 7 ) ;
#727 = ORIENTED_EDGE ( 'NONE', *, *, #103, .F. ) ;
#728 = DIRECTION ( 'NONE',  ( 5.550529771288700461E-15, 0.000000000000000000, -1.000000000000000000 ) ) ;
#729 = ADVANCED_FACE ( 'NONE', ( #388 ), #578, .T. ) ;
#730 = CARTESIAN_POINT ( 'NONE',  ( -0.07261451051828989034, -39.99999999999999289, 9.999736353167531178 ) ) ;
#731 = ORIENTED_EDGE ( 'NONE', *, *, #382, .F. ) ;
#732 = EDGE_LOOP ( 'NONE', ( #844, #910, #961, #358 ) ) ;
#733 = LINE ( 'NONE', #1211, #973 ) ;
#734 = PLANE ( 'NONE',  #298 ) ;
#735 = CARTESIAN_POINT ( 'NONE',  ( 138.3273854894824240, -39.99999999999999289, -9.999736353167559599 ) ) ;
#736 = CARTESIAN_POINT ( 'NONE',  ( 238.3273854894817134, -39.99999999999999289, -155.0002636468324795 ) ) ;
#737 = DATE_AND_TIME ( #1013, #967 ) ;
#738 = EDGE_LOOP ( 'NONE', ( #397, #916, #570, #648 ) ) ;
#739 = ORIENTED_EDGE ( 'NONE', *, *, #523, .F. ) ;
#740 = DIRECTION ( 'NONE',  ( -0.000000000000000000, -0.000000000000000000, -1.000000000000000000 ) ) ;
#741 = PLANE ( 'NONE',  #1178 ) ;
#742 = VECTOR ( 'NONE', #441, 1000.000000000000000 ) ;
#743 = CARTESIAN_POINT ( 'NONE',  ( 238.3273854894817134, -39.99999999999999289, -155.0002636468324795 ) ) ;
#744 = VECTOR ( 'NONE', #178, 1000.000000000000000 ) ;
#745 = ADVANCED_FACE ( 'NONE', ( #954 ), #1, .F. ) ;
#746 = ORIENTED_EDGE ( 'NONE', *, *, #871, .F. ) ;
#747 = ORIENTED_EDGE ( 'NONE', *, *, #670, .T. ) ;
#748 = VECTOR ( 'NONE', #1060, 1000.000000000000000 ) ;
#749 = FACE_OUTER_BOUND ( 'NONE', #1186, .T. ) ;
#750 = VERTEX_POINT ( 'NONE', #1101 ) ;
#751 = ADVANCED_FACE ( 'NONE', ( #695 ), #1194, .F. ) ;
#752 = ORIENTED_EDGE ( 'NONE', *, *, #1057, .T. ) ;
#753 = ORIENTED_EDGE ( 'NONE', *, *, #1103, .F. ) ;
#754 = EDGE_CURVE ( 'NONE', #1085, #1218, #56, .T. ) ;
#755 = CARTESIAN_POINT ( 'NONE',  ( 238.3273854894817134, 0.000000000000000000, -155.0002636468324795 ) ) ;
#756 = EDGE_LOOP ( 'NONE', ( #855, #858, #935, #489 ) ) ;
#757 = EDGE_CURVE ( 'NONE', #934, #1150, #813, .T. ) ;
#758 = LINE ( 'NONE', #181, #1001 ) ;
#759 = CARTESIAN_POINT ( 'NONE',  ( 138.3273854894817134, 3.000000000000000000, -280.0002636468323658 ) ) ;
#760 = ORIENTED_EDGE ( 'NONE', *, *, #149, .F. ) ;
#761 = CARTESIAN_POINT ( 'NONE',  ( 138.3273854894817134, -39.99999999999999289, 9.999736353167476111 ) ) ;
#762 = EDGE_LOOP ( 'NONE', ( #188, #915, #359, #825 ) ) ;
#763 = ADVANCED_FACE ( 'NONE', ( #704 ), #1035, .F. ) ;
#764 = VECTOR ( 'NONE', #618, 1000.000000000000000 ) ;
#765 = ORIENTED_EDGE ( 'NONE', *, *, #557, .T. ) ;
#766 = DIRECTION ( 'NONE',  ( -1.445602896647339114E-15, 0.000000000000000000, -1.000000000000000000 ) ) ;
#767 = EDGE_LOOP ( 'NONE', ( #483, #829, #287, #1209 ) ) ;
#768 = DIRECTION ( 'NONE',  ( 1.000000000000000000, -0.000000000000000000, -0.000000000000000000 ) ) ;
#769 = CARTESIAN_POINT ( 'NONE',  ( 238.3273854894817134, -39.99999999999999289, -215.0002636468324511 ) ) ;
#770 = ORIENTED_EDGE ( 'NONE', *, *, #61, .T. ) ;
#771 = CARTESIAN_POINT ( 'NONE',  ( 138.3273854894817134, -43.00000000000000000, -280.0002636468323658 ) ) ;
#772 = APPROVAL ( #247, 'UNSPECIFIED' ) ;
#773 = VERTEX_POINT ( 'NONE', #615 ) ;
#774 = CARTESIAN_POINT ( 'NONE',  ( 218.3273854894824524, -43.00000000000000000, -215.0002636468324511 ) ) ;
#775 = VERTEX_POINT ( 'NONE', #993 ) ;
#776 = EDGE_CURVE ( 'NONE', #440, #197, #947, .T. ) ;
#777 = DIRECTION ( 'NONE',  ( 0.007261451051829231375, 0.000000000000000000, 0.9999736353167626435 ) ) ;
#778 = CIRCLE ( 'NONE', #527, 80.00000000000000000 ) ;
#779 = VECTOR ( 'NONE', #111, 1000.000000000000000 ) ;
#780 = CARTESIAN_POINT ( 'NONE',  ( -0.07261451051828989034, 3.000000000000000000, 9.999736353167531178 ) ) ;
#781 = APPROVAL_STATUS ( 'not_yet_approved' ) ;
#782 = DIRECTION ( 'NONE',  ( -5.551115123125901031E-15, 0.000000000000000000, -1.000000000000000000 ) ) ;
#783 = LINE ( 'NONE', #1165, #593 ) ;
#784 = CARTESIAN_POINT ( 'NONE',  ( 238.3273854894817134, -43.00000000000000000, -215.0002636468324511 ) ) ;
#785 = EDGE_CURVE ( 'NONE', #1150, #544, #1095, .T. ) ;
#786 = DATE_TIME_ROLE ( 'creation_date' ) ;
#787 = CARTESIAN_POINT ( 'NONE',  ( 0.07261451051825866532, 3.000000000000000000, -360.0007909404973816 ) ) ;
#788 = CARTESIAN_POINT ( 'NONE',  ( 218.3273854894824808, -39.99999999999999289, -95.00026364683250790 ) ) ;
#789 = LINE ( 'NONE', #344, #99 ) ;
#790 = DIRECTION ( 'NONE',  ( 0.000000000000000000, -0.000000000000000000, -1.000000000000000000 ) ) ;
#791 =( NAMED_UNIT ( * ) SI_UNIT ( $, .STERADIAN. ) SOLID_ANGLE_UNIT ( ) );
#792 = ORIENTED_EDGE ( 'NONE', *, *, #1148, .T. ) ;
#793 = LINE ( 'NONE', #1187, #246 ) ;
#794 = DIRECTION ( 'NONE',  ( -0.000000000000000000, -1.000000000000000000, -0.000000000000000000 ) ) ;
#795 = CLOSED_SHELL ( 'NONE', ( #859, #637, #72, #945, #815, #879, #385, #1065, #486, #1040 ) ) ;
#796 = VECTOR ( 'NONE', #504, 1000.000000000000000 ) ;
#797 = CIRCLE ( 'NONE', #413, 99.99999999999997158 ) ;
#798 = ADVANCED_FACE ( 'NONE', ( #719 ), #1102, .F. ) ;
#799 = CIRCLE ( 'NONE', #878, 100.0000000000000000 ) ;
#800 = LINE ( 'NONE', #784, #963 ) ;
#801 =( NAMED_UNIT ( * ) PLANE_ANGLE_UNIT ( ) SI_UNIT ( $, .RADIAN. ) );
#802 = ORIENTED_EDGE ( 'NONE', *, *, #1011, .F. ) ;
#803 = DIRECTION ( 'NONE',  ( 0.000000000000000000, 0.000000000000000000, -1.000000000000000000 ) ) ;
#804 = ADVANCED_FACE ( 'NONE', ( #301 ), #549, .F. ) ;
#805 = DIRECTION ( 'NONE',  ( 0.9999736353167627545, -0.000000000000000000, 0.007261451051829060505 ) ) ;
#806 = PLANE ( 'NONE',  #843 ) ;
#807 = LINE ( 'NONE', #323, #922 ) ;
#808 = FACE_OUTER_BOUND ( 'NONE', #1108, .T. ) ;
#809 = PLANE ( 'NONE',  #667 ) ;
#810 = ORIENTED_EDGE ( 'NONE', *, *, #198, .F. ) ;
#811 = VERTEX_POINT ( 'NONE', #927 ) ;
#812 = CARTESIAN_POINT ( 'NONE',  ( 0.07261451051825866532, 0.000000000000000000, -360.0007909404973816 ) ) ;
#813 = LINE ( 'NONE', #164, #1156 ) ;
#814 = CARTESIAN_POINT ( 'NONE',  ( 218.3273854894824524, 3.000000000000000000, -155.0002636468325079 ) ) ;
#815 = ADVANCED_FACE ( 'NONE', ( #655 ), #828, .F. ) ;
#816 = LINE ( 'NONE', #1195, #101 ) ;
#817 = VERTEX_POINT ( 'NONE', #1034 ) ;
#818 = VERTEX_POINT ( 'NONE', #571 ) ;
#819 = AXIS2_PLACEMENT_3D ( 'NONE', #703, #203, #803 ) ;
#820 = CARTESIAN_POINT ( 'NONE',  ( 238.3273854894817134, -43.00000000000000000, -275.0002636468324795 ) ) ;
#821 = AXIS2_PLACEMENT_3D ( 'NONE', #1162, #601, #428 ) ;
#822 = LINE ( 'NONE', #187, #328 ) ;
#823 = EDGE_LOOP ( 'NONE', ( #1139, #380, #289, #554 ) ) ;
#824 = APPROVAL ( #552, 'UNSPECIFIED' ) ;
#825 = ORIENTED_EDGE ( 'NONE', *, *, #1164, .T. ) ;
#826 = CARTESIAN_POINT ( 'NONE',  ( 0.07261451051828989034, 0.000000000000000000, -9.999736353167531178 ) ) ;
#827 = CARTESIAN_POINT ( 'NONE',  ( -0.07261451051832458481, -39.99999999999999289, -380.0002636468324226 ) ) ;
#828 = CYLINDRICAL_SURFACE ( 'NONE', #644, 79.99999999999995737 ) ;
#829 = ORIENTED_EDGE ( 'NONE', *, *, #350, .F. ) ;
#830 = VERTEX_POINT ( 'NONE', #1115 ) ;
#831 = LINE ( 'NONE', #105, #252 ) ;
#832 = DIRECTION ( 'NONE',  ( 0.007261451051829231375, 0.000000000000000000, 0.9999736353167626435 ) ) ;
#833 = ADVANCED_FACE ( 'NONE', ( #946 ), #660, .F. ) ;
#834 = EDGE_CURVE ( 'NONE', #1008, #955, #1184, .T. ) ;
#835 = PERSON_AND_ORGANIZATION ( #1226, #725 ) ;
#836 = VERTEX_POINT ( 'NONE', #245 ) ;
#837 = ORIENTED_EDGE ( 'NONE', *, *, #557, .F. ) ;
#838 = EDGE_CURVE ( 'NONE', #830, #8, #624, .T. ) ;
#839 = DIRECTION ( 'NONE',  ( 5.551115123125856066E-15, -0.000000000000000000, -1.000000000000000000 ) ) ;
#840 = ORIENTED_EDGE ( 'NONE', *, *, #24, .F. ) ;
#841 = CARTESIAN_POINT ( 'NONE',  ( 218.3273854894824808, 3.000000000000000000, -95.00026364683250790 ) ) ;
#842 = VECTOR ( 'NONE', #514, 1000.000000000000000 ) ;
#843 = AXIS2_PLACEMENT_3D ( 'NONE', #1189, #714, #1097 ) ;
#844 = ORIENTED_EDGE ( 'NONE', *, *, #310, .T. ) ;
#845 = ORIENTED_EDGE ( 'NONE', *, *, #850, .F. ) ;
#846 = APPROVAL_PERSON_ORGANIZATION ( #891, #218, #688 ) ;
#847 = CARTESIAN_POINT ( 'NONE',  ( 218.3273854894824524, -39.99999999999999289, -280.0007909404973248 ) ) ;
#848 = VERTEX_POINT ( 'NONE', #38 ) ;
#849 = CC_DESIGN_PERSON_AND_ORGANIZATION_ASSIGNMENT ( #44, #332, ( #121 ) ) ;
#850 = EDGE_CURVE ( 'NONE', #338, #1048, #797, .T. ) ;
#851 = ORIENTED_EDGE ( 'NONE', *, *, #369, .T. ) ;
#852 = CARTESIAN_POINT ( 'NONE',  ( 138.3273854894817134, 0.000000000000000000, -280.0002636468323658 ) ) ;
#853 = ORIENTED_EDGE ( 'NONE', *, *, #382, .T. ) ;
#854 = DIRECTION ( 'NONE',  ( 0.000000000000000000, -0.000000000000000000, 1.000000000000000000 ) ) ;
#855 = ORIENTED_EDGE ( 'NONE', *, *, #342, .T. ) ;
#856 = EDGE_CURVE ( 'NONE', #394, #750, #516, .T. ) ;
#857 = CARTESIAN_POINT ( 'NONE',  ( -0.07261451051832458481, -39.99999999999999289, -380.0002636468324226 ) ) ;
#858 = ORIENTED_EDGE ( 'NONE', *, *, #236, .F. ) ;
#859 = ADVANCED_FACE ( 'NONE', ( #485 ), #1129, .T. ) ;
#860 = DIRECTION ( 'NONE',  ( -0.000000000000000000, -1.000000000000000000, -0.000000000000000000 ) ) ;
#861 = VECTOR ( 'NONE', #1086, 1000.000000000000000 ) ;
#862 = EDGE_LOOP ( 'NONE', ( #1051, #941, #183, #1014 ) ) ;
#863 = VECTOR ( 'NONE', #768, 1000.000000000000000 ) ;
#864 = EDGE_CURVE ( 'NONE', #1150, #959, #783, .T. ) ;
#865 = CARTESIAN_POINT ( 'NONE',  ( 138.3273854894817134, 3.000000000000000000, 9.999736353167476111 ) ) ;
#866 = VERTEX_POINT ( 'NONE', #769 ) ;
#867 = VECTOR ( 'NONE', #870, 1000.000000000000000 ) ;
#868 = ORIENTED_EDGE ( 'NONE', *, *, #1103, .T. ) ;
#869 = PLANE ( 'NONE',  #379 ) ;
#870 = DIRECTION ( 'NONE',  ( -0.000000000000000000, -1.000000000000000000, -0.000000000000000000 ) ) ;
#871 = EDGE_CURVE ( 'NONE', #584, #955, #491, .T. ) ;
#872 = CARTESIAN_POINT ( 'NONE',  ( 138.3273854894824240, -39.99999999999999289, -89.99973635316756315 ) ) ;
#873 = EDGE_CURVE ( 'NONE', #402, #333, #1206, .T. ) ;
#874 = LINE ( 'NONE', #403, #157 ) ;
#875 = AXIS2_PLACEMENT_3D ( 'NONE', #841, #925, #728 ) ;
#876 = CARTESIAN_POINT ( 'NONE',  ( 138.3273854894817134, -39.99999999999999289, -90.00026364683252211 ) ) ;
#877 = VECTOR ( 'NONE', #905, 1000.000000000000000 ) ;
#878 = AXIS2_PLACEMENT_3D ( 'NONE', #303, #665, #438 ) ;
#879 = ADVANCED_FACE ( 'NONE', ( #1214 ), #115, .F. ) ;
#880 = DIRECTION ( 'NONE',  ( -0.000000000000000000, -1.000000000000000000, -0.000000000000000000 ) ) ;
#881 = DIRECTION ( 'NONE',  ( -0.007261451051829059637, -0.000000000000000000, 0.9999736353167626435 ) ) ;
#882 = ADVANCED_FACE ( 'NONE', ( #288 ), #1212, .F. ) ;
#883 =( LENGTH_UNIT ( ) NAMED_UNIT ( * ) SI_UNIT ( .MILLI., .METRE. ) );
#884 = DIRECTION ( 'NONE',  ( 0.000000000000000000, 0.000000000000000000, -1.000000000000000000 ) ) ;
#885 = EDGE_CURVE ( 'NONE', #1228, #463, #1037, .T. ) ;
#886 = LINE ( 'NONE', #484, #1076 ) ;
#887 = FACE_OUTER_BOUND ( 'NONE', #957, .T. ) ;
#888 = DIRECTION ( 'NONE',  ( 0.000000000000000000, 0.000000000000000000, -1.000000000000000000 ) ) ;
#889 = LINE ( 'NONE', #43, #1175 ) ;
#890 = CARTESIAN_POINT ( 'NONE',  ( 99.92738548948169353, -39.99999999999999289, 9.999736353167531178 ) ) ;
#891 = PERSON_AND_ORGANIZATION ( #1226, #725 ) ;
#892 = LINE ( 'NONE', #787, #779 ) ;
#893 = FACE_OUTER_BOUND ( 'NONE', #458, .T. ) ;
#894 = CARTESIAN_POINT ( 'NONE',  ( 238.3273854894817134, 3.000000000000000000, -215.0002636468324511 ) ) ;
#895 = DIRECTION ( 'NONE',  ( -0.000000000000000000, -1.000000000000000000, -0.000000000000000000 ) ) ;
#896 = CARTESIAN_POINT ( 'NONE',  ( 0.000000000000000000, 0.000000000000000000, 0.000000000000000000 ) ) ;
#897 = ORIENTED_EDGE ( 'NONE', *, *, #856, .F. ) ;
#898 = CARTESIAN_POINT ( 'NONE',  ( 0.07261451051825866532, 3.000000000000000000, -360.0007909404973816 ) ) ;
#899 = CARTESIAN_POINT ( 'NONE',  ( 218.3273854894824524, -39.99999999999999289, -215.0002636468324511 ) ) ;
#900 = DIRECTION ( 'NONE',  ( 0.000000000000000000, 1.000000000000000000, 0.000000000000000000 ) ) ;
#901 = AXIS2_PLACEMENT_3D ( 'NONE', #322, #243, #535 ) ;
#902 = VECTOR ( 'NONE', #951, 1000.000000000000114 ) ;
#903 = PLANE ( 'NONE',  #219 ) ;
#904 = VECTOR ( 'NONE', #740, 1000.000000000000000 ) ;
#905 = DIRECTION ( 'NONE',  ( -5.551115123125901031E-15, 0.000000000000000000, -1.000000000000000000 ) ) ;
#906 = APPLICATION_CONTEXT ( 'configuration controlled 3d designs of mechanical parts and assemblies' ) ;
#907 = VERTEX_POINT ( 'NONE', #647 ) ;
#908 = PERSON_AND_ORGANIZATION ( #1226, #725 ) ;
#909 = EDGE_LOOP ( 'NONE', ( #470, #609, #296, #1210, #851, #1031, #998, #673 ) ) ;
#910 = ORIENTED_EDGE ( 'NONE', *, *, #981, .F. ) ;
#911 = DIRECTION ( 'NONE',  ( 0.007261451051829059637, 0.000000000000000000, -0.9999736353167626435 ) ) ;
#912 = FACE_OUTER_BOUND ( 'NONE', #756, .T. ) ;
#913 = DIRECTION ( 'NONE',  ( -0.000000000000000000, -1.000000000000000000, 0.000000000000000000 ) ) ;
#914 = EDGE_CURVE ( 'NONE', #1132, #692, #361, .T. ) ;
#915 = ORIENTED_EDGE ( 'NONE', *, *, #280, .F. ) ;
#916 = ORIENTED_EDGE ( 'NONE', *, *, #595, .F. ) ;
#917 = CARTESIAN_POINT ( 'NONE',  ( 138.3273854894823955, -43.00000000000000000, -360.0007909404973248 ) ) ;
#918 = DIRECTION ( 'NONE',  ( -0.000000000000000000, -1.000000000000000000, -0.000000000000000000 ) ) ;
#919 = EDGE_LOOP ( 'NONE', ( #627, #384, #581, #89 ) ) ;
#920 = VERTEX_POINT ( 'NONE', #80 ) ;
#921 = DIRECTION ( 'NONE',  ( 1.000000000000000000, -0.000000000000000000, 1.734723475976807403E-17 ) ) ;
#922 = VECTOR ( 'NONE', #715, 1000.000000000000114 ) ;
#923 = DIRECTION ( 'NONE',  ( -5.550529771288701250E-15, 0.000000000000000000, 1.000000000000000000 ) ) ;
#924 = VECTOR ( 'NONE', #520, 1000.000000000000000 ) ;
#925 = DIRECTION ( 'NONE',  ( 1.000000000000000000, -0.000000000000000000, 5.550529771288700461E-15 ) ) ;
#926 = LOCAL_TIME ( 13, 48, 54.00000000000000000, #709 ) ;
#927 = CARTESIAN_POINT ( 'NONE',  ( 138.3273854894824240, 0.000000000000000000, -9.999736353167559599 ) ) ;
#928 = ORIENTED_EDGE ( 'NONE', *, *, #291, .T. ) ;
#929 = ORIENTED_EDGE ( 'NONE', *, *, #215, .F. ) ;
#930 = PLANE ( 'NONE',  #431 ) ;
#931 = PLANE ( 'NONE',  #1122 ) ;
#932 = DIRECTION ( 'NONE',  ( -0.000000000000000000, -1.000000000000000000, -0.000000000000000000 ) ) ;
#933 = FACE_OUTER_BOUND ( 'NONE', #469, .T. ) ;
#934 = VERTEX_POINT ( 'NONE', #4 ) ;
#935 = ORIENTED_EDGE ( 'NONE', *, *, #1074, .F. ) ;
#936 = PLANE ( 'NONE',  #511 ) ;
#937 = VERTEX_POINT ( 'NONE', #460 ) ;
#938 = EDGE_CURVE ( 'NONE', #907, #620, #1219, .T. ) ;
#939 = CARTESIAN_POINT ( 'NONE',  ( 238.3273854894817134, 0.000000000000000000, -215.0002636468324511 ) ) ;
#940 = APPROVAL_ROLE ( '' ) ;
#941 = ORIENTED_EDGE ( 'NONE', *, *, #754, .F. ) ;
#942 = ORIENTED_EDGE ( 'NONE', *, *, #834, .T. ) ;
#943 = LINE ( 'NONE', #456, #210 ) ;
#944 = ORIENTED_EDGE ( 'NONE', *, *, #871, .T. ) ;
#945 = ADVANCED_FACE ( 'NONE', ( #749 ), #930, .F. ) ;
#946 = FACE_OUTER_BOUND ( 'NONE', #1006, .T. ) ;
#947 = CIRCLE ( 'NONE', #81, 99.99999999999997158 ) ;
#948 = ORIENTED_EDGE ( 'NONE', *, *, #69, .F. ) ;
#949 = DIRECTION ( 'NONE',  ( 0.000000000000000000, 1.000000000000000000, 0.000000000000000000 ) ) ;
#950 = VERTEX_POINT ( 'NONE', #755 ) ;
#951 = DIRECTION ( 'NONE',  ( 0.007261451051829231375, 0.000000000000000000, 0.9999736353167626435 ) ) ;
#952 = EDGE_CURVE ( 'NONE', #1085, #392, #943, .T. ) ;
#953 = EDGE_CURVE ( 'NONE', #750, #171, #1126, .T. ) ;
#954 = FACE_OUTER_BOUND ( 'NONE', #477, .T. ) ;
#955 = VERTEX_POINT ( 'NONE', #569 ) ;
#956 = CARTESIAN_POINT ( 'NONE',  ( 218.3273854894824524, 3.000000000000000000, -155.0002636468325079 ) ) ;
#957 = EDGE_LOOP ( 'NONE', ( #232, #27, #86, #182 ) ) ;
#958 = DIRECTION ( 'NONE',  ( -5.550529771288701250E-15, 0.000000000000000000, 1.000000000000000000 ) ) ;
#959 = VERTEX_POINT ( 'NONE', #575 ) ;
#960 = FACE_OUTER_BOUND ( 'NONE', #562, .T. ) ;
#961 = ORIENTED_EDGE ( 'NONE', *, *, #467, .F. ) ;
#962 = CARTESIAN_POINT ( 'NONE',  ( 238.3273854894816850, 3.000000000000000000, -280.0002636468323658 ) ) ;
#963 = VECTOR ( 'NONE', #337, 1000.000000000000000 ) ;
#964 = ORIENTED_EDGE ( 'NONE', *, *, #1123, .F. ) ;
#965 = VECTOR ( 'NONE', #91, 1000.000000000000000 ) ;
#966 = DIRECTION ( 'NONE',  ( -1.000000000000000000, 0.000000000000000000, 5.551115123125901031E-15 ) ) ;
#967 = LOCAL_TIME ( 13, 48, 54.00000000000000000, #1084 ) ;
#968 = CARTESIAN_POINT ( 'NONE',  ( -0.07261451051828989034, 3.000000000000000000, 9.999736353167531178 ) ) ;
#969 = CARTESIAN_POINT ( 'NONE',  ( 218.3273854894824524, -39.99999999999999289, -215.0002636468324511 ) ) ;
#970 = FACE_OUTER_BOUND ( 'NONE', #144, .T. ) ;
#971 = EDGE_CURVE ( 'NONE', #586, #818, #1144, .T. ) ;
#972 = CYLINDRICAL_SURFACE ( 'NONE', #1018, 100.0000000000000000 ) ;
#973 = VECTOR ( 'NONE', #126, 1000.000000000000000 ) ;
#974 = FACE_OUTER_BOUND ( 'NONE', #454, .T. ) ;
#975 = CARTESIAN_POINT ( 'NONE',  ( 218.3273854894824808, -39.99999999999999289, -275.0002636468323658 ) ) ;
#976 = VECTOR ( 'NONE', #518, 1000.000000000000000 ) ;
#977 = VECTOR ( 'NONE', #317, 1000.000000000000000 ) ;
#978 = CARTESIAN_POINT ( 'NONE',  ( 138.3273854894817134, 3.000000000000000000, 9.999736353167461900 ) ) ;
#979 = DIRECTION ( 'NONE',  ( -0.000000000000000000, -1.000000000000000000, -0.000000000000000000 ) ) ;
#980 = CARTESIAN_POINT ( 'NONE',  ( 138.3273854894817134, -43.00000000000000000, -280.0002636468323658 ) ) ;
#981 = EDGE_CURVE ( 'NONE', #206, #162, #831, .T. ) ;
#982 = DATE_AND_TIME ( #1099, #455 ) ;
#983 = CARTESIAN_POINT ( 'NONE',  ( 138.3273854894824240, 3.000000000000000000, -89.99973635316756315 ) ) ;
#984 = DIRECTION ( 'NONE',  ( -1.000000000000000000, 0.000000000000000000, -1.387778780781496754E-15 ) ) ;
#985 = EDGE_CURVE ( 'NONE', #811, #487, #651, .T. ) ;
#986 = DIRECTION ( 'NONE',  ( 1.000000000000000000, 0.000000000000000000, -0.000000000000000000 ) ) ;
#987 = PLANE ( 'NONE',  #429 ) ;
#988 = EDGE_CURVE ( 'NONE', #1048, #1116, #1204, .T. ) ;
#989 = APPLICATION_PROTOCOL_DEFINITION ( 'international standard', 'config_control_design', 1994, #1069 ) ;
#990 = ORIENTED_EDGE ( 'NONE', *, *, #450, .F. ) ;
#991 = CARTESIAN_POINT ( 'NONE',  ( -0.07261451051832458481, 3.000000000000000000, -380.0002636468324226 ) ) ;
#992 = DIRECTION ( 'NONE',  ( 1.000000000000000000, 0.000000000000000000, 1.387778780781496557E-15 ) ) ;
#993 = CARTESIAN_POINT ( 'NONE',  ( 138.3273854894816566, -39.99999999999999289, -380.0002636468323658 ) ) ;
#994 = LINE ( 'NONE', #978, #842 ) ;
#995 = DIRECTION ( 'NONE',  ( 0.000000000000000000, 1.000000000000000000, -0.000000000000000000 ) ) ;
#996 = DIRECTION ( 'NONE',  ( 5.550529771288670484E-15, -0.000000000000000000, 1.000000000000000000 ) ) ;
#997 = PERSON_AND_ORGANIZATION_ROLE ( 'design_owner' ) ;
#998 = ORIENTED_EDGE ( 'NONE', *, *, #128, .T. ) ;
#999 = EDGE_CURVE ( 'NONE', #1230, #94, #1046, .T. ) ;
#1000 = AXIS2_PLACEMENT_3D ( 'NONE', #636, #364, #1012 ) ;
#1001 = VECTOR ( 'NONE', #563, 1000.000000000000000 ) ;
#1002 = CC_DESIGN_APPROVAL ( #218, ( #414 ) ) ;
#1003 = CARTESIAN_POINT ( 'NONE',  ( 218.3273854894824524, 3.000000000000000000, -89.99973635316759157 ) ) ;
#1004 = ORIENTED_EDGE ( 'NONE', *, *, #450, .T. ) ;
#1005 = EDGE_CURVE ( 'NONE', #866, #108, #368, .T. ) ;
#1006 = EDGE_LOOP ( 'NONE', ( #1119, #810, #479, #110 ) ) ;
#1007 = EDGE_LOOP ( 'NONE', ( #676, #249, #241, #1135 ) ) ;
#1008 = VERTEX_POINT ( 'NONE', #847 ) ;
#1009 = ORIENTED_EDGE ( 'NONE', *, *, #202, .T. ) ;
#1010 = DIRECTION ( 'NONE',  ( -0.007261451051829059637, -0.000000000000000000, 0.9999736353167626435 ) ) ;
#1011 = EDGE_CURVE ( 'NONE', #572, #440, #641, .T. ) ;
#1012 = DIRECTION ( 'NONE',  ( -1.000000000000000000, 0.000000000000000000, -0.000000000000000000 ) ) ;
#1013 = CALENDAR_DATE ( 2026, 31, 7 ) ;
#1014 = ORIENTED_EDGE ( 'NONE', *, *, #953, .T. ) ;
#1015 = EDGE_CURVE ( 'NONE', #487, #937, #1118, .T. ) ;
#1016 = VERTEX_POINT ( 'NONE', #268 ) ;
#1017 = DIRECTION ( 'NONE',  ( 0.000000000000000000, 0.000000000000000000, -1.000000000000000000 ) ) ;
#1018 = AXIS2_PLACEMENT_3D ( 'NONE', #430, #979, #329 ) ;
#1019 = DIRECTION ( 'NONE',  ( 1.000000000000000000, 0.000000000000000000, -0.000000000000000000 ) ) ;
#1020 = AXIS2_PLACEMENT_3D ( 'NONE', #251, #371, #273 ) ;
#1021 = LINE ( 'NONE', #408, #471 ) ;
#1022 = ORIENTED_EDGE ( 'NONE', *, *, #7, .T. ) ;
#1023 = EDGE_LOOP ( 'NONE', ( #1192, #753, #481, #1054 ) ) ;
#1024 = LINE ( 'NONE', #545, #1225 ) ;
#1025 = ORIENTED_EDGE ( 'NONE', *, *, #1063, .F. ) ;
#1026 = EDGE_CURVE ( 'NONE', #8, #1230, #1024, .T. ) ;
#1027 = DIRECTION ( 'NONE',  ( 1.451090930900692301E-15, 0.000000000000000000, -1.000000000000000000 ) ) ;
#1028 = ORIENTED_EDGE ( 'NONE', *, *, #708, .T. ) ;
#1029 = ORIENTED_EDGE ( 'NONE', *, *, #406, .T. ) ;
#1030 = DIRECTION ( 'NONE',  ( 0.000000000000000000, 1.000000000000000000, -0.000000000000000000 ) ) ;
#1031 = ORIENTED_EDGE ( 'NONE', *, *, #69, .T. ) ;
#1032 = CARTESIAN_POINT ( 'NONE',  ( 138.3273854894823671, 3.000000000000000000, -360.0007909404973248 ) ) ;
#1033 = CARTESIAN_POINT ( 'NONE',  ( 138.3273854894817134, 3.000000000000000000, -280.0002636468323658 ) ) ;
#1034 = CARTESIAN_POINT ( 'NONE',  ( 138.3273854894824240, 3.000000000000000000, -9.999736353167559599 ) ) ;
#1035 = PLANE ( 'NONE',  #623 ) ;
#1036 = ORIENTED_EDGE ( 'NONE', *, *, #834, .F. ) ;
#1037 = LINE ( 'NONE', #735, #270 ) ;
#1038 = ORIENTED_EDGE ( 'NONE', *, *, #988, .F. ) ;
#1039 = FACE_OUTER_BOUND ( 'NONE', #919, .T. ) ;
#1040 = ADVANCED_FACE ( 'NONE', ( #561 ), #936, .F. ) ;
#1041 = AXIS2_PLACEMENT_3D ( 'NONE', #515, #227, #421 ) ;
#1042 = VECTOR ( 'NONE', #832, 1000.000000000000114 ) ;
#1043 = AXIS2_PLACEMENT_3D ( 'NONE', #730, #229, #437 ) ;
#1044 = DIRECTION ( 'NONE',  ( 0.000000000000000000, 0.000000000000000000, 1.000000000000000000 ) ) ;
#1045 = ORIENTED_EDGE ( 'NONE', *, *, #678, .F. ) ;
#1046 = CIRCLE ( 'NONE', #82, 100.0000000000000000 ) ;
#1047 = DIRECTION ( 'NONE',  ( -0.000000000000000000, -1.000000000000000000, -0.000000000000000000 ) ) ;
#1048 = VERTEX_POINT ( 'NONE', #482 ) ;
#1049 = ORIENTED_EDGE ( 'NONE', *, *, #686, .F. ) ;
#1050 = CARTESIAN_POINT ( 'NONE',  ( 238.3273854894817134, -39.99999999999999289, -215.0002636468324511 ) ) ;
#1051 = ORIENTED_EDGE ( 'NONE', *, *, #594, .T. ) ;
#1052 = CLOSED_SHELL ( 'NONE', ( #222, #1163, #20, #745, #751, #363, #96, #612, #798, #1183 ) ) ;
#1053 = CARTESIAN_POINT ( 'NONE',  ( 0.07261451051825866532, -43.00000000000000000, -360.0007909404973816 ) ) ;
#1054 = ORIENTED_EDGE ( 'NONE', *, *, #313, .T. ) ;
#1055 = EDGE_CURVE ( 'NONE', #108, #775, #646, .T. ) ;
#1056 = FACE_OUTER_BOUND ( 'NONE', #176, .T. ) ;
#1057 = EDGE_CURVE ( 'NONE', #710, #907, #113, .T. ) ;
#1058 = VECTOR ( 'NONE', #284, 1000.000000000000000 ) ;
#1059 = VECTOR ( 'NONE', #984, 1000.000000000000000 ) ;
#1060 = DIRECTION ( 'NONE',  ( -1.000000000000000000, 0.000000000000000000, 7.708920570409924211E-16 ) ) ;
#1061 = ORIENTED_EDGE ( 'NONE', *, *, #369, .F. ) ;
#1062 = VECTOR ( 'NONE', #473, 1000.000000000000000 ) ;
#1063 = EDGE_CURVE ( 'NONE', #955, #306, #211, .T. ) ;
#1064 = PLANE ( 'NONE',  #119 ) ;
#1065 = ADVANCED_FACE ( 'NONE', ( #1067 ), #869, .F. ) ;
#1066 = CC_DESIGN_PERSON_AND_ORGANIZATION_ASSIGNMENT ( #600, #1168, ( #476 ) ) ;
#1067 = FACE_OUTER_BOUND ( 'NONE', #738, .T. ) ;
#1068 = DIRECTION ( 'NONE',  ( -0.000000000000000000, -1.000000000000000000, 0.000000000000000000 ) ) ;
#1069 = APPLICATION_CONTEXT ( 'configuration controlled 3d designs of mechanical parts and assemblies' ) ;
#1070 = CARTESIAN_POINT ( 'NONE',  ( 238.3273854894817134, -39.99999999999999289, -155.0002636468324795 ) ) ;
#1071 = EDGE_CURVE ( 'NONE', #866, #170, #25, .T. ) ;
#1072 = CALENDAR_DATE ( 2026, 31, 7 ) ;
#1073 = PRODUCT_DEFINITION_SHAPE ( 'NONE', 'NONE',  #414 ) ;
#1074 = EDGE_CURVE ( 'NONE', #197, #402, #307, .T. ) ;
#1075 = LINE ( 'NONE', #1090, #764 ) ;
#1076 = VECTOR ( 'NONE', #958, 1000.000000000000000 ) ;
#1077 = CARTESIAN_POINT ( 'NONE',  ( 138.3273854894824240, -39.99999999999999289, -9.999736353167559599 ) ) ;
#1078 = AXIS2_PLACEMENT_3D ( 'NONE', #1188, #711, #718 ) ;
#1079 = DIRECTION ( 'NONE',  ( -1.000000000000000000, 0.000000000000000000, -1.445602896647340100E-15 ) ) ;
#1080 = CARTESIAN_POINT ( 'NONE',  ( 238.3273854894816850, -39.99999999999999289, -280.0002636468323658 ) ) ;
#1081 = VECTOR ( 'NONE', #1010, 1000.000000000000227 ) ;
#1082 = ORIENTED_CLOSED_SHELL ( 'NONE', *, #341, .F. );
#1083 = FACE_OUTER_BOUND ( 'NONE', #1007, .T. ) ;
#1084 = COORDINATED_UNIVERSAL_TIME_OFFSET ( 3, 30, .AHEAD. ) ;
#1085 = VERTEX_POINT ( 'NONE', #685 ) ;
#1086 = DIRECTION ( 'NONE',  ( -0.000000000000000000, -1.000000000000000000, -0.000000000000000000 ) ) ;
#1087 = CARTESIAN_POINT ( 'NONE',  ( 138.3273854894817134, -43.00000000000000000, 9.999736353167476111 ) ) ;
#1088 = DIRECTION ( 'NONE',  ( -0.000000000000000000, -1.000000000000000000, -0.000000000000000000 ) ) ;
#1089 = CARTESIAN_POINT ( 'NONE',  ( 238.3273854894816850, 0.000000000000000000, -280.0002636468323658 ) ) ;
#1090 = CARTESIAN_POINT ( 'NONE',  ( 218.3273854894824524, 3.000000000000000000, -89.99973635316759157 ) ) ;
#1091 = PERSON_AND_ORGANIZATION ( #1226, #725 ) ;
#1092 = EDGE_LOOP ( 'NONE', ( #201, #727, #533, #538 ) ) ;
#1093 = DIRECTION ( 'NONE',  ( 0.000000000000000000, 0.000000000000000000, 1.000000000000000000 ) ) ;
#1094 = DIRECTION ( 'NONE',  ( 0.000000000000000000, 0.000000000000000000, -1.000000000000000000 ) ) ;
#1095 = LINE ( 'NONE', #814, #664 ) ;
#1096 = DIRECTION ( 'NONE',  ( 5.550529771288700461E-15, 0.000000000000000000, -1.000000000000000000 ) ) ;
#1097 = DIRECTION ( 'NONE',  ( 1.000000000000000000, 0.000000000000000000, -0.000000000000000000 ) ) ;
#1098 = ORIENTED_EDGE ( 'NONE', *, *, #938, .T. ) ;
#1099 = CALENDAR_DATE ( 2026, 31, 7 ) ;
#1100 = ORIENTED_EDGE ( 'NONE', *, *, #1071, .F. ) ;
#1101 = CARTESIAN_POINT ( 'NONE',  ( 138.3273854894817134, -39.99999999999999289, 9.999736353167461900 ) ) ;
#1102 = PLANE ( 'NONE',  #1020 ) ;
#1103 = EDGE_CURVE ( 'NONE', #572, #347, #109, .T. ) ;
#1104 = AXIS2_PLACEMENT_3D ( 'NONE', #653, #723, #443 ) ;
#1105 = CIRCLE ( 'NONE', #821, 80.00000000000000000 ) ;
#1106 = CARTESIAN_POINT ( 'NONE',  ( -0.07261451051832458481, 3.000000000000000000, -380.0002636468324226 ) ) ;
#1107 = DIRECTION ( 'NONE',  ( -0.000000000000000000, -1.000000000000000000, 0.000000000000000000 ) ) ;
#1108 = EDGE_LOOP ( 'NONE', ( #792, #64, #1227, #269, #186, #1009, #367, #717 ) ) ;
#1109 = CARTESIAN_POINT ( 'NONE',  ( 99.92738548948166510, -43.00000000000000000, -380.0002636468324226 ) ) ;
#1110 = FACE_OUTER_BOUND ( 'NONE', #446, .T. ) ;
#1111 = ORIENTED_EDGE ( 'NONE', *, *, #7, .F. ) ;
#1112 = ORIENTED_EDGE ( 'NONE', *, *, #277, .F. ) ;
#1113 = CARTESIAN_POINT ( 'NONE',  ( 238.3273854894817134, 3.000000000000000000, -275.0002636468324795 ) ) ;
#1114 = CARTESIAN_POINT ( 'NONE',  ( 138.3273854894823671, -39.99999999999999289, -360.0007909404973248 ) ) ;
#1115 = CARTESIAN_POINT ( 'NONE',  ( 0.07261451051828989034, 3.000000000000000000, -9.999736353167531178 ) ) ;
#1116 = VERTEX_POINT ( 'NONE', #585 ) ;
#1117 = ORIENTED_EDGE ( 'NONE', *, *, #630, .F. ) ;
#1118 = LINE ( 'NONE', #634, #1081 ) ;
#1119 = ORIENTED_EDGE ( 'NONE', *, *, #125, .T. ) ;
#1120 = DIRECTION ( 'NONE',  ( -0.000000000000000000, -1.000000000000000000, -0.000000000000000000 ) ) ;
#1121 = VECTOR ( 'NONE', #932, 1000.000000000000000 ) ;
#1122 = AXIS2_PLACEMENT_3D ( 'NONE', #100, #854, #1019 ) ;
#1123 = EDGE_CURVE ( 'NONE', #848, #106, #9, .T. ) ;
#1124 = ORIENTED_EDGE ( 'NONE', *, *, #21, .F. ) ;
#1125 = ORIENTED_EDGE ( 'NONE', *, *, #10, .F. ) ;
#1126 = LINE ( 'NONE', #278, #31 ) ;
#1127 = ORIENTED_EDGE ( 'NONE', *, *, #757, .T. ) ;
#1128 = LINE ( 'NONE', #1222, #356 ) ;
#1129 = CYLINDRICAL_SURFACE ( 'NONE', #174, 99.99999999999997158 ) ;
#1130 = CARTESIAN_POINT ( 'NONE',  ( 99.92738548948166510, 0.000000000000000000, -380.0002636468324226 ) ) ;
#1131 = DIRECTION ( 'NONE',  ( 0.000000000000000000, 0.000000000000000000, -1.000000000000000000 ) ) ;
#1132 = VERTEX_POINT ( 'NONE', #124 ) ;
#1133 = ORIENTED_EDGE ( 'NONE', *, *, #1015, .F. ) ;
#1134 = CARTESIAN_POINT ( 'NONE',  ( 238.3273854894817134, 3.000000000000000000, -275.0002636468324795 ) ) ;
#1135 = ORIENTED_EDGE ( 'NONE', *, *, #159, .T. ) ;
#1136 = UNCERTAINTY_MEASURE_WITH_UNIT (LENGTH_MEASURE( 1.000000000000000082E-05 ), #883, 'distance_accuracy_value', 'NONE');
#1137 = DIRECTION ( 'NONE',  ( -0.000000000000000000, -1.000000000000000000, -0.000000000000000000 ) ) ;
#1138 = DIRECTION ( 'NONE',  ( 1.000000000000000000, -0.000000000000000000, -0.000000000000000000 ) ) ;
#1139 = ORIENTED_EDGE ( 'NONE', *, *, #277, .T. ) ;
#1140 = DIRECTION ( 'NONE',  ( -1.445602896647339114E-15, 0.000000000000000000, -1.000000000000000000 ) ) ;
#1141 = ORIENTED_EDGE ( 'NONE', *, *, #453, .F. ) ;
#1142 = CARTESIAN_POINT ( 'NONE',  ( 218.3273854894824524, 0.000000000000000000, -89.99973635316759157 ) ) ;
#1143 = VECTOR ( 'NONE', #83, 1000.000000000000000 ) ;
#1144 = CIRCLE ( 'NONE', #58, 99.99999999999997158 ) ;
#1145 = ORIENTED_EDGE ( 'NONE', *, *, #406, .F. ) ;
#1146 = PLANE ( 'NONE',  #605 ) ;
#1147 = VERTEX_POINT ( 'NONE', #1151 ) ;
#1148 = EDGE_CURVE ( 'NONE', #463, #394, #396, .T. ) ;
#1149 = LINE ( 'NONE', #417, #451 ) ;
#1150 = VERTEX_POINT ( 'NONE', #956 ) ;
#1151 = CARTESIAN_POINT ( 'NONE',  ( 138.3273854894824240, -43.00000000000000000, -9.999736353167559599 ) ) ;
#1152 = ORIENTED_EDGE ( 'NONE', *, *, #952, .F. ) ;
#1153 = DIRECTION ( 'NONE',  ( 0.000000000000000000, 1.000000000000000000, 0.000000000000000000 ) ) ;
#1154 = EDGE_CURVE ( 'NONE', #817, #830, #580, .T. ) ;
#1155 = VECTOR ( 'NONE', #880, 1000.000000000000000 ) ;
#1156 = VECTOR ( 'NONE', #285, 1000.000000000000000 ) ;
#1157 = CARTESIAN_POINT ( 'NONE',  ( 238.3273854894817134, -39.99999999999999289, -275.0002636468324795 ) ) ;
#1158 = LOCAL_TIME ( 13, 48, 54.00000000000000000, #461 ) ;
#1159 = CARTESIAN_POINT ( 'NONE',  ( 138.3273854894824240, -39.99999999999999289, -280.0007909404973248 ) ) ;
#1160 = LINE ( 'NONE', #679, #1058 ) ;
#1161 = CARTESIAN_POINT ( 'NONE',  ( 218.3273854894824524, 3.000000000000000000, -215.0002636468324511 ) ) ;
#1162 = CARTESIAN_POINT ( 'NONE',  ( 138.3273854894824240, 0.000000000000000000, -89.99973635316756315 ) ) ;
#1163 = ADVANCED_FACE ( 'NONE', ( #970 ), #207, .F. ) ;
#1164 = EDGE_CURVE ( 'NONE', #440, #586, #874, .T. ) ;
#1165 = CARTESIAN_POINT ( 'NONE',  ( 218.3273854894824524, 3.000000000000000000, -155.0002636468325079 ) ) ;
#1166 = DIRECTION ( 'NONE',  ( 4.625929269271485914E-16, 0.000000000000000000, 1.000000000000000000 ) ) ;
#1167 = PLANE ( 'NONE',  #172 ) ;
#1168 = PERSON_AND_ORGANIZATION_ROLE ( 'design_supplier' ) ;
#1169 = LINE ( 'NONE', #1193, #374 ) ;
#1170 = DIRECTION ( 'NONE',  ( -0.007261451051829059637, -0.000000000000000000, 0.9999736353167626435 ) ) ;
#1171 = LINE ( 'NONE', #899, #250 ) ;
#1172 = FACE_OUTER_BOUND ( 'NONE', #355, .T. ) ;
#1173 = ADVANCED_BREP_SHAPE_REPRESENTATION ( 'Link1StellConnectors_Default_sldprt', ( #294, #684, #308, #224 ), #493 ) ;
#1174 = ORIENTED_EDGE ( 'NONE', *, *, #291, .F. ) ;
#1175 = VECTOR ( 'NONE', #425, 1000.000000000000000 ) ;
#1176 = ORIENTED_EDGE ( 'NONE', *, *, #598, .F. ) ;
#1177 = LINE ( 'NONE', #1161, #861 ) ;
#1178 = AXIS2_PLACEMENT_3D ( 'NONE', #1032, #1027, #466 ) ;
#1179 = PLANE ( 'NONE',  #378 ) ;
#1180 = CC_DESIGN_APPROVAL ( #772, ( #476 ) ) ;
#1181 = CARTESIAN_POINT ( 'NONE',  ( 218.3273854894824524, -39.99999999999999289, -215.0002636468324511 ) ) ;
#1182 = ORIENTED_EDGE ( 'NONE', *, *, #670, .F. ) ;
#1183 = ADVANCED_FACE ( 'NONE', ( #1056 ), #1146, .T. ) ;
#1184 = LINE ( 'NONE', #716, #924 ) ;
#1185 = COORDINATED_UNIVERSAL_TIME_OFFSET ( 3, 30, .AHEAD. ) ;
#1186 = EDGE_LOOP ( 'NONE', ( #92, #304, #11, #366 ) ) ;
#1187 = CARTESIAN_POINT ( 'NONE',  ( 138.3273854894823671, 0.000000000000000000, -360.0007909404973248 ) ) ;
#1188 = CARTESIAN_POINT ( 'NONE',  ( -0.07261451051832458481, 3.000000000000000000, -380.0002636468324226 ) ) ;
#1189 = CARTESIAN_POINT ( 'NONE',  ( 0.07261451051828989034, 3.000000000000000000, -9.999736353167531178 ) ) ;
#1190 = CARTESIAN_POINT ( 'NONE',  ( 238.3273854894816850, 3.000000000000000000, -90.00026364683253632 ) ) ;
#1191 = ORIENTED_EDGE ( 'NONE', *, *, #524, .T. ) ;
#1192 = ORIENTED_EDGE ( 'NONE', *, *, #523, .T. ) ;
#1193 = CARTESIAN_POINT ( 'NONE',  ( 138.3273854894816566, 3.000000000000000000, -380.0002636468323658 ) ) ;
#1194 = PLANE ( 'NONE',  #475 ) ;
#1195 = CARTESIAN_POINT ( 'NONE',  ( 238.3273854894816850, -39.99999999999999289, -280.0002636468323658 ) ) ;
#1196 = ORIENTED_EDGE ( 'NONE', *, *, #1026, .T. ) ;
#1197 = ORIENTED_EDGE ( 'NONE', *, *, #12, .T. ) ;
#1198 = VECTOR ( 'NONE', #547, 1000.000000000000000 ) ;
#1199 = AXIS2_PLACEMENT_3D ( 'NONE', #721, #1107, #254 ) ;
#1200 = VECTOR ( 'NONE', #488, 1000.000000000000000 ) ;
#1201 = VECTOR ( 'NONE', #777, 1000.000000000000114 ) ;
#1202 = DIRECTION ( 'NONE',  ( -0.000000000000000000, -1.000000000000000000, -0.000000000000000000 ) ) ;
#1203 = ORIENTED_EDGE ( 'NONE', *, *, #342, .F. ) ;
#1204 = LINE ( 'NONE', #1109, #699 ) ;
#1205 = EDGE_CURVE ( 'NONE', #8, #937, #30, .T. ) ;
#1206 = LINE ( 'NONE', #362, #1042 ) ;
#1207 = LINE ( 'NONE', #480, #15 ) ;
#1208 = PLANE ( 'NONE',  #1000 ) ;
#1209 = ORIENTED_EDGE ( 'NONE', *, *, #215, .T. ) ;
#1210 = ORIENTED_EDGE ( 'NONE', *, *, #467, .T. ) ;
#1211 = CARTESIAN_POINT ( 'NONE',  ( 238.3273854894817134, 3.000000000000000000, -215.0002636468324511 ) ) ;
#1212 = PLANE ( 'NONE',  #507 ) ;
#1213 = ADVANCED_FACE ( 'NONE', ( #960 ), #677, .F. ) ;
#1214 = FACE_OUTER_BOUND ( 'NONE', #381, .T. ) ;
#1215 = CARTESIAN_POINT ( 'NONE',  ( 138.3273854894817134, 0.000000000000000000, 9.999736353167461900 ) ) ;
#1216 = EDGE_CURVE ( 'NONE', #666, #1016, #799, .T. ) ;
#1217 = ORIENTED_EDGE ( 'NONE', *, *, #263, .F. ) ;
#1218 = VERTEX_POINT ( 'NONE', #537 ) ;
#1219 = LINE ( 'NONE', #376, #965 ) ;
#1220 = VERTEX_POINT ( 'NONE', #63 ) ;
#1221 = VECTOR ( 'NONE', #40, 1000.000000000000000 ) ;
#1222 = CARTESIAN_POINT ( 'NONE',  ( 218.3273854894824808, 0.000000000000000000, -95.00026364683250790 ) ) ;
#1223 = AXIS2_PLACEMENT_3D ( 'NONE', #336, #540, #986 ) ;
#1224 = CARTESIAN_POINT ( 'NONE',  ( 138.3273854894824240, 3.000000000000000000, -280.0007909404973248 ) ) ;
#1225 = VECTOR ( 'NONE', #921, 1000.000000000000000 ) ;
#1226 = PERSON ( 'UNSPECIFIED', 'UNSPECIFIED', 'UNSPECIFIED', ('UNSPECIFIED'), ('UNSPECIFIED'), ('UNSPECIFIED') ) ;
#1227 = ORIENTED_EDGE ( 'NONE', *, *, #410, .T. ) ;
#1228 = VERTEX_POINT ( 'NONE', #1077 ) ;
#1229 = DIRECTION ( 'NONE',  ( 4.625929269271489858E-16, 0.000000000000000000, -1.000000000000000000 ) ) ;
#1230 = VERTEX_POINT ( 'NONE', #320 ) ;
#1231 = ADVANCED_FACE ( 'NONE', ( #974 ), #809, .F. ) ;
ENDSEC;
END-ISO-10303-21;
