ISO-10303-21;
HEADER;
FILE_DESCRIPTION (( 'STEP AP203' ),
    '1' );
FILE_NAME ('Link1UpperShaft_Default_sldprt.STEP',
    '2026-07-23T12:34:50',
    ( '' ),
    ( '' ),
    'SwSTEP 2.0',
    'SolidWorks 2025',
    '' );
FILE_SCHEMA (( 'CONFIG_CONTROL_DESIGN' ));
ENDSEC;

DATA;
#1 = ORIENTED_EDGE ( 'NONE', *, *, #403, .F. ) ;
#2 = VERTEX_POINT ( 'NONE', #964 ) ;
#3 = CARTESIAN_POINT ( 'NONE',  ( 0.000000000000000000, 0.000000000000000000, 4.990000000000001101 ) ) ;
#4 = AXIS2_PLACEMENT_3D ( 'NONE', #88, #564, #474 ) ;
#5 = AXIS2_PLACEMENT_3D ( 'NONE', #760, #360, #752 ) ;
#6 = ADVANCED_FACE ( 'NONE', ( #409, #637 ), #651, .F. ) ;
#7 = DIRECTION ( 'NONE',  ( -1.000000000000000000, -0.000000000000000000, -0.000000000000000000 ) ) ;
#8 = VECTOR ( 'NONE', #950, 1000.000000000000000 ) ;
#9 = ORIENTED_EDGE ( 'NONE', *, *, #580, .T. ) ;
#10 = ORIENTED_EDGE ( 'NONE', *, *, #510, .F. ) ;
#11 = DIRECTION ( 'NONE',  ( 0.000000000000000000, 0.000000000000000000, 1.000000000000000000 ) ) ;
#12 = DIRECTION ( 'NONE',  ( -1.000000000000000000, -0.000000000000000000, -0.000000000000000000 ) ) ;
#13 = ORIENTED_EDGE ( 'NONE', *, *, #813, .T. ) ;
#14 = ORIENTED_EDGE ( 'NONE', *, *, #949, .F. ) ;
#15 = DIRECTION ( 'NONE',  ( -1.000000000000000000, -0.000000000000000000, -0.000000000000000000 ) ) ;
#16 = DIRECTION ( 'NONE',  ( 0.000000000000000000, 0.000000000000000000, 1.000000000000000000 ) ) ;
#17 = ORIENTED_EDGE ( 'NONE', *, *, #1040, .T. ) ;
#18 = EDGE_CURVE ( 'NONE', #663, #112, #196, .T. ) ;
#19 = VERTEX_POINT ( 'NONE', #576 ) ;
#20 = CARTESIAN_POINT ( 'NONE',  ( 38.50000000000000000, 0.000000000000000000, 0.000000000000000000 ) ) ;
#21 = CARTESIAN_POINT ( 'NONE',  ( 0.000000000000000000, 2.000000000000002665, -7.218039900139096687 ) ) ;
#22 = CARTESIAN_POINT ( 'NONE',  ( 29.50000000000000000, 0.000000000000000000, 0.000000000000000000 ) ) ;
#23 = ORIENTED_EDGE ( 'NONE', *, *, #382, .T. ) ;
#24 = DIRECTION ( 'NONE',  ( 0.000000000000000000, 0.000000000000000000, 1.000000000000000000 ) ) ;
#25 = EDGE_CURVE ( 'NONE', #327, #594, #281, .T. ) ;
#26 = CARTESIAN_POINT ( 'NONE',  ( 4.000000000000000000, 0.000000000000000000, 0.000000000000000000 ) ) ;
#27 = CARTESIAN_POINT ( 'NONE',  ( 24.00000000000000000, 2.000000000000002665, 7.228416147400479552 ) ) ;
#28 = EDGE_LOOP ( 'NONE', ( #13, #33 ) ) ;
#29 = ADVANCED_FACE ( 'NONE', ( #414 ), #258, .F. ) ;
#30 = DIRECTION ( 'NONE',  ( 0.000000000000000000, 0.000000000000000000, 1.000000000000000000 ) ) ;
#31 = AXIS2_PLACEMENT_3D ( 'NONE', #675, #591, #984 ) ;
#32 = PLANE ( 'NONE',  #725 ) ;
#33 = ORIENTED_EDGE ( 'NONE', *, *, #553, .T. ) ;
#34 = CARTESIAN_POINT ( 'NONE',  ( 0.000000000000000000, -1.999999999999997335, 7.218039900139097576 ) ) ;
#35 = CARTESIAN_POINT ( 'NONE',  ( 39.50000000000000711, 0.000000000000000000, 0.000000000000000000 ) ) ;
#36 = CIRCLE ( 'NONE', #1028, 4.790000000000001812 ) ;
#37 = LINE ( 'NONE', #593, #245 ) ;
#38 = ORIENTED_EDGE ( 'NONE', *, *, #653, .F. ) ;
#39 = FACE_OUTER_BOUND ( 'NONE', #1014, .T. ) ;
#40 = FACE_BOUND ( 'NONE', #233, .T. ) ;
#41 = EDGE_CURVE ( 'NONE', #632, #118, #175, .T. ) ;
#42 = ORIENTED_EDGE ( 'NONE', *, *, #685, .F. ) ;
#43 = DIRECTION ( 'NONE',  ( -1.000000000000000000, -0.000000000000000000, -0.000000000000000000 ) ) ;
#44 = VECTOR ( 'NONE', #534, 1000.000000000000000 ) ;
#45 = PLANE ( 'NONE',  #465 ) ;
#46 = AXIS2_PLACEMENT_3D ( 'NONE', #434, #282, #667 ) ;
#47 = DIRECTION ( 'NONE',  ( 0.000000000000000000, 0.000000000000000000, 1.000000000000000000 ) ) ;
#48 = EDGE_LOOP ( 'NONE', ( #410, #567, #345, #449 ) ) ;
#49 = DIRECTION ( 'NONE',  ( 0.000000000000000000, 0.000000000000000000, 1.000000000000000000 ) ) ;
#50 = EDGE_CURVE ( 'NONE', #804, #200, #900, .T. ) ;
#51 = CYLINDRICAL_SURFACE ( 'NONE', #176, 4.790000000000006253 ) ;
#52 = DIRECTION ( 'NONE',  ( -1.000000000000000000, -0.000000000000000000, -0.000000000000000000 ) ) ;
#53 = ORIENTED_EDGE ( 'NONE', *, *, #911, .F. ) ;
#54 = PERSON_AND_ORGANIZATION_ROLE ( 'classification_officer' ) ;
#55 = ADVANCED_FACE ( 'NONE', ( #438 ), #284, .T. ) ;
#56 = DIRECTION ( 'NONE',  ( 0.000000000000000000, 0.000000000000000000, 1.000000000000000000 ) ) ;
#57 = EDGE_LOOP ( 'NONE', ( #182, #999, #749, #337, #648, #821 ) ) ;
#58 = APPROVAL_STATUS ( 'not_yet_approved' ) ;
#59 = AXIS2_PLACEMENT_3D ( 'NONE', #1005, #126, #601 ) ;
#60 = EDGE_CURVE ( 'NONE', #2, #436, #461, .T. ) ;
#61 = DIRECTION ( 'NONE',  ( 0.000000000000000000, 0.000000000000000000, 1.000000000000000000 ) ) ;
#62 = ORIENTED_EDGE ( 'NONE', *, *, #592, .F. ) ;
#63 = PERSON_AND_ORGANIZATION_ROLE ( 'design_supplier' ) ;
#64 = AXIS2_PLACEMENT_3D ( 'NONE', #581, #185, #500 ) ;
#65 = AXIS2_PLACEMENT_3D ( 'NONE', #26, #191, #670 ) ;
#66 = EDGE_CURVE ( 'NONE', #112, #663, #198, .T. ) ;
#67 = FACE_BOUND ( 'NONE', #1004, .T. ) ;
#68 = ADVANCED_FACE ( 'NONE', ( #588 ), #32, .F. ) ;
#69 = VERTEX_POINT ( 'NONE', #521 ) ;
#70 = PERSON_AND_ORGANIZATION ( #209, #81 ) ;
#71 = CIRCLE ( 'NONE', #658, 7.490000000000002878 ) ;
#72 = CIRCLE ( 'NONE', #232, 4.790000000000001812 ) ;
#73 = LINE ( 'NONE', #563, #623 ) ;
#74 = PLANE ( 'NONE',  #577 ) ;
#75 = ORIENTED_EDGE ( 'NONE', *, *, #983, .T. ) ;
#76 = COORDINATED_UNIVERSAL_TIME_OFFSET ( 3, 30, .AHEAD. ) ;
#77 = APPLICATION_CONTEXT ( 'configuration controlled 3d designs of mechanical parts and assemblies' ) ;
#78 = ADVANCED_FACE ( 'NONE', ( #682, #40 ), #1007, .F. ) ;
#79 = VERTEX_POINT ( 'NONE', #1002 ) ;
#80 = DIRECTION ( 'NONE',  ( -1.000000000000000000, -0.000000000000000000, -0.000000000000000000 ) ) ;
#81 = ORGANIZATION ( 'UNSPECIFIED', 'UNSPECIFIED', '' ) ;
#82 = CYLINDRICAL_SURFACE ( 'NONE', #332, 4.990000000000005542 ) ;
#83 = ORIENTED_EDGE ( 'NONE', *, *, #882, .T. ) ;
#84 = ORIENTED_EDGE ( 'NONE', *, *, #547, .T. ) ;
#85 = APPROVAL ( #58, 'UNSPECIFIED' ) ;
#86 = DIRECTION ( 'NONE',  ( -1.000000000000000000, 0.000000000000000000, 0.000000000000000000 ) ) ;
#87 = CIRCLE ( 'NONE', #65, 4.990000000000001101 ) ;
#88 = CARTESIAN_POINT ( 'NONE',  ( 38.50000000000000000, 0.000000000000000000, 0.000000000000000000 ) ) ;
#89 = CARTESIAN_POINT ( 'NONE',  ( 29.50000000000000000, 0.000000000000000000, 0.000000000000000000 ) ) ;
#90 = VECTOR ( 'NONE', #129, 1000.000000000000000 ) ;
#91 = ORIENTED_EDGE ( 'NONE', *, *, #353, .T. ) ;
#92 = DIRECTION ( 'NONE',  ( 0.000000000000000000, 0.000000000000000000, 1.000000000000000000 ) ) ;
#93 = AXIS2_PLACEMENT_3D ( 'NONE', #787, #802, #400 ) ;
#94 = DIRECTION ( 'NONE',  ( 0.000000000000000000, 0.000000000000000000, 1.000000000000000000 ) ) ;
#95 = EDGE_LOOP ( 'NONE', ( #393, #424, #544, #571 ) ) ;
#96 = ORIENTED_EDGE ( 'NONE', *, *, #243, .T. ) ;
#97 = LINE ( 'NONE', #977, #849 ) ;
#98 = FACE_BOUND ( 'NONE', #516, .T. ) ;
#99 = VECTOR ( 'NONE', #690, 1000.000000000000000 ) ;
#100 = AXIS2_PLACEMENT_3D ( 'NONE', #455, #43, #381 ) ;
#101 = CARTESIAN_POINT ( 'NONE',  ( 24.00000000000000000, 2.000000000000002665, 7.228416147400479552 ) ) ;
#102 = VERTEX_POINT ( 'NONE', #105 ) ;
#103 = DIRECTION ( 'NONE',  ( -1.000000000000000000, -0.000000000000000000, -0.000000000000000000 ) ) ;
#104 = DIRECTION ( 'NONE',  ( -1.000000000000000000, -0.000000000000000000, -0.000000000000000000 ) ) ;
#105 = CARTESIAN_POINT ( 'NONE',  ( 14.00000000000000000, -1.999999999999997335, -7.218039900139096687 ) ) ;
#106 = EDGE_CURVE ( 'NONE', #135, #350, #283, .T. ) ;
#107 = ORIENTED_EDGE ( 'NONE', *, *, #481, .F. ) ;
#108 = CARTESIAN_POINT ( 'NONE',  ( 0.000000000000000000, 0.000000000000000000, 0.000000000000000000 ) ) ;
#109 = AXIS2_PLACEMENT_3D ( 'NONE', #662, #951, #467 ) ;
#110 = DIRECTION ( 'NONE',  ( 0.000000000000000000, 0.000000000000000000, 1.000000000000000000 ) ) ;
#111 = DIRECTION ( 'NONE',  ( -1.000000000000000000, 0.000000000000000000, -0.000000000000000000 ) ) ;
#112 = VERTEX_POINT ( 'NONE', #998 ) ;
#113 = CYLINDRICAL_SURFACE ( 'NONE', #404, 4.990000000000000213 ) ;
#114 = ADVANCED_FACE ( 'NONE', ( #288 ), #606, .F. ) ;
#115 = CARTESIAN_POINT ( 'NONE',  ( 1.224646799147250347E-18, 0.000000000000000000, 0.000000000000000000 ) ) ;
#116 = CARTESIAN_POINT ( 'NONE',  ( 29.50000000000000000, 0.000000000000000000, -4.790000000000005365 ) ) ;
#117 = CIRCLE ( 'NONE', #100, 7.490000000000002878 ) ;
#118 = VERTEX_POINT ( 'NONE', #668 ) ;
#119 = CARTESIAN_POINT ( 'NONE',  ( 4.000000000000000000, 0.000000000000000000, 0.000000000000000000 ) ) ;
#120 = EDGE_CURVE ( 'NONE', #361, #582, #297, .T. ) ;
#121 = DIRECTION ( 'NONE',  ( -1.000000000000000000, 0.000000000000000000, -0.000000000000000000 ) ) ;
#122 = VECTOR ( 'NONE', #711, 1000.000000000000000 ) ;
#123 = CIRCLE ( 'NONE', #311, 4.990000000000000213 ) ;
#124 = CARTESIAN_POINT ( 'NONE',  ( 3.000000000000000000, 6.110987527745293517E-16, -4.990000000000000213 ) ) ;
#125 = ORIENTED_EDGE ( 'NONE', *, *, #991, .F. ) ;
#126 = DIRECTION ( 'NONE',  ( -1.000000000000000000, -0.000000000000000000, -0.000000000000000000 ) ) ;
#127 = FACE_BOUND ( 'NONE', #615, .T. ) ;
#128 = EDGE_CURVE ( 'NONE', #19, #720, #994, .T. ) ;
#129 = DIRECTION ( 'NONE',  ( -0.000000000000000000, -0.000000000000000000, 1.000000000000000000 ) ) ;
#130 = VERTEX_POINT ( 'NONE', #916 ) ;
#131 =( NAMED_UNIT ( * ) PLANE_ANGLE_UNIT ( ) SI_UNIT ( $, .RADIAN. ) );
#132 = CARTESIAN_POINT ( 'NONE',  ( 29.50000000000000000, 5.866058167915828348E-16, -4.790000000000005365 ) ) ;
#133 = EDGE_CURVE ( 'NONE', #425, #2, #37, .T. ) ;
#134 = CARTESIAN_POINT ( 'NONE',  ( 26.00000000000000355, 0.000000000000000000, 7.490000000000002878 ) ) ;
#135 = VERTEX_POINT ( 'NONE', #603 ) ;
#136 = FACE_OUTER_BOUND ( 'NONE', #48, .T. ) ;
#137 = CIRCLE ( 'NONE', #482, 4.990000000000001101 ) ;
#138 = CARTESIAN_POINT ( 'NONE',  ( 0.000000000000000000, 6.110987527745293517E-16, -4.990000000000000213 ) ) ;
#139 = FACE_BOUND ( 'NONE', #883, .T. ) ;
#140 = EDGE_CURVE ( 'NONE', #698, #331, #722, .T. ) ;
#141 = EDGE_LOOP ( 'NONE', ( #42, #555, #240, #235 ) ) ;
#142 = CARTESIAN_POINT ( 'NONE',  ( 0.000000000000000000, 0.000000000000000000, 0.000000000000000000 ) ) ;
#143 = AXIS2_PLACEMENT_3D ( 'NONE', #413, #559, #495 ) ;
#144 = ORIENTED_EDGE ( 'NONE', *, *, #518, .T. ) ;
#145 = AXIS2_PLACEMENT_3D ( 'NONE', #428, #370, #447 ) ;
#146 = ADVANCED_FACE ( 'NONE', ( #824, #920 ), #203, .F. ) ;
#147 = DIRECTION ( 'NONE',  ( 0.000000000000000000, 0.000000000000000000, -1.000000000000000000 ) ) ;
#148 = VERTEX_POINT ( 'NONE', #124 ) ;
#149 = CALENDAR_DATE ( 2026, 23, 7 ) ;
#150 = AXIS2_PLACEMENT_3D ( 'NONE', #195, #512, #643 ) ;
#151 = EDGE_CURVE ( 'NONE', #327, #504, #837, .T. ) ;
#152 = ADVANCED_FACE ( 'NONE', ( #741 ), #355, .T. ) ;
#153 = FACE_OUTER_BOUND ( 'NONE', #454, .T. ) ;
#154 = ORIENTED_EDGE ( 'NONE', *, *, #412, .F. ) ;
#155 = PERSON_AND_ORGANIZATION_ROLE ( 'creator' ) ;
#156 = DIRECTION ( 'NONE',  ( -1.000000000000000000, -0.000000000000000000, -0.000000000000000000 ) ) ;
#157 = CARTESIAN_POINT ( 'NONE',  ( 38.50000000000000000, 6.110987527745298447E-16, -4.990000000000004654 ) ) ;
#158 = ADVANCED_FACE ( 'NONE', ( #1018 ), #862, .T. ) ;
#159 = ORIENTED_EDGE ( 'NONE', *, *, #133, .T. ) ;
#160 = AXIS2_PLACEMENT_3D ( 'NONE', #316, #945, #548 ) ;
#161 = DIRECTION ( 'NONE',  ( -0.000000000000000000, 0.000000000000000000, 1.000000000000000000 ) ) ;
#162 = DIRECTION ( 'NONE',  ( -1.000000000000000000, -0.000000000000000000, -0.000000000000000000 ) ) ;
#163 = PRODUCT_DEFINITION ( 'UNKNOWN', '', #647, #887 ) ;
#164 = ORIENTED_EDGE ( 'NONE', *, *, #677, .F. ) ;
#165 = ORIENTED_EDGE ( 'NONE', *, *, #369, .F. ) ;
#166 = CYLINDRICAL_SURFACE ( 'NONE', #792, 4.990000000000000213 ) ;
#167 = VECTOR ( 'NONE', #103, 1000.000000000000000 ) ;
#168 = CIRCLE ( 'NONE', #150, 7.490000000000001990 ) ;
#169 = CARTESIAN_POINT ( 'NONE',  ( 26.00000000000000355, 0.000000000000000000, 0.000000000000000000 ) ) ;
#170 = DIRECTION ( 'NONE',  ( 0.000000000000000000, 0.000000000000000000, -1.000000000000000000 ) ) ;
#171 = ORIENTED_EDGE ( 'NONE', *, *, #429, .F. ) ;
#172 = CARTESIAN_POINT ( 'NONE',  ( 14.00000000000000000, -1.999999999999997335, 4.571662717217885863 ) ) ;
#173 = VECTOR ( 'NONE', #184, 1000.000000000000000 ) ;
#174 = FACE_OUTER_BOUND ( 'NONE', #803, .T. ) ;
#175 = LINE ( 'NONE', #101, #513 ) ;
#176 = AXIS2_PLACEMENT_3D ( 'NONE', #325, #406, #785 ) ;
#177 = AXIS2_PLACEMENT_3D ( 'NONE', #992, #527, #905 ) ;
#178 = ORIENTED_EDGE ( 'NONE', *, *, #403, .T. ) ;
#179 = DIRECTION ( 'NONE',  ( -1.000000000000000000, -0.000000000000000000, -0.000000000000000000 ) ) ;
#180 = EDGE_CURVE ( 'NONE', #425, #957, #691, .T. ) ;
#181 = DIRECTION ( 'NONE',  ( -1.000000000000000000, 0.000000000000000000, -0.000000000000000000 ) ) ;
#182 = ORIENTED_EDGE ( 'NONE', *, *, #448, .T. ) ;
#183 = ORIENTED_EDGE ( 'NONE', *, *, #296, .T. ) ;
#184 = DIRECTION ( 'NONE',  ( 0.000000000000000000, 0.000000000000000000, -1.000000000000000000 ) ) ;
#185 = DIRECTION ( 'NONE',  ( -1.000000000000000000, -0.000000000000000000, -0.000000000000000000 ) ) ;
#186 = ORIENTED_EDGE ( 'NONE', *, *, #771, .F. ) ;
#187 = ORIENTED_EDGE ( 'NONE', *, *, #336, .T. ) ;
#188 = CARTESIAN_POINT ( 'NONE',  ( 0.000000000000000000, -1.999999999999997335, -7.218039900139097576 ) ) ;
#189 = CIRCLE ( 'NONE', #851, 4.990000000000004654 ) ;
#190 = APPLICATION_CONTEXT ( 'configuration controlled 3d designs of mechanical parts and assemblies' ) ;
#191 = DIRECTION ( 'NONE',  ( -1.000000000000000000, -0.000000000000000000, -0.000000000000000000 ) ) ;
#192 = ADVANCED_FACE ( 'NONE', ( #388 ), #231, .F. ) ;
#193 = CARTESIAN_POINT ( 'NONE',  ( 3.000000000000000000, 0.000000000000000000, 0.000000000000000000 ) ) ;
#194 = VERTEX_POINT ( 'NONE', #626 ) ;
#195 = CARTESIAN_POINT ( 'NONE',  ( 24.00000000000000000, 0.000000000000000000, 0.000000000000000000 ) ) ;
#196 = CIRCLE ( 'NONE', #743, 4.790000000000005365 ) ;
#197 = DIRECTION ( 'NONE',  ( 0.000000000000000000, 0.000000000000000000, -1.000000000000000000 ) ) ;
#198 = CIRCLE ( 'NONE', #597, 4.790000000000005365 ) ;
#199 = CARTESIAN_POINT ( 'NONE',  ( 38.50000000000000000, 0.000000000000000000, 0.000000000000000000 ) ) ;
#200 = VERTEX_POINT ( 'NONE', #385 ) ;
#201 = FACE_OUTER_BOUND ( 'NONE', #95, .T. ) ;
#202 = CARTESIAN_POINT ( 'NONE',  ( 0.000000000000000000, 0.000000000000000000, 0.000000000000000000 ) ) ;
#203 = PLANE ( 'NONE',  #872 ) ;
#204 = AXIS2_PLACEMENT_3D ( 'NONE', #933, #1000, #49 ) ;
#205 = ORIENTED_EDGE ( 'NONE', *, *, #423, .F. ) ;
#206 = DIRECTION ( 'NONE',  ( -1.000000000000000000, -0.000000000000000000, -0.000000000000000000 ) ) ;
#207 = DIRECTION ( 'NONE',  ( 0.000000000000000000, 0.000000000000000000, 1.000000000000000000 ) ) ;
#208 = CARTESIAN_POINT ( 'NONE',  ( 14.00000000000000000, 0.000000000000000000, -7.490000000000001990 ) ) ;
#209 = PERSON ( 'UNSPECIFIED', 'UNSPECIFIED', 'UNSPECIFIED', ('UNSPECIFIED'), ('UNSPECIFIED'), ('UNSPECIFIED') ) ;
#210 = EDGE_LOOP ( 'NONE', ( #561, #795, #971, #719, #75, #14, #859, #654 ) ) ;
#211 = LINE ( 'NONE', #539, #99 ) ;
#212 = EDGE_CURVE ( 'NONE', #148, #318, #959, .T. ) ;
#213 = LINE ( 'NONE', #630, #890 ) ;
#214 = CIRCLE ( 'NONE', #742, 4.990000000000002878 ) ;
#215 = DIRECTION ( 'NONE',  ( 0.000000000000000000, -0.000000000000000000, -1.000000000000000000 ) ) ;
#216 = ORIENTED_EDGE ( 'NONE', *, *, #759, .F. ) ;
#217 = DIRECTION ( 'NONE',  ( -0.000000000000000000, 1.000000000000000000, 0.000000000000000000 ) ) ;
#218 = DIRECTION ( 'NONE',  ( -1.000000000000000000, -0.000000000000000000, -0.000000000000000000 ) ) ;
#219 = EDGE_CURVE ( 'NONE', #594, #327, #457, .T. ) ;
#220 = DIRECTION ( 'NONE',  ( -1.000000000000000000, -0.000000000000000000, -0.000000000000000000 ) ) ;
#221 = CIRCLE ( 'NONE', #934, 7.490000000000001990 ) ;
#222 = ORIENTED_EDGE ( 'NONE', *, *, #873, .F. ) ;
#223 = DIRECTION ( 'NONE',  ( 0.000000000000000000, 0.000000000000000000, 1.000000000000000000 ) ) ;
#224 = APPROVAL_PERSON_ORGANIZATION ( #241, #1003, #402 ) ;
#225 = CARTESIAN_POINT ( 'NONE',  ( 26.00000000000000000, 0.000000000000000000, 0.000000000000000000 ) ) ;
#226 = AXIS2_PLACEMENT_3D ( 'NONE', #372, #598, #919 ) ;
#227 = CIRCLE ( 'NONE', #617, 4.990000000000001101 ) ;
#228 = ADVANCED_FACE ( 'NONE', ( #310 ), #305, .F. ) ;
#229 = EDGE_LOOP ( 'NONE', ( #627, #23, #9, #477 ) ) ;
#230 = SHAPE_DEFINITION_REPRESENTATION ( #967, #952 ) ;
#231 = PLANE ( 'NONE',  #383 ) ;
#232 = AXIS2_PLACEMENT_3D ( 'NONE', #712, #349, #94 ) ;
#233 = EDGE_LOOP ( 'NONE', ( #468, #96 ) ) ;
#234 = CARTESIAN_POINT ( 'NONE',  ( 39.50000000000000000, 5.866058167915828348E-16, -4.790000000000005365 ) ) ;
#235 = ORIENTED_EDGE ( 'NONE', *, *, #547, .F. ) ;
#236 = PERSON_AND_ORGANIZATION ( #209, #81 ) ;
#237 = LOCAL_TIME ( 16, 4, 50.00000000000000000, #854 ) ;
#238 = LINE ( 'NONE', #399, #608 ) ;
#239 = CARTESIAN_POINT ( 'NONE',  ( 4.000000000000000000, 0.000000000000000000, 0.000000000000000000 ) ) ;
#240 = ORIENTED_EDGE ( 'NONE', *, *, #309, .T. ) ;
#241 = PERSON_AND_ORGANIZATION ( #209, #81 ) ;
#242 = DIRECTION ( 'NONE',  ( 0.000000000000000000, 0.000000000000000000, 1.000000000000000000 ) ) ;
#243 = EDGE_CURVE ( 'NONE', #331, #698, #839, .T. ) ;
#244 = CARTESIAN_POINT ( 'NONE',  ( 3.000000000000000000, 5.866058167915823418E-16, -4.790000000000000924 ) ) ;
#245 = VECTOR ( 'NONE', #278, 1000.000000000000000 ) ;
#246 = AXIS2_PLACEMENT_3D ( 'NONE', #778, #52, #61 ) ;
#247 = DIRECTION ( 'NONE',  ( 1.000000000000000000, 0.000000000000000000, 0.000000000000000000 ) ) ;
#248 = DIRECTION ( 'NONE',  ( 1.000000000000000000, 0.000000000000000000, 0.000000000000000000 ) ) ;
#249 = ORIENTED_EDGE ( 'NONE', *, *, #296, .F. ) ;
#250 = CARTESIAN_POINT ( 'NONE',  ( 24.00000000000000000, 0.000000000000000000, 0.000000000000000000 ) ) ;
#251 = DIRECTION ( 'NONE',  ( -1.000000000000000000, -0.000000000000000000, -0.000000000000000000 ) ) ;
#252 = VERTEX_POINT ( 'NONE', #614 ) ;
#253 = VECTOR ( 'NONE', #431, 1000.000000000000000 ) ;
#254 = EDGE_LOOP ( 'NONE', ( #480, #306 ) ) ;
#255 = DIRECTION ( 'NONE',  ( -1.000000000000000000, -0.000000000000000000, -0.000000000000000000 ) ) ;
#256 = AXIS2_PLACEMENT_3D ( 'NONE', #303, #616, #223 ) ;
#257 = DIRECTION ( 'NONE',  ( -1.000000000000000000, -0.000000000000000000, -0.000000000000000000 ) ) ;
#258 = PLANE ( 'NONE',  #892 ) ;
#259 = ADVANCED_FACE ( 'NONE', ( #67, #321 ), #1012, .F. ) ;
#260 = VERTEX_POINT ( 'NONE', #234 ) ;
#261 = LINE ( 'NONE', #572, #173 ) ;
#262 = DIRECTION ( 'NONE',  ( 0.000000000000000000, 0.000000000000000000, 1.000000000000000000 ) ) ;
#263 = DIRECTION ( 'NONE',  ( 0.000000000000000000, 0.000000000000000000, 1.000000000000000000 ) ) ;
#264 = ORIENTED_EDGE ( 'NONE', *, *, #429, .T. ) ;
#265 = DIRECTION ( 'NONE',  ( 0.000000000000000000, 0.000000000000000000, 1.000000000000000000 ) ) ;
#266 = DIRECTION ( 'NONE',  ( -1.000000000000000000, -0.000000000000000000, -0.000000000000000000 ) ) ;
#267 = VERTEX_POINT ( 'NONE', #937 ) ;
#268 = ORIENTED_EDGE ( 'NONE', *, *, #212, .F. ) ;
#269 = CYLINDRICAL_SURFACE ( 'NONE', #714, 4.990000000000002878 ) ;
#270 = ADVANCED_FACE ( 'NONE', ( #139, #702 ), #697, .F. ) ;
#271 = DIRECTION ( 'NONE',  ( -1.000000000000000000, -0.000000000000000000, -0.000000000000000000 ) ) ;
#272 = AXIS2_PLACEMENT_3D ( 'NONE', #366, #1009, #595 ) ;
#273 = DIRECTION ( 'NONE',  ( 0.000000000000000000, 0.000000000000000000, 1.000000000000000000 ) ) ;
#274 = ORIENTED_EDGE ( 'NONE', *, *, #592, .T. ) ;
#275 = CARTESIAN_POINT ( 'NONE',  ( 39.50000000000000711, 6.110987527745299433E-16, -4.990000000000004654 ) ) ;
#276 = DIRECTION ( 'NONE',  ( -1.000000000000000000, -0.000000000000000000, -0.000000000000000000 ) ) ;
#277 = EDGE_CURVE ( 'NONE', #436, #2, #395, .T. ) ;
#278 = DIRECTION ( 'NONE',  ( -1.000000000000000000, -0.000000000000000000, -0.000000000000000000 ) ) ;
#279 = ORIENTED_EDGE ( 'NONE', *, *, #677, .T. ) ;
#280 = DIRECTION ( 'NONE',  ( 0.000000000000000000, 0.000000000000000000, 1.000000000000000000 ) ) ;
#281 = CIRCLE ( 'NONE', #300, 4.990000000000001101 ) ;
#282 = DIRECTION ( 'NONE',  ( -1.000000000000000000, -0.000000000000000000, -0.000000000000000000 ) ) ;
#283 = CIRCLE ( 'NONE', #330, 4.790000000000006253 ) ;
#284 = CYLINDRICAL_SURFACE ( 'NONE', #145, 4.790000000000006253 ) ;
#285 = ORIENTED_EDGE ( 'NONE', *, *, #852, .T. ) ;
#286 = DIRECTION ( 'NONE',  ( 0.000000000000000000, 0.000000000000000000, 1.000000000000000000 ) ) ;
#287 = CARTESIAN_POINT ( 'NONE',  ( 14.00000000000000000, 0.000000000000000000, 0.000000000000000000 ) ) ;
#288 = FACE_OUTER_BOUND ( 'NONE', #57, .T. ) ;
#289 = VERTEX_POINT ( 'NONE', #134 ) ;
#290 = ADVANCED_FACE ( 'NONE', ( #153 ), #621, .T. ) ;
#291 = PLANE ( 'NONE',  #758 ) ;
#292 = AXIS2_PLACEMENT_3D ( 'NONE', #35, #368, #757 ) ;
#293 = DIRECTION ( 'NONE',  ( -1.000000000000000000, -0.000000000000000000, -0.000000000000000000 ) ) ;
#294 = ORIENTED_EDGE ( 'NONE', *, *, #180, .F. ) ;
#295 = FACE_OUTER_BOUND ( 'NONE', #1008, .T. ) ;
#296 = EDGE_CURVE ( 'NONE', #69, #562, #611, .T. ) ;
#297 = CIRCLE ( 'NONE', #625, 4.990000000000004654 ) ;
#298 = DIRECTION ( 'NONE',  ( 0.000000000000000000, 0.000000000000000000, 1.000000000000000000 ) ) ;
#299 = AXIS2_PLACEMENT_3D ( 'NONE', #781, #941, #394 ) ;
#300 = AXIS2_PLACEMENT_3D ( 'NONE', #894, #799, #497 ) ;
#301 = CARTESIAN_POINT ( 'NONE',  ( 24.00000000000000000, 0.000000000000000000, 0.000000000000000000 ) ) ;
#302 = ORIENTED_EDGE ( 'NONE', *, *, #324, .F. ) ;
#303 = CARTESIAN_POINT ( 'NONE',  ( 0.000000000000000000, 0.000000000000000000, 0.000000000000000000 ) ) ;
#304 = ADVANCED_FACE ( 'NONE', ( #707 ), #1030, .T. ) ;
#305 = PLANE ( 'NONE',  #433 ) ;
#306 = ORIENTED_EDGE ( 'NONE', *, *, #18, .T. ) ;
#307 = CALENDAR_DATE ( 2026, 23, 7 ) ;
#308 = CC_DESIGN_APPROVAL ( #776, ( #809 ) ) ;
#309 = EDGE_CURVE ( 'NONE', #708, #361, #688, .T. ) ;
#310 = FACE_OUTER_BOUND ( 'NONE', #970, .T. ) ;
#311 = AXIS2_PLACEMENT_3D ( 'NONE', #115, #271, #836 ) ;
#312 = EDGE_LOOP ( 'NONE', ( #249, #736 ) ) ;
#313 = CALENDAR_DATE ( 2026, 23, 7 ) ;
#314 = VECTOR ( 'NONE', #80, 1000.000000000000000 ) ;
#315 = VECTOR ( 'NONE', #416, 1000.000000000000000 ) ;
#316 = CARTESIAN_POINT ( 'NONE',  ( 39.50000000000000711, 0.000000000000000000, -4.990000000000004654 ) ) ;
#317 = VECTOR ( 'NONE', #251, 1000.000000000000000 ) ;
#318 = VERTEX_POINT ( 'NONE', #329 ) ;
#319 = APPLICATION_PROTOCOL_DEFINITION ( 'international standard', 'config_control_design', 1994, #190 ) ;
#320 = CARTESIAN_POINT ( 'NONE',  ( 24.00000000000000000, -1.999999999999997335, 7.228416147400479552 ) ) ;
#321 = FACE_OUTER_BOUND ( 'NONE', #498, .T. ) ;
#322 = EDGE_LOOP ( 'NONE', ( #1, #942 ) ) ;
#323 = APPROVAL_STATUS ( 'not_yet_approved' ) ;
#324 = EDGE_CURVE ( 'NONE', #79, #289, #71, .T. ) ;
#325 = CARTESIAN_POINT ( 'NONE',  ( 0.000000000000000000, 0.000000000000000000, 0.000000000000000000 ) ) ;
#326 = CARTESIAN_POINT ( 'NONE',  ( 38.50000000000000000, 0.000000000000000000, 4.790000000000006253 ) ) ;
#327 = VERTEX_POINT ( 'NONE', #335 ) ;
#328 = CARTESIAN_POINT ( 'NONE',  ( 3.000000000000000000, 0.000000000000000000, 4.790000000000000924 ) ) ;
#329 = CARTESIAN_POINT ( 'NONE',  ( 3.000000000000000000, 0.000000000000000000, 4.990000000000000213 ) ) ;
#330 = AXIS2_PLACEMENT_3D ( 'NONE', #199, #293, #435 ) ;
#331 = VERTEX_POINT ( 'NONE', #244 ) ;
#332 = AXIS2_PLACEMENT_3D ( 'NONE', #879, #798, #418 ) ;
#333 = ORIENTED_EDGE ( 'NONE', *, *, #66, .F. ) ;
#334 = LINE ( 'NONE', #721, #392 ) ;
#335 = CARTESIAN_POINT ( 'NONE',  ( 14.00000000000000000, 2.000000000000002665, 4.571662717217883198 ) ) ;
#336 = EDGE_CURVE ( 'NONE', #957, #425, #214, .T. ) ;
#337 = ORIENTED_EDGE ( 'NONE', *, *, #507, .F. ) ;
#338 = AXIS2_PLACEMENT_3D ( 'NONE', #20, #664, #92 ) ;
#339 = ORIENTED_EDGE ( 'NONE', *, *, #60, .F. ) ;
#340 = DIRECTION ( 'NONE',  ( 0.000000000000000000, 0.000000000000000000, -1.000000000000000000 ) ) ;
#341 = DIRECTION ( 'NONE',  ( -0.000000000000000000, 0.000000000000000000, -1.000000000000000000 ) ) ;
#342 = ADVANCED_FACE ( 'NONE', ( #724 ), #82, .T. ) ;
#343 = ORIENTED_EDGE ( 'NONE', *, *, #997, .T. ) ;
#344 = ADVANCED_FACE ( 'NONE', ( #174, #98 ), #656, .F. ) ;
#345 = ORIENTED_EDGE ( 'NONE', *, *, #873, .T. ) ;
#346 = CARTESIAN_POINT ( 'NONE',  ( 6.123233995736251736E-19, 0.000000000000000000, -4.990000000000000213 ) ) ;
#347 = VECTOR ( 'NONE', #929, 1000.000000000000000 ) ;
#348 = AXIS2_PLACEMENT_3D ( 'NONE', #108, #988, #734 ) ;
#349 = DIRECTION ( 'NONE',  ( -1.000000000000000000, -0.000000000000000000, -0.000000000000000000 ) ) ;
#350 = VERTEX_POINT ( 'NONE', #326 ) ;
#351 = ORIENTED_EDGE ( 'NONE', *, *, #560, .T. ) ;
#352 = CARTESIAN_POINT ( 'NONE',  ( 14.00000000000000000, 9.172604525613678137E-16, -7.490000000000001990 ) ) ;
#353 = EDGE_CURVE ( 'NONE', #79, #789, #729, .T. ) ;
#354 = FACE_OUTER_BOUND ( 'NONE', #800, .T. ) ;
#355 = CYLINDRICAL_SURFACE ( 'NONE', #109, 7.490000000000001990 ) ;
#356 = VERTEX_POINT ( 'NONE', #157 ) ;
#357 = CARTESIAN_POINT ( 'NONE',  ( 14.00000000000000000, 0.000000000000000000, 0.000000000000000000 ) ) ;
#358 = CARTESIAN_POINT ( 'NONE',  ( 14.00000000000000000, -1.999999999999997335, 7.218039900139097576 ) ) ;
#359 = CC_DESIGN_APPROVAL ( #1003, ( #647 ) ) ;
#360 = DIRECTION ( 'NONE',  ( -1.000000000000000000, -0.000000000000000000, -0.000000000000000000 ) ) ;
#361 = VERTEX_POINT ( 'NONE', #974 ) ;
#362 =( NAMED_UNIT ( * ) SI_UNIT ( $, .STERADIAN. ) SOLID_ANGLE_UNIT ( ) );
#363 = CARTESIAN_POINT ( 'NONE',  ( 30.50000000000000000, 0.000000000000000000, 0.000000000000000000 ) ) ;
#364 = CARTESIAN_POINT ( 'NONE',  ( 3.000000000000000000, 0.000000000000000000, -4.790000000000000924 ) ) ;
#365 = ORIENTED_EDGE ( 'NONE', *, *, #897, .F. ) ;
#366 = CARTESIAN_POINT ( 'NONE',  ( 0.000000000000000000, 0.000000000000000000, 0.000000000000000000 ) ) ;
#367 = CLOSED_SHELL ( 'NONE', ( #746, #501, #524, #396, #158, #55, #304, #1010, #342, #114, #782, #730, #1035, #270, #290, #552, #453, #6, #666, #146, #828, #344, #152, #29, #844, #259, #531, #78, #1024, #737, #1033, #228, #192, #68, #387 ) ) ;
#368 = DIRECTION ( 'NONE',  ( -1.000000000000000000, -0.000000000000000000, -0.000000000000000000 ) ) ;
#369 = EDGE_CURVE ( 'NONE', #356, #708, #893, .T. ) ;
#370 = DIRECTION ( 'NONE',  ( -1.000000000000000000, -0.000000000000000000, -0.000000000000000000 ) ) ;
#371 = ORIENTED_EDGE ( 'NONE', *, *, #560, .F. ) ;
#372 = CARTESIAN_POINT ( 'NONE',  ( 0.000000000000000000, 0.000000000000000000, 0.000000000000000000 ) ) ;
#373 = APPROVAL_PERSON_ORGANIZATION ( #70, #776, #780 ) ;
#374 = CARTESIAN_POINT ( 'NONE',  ( 14.00000000000000000, -1.999999999999997335, 7.228416147400479552 ) ) ;
#375 = PRODUCT_RELATED_PRODUCT_CATEGORY ( 'detail', '', ( #868 ) ) ;
#376 = ORIENTED_EDGE ( 'NONE', *, *, #723, .T. ) ;
#377 = CARTESIAN_POINT ( 'NONE',  ( 30.50000000000000000, 5.866058167915829334E-16, -4.790000000000006253 ) ) ;
#378 = DIRECTION ( 'NONE',  ( -0.000000000000000000, -0.000000000000000000, 1.000000000000000000 ) ) ;
#379 = DIRECTION ( 'NONE',  ( -1.000000000000000000, -0.000000000000000000, -0.000000000000000000 ) ) ;
#380 = ORIENTED_EDGE ( 'NONE', *, *, #219, .T. ) ;
#381 = DIRECTION ( 'NONE',  ( 0.000000000000000000, 0.000000000000000000, 1.000000000000000000 ) ) ;
#382 = EDGE_CURVE ( 'NONE', #976, #130, #596, .T. ) ;
#383 = AXIS2_PLACEMENT_3D ( 'NONE', #301, #391, #768 ) ;
#384 = LINE ( 'NONE', #138, #574 ) ;
#385 = CARTESIAN_POINT ( 'NONE',  ( 14.00000000000000000, -1.999999999999997335, -4.571662717217885863 ) ) ;
#386 = ORIENTED_EDGE ( 'NONE', *, *, #277, .F. ) ;
#387 = ADVANCED_FACE ( 'NONE', ( #486 ), #74, .T. ) ;
#388 = FACE_OUTER_BOUND ( 'NONE', #769, .T. ) ;
#389 = EDGE_LOOP ( 'NONE', ( #881, #419, #339, #815 ) ) ;
#390 = DATE_AND_TIME ( #149, #794 ) ;
#391 = DIRECTION ( 'NONE',  ( 1.000000000000000000, 0.000000000000000000, -0.000000000000000000 ) ) ;
#392 = VECTOR ( 'NONE', #822, 1000.000000000000000 ) ;
#393 = ORIENTED_EDGE ( 'NONE', *, *, #635, .F. ) ;
#394 = DIRECTION ( 'NONE',  ( 0.000000000000000000, 0.000000000000000000, 1.000000000000000000 ) ) ;
#395 = CIRCLE ( 'NONE', #475, 4.990000000000003766 ) ;
#396 = ADVANCED_FACE ( 'NONE', ( #869 ), #479, .T. ) ;
#397 = ORIENTED_EDGE ( 'NONE', *, *, #696, .F. ) ;
#398 = APPROVAL_STATUS ( 'not_yet_approved' ) ;
#399 = CARTESIAN_POINT ( 'NONE',  ( 14.00000000000000000, 2.000000000000002665, 7.228416147400479552 ) ) ;
#400 = DIRECTION ( 'NONE',  ( 0.000000000000000000, 0.000000000000000000, 1.000000000000000000 ) ) ;
#401 = ORIENTED_EDGE ( 'NONE', *, *, #1019, .T. ) ;
#402 = APPROVAL_ROLE ( '' ) ;
#403 = EDGE_CURVE ( 'NONE', #130, #976, #996, .T. ) ;
#404 = AXIS2_PLACEMENT_3D ( 'NONE', #826, #1015, #286 ) ;
#405 = EDGE_LOOP ( 'NONE', ( #659, #921 ) ) ;
#406 = DIRECTION ( 'NONE',  ( -1.000000000000000000, -0.000000000000000000, -0.000000000000000000 ) ) ;
#407 = AXIS2_PLACEMENT_3D ( 'NONE', #446, #121, #442 ) ;
#408 = DIRECTION ( 'NONE',  ( -0.000000000000000000, 0.000000000000000000, 1.000000000000000000 ) ) ;
#409 = FACE_BOUND ( 'NONE', #322, .T. ) ;
#410 = ORIENTED_EDGE ( 'NONE', *, *, #867, .F. ) ;
#411 = LINE ( 'NONE', #811, #686 ) ;
#412 = EDGE_CURVE ( 'NONE', #657, #703, #72, .T. ) ;
#413 = CARTESIAN_POINT ( 'NONE',  ( 30.50000000000000000, 0.000000000000000000, 0.000000000000000000 ) ) ;
#414 = FACE_OUTER_BOUND ( 'NONE', #713, .T. ) ;
#415 = ORIENTED_EDGE ( 'NONE', *, *, #788, .T. ) ;
#416 = DIRECTION ( 'NONE',  ( -1.000000000000000000, -0.000000000000000000, -0.000000000000000000 ) ) ;
#417 = AXIS2_PLACEMENT_3D ( 'NONE', #558, #705, #242 ) ;
#418 = DIRECTION ( 'NONE',  ( 0.000000000000000000, 0.000000000000000000, 1.000000000000000000 ) ) ;
#419 = ORIENTED_EDGE ( 'NONE', *, *, #653, .T. ) ;
#420 = ORIENTED_EDGE ( 'NONE', *, *, #423, .T. ) ;
#421 = CARTESIAN_POINT ( 'NONE',  ( 0.000000000000000000, 0.000000000000000000, 0.000000000000000000 ) ) ;
#422 = CARTESIAN_POINT ( 'NONE',  ( 14.00000000000000000, 0.000000000000000000, 0.000000000000000000 ) ) ;
#423 = EDGE_CURVE ( 'NONE', #703, #657, #36, .T. ) ;
#424 = ORIENTED_EDGE ( 'NONE', *, *, #212, .T. ) ;
#425 = VERTEX_POINT ( 'NONE', #956 ) ;
#426 = PLANE ( 'NONE',  #878 ) ;
#427 = CARTESIAN_POINT ( 'NONE',  ( 54.00000000000000000, 6.110987527745300420E-16, -4.990000000000006430 ) ) ;
#428 = CARTESIAN_POINT ( 'NONE',  ( 0.000000000000000000, 0.000000000000000000, 0.000000000000000000 ) ) ;
#429 = EDGE_CURVE ( 'NONE', #838, #350, #718, .T. ) ;
#430 = EDGE_LOOP ( 'NONE', ( #83, #604, #458, #171 ) ) ;
#431 = DIRECTION ( 'NONE',  ( -1.000000000000000000, -0.000000000000000000, -0.000000000000000000 ) ) ;
#432 = CIRCLE ( 'NONE', #1013, 7.490000000000001990 ) ;
#433 = AXIS2_PLACEMENT_3D ( 'NONE', #618, #537, #931 ) ;
#434 = CARTESIAN_POINT ( 'NONE',  ( 14.00000000000000000, 0.000000000000000000, 0.000000000000000000 ) ) ;
#435 = DIRECTION ( 'NONE',  ( 0.000000000000000000, 0.000000000000000000, 1.000000000000000000 ) ) ;
#436 = VERTEX_POINT ( 'NONE', #891 ) ;
#437 = DIRECTION ( 'NONE',  ( -1.000000000000000000, -0.000000000000000000, -0.000000000000000000 ) ) ;
#438 = FACE_OUTER_BOUND ( 'NONE', #796, .T. ) ;
#439 = EDGE_LOOP ( 'NONE', ( #492, #947 ) ) ;
#440 = VECTOR ( 'NONE', #197, 1000.000000000000000 ) ;
#441 = EDGE_CURVE ( 'NONE', #703, #698, #807, .T. ) ;
#442 = DIRECTION ( 'NONE',  ( -0.000000000000000000, 0.000000000000000000, 1.000000000000000000 ) ) ;
#443 = DIRECTION ( 'NONE',  ( -1.000000000000000000, 0.000000000000000000, -0.000000000000000000 ) ) ;
#444 = ORIENTED_EDGE ( 'NONE', *, *, #41, .T. ) ;
#445 =( LENGTH_UNIT ( ) NAMED_UNIT ( * ) SI_UNIT ( .MILLI., .METRE. ) );
#446 = CARTESIAN_POINT ( 'NONE',  ( 38.50000000000000000, 0.000000000000000000, -4.790000000000006253 ) ) ;
#447 = DIRECTION ( 'NONE',  ( 0.000000000000000000, 0.000000000000000000, 1.000000000000000000 ) ) ;
#448 = EDGE_CURVE ( 'NONE', #463, #1031, #432, .T. ) ;
#449 = ORIENTED_EDGE ( 'NONE', *, *, #553, .F. ) ;
#450 = CYLINDRICAL_SURFACE ( 'NONE', #272, 4.790000000000006253 ) ;
#451 = LINE ( 'NONE', #613, #314 ) ;
#452 = CARTESIAN_POINT ( 'NONE',  ( 0.000000000000000000, 0.000000000000000000, 0.000000000000000000 ) ) ;
#453 = ADVANCED_FACE ( 'NONE', ( #904 ), #526, .T. ) ;
#454 = EDGE_LOOP ( 'NONE', ( #932, #870, #264, #673 ) ) ;
#455 = CARTESIAN_POINT ( 'NONE',  ( 26.00000000000000355, 0.000000000000000000, 0.000000000000000000 ) ) ;
#456 = CARTESIAN_POINT ( 'NONE',  ( 14.00000000000000000, 2.000000000000002665, -7.218039900139096687 ) ) ;
#457 = LINE ( 'NONE', #843, #529 ) ;
#458 = ORIENTED_EDGE ( 'NONE', *, *, #997, .F. ) ;
#459 = APPROVAL_ROLE ( '' ) ;
#460 = CC_DESIGN_PERSON_AND_ORGANIZATION_ASSIGNMENT ( #550, #864, ( #868 ) ) ;
#461 = CIRCLE ( 'NONE', #5, 4.990000000000003766 ) ;
#462 = DIRECTION ( 'NONE',  ( -1.000000000000000000, -0.000000000000000000, -0.000000000000000000 ) ) ;
#463 = VERTEX_POINT ( 'NONE', #358 ) ;
#464 = CALENDAR_DATE ( 2026, 23, 7 ) ;
#465 = AXIS2_PLACEMENT_3D ( 'NONE', #250, #86, #1011 ) ;
#466 = EDGE_CURVE ( 'NONE', #252, #987, #87, .T. ) ;
#467 = DIRECTION ( 'NONE',  ( 0.000000000000000000, 0.000000000000000000, 1.000000000000000000 ) ) ;
#468 = ORIENTED_EDGE ( 'NONE', *, *, #140, .T. ) ;
#469 = EDGE_CURVE ( 'NONE', #260, #135, #506, .T. ) ;
#470 = DIRECTION ( 'NONE',  ( -1.000000000000000000, -0.000000000000000000, -0.000000000000000000 ) ) ;
#471 = EDGE_LOOP ( 'NONE', ( #62, #765, #727, #912 ) ) ;
#472 = PERSON_AND_ORGANIZATION_ROLE ( 'creator' ) ;
#473 = CARTESIAN_POINT ( 'NONE',  ( 54.00000000000000000, 0.000000000000000000, 0.000000000000000000 ) ) ;
#474 = DIRECTION ( 'NONE',  ( 0.000000000000000000, 0.000000000000000000, 1.000000000000000000 ) ) ;
#475 = AXIS2_PLACEMENT_3D ( 'NONE', #225, #540, #855 ) ;
#476 = EDGE_CURVE ( 'NONE', #200, #804, #525, .T. ) ;
#477 = ORIENTED_EDGE ( 'NONE', *, *, #18, .F. ) ;
#478 = FACE_OUTER_BOUND ( 'NONE', #439, .T. ) ;
#479 = CYLINDRICAL_SURFACE ( 'NONE', #542, 7.490000000000001990 ) ;
#480 = ORIENTED_EDGE ( 'NONE', *, *, #66, .T. ) ;
#481 = EDGE_CURVE ( 'NONE', #720, #19, #123, .T. ) ;
#482 = AXIS2_PLACEMENT_3D ( 'NONE', #119, #918, #762 ) ;
#483 = ORIENTED_EDGE ( 'NONE', *, *, #336, .F. ) ;
#484 = CARTESIAN_POINT ( 'NONE',  ( 0.000000000000000000, 0.000000000000000000, 0.000000000000000000 ) ) ;
#485 = CIRCLE ( 'NONE', #502, 7.490000000000001990 ) ;
#486 = FACE_OUTER_BOUND ( 'NONE', #888, .T. ) ;
#487 = ORIENTED_EDGE ( 'NONE', *, *, #494, .F. ) ;
#488 = ORIENTED_EDGE ( 'NONE', *, *, #494, .T. ) ;
#489 = FACE_OUTER_BOUND ( 'NONE', #511, .T. ) ;
#490 = CARTESIAN_POINT ( 'NONE',  ( 26.00000000000000355, 0.000000000000000000, -4.990000000000003766 ) ) ;
#491 = DIRECTION ( 'NONE',  ( -0.000000000000000000, -0.000000000000000000, 1.000000000000000000 ) ) ;
#492 = ORIENTED_EDGE ( 'NONE', *, *, #949, .T. ) ;
#493 = LINE ( 'NONE', #805, #167 ) ;
#494 = EDGE_CURVE ( 'NONE', #200, #102, #812, .T. ) ;
#495 = DIRECTION ( 'NONE',  ( 0.000000000000000000, 0.000000000000000000, 1.000000000000000000 ) ) ;
#496 = MANIFOLD_SOLID_BREP ( 'Cut-Extrude8', #367 ) ;
#497 = DIRECTION ( 'NONE',  ( 0.000000000000000000, 0.000000000000000000, 1.000000000000000000 ) ) ;
#498 = EDGE_LOOP ( 'NONE', ( #875, #825 ) ) ;
#499 = LINE ( 'NONE', #188, #315 ) ;
#500 = DIRECTION ( 'NONE',  ( 0.000000000000000000, 0.000000000000000000, 1.000000000000000000 ) ) ;
#501 = ADVANCED_FACE ( 'NONE', ( #354 ), #829, .T. ) ;
#502 = AXIS2_PLACEMENT_3D ( 'NONE', #1001, #602, #898 ) ;
#503 = EDGE_LOOP ( 'NONE', ( #683, #91, #371, #943, #144, #715, #216, #689 ) ) ;
#504 = VERTEX_POINT ( 'NONE', #817 ) ;
#505 = DIRECTION ( 'NONE',  ( -1.000000000000000000, -0.000000000000000000, -0.000000000000000000 ) ) ;
#506 = LINE ( 'NONE', #747, #973 ) ;
#507 = EDGE_CURVE ( 'NONE', #194, #327, #701, .T. ) ;
#508 = DIRECTION ( 'NONE',  ( 0.000000000000000000, 0.000000000000000000, 1.000000000000000000 ) ) ;
#509 = AXIS2_PLACEMENT_3D ( 'NONE', #1023, #462, #694 ) ;
#510 = EDGE_CURVE ( 'NONE', #965, #200, #652, .T. ) ;
#511 = EDGE_LOOP ( 'NONE', ( #38, #187, #159, #386 ) ) ;
#512 = DIRECTION ( 'NONE',  ( -1.000000000000000000, 0.000000000000000000, 0.000000000000000000 ) ) ;
#513 = VECTOR ( 'NONE', #491, 1000.000000000000000 ) ;
#514 = FACE_OUTER_BOUND ( 'NONE', #471, .T. ) ;
#515 = DIRECTION ( 'NONE',  ( 0.000000000000000000, 0.000000000000000000, 1.000000000000000000 ) ) ;
#516 = EDGE_LOOP ( 'NONE', ( #533, #906 ) ) ;
#517 = CARTESIAN_POINT ( 'NONE',  ( 24.00000000000000000, -1.999999999999997335, 7.228416147400479552 ) ) ;
#518 = EDGE_CURVE ( 'NONE', #632, #118, #485, .T. ) ;
#519 = AXIS2_PLACEMENT_3D ( 'NONE', #816, #505, #265 ) ;
#520 = DIRECTION ( 'NONE',  ( 0.000000000000000000, 0.000000000000000000, 1.000000000000000000 ) ) ;
#521 = CARTESIAN_POINT ( 'NONE',  ( 54.00000000000000000, 0.000000000000000000, 4.990000000000006430 ) ) ;
#522 = ORIENTED_EDGE ( 'NONE', *, *, #685, .T. ) ;
#523 = CARTESIAN_POINT ( 'NONE',  ( 14.00000000000000000, 0.000000000000000000, 7.490000000000001990 ) ) ;
#524 = ADVANCED_FACE ( 'NONE', ( #990 ), #754, .T. ) ;
#525 = CIRCLE ( 'NONE', #940, 4.990000000000001101 ) ;
#526 = CYLINDRICAL_SURFACE ( 'NONE', #226, 4.990000000000004654 ) ;
#527 = DIRECTION ( 'NONE',  ( -1.000000000000000000, -0.000000000000000000, -0.000000000000000000 ) ) ;
#528 = ORIENTED_EDGE ( 'NONE', *, *, #565, .F. ) ;
#529 = VECTOR ( 'NONE', #1016, 1000.000000000000000 ) ;
#530 = FACE_OUTER_BOUND ( 'NONE', #312, .T. ) ;
#531 = ADVANCED_FACE ( 'NONE', ( #514 ), #823, .T. ) ;
#532 = CARTESIAN_POINT ( 'NONE',  ( 29.50000000000000000, 0.000000000000000000, 0.000000000000000000 ) ) ;
#533 = ORIENTED_EDGE ( 'NONE', *, *, #60, .T. ) ;
#534 = DIRECTION ( 'NONE',  ( 1.000000000000000000, 0.000000000000000000, 0.000000000000000000 ) ) ;
#535 = CARTESIAN_POINT ( 'NONE',  ( 30.50000000000000000, 6.110987527745298447E-16, -4.990000000000004654 ) ) ;
#536 = CIRCLE ( 'NONE', #680, 4.790000000000006253 ) ;
#537 = DIRECTION ( 'NONE',  ( -1.000000000000000000, 0.000000000000000000, 0.000000000000000000 ) ) ;
#538 = ORIENTED_EDGE ( 'NONE', *, *, #930, .T. ) ;
#539 = CARTESIAN_POINT ( 'NONE',  ( 0.000000000000000000, 6.110987527745294503E-16, -4.990000000000001101 ) ) ;
#540 = DIRECTION ( 'NONE',  ( -1.000000000000000000, -0.000000000000000000, -0.000000000000000000 ) ) ;
#541 = ORIENTED_EDGE ( 'NONE', *, *, #1019, .F. ) ;
#542 = AXIS2_PLACEMENT_3D ( 'NONE', #968, #257, #569 ) ;
#543 = DIRECTION ( 'NONE',  ( 1.000000000000000000, 0.000000000000000000, 0.000000000000000000 ) ) ;
#544 = ORIENTED_EDGE ( 'NONE', *, *, #771, .T. ) ;
#545 = COORDINATED_UNIVERSAL_TIME_OFFSET ( 3, 30, .AHEAD. ) ;
#546 = AXIS2_PLACEMENT_3D ( 'NONE', #634, #961, #298 ) ;
#547 = EDGE_CURVE ( 'NONE', #582, #361, #189, .T. ) ;
#548 = DIRECTION ( 'NONE',  ( 0.000000000000000000, 0.000000000000000000, -1.000000000000000000 ) ) ;
#549 = ORIENTED_EDGE ( 'NONE', *, *, #788, .F. ) ;
#550 = PERSON_AND_ORGANIZATION ( #209, #81 ) ;
#551 = CARTESIAN_POINT ( 'NONE',  ( 0.000000000000000000, 0.000000000000000000, 4.790000000000006253 ) ) ;
#552 = ADVANCED_FACE ( 'NONE', ( #39, #127 ), #995, .F. ) ;
#553 = EDGE_CURVE ( 'NONE', #863, #902, #989, .T. ) ;
#554 = CARTESIAN_POINT ( 'NONE',  ( 29.50000000000000000, 0.000000000000000000, 0.000000000000000000 ) ) ;
#555 = ORIENTED_EDGE ( 'NONE', *, *, #369, .T. ) ;
#556 = DATE_TIME_ROLE ( 'classification_date' ) ;
#557 = UNCERTAINTY_MEASURE_WITH_UNIT (LENGTH_MEASURE( 1.000000000000000082E-05 ), #445, 'distance_accuracy_value', 'NONE');
#558 = CARTESIAN_POINT ( 'NONE',  ( 39.50000000000000000, 0.000000000000000000, 0.000000000000000000 ) ) ;
#559 = DIRECTION ( 'NONE',  ( -1.000000000000000000, -0.000000000000000000, -0.000000000000000000 ) ) ;
#560 = EDGE_CURVE ( 'NONE', #642, #789, #1022, .T. ) ;
#561 = ORIENTED_EDGE ( 'NONE', *, *, #353, .F. ) ;
#562 = VERTEX_POINT ( 'NONE', #427 ) ;
#563 = CARTESIAN_POINT ( 'NONE',  ( 0.000000000000000000, 6.110987527745296475E-16, -4.990000000000002878 ) ) ;
#564 = DIRECTION ( 'NONE',  ( -1.000000000000000000, -0.000000000000000000, -0.000000000000000000 ) ) ;
#565 = EDGE_CURVE ( 'NONE', #642, #632, #740, .T. ) ;
#566 = DIRECTION ( 'NONE',  ( -1.000000000000000000, -0.000000000000000000, -0.000000000000000000 ) ) ;
#567 = ORIENTED_EDGE ( 'NONE', *, *, #573, .T. ) ;
#568 = CARTESIAN_POINT ( 'NONE',  ( 29.50000000000000000, 6.110987527745296475E-16, -4.990000000000002878 ) ) ;
#569 = DIRECTION ( 'NONE',  ( 0.000000000000000000, 0.000000000000000000, 1.000000000000000000 ) ) ;
#570 = CARTESIAN_POINT ( 'NONE',  ( 14.00000000000000000, 0.000000000000000000, -7.490000000000001990 ) ) ;
#571 = ORIENTED_EDGE ( 'NONE', *, *, #128, .F. ) ;
#572 = CARTESIAN_POINT ( 'NONE',  ( 14.00000000000000000, -1.999999999999997335, 7.228416147400479552 ) ) ;
#573 = EDGE_CURVE ( 'NONE', #562, #69, #866, .T. ) ;
#574 = VECTOR ( 'NONE', #865, 1000.000000000000000 ) ;
#575 = DIRECTION ( 'NONE',  ( -1.000000000000000000, -0.000000000000000000, -0.000000000000000000 ) ) ;
#576 = CARTESIAN_POINT ( 'NONE',  ( 1.224646799147250347E-18, 6.110987527745293517E-16, -4.990000000000000213 ) ) ;
#577 = AXIS2_PLACEMENT_3D ( 'NONE', #644, #636, #341 ) ;
#578 = ORIENTED_EDGE ( 'NONE', *, *, #219, .F. ) ;
#579 = DIRECTION ( 'NONE',  ( -1.000000000000000000, -0.000000000000000000, -0.000000000000000000 ) ) ;
#580 = EDGE_CURVE ( 'NONE', #130, #112, #716, .T. ) ;
#581 = CARTESIAN_POINT ( 'NONE',  ( 14.00000000000000000, 0.000000000000000000, 0.000000000000000000 ) ) ;
#582 = VERTEX_POINT ( 'NONE', #535 ) ;
#583 = ORIENTED_EDGE ( 'NONE', *, *, #635, .T. ) ;
#584 = LINE ( 'NONE', #590, #253 ) ;
#585 = APPROVAL_PERSON_ORGANIZATION ( #628, #85, #459 ) ;
#586 = CARTESIAN_POINT ( 'NONE',  ( 14.00000000000000000, 0.000000000000000000, 0.000000000000000000 ) ) ;
#587 = AXIS2_PLACEMENT_3D ( 'NONE', #751, #276, #909 ) ;
#588 = FACE_OUTER_BOUND ( 'NONE', #744, .T. ) ;
#589 = ORIENTED_EDGE ( 'NONE', *, *, #50, .F. ) ;
#590 = CARTESIAN_POINT ( 'NONE',  ( 0.000000000000000000, 0.000000000000000000, 4.990000000000005542 ) ) ;
#591 = DIRECTION ( 'NONE',  ( -1.000000000000000000, -0.000000000000000000, -0.000000000000000000 ) ) ;
#592 = EDGE_CURVE ( 'NONE', #657, #331, #848, .T. ) ;
#593 = CARTESIAN_POINT ( 'NONE',  ( 0.000000000000000000, 0.000000000000000000, 4.990000000000002878 ) ) ;
#594 = VERTEX_POINT ( 'NONE', #638 ) ;
#595 = DIRECTION ( 'NONE',  ( 0.000000000000000000, 0.000000000000000000, 1.000000000000000000 ) ) ;
#596 = CIRCLE ( 'NONE', #143, 4.790000000000006253 ) ;
#597 = AXIS2_PLACEMENT_3D ( 'NONE', #22, #599, #273 ) ;
#598 = DIRECTION ( 'NONE',  ( -1.000000000000000000, -0.000000000000000000, -0.000000000000000000 ) ) ;
#599 = DIRECTION ( 'NONE',  ( -1.000000000000000000, -0.000000000000000000, -0.000000000000000000 ) ) ;
#600 = ORIENTED_EDGE ( 'NONE', *, *, #882, .F. ) ;
#601 = DIRECTION ( 'NONE',  ( 0.000000000000000000, 0.000000000000000000, 1.000000000000000000 ) ) ;
#602 = DIRECTION ( 'NONE',  ( 1.000000000000000000, -0.000000000000000000, -0.000000000000000000 ) ) ;
#603 = CARTESIAN_POINT ( 'NONE',  ( 38.50000000000000000, 5.866058167915829334E-16, -4.790000000000006253 ) ) ;
#604 = ORIENTED_EDGE ( 'NONE', *, *, #469, .T. ) ;
#605 = CARTESIAN_POINT ( 'NONE',  ( 4.000000000000000000, 5.866058167915824404E-16, -4.790000000000001812 ) ) ;
#606 = PLANE ( 'NONE',  #908 ) ;
#607 = EDGE_LOOP ( 'NONE', ( #17, #833, #726, #53, #860, #779 ) ) ;
#608 = VECTOR ( 'NONE', #378, 1000.000000000000000 ) ;
#609 = CARTESIAN_POINT ( 'NONE',  ( 38.50000000000000000, 0.000000000000000000, 0.000000000000000000 ) ) ;
#610 = AXIS2_PLACEMENT_3D ( 'NONE', #193, #910, #515 ) ;
#611 = CIRCLE ( 'NONE', #299, 4.990000000000006430 ) ;
#612 = EDGE_CURVE ( 'NONE', #289, #1031, #451, .T. ) ;
#613 = CARTESIAN_POINT ( 'NONE',  ( 0.000000000000000000, 0.000000000000000000, 7.490000000000001990 ) ) ;
#614 = CARTESIAN_POINT ( 'NONE',  ( 4.000000000000000000, 0.000000000000000000, 4.990000000000001101 ) ) ;
#615 = EDGE_LOOP ( 'NONE', ( #343, #774 ) ) ;
#616 = DIRECTION ( 'NONE',  ( -1.000000000000000000, -0.000000000000000000, -0.000000000000000000 ) ) ;
#617 = AXIS2_PLACEMENT_3D ( 'NONE', #907, #745, #24 ) ;
#618 = CARTESIAN_POINT ( 'NONE',  ( 14.00000000000000000, 0.000000000000000000, 0.000000000000000000 ) ) ;
#619 = ORIENTED_EDGE ( 'NONE', *, *, #441, .F. ) ;
#620 = PERSON_AND_ORGANIZATION ( #209, #81 ) ;
#621 = CYLINDRICAL_SURFACE ( 'NONE', #927, 4.790000000000006253 ) ;
#622 = ORIENTED_EDGE ( 'NONE', *, *, #140, .F. ) ;
#623 = VECTOR ( 'NONE', #1039, 1000.000000000000000 ) ;
#624 = VECTOR ( 'NONE', #255, 1000.000000000000000 ) ;
#625 = AXIS2_PLACEMENT_3D ( 'NONE', #748, #814, #508 ) ;
#626 = CARTESIAN_POINT ( 'NONE',  ( 14.00000000000000000, 0.000000000000000000, 4.990000000000001101 ) ) ;
#627 = ORIENTED_EDGE ( 'NONE', *, *, #923, .F. ) ;
#628 = PERSON_AND_ORGANIZATION ( #209, #81 ) ;
#629 = CC_DESIGN_DATE_AND_TIME_ASSIGNMENT ( #1021, #556, ( #809 ) ) ;
#630 = CARTESIAN_POINT ( 'NONE',  ( 0.000000000000000000, 6.110987527745298447E-16, -4.990000000000004654 ) ) ;
#631 = CARTESIAN_POINT ( 'NONE',  ( 4.000000000000000000, 0.000000000000000000, -4.990000000000001101 ) ) ;
#632 = VERTEX_POINT ( 'NONE', #763 ) ;
#633 = APPROVAL_DATE_TIME ( #1032, #776 ) ;
#634 = CARTESIAN_POINT ( 'NONE',  ( 14.00000000000000000, 0.000000000000000000, 0.000000000000000000 ) ) ;
#635 = EDGE_CURVE ( 'NONE', #148, #19, #384, .T. ) ;
#636 = DIRECTION ( 'NONE',  ( 1.000000000000000000, 0.000000000000000000, -0.000000000000000000 ) ) ;
#637 = FACE_OUTER_BOUND ( 'NONE', #1020, .T. ) ;
#638 = CARTESIAN_POINT ( 'NONE',  ( 14.00000000000000000, 2.000000000000003109, -4.571662717217884087 ) ) ;
#639 = DIRECTION ( 'NONE',  ( -1.000000000000000000, -0.000000000000000000, -0.000000000000000000 ) ) ;
#640 = VECTOR ( 'NONE', #830, 1000.000000000000000 ) ;
#641 = ORIENTED_EDGE ( 'NONE', *, *, #867, .T. ) ;
#642 = VERTEX_POINT ( 'NONE', #456 ) ;
#643 = DIRECTION ( 'NONE',  ( 0.000000000000000000, 0.000000000000000000, 1.000000000000000000 ) ) ;
#644 = CARTESIAN_POINT ( 'NONE',  ( 14.00000000000000000, 0.000000000000000000, 0.000000000000000000 ) ) ;
#645 = CIRCLE ( 'NONE', #519, 4.990000000000004654 ) ;
#646 = ORIENTED_EDGE ( 'NONE', *, *, #983, .F. ) ;
#647 = PRODUCT_DEFINITION_FORMATION_WITH_SPECIFIED_SOURCE ( 'ANY', '', #868, .NOT_KNOWN. ) ;
#648 = ORIENTED_EDGE ( 'NONE', *, *, #930, .F. ) ;
#649 = FACE_OUTER_BOUND ( 'NONE', #405, .T. ) ;
#650 = CARTESIAN_POINT ( 'NONE',  ( 0.000000000000000000, 0.000000000000000000, 4.990000000000004654 ) ) ;
#651 = PLANE ( 'NONE',  #1027 ) ;
#652 = CIRCLE ( 'NONE', #46, 4.990000000000001101 ) ;
#653 = EDGE_CURVE ( 'NONE', #957, #436, #73, .T. ) ;
#654 = ORIENTED_EDGE ( 'NONE', *, *, #723, .F. ) ;
#655 = CARTESIAN_POINT ( 'NONE',  ( 39.50000000000000000, 0.000000000000000000, 4.790000000000005365 ) ) ;
#656 = PLANE ( 'NONE',  #944 ) ;
#657 = VERTEX_POINT ( 'NONE', #605 ) ;
#658 = AXIS2_PLACEMENT_3D ( 'NONE', #169, #639, #1037 ) ;
#659 = ORIENTED_EDGE ( 'NONE', *, *, #481, .T. ) ;
#660 = DIRECTION ( 'NONE',  ( 0.000000000000000000, 0.000000000000000000, 1.000000000000000000 ) ) ;
#661 = CARTESIAN_POINT ( 'NONE',  ( 14.00000000000000000, -1.999999999999997335, 7.228416147400479552 ) ) ;
#662 = CARTESIAN_POINT ( 'NONE',  ( 0.000000000000000000, 0.000000000000000000, 0.000000000000000000 ) ) ;
#663 = VERTEX_POINT ( 'NONE', #132 ) ;
#664 = DIRECTION ( 'NONE',  ( -1.000000000000000000, -0.000000000000000000, -0.000000000000000000 ) ) ;
#665 = LOCAL_TIME ( 16, 4, 50.00000000000000000, #76 ) ;
#666 = ADVANCED_FACE ( 'NONE', ( #767 ), #51, .T. ) ;
#667 = DIRECTION ( 'NONE',  ( 0.000000000000000000, 0.000000000000000000, 1.000000000000000000 ) ) ;
#668 = CARTESIAN_POINT ( 'NONE',  ( 24.00000000000000000, 2.000000000000002665, 7.218039900139096687 ) ) ;
#669 = ORIENTED_EDGE ( 'NONE', *, *, #835, .F. ) ;
#670 = DIRECTION ( 'NONE',  ( 0.000000000000000000, 0.000000000000000000, 1.000000000000000000 ) ) ;
#671 = CC_DESIGN_PERSON_AND_ORGANIZATION_ASSIGNMENT ( #699, #63, ( #647 ) ) ;
#672 = DIRECTION ( 'NONE',  ( 1.000000000000000000, 0.000000000000000000, 0.000000000000000000 ) ) ;
#673 = ORIENTED_EDGE ( 'NONE', *, *, #106, .F. ) ;
#674 = FACE_OUTER_BOUND ( 'NONE', #430, .T. ) ;
#675 = CARTESIAN_POINT ( 'NONE',  ( 0.000000000000000000, 0.000000000000000000, 0.000000000000000000 ) ) ;
#676 = DIRECTION ( 'NONE',  ( 0.000000000000000000, -1.000000000000000000, 0.000000000000000000 ) ) ;
#677 = EDGE_CURVE ( 'NONE', #642, #594, #238, .T. ) ;
#678 = ORIENTED_EDGE ( 'NONE', *, *, #813, .F. ) ;
#679 = APPLICATION_PROTOCOL_DEFINITION ( 'international standard', 'config_control_design', 1994, #77 ) ;
#680 = AXIS2_PLACEMENT_3D ( 'NONE', #609, #206, #840 ) ;
#681 = LINE ( 'NONE', #320, #8 ) ;
#682 = FACE_OUTER_BOUND ( 'NONE', #953, .T. ) ;
#683 = ORIENTED_EDGE ( 'NONE', *, *, #969, .T. ) ;
#684 = CARTESIAN_POINT ( 'NONE',  ( 14.00000000000000000, 6.110987527745294503E-16, -4.990000000000001101 ) ) ;
#685 = EDGE_CURVE ( 'NONE', #356, #582, #213, .T. ) ;
#686 = VECTOR ( 'NONE', #179, 1000.000000000000000 ) ;
#687 = CARTESIAN_POINT ( 'NONE',  ( 54.00000000000000000, 0.000000000000000000, 0.000000000000000000 ) ) ;
#688 = LINE ( 'NONE', #650, #978 ) ;
#689 = ORIENTED_EDGE ( 'NONE', *, *, #612, .F. ) ;
#690 = DIRECTION ( 'NONE',  ( -1.000000000000000000, -0.000000000000000000, -0.000000000000000000 ) ) ;
#691 = CIRCLE ( 'NONE', #818, 4.990000000000002878 ) ;
#692 = CC_DESIGN_PERSON_AND_ORGANIZATION_ASSIGNMENT ( #620, #155, ( #163 ) ) ;
#693 = AXIS2_PLACEMENT_3D ( 'NONE', #850, #379, #858 ) ;
#694 = DIRECTION ( 'NONE',  ( 0.000000000000000000, 0.000000000000000000, 1.000000000000000000 ) ) ;
#695 = ORIENTED_EDGE ( 'NONE', *, *, #1040, .F. ) ;
#696 = EDGE_CURVE ( 'NONE', #260, #838, #946, .T. ) ;
#697 = PLANE ( 'NONE',  #160 ) ;
#698 = VERTEX_POINT ( 'NONE', #328 ) ;
#699 = PERSON_AND_ORGANIZATION ( #209, #81 ) ;
#700 = AXIS2_PLACEMENT_3D ( 'NONE', #473, #156, #842 ) ;
#701 = CIRCLE ( 'NONE', #832, 4.990000000000001101 ) ;
#702 = FACE_OUTER_BOUND ( 'NONE', #28, .T. ) ;
#703 = VERTEX_POINT ( 'NONE', #1029 ) ;
#704 = APPROVAL_DATE_TIME ( #390, #1003 ) ;
#705 = DIRECTION ( 'NONE',  ( -1.000000000000000000, -0.000000000000000000, -0.000000000000000000 ) ) ;
#706 = VECTOR ( 'NONE', #575, 1000.000000000000000 ) ;
#707 = FACE_OUTER_BOUND ( 'NONE', #810, .T. ) ;
#708 = VERTEX_POINT ( 'NONE', #1034 ) ;
#709 = COORDINATED_UNIVERSAL_TIME_OFFSET ( 3, 30, .AHEAD. ) ;
#710 = EDGE_CURVE ( 'NONE', #267, #938, #681, .T. ) ;
#711 = DIRECTION ( 'NONE',  ( 1.000000000000000000, 0.000000000000000000, 0.000000000000000000 ) ) ;
#712 = CARTESIAN_POINT ( 'NONE',  ( 4.000000000000000000, 0.000000000000000000, 0.000000000000000000 ) ) ;
#713 = EDGE_LOOP ( 'NONE', ( #695, #164, #351, #376, #487, #10 ) ) ;
#714 = AXIS2_PLACEMENT_3D ( 'NONE', #421, #982, #11 ) ;
#715 = ORIENTED_EDGE ( 'NONE', *, *, #835, .T. ) ;
#716 = LINE ( 'NONE', #551, #347 ) ;
#717 = AXIS2_PLACEMENT_3D ( 'NONE', #202, #437, #30 ) ;
#718 = LINE ( 'NONE', #1041, #706 ) ;
#719 = ORIENTED_EDGE ( 'NONE', *, *, #448, .F. ) ;
#720 = VERTEX_POINT ( 'NONE', #1006 ) ;
#721 = CARTESIAN_POINT ( 'NONE',  ( 0.000000000000000000, 6.110987527745299433E-16, -4.990000000000005542 ) ) ;
#722 = CIRCLE ( 'NONE', #610, 4.790000000000000924 ) ;
#723 = EDGE_CURVE ( 'NONE', #789, #102, #914, .T. ) ;
#724 = FACE_OUTER_BOUND ( 'NONE', #783, .T. ) ;
#725 = AXIS2_PLACEMENT_3D ( 'NONE', #27, #676, #215 ) ;
#726 = ORIENTED_EDGE ( 'NONE', *, *, #466, .F. ) ;
#727 = ORIENTED_EDGE ( 'NONE', *, *, #441, .T. ) ;
#728 = LINE ( 'NONE', #3, #624 ) ;
#729 = LINE ( 'NONE', #962, #317 ) ;
#730 = ADVANCED_FACE ( 'NONE', ( #530 ), #291, .F. ) ;
#731 = CIRCLE ( 'NONE', #338, 4.990000000000004654 ) ;
#732 = ORIENTED_EDGE ( 'NONE', *, *, #50, .T. ) ;
#733 = ORIENTED_EDGE ( 'NONE', *, *, #911, .T. ) ;
#734 = DIRECTION ( 'NONE',  ( 0.000000000000000000, 0.000000000000000000, 1.000000000000000000 ) ) ;
#735 = DIRECTION ( 'NONE',  ( -1.000000000000000000, -0.000000000000000000, -0.000000000000000000 ) ) ;
#736 = ORIENTED_EDGE ( 'NONE', *, *, #573, .F. ) ;
#737 = ADVANCED_FACE ( 'NONE', ( #478 ), #45, .T. ) ;
#738 = EDGE_LOOP ( 'NONE', ( #125, #993, #1017, #538, #733, #980 ) ) ;
#739 = DIRECTION ( 'NONE',  ( 1.000000000000000000, 0.000000000000000000, 0.000000000000000000 ) ) ;
#740 = LINE ( 'NONE', #21, #122 ) ;
#741 = FACE_OUTER_BOUND ( 'NONE', #210, .T. ) ;
#742 = AXIS2_PLACEMENT_3D ( 'NONE', #554, #793, #885 ) ;
#743 = AXIS2_PLACEMENT_3D ( 'NONE', #89, #566, #263 ) ;
#744 = EDGE_LOOP ( 'NONE', ( #981, #528, #279, #380, #1038, #669 ) ) ;
#745 = DIRECTION ( 'NONE',  ( -1.000000000000000000, -0.000000000000000000, -0.000000000000000000 ) ) ;
#746 = ADVANCED_FACE ( 'NONE', ( #877 ), #166, .T. ) ;
#747 = CARTESIAN_POINT ( 'NONE',  ( 0.000000000000000000, 5.866058167915829334E-16, -4.790000000000006253 ) ) ;
#748 = CARTESIAN_POINT ( 'NONE',  ( 30.50000000000000000, 0.000000000000000000, 0.000000000000000000 ) ) ;
#749 = ORIENTED_EDGE ( 'NONE', *, *, #151, .F. ) ;
#750 = LOCAL_TIME ( 16, 4, 50.00000000000000000, #709 ) ;
#751 = CARTESIAN_POINT ( 'NONE',  ( 0.000000000000000000, 0.000000000000000000, 0.000000000000000000 ) ) ;
#752 = DIRECTION ( 'NONE',  ( 0.000000000000000000, 0.000000000000000000, 1.000000000000000000 ) ) ;
#753 = ORIENTED_EDGE ( 'NONE', *, *, #120, .T. ) ;
#754 = CYLINDRICAL_SURFACE ( 'NONE', #587, 4.990000000000001101 ) ;
#755 = DIRECTION ( 'NONE',  ( -0.000000000000000000, 0.000000000000000000, 1.000000000000000000 ) ) ;
#756 = EDGE_LOOP ( 'NONE', ( #294, #483 ) ) ;
#757 = DIRECTION ( 'NONE',  ( 0.000000000000000000, 0.000000000000000000, 1.000000000000000000 ) ) ;
#758 = AXIS2_PLACEMENT_3D ( 'NONE', #687, #955, #161 ) ;
#759 = EDGE_CURVE ( 'NONE', #1031, #504, #221, .T. ) ;
#760 = CARTESIAN_POINT ( 'NONE',  ( 26.00000000000000000, 0.000000000000000000, 0.000000000000000000 ) ) ;
#761 = EDGE_LOOP ( 'NONE', ( #401, #583, #107, #186 ) ) ;
#762 = DIRECTION ( 'NONE',  ( 0.000000000000000000, 0.000000000000000000, 1.000000000000000000 ) ) ;
#763 = CARTESIAN_POINT ( 'NONE',  ( 24.00000000000000000, 2.000000000000002665, -7.218039900139096687 ) ) ;
#764 = DIRECTION ( 'NONE',  ( -1.000000000000000000, -0.000000000000000000, -0.000000000000000000 ) ) ;
#765 = ORIENTED_EDGE ( 'NONE', *, *, #412, .T. ) ;
#766 = CYLINDRICAL_SURFACE ( 'NONE', #256, 4.990000000000005542 ) ;
#767 = FACE_OUTER_BOUND ( 'NONE', #229, .T. ) ;
#768 = DIRECTION ( 'NONE',  ( -0.000000000000000000, 0.000000000000000000, -1.000000000000000000 ) ) ;
#769 = EDGE_LOOP ( 'NONE', ( #444, #926 ) ) ;
#770 = DATE_TIME_ROLE ( 'creation_date' ) ;
#771 = EDGE_CURVE ( 'NONE', #318, #720, #493, .T. ) ;
#772 = AXIS2_PLACEMENT_3D ( 'NONE', #364, #443, #755 ) ;
#773 = DIRECTION ( 'NONE',  ( 0.000000000000000000, 0.000000000000000000, 1.000000000000000000 ) ) ;
#774 = ORIENTED_EDGE ( 'NONE', *, *, #106, .T. ) ;
#775 = DATE_AND_TIME ( #307, #237 ) ;
#776 = APPROVAL ( #398, 'UNSPECIFIED' ) ;
#777 = CIRCLE ( 'NONE', #59, 4.990000000000001101 ) ;
#778 = CARTESIAN_POINT ( 'NONE',  ( 0.000000000000000000, 0.000000000000000000, 0.000000000000000000 ) ) ;
#779 = ORIENTED_EDGE ( 'NONE', *, *, #25, .T. ) ;
#780 = APPROVAL_ROLE ( '' ) ;
#781 = CARTESIAN_POINT ( 'NONE',  ( 54.00000000000000000, 0.000000000000000000, 0.000000000000000000 ) ) ;
#782 = ADVANCED_FACE ( 'NONE', ( #649 ), #426, .F. ) ;
#783 = EDGE_LOOP ( 'NONE', ( #183, #641, #678, #222 ) ) ;
#784 = SECURITY_CLASSIFICATION_LEVEL ( 'unclassified' ) ;
#785 = DIRECTION ( 'NONE',  ( 0.000000000000000000, 0.000000000000000000, 1.000000000000000000 ) ) ;
#786 = AXIS2_PLACEMENT_3D ( 'NONE', #631, #543, #147 ) ;
#787 = CARTESIAN_POINT ( 'NONE',  ( 30.50000000000000000, 0.000000000000000000, 0.000000000000000000 ) ) ;
#788 = EDGE_CURVE ( 'NONE', #708, #356, #731, .T. ) ;
#789 = VERTEX_POINT ( 'NONE', #352 ) ;
#790 = MECHANICAL_CONTEXT ( 'NONE', #77, 'mechanical' ) ;
#791 = CARTESIAN_POINT ( 'NONE',  ( 0.000000000000000000, 5.866058167915823418E-16, -4.790000000000000924 ) ) ;
#792 = AXIS2_PLACEMENT_3D ( 'NONE', #484, #797, #924 ) ;
#793 = DIRECTION ( 'NONE',  ( -1.000000000000000000, -0.000000000000000000, -0.000000000000000000 ) ) ;
#794 = LOCAL_TIME ( 16, 4, 50.00000000000000000, #545 ) ;
#795 = ORIENTED_EDGE ( 'NONE', *, *, #324, .T. ) ;
#796 = EDGE_LOOP ( 'NONE', ( #178, #1025, #333, #853 ) ) ;
#797 = DIRECTION ( 'NONE',  ( -1.000000000000000000, -0.000000000000000000, -0.000000000000000000 ) ) ;
#798 = DIRECTION ( 'NONE',  ( -1.000000000000000000, -0.000000000000000000, -0.000000000000000000 ) ) ;
#799 = DIRECTION ( 'NONE',  ( -1.000000000000000000, -0.000000000000000000, -0.000000000000000000 ) ) ;
#800 = EDGE_LOOP ( 'NONE', ( #420, #274, #622, #619 ) ) ;
#801 = CARTESIAN_POINT ( 'NONE',  ( 39.50000000000000711, 0.000000000000000000, 4.990000000000004654 ) ) ;
#802 = DIRECTION ( 'NONE',  ( -1.000000000000000000, -0.000000000000000000, -0.000000000000000000 ) ) ;
#803 = EDGE_LOOP ( 'NONE', ( #960, #302 ) ) ;
#804 = VERTEX_POINT ( 'NONE', #172 ) ;
#805 = CARTESIAN_POINT ( 'NONE',  ( 0.000000000000000000, 0.000000000000000000, 4.990000000000000213 ) ) ;
#806 = CC_DESIGN_PERSON_AND_ORGANIZATION_ASSIGNMENT ( #954, #54, ( #809 ) ) ;
#807 = LINE ( 'NONE', #874, #841 ) ;
#808 = DIRECTION ( 'NONE',  ( 1.000000000000000000, 0.000000000000000000, 0.000000000000000000 ) ) ;
#809 = SECURITY_CLASSIFICATION ( '', '', #784 ) ;
#810 = EDGE_LOOP ( 'NONE', ( #415, #522, #895, #876 ) ) ;
#811 = CARTESIAN_POINT ( 'NONE',  ( 0.000000000000000000, 5.866058167915829334E-16, -4.790000000000006253 ) ) ;
#812 = LINE ( 'NONE', #661, #440 ) ;
#813 = EDGE_CURVE ( 'NONE', #902, #863, #645, .T. ) ;
#814 = DIRECTION ( 'NONE',  ( -1.000000000000000000, -0.000000000000000000, -0.000000000000000000 ) ) ;
#815 = ORIENTED_EDGE ( 'NONE', *, *, #133, .F. ) ;
#816 = CARTESIAN_POINT ( 'NONE',  ( 39.50000000000000711, 0.000000000000000000, 0.000000000000000000 ) ) ;
#817 = CARTESIAN_POINT ( 'NONE',  ( 14.00000000000000000, 2.000000000000002665, 7.218039900139096687 ) ) ;
#818 = AXIS2_PLACEMENT_3D ( 'NONE', #532, #220, #56 ) ;
#819 = DIRECTION ( 'NONE',  ( 0.000000000000000000, 0.000000000000000000, -1.000000000000000000 ) ) ;
#820 = AXIS2_PLACEMENT_3D ( 'NONE', #452, #764, #47 ) ;
#821 = ORIENTED_EDGE ( 'NONE', *, *, #852, .F. ) ;
#822 = DIRECTION ( 'NONE',  ( -1.000000000000000000, -0.000000000000000000, -0.000000000000000000 ) ) ;
#823 = CYLINDRICAL_SURFACE ( 'NONE', #717, 4.790000000000000924 ) ;
#824 = FACE_OUTER_BOUND ( 'NONE', #756, .T. ) ;
#825 = ORIENTED_EDGE ( 'NONE', *, *, #963, .T. ) ;
#826 = CARTESIAN_POINT ( 'NONE',  ( 0.000000000000000000, 0.000000000000000000, 0.000000000000000000 ) ) ;
#827 = CC_DESIGN_APPROVAL ( #85, ( #163 ) ) ;
#828 = ADVANCED_FACE ( 'NONE', ( #489 ), #269, .T. ) ;
#829 = CYLINDRICAL_SURFACE ( 'NONE', #31, 4.790000000000000924 ) ;
#830 = DIRECTION ( 'NONE',  ( 0.000000000000000000, 0.000000000000000000, -1.000000000000000000 ) ) ;
#831 = VECTOR ( 'NONE', #218, 1000.000000000000000 ) ;
#832 = AXIS2_PLACEMENT_3D ( 'NONE', #586, #266, #110 ) ;
#833 = ORIENTED_EDGE ( 'NONE', *, *, #991, .T. ) ;
#834 = DIRECTION ( 'NONE',  ( 0.000000000000000000, -0.000000000000000000, 1.000000000000000000 ) ) ;
#835 = EDGE_CURVE ( 'NONE', #118, #504, #97, .T. ) ;
#836 = DIRECTION ( 'NONE',  ( 0.000000000000000000, 0.000000000000000000, 1.000000000000000000 ) ) ;
#837 = LINE ( 'NONE', #985, #90 ) ;
#838 = VERTEX_POINT ( 'NONE', #655 ) ;
#839 = CIRCLE ( 'NONE', #693, 4.790000000000000924 ) ;
#840 = DIRECTION ( 'NONE',  ( 0.000000000000000000, 0.000000000000000000, 1.000000000000000000 ) ) ;
#841 = VECTOR ( 'NONE', #162, 1000.000000000000000 ) ;
#842 = DIRECTION ( 'NONE',  ( 0.000000000000000000, 0.000000000000000000, 1.000000000000000000 ) ) ;
#843 = CARTESIAN_POINT ( 'NONE',  ( 14.00000000000000000, 2.000000000000002665, 7.228416147400479552 ) ) ;
#844 = ADVANCED_FACE ( 'NONE', ( #884 ), #896, .T. ) ;
#845 = ORIENTED_EDGE ( 'NONE', *, *, #476, .F. ) ;
#846 = PLANE ( 'NONE',  #1036 ) ;
#847 = CIRCLE ( 'NONE', #204, 4.990000000000000213 ) ;
#848 = LINE ( 'NONE', #791, #831 ) ;
#849 = VECTOR ( 'NONE', #579, 1000.000000000000000 ) ;
#850 = CARTESIAN_POINT ( 'NONE',  ( 3.000000000000000000, 0.000000000000000000, 0.000000000000000000 ) ) ;
#851 = AXIS2_PLACEMENT_3D ( 'NONE', #363, #104, #520 ) ;
#852 = EDGE_CURVE ( 'NONE', #463, #804, #261, .T. ) ;
#853 = ORIENTED_EDGE ( 'NONE', *, *, #580, .F. ) ;
#854 = COORDINATED_UNIVERSAL_TIME_OFFSET ( 3, 30, .AHEAD. ) ;
#855 = DIRECTION ( 'NONE',  ( 0.000000000000000000, 0.000000000000000000, 1.000000000000000000 ) ) ;
#856 = ORIENTED_EDGE ( 'NONE', *, *, #25, .F. ) ;
#857 = CC_DESIGN_DATE_AND_TIME_ASSIGNMENT ( #948, #770, ( #163 ) ) ;
#858 = DIRECTION ( 'NONE',  ( 0.000000000000000000, 0.000000000000000000, 1.000000000000000000 ) ) ;
#859 = ORIENTED_EDGE ( 'NONE', *, *, #897, .T. ) ;
#860 = ORIENTED_EDGE ( 'NONE', *, *, #507, .T. ) ;
#861 = CIRCLE ( 'NONE', #899, 4.790000000000005365 ) ;
#862 = CYLINDRICAL_SURFACE ( 'NONE', #246, 4.990000000000002878 ) ;
#863 = VERTEX_POINT ( 'NONE', #275 ) ;
#864 = PERSON_AND_ORGANIZATION_ROLE ( 'design_owner' ) ;
#865 = DIRECTION ( 'NONE',  ( -1.000000000000000000, -0.000000000000000000, -0.000000000000000000 ) ) ;
#866 = CIRCLE ( 'NONE', #700, 4.990000000000006430 ) ;
#867 = EDGE_CURVE ( 'NONE', #562, #863, #334, .T. ) ;
#868 = PRODUCT ( 'Link1UpperShaft_Default_sldprt', 'Link1UpperShaft_Default_sldprt', '', ( #790 ) ) ;
#869 = FACE_OUTER_BOUND ( 'NONE', #503, .T. ) ;
#870 = ORIENTED_EDGE ( 'NONE', *, *, #696, .T. ) ;
#871 = DIRECTION ( 'NONE',  ( -1.000000000000000000, -0.000000000000000000, -0.000000000000000000 ) ) ;
#872 = AXIS2_PLACEMENT_3D ( 'NONE', #116, #111, #925 ) ;
#873 = EDGE_CURVE ( 'NONE', #69, #902, #584, .T. ) ;
#874 = CARTESIAN_POINT ( 'NONE',  ( 0.000000000000000000, 0.000000000000000000, 4.790000000000000924 ) ) ;
#875 = ORIENTED_EDGE ( 'NONE', *, *, #466, .T. ) ;
#876 = ORIENTED_EDGE ( 'NONE', *, *, #309, .F. ) ;
#877 = FACE_OUTER_BOUND ( 'NONE', #761, .T. ) ;
#878 = AXIS2_PLACEMENT_3D ( 'NONE', #346, #739, #340 ) ;
#879 = CARTESIAN_POINT ( 'NONE',  ( 0.000000000000000000, 0.000000000000000000, 0.000000000000000000 ) ) ;
#880 = CC_DESIGN_SECURITY_CLASSIFICATION ( #809, ( #647 ) ) ;
#881 = ORIENTED_EDGE ( 'NONE', *, *, #180, .T. ) ;
#882 = EDGE_CURVE ( 'NONE', #838, #260, #861, .T. ) ;
#883 = EDGE_LOOP ( 'NONE', ( #600, #397 ) ) ;
#884 = FACE_OUTER_BOUND ( 'NONE', #738, .T. ) ;
#885 = DIRECTION ( 'NONE',  ( 0.000000000000000000, 0.000000000000000000, 1.000000000000000000 ) ) ;
#886 = DIRECTION ( 'NONE',  ( 0.000000000000000000, 0.000000000000000000, -1.000000000000000000 ) ) ;
#887 = DESIGN_CONTEXT ( 'detailed design', #190, 'design' ) ;
#888 = EDGE_LOOP ( 'NONE', ( #856, #578 ) ) ;
#889 = CARTESIAN_POINT ( 'NONE',  ( 24.00000000000000000, -1.999999999999997335, -7.218039900139097576 ) ) ;
#890 = VECTOR ( 'NONE', #871, 1000.000000000000000 ) ;
#891 = CARTESIAN_POINT ( 'NONE',  ( 26.00000000000000000, 6.110987527745297461E-16, -4.990000000000003766 ) ) ;
#892 = AXIS2_PLACEMENT_3D ( 'NONE', #570, #808, #886 ) ;
#893 = CIRCLE ( 'NONE', #4, 4.990000000000004654 ) ;
#894 = CARTESIAN_POINT ( 'NONE',  ( 14.00000000000000000, 0.000000000000000000, 0.000000000000000000 ) ) ;
#895 = ORIENTED_EDGE ( 'NONE', *, *, #120, .F. ) ;
#896 = CYLINDRICAL_SURFACE ( 'NONE', #348, 4.990000000000001101 ) ;
#897 = EDGE_CURVE ( 'NONE', #938, #102, #499, .T. ) ;
#898 = DIRECTION ( 'NONE',  ( 0.000000000000000000, 0.000000000000000000, -1.000000000000000000 ) ) ;
#899 = AXIS2_PLACEMENT_3D ( 'NONE', #903, #15, #660 ) ;
#900 = LINE ( 'NONE', #374, #640 ) ;
#901 = AXIS2_PLACEMENT_3D ( 'NONE', #922, #280, #248 ) ;
#902 = VERTEX_POINT ( 'NONE', #801 ) ;
#903 = CARTESIAN_POINT ( 'NONE',  ( 39.50000000000000000, 0.000000000000000000, 0.000000000000000000 ) ) ;
#904 = FACE_OUTER_BOUND ( 'NONE', #141, .T. ) ;
#905 = DIRECTION ( 'NONE',  ( 0.000000000000000000, 0.000000000000000000, 1.000000000000000000 ) ) ;
#906 = ORIENTED_EDGE ( 'NONE', *, *, #277, .T. ) ;
#907 = CARTESIAN_POINT ( 'NONE',  ( 14.00000000000000000, 0.000000000000000000, 0.000000000000000000 ) ) ;
#908 = AXIS2_PLACEMENT_3D ( 'NONE', #208, #672, #819 ) ;
#909 = DIRECTION ( 'NONE',  ( 0.000000000000000000, 0.000000000000000000, 1.000000000000000000 ) ) ;
#910 = DIRECTION ( 'NONE',  ( -1.000000000000000000, -0.000000000000000000, -0.000000000000000000 ) ) ;
#911 = EDGE_CURVE ( 'NONE', #194, #252, #728, .T. ) ;
#912 = ORIENTED_EDGE ( 'NONE', *, *, #243, .F. ) ;
#913 = LINE ( 'NONE', #34, #44 ) ;
#914 = CIRCLE ( 'NONE', #546, 7.490000000000001990 ) ;
#915 = DIRECTION ( 'NONE',  ( -1.000000000000000000, -0.000000000000000000, -0.000000000000000000 ) ) ;
#916 = CARTESIAN_POINT ( 'NONE',  ( 30.50000000000000000, 0.000000000000000000, 4.790000000000006253 ) ) ;
#917 = ORIENTED_EDGE ( 'NONE', *, *, #710, .F. ) ;
#918 = DIRECTION ( 'NONE',  ( -1.000000000000000000, -0.000000000000000000, -0.000000000000000000 ) ) ;
#919 = DIRECTION ( 'NONE',  ( 0.000000000000000000, 0.000000000000000000, 1.000000000000000000 ) ) ;
#920 = FACE_BOUND ( 'NONE', #254, .T. ) ;
#921 = ORIENTED_EDGE ( 'NONE', *, *, #128, .T. ) ;
#922 = CARTESIAN_POINT ( 'NONE',  ( 0.000000000000000000, 0.000000000000000000, 0.000000000000000000 ) ) ;
#923 = EDGE_CURVE ( 'NONE', #976, #663, #411, .T. ) ;
#924 = DIRECTION ( 'NONE',  ( 0.000000000000000000, 0.000000000000000000, 1.000000000000000000 ) ) ;
#925 = DIRECTION ( 'NONE',  ( -0.000000000000000000, 0.000000000000000000, 1.000000000000000000 ) ) ;
#926 = ORIENTED_EDGE ( 'NONE', *, *, #518, .F. ) ;
#927 = AXIS2_PLACEMENT_3D ( 'NONE', #142, #470, #773 ) ;
#928 = CARTESIAN_POINT ( 'NONE',  ( 4.000000000000000000, 6.110987527745294503E-16, -4.990000000000001101 ) ) ;
#929 = DIRECTION ( 'NONE',  ( -1.000000000000000000, -0.000000000000000000, -0.000000000000000000 ) ) ;
#930 = EDGE_CURVE ( 'NONE', #804, #194, #227, .T. ) ;
#931 = DIRECTION ( 'NONE',  ( 0.000000000000000000, 0.000000000000000000, 1.000000000000000000 ) ) ;
#932 = ORIENTED_EDGE ( 'NONE', *, *, #469, .F. ) ;
#933 = CARTESIAN_POINT ( 'NONE',  ( 3.000000000000000000, 0.000000000000000000, 0.000000000000000000 ) ) ;
#934 = AXIS2_PLACEMENT_3D ( 'NONE', #357, #972, #966 ) ;
#935 = LOCAL_TIME ( 16, 4, 50.00000000000000000, #1026 ) ;
#936 = CC_DESIGN_PERSON_AND_ORGANIZATION_ASSIGNMENT ( #236, #472, ( #647 ) ) ;
#937 = CARTESIAN_POINT ( 'NONE',  ( 24.00000000000000000, -1.999999999999997335, 7.218039900139097576 ) ) ;
#938 = VERTEX_POINT ( 'NONE', #889 ) ;
#939 = CALENDAR_DATE ( 2026, 23, 7 ) ;
#940 = AXIS2_PLACEMENT_3D ( 'NONE', #287, #915, #207 ) ;
#941 = DIRECTION ( 'NONE',  ( -1.000000000000000000, -0.000000000000000000, -0.000000000000000000 ) ) ;
#942 = ORIENTED_EDGE ( 'NONE', *, *, #382, .F. ) ;
#943 = ORIENTED_EDGE ( 'NONE', *, *, #565, .T. ) ;
#944 = AXIS2_PLACEMENT_3D ( 'NONE', #490, #181, #408 ) ;
#945 = DIRECTION ( 'NONE',  ( 1.000000000000000000, 0.000000000000000000, 0.000000000000000000 ) ) ;
#946 = CIRCLE ( 'NONE', #417, 4.790000000000005365 ) ;
#947 = ORIENTED_EDGE ( 'NONE', *, *, #710, .T. ) ;
#948 = DATE_AND_TIME ( #464, #665 ) ;
#949 = EDGE_CURVE ( 'NONE', #938, #267, #168, .T. ) ;
#950 = DIRECTION ( 'NONE',  ( 0.000000000000000000, 0.000000000000000000, -1.000000000000000000 ) ) ;
#951 = DIRECTION ( 'NONE',  ( -1.000000000000000000, -0.000000000000000000, -0.000000000000000000 ) ) ;
#952 = ADVANCED_BREP_SHAPE_REPRESENTATION ( 'Link1UpperShaft_Default_sldprt', ( #496, #901 ), #986 ) ;
#953 = EDGE_LOOP ( 'NONE', ( #541, #268 ) ) ;
#954 = PERSON_AND_ORGANIZATION ( #209, #81 ) ;
#955 = DIRECTION ( 'NONE',  ( -1.000000000000000000, 0.000000000000000000, -0.000000000000000000 ) ) ;
#956 = CARTESIAN_POINT ( 'NONE',  ( 29.50000000000000000, 0.000000000000000000, 4.990000000000002878 ) ) ;
#957 = VERTEX_POINT ( 'NONE', #568 ) ;
#958 = APPROVAL_DATE_TIME ( #775, #85 ) ;
#959 = CIRCLE ( 'NONE', #509, 4.990000000000000213 ) ;
#960 = ORIENTED_EDGE ( 'NONE', *, *, #969, .F. ) ;
#961 = DIRECTION ( 'NONE',  ( -1.000000000000000000, -0.000000000000000000, -0.000000000000000000 ) ) ;
#962 = CARTESIAN_POINT ( 'NONE',  ( 0.000000000000000000, 9.172604525613678137E-16, -7.490000000000001990 ) ) ;
#963 = EDGE_CURVE ( 'NONE', #987, #252, #137, .T. ) ;
#964 = CARTESIAN_POINT ( 'NONE',  ( 26.00000000000000000, 0.000000000000000000, 4.990000000000003766 ) ) ;
#965 = VERTEX_POINT ( 'NONE', #684 ) ;
#966 = DIRECTION ( 'NONE',  ( 0.000000000000000000, 0.000000000000000000, 1.000000000000000000 ) ) ;
#967 = PRODUCT_DEFINITION_SHAPE ( 'NONE', 'NONE',  #163 ) ;
#968 = CARTESIAN_POINT ( 'NONE',  ( 0.000000000000000000, 0.000000000000000000, 0.000000000000000000 ) ) ;
#969 = EDGE_CURVE ( 'NONE', #289, #79, #117, .T. ) ;
#970 = EDGE_LOOP ( 'NONE', ( #589, #845 ) ) ;
#971 = ORIENTED_EDGE ( 'NONE', *, *, #612, .T. ) ;
#972 = DIRECTION ( 'NONE',  ( -1.000000000000000000, -0.000000000000000000, -0.000000000000000000 ) ) ;
#973 = VECTOR ( 'NONE', #979, 1000.000000000000000 ) ;
#974 = CARTESIAN_POINT ( 'NONE',  ( 30.50000000000000000, 0.000000000000000000, 4.990000000000004654 ) ) ;
#975 = CARTESIAN_POINT ( 'NONE',  ( 30.50000000000000000, 0.000000000000000000, -4.990000000000004654 ) ) ;
#976 = VERTEX_POINT ( 'NONE', #377 ) ;
#977 = CARTESIAN_POINT ( 'NONE',  ( 0.000000000000000000, 2.000000000000002665, 7.218039900139096687 ) ) ;
#978 = VECTOR ( 'NONE', #7, 1000.000000000000000 ) ;
#979 = DIRECTION ( 'NONE',  ( -1.000000000000000000, -0.000000000000000000, -0.000000000000000000 ) ) ;
#980 = ORIENTED_EDGE ( 'NONE', *, *, #963, .F. ) ;
#981 = ORIENTED_EDGE ( 'NONE', *, *, #41, .F. ) ;
#982 = DIRECTION ( 'NONE',  ( -1.000000000000000000, -0.000000000000000000, -0.000000000000000000 ) ) ;
#983 = EDGE_CURVE ( 'NONE', #463, #267, #913, .T. ) ;
#984 = DIRECTION ( 'NONE',  ( 0.000000000000000000, 0.000000000000000000, 1.000000000000000000 ) ) ;
#985 = CARTESIAN_POINT ( 'NONE',  ( 14.00000000000000000, 2.000000000000002665, 7.228416147400479552 ) ) ;
#986 =( GEOMETRIC_REPRESENTATION_CONTEXT ( 3 ) GLOBAL_UNCERTAINTY_ASSIGNED_CONTEXT ( ( #557 ) ) GLOBAL_UNIT_ASSIGNED_CONTEXT ( ( #445, #131, #362 ) ) REPRESENTATION_CONTEXT ( 'NONE', 'WORKASPACE' ) );
#987 = VERTEX_POINT ( 'NONE', #928 ) ;
#988 = DIRECTION ( 'NONE',  ( -1.000000000000000000, -0.000000000000000000, -0.000000000000000000 ) ) ;
#989 = CIRCLE ( 'NONE', #292, 4.990000000000004654 ) ;
#990 = FACE_OUTER_BOUND ( 'NONE', #607, .T. ) ;
#991 = EDGE_CURVE ( 'NONE', #965, #987, #211, .T. ) ;
#992 = CARTESIAN_POINT ( 'NONE',  ( 1.224646799147250347E-18, 0.000000000000000000, 0.000000000000000000 ) ) ;
#993 = ORIENTED_EDGE ( 'NONE', *, *, #510, .T. ) ;
#994 = CIRCLE ( 'NONE', #177, 4.990000000000000213 ) ;
#995 = PLANE ( 'NONE',  #407 ) ;
#996 = CIRCLE ( 'NONE', #93, 4.790000000000006253 ) ;
#997 = EDGE_CURVE ( 'NONE', #350, #135, #536, .T. ) ;
#998 = CARTESIAN_POINT ( 'NONE',  ( 29.50000000000000000, 0.000000000000000000, 4.790000000000005365 ) ) ;
#999 = ORIENTED_EDGE ( 'NONE', *, *, #759, .T. ) ;
#1000 = DIRECTION ( 'NONE',  ( -1.000000000000000000, -0.000000000000000000, -0.000000000000000000 ) ) ;
#1001 = CARTESIAN_POINT ( 'NONE',  ( 24.00000000000000000, 0.000000000000000000, 0.000000000000000000 ) ) ;
#1002 = CARTESIAN_POINT ( 'NONE',  ( 26.00000000000000355, 9.172604525613680109E-16, -7.490000000000003766 ) ) ;
#1003 = APPROVAL ( #323, 'UNSPECIFIED' ) ;
#1004 = EDGE_LOOP ( 'NONE', ( #205, #154 ) ) ;
#1005 = CARTESIAN_POINT ( 'NONE',  ( 14.00000000000000000, 0.000000000000000000, 0.000000000000000000 ) ) ;
#1006 = CARTESIAN_POINT ( 'NONE',  ( 1.224646799147250347E-18, 0.000000000000000000, 4.990000000000000213 ) ) ;
#1007 = PLANE ( 'NONE',  #772 ) ;
#1008 = EDGE_LOOP ( 'NONE', ( #917, #646, #285, #732, #488, #365 ) ) ;
#1009 = DIRECTION ( 'NONE',  ( -1.000000000000000000, -0.000000000000000000, -0.000000000000000000 ) ) ;
#1010 = ADVANCED_FACE ( 'NONE', ( #674 ), #450, .T. ) ;
#1011 = DIRECTION ( 'NONE',  ( 0.000000000000000000, 0.000000000000000000, 1.000000000000000000 ) ) ;
#1012 = PLANE ( 'NONE',  #786 ) ;
#1013 = AXIS2_PLACEMENT_3D ( 'NONE', #422, #735, #16 ) ;
#1014 = EDGE_LOOP ( 'NONE', ( #549, #165 ) ) ;
#1015 = DIRECTION ( 'NONE',  ( -1.000000000000000000, -0.000000000000000000, -0.000000000000000000 ) ) ;
#1016 = DIRECTION ( 'NONE',  ( -0.000000000000000000, -0.000000000000000000, 1.000000000000000000 ) ) ;
#1017 = ORIENTED_EDGE ( 'NONE', *, *, #476, .T. ) ;
#1018 = FACE_OUTER_BOUND ( 'NONE', #389, .T. ) ;
#1019 = EDGE_CURVE ( 'NONE', #318, #148, #847, .T. ) ;
#1020 = EDGE_LOOP ( 'NONE', ( #753, #84 ) ) ;
#1021 = DATE_AND_TIME ( #939, #935 ) ;
#1022 = CIRCLE ( 'NONE', #64, 7.490000000000001990 ) ;
#1023 = CARTESIAN_POINT ( 'NONE',  ( 3.000000000000000000, 0.000000000000000000, 0.000000000000000000 ) ) ;
#1024 = ADVANCED_FACE ( 'NONE', ( #201 ), #113, .T. ) ;
#1025 = ORIENTED_EDGE ( 'NONE', *, *, #923, .T. ) ;
#1026 = COORDINATED_UNIVERSAL_TIME_OFFSET ( 3, 30, .AHEAD. ) ;
#1027 = AXIS2_PLACEMENT_3D ( 'NONE', #975, #247, #170 ) ;
#1028 = AXIS2_PLACEMENT_3D ( 'NONE', #239, #12, #262 ) ;
#1029 = CARTESIAN_POINT ( 'NONE',  ( 4.000000000000000000, 0.000000000000000000, 4.790000000000001812 ) ) ;
#1030 = CYLINDRICAL_SURFACE ( 'NONE', #820, 4.990000000000004654 ) ;
#1031 = VERTEX_POINT ( 'NONE', #523 ) ;
#1032 = DATE_AND_TIME ( #313, #750 ) ;
#1033 = ADVANCED_FACE ( 'NONE', ( #295 ), #846, .F. ) ;
#1034 = CARTESIAN_POINT ( 'NONE',  ( 38.50000000000000000, 0.000000000000000000, 4.990000000000004654 ) ) ;
#1035 = ADVANCED_FACE ( 'NONE', ( #136 ), #766, .T. ) ;
#1036 = AXIS2_PLACEMENT_3D ( 'NONE', #517, #217, #834 ) ;
#1037 = DIRECTION ( 'NONE',  ( 0.000000000000000000, 0.000000000000000000, 1.000000000000000000 ) ) ;
#1038 = ORIENTED_EDGE ( 'NONE', *, *, #151, .T. ) ;
#1039 = DIRECTION ( 'NONE',  ( -1.000000000000000000, -0.000000000000000000, -0.000000000000000000 ) ) ;
#1040 = EDGE_CURVE ( 'NONE', #594, #965, #777, .T. ) ;
#1041 = CARTESIAN_POINT ( 'NONE',  ( 0.000000000000000000, 0.000000000000000000, 4.790000000000006253 ) ) ;
ENDSEC;
END-ISO-10303-21;
