ISO-10303-21;
HEADER;
FILE_DESCRIPTION (( 'STEP AP203' ),
    '1' );
FILE_NAME ('Link3LowerShaft_Default_sldprt.STEP',
    '2026-07-31T10:19:05',
    ( '' ),
    ( '' ),
    'SwSTEP 2.0',
    'SolidWorks 2025',
    '' );
FILE_SCHEMA (( 'CONFIG_CONTROL_DESIGN' ));
ENDSEC;

DATA;
#1 = EDGE_CURVE ( 'NONE', #916, #538, #58, .T. ) ;
#2 = LINE ( 'NONE', #500, #302 ) ;
#3 = CARTESIAN_POINT ( 'NONE',  ( 0.000000000000000000, 0.000000000000000000, 0.000000000000000000 ) ) ;
#4 = ADVANCED_FACE ( 'NONE', ( #1078 ), #695, .T. ) ;
#5 = ORIENTED_EDGE ( 'NONE', *, *, #720, .T. ) ;
#6 = DIRECTION ( 'NONE',  ( -1.000000000000000000, 0.000000000000000000, -0.000000000000000000 ) ) ;
#7 = CARTESIAN_POINT ( 'NONE',  ( 14.00000000000000000, 2.000000000000002665, 4.571662717217883198 ) ) ;
#8 = CARTESIAN_POINT ( 'NONE',  ( 0.000000000000000000, 5.866058167915829334E-16, -4.790000000000006253 ) ) ;
#9 = EDGE_CURVE ( 'NONE', #1050, #629, #104, .T. ) ;
#10 = AXIS2_PLACEMENT_3D ( 'NONE', #1011, #297, #390 ) ;
#11 = VECTOR ( 'NONE', #900, 1000.000000000000000 ) ;
#12 = DIRECTION ( 'NONE',  ( 0.000000000000000000, 0.000000000000000000, -1.000000000000000000 ) ) ;
#13 = CC_DESIGN_PERSON_AND_ORGANIZATION_ASSIGNMENT ( #277, #984, ( #657 ) ) ;
#14 = EDGE_CURVE ( 'NONE', #549, #535, #643, .T. ) ;
#15 = CARTESIAN_POINT ( 'NONE',  ( 30.50000000000000000, 0.000000000000000000, 0.000000000000000000 ) ) ;
#16 = CARTESIAN_POINT ( 'NONE',  ( 0.000000000000000000, 0.000000000000000000, 0.000000000000000000 ) ) ;
#17 = ORIENTED_EDGE ( 'NONE', *, *, #337, .F. ) ;
#18 = ADVANCED_FACE ( 'NONE', ( #366 ), #545, .T. ) ;
#19 = ORIENTED_EDGE ( 'NONE', *, *, #114, .F. ) ;
#20 = DIRECTION ( 'NONE',  ( -1.000000000000000000, 0.000000000000000000, 0.000000000000000000 ) ) ;
#21 = CARTESIAN_POINT ( 'NONE',  ( 29.50000000000000000, 0.000000000000000000, 0.000000000000000000 ) ) ;
#22 = DIRECTION ( 'NONE',  ( -1.000000000000000000, -0.000000000000000000, -0.000000000000000000 ) ) ;
#23 = CARTESIAN_POINT ( 'NONE',  ( 0.000000000000000000, 0.000000000000000000, 0.000000000000000000 ) ) ;
#24 = LOCAL_TIME ( 13, 49, 5.000000000000000000, #420 ) ;
#25 = PRODUCT_DEFINITION ( 'UNKNOWN', '', #657, #543 ) ;
#26 = DIRECTION ( 'NONE',  ( 0.000000000000000000, 0.000000000000000000, 1.000000000000000000 ) ) ;
#27 = AXIS2_PLACEMENT_3D ( 'NONE', #35, #616, #238 ) ;
#28 = AXIS2_PLACEMENT_3D ( 'NONE', #1147, #853, #859 ) ;
#29 = ORIENTED_EDGE ( 'NONE', *, *, #195, .F. ) ;
#30 = LINE ( 'NONE', #1098, #660 ) ;
#31 = CARTESIAN_POINT ( 'NONE',  ( 0.000000000000000000, 0.000000000000000000, 0.000000000000000000 ) ) ;
#32 = ORIENTED_EDGE ( 'NONE', *, *, #9, .T. ) ;
#33 = CARTESIAN_POINT ( 'NONE',  ( 1.224646799147250347E-18, 6.110987527745293517E-16, -4.990000000000000213 ) ) ;
#34 = PERSON_AND_ORGANIZATION ( #1106, #1051 ) ;
#35 = CARTESIAN_POINT ( 'NONE',  ( 14.00000000000000000, 0.000000000000000000, 0.000000000000000000 ) ) ;
#36 = ORIENTED_EDGE ( 'NONE', *, *, #955, .T. ) ;
#37 = VECTOR ( 'NONE', #935, 1000.000000000000000 ) ;
#38 = CARTESIAN_POINT ( 'NONE',  ( 0.000000000000000000, 5.866058167915823418E-16, -4.790000000000000924 ) ) ;
#39 = DIRECTION ( 'NONE',  ( 0.000000000000000000, 0.000000000000000000, 1.000000000000000000 ) ) ;
#40 = ORIENTED_EDGE ( 'NONE', *, *, #826, .T. ) ;
#41 = DIRECTION ( 'NONE',  ( 0.000000000000000000, 0.000000000000000000, 1.000000000000000000 ) ) ;
#42 = CIRCLE ( 'NONE', #844, 4.790000000000001812 ) ;
#43 = CIRCLE ( 'NONE', #383, 4.990000000000009095 ) ;
#44 = AXIS2_PLACEMENT_3D ( 'NONE', #596, #515, #866 ) ;
#45 = VERTEX_POINT ( 'NONE', #988 ) ;
#46 = CARTESIAN_POINT ( 'NONE',  ( 14.00000000000000000, 2.000000000000002665, -7.218039900139096687 ) ) ;
#47 = ADVANCED_FACE ( 'NONE', ( #1155 ), #523, .F. ) ;
#48 =( NAMED_UNIT ( * ) SI_UNIT ( $, .STERADIAN. ) SOLID_ANGLE_UNIT ( ) );
#49 = ORIENTED_EDGE ( 'NONE', *, *, #1159, .F. ) ;
#50 = DIRECTION ( 'NONE',  ( -0.000000000000000000, -0.000000000000000000, 1.000000000000000000 ) ) ;
#51 = EDGE_LOOP ( 'NONE', ( #460, #1067, #498, #29 ) ) ;
#52 = DIRECTION ( 'NONE',  ( 0.000000000000000000, -0.000000000000000000, -1.000000000000000000 ) ) ;
#53 = CARTESIAN_POINT ( 'NONE',  ( 14.00000000000000000, 9.172604525613678137E-16, -7.490000000000001990 ) ) ;
#54 = ADVANCED_FACE ( 'NONE', ( #181 ), #56, .F. ) ;
#55 = EDGE_LOOP ( 'NONE', ( #1134, #721 ) ) ;
#56 = PLANE ( 'NONE',  #958 ) ;
#57 = DIRECTION ( 'NONE',  ( 0.000000000000000000, 0.000000000000000000, -1.000000000000000000 ) ) ;
#58 = CIRCLE ( 'NONE', #972, 4.990000000000013536 ) ;
#59 = CYLINDRICAL_SURFACE ( 'NONE', #1127, 7.490000000000001990 ) ;
#60 = CARTESIAN_POINT ( 'NONE',  ( 38.50000000000000000, 5.866058167915829334E-16, -4.790000000000006253 ) ) ;
#61 = DIRECTION ( 'NONE',  ( 0.000000000000000000, 0.000000000000000000, 1.000000000000000000 ) ) ;
#62 = CIRCLE ( 'NONE', #811, 4.990000000000001101 ) ;
#63 = AXIS2_PLACEMENT_3D ( 'NONE', #161, #617, #1069 ) ;
#64 = ORIENTED_EDGE ( 'NONE', *, *, #918, .T. ) ;
#65 = DIRECTION ( 'NONE',  ( -1.000000000000000000, 0.000000000000000000, -0.000000000000000000 ) ) ;
#66 = CIRCLE ( 'NONE', #321, 7.490000000000001990 ) ;
#67 = CALENDAR_DATE ( 2026, 31, 7 ) ;
#68 = CARTESIAN_POINT ( 'NONE',  ( 30.50000000000000000, 0.000000000000000000, 4.790000000000006253 ) ) ;
#69 = ORIENTED_EDGE ( 'NONE', *, *, #732, .T. ) ;
#70 = ORIENTED_EDGE ( 'NONE', *, *, #568, .T. ) ;
#71 = CARTESIAN_POINT ( 'NONE',  ( 14.00000000000000000, 0.000000000000000000, 0.000000000000000000 ) ) ;
#72 = ORIENTED_EDGE ( 'NONE', *, *, #759, .F. ) ;
#73 = ADVANCED_FACE ( 'NONE', ( #251, #77 ), #1163, .F. ) ;
#74 = ORIENTED_EDGE ( 'NONE', *, *, #171, .F. ) ;
#75 = CARTESIAN_POINT ( 'NONE',  ( 0.000000000000000000, 0.000000000000000000, 0.000000000000000000 ) ) ;
#76 = ADVANCED_FACE ( 'NONE', ( #439, #995 ), #348, .F. ) ;
#77 = FACE_BOUND ( 'NONE', #504, .T. ) ;
#78 = ORIENTED_EDGE ( 'NONE', *, *, #392, .F. ) ;
#79 = DIRECTION ( 'NONE',  ( 0.000000000000000000, 0.000000000000000000, 1.000000000000000000 ) ) ;
#80 = AXIS2_PLACEMENT_3D ( 'NONE', #313, #137, #670 ) ;
#81 = AXIS2_PLACEMENT_3D ( 'NONE', #424, #239, #781 ) ;
#82 = ORIENTED_EDGE ( 'NONE', *, *, #999, .T. ) ;
#83 = CIRCLE ( 'NONE', #1113, 4.990000000000004654 ) ;
#84 = CARTESIAN_POINT ( 'NONE',  ( 29.50000000000000000, 5.866058167915828348E-16, -4.790000000000005365 ) ) ;
#85 = EDGE_LOOP ( 'NONE', ( #447, #774 ) ) ;
#86 = CARTESIAN_POINT ( 'NONE',  ( 4.000000000000000000, 0.000000000000000000, 0.000000000000000000 ) ) ;
#87 = CIRCLE ( 'NONE', #554, 4.990000000000001101 ) ;
#88 = APPROVAL_ROLE ( '' ) ;
#89 = EDGE_CURVE ( 'NONE', #612, #865, #382, .T. ) ;
#90 = EDGE_LOOP ( 'NONE', ( #359, #452 ) ) ;
#91 = CYLINDRICAL_SURFACE ( 'NONE', #553, 4.990000000000001101 ) ;
#92 = EDGE_CURVE ( 'NONE', #140, #311, #285, .T. ) ;
#93 = DIRECTION ( 'NONE',  ( -1.000000000000000000, -0.000000000000000000, -0.000000000000000000 ) ) ;
#94 = DIRECTION ( 'NONE',  ( -0.000000000000000000, -0.000000000000000000, 1.000000000000000000 ) ) ;
#95 = DIRECTION ( 'NONE',  ( -1.000000000000000000, -0.000000000000000000, -0.000000000000000000 ) ) ;
#96 = ORIENTED_EDGE ( 'NONE', *, *, #615, .F. ) ;
#97 = ORIENTED_EDGE ( 'NONE', *, *, #398, .T. ) ;
#98 = DIRECTION ( 'NONE',  ( -1.000000000000000000, -0.000000000000000000, -0.000000000000000000 ) ) ;
#99 = MANIFOLD_SOLID_BREP ( 'Cut-Extrude9', #581 ) ;
#100 = CYLINDRICAL_SURFACE ( 'NONE', #1164, 4.990000000000004654 ) ;
#101 = DIRECTION ( 'NONE',  ( -1.000000000000000000, -0.000000000000000000, -0.000000000000000000 ) ) ;
#102 = ORIENTED_EDGE ( 'NONE', *, *, #532, .F. ) ;
#103 = CARTESIAN_POINT ( 'NONE',  ( 113.3000000000000114, 2.000000000000000000, -4.571662717217892968 ) ) ;
#104 = CIRCLE ( 'NONE', #402, 4.990000000000004654 ) ;
#105 = DIRECTION ( 'NONE',  ( -1.000000000000000000, -0.000000000000000000, -0.000000000000000000 ) ) ;
#106 = DIRECTION ( 'NONE',  ( -1.000000000000000000, 0.000000000000000000, 0.000000000000000000 ) ) ;
#107 = VERTEX_POINT ( 'NONE', #1122 ) ;
#108 = ADVANCED_FACE ( 'NONE', ( #191 ), #372, .F. ) ;
#109 = VECTOR ( 'NONE', #570, 1000.000000000000000 ) ;
#110 = ORIENTED_EDGE ( 'NONE', *, *, #893, .F. ) ;
#111 = CARTESIAN_POINT ( 'NONE',  ( 0.000000000000000000, 0.000000000000000000, 0.000000000000000000 ) ) ;
#112 = CYLINDRICAL_SURFACE ( 'NONE', #414, 4.990000000000000213 ) ;
#113 = FACE_OUTER_BOUND ( 'NONE', #326, .T. ) ;
#114 = EDGE_CURVE ( 'NONE', #45, #516, #42, .T. ) ;
#115 = DIRECTION ( 'NONE',  ( 0.000000000000000000, 0.000000000000000000, 1.000000000000000000 ) ) ;
#116 = CARTESIAN_POINT ( 'NONE',  ( 4.000000000000000000, 0.000000000000000000, -4.990000000000001101 ) ) ;
#117 = EDGE_CURVE ( 'NONE', #133, #666, #2, .T. ) ;
#118 = PLANE ( 'NONE',  #1142 ) ;
#119 = EDGE_CURVE ( 'NONE', #629, #1050, #83, .T. ) ;
#120 = ORIENTED_EDGE ( 'NONE', *, *, #926, .F. ) ;
#121 = DIRECTION ( 'NONE',  ( 0.000000000000000000, 0.000000000000000000, 1.000000000000000000 ) ) ;
#122 = AXIS2_PLACEMENT_3D ( 'NONE', #1092, #645, #744 ) ;
#123 = CIRCLE ( 'NONE', #237, 7.490000000000001990 ) ;
#124 = DIRECTION ( 'NONE',  ( -0.000000000000000000, 0.000000000000000000, -1.000000000000000000 ) ) ;
#125 = ORIENTED_EDGE ( 'NONE', *, *, #878, .F. ) ;
#126 = ADVANCED_FACE ( 'NONE', ( #279 ), #100, .T. ) ;
#127 = CARTESIAN_POINT ( 'NONE',  ( 14.00000000000000000, 2.000000000000003109, -4.571662717217884087 ) ) ;
#128 = APPLICATION_PROTOCOL_DEFINITION ( 'international standard', 'config_control_design', 1994, #1090 ) ;
#129 = DIRECTION ( 'NONE',  ( 0.000000000000000000, 0.000000000000000000, 1.000000000000000000 ) ) ;
#130 = ORIENTED_EDGE ( 'NONE', *, *, #801, .T. ) ;
#131 = DIRECTION ( 'NONE',  ( 0.000000000000000000, 0.000000000000000000, 1.000000000000000000 ) ) ;
#132 = DIRECTION ( 'NONE',  ( -1.000000000000000000, -0.000000000000000000, -0.000000000000000000 ) ) ;
#133 = VERTEX_POINT ( 'NONE', #655 ) ;
#134 = CYLINDRICAL_SURFACE ( 'NONE', #698, 4.990000000000002878 ) ;
#135 = EDGE_CURVE ( 'NONE', #538, #894, #910, .T. ) ;
#136 = ORIENTED_EDGE ( 'NONE', *, *, #241, .T. ) ;
#137 = DIRECTION ( 'NONE',  ( -1.000000000000000000, -0.000000000000000000, -0.000000000000000000 ) ) ;
#138 = EDGE_CURVE ( 'NONE', #816, #541, #62, .T. ) ;
#139 = CIRCLE ( 'NONE', #957, 4.990000000000002878 ) ;
#140 = VERTEX_POINT ( 'NONE', #761 ) ;
#141 = CARTESIAN_POINT ( 'NONE',  ( 14.00000000000000000, 0.000000000000000000, 7.490000000000001990 ) ) ;
#142 = CIRCLE ( 'NONE', #459, 4.790000000000006253 ) ;
#143 = CIRCLE ( 'NONE', #848, 4.790000000000006253 ) ;
#144 = ORIENTED_EDGE ( 'NONE', *, *, #92, .T. ) ;
#145 = DIRECTION ( 'NONE',  ( -0.000000000000000000, -0.000000000000000000, 1.000000000000000000 ) ) ;
#146 = APPROVAL_STATUS ( 'not_yet_approved' ) ;
#147 = EDGE_CURVE ( 'NONE', #987, #871, #1038, .T. ) ;
#148 = FACE_OUTER_BOUND ( 'NONE', #405, .T. ) ;
#149 = ORIENTED_EDGE ( 'NONE', *, *, #826, .F. ) ;
#150 = DIRECTION ( 'NONE',  ( -1.000000000000000000, -0.000000000000000000, -0.000000000000000000 ) ) ;
#151 = DIRECTION ( 'NONE',  ( 1.000000000000000000, 0.000000000000000000, 0.000000000000000000 ) ) ;
#152 = DIRECTION ( 'NONE',  ( -1.000000000000000000, -0.000000000000000000, -0.000000000000000000 ) ) ;
#153 = MECHANICAL_CONTEXT ( 'NONE', #1090, 'mechanical' ) ;
#154 = FACE_OUTER_BOUND ( 'NONE', #323, .T. ) ;
#155 = ORIENTED_EDGE ( 'NONE', *, *, #720, .F. ) ;
#156 = VERTEX_POINT ( 'NONE', #196 ) ;
#157 = DIRECTION ( 'NONE',  ( 0.000000000000000000, 0.000000000000000000, 1.000000000000000000 ) ) ;
#158 = DIRECTION ( 'NONE',  ( 0.000000000000000000, 0.000000000000000000, 1.000000000000000000 ) ) ;
#159 = PERSON_AND_ORGANIZATION ( #1106, #1051 ) ;
#160 = DIRECTION ( 'NONE',  ( 0.000000000000000000, 0.000000000000000000, 1.000000000000000000 ) ) ;
#161 = CARTESIAN_POINT ( 'NONE',  ( 14.00000000000000000, 0.000000000000000000, 0.000000000000000000 ) ) ;
#162 = AXIS2_PLACEMENT_3D ( 'NONE', #385, #93, #1103 ) ;
#163 = AXIS2_PLACEMENT_3D ( 'NONE', #692, #1000, #370 ) ;
#164 = VERTEX_POINT ( 'NONE', #7 ) ;
#165 = VECTOR ( 'NONE', #1079, 1000.000000000000000 ) ;
#166 = ORIENTED_EDGE ( 'NONE', *, *, #89, .F. ) ;
#167 = EDGE_CURVE ( 'NONE', #342, #140, #650, .T. ) ;
#168 = DIRECTION ( 'NONE',  ( -0.000000000000000000, 0.000000000000000000, 1.000000000000000000 ) ) ;
#169 = CARTESIAN_POINT ( 'NONE',  ( 113.3000000000000114, 0.000000000000000000, 0.000000000000000000 ) ) ;
#170 = EDGE_LOOP ( 'NONE', ( #415, #82, #976, #177 ) ) ;
#171 = EDGE_CURVE ( 'NONE', #905, #342, #736, .T. ) ;
#172 = DIRECTION ( 'NONE',  ( -1.000000000000000000, -0.000000000000000000, -0.000000000000000000 ) ) ;
#173 = ORIENTED_EDGE ( 'NONE', *, *, #985, .T. ) ;
#174 = EDGE_CURVE ( 'NONE', #632, #847, #1026, .T. ) ;
#175 = CARTESIAN_POINT ( 'NONE',  ( 24.00000000000000000, 2.000000000000002665, 7.228416147400479552 ) ) ;
#176 = CARTESIAN_POINT ( 'NONE',  ( 0.000000000000000000, 2.000000000000002665, -7.218039900139096687 ) ) ;
#177 = ORIENTED_EDGE ( 'NONE', *, *, #371, .F. ) ;
#178 = CARTESIAN_POINT ( 'NONE',  ( 26.00000000000000000, 0.000000000000000000, 0.000000000000000000 ) ) ;
#179 = CARTESIAN_POINT ( 'NONE',  ( 26.00000000000000355, 0.000000000000000000, 7.490000000000002878 ) ) ;
#180 = EDGE_LOOP ( 'NONE', ( #949, #1097, #1088, #834 ) ) ;
#181 = FACE_OUTER_BOUND ( 'NONE', #885, .T. ) ;
#182 = DIRECTION ( 'NONE',  ( -1.000000000000000000, -0.000000000000000000, -0.000000000000000000 ) ) ;
#183 = ORIENTED_EDGE ( 'NONE', *, *, #462, .T. ) ;
#184 = LINE ( 'NONE', #345, #1073 ) ;
#185 = DIRECTION ( 'NONE',  ( 0.000000000000000000, 0.000000000000000000, 1.000000000000000000 ) ) ;
#186 = CIRCLE ( 'NONE', #318, 7.490000000000001990 ) ;
#187 = DIRECTION ( 'NONE',  ( 0.000000000000000000, 0.000000000000000000, 1.000000000000000000 ) ) ;
#188 = DIRECTION ( 'NONE',  ( -1.000000000000000000, -0.000000000000000000, -0.000000000000000000 ) ) ;
#189 = ORIENTED_EDGE ( 'NONE', *, *, #92, .F. ) ;
#190 = CARTESIAN_POINT ( 'NONE',  ( 14.00000000000000000, 6.110987527745294503E-16, -4.990000000000001101 ) ) ;
#191 = FACE_OUTER_BOUND ( 'NONE', #758, .T. ) ;
#192 = CARTESIAN_POINT ( 'NONE',  ( 0.000000000000000000, 0.000000000000000000, 0.000000000000000000 ) ) ;
#193 = ORIENTED_EDGE ( 'NONE', *, *, #825, .T. ) ;
#194 = LINE ( 'NONE', #927, #785 ) ;
#195 = EDGE_CURVE ( 'NONE', #45, #684, #818, .T. ) ;
#196 = CARTESIAN_POINT ( 'NONE',  ( 113.3000000000000114, 0.000000000000000000, 4.990000000000013536 ) ) ;
#197 = CARTESIAN_POINT ( 'NONE',  ( 39.50000000000000000, 0.000000000000000000, 4.790000000000005365 ) ) ;
#198 = ORIENTED_EDGE ( 'NONE', *, *, #681, .T. ) ;
#199 = CARTESIAN_POINT ( 'NONE',  ( 14.00000000000000000, -1.999999999999997335, -7.218039900139096687 ) ) ;
#200 = LOCAL_TIME ( 13, 49, 5.000000000000000000, #289 ) ;
#201 = DIRECTION ( 'NONE',  ( -0.000000000000000000, -0.000000000000000000, -1.000000000000000000 ) ) ;
#202 = CIRCLE ( 'NONE', #163, 4.990000000000013536 ) ;
#203 = LINE ( 'NONE', #576, #388 ) ;
#204 = AXIS2_PLACEMENT_3D ( 'NONE', #540, #287, #929 ) ;
#205 = CARTESIAN_POINT ( 'NONE',  ( 38.50000000000000000, 0.000000000000000000, 0.000000000000000000 ) ) ;
#206 = CC_DESIGN_PERSON_AND_ORGANIZATION_ASSIGNMENT ( #248, #856, ( #25 ) ) ;
#207 = EDGE_CURVE ( 'NONE', #583, #164, #533, .T. ) ;
#208 = CARTESIAN_POINT ( 'NONE',  ( 24.00000000000000000, 0.000000000000000000, 0.000000000000000000 ) ) ;
#209 = LINE ( 'NONE', #1117, #37 ) ;
#210 = ORIENTED_EDGE ( 'NONE', *, *, #429, .T. ) ;
#211 = EDGE_CURVE ( 'NONE', #541, #613, #767, .T. ) ;
#212 = DIRECTION ( 'NONE',  ( 0.000000000000000000, 0.000000000000000000, -1.000000000000000000 ) ) ;
#213 = EDGE_CURVE ( 'NONE', #107, #994, #471, .T. ) ;
#214 = APPLICATION_CONTEXT ( 'configuration controlled 3d designs of mechanical parts and assemblies' ) ;
#215 = LOCAL_TIME ( 13, 49, 5.000000000000000000, #526 ) ;
#216 = ORIENTED_EDGE ( 'NONE', *, *, #119, .F. ) ;
#217 = DIRECTION ( 'NONE',  ( -1.000000000000000000, -0.000000000000000000, -0.000000000000000000 ) ) ;
#218 = AXIS2_PLACEMENT_3D ( 'NONE', #923, #105, #129 ) ;
#219 = AXIS2_PLACEMENT_3D ( 'NONE', #178, #899, #158 ) ;
#220 = AXIS2_PLACEMENT_3D ( 'NONE', #780, #1138, #339 ) ;
#221 = ADVANCED_FACE ( 'NONE', ( #573 ), #112, .T. ) ;
#222 = CIRCLE ( 'NONE', #624, 7.490000000000001990 ) ;
#223 = DIRECTION ( 'NONE',  ( 0.000000000000000000, 0.000000000000000000, 1.000000000000000000 ) ) ;
#224 = VERTEX_POINT ( 'NONE', #53 ) ;
#225 = ADVANCED_FACE ( 'NONE', ( #589 ), #134, .T. ) ;
#226 = CC_DESIGN_PERSON_AND_ORGANIZATION_ASSIGNMENT ( #159, #640, ( #657 ) ) ;
#227 = CARTESIAN_POINT ( 'NONE',  ( 14.00000000000000000, 2.000000000000002665, 7.228416147400479552 ) ) ;
#228 = EDGE_CURVE ( 'NONE', #694, #816, #979, .T. ) ;
#229 = DIRECTION ( 'NONE',  ( 0.000000000000000000, 0.000000000000000000, 1.000000000000000000 ) ) ;
#230 = EDGE_LOOP ( 'NONE', ( #1034, #438, #717, #412, #779, #901 ) ) ;
#231 = DIRECTION ( 'NONE',  ( 0.000000000000000000, 0.000000000000000000, -1.000000000000000000 ) ) ;
#232 = CARTESIAN_POINT ( 'NONE',  ( 14.00000000000000000, 0.000000000000000000, -7.490000000000001990 ) ) ;
#233 = EDGE_LOOP ( 'NONE', ( #982, #960 ) ) ;
#234 = CARTESIAN_POINT ( 'NONE',  ( 0.000000000000000000, 0.000000000000000000, 0.000000000000000000 ) ) ;
#235 = ORIENTED_EDGE ( 'NONE', *, *, #955, .F. ) ;
#236 = PLANE ( 'NONE',  #1110 ) ;
#237 = AXIS2_PLACEMENT_3D ( 'NONE', #547, #381, #79 ) ;
#238 = DIRECTION ( 'NONE',  ( 0.000000000000000000, 0.000000000000000000, 1.000000000000000000 ) ) ;
#239 = DIRECTION ( 'NONE',  ( -1.000000000000000000, -0.000000000000000000, -0.000000000000000000 ) ) ;
#240 = APPROVAL_PERSON_ORGANIZATION ( #962, #1001, #1094 ) ;
#241 = EDGE_CURVE ( 'NONE', #641, #1160, #696, .T. ) ;
#242 = CIRCLE ( 'NONE', #1115, 4.790000000000001812 ) ;
#243 = AXIS2_PLACEMENT_3D ( 'NONE', #192, #646, #484 ) ;
#244 = EDGE_LOOP ( 'NONE', ( #473, #809, #587, #879 ) ) ;
#245 = CARTESIAN_POINT ( 'NONE',  ( 0.000000000000000000, 0.000000000000000000, 0.000000000000000000 ) ) ;
#246 = ADVANCED_FACE ( 'NONE', ( #784, #1063 ), #428, .F. ) ;
#247 = CARTESIAN_POINT ( 'NONE',  ( 39.50000000000000711, 0.000000000000000000, 4.990000000000004654 ) ) ;
#248 = PERSON_AND_ORGANIZATION ( #1106, #1051 ) ;
#249 = DIRECTION ( 'NONE',  ( 1.000000000000000000, 0.000000000000000000, 0.000000000000000000 ) ) ;
#250 = ORIENTED_EDGE ( 'NONE', *, *, #1131, .F. ) ;
#251 = FACE_OUTER_BOUND ( 'NONE', #85, .T. ) ;
#252 = FACE_OUTER_BOUND ( 'NONE', #55, .T. ) ;
#253 = CARTESIAN_POINT ( 'NONE',  ( 14.00000000000000000, -1.999999999999997335, 7.218039900139097576 ) ) ;
#254 = FACE_OUTER_BOUND ( 'NONE', #938, .T. ) ;
#255 = EDGE_CURVE ( 'NONE', #368, #546, #333, .T. ) ;
#256 = EDGE_LOOP ( 'NONE', ( #1170, #599 ) ) ;
#257 = ORIENTED_EDGE ( 'NONE', *, *, #770, .F. ) ;
#258 = VERTEX_POINT ( 'NONE', #141 ) ;
#259 = FACE_OUTER_BOUND ( 'NONE', #636, .T. ) ;
#260 = ORIENTED_EDGE ( 'NONE', *, *, #509, .F. ) ;
#261 = CARTESIAN_POINT ( 'NONE',  ( 0.000000000000000000, 2.000000000000000000, -4.571662717217892968 ) ) ;
#262 = ADVANCED_FACE ( 'NONE', ( #410 ), #678, .T. ) ;
#263 = VECTOR ( 'NONE', #827, 1000.000000000000000 ) ;
#264 = ORIENTED_EDGE ( 'NONE', *, *, #167, .T. ) ;
#265 = DIRECTION ( 'NONE',  ( 0.000000000000000000, 0.000000000000000000, 1.000000000000000000 ) ) ;
#266 = VECTOR ( 'NONE', #588, 1000.000000000000000 ) ;
#267 = DIRECTION ( 'NONE',  ( -0.000000000000000000, -0.000000000000000000, 1.000000000000000000 ) ) ;
#268 = ORIENTED_EDGE ( 'NONE', *, *, #753, .F. ) ;
#269 = ADVANCED_FACE ( 'NONE', ( #686 ), #346, .T. ) ;
#270 = PLANE ( 'NONE',  #63 ) ;
#271 = EDGE_CURVE ( 'NONE', #822, #258, #765, .T. ) ;
#272 = ORIENTED_EDGE ( 'NONE', *, *, #753, .T. ) ;
#273 = CARTESIAN_POINT ( 'NONE',  ( 26.00000000000000355, 0.000000000000000000, -4.990000000000003766 ) ) ;
#274 = CARTESIAN_POINT ( 'NONE',  ( 103.3000000000000114, -2.000000000000000000, 4.571662717217892968 ) ) ;
#275 = VERTEX_POINT ( 'NONE', #253 ) ;
#276 = DIRECTION ( 'NONE',  ( 1.000000000000000000, 0.000000000000000000, 0.000000000000000000 ) ) ;
#277 = PERSON_AND_ORGANIZATION ( #1106, #1051 ) ;
#278 = CARTESIAN_POINT ( 'NONE',  ( 113.3000000000000114, -2.000000000000000000, 4.582575694955839829 ) ) ;
#279 = FACE_OUTER_BOUND ( 'NONE', #625, .T. ) ;
#280 = CYLINDRICAL_SURFACE ( 'NONE', #740, 4.790000000000000924 ) ;
#281 = ORIENTED_EDGE ( 'NONE', *, *, #726, .T. ) ;
#282 = CARTESIAN_POINT ( 'NONE',  ( 26.00000000000000355, 0.000000000000000000, 0.000000000000000000 ) ) ;
#283 = CARTESIAN_POINT ( 'NONE',  ( 0.000000000000000000, 6.110987527745294503E-16, -4.990000000000001101 ) ) ;
#284 = AXIS2_PLACEMENT_3D ( 'NONE', #931, #489, #757 ) ;
#285 = CIRCLE ( 'NONE', #162, 4.990000000000003766 ) ;
#286 = CIRCLE ( 'NONE', #219, 4.990000000000003766 ) ;
#287 = DIRECTION ( 'NONE',  ( -1.000000000000000000, -0.000000000000000000, -0.000000000000000000 ) ) ;
#288 = DIRECTION ( 'NONE',  ( -1.000000000000000000, -0.000000000000000000, -0.000000000000000000 ) ) ;
#289 = COORDINATED_UNIVERSAL_TIME_OFFSET ( 3, 30, .AHEAD. ) ;
#290 = ORIENTED_EDGE ( 'NONE', *, *, #1024, .F. ) ;
#291 = DIRECTION ( 'NONE',  ( -0.000000000000000000, -0.000000000000000000, 1.000000000000000000 ) ) ;
#292 = DIRECTION ( 'NONE',  ( 0.000000000000000000, 1.000000000000000000, 0.000000000000000000 ) ) ;
#293 = CYLINDRICAL_SURFACE ( 'NONE', #243, 4.790000000000006253 ) ;
#294 = ORIENTED_EDGE ( 'NONE', *, *, #939, .T. ) ;
#295 = LINE ( 'NONE', #299, #109 ) ;
#296 = ADVANCED_FACE ( 'NONE', ( #703 ), #775, .F. ) ;
#297 = DIRECTION ( 'NONE',  ( -1.000000000000000000, -0.000000000000000000, -0.000000000000000000 ) ) ;
#298 = DIRECTION ( 'NONE',  ( -1.000000000000000000, -0.000000000000000000, -0.000000000000000000 ) ) ;
#299 = CARTESIAN_POINT ( 'NONE',  ( 14.00000000000000000, -1.999999999999997335, 7.228416147400479552 ) ) ;
#300 = ADVANCED_FACE ( 'NONE', ( #1133 ), #1143, .F. ) ;
#301 = CARTESIAN_POINT ( 'NONE',  ( 14.00000000000000000, -1.999999999999997335, -4.571662717217885863 ) ) ;
#302 = VECTOR ( 'NONE', #1084, 1000.000000000000000 ) ;
#303 = CIRCLE ( 'NONE', #806, 4.990000000000009095 ) ;
#304 = AXIS2_PLACEMENT_3D ( 'NONE', #169, #1085, #1151 ) ;
#305 = CARTESIAN_POINT ( 'NONE',  ( 113.3000000000000114, 0.000000000000000000, 0.000000000000000000 ) ) ;
#306 = CIRCLE ( 'NONE', #404, 4.790000000000005365 ) ;
#307 = ADVANCED_FACE ( 'NONE', ( #154 ), #423, .F. ) ;
#308 = ORIENTED_EDGE ( 'NONE', *, *, #681, .F. ) ;
#309 = CARTESIAN_POINT ( 'NONE',  ( 29.50000000000000000, 0.000000000000000000, 4.990000000000002878 ) ) ;
#310 = CARTESIAN_POINT ( 'NONE',  ( 3.000000000000000000, 0.000000000000000000, 0.000000000000000000 ) ) ;
#311 = VERTEX_POINT ( 'NONE', #691 ) ;
#312 = CARTESIAN_POINT ( 'NONE',  ( 103.3000000000000114, 2.000000000000000000, -4.582575694955840717 ) ) ;
#313 = CARTESIAN_POINT ( 'NONE',  ( 0.000000000000000000, 0.000000000000000000, 0.000000000000000000 ) ) ;
#314 = DIRECTION ( 'NONE',  ( 0.000000000000000000, 0.000000000000000000, 1.000000000000000000 ) ) ;
#315 = ORIENTED_EDGE ( 'NONE', *, *, #521, .T. ) ;
#316 = DIRECTION ( 'NONE',  ( 0.000000000000000000, 0.000000000000000000, 1.000000000000000000 ) ) ;
#317 = AXIS2_PLACEMENT_3D ( 'NONE', #273, #65, #634 ) ;
#318 = AXIS2_PLACEMENT_3D ( 'NONE', #1177, #456, #376 ) ;
#319 = DIRECTION ( 'NONE',  ( 0.000000000000000000, 0.000000000000000000, 1.000000000000000000 ) ) ;
#320 = CIRCLE ( 'NONE', #1167, 4.990000000000000213 ) ;
#321 = AXIS2_PLACEMENT_3D ( 'NONE', #208, #106, #1021 ) ;
#322 = CARTESIAN_POINT ( 'NONE',  ( 0.000000000000000000, 0.000000000000000000, 7.490000000000001990 ) ) ;
#323 = EDGE_LOOP ( 'NONE', ( #1101, #1075 ) ) ;
#324 = CARTESIAN_POINT ( 'NONE',  ( 0.000000000000000000, 0.000000000000000000, 0.000000000000000000 ) ) ;
#325 = DATE_AND_TIME ( #1136, #24 ) ;
#326 = EDGE_LOOP ( 'NONE', ( #347, #380, #551, #724 ) ) ;
#327 = CARTESIAN_POINT ( 'NONE',  ( 24.00000000000000000, 2.000000000000002665, 7.228416147400479552 ) ) ;
#328 = ORIENTED_EDGE ( 'NONE', *, *, #485, .T. ) ;
#329 = DIRECTION ( 'NONE',  ( 0.000000000000000000, 0.000000000000000000, 1.000000000000000000 ) ) ;
#330 = FACE_OUTER_BOUND ( 'NONE', #548, .T. ) ;
#331 = CC_DESIGN_PERSON_AND_ORGANIZATION_ASSIGNMENT ( #773, #427, ( #490 ) ) ;
#332 = VERTEX_POINT ( 'NONE', #699 ) ;
#333 = LINE ( 'NONE', #327, #1126 ) ;
#334 = ADVANCED_FACE ( 'NONE', ( #148 ), #870, .T. ) ;
#335 = EDGE_LOOP ( 'NONE', ( #422, #431 ) ) ;
#336 = DIRECTION ( 'NONE',  ( -1.000000000000000000, -0.000000000000000000, -0.000000000000000000 ) ) ;
#337 = EDGE_CURVE ( 'NONE', #613, #583, #87, .T. ) ;
#338 = DIRECTION ( 'NONE',  ( 0.000000000000000000, 0.000000000000000000, 1.000000000000000000 ) ) ;
#339 = DIRECTION ( 'NONE',  ( 0.000000000000000000, 0.000000000000000000, 1.000000000000000000 ) ) ;
#340 = VECTOR ( 'NONE', #1074, 1000.000000000000000 ) ;
#341 = AXIS2_PLACEMENT_3D ( 'NONE', #873, #614, #57 ) ;
#342 = VERTEX_POINT ( 'NONE', #309 ) ;
#343 = ORIENTED_EDGE ( 'NONE', *, *, #732, .F. ) ;
#344 = LINE ( 'NONE', #176, #165 ) ;
#345 = CARTESIAN_POINT ( 'NONE',  ( 0.000000000000000000, -1.999999999999997335, -7.218039900139097576 ) ) ;
#346 = CYLINDRICAL_SURFACE ( 'NONE', #603, 4.990000000000009095 ) ;
#347 = ORIENTED_EDGE ( 'NONE', *, *, #999, .F. ) ;
#348 = PLANE ( 'NONE',  #458 ) ;
#349 = DIRECTION ( 'NONE',  ( -1.000000000000000000, -0.000000000000000000, -0.000000000000000000 ) ) ;
#350 = EDGE_CURVE ( 'NONE', #546, #605, #517, .T. ) ;
#351 = EDGE_LOOP ( 'NONE', ( #501, #149, #567, #268 ) ) ;
#352 = DIRECTION ( 'NONE',  ( -1.000000000000000000, -0.000000000000000000, -0.000000000000000000 ) ) ;
#353 = CC_DESIGN_DATE_AND_TIME_ASSIGNMENT ( #325, #602, ( #25 ) ) ;
#354 = ORIENTED_EDGE ( 'NONE', *, *, #846, .T. ) ;
#355 = DIRECTION ( 'NONE',  ( 0.000000000000000000, 0.000000000000000000, -1.000000000000000000 ) ) ;
#356 = ORIENTED_EDGE ( 'NONE', *, *, #1006, .F. ) ;
#357 = CC_DESIGN_APPROVAL ( #631, ( #716 ) ) ;
#358 = ADVANCED_FACE ( 'NONE', ( #795 ), #897, .T. ) ;
#359 = ORIENTED_EDGE ( 'NONE', *, *, #843, .T. ) ;
#360 = CARTESIAN_POINT ( 'NONE',  ( 29.50000000000000000, 6.110987527745296475E-16, -4.990000000000002878 ) ) ;
#361 = VECTOR ( 'NONE', #172, 1000.000000000000000 ) ;
#362 = AXIS2_PLACEMENT_3D ( 'NONE', #942, #837, #565 ) ;
#363 = AXIS2_PLACEMENT_3D ( 'NONE', #839, #22, #751 ) ;
#364 = VECTOR ( 'NONE', #267, 1000.000000000000000 ) ;
#365 = ORIENTED_EDGE ( 'NONE', *, *, #850, .F. ) ;
#366 = FACE_OUTER_BOUND ( 'NONE', #857, .T. ) ;
#367 = LINE ( 'NONE', #461, #495 ) ;
#368 = VERTEX_POINT ( 'NONE', #904 ) ;
#369 = DIRECTION ( 'NONE',  ( -1.000000000000000000, -0.000000000000000000, -0.000000000000000000 ) ) ;
#370 = DIRECTION ( 'NONE',  ( 0.000000000000000000, 0.000000000000000000, 1.000000000000000000 ) ) ;
#371 = EDGE_CURVE ( 'NONE', #1153, #595, #635, .T. ) ;
#372 = PLANE ( 'NONE',  #830 ) ;
#373 = LINE ( 'NONE', #745, #755 ) ;
#374 = EDGE_LOOP ( 'NONE', ( #102, #898, #454, #356, #794, #130, #727, #446 ) ) ;
#375 = VERTEX_POINT ( 'NONE', #981 ) ;
#376 = DIRECTION ( 'NONE',  ( 0.000000000000000000, 0.000000000000000000, 1.000000000000000000 ) ) ;
#377 = CARTESIAN_POINT ( 'NONE',  ( 0.000000000000000000, -2.000000000000000000, -4.571662717217892968 ) ) ;
#378 = DIRECTION ( 'NONE',  ( 0.000000000000000000, 0.000000000000000000, 1.000000000000000000 ) ) ;
#379 = EDGE_LOOP ( 'NONE', ( #1107, #890, #674, #863, #563, #653 ) ) ;
#380 = ORIENTED_EDGE ( 'NONE', *, *, #455, .T. ) ;
#381 = DIRECTION ( 'NONE',  ( -1.000000000000000000, -0.000000000000000000, -0.000000000000000000 ) ) ;
#382 = CIRCLE ( 'NONE', #204, 4.990000000000004654 ) ;
#383 = AXIS2_PLACEMENT_3D ( 'NONE', #502, #592, #630 ) ;
#384 = EDGE_CURVE ( 'NONE', #687, #224, #675, .T. ) ;
#385 = CARTESIAN_POINT ( 'NONE',  ( 26.00000000000000000, 0.000000000000000000, 0.000000000000000000 ) ) ;
#386 = AXIS2_PLACEMENT_3D ( 'NONE', #1059, #249, #611 ) ;
#387 = DIRECTION ( 'NONE',  ( 0.000000000000000000, 0.000000000000000000, 1.000000000000000000 ) ) ;
#388 = VECTOR ( 'NONE', #920, 1000.000000000000000 ) ;
#389 = CARTESIAN_POINT ( 'NONE',  ( 29.50000000000000000, 0.000000000000000000, 4.790000000000005365 ) ) ;
#390 = DIRECTION ( 'NONE',  ( 0.000000000000000000, 0.000000000000000000, 1.000000000000000000 ) ) ;
#391 = FACE_OUTER_BOUND ( 'NONE', #244, .T. ) ;
#392 = EDGE_CURVE ( 'NONE', #687, #368, #344, .T. ) ;
#393 = ORIENTED_EDGE ( 'NONE', *, *, #445, .T. ) ;
#394 = LINE ( 'NONE', #664, #572 ) ;
#395 = EDGE_CURVE ( 'NONE', #156, #107, #832, .T. ) ;
#396 = DIRECTION ( 'NONE',  ( 0.000000000000000000, 0.000000000000000000, -1.000000000000000000 ) ) ;
#397 = DIRECTION ( 'NONE',  ( 0.000000000000000000, 0.000000000000000000, -1.000000000000000000 ) ) ;
#398 = EDGE_CURVE ( 'NONE', #865, #871, #607, .T. ) ;
#399 = VECTOR ( 'NONE', #658, 1000.000000000000000 ) ;
#400 = AXIS2_PLACEMENT_3D ( 'NONE', #908, #6, #974 ) ;
#401 = CARTESIAN_POINT ( 'NONE',  ( 0.000000000000000000, 0.000000000000000000, 0.000000000000000000 ) ) ;
#402 = AXIS2_PLACEMENT_3D ( 'NONE', #1072, #150, #872 ) ;
#403 = DIRECTION ( 'NONE',  ( -1.000000000000000000, -0.000000000000000000, -0.000000000000000000 ) ) ;
#404 = AXIS2_PLACEMENT_3D ( 'NONE', #21, #298, #651 ) ;
#405 = EDGE_LOOP ( 'NONE', ( #5, #1086 ) ) ;
#406 = FACE_OUTER_BOUND ( 'NONE', #700, .T. ) ;
#407 = DIRECTION ( 'NONE',  ( 0.000000000000000000, 0.000000000000000000, 1.000000000000000000 ) ) ;
#408 = EDGE_LOOP ( 'NONE', ( #591, #32 ) ) ;
#409 = PLANE ( 'NONE',  #737 ) ;
#410 = FACE_OUTER_BOUND ( 'NONE', #180, .T. ) ;
#411 = LOCAL_TIME ( 13, 49, 5.000000000000000000, #1158 ) ;
#412 = ORIENTED_EDGE ( 'NONE', *, *, #869, .F. ) ;
#413 = CYLINDRICAL_SURFACE ( 'NONE', #584, 4.990000000000009095 ) ;
#414 = AXIS2_PLACEMENT_3D ( 'NONE', #234, #954, #41 ) ;
#415 = ORIENTED_EDGE ( 'NONE', *, *, #956, .T. ) ;
#416 = DIRECTION ( 'NONE',  ( -1.000000000000000000, -0.000000000000000000, -0.000000000000000000 ) ) ;
#417 = VERTEX_POINT ( 'NONE', #1062 ) ;
#418 = ADVANCED_FACE ( 'NONE', ( #252 ), #621, .F. ) ;
#419 = CARTESIAN_POINT ( 'NONE',  ( 14.00000000000000000, 2.000000000000002665, 7.218039900139096687 ) ) ;
#420 = COORDINATED_UNIVERSAL_TIME_OFFSET ( 3, 30, .AHEAD. ) ;
#421 = ADVANCED_FACE ( 'NONE', ( #702, #259 ), #453, .F. ) ;
#422 = ORIENTED_EDGE ( 'NONE', *, *, #255, .T. ) ;
#423 = PLANE ( 'NONE',  #220 ) ;
#424 = CARTESIAN_POINT ( 'NONE',  ( 3.000000000000000000, 0.000000000000000000, 0.000000000000000000 ) ) ;
#425 = VERTEX_POINT ( 'NONE', #84 ) ;
#426 = DIRECTION ( 'NONE',  ( 0.000000000000000000, -1.000000000000000000, 0.000000000000000000 ) ) ;
#427 = PERSON_AND_ORGANIZATION_ROLE ( 'design_owner' ) ;
#428 = PLANE ( 'NONE',  #1144 ) ;
#429 = EDGE_CURVE ( 'NONE', #164, #605, #723, .T. ) ;
#430 = ORIENTED_EDGE ( 'NONE', *, *, #228, .F. ) ;
#431 = ORIENTED_EDGE ( 'NONE', *, *, #975, .F. ) ;
#432 = CIRCLE ( 'NONE', #959, 4.790000000000005365 ) ;
#433 = CARTESIAN_POINT ( 'NONE',  ( 0.000000000000000000, 0.000000000000000000, 4.990000000000000213 ) ) ;
#434 = CARTESIAN_POINT ( 'NONE',  ( 0.000000000000000000, 0.000000000000000000, 0.000000000000000000 ) ) ;
#435 = CIRCLE ( 'NONE', #831, 4.790000000000005365 ) ;
#436 = DIRECTION ( 'NONE',  ( 0.000000000000000000, 0.000000000000000000, 1.000000000000000000 ) ) ;
#437 = VECTOR ( 'NONE', #145, 1000.000000000000000 ) ;
#438 = ORIENTED_EDGE ( 'NONE', *, *, #893, .T. ) ;
#439 = FACE_OUTER_BOUND ( 'NONE', #1045, .T. ) ;
#440 = CARTESIAN_POINT ( 'NONE',  ( 3.000000000000000000, 0.000000000000000000, 0.000000000000000000 ) ) ;
#441 = DATE_AND_TIME ( #67, #1002 ) ;
#442 = ORIENTED_EDGE ( 'NONE', *, *, #392, .T. ) ;
#443 = CARTESIAN_POINT ( 'NONE',  ( 0.000000000000000000, 0.000000000000000000, 4.990000000000001101 ) ) ;
#444 = EDGE_CURVE ( 'NONE', #164, #694, #513, .T. ) ;
#445 = EDGE_CURVE ( 'NONE', #549, #641, #367, .T. ) ;
#446 = ORIENTED_EDGE ( 'NONE', *, *, #9, .F. ) ;
#447 = ORIENTED_EDGE ( 'NONE', *, *, #726, .F. ) ;
#448 = EDGE_LOOP ( 'NONE', ( #1162, #166 ) ) ;
#449 = ORIENTED_EDGE ( 'NONE', *, *, #521, .F. ) ;
#450 = DIRECTION ( 'NONE',  ( 0.000000000000000000, 0.000000000000000000, 1.000000000000000000 ) ) ;
#451 = VERTEX_POINT ( 'NONE', #274 ) ;
#452 = ORIENTED_EDGE ( 'NONE', *, *, #770, .T. ) ;
#453 = PLANE ( 'NONE',  #1076 ) ;
#454 = ORIENTED_EDGE ( 'NONE', *, *, #135, .T. ) ;
#455 = EDGE_CURVE ( 'NONE', #332, #1153, #320, .T. ) ;
#456 = DIRECTION ( 'NONE',  ( -1.000000000000000000, -0.000000000000000000, -0.000000000000000000 ) ) ;
#457 = VECTOR ( 'NONE', #98, 1000.000000000000000 ) ;
#458 = AXIS2_PLACEMENT_3D ( 'NONE', #620, #978, #168 ) ;
#459 = AXIS2_PLACEMENT_3D ( 'NONE', #1100, #656, #911 ) ;
#460 = ORIENTED_EDGE ( 'NONE', *, *, #114, .T. ) ;
#461 = CARTESIAN_POINT ( 'NONE',  ( 0.000000000000000000, 0.000000000000000000, 4.790000000000006253 ) ) ;
#462 = EDGE_CURVE ( 'NONE', #687, #694, #373, .T. ) ;
#463 = CARTESIAN_POINT ( 'NONE',  ( 0.000000000000000000, -1.999999999999997335, 7.218039900139097576 ) ) ;
#464 = ORIENTED_EDGE ( 'NONE', *, *, #384, .F. ) ;
#465 = EDGE_LOOP ( 'NONE', ( #708, #668, #1017, #260 ) ) ;
#466 = CARTESIAN_POINT ( 'NONE',  ( 1.224646799147250347E-18, 0.000000000000000000, 0.000000000000000000 ) ) ;
#467 = DIRECTION ( 'NONE',  ( -1.000000000000000000, -0.000000000000000000, -0.000000000000000000 ) ) ;
#468 = FACE_OUTER_BOUND ( 'NONE', #1043, .T. ) ;
#469 = ORIENTED_EDGE ( 'NONE', *, *, #926, .T. ) ;
#470 = CARTESIAN_POINT ( 'NONE',  ( 113.3000000000000114, 6.110987527745310280E-16, -4.990000000000013536 ) ) ;
#471 = LINE ( 'NONE', #1020, #906 ) ;
#472 = FACE_OUTER_BOUND ( 'NONE', #465, .T. ) ;
#473 = ORIENTED_EDGE ( 'NONE', *, *, #14, .T. ) ;
#474 = CYLINDRICAL_SURFACE ( 'NONE', #512, 4.990000000000002878 ) ;
#475 = AXIS2_PLACEMENT_3D ( 'NONE', #705, #627, #1146 ) ;
#476 = DIRECTION ( 'NONE',  ( -1.000000000000000000, -0.000000000000000000, -0.000000000000000000 ) ) ;
#477 = EDGE_CURVE ( 'NONE', #847, #632, #142, .T. ) ;
#478 = CARTESIAN_POINT ( 'NONE',  ( 38.50000000000000000, 0.000000000000000000, 0.000000000000000000 ) ) ;
#479 = AXIS2_PLACEMENT_3D ( 'NONE', #16, #1093, #838 ) ;
#480 = ORIENTED_EDGE ( 'NONE', *, *, #89, .T. ) ;
#481 = CARTESIAN_POINT ( 'NONE',  ( 24.00000000000000000, -1.999999999999997335, 7.218039900139097576 ) ) ;
#482 = CC_DESIGN_DATE_AND_TIME_ASSIGNMENT ( #820, #1087, ( #716 ) ) ;
#483 = DIRECTION ( 'NONE',  ( 0.000000000000000000, -0.000000000000000000, 1.000000000000000000 ) ) ;
#484 = DIRECTION ( 'NONE',  ( 0.000000000000000000, 0.000000000000000000, 1.000000000000000000 ) ) ;
#485 = EDGE_CURVE ( 'NONE', #516, #45, #242, .T. ) ;
#486 = DIRECTION ( 'NONE',  ( 1.000000000000000000, 0.000000000000000000, -0.000000000000000000 ) ) ;
#487 = ADVANCED_FACE ( 'NONE', ( #472 ), #293, .T. ) ;
#488 = LINE ( 'NONE', #756, #961 ) ;
#489 = DIRECTION ( 'NONE',  ( -1.000000000000000000, -0.000000000000000000, -0.000000000000000000 ) ) ;
#490 = PRODUCT ( 'Link3LowerShaft_Default_sldprt', 'Link3LowerShaft_Default_sldprt', '', ( #153 ) ) ;
#491 = AXIS2_PLACEMENT_3D ( 'NONE', #205, #403, #115 ) ;
#492 = AXIS2_PLACEMENT_3D ( 'NONE', #1125, #963, #61 ) ;
#493 = CIRCLE ( 'NONE', #1023, 4.990000000000001101 ) ;
#494 = ORIENTED_EDGE ( 'NONE', *, *, #610, .F. ) ;
#495 = VECTOR ( 'NONE', #881, 1000.000000000000000 ) ;
#496 = CARTESIAN_POINT ( 'NONE',  ( 39.50000000000000711, 6.110987527745302392E-16, -4.990000000000004654 ) ) ;
#497 = VECTOR ( 'NONE', #585, 1000.000000000000000 ) ;
#498 = ORIENTED_EDGE ( 'NONE', *, *, #843, .F. ) ;
#499 = CARTESIAN_POINT ( 'NONE',  ( 1.224646799147250347E-18, 0.000000000000000000, 0.000000000000000000 ) ) ;
#500 = CARTESIAN_POINT ( 'NONE',  ( 103.3000000000000114, 2.000000000000000000, -4.582575694955840717 ) ) ;
#501 = ORIENTED_EDGE ( 'NONE', *, *, #213, .T. ) ;
#502 = CARTESIAN_POINT ( 'NONE',  ( 103.3000000000000114, 0.000000000000000000, 0.000000000000000000 ) ) ;
#503 = APPROVAL_DATE_TIME ( #941, #506 ) ;
#504 = EDGE_LOOP ( 'NONE', ( #144, #782 ) ) ;
#505 = CARTESIAN_POINT ( 'NONE',  ( 0.000000000000000000, 0.000000000000000000, 0.000000000000000000 ) ) ;
#506 = APPROVAL ( #146, 'UNSPECIFIED' ) ;
#507 = ADVANCED_FACE ( 'NONE', ( #562 ), #280, .T. ) ;
#508 = ORIENTED_EDGE ( 'NONE', *, *, #138, .F. ) ;
#509 = EDGE_CURVE ( 'NONE', #425, #1013, #306, .T. ) ;
#510 = DIRECTION ( 'NONE',  ( -1.000000000000000000, -0.000000000000000000, -0.000000000000000000 ) ) ;
#511 = AXIS2_PLACEMENT_3D ( 'NONE', #709, #530, #1149 ) ;
#512 = AXIS2_PLACEMENT_3D ( 'NONE', #111, #842, #829 ) ;
#513 = CIRCLE ( 'NONE', #1007, 4.990000000000001101 ) ;
#514 = ORIENTED_EDGE ( 'NONE', *, *, #135, .F. ) ;
#515 = DIRECTION ( 'NONE',  ( 1.000000000000000000, 0.000000000000000000, 0.000000000000000000 ) ) ;
#516 = VERTEX_POINT ( 'NONE', #1004 ) ;
#517 = LINE ( 'NONE', #550, #340 ) ;
#518 = FACE_OUTER_BOUND ( 'NONE', #374, .T. ) ;
#519 = APPROVAL_STATUS ( 'not_yet_approved' ) ;
#520 = DIRECTION ( 'NONE',  ( -1.000000000000000000, -0.000000000000000000, -0.000000000000000000 ) ) ;
#521 = EDGE_CURVE ( 'NONE', #375, #1039, #66, .T. ) ;
#522 = ORIENTED_EDGE ( 'NONE', *, *, #255, .F. ) ;
#523 = PLANE ( 'NONE',  #511 ) ;
#524 = CARTESIAN_POINT ( 'NONE',  ( 0.000000000000000000, 0.000000000000000000, 4.990000000000004654 ) ) ;
#525 = LINE ( 'NONE', #227, #266 ) ;
#526 = COORDINATED_UNIVERSAL_TIME_OFFSET ( 3, 30, .AHEAD. ) ;
#527 = CARTESIAN_POINT ( 'NONE',  ( 14.00000000000000000, 0.000000000000000000, 0.000000000000000000 ) ) ;
#528 = EDGE_CURVE ( 'NONE', #535, #1160, #1105, .T. ) ;
#529 = ORIENTED_EDGE ( 'NONE', *, *, #647, .T. ) ;
#530 = DIRECTION ( 'NONE',  ( -0.000000000000000000, 1.000000000000000000, 0.000000000000000000 ) ) ;
#531 = PERSON_AND_ORGANIZATION ( #1106, #1051 ) ;
#532 = EDGE_CURVE ( 'NONE', #916, #1050, #203, .T. ) ;
#533 = CIRCLE ( 'NONE', #122, 4.990000000000001101 ) ;
#534 = AXIS2_PLACEMENT_3D ( 'NONE', #282, #349, #558 ) ;
#535 = VERTEX_POINT ( 'NONE', #574 ) ;
#536 = CARTESIAN_POINT ( 'NONE',  ( 4.000000000000000000, 6.110987527745294503E-16, -4.990000000000001101 ) ) ;
#537 = CIRCLE ( 'NONE', #771, 4.990000000000001101 ) ;
#538 = VERTEX_POINT ( 'NONE', #742 ) ;
#539 = ORIENTED_EDGE ( 'NONE', *, *, #663, .T. ) ;
#540 = CARTESIAN_POINT ( 'NONE',  ( 38.50000000000000000, 0.000000000000000000, 0.000000000000000000 ) ) ;
#541 = VERTEX_POINT ( 'NONE', #301 ) ;
#542 = FACE_OUTER_BOUND ( 'NONE', #448, .T. ) ;
#543 = DESIGN_CONTEXT ( 'detailed design', #214, 'design' ) ;
#544 = EDGE_LOOP ( 'NONE', ( #469, #64, #606, #704, #17, #290 ) ) ;
#545 = CYLINDRICAL_SURFACE ( 'NONE', #475, 4.990000000000004654 ) ;
#546 = VERTEX_POINT ( 'NONE', #1016 ) ;
#547 = CARTESIAN_POINT ( 'NONE',  ( 14.00000000000000000, 0.000000000000000000, 0.000000000000000000 ) ) ;
#548 = EDGE_LOOP ( 'NONE', ( #110, #877, #977, #1055, #746, #1145 ) ) ;
#549 = VERTEX_POINT ( 'NONE', #197 ) ;
#550 = CARTESIAN_POINT ( 'NONE',  ( 0.000000000000000000, 2.000000000000002665, 7.218039900139096687 ) ) ;
#551 = ORIENTED_EDGE ( 'NONE', *, *, #371, .T. ) ;
#552 = DIRECTION ( 'NONE',  ( 0.000000000000000000, 0.000000000000000000, 1.000000000000000000 ) ) ;
#553 = AXIS2_PLACEMENT_3D ( 'NONE', #75, #1152, #450 ) ;
#554 = AXIS2_PLACEMENT_3D ( 'NONE', #527, #876, #436 ) ;
#555 = DIRECTION ( 'NONE',  ( 0.000000000000000000, 0.000000000000000000, 1.000000000000000000 ) ) ;
#556 = VECTOR ( 'NONE', #966, 1000.000000000000000 ) ;
#557 = CARTESIAN_POINT ( 'NONE',  ( 1.224646799147250347E-18, 0.000000000000000000, 4.990000000000000213 ) ) ;
#558 = DIRECTION ( 'NONE',  ( 0.000000000000000000, 0.000000000000000000, 1.000000000000000000 ) ) ;
#559 = ADVANCED_FACE ( 'NONE', ( #840, #930 ), #566, .F. ) ;
#560 = ORIENTED_EDGE ( 'NONE', *, *, #943, .F. ) ;
#561 = LINE ( 'NONE', #261, #1095 ) ;
#562 = FACE_OUTER_BOUND ( 'NONE', #1176, .T. ) ;
#563 = ORIENTED_EDGE ( 'NONE', *, *, #939, .F. ) ;
#564 = DIRECTION ( 'NONE',  ( -1.000000000000000000, -0.000000000000000000, -0.000000000000000000 ) ) ;
#565 = DIRECTION ( 'NONE',  ( 0.000000000000000000, 0.000000000000000000, 1.000000000000000000 ) ) ;
#566 = PLANE ( 'NONE',  #1169 ) ;
#567 = ORIENTED_EDGE ( 'NONE', *, *, #117, .F. ) ;
#568 = EDGE_CURVE ( 'NONE', #1160, #641, #143, .T. ) ;
#569 = AXIS2_PLACEMENT_3D ( 'NONE', #310, #580, #654 ) ;
#570 = DIRECTION ( 'NONE',  ( 0.000000000000000000, 0.000000000000000000, -1.000000000000000000 ) ) ;
#571 = AXIS2_PLACEMENT_3D ( 'NONE', #245, #887, #965 ) ;
#572 = VECTOR ( 'NONE', #836, 1000.000000000000000 ) ;
#573 = FACE_OUTER_BOUND ( 'NONE', #170, .T. ) ;
#574 = CARTESIAN_POINT ( 'NONE',  ( 39.50000000000000000, 5.866058167915828348E-16, -4.790000000000005365 ) ) ;
#575 = LINE ( 'NONE', #1108, #399 ) ;
#576 = CARTESIAN_POINT ( 'NONE',  ( 0.000000000000000000, 6.110987527745304364E-16, -4.990000000000009095 ) ) ;
#577 = CARTESIAN_POINT ( 'NONE',  ( 24.00000000000000000, 0.000000000000000000, 0.000000000000000000 ) ) ;
#578 = EDGE_LOOP ( 'NONE', ( #619, #1123 ) ) ;
#579 = ADVANCED_FACE ( 'NONE', ( #113 ), #731, .T. ) ;
#580 = DIRECTION ( 'NONE',  ( -1.000000000000000000, -0.000000000000000000, -0.000000000000000000 ) ) ;
#581 = CLOSED_SHELL ( 'NONE', ( #221, #1154, #895, #4, #1053, #262, #126, #590, #269, #1150, #418, #296, #652, #711, #598, #892, #18, #421, #487, #76, #225, #73, #685, #300, #1173, #559, #507, #246, #579, #1104, #47, #307, #1036, #54, #802, #108, #358, #665, #334 ) ) ;
#582 = CIRCLE ( 'NONE', #534, 7.490000000000002878 ) ;
#583 = VERTEX_POINT ( 'NONE', #1109 ) ;
#584 = AXIS2_PLACEMENT_3D ( 'NONE', #324, #790, #316 ) ;
#585 = DIRECTION ( 'NONE',  ( -1.000000000000000000, -0.000000000000000000, -0.000000000000000000 ) ) ;
#586 = CARTESIAN_POINT ( 'NONE',  ( 0.000000000000000000, 0.000000000000000000, 4.990000000000002878 ) ) ;
#587 = ORIENTED_EDGE ( 'NONE', *, *, #241, .F. ) ;
#588 = DIRECTION ( 'NONE',  ( -0.000000000000000000, -0.000000000000000000, 1.000000000000000000 ) ) ;
#589 = FACE_OUTER_BOUND ( 'NONE', #914, .T. ) ;
#590 = ADVANCED_FACE ( 'NONE', ( #391 ), #662, .T. ) ;
#591 = ORIENTED_EDGE ( 'NONE', *, *, #119, .T. ) ;
#592 = DIRECTION ( 'NONE',  ( 1.000000000000000000, 0.000000000000000000, 0.000000000000000000 ) ) ;
#593 = CARTESIAN_POINT ( 'NONE',  ( 39.50000000000000000, 0.000000000000000000, 0.000000000000000000 ) ) ;
#594 = EDGE_CURVE ( 'NONE', #847, #1013, #488, .T. ) ;
#595 = VERTEX_POINT ( 'NONE', #557 ) ;
#596 = CARTESIAN_POINT ( 'NONE',  ( 14.00000000000000000, 0.000000000000000000, -7.490000000000001990 ) ) ;
#597 = AXIS2_PLACEMENT_3D ( 'NONE', #577, #922, #397 ) ;
#598 = ADVANCED_FACE ( 'NONE', ( #468 ), #819, .T. ) ;
#599 = ORIENTED_EDGE ( 'NONE', *, *, #679, .T. ) ;
#600 = CARTESIAN_POINT ( 'NONE',  ( 30.50000000000000000, 5.866058167915829334E-16, -4.790000000000006253 ) ) ;
#601 = AXIS2_PLACEMENT_3D ( 'NONE', #1025, #486, #124 ) ;
#602 = DATE_TIME_ROLE ( 'creation_date' ) ;
#603 = AXIS2_PLACEMENT_3D ( 'NONE', #1042, #520, #229 ) ;
#604 = CARTESIAN_POINT ( 'NONE',  ( 113.3000000000000114, 0.000000000000000000, 0.000000000000000000 ) ) ;
#605 = VERTEX_POINT ( 'NONE', #419 ) ;
#606 = ORIENTED_EDGE ( 'NONE', *, *, #429, .F. ) ;
#607 = LINE ( 'NONE', #524, #719 ) ;
#608 = CARTESIAN_POINT ( 'NONE',  ( 103.3000000000000114, -2.000000000000000000, 4.582575694955839829 ) ) ;
#609 = CARTESIAN_POINT ( 'NONE',  ( 3.000000000000000000, 0.000000000000000000, 4.990000000000000213 ) ) ;
#610 = EDGE_CURVE ( 'NONE', #516, #969, #864, .T. ) ;
#611 = DIRECTION ( 'NONE',  ( 0.000000000000000000, 0.000000000000000000, -1.000000000000000000 ) ) ;
#612 = VERTEX_POINT ( 'NONE', #676 ) ;
#613 = VERTEX_POINT ( 'NONE', #1035 ) ;
#614 = DIRECTION ( 'NONE',  ( 1.000000000000000000, 0.000000000000000000, 0.000000000000000000 ) ) ;
#615 = EDGE_CURVE ( 'NONE', #224, #990, #222, .T. ) ;
#616 = DIRECTION ( 'NONE',  ( -1.000000000000000000, -0.000000000000000000, -0.000000000000000000 ) ) ;
#617 = DIRECTION ( 'NONE',  ( 1.000000000000000000, 0.000000000000000000, -0.000000000000000000 ) ) ;
#618 = ORIENTED_EDGE ( 'NONE', *, *, #1159, .T. ) ;
#619 = ORIENTED_EDGE ( 'NONE', *, *, #956, .F. ) ;
#620 = CARTESIAN_POINT ( 'NONE',  ( 29.50000000000000000, 0.000000000000000000, -4.790000000000005365 ) ) ;
#621 = PLANE ( 'NONE',  #341 ) ;
#622 = ORIENTED_EDGE ( 'NONE', *, *, #1131, .T. ) ;
#623 = CARTESIAN_POINT ( 'NONE',  ( 3.000000000000000000, 0.000000000000000000, 0.000000000000000000 ) ) ;
#624 = AXIS2_PLACEMENT_3D ( 'NONE', #1057, #510, #329 ) ;
#625 = EDGE_LOOP ( 'NONE', ( #648, #1175, #250, #944 ) ) ;
#626 = EDGE_CURVE ( 'NONE', #894, #451, #783, .T. ) ;
#627 = DIRECTION ( 'NONE',  ( -1.000000000000000000, -0.000000000000000000, -0.000000000000000000 ) ) ;
#628 = CARTESIAN_POINT ( 'NONE',  ( 103.3000000000000114, 0.000000000000000000, 0.000000000000000000 ) ) ;
#629 = VERTEX_POINT ( 'NONE', #247 ) ;
#630 = DIRECTION ( 'NONE',  ( 0.000000000000000000, 0.000000000000000000, -1.000000000000000000 ) ) ;
#631 = APPROVAL ( #1081, 'UNSPECIFIED' ) ;
#632 = VERTEX_POINT ( 'NONE', #600 ) ;
#633 = LINE ( 'NONE', #283, #457 ) ;
#634 = DIRECTION ( 'NONE',  ( -0.000000000000000000, 0.000000000000000000, 1.000000000000000000 ) ) ;
#635 = LINE ( 'NONE', #433, #661 ) ;
#636 = EDGE_LOOP ( 'NONE', ( #622, #797 ) ) ;
#637 = LINE ( 'NONE', #824, #659 ) ;
#638 = CARTESIAN_POINT ( 'NONE',  ( 14.00000000000000000, 0.000000000000000000, 0.000000000000000000 ) ) ;
#639 = DIRECTION ( 'NONE',  ( -1.000000000000000000, -0.000000000000000000, -0.000000000000000000 ) ) ;
#640 = PERSON_AND_ORGANIZATION_ROLE ( 'creator' ) ;
#641 = VERTEX_POINT ( 'NONE', #1040 ) ;
#642 = LINE ( 'NONE', #718, #361 ) ;
#643 = CIRCLE ( 'NONE', #936, 4.790000000000005365 ) ;
#644 = VECTOR ( 'NONE', #276, 1000.000000000000000 ) ;
#645 = DIRECTION ( 'NONE',  ( -1.000000000000000000, -0.000000000000000000, -0.000000000000000000 ) ) ;
#646 = DIRECTION ( 'NONE',  ( -1.000000000000000000, -0.000000000000000000, -0.000000000000000000 ) ) ;
#647 = EDGE_CURVE ( 'NONE', #613, #541, #1048, .T. ) ;
#648 = ORIENTED_EDGE ( 'NONE', *, *, #1019, .T. ) ;
#649 = CARTESIAN_POINT ( 'NONE',  ( 113.3000000000000114, -2.000000000000000000, 4.571662717217892968 ) ) ;
#650 = LINE ( 'NONE', #586, #861 ) ;
#651 = DIRECTION ( 'NONE',  ( 0.000000000000000000, 0.000000000000000000, 1.000000000000000000 ) ) ;
#652 = ADVANCED_FACE ( 'NONE', ( #518 ), #413, .T. ) ;
#653 = ORIENTED_EDGE ( 'NONE', *, *, #1, .F. ) ;
#654 = DIRECTION ( 'NONE',  ( 0.000000000000000000, 0.000000000000000000, 1.000000000000000000 ) ) ;
#655 = CARTESIAN_POINT ( 'NONE',  ( 103.3000000000000114, 2.000000000000000000, 4.571662717217892968 ) ) ;
#656 = DIRECTION ( 'NONE',  ( -1.000000000000000000, -0.000000000000000000, -0.000000000000000000 ) ) ;
#657 = PRODUCT_DEFINITION_FORMATION_WITH_SPECIFIED_SOURCE ( 'ANY', '', #490, .NOT_KNOWN. ) ;
#658 = DIRECTION ( 'NONE',  ( -1.000000000000000000, -0.000000000000000000, -0.000000000000000000 ) ) ;
#659 = VECTOR ( 'NONE', #986, 1000.000000000000000 ) ;
#660 = VECTOR ( 'NONE', #12, 1000.000000000000000 ) ;
#661 = VECTOR ( 'NONE', #182, 1000.000000000000000 ) ;
#662 = CYLINDRICAL_SURFACE ( 'NONE', #909, 4.790000000000006253 ) ;
#663 = EDGE_CURVE ( 'NONE', #905, #311, #855, .T. ) ;
#664 = CARTESIAN_POINT ( 'NONE',  ( 0.000000000000000000, 9.172604525613678137E-16, -7.490000000000001990 ) ) ;
#665 = ADVANCED_FACE ( 'NONE', ( #868 ), #1135, .F. ) ;
#666 = VERTEX_POINT ( 'NONE', #874 ) ;
#667 = DIRECTION ( 'NONE',  ( -1.000000000000000000, -0.000000000000000000, -0.000000000000000000 ) ) ;
#668 = ORIENTED_EDGE ( 'NONE', *, *, #174, .T. ) ;
#669 = CARTESIAN_POINT ( 'NONE',  ( 4.000000000000000000, 0.000000000000000000, 0.000000000000000000 ) ) ;
#670 = DIRECTION ( 'NONE',  ( 0.000000000000000000, 0.000000000000000000, 1.000000000000000000 ) ) ;
#671 = EDGE_CURVE ( 'NONE', #612, #987, #1140, .T. ) ;
#672 = DIRECTION ( 'NONE',  ( -1.000000000000000000, -0.000000000000000000, -0.000000000000000000 ) ) ;
#673 = CIRCLE ( 'NONE', #1111, 4.990000000000000213 ) ;
#674 = ORIENTED_EDGE ( 'NONE', *, *, #395, .F. ) ;
#675 = CIRCLE ( 'NONE', #1096, 7.490000000000001990 ) ;
#676 = CARTESIAN_POINT ( 'NONE',  ( 38.50000000000000000, 6.110987527745298447E-16, -4.990000000000004654 ) ) ;
#677 = APPROVAL_ROLE ( '' ) ;
#678 = CYLINDRICAL_SURFACE ( 'NONE', #28, 4.790000000000006253 ) ;
#679 = EDGE_CURVE ( 'NONE', #823, #417, #537, .T. ) ;
#680 = ORIENTED_EDGE ( 'NONE', *, *, #568, .F. ) ;
#681 = EDGE_CURVE ( 'NONE', #694, #164, #525, .T. ) ;
#682 = FACE_BOUND ( 'NONE', #921, .T. ) ;
#683 = CARTESIAN_POINT ( 'NONE',  ( 0.000000000000000000, 0.000000000000000000, 0.000000000000000000 ) ) ;
#684 = VERTEX_POINT ( 'NONE', #772 ) ;
#685 = ADVANCED_FACE ( 'NONE', ( #945 ), #59, .T. ) ;
#686 = FACE_OUTER_BOUND ( 'NONE', #1066, .T. ) ;
#687 = VERTEX_POINT ( 'NONE', #46 ) ;
#688 = DIRECTION ( 'NONE',  ( -1.000000000000000000, -0.000000000000000000, -0.000000000000000000 ) ) ;
#689 =( LENGTH_UNIT ( ) NAMED_UNIT ( * ) SI_UNIT ( .MILLI., .METRE. ) );
#690 = VERTEX_POINT ( 'NONE', #33 ) ;
#691 = CARTESIAN_POINT ( 'NONE',  ( 26.00000000000000000, 6.110987527745297461E-16, -4.990000000000003766 ) ) ;
#692 = CARTESIAN_POINT ( 'NONE',  ( 113.3000000000000114, 0.000000000000000000, 0.000000000000000000 ) ) ;
#693 = APPROVAL_PERSON_ORGANIZATION ( #1168, #631, #88 ) ;
#694 = VERTEX_POINT ( 'NONE', #127 ) ;
#695 = CYLINDRICAL_SURFACE ( 'NONE', #571, 7.490000000000001990 ) ;
#696 = CIRCLE ( 'NONE', #492, 4.790000000000006253 ) ;
#697 = CARTESIAN_POINT ( 'NONE',  ( 0.000000000000000000, 6.110987527745296475E-16, -4.990000000000002878 ) ) ;
#698 = AXIS2_PLACEMENT_3D ( 'NONE', #505, #1052, #160 ) ;
#699 = CARTESIAN_POINT ( 'NONE',  ( 3.000000000000000000, 6.110987527745293517E-16, -4.990000000000000213 ) ) ;
#700 = EDGE_LOOP ( 'NONE', ( #768, #539, #189, #803 ) ) ;
#701 = DIRECTION ( 'NONE',  ( 0.000000000000000000, -1.000000000000000000, 0.000000000000000000 ) ) ;
#702 = FACE_BOUND ( 'NONE', #233, .T. ) ;
#703 = FACE_OUTER_BOUND ( 'NONE', #379, .T. ) ;
#704 = ORIENTED_EDGE ( 'NONE', *, *, #207, .F. ) ;
#705 = CARTESIAN_POINT ( 'NONE',  ( 0.000000000000000000, 0.000000000000000000, 0.000000000000000000 ) ) ;
#706 = FACE_BOUND ( 'NONE', #1120, .T. ) ;
#707 = EDGE_CURVE ( 'NONE', #595, #690, #714, .T. ) ;
#708 = ORIENTED_EDGE ( 'NONE', *, *, #1118, .F. ) ;
#709 = CARTESIAN_POINT ( 'NONE',  ( 24.00000000000000000, -1.999999999999997335, 7.228416147400479552 ) ) ;
#710 = DIRECTION ( 'NONE',  ( 0.000000000000000000, 0.000000000000000000, -1.000000000000000000 ) ) ;
#711 = ADVANCED_FACE ( 'NONE', ( #682, #1044 ), #409, .F. ) ;
#712 = ORIENTED_EDGE ( 'NONE', *, *, #509, .T. ) ;
#713 = SECURITY_CLASSIFICATION_LEVEL ( 'unclassified' ) ;
#714 = CIRCLE ( 'NONE', #788, 4.990000000000000213 ) ;
#715 = AXIS2_PLACEMENT_3D ( 'NONE', #15, #672, #555 ) ;
#716 = SECURITY_CLASSIFICATION ( '', '', #713 ) ;
#717 = ORIENTED_EDGE ( 'NONE', *, *, #766, .F. ) ;
#718 = CARTESIAN_POINT ( 'NONE',  ( 0.000000000000000000, 0.000000000000000000, 4.990000000000009095 ) ) ;
#719 = VECTOR ( 'NONE', #1068, 1000.000000000000000 ) ;
#720 = EDGE_CURVE ( 'NONE', #666, #133, #43, .T. ) ;
#721 = ORIENTED_EDGE ( 'NONE', *, *, #915, .T. ) ;
#722 = ORIENTED_EDGE ( 'NONE', *, *, #975, .T. ) ;
#723 = LINE ( 'NONE', #996, #364 ) ;
#724 = ORIENTED_EDGE ( 'NONE', *, *, #915, .F. ) ;
#725 = PLANE ( 'NONE',  #400 ) ;
#726 = EDGE_CURVE ( 'NONE', #822, #903, #582, .T. ) ;
#727 = ORIENTED_EDGE ( 'NONE', *, *, #878, .T. ) ;
#728 = DATE_AND_TIME ( #998, #411 ) ;
#729 = ORIENTED_EDGE ( 'NONE', *, *, #846, .F. ) ;
#730 = CARTESIAN_POINT ( 'NONE',  ( 0.000000000000000000, 0.000000000000000000, 4.790000000000000924 ) ) ;
#731 = CYLINDRICAL_SURFACE ( 'NONE', #479, 4.990000000000000213 ) ;
#732 = EDGE_CURVE ( 'NONE', #375, #990, #184, .T. ) ;
#733 = AXIS2_PLACEMENT_3D ( 'NONE', #951, #319, #1058 ) ;
#734 = ORIENTED_EDGE ( 'NONE', *, *, #739, .F. ) ;
#735 = DIRECTION ( 'NONE',  ( 1.000000000000000000, 0.000000000000000000, 0.000000000000000000 ) ) ;
#736 = CIRCLE ( 'NONE', #362, 4.990000000000002878 ) ;
#737 = AXIS2_PLACEMENT_3D ( 'NONE', #764, #1124, #231 ) ;
#738 = VECTOR ( 'NONE', #416, 1000.000000000000000 ) ;
#739 = EDGE_CURVE ( 'NONE', #311, #140, #286, .T. ) ;
#740 = AXIS2_PLACEMENT_3D ( 'NONE', #23, #1030, #828 ) ;
#741 = CARTESIAN_POINT ( 'NONE',  ( 103.3000000000000114, -2.000000000000000000, 4.582575694955839829 ) ) ;
#742 = CARTESIAN_POINT ( 'NONE',  ( 113.3000000000000114, -2.000000000000000000, -4.571662717217892968 ) ) ;
#743 = FACE_OUTER_BOUND ( 'NONE', #1060, .T. ) ;
#744 = DIRECTION ( 'NONE',  ( 0.000000000000000000, 0.000000000000000000, 1.000000000000000000 ) ) ;
#745 = CARTESIAN_POINT ( 'NONE',  ( 14.00000000000000000, 2.000000000000002665, 7.228416147400479552 ) ) ;
#746 = ORIENTED_EDGE ( 'NONE', *, *, #869, .T. ) ;
#747 = DIRECTION ( 'NONE',  ( 1.000000000000000000, 0.000000000000000000, 0.000000000000000000 ) ) ;
#748 = DIRECTION ( 'NONE',  ( -1.000000000000000000, -0.000000000000000000, -0.000000000000000000 ) ) ;
#749 = PRODUCT_RELATED_PRODUCT_CATEGORY ( 'detail', '', ( #490 ) ) ;
#750 = CIRCLE ( 'NONE', #363, 4.990000000000004654 ) ;
#751 = DIRECTION ( 'NONE',  ( 0.000000000000000000, 0.000000000000000000, 1.000000000000000000 ) ) ;
#752 = VECTOR ( 'NONE', #95, 1000.000000000000000 ) ;
#753 = EDGE_CURVE ( 'NONE', #107, #133, #912, .T. ) ;
#754 = CC_DESIGN_APPROVAL ( #506, ( #25 ) ) ;
#755 = VECTOR ( 'NONE', #94, 1000.000000000000000 ) ;
#756 = CARTESIAN_POINT ( 'NONE',  ( 0.000000000000000000, 0.000000000000000000, 4.790000000000006253 ) ) ;
#757 = DIRECTION ( 'NONE',  ( 0.000000000000000000, 0.000000000000000000, 1.000000000000000000 ) ) ;
#758 = EDGE_LOOP ( 'NONE', ( #294, #888, #786, #514 ) ) ;
#759 = EDGE_CURVE ( 'NONE', #275, #1039, #810, .T. ) ;
#760 = CYLINDRICAL_SURFACE ( 'NONE', #80, 4.990000000000001101 ) ;
#761 = CARTESIAN_POINT ( 'NONE',  ( 26.00000000000000000, 0.000000000000000000, 4.990000000000003766 ) ) ;
#762 = ORIENTED_EDGE ( 'NONE', *, *, #485, .F. ) ;
#763 = ADVANCED_BREP_SHAPE_REPRESENTATION ( 'Link3LowerShaft_Default_sldprt', ( #99, #733 ), #812 ) ;
#764 = CARTESIAN_POINT ( 'NONE',  ( 39.50000000000000711, 0.000000000000000000, -4.990000000000004654 ) ) ;
#765 = LINE ( 'NONE', #322, #738 ) ;
#766 = EDGE_CURVE ( 'NONE', #417, #823, #493, .T. ) ;
#767 = CIRCLE ( 'NONE', #10, 4.990000000000001101 ) ;
#768 = ORIENTED_EDGE ( 'NONE', *, *, #850, .T. ) ;
#769 = AXIS2_PLACEMENT_3D ( 'NONE', #628, #151, #355 ) ;
#770 = EDGE_CURVE ( 'NONE', #969, #684, #880, .T. ) ;
#771 = AXIS2_PLACEMENT_3D ( 'NONE', #669, #152, #338 ) ;
#772 = CARTESIAN_POINT ( 'NONE',  ( 3.000000000000000000, 0.000000000000000000, 4.790000000000000924 ) ) ;
#773 = PERSON_AND_ORGANIZATION ( #1106, #1051 ) ;
#774 = ORIENTED_EDGE ( 'NONE', *, *, #1119, .F. ) ;
#775 = PLANE ( 'NONE',  #845 ) ;
#776 = ORIENTED_EDGE ( 'NONE', *, *, #663, .F. ) ;
#777 = CARTESIAN_POINT ( 'NONE',  ( 14.00000000000000000, -1.999999999999997335, 7.228416147400479552 ) ) ;
#778 = DIRECTION ( 'NONE',  ( -1.000000000000000000, -0.000000000000000000, -0.000000000000000000 ) ) ;
#779 = ORIENTED_EDGE ( 'NONE', *, *, #207, .T. ) ;
#780 = CARTESIAN_POINT ( 'NONE',  ( 14.00000000000000000, 0.000000000000000000, 0.000000000000000000 ) ) ;
#781 = DIRECTION ( 'NONE',  ( 0.000000000000000000, 0.000000000000000000, 1.000000000000000000 ) ) ;
#782 = ORIENTED_EDGE ( 'NONE', *, *, #739, .T. ) ;
#783 = LINE ( 'NONE', #608, #437 ) ;
#784 = FACE_OUTER_BOUND ( 'NONE', #578, .T. ) ;
#785 = VECTOR ( 'NONE', #667, 1000.000000000000000 ) ;
#786 = ORIENTED_EDGE ( 'NONE', *, *, #626, .F. ) ;
#787 = DIRECTION ( 'NONE',  ( -1.000000000000000000, -0.000000000000000000, -0.000000000000000000 ) ) ;
#788 = AXIS2_PLACEMENT_3D ( 'NONE', #499, #852, #131 ) ;
#789 = DIRECTION ( 'NONE',  ( 0.000000000000000000, 0.000000000000000000, 1.000000000000000000 ) ) ;
#790 = DIRECTION ( 'NONE',  ( -1.000000000000000000, -0.000000000000000000, -0.000000000000000000 ) ) ;
#791 = VECTOR ( 'NONE', #1129, 1000.000000000000000 ) ;
#792 = DIRECTION ( 'NONE',  ( -1.000000000000000000, 0.000000000000000000, -0.000000000000000000 ) ) ;
#793 = ORIENTED_EDGE ( 'NONE', *, *, #528, .F. ) ;
#794 = ORIENTED_EDGE ( 'NONE', *, *, #1029, .T. ) ;
#795 = FACE_OUTER_BOUND ( 'NONE', #964, .T. ) ;
#796 = SHAPE_DEFINITION_REPRESENTATION ( #952, #763 ) ;
#797 = ORIENTED_EDGE ( 'NONE', *, *, #147, .T. ) ;
#798 = CARTESIAN_POINT ( 'NONE',  ( 103.3000000000000114, -2.000000000000000000, -4.571662717217892968 ) ) ;
#799 = ORIENTED_EDGE ( 'NONE', *, *, #444, .F. ) ;
#800 = CARTESIAN_POINT ( 'NONE',  ( 113.3000000000000114, 0.000000000000000000, 0.000000000000000000 ) ) ;
#801 = EDGE_CURVE ( 'NONE', #1008, #156, #202, .T. ) ;
#802 = ADVANCED_FACE ( 'NONE', ( #254 ), #270, .T. ) ;
#803 = ORIENTED_EDGE ( 'NONE', *, *, #167, .F. ) ;
#804 = CARTESIAN_POINT ( 'NONE',  ( 26.00000000000000355, 9.172604525613680109E-16, -7.490000000000003766 ) ) ;
#805 = ORIENTED_EDGE ( 'NONE', *, *, #943, .T. ) ;
#806 = AXIS2_PLACEMENT_3D ( 'NONE', #1031, #747, #212 ) ;
#807 = DIRECTION ( 'NONE',  ( 0.000000000000000000, 0.000000000000000000, 1.000000000000000000 ) ) ;
#808 = DIRECTION ( 'NONE',  ( -1.000000000000000000, -0.000000000000000000, -0.000000000000000000 ) ) ;
#809 = ORIENTED_EDGE ( 'NONE', *, *, #528, .T. ) ;
#810 = LINE ( 'NONE', #463, #644 ) ;
#811 = AXIS2_PLACEMENT_3D ( 'NONE', #638, #1003, #314 ) ;
#812 =( GEOMETRIC_REPRESENTATION_CONTEXT ( 3 ) GLOBAL_UNCERTAINTY_ASSIGNED_CONTEXT ( ( #1065 ) ) GLOBAL_UNIT_ASSIGNED_CONTEXT ( ( #689, #1049, #48 ) ) REPRESENTATION_CONTEXT ( 'NONE', 'WORKASPACE' ) );
#813 = LINE ( 'NONE', #278, #980 ) ;
#814 = EDGE_LOOP ( 'NONE', ( #729, #72, #1132, #529, #805, #343 ) ) ;
#815 = DIRECTION ( 'NONE',  ( -1.000000000000000000, -0.000000000000000000, -0.000000000000000000 ) ) ;
#816 = VERTEX_POINT ( 'NONE', #190 ) ;
#817 = DIRECTION ( 'NONE',  ( 0.000000000000000000, 0.000000000000000000, 1.000000000000000000 ) ) ;
#818 = LINE ( 'NONE', #730, #928 ) ;
#819 = CYLINDRICAL_SURFACE ( 'NONE', #1116, 4.790000000000006253 ) ;
#820 = DATE_AND_TIME ( #883, #200 ) ;
#821 = CC_DESIGN_PERSON_AND_ORGANIZATION_ASSIGNMENT ( #531, #1005, ( #716 ) ) ;
#822 = VERTEX_POINT ( 'NONE', #179 ) ;
#823 = VERTEX_POINT ( 'NONE', #536 ) ;
#824 = CARTESIAN_POINT ( 'NONE',  ( 24.00000000000000000, -1.999999999999997335, 7.228416147400479552 ) ) ;
#825 = EDGE_CURVE ( 'NONE', #1013, #425, #435, .T. ) ;
#826 = EDGE_CURVE ( 'NONE', #666, #994, #561, .T. ) ;
#827 = DIRECTION ( 'NONE',  ( -1.000000000000000000, -0.000000000000000000, -0.000000000000000000 ) ) ;
#828 = DIRECTION ( 'NONE',  ( 0.000000000000000000, 0.000000000000000000, 1.000000000000000000 ) ) ;
#829 = DIRECTION ( 'NONE',  ( 0.000000000000000000, 0.000000000000000000, 1.000000000000000000 ) ) ;
#830 = AXIS2_PLACEMENT_3D ( 'NONE', #741, #292, #483 ) ;
#831 = AXIS2_PLACEMENT_3D ( 'NONE', #1009, #1171, #185 ) ;
#832 = CIRCLE ( 'NONE', #304, 4.990000000000013536 ) ;
#833 = DIRECTION ( 'NONE',  ( -1.000000000000000000, -0.000000000000000000, -0.000000000000000000 ) ) ;
#834 = ORIENTED_EDGE ( 'NONE', *, *, #594, .F. ) ;
#835 = ORIENTED_EDGE ( 'NONE', *, *, #759, .T. ) ;
#836 = DIRECTION ( 'NONE',  ( -1.000000000000000000, -0.000000000000000000, -0.000000000000000000 ) ) ;
#837 = DIRECTION ( 'NONE',  ( -1.000000000000000000, -0.000000000000000000, -0.000000000000000000 ) ) ;
#838 = DIRECTION ( 'NONE',  ( 0.000000000000000000, 0.000000000000000000, 1.000000000000000000 ) ) ;
#839 = CARTESIAN_POINT ( 'NONE',  ( 30.50000000000000000, 0.000000000000000000, 0.000000000000000000 ) ) ;
#840 = FACE_BOUND ( 'NONE', #992, .T. ) ;
#841 = CC_DESIGN_SECURITY_CLASSIFICATION ( #716, ( #657 ) ) ;
#842 = DIRECTION ( 'NONE',  ( -1.000000000000000000, -0.000000000000000000, -0.000000000000000000 ) ) ;
#843 = EDGE_CURVE ( 'NONE', #684, #969, #860, .T. ) ;
#844 = AXIS2_PLACEMENT_3D ( 'NONE', #1015, #1172, #187 ) ;
#845 = AXIS2_PLACEMENT_3D ( 'NONE', #604, #973, #968 ) ;
#846 = EDGE_CURVE ( 'NONE', #1039, #375, #637, .T. ) ;
#847 = VERTEX_POINT ( 'NONE', #68 ) ;
#848 = AXIS2_PLACEMENT_3D ( 'NONE', #478, #833, #378 ) ;
#849 = CARTESIAN_POINT ( 'NONE',  ( 30.50000000000000000, 6.110987527745298447E-16, -4.990000000000004654 ) ) ;
#850 = EDGE_CURVE ( 'NONE', #342, #905, #139, .T. ) ;
#851 = ORIENTED_EDGE ( 'NONE', *, *, #195, .T. ) ;
#852 = DIRECTION ( 'NONE',  ( -1.000000000000000000, -0.000000000000000000, -0.000000000000000000 ) ) ;
#853 = DIRECTION ( 'NONE',  ( -1.000000000000000000, -0.000000000000000000, -0.000000000000000000 ) ) ;
#854 = ORIENTED_EDGE ( 'NONE', *, *, #532, .T. ) ;
#855 = LINE ( 'NONE', #697, #497 ) ;
#856 = PERSON_AND_ORGANIZATION_ROLE ( 'creator' ) ;
#857 = EDGE_LOOP ( 'NONE', ( #934, #480, #97, #1128 ) ) ;
#858 = CIRCLE ( 'NONE', #907, 4.990000000000013536 ) ;
#859 = DIRECTION ( 'NONE',  ( 0.000000000000000000, 0.000000000000000000, 1.000000000000000000 ) ) ;
#860 = CIRCLE ( 'NONE', #937, 4.790000000000000924 ) ;
#861 = VECTOR ( 'NONE', #1037, 1000.000000000000000 ) ;
#862 = CIRCLE ( 'NONE', #284, 7.490000000000002878 ) ;
#863 = ORIENTED_EDGE ( 'NONE', *, *, #801, .F. ) ;
#864 = LINE ( 'NONE', #38, #1056 ) ;
#865 = VERTEX_POINT ( 'NONE', #917 ) ;
#866 = DIRECTION ( 'NONE',  ( 0.000000000000000000, 0.000000000000000000, -1.000000000000000000 ) ) ;
#867 = DIRECTION ( 'NONE',  ( 0.000000000000000000, 0.000000000000000000, 1.000000000000000000 ) ) ;
#868 = FACE_OUTER_BOUND ( 'NONE', #351, .T. ) ;
#869 = EDGE_CURVE ( 'NONE', #583, #417, #993, .T. ) ;
#870 = PLANE ( 'NONE',  #386 ) ;
#871 = VERTEX_POINT ( 'NONE', #1089 ) ;
#872 = DIRECTION ( 'NONE',  ( 0.000000000000000000, 0.000000000000000000, 1.000000000000000000 ) ) ;
#873 = CARTESIAN_POINT ( 'NONE',  ( 6.123233995736251736E-19, 0.000000000000000000, -4.990000000000000213 ) ) ;
#874 = CARTESIAN_POINT ( 'NONE',  ( 103.3000000000000114, 2.000000000000000000, -4.571662717217892968 ) ) ;
#875 = APPLICATION_PROTOCOL_DEFINITION ( 'international standard', 'config_control_design', 1994, #214 ) ;
#876 = DIRECTION ( 'NONE',  ( -1.000000000000000000, -0.000000000000000000, -0.000000000000000000 ) ) ;
#877 = ORIENTED_EDGE ( 'NONE', *, *, #138, .T. ) ;
#878 = EDGE_CURVE ( 'NONE', #156, #629, #642, .T. ) ;
#879 = ORIENTED_EDGE ( 'NONE', *, *, #445, .F. ) ;
#880 = CIRCLE ( 'NONE', #81, 4.790000000000000924 ) ;
#881 = DIRECTION ( 'NONE',  ( -1.000000000000000000, -0.000000000000000000, -0.000000000000000000 ) ) ;
#882 = CARTESIAN_POINT ( 'NONE',  ( 0.000000000000000000, 2.000000000000000000, 4.571662717217892968 ) ) ;
#883 = CALENDAR_DATE ( 2026, 31, 7 ) ;
#884 = DIRECTION ( 'NONE',  ( 0.000000000000000000, 0.000000000000000000, 1.000000000000000000 ) ) ;
#885 = EDGE_LOOP ( 'NONE', ( #522, #78, #183, #198, #210, #1080 ) ) ;
#886 = ORIENTED_EDGE ( 'NONE', *, *, #615, .T. ) ;
#887 = DIRECTION ( 'NONE',  ( -1.000000000000000000, -0.000000000000000000, -0.000000000000000000 ) ) ;
#888 = ORIENTED_EDGE ( 'NONE', *, *, #1029, .F. ) ;
#889 = APPROVAL_DATE_TIME ( #441, #631 ) ;
#890 = ORIENTED_EDGE ( 'NONE', *, *, #213, .F. ) ;
#891 = CARTESIAN_POINT ( 'NONE',  ( 29.50000000000000000, 0.000000000000000000, 0.000000000000000000 ) ) ;
#892 = ADVANCED_FACE ( 'NONE', ( #542, #706 ), #725, .F. ) ;
#893 = EDGE_CURVE ( 'NONE', #816, #823, #633, .T. ) ;
#894 = VERTEX_POINT ( 'NONE', #798 ) ;
#895 = ADVANCED_FACE ( 'NONE', ( #1083 ), #91, .T. ) ;
#896 = EDGE_LOOP ( 'NONE', ( #281, #36, #464, #442, #722, #925, #1032, #1166 ) ) ;
#897 = PLANE ( 'NONE',  #769 ) ;
#898 = ORIENTED_EDGE ( 'NONE', *, *, #1, .T. ) ;
#899 = DIRECTION ( 'NONE',  ( -1.000000000000000000, -0.000000000000000000, -0.000000000000000000 ) ) ;
#900 = DIRECTION ( 'NONE',  ( -1.000000000000000000, -0.000000000000000000, -0.000000000000000000 ) ) ;
#901 = ORIENTED_EDGE ( 'NONE', *, *, #444, .T. ) ;
#902 = CIRCLE ( 'NONE', #569, 4.990000000000000213 ) ;
#903 = VERTEX_POINT ( 'NONE', #804 ) ;
#904 = CARTESIAN_POINT ( 'NONE',  ( 24.00000000000000000, 2.000000000000002665, -7.218039900139096687 ) ) ;
#905 = VERTEX_POINT ( 'NONE', #360 ) ;
#906 = VECTOR ( 'NONE', #201, 1000.000000000000000 ) ;
#907 = AXIS2_PLACEMENT_3D ( 'NONE', #305, #564, #1018 ) ;
#908 = CARTESIAN_POINT ( 'NONE',  ( 38.50000000000000000, 0.000000000000000000, -4.790000000000006253 ) ) ;
#909 = AXIS2_PLACEMENT_3D ( 'NONE', #401, #639, #932 ) ;
#910 = LINE ( 'NONE', #377, #263 ) ;
#911 = DIRECTION ( 'NONE',  ( 0.000000000000000000, 0.000000000000000000, 1.000000000000000000 ) ) ;
#912 = LINE ( 'NONE', #882, #752 ) ;
#913 = APPROVAL_DATE_TIME ( #728, #1001 ) ;
#914 = EDGE_LOOP ( 'NONE', ( #776, #1071, #264, #734 ) ) ;
#915 = EDGE_CURVE ( 'NONE', #690, #595, #673, .T. ) ;
#916 = VERTEX_POINT ( 'NONE', #470 ) ;
#917 = CARTESIAN_POINT ( 'NONE',  ( 38.50000000000000000, 0.000000000000000000, 4.990000000000004654 ) ) ;
#918 = EDGE_CURVE ( 'NONE', #258, #605, #123, .T. ) ;
#919 = DIRECTION ( 'NONE',  ( -1.000000000000000000, -0.000000000000000000, -0.000000000000000000 ) ) ;
#920 = DIRECTION ( 'NONE',  ( -1.000000000000000000, -0.000000000000000000, -0.000000000000000000 ) ) ;
#921 = EDGE_LOOP ( 'NONE', ( #1064, #49 ) ) ;
#922 = DIRECTION ( 'NONE',  ( 1.000000000000000000, -0.000000000000000000, -0.000000000000000000 ) ) ;
#923 = CARTESIAN_POINT ( 'NONE',  ( 30.50000000000000000, 0.000000000000000000, 0.000000000000000000 ) ) ;
#924 = DIRECTION ( 'NONE',  ( 1.000000000000000000, 0.000000000000000000, 0.000000000000000000 ) ) ;
#925 = ORIENTED_EDGE ( 'NONE', *, *, #350, .T. ) ;
#926 = EDGE_CURVE ( 'NONE', #275, #258, #186, .T. ) ;
#927 = CARTESIAN_POINT ( 'NONE',  ( 0.000000000000000000, 6.110987527745293517E-16, -4.990000000000000213 ) ) ;
#928 = VECTOR ( 'NONE', #476, 1000.000000000000000 ) ;
#929 = DIRECTION ( 'NONE',  ( 0.000000000000000000, 0.000000000000000000, 1.000000000000000000 ) ) ;
#930 = FACE_OUTER_BOUND ( 'NONE', #256, .T. ) ;
#931 = CARTESIAN_POINT ( 'NONE',  ( 26.00000000000000355, 0.000000000000000000, 0.000000000000000000 ) ) ;
#932 = DIRECTION ( 'NONE',  ( 0.000000000000000000, 0.000000000000000000, 1.000000000000000000 ) ) ;
#933 = PLANE ( 'NONE',  #601 ) ;
#934 = ORIENTED_EDGE ( 'NONE', *, *, #671, .F. ) ;
#935 = DIRECTION ( 'NONE',  ( 1.000000000000000000, 0.000000000000000000, 0.000000000000000000 ) ) ;
#936 = AXIS2_PLACEMENT_3D ( 'NONE', #970, #787, #265 ) ;
#937 = AXIS2_PLACEMENT_3D ( 'NONE', #623, #1161, #884 ) ;
#938 = EDGE_LOOP ( 'NONE', ( #799, #308 ) ) ;
#939 = EDGE_CURVE ( 'NONE', #538, #1008, #813, .T. ) ;
#940 = DIRECTION ( 'NONE',  ( 0.000000000000000000, 0.000000000000000000, 1.000000000000000000 ) ) ;
#941 = DATE_AND_TIME ( #946, #215 ) ;
#942 = CARTESIAN_POINT ( 'NONE',  ( 29.50000000000000000, 0.000000000000000000, 0.000000000000000000 ) ) ;
#943 = EDGE_CURVE ( 'NONE', #541, #990, #295, .T. ) ;
#944 = ORIENTED_EDGE ( 'NONE', *, *, #398, .F. ) ;
#945 = FACE_OUTER_BOUND ( 'NONE', #947, .T. ) ;
#946 = CALENDAR_DATE ( 2026, 31, 7 ) ;
#947 = EDGE_LOOP ( 'NONE', ( #235, #1139, #997, #120, #835, #449, #69, #96 ) ) ;
#948 = CARTESIAN_POINT ( 'NONE',  ( 3.000000000000000000, 0.000000000000000000, -4.790000000000000924 ) ) ;
#949 = ORIENTED_EDGE ( 'NONE', *, *, #477, .T. ) ;
#950 = CARTESIAN_POINT ( 'NONE',  ( 0.000000000000000000, 6.110987527745298447E-16, -4.990000000000004654 ) ) ;
#951 = CARTESIAN_POINT ( 'NONE',  ( 0.000000000000000000, 0.000000000000000000, 0.000000000000000000 ) ) ;
#952 = PRODUCT_DEFINITION_SHAPE ( 'NONE', 'NONE',  #25 ) ;
#953 = EDGE_LOOP ( 'NONE', ( #193, #712 ) ) ;
#954 = DIRECTION ( 'NONE',  ( -1.000000000000000000, -0.000000000000000000, -0.000000000000000000 ) ) ;
#955 = EDGE_CURVE ( 'NONE', #903, #224, #394, .T. ) ;
#956 = EDGE_CURVE ( 'NONE', #1153, #332, #902, .T. ) ;
#957 = AXIS2_PLACEMENT_3D ( 'NONE', #891, #352, #552 ) ;
#958 = AXIS2_PLACEMENT_3D ( 'NONE', #175, #701, #1061 ) ;
#959 = AXIS2_PLACEMENT_3D ( 'NONE', #593, #778, #39 ) ;
#960 = ORIENTED_EDGE ( 'NONE', *, *, #174, .F. ) ;
#961 = VECTOR ( 'NONE', #188, 1000.000000000000000 ) ;
#962 = PERSON_AND_ORGANIZATION ( #1106, #1051 ) ;
#963 = DIRECTION ( 'NONE',  ( -1.000000000000000000, -0.000000000000000000, -0.000000000000000000 ) ) ;
#964 = EDGE_LOOP ( 'NONE', ( #1054, #1148 ) ) ;
#965 = DIRECTION ( 'NONE',  ( 0.000000000000000000, 0.000000000000000000, 1.000000000000000000 ) ) ;
#966 = DIRECTION ( 'NONE',  ( 0.000000000000000000, 0.000000000000000000, -1.000000000000000000 ) ) ;
#967 = DIRECTION ( 'NONE',  ( 0.000000000000000000, 0.000000000000000000, 1.000000000000000000 ) ) ;
#968 = DIRECTION ( 'NONE',  ( -0.000000000000000000, 0.000000000000000000, 1.000000000000000000 ) ) ;
#969 = VERTEX_POINT ( 'NONE', #1033 ) ;
#970 = CARTESIAN_POINT ( 'NONE',  ( 39.50000000000000000, 0.000000000000000000, 0.000000000000000000 ) ) ;
#971 = DIRECTION ( 'NONE',  ( 1.000000000000000000, 0.000000000000000000, 0.000000000000000000 ) ) ;
#972 = AXIS2_PLACEMENT_3D ( 'NONE', #800, #336, #807 ) ;
#973 = DIRECTION ( 'NONE',  ( -1.000000000000000000, 0.000000000000000000, -0.000000000000000000 ) ) ;
#974 = DIRECTION ( 'NONE',  ( -0.000000000000000000, 0.000000000000000000, 1.000000000000000000 ) ) ;
#975 = EDGE_CURVE ( 'NONE', #368, #546, #1027, .T. ) ;
#976 = ORIENTED_EDGE ( 'NONE', *, *, #707, .F. ) ;
#977 = ORIENTED_EDGE ( 'NONE', *, *, #211, .T. ) ;
#978 = DIRECTION ( 'NONE',  ( -1.000000000000000000, 0.000000000000000000, -0.000000000000000000 ) ) ;
#979 = CIRCLE ( 'NONE', #27, 4.990000000000001101 ) ;
#980 = VECTOR ( 'NONE', #291, 1000.000000000000000 ) ;
#981 = CARTESIAN_POINT ( 'NONE',  ( 24.00000000000000000, -1.999999999999997335, -7.218039900139097576 ) ) ;
#982 = ORIENTED_EDGE ( 'NONE', *, *, #477, .F. ) ;
#983 = DIRECTION ( 'NONE',  ( -1.000000000000000000, -0.000000000000000000, -0.000000000000000000 ) ) ;
#984 = PERSON_AND_ORGANIZATION_ROLE ( 'design_supplier' ) ;
#985 = EDGE_CURVE ( 'NONE', #994, #916, #858, .T. ) ;
#986 = DIRECTION ( 'NONE',  ( 0.000000000000000000, 0.000000000000000000, -1.000000000000000000 ) ) ;
#987 = VERTEX_POINT ( 'NONE', #849 ) ;
#988 = CARTESIAN_POINT ( 'NONE',  ( 4.000000000000000000, 0.000000000000000000, 4.790000000000001812 ) ) ;
#989 = CARTESIAN_POINT ( 'NONE',  ( 30.50000000000000000, 0.000000000000000000, -4.990000000000004654 ) ) ;
#990 = VERTEX_POINT ( 'NONE', #199 ) ;
#991 = COORDINATED_UNIVERSAL_TIME_OFFSET ( 3, 30, .AHEAD. ) ;
#992 = EDGE_LOOP ( 'NONE', ( #19, #762 ) ) ;
#993 = LINE ( 'NONE', #443, #11 ) ;
#994 = VERTEX_POINT ( 'NONE', #103 ) ;
#995 = FACE_BOUND ( 'NONE', #953, .T. ) ;
#996 = CARTESIAN_POINT ( 'NONE',  ( 14.00000000000000000, 2.000000000000002665, 7.228416147400479552 ) ) ;
#997 = ORIENTED_EDGE ( 'NONE', *, *, #271, .T. ) ;
#998 = CALENDAR_DATE ( 2026, 31, 7 ) ;
#999 = EDGE_CURVE ( 'NONE', #332, #690, #194, .T. ) ;
#1000 = DIRECTION ( 'NONE',  ( -1.000000000000000000, -0.000000000000000000, -0.000000000000000000 ) ) ;
#1001 = APPROVAL ( #519, 'UNSPECIFIED' ) ;
#1002 = LOCAL_TIME ( 13, 49, 5.000000000000000000, #991 ) ;
#1003 = DIRECTION ( 'NONE',  ( -1.000000000000000000, -0.000000000000000000, -0.000000000000000000 ) ) ;
#1004 = CARTESIAN_POINT ( 'NONE',  ( 4.000000000000000000, 5.866058167915824404E-16, -4.790000000000001812 ) ) ;
#1005 = PERSON_AND_ORGANIZATION_ROLE ( 'classification_officer' ) ;
#1006 = EDGE_CURVE ( 'NONE', #451, #894, #303, .T. ) ;
#1007 = AXIS2_PLACEMENT_3D ( 'NONE', #1165, #1156, #157 ) ;
#1008 = VERTEX_POINT ( 'NONE', #649 ) ;
#1009 = CARTESIAN_POINT ( 'NONE',  ( 29.50000000000000000, 0.000000000000000000, 0.000000000000000000 ) ) ;
#1010 = AXIS2_PLACEMENT_3D ( 'NONE', #312, #426, #52 ) ;
#1011 = CARTESIAN_POINT ( 'NONE',  ( 14.00000000000000000, 0.000000000000000000, 0.000000000000000000 ) ) ;
#1012 = CARTESIAN_POINT ( 'NONE',  ( 4.000000000000000000, 0.000000000000000000, 0.000000000000000000 ) ) ;
#1013 = VERTEX_POINT ( 'NONE', #389 ) ;
#1014 = FACE_OUTER_BOUND ( 'NONE', #335, .T. ) ;
#1015 = CARTESIAN_POINT ( 'NONE',  ( 4.000000000000000000, 0.000000000000000000, 0.000000000000000000 ) ) ;
#1016 = CARTESIAN_POINT ( 'NONE',  ( 24.00000000000000000, 2.000000000000002665, 7.218039900139096687 ) ) ;
#1017 = ORIENTED_EDGE ( 'NONE', *, *, #594, .T. ) ;
#1018 = DIRECTION ( 'NONE',  ( 0.000000000000000000, 0.000000000000000000, 1.000000000000000000 ) ) ;
#1019 = EDGE_CURVE ( 'NONE', #865, #612, #1022, .T. ) ;
#1020 = CARTESIAN_POINT ( 'NONE',  ( 113.3000000000000114, 2.000000000000000000, -4.582575694955840717 ) ) ;
#1021 = DIRECTION ( 'NONE',  ( 0.000000000000000000, 0.000000000000000000, 1.000000000000000000 ) ) ;
#1022 = CIRCLE ( 'NONE', #491, 4.990000000000004654 ) ;
#1023 = AXIS2_PLACEMENT_3D ( 'NONE', #86, #983, #867 ) ;
#1024 = EDGE_CURVE ( 'NONE', #275, #613, #30, .T. ) ;
#1025 = CARTESIAN_POINT ( 'NONE',  ( 24.00000000000000000, 0.000000000000000000, 0.000000000000000000 ) ) ;
#1026 = CIRCLE ( 'NONE', #218, 4.790000000000006253 ) ;
#1027 = CIRCLE ( 'NONE', #597, 7.490000000000001990 ) ;
#1028 = VECTOR ( 'NONE', #748, 1000.000000000000000 ) ;
#1029 = EDGE_CURVE ( 'NONE', #451, #1008, #209, .T. ) ;
#1030 = DIRECTION ( 'NONE',  ( -1.000000000000000000, -0.000000000000000000, -0.000000000000000000 ) ) ;
#1031 = CARTESIAN_POINT ( 'NONE',  ( 103.3000000000000114, 0.000000000000000000, 0.000000000000000000 ) ) ;
#1032 = ORIENTED_EDGE ( 'NONE', *, *, #918, .F. ) ;
#1033 = CARTESIAN_POINT ( 'NONE',  ( 3.000000000000000000, 5.866058167915823418E-16, -4.790000000000000924 ) ) ;
#1034 = ORIENTED_EDGE ( 'NONE', *, *, #228, .T. ) ;
#1035 = CARTESIAN_POINT ( 'NONE',  ( 14.00000000000000000, -1.999999999999997335, 4.571662717217885863 ) ) ;
#1036 = ADVANCED_FACE ( 'NONE', ( #1014 ), #933, .F. ) ;
#1037 = DIRECTION ( 'NONE',  ( -1.000000000000000000, -0.000000000000000000, -0.000000000000000000 ) ) ;
#1038 = CIRCLE ( 'NONE', #715, 4.990000000000004654 ) ;
#1039 = VERTEX_POINT ( 'NONE', #481 ) ;
#1040 = CARTESIAN_POINT ( 'NONE',  ( 38.50000000000000000, 0.000000000000000000, 4.790000000000006253 ) ) ;
#1041 = FACE_OUTER_BOUND ( 'NONE', #51, .T. ) ;
#1042 = CARTESIAN_POINT ( 'NONE',  ( 0.000000000000000000, 0.000000000000000000, 0.000000000000000000 ) ) ;
#1043 = EDGE_LOOP ( 'NONE', ( #793, #618, #393, #680 ) ) ;
#1044 = FACE_OUTER_BOUND ( 'NONE', #408, .T. ) ;
#1045 = EDGE_LOOP ( 'NONE', ( #365, #74 ) ) ;
#1046 = DIRECTION ( 'NONE',  ( -0.000000000000000000, 0.000000000000000000, 1.000000000000000000 ) ) ;
#1047 = ORIENTED_EDGE ( 'NONE', *, *, #395, .T. ) ;
#1048 = LINE ( 'NONE', #777, #556 ) ;
#1049 =( NAMED_UNIT ( * ) PLANE_ANGLE_UNIT ( ) SI_UNIT ( $, .RADIAN. ) );
#1050 = VERTEX_POINT ( 'NONE', #496 ) ;
#1051 = ORGANIZATION ( 'UNSPECIFIED', 'UNSPECIFIED', '' ) ;
#1052 = DIRECTION ( 'NONE',  ( -1.000000000000000000, -0.000000000000000000, -0.000000000000000000 ) ) ;
#1053 = ADVANCED_FACE ( 'NONE', ( #406 ), #474, .T. ) ;
#1054 = ORIENTED_EDGE ( 'NONE', *, *, #1006, .T. ) ;
#1055 = ORIENTED_EDGE ( 'NONE', *, *, #337, .T. ) ;
#1056 = VECTOR ( 'NONE', #688, 1000.000000000000000 ) ;
#1057 = CARTESIAN_POINT ( 'NONE',  ( 14.00000000000000000, 0.000000000000000000, 0.000000000000000000 ) ) ;
#1058 = DIRECTION ( 'NONE',  ( 1.000000000000000000, 0.000000000000000000, 0.000000000000000000 ) ) ;
#1059 = CARTESIAN_POINT ( 'NONE',  ( 103.3000000000000114, 0.000000000000000000, 0.000000000000000000 ) ) ;
#1060 = EDGE_LOOP ( 'NONE', ( #315, #354 ) ) ;
#1061 = DIRECTION ( 'NONE',  ( 0.000000000000000000, -0.000000000000000000, -1.000000000000000000 ) ) ;
#1062 = CARTESIAN_POINT ( 'NONE',  ( 4.000000000000000000, 0.000000000000000000, 4.990000000000001101 ) ) ;
#1063 = FACE_BOUND ( 'NONE', #90, .T. ) ;
#1064 = ORIENTED_EDGE ( 'NONE', *, *, #14, .F. ) ;
#1065 = UNCERTAINTY_MEASURE_WITH_UNIT (LENGTH_MEASURE( 1.000000000000000082E-05 ), #689, 'distance_accuracy_value', 'NONE');
#1066 = EDGE_LOOP ( 'NONE', ( #173, #854, #216, #125, #1047, #272, #155, #40 ) ) ;
#1067 = ORIENTED_EDGE ( 'NONE', *, *, #610, .T. ) ;
#1068 = DIRECTION ( 'NONE',  ( -1.000000000000000000, -0.000000000000000000, -0.000000000000000000 ) ) ;
#1069 = DIRECTION ( 'NONE',  ( -0.000000000000000000, 0.000000000000000000, -1.000000000000000000 ) ) ;
#1070 = CC_DESIGN_APPROVAL ( #1001, ( #657 ) ) ;
#1071 = ORIENTED_EDGE ( 'NONE', *, *, #171, .T. ) ;
#1072 = CARTESIAN_POINT ( 'NONE',  ( 39.50000000000000711, 0.000000000000000000, 0.000000000000000000 ) ) ;
#1073 = VECTOR ( 'NONE', #369, 1000.000000000000000 ) ;
#1074 = DIRECTION ( 'NONE',  ( -1.000000000000000000, -0.000000000000000000, -0.000000000000000000 ) ) ;
#1075 = ORIENTED_EDGE ( 'NONE', *, *, #211, .F. ) ;
#1076 = AXIS2_PLACEMENT_3D ( 'NONE', #989, #971, #710 ) ;
#1077 = DIRECTION ( 'NONE',  ( -1.000000000000000000, -0.000000000000000000, -0.000000000000000000 ) ) ;
#1078 = FACE_OUTER_BOUND ( 'NONE', #896, .T. ) ;
#1079 = DIRECTION ( 'NONE',  ( 1.000000000000000000, 0.000000000000000000, 0.000000000000000000 ) ) ;
#1080 = ORIENTED_EDGE ( 'NONE', *, *, #350, .F. ) ;
#1081 = APPROVAL_STATUS ( 'not_yet_approved' ) ;
#1082 = EDGE_LOOP ( 'NONE', ( #430, #1157, #1137, #886, #560, #508 ) ) ;
#1083 = FACE_OUTER_BOUND ( 'NONE', #230, .T. ) ;
#1084 = DIRECTION ( 'NONE',  ( -0.000000000000000000, -0.000000000000000000, -1.000000000000000000 ) ) ;
#1085 = DIRECTION ( 'NONE',  ( -1.000000000000000000, -0.000000000000000000, -0.000000000000000000 ) ) ;
#1086 = ORIENTED_EDGE ( 'NONE', *, *, #117, .T. ) ;
#1087 = DATE_TIME_ROLE ( 'classification_date' ) ;
#1088 = ORIENTED_EDGE ( 'NONE', *, *, #825, .F. ) ;
#1089 = CARTESIAN_POINT ( 'NONE',  ( 30.50000000000000000, 0.000000000000000000, 4.990000000000004654 ) ) ;
#1090 = APPLICATION_CONTEXT ( 'configuration controlled 3d designs of mechanical parts and assemblies' ) ;
#1091 = AXIS2_PLACEMENT_3D ( 'NONE', #683, #132, #967 ) ;
#1092 = CARTESIAN_POINT ( 'NONE',  ( 14.00000000000000000, 0.000000000000000000, 0.000000000000000000 ) ) ;
#1093 = DIRECTION ( 'NONE',  ( -1.000000000000000000, -0.000000000000000000, -0.000000000000000000 ) ) ;
#1094 = APPROVAL_ROLE ( '' ) ;
#1095 = VECTOR ( 'NONE', #735, 1000.000000000000000 ) ;
#1096 = AXIS2_PLACEMENT_3D ( 'NONE', #71, #808, #789 ) ;
#1097 = ORIENTED_EDGE ( 'NONE', *, *, #1118, .T. ) ;
#1098 = CARTESIAN_POINT ( 'NONE',  ( 14.00000000000000000, -1.999999999999997335, 7.228416147400479552 ) ) ;
#1099 = CARTESIAN_POINT ( 'NONE',  ( 39.50000000000000711, 0.000000000000000000, 0.000000000000000000 ) ) ;
#1100 = CARTESIAN_POINT ( 'NONE',  ( 30.50000000000000000, 0.000000000000000000, 0.000000000000000000 ) ) ;
#1101 = ORIENTED_EDGE ( 'NONE', *, *, #647, .F. ) ;
#1102 = CARTESIAN_POINT ( 'NONE',  ( 24.00000000000000000, 0.000000000000000000, 0.000000000000000000 ) ) ;
#1103 = DIRECTION ( 'NONE',  ( 0.000000000000000000, 0.000000000000000000, 1.000000000000000000 ) ) ;
#1104 = ADVANCED_FACE ( 'NONE', ( #743 ), #118, .T. ) ;
#1105 = LINE ( 'NONE', #8, #1028 ) ;
#1106 = PERSON ( 'UNSPECIFIED', 'UNSPECIFIED', 'UNSPECIFIED', ('UNSPECIFIED'), ('UNSPECIFIED'), ('UNSPECIFIED') ) ;
#1107 = ORIENTED_EDGE ( 'NONE', *, *, #985, .F. ) ;
#1108 = CARTESIAN_POINT ( 'NONE',  ( 0.000000000000000000, 5.866058167915829334E-16, -4.790000000000006253 ) ) ;
#1109 = CARTESIAN_POINT ( 'NONE',  ( 14.00000000000000000, 0.000000000000000000, 4.990000000000001101 ) ) ;
#1110 = AXIS2_PLACEMENT_3D ( 'NONE', #232, #1121, #1130 ) ;
#1111 = AXIS2_PLACEMENT_3D ( 'NONE', #466, #1077, #817 ) ;
#1112 = FACE_OUTER_BOUND ( 'NONE', #544, .T. ) ;
#1113 = AXIS2_PLACEMENT_3D ( 'NONE', #1099, #919, #223 ) ;
#1114 = APPROVAL_PERSON_ORGANIZATION ( #34, #506, #677 ) ;
#1115 = AXIS2_PLACEMENT_3D ( 'NONE', #1012, #101, #387 ) ;
#1116 = AXIS2_PLACEMENT_3D ( 'NONE', #3, #288, #121 ) ;
#1117 = CARTESIAN_POINT ( 'NONE',  ( 0.000000000000000000, -2.000000000000000000, 4.571662717217892968 ) ) ;
#1118 = EDGE_CURVE ( 'NONE', #632, #425, #575, .T. ) ;
#1119 = EDGE_CURVE ( 'NONE', #903, #822, #862, .T. ) ;
#1120 = EDGE_LOOP ( 'NONE', ( #136, #70 ) ) ;
#1121 = DIRECTION ( 'NONE',  ( 1.000000000000000000, 0.000000000000000000, 0.000000000000000000 ) ) ;
#1122 = CARTESIAN_POINT ( 'NONE',  ( 113.3000000000000114, 2.000000000000000000, 4.571662717217892968 ) ) ;
#1123 = ORIENTED_EDGE ( 'NONE', *, *, #455, .F. ) ;
#1124 = DIRECTION ( 'NONE',  ( 1.000000000000000000, 0.000000000000000000, 0.000000000000000000 ) ) ;
#1125 = CARTESIAN_POINT ( 'NONE',  ( 38.50000000000000000, 0.000000000000000000, 0.000000000000000000 ) ) ;
#1126 = VECTOR ( 'NONE', #50, 1000.000000000000000 ) ;
#1127 = AXIS2_PLACEMENT_3D ( 'NONE', #434, #217, #940 ) ;
#1128 = ORIENTED_EDGE ( 'NONE', *, *, #147, .F. ) ;
#1129 = DIRECTION ( 'NONE',  ( -1.000000000000000000, -0.000000000000000000, -0.000000000000000000 ) ) ;
#1130 = DIRECTION ( 'NONE',  ( 0.000000000000000000, 0.000000000000000000, -1.000000000000000000 ) ) ;
#1131 = EDGE_CURVE ( 'NONE', #871, #987, #750, .T. ) ;
#1132 = ORIENTED_EDGE ( 'NONE', *, *, #1024, .T. ) ;
#1133 = FACE_OUTER_BOUND ( 'NONE', #1082, .T. ) ;
#1134 = ORIENTED_EDGE ( 'NONE', *, *, #707, .T. ) ;
#1135 = PLANE ( 'NONE',  #1010 ) ;
#1136 = CALENDAR_DATE ( 2026, 31, 7 ) ;
#1137 = ORIENTED_EDGE ( 'NONE', *, *, #384, .T. ) ;
#1138 = DIRECTION ( 'NONE',  ( -1.000000000000000000, 0.000000000000000000, 0.000000000000000000 ) ) ;
#1139 = ORIENTED_EDGE ( 'NONE', *, *, #1119, .T. ) ;
#1140 = LINE ( 'NONE', #950, #791 ) ;
#1141 = CYLINDRICAL_SURFACE ( 'NONE', #1091, 4.790000000000000924 ) ;
#1142 = AXIS2_PLACEMENT_3D ( 'NONE', #1102, #20, #26 ) ;
#1143 = PLANE ( 'NONE',  #44 ) ;
#1144 = AXIS2_PLACEMENT_3D ( 'NONE', #948, #792, #1046 ) ;
#1145 = ORIENTED_EDGE ( 'NONE', *, *, #679, .F. ) ;
#1146 = DIRECTION ( 'NONE',  ( 0.000000000000000000, 0.000000000000000000, 1.000000000000000000 ) ) ;
#1147 = CARTESIAN_POINT ( 'NONE',  ( 0.000000000000000000, 0.000000000000000000, 0.000000000000000000 ) ) ;
#1148 = ORIENTED_EDGE ( 'NONE', *, *, #626, .T. ) ;
#1149 = DIRECTION ( 'NONE',  ( 0.000000000000000000, -0.000000000000000000, 1.000000000000000000 ) ) ;
#1150 = ADVANCED_FACE ( 'NONE', ( #1112 ), #236, .F. ) ;
#1151 = DIRECTION ( 'NONE',  ( 0.000000000000000000, 0.000000000000000000, 1.000000000000000000 ) ) ;
#1152 = DIRECTION ( 'NONE',  ( -1.000000000000000000, -0.000000000000000000, -0.000000000000000000 ) ) ;
#1153 = VERTEX_POINT ( 'NONE', #609 ) ;
#1154 = ADVANCED_FACE ( 'NONE', ( #1041 ), #1141, .T. ) ;
#1155 = FACE_OUTER_BOUND ( 'NONE', #814, .T. ) ;
#1156 = DIRECTION ( 'NONE',  ( -1.000000000000000000, -0.000000000000000000, -0.000000000000000000 ) ) ;
#1157 = ORIENTED_EDGE ( 'NONE', *, *, #462, .F. ) ;
#1158 = COORDINATED_UNIVERSAL_TIME_OFFSET ( 3, 30, .AHEAD. ) ;
#1159 = EDGE_CURVE ( 'NONE', #535, #549, #432, .T. ) ;
#1160 = VERTEX_POINT ( 'NONE', #60 ) ;
#1161 = DIRECTION ( 'NONE',  ( -1.000000000000000000, -0.000000000000000000, -0.000000000000000000 ) ) ;
#1162 = ORIENTED_EDGE ( 'NONE', *, *, #1019, .F. ) ;
#1163 = PLANE ( 'NONE',  #317 ) ;
#1164 = AXIS2_PLACEMENT_3D ( 'NONE', #31, #467, #407 ) ;
#1165 = CARTESIAN_POINT ( 'NONE',  ( 14.00000000000000000, 0.000000000000000000, 0.000000000000000000 ) ) ;
#1166 = ORIENTED_EDGE ( 'NONE', *, *, #271, .F. ) ;
#1167 = AXIS2_PLACEMENT_3D ( 'NONE', #440, #815, #1174 ) ;
#1168 = PERSON_AND_ORGANIZATION ( #1106, #1051 ) ;
#1169 = AXIS2_PLACEMENT_3D ( 'NONE', #116, #924, #396 ) ;
#1170 = ORIENTED_EDGE ( 'NONE', *, *, #766, .T. ) ;
#1171 = DIRECTION ( 'NONE',  ( -1.000000000000000000, -0.000000000000000000, -0.000000000000000000 ) ) ;
#1172 = DIRECTION ( 'NONE',  ( -1.000000000000000000, -0.000000000000000000, -0.000000000000000000 ) ) ;
#1173 = ADVANCED_FACE ( 'NONE', ( #330 ), #760, .T. ) ;
#1174 = DIRECTION ( 'NONE',  ( 0.000000000000000000, 0.000000000000000000, 1.000000000000000000 ) ) ;
#1175 = ORIENTED_EDGE ( 'NONE', *, *, #671, .T. ) ;
#1176 = EDGE_LOOP ( 'NONE', ( #494, #328, #851, #257 ) ) ;
#1177 = CARTESIAN_POINT ( 'NONE',  ( 14.00000000000000000, 0.000000000000000000, 0.000000000000000000 ) ) ;
ENDSEC;
END-ISO-10303-21;
