ISO-10303-21;
HEADER;
FILE_DESCRIPTION (( 'STEP AP203' ),
    '1' );
FILE_NAME ('Link3Body_Default_sldprt.STEP',
    '2026-07-31T10:19:04',
    ( '' ),
    ( '' ),
    'SwSTEP 2.0',
    'SolidWorks 2025',
    '' );
FILE_SCHEMA (( 'CONFIG_CONTROL_DESIGN' ));
ENDSEC;

DATA;
#1 = ADVANCED_FACE ( 'NONE', ( #1213 ), #617, .F. ) ;
#2 = CARTESIAN_POINT ( 'NONE',  ( 11.76470588235294024, -22.05882352941176450, 20.00000000000000000 ) ) ;
#3 = VERTEX_POINT ( 'NONE', #2 ) ;
#4 = ORIENTED_EDGE ( 'NONE', *, *, #238, .T. ) ;
#5 = LINE ( 'NONE', #341, #1266 ) ;
#6 = CIRCLE ( 'NONE', #1212, 25.00000000000000000 ) ;
#7 = DIRECTION ( 'NONE',  ( -1.000000000000000000, 0.000000000000000000, -0.000000000000000000 ) ) ;
#8 = AXIS2_PLACEMENT_3D ( 'NONE', #98, #1294, #809 ) ;
#9 = ADVANCED_FACE ( 'NONE', ( #713 ), #896, .F. ) ;
#10 = EDGE_LOOP ( 'NONE', ( #224, #618, #1216, #414, #287, #781, #438 ) ) ;
#11 = VECTOR ( 'NONE', #944, 1000.000000000000000 ) ;
#12 = PERSON_AND_ORGANIZATION_ROLE ( 'design_supplier' ) ;
#13 = EDGE_CURVE ( 'NONE', #43, #514, #317, .T. ) ;
#14 = DIRECTION ( 'NONE',  ( -0.000000000000000000, -1.000000000000000000, 0.000000000000000000 ) ) ;
#15 = DIRECTION ( 'NONE',  ( 1.000000000000000000, 0.000000000000000000, 0.000000000000000000 ) ) ;
#16 = VECTOR ( 'NONE', #471, 1000.000000000000000 ) ;
#17 = ORIENTED_EDGE ( 'NONE', *, *, #641, .T. ) ;
#18 = CARTESIAN_POINT ( 'NONE',  ( 0.000000000000000000, 0.000000000000000000, 20.00000000000000000 ) ) ;
#19 = ADVANCED_FACE ( 'NONE', ( #1109 ), #811, .F. ) ;
#20 = CARTESIAN_POINT ( 'NONE',  ( -25.00000000000000000, 0.000000000000000000, 210.0000000000000284 ) ) ;
#21 = ORIENTED_EDGE ( 'NONE', *, *, #722, .F. ) ;
#22 = EDGE_LOOP ( 'NONE', ( #326, #125, #90, #391 ) ) ;
#23 = EDGE_LOOP ( 'NONE', ( #592, #1113, #473, #1164 ) ) ;
#24 = ADVANCED_FACE ( 'NONE', ( #606 ), #815, .F. ) ;
#25 = FACE_OUTER_BOUND ( 'NONE', #720, .T. ) ;
#26 = EDGE_CURVE ( 'NONE', #1268, #1093, #274, .T. ) ;
#27 = EDGE_LOOP ( 'NONE', ( #111, #1019, #721, #488 ) ) ;
#28 = CARTESIAN_POINT ( 'NONE',  ( 50.00000000000001421, 93.75000000000009948, 210.0000000000000284 ) ) ;
#29 = CARTESIAN_POINT ( 'NONE',  ( 2.000000000000000000, -7.228416147400480440, 20.00000000000000000 ) ) ;
#30 = CARTESIAN_POINT ( 'NONE',  ( 2.000000000000000000, -4.582575694955840717, 244.1421356237309794 ) ) ;
#31 = VECTOR ( 'NONE', #1119, 1000.000000000000000 ) ;
#32 = FACE_OUTER_BOUND ( 'NONE', #27, .T. ) ;
#33 = DIRECTION ( 'NONE',  ( -1.000000000000000000, 2.168404344971008868E-16, 0.000000000000000000 ) ) ;
#34 = ORIENTED_EDGE ( 'NONE', *, *, #664, .F. ) ;
#35 = CIRCLE ( 'NONE', #522, 25.00000000000000000 ) ;
#36 = VECTOR ( 'NONE', #1299, 1000.000000000000000 ) ;
#37 = FACE_OUTER_BOUND ( 'NONE', #1222, .T. ) ;
#38 = VECTOR ( 'NONE', #282, 1000.000000000000000 ) ;
#39 = DIRECTION ( 'NONE',  ( -0.000000000000000000, -0.000000000000000000, -1.000000000000000000 ) ) ;
#40 = DIRECTION ( 'NONE',  ( 1.000000000000000000, 0.000000000000000000, 0.000000000000000000 ) ) ;
#41 = CALENDAR_DATE ( 2026, 31, 7 ) ;
#42 = DIRECTION ( 'NONE',  ( 0.000000000000000000, 0.000000000000000000, 1.000000000000000000 ) ) ;
#43 = VERTEX_POINT ( 'NONE', #601 ) ;
#44 = LINE ( 'NONE', #378, #548 ) ;
#45 = EDGE_CURVE ( 'NONE', #381, #1096, #1134, .T. ) ;
#46 = DIRECTION ( 'NONE',  ( 1.000000000000000000, 0.000000000000000000, 0.000000000000000000 ) ) ;
#47 = MECHANICAL_CONTEXT ( 'NONE', #707, 'mechanical' ) ;
#48 = FACE_OUTER_BOUND ( 'NONE', #491, .T. ) ;
#49 = CC_DESIGN_APPROVAL ( #738, ( #582 ) ) ;
#50 = CARTESIAN_POINT ( 'NONE',  ( 90.00000000000000000, 0.000000000000000000, 20.00000000000000000 ) ) ;
#51 = VECTOR ( 'NONE', #578, 1000.000000000000000 ) ;
#52 = ORIENTED_EDGE ( 'NONE', *, *, #283, .T. ) ;
#53 = CC_DESIGN_PERSON_AND_ORGANIZATION_ASSIGNMENT ( #850, #1020, ( #1036 ) ) ;
#54 = AXIS2_PLACEMENT_3D ( 'NONE', #1079, #272, #463 ) ;
#55 = AXIS2_PLACEMENT_3D ( 'NONE', #276, #853, #648 ) ;
#56 = CARTESIAN_POINT ( 'NONE',  ( 11.76470588235293668, 22.05882352941176805, 20.00000000000000000 ) ) ;
#57 = DIRECTION ( 'NONE',  ( 0.000000000000000000, -1.000000000000000000, -0.000000000000000000 ) ) ;
#58 = PERSON_AND_ORGANIZATION_ROLE ( 'creator' ) ;
#59 = LINE ( 'NONE', #963, #38 ) ;
#60 = FACE_OUTER_BOUND ( 'NONE', #1126, .T. ) ;
#61 = AXIS2_PLACEMENT_3D ( 'NONE', #50, #1185, #880 ) ;
#62 = ADVANCED_FACE ( 'NONE', ( #997 ), #96, .F. ) ;
#63 = LINE ( 'NONE', #1082, #320 ) ;
#64 = EDGE_CURVE ( 'NONE', #1122, #239, #937, .T. ) ;
#65 = LINE ( 'NONE', #905, #961 ) ;
#66 = CARTESIAN_POINT ( 'NONE',  ( 2.000000000000000000, -4.582575694955840717, -14.14213562373095279 ) ) ;
#67 = DIRECTION ( 'NONE',  ( 1.000000000000000000, 2.168404344971008868E-16, -0.000000000000000000 ) ) ;
#68 = ORIENTED_EDGE ( 'NONE', *, *, #778, .T. ) ;
#69 = ORIENTED_EDGE ( 'NONE', *, *, #1239, .F. ) ;
#70 = CARTESIAN_POINT ( 'NONE',  ( 90.00000000000000000, -12.49999999999999822, 210.0000000000000284 ) ) ;
#71 = EDGE_CURVE ( 'NONE', #687, #725, #509, .T. ) ;
#72 = ORIENTED_EDGE ( 'NONE', *, *, #1238, .T. ) ;
#73 = FACE_OUTER_BOUND ( 'NONE', #1041, .T. ) ;
#74 = DIRECTION ( 'NONE',  ( -0.000000000000000000, -0.000000000000000000, 1.000000000000000000 ) ) ;
#75 = DIRECTION ( 'NONE',  ( -0.000000000000000000, -0.000000000000000000, -1.000000000000000000 ) ) ;
#76 = VERTEX_POINT ( 'NONE', #427 ) ;
#77 = AXIS2_PLACEMENT_3D ( 'NONE', #718, #1197, #113 ) ;
#78 = AXIS2_PLACEMENT_3D ( 'NONE', #281, #1270, #782 ) ;
#79 = DIRECTION ( 'NONE',  ( 0.000000000000000000, 0.000000000000000000, 1.000000000000000000 ) ) ;
#80 = EDGE_LOOP ( 'NONE', ( #184, #551, #518, #112 ) ) ;
#81 = LINE ( 'NONE', #502, #36 ) ;
#82 = SHAPE_DEFINITION_REPRESENTATION ( #946, #686 ) ;
#83 = CARTESIAN_POINT ( 'NONE',  ( 50.00000000000000000, -93.75000000000008527, 210.0000000000000284 ) ) ;
#84 = EDGE_LOOP ( 'NONE', ( #388, #790, #1140, #284, #885, #726, #818 ) ) ;
#85 = DIRECTION ( 'NONE',  ( -0.000000000000000000, -0.000000000000000000, 1.000000000000000000 ) ) ;
#86 = ORIENTED_EDGE ( 'NONE', *, *, #854, .T. ) ;
#87 = ORIENTED_EDGE ( 'NONE', *, *, #313, .F. ) ;
#88 = LINE ( 'NONE', #200, #1076 ) ;
#89 = ORIENTED_EDGE ( 'NONE', *, *, #264, .F. ) ;
#90 = ORIENTED_EDGE ( 'NONE', *, *, #384, .F. ) ;
#91 = LINE ( 'NONE', #706, #775 ) ;
#92 = CC_DESIGN_PERSON_AND_ORGANIZATION_ASSIGNMENT ( #828, #267, ( #291 ) ) ;
#93 = DIRECTION ( 'NONE',  ( -0.000000000000000000, -0.000000000000000000, 1.000000000000000000 ) ) ;
#94 = DIRECTION ( 'NONE',  ( -2.168404344971008868E-16, -1.000000000000000000, 0.000000000000000000 ) ) ;
#95 = ORIENTED_EDGE ( 'NONE', *, *, #934, .T. ) ;
#96 = CYLINDRICAL_SURFACE ( 'NONE', #499, 5.000000000000000000 ) ;
#97 = VERTEX_POINT ( 'NONE', #904 ) ;
#98 = CARTESIAN_POINT ( 'NONE',  ( 0.000000000000000000, 0.000000000000000000, 245.5241746962600473 ) ) ;
#99 = EDGE_CURVE ( 'NONE', #1096, #978, #1296, .T. ) ;
#100 = ORIENTED_EDGE ( 'NONE', *, *, #501, .T. ) ;
#101 = VECTOR ( 'NONE', #932, 1000.000000000000000 ) ;
#102 = DIRECTION ( 'NONE',  ( 0.000000000000000000, 0.000000000000000000, -1.000000000000000000 ) ) ;
#103 = DIRECTION ( 'NONE',  ( -0.000000000000000000, -0.000000000000000000, -1.000000000000000000 ) ) ;
#104 = AXIS2_PLACEMENT_3D ( 'NONE', #1178, #1166, #174 ) ;
#105 = VECTOR ( 'NONE', #931, 1000.000000000000000 ) ;
#106 = ORIENTED_EDGE ( 'NONE', *, *, #612, .T. ) ;
#107 = VECTOR ( 'NONE', #1085, 1000.000000000000000 ) ;
#108 = EDGE_CURVE ( 'NONE', #486, #43, #1118, .T. ) ;
#109 = DIRECTION ( 'NONE',  ( 1.000000000000000000, 0.000000000000000000, 0.000000000000000000 ) ) ;
#110 = DIRECTION ( 'NONE',  ( -1.000000000000000000, 0.000000000000000000, 0.000000000000000000 ) ) ;
#111 = ORIENTED_EDGE ( 'NONE', *, *, #603, .T. ) ;
#112 = ORIENTED_EDGE ( 'NONE', *, *, #1150, .F. ) ;
#113 = DIRECTION ( 'NONE',  ( 1.000000000000000000, 0.000000000000000000, 0.000000000000000000 ) ) ;
#114 = ADVANCED_FACE ( 'NONE', ( #524 ), #724, .T. ) ;
#115 = VERTEX_POINT ( 'NONE', #432 ) ;
#116 = ORIENTED_EDGE ( 'NONE', *, *, #1144, .T. ) ;
#117 = APPROVAL_ROLE ( '' ) ;
#118 = CARTESIAN_POINT ( 'NONE',  ( 1.999999999999999112, -4.582575694955839829, 20.00000000000000000 ) ) ;
#119 = VECTOR ( 'NONE', #1051, 1000.000000000000000 ) ;
#120 = VERTEX_POINT ( 'NONE', #1219 ) ;
#121 = CARTESIAN_POINT ( 'NONE',  ( -2.000000000000000000, 7.228416147400480440, 210.0000000000000284 ) ) ;
#122 = VECTOR ( 'NONE', #858, 1000.000000000000000 ) ;
#123 = EDGE_LOOP ( 'NONE', ( #181, #1035, #529, #69 ) ) ;
#124 = ADVANCED_FACE ( 'NONE', ( #330 ), #437, .F. ) ;
#125 = ORIENTED_EDGE ( 'NONE', *, *, #537, .T. ) ;
#126 = ORIENTED_EDGE ( 'NONE', *, *, #1052, .T. ) ;
#127 = APPLICATION_PROTOCOL_DEFINITION ( 'international standard', 'config_control_design', 1994, #1094 ) ;
#128 = PLANE ( 'NONE',  #366 ) ;
#129 = LINE ( 'NONE', #1172, #1217 ) ;
#130 = ORIENTED_EDGE ( 'NONE', *, *, #1014, .F. ) ;
#131 = CARTESIAN_POINT ( 'NONE',  ( 0.000000000000000000, 0.000000000000000000, 230.0000000000000000 ) ) ;
#132 = ORIENTED_EDGE ( 'NONE', *, *, #1282, .T. ) ;
#133 = FACE_BOUND ( 'NONE', #827, .T. ) ;
#134 = ADVANCED_FACE ( 'NONE', ( #221 ), #624, .F. ) ;
#135 = ADVANCED_FACE ( 'NONE', ( #350 ), #1039, .T. ) ;
#136 = CARTESIAN_POINT ( 'NONE',  ( 0.000000000000000000, 0.000000000000000000, 0.000000000000000000 ) ) ;
#137 = DIRECTION ( 'NONE',  ( 0.000000000000000000, 0.000000000000000000, 1.000000000000000000 ) ) ;
#138 = EDGE_LOOP ( 'NONE', ( #188, #1070, #489, #926 ) ) ;
#139 = DIRECTION ( 'NONE',  ( -0.000000000000000000, -0.000000000000000000, 1.000000000000000000 ) ) ;
#140 = DIRECTION ( 'NONE',  ( 0.000000000000000000, 0.000000000000000000, -1.000000000000000000 ) ) ;
#141 = EDGE_CURVE ( 'NONE', #1210, #978, #739, .T. ) ;
#142 = DIRECTION ( 'NONE',  ( 0.000000000000000000, 0.000000000000000000, -1.000000000000000000 ) ) ;
#143 = AXIS2_PLACEMENT_3D ( 'NONE', #213, #824, #202 ) ;
#144 = DIRECTION ( 'NONE',  ( 1.000000000000000000, 0.000000000000000000, 0.000000000000000000 ) ) ;
#145 = ORIENTED_EDGE ( 'NONE', *, *, #1180, .T. ) ;
#146 = CARTESIAN_POINT ( 'NONE',  ( -1.999999999999999556, 4.582575694955840717, 210.0000000000000284 ) ) ;
#147 = VECTOR ( 'NONE', #1007, 1000.000000000000000 ) ;
#148 = VECTOR ( 'NONE', #1198, 1000.000000000000000 ) ;
#149 = CIRCLE ( 'NONE', #1032, 5.000000000000000000 ) ;
#150 = LINE ( 'NONE', #344, #1263 ) ;
#151 = DIRECTION ( 'NONE',  ( 0.000000000000000000, 0.000000000000000000, -1.000000000000000000 ) ) ;
#152 = DIRECTION ( 'NONE',  ( -0.000000000000000000, -0.000000000000000000, -1.000000000000000000 ) ) ;
#153 =( NAMED_UNIT ( * ) PLANE_ANGLE_UNIT ( ) SI_UNIT ( $, .RADIAN. ) );
#154 = LINE ( 'NONE', #742, #571 ) ;
#155 = EDGE_CURVE ( 'NONE', #207, #1274, #6, .T. ) ;
#156 = DIRECTION ( 'NONE',  ( -0.000000000000000000, -0.000000000000000000, -1.000000000000000000 ) ) ;
#157 = LINE ( 'NONE', #645, #675 ) ;
#158 = COORDINATED_UNIVERSAL_TIME_OFFSET ( 3, 30, .AHEAD. ) ;
#159 = DIRECTION ( 'NONE',  ( 1.000000000000000000, 2.168404344971008868E-16, 0.000000000000000000 ) ) ;
#160 = DIRECTION ( 'NONE',  ( -1.000000000000000000, 0.000000000000000000, -0.000000000000000000 ) ) ;
#161 = CC_DESIGN_DATE_AND_TIME_ASSIGNMENT ( #1220, #1155, ( #291 ) ) ;
#162 = LOCAL_TIME ( 13, 49, 4.000000000000000000, #844 ) ;
#163 = ORIENTED_EDGE ( 'NONE', *, *, #347, .T. ) ;
#164 = LINE ( 'NONE', #1077, #1225 ) ;
#165 = LINE ( 'NONE', #266, #798 ) ;
#166 = ADVANCED_FACE ( 'NONE', ( #942, #933 ), #1241, .F. ) ;
#167 = APPROVAL_ROLE ( '' ) ;
#168 = LINE ( 'NONE', #970, #595 ) ;
#169 = DIRECTION ( 'NONE',  ( -0.000000000000000000, -0.000000000000000000, -1.000000000000000000 ) ) ;
#170 = CIRCLE ( 'NONE', #868, 25.00000000000000000 ) ;
#171 = ORIENTED_EDGE ( 'NONE', *, *, #379, .T. ) ;
#172 = AXIS2_PLACEMENT_3D ( 'NONE', #690, #1091, #580 ) ;
#173 = FACE_OUTER_BOUND ( 'NONE', #439, .T. ) ;
#174 = DIRECTION ( 'NONE',  ( 0.000000000000000000, 0.000000000000000000, -1.000000000000000000 ) ) ;
#175 = DIRECTION ( 'NONE',  ( 1.000000000000000000, 0.000000000000000000, 0.000000000000000000 ) ) ;
#176 = LINE ( 'NONE', #458, #1104 ) ;
#177 = ORIENTED_EDGE ( 'NONE', *, *, #310, .T. ) ;
#178 = EDGE_CURVE ( 'NONE', #619, #407, #1148, .T. ) ;
#179 = EDGE_CURVE ( 'NONE', #389, #549, #360, .T. ) ;
#180 = LINE ( 'NONE', #56, #211 ) ;
#181 = ORIENTED_EDGE ( 'NONE', *, *, #433, .T. ) ;
#182 = CARTESIAN_POINT ( 'NONE',  ( -2.000000000000000000, 7.228416147400480440, 245.5241746962600473 ) ) ;
#183 = DIRECTION ( 'NONE',  ( 0.000000000000000000, 0.000000000000000000, -1.000000000000000000 ) ) ;
#184 = ORIENTED_EDGE ( 'NONE', *, *, #446, .F. ) ;
#185 = CC_DESIGN_APPROVAL ( #561, ( #291 ) ) ;
#186 = ORIENTED_EDGE ( 'NONE', *, *, #13, .T. ) ;
#187 = DIRECTION ( 'NONE',  ( -0.000000000000000000, -0.000000000000000000, -1.000000000000000000 ) ) ;
#188 = ORIENTED_EDGE ( 'NONE', *, *, #893, .F. ) ;
#189 = CARTESIAN_POINT ( 'NONE',  ( -2.000000000000000000, 4.582575694955840717, 0.000000000000000000 ) ) ;
#190 = CARTESIAN_POINT ( 'NONE',  ( 90.00000000000000000, 12.49999999999999822, 20.00000000000000000 ) ) ;
#191 = DIRECTION ( 'NONE',  ( 0.000000000000000000, 1.000000000000000000, 0.000000000000000000 ) ) ;
#192 = CIRCLE ( 'NONE', #917, 81.25000000000008527 ) ;
#193 = VERTEX_POINT ( 'NONE', #1224 ) ;
#194 = CARTESIAN_POINT ( 'NONE',  ( 70.00000000000000000, 0.000000000000000000, 210.0000000000000284 ) ) ;
#195 = ORIENTED_EDGE ( 'NONE', *, *, #1150, .T. ) ;
#196 = AXIS2_PLACEMENT_3D ( 'NONE', #1045, #42, #535 ) ;
#197 = ADVANCED_FACE ( 'NONE', ( #32 ), #633, .F. ) ;
#198 = EDGE_LOOP ( 'NONE', ( #866, #614, #218, #453 ) ) ;
#199 = CIRCLE ( 'NONE', #923, 7.500000000000000888 ) ;
#200 = CARTESIAN_POINT ( 'NONE',  ( 1.999999999999998668, -7.228416147400480440, -15.52417469626002777 ) ) ;
#201 = ORIENTED_EDGE ( 'NONE', *, *, #421, .T. ) ;
#202 = DIRECTION ( 'NONE',  ( 1.000000000000000000, 0.000000000000000000, 0.000000000000000000 ) ) ;
#203 = EDGE_CURVE ( 'NONE', #1105, #1137, #734, .T. ) ;
#204 = ORIENTED_EDGE ( 'NONE', *, *, #664, .T. ) ;
#205 = CARTESIAN_POINT ( 'NONE',  ( 11.76470588235293668, 22.05882352941176805, 210.0000000000000284 ) ) ;
#206 = CARTESIAN_POINT ( 'NONE',  ( 50.00000000000002842, 12.49999999999999645, 0.000000000000000000 ) ) ;
#207 = VERTEX_POINT ( 'NONE', #451 ) ;
#208 = CARTESIAN_POINT ( 'NONE',  ( 0.000000000000000000, 0.000000000000000000, 244.1421356237309794 ) ) ;
#209 = LINE ( 'NONE', #683, #776 ) ;
#210 = ORIENTED_EDGE ( 'NONE', *, *, #893, .T. ) ;
#211 = VECTOR ( 'NONE', #373, 1000.000000000000000 ) ;
#212 = DIRECTION ( 'NONE',  ( 1.000000000000000000, 0.000000000000000000, 0.000000000000000000 ) ) ;
#213 = CARTESIAN_POINT ( 'NONE',  ( 0.000000000000000000, 0.000000000000000000, 0.000000000000000000 ) ) ;
#214 = VERTEX_POINT ( 'NONE', #643 ) ;
#215 = ORIENTED_EDGE ( 'NONE', *, *, #1101, .T. ) ;
#216 = DIRECTION ( 'NONE',  ( 1.000000000000000000, -0.000000000000000000, 0.000000000000000000 ) ) ;
#217 = DIRECTION ( 'NONE',  ( 1.000000000000000000, 0.000000000000000000, 0.000000000000000000 ) ) ;
#218 = ORIENTED_EDGE ( 'NONE', *, *, #1284, .T. ) ;
#219 = CARTESIAN_POINT ( 'NONE',  ( 90.00000000000000000, -12.49999999999999822, 0.000000000000000000 ) ) ;
#220 = EDGE_CURVE ( 'NONE', #1210, #879, #150, .T. ) ;
#221 = FACE_OUTER_BOUND ( 'NONE', #715, .T. ) ;
#222 = ADVANCED_FACE ( 'NONE', ( #443 ), #1221, .T. ) ;
#223 = CARTESIAN_POINT ( 'NONE',  ( 1.999999999999999112, -7.228416147400482217, 230.0000000000000000 ) ) ;
#224 = ORIENTED_EDGE ( 'NONE', *, *, #474, .F. ) ;
#225 = DATE_AND_TIME ( #758, #622 ) ;
#226 = DIRECTION ( 'NONE',  ( 1.000000000000000000, 0.000000000000000000, 0.000000000000000000 ) ) ;
#227 = AXIS2_PLACEMENT_3D ( 'NONE', #517, #912, #1114 ) ;
#228 = DIRECTION ( 'NONE',  ( 1.000000000000000000, 0.000000000000000000, 0.000000000000000000 ) ) ;
#229 = AXIS2_PLACEMENT_3D ( 'NONE', #194, #788, #1089 ) ;
#230 = AXIS2_PLACEMENT_3D ( 'NONE', #773, #374, #212 ) ;
#231 = ORIENTED_EDGE ( 'NONE', *, *, #928, .T. ) ;
#232 = APPROVAL ( #557, 'UNSPECIFIED' ) ;
#233 = AXIS2_PLACEMENT_3D ( 'NONE', #480, #75, #698 ) ;
#234 = DIRECTION ( 'NONE',  ( 0.000000000000000000, 0.000000000000000000, -1.000000000000000000 ) ) ;
#235 = FACE_OUTER_BOUND ( 'NONE', #138, .T. ) ;
#236 = DIRECTION ( 'NONE',  ( -1.000000000000000000, -2.168404344971008868E-16, 0.000000000000000000 ) ) ;
#237 = DIRECTION ( 'NONE',  ( 1.000000000000000000, 0.000000000000000000, 0.000000000000000000 ) ) ;
#238 = EDGE_CURVE ( 'NONE', #879, #966, #1171, .T. ) ;
#239 = VERTEX_POINT ( 'NONE', #948 ) ;
#240 = EDGE_CURVE ( 'NONE', #817, #406, #452, .T. ) ;
#241 = CARTESIAN_POINT ( 'NONE',  ( 0.000000000000000000, 0.000000000000000000, 230.0000000000000000 ) ) ;
#242 = CARTESIAN_POINT ( 'NONE',  ( 11.76470588235294024, -22.05882352941176450, 230.0000000000000000 ) ) ;
#243 = ADVANCED_FACE ( 'NONE', ( #256 ), #657, .F. ) ;
#244 = DIRECTION ( 'NONE',  ( 1.000000000000000000, 0.000000000000000000, 0.000000000000000000 ) ) ;
#245 = AXIS2_PLACEMENT_3D ( 'NONE', #397, #670, #1065 ) ;
#246 = AXIS2_PLACEMENT_3D ( 'NONE', #878, #271, #780 ) ;
#247 = DIRECTION ( 'NONE',  ( 0.000000000000000000, 0.000000000000000000, 1.000000000000000000 ) ) ;
#248 = COORDINATED_UNIVERSAL_TIME_OFFSET ( 3, 30, .AHEAD. ) ;
#249 = CARTESIAN_POINT ( 'NONE',  ( 2.000000000000000000, 7.228416147400480440, 230.0000000000000000 ) ) ;
#250 = VECTOR ( 'NONE', #349, 1000.000000000000000 ) ;
#251 = FACE_OUTER_BOUND ( 'NONE', #123, .T. ) ;
#252 = VECTOR ( 'NONE', #644, 1000.000000000000000 ) ;
#253 = CARTESIAN_POINT ( 'NONE',  ( -2.000000000000000000, 4.582575694955840717, -14.14213562373095279 ) ) ;
#254 = EDGE_CURVE ( 'NONE', #1274, #635, #170, .T. ) ;
#255 = ORIENTED_EDGE ( 'NONE', *, *, #821, .T. ) ;
#256 = FACE_OUTER_BOUND ( 'NONE', #466, .T. ) ;
#257 = CARTESIAN_POINT ( 'NONE',  ( 0.000000000000000000, 0.000000000000000000, -15.52417469626002777 ) ) ;
#258 =( NAMED_UNIT ( * ) SI_UNIT ( $, .STERADIAN. ) SOLID_ANGLE_UNIT ( ) );
#259 = DIRECTION ( 'NONE',  ( 1.000000000000000000, 0.000000000000000000, 0.000000000000000000 ) ) ;
#260 = ADVANCED_FACE ( 'NONE', ( #235 ), #638, .F. ) ;
#261 = CARTESIAN_POINT ( 'NONE',  ( -25.00000000000000000, 0.000000000000000000, 210.0000000000000284 ) ) ;
#262 = DIRECTION ( 'NONE',  ( 1.000000000000000000, 0.000000000000000000, 0.000000000000000000 ) ) ;
#263 = ORIENTED_EDGE ( 'NONE', *, *, #569, .F. ) ;
#264 = EDGE_CURVE ( 'NONE', #322, #560, #63, .T. ) ;
#265 = CARTESIAN_POINT ( 'NONE',  ( 50.00000000000001421, 93.75000000000009948, 20.00000000000000000 ) ) ;
#266 = CARTESIAN_POINT ( 'NONE',  ( 2.000000000000000000, 7.228416147400480440, 245.5241746962600473 ) ) ;
#267 = PERSON_AND_ORGANIZATION_ROLE ( 'classification_officer' ) ;
#268 = FACE_BOUND ( 'NONE', #733, .T. ) ;
#269 = EDGE_CURVE ( 'NONE', #239, #3, #914, .T. ) ;
#270 = VERTEX_POINT ( 'NONE', #1253 ) ;
#271 = DIRECTION ( 'NONE',  ( 0.000000000000000000, 0.000000000000000000, 1.000000000000000000 ) ) ;
#272 = DIRECTION ( 'NONE',  ( 0.000000000000000000, 0.000000000000000000, 1.000000000000000000 ) ) ;
#273 = COORDINATED_UNIVERSAL_TIME_OFFSET ( 3, 30, .AHEAD. ) ;
#274 = CIRCLE ( 'NONE', #143, 25.00000000000000000 ) ;
#275 = CARTESIAN_POINT ( 'NONE',  ( 0.000000000000000000, 0.000000000000000000, 210.0000000000000284 ) ) ;
#276 = CARTESIAN_POINT ( 'NONE',  ( 0.000000000000000000, 0.000000000000000000, -15.52417469626002777 ) ) ;
#277 = ORIENTED_EDGE ( 'NONE', *, *, #336, .T. ) ;
#278 = AXIS2_PLACEMENT_3D ( 'NONE', #357, #160, #1061 ) ;
#279 = CARTESIAN_POINT ( 'NONE',  ( 5.000000000000000000, 0.000000000000000000, 20.00000000000000000 ) ) ;
#280 = EDGE_LOOP ( 'NONE', ( #1151, #100, #680, #290 ) ) ;
#281 = CARTESIAN_POINT ( 'NONE',  ( 90.00000000000000000, 0.000000000000000000, 210.0000000000000284 ) ) ;
#282 = DIRECTION ( 'NONE',  ( -1.000000000000000000, 2.168404344971008868E-16, 0.000000000000000000 ) ) ;
#283 = EDGE_CURVE ( 'NONE', #1110, #687, #520, .T. ) ;
#284 = ORIENTED_EDGE ( 'NONE', *, *, #240, .T. ) ;
#285 = ORIENTED_EDGE ( 'NONE', *, *, #421, .F. ) ;
#286 = DIRECTION ( 'NONE',  ( 0.000000000000000000, 0.000000000000000000, -1.000000000000000000 ) ) ;
#287 = ORIENTED_EDGE ( 'NONE', *, *, #603, .F. ) ;
#288 = PLANE ( 'NONE',  #104 ) ;
#289 = DIRECTION ( 'NONE',  ( -0.000000000000000000, -0.000000000000000000, -1.000000000000000000 ) ) ;
#290 = ORIENTED_EDGE ( 'NONE', *, *, #1238, .F. ) ;
#291 = SECURITY_CLASSIFICATION ( '', '', #1237 ) ;
#292 = DIRECTION ( 'NONE',  ( 1.000000000000000000, 0.000000000000000000, 0.000000000000000000 ) ) ;
#293 = ORIENTED_EDGE ( 'NONE', *, *, #1123, .T. ) ;
#294 = LINE ( 'NONE', #992, #959 ) ;
#295 = ORIENTED_EDGE ( 'NONE', *, *, #99, .T. ) ;
#296 = EDGE_LOOP ( 'NONE', ( #331, #791, #400, #201 ) ) ;
#297 = AXIS2_PLACEMENT_3D ( 'NONE', #28, #1057, #1236 ) ;
#298 = AXIS2_PLACEMENT_3D ( 'NONE', #512, #588, #470 ) ;
#299 = ADVANCED_FACE ( 'NONE', ( #973 ), #462, .F. ) ;
#300 = CARTESIAN_POINT ( 'NONE',  ( 0.000000000000000000, 0.000000000000000000, 0.000000000000000000 ) ) ;
#301 = ORIENTED_EDGE ( 'NONE', *, *, #972, .T. ) ;
#302 = AXIS2_PLACEMENT_3D ( 'NONE', #712, #610, #425 ) ;
#303 = APPROVAL_DATE_TIME ( #1131, #561 ) ;
#304 = DIRECTION ( 'NONE',  ( -0.000000000000000000, -0.000000000000000000, 1.000000000000000000 ) ) ;
#305 = ORIENTED_EDGE ( 'NONE', *, *, #1288, .F. ) ;
#306 = AXIS2_PLACEMENT_3D ( 'NONE', #1271, #575, #691 ) ;
#307 = FACE_OUTER_BOUND ( 'NONE', #418, .T. ) ;
#308 = CARTESIAN_POINT ( 'NONE',  ( 90.00000000000000000, 12.49999999999999822, 210.0000000000000284 ) ) ;
#309 = ORIENTED_EDGE ( 'NONE', *, *, #821, .F. ) ;
#310 = EDGE_CURVE ( 'NONE', #619, #1122, #1074, .T. ) ;
#311 = CARTESIAN_POINT ( 'NONE',  ( -2.000000000000000000, 7.228416147400480440, 20.00000000000000000 ) ) ;
#312 = EDGE_LOOP ( 'NONE', ( #594, #974, #295, #459, #749, #126, #1265, #145, #195 ) ) ;
#313 = EDGE_CURVE ( 'NONE', #784, #1210, #1097, .T. ) ;
#314 = DIRECTION ( 'NONE',  ( -0.000000000000000000, -0.000000000000000000, -1.000000000000000000 ) ) ;
#315 = LINE ( 'NONE', #729, #250 ) ;
#316 = EDGE_LOOP ( 'NONE', ( #1083, #1000, #507, #1272 ) ) ;
#317 = LINE ( 'NONE', #311, #31 ) ;
#318 = ORIENTED_EDGE ( 'NONE', *, *, #722, .T. ) ;
#319 = VERTEX_POINT ( 'NONE', #279 ) ;
#320 = VECTOR ( 'NONE', #469, 1000.000000000000000 ) ;
#321 = EDGE_CURVE ( 'NONE', #1122, #1268, #180, .T. ) ;
#322 = VERTEX_POINT ( 'NONE', #688 ) ;
#323 = CIRCLE ( 'NONE', #545, 7.500000000000000888 ) ;
#324 = CARTESIAN_POINT ( 'NONE',  ( 50.00000000000000000, -93.75000000000008527, 210.0000000000000284 ) ) ;
#325 = VECTOR ( 'NONE', #1258, 1000.000000000000000 ) ;
#326 = ORIENTED_EDGE ( 'NONE', *, *, #1078, .F. ) ;
#327 = VERTEX_POINT ( 'NONE', #695 ) ;
#328 = CIRCLE ( 'NONE', #1158, 5.000000000000000000 ) ;
#329 = DIRECTION ( 'NONE',  ( 0.000000000000000000, 0.000000000000000000, -1.000000000000000000 ) ) ;
#330 = FACE_OUTER_BOUND ( 'NONE', #1088, .T. ) ;
#331 = ORIENTED_EDGE ( 'NONE', *, *, #240, .F. ) ;
#332 = PERSON_AND_ORGANIZATION ( #841, #728 ) ;
#333 = DIRECTION ( 'NONE',  ( -0.000000000000000000, -0.000000000000000000, -1.000000000000000000 ) ) ;
#334 = EDGE_LOOP ( 'NONE', ( #877, #423, #668, #700 ) ) ;
#335 = CC_DESIGN_SECURITY_CLASSIFICATION ( #291, ( #582 ) ) ;
#336 = EDGE_CURVE ( 'NONE', #705, #76, #475, .T. ) ;
#337 = DIRECTION ( 'NONE',  ( 0.000000000000000000, 0.000000000000000000, -1.000000000000000000 ) ) ;
#338 = EDGE_CURVE ( 'NONE', #442, #817, #1267, .T. ) ;
#339 = ORIENTED_EDGE ( 'NONE', *, *, #572, .T. ) ;
#340 = VERTEX_POINT ( 'NONE', #1098 ) ;
#341 = CARTESIAN_POINT ( 'NONE',  ( -2.000000000000000000, -4.582575694955840717, 244.1421356237309794 ) ) ;
#342 = AXIS2_PLACEMENT_3D ( 'NONE', #422, #1022, #217 ) ;
#343 = EDGE_CURVE ( 'NONE', #492, #97, #958, .T. ) ;
#344 = CARTESIAN_POINT ( 'NONE',  ( -2.000000000000000000, 7.228416147400480440, 230.0000000000000000 ) ) ;
#345 = CARTESIAN_POINT ( 'NONE',  ( -25.00000000000000000, 0.000000000000000000, 0.000000000000000000 ) ) ;
#346 = CIRCLE ( 'NONE', #653, 81.25000000000009948 ) ;
#347 = EDGE_CURVE ( 'NONE', #97, #214, #164, .T. ) ;
#348 = CIRCLE ( 'NONE', #1050, 5.000000000000000000 ) ;
#349 = DIRECTION ( 'NONE',  ( 0.000000000000000000, 0.000000000000000000, -1.000000000000000000 ) ) ;
#350 = FACE_OUTER_BOUND ( 'NONE', #903, .T. ) ;
#351 = CARTESIAN_POINT ( 'NONE',  ( 2.000000000000000000, 7.228416147400480440, 0.000000000000000000 ) ) ;
#352 = EDGE_CURVE ( 'NONE', #549, #319, #671, .T. ) ;
#353 = CARTESIAN_POINT ( 'NONE',  ( 5.000000000000000000, 0.000000000000000000, 0.000000000000000000 ) ) ;
#354 = CARTESIAN_POINT ( 'NONE',  ( -2.000000000000000000, 4.582575694955840717, 244.1421356237309794 ) ) ;
#355 = APPROVAL_STATUS ( 'not_yet_approved' ) ;
#356 = DESIGN_CONTEXT ( 'detailed design', #1094, 'design' ) ;
#357 = CARTESIAN_POINT ( 'NONE',  ( -2.000000000000000000, 7.228416147400480440, -15.52417469626002777 ) ) ;
#358 = ADVANCED_FACE ( 'NONE', ( #173 ), #586, .F. ) ;
#359 = ORIENTED_EDGE ( 'NONE', *, *, #1138, .F. ) ;
#360 = LINE ( 'NONE', #730, #119 ) ;
#361 = AXIS2_PLACEMENT_3D ( 'NONE', #663, #960, #79 ) ;
#362 = ORIENTED_EDGE ( 'NONE', *, *, #1014, .T. ) ;
#363 = DIRECTION ( 'NONE',  ( 0.000000000000000000, 0.000000000000000000, -1.000000000000000000 ) ) ;
#364 = DATE_AND_TIME ( #1256, #162 ) ;
#365 = CARTESIAN_POINT ( 'NONE',  ( 11.76470588235294024, -22.05882352941176450, 210.0000000000000284 ) ) ;
#366 = AXIS2_PLACEMENT_3D ( 'NONE', #927, #450, #1223 ) ;
#367 = AXIS2_PLACEMENT_3D ( 'NONE', #1240, #1163, #1234 ) ;
#368 = CARTESIAN_POINT ( 'NONE',  ( 1.999999999999998668, -7.228416147400480440, 20.00000000000000000 ) ) ;
#369 = PERSON_AND_ORGANIZATION ( #841, #728 ) ;
#370 = CARTESIAN_POINT ( 'NONE',  ( 0.000000000000000000, 0.000000000000000000, 0.000000000000000000 ) ) ;
#371 = CARTESIAN_POINT ( 'NONE',  ( 2.000000000000000000, -7.228416147400480440, 245.5241746962600473 ) ) ;
#372 = EDGE_LOOP ( 'NONE', ( #794, #1025, #305, #362 ) ) ;
#373 = DIRECTION ( 'NONE',  ( -0.000000000000000000, -0.000000000000000000, -1.000000000000000000 ) ) ;
#374 = DIRECTION ( 'NONE',  ( 0.000000000000000000, 0.000000000000000000, 1.000000000000000000 ) ) ;
#375 = DATE_TIME_ROLE ( 'creation_date' ) ;
#376 = CARTESIAN_POINT ( 'NONE',  ( 0.000000000000000000, 0.000000000000000000, 0.000000000000000000 ) ) ;
#377 = EDGE_CURVE ( 'NONE', #97, #492, #1027, .T. ) ;
#378 = CARTESIAN_POINT ( 'NONE',  ( 90.00000000000000000, -12.49999999999999822, 0.000000000000000000 ) ) ;
#379 = EDGE_CURVE ( 'NONE', #1159, #486, #983, .T. ) ;
#380 = AXIS2_PLACEMENT_3D ( 'NONE', #1067, #745, #1167 ) ;
#381 = VERTEX_POINT ( 'NONE', #1190 ) ;
#382 = ORIENTED_EDGE ( 'NONE', *, *, #13, .F. ) ;
#383 = CARTESIAN_POINT ( 'NONE',  ( 70.00000000000000000, 0.000000000000000000, 210.0000000000000284 ) ) ;
#384 = EDGE_CURVE ( 'NONE', #684, #784, #294, .T. ) ;
#385 = CARTESIAN_POINT ( 'NONE',  ( 50.00000000000001421, 93.75000000000009948, 230.0000000000000000 ) ) ;
#386 = VECTOR ( 'NONE', #1153, 1000.000000000000000 ) ;
#387 = DIRECTION ( 'NONE',  ( -0.000000000000000000, -0.000000000000000000, 1.000000000000000000 ) ) ;
#388 = ORIENTED_EDGE ( 'NONE', *, *, #793, .T. ) ;
#389 = VERTEX_POINT ( 'NONE', #368 ) ;
#390 = CARTESIAN_POINT ( 'NONE',  ( 0.000000000000000000, 0.000000000000000000, -14.14213562373095279 ) ) ;
#391 = ORIENTED_EDGE ( 'NONE', *, *, #913, .T. ) ;
#392 = CARTESIAN_POINT ( 'NONE',  ( 80.00000000000000000, 1.224646799147352665E-15, 20.00000000000000000 ) ) ;
#393 = CARTESIAN_POINT ( 'NONE',  ( 2.000000000000000000, 4.582575694955840717, -14.14213562373095279 ) ) ;
#394 = ORIENTED_EDGE ( 'NONE', *, *, #1144, .F. ) ;
#395 = CARTESIAN_POINT ( 'NONE',  ( 1.999999999999999112, 4.582575694955839829, 20.00000000000000000 ) ) ;
#396 = EDGE_LOOP ( 'NONE', ( #1196, #1183, #215, #1046 ) ) ;
#397 = CARTESIAN_POINT ( 'NONE',  ( 0.000000000000000000, 0.000000000000000000, 20.00000000000000000 ) ) ;
#398 = VERTEX_POINT ( 'NONE', #494 ) ;
#399 = DIRECTION ( 'NONE',  ( -0.000000000000000000, -0.000000000000000000, -1.000000000000000000 ) ) ;
#400 = ORIENTED_EDGE ( 'NONE', *, *, #1138, .T. ) ;
#401 = EDGE_CURVE ( 'NONE', #689, #694, #1173, .T. ) ;
#402 = DIRECTION ( 'NONE',  ( 1.000000000000000000, 0.000000000000000000, 0.000000000000000000 ) ) ;
#403 = ORIENTED_EDGE ( 'NONE', *, *, #1235, .T. ) ;
#404 = EDGE_CURVE ( 'NONE', #947, #1110, #35, .T. ) ;
#405 = CARTESIAN_POINT ( 'NONE',  ( 50.00000000000002842, 12.49999999999999645, 210.0000000000000284 ) ) ;
#406 = VERTEX_POINT ( 'NONE', #892 ) ;
#407 = VERTEX_POINT ( 'NONE', #206 ) ;
#408 = AXIS2_PLACEMENT_3D ( 'NONE', #383, #771, #1165 ) ;
#409 = EDGE_CURVE ( 'NONE', #676, #389, #88, .T. ) ;
#410 = VECTOR ( 'NONE', #938, 1000.000000000000000 ) ;
#411 = VECTOR ( 'NONE', #191, 1000.000000000000000 ) ;
#412 = DIRECTION ( 'NONE',  ( -0.000000000000000000, -0.000000000000000000, 1.000000000000000000 ) ) ;
#413 = FACE_OUTER_BOUND ( 'NONE', #921, .T. ) ;
#414 = ORIENTED_EDGE ( 'NONE', *, *, #685, .F. ) ;
#415 = AXIS2_PLACEMENT_3D ( 'NONE', #1298, #140, #262 ) ;
#416 = EDGE_CURVE ( 'NONE', #705, #498, #802, .T. ) ;
#417 = DIRECTION ( 'NONE',  ( -0.000000000000000000, -0.000000000000000000, -1.000000000000000000 ) ) ;
#418 = EDGE_LOOP ( 'NONE', ( #596, #599, #87, #924 ) ) ;
#419 = CARTESIAN_POINT ( 'NONE',  ( 90.00000000000000000, 12.49999999999999822, 230.0000000000000000 ) ) ;
#420 = CARTESIAN_POINT ( 'NONE',  ( 2.000000000000000000, -7.228416147400480440, 0.000000000000000000 ) ) ;
#421 = EDGE_CURVE ( 'NONE', #120, #406, #598, .T. ) ;
#422 = CARTESIAN_POINT ( 'NONE',  ( 0.000000000000000000, 0.000000000000000000, 210.0000000000000284 ) ) ;
#423 = ORIENTED_EDGE ( 'NONE', *, *, #321, .F. ) ;
#424 = ADVANCED_FACE ( 'NONE', ( #995 ), #1287, .F. ) ;
#425 = DIRECTION ( 'NONE',  ( 1.000000000000000000, 0.000000000000000000, 0.000000000000000000 ) ) ;
#426 =( GEOMETRIC_REPRESENTATION_CONTEXT ( 3 ) GLOBAL_UNCERTAINTY_ASSIGNED_CONTEXT ( ( #1034 ) ) GLOBAL_UNIT_ASSIGNED_CONTEXT ( ( #564, #153, #258 ) ) REPRESENTATION_CONTEXT ( 'NONE', 'WORKASPACE' ) );
#427 = CARTESIAN_POINT ( 'NONE',  ( 49.99999999999999289, -12.50000000000000711, 0.000000000000000000 ) ) ;
#428 = ORIENTED_EDGE ( 'NONE', *, *, #934, .F. ) ;
#429 = ORIENTED_EDGE ( 'NONE', *, *, #283, .F. ) ;
#430 = LINE ( 'NONE', #822, #1120 ) ;
#431 = VECTOR ( 'NONE', #14, 1000.000000000000000 ) ;
#432 = CARTESIAN_POINT ( 'NONE',  ( 1.999999999999999112, -4.582575694955839829, 210.0000000000000284 ) ) ;
#433 = EDGE_CURVE ( 'NONE', #1137, #676, #1112, .T. ) ;
#434 = ORIENTED_EDGE ( 'NONE', *, *, #911, .T. ) ;
#435 = COORDINATED_UNIVERSAL_TIME_OFFSET ( 3, 30, .AHEAD. ) ;
#436 = FACE_BOUND ( 'NONE', #1170, .T. ) ;
#437 = CYLINDRICAL_SURFACE ( 'NONE', #445, 5.000000000000000000 ) ;
#438 = ORIENTED_EDGE ( 'NONE', *, *, #911, .F. ) ;
#439 = EDGE_LOOP ( 'NONE', ( #1193, #570, #515, #894 ) ) ;
#440 = ADVANCED_FACE ( 'NONE', ( #604 ), #1001, .F. ) ;
#441 = CARTESIAN_POINT ( 'NONE',  ( -1.999999999999999556, 4.582575694955840717, 20.00000000000000000 ) ) ;
#442 = VERTEX_POINT ( 'NONE', #1207 ) ;
#443 = FACE_OUTER_BOUND ( 'NONE', #396, .T. ) ;
#444 = DIRECTION ( 'NONE',  ( -0.000000000000000000, -0.000000000000000000, 1.000000000000000000 ) ) ;
#445 = AXIS2_PLACEMENT_3D ( 'NONE', #1128, #304, #710 ) ;
#446 = EDGE_CURVE ( 'NONE', #925, #495, #315, .T. ) ;
#447 = DIRECTION ( 'NONE',  ( 1.000000000000000000, -0.000000000000000000, 0.000000000000000000 ) ) ;
#448 = CARTESIAN_POINT ( 'NONE',  ( 50.00000000000001421, 93.75000000000009948, 0.000000000000000000 ) ) ;
#449 = AXIS2_PLACEMENT_3D ( 'NONE', #275, #1060, #1179 ) ;
#450 = DIRECTION ( 'NONE',  ( 0.000000000000000000, 0.000000000000000000, 1.000000000000000000 ) ) ;
#451 = CARTESIAN_POINT ( 'NONE',  ( 11.76470588235293668, 22.05882352941176805, 230.0000000000000000 ) ) ;
#452 = LINE ( 'NONE', #750, #386 ) ;
#453 = ORIENTED_EDGE ( 'NONE', *, *, #254, .F. ) ;
#454 = PERSON_AND_ORGANIZATION ( #841, #728 ) ;
#455 = CARTESIAN_POINT ( 'NONE',  ( -2.000000000000000000, 7.228416147400480440, 210.0000000000000284 ) ) ;
#456 = CARTESIAN_POINT ( 'NONE',  ( -2.000000000000000000, 7.228416147400480440, 20.00000000000000000 ) ) ;
#457 = VECTOR ( 'NONE', #496, 1000.000000000000000 ) ;
#458 = CARTESIAN_POINT ( 'NONE',  ( 5.000000000000000000, 0.000000000000000000, -14.14213562373095279 ) ) ;
#459 = ORIENTED_EDGE ( 'NONE', *, *, #1054, .T. ) ;
#460 = AXIS2_PLACEMENT_3D ( 'NONE', #679, #882, #15 ) ;
#461 = PRODUCT_DEFINITION ( 'UNKNOWN', '', #582, #356 ) ;
#462 = PLANE ( 'NONE',  #361 ) ;
#463 = DIRECTION ( 'NONE',  ( 1.000000000000000000, 0.000000000000000000, 0.000000000000000000 ) ) ;
#464 = DIRECTION ( 'NONE',  ( 1.000000000000000000, 0.000000000000000000, 0.000000000000000000 ) ) ;
#465 = LINE ( 'NONE', #1169, #900 ) ;
#466 = EDGE_LOOP ( 'NONE', ( #34, #72, #468, #528 ) ) ;
#467 = ADVANCED_FACE ( 'NONE', ( #516 ), #1211, .F. ) ;
#468 = ORIENTED_EDGE ( 'NONE', *, *, #1052, .F. ) ;
#469 = DIRECTION ( 'NONE',  ( -0.000000000000000000, -0.000000000000000000, 1.000000000000000000 ) ) ;
#470 = DIRECTION ( 'NONE',  ( 1.000000000000000000, 0.000000000000000000, 0.000000000000000000 ) ) ;
#471 = DIRECTION ( 'NONE',  ( -0.000000000000000000, -0.000000000000000000, 1.000000000000000000 ) ) ;
#472 = DIRECTION ( 'NONE',  ( 0.000000000000000000, 0.000000000000000000, -1.000000000000000000 ) ) ;
#473 = ORIENTED_EDGE ( 'NONE', *, *, #569, .T. ) ;
#474 = EDGE_CURVE ( 'NONE', #867, #76, #192, .T. ) ;
#475 = LINE ( 'NONE', #762, #51 ) ;
#476 = ORIENTED_EDGE ( 'NONE', *, *, #801, .F. ) ;
#477 = CARTESIAN_POINT ( 'NONE',  ( 50.00000000000000000, -93.75000000000008527, 230.0000000000000000 ) ) ;
#478 = AXIS2_PLACEMENT_3D ( 'NONE', #842, #1230, #1145 ) ;
#479 = DIRECTION ( 'NONE',  ( 1.000000000000000000, 0.000000000000000000, 0.000000000000000000 ) ) ;
#480 = CARTESIAN_POINT ( 'NONE',  ( 90.00000000000000000, 0.000000000000000000, 20.00000000000000000 ) ) ;
#481 = ORIENTED_EDGE ( 'NONE', *, *, #1132, .T. ) ;
#482 = CARTESIAN_POINT ( 'NONE',  ( 0.000000000000000000, 0.000000000000000000, 210.0000000000000284 ) ) ;
#483 = CIRCLE ( 'NONE', #568, 5.000000000000000000 ) ;
#484 = ORIENTED_EDGE ( 'NONE', *, *, #741, .T. ) ;
#485 = DIRECTION ( 'NONE',  ( 0.000000000000000000, -1.000000000000000000, 0.000000000000000000 ) ) ;
#486 = VERTEX_POINT ( 'NONE', #441 ) ;
#487 = LINE ( 'NONE', #667, #656 ) ;
#488 = ORIENTED_EDGE ( 'NONE', *, *, #1147, .T. ) ;
#489 = ORIENTED_EDGE ( 'NONE', *, *, #1239, .T. ) ;
#490 = DIRECTION ( 'NONE',  ( -0.000000000000000000, -0.000000000000000000, -1.000000000000000000 ) ) ;
#491 = EDGE_LOOP ( 'NONE', ( #132, #1202, #587, #1251 ) ) ;
#492 = VERTEX_POINT ( 'NONE', #1218 ) ;
#493 = CARTESIAN_POINT ( 'NONE',  ( 90.00000000000000000, 12.49999999999999822, 0.000000000000000000 ) ) ;
#494 = CARTESIAN_POINT ( 'NONE',  ( -2.000000000000000000, 7.228416147400480440, 0.000000000000000000 ) ) ;
#495 = VERTEX_POINT ( 'NONE', #629 ) ;
#496 = DIRECTION ( 'NONE',  ( 0.000000000000000000, -1.000000000000000000, 0.000000000000000000 ) ) ;
#497 = AXIS2_PLACEMENT_3D ( 'NONE', #703, #7, #613 ) ;
#498 = VERTEX_POINT ( 'NONE', #1037 ) ;
#499 = AXIS2_PLACEMENT_3D ( 'NONE', #1290, #102, #906 ) ;
#500 = CYLINDRICAL_SURFACE ( 'NONE', #701, 5.000000000000000000 ) ;
#501 = EDGE_CURVE ( 'NONE', #327, #115, #1042, .T. ) ;
#502 = CARTESIAN_POINT ( 'NONE',  ( 90.00000000000000000, -12.49999999999999822, 230.0000000000000000 ) ) ;
#503 = CIRCLE ( 'NONE', #78, 12.49999999999999645 ) ;
#504 = DIRECTION ( 'NONE',  ( -0.000000000000000000, -0.000000000000000000, 1.000000000000000000 ) ) ;
#505 = ADVANCED_FACE ( 'NONE', ( #133, #436, #37 ), #128, .T. ) ;
#506 = DIRECTION ( 'NONE',  ( -0.000000000000000000, -0.000000000000000000, 1.000000000000000000 ) ) ;
#507 = ORIENTED_EDGE ( 'NONE', *, *, #1180, .F. ) ;
#508 = VECTOR ( 'NONE', #1157, 1000.000000000000000 ) ;
#509 = LINE ( 'NONE', #1012, #1002 ) ;
#510 = ORIENTED_EDGE ( 'NONE', *, *, #1284, .F. ) ;
#511 = CARTESIAN_POINT ( 'NONE',  ( -2.000000000000000000, 7.228416147400480440, 230.0000000000000000 ) ) ;
#512 = CARTESIAN_POINT ( 'NONE',  ( 0.000000000000000000, 0.000000000000000000, 230.0000000000000000 ) ) ;
#513 = DIRECTION ( 'NONE',  ( 0.000000000000000000, 0.000000000000000000, -1.000000000000000000 ) ) ;
#514 = VERTEX_POINT ( 'NONE', #1015 ) ;
#515 = ORIENTED_EDGE ( 'NONE', *, *, #1189, .T. ) ;
#516 = FACE_OUTER_BOUND ( 'NONE', #23, .T. ) ;
#517 = CARTESIAN_POINT ( 'NONE',  ( 90.00000000000000000, 0.000000000000000000, 210.0000000000000284 ) ) ;
#518 = ORIENTED_EDGE ( 'NONE', *, *, #1016, .F. ) ;
#519 = VERTEX_POINT ( 'NONE', #219 ) ;
#520 = CIRCLE ( 'NONE', #895, 81.25000000000008527 ) ;
#521 = DIRECTION ( 'NONE',  ( -0.000000000000000000, -0.000000000000000000, -1.000000000000000000 ) ) ;
#522 = AXIS2_PLACEMENT_3D ( 'NONE', #1195, #412, #1107 ) ;
#523 = AXIS2_PLACEMENT_3D ( 'NONE', #556, #1053, #546 ) ;
#524 = FACE_OUTER_BOUND ( 'NONE', #993, .T. ) ;
#525 = AXIS2_PLACEMENT_3D ( 'NONE', #767, #169, #567 ) ;
#526 = FACE_OUTER_BOUND ( 'NONE', #10, .T. ) ;
#527 = EDGE_CURVE ( 'NONE', #584, #207, #538, .T. ) ;
#528 = ORIENTED_EDGE ( 'NONE', *, *, #913, .F. ) ;
#529 = ORIENTED_EDGE ( 'NONE', *, *, #179, .T. ) ;
#530 = ORIENTED_EDGE ( 'NONE', *, *, #352, .F. ) ;
#531 = CIRCLE ( 'NONE', #61, 12.49999999999999645 ) ;
#532 = ADVANCED_FACE ( 'NONE', ( #25 ), #621, .T. ) ;
#533 = DIRECTION ( 'NONE',  ( -0.000000000000000000, -0.000000000000000000, 1.000000000000000000 ) ) ;
#534 = DIRECTION ( 'NONE',  ( -0.000000000000000000, -0.000000000000000000, 1.000000000000000000 ) ) ;
#535 = DIRECTION ( 'NONE',  ( 1.000000000000000000, 0.000000000000000000, -0.000000000000000000 ) ) ;
#536 = ORIENTED_EDGE ( 'NONE', *, *, #590, .T. ) ;
#537 = EDGE_CURVE ( 'NONE', #807, #784, #5, .T. ) ;
#538 = LINE ( 'NONE', #919, #101 ) ;
#539 = LOCAL_TIME ( 13, 49, 4.000000000000000000, #158 ) ;
#540 = CARTESIAN_POINT ( 'NONE',  ( 0.000000000000000000, 0.000000000000000000, 230.0000000000000000 ) ) ;
#541 = ORIENTED_EDGE ( 'NONE', *, *, #999, .F. ) ;
#542 = CARTESIAN_POINT ( 'NONE',  ( 50.00000000000000000, -93.75000000000008527, 0.000000000000000000 ) ) ;
#543 = AXIS2_PLACEMENT_3D ( 'NONE', #1124, #417, #110 ) ;
#544 = CARTESIAN_POINT ( 'NONE',  ( 70.00000000000000000, 0.000000000000000000, 115.0000000000000000 ) ) ;
#545 = AXIS2_PLACEMENT_3D ( 'NONE', #839, #247, #144 ) ;
#546 = DIRECTION ( 'NONE',  ( 1.000000000000000000, 0.000000000000000000, 0.000000000000000000 ) ) ;
#547 = PERSON_AND_ORGANIZATION ( #841, #728 ) ;
#548 = VECTOR ( 'NONE', #67, 1000.000000000000000 ) ;
#549 = VERTEX_POINT ( 'NONE', #118 ) ;
#550 = LINE ( 'NONE', #755, #325 ) ;
#551 = ORIENTED_EDGE ( 'NONE', *, *, #741, .F. ) ;
#552 = DIRECTION ( 'NONE',  ( -1.000000000000000000, 0.000000000000000000, 0.000000000000000000 ) ) ;
#553 = DIRECTION ( 'NONE',  ( 0.000000000000000000, 1.000000000000000000, 0.000000000000000000 ) ) ;
#554 = CARTESIAN_POINT ( 'NONE',  ( 0.000000000000000000, 0.000000000000000000, 245.5241746962600473 ) ) ;
#555 = APPROVAL_PERSON_ORGANIZATION ( #1161, #738, #117 ) ;
#556 = CARTESIAN_POINT ( 'NONE',  ( 0.000000000000000000, 0.000000000000000000, 230.0000000000000000 ) ) ;
#557 = APPROVAL_STATUS ( 'not_yet_approved' ) ;
#558 = CARTESIAN_POINT ( 'NONE',  ( 2.000000000000000000, 4.582575694955840717, 230.0000000000000000 ) ) ;
#559 = DIRECTION ( 'NONE',  ( 1.000000000000000000, 0.000000000000000000, -0.000000000000000000 ) ) ;
#560 = VERTEX_POINT ( 'NONE', #833 ) ;
#561 = APPROVAL ( #355, 'UNSPECIFIED' ) ;
#562 = AXIS2_PLACEMENT_3D ( 'NONE', #18, #922, #1203 ) ;
#563 = DIRECTION ( 'NONE',  ( -1.000000000000000000, 0.000000000000000000, 0.000000000000000000 ) ) ;
#564 =( LENGTH_UNIT ( ) NAMED_UNIT ( * ) SI_UNIT ( .MILLI., .METRE. ) );
#565 = CARTESIAN_POINT ( 'NONE',  ( 0.000000000000000000, 0.000000000000000000, 20.00000000000000000 ) ) ;
#566 = EDGE_CURVE ( 'NONE', #43, #689, #430, .T. ) ;
#567 = DIRECTION ( 'NONE',  ( 1.000000000000000000, 0.000000000000000000, 0.000000000000000000 ) ) ;
#568 = AXIS2_PLACEMENT_3D ( 'NONE', #849, #363, #40 ) ;
#569 = EDGE_CURVE ( 'NONE', #1055, #1281, #723, .T. ) ;
#570 = ORIENTED_EDGE ( 'NONE', *, *, #71, .F. ) ;
#571 = VECTOR ( 'NONE', #1047, 1000.000000000000000 ) ;
#572 = EDGE_CURVE ( 'NONE', #340, #689, #1278, .T. ) ;
#573 = DIRECTION ( 'NONE',  ( -0.000000000000000000, -0.000000000000000000, -1.000000000000000000 ) ) ;
#574 = CARTESIAN_POINT ( 'NONE',  ( 50.00000000000001421, 93.75000000000009948, 20.00000000000000000 ) ) ;
#575 = DIRECTION ( 'NONE',  ( -0.000000000000000000, -0.000000000000000000, -1.000000000000000000 ) ) ;
#576 = ORIENTED_EDGE ( 'NONE', *, *, #71, .T. ) ;
#577 = LINE ( 'NONE', #253, #1139 ) ;
#578 = DIRECTION ( 'NONE',  ( -0.000000000000000000, -0.000000000000000000, -1.000000000000000000 ) ) ;
#579 = VERTEX_POINT ( 'NONE', #395 ) ;
#580 = DIRECTION ( 'NONE',  ( 0.000000000000000000, 0.000000000000000000, -1.000000000000000000 ) ) ;
#581 = CARTESIAN_POINT ( 'NONE',  ( -2.000000000000000000, 7.228416147400480440, 20.00000000000000000 ) ) ;
#582 = PRODUCT_DEFINITION_FORMATION_WITH_SPECIFIED_SOURCE ( 'ANY', '', #1036, .NOT_KNOWN. ) ;
#583 = ORIENTED_EDGE ( 'NONE', *, *, #404, .F. ) ;
#584 = VERTEX_POINT ( 'NONE', #205 ) ;
#585 = ADVANCED_FACE ( 'NONE', ( #1186 ), #500, .F. ) ;
#586 = PLANE ( 'NONE',  #651 ) ;
#587 = ORIENTED_EDGE ( 'NONE', *, *, #846, .T. ) ;
#588 = DIRECTION ( 'NONE',  ( 0.000000000000000000, 0.000000000000000000, -1.000000000000000000 ) ) ;
#589 = DIRECTION ( 'NONE',  ( -0.000000000000000000, -0.000000000000000000, 1.000000000000000000 ) ) ;
#590 = EDGE_CURVE ( 'NONE', #966, #1205, #91, .T. ) ;
#591 = VECTOR ( 'NONE', #33, 1000.000000000000000 ) ;
#592 = ORIENTED_EDGE ( 'NONE', *, *, #1099, .T. ) ;
#593 = CARTESIAN_POINT ( 'NONE',  ( 0.000000000000000000, 0.000000000000000000, 230.0000000000000000 ) ) ;
#594 = ORIENTED_EDGE ( 'NONE', *, *, #597, .T. ) ;
#595 = VECTOR ( 'NONE', #986, 1000.000000000000000 ) ;
#596 = ORIENTED_EDGE ( 'NONE', *, *, #1054, .F. ) ;
#597 = EDGE_CURVE ( 'NONE', #193, #381, #1285, .T. ) ;
#598 = LINE ( 'NONE', #405, #1214 ) ;
#599 = ORIENTED_EDGE ( 'NONE', *, *, #141, .F. ) ;
#600 = MANIFOLD_SOLID_BREP ( 'Mirror1', #1071 ) ;
#601 = CARTESIAN_POINT ( 'NONE',  ( -1.999999999999999112, -4.582575694955839829, 20.00000000000000000 ) ) ;
#602 = ORIENTED_EDGE ( 'NONE', *, *, #846, .F. ) ;
#603 = EDGE_CURVE ( 'NONE', #270, #407, #980, .T. ) ;
#604 = FACE_OUTER_BOUND ( 'NONE', #756, .T. ) ;
#605 = ORIENTED_EDGE ( 'NONE', *, *, #693, .T. ) ;
#606 = FACE_OUTER_BOUND ( 'NONE', #982, .T. ) ;
#607 = AXIS2_PLACEMENT_3D ( 'NONE', #131, #142, #228 ) ;
#608 = ORIENTED_EDGE ( 'NONE', *, *, #401, .T. ) ;
#609 = AXIS2_PLACEMENT_3D ( 'NONE', #448, #1231, #1044 ) ;
#610 = DIRECTION ( 'NONE',  ( 0.000000000000000000, 0.000000000000000000, 1.000000000000000000 ) ) ;
#611 = AXIS2_PLACEMENT_3D ( 'NONE', #654, #1226, #236 ) ;
#612 = EDGE_CURVE ( 'NONE', #120, #584, #632, .T. ) ;
#613 = DIRECTION ( 'NONE',  ( -0.000000000000000000, 0.000000000000000000, 1.000000000000000000 ) ) ;
#614 = ORIENTED_EDGE ( 'NONE', *, *, #404, .T. ) ;
#615 = EDGE_LOOP ( 'NONE', ( #429, #583, #1011, #855, #359, #936, #1064 ) ) ;
#616 = ADVANCED_FACE ( 'NONE', ( #639 ), #1242, .F. ) ;
#617 = PLANE ( 'NONE',  #497 ) ;
#618 = ORIENTED_EDGE ( 'NONE', *, *, #636, .F. ) ;
#619 = VERTEX_POINT ( 'NONE', #658 ) ;
#620 = CC_DESIGN_APPROVAL ( #232, ( #461 ) ) ;
#621 = CYLINDRICAL_SURFACE ( 'NONE', #940, 25.00000000000000000 ) ;
#622 = LOCAL_TIME ( 13, 49, 4.000000000000000000, #435 ) ;
#623 = ORIENTED_EDGE ( 'NONE', *, *, #313, .T. ) ;
#624 = CYLINDRICAL_SURFACE ( 'NONE', #297, 81.25000000000009948 ) ;
#625 = EDGE_CURVE ( 'NONE', #988, #1159, #323, .T. ) ;
#626 = CARTESIAN_POINT ( 'NONE',  ( 11.76470588235293668, 22.05882352941176805, 20.00000000000000000 ) ) ;
#627 = ORIENTED_EDGE ( 'NONE', *, *, #1235, .F. ) ;
#628 = VECTOR ( 'NONE', #652, 1000.000000000000000 ) ;
#629 = CARTESIAN_POINT ( 'NONE',  ( 5.000000000000000000, 0.000000000000000000, 210.0000000000000284 ) ) ;
#630 = AXIS2_PLACEMENT_3D ( 'NONE', #308, #94, #708 ) ;
#631 = ORIENTED_EDGE ( 'NONE', *, *, #474, .T. ) ;
#632 = CIRCLE ( 'NONE', #1103, 81.25000000000009948 ) ;
#633 = PLANE ( 'NONE',  #478 ) ;
#634 = AXIS2_PLACEMENT_3D ( 'NONE', #482, #139, #747 ) ;
#635 = VERTEX_POINT ( 'NONE', #242 ) ;
#636 = EDGE_CURVE ( 'NONE', #1093, #867, #1006, .T. ) ;
#637 = CARTESIAN_POINT ( 'NONE',  ( 2.000000000000000000, -7.228416147400480440, -15.52417469626002777 ) ) ;
#638 = CYLINDRICAL_SURFACE ( 'NONE', #816, 5.000000000000000000 ) ;
#639 = FACE_OUTER_BOUND ( 'NONE', #1188, .T. ) ;
#640 = ORIENTED_EDGE ( 'NONE', *, *, #384, .T. ) ;
#641 = EDGE_CURVE ( 'NONE', #3, #867, #157, .T. ) ;
#642 = LOCAL_TIME ( 13, 49, 4.000000000000000000, #248 ) ;
#643 = CARTESIAN_POINT ( 'NONE',  ( 60.00000000000001421, 0.000000000000000000, 20.00000000000000000 ) ) ;
#644 = DIRECTION ( 'NONE',  ( 0.000000000000000000, -1.000000000000000000, 0.000000000000000000 ) ) ;
#645 = CARTESIAN_POINT ( 'NONE',  ( 11.76470588235294024, -22.05882352941176450, 20.00000000000000000 ) ) ;
#646 = PLANE ( 'NONE',  #196 ) ;
#647 = ORIENTED_EDGE ( 'NONE', *, *, #155, .F. ) ;
#648 = DIRECTION ( 'NONE',  ( 1.000000000000000000, 0.000000000000000000, 0.000000000000000000 ) ) ;
#649 = ADVANCED_FACE ( 'NONE', ( #935 ), #836, .F. ) ;
#650 = AXIS2_PLACEMENT_3D ( 'NONE', #554, #337, #1031 ) ;
#651 = AXIS2_PLACEMENT_3D ( 'NONE', #70, #1273, #869 ) ;
#652 = DIRECTION ( 'NONE',  ( -0.000000000000000000, -0.000000000000000000, -1.000000000000000000 ) ) ;
#653 = AXIS2_PLACEMENT_3D ( 'NONE', #385, #872, #985 ) ;
#654 = CARTESIAN_POINT ( 'NONE',  ( 90.00000000000000000, -12.49999999999999822, 20.00000000000000000 ) ) ;
#655 = DIRECTION ( 'NONE',  ( 0.000000000000000000, 0.000000000000000000, 1.000000000000000000 ) ) ;
#656 = VECTOR ( 'NONE', #159, 1000.000000000000000 ) ;
#657 = CYLINDRICAL_SURFACE ( 'NONE', #650, 7.500000000000000888 ) ;
#658 = CARTESIAN_POINT ( 'NONE',  ( 50.00000000000002842, 12.49999999999999645, 20.00000000000000000 ) ) ;
#659 = CARTESIAN_POINT ( 'NONE',  ( 1.999999999999998668, -7.228416147400480440, 210.0000000000000284 ) ) ;
#660 = FACE_OUTER_BOUND ( 'NONE', #777, .T. ) ;
#661 = ORIENTED_EDGE ( 'NONE', *, *, #865, .F. ) ;
#662 = EDGE_LOOP ( 'NONE', ( #631, #714, #394, #17 ) ) ;
#663 = CARTESIAN_POINT ( 'NONE',  ( 2.000000000000000000, -7.228416147400480440, 245.5241746962600473 ) ) ;
#664 = EDGE_CURVE ( 'NONE', #1116, #684, #1177, .T. ) ;
#665 = CARTESIAN_POINT ( 'NONE',  ( 49.99999999999999289, -12.50000000000000711, 230.0000000000000000 ) ) ;
#666 = APPLICATION_PROTOCOL_DEFINITION ( 'international standard', 'config_control_design', 1994, #707 ) ;
#667 = CARTESIAN_POINT ( 'NONE',  ( 90.00000000000000000, -12.49999999999999822, 210.0000000000000284 ) ) ;
#668 = ORIENTED_EDGE ( 'NONE', *, *, #310, .F. ) ;
#669 = ORIENTED_EDGE ( 'NONE', *, *, #597, .F. ) ;
#670 = DIRECTION ( 'NONE',  ( 0.000000000000000000, 0.000000000000000000, 1.000000000000000000 ) ) ;
#671 = CIRCLE ( 'NONE', #246, 5.000000000000000000 ) ;
#672 = CARTESIAN_POINT ( 'NONE',  ( 49.99999999999999289, -12.50000000000000711, 20.00000000000000000 ) ) ;
#673 = CARTESIAN_POINT ( 'NONE',  ( 2.000000000000000000, -4.582575694955840717, 0.000000000000000000 ) ) ;
#674 = EDGE_CURVE ( 'NONE', #925, #327, #483, .T. ) ;
#675 = VECTOR ( 'NONE', #152, 1000.000000000000000 ) ;
#676 = VERTEX_POINT ( 'NONE', #751 ) ;
#677 = DIRECTION ( 'NONE',  ( -0.000000000000000000, -0.000000000000000000, 1.000000000000000000 ) ) ;
#678 = DIRECTION ( 'NONE',  ( -0.000000000000000000, -0.000000000000000000, 1.000000000000000000 ) ) ;
#679 = CARTESIAN_POINT ( 'NONE',  ( 0.000000000000000000, 0.000000000000000000, 20.00000000000000000 ) ) ;
#680 = ORIENTED_EDGE ( 'NONE', *, *, #813, .F. ) ;
#681 = CARTESIAN_POINT ( 'NONE',  ( 49.99999999999999289, -12.50000000000000711, 210.0000000000000284 ) ) ;
#682 = CARTESIAN_POINT ( 'NONE',  ( 11.76470588235293668, 22.05882352941176805, 0.000000000000000000 ) ) ;
#683 = CARTESIAN_POINT ( 'NONE',  ( 90.00000000000000000, -12.49999999999999822, 20.00000000000000000 ) ) ;
#684 = VERTEX_POINT ( 'NONE', #1154 ) ;
#685 = EDGE_CURVE ( 'NONE', #407, #1268, #1245, .T. ) ;
#686 = ADVANCED_BREP_SHAPE_REPRESENTATION ( 'Link3Body_Default_sldprt', ( #600, #380 ), #426 ) ;
#687 = VERTEX_POINT ( 'NONE', #681 ) ;
#688 = CARTESIAN_POINT ( 'NONE',  ( 90.00000000000000000, -12.49999999999999822, 210.0000000000000284 ) ) ;
#689 = VERTEX_POINT ( 'NONE', #1117 ) ;
#690 = CARTESIAN_POINT ( 'NONE',  ( -2.000000000000000000, 7.228416147400480440, 245.5241746962600473 ) ) ;
#691 = DIRECTION ( 'NONE',  ( 1.000000000000000000, 0.000000000000000000, 0.000000000000000000 ) ) ;
#692 = ORIENTED_EDGE ( 'NONE', *, *, #854, .F. ) ;
#693 = EDGE_CURVE ( 'NONE', #214, #786, #1228, .T. ) ;
#694 = VERTEX_POINT ( 'NONE', #189 ) ;
#695 = CARTESIAN_POINT ( 'NONE',  ( 2.000000000000000000, -4.582575694955840717, 230.0000000000000000 ) ) ;
#696 = VERTEX_POINT ( 'NONE', #764 ) ;
#697 = AXIS2_PLACEMENT_3D ( 'NONE', #136, #39, #1133 ) ;
#698 = DIRECTION ( 'NONE',  ( -1.000000000000000000, 0.000000000000000000, 0.000000000000000000 ) ) ;
#699 = PLANE ( 'NONE',  #823 ) ;
#700 = ORIENTED_EDGE ( 'NONE', *, *, #178, .T. ) ;
#701 = AXIS2_PLACEMENT_3D ( 'NONE', #989, #85, #402 ) ;
#702 = ORIENTED_EDGE ( 'NONE', *, *, #64, .F. ) ;
#703 = CARTESIAN_POINT ( 'NONE',  ( -2.000000000000000000, 7.228416147400480440, -15.52417469626002777 ) ) ;
#704 = EDGE_CURVE ( 'NONE', #966, #381, #165, .T. ) ;
#705 = VERTEX_POINT ( 'NONE', #672 ) ;
#706 = CARTESIAN_POINT ( 'NONE',  ( 2.000000000000000000, -7.228416147400480440, 230.0000000000000000 ) ) ;
#707 = APPLICATION_CONTEXT ( 'configuration controlled 3d designs of mechanical parts and assemblies' ) ;
#708 = DIRECTION ( 'NONE',  ( 1.000000000000000000, -2.168404344971008868E-16, 0.000000000000000000 ) ) ;
#709 = ORIENTED_EDGE ( 'NONE', *, *, #891, .F. ) ;
#710 = DIRECTION ( 'NONE',  ( 1.000000000000000000, 0.000000000000000000, 0.000000000000000000 ) ) ;
#711 = ORIENTED_EDGE ( 'NONE', *, *, #1282, .F. ) ;
#712 = CARTESIAN_POINT ( 'NONE',  ( 0.000000000000000000, 0.000000000000000000, 20.00000000000000000 ) ) ;
#713 = FACE_OUTER_BOUND ( 'NONE', #80, .T. ) ;
#714 = ORIENTED_EDGE ( 'NONE', *, *, #336, .F. ) ;
#715 = EDGE_LOOP ( 'NONE', ( #476, #285, #106, #1295 ) ) ;
#716 = VECTOR ( 'NONE', #1087, 1000.000000000000000 ) ;
#717 = CIRCLE ( 'NONE', #460, 7.500000000000000888 ) ;
#718 = CARTESIAN_POINT ( 'NONE',  ( 0.000000000000000000, 0.000000000000000000, 20.00000000000000000 ) ) ;
#719 = VECTOR ( 'NONE', #399, 1000.000000000000000 ) ;
#720 = EDGE_LOOP ( 'NONE', ( #428, #702, #1181, #732 ) ) ;
#721 = ORIENTED_EDGE ( 'NONE', *, *, #1081, .F. ) ;
#722 = EDGE_CURVE ( 'NONE', #879, #1096, #1255, .T. ) ;
#723 = LINE ( 'NONE', #1021, #431 ) ;
#724 = CYLINDRICAL_SURFACE ( 'NONE', #227, 12.49999999999999645 ) ;
#725 = VERTEX_POINT ( 'NONE', #665 ) ;
#726 = ORIENTED_EDGE ( 'NONE', *, *, #155, .T. ) ;
#727 = CALENDAR_DATE ( 2026, 31, 7 ) ;
#728 = ORGANIZATION ( 'UNSPECIFIED', 'UNSPECIFIED', '' ) ;
#729 = CARTESIAN_POINT ( 'NONE',  ( 5.000000000000000000, 0.000000000000000000, 244.1421356237309794 ) ) ;
#730 = CARTESIAN_POINT ( 'NONE',  ( 2.000000000000000000, -7.228416147400480440, 20.00000000000000000 ) ) ;
#731 = ADVANCED_FACE ( 'NONE', ( #975 ), #288, .F. ) ;
#732 = ORIENTED_EDGE ( 'NONE', *, *, #26, .T. ) ;
#733 = EDGE_LOOP ( 'NONE', ( #830, #1026 ) ) ;
#734 = CIRCLE ( 'NONE', #697, 5.000000000000000000 ) ;
#735 = AXIS2_PLACEMENT_3D ( 'NONE', #257, #534, #1058 ) ;
#736 = CARTESIAN_POINT ( 'NONE',  ( 70.00000000000000000, 0.000000000000000000, 115.0000000000000000 ) ) ;
#737 = AXIS2_PLACEMENT_3D ( 'NONE', #371, #559, #655 ) ;
#738 = APPROVAL ( #765, 'UNSPECIFIED' ) ;
#739 = LINE ( 'NONE', #354, #1286 ) ;
#740 = FACE_BOUND ( 'NONE', #1283, .T. ) ;
#741 = EDGE_CURVE ( 'NONE', #1205, #925, #848, .T. ) ;
#742 = CARTESIAN_POINT ( 'NONE',  ( -2.000000000000000000, -7.228416147400480440, 245.5241746962600473 ) ) ;
#743 = DIRECTION ( 'NONE',  ( 0.000000000000000000, 0.000000000000000000, -1.000000000000000000 ) ) ;
#744 = LINE ( 'NONE', #1254, #252 ) ;
#745 = DIRECTION ( 'NONE',  ( 0.000000000000000000, 0.000000000000000000, 1.000000000000000000 ) ) ;
#746 = EDGE_LOOP ( 'NONE', ( #434, #130, #908, #277 ) ) ;
#747 = DIRECTION ( 'NONE',  ( -1.000000000000000000, 0.000000000000000000, 0.000000000000000000 ) ) ;
#748 = AXIS2_PLACEMENT_3D ( 'NONE', #1141, #743, #244 ) ;
#749 = ORIENTED_EDGE ( 'NONE', *, *, #1078, .T. ) ;
#750 = CARTESIAN_POINT ( 'NONE',  ( 90.00000000000000000, 12.49999999999999822, 230.0000000000000000 ) ) ;
#751 = CARTESIAN_POINT ( 'NONE',  ( 1.999999999999999112, -7.228416147400482217, 0.000000000000000000 ) ) ;
#752 = CALENDAR_DATE ( 2026, 31, 7 ) ;
#753 = LINE ( 'NONE', #1033, #591 ) ;
#754 = CIRCLE ( 'NONE', #1229, 9.999999999999994671 ) ;
#755 = CARTESIAN_POINT ( 'NONE',  ( 2.000000000000000000, 7.228416147400480440, -15.52417469626002777 ) ) ;
#756 = EDGE_LOOP ( 'NONE', ( #843, #318, #1108, #889 ) ) ;
#757 = DIRECTION ( 'NONE',  ( 0.000000000000000000, 0.000000000000000000, -1.000000000000000000 ) ) ;
#758 = CALENDAR_DATE ( 2026, 31, 7 ) ;
#759 = CARTESIAN_POINT ( 'NONE',  ( 0.000000000000000000, 0.000000000000000000, 210.0000000000000284 ) ) ;
#760 = ORIENTED_EDGE ( 'NONE', *, *, #179, .F. ) ;
#761 = EDGE_CURVE ( 'NONE', #519, #270, #1029, .T. ) ;
#762 = CARTESIAN_POINT ( 'NONE',  ( 49.99999999999999289, -12.50000000000000711, 20.00000000000000000 ) ) ;
#763 = LOCAL_TIME ( 13, 49, 4.000000000000000000, #273 ) ;
#764 = CARTESIAN_POINT ( 'NONE',  ( -2.000000000000000000, -7.228416147400480440, 210.0000000000000284 ) ) ;
#765 = APPROVAL_STATUS ( 'not_yet_approved' ) ;
#766 = DIRECTION ( 'NONE',  ( -0.000000000000000000, -0.000000000000000000, -1.000000000000000000 ) ) ;
#767 = CARTESIAN_POINT ( 'NONE',  ( 0.000000000000000000, 0.000000000000000000, 0.000000000000000000 ) ) ;
#768 = ADVANCED_FACE ( 'NONE', ( #863 ), #1009, .F. ) ;
#769 = ORIENTED_EDGE ( 'NONE', *, *, #793, .F. ) ;
#770 = AXIS2_PLACEMENT_3D ( 'NONE', #265, #187, #857 ) ;
#771 = DIRECTION ( 'NONE',  ( -0.000000000000000000, -0.000000000000000000, 1.000000000000000000 ) ) ;
#772 = ORIENTED_EDGE ( 'NONE', *, *, #379, .F. ) ;
#773 = CARTESIAN_POINT ( 'NONE',  ( 90.00000000000000000, 0.000000000000000000, 0.000000000000000000 ) ) ;
#774 = LINE ( 'NONE', #783, #1106 ) ;
#775 = VECTOR ( 'NONE', #899, 1000.000000000000000 ) ;
#776 = VECTOR ( 'NONE', #103, 1000.000000000000000 ) ;
#777 = EDGE_LOOP ( 'NONE', ( #186, #541, #339, #883 ) ) ;
#778 = EDGE_CURVE ( 'NONE', #327, #1116, #65, .T. ) ;
#779 = AXIS2_PLACEMENT_3D ( 'NONE', #83, #183, #464 ) ;
#780 = DIRECTION ( 'NONE',  ( 1.000000000000000000, 0.000000000000000000, 0.000000000000000000 ) ) ;
#781 = ORIENTED_EDGE ( 'NONE', *, *, #761, .F. ) ;
#782 = DIRECTION ( 'NONE',  ( 1.000000000000000000, 0.000000000000000000, 0.000000000000000000 ) ) ;
#783 = CARTESIAN_POINT ( 'NONE',  ( 11.76470588235294024, -22.05882352941176450, 210.0000000000000284 ) ) ;
#784 = VERTEX_POINT ( 'NONE', #969 ) ;
#785 = CARTESIAN_POINT ( 'NONE',  ( 0.000000000000000000, 0.000000000000000000, 210.0000000000000284 ) ) ;
#786 = VERTEX_POINT ( 'NONE', #392 ) ;
#787 = ADVANCED_FACE ( 'NONE', ( #73 ), #962, .F. ) ;
#788 = DIRECTION ( 'NONE',  ( -0.000000000000000000, -0.000000000000000000, 1.000000000000000000 ) ) ;
#789 = ORIENTED_EDGE ( 'NONE', *, *, #99, .F. ) ;
#790 = ORIENTED_EDGE ( 'NONE', *, *, #810, .T. ) ;
#791 = ORIENTED_EDGE ( 'NONE', *, *, #338, .F. ) ;
#792 = DIRECTION ( 'NONE',  ( 1.000000000000000000, 0.000000000000000000, 0.000000000000000000 ) ) ;
#793 = EDGE_CURVE ( 'NONE', #635, #725, #898, .T. ) ;
#794 = ORIENTED_EDGE ( 'NONE', *, *, #761, .T. ) ;
#795 = VECTOR ( 'NONE', #1260, 1000.000000000000000 ) ;
#796 = ORIENTED_EDGE ( 'NONE', *, *, #527, .F. ) ;
#797 = CYLINDRICAL_SURFACE ( 'NONE', #634, 25.00000000000000000 ) ;
#798 = VECTOR ( 'NONE', #1084, 1000.000000000000000 ) ;
#799 = CARTESIAN_POINT ( 'NONE',  ( 11.76470588235294024, -22.05882352941176450, 0.000000000000000000 ) ) ;
#800 = CIRCLE ( 'NONE', #367, 12.49999999999999645 ) ;
#801 = EDGE_CURVE ( 'NONE', #406, #207, #346, .T. ) ;
#802 = LINE ( 'NONE', #1279, #871 ) ;
#803 = CARTESIAN_POINT ( 'NONE',  ( 0.000000000000000000, 0.000000000000000000, 210.0000000000000284 ) ) ;
#804 = ORIENTED_EDGE ( 'NONE', *, *, #641, .F. ) ;
#805 = DIRECTION ( 'NONE',  ( -1.000000000000000000, 0.000000000000000000, 0.000000000000000000 ) ) ;
#806 = EDGE_CURVE ( 'NONE', #322, #442, #503, .T. ) ;
#807 = VERTEX_POINT ( 'NONE', #1184 ) ;
#808 = LINE ( 'NONE', #1206, #941 ) ;
#809 = DIRECTION ( 'NONE',  ( 1.000000000000000000, 0.000000000000000000, 0.000000000000000000 ) ) ;
#810 = EDGE_CURVE ( 'NONE', #725, #560, #81, .T. ) ;
#811 = CYLINDRICAL_SURFACE ( 'NONE', #543, 81.25000000000007105 ) ;
#812 = ORIENTED_EDGE ( 'NONE', *, *, #269, .F. ) ;
#813 = EDGE_CURVE ( 'NONE', #1129, #115, #901, .T. ) ;
#814 = CARTESIAN_POINT ( 'NONE',  ( 2.000000000000000000, -7.228416147400480440, 210.0000000000000284 ) ) ;
#815 = CYLINDRICAL_SURFACE ( 'NONE', #1194, 81.25000000000007105 ) ;
#816 = AXIS2_PLACEMENT_3D ( 'NONE', #390, #678, #1160 ) ;
#817 = VERTEX_POINT ( 'NONE', #419 ) ;
#818 = ORIENTED_EDGE ( 'NONE', *, *, #254, .T. ) ;
#819 = EDGE_CURVE ( 'NONE', #492, #786, #808, .T. ) ;
#820 = VECTOR ( 'NONE', #902, 1000.000000000000000 ) ;
#821 = EDGE_CURVE ( 'NONE', #319, #579, #852, .T. ) ;
#822 = CARTESIAN_POINT ( 'NONE',  ( -2.000000000000000000, -4.582575694955840717, -14.14213562373095279 ) ) ;
#823 = AXIS2_PLACEMENT_3D ( 'NONE', #888, #447, #151 ) ;
#824 = DIRECTION ( 'NONE',  ( 0.000000000000000000, 0.000000000000000000, 1.000000000000000000 ) ) ;
#825 = CIRCLE ( 'NONE', #991, 5.000000000000000000 ) ;
#826 = EDGE_LOOP ( 'NONE', ( #403, #210, #255, #1192 ) ) ;
#827 = EDGE_LOOP ( 'NONE', ( #1090, #1233 ) ) ;
#828 = PERSON_AND_ORGANIZATION ( #841, #728 ) ;
#829 = DIRECTION ( 'NONE',  ( -0.000000000000000000, -0.000000000000000000, 1.000000000000000000 ) ) ;
#830 = ORIENTED_EDGE ( 'NONE', *, *, #377, .T. ) ;
#831 = CARTESIAN_POINT ( 'NONE',  ( 50.00000000000002842, 12.49999999999999645, 20.00000000000000000 ) ) ;
#832 = PRODUCT_RELATED_PRODUCT_CATEGORY ( 'detail', '', ( #1036 ) ) ;
#833 = CARTESIAN_POINT ( 'NONE',  ( 90.00000000000000000, -12.49999999999999822, 230.0000000000000000 ) ) ;
#834 = ADVANCED_FACE ( 'NONE', ( #413 ), #1280, .T. ) ;
#835 = DIRECTION ( 'NONE',  ( -1.000000000000000000, 0.000000000000000000, 0.000000000000000000 ) ) ;
#836 = PLANE ( 'NONE',  #611 ) ;
#837 = CIRCLE ( 'NONE', #306, 81.25000000000008527 ) ;
#838 = DIRECTION ( 'NONE',  ( -0.000000000000000000, -0.000000000000000000, -1.000000000000000000 ) ) ;
#839 = CARTESIAN_POINT ( 'NONE',  ( 0.000000000000000000, 0.000000000000000000, 20.00000000000000000 ) ) ;
#840 = DIRECTION ( 'NONE',  ( 0.000000000000000000, 0.000000000000000000, 1.000000000000000000 ) ) ;
#841 = PERSON ( 'UNSPECIFIED', 'UNSPECIFIED', 'UNSPECIFIED', ('UNSPECIFIED'), ('UNSPECIFIED'), ('UNSPECIFIED') ) ;
#842 = CARTESIAN_POINT ( 'NONE',  ( 90.00000000000000000, 12.49999999999999822, 20.00000000000000000 ) ) ;
#843 = ORIENTED_EDGE ( 'NONE', *, *, #238, .F. ) ;
#844 = COORDINATED_UNIVERSAL_TIME_OFFSET ( 3, 30, .AHEAD. ) ;
#845 = LINE ( 'NONE', #1243, #508 ) ;
#846 = EDGE_CURVE ( 'NONE', #514, #389, #717, .T. ) ;
#847 = DIRECTION ( 'NONE',  ( 0.000000000000000000, 1.000000000000000000, 0.000000000000000000 ) ) ;
#848 = CIRCLE ( 'NONE', #298, 5.000000000000000000 ) ;
#849 = CARTESIAN_POINT ( 'NONE',  ( 0.000000000000000000, 0.000000000000000000, 230.0000000000000000 ) ) ;
#850 = PERSON_AND_ORGANIZATION ( #841, #728 ) ;
#851 = FACE_OUTER_BOUND ( 'NONE', #887, .T. ) ;
#852 = CIRCLE ( 'NONE', #302, 5.000000000000000000 ) ;
#853 = DIRECTION ( 'NONE',  ( -0.000000000000000000, -0.000000000000000000, 1.000000000000000000 ) ) ;
#854 = EDGE_CURVE ( 'NONE', #398, #1159, #129, .T. ) ;
#855 = ORIENTED_EDGE ( 'NONE', *, *, #612, .F. ) ;
#856 = AXIS2_PLACEMENT_3D ( 'NONE', #565, #955, #859 ) ;
#857 = DIRECTION ( 'NONE',  ( -1.000000000000000000, 0.000000000000000000, 0.000000000000000000 ) ) ;
#858 = DIRECTION ( 'NONE',  ( 0.000000000000000000, 0.000000000000000000, -1.000000000000000000 ) ) ;
#859 = DIRECTION ( 'NONE',  ( -1.000000000000000000, 0.000000000000000000, 0.000000000000000000 ) ) ;
#860 = CARTESIAN_POINT ( 'NONE',  ( 2.000000000000000000, 7.228416147400480440, 20.00000000000000000 ) ) ;
#861 = ORIENTED_EDGE ( 'NONE', *, *, #416, .T. ) ;
#862 = DIRECTION ( 'NONE',  ( 1.000000000000000000, 0.000000000000000000, 0.000000000000000000 ) ) ;
#863 = FACE_OUTER_BOUND ( 'NONE', #334, .T. ) ;
#864 = DIRECTION ( 'NONE',  ( 1.000000000000000000, 0.000000000000000000, 0.000000000000000000 ) ) ;
#865 = EDGE_CURVE ( 'NONE', #694, #486, #577, .T. ) ;
#866 = ORIENTED_EDGE ( 'NONE', *, *, #1123, .F. ) ;
#867 = VERTEX_POINT ( 'NONE', #799 ) ;
#868 = AXIS2_PLACEMENT_3D ( 'NONE', #540, #533, #929 ) ;
#869 = DIRECTION ( 'NONE',  ( -1.000000000000000000, -2.168404344971008868E-16, -0.000000000000000000 ) ) ;
#870 = ORIENTED_EDGE ( 'NONE', *, *, #972, .F. ) ;
#871 = VECTOR ( 'NONE', #886, 1000.000000000000000 ) ;
#872 = DIRECTION ( 'NONE',  ( 0.000000000000000000, 0.000000000000000000, -1.000000000000000000 ) ) ;
#873 = CYLINDRICAL_SURFACE ( 'NONE', #856, 25.00000000000000000 ) ;
#874 = CARTESIAN_POINT ( 'NONE',  ( 0.000000000000000000, 0.000000000000000000, 210.0000000000000284 ) ) ;
#875 = AXIS2_PLACEMENT_3D ( 'NONE', #1248, #137, #930 ) ;
#876 = ORIENTED_EDGE ( 'NONE', *, *, #625, .F. ) ;
#877 = ORIENTED_EDGE ( 'NONE', *, *, #685, .T. ) ;
#878 = CARTESIAN_POINT ( 'NONE',  ( 0.000000000000000000, 0.000000000000000000, 20.00000000000000000 ) ) ;
#879 = VERTEX_POINT ( 'NONE', #511 ) ;
#880 = DIRECTION ( 'NONE',  ( 1.000000000000000000, 0.000000000000000000, 0.000000000000000000 ) ) ;
#881 = CARTESIAN_POINT ( 'NONE',  ( 90.00000000000000000, 12.49999999999999822, 20.00000000000000000 ) ) ;
#882 = DIRECTION ( 'NONE',  ( 0.000000000000000000, 0.000000000000000000, 1.000000000000000000 ) ) ;
#883 = ORIENTED_EDGE ( 'NONE', *, *, #566, .F. ) ;
#884 = CARTESIAN_POINT ( 'NONE',  ( 50.00000000000001421, 93.75000000000009948, 210.0000000000000284 ) ) ;
#885 = ORIENTED_EDGE ( 'NONE', *, *, #801, .T. ) ;
#886 = DIRECTION ( 'NONE',  ( 1.000000000000000000, 2.168404344971008868E-16, -0.000000000000000000 ) ) ;
#887 = EDGE_LOOP ( 'NONE', ( #812, #95, #1005, #804 ) ) ;
#888 = CARTESIAN_POINT ( 'NONE',  ( 2.000000000000000000, -7.228416147400480440, -15.52417469626002777 ) ) ;
#889 = ORIENTED_EDGE ( 'NONE', *, *, #704, .F. ) ;
#890 = ADVANCED_FACE ( 'NONE', ( #979 ), #797, .T. ) ;
#891 = EDGE_CURVE ( 'NONE', #560, #817, #800, .T. ) ;
#892 = CARTESIAN_POINT ( 'NONE',  ( 50.00000000000002842, 12.49999999999999645, 230.0000000000000000 ) ) ;
#893 = EDGE_CURVE ( 'NONE', #1105, #319, #176, .T. ) ;
#894 = ORIENTED_EDGE ( 'NONE', *, *, #264, .T. ) ;
#895 = AXIS2_PLACEMENT_3D ( 'NONE', #1174, #286, #1247 ) ;
#896 = CYLINDRICAL_SURFACE ( 'NONE', #981, 5.000000000000000000 ) ;
#897 = AXIS2_PLACEMENT_3D ( 'NONE', #637, #216, #234 ) ;
#898 = CIRCLE ( 'NONE', #1215, 81.25000000000008527 ) ;
#899 = DIRECTION ( 'NONE',  ( 0.000000000000000000, -1.000000000000000000, -0.000000000000000000 ) ) ;
#900 = VECTOR ( 'NONE', #553, 1000.000000000000000 ) ;
#901 = LINE ( 'NONE', #814, #920 ) ;
#902 = DIRECTION ( 'NONE',  ( -0.000000000000000000, -1.000000000000000000, 0.000000000000000000 ) ) ;
#903 = EDGE_LOOP ( 'NONE', ( #1075, #1289, #163, #605 ) ) ;
#904 = CARTESIAN_POINT ( 'NONE',  ( 60.00000000000001421, 0.000000000000000000, 210.0000000000000284 ) ) ;
#905 = CARTESIAN_POINT ( 'NONE',  ( 2.000000000000000000, -7.228416147400480440, 230.0000000000000000 ) ) ;
#906 = DIRECTION ( 'NONE',  ( 1.000000000000000000, 0.000000000000000000, 0.000000000000000000 ) ) ;
#907 = EDGE_CURVE ( 'NONE', #1055, #988, #550, .T. ) ;
#908 = ORIENTED_EDGE ( 'NONE', *, *, #416, .F. ) ;
#909 = ORIENTED_EDGE ( 'NONE', *, *, #572, .F. ) ;
#910 = DIRECTION ( 'NONE',  ( -1.000000000000000000, 0.000000000000000000, 0.000000000000000000 ) ) ;
#911 = EDGE_CURVE ( 'NONE', #76, #519, #44, .T. ) ;
#912 = DIRECTION ( 'NONE',  ( -0.000000000000000000, -0.000000000000000000, 1.000000000000000000 ) ) ;
#913 = EDGE_CURVE ( 'NONE', #684, #696, #154, .T. ) ;
#914 = CIRCLE ( 'NONE', #245, 25.00000000000000000 ) ;
#915 = ORIENTED_EDGE ( 'NONE', *, *, #108, .T. ) ;
#916 = ORIENTED_EDGE ( 'NONE', *, *, #141, .T. ) ;
#917 = AXIS2_PLACEMENT_3D ( 'NONE', #542, #333, #226 ) ;
#918 = DATE_AND_TIME ( #41, #763 ) ;
#919 = CARTESIAN_POINT ( 'NONE',  ( 11.76470588235293668, 22.05882352941176805, 210.0000000000000284 ) ) ;
#920 = VECTOR ( 'NONE', #1293, 1000.000000000000000 ) ;
#921 = EDGE_LOOP ( 'NONE', ( #481, #293, #647, #796 ) ) ;
#922 = DIRECTION ( 'NONE',  ( 0.000000000000000000, 0.000000000000000000, 1.000000000000000000 ) ) ;
#923 = AXIS2_PLACEMENT_3D ( 'NONE', #376, #766, #864 ) ;
#924 = ORIENTED_EDGE ( 'NONE', *, *, #537, .F. ) ;
#925 = VERTEX_POINT ( 'NONE', #1069 ) ;
#926 = ORIENTED_EDGE ( 'NONE', *, *, #352, .T. ) ;
#927 = CARTESIAN_POINT ( 'NONE',  ( 50.00000000000000000, -93.75000000000008527, 20.00000000000000000 ) ) ;
#928 = EDGE_CURVE ( 'NONE', #398, #1055, #964, .T. ) ;
#929 = DIRECTION ( 'NONE',  ( 1.000000000000000000, 0.000000000000000000, 0.000000000000000000 ) ) ;
#930 = DIRECTION ( 'NONE',  ( 1.000000000000000000, 0.000000000000000000, 0.000000000000000000 ) ) ;
#931 = DIRECTION ( 'NONE',  ( -0.000000000000000000, -0.000000000000000000, 1.000000000000000000 ) ) ;
#932 = DIRECTION ( 'NONE',  ( -0.000000000000000000, -0.000000000000000000, 1.000000000000000000 ) ) ;
#933 = FACE_OUTER_BOUND ( 'NONE', #84, .T. ) ;
#934 = EDGE_CURVE ( 'NONE', #239, #1093, #845, .T. ) ;
#935 = FACE_OUTER_BOUND ( 'NONE', #746, .T. ) ;
#936 = ORIENTED_EDGE ( 'NONE', *, *, #806, .F. ) ;
#937 = CIRCLE ( 'NONE', #562, 25.00000000000000000 ) ;
#938 = DIRECTION ( 'NONE',  ( 0.000000000000000000, 0.000000000000000000, -1.000000000000000000 ) ) ;
#939 = ADVANCED_FACE ( 'NONE', ( #48 ), #1146, .F. ) ;
#940 = AXIS2_PLACEMENT_3D ( 'NONE', #1127, #521, #910 ) ;
#941 = VECTOR ( 'NONE', #314, 1000.000000000000000 ) ;
#942 = FACE_BOUND ( 'NONE', #1209, .T. ) ;
#943 = PERSON_AND_ORGANIZATION_ROLE ( 'creator' ) ;
#944 = DIRECTION ( 'NONE',  ( 0.000000000000000000, 1.000000000000000000, 0.000000000000000000 ) ) ;
#945 = LINE ( 'NONE', #951, #148 ) ;
#946 = PRODUCT_DEFINITION_SHAPE ( 'NONE', 'NONE',  #461 ) ;
#947 = VERTEX_POINT ( 'NONE', #261 ) ;
#948 = CARTESIAN_POINT ( 'NONE',  ( -25.00000000000000000, 0.000000000000000000, 20.00000000000000000 ) ) ;
#949 = EDGE_LOOP ( 'NONE', ( #301, #86, #171, #661 ) ) ;
#950 = ADVANCED_FACE ( 'NONE', ( #660 ), #965, .F. ) ;
#951 = CARTESIAN_POINT ( 'NONE',  ( -2.000000000000000000, -7.228416147400480440, -15.52417469626002777 ) ) ;
#952 = CC_DESIGN_PERSON_AND_ORGANIZATION_ASSIGNMENT ( #547, #943, ( #582 ) ) ;
#953 = DIRECTION ( 'NONE',  ( 0.000000000000000000, 0.000000000000000000, -1.000000000000000000 ) ) ;
#954 = PERSON_AND_ORGANIZATION ( #841, #728 ) ;
#955 = DIRECTION ( 'NONE',  ( -0.000000000000000000, -0.000000000000000000, -1.000000000000000000 ) ) ;
#956 = DIRECTION ( 'NONE',  ( -0.000000000000000000, -0.000000000000000000, 1.000000000000000000 ) ) ;
#957 = ORIENTED_EDGE ( 'NONE', *, *, #625, .T. ) ;
#958 = CIRCLE ( 'NONE', #408, 9.999999999999994671 ) ;
#959 = VECTOR ( 'NONE', #847, 1000.000000000000000 ) ;
#960 = DIRECTION ( 'NONE',  ( 1.000000000000000000, 0.000000000000000000, -0.000000000000000000 ) ) ;
#961 = VECTOR ( 'NONE', #57, 1000.000000000000000 ) ;
#962 = PLANE ( 'NONE',  #172 ) ;
#963 = CARTESIAN_POINT ( 'NONE',  ( 90.00000000000000000, 12.49999999999999822, 210.0000000000000284 ) ) ;
#964 = CIRCLE ( 'NONE', #525, 7.500000000000000888 ) ;
#965 = PLANE ( 'NONE',  #278 ) ;
#966 = VERTEX_POINT ( 'NONE', #249 ) ;
#967 = ADVANCED_FACE ( 'NONE', ( #60 ), #1250, .F. ) ;
#968 = CARTESIAN_POINT ( 'NONE',  ( 90.00000000000000000, 12.49999999999999822, 210.0000000000000284 ) ) ;
#969 = CARTESIAN_POINT ( 'NONE',  ( -2.000000000000000000, -4.582575694955840717, 230.0000000000000000 ) ) ;
#970 = CARTESIAN_POINT ( 'NONE',  ( 1.999999999999998668, -7.228416147400480440, 245.5241746962600473 ) ) ;
#971 = ORIENTED_EDGE ( 'NONE', *, *, #590, .F. ) ;
#972 = EDGE_CURVE ( 'NONE', #694, #398, #465, .T. ) ;
#973 = FACE_OUTER_BOUND ( 'NONE', #280, .T. ) ;
#974 = ORIENTED_EDGE ( 'NONE', *, *, #45, .T. ) ;
#975 = FACE_OUTER_BOUND ( 'NONE', #22, .T. ) ;
#976 = LINE ( 'NONE', #393, #107 ) ;
#977 = CYLINDRICAL_SURFACE ( 'NONE', #233, 12.49999999999999645 ) ;
#978 = VERTEX_POINT ( 'NONE', #146 ) ;
#979 = FACE_OUTER_BOUND ( 'NONE', #198, .T. ) ;
#980 = LINE ( 'NONE', #493, #147 ) ;
#981 = AXIS2_PLACEMENT_3D ( 'NONE', #208, #513, #1004 ) ;
#982 = EDGE_LOOP ( 'NONE', ( #769, #510, #52, #576 ) ) ;
#983 = LINE ( 'NONE', #456, #1264 ) ;
#984 = ORIENTED_EDGE ( 'NONE', *, *, #220, .T. ) ;
#985 = DIRECTION ( 'NONE',  ( -1.000000000000000000, 0.000000000000000000, 0.000000000000000000 ) ) ;
#986 = DIRECTION ( 'NONE',  ( 0.000000000000000000, 0.000000000000000000, -1.000000000000000000 ) ) ;
#987 = CARTESIAN_POINT ( 'NONE',  ( 2.000000000000000000, 4.582575694955840717, 244.1421356237309794 ) ) ;
#988 = VERTEX_POINT ( 'NONE', #860 ) ;
#989 = CARTESIAN_POINT ( 'NONE',  ( 0.000000000000000000, 0.000000000000000000, -14.14213562373095279 ) ) ;
#990 = ORIENTED_EDGE ( 'NONE', *, *, #203, .F. ) ;
#991 = AXIS2_PLACEMENT_3D ( 'NONE', #370, #289, #479 ) ;
#992 = CARTESIAN_POINT ( 'NONE',  ( -2.000000000000000000, 7.228416147400480440, 230.0000000000000000 ) ) ;
#993 = EDGE_LOOP ( 'NONE', ( #709, #89, #1259, #1100 ) ) ;
#994 = ORIENTED_EDGE ( 'NONE', *, *, #704, .T. ) ;
#995 = FACE_OUTER_BOUND ( 'NONE', #296, .T. ) ;
#996 = ORIENTED_EDGE ( 'NONE', *, *, #108, .F. ) ;
#997 = FACE_OUTER_BOUND ( 'NONE', #316, .T. ) ;
#998 = FACE_OUTER_BOUND ( 'NONE', #372, .T. ) ;
#999 = EDGE_CURVE ( 'NONE', #340, #514, #945, .T. ) ;
#1000 = ORIENTED_EDGE ( 'NONE', *, *, #446, .T. ) ;
#1001 = CYLINDRICAL_SURFACE ( 'NONE', #8, 7.500000000000000888 ) ;
#1002 = VECTOR ( 'NONE', #1017, 1000.000000000000000 ) ;
#1003 = ORIENTED_EDGE ( 'NONE', *, *, #1288, .T. ) ;
#1004 = DIRECTION ( 'NONE',  ( 1.000000000000000000, 0.000000000000000000, 0.000000000000000000 ) ) ;
#1005 = ORIENTED_EDGE ( 'NONE', *, *, #636, .T. ) ;
#1006 = CIRCLE ( 'NONE', #875, 25.00000000000000000 ) ;
#1007 = DIRECTION ( 'NONE',  ( -1.000000000000000000, 2.168404344971008868E-16, 0.000000000000000000 ) ) ;
#1008 = CIRCLE ( 'NONE', #449, 25.00000000000000000 ) ;
#1009 = CYLINDRICAL_SURFACE ( 'NONE', #1199, 81.25000000000009948 ) ;
#1010 = CC_DESIGN_PERSON_AND_ORGANIZATION_ASSIGNMENT ( #369, #12, ( #582 ) ) ;
#1011 = ORIENTED_EDGE ( 'NONE', *, *, #1132, .F. ) ;
#1012 = CARTESIAN_POINT ( 'NONE',  ( 49.99999999999999289, -12.50000000000000711, 210.0000000000000284 ) ) ;
#1013 = VERTEX_POINT ( 'NONE', #881 ) ;
#1014 = EDGE_CURVE ( 'NONE', #498, #519, #209, .T. ) ;
#1015 = CARTESIAN_POINT ( 'NONE',  ( -2.000000000000000000, -7.228416147400480440, 20.00000000000000000 ) ) ;
#1016 = EDGE_CURVE ( 'NONE', #193, #1205, #1291, .T. ) ;
#1017 = DIRECTION ( 'NONE',  ( -0.000000000000000000, -0.000000000000000000, 1.000000000000000000 ) ) ;
#1018 = ORIENTED_EDGE ( 'NONE', *, *, #269, .T. ) ;
#1019 = ORIENTED_EDGE ( 'NONE', *, *, #178, .F. ) ;
#1020 = PERSON_AND_ORGANIZATION_ROLE ( 'design_owner' ) ;
#1021 = CARTESIAN_POINT ( 'NONE',  ( 2.000000000000000000, -7.228416147400480440, 0.000000000000000000 ) ) ;
#1022 = DIRECTION ( 'NONE',  ( -0.000000000000000000, -0.000000000000000000, 1.000000000000000000 ) ) ;
#1023 = AXIS2_PLACEMENT_3D ( 'NONE', #736, #156, #552 ) ;
#1024 = LINE ( 'NONE', #20, #105 ) ;
#1025 = ORIENTED_EDGE ( 'NONE', *, *, #1147, .F. ) ;
#1026 = ORIENTED_EDGE ( 'NONE', *, *, #343, .T. ) ;
#1027 = CIRCLE ( 'NONE', #229, 9.999999999999994671 ) ;
#1028 = APPROVAL_DATE_TIME ( #225, #232 ) ;
#1029 = CIRCLE ( 'NONE', #230, 12.49999999999999645 ) ;
#1030 = AXIS2_PLACEMENT_3D ( 'NONE', #803, #506, #1175 ) ;
#1031 = DIRECTION ( 'NONE',  ( 1.000000000000000000, 0.000000000000000000, 0.000000000000000000 ) ) ;
#1032 = AXIS2_PLACEMENT_3D ( 'NONE', #1168, #589, #259 ) ;
#1033 = CARTESIAN_POINT ( 'NONE',  ( 90.00000000000000000, 12.49999999999999822, 20.00000000000000000 ) ) ;
#1034 = UNCERTAINTY_MEASURE_WITH_UNIT (LENGTH_MEASURE( 1.000000000000000082E-05 ), #564, 'distance_accuracy_value', 'NONE');
#1035 = ORIENTED_EDGE ( 'NONE', *, *, #409, .T. ) ;
#1036 = PRODUCT ( 'Link3Body_Default_sldprt', 'Link3Body_Default_sldprt', '', ( #47 ) ) ;
#1037 = CARTESIAN_POINT ( 'NONE',  ( 90.00000000000000000, -12.49999999999999822, 20.00000000000000000 ) ) ;
#1038 = ADVANCED_FACE ( 'NONE', ( #998 ), #977, .T. ) ;
#1039 = CYLINDRICAL_SURFACE ( 'NONE', #1048, 9.999999999999994671 ) ;
#1040 = DIRECTION ( 'NONE',  ( 1.000000000000000000, 0.000000000000000000, 0.000000000000000000 ) ) ;
#1041 = EDGE_LOOP ( 'NONE', ( #1297, #916, #789, #21 ) ) ;
#1042 = LINE ( 'NONE', #30, #410 ) ;
#1043 = DIRECTION ( 'NONE',  ( 0.000000000000000000, 1.000000000000000000, 0.000000000000000000 ) ) ;
#1044 = DIRECTION ( 'NONE',  ( -1.000000000000000000, 0.000000000000000000, 0.000000000000000000 ) ) ;
#1045 = CARTESIAN_POINT ( 'NONE',  ( 50.00000000000000000, -93.75000000000008527, 0.000000000000000000 ) ) ;
#1046 = ORIENTED_EDGE ( 'NONE', *, *, #347, .F. ) ;
#1047 = DIRECTION ( 'NONE',  ( 0.000000000000000000, 0.000000000000000000, -1.000000000000000000 ) ) ;
#1048 = AXIS2_PLACEMENT_3D ( 'NONE', #544, #838, #835 ) ;
#1049 = AXIS2_PLACEMENT_3D ( 'NONE', #300, #490, #792 ) ;
#1050 = AXIS2_PLACEMENT_3D ( 'NONE', #785, #1187, #292 ) ;
#1051 = DIRECTION ( 'NONE',  ( 0.000000000000000000, 1.000000000000000000, 0.000000000000000000 ) ) ;
#1052 = EDGE_CURVE ( 'NONE', #696, #1129, #1246, .T. ) ;
#1053 = DIRECTION ( 'NONE',  ( 0.000000000000000000, 0.000000000000000000, -1.000000000000000000 ) ) ;
#1054 = EDGE_CURVE ( 'NONE', #978, #807, #348, .T. ) ;
#1055 = VERTEX_POINT ( 'NONE', #351 ) ;
#1056 = ADVANCED_FACE ( 'NONE', ( #307 ), #1073, .F. ) ;
#1057 = DIRECTION ( 'NONE',  ( -0.000000000000000000, -0.000000000000000000, 1.000000000000000000 ) ) ;
#1058 = DIRECTION ( 'NONE',  ( 1.000000000000000000, 0.000000000000000000, 0.000000000000000000 ) ) ;
#1059 = APPROVAL_ROLE ( '' ) ;
#1060 = DIRECTION ( 'NONE',  ( -0.000000000000000000, -0.000000000000000000, 1.000000000000000000 ) ) ;
#1061 = DIRECTION ( 'NONE',  ( -0.000000000000000000, 0.000000000000000000, 1.000000000000000000 ) ) ;
#1062 = ADVANCED_FACE ( 'NONE', ( #251 ), #699, .F. ) ;
#1063 = ORIENTED_EDGE ( 'NONE', *, *, #1081, .T. ) ;
#1064 = ORIENTED_EDGE ( 'NONE', *, *, #1189, .F. ) ;
#1065 = DIRECTION ( 'NONE',  ( 1.000000000000000000, 0.000000000000000000, 0.000000000000000000 ) ) ;
#1066 = DIRECTION ( 'NONE',  ( -0.000000000000000000, -0.000000000000000000, -1.000000000000000000 ) ) ;
#1067 = CARTESIAN_POINT ( 'NONE',  ( 0.000000000000000000, 0.000000000000000000, 0.000000000000000000 ) ) ;
#1068 = CARTESIAN_POINT ( 'NONE',  ( -2.000000000000000000, 4.582575694955840717, 230.0000000000000000 ) ) ;
#1069 = CARTESIAN_POINT ( 'NONE',  ( 5.000000000000000000, 0.000000000000000000, 230.0000000000000000 ) ) ;
#1070 = ORIENTED_EDGE ( 'NONE', *, *, #203, .T. ) ;
#1071 = CLOSED_SHELL ( 'NONE', ( #834, #62, #222, #1252, #585, #260, #19, #649, #1038, #197, #768, #532, #505, #1111, #124, #467, #1, #616, #1062, #950, #939, #135, #9, #24, #358, #114, #424, #134, #890, #1142, #166, #1056, #967, #787, #440, #299, #731, #243 ) ) ;
#1072 = CC_DESIGN_PERSON_AND_ORGANIZATION_ASSIGNMENT ( #954, #58, ( #461 ) ) ;
#1073 = CYLINDRICAL_SURFACE ( 'NONE', #415, 5.000000000000000000 ) ;
#1074 = CIRCLE ( 'NONE', #770, 81.25000000000009948 ) ;
#1075 = ORIENTED_EDGE ( 'NONE', *, *, #819, .F. ) ;
#1076 = VECTOR ( 'NONE', #504, 1000.000000000000000 ) ;
#1077 = CARTESIAN_POINT ( 'NONE',  ( 60.00000000000001421, 0.000000000000000000, 115.0000000000000000 ) ) ;
#1078 = EDGE_CURVE ( 'NONE', #807, #696, #744, .T. ) ;
#1079 = CARTESIAN_POINT ( 'NONE',  ( 70.00000000000000000, 0.000000000000000000, 20.00000000000000000 ) ) ;
#1080 = PLANE ( 'NONE',  #779 ) ;
#1081 = EDGE_CURVE ( 'NONE', #1013, #619, #753, .T. ) ;
#1082 = CARTESIAN_POINT ( 'NONE',  ( 90.00000000000000000, -12.49999999999999822, 210.0000000000000284 ) ) ;
#1083 = ORIENTED_EDGE ( 'NONE', *, *, #674, .F. ) ;
#1084 = DIRECTION ( 'NONE',  ( 0.000000000000000000, 0.000000000000000000, -1.000000000000000000 ) ) ;
#1085 = DIRECTION ( 'NONE',  ( 0.000000000000000000, 0.000000000000000000, -1.000000000000000000 ) ) ;
#1086 = DIRECTION ( 'NONE',  ( -0.000000000000000000, -0.000000000000000000, 1.000000000000000000 ) ) ;
#1087 = DIRECTION ( 'NONE',  ( 0.000000000000000000, 1.000000000000000000, 0.000000000000000000 ) ) ;
#1088 = EDGE_LOOP ( 'NONE', ( #915, #1200, #608, #1125 ) ) ;
#1089 = DIRECTION ( 'NONE',  ( 1.000000000000000000, 0.000000000000000000, 0.000000000000000000 ) ) ;
#1090 = ORIENTED_EDGE ( 'NONE', *, *, #693, .F. ) ;
#1091 = DIRECTION ( 'NONE',  ( -1.000000000000000000, -0.000000000000000000, -0.000000000000000000 ) ) ;
#1092 = LINE ( 'NONE', #190, #719 ) ;
#1093 = VERTEX_POINT ( 'NONE', #345 ) ;
#1094 = APPLICATION_CONTEXT ( 'configuration controlled 3d designs of mechanical parts and assemblies' ) ;
#1095 = CARTESIAN_POINT ( 'NONE',  ( 2.000000000000000000, -7.228416147400480440, 210.0000000000000284 ) ) ;
#1096 = VERTEX_POINT ( 'NONE', #455 ) ;
#1097 = CIRCLE ( 'NONE', #1244, 5.000000000000000000 ) ;
#1098 = CARTESIAN_POINT ( 'NONE',  ( -2.000000000000000000, -7.228416147400480440, 0.000000000000000000 ) ) ;
#1099 = EDGE_CURVE ( 'NONE', #579, #988, #1232, .T. ) ;
#1100 = ORIENTED_EDGE ( 'NONE', *, *, #338, .T. ) ;
#1101 = EDGE_CURVE ( 'NONE', #786, #214, #754, .T. ) ;
#1102 = DIRECTION ( 'NONE',  ( -0.000000000000000000, -0.000000000000000000, 1.000000000000000000 ) ) ;
#1103 = AXIS2_PLACEMENT_3D ( 'NONE', #884, #472, #1149 ) ;
#1104 = VECTOR ( 'NONE', #956, 1000.000000000000000 ) ;
#1105 = VERTEX_POINT ( 'NONE', #353 ) ;
#1106 = VECTOR ( 'NONE', #387, 1000.000000000000000 ) ;
#1107 = DIRECTION ( 'NONE',  ( 1.000000000000000000, 0.000000000000000000, 0.000000000000000000 ) ) ;
#1108 = ORIENTED_EDGE ( 'NONE', *, *, #45, .F. ) ;
#1109 = FACE_OUTER_BOUND ( 'NONE', #662, .T. ) ;
#1110 = VERTEX_POINT ( 'NONE', #365 ) ;
#1111 = ADVANCED_FACE ( 'NONE', ( #740, #526 ), #646, .F. ) ;
#1112 = LINE ( 'NONE', #420, #820 ) ;
#1113 = ORIENTED_EDGE ( 'NONE', *, *, #907, .F. ) ;
#1114 = DIRECTION ( 'NONE',  ( -1.000000000000000000, 0.000000000000000000, 0.000000000000000000 ) ) ;
#1115 = APPROVAL_PERSON_ORGANIZATION ( #332, #561, #1059 ) ;
#1116 = VERTEX_POINT ( 'NONE', #223 ) ;
#1117 = CARTESIAN_POINT ( 'NONE',  ( -2.000000000000000000, -4.582575694955840717, 0.000000000000000000 ) ) ;
#1118 = CIRCLE ( 'NONE', #77, 5.000000000000000000 ) ;
#1119 = DIRECTION ( 'NONE',  ( 0.000000000000000000, -1.000000000000000000, 0.000000000000000000 ) ) ;
#1120 = VECTOR ( 'NONE', #329, 1000.000000000000000 ) ;
#1121 = ORIENTED_EDGE ( 'NONE', *, *, #433, .F. ) ;
#1122 = VERTEX_POINT ( 'NONE', #626 ) ;
#1123 = EDGE_CURVE ( 'NONE', #947, #1274, #1024, .T. ) ;
#1124 = CARTESIAN_POINT ( 'NONE',  ( 50.00000000000000000, -93.75000000000008527, 20.00000000000000000 ) ) ;
#1125 = ORIENTED_EDGE ( 'NONE', *, *, #865, .T. ) ;
#1126 = EDGE_LOOP ( 'NONE', ( #669, #1176, #971, #994 ) ) ;
#1127 = CARTESIAN_POINT ( 'NONE',  ( 0.000000000000000000, 0.000000000000000000, 20.00000000000000000 ) ) ;
#1128 = CARTESIAN_POINT ( 'NONE',  ( 0.000000000000000000, 0.000000000000000000, -14.14213562373095279 ) ) ;
#1129 = VERTEX_POINT ( 'NONE', #659 ) ;
#1130 = ORIENTED_EDGE ( 'NONE', *, *, #1099, .F. ) ;
#1131 = DATE_AND_TIME ( #727, #539 ) ;
#1132 = EDGE_CURVE ( 'NONE', #584, #947, #1008, .T. ) ;
#1133 = DIRECTION ( 'NONE',  ( 1.000000000000000000, 0.000000000000000000, 0.000000000000000000 ) ) ;
#1134 = CIRCLE ( 'NONE', #342, 7.500000000000000888 ) ;
#1135 = CARTESIAN_POINT ( 'NONE',  ( 70.00000000000000000, 0.000000000000000000, 20.00000000000000000 ) ) ;
#1136 = ORIENTED_EDGE ( 'NONE', *, *, #928, .F. ) ;
#1137 = VERTEX_POINT ( 'NONE', #673 ) ;
#1138 = EDGE_CURVE ( 'NONE', #442, #120, #59, .T. ) ;
#1139 = VECTOR ( 'NONE', #93, 1000.000000000000000 ) ;
#1140 = ORIENTED_EDGE ( 'NONE', *, *, #891, .T. ) ;
#1141 = CARTESIAN_POINT ( 'NONE',  ( 50.00000000000000000, -93.75000000000008527, 230.0000000000000000 ) ) ;
#1142 = ADVANCED_FACE ( 'NONE', ( #268, #1275, #1156 ), #1080, .T. ) ;
#1143 = ORIENTED_EDGE ( 'NONE', *, *, #401, .F. ) ;
#1144 = EDGE_CURVE ( 'NONE', #3, #705, #837, .T. ) ;
#1145 = DIRECTION ( 'NONE',  ( 1.000000000000000000, -2.168404344971008868E-16, 0.000000000000000000 ) ) ;
#1146 = CYLINDRICAL_SURFACE ( 'NONE', #55, 7.500000000000000888 ) ;
#1147 = EDGE_CURVE ( 'NONE', #1013, #270, #1092, .T. ) ;
#1148 = LINE ( 'NONE', #831, #628 ) ;
#1149 = DIRECTION ( 'NONE',  ( -1.000000000000000000, 0.000000000000000000, 0.000000000000000000 ) ) ;
#1150 = EDGE_CURVE ( 'NONE', #495, #193, #149, .T. ) ;
#1151 = ORIENTED_EDGE ( 'NONE', *, *, #778, .F. ) ;
#1152 = VECTOR ( 'NONE', #1086, 1000.000000000000000 ) ;
#1153 = DIRECTION ( 'NONE',  ( -1.000000000000000000, 2.168404344971008868E-16, 0.000000000000000000 ) ) ;
#1154 = CARTESIAN_POINT ( 'NONE',  ( -2.000000000000000000, -7.228416147400480440, 230.0000000000000000 ) ) ;
#1155 = DATE_TIME_ROLE ( 'classification_date' ) ;
#1156 = FACE_OUTER_BOUND ( 'NONE', #615, .T. ) ;
#1157 = DIRECTION ( 'NONE',  ( -0.000000000000000000, -0.000000000000000000, -1.000000000000000000 ) ) ;
#1158 = AXIS2_PLACEMENT_3D ( 'NONE', #759, #74, #175 ) ;
#1159 = VERTEX_POINT ( 'NONE', #581 ) ;
#1160 = DIRECTION ( 'NONE',  ( 1.000000000000000000, 0.000000000000000000, 0.000000000000000000 ) ) ;
#1161 = PERSON_AND_ORGANIZATION ( #841, #728 ) ;
#1162 = LINE ( 'NONE', #66, #16 ) ;
#1163 = DIRECTION ( 'NONE',  ( -0.000000000000000000, -0.000000000000000000, 1.000000000000000000 ) ) ;
#1164 = ORIENTED_EDGE ( 'NONE', *, *, #1276, .F. ) ;
#1165 = DIRECTION ( 'NONE',  ( 1.000000000000000000, 0.000000000000000000, 0.000000000000000000 ) ) ;
#1166 = DIRECTION ( 'NONE',  ( -1.000000000000000000, -0.000000000000000000, -0.000000000000000000 ) ) ;
#1167 = DIRECTION ( 'NONE',  ( 1.000000000000000000, 0.000000000000000000, 0.000000000000000000 ) ) ;
#1168 = CARTESIAN_POINT ( 'NONE',  ( 0.000000000000000000, 0.000000000000000000, 210.0000000000000284 ) ) ;
#1169 = CARTESIAN_POINT ( 'NONE',  ( -2.000000000000000000, 7.228416147400480440, 0.000000000000000000 ) ) ;
#1170 = EDGE_LOOP ( 'NONE', ( #1130, #309, #530, #760, #602, #382, #996, #772, #876 ) ) ;
#1171 = CIRCLE ( 'NONE', #607, 7.500000000000000888 ) ;
#1172 = CARTESIAN_POINT ( 'NONE',  ( -2.000000000000000000, 7.228416147400480440, -15.52417469626002777 ) ) ;
#1173 = CIRCLE ( 'NONE', #1049, 5.000000000000000000 ) ;
#1174 = CARTESIAN_POINT ( 'NONE',  ( 50.00000000000000000, -93.75000000000008527, 210.0000000000000284 ) ) ;
#1175 = DIRECTION ( 'NONE',  ( -1.000000000000000000, 0.000000000000000000, 0.000000000000000000 ) ) ;
#1176 = ORIENTED_EDGE ( 'NONE', *, *, #1016, .T. ) ;
#1177 = CIRCLE ( 'NONE', #523, 7.500000000000000888 ) ;
#1178 = CARTESIAN_POINT ( 'NONE',  ( -2.000000000000000000, 7.228416147400480440, 245.5241746962600473 ) ) ;
#1179 = DIRECTION ( 'NONE',  ( 1.000000000000000000, 0.000000000000000000, 0.000000000000000000 ) ) ;
#1180 = EDGE_CURVE ( 'NONE', #115, #495, #328, .T. ) ;
#1181 = ORIENTED_EDGE ( 'NONE', *, *, #321, .T. ) ;
#1182 = CARTESIAN_POINT ( 'NONE',  ( -2.000000000000000000, 7.228416147400480440, 0.000000000000000000 ) ) ;
#1183 = ORIENTED_EDGE ( 'NONE', *, *, #819, .T. ) ;
#1184 = CARTESIAN_POINT ( 'NONE',  ( -1.999999999999999112, -4.582575694955839829, 210.0000000000000284 ) ) ;
#1185 = DIRECTION ( 'NONE',  ( 0.000000000000000000, 0.000000000000000000, 1.000000000000000000 ) ) ;
#1186 = FACE_OUTER_BOUND ( 'NONE', #826, .T. ) ;
#1187 = DIRECTION ( 'NONE',  ( -0.000000000000000000, -0.000000000000000000, 1.000000000000000000 ) ) ;
#1188 = EDGE_LOOP ( 'NONE', ( #231, #1292, #957, #692 ) ) ;
#1189 = EDGE_CURVE ( 'NONE', #687, #322, #487, .T. ) ;
#1190 = CARTESIAN_POINT ( 'NONE',  ( 2.000000000000000000, 7.228416147400480440, 210.0000000000000284 ) ) ;
#1191 = APPROVAL_PERSON_ORGANIZATION ( #454, #232, #167 ) ;
#1192 = ORIENTED_EDGE ( 'NONE', *, *, #1276, .T. ) ;
#1193 = ORIENTED_EDGE ( 'NONE', *, *, #810, .F. ) ;
#1194 = AXIS2_PLACEMENT_3D ( 'NONE', #324, #1208, #805 ) ;
#1195 = CARTESIAN_POINT ( 'NONE',  ( 0.000000000000000000, 0.000000000000000000, 210.0000000000000284 ) ) ;
#1196 = ORIENTED_EDGE ( 'NONE', *, *, #343, .F. ) ;
#1197 = DIRECTION ( 'NONE',  ( 0.000000000000000000, 0.000000000000000000, 1.000000000000000000 ) ) ;
#1198 = DIRECTION ( 'NONE',  ( -0.000000000000000000, -0.000000000000000000, 1.000000000000000000 ) ) ;
#1199 = AXIS2_PLACEMENT_3D ( 'NONE', #574, #1066, #563 ) ;
#1200 = ORIENTED_EDGE ( 'NONE', *, *, #566, .T. ) ;
#1201 = DIRECTION ( 'NONE',  ( -0.000000000000000000, -0.000000000000000000, 1.000000000000000000 ) ) ;
#1202 = ORIENTED_EDGE ( 'NONE', *, *, #999, .T. ) ;
#1203 = DIRECTION ( 'NONE',  ( 1.000000000000000000, 0.000000000000000000, 0.000000000000000000 ) ) ;
#1204 = CC_DESIGN_DATE_AND_TIME_ASSIGNMENT ( #364, #375, ( #461 ) ) ;
#1205 = VERTEX_POINT ( 'NONE', #558 ) ;
#1206 = CARTESIAN_POINT ( 'NONE',  ( 80.00000000000000000, 1.224646799147352665E-15, 115.0000000000000000 ) ) ;
#1207 = CARTESIAN_POINT ( 'NONE',  ( 90.00000000000000000, 12.49999999999999822, 210.0000000000000284 ) ) ;
#1208 = DIRECTION ( 'NONE',  ( -0.000000000000000000, -0.000000000000000000, 1.000000000000000000 ) ) ;
#1209 = EDGE_LOOP ( 'NONE', ( #484, #1277, #68, #204, #640, #623, #984, #4, #536 ) ) ;
#1210 = VERTEX_POINT ( 'NONE', #1068 ) ;
#1211 = PLANE ( 'NONE',  #897 ) ;
#1212 = AXIS2_PLACEMENT_3D ( 'NONE', #241, #829, #46 ) ;
#1213 = FACE_OUTER_BOUND ( 'NONE', #949, .T. ) ;
#1214 = VECTOR ( 'NONE', #1201, 1000.000000000000000 ) ;
#1215 = AXIS2_PLACEMENT_3D ( 'NONE', #477, #1261, #109 ) ;
#1216 = ORIENTED_EDGE ( 'NONE', *, *, #26, .F. ) ;
#1217 = VECTOR ( 'NONE', #677, 1000.000000000000000 ) ;
#1218 = CARTESIAN_POINT ( 'NONE',  ( 80.00000000000000000, 1.224646799147352665E-15, 210.0000000000000284 ) ) ;
#1219 = CARTESIAN_POINT ( 'NONE',  ( 50.00000000000002842, 12.49999999999999645, 210.0000000000000284 ) ) ;
#1220 = DATE_AND_TIME ( #752, #642 ) ;
#1221 = CYLINDRICAL_SURFACE ( 'NONE', #1023, 9.999999999999994671 ) ;
#1222 = EDGE_LOOP ( 'NONE', ( #116, #861, #1003, #1063, #177, #1227, #1018 ) ) ;
#1223 = DIRECTION ( 'NONE',  ( 1.000000000000000000, 0.000000000000000000, -0.000000000000000000 ) ) ;
#1224 = CARTESIAN_POINT ( 'NONE',  ( 1.999999999999999112, 4.582575694955839829, 210.0000000000000284 ) ) ;
#1225 = VECTOR ( 'NONE', #573, 1000.000000000000000 ) ;
#1226 = DIRECTION ( 'NONE',  ( -2.168404344971008868E-16, 1.000000000000000000, 0.000000000000000000 ) ) ;
#1227 = ORIENTED_EDGE ( 'NONE', *, *, #64, .T. ) ;
#1228 = CIRCLE ( 'NONE', #54, 9.999999999999994671 ) ;
#1229 = AXIS2_PLACEMENT_3D ( 'NONE', #1135, #840, #237 ) ;
#1230 = DIRECTION ( 'NONE',  ( -2.168404344971008868E-16, -1.000000000000000000, 0.000000000000000000 ) ) ;
#1231 = DIRECTION ( 'NONE',  ( -0.000000000000000000, -0.000000000000000000, -1.000000000000000000 ) ) ;
#1232 = LINE ( 'NONE', #29, #11 ) ;
#1233 = ORIENTED_EDGE ( 'NONE', *, *, #1101, .F. ) ;
#1234 = DIRECTION ( 'NONE',  ( 1.000000000000000000, 0.000000000000000000, 0.000000000000000000 ) ) ;
#1235 = EDGE_CURVE ( 'NONE', #1281, #1105, #825, .T. ) ;
#1236 = DIRECTION ( 'NONE',  ( -1.000000000000000000, 0.000000000000000000, 0.000000000000000000 ) ) ;
#1237 = SECURITY_CLASSIFICATION_LEVEL ( 'unclassified' ) ;
#1238 = EDGE_CURVE ( 'NONE', #1116, #1129, #168, .T. ) ;
#1239 = EDGE_CURVE ( 'NONE', #1137, #549, #1162, .T. ) ;
#1240 = CARTESIAN_POINT ( 'NONE',  ( 90.00000000000000000, 0.000000000000000000, 230.0000000000000000 ) ) ;
#1241 = PLANE ( 'NONE',  #748 ) ;
#1242 = CYLINDRICAL_SURFACE ( 'NONE', #735, 7.500000000000000888 ) ;
#1243 = CARTESIAN_POINT ( 'NONE',  ( -25.00000000000000000, 0.000000000000000000, 20.00000000000000000 ) ) ;
#1244 = AXIS2_PLACEMENT_3D ( 'NONE', #593, #757, #862 ) ;
#1245 = CIRCLE ( 'NONE', #609, 81.25000000000009948 ) ;
#1246 = CIRCLE ( 'NONE', #1269, 7.500000000000000888 ) ;
#1247 = DIRECTION ( 'NONE',  ( 1.000000000000000000, 0.000000000000000000, 0.000000000000000000 ) ) ;
#1248 = CARTESIAN_POINT ( 'NONE',  ( 0.000000000000000000, 0.000000000000000000, 0.000000000000000000 ) ) ;
#1249 = APPROVAL_DATE_TIME ( #918, #738 ) ;
#1250 = PLANE ( 'NONE',  #737 ) ;
#1251 = ORIENTED_EDGE ( 'NONE', *, *, #409, .F. ) ;
#1252 = ADVANCED_FACE ( 'NONE', ( #851 ), #873, .T. ) ;
#1253 = CARTESIAN_POINT ( 'NONE',  ( 90.00000000000000000, 12.49999999999999822, 0.000000000000000000 ) ) ;
#1254 = CARTESIAN_POINT ( 'NONE',  ( -2.000000000000000000, 7.228416147400480440, 210.0000000000000284 ) ) ;
#1255 = LINE ( 'NONE', #182, #122 ) ;
#1256 = CALENDAR_DATE ( 2026, 31, 7 ) ;
#1257 = CARTESIAN_POINT ( 'NONE',  ( -25.00000000000000000, 0.000000000000000000, 230.0000000000000000 ) ) ;
#1258 = DIRECTION ( 'NONE',  ( -0.000000000000000000, -0.000000000000000000, 1.000000000000000000 ) ) ;
#1259 = ORIENTED_EDGE ( 'NONE', *, *, #806, .T. ) ;
#1260 = DIRECTION ( 'NONE',  ( -0.000000000000000000, -0.000000000000000000, 1.000000000000000000 ) ) ;
#1261 = DIRECTION ( 'NONE',  ( 0.000000000000000000, 0.000000000000000000, -1.000000000000000000 ) ) ;
#1262 = CARTESIAN_POINT ( 'NONE',  ( 2.000000000000000000, 4.582575694955840717, 0.000000000000000000 ) ) ;
#1263 = VECTOR ( 'NONE', #1043, 1000.000000000000000 ) ;
#1264 = VECTOR ( 'NONE', #485, 1000.000000000000000 ) ;
#1265 = ORIENTED_EDGE ( 'NONE', *, *, #813, .T. ) ;
#1266 = VECTOR ( 'NONE', #444, 1000.000000000000000 ) ;
#1267 = LINE ( 'NONE', #968, #795 ) ;
#1268 = VERTEX_POINT ( 'NONE', #682 ) ;
#1269 = AXIS2_PLACEMENT_3D ( 'NONE', #874, #1102, #1040 ) ;
#1270 = DIRECTION ( 'NONE',  ( -0.000000000000000000, -0.000000000000000000, 1.000000000000000000 ) ) ;
#1271 = CARTESIAN_POINT ( 'NONE',  ( 50.00000000000000000, -93.75000000000008527, 20.00000000000000000 ) ) ;
#1272 = ORIENTED_EDGE ( 'NONE', *, *, #501, .F. ) ;
#1273 = DIRECTION ( 'NONE',  ( -2.168404344971008868E-16, 1.000000000000000000, 0.000000000000000000 ) ) ;
#1274 = VERTEX_POINT ( 'NONE', #1257 ) ;
#1275 = FACE_BOUND ( 'NONE', #312, .T. ) ;
#1276 = EDGE_CURVE ( 'NONE', #579, #1281, #976, .T. ) ;
#1277 = ORIENTED_EDGE ( 'NONE', *, *, #674, .T. ) ;
#1278 = LINE ( 'NONE', #1182, #716 ) ;
#1279 = CARTESIAN_POINT ( 'NONE',  ( 90.00000000000000000, -12.49999999999999822, 20.00000000000000000 ) ) ;
#1280 = CYLINDRICAL_SURFACE ( 'NONE', #1030, 25.00000000000000000 ) ;
#1281 = VERTEX_POINT ( 'NONE', #1262 ) ;
#1282 = EDGE_CURVE ( 'NONE', #676, #340, #199, .T. ) ;
#1283 = EDGE_LOOP ( 'NONE', ( #627, #263, #1136, #870, #1143, #909, #711, #1121, #990 ) ) ;
#1284 = EDGE_CURVE ( 'NONE', #1110, #635, #774, .T. ) ;
#1285 = LINE ( 'NONE', #1095, #411 ) ;
#1286 = VECTOR ( 'NONE', #953, 1000.000000000000000 ) ;
#1287 = PLANE ( 'NONE',  #630 ) ;
#1288 = EDGE_CURVE ( 'NONE', #498, #1013, #531, .T. ) ;
#1289 = ORIENTED_EDGE ( 'NONE', *, *, #377, .F. ) ;
#1290 = CARTESIAN_POINT ( 'NONE',  ( 0.000000000000000000, 0.000000000000000000, 244.1421356237309794 ) ) ;
#1291 = LINE ( 'NONE', #987, #1152 ) ;
#1292 = ORIENTED_EDGE ( 'NONE', *, *, #907, .T. ) ;
#1293 = DIRECTION ( 'NONE',  ( 0.000000000000000000, 1.000000000000000000, 0.000000000000000000 ) ) ;
#1294 = DIRECTION ( 'NONE',  ( 0.000000000000000000, 0.000000000000000000, -1.000000000000000000 ) ) ;
#1295 = ORIENTED_EDGE ( 'NONE', *, *, #527, .T. ) ;
#1296 = LINE ( 'NONE', #121, #457 ) ;
#1297 = ORIENTED_EDGE ( 'NONE', *, *, #220, .F. ) ;
#1298 = CARTESIAN_POINT ( 'NONE',  ( 0.000000000000000000, 0.000000000000000000, 244.1421356237309794 ) ) ;
#1299 = DIRECTION ( 'NONE',  ( 1.000000000000000000, 2.168404344971008868E-16, 0.000000000000000000 ) ) ;
ENDSEC;
END-ISO-10303-21;
