ISO-10303-21;
HEADER;
FILE_DESCRIPTION (( 'STEP AP203' ),
    '1' );
FILE_NAME ('Link1LeftLShape_Default_sldprt.STEP',
    '2026-07-31T10:18:50',
    ( '' ),
    ( '' ),
    'SwSTEP 2.0',
    'SolidWorks 2025',
    '' );
FILE_SCHEMA (( 'CONFIG_CONTROL_DESIGN' ));
ENDSEC;

DATA;
#1 = AXIS2_PLACEMENT_3D ( 'NONE', #348, #390, #154 ) ;
#2 = ORIENTED_EDGE ( 'NONE', *, *, #164, .F. ) ;
#3 = ADVANCED_FACE ( 'NONE', ( #87 ), #326, .F. ) ;
#4 = LINE ( 'NONE', #415, #90 ) ;
#5 = VERTEX_POINT ( 'NONE', #247 ) ;
#6 = AXIS2_PLACEMENT_3D ( 'NONE', #487, #292, #455 ) ;
#7 = DIRECTION ( 'NONE',  ( 1.000000000000000000, -0.000000000000000000, 2.075183223598423424E-16 ) ) ;
#8 = ORIENTED_EDGE ( 'NONE', *, *, #51, .F. ) ;
#9 = CC_DESIGN_PERSON_AND_ORGANIZATION_ASSIGNMENT ( #62, #262, ( #160 ) ) ;
#10 = DIRECTION ( 'NONE',  ( -2.745056929018243809E-16, -0.000000000000000000, -1.000000000000000000 ) ) ;
#11 = PLANE ( 'NONE',  #166 ) ;
#12 = VECTOR ( 'NONE', #346, 1000.000000000000000 ) ;
#13 = CARTESIAN_POINT ( 'NONE',  ( -133.7500000000000000, 20.00000000000000000, 9.999999999999971578 ) ) ;
#14 = DIRECTION ( 'NONE',  ( -2.745056929018243809E-16, -0.000000000000000000, -1.000000000000000000 ) ) ;
#15 = CC_DESIGN_APPROVAL ( #157, ( #261 ) ) ;
#16 = FACE_OUTER_BOUND ( 'NONE', #480, .T. ) ;
#17 = CARTESIAN_POINT ( 'NONE',  ( -113.7500000000000853, 20.00000000000000000, -30.00000000000000000 ) ) ;
#18 = DATE_AND_TIME ( #265, #47 ) ;
#19 = CARTESIAN_POINT ( 'NONE',  ( -48.99999999999999289, 10.00000000000000000, 15.93969696196700170 ) ) ;
#20 =( LENGTH_UNIT ( ) NAMED_UNIT ( * ) SI_UNIT ( .MILLI., .METRE. ) );
#21 = CARTESIAN_POINT ( 'NONE',  ( -113.7500000000000142, 0.000000000000000000, -10.00000000000002487 ) ) ;
#22 = PERSON_AND_ORGANIZATION_ROLE ( 'design_owner' ) ;
#23 = AXIS2_PLACEMENT_3D ( 'NONE', #126, #134, #295 ) ;
#24 = CARTESIAN_POINT ( 'NONE',  ( -133.7500000000000853, 20.00000000000000000, -110.0000000000000284 ) ) ;
#25 = VECTOR ( 'NONE', #122, 1000.000000000000000 ) ;
#26 = VERTEX_POINT ( 'NONE', #401 ) ;
#27 = SHAPE_DEFINITION_REPRESENTATION ( #516, #286 ) ;
#28 = DIRECTION ( 'NONE',  ( 0.000000000000000000, -1.000000000000000000, 0.000000000000000000 ) ) ;
#29 = VERTEX_POINT ( 'NONE', #371 ) ;
#30 = CARTESIAN_POINT ( 'NONE',  ( -91.00000000000001421, 10.00000000000000000, -9.999999999999975131 ) ) ;
#31 = ORIENTED_EDGE ( 'NONE', *, *, #187, .F. ) ;
#32 = ADVANCED_FACE ( 'NONE', ( #40 ), #46, .F. ) ;
#33 = ORGANIZATION ( 'UNSPECIFIED', 'UNSPECIFIED', '' ) ;
#34 = DIRECTION ( 'NONE',  ( -1.000000000000000000, 0.000000000000000000, 0.000000000000000000 ) ) ;
#35 = ORIENTED_EDGE ( 'NONE', *, *, #148, .F. ) ;
#36 = VERTEX_POINT ( 'NONE', #443 ) ;
#37 = EDGE_CURVE ( 'NONE', #5, #89, #86, .T. ) ;
#38 = EDGE_LOOP ( 'NONE', ( #400, #359, #320, #450 ) ) ;
#39 = EDGE_CURVE ( 'NONE', #447, #29, #468, .T. ) ;
#40 = FACE_OUTER_BOUND ( 'NONE', #282, .T. ) ;
#41 = FACE_OUTER_BOUND ( 'NONE', #38, .T. ) ;
#42 = ORIENTED_EDGE ( 'NONE', *, *, #271, .F. ) ;
#43 = DIRECTION ( 'NONE',  ( 0.000000000000000000, -1.000000000000000000, 0.000000000000000000 ) ) ;
#44 = VERTEX_POINT ( 'NONE', #458 ) ;
#45 = DIRECTION ( 'NONE',  ( -1.000000000000000000, 0.000000000000000000, 0.000000000000000000 ) ) ;
#46 = PLANE ( 'NONE',  #235 ) ;
#47 = LOCAL_TIME ( 13, 48, 50.00000000000000000, #98 ) ;
#48 = FACE_OUTER_BOUND ( 'NONE', #314, .T. ) ;
#49 = CARTESIAN_POINT ( 'NONE',  ( -91.00000000000001421, 10.00000000000000000, -9.999999999999975131 ) ) ;
#50 = DIRECTION ( 'NONE',  ( -1.000000000000000000, 0.000000000000000000, -2.075183223598423177E-16 ) ) ;
#51 = EDGE_CURVE ( 'NONE', #349, #365, #94, .T. ) ;
#52 = MANIFOLD_SOLID_BREP ( 'Cut-Extrude1', #469 ) ;
#53 = LINE ( 'NONE', #495, #224 ) ;
#54 = CIRCLE ( 'NONE', #351, 2.100000000000004530 ) ;
#55 = DIRECTION ( 'NONE',  ( -1.000000000000000000, 0.000000000000000000, 0.000000000000000000 ) ) ;
#56 = CARTESIAN_POINT ( 'NONE',  ( -113.7500000000000853, 0.000000000000000000, -9.999999999999971578 ) ) ;
#57 = CIRCLE ( 'NONE', #418, 2.100000000000004530 ) ;
#58 = LINE ( 'NONE', #56, #515 ) ;
#59 = DATE_AND_TIME ( #383, #128 ) ;
#60 = LINE ( 'NONE', #336, #497 ) ;
#61 = VECTOR ( 'NONE', #220, 1000.000000000000000 ) ;
#62 = PERSON_AND_ORGANIZATION ( #186, #33 ) ;
#63 = DIRECTION ( 'NONE',  ( -2.745056929018243809E-16, -0.000000000000000000, -1.000000000000000000 ) ) ;
#64 = APPROVAL_STATUS ( 'not_yet_approved' ) ;
#65 = CARTESIAN_POINT ( 'NONE',  ( -113.7500000000000142, 0.000000000000000000, 9.999999999999975131 ) ) ;
#66 = CIRCLE ( 'NONE', #502, 2.100000000000004530 ) ;
#67 = ORIENTED_EDGE ( 'NONE', *, *, #328, .T. ) ;
#68 = CALENDAR_DATE ( 2026, 31, 7 ) ;
#69 = CARTESIAN_POINT ( 'NONE',  ( -88.89999999999999147, 10.00000000000000000, 15.93969696196701591 ) ) ;
#70 = ORIENTED_EDGE ( 'NONE', *, *, #399, .T. ) ;
#71 = DIRECTION ( 'NONE',  ( -1.000000000000000000, 0.000000000000000000, 0.000000000000000000 ) ) ;
#72 = EDGE_LOOP ( 'NONE', ( #356, #490, #329, #474 ) ) ;
#73 = ORIENTED_EDGE ( 'NONE', *, *, #399, .F. ) ;
#74 = ORIENTED_EDGE ( 'NONE', *, *, #382, .T. ) ;
#75 = VECTOR ( 'NONE', #191, 1000.000000000000000 ) ;
#76 = PRODUCT ( 'Link1LeftLShape_Default_sldprt', 'Link1LeftLShape_Default_sldprt', '', ( #342 ) ) ;
#77 = ORIENTED_EDGE ( 'NONE', *, *, #127, .F. ) ;
#78 = DIRECTION ( 'NONE',  ( -2.745056929018243809E-16, 0.000000000000000000, -1.000000000000000000 ) ) ;
#79 = APPROVAL_PERSON_ORGANIZATION ( #464, #157, #221 ) ;
#80 = CARTESIAN_POINT ( 'NONE',  ( -93.75000000000008527, 20.00000000000000000, -29.99999999999997158 ) ) ;
#81 = CARTESIAN_POINT ( 'NONE',  ( -93.10000000000000853, 10.00000000000000000, 15.93969696196701591 ) ) ;
#82 = DIRECTION ( 'NONE',  ( -1.000000000000000000, 0.000000000000000000, 1.387778780781445182E-16 ) ) ;
#83 = PLANE ( 'NONE',  #243 ) ;
#84 = CC_DESIGN_PERSON_AND_ORGANIZATION_ASSIGNMENT ( #423, #95, ( #478 ) ) ;
#85 = AXIS2_PLACEMENT_3D ( 'NONE', #493, #135, #296 ) ;
#86 = CIRCLE ( 'NONE', #241, 20.00000000000000355 ) ;
#87 = FACE_OUTER_BOUND ( 'NONE', #391, .T. ) ;
#88 = CARTESIAN_POINT ( 'NONE',  ( -93.75000000000008527, 20.00000000000000000, -9.999999999999976907 ) ) ;
#89 = VERTEX_POINT ( 'NONE', #17 ) ;
#90 = VECTOR ( 'NONE', #7, 1000.000000000000000 ) ;
#91 = FACE_BOUND ( 'NONE', #242, .T. ) ;
#92 = DIRECTION ( 'NONE',  ( 0.000000000000000000, -1.000000000000000000, 0.000000000000000000 ) ) ;
#93 = LINE ( 'NONE', #88, #444 ) ;
#94 = LINE ( 'NONE', #254, #12 ) ;
#95 = PERSON_AND_ORGANIZATION_ROLE ( 'design_supplier' ) ;
#96 = CARTESIAN_POINT ( 'NONE',  ( -113.7500000000000853, 20.00000000000000000, -9.999999999999971578 ) ) ;
#97 = APPROVAL_PERSON_ORGANIZATION ( #182, #268, #144 ) ;
#98 = COORDINATED_UNIVERSAL_TIME_OFFSET ( 3, 30, .AHEAD. ) ;
#99 = CARTESIAN_POINT ( 'NONE',  ( 0.000000000000000000, 0.000000000000000000, 10.00000000000000000 ) ) ;
#100 = EDGE_CURVE ( 'NONE', #159, #170, #215, .T. ) ;
#101 = EDGE_CURVE ( 'NONE', #233, #349, #115, .T. ) ;
#102 = COORDINATED_UNIVERSAL_TIME_OFFSET ( 3, 30, .AHEAD. ) ;
#103 = CARTESIAN_POINT ( 'NONE',  ( -93.10000000000002274, 10.00000000000000000, -9.999999999999975131 ) ) ;
#104 = ADVANCED_FACE ( 'NONE', ( #266 ), #496, .F. ) ;
#105 = APPROVAL_STATUS ( 'not_yet_approved' ) ;
#106 = DIRECTION ( 'NONE',  ( 0.000000000000000000, -1.000000000000000000, 0.000000000000000000 ) ) ;
#107 = ORIENTED_EDGE ( 'NONE', *, *, #459, .F. ) ;
#108 = VECTOR ( 'NONE', #379, 1000.000000000000000 ) ;
#109 = PERSON_AND_ORGANIZATION ( #186, #33 ) ;
#110 = DIRECTION ( 'NONE',  ( 6.938893903907228378E-16, -0.000000000000000000, 1.000000000000000000 ) ) ;
#111 = VERTEX_POINT ( 'NONE', #181 ) ;
#112 = PRODUCT_RELATED_PRODUCT_CATEGORY ( 'detail', '', ( #76 ) ) ;
#113 = DIRECTION ( 'NONE',  ( -1.000000000000000000, 0.000000000000000000, 0.000000000000000000 ) ) ;
#114 = ORIENTED_EDGE ( 'NONE', *, *, #435, .T. ) ;
#115 = CIRCLE ( 'NONE', #509, 20.00000000000000355 ) ;
#116 = ADVANCED_FACE ( 'NONE', ( #381, #260, #501 ), #256, .F. ) ;
#117 = ORIENTED_EDGE ( 'NONE', *, *, #297, .F. ) ;
#118 = AXIS2_PLACEMENT_3D ( 'NONE', #494, #405, #337 ) ;
#119 = CC_DESIGN_DATE_AND_TIME_ASSIGNMENT ( #417, #387, ( #160 ) ) ;
#120 = ORIENTED_EDGE ( 'NONE', *, *, #366, .T. ) ;
#121 = ORIENTED_EDGE ( 'NONE', *, *, #176, .F. ) ;
#122 = DIRECTION ( 'NONE',  ( -1.000000000000000000, -0.000000000000000000, -6.938893903907232322E-16 ) ) ;
#123 = VECTOR ( 'NONE', #92, 1000.000000000000000 ) ;
#124 = EDGE_CURVE ( 'NONE', #279, #250, #54, .T. ) ;
#125 = ORIENTED_EDGE ( 'NONE', *, *, #124, .T. ) ;
#126 = CARTESIAN_POINT ( 'NONE',  ( -93.75000000000008527, 20.00000000000000000, -29.99999999999997158 ) ) ;
#127 = EDGE_CURVE ( 'NONE', #111, #233, #179, .T. ) ;
#128 = LOCAL_TIME ( 13, 48, 50.00000000000000000, #430 ) ;
#129 = VERTEX_POINT ( 'NONE', #99 ) ;
#130 = FACE_BOUND ( 'NONE', #322, .T. ) ;
#131 = ORIENTED_EDGE ( 'NONE', *, *, #176, .T. ) ;
#132 = DIRECTION ( 'NONE',  ( -1.000000000000000000, -0.000000000000000000, -6.938893903907232322E-16 ) ) ;
#133 = ORIENTED_EDGE ( 'NONE', *, *, #345, .T. ) ;
#134 = DIRECTION ( 'NONE',  ( 0.000000000000000000, 1.000000000000000000, 0.000000000000000000 ) ) ;
#135 = DIRECTION ( 'NONE',  ( -6.938893903907233308E-16, 0.000000000000000000, 1.000000000000000000 ) ) ;
#136 = ADVANCED_FACE ( 'NONE', ( #305 ), #11, .T. ) ;
#137 = CARTESIAN_POINT ( 'NONE',  ( -91.00000000000000000, 10.00000000000000000, 9.999999999999980460 ) ) ;
#138 = DIRECTION ( 'NONE',  ( -1.000000000000000000, -0.000000000000000000, 2.440050603571770850E-16 ) ) ;
#139 = DIRECTION ( 'NONE',  ( 1.000000000000000000, 0.000000000000000000, 0.000000000000000000 ) ) ;
#140 = DIRECTION ( 'NONE',  ( 0.000000000000000000, -1.000000000000000000, 0.000000000000000000 ) ) ;
#141 = CARTESIAN_POINT ( 'NONE',  ( 0.000000000000000000, 0.000000000000000000, -10.00000000000000000 ) ) ;
#142 = APPROVAL_STATUS ( 'not_yet_approved' ) ;
#143 = DIRECTION ( 'NONE',  ( 1.000000000000000000, 0.000000000000000000, -2.440050603571770850E-16 ) ) ;
#144 = APPROVAL_ROLE ( '' ) ;
#145 = DIRECTION ( 'NONE',  ( 1.000000000000000000, -0.000000000000000000, 2.075183223598423424E-16 ) ) ;
#146 = VECTOR ( 'NONE', #110, 1000.000000000000000 ) ;
#147 = ORIENTED_EDGE ( 'NONE', *, *, #350, .F. ) ;
#148 = EDGE_CURVE ( 'NONE', #89, #404, #60, .T. ) ;
#149 = VECTOR ( 'NONE', #14, 1000.000000000000000 ) ;
#150 = PERSON_AND_ORGANIZATION_ROLE ( 'creator' ) ;
#151 = FACE_OUTER_BOUND ( 'NONE', #406, .T. ) ;
#152 = EDGE_LOOP ( 'NONE', ( #192, #317, #2, #452 ) ) ;
#153 = AXIS2_PLACEMENT_3D ( 'NONE', #171, #206, #55 ) ;
#154 = DIRECTION ( 'NONE',  ( -6.938893903907228378E-16, 0.000000000000000000, -1.000000000000000000 ) ) ;
#155 = ORIENTED_EDGE ( 'NONE', *, *, #328, .F. ) ;
#156 = ORIENTED_EDGE ( 'NONE', *, *, #420, .F. ) ;
#157 = APPROVAL ( #142, 'UNSPECIFIED' ) ;
#158 = ADVANCED_FACE ( 'NONE', ( #378 ), #300, .F. ) ;
#159 = VERTEX_POINT ( 'NONE', #339 ) ;
#160 = SECURITY_CLASSIFICATION ( '', '', #426 ) ;
#161 = ORIENTED_EDGE ( 'NONE', *, *, #127, .T. ) ;
#162 = LINE ( 'NONE', #324, #201 ) ;
#163 = ORIENTED_EDGE ( 'NONE', *, *, #100, .F. ) ;
#164 = EDGE_CURVE ( 'NONE', #36, #5, #462, .T. ) ;
#165 = CARTESIAN_POINT ( 'NONE',  ( -113.7500000000000142, 20.00000000000000000, -10.00000000000002487 ) ) ;
#166 = AXIS2_PLACEMENT_3D ( 'NONE', #175, #140, #341 ) ;
#167 = ORIENTED_EDGE ( 'NONE', *, *, #459, .T. ) ;
#168 = PLANE ( 'NONE',  #293 ) ;
#169 = CC_DESIGN_APPROVAL ( #338, ( #478 ) ) ;
#170 = VERTEX_POINT ( 'NONE', #413 ) ;
#171 = CARTESIAN_POINT ( 'NONE',  ( -48.99999999999999289, 10.00000000000000000, 15.93969696196700170 ) ) ;
#172 = ORIENTED_EDGE ( 'NONE', *, *, #345, .F. ) ;
#173 = CARTESIAN_POINT ( 'NONE',  ( -133.7500000000000853, 0.000000000000000000, -110.0000000000000284 ) ) ;
#174 = VECTOR ( 'NONE', #276, 1000.000000000000000 ) ;
#175 = CARTESIAN_POINT ( 'NONE',  ( 0.000000000000000000, 0.000000000000000000, 0.000000000000000000 ) ) ;
#176 = EDGE_CURVE ( 'NONE', #514, #129, #53, .T. ) ;
#177 = CARTESIAN_POINT ( 'NONE',  ( 0.000000000000000000, 20.00000000000000000, 10.00000000000000000 ) ) ;
#178 = LOCAL_TIME ( 13, 48, 50.00000000000000000, #308 ) ;
#179 = LINE ( 'NONE', #216, #123 ) ;
#180 = LINE ( 'NONE', #81, #485 ) ;
#181 = CARTESIAN_POINT ( 'NONE',  ( -113.7500000000000142, 20.00000000000000000, 9.999999999999975131 ) ) ;
#182 = PERSON_AND_ORGANIZATION ( #186, #33 ) ;
#183 = DIRECTION ( 'NONE',  ( 0.000000000000000000, 0.000000000000000000, -1.000000000000000000 ) ) ;
#184 = DIRECTION ( 'NONE',  ( -0.000000000000000000, -1.000000000000000000, 0.000000000000000000 ) ) ;
#185 = APPROVAL_ROLE ( '' ) ;
#186 = PERSON ( 'UNSPECIFIED', 'UNSPECIFIED', 'UNSPECIFIED', ('UNSPECIFIED'), ('UNSPECIFIED'), ('UNSPECIFIED') ) ;
#187 = EDGE_CURVE ( 'NONE', #517, #170, #58, .T. ) ;
#188 = LINE ( 'NONE', #505, #146 ) ;
#189 = ORIENTED_EDGE ( 'NONE', *, *, #164, .T. ) ;
#190 = DATE_AND_TIME ( #228, #178 ) ;
#191 = DIRECTION ( 'NONE',  ( -1.387778780781445182E-16, -0.000000000000000000, -1.000000000000000000 ) ) ;
#192 = ORIENTED_EDGE ( 'NONE', *, *, #187, .T. ) ;
#193 = CARTESIAN_POINT ( 'NONE',  ( -91.00000000000000000, 10.00000000000000000, 15.93969696196701591 ) ) ;
#194 = ORIENTED_EDGE ( 'NONE', *, *, #486, .T. ) ;
#195 = AXIS2_PLACEMENT_3D ( 'NONE', #446, #331, #45 ) ;
#196 = ORIENTED_EDGE ( 'NONE', *, *, #463, .T. ) ;
#197 = EDGE_CURVE ( 'NONE', #129, #517, #222, .T. ) ;
#198 = EDGE_CURVE ( 'NONE', #159, #334, #303, .T. ) ;
#199 = ORIENTED_EDGE ( 'NONE', *, *, #453, .T. ) ;
#200 = ORIENTED_EDGE ( 'NONE', *, *, #124, .F. ) ;
#201 = VECTOR ( 'NONE', #409, 1000.000000000000000 ) ;
#202 = DIRECTION ( 'NONE',  ( -2.075183223598423177E-16, -0.000000000000000000, 1.000000000000000000 ) ) ;
#203 = CARTESIAN_POINT ( 'NONE',  ( 0.000000000000000000, 20.00000000000000000, -10.00000000000000000 ) ) ;
#204 = LINE ( 'NONE', #352, #174 ) ;
#205 = EDGE_LOOP ( 'NONE', ( #311, #117, #172, #74 ) ) ;
#206 = DIRECTION ( 'NONE',  ( -2.745056929018243809E-16, -0.000000000000000000, -1.000000000000000000 ) ) ;
#207 = ORIENTED_EDGE ( 'NONE', *, *, #461, .T. ) ;
#208 = CARTESIAN_POINT ( 'NONE',  ( -88.89999999999999147, 10.00000000000000000, 9.999999999999980460 ) ) ;
#209 = APPLICATION_CONTEXT ( 'configuration controlled 3d designs of mechanical parts and assemblies' ) ;
#210 = ORIENTED_EDGE ( 'NONE', *, *, #412, .F. ) ;
#211 = CC_DESIGN_PERSON_AND_ORGANIZATION_ASSIGNMENT ( #467, #150, ( #261 ) ) ;
#212 = DIRECTION ( 'NONE',  ( -2.075183223598423177E-16, -0.000000000000000000, 1.000000000000000000 ) ) ;
#213 = DIRECTION ( 'NONE',  ( -1.000000000000000000, 0.000000000000000000, 0.000000000000000000 ) ) ;
#214 = CARTESIAN_POINT ( 'NONE',  ( 0.000000000000000000, 0.000000000000000000, -10.00000000000000000 ) ) ;
#215 = CIRCLE ( 'NONE', #507, 20.00000000000000355 ) ;
#216 = CARTESIAN_POINT ( 'NONE',  ( -113.7500000000000142, 20.00000000000000000, 9.999999999999975131 ) ) ;
#217 = EDGE_CURVE ( 'NONE', #44, #29, #414, .T. ) ;
#218 = CARTESIAN_POINT ( 'NONE',  ( 0.000000000000000000, 20.00000000000000000, -10.00000000000000000 ) ) ;
#219 = CIRCLE ( 'NONE', #195, 2.100000000000004530 ) ;
#220 = DIRECTION ( 'NONE',  ( -0.000000000000000000, -0.000000000000000000, -1.000000000000000000 ) ) ;
#221 = APPROVAL_ROLE ( '' ) ;
#222 = LINE ( 'NONE', #141, #61 ) ;
#223 = COORDINATED_UNIVERSAL_TIME_OFFSET ( 3, 30, .AHEAD. ) ;
#224 = VECTOR ( 'NONE', #264, 1000.000000000000000 ) ;
#225 = DIRECTION ( 'NONE',  ( -2.745056929018243809E-16, -0.000000000000000000, -1.000000000000000000 ) ) ;
#226 = APPLICATION_PROTOCOL_DEFINITION ( 'international standard', 'config_control_design', 1994, #209 ) ;
#227 = DIRECTION ( 'NONE',  ( -1.000000000000000000, 0.000000000000000000, 0.000000000000000000 ) ) ;
#228 = CALENDAR_DATE ( 2026, 31, 7 ) ;
#229 = ADVANCED_FACE ( 'NONE', ( #41 ), #355, .F. ) ;
#230 = CARTESIAN_POINT ( 'NONE',  ( -133.7500000000000853, 20.00000000000000000, -110.0000000000000284 ) ) ;
#231 = ORIENTED_EDGE ( 'NONE', *, *, #382, .F. ) ;
#232 = LINE ( 'NONE', #470, #449 ) ;
#233 = VERTEX_POINT ( 'NONE', #65 ) ;
#234 = VECTOR ( 'NONE', #294, 1000.000000000000000 ) ;
#235 = AXIS2_PLACEMENT_3D ( 'NONE', #203, #482, #284 ) ;
#236 = DIRECTION ( 'NONE',  ( 0.000000000000000000, 0.000000000000000000, -1.000000000000000000 ) ) ;
#237 = EDGE_LOOP ( 'NONE', ( #291, #353, #163, #432 ) ) ;
#238 = ORIENTED_EDGE ( 'NONE', *, *, #354, .F. ) ;
#239 = VERTEX_POINT ( 'NONE', #230 ) ;
#240 = VECTOR ( 'NONE', #63, 1000.000000000000000 ) ;
#241 = AXIS2_PLACEMENT_3D ( 'NONE', #80, #184, #386 ) ;
#242 = EDGE_LOOP ( 'NONE', ( #277, #107 ) ) ;
#243 = AXIS2_PLACEMENT_3D ( 'NONE', #177, #249, #50 ) ;
#244 = DIRECTION ( 'NONE',  ( 0.000000000000000000, 0.000000000000000000, -1.000000000000000000 ) ) ;
#245 = ORIENTED_EDGE ( 'NONE', *, *, #198, .T. ) ;
#246 = CARTESIAN_POINT ( 'NONE',  ( -133.7500000000000853, 0.000000000000000000, -110.0000000000000284 ) ) ;
#247 = CARTESIAN_POINT ( 'NONE',  ( -93.75000000000008527, 20.00000000000000000, -9.999999999999976907 ) ) ;
#248 = AXIS2_PLACEMENT_3D ( 'NONE', #384, #422, #143 ) ;
#249 = DIRECTION ( 'NONE',  ( 2.075183223598423177E-16, 0.000000000000000000, -1.000000000000000000 ) ) ;
#250 = VERTEX_POINT ( 'NONE', #283 ) ;
#251 = EDGE_CURVE ( 'NONE', #250, #279, #299, .T. ) ;
#252 = LINE ( 'NONE', #13, #436 ) ;
#253 = AXIS2_PLACEMENT_3D ( 'NONE', #392, #433, #236 ) ;
#254 = CARTESIAN_POINT ( 'NONE',  ( -133.7500000000000000, 20.00000000000000000, -10.00000000000001066 ) ) ;
#255 = DIRECTION ( 'NONE',  ( -1.000000000000000000, 0.000000000000000000, 0.000000000000000000 ) ) ;
#256 = PLANE ( 'NONE',  #248 ) ;
#257 = LINE ( 'NONE', #246, #465 ) ;
#258 = APPLICATION_CONTEXT ( 'configuration controlled 3d designs of mechanical parts and assemblies' ) ;
#259 = AXIS2_PLACEMENT_3D ( 'NONE', #30, #441, #227 ) ;
#260 = FACE_BOUND ( 'NONE', #479, .T. ) ;
#261 = PRODUCT_DEFINITION ( 'UNKNOWN', '', #478, #315 ) ;
#262 = PERSON_AND_ORGANIZATION_ROLE ( 'classification_officer' ) ;
#263 = AXIS2_PLACEMENT_3D ( 'NONE', #508, #270, #139 ) ;
#264 = DIRECTION ( 'NONE',  ( -0.000000000000000000, -1.000000000000000000, -0.000000000000000000 ) ) ;
#265 = CALENDAR_DATE ( 2026, 31, 7 ) ;
#266 = FACE_OUTER_BOUND ( 'NONE', #72, .T. ) ;
#267 = APPROVAL_DATE_TIME ( #18, #338 ) ;
#268 = APPROVAL ( #64, 'UNSPECIFIED' ) ;
#269 = CARTESIAN_POINT ( 'NONE',  ( -113.7500000000000995, 0.000000000000000000, -110.0000000000000142 ) ) ;
#270 = DIRECTION ( 'NONE',  ( 0.000000000000000000, 0.000000000000000000, 1.000000000000000000 ) ) ;
#271 = EDGE_CURVE ( 'NONE', #26, #44, #316, .T. ) ;
#272 = FACE_OUTER_BOUND ( 'NONE', #397, .T. ) ;
#273 = ORIENTED_EDGE ( 'NONE', *, *, #486, .F. ) ;
#274 = UNCERTAINTY_MEASURE_WITH_UNIT (LENGTH_MEASURE( 1.000000000000000082E-05 ), #20, 'distance_accuracy_value', 'NONE');
#275 = CALENDAR_DATE ( 2026, 31, 7 ) ;
#276 = DIRECTION ( 'NONE',  ( -0.000000000000000000, -1.000000000000000000, -0.000000000000000000 ) ) ;
#277 = ORIENTED_EDGE ( 'NONE', *, *, #307, .F. ) ;
#278 = CARTESIAN_POINT ( 'NONE',  ( -113.7500000000000995, 0.000000000000000000, -110.0000000000000142 ) ) ;
#279 = VERTEX_POINT ( 'NONE', #103 ) ;
#280 = EDGE_LOOP ( 'NONE', ( #194, #429, #440, #503 ) ) ;
#281 = ORIENTED_EDGE ( 'NONE', *, *, #197, .T. ) ;
#282 = EDGE_LOOP ( 'NONE', ( #281, #210, #518, #131 ) ) ;
#283 = CARTESIAN_POINT ( 'NONE',  ( -88.90000000000000568, 10.00000000000000000, -9.999999999999975131 ) ) ;
#284 = DIRECTION ( 'NONE',  ( 0.000000000000000000, 0.000000000000000000, 1.000000000000000000 ) ) ;
#285 = CARTESIAN_POINT ( 'NONE',  ( -51.10000000000000142, 10.00000000000000000, 9.999999999999989342 ) ) ;
#286 = ADVANCED_BREP_SHAPE_REPRESENTATION ( 'Link1LeftLShape_Default_sldprt', ( #52, #263 ), #472 ) ;
#287 = ORIENTED_EDGE ( 'NONE', *, *, #37, .T. ) ;
#288 = CARTESIAN_POINT ( 'NONE',  ( 0.000000000000000000, 20.00000000000000000, -10.00000000000000000 ) ) ;
#289 = CARTESIAN_POINT ( 'NONE',  ( -113.7500000000000995, 20.00000000000000000, -110.0000000000000142 ) ) ;
#290 = DIRECTION ( 'NONE',  ( 6.938893903907228378E-16, -0.000000000000000000, 1.000000000000000000 ) ) ;
#291 = ORIENTED_EDGE ( 'NONE', *, *, #37, .F. ) ;
#292 = DIRECTION ( 'NONE',  ( -2.075183223598423177E-16, -0.000000000000000000, 1.000000000000000000 ) ) ;
#293 = AXIS2_PLACEMENT_3D ( 'NONE', #375, #43, #489 ) ;
#294 = DIRECTION ( 'NONE',  ( -1.000000000000000000, -0.000000000000000000, 2.440050603571770850E-16 ) ) ;
#295 = DIRECTION ( 'NONE',  ( 0.000000000000000000, 0.000000000000000000, 1.000000000000000000 ) ) ;
#296 = DIRECTION ( 'NONE',  ( 1.000000000000000000, 0.000000000000000000, 6.938893903907233308E-16 ) ) ;
#297 = EDGE_CURVE ( 'NONE', #239, #484, #204, .T. ) ;
#298 = DATE_TIME_ROLE ( 'creation_date' ) ;
#299 = CIRCLE ( 'NONE', #259, 2.100000000000004530 ) ;
#300 = PLANE ( 'NONE',  #85 ) ;
#301 = ADVANCED_FACE ( 'NONE', ( #272 ), #388, .F. ) ;
#302 = CC_DESIGN_APPROVAL ( #268, ( #160 ) ) ;
#303 = LINE ( 'NONE', #269, #75 ) ;
#304 = APPROVAL_DATE_TIME ( #59, #157 ) ;
#305 = FACE_OUTER_BOUND ( 'NONE', #471, .T. ) ;
#306 = ADVANCED_FACE ( 'NONE', ( #151 ), #367, .T. ) ;
#307 = EDGE_CURVE ( 'NONE', #447, #26, #66, .T. ) ;
#308 = COORDINATED_UNIVERSAL_TIME_OFFSET ( 3, 30, .AHEAD. ) ;
#309 = AXIS2_PLACEMENT_3D ( 'NONE', #193, #475, #113 ) ;
#310 = DIRECTION ( 'NONE',  ( -2.745056929018243809E-16, -0.000000000000000000, -1.000000000000000000 ) ) ;
#311 = ORIENTED_EDGE ( 'NONE', *, *, #385, .T. ) ;
#312 = PERSON_AND_ORGANIZATION ( #186, #33 ) ;
#313 = CARTESIAN_POINT ( 'NONE',  ( -133.7500000000000000, 0.000000000000000000, -10.00000000000001066 ) ) ;
#314 = EDGE_LOOP ( 'NONE', ( #114, #120, #199, #207, #189, #287, #439, #133 ) ) ;
#315 = DESIGN_CONTEXT ( 'detailed design', #209, 'design' ) ;
#316 = LINE ( 'NONE', #512, #240 ) ;
#317 = ORIENTED_EDGE ( 'NONE', *, *, #442, .T. ) ;
#318 = AXIS2_PLACEMENT_3D ( 'NONE', #19, #225, #343 ) ;
#319 = ORIENTED_EDGE ( 'NONE', *, *, #217, .F. ) ;
#320 = ORIENTED_EDGE ( 'NONE', *, *, #435, .F. ) ;
#321 = CIRCLE ( 'NONE', #118, 2.100000000000004530 ) ;
#322 = EDGE_LOOP ( 'NONE', ( #273, #156 ) ) ;
#323 = ADVANCED_FACE ( 'NONE', ( #431 ), #363, .F. ) ;
#324 = CARTESIAN_POINT ( 'NONE',  ( -113.7500000000000995, 20.00000000000000000, -110.0000000000000142 ) ) ;
#325 = AXIS2_PLACEMENT_3D ( 'NONE', #289, #82, #408 ) ;
#326 = PLANE ( 'NONE',  #325 ) ;
#327 = LINE ( 'NONE', #69, #358 ) ;
#328 = EDGE_CURVE ( 'NONE', #233, #129, #481, .T. ) ;
#329 = ORIENTED_EDGE ( 'NONE', *, *, #217, .T. ) ;
#330 = LOCAL_TIME ( 13, 48, 50.00000000000000000, #223 ) ;
#331 = DIRECTION ( 'NONE',  ( -2.075183223598423177E-16, -0.000000000000000000, 1.000000000000000000 ) ) ;
#332 = ORIENTED_EDGE ( 'NONE', *, *, #361, .T. ) ;
#333 = CARTESIAN_POINT ( 'NONE',  ( -113.7500000000000995, 20.00000000000000000, -110.0000000000000142 ) ) ;
#334 = VERTEX_POINT ( 'NONE', #278 ) ;
#335 = CYLINDRICAL_SURFACE ( 'NONE', #153, 2.100000000000004530 ) ;
#336 = CARTESIAN_POINT ( 'NONE',  ( -113.7500000000000995, 20.00000000000000000, -110.0000000000000142 ) ) ;
#337 = DIRECTION ( 'NONE',  ( -1.000000000000000000, 0.000000000000000000, 0.000000000000000000 ) ) ;
#338 = APPROVAL ( #105, 'UNSPECIFIED' ) ;
#339 = CARTESIAN_POINT ( 'NONE',  ( -113.7500000000000853, 0.000000000000000000, -30.00000000000000000 ) ) ;
#340 =( NAMED_UNIT ( * ) SI_UNIT ( $, .STERADIAN. ) SOLID_ANGLE_UNIT ( ) );
#341 = DIRECTION ( 'NONE',  ( 0.000000000000000000, -0.000000000000000000, -1.000000000000000000 ) ) ;
#342 = MECHANICAL_CONTEXT ( 'NONE', #258, 'mechanical' ) ;
#343 = DIRECTION ( 'NONE',  ( -1.000000000000000000, 0.000000000000000000, 0.000000000000000000 ) ) ;
#344 = PERSON_AND_ORGANIZATION ( #186, #33 ) ;
#345 = EDGE_CURVE ( 'NONE', #404, #239, #510, .T. ) ;
#346 = DIRECTION ( 'NONE',  ( -0.000000000000000000, 1.000000000000000000, -0.000000000000000000 ) ) ;
#347 = VECTOR ( 'NONE', #145, 1000.000000000000000 ) ;
#348 = CARTESIAN_POINT ( 'NONE',  ( -133.7500000000000000, 20.00000000000000000, 9.999999999999971578 ) ) ;
#349 = VERTEX_POINT ( 'NONE', #313 ) ;
#350 = EDGE_CURVE ( 'NONE', #484, #349, #188, .T. ) ;
#351 = AXIS2_PLACEMENT_3D ( 'NONE', #49, #499, #213 ) ;
#352 = CARTESIAN_POINT ( 'NONE',  ( -133.7500000000000853, 20.00000000000000000, -110.0000000000000284 ) ) ;
#353 = ORIENTED_EDGE ( 'NONE', *, *, #442, .F. ) ;
#354 = EDGE_CURVE ( 'NONE', #513, #250, #327, .T. ) ;
#355 = PLANE ( 'NONE',  #1 ) ;
#356 = ORIENTED_EDGE ( 'NONE', *, *, #307, .T. ) ;
#357 = ORIENTED_EDGE ( 'NONE', *, *, #39, .T. ) ;
#358 = VECTOR ( 'NONE', #310, 1000.000000000000000 ) ;
#359 = ORIENTED_EDGE ( 'NONE', *, *, #51, .T. ) ;
#360 = CC_DESIGN_PERSON_AND_ORGANIZATION_ASSIGNMENT ( #109, #460, ( #478 ) ) ;
#361 = EDGE_CURVE ( 'NONE', #89, #159, #232, .T. ) ;
#362 = ORIENTED_EDGE ( 'NONE', *, *, #198, .F. ) ;
#363 = CYLINDRICAL_SURFACE ( 'NONE', #364, 2.100000000000004530 ) ;
#364 = AXIS2_PLACEMENT_3D ( 'NONE', #402, #519, #71 ) ;
#365 = VERTEX_POINT ( 'NONE', #428 ) ;
#366 = EDGE_CURVE ( 'NONE', #365, #111, #377, .T. ) ;
#367 = CYLINDRICAL_SURFACE ( 'NONE', #403, 20.00000000000000355 ) ;
#368 = ORIENTED_EDGE ( 'NONE', *, *, #453, .F. ) ;
#369 = DIRECTION ( 'NONE',  ( -0.000000000000000000, -1.000000000000000000, -0.000000000000000000 ) ) ;
#370 = CC_DESIGN_DATE_AND_TIME_ASSIGNMENT ( #498, #298, ( #261 ) ) ;
#371 = CARTESIAN_POINT ( 'NONE',  ( -51.10000000000000853, 10.00000000000000000, -9.999999999999985789 ) ) ;
#372 = CIRCLE ( 'NONE', #6, 2.100000000000004530 ) ;
#373 = CARTESIAN_POINT ( 'NONE',  ( 0.000000000000000000, 20.00000000000000000, 10.00000000000000000 ) ) ;
#374 = ORIENTED_EDGE ( 'NONE', *, *, #100, .T. ) ;
#375 = CARTESIAN_POINT ( 'NONE',  ( 0.000000000000000000, 20.00000000000000000, 0.000000000000000000 ) ) ;
#376 = DIRECTION ( 'NONE',  ( -0.000000000000000000, -1.000000000000000000, 0.000000000000000000 ) ) ;
#377 = CIRCLE ( 'NONE', #253, 20.00000000000000355 ) ;
#378 = FACE_OUTER_BOUND ( 'NONE', #205, .T. ) ;
#379 = DIRECTION ( 'NONE',  ( -0.000000000000000000, -0.000000000000000000, -1.000000000000000000 ) ) ;
#380 = APPROVAL_PERSON_ORGANIZATION ( #312, #338, #185 ) ;
#381 = FACE_BOUND ( 'NONE', #511, .T. ) ;
#382 = EDGE_CURVE ( 'NONE', #404, #334, #162, .T. ) ;
#383 = CALENDAR_DATE ( 2026, 31, 7 ) ;
#384 = CARTESIAN_POINT ( 'NONE',  ( -113.7500000000000853, 20.00000000000000000, -9.999999999999971578 ) ) ;
#385 = EDGE_CURVE ( 'NONE', #334, #484, #257, .T. ) ;
#386 = DIRECTION ( 'NONE',  ( 0.000000000000000000, 0.000000000000000000, -1.000000000000000000 ) ) ;
#387 = DATE_TIME_ROLE ( 'classification_date' ) ;
#388 = CYLINDRICAL_SURFACE ( 'NONE', #309, 2.100000000000004530 ) ;
#389 = APPROVAL_DATE_TIME ( #190, #268 ) ;
#390 = DIRECTION ( 'NONE',  ( 1.000000000000000000, 0.000000000000000000, -6.938893903907228378E-16 ) ) ;
#391 = EDGE_LOOP ( 'NONE', ( #35, #332, #245, #231 ) ) ;
#392 = CARTESIAN_POINT ( 'NONE',  ( -113.7500000000000142, 20.00000000000000000, -10.00000000000002487 ) ) ;
#393 = ORIENTED_EDGE ( 'NONE', *, *, #366, .F. ) ;
#394 = CARTESIAN_POINT ( 'NONE',  ( -49.00000000000000000, 10.00000000000000000, -9.999999999999985789 ) ) ;
#395 = LOCAL_TIME ( 13, 48, 50.00000000000000000, #102 ) ;
#396 = ADVANCED_FACE ( 'NONE', ( #16 ), #335, .F. ) ;
#397 = EDGE_LOOP ( 'NONE', ( #238, #488, #196, #125 ) ) ;
#398 = ORIENTED_EDGE ( 'NONE', *, *, #197, .F. ) ;
#399 = EDGE_CURVE ( 'NONE', #29, #44, #321, .T. ) ;
#400 = ORIENTED_EDGE ( 'NONE', *, *, #350, .T. ) ;
#401 = CARTESIAN_POINT ( 'NONE',  ( -46.89999999999999147, 10.00000000000000000, 9.999999999999989342 ) ) ;
#402 = CARTESIAN_POINT ( 'NONE',  ( -91.00000000000000000, 10.00000000000000000, 15.93969696196701591 ) ) ;
#403 = AXIS2_PLACEMENT_3D ( 'NONE', #165, #28, #244 ) ;
#404 = VERTEX_POINT ( 'NONE', #333 ) ;
#405 = DIRECTION ( 'NONE',  ( -2.745056929018243809E-16, 0.000000000000000000, -1.000000000000000000 ) ) ;
#406 = EDGE_LOOP ( 'NONE', ( #393, #8, #520, #77 ) ) ;
#407 = CARTESIAN_POINT ( 'NONE',  ( -93.10000000000000853, 10.00000000000000000, 9.999999999999980460 ) ) ;
#408 = DIRECTION ( 'NONE',  ( 1.387778780781445182E-16, 0.000000000000000000, 1.000000000000000000 ) ) ;
#409 = DIRECTION ( 'NONE',  ( -0.000000000000000000, -1.000000000000000000, -0.000000000000000000 ) ) ;
#410 = CARTESIAN_POINT ( 'NONE',  ( -93.75000000000008527, 0.000000000000000000, -29.99999999999997158 ) ) ;
#411 = LINE ( 'NONE', #218, #108 ) ;
#412 = EDGE_CURVE ( 'NONE', #36, #517, #492, .T. ) ;
#413 = CARTESIAN_POINT ( 'NONE',  ( -93.75000000000008527, 0.000000000000000000, -9.999999999999976907 ) ) ;
#414 = CIRCLE ( 'NONE', #424, 2.100000000000004530 ) ;
#415 = CARTESIAN_POINT ( 'NONE',  ( 0.000000000000000000, 20.00000000000000000, 10.00000000000000000 ) ) ;
#416 = DIRECTION ( 'NONE',  ( 0.000000000000000000, 1.000000000000000000, -0.000000000000000000 ) ) ;
#417 = DATE_AND_TIME ( #275, #330 ) ;
#418 = AXIS2_PLACEMENT_3D ( 'NONE', #137, #212, #255 ) ;
#419 = DIRECTION ( 'NONE',  ( -1.387778780781445182E-16, -0.000000000000000000, -1.000000000000000000 ) ) ;
#420 = EDGE_CURVE ( 'NONE', #513, #506, #57, .T. ) ;
#421 = ADVANCED_FACE ( 'NONE', ( #48 ), #168, .F. ) ;
#422 = DIRECTION ( 'NONE',  ( 2.440050603571770850E-16, -0.000000000000000000, 1.000000000000000000 ) ) ;
#423 = PERSON_AND_ORGANIZATION ( #186, #33 ) ;
#424 = AXIS2_PLACEMENT_3D ( 'NONE', #394, #78, #34 ) ;
#425 = CARTESIAN_POINT ( 'NONE',  ( -48.99999999999999289, 10.00000000000000000, 9.999999999999989342 ) ) ;
#426 = SECURITY_CLASSIFICATION_LEVEL ( 'unclassified' ) ;
#427 = VECTOR ( 'NONE', #369, 1000.000000000000000 ) ;
#428 = CARTESIAN_POINT ( 'NONE',  ( -133.7500000000000000, 20.00000000000000000, -10.00000000000001066 ) ) ;
#429 = ORIENTED_EDGE ( 'NONE', *, *, #354, .T. ) ;
#430 = COORDINATED_UNIVERSAL_TIME_OFFSET ( 3, 30, .AHEAD. ) ;
#431 = FACE_OUTER_BOUND ( 'NONE', #280, .T. ) ;
#432 = ORIENTED_EDGE ( 'NONE', *, *, #361, .F. ) ;
#433 = DIRECTION ( 'NONE',  ( 0.000000000000000000, 1.000000000000000000, -0.000000000000000000 ) ) ;
#434 = ORIENTED_EDGE ( 'NONE', *, *, #385, .F. ) ;
#435 = EDGE_CURVE ( 'NONE', #239, #365, #252, .T. ) ;
#436 = VECTOR ( 'NONE', #290, 1000.000000000000000 ) ;
#437 = EDGE_LOOP ( 'NONE', ( #368, #161, #67, #121 ) ) ;
#438 = ADVANCED_FACE ( 'NONE', ( #457 ), #451, .F. ) ;
#439 = ORIENTED_EDGE ( 'NONE', *, *, #148, .T. ) ;
#440 = ORIENTED_EDGE ( 'NONE', *, *, #251, .T. ) ;
#441 = DIRECTION ( 'NONE',  ( -2.745056929018243809E-16, 0.000000000000000000, -1.000000000000000000 ) ) ;
#442 = EDGE_CURVE ( 'NONE', #170, #5, #93, .T. ) ;
#443 = CARTESIAN_POINT ( 'NONE',  ( 0.000000000000000000, 20.00000000000000000, -10.00000000000000000 ) ) ;
#444 = VECTOR ( 'NONE', #483, 1000.000000000000000 ) ;
#445 = CC_DESIGN_PERSON_AND_ORGANIZATION_ASSIGNMENT ( #344, #22, ( #76 ) ) ;
#446 = CARTESIAN_POINT ( 'NONE',  ( -48.99999999999999289, 10.00000000000000000, 9.999999999999989342 ) ) ;
#447 = VERTEX_POINT ( 'NONE', #285 ) ;
#448 = FACE_OUTER_BOUND ( 'NONE', #437, .T. ) ;
#449 = VECTOR ( 'NONE', #106, 1000.000000000000000 ) ;
#450 = ORIENTED_EDGE ( 'NONE', *, *, #297, .T. ) ;
#451 = CYLINDRICAL_SURFACE ( 'NONE', #23, 20.00000000000000000 ) ;
#452 = ORIENTED_EDGE ( 'NONE', *, *, #412, .T. ) ;
#453 = EDGE_CURVE ( 'NONE', #111, #514, #4, .T. ) ;
#454 = CC_DESIGN_SECURITY_CLASSIFICATION ( #160, ( #478 ) ) ;
#455 = DIRECTION ( 'NONE',  ( -1.000000000000000000, 0.000000000000000000, 0.000000000000000000 ) ) ;
#456 = DIRECTION ( 'NONE',  ( 0.000000000000000000, 0.000000000000000000, -1.000000000000000000 ) ) ;
#457 = FACE_OUTER_BOUND ( 'NONE', #237, .T. ) ;
#458 = CARTESIAN_POINT ( 'NONE',  ( -46.89999999999999858, 10.00000000000000000, -9.999999999999985789 ) ) ;
#459 = EDGE_CURVE ( 'NONE', #26, #447, #219, .T. ) ;
#460 = PERSON_AND_ORGANIZATION_ROLE ( 'creator' ) ;
#461 = EDGE_CURVE ( 'NONE', #514, #36, #411, .T. ) ;
#462 = LINE ( 'NONE', #96, #234 ) ;
#463 = EDGE_CURVE ( 'NONE', #506, #279, #180, .T. ) ;
#464 = PERSON_AND_ORGANIZATION ( #186, #33 ) ;
#465 = VECTOR ( 'NONE', #132, 1000.000000000000000 ) ;
#466 = CARTESIAN_POINT ( 'NONE',  ( -51.10000000000000142, 10.00000000000000000, 15.93969696196700170 ) ) ;
#467 = PERSON_AND_ORGANIZATION ( #186, #33 ) ;
#468 = LINE ( 'NONE', #466, #149 ) ;
#469 = CLOSED_SHELL ( 'NONE', ( #104, #323, #32, #116, #3, #158, #229, #491, #421, #136, #306, #438, #301, #396 ) ) ;
#470 = CARTESIAN_POINT ( 'NONE',  ( -113.7500000000000853, 0.000000000000000000, -29.99999999999996803 ) ) ;
#471 = EDGE_LOOP ( 'NONE', ( #155, #476, #147, #434, #362, #374, #31, #398 ) ) ;
#472 =( GEOMETRIC_REPRESENTATION_CONTEXT ( 3 ) GLOBAL_UNCERTAINTY_ASSIGNED_CONTEXT ( ( #274 ) ) GLOBAL_UNIT_ASSIGNED_CONTEXT ( ( #20, #500, #340 ) ) REPRESENTATION_CONTEXT ( 'NONE', 'WORKASPACE' ) );
#473 = DIRECTION ( 'NONE',  ( -1.000000000000000000, 0.000000000000000000, 0.000000000000000000 ) ) ;
#474 = ORIENTED_EDGE ( 'NONE', *, *, #39, .F. ) ;
#475 = DIRECTION ( 'NONE',  ( -2.745056929018243809E-16, -0.000000000000000000, -1.000000000000000000 ) ) ;
#476 = ORIENTED_EDGE ( 'NONE', *, *, #101, .T. ) ;
#477 = ORIENTED_EDGE ( 'NONE', *, *, #251, .F. ) ;
#478 = PRODUCT_DEFINITION_FORMATION_WITH_SPECIFIED_SOURCE ( 'ANY', '', #76, .NOT_KNOWN. ) ;
#479 = EDGE_LOOP ( 'NONE', ( #200, #477 ) ) ;
#480 = EDGE_LOOP ( 'NONE', ( #42, #167, #357, #70 ) ) ;
#481 = LINE ( 'NONE', #521, #347 ) ;
#482 = DIRECTION ( 'NONE',  ( -1.000000000000000000, 0.000000000000000000, 0.000000000000000000 ) ) ;
#483 = DIRECTION ( 'NONE',  ( -0.000000000000000000, 1.000000000000000000, -0.000000000000000000 ) ) ;
#484 = VERTEX_POINT ( 'NONE', #173 ) ;
#485 = VECTOR ( 'NONE', #10, 1000.000000000000000 ) ;
#486 = EDGE_CURVE ( 'NONE', #506, #513, #372, .T. ) ;
#487 = CARTESIAN_POINT ( 'NONE',  ( -91.00000000000000000, 10.00000000000000000, 9.999999999999980460 ) ) ;
#488 = ORIENTED_EDGE ( 'NONE', *, *, #420, .T. ) ;
#489 = DIRECTION ( 'NONE',  ( 0.000000000000000000, -0.000000000000000000, -1.000000000000000000 ) ) ;
#490 = ORIENTED_EDGE ( 'NONE', *, *, #271, .T. ) ;
#491 = ADVANCED_FACE ( 'NONE', ( #91, #130, #448 ), #83, .F. ) ;
#492 = LINE ( 'NONE', #288, #427 ) ;
#493 = CARTESIAN_POINT ( 'NONE',  ( -133.7500000000000853, 20.00000000000000000, -110.0000000000000284 ) ) ;
#494 = CARTESIAN_POINT ( 'NONE',  ( -49.00000000000000000, 10.00000000000000000, -9.999999999999985789 ) ) ;
#495 = CARTESIAN_POINT ( 'NONE',  ( 0.000000000000000000, 20.00000000000000000, 10.00000000000000000 ) ) ;
#496 = CYLINDRICAL_SURFACE ( 'NONE', #318, 2.100000000000004530 ) ;
#497 = VECTOR ( 'NONE', #419, 1000.000000000000000 ) ;
#498 = DATE_AND_TIME ( #68, #395 ) ;
#499 = DIRECTION ( 'NONE',  ( -2.745056929018243809E-16, 0.000000000000000000, -1.000000000000000000 ) ) ;
#500 =( NAMED_UNIT ( * ) PLANE_ANGLE_UNIT ( ) SI_UNIT ( $, .RADIAN. ) );
#501 = FACE_OUTER_BOUND ( 'NONE', #152, .T. ) ;
#502 = AXIS2_PLACEMENT_3D ( 'NONE', #425, #202, #473 ) ;
#503 = ORIENTED_EDGE ( 'NONE', *, *, #463, .F. ) ;
#504 = APPLICATION_PROTOCOL_DEFINITION ( 'international standard', 'config_control_design', 1994, #258 ) ;
#505 = CARTESIAN_POINT ( 'NONE',  ( -133.7500000000000000, 0.000000000000000000, 9.999999999999971578 ) ) ;
#506 = VERTEX_POINT ( 'NONE', #407 ) ;
#507 = AXIS2_PLACEMENT_3D ( 'NONE', #410, #416, #183 ) ;
#508 = CARTESIAN_POINT ( 'NONE',  ( 0.000000000000000000, 0.000000000000000000, 0.000000000000000000 ) ) ;
#509 = AXIS2_PLACEMENT_3D ( 'NONE', #21, #376, #456 ) ;
#510 = LINE ( 'NONE', #24, #25 ) ;
#511 = EDGE_LOOP ( 'NONE', ( #73, #319 ) ) ;
#512 = CARTESIAN_POINT ( 'NONE',  ( -46.89999999999999147, 10.00000000000000000, 15.93969696196700170 ) ) ;
#513 = VERTEX_POINT ( 'NONE', #208 ) ;
#514 = VERTEX_POINT ( 'NONE', #373 ) ;
#515 = VECTOR ( 'NONE', #138, 1000.000000000000000 ) ;
#516 = PRODUCT_DEFINITION_SHAPE ( 'NONE', 'NONE',  #261 ) ;
#517 = VERTEX_POINT ( 'NONE', #214 ) ;
#518 = ORIENTED_EDGE ( 'NONE', *, *, #461, .F. ) ;
#519 = DIRECTION ( 'NONE',  ( -2.745056929018243809E-16, -0.000000000000000000, -1.000000000000000000 ) ) ;
#520 = ORIENTED_EDGE ( 'NONE', *, *, #101, .F. ) ;
#521 = CARTESIAN_POINT ( 'NONE',  ( 0.000000000000000000, 0.000000000000000000, 10.00000000000000000 ) ) ;
ENDSEC;
END-ISO-10303-21;
