ISO-10303-21;
HEADER;
FILE_DESCRIPTION (( 'STEP AP203' ),
    '1' );
FILE_NAME ('Link2BackShaft_Default_sldprt.STEP',
    '2026-07-31T10:18:55',
    ( '' ),
    ( '' ),
    'SwSTEP 2.0',
    'SolidWorks 2025',
    '' );
FILE_SCHEMA (( 'CONFIG_CONTROL_DESIGN' ));
ENDSEC;

DATA;
#1 = CIRCLE ( 'NONE', #948, 4.990000000000000213 ) ;
#2 = ADVANCED_FACE ( 'NONE', ( #496 ), #492, .F. ) ;
#3 = CARTESIAN_POINT ( 'NONE',  ( 0.000000000000000000, 5.866058167915829334E-16, -4.790000000000006253 ) ) ;
#4 = APPLICATION_PROTOCOL_DEFINITION ( 'international standard', 'config_control_design', 1994, #472 ) ;
#5 = DIRECTION ( 'NONE',  ( 0.000000000000000000, 0.000000000000000000, 1.000000000000000000 ) ) ;
#6 = VERTEX_POINT ( 'NONE', #885 ) ;
#7 = CARTESIAN_POINT ( 'NONE',  ( 38.50000000000000000, 0.000000000000000000, 0.000000000000000000 ) ) ;
#8 = APPROVAL_ROLE ( '' ) ;
#9 = FACE_OUTER_BOUND ( 'NONE', #516, .T. ) ;
#10 = VERTEX_POINT ( 'NONE', #956 ) ;
#11 = CC_DESIGN_PERSON_AND_ORGANIZATION_ASSIGNMENT ( #670, #745, ( #773 ) ) ;
#12 = CARTESIAN_POINT ( 'NONE',  ( 0.000000000000000000, 0.000000000000000000, 0.000000000000000000 ) ) ;
#13 = DIRECTION ( 'NONE',  ( 0.000000000000000000, 0.000000000000000000, 1.000000000000000000 ) ) ;
#14 = EDGE_CURVE ( 'NONE', #291, #6, #654, .T. ) ;
#15 = CARTESIAN_POINT ( 'NONE',  ( 24.00000000000000000, 2.000000000000002665, 7.228416147400479552 ) ) ;
#16 = EDGE_LOOP ( 'NONE', ( #33, #863, #461, #352 ) ) ;
#17 = EDGE_CURVE ( 'NONE', #925, #455, #1039, .T. ) ;
#18 = CARTESIAN_POINT ( 'NONE',  ( 14.00000000000000000, 2.000000000000002665, 7.218039900139096687 ) ) ;
#19 = EDGE_CURVE ( 'NONE', #6, #291, #993, .T. ) ;
#20 = AXIS2_PLACEMENT_3D ( 'NONE', #7, #603, #965 ) ;
#21 = DIRECTION ( 'NONE',  ( -0.000000000000000000, 0.000000000000000000, 1.000000000000000000 ) ) ;
#22 = CC_DESIGN_SECURITY_CLASSIFICATION ( #789, ( #191 ) ) ;
#23 = DIRECTION ( 'NONE',  ( 0.000000000000000000, 0.000000000000000000, 1.000000000000000000 ) ) ;
#24 = ORIENTED_EDGE ( 'NONE', *, *, #913, .F. ) ;
#25 = CARTESIAN_POINT ( 'NONE',  ( 14.00000000000000000, 2.000000000000003109, -4.571662717217884087 ) ) ;
#26 = DIRECTION ( 'NONE',  ( 0.000000000000000000, 0.000000000000000000, 1.000000000000000000 ) ) ;
#27 = DIRECTION ( 'NONE',  ( -1.000000000000000000, -0.000000000000000000, -0.000000000000000000 ) ) ;
#28 = ORIENTED_EDGE ( 'NONE', *, *, #17, .T. ) ;
#29 = ORIENTED_EDGE ( 'NONE', *, *, #19, .F. ) ;
#30 = CARTESIAN_POINT ( 'NONE',  ( 14.00000000000000000, -1.999999999999997335, 7.228416147400479552 ) ) ;
#31 = CARTESIAN_POINT ( 'NONE',  ( 30.50000000000000000, 0.000000000000000000, -4.990000000000004654 ) ) ;
#32 = CYLINDRICAL_SURFACE ( 'NONE', #363, 4.990000000000004654 ) ;
#33 = ORIENTED_EDGE ( 'NONE', *, *, #1006, .F. ) ;
#34 = EDGE_CURVE ( 'NONE', #564, #375, #963, .T. ) ;
#35 = EDGE_LOOP ( 'NONE', ( #382, #843, #875, #588 ) ) ;
#36 = SECURITY_CLASSIFICATION_LEVEL ( 'unclassified' ) ;
#37 = CARTESIAN_POINT ( 'NONE',  ( 0.000000000000000000, 6.110987527745299433E-16, -4.990000000000005542 ) ) ;
#38 = CIRCLE ( 'NONE', #68, 4.990000000000004654 ) ;
#39 = CIRCLE ( 'NONE', #379, 4.990000000000002878 ) ;
#40 = DIRECTION ( 'NONE',  ( -1.000000000000000000, -0.000000000000000000, -0.000000000000000000 ) ) ;
#41 = VECTOR ( 'NONE', #413, 1000.000000000000000 ) ;
#42 = ORIENTED_EDGE ( 'NONE', *, *, #49, .F. ) ;
#43 = DESIGN_CONTEXT ( 'detailed design', #472, 'design' ) ;
#44 = CARTESIAN_POINT ( 'NONE',  ( 39.50000000000000711, 0.000000000000000000, 0.000000000000000000 ) ) ;
#45 = ORIENTED_EDGE ( 'NONE', *, *, #232, .T. ) ;
#46 = CARTESIAN_POINT ( 'NONE',  ( 0.000000000000000000, 6.110987527745294503E-16, -4.990000000000001101 ) ) ;
#47 = CYLINDRICAL_SURFACE ( 'NONE', #188, 7.490000000000001990 ) ;
#48 = ORIENTED_EDGE ( 'NONE', *, *, #400, .F. ) ;
#49 = EDGE_CURVE ( 'NONE', #184, #148, #718, .T. ) ;
#50 = CARTESIAN_POINT ( 'NONE',  ( 14.00000000000000000, 0.000000000000000000, 0.000000000000000000 ) ) ;
#51 = ADVANCED_FACE ( 'NONE', ( #92, #577 ), #418, .F. ) ;
#52 = CARTESIAN_POINT ( 'NONE',  ( 0.000000000000000000, 6.110987527745296475E-16, -4.990000000000002878 ) ) ;
#53 = AXIS2_PLACEMENT_3D ( 'NONE', #215, #374, #460 ) ;
#54 = ORIENTED_EDGE ( 'NONE', *, *, #913, .T. ) ;
#55 = AXIS2_PLACEMENT_3D ( 'NONE', #256, #761, #593 ) ;
#56 = APPROVAL_PERSON_ORGANIZATION ( #331, #583, #576 ) ;
#57 = LINE ( 'NONE', #46, #897 ) ;
#58 = APPROVAL ( #659, 'UNSPECIFIED' ) ;
#59 = FACE_OUTER_BOUND ( 'NONE', #926, .T. ) ;
#60 = VERTEX_POINT ( 'NONE', #158 ) ;
#61 = ADVANCED_FACE ( 'NONE', ( #9 ), #809, .T. ) ;
#62 = DIRECTION ( 'NONE',  ( -1.000000000000000000, -0.000000000000000000, -0.000000000000000000 ) ) ;
#63 = CARTESIAN_POINT ( 'NONE',  ( 14.00000000000000000, 0.000000000000000000, 0.000000000000000000 ) ) ;
#64 = EDGE_LOOP ( 'NONE', ( #517, #146, #66, #764 ) ) ;
#65 = DIRECTION ( 'NONE',  ( -1.000000000000000000, -0.000000000000000000, -0.000000000000000000 ) ) ;
#66 = ORIENTED_EDGE ( 'NONE', *, *, #890, .T. ) ;
#67 = ORIENTED_EDGE ( 'NONE', *, *, #864, .F. ) ;
#68 = AXIS2_PLACEMENT_3D ( 'NONE', #44, #924, #846 ) ;
#69 = AXIS2_PLACEMENT_3D ( 'NONE', #685, #1000, #279 ) ;
#70 = LOCAL_TIME ( 13, 48, 55.00000000000000000, #320 ) ;
#71 = CARTESIAN_POINT ( 'NONE',  ( 0.000000000000000000, 0.000000000000000000, 0.000000000000000000 ) ) ;
#72 = LINE ( 'NONE', #319, #696 ) ;
#73 = DIRECTION ( 'NONE',  ( 0.000000000000000000, -1.000000000000000000, 0.000000000000000000 ) ) ;
#74 = DIRECTION ( 'NONE',  ( -0.000000000000000000, 0.000000000000000000, 1.000000000000000000 ) ) ;
#75 = ADVANCED_FACE ( 'NONE', ( #77 ), #404, .F. ) ;
#76 = DIRECTION ( 'NONE',  ( -1.000000000000000000, -0.000000000000000000, -0.000000000000000000 ) ) ;
#77 = FACE_OUTER_BOUND ( 'NONE', #127, .T. ) ;
#78 = EDGE_LOOP ( 'NONE', ( #642, #1038 ) ) ;
#79 = ADVANCED_FACE ( 'NONE', ( #398 ), #587, .T. ) ;
#80 = DIRECTION ( 'NONE',  ( -1.000000000000000000, -0.000000000000000000, -0.000000000000000000 ) ) ;
#81 = APPROVAL_STATUS ( 'not_yet_approved' ) ;
#82 = CARTESIAN_POINT ( 'NONE',  ( 0.000000000000000000, 0.000000000000000000, 0.000000000000000000 ) ) ;
#83 = ORIENTED_EDGE ( 'NONE', *, *, #220, .T. ) ;
#84 = VECTOR ( 'NONE', #752, 1000.000000000000000 ) ;
#85 = CARTESIAN_POINT ( 'NONE',  ( 54.00000000000000000, 0.000000000000000000, 0.000000000000000000 ) ) ;
#86 = CIRCLE ( 'NONE', #883, 4.790000000000006253 ) ;
#87 = LINE ( 'NONE', #727, #498 ) ;
#88 = COORDINATED_UNIVERSAL_TIME_OFFSET ( 3, 30, .AHEAD. ) ;
#89 = CARTESIAN_POINT ( 'NONE',  ( 4.000000000000000000, 0.000000000000000000, 0.000000000000000000 ) ) ;
#90 = DIRECTION ( 'NONE',  ( 0.000000000000000000, 0.000000000000000000, 1.000000000000000000 ) ) ;
#91 = DATE_AND_TIME ( #424, #70 ) ;
#92 = FACE_BOUND ( 'NONE', #388, .T. ) ;
#93 = ORIENTED_EDGE ( 'NONE', *, *, #1006, .T. ) ;
#94 = CC_DESIGN_PERSON_AND_ORGANIZATION_ASSIGNMENT ( #581, #502, ( #191 ) ) ;
#95 = ORIENTED_EDGE ( 'NONE', *, *, #212, .T. ) ;
#96 = DIRECTION ( 'NONE',  ( -1.000000000000000000, -0.000000000000000000, -0.000000000000000000 ) ) ;
#97 = DIRECTION ( 'NONE',  ( -1.000000000000000000, -0.000000000000000000, -0.000000000000000000 ) ) ;
#98 = PERSON_AND_ORGANIZATION ( #591, #1024 ) ;
#99 = FACE_OUTER_BOUND ( 'NONE', #199, .T. ) ;
#100 = ORIENTED_EDGE ( 'NONE', *, *, #102, .T. ) ;
#101 = CARTESIAN_POINT ( 'NONE',  ( 14.00000000000000000, -1.999999999999997335, 7.228416147400479552 ) ) ;
#102 = EDGE_CURVE ( 'NONE', #683, #406, #139, .T. ) ;
#103 = AXIS2_PLACEMENT_3D ( 'NONE', #768, #514, #915 ) ;
#104 = PLANE ( 'NONE',  #994 ) ;
#105 = CIRCLE ( 'NONE', #839, 4.990000000000001101 ) ;
#106 = CARTESIAN_POINT ( 'NONE',  ( 0.000000000000000000, 0.000000000000000000, 7.490000000000001990 ) ) ;
#107 = ORIENTED_EDGE ( 'NONE', *, *, #788, .F. ) ;
#108 = ORIENTED_EDGE ( 'NONE', *, *, #647, .T. ) ;
#109 = ADVANCED_FACE ( 'NONE', ( #582 ), #332, .T. ) ;
#110 = DIRECTION ( 'NONE',  ( 0.000000000000000000, 0.000000000000000000, -1.000000000000000000 ) ) ;
#111 = CARTESIAN_POINT ( 'NONE',  ( 0.000000000000000000, 0.000000000000000000, 4.790000000000006253 ) ) ;
#112 = EDGE_CURVE ( 'NONE', #985, #467, #271, .T. ) ;
#113 = DIRECTION ( 'NONE',  ( -0.000000000000000000, 0.000000000000000000, -1.000000000000000000 ) ) ;
#114 = EDGE_LOOP ( 'NONE', ( #578, #368, #945, #28, #912, #310 ) ) ;
#115 = ORIENTED_EDGE ( 'NONE', *, *, #325, .F. ) ;
#116 = DIRECTION ( 'NONE',  ( -1.000000000000000000, -0.000000000000000000, -0.000000000000000000 ) ) ;
#117 = CARTESIAN_POINT ( 'NONE',  ( 24.00000000000000000, -1.999999999999997335, -7.218039900139097576 ) ) ;
#118 = EDGE_LOOP ( 'NONE', ( #573, #441, #814, #547, #529, #444 ) ) ;
#119 = EDGE_LOOP ( 'NONE', ( #1014, #386, #717, #115, #230, #276 ) ) ;
#120 = ADVANCED_FACE ( 'NONE', ( #338 ), #595, .T. ) ;
#121 = PERSON_AND_ORGANIZATION ( #591, #1024 ) ;
#122 = DIRECTION ( 'NONE',  ( 0.000000000000000000, 0.000000000000000000, 1.000000000000000000 ) ) ;
#123 = AXIS2_PLACEMENT_3D ( 'NONE', #813, #676, #170 ) ;
#124 = VECTOR ( 'NONE', #196, 1000.000000000000000 ) ;
#125 = CARTESIAN_POINT ( 'NONE',  ( 0.000000000000000000, 0.000000000000000000, 4.790000000000006253 ) ) ;
#126 = VECTOR ( 'NONE', #639, 1000.000000000000000 ) ;
#127 = EDGE_LOOP ( 'NONE', ( #558, #542, #487, #757, #838, #183 ) ) ;
#128 = DIRECTION ( 'NONE',  ( 0.000000000000000000, 0.000000000000000000, 1.000000000000000000 ) ) ;
#129 = DIRECTION ( 'NONE',  ( 1.000000000000000000, 0.000000000000000000, 0.000000000000000000 ) ) ;
#130 = EDGE_CURVE ( 'NONE', #291, #782, #671, .T. ) ;
#131 = ORIENTED_EDGE ( 'NONE', *, *, #237, .T. ) ;
#132 = EDGE_CURVE ( 'NONE', #399, #333, #842, .T. ) ;
#133 = DIRECTION ( 'NONE',  ( 0.000000000000000000, 0.000000000000000000, 1.000000000000000000 ) ) ;
#134 = DIRECTION ( 'NONE',  ( -1.000000000000000000, -0.000000000000000000, -0.000000000000000000 ) ) ;
#135 = VERTEX_POINT ( 'NONE', #283 ) ;
#136 = CC_DESIGN_PERSON_AND_ORGANIZATION_ASSIGNMENT ( #803, #1035, ( #557 ) ) ;
#137 = LINE ( 'NONE', #225, #758 ) ;
#138 = CARTESIAN_POINT ( 'NONE',  ( 38.50000000000000000, 5.866058167915829334E-16, -4.790000000000006253 ) ) ;
#139 = CIRCLE ( 'NONE', #446, 7.490000000000001990 ) ;
#140 = ORIENTED_EDGE ( 'NONE', *, *, #130, .T. ) ;
#141 = CIRCLE ( 'NONE', #658, 4.990000000000001101 ) ;
#142 = ORIENTED_EDGE ( 'NONE', *, *, #318, .T. ) ;
#143 = VECTOR ( 'NONE', #649, 1000.000000000000000 ) ;
#144 = DIRECTION ( 'NONE',  ( 0.000000000000000000, -0.000000000000000000, 1.000000000000000000 ) ) ;
#145 = DIRECTION ( 'NONE',  ( -1.000000000000000000, -0.000000000000000000, -0.000000000000000000 ) ) ;
#146 = ORIENTED_EDGE ( 'NONE', *, *, #559, .T. ) ;
#147 = DIRECTION ( 'NONE',  ( -0.000000000000000000, -0.000000000000000000, 1.000000000000000000 ) ) ;
#148 = VERTEX_POINT ( 'NONE', #370 ) ;
#149 = DIRECTION ( 'NONE',  ( 0.000000000000000000, 0.000000000000000000, 1.000000000000000000 ) ) ;
#150 = CARTESIAN_POINT ( 'NONE',  ( 0.000000000000000000, 0.000000000000000000, 0.000000000000000000 ) ) ;
#151 = EDGE_CURVE ( 'NONE', #399, #779, #916, .T. ) ;
#152 = ORIENTED_EDGE ( 'NONE', *, *, #1037, .F. ) ;
#153 = VECTOR ( 'NONE', #763, 1000.000000000000000 ) ;
#154 = VECTOR ( 'NONE', #437, 1000.000000000000000 ) ;
#155 = CIRCLE ( 'NONE', #759, 4.990000000000001101 ) ;
#156 = PLANE ( 'NONE',  #431 ) ;
#157 = DIRECTION ( 'NONE',  ( 1.000000000000000000, 0.000000000000000000, 0.000000000000000000 ) ) ;
#158 = CARTESIAN_POINT ( 'NONE',  ( 26.00000000000000355, 0.000000000000000000, 7.490000000000002878 ) ) ;
#159 = ORIENTED_EDGE ( 'NONE', *, *, #383, .T. ) ;
#160 = DIRECTION ( 'NONE',  ( 0.000000000000000000, 0.000000000000000000, 1.000000000000000000 ) ) ;
#161 = PERSON_AND_ORGANIZATION_ROLE ( 'creator' ) ;
#162 = DIRECTION ( 'NONE',  ( -1.000000000000000000, -0.000000000000000000, -0.000000000000000000 ) ) ;
#163 = CARTESIAN_POINT ( 'NONE',  ( 24.00000000000000000, -1.999999999999997335, 7.218039900139097576 ) ) ;
#164 = DIRECTION ( 'NONE',  ( -0.000000000000000000, 0.000000000000000000, -1.000000000000000000 ) ) ;
#165 = CIRCLE ( 'NONE', #236, 4.990000000000001101 ) ;
#166 = AXIS2_PLACEMENT_3D ( 'NONE', #526, #845, #450 ) ;
#167 = DIRECTION ( 'NONE',  ( -1.000000000000000000, -0.000000000000000000, -0.000000000000000000 ) ) ;
#168 = ADVANCED_FACE ( 'NONE', ( #910 ), #192, .T. ) ;
#169 = APPLICATION_PROTOCOL_DEFINITION ( 'international standard', 'config_control_design', 1994, #299 ) ;
#170 = DIRECTION ( 'NONE',  ( 0.000000000000000000, 0.000000000000000000, 1.000000000000000000 ) ) ;
#171 = ADVANCED_FACE ( 'NONE', ( #350 ), #617, .T. ) ;
#172 = EDGE_LOOP ( 'NONE', ( #361, #672 ) ) ;
#173 = ORIENTED_EDGE ( 'NONE', *, *, #942, .T. ) ;
#174 = CARTESIAN_POINT ( 'NONE',  ( 54.00000000000000000, 0.000000000000000000, 4.990000000000006430 ) ) ;
#175 = DIRECTION ( 'NONE',  ( -1.000000000000000000, -0.000000000000000000, -0.000000000000000000 ) ) ;
#176 = CALENDAR_DATE ( 2026, 31, 7 ) ;
#177 = DIRECTION ( 'NONE',  ( 0.000000000000000000, 0.000000000000000000, 1.000000000000000000 ) ) ;
#178 = ORIENTED_EDGE ( 'NONE', *, *, #49, .T. ) ;
#179 = CARTESIAN_POINT ( 'NONE',  ( 24.00000000000000000, 2.000000000000002665, -7.218039900139096687 ) ) ;
#180 = CARTESIAN_POINT ( 'NONE',  ( 39.50000000000000711, 0.000000000000000000, -4.990000000000004654 ) ) ;
#181 = DIRECTION ( 'NONE',  ( 0.000000000000000000, 0.000000000000000000, 1.000000000000000000 ) ) ;
#182 = EDGE_CURVE ( 'NONE', #440, #60, #479, .T. ) ;
#183 = ORIENTED_EDGE ( 'NONE', *, *, #432, .F. ) ;
#184 = VERTEX_POINT ( 'NONE', #853 ) ;
#185 = CARTESIAN_POINT ( 'NONE',  ( 29.50000000000000000, 0.000000000000000000, 4.990000000000002878 ) ) ;
#186 = AXIS2_PLACEMENT_3D ( 'NONE', #409, #234, #164 ) ;
#187 = EDGE_CURVE ( 'NONE', #523, #561, #408, .T. ) ;
#188 = AXIS2_PLACEMENT_3D ( 'NONE', #385, #781, #549 ) ;
#189 = AXIS2_PLACEMENT_3D ( 'NONE', #792, #632, #1013 ) ;
#190 = PLANE ( 'NONE',  #1040 ) ;
#191 = PRODUCT_DEFINITION_FORMATION_WITH_SPECIFIED_SOURCE ( 'ANY', '', #557, .NOT_KNOWN. ) ;
#192 = PLANE ( 'NONE',  #775 ) ;
#193 = ORIENTED_EDGE ( 'NONE', *, *, #376, .T. ) ;
#194 = EDGE_LOOP ( 'NONE', ( #699, #662 ) ) ;
#195 = ADVANCED_FACE ( 'NONE', ( #99 ), #620, .T. ) ;
#196 = DIRECTION ( 'NONE',  ( 1.000000000000000000, 0.000000000000000000, 0.000000000000000000 ) ) ;
#197 = CARTESIAN_POINT ( 'NONE',  ( 0.000000000000000000, 0.000000000000000000, 4.990000000000005542 ) ) ;
#198 = ORIENTED_EDGE ( 'NONE', *, *, #267, .T. ) ;
#199 = EDGE_LOOP ( 'NONE', ( #1027, #733, #677, #510 ) ) ;
#200 = ADVANCED_FACE ( 'NONE', ( #355 ), #275, .T. ) ;
#201 = COORDINATED_UNIVERSAL_TIME_OFFSET ( 3, 30, .AHEAD. ) ;
#202 = FACE_OUTER_BOUND ( 'NONE', #848, .T. ) ;
#203 = DIRECTION ( 'NONE',  ( 0.000000000000000000, 0.000000000000000000, 1.000000000000000000 ) ) ;
#204 = EDGE_CURVE ( 'NONE', #702, #184, #425, .T. ) ;
#205 = ORIENTED_EDGE ( 'NONE', *, *, #313, .T. ) ;
#206 = ADVANCED_FACE ( 'NONE', ( #439 ), #32, .T. ) ;
#207 = DIRECTION ( 'NONE',  ( -1.000000000000000000, -0.000000000000000000, -0.000000000000000000 ) ) ;
#208 = AXIS2_PLACEMENT_3D ( 'NONE', #401, #134, #160 ) ;
#209 = AXIS2_PLACEMENT_3D ( 'NONE', #31, #599, #697 ) ;
#210 = CARTESIAN_POINT ( 'NONE',  ( 29.50000000000000000, 6.110987527745296475E-16, -4.990000000000002878 ) ) ;
#211 = APPROVAL_PERSON_ORGANIZATION ( #121, #58, #8 ) ;
#212 = EDGE_CURVE ( 'NONE', #333, #878, #252, .T. ) ;
#213 = ORIENTED_EDGE ( 'NONE', *, *, #890, .F. ) ;
#214 = FACE_OUTER_BOUND ( 'NONE', #118, .T. ) ;
#215 = CARTESIAN_POINT ( 'NONE',  ( 24.00000000000000000, 0.000000000000000000, 0.000000000000000000 ) ) ;
#216 = ORIENTED_EDGE ( 'NONE', *, *, #686, .T. ) ;
#217 = CARTESIAN_POINT ( 'NONE',  ( 3.000000000000000000, 0.000000000000000000, 0.000000000000000000 ) ) ;
#218 = DIRECTION ( 'NONE',  ( 0.000000000000000000, 0.000000000000000000, 1.000000000000000000 ) ) ;
#219 = VERTEX_POINT ( 'NONE', #835 ) ;
#220 = EDGE_CURVE ( 'NONE', #60, #985, #1001, .T. ) ;
#221 = DIRECTION ( 'NONE',  ( 0.000000000000000000, 0.000000000000000000, 1.000000000000000000 ) ) ;
#222 = CARTESIAN_POINT ( 'NONE',  ( 0.000000000000000000, 2.000000000000002665, -7.218039900139096687 ) ) ;
#223 = CIRCLE ( 'NONE', #69, 4.790000000000005365 ) ;
#224 = ORIENTED_EDGE ( 'NONE', *, *, #621, .T. ) ;
#225 = CARTESIAN_POINT ( 'NONE',  ( 0.000000000000000000, 0.000000000000000000, 4.990000000000004654 ) ) ;
#226 = EDGE_LOOP ( 'NONE', ( #281, #1018 ) ) ;
#227 = EDGE_CURVE ( 'NONE', #269, #482, #818, .T. ) ;
#228 = CARTESIAN_POINT ( 'NONE',  ( 29.50000000000000000, 0.000000000000000000, 0.000000000000000000 ) ) ;
#229 = DIRECTION ( 'NONE',  ( 0.000000000000000000, 0.000000000000000000, 1.000000000000000000 ) ) ;
#230 = ORIENTED_EDGE ( 'NONE', *, *, #260, .T. ) ;
#231 = FACE_OUTER_BOUND ( 'NONE', #445, .T. ) ;
#232 = EDGE_CURVE ( 'NONE', #943, #782, #495, .T. ) ;
#233 = FACE_OUTER_BOUND ( 'NONE', #990, .T. ) ;
#234 = DIRECTION ( 'NONE',  ( 1.000000000000000000, 0.000000000000000000, -0.000000000000000000 ) ) ;
#235 = ORIENTED_EDGE ( 'NONE', *, *, #847, .F. ) ;
#236 = AXIS2_PLACEMENT_3D ( 'NONE', #443, #40, #280 ) ;
#237 = EDGE_CURVE ( 'NONE', #878, #333, #38, .T. ) ;
#238 = AXIS2_PLACEMENT_3D ( 'NONE', #794, #634, #221 ) ;
#239 = PLANE ( 'NONE',  #272 ) ;
#240 = CARTESIAN_POINT ( 'NONE',  ( 0.000000000000000000, 0.000000000000000000, 4.990000000000000213 ) ) ;
#241 = COORDINATED_UNIVERSAL_TIME_OFFSET ( 3, 30, .AHEAD. ) ;
#242 = DIRECTION ( 'NONE',  ( -1.000000000000000000, -0.000000000000000000, -0.000000000000000000 ) ) ;
#243 = VERTEX_POINT ( 'NONE', #117 ) ;
#244 = CYLINDRICAL_SURFACE ( 'NONE', #976, 4.990000000000001101 ) ;
#245 = MECHANICAL_CONTEXT ( 'NONE', #299, 'mechanical' ) ;
#246 = CALENDAR_DATE ( 2026, 31, 7 ) ;
#247 = CARTESIAN_POINT ( 'NONE',  ( 14.00000000000000000, 0.000000000000000000, 0.000000000000000000 ) ) ;
#248 = CARTESIAN_POINT ( 'NONE',  ( 24.00000000000000000, 2.000000000000002665, 7.228416147400479552 ) ) ;
#249 = DIRECTION ( 'NONE',  ( 1.000000000000000000, 0.000000000000000000, 0.000000000000000000 ) ) ;
#250 = CARTESIAN_POINT ( 'NONE',  ( 4.000000000000000000, 0.000000000000000000, 0.000000000000000000 ) ) ;
#251 = EDGE_LOOP ( 'NONE', ( #326, #796 ) ) ;
#252 = CIRCLE ( 'NONE', #536, 4.990000000000004654 ) ;
#253 = AXIS2_PLACEMENT_3D ( 'NONE', #823, #265, #259 ) ;
#254 = LINE ( 'NONE', #513, #324 ) ;
#255 = CIRCLE ( 'NONE', #919, 7.490000000000001990 ) ;
#256 = CARTESIAN_POINT ( 'NONE',  ( 29.50000000000000000, 0.000000000000000000, 0.000000000000000000 ) ) ;
#257 = DIRECTION ( 'NONE',  ( 0.000000000000000000, 0.000000000000000000, 1.000000000000000000 ) ) ;
#258 = ORIENTED_EDGE ( 'NONE', *, *, #864, .T. ) ;
#259 = DIRECTION ( 'NONE',  ( 0.000000000000000000, 0.000000000000000000, 1.000000000000000000 ) ) ;
#260 = EDGE_CURVE ( 'NONE', #455, #135, #165, .T. ) ;
#261 = CARTESIAN_POINT ( 'NONE',  ( 30.50000000000000000, 0.000000000000000000, 0.000000000000000000 ) ) ;
#262 = CARTESIAN_POINT ( 'NONE',  ( 39.50000000000000711, 0.000000000000000000, 0.000000000000000000 ) ) ;
#263 = ORIENTED_EDGE ( 'NONE', *, *, #313, .F. ) ;
#264 = ORIENTED_EDGE ( 'NONE', *, *, #14, .F. ) ;
#265 = DIRECTION ( 'NONE',  ( -1.000000000000000000, -0.000000000000000000, -0.000000000000000000 ) ) ;
#266 = CARTESIAN_POINT ( 'NONE',  ( 4.000000000000000000, 6.110987527745294503E-16, -4.990000000000001101 ) ) ;
#267 = EDGE_CURVE ( 'NONE', #277, #269, #532, .T. ) ;
#268 = DIRECTION ( 'NONE',  ( 0.000000000000000000, 0.000000000000000000, 1.000000000000000000 ) ) ;
#269 = VERTEX_POINT ( 'NONE', #466 ) ;
#270 = ORIENTED_EDGE ( 'NONE', *, *, #151, .T. ) ;
#271 = CIRCLE ( 'NONE', #428, 7.490000000000001990 ) ;
#272 = AXIS2_PLACEMENT_3D ( 'NONE', #664, #453, #380 ) ;
#273 = AXIS2_PLACEMENT_3D ( 'NONE', #282, #619, #133 ) ;
#274 = CYLINDRICAL_SURFACE ( 'NONE', #103, 4.990000000000004654 ) ;
#275 = CYLINDRICAL_SURFACE ( 'NONE', #975, 4.990000000000000213 ) ;
#276 = ORIENTED_EDGE ( 'NONE', *, *, #1026, .T. ) ;
#277 = VERTEX_POINT ( 'NONE', #652 ) ;
#278 = APPROVAL_DATE_TIME ( #971, #861 ) ;
#279 = DIRECTION ( 'NONE',  ( 0.000000000000000000, 0.000000000000000000, 1.000000000000000000 ) ) ;
#280 = DIRECTION ( 'NONE',  ( 0.000000000000000000, 0.000000000000000000, 1.000000000000000000 ) ) ;
#281 = ORIENTED_EDGE ( 'NONE', *, *, #621, .F. ) ;
#282 = CARTESIAN_POINT ( 'NONE',  ( 0.000000000000000000, 0.000000000000000000, 0.000000000000000000 ) ) ;
#283 = CARTESIAN_POINT ( 'NONE',  ( 14.00000000000000000, 2.000000000000002665, 4.571662717217883198 ) ) ;
#284 = PRODUCT_DEFINITION_SHAPE ( 'NONE', 'NONE',  #773 ) ;
#285 = ORIENTED_EDGE ( 'NONE', *, *, #854, .F. ) ;
#286 = DIRECTION ( 'NONE',  ( 0.000000000000000000, 0.000000000000000000, 1.000000000000000000 ) ) ;
#287 = AXIS2_PLACEMENT_3D ( 'NONE', #692, #995, #613 ) ;
#288 = VECTOR ( 'NONE', #147, 1000.000000000000000 ) ;
#289 = CARTESIAN_POINT ( 'NONE',  ( 0.000000000000000000, 6.110987527745293517E-16, -4.990000000000000213 ) ) ;
#290 = AXIS2_PLACEMENT_3D ( 'NONE', #459, #783, #931 ) ;
#291 = VERTEX_POINT ( 'NONE', #705 ) ;
#292 = DIRECTION ( 'NONE',  ( -1.000000000000000000, -0.000000000000000000, -0.000000000000000000 ) ) ;
#293 = ADVANCED_FACE ( 'NONE', ( #316 ), #574, .F. ) ;
#294 = DIRECTION ( 'NONE',  ( 0.000000000000000000, 0.000000000000000000, -1.000000000000000000 ) ) ;
#295 = ORIENTED_EDGE ( 'NONE', *, *, #1021, .T. ) ;
#296 = EDGE_CURVE ( 'NONE', #643, #900, #834, .T. ) ;
#297 = DIRECTION ( 'NONE',  ( -1.000000000000000000, -0.000000000000000000, -0.000000000000000000 ) ) ;
#298 = LINE ( 'NONE', #222, #464 ) ;
#299 = APPLICATION_CONTEXT ( 'configuration controlled 3d designs of mechanical parts and assemblies' ) ;
#300 = EDGE_LOOP ( 'NONE', ( #776, #806, #306, #601 ) ) ;
#301 = LINE ( 'NONE', #1007, #126 ) ;
#302 = AXIS2_PLACEMENT_3D ( 'NONE', #15, #73, #1036 ) ;
#303 = CIRCLE ( 'NONE', #1023, 4.790000000000005365 ) ;
#304 = ORIENTED_EDGE ( 'NONE', *, *, #703, .T. ) ;
#305 = VECTOR ( 'NONE', #207, 1000.000000000000000 ) ;
#306 = ORIENTED_EDGE ( 'NONE', *, *, #726, .T. ) ;
#307 = EDGE_CURVE ( 'NONE', #561, #523, #568, .T. ) ;
#308 = CARTESIAN_POINT ( 'NONE',  ( 4.000000000000000000, 0.000000000000000000, 4.990000000000001101 ) ) ;
#309 = ADVANCED_FACE ( 'NONE', ( #59 ), #866, .T. ) ;
#310 = ORIENTED_EDGE ( 'NONE', *, *, #296, .F. ) ;
#311 = ADVANCED_FACE ( 'NONE', ( #329 ), #628, .T. ) ;
#312 = FACE_OUTER_BOUND ( 'NONE', #16, .T. ) ;
#313 = EDGE_CURVE ( 'NONE', #505, #810, #623, .T. ) ;
#314 =( NAMED_UNIT ( * ) PLANE_ANGLE_UNIT ( ) SI_UNIT ( $, .RADIAN. ) );
#315 = DIRECTION ( 'NONE',  ( 0.000000000000000000, 0.000000000000000000, 1.000000000000000000 ) ) ;
#316 = FACE_OUTER_BOUND ( 'NONE', #543, .T. ) ;
#317 = CYLINDRICAL_SURFACE ( 'NONE', #721, 4.790000000000006253 ) ;
#318 = EDGE_CURVE ( 'NONE', #351, #715, #812, .T. ) ;
#319 = CARTESIAN_POINT ( 'NONE',  ( 14.00000000000000000, -1.999999999999997335, 7.228416147400479552 ) ) ;
#320 = COORDINATED_UNIVERSAL_TIME_OFFSET ( 3, 30, .AHEAD. ) ;
#321 = AXIS2_PLACEMENT_3D ( 'NONE', #250, #162, #177 ) ;
#322 = CARTESIAN_POINT ( 'NONE',  ( 4.000000000000000000, 0.000000000000000000, -4.990000000000001101 ) ) ;
#323 = ORIENTED_EDGE ( 'NONE', *, *, #132, .T. ) ;
#324 = VECTOR ( 'NONE', #828, 1000.000000000000000 ) ;
#325 = EDGE_CURVE ( 'NONE', #455, #900, #473, .T. ) ;
#326 = ORIENTED_EDGE ( 'NONE', *, *, #686, .F. ) ;
#327 = CC_DESIGN_APPROVAL ( #583, ( #773 ) ) ;
#328 = CC_DESIGN_APPROVAL ( #58, ( #191 ) ) ;
#329 = FACE_OUTER_BOUND ( 'NONE', #836, .T. ) ;
#330 = CYLINDRICAL_SURFACE ( 'NONE', #869, 4.790000000000000924 ) ;
#331 = PERSON_AND_ORGANIZATION ( #591, #1024 ) ;
#332 = CYLINDRICAL_SURFACE ( 'NONE', #735, 4.790000000000006253 ) ;
#333 = VERTEX_POINT ( 'NONE', #862 ) ;
#334 = CARTESIAN_POINT ( 'NONE',  ( 38.50000000000000000, 0.000000000000000000, 0.000000000000000000 ) ) ;
#335 = DIRECTION ( 'NONE',  ( 0.000000000000000000, 0.000000000000000000, 1.000000000000000000 ) ) ;
#336 = EDGE_CURVE ( 'NONE', #867, #343, #141, .T. ) ;
#337 = PERSON_AND_ORGANIZATION ( #591, #1024 ) ;
#338 = FACE_OUTER_BOUND ( 'NONE', #1005, .T. ) ;
#339 = ORIENTED_EDGE ( 'NONE', *, *, #112, .T. ) ;
#340 = DIRECTION ( 'NONE',  ( 0.000000000000000000, 0.000000000000000000, -1.000000000000000000 ) ) ;
#341 = CARTESIAN_POINT ( 'NONE',  ( 3.000000000000000000, 0.000000000000000000, 4.790000000000000924 ) ) ;
#342 = CARTESIAN_POINT ( 'NONE',  ( 14.00000000000000000, 0.000000000000000000, 0.000000000000000000 ) ) ;
#343 = VERTEX_POINT ( 'NONE', #1041 ) ;
#344 = AXIS2_PLACEMENT_3D ( 'NONE', #929, #698, #23 ) ;
#345 = ADVANCED_FACE ( 'NONE', ( #729, #784 ), #239, .F. ) ;
#346 = AXIS2_PLACEMENT_3D ( 'NONE', #521, #97, #772 ) ;
#347 = FACE_OUTER_BOUND ( 'NONE', #114, .T. ) ;
#348 = CC_DESIGN_APPROVAL ( #861, ( #789 ) ) ;
#349 = CARTESIAN_POINT ( 'NONE',  ( 30.50000000000000000, 0.000000000000000000, 4.990000000000004654 ) ) ;
#350 = FACE_OUTER_BOUND ( 'NONE', #357, .T. ) ;
#351 = VERTEX_POINT ( 'NONE', #210 ) ;
#352 = ORIENTED_EDGE ( 'NONE', *, *, #902, .F. ) ;
#353 = DIRECTION ( 'NONE',  ( 0.000000000000000000, 0.000000000000000000, 1.000000000000000000 ) ) ;
#354 = EDGE_CURVE ( 'NONE', #779, #399, #720, .T. ) ;
#355 = FACE_OUTER_BOUND ( 'NONE', #981, .T. ) ;
#356 = ORIENTED_EDGE ( 'NONE', *, *, #34, .F. ) ;
#357 = EDGE_LOOP ( 'NONE', ( #911, #198, #602, #954 ) ) ;
#358 = CYLINDRICAL_SURFACE ( 'NONE', #253, 4.990000000000001101 ) ;
#359 = CARTESIAN_POINT ( 'NONE',  ( 29.50000000000000000, 0.000000000000000000, 0.000000000000000000 ) ) ;
#360 = DIRECTION ( 'NONE',  ( -1.000000000000000000, -0.000000000000000000, -0.000000000000000000 ) ) ;
#361 = ORIENTED_EDGE ( 'NONE', *, *, #551, .F. ) ;
#362 = EDGE_LOOP ( 'NONE', ( #905, #263 ) ) ;
#363 = AXIS2_PLACEMENT_3D ( 'NONE', #600, #984, #203 ) ;
#364 = CIRCLE ( 'NONE', #947, 4.990000000000000213 ) ;
#365 = AXIS2_PLACEMENT_3D ( 'NONE', #471, #297, #372 ) ;
#366 = DIRECTION ( 'NONE',  ( 0.000000000000000000, 0.000000000000000000, 1.000000000000000000 ) ) ;
#367 = DIRECTION ( 'NONE',  ( 1.000000000000000000, 0.000000000000000000, -0.000000000000000000 ) ) ;
#368 = ORIENTED_EDGE ( 'NONE', *, *, #336, .T. ) ;
#369 = FACE_BOUND ( 'NONE', #420, .T. ) ;
#370 = CARTESIAN_POINT ( 'NONE',  ( 29.50000000000000000, 5.866058167915828348E-16, -4.790000000000005365 ) ) ;
#371 = ORIENTED_EDGE ( 'NONE', *, *, #470, .F. ) ;
#372 = DIRECTION ( 'NONE',  ( 0.000000000000000000, 0.000000000000000000, 1.000000000000000000 ) ) ;
#373 = ADVANCED_FACE ( 'NONE', ( #1032 ), #47, .T. ) ;
#374 = DIRECTION ( 'NONE',  ( 1.000000000000000000, -0.000000000000000000, -0.000000000000000000 ) ) ;
#375 = VERTEX_POINT ( 'NONE', #138 ) ;
#376 = EDGE_CURVE ( 'NONE', #482, #269, #364, .T. ) ;
#377 = DIRECTION ( 'NONE',  ( 0.000000000000000000, 0.000000000000000000, 1.000000000000000000 ) ) ;
#378 = AXIS2_PLACEMENT_3D ( 'NONE', #711, #941, #218 ) ;
#379 = AXIS2_PLACEMENT_3D ( 'NONE', #359, #433, #122 ) ;
#380 = DIRECTION ( 'NONE',  ( -0.000000000000000000, 0.000000000000000000, 1.000000000000000000 ) ) ;
#381 = AXIS2_PLACEMENT_3D ( 'NONE', #1012, #292, #631 ) ;
#382 = ORIENTED_EDGE ( 'NONE', *, *, #400, .T. ) ;
#383 = EDGE_CURVE ( 'NONE', #219, #505, #298, .T. ) ;
#384 = FACE_OUTER_BOUND ( 'NONE', #798, .T. ) ;
#385 = CARTESIAN_POINT ( 'NONE',  ( 0.000000000000000000, 0.000000000000000000, 0.000000000000000000 ) ) ;
#386 = ORIENTED_EDGE ( 'NONE', *, *, #811, .T. ) ;
#387 = CARTESIAN_POINT ( 'NONE',  ( 14.00000000000000000, 2.000000000000002665, 7.228416147400479552 ) ) ;
#388 = EDGE_LOOP ( 'NONE', ( #29, #264 ) ) ;
#389 = ADVANCED_FACE ( 'NONE', ( #635 ), #795, .F. ) ;
#390 = DIRECTION ( 'NONE',  ( -1.000000000000000000, -0.000000000000000000, -0.000000000000000000 ) ) ;
#391 = VECTOR ( 'NONE', #904, 1000.000000000000000 ) ;
#392 = VECTOR ( 'NONE', #944, 1000.000000000000000 ) ;
#393 = ORIENTED_EDGE ( 'NONE', *, *, #1028, .F. ) ;
#394 = AXIS2_PLACEMENT_3D ( 'NONE', #820, #743, #249 ) ;
#395 = EDGE_LOOP ( 'NONE', ( #393, #476 ) ) ;
#396 = DIRECTION ( 'NONE',  ( 0.000000000000000000, 0.000000000000000000, 1.000000000000000000 ) ) ;
#397 = DIRECTION ( 'NONE',  ( 0.000000000000000000, 0.000000000000000000, 1.000000000000000000 ) ) ;
#398 = FACE_OUTER_BOUND ( 'NONE', #693, .T. ) ;
#399 = VERTEX_POINT ( 'NONE', #174 ) ;
#400 = EDGE_CURVE ( 'NONE', #10, #722, #640, .T. ) ;
#401 = CARTESIAN_POINT ( 'NONE',  ( 4.000000000000000000, 0.000000000000000000, 0.000000000000000000 ) ) ;
#402 = CARTESIAN_POINT ( 'NONE',  ( 0.000000000000000000, 0.000000000000000000, 4.990000000000002878 ) ) ;
#403 = DIRECTION ( 'NONE',  ( -1.000000000000000000, -0.000000000000000000, -0.000000000000000000 ) ) ;
#404 = PLANE ( 'NONE',  #302 ) ;
#405 = VERTEX_POINT ( 'NONE', #25 ) ;
#406 = VERTEX_POINT ( 'NONE', #416 ) ;
#407 = CARTESIAN_POINT ( 'NONE',  ( 0.000000000000000000, 0.000000000000000000, 0.000000000000000000 ) ) ;
#408 = CIRCLE ( 'NONE', #344, 4.990000000000004654 ) ;
#409 = CARTESIAN_POINT ( 'NONE',  ( 24.00000000000000000, 0.000000000000000000, 0.000000000000000000 ) ) ;
#410 = CIRCLE ( 'NONE', #960, 4.990000000000003766 ) ;
#411 = CIRCLE ( 'NONE', #961, 4.990000000000001101 ) ;
#412 = LINE ( 'NONE', #30, #570 ) ;
#413 = DIRECTION ( 'NONE',  ( -1.000000000000000000, -0.000000000000000000, -0.000000000000000000 ) ) ;
#414 = CALENDAR_DATE ( 2026, 31, 7 ) ;
#415 = DIRECTION ( 'NONE',  ( 0.000000000000000000, 0.000000000000000000, 1.000000000000000000 ) ) ;
#416 = CARTESIAN_POINT ( 'NONE',  ( 14.00000000000000000, -1.999999999999997335, -7.218039900139096687 ) ) ;
#417 = DIRECTION ( 'NONE',  ( -1.000000000000000000, -0.000000000000000000, -0.000000000000000000 ) ) ;
#418 = PLANE ( 'NONE',  #755 ) ;
#419 = EDGE_CURVE ( 'NONE', #343, #406, #412, .T. ) ;
#420 = EDGE_LOOP ( 'NONE', ( #45, #660 ) ) ;
#421 = ORIENTED_EDGE ( 'NONE', *, *, #663, .F. ) ;
#422 = DIRECTION ( 'NONE',  ( 0.000000000000000000, 0.000000000000000000, 1.000000000000000000 ) ) ;
#423 = DIRECTION ( 'NONE',  ( 1.000000000000000000, 0.000000000000000000, 0.000000000000000000 ) ) ;
#424 = CALENDAR_DATE ( 2026, 31, 7 ) ;
#425 = LINE ( 'NONE', #125, #694 ) ;
#426 = ORIENTED_EDGE ( 'NONE', *, *, #204, .F. ) ;
#427 = ADVANCED_FACE ( 'NONE', ( #816 ), #358, .T. ) ;
#428 = AXIS2_PLACEMENT_3D ( 'NONE', #247, #1031, #257 ) ;
#429 = AXIS2_PLACEMENT_3D ( 'NONE', #334, #96, #422 ) ;
#430 = CARTESIAN_POINT ( 'NONE',  ( 39.50000000000000000, 0.000000000000000000, 0.000000000000000000 ) ) ;
#431 = AXIS2_PLACEMENT_3D ( 'NONE', #484, #807, #74 ) ;
#432 = EDGE_CURVE ( 'NONE', #810, #467, #969, .T. ) ;
#433 = DIRECTION ( 'NONE',  ( -1.000000000000000000, -0.000000000000000000, -0.000000000000000000 ) ) ;
#434 = CARTESIAN_POINT ( 'NONE',  ( 26.00000000000000355, 0.000000000000000000, 0.000000000000000000 ) ) ;
#435 = ORIENTED_EDGE ( 'NONE', *, *, #34, .T. ) ;
#436 = VERTEX_POINT ( 'NONE', #891 ) ;
#437 = DIRECTION ( 'NONE',  ( 0.000000000000000000, 0.000000000000000000, -1.000000000000000000 ) ) ;
#438 = DIRECTION ( 'NONE',  ( -1.000000000000000000, -0.000000000000000000, -0.000000000000000000 ) ) ;
#439 = FACE_OUTER_BOUND ( 'NONE', #300, .T. ) ;
#440 = VERTEX_POINT ( 'NONE', #592 ) ;
#441 = ORIENTED_EDGE ( 'NONE', *, *, #647, .F. ) ;
#442 = CARTESIAN_POINT ( 'NONE',  ( 0.000000000000000000, -1.999999999999997335, 7.218039900139097576 ) ) ;
#443 = CARTESIAN_POINT ( 'NONE',  ( 14.00000000000000000, 0.000000000000000000, 0.000000000000000000 ) ) ;
#444 = ORIENTED_EDGE ( 'NONE', *, *, #817, .F. ) ;
#445 = EDGE_LOOP ( 'NONE', ( #235, #615 ) ) ;
#446 = AXIS2_PLACEMENT_3D ( 'NONE', #342, #805, #968 ) ;
#447 = VECTOR ( 'NONE', #167, 1000.000000000000000 ) ;
#448 = DATE_AND_TIME ( #414, #978 ) ;
#449 = AXIS2_PLACEMENT_3D ( 'NONE', #877, #884, #229 ) ;
#450 = DIRECTION ( 'NONE',  ( 0.000000000000000000, 0.000000000000000000, 1.000000000000000000 ) ) ;
#451 = DIRECTION ( 'NONE',  ( -1.000000000000000000, -0.000000000000000000, -0.000000000000000000 ) ) ;
#452 = ORIENTED_EDGE ( 'NONE', *, *, #540, .F. ) ;
#453 = DIRECTION ( 'NONE',  ( -1.000000000000000000, 0.000000000000000000, -0.000000000000000000 ) ) ;
#454 = CC_DESIGN_PERSON_AND_ORGANIZATION_ASSIGNMENT ( #892, #508, ( #789 ) ) ;
#455 = VERTEX_POINT ( 'NONE', #747 ) ;
#456 = VERTEX_POINT ( 'NONE', #163 ) ;
#457 = ADVANCED_FACE ( 'NONE', ( #907 ), #914, .F. ) ;
#458 = ADVANCED_BREP_SHAPE_REPRESENTATION ( 'Link2BackShaft_Default_sldprt', ( #501, #394 ), #572 ) ;
#459 = CARTESIAN_POINT ( 'NONE',  ( 14.00000000000000000, 0.000000000000000000, 0.000000000000000000 ) ) ;
#460 = DIRECTION ( 'NONE',  ( 0.000000000000000000, 0.000000000000000000, -1.000000000000000000 ) ) ;
#461 = ORIENTED_EDGE ( 'NONE', *, *, #204, .T. ) ;
#462 = AXIS2_PLACEMENT_3D ( 'NONE', #756, #527, #932 ) ;
#463 = DIRECTION ( 'NONE',  ( -1.000000000000000000, -0.000000000000000000, -0.000000000000000000 ) ) ;
#464 = VECTOR ( 'NONE', #129, 1000.000000000000000 ) ;
#465 = AXIS2_PLACEMENT_3D ( 'NONE', #150, #665, #13 ) ;
#466 = CARTESIAN_POINT ( 'NONE',  ( 1.224646799147250347E-18, 6.110987527745293517E-16, -4.990000000000000213 ) ) ;
#467 = VERTEX_POINT ( 'NONE', #18 ) ;
#468 = EDGE_LOOP ( 'NONE', ( #872, #285 ) ) ;
#469 = EDGE_CURVE ( 'NONE', #436, #375, #497, .T. ) ;
#470 = EDGE_CURVE ( 'NONE', #6, #943, #499, .T. ) ;
#471 = CARTESIAN_POINT ( 'NONE',  ( 26.00000000000000355, 0.000000000000000000, 0.000000000000000000 ) ) ;
#472 = APPLICATION_CONTEXT ( 'configuration controlled 3d designs of mechanical parts and assemblies' ) ;
#473 = LINE ( 'NONE', #958, #624 ) ;
#474 = VERTEX_POINT ( 'NONE', #185 ) ;
#475 = CARTESIAN_POINT ( 'NONE',  ( 26.00000000000000000, 0.000000000000000000, 0.000000000000000000 ) ) ;
#476 = ORIENTED_EDGE ( 'NONE', *, *, #804, .F. ) ;
#477 = ADVANCED_FACE ( 'NONE', ( #347 ), #244, .T. ) ;
#478 = CARTESIAN_POINT ( 'NONE',  ( 38.50000000000000000, 0.000000000000000000, 0.000000000000000000 ) ) ;
#479 = CIRCLE ( 'NONE', #518, 7.490000000000002878 ) ;
#480 =( LENGTH_UNIT ( ) NAMED_UNIT ( * ) SI_UNIT ( .MILLI., .METRE. ) );
#481 = AXIS2_PLACEMENT_3D ( 'NONE', #217, #62, #286 ) ;
#482 = VERTEX_POINT ( 'NONE', #680 ) ;
#483 = CIRCLE ( 'NONE', #709, 7.490000000000001990 ) ;
#484 = CARTESIAN_POINT ( 'NONE',  ( 26.00000000000000355, 0.000000000000000000, -4.990000000000003766 ) ) ;
#485 = CARTESIAN_POINT ( 'NONE',  ( 14.00000000000000000, 0.000000000000000000, 0.000000000000000000 ) ) ;
#486 = CARTESIAN_POINT ( 'NONE',  ( 0.000000000000000000, 0.000000000000000000, 0.000000000000000000 ) ) ;
#487 = ORIENTED_EDGE ( 'NONE', *, *, #742, .T. ) ;
#488 = DIRECTION ( 'NONE',  ( 0.000000000000000000, 0.000000000000000000, 1.000000000000000000 ) ) ;
#489 = EDGE_CURVE ( 'NONE', #765, #277, #656, .T. ) ;
#490 =( NAMED_UNIT ( * ) SI_UNIT ( $, .STERADIAN. ) SOLID_ANGLE_UNIT ( ) );
#491 = CALENDAR_DATE ( 2026, 31, 7 ) ;
#492 = PLANE ( 'NONE',  #186 ) ;
#493 = EDGE_CURVE ( 'NONE', #722, #523, #254, .T. ) ;
#494 = CARTESIAN_POINT ( 'NONE',  ( 30.50000000000000000, 6.110987527745298447E-16, -4.990000000000004654 ) ) ;
#495 = CIRCLE ( 'NONE', #287, 4.790000000000000924 ) ;
#496 = FACE_OUTER_BOUND ( 'NONE', #362, .T. ) ;
#497 = CIRCLE ( 'NONE', #20, 4.790000000000006253 ) ;
#498 = VECTOR ( 'NONE', #808, 1000.000000000000000 ) ;
#499 = LINE ( 'NONE', #673, #447 ) ;
#500 = DIRECTION ( 'NONE',  ( 0.000000000000000000, 0.000000000000000000, -1.000000000000000000 ) ) ;
#501 = MANIFOLD_SOLID_BREP ( 'Cut-Extrude8', #754 ) ;
#502 = PERSON_AND_ORGANIZATION_ROLE ( 'design_supplier' ) ;
#503 = CARTESIAN_POINT ( 'NONE',  ( 0.000000000000000000, 5.866058167915823418E-16, -4.790000000000000924 ) ) ;
#504 = EDGE_LOOP ( 'NONE', ( #295, #980 ) ) ;
#505 = VERTEX_POINT ( 'NONE', #179 ) ;
#506 = LINE ( 'NONE', #101, #154 ) ;
#507 = FACE_OUTER_BOUND ( 'NONE', #930, .T. ) ;
#508 = PERSON_AND_ORGANIZATION_ROLE ( 'classification_officer' ) ;
#509 = CARTESIAN_POINT ( 'NONE',  ( 0.000000000000000000, 0.000000000000000000, 0.000000000000000000 ) ) ;
#510 = ORIENTED_EDGE ( 'NONE', *, *, #724, .F. ) ;
#511 = EDGE_LOOP ( 'NONE', ( #304, #894 ) ) ;
#512 = EDGE_CURVE ( 'NONE', #456, #243, #832, .T. ) ;
#513 = CARTESIAN_POINT ( 'NONE',  ( 0.000000000000000000, 6.110987527745298447E-16, -4.990000000000004654 ) ) ;
#514 = DIRECTION ( 'NONE',  ( -1.000000000000000000, -0.000000000000000000, -0.000000000000000000 ) ) ;
#515 = CARTESIAN_POINT ( 'NONE',  ( 14.00000000000000000, 0.000000000000000000, 0.000000000000000000 ) ) ;
#516 = EDGE_LOOP ( 'NONE', ( #224, #93, #42, #426 ) ) ;
#517 = ORIENTED_EDGE ( 'NONE', *, *, #318, .F. ) ;
#518 = AXIS2_PLACEMENT_3D ( 'NONE', #434, #451, #682 ) ;
#519 = DIRECTION ( 'NONE',  ( -0.000000000000000000, 0.000000000000000000, 1.000000000000000000 ) ) ;
#520 = AXIS2_PLACEMENT_3D ( 'NONE', #575, #157, #669 ) ;
#521 = CARTESIAN_POINT ( 'NONE',  ( 0.000000000000000000, 0.000000000000000000, 0.000000000000000000 ) ) ;
#522 = DIRECTION ( 'NONE',  ( -1.000000000000000000, -0.000000000000000000, -0.000000000000000000 ) ) ;
#523 = VERTEX_POINT ( 'NONE', #494 ) ;
#524 = ORIENTED_EDGE ( 'NONE', *, *, #788, .T. ) ;
#525 = EDGE_CURVE ( 'NONE', #505, #810, #741, .T. ) ;
#526 = CARTESIAN_POINT ( 'NONE',  ( 4.000000000000000000, 0.000000000000000000, 0.000000000000000000 ) ) ;
#527 = DIRECTION ( 'NONE',  ( -1.000000000000000000, -0.000000000000000000, -0.000000000000000000 ) ) ;
#528 = ORIENTED_EDGE ( 'NONE', *, *, #909, .F. ) ;
#529 = ORIENTED_EDGE ( 'NONE', *, *, #419, .T. ) ;
#530 = APPROVAL_DATE_TIME ( #448, #583 ) ;
#531 = FACE_BOUND ( 'NONE', #194, .T. ) ;
#532 = LINE ( 'NONE', #289, #1009 ) ;
#533 = EDGE_LOOP ( 'NONE', ( #695, #964 ) ) ;
#534 = ORIENTED_EDGE ( 'NONE', *, *, #336, .F. ) ;
#535 = UNCERTAINTY_MEASURE_WITH_UNIT (LENGTH_MEASURE( 1.000000000000000082E-05 ), #480, 'distance_accuracy_value', 'NONE');
#536 = AXIS2_PLACEMENT_3D ( 'NONE', #262, #360, #181 ) ;
#537 = VECTOR ( 'NONE', #584, 1000.000000000000000 ) ;
#538 = LOCAL_TIME ( 13, 48, 55.00000000000000000, #201 ) ;
#539 = PLANE ( 'NONE',  #238 ) ;
#540 = EDGE_CURVE ( 'NONE', #998, #925, #506, .T. ) ;
#541 = DIRECTION ( 'NONE',  ( -1.000000000000000000, -0.000000000000000000, -0.000000000000000000 ) ) ;
#542 = ORIENTED_EDGE ( 'NONE', *, *, #383, .F. ) ;
#543 = EDGE_LOOP ( 'NONE', ( #528, #1015, #524, #100, #622, #534 ) ) ;
#544 = DIRECTION ( 'NONE',  ( -0.000000000000000000, 1.000000000000000000, 0.000000000000000000 ) ) ;
#545 = DIRECTION ( 'NONE',  ( 0.000000000000000000, 0.000000000000000000, 1.000000000000000000 ) ) ;
#546 = EDGE_CURVE ( 'NONE', #564, #918, #303, .T. ) ;
#547 = ORIENTED_EDGE ( 'NONE', *, *, #1028, .T. ) ;
#548 = CARTESIAN_POINT ( 'NONE',  ( 54.00000000000000000, 6.110987527745300420E-16, -4.990000000000006430 ) ) ;
#549 = DIRECTION ( 'NONE',  ( 0.000000000000000000, 0.000000000000000000, 1.000000000000000000 ) ) ;
#550 = ORIENTED_EDGE ( 'NONE', *, *, #227, .F. ) ;
#551 = EDGE_CURVE ( 'NONE', #918, #564, #223, .T. ) ;
#552 = CC_DESIGN_PERSON_AND_ORGANIZATION_ASSIGNMENT ( #337, #161, ( #191 ) ) ;
#553 = CARTESIAN_POINT ( 'NONE',  ( 3.000000000000000000, 5.866058167915823418E-16, -4.790000000000000924 ) ) ;
#554 = CIRCLE ( 'NONE', #678, 4.790000000000006253 ) ;
#555 = CIRCLE ( 'NONE', #738, 4.790000000000005365 ) ;
#556 = DIRECTION ( 'NONE',  ( 1.000000000000000000, 0.000000000000000000, 0.000000000000000000 ) ) ;
#557 = PRODUCT ( 'Link2BackShaft_Default_sldprt', 'Link2BackShaft_Default_sldprt', '', ( #245 ) ) ;
#558 = ORIENTED_EDGE ( 'NONE', *, *, #525, .F. ) ;
#559 = EDGE_CURVE ( 'NONE', #351, #474, #837, .T. ) ;
#560 = DIRECTION ( 'NONE',  ( -1.000000000000000000, -0.000000000000000000, -0.000000000000000000 ) ) ;
#561 = VERTEX_POINT ( 'NONE', #349 ) ;
#562 = VERTEX_POINT ( 'NONE', #681 ) ;
#563 = FACE_OUTER_BOUND ( 'NONE', #690, .T. ) ;
#564 = VERTEX_POINT ( 'NONE', #687 ) ;
#565 = ORIENTED_EDGE ( 'NONE', *, *, #237, .F. ) ;
#566 = DIRECTION ( 'NONE',  ( 0.000000000000000000, 0.000000000000000000, 1.000000000000000000 ) ) ;
#567 = PRODUCT_RELATED_PRODUCT_CATEGORY ( 'detail', '', ( #557 ) ) ;
#568 = CIRCLE ( 'NONE', #933, 4.990000000000004654 ) ;
#569 = CARTESIAN_POINT ( 'NONE',  ( 14.00000000000000000, 0.000000000000000000, 7.490000000000001990 ) ) ;
#570 = VECTOR ( 'NONE', #598, 1000.000000000000000 ) ;
#571 = CARTESIAN_POINT ( 'NONE',  ( 0.000000000000000000, 5.866058167915829334E-16, -4.790000000000006253 ) ) ;
#572 =( GEOMETRIC_REPRESENTATION_CONTEXT ( 3 ) GLOBAL_UNCERTAINTY_ASSIGNED_CONTEXT ( ( #535 ) ) GLOBAL_UNIT_ASSIGNED_CONTEXT ( ( #480, #314, #490 ) ) REPRESENTATION_CONTEXT ( 'NONE', 'WORKASPACE' ) );
#573 = ORIENTED_EDGE ( 'NONE', *, *, #512, .F. ) ;
#574 = PLANE ( 'NONE',  #675 ) ;
#575 = CARTESIAN_POINT ( 'NONE',  ( 14.00000000000000000, 0.000000000000000000, -7.490000000000001990 ) ) ;
#576 = APPROVAL_ROLE ( '' ) ;
#577 = FACE_OUTER_BOUND ( 'NONE', #511, .T. ) ;
#578 = ORIENTED_EDGE ( 'NONE', *, *, #811, .F. ) ;
#579 = DIRECTION ( 'NONE',  ( 1.000000000000000000, 0.000000000000000000, 0.000000000000000000 ) ) ;
#580 = LINE ( 'NONE', #657, #143 ) ;
#581 = PERSON_AND_ORGANIZATION ( #591, #1024 ) ;
#582 = FACE_OUTER_BOUND ( 'NONE', #630, .T. ) ;
#583 = APPROVAL ( #749, 'UNSPECIFIED' ) ;
#584 = DIRECTION ( 'NONE',  ( -0.000000000000000000, -0.000000000000000000, 1.000000000000000000 ) ) ;
#585 = FACE_OUTER_BOUND ( 'NONE', #859, .T. ) ;
#586 = AXIS2_PLACEMENT_3D ( 'NONE', #701, #1004, #268 ) ;
#587 = CYLINDRICAL_SURFACE ( 'NONE', #957, 4.790000000000006253 ) ;
#588 = ORIENTED_EDGE ( 'NONE', *, *, #726, .F. ) ;
#589 = AXIS2_PLACEMENT_3D ( 'NONE', #604, #438, #366 ) ;
#590 = CIRCLE ( 'NONE', #381, 4.990000000000004654 ) ;
#591 = PERSON ( 'UNSPECIFIED', 'UNSPECIFIED', 'UNSPECIFIED', ('UNSPECIFIED'), ('UNSPECIFIED'), ('UNSPECIFIED') ) ;
#592 = CARTESIAN_POINT ( 'NONE',  ( 26.00000000000000355, 9.172604525613680109E-16, -7.490000000000003766 ) ) ;
#593 = DIRECTION ( 'NONE',  ( 0.000000000000000000, 0.000000000000000000, 1.000000000000000000 ) ) ;
#594 = DATE_TIME_ROLE ( 'classification_date' ) ;
#595 = PLANE ( 'NONE',  #786 ) ;
#596 = ADVANCED_FACE ( 'NONE', ( #928 ), #903, .T. ) ;
#597 = ORIENTED_EDGE ( 'NONE', *, *, #469, .F. ) ;
#598 = DIRECTION ( 'NONE',  ( 0.000000000000000000, 0.000000000000000000, -1.000000000000000000 ) ) ;
#599 = DIRECTION ( 'NONE',  ( 1.000000000000000000, 0.000000000000000000, 0.000000000000000000 ) ) ;
#600 = CARTESIAN_POINT ( 'NONE',  ( 0.000000000000000000, 0.000000000000000000, 0.000000000000000000 ) ) ;
#601 = ORIENTED_EDGE ( 'NONE', *, *, #187, .F. ) ;
#602 = ORIENTED_EDGE ( 'NONE', *, *, #376, .F. ) ;
#603 = DIRECTION ( 'NONE',  ( -1.000000000000000000, -0.000000000000000000, -0.000000000000000000 ) ) ;
#604 = CARTESIAN_POINT ( 'NONE',  ( 30.50000000000000000, 0.000000000000000000, 0.000000000000000000 ) ) ;
#605 = DIRECTION ( 'NONE',  ( 0.000000000000000000, 0.000000000000000000, 1.000000000000000000 ) ) ;
#606 = EDGE_CURVE ( 'NONE', #779, #878, #616, .T. ) ;
#607 = ORIENTED_EDGE ( 'NONE', *, *, #102, .F. ) ;
#608 = AXIS2_PLACEMENT_3D ( 'NONE', #486, #822, #650 ) ;
#609 = ORIENTED_EDGE ( 'NONE', *, *, #902, .T. ) ;
#610 = CIRCLE ( 'NONE', #166, 4.990000000000001101 ) ;
#611 = CIRCLE ( 'NONE', #290, 7.490000000000001990 ) ;
#612 = LINE ( 'NONE', #111, #736 ) ;
#613 = DIRECTION ( 'NONE',  ( 0.000000000000000000, 0.000000000000000000, 1.000000000000000000 ) ) ;
#614 = ORIENTED_EDGE ( 'NONE', *, *, #267, .F. ) ;
#615 = ORIENTED_EDGE ( 'NONE', *, *, #182, .F. ) ;
#616 = LINE ( 'NONE', #37, #896 ) ;
#617 = CYLINDRICAL_SURFACE ( 'NONE', #586, 4.990000000000000213 ) ;
#618 = ORIENTED_EDGE ( 'NONE', *, *, #232, .F. ) ;
#619 = DIRECTION ( 'NONE',  ( -1.000000000000000000, -0.000000000000000000, -0.000000000000000000 ) ) ;
#620 = CYLINDRICAL_SURFACE ( 'NONE', #462, 4.790000000000000924 ) ;
#621 = EDGE_CURVE ( 'NONE', #702, #562, #554, .T. ) ;
#622 = ORIENTED_EDGE ( 'NONE', *, *, #419, .F. ) ;
#623 = CIRCLE ( 'NONE', #53, 7.490000000000001990 ) ;
#624 = VECTOR ( 'NONE', #938, 1000.000000000000000 ) ;
#625 = ADVANCED_FACE ( 'NONE', ( #829 ), #274, .T. ) ;
#626 = CIRCLE ( 'NONE', #365, 7.490000000000002878 ) ;
#627 = DIRECTION ( 'NONE',  ( 0.000000000000000000, 0.000000000000000000, 1.000000000000000000 ) ) ;
#628 = CYLINDRICAL_SURFACE ( 'NONE', #880, 4.990000000000005542 ) ;
#629 = EDGE_CURVE ( 'NONE', #562, #702, #819, .T. ) ;
#630 = EDGE_LOOP ( 'NONE', ( #356, #999, #712, #991 ) ) ;
#631 = DIRECTION ( 'NONE',  ( 0.000000000000000000, 0.000000000000000000, 1.000000000000000000 ) ) ;
#632 = DIRECTION ( 'NONE',  ( -1.000000000000000000, -0.000000000000000000, -0.000000000000000000 ) ) ;
#633 = ORIENTED_EDGE ( 'NONE', *, *, #996, .F. ) ;
#634 = DIRECTION ( 'NONE',  ( -1.000000000000000000, 0.000000000000000000, 0.000000000000000000 ) ) ;
#635 = FACE_OUTER_BOUND ( 'NONE', #844, .T. ) ;
#636 = ORIENTED_EDGE ( 'NONE', *, *, #942, .F. ) ;
#637 = VECTOR ( 'NONE', #242, 1000.000000000000000 ) ;
#638 = ADVANCED_FACE ( 'NONE', ( #753, #988 ), #908, .F. ) ;
#639 = DIRECTION ( 'NONE',  ( -0.000000000000000000, -0.000000000000000000, 1.000000000000000000 ) ) ;
#640 = CIRCLE ( 'NONE', #429, 4.990000000000004654 ) ;
#641 = CIRCLE ( 'NONE', #449, 4.990000000000003766 ) ;
#642 = ORIENTED_EDGE ( 'NONE', *, *, #151, .F. ) ;
#643 = VERTEX_POINT ( 'NONE', #266 ) ;
#644 = DIRECTION ( 'NONE',  ( -1.000000000000000000, -0.000000000000000000, -0.000000000000000000 ) ) ;
#645 = ORIENTED_EDGE ( 'NONE', *, *, #220, .F. ) ;
#646 = ORIENTED_EDGE ( 'NONE', *, *, #112, .F. ) ;
#647 = EDGE_CURVE ( 'NONE', #998, #456, #983, .T. ) ;
#648 = CARTESIAN_POINT ( 'NONE',  ( 14.00000000000000000, 0.000000000000000000, 0.000000000000000000 ) ) ;
#649 = DIRECTION ( 'NONE',  ( -1.000000000000000000, -0.000000000000000000, -0.000000000000000000 ) ) ;
#650 = DIRECTION ( 'NONE',  ( 0.000000000000000000, 0.000000000000000000, 1.000000000000000000 ) ) ;
#651 = ADVANCED_FACE ( 'NONE', ( #691, #507 ), #190, .F. ) ;
#652 = CARTESIAN_POINT ( 'NONE',  ( 3.000000000000000000, 6.110987527745293517E-16, -4.990000000000000213 ) ) ;
#653 = CARTESIAN_POINT ( 'NONE',  ( 39.50000000000000000, 0.000000000000000000, 4.790000000000005365 ) ) ;
#654 = CIRCLE ( 'NONE', #707, 4.790000000000001812 ) ;
#655 = ADVANCED_FACE ( 'NONE', ( #202, #531 ), #104, .F. ) ;
#656 = CIRCLE ( 'NONE', #882, 4.990000000000000213 ) ;
#657 = CARTESIAN_POINT ( 'NONE',  ( 0.000000000000000000, 9.172604525613678137E-16, -7.490000000000001990 ) ) ;
#658 = AXIS2_PLACEMENT_3D ( 'NONE', #63, #145, #734 ) ;
#659 = APPROVAL_STATUS ( 'not_yet_approved' ) ;
#660 = ORIENTED_EDGE ( 'NONE', *, *, #724, .T. ) ;
#661 = VECTOR ( 'NONE', #390, 1000.000000000000000 ) ;
#662 = ORIENTED_EDGE ( 'NONE', *, *, #906, .T. ) ;
#663 = EDGE_CURVE ( 'NONE', #918, #436, #612, .T. ) ;
#664 = CARTESIAN_POINT ( 'NONE',  ( 29.50000000000000000, 0.000000000000000000, -4.790000000000005365 ) ) ;
#665 = DIRECTION ( 'NONE',  ( -1.000000000000000000, -0.000000000000000000, -0.000000000000000000 ) ) ;
#666 = DIRECTION ( 'NONE',  ( -1.000000000000000000, -0.000000000000000000, -0.000000000000000000 ) ) ;
#667 = CC_DESIGN_DATE_AND_TIME_ASSIGNMENT ( #91, #594, ( #789 ) ) ;
#668 = CARTESIAN_POINT ( 'NONE',  ( 6.123233995736251736E-19, 0.000000000000000000, -4.990000000000000213 ) ) ;
#669 = DIRECTION ( 'NONE',  ( 0.000000000000000000, 0.000000000000000000, -1.000000000000000000 ) ) ;
#670 = PERSON_AND_ORGANIZATION ( #591, #1024 ) ;
#671 = LINE ( 'NONE', #503, #391 ) ;
#672 = ORIENTED_EDGE ( 'NONE', *, *, #546, .F. ) ;
#673 = CARTESIAN_POINT ( 'NONE',  ( 0.000000000000000000, 0.000000000000000000, 4.790000000000000924 ) ) ;
#674 = CARTESIAN_POINT ( 'NONE',  ( 26.00000000000000000, 6.110987527745297461E-16, -4.990000000000003766 ) ) ;
#675 = AXIS2_PLACEMENT_3D ( 'NONE', #858, #556, #294 ) ;
#676 = DIRECTION ( 'NONE',  ( -1.000000000000000000, -0.000000000000000000, -0.000000000000000000 ) ) ;
#677 = ORIENTED_EDGE ( 'NONE', *, *, #470, .T. ) ;
#678 = AXIS2_PLACEMENT_3D ( 'NONE', #261, #116, #26 ) ;
#679 = APPROVAL_PERSON_ORGANIZATION ( #98, #861, #824 ) ;
#680 = CARTESIAN_POINT ( 'NONE',  ( 1.224646799147250347E-18, 0.000000000000000000, 4.990000000000000213 ) ) ;
#681 = CARTESIAN_POINT ( 'NONE',  ( 30.50000000000000000, 5.866058167915829334E-16, -4.790000000000006253 ) ) ;
#682 = DIRECTION ( 'NONE',  ( 0.000000000000000000, 0.000000000000000000, 1.000000000000000000 ) ) ;
#683 = VERTEX_POINT ( 'NONE', #777 ) ;
#684 = ORIENTED_EDGE ( 'NONE', *, *, #815, .F. ) ;
#685 = CARTESIAN_POINT ( 'NONE',  ( 39.50000000000000000, 0.000000000000000000, 0.000000000000000000 ) ) ;
#686 = EDGE_CURVE ( 'NONE', #474, #351, #39, .T. ) ;
#687 = CARTESIAN_POINT ( 'NONE',  ( 39.50000000000000000, 5.866058167915828348E-16, -4.790000000000005365 ) ) ;
#688 = CARTESIAN_POINT ( 'NONE',  ( 54.00000000000000000, 0.000000000000000000, 0.000000000000000000 ) ) ;
#689 = EDGE_LOOP ( 'NONE', ( #270, #934, #771, #706 ) ) ;
#690 = EDGE_LOOP ( 'NONE', ( #216, #142, #973, #213 ) ) ;
#691 = FACE_BOUND ( 'NONE', #172, .T. ) ;
#692 = CARTESIAN_POINT ( 'NONE',  ( 3.000000000000000000, 0.000000000000000000, 0.000000000000000000 ) ) ;
#693 = EDGE_LOOP ( 'NONE', ( #939, #435, #597, #421 ) ) ;
#694 = VECTOR ( 'NONE', #522, 1000.000000000000000 ) ;
#695 = ORIENTED_EDGE ( 'NONE', *, *, #307, .T. ) ;
#696 = VECTOR ( 'NONE', #500, 1000.000000000000000 ) ;
#697 = DIRECTION ( 'NONE',  ( 0.000000000000000000, 0.000000000000000000, -1.000000000000000000 ) ) ;
#698 = DIRECTION ( 'NONE',  ( -1.000000000000000000, -0.000000000000000000, -0.000000000000000000 ) ) ;
#699 = ORIENTED_EDGE ( 'NONE', *, *, #469, .T. ) ;
#700 = DIRECTION ( 'NONE',  ( -0.000000000000000000, 0.000000000000000000, 1.000000000000000000 ) ) ;
#701 = CARTESIAN_POINT ( 'NONE',  ( 0.000000000000000000, 0.000000000000000000, 0.000000000000000000 ) ) ;
#702 = VERTEX_POINT ( 'NONE', #992 ) ;
#703 = EDGE_CURVE ( 'NONE', #900, #643, #610, .T. ) ;
#704 = CARTESIAN_POINT ( 'NONE',  ( 24.00000000000000000, 0.000000000000000000, 0.000000000000000000 ) ) ;
#705 = CARTESIAN_POINT ( 'NONE',  ( 4.000000000000000000, 5.866058167915824404E-16, -4.790000000000001812 ) ) ;
#706 = ORIENTED_EDGE ( 'NONE', *, *, #132, .F. ) ;
#707 = AXIS2_PLACEMENT_3D ( 'NONE', #89, #889, #5 ) ;
#708 = AXIS2_PLACEMENT_3D ( 'NONE', #865, #1003, #700 ) ;
#709 = AXIS2_PLACEMENT_3D ( 'NONE', #648, #1033, #955 ) ;
#710 = DIRECTION ( 'NONE',  ( -1.000000000000000000, -0.000000000000000000, -0.000000000000000000 ) ) ;
#711 = CARTESIAN_POINT ( 'NONE',  ( 0.000000000000000000, 0.000000000000000000, 0.000000000000000000 ) ) ;
#712 = ORIENTED_EDGE ( 'NONE', *, *, #663, .T. ) ;
#713 = CARTESIAN_POINT ( 'NONE',  ( 3.000000000000000000, 0.000000000000000000, 4.990000000000000213 ) ) ;
#714 = CARTESIAN_POINT ( 'NONE',  ( 1.224646799147250347E-18, 0.000000000000000000, 0.000000000000000000 ) ) ;
#715 = VERTEX_POINT ( 'NONE', #674 ) ;
#716 = FACE_OUTER_BOUND ( 'NONE', #64, .T. ) ;
#717 = ORIENTED_EDGE ( 'NONE', *, *, #703, .F. ) ;
#718 = CIRCLE ( 'NONE', #123, 4.790000000000005365 ) ;
#719 = LINE ( 'NONE', #402, #936 ) ;
#720 = CIRCLE ( 'NONE', #189, 4.990000000000006430 ) ;
#721 = AXIS2_PLACEMENT_3D ( 'NONE', #71, #65, #876 ) ;
#722 = VERTEX_POINT ( 'NONE', #977 ) ;
#723 = EDGE_CURVE ( 'NONE', #715, #793, #410, .T. ) ;
#724 = EDGE_CURVE ( 'NONE', #782, #943, #801, .T. ) ;
#725 = DIRECTION ( 'NONE',  ( -1.000000000000000000, -0.000000000000000000, -0.000000000000000000 ) ) ;
#726 = EDGE_CURVE ( 'NONE', #10, #561, #137, .T. ) ;
#727 = CARTESIAN_POINT ( 'NONE',  ( 14.00000000000000000, 2.000000000000002665, 7.228416147400479552 ) ) ;
#728 = DIRECTION ( 'NONE',  ( 1.000000000000000000, 0.000000000000000000, 0.000000000000000000 ) ) ;
#729 = FACE_OUTER_BOUND ( 'NONE', #251, .T. ) ;
#730 = DIRECTION ( 'NONE',  ( -1.000000000000000000, -0.000000000000000000, -0.000000000000000000 ) ) ;
#731 = PLANE ( 'NONE',  #520 ) ;
#732 = DIRECTION ( 'NONE',  ( 0.000000000000000000, 0.000000000000000000, -1.000000000000000000 ) ) ;
#733 = ORIENTED_EDGE ( 'NONE', *, *, #14, .T. ) ;
#734 = DIRECTION ( 'NONE',  ( 0.000000000000000000, 0.000000000000000000, 1.000000000000000000 ) ) ;
#735 = AXIS2_PLACEMENT_3D ( 'NONE', #979, #666, #825 ) ;
#736 = VECTOR ( 'NONE', #923, 1000.000000000000000 ) ;
#737 = CARTESIAN_POINT ( 'NONE',  ( 3.000000000000000000, 0.000000000000000000, 0.000000000000000000 ) ) ;
#738 = AXIS2_PLACEMENT_3D ( 'NONE', #228, #730, #149 ) ;
#739 = DIRECTION ( 'NONE',  ( 0.000000000000000000, 0.000000000000000000, 1.000000000000000000 ) ) ;
#740 = ORIENTED_EDGE ( 'NONE', *, *, #847, .T. ) ;
#741 = LINE ( 'NONE', #248, #537 ) ;
#742 = EDGE_CURVE ( 'NONE', #219, #405, #937, .T. ) ;
#743 = DIRECTION ( 'NONE',  ( 0.000000000000000000, 0.000000000000000000, 1.000000000000000000 ) ) ;
#744 = ADVANCED_FACE ( 'NONE', ( #214 ), #797, .F. ) ;
#745 = PERSON_AND_ORGANIZATION_ROLE ( 'creator' ) ;
#746 = DIRECTION ( 'NONE',  ( -1.000000000000000000, 0.000000000000000000, 0.000000000000000000 ) ) ;
#747 = CARTESIAN_POINT ( 'NONE',  ( 14.00000000000000000, 0.000000000000000000, 4.990000000000001101 ) ) ;
#748 = CYLINDRICAL_SURFACE ( 'NONE', #465, 4.990000000000002878 ) ;
#749 = APPROVAL_STATUS ( 'not_yet_approved' ) ;
#750 = DIRECTION ( 'NONE',  ( -1.000000000000000000, -0.000000000000000000, -0.000000000000000000 ) ) ;
#751 = ORIENTED_EDGE ( 'NONE', *, *, #606, .F. ) ;
#752 = DIRECTION ( 'NONE',  ( -1.000000000000000000, -0.000000000000000000, -0.000000000000000000 ) ) ;
#753 = FACE_BOUND ( 'NONE', #226, .T. ) ;
#754 = CLOSED_SHELL ( 'NONE', ( #171, #927, #427, #309, #922, #61, #625, #79, #596, #997, #389, #457, #311, #651, #109, #655, #206, #638, #887, #345, #767, #921, #373, #293, #477, #51, #195, #762, #200, #120, #744, #851, #2, #75, #168 ) ) ;
#755 = AXIS2_PLACEMENT_3D ( 'NONE', #322, #728, #732 ) ;
#756 = CARTESIAN_POINT ( 'NONE',  ( 0.000000000000000000, 0.000000000000000000, 0.000000000000000000 ) ) ;
#757 = ORIENTED_EDGE ( 'NONE', *, *, #854, .T. ) ;
#758 = VECTOR ( 'NONE', #560, 1000.000000000000000 ) ;
#759 = AXIS2_PLACEMENT_3D ( 'NONE', #485, #76, #1034 ) ;
#760 = DIRECTION ( 'NONE',  ( -1.000000000000000000, -0.000000000000000000, -0.000000000000000000 ) ) ;
#761 = DIRECTION ( 'NONE',  ( -1.000000000000000000, -0.000000000000000000, -0.000000000000000000 ) ) ;
#762 = ADVANCED_FACE ( 'NONE', ( #384, #369 ), #780, .F. ) ;
#763 = DIRECTION ( 'NONE',  ( -1.000000000000000000, -0.000000000000000000, -0.000000000000000000 ) ) ;
#764 = ORIENTED_EDGE ( 'NONE', *, *, #723, .F. ) ;
#765 = VERTEX_POINT ( 'NONE', #713 ) ;
#766 = DIRECTION ( 'NONE',  ( 0.000000000000000000, 0.000000000000000000, 1.000000000000000000 ) ) ;
#767 = ADVANCED_FACE ( 'NONE', ( #716 ), #860, .T. ) ;
#768 = CARTESIAN_POINT ( 'NONE',  ( 0.000000000000000000, 0.000000000000000000, 0.000000000000000000 ) ) ;
#769 = DIRECTION ( 'NONE',  ( -1.000000000000000000, -0.000000000000000000, -0.000000000000000000 ) ) ;
#770 = ORIENTED_EDGE ( 'NONE', *, *, #260, .F. ) ;
#771 = ORIENTED_EDGE ( 'NONE', *, *, #212, .F. ) ;
#772 = DIRECTION ( 'NONE',  ( 0.000000000000000000, 0.000000000000000000, 1.000000000000000000 ) ) ;
#773 = PRODUCT_DEFINITION ( 'UNKNOWN', '', #191, #43 ) ;
#774 = DIRECTION ( 'NONE',  ( 0.000000000000000000, 0.000000000000000000, 1.000000000000000000 ) ) ;
#775 = AXIS2_PLACEMENT_3D ( 'NONE', #515, #367, #113 ) ;
#776 = ORIENTED_EDGE ( 'NONE', *, *, #493, .F. ) ;
#777 = CARTESIAN_POINT ( 'NONE',  ( 14.00000000000000000, 9.172604525613678137E-16, -7.490000000000001990 ) ) ;
#778 = CARTESIAN_POINT ( 'NONE',  ( 1.224646799147250347E-18, 0.000000000000000000, 0.000000000000000000 ) ) ;
#779 = VERTEX_POINT ( 'NONE', #548 ) ;
#780 = PLANE ( 'NONE',  #708 ) ;
#781 = DIRECTION ( 'NONE',  ( -1.000000000000000000, -0.000000000000000000, -0.000000000000000000 ) ) ;
#782 = VERTEX_POINT ( 'NONE', #553 ) ;
#783 = DIRECTION ( 'NONE',  ( -1.000000000000000000, -0.000000000000000000, -0.000000000000000000 ) ) ;
#784 = FACE_BOUND ( 'NONE', #1002, .T. ) ;
#785 = ORIENTED_EDGE ( 'NONE', *, *, #512, .T. ) ;
#786 = AXIS2_PLACEMENT_3D ( 'NONE', #893, #746, #415 ) ;
#787 = AXIS2_PLACEMENT_3D ( 'NONE', #668, #579, #340 ) ;
#788 = EDGE_CURVE ( 'NONE', #219, #683, #611, .T. ) ;
#789 = SECURITY_CLASSIFICATION ( '', '', #36 ) ;
#790 = LOCAL_TIME ( 13, 48, 55.00000000000000000, #962 ) ;
#791 = DIRECTION ( 'NONE',  ( -1.000000000000000000, -0.000000000000000000, -0.000000000000000000 ) ) ;
#792 = CARTESIAN_POINT ( 'NONE',  ( 54.00000000000000000, 0.000000000000000000, 0.000000000000000000 ) ) ;
#793 = VERTEX_POINT ( 'NONE', #949 ) ;
#794 = CARTESIAN_POINT ( 'NONE',  ( 14.00000000000000000, 0.000000000000000000, 0.000000000000000000 ) ) ;
#795 = PLANE ( 'NONE',  #787 ) ;
#796 = ORIENTED_EDGE ( 'NONE', *, *, #559, .F. ) ;
#797 = PLANE ( 'NONE',  #1011 ) ;
#798 = EDGE_LOOP ( 'NONE', ( #1010, #636 ) ) ;
#799 = AXIS2_PLACEMENT_3D ( 'NONE', #899, #972, #315 ) ;
#800 = DIRECTION ( 'NONE',  ( -1.000000000000000000, -0.000000000000000000, -0.000000000000000000 ) ) ;
#801 = CIRCLE ( 'NONE', #481, 4.790000000000000924 ) ;
#802 = LOCAL_TIME ( 13, 48, 55.00000000000000000, #241 ) ;
#803 = PERSON_AND_ORGANIZATION ( #591, #1024 ) ;
#804 = EDGE_CURVE ( 'NONE', #343, #925, #105, .T. ) ;
#805 = DIRECTION ( 'NONE',  ( -1.000000000000000000, -0.000000000000000000, -0.000000000000000000 ) ) ;
#806 = ORIENTED_EDGE ( 'NONE', *, *, #815, .T. ) ;
#807 = DIRECTION ( 'NONE',  ( -1.000000000000000000, 0.000000000000000000, -0.000000000000000000 ) ) ;
#808 = DIRECTION ( 'NONE',  ( -0.000000000000000000, -0.000000000000000000, 1.000000000000000000 ) ) ;
#809 = CYLINDRICAL_SURFACE ( 'NONE', #608, 4.790000000000006253 ) ;
#810 = VERTEX_POINT ( 'NONE', #1016 ) ;
#811 = EDGE_CURVE ( 'NONE', #867, #643, #57, .T. ) ;
#812 = LINE ( 'NONE', #52, #392 ) ;
#813 = CARTESIAN_POINT ( 'NONE',  ( 29.50000000000000000, 0.000000000000000000, 0.000000000000000000 ) ) ;
#814 = ORIENTED_EDGE ( 'NONE', *, *, #540, .T. ) ;
#815 = EDGE_CURVE ( 'NONE', #722, #10, #590, .T. ) ;
#816 = FACE_OUTER_BOUND ( 'NONE', #119, .T. ) ;
#817 = EDGE_CURVE ( 'NONE', #243, #406, #870, .T. ) ;
#818 = CIRCLE ( 'NONE', #946, 4.990000000000000213 ) ;
#819 = CIRCLE ( 'NONE', #589, 4.790000000000006253 ) ;
#820 = CARTESIAN_POINT ( 'NONE',  ( 0.000000000000000000, 0.000000000000000000, 0.000000000000000000 ) ) ;
#821 = SHAPE_DEFINITION_REPRESENTATION ( #284, #458 ) ;
#822 = DIRECTION ( 'NONE',  ( -1.000000000000000000, -0.000000000000000000, -0.000000000000000000 ) ) ;
#823 = CARTESIAN_POINT ( 'NONE',  ( 0.000000000000000000, 0.000000000000000000, 0.000000000000000000 ) ) ;
#824 = APPROVAL_ROLE ( '' ) ;
#825 = DIRECTION ( 'NONE',  ( 0.000000000000000000, 0.000000000000000000, 1.000000000000000000 ) ) ;
#826 = EDGE_LOOP ( 'NONE', ( #152, #950, #83, #24, #108, #67, #855, #607 ) ) ;
#827 = ORIENTED_EDGE ( 'NONE', *, *, #354, .T. ) ;
#828 = DIRECTION ( 'NONE',  ( -1.000000000000000000, -0.000000000000000000, -0.000000000000000000 ) ) ;
#829 = FACE_OUTER_BOUND ( 'NONE', #35, .T. ) ;
#830 = DIRECTION ( 'NONE',  ( -1.000000000000000000, -0.000000000000000000, -0.000000000000000000 ) ) ;
#831 = ORIENTED_EDGE ( 'NONE', *, *, #17, .F. ) ;
#832 = LINE ( 'NONE', #840, #856 ) ;
#833 = DIRECTION ( 'NONE',  ( 0.000000000000000000, 0.000000000000000000, -1.000000000000000000 ) ) ;
#834 = CIRCLE ( 'NONE', #208, 4.990000000000001101 ) ;
#835 = CARTESIAN_POINT ( 'NONE',  ( 14.00000000000000000, 2.000000000000002665, -7.218039900139096687 ) ) ;
#836 = EDGE_LOOP ( 'NONE', ( #751, #827, #323, #565 ) ) ;
#837 = CIRCLE ( 'NONE', #55, 4.990000000000002878 ) ;
#838 = ORIENTED_EDGE ( 'NONE', *, *, #996, .T. ) ;
#839 = AXIS2_PLACEMENT_3D ( 'NONE', #50, #791, #377 ) ;
#840 = CARTESIAN_POINT ( 'NONE',  ( 24.00000000000000000, -1.999999999999997335, 7.228416147400479552 ) ) ;
#841 = DIRECTION ( 'NONE',  ( -1.000000000000000000, 0.000000000000000000, -0.000000000000000000 ) ) ;
#842 = LINE ( 'NONE', #197, #1022 ) ;
#843 = ORIENTED_EDGE ( 'NONE', *, *, #493, .T. ) ;
#844 = EDGE_LOOP ( 'NONE', ( #193, #849 ) ) ;
#845 = DIRECTION ( 'NONE',  ( -1.000000000000000000, -0.000000000000000000, -0.000000000000000000 ) ) ;
#846 = DIRECTION ( 'NONE',  ( 0.000000000000000000, 0.000000000000000000, 1.000000000000000000 ) ) ;
#847 = EDGE_CURVE ( 'NONE', #60, #440, #626, .T. ) ;
#848 = EDGE_LOOP ( 'NONE', ( #48, #684 ) ) ;
#849 = ORIENTED_EDGE ( 'NONE', *, *, #227, .T. ) ;
#850 = DATE_AND_TIME ( #176, #538 ) ;
#851 = ADVANCED_FACE ( 'NONE', ( #1019 ), #539, .F. ) ;
#852 = CARTESIAN_POINT ( 'NONE',  ( 38.50000000000000000, 0.000000000000000000, -4.790000000000006253 ) ) ;
#853 = CARTESIAN_POINT ( 'NONE',  ( 29.50000000000000000, 0.000000000000000000, 4.790000000000005365 ) ) ;
#854 = EDGE_CURVE ( 'NONE', #405, #135, #301, .T. ) ;
#855 = ORIENTED_EDGE ( 'NONE', *, *, #817, .T. ) ;
#856 = VECTOR ( 'NONE', #110, 1000.000000000000000 ) ;
#857 = DIRECTION ( 'NONE',  ( -1.000000000000000000, 0.000000000000000000, 0.000000000000000000 ) ) ;
#858 = CARTESIAN_POINT ( 'NONE',  ( 14.00000000000000000, 0.000000000000000000, -7.490000000000001990 ) ) ;
#859 = EDGE_LOOP ( 'NONE', ( #1020, #140, #618, #371 ) ) ;
#860 = CYLINDRICAL_SURFACE ( 'NONE', #273, 4.990000000000002878 ) ;
#861 = APPROVAL ( #81, 'UNSPECIFIED' ) ;
#862 = CARTESIAN_POINT ( 'NONE',  ( 39.50000000000000711, 0.000000000000000000, 4.990000000000004654 ) ) ;
#863 = ORIENTED_EDGE ( 'NONE', *, *, #629, .T. ) ;
#864 = EDGE_CURVE ( 'NONE', #243, #456, #255, .T. ) ;
#865 = CARTESIAN_POINT ( 'NONE',  ( 3.000000000000000000, 0.000000000000000000, -4.790000000000000924 ) ) ;
#866 = CYLINDRICAL_SURFACE ( 'NONE', #378, 7.490000000000001990 ) ;
#867 = VERTEX_POINT ( 'NONE', #1025 ) ;
#868 = AXIS2_PLACEMENT_3D ( 'NONE', #688, #917, #989 ) ;
#869 = AXIS2_PLACEMENT_3D ( 'NONE', #966, #417, #335 ) ;
#870 = LINE ( 'NONE', #940, #305 ) ;
#871 = CARTESIAN_POINT ( 'NONE',  ( 30.50000000000000000, 0.000000000000000000, 0.000000000000000000 ) ) ;
#872 = ORIENTED_EDGE ( 'NONE', *, *, #1026, .F. ) ;
#873 = CARTESIAN_POINT ( 'NONE',  ( 24.00000000000000000, -1.999999999999997335, 7.228416147400479552 ) ) ;
#874 = CC_DESIGN_DATE_AND_TIME_ASSIGNMENT ( #850, #967, ( #773 ) ) ;
#875 = ORIENTED_EDGE ( 'NONE', *, *, #307, .F. ) ;
#876 = DIRECTION ( 'NONE',  ( 0.000000000000000000, 0.000000000000000000, 1.000000000000000000 ) ) ;
#877 = CARTESIAN_POINT ( 'NONE',  ( 26.00000000000000000, 0.000000000000000000, 0.000000000000000000 ) ) ;
#878 = VERTEX_POINT ( 'NONE', #952 ) ;
#879 = EDGE_CURVE ( 'NONE', #765, #482, #959, .T. ) ;
#880 = AXIS2_PLACEMENT_3D ( 'NONE', #407, #1008, #545 ) ;
#881 = FACE_BOUND ( 'NONE', #504, .T. ) ;
#882 = AXIS2_PLACEMENT_3D ( 'NONE', #982, #974, #766 ) ;
#883 = AXIS2_PLACEMENT_3D ( 'NONE', #478, #800, #396 ) ;
#884 = DIRECTION ( 'NONE',  ( -1.000000000000000000, -0.000000000000000000, -0.000000000000000000 ) ) ;
#885 = CARTESIAN_POINT ( 'NONE',  ( 4.000000000000000000, 0.000000000000000000, 4.790000000000001812 ) ) ;
#886 = DIRECTION ( 'NONE',  ( -1.000000000000000000, -0.000000000000000000, -0.000000000000000000 ) ) ;
#887 = ADVANCED_FACE ( 'NONE', ( #312 ), #317, .T. ) ;
#888 = APPROVAL_DATE_TIME ( #898, #58 ) ;
#889 = DIRECTION ( 'NONE',  ( -1.000000000000000000, -0.000000000000000000, -0.000000000000000000 ) ) ;
#890 = EDGE_CURVE ( 'NONE', #474, #793, #719, .T. ) ;
#891 = CARTESIAN_POINT ( 'NONE',  ( 38.50000000000000000, 0.000000000000000000, 4.790000000000006253 ) ) ;
#892 = PERSON_AND_ORGANIZATION ( #591, #1024 ) ;
#893 = CARTESIAN_POINT ( 'NONE',  ( 24.00000000000000000, 0.000000000000000000, 0.000000000000000000 ) ) ;
#894 = ORIENTED_EDGE ( 'NONE', *, *, #296, .T. ) ;
#895 = CARTESIAN_POINT ( 'NONE',  ( 0.000000000000000000, 2.000000000000002665, 7.218039900139096687 ) ) ;
#896 = VECTOR ( 'NONE', #175, 1000.000000000000000 ) ;
#897 = VECTOR ( 'NONE', #710, 1000.000000000000000 ) ;
#898 = DATE_AND_TIME ( #246, #790 ) ;
#899 = CARTESIAN_POINT ( 'NONE',  ( 14.00000000000000000, 0.000000000000000000, 0.000000000000000000 ) ) ;
#900 = VERTEX_POINT ( 'NONE', #308 ) ;
#901 = DIRECTION ( 'NONE',  ( -1.000000000000000000, -0.000000000000000000, -0.000000000000000000 ) ) ;
#902 = EDGE_CURVE ( 'NONE', #148, #184, #555, .T. ) ;
#903 = CYLINDRICAL_SURFACE ( 'NONE', #346, 4.990000000000005542 ) ;
#904 = DIRECTION ( 'NONE',  ( -1.000000000000000000, -0.000000000000000000, -0.000000000000000000 ) ) ;
#905 = ORIENTED_EDGE ( 'NONE', *, *, #525, .T. ) ;
#906 = EDGE_CURVE ( 'NONE', #375, #436, #86, .T. ) ;
#907 = FACE_OUTER_BOUND ( 'NONE', #78, .T. ) ;
#908 = PLANE ( 'NONE',  #209 ) ;
#909 = EDGE_CURVE ( 'NONE', #405, #867, #411, .T. ) ;
#910 = FACE_OUTER_BOUND ( 'NONE', #468, .T. ) ;
#911 = ORIENTED_EDGE ( 'NONE', *, *, #489, .T. ) ;
#912 = ORIENTED_EDGE ( 'NONE', *, *, #325, .T. ) ;
#913 = EDGE_CURVE ( 'NONE', #998, #985, #483, .T. ) ;
#914 = PLANE ( 'NONE',  #935 ) ;
#915 = DIRECTION ( 'NONE',  ( 0.000000000000000000, 0.000000000000000000, 1.000000000000000000 ) ) ;
#916 = CIRCLE ( 'NONE', #868, 4.990000000000006430 ) ;
#917 = DIRECTION ( 'NONE',  ( -1.000000000000000000, -0.000000000000000000, -0.000000000000000000 ) ) ;
#918 = VERTEX_POINT ( 'NONE', #653 ) ;
#919 = AXIS2_PLACEMENT_3D ( 'NONE', #704, #857, #128 ) ;
#920 = ORIENTED_EDGE ( 'NONE', *, *, #879, .T. ) ;
#921 = ADVANCED_FACE ( 'NONE', ( #231, #881 ), #156, .F. ) ;
#922 = ADVANCED_FACE ( 'NONE', ( #563 ), #748, .T. ) ;
#923 = DIRECTION ( 'NONE',  ( -1.000000000000000000, -0.000000000000000000, -0.000000000000000000 ) ) ;
#924 = DIRECTION ( 'NONE',  ( -1.000000000000000000, -0.000000000000000000, -0.000000000000000000 ) ) ;
#925 = VERTEX_POINT ( 'NONE', #1030 ) ;
#926 = EDGE_LOOP ( 'NONE', ( #740, #951, #107, #159, #205, #986, #646, #645 ) ) ;
#927 = ADVANCED_FACE ( 'NONE', ( #585 ), #330, .T. ) ;
#928 = FACE_OUTER_BOUND ( 'NONE', #689, .T. ) ;
#929 = CARTESIAN_POINT ( 'NONE',  ( 30.50000000000000000, 0.000000000000000000, 0.000000000000000000 ) ) ;
#930 = EDGE_LOOP ( 'NONE', ( #95, #131 ) ) ;
#931 = DIRECTION ( 'NONE',  ( 0.000000000000000000, 0.000000000000000000, 1.000000000000000000 ) ) ;
#932 = DIRECTION ( 'NONE',  ( 0.000000000000000000, 0.000000000000000000, 1.000000000000000000 ) ) ;
#933 = AXIS2_PLACEMENT_3D ( 'NONE', #871, #886, #488 ) ;
#934 = ORIENTED_EDGE ( 'NONE', *, *, #606, .T. ) ;
#935 = AXIS2_PLACEMENT_3D ( 'NONE', #85, #987, #519 ) ;
#936 = VECTOR ( 'NONE', #644, 1000.000000000000000 ) ;
#937 = LINE ( 'NONE', #387, #288 ) ;
#938 = DIRECTION ( 'NONE',  ( -1.000000000000000000, -0.000000000000000000, -0.000000000000000000 ) ) ;
#939 = ORIENTED_EDGE ( 'NONE', *, *, #551, .T. ) ;
#940 = CARTESIAN_POINT ( 'NONE',  ( 0.000000000000000000, -1.999999999999997335, -7.218039900139097576 ) ) ;
#941 = DIRECTION ( 'NONE',  ( -1.000000000000000000, -0.000000000000000000, -0.000000000000000000 ) ) ;
#942 = EDGE_CURVE ( 'NONE', #277, #765, #1, .T. ) ;
#943 = VERTEX_POINT ( 'NONE', #341 ) ;
#944 = DIRECTION ( 'NONE',  ( -1.000000000000000000, -0.000000000000000000, -0.000000000000000000 ) ) ;
#945 = ORIENTED_EDGE ( 'NONE', *, *, #804, .T. ) ;
#946 = AXIS2_PLACEMENT_3D ( 'NONE', #778, #27, #774 ) ;
#947 = AXIS2_PLACEMENT_3D ( 'NONE', #714, #541, #1017 ) ;
#948 = AXIS2_PLACEMENT_3D ( 'NONE', #737, #403, #397 ) ;
#949 = CARTESIAN_POINT ( 'NONE',  ( 26.00000000000000000, 0.000000000000000000, 4.990000000000003766 ) ) ;
#950 = ORIENTED_EDGE ( 'NONE', *, *, #182, .T. ) ;
#951 = ORIENTED_EDGE ( 'NONE', *, *, #1037, .T. ) ;
#952 = CARTESIAN_POINT ( 'NONE',  ( 39.50000000000000711, 6.110987527745299433E-16, -4.990000000000004654 ) ) ;
#953 = CARTESIAN_POINT ( 'NONE',  ( 14.00000000000000000, -1.999999999999997335, 7.218039900139097576 ) ) ;
#954 = ORIENTED_EDGE ( 'NONE', *, *, #879, .F. ) ;
#955 = DIRECTION ( 'NONE',  ( 0.000000000000000000, 0.000000000000000000, 1.000000000000000000 ) ) ;
#956 = CARTESIAN_POINT ( 'NONE',  ( 38.50000000000000000, 0.000000000000000000, 4.990000000000004654 ) ) ;
#957 = AXIS2_PLACEMENT_3D ( 'NONE', #82, #750, #739 ) ;
#958 = CARTESIAN_POINT ( 'NONE',  ( 0.000000000000000000, 0.000000000000000000, 4.990000000000001101 ) ) ;
#959 = LINE ( 'NONE', #240, #661 ) ;
#960 = AXIS2_PLACEMENT_3D ( 'NONE', #475, #463, #627 ) ;
#961 = AXIS2_PLACEMENT_3D ( 'NONE', #1029, #725, #566 ) ;
#962 = COORDINATED_UNIVERSAL_TIME_OFFSET ( 3, 30, .AHEAD. ) ;
#963 = LINE ( 'NONE', #571, #637 ) ;
#964 = ORIENTED_EDGE ( 'NONE', *, *, #187, .T. ) ;
#965 = DIRECTION ( 'NONE',  ( 0.000000000000000000, 0.000000000000000000, 1.000000000000000000 ) ) ;
#966 = CARTESIAN_POINT ( 'NONE',  ( 0.000000000000000000, 0.000000000000000000, 0.000000000000000000 ) ) ;
#967 = DATE_TIME_ROLE ( 'creation_date' ) ;
#968 = DIRECTION ( 'NONE',  ( 0.000000000000000000, 0.000000000000000000, 1.000000000000000000 ) ) ;
#969 = LINE ( 'NONE', #895, #84 ) ;
#970 = LINE ( 'NONE', #3, #41 ) ;
#971 = DATE_AND_TIME ( #491, #802 ) ;
#972 = DIRECTION ( 'NONE',  ( -1.000000000000000000, -0.000000000000000000, -0.000000000000000000 ) ) ;
#973 = ORIENTED_EDGE ( 'NONE', *, *, #1021, .F. ) ;
#974 = DIRECTION ( 'NONE',  ( -1.000000000000000000, -0.000000000000000000, -0.000000000000000000 ) ) ;
#975 = AXIS2_PLACEMENT_3D ( 'NONE', #509, #830, #605 ) ;
#976 = AXIS2_PLACEMENT_3D ( 'NONE', #12, #901, #90 ) ;
#977 = CARTESIAN_POINT ( 'NONE',  ( 38.50000000000000000, 6.110987527745298447E-16, -4.990000000000004654 ) ) ;
#978 = LOCAL_TIME ( 13, 48, 55.00000000000000000, #88 ) ;
#979 = CARTESIAN_POINT ( 'NONE',  ( 0.000000000000000000, 0.000000000000000000, 0.000000000000000000 ) ) ;
#980 = ORIENTED_EDGE ( 'NONE', *, *, #723, .T. ) ;
#981 = EDGE_LOOP ( 'NONE', ( #614, #173, #920, #550 ) ) ;
#982 = CARTESIAN_POINT ( 'NONE',  ( 3.000000000000000000, 0.000000000000000000, 0.000000000000000000 ) ) ;
#983 = LINE ( 'NONE', #442, #124 ) ;
#984 = DIRECTION ( 'NONE',  ( -1.000000000000000000, -0.000000000000000000, -0.000000000000000000 ) ) ;
#985 = VERTEX_POINT ( 'NONE', #569 ) ;
#986 = ORIENTED_EDGE ( 'NONE', *, *, #432, .T. ) ;
#987 = DIRECTION ( 'NONE',  ( -1.000000000000000000, 0.000000000000000000, -0.000000000000000000 ) ) ;
#988 = FACE_OUTER_BOUND ( 'NONE', #533, .T. ) ;
#989 = DIRECTION ( 'NONE',  ( 0.000000000000000000, 0.000000000000000000, 1.000000000000000000 ) ) ;
#990 = EDGE_LOOP ( 'NONE', ( #54, #339, #633, #770, #831, #452 ) ) ;
#991 = ORIENTED_EDGE ( 'NONE', *, *, #906, .F. ) ;
#992 = CARTESIAN_POINT ( 'NONE',  ( 30.50000000000000000, 0.000000000000000000, 4.790000000000006253 ) ) ;
#993 = CIRCLE ( 'NONE', #321, 4.790000000000001812 ) ;
#994 = AXIS2_PLACEMENT_3D ( 'NONE', #852, #841, #21 ) ;
#995 = DIRECTION ( 'NONE',  ( -1.000000000000000000, -0.000000000000000000, -0.000000000000000000 ) ) ;
#996 = EDGE_CURVE ( 'NONE', #135, #467, #87, .T. ) ;
#997 = ADVANCED_FACE ( 'NONE', ( #233 ), #731, .F. ) ;
#998 = VERTEX_POINT ( 'NONE', #953 ) ;
#999 = ORIENTED_EDGE ( 'NONE', *, *, #546, .T. ) ;
#1000 = DIRECTION ( 'NONE',  ( -1.000000000000000000, -0.000000000000000000, -0.000000000000000000 ) ) ;
#1001 = LINE ( 'NONE', #106, #153 ) ;
#1002 = EDGE_LOOP ( 'NONE', ( #178, #609 ) ) ;
#1003 = DIRECTION ( 'NONE',  ( -1.000000000000000000, 0.000000000000000000, -0.000000000000000000 ) ) ;
#1004 = DIRECTION ( 'NONE',  ( -1.000000000000000000, -0.000000000000000000, -0.000000000000000000 ) ) ;
#1005 = EDGE_LOOP ( 'NONE', ( #258, #785 ) ) ;
#1006 = EDGE_CURVE ( 'NONE', #562, #148, #970, .T. ) ;
#1007 = CARTESIAN_POINT ( 'NONE',  ( 14.00000000000000000, 2.000000000000002665, 7.228416147400479552 ) ) ;
#1008 = DIRECTION ( 'NONE',  ( -1.000000000000000000, -0.000000000000000000, -0.000000000000000000 ) ) ;
#1009 = VECTOR ( 'NONE', #80, 1000.000000000000000 ) ;
#1010 = ORIENTED_EDGE ( 'NONE', *, *, #489, .F. ) ;
#1011 = AXIS2_PLACEMENT_3D ( 'NONE', #873, #544, #144 ) ;
#1012 = CARTESIAN_POINT ( 'NONE',  ( 38.50000000000000000, 0.000000000000000000, 0.000000000000000000 ) ) ;
#1013 = DIRECTION ( 'NONE',  ( 0.000000000000000000, 0.000000000000000000, 1.000000000000000000 ) ) ;
#1014 = ORIENTED_EDGE ( 'NONE', *, *, #909, .T. ) ;
#1015 = ORIENTED_EDGE ( 'NONE', *, *, #742, .F. ) ;
#1016 = CARTESIAN_POINT ( 'NONE',  ( 24.00000000000000000, 2.000000000000002665, 7.218039900139096687 ) ) ;
#1017 = DIRECTION ( 'NONE',  ( 0.000000000000000000, 0.000000000000000000, 1.000000000000000000 ) ) ;
#1018 = ORIENTED_EDGE ( 'NONE', *, *, #629, .F. ) ;
#1019 = FACE_OUTER_BOUND ( 'NONE', #395, .T. ) ;
#1020 = ORIENTED_EDGE ( 'NONE', *, *, #19, .T. ) ;
#1021 = EDGE_CURVE ( 'NONE', #793, #715, #641, .T. ) ;
#1022 = VECTOR ( 'NONE', #769, 1000.000000000000000 ) ;
#1023 = AXIS2_PLACEMENT_3D ( 'NONE', #430, #760, #353 ) ;
#1024 = ORGANIZATION ( 'UNSPECIFIED', 'UNSPECIFIED', '' ) ;
#1025 = CARTESIAN_POINT ( 'NONE',  ( 14.00000000000000000, 6.110987527745294503E-16, -4.990000000000001101 ) ) ;
#1026 = EDGE_CURVE ( 'NONE', #135, #405, #155, .T. ) ;
#1027 = ORIENTED_EDGE ( 'NONE', *, *, #130, .F. ) ;
#1028 = EDGE_CURVE ( 'NONE', #925, #343, #72, .T. ) ;
#1029 = CARTESIAN_POINT ( 'NONE',  ( 14.00000000000000000, 0.000000000000000000, 0.000000000000000000 ) ) ;
#1030 = CARTESIAN_POINT ( 'NONE',  ( 14.00000000000000000, -1.999999999999997335, 4.571662717217885863 ) ) ;
#1031 = DIRECTION ( 'NONE',  ( -1.000000000000000000, -0.000000000000000000, -0.000000000000000000 ) ) ;
#1032 = FACE_OUTER_BOUND ( 'NONE', #826, .T. ) ;
#1033 = DIRECTION ( 'NONE',  ( -1.000000000000000000, -0.000000000000000000, -0.000000000000000000 ) ) ;
#1034 = DIRECTION ( 'NONE',  ( 0.000000000000000000, 0.000000000000000000, 1.000000000000000000 ) ) ;
#1035 = PERSON_AND_ORGANIZATION_ROLE ( 'design_owner' ) ;
#1036 = DIRECTION ( 'NONE',  ( 0.000000000000000000, -0.000000000000000000, -1.000000000000000000 ) ) ;
#1037 = EDGE_CURVE ( 'NONE', #440, #683, #580, .T. ) ;
#1038 = ORIENTED_EDGE ( 'NONE', *, *, #354, .F. ) ;
#1039 = CIRCLE ( 'NONE', #799, 4.990000000000001101 ) ;
#1040 = AXIS2_PLACEMENT_3D ( 'NONE', #180, #423, #833 ) ;
#1041 = CARTESIAN_POINT ( 'NONE',  ( 14.00000000000000000, -1.999999999999997335, -4.571662717217885863 ) ) ;
ENDSEC;
END-ISO-10303-21;
