ISO-10303-21;
HEADER;
FILE_DESCRIPTION (( 'STEP AP203' ),
    '1' );
FILE_NAME ('Link1LowerShaft_Default_sldprt.STEP',
    '2026-07-23T12:34:49',
    ( '' ),
    ( '' ),
    'SwSTEP 2.0',
    'SolidWorks 2025',
    '' );
FILE_SCHEMA (( 'CONFIG_CONTROL_DESIGN' ));
ENDSEC;

DATA;
#1 = VERTEX_POINT ( 'NONE', #131 ) ;
#2 = DIRECTION ( 'NONE',  ( 0.000000000000000000, 0.000000000000000000, 1.000000000000000000 ) ) ;
#3 = ORIENTED_EDGE ( 'NONE', *, *, #1078, .F. ) ;
#4 = PLANE ( 'NONE',  #37 ) ;
#5 = AXIS2_PLACEMENT_3D ( 'NONE', #19, #732, #358 ) ;
#6 = AXIS2_PLACEMENT_3D ( 'NONE', #169, #52, #705 ) ;
#7 = EDGE_CURVE ( 'NONE', #581, #71, #35, .T. ) ;
#8 = LINE ( 'NONE', #463, #1105 ) ;
#9 = AXIS2_PLACEMENT_3D ( 'NONE', #133, #1031, #414 ) ;
#10 = VERTEX_POINT ( 'NONE', #1040 ) ;
#11 = DIRECTION ( 'NONE',  ( 0.000000000000000000, 0.000000000000000000, 1.000000000000000000 ) ) ;
#12 = CARTESIAN_POINT ( 'NONE',  ( 39.50000000000000711, 0.000000000000000000, -4.990000000000004654 ) ) ;
#13 = CARTESIAN_POINT ( 'NONE',  ( 14.00000000000000000, 0.000000000000000000, 7.490000000000001990 ) ) ;
#14 = ORIENTED_EDGE ( 'NONE', *, *, #656, .F. ) ;
#15 = CARTESIAN_POINT ( 'NONE',  ( 0.000000000000000000, 0.000000000000000000, 0.000000000000000000 ) ) ;
#16 = DIRECTION ( 'NONE',  ( -1.000000000000000000, -0.000000000000000000, -0.000000000000000000 ) ) ;
#17 = PERSON ( 'UNSPECIFIED', 'UNSPECIFIED', 'UNSPECIFIED', ('UNSPECIFIED'), ('UNSPECIFIED'), ('UNSPECIFIED') ) ;
#18 = VECTOR ( 'NONE', #930, 1000.000000000000000 ) ;
#19 = CARTESIAN_POINT ( 'NONE',  ( 26.00000000000000355, 0.000000000000000000, -4.990000000000003766 ) ) ;
#20 = ORIENTED_EDGE ( 'NONE', *, *, #289, .F. ) ;
#21 = DIRECTION ( 'NONE',  ( -1.000000000000000000, -0.000000000000000000, -0.000000000000000000 ) ) ;
#22 = ADVANCED_FACE ( 'NONE', ( #44 ), #291, .F. ) ;
#23 = VERTEX_POINT ( 'NONE', #1023 ) ;
#24 = DIRECTION ( 'NONE',  ( -1.000000000000000000, -0.000000000000000000, -0.000000000000000000 ) ) ;
#25 = CARTESIAN_POINT ( 'NONE',  ( 0.000000000000000000, 2.000000000000000000, 4.571662717217892968 ) ) ;
#26 = EDGE_LOOP ( 'NONE', ( #132, #237, #490, #717, #950, #424 ) ) ;
#27 = VERTEX_POINT ( 'NONE', #1028 ) ;
#28 = APPROVAL ( #239, 'UNSPECIFIED' ) ;
#29 = DIRECTION ( 'NONE',  ( 0.000000000000000000, 0.000000000000000000, -1.000000000000000000 ) ) ;
#30 = CARTESIAN_POINT ( 'NONE',  ( 24.00000000000000000, 0.000000000000000000, 0.000000000000000000 ) ) ;
#31 = ORIENTED_EDGE ( 'NONE', *, *, #577, .F. ) ;
#32 = ORIENTED_EDGE ( 'NONE', *, *, #383, .T. ) ;
#33 = CYLINDRICAL_SURFACE ( 'NONE', #510, 4.990000000000000213 ) ;
#34 = EDGE_CURVE ( 'NONE', #982, #774, #144, .T. ) ;
#35 = CIRCLE ( 'NONE', #1174, 4.990000000000009095 ) ;
#36 = CARTESIAN_POINT ( 'NONE',  ( 38.50000000000000000, 6.110987527745298447E-16, -4.990000000000004654 ) ) ;
#37 = AXIS2_PLACEMENT_3D ( 'NONE', #916, #1025, #540 ) ;
#38 = ORIENTED_EDGE ( 'NONE', *, *, #1157, .T. ) ;
#39 = EDGE_LOOP ( 'NONE', ( #519, #975 ) ) ;
#40 = DIRECTION ( 'NONE',  ( 0.000000000000000000, 0.000000000000000000, 1.000000000000000000 ) ) ;
#41 = PLANE ( 'NONE',  #1124 ) ;
#42 = EDGE_CURVE ( 'NONE', #645, #752, #48, .T. ) ;
#43 = AXIS2_PLACEMENT_3D ( 'NONE', #444, #884, #143 ) ;
#44 = FACE_OUTER_BOUND ( 'NONE', #326, .T. ) ;
#45 = ORIENTED_EDGE ( 'NONE', *, *, #858, .F. ) ;
#46 = DIRECTION ( 'NONE',  ( 0.000000000000000000, -1.000000000000000000, 0.000000000000000000 ) ) ;
#47 = CARTESIAN_POINT ( 'NONE',  ( 4.000000000000000000, 0.000000000000000000, 0.000000000000000000 ) ) ;
#48 = LINE ( 'NONE', #672, #517 ) ;
#49 = EDGE_LOOP ( 'NONE', ( #677, #454 ) ) ;
#50 = FACE_OUTER_BOUND ( 'NONE', #967, .T. ) ;
#51 = CIRCLE ( 'NONE', #1074, 4.790000000000000924 ) ;
#52 = DIRECTION ( 'NONE',  ( -1.000000000000000000, -0.000000000000000000, -0.000000000000000000 ) ) ;
#53 = AXIS2_PLACEMENT_3D ( 'NONE', #12, #451, #911 ) ;
#54 = FACE_OUTER_BOUND ( 'NONE', #934, .T. ) ;
#55 = VERTEX_POINT ( 'NONE', #478 ) ;
#56 = DIRECTION ( 'NONE',  ( 0.000000000000000000, 0.000000000000000000, 1.000000000000000000 ) ) ;
#57 = CC_DESIGN_DATE_AND_TIME_ASSIGNMENT ( #614, #257, ( #515 ) ) ;
#58 = DIRECTION ( 'NONE',  ( 0.000000000000000000, 0.000000000000000000, 1.000000000000000000 ) ) ;
#59 = LINE ( 'NONE', #955, #960 ) ;
#60 = EDGE_LOOP ( 'NONE', ( #910, #920 ) ) ;
#61 = DIRECTION ( 'NONE',  ( -1.000000000000000000, -0.000000000000000000, -0.000000000000000000 ) ) ;
#62 = VECTOR ( 'NONE', #258, 1000.000000000000000 ) ;
#63 = DATE_AND_TIME ( #993, #371 ) ;
#64 = FACE_OUTER_BOUND ( 'NONE', #293, .T. ) ;
#65 = EDGE_LOOP ( 'NONE', ( #38, #870, #626, #141, #1068, #199 ) ) ;
#66 = DIRECTION ( 'NONE',  ( -1.000000000000000000, -0.000000000000000000, -0.000000000000000000 ) ) ;
#67 = EDGE_CURVE ( 'NONE', #550, #557, #766, .T. ) ;
#68 = ORGANIZATION ( 'UNSPECIFIED', 'UNSPECIFIED', '' ) ;
#69 = CALENDAR_DATE ( 2026, 23, 7 ) ;
#70 = DIRECTION ( 'NONE',  ( 0.000000000000000000, 0.000000000000000000, 1.000000000000000000 ) ) ;
#71 = VERTEX_POINT ( 'NONE', #1126 ) ;
#72 = DIRECTION ( 'NONE',  ( 0.000000000000000000, 0.000000000000000000, 1.000000000000000000 ) ) ;
#73 = VECTOR ( 'NONE', #1042, 1000.000000000000000 ) ;
#74 = VECTOR ( 'NONE', #748, 1000.000000000000000 ) ;
#75 = DIRECTION ( 'NONE',  ( 0.000000000000000000, 0.000000000000000000, -1.000000000000000000 ) ) ;
#76 = EDGE_LOOP ( 'NONE', ( #513, #396, #805, #876, #419, #1045 ) ) ;
#77 = DIRECTION ( 'NONE',  ( -1.000000000000000000, -0.000000000000000000, -0.000000000000000000 ) ) ;
#78 = CIRCLE ( 'NONE', #224, 4.990000000000002878 ) ;
#79 = VECTOR ( 'NONE', #814, 1000.000000000000000 ) ;
#80 = VECTOR ( 'NONE', #521, 1000.000000000000000 ) ;
#81 = CARTESIAN_POINT ( 'NONE',  ( 38.50000000000000000, 0.000000000000000000, 0.000000000000000000 ) ) ;
#82 = PERSON_AND_ORGANIZATION ( #17, #68 ) ;
#83 = CYLINDRICAL_SURFACE ( 'NONE', #399, 4.990000000000000213 ) ;
#84 = VERTEX_POINT ( 'NONE', #1136 ) ;
#85 = DIRECTION ( 'NONE',  ( 0.000000000000000000, 0.000000000000000000, 1.000000000000000000 ) ) ;
#86 = EDGE_CURVE ( 'NONE', #560, #580, #602, .T. ) ;
#87 = PLANE ( 'NONE',  #488 ) ;
#88 = DIRECTION ( 'NONE',  ( 0.000000000000000000, 0.000000000000000000, 1.000000000000000000 ) ) ;
#89 = AXIS2_PLACEMENT_3D ( 'NONE', #345, #699, #892 ) ;
#90 = EDGE_LOOP ( 'NONE', ( #14, #156, #724, #45 ) ) ;
#91 =( NAMED_UNIT ( * ) PLANE_ANGLE_UNIT ( ) SI_UNIT ( $, .RADIAN. ) );
#92 = VERTEX_POINT ( 'NONE', #1163 ) ;
#93 = EDGE_CURVE ( 'NONE', #206, #854, #59, .T. ) ;
#94 = CARTESIAN_POINT ( 'NONE',  ( 14.00000000000000000, -1.999999999999997335, -7.218039900139096687 ) ) ;
#95 = VECTOR ( 'NONE', #16, 1000.000000000000000 ) ;
#96 = DIRECTION ( 'NONE',  ( 0.000000000000000000, 0.000000000000000000, 1.000000000000000000 ) ) ;
#97 = EDGE_LOOP ( 'NONE', ( #1053, #460 ) ) ;
#98 = DIRECTION ( 'NONE',  ( 0.000000000000000000, 0.000000000000000000, 1.000000000000000000 ) ) ;
#99 = CARTESIAN_POINT ( 'NONE',  ( 0.000000000000000000, 9.172604525613678137E-16, -7.490000000000001990 ) ) ;
#100 = AXIS2_PLACEMENT_3D ( 'NONE', #378, #721, #1009 ) ;
#101 = AXIS2_PLACEMENT_3D ( 'NONE', #174, #529, #58 ) ;
#102 = CARTESIAN_POINT ( 'NONE',  ( 30.50000000000000000, 0.000000000000000000, 0.000000000000000000 ) ) ;
#103 = ORIENTED_EDGE ( 'NONE', *, *, #511, .T. ) ;
#104 = LINE ( 'NONE', #632, #234 ) ;
#105 = CARTESIAN_POINT ( 'NONE',  ( 0.000000000000000000, -1.999999999999997335, 7.218039900139097576 ) ) ;
#106 = LINE ( 'NONE', #981, #62 ) ;
#107 = EDGE_CURVE ( 'NONE', #848, #818, #1121, .T. ) ;
#108 = EDGE_LOOP ( 'NONE', ( #864, #685, #475, #189 ) ) ;
#109 = CARTESIAN_POINT ( 'NONE',  ( 38.50000000000000000, 0.000000000000000000, 0.000000000000000000 ) ) ;
#110 = EDGE_LOOP ( 'NONE', ( #267, #166 ) ) ;
#111 = CARTESIAN_POINT ( 'NONE',  ( 14.00000000000000000, 2.000000000000002665, 7.218039900139096687 ) ) ;
#112 = PLANE ( 'NONE',  #584 ) ;
#113 = ADVANCED_FACE ( 'NONE', ( #1073 ), #431, .T. ) ;
#114 = ORIENTED_EDGE ( 'NONE', *, *, #491, .F. ) ;
#115 = ADVANCED_FACE ( 'NONE', ( #857, #150 ), #418, .F. ) ;
#116 = DIRECTION ( 'NONE',  ( -1.000000000000000000, -0.000000000000000000, -0.000000000000000000 ) ) ;
#117 = AXIS2_PLACEMENT_3D ( 'NONE', #30, #750, #559 ) ;
#118 = DIRECTION ( 'NONE',  ( -1.000000000000000000, -0.000000000000000000, -0.000000000000000000 ) ) ;
#119 = ORIENTED_EDGE ( 'NONE', *, *, #749, .F. ) ;
#120 = EDGE_LOOP ( 'NONE', ( #1118, #301 ) ) ;
#121 = CARTESIAN_POINT ( 'NONE',  ( 113.3000000000000114, 0.000000000000000000, 0.000000000000000000 ) ) ;
#122 = EDGE_CURVE ( 'NONE', #391, #674, #428, .T. ) ;
#123 = CARTESIAN_POINT ( 'NONE',  ( 26.00000000000000355, 9.172604525613680109E-16, -7.490000000000003766 ) ) ;
#124 = VERTEX_POINT ( 'NONE', #874 ) ;
#125 = VERTEX_POINT ( 'NONE', #507 ) ;
#126 = CARTESIAN_POINT ( 'NONE',  ( 0.000000000000000000, 0.000000000000000000, 0.000000000000000000 ) ) ;
#127 = CC_DESIGN_APPROVAL ( #28, ( #954 ) ) ;
#128 = EDGE_CURVE ( 'NONE', #1143, #658, #140, .T. ) ;
#129 = DIRECTION ( 'NONE',  ( 1.000000000000000000, 0.000000000000000000, 0.000000000000000000 ) ) ;
#130 = CIRCLE ( 'NONE', #787, 7.490000000000001990 ) ;
#131 = CARTESIAN_POINT ( 'NONE',  ( 38.50000000000000000, 0.000000000000000000, 4.790000000000006253 ) ) ;
#132 = ORIENTED_EDGE ( 'NONE', *, *, #67, .F. ) ;
#133 = CARTESIAN_POINT ( 'NONE',  ( 1.224646799147250347E-18, 0.000000000000000000, 0.000000000000000000 ) ) ;
#134 = CARTESIAN_POINT ( 'NONE',  ( 26.00000000000000000, 0.000000000000000000, 0.000000000000000000 ) ) ;
#135 = AXIS2_PLACEMENT_3D ( 'NONE', #826, #804, #370 ) ;
#136 = ORIENTED_EDGE ( 'NONE', *, *, #364, .T. ) ;
#137 = ORIENTED_EDGE ( 'NONE', *, *, #649, .T. ) ;
#138 = CARTESIAN_POINT ( 'NONE',  ( 0.000000000000000000, 5.866058167915829334E-16, -4.790000000000006253 ) ) ;
#139 = CARTESIAN_POINT ( 'NONE',  ( 0.000000000000000000, 0.000000000000000000, 0.000000000000000000 ) ) ;
#140 = LINE ( 'NONE', #145, #259 ) ;
#141 = ORIENTED_EDGE ( 'NONE', *, *, #852, .F. ) ;
#142 = PLANE ( 'NONE',  #1007 ) ;
#143 = DIRECTION ( 'NONE',  ( 0.000000000000000000, 0.000000000000000000, 1.000000000000000000 ) ) ;
#144 = CIRCLE ( 'NONE', #878, 7.490000000000001990 ) ;
#145 = CARTESIAN_POINT ( 'NONE',  ( 0.000000000000000000, 5.866058167915823418E-16, -4.790000000000000924 ) ) ;
#146 = EDGE_CURVE ( 'NONE', #263, #560, #398, .T. ) ;
#147 = ORIENTED_EDGE ( 'NONE', *, *, #888, .F. ) ;
#148 = CARTESIAN_POINT ( 'NONE',  ( 39.50000000000000711, 0.000000000000000000, 4.990000000000004654 ) ) ;
#149 = ADVANCED_FACE ( 'NONE', ( #64 ), #693, .T. ) ;
#150 = FACE_BOUND ( 'NONE', #49, .T. ) ;
#151 = AXIS2_PLACEMENT_3D ( 'NONE', #512, #331, #1062 ) ;
#152 = ORIENTED_EDGE ( 'NONE', *, *, #496, .T. ) ;
#153 = DIRECTION ( 'NONE',  ( -1.000000000000000000, -0.000000000000000000, -0.000000000000000000 ) ) ;
#154 = ADVANCED_FACE ( 'NONE', ( #518 ), #240, .F. ) ;
#155 = DIRECTION ( 'NONE',  ( 0.000000000000000000, 0.000000000000000000, -1.000000000000000000 ) ) ;
#156 = ORIENTED_EDGE ( 'NONE', *, *, #743, .T. ) ;
#157 = CARTESIAN_POINT ( 'NONE',  ( 0.000000000000000000, 0.000000000000000000, 0.000000000000000000 ) ) ;
#158 = EDGE_CURVE ( 'NONE', #560, #242, #319, .T. ) ;
#159 = DIRECTION ( 'NONE',  ( -1.000000000000000000, 0.000000000000000000, -0.000000000000000000 ) ) ;
#160 = VERTEX_POINT ( 'NONE', #338 ) ;
#161 = CYLINDRICAL_SURFACE ( 'NONE', #917, 4.990000000000002878 ) ;
#162 = CARTESIAN_POINT ( 'NONE',  ( 14.00000000000000000, -1.999999999999997335, -4.571662717217885863 ) ) ;
#163 = APPROVAL_DATE_TIME ( #965, #926 ) ;
#164 = LINE ( 'NONE', #1001, #79 ) ;
#165 = ADVANCED_FACE ( 'NONE', ( #54 ), #700, .F. ) ;
#166 = ORIENTED_EDGE ( 'NONE', *, *, #250, .F. ) ;
#167 = CARTESIAN_POINT ( 'NONE',  ( 4.000000000000000000, 0.000000000000000000, 4.790000000000001812 ) ) ;
#168 = CIRCLE ( 'NONE', #623, 4.990000000000001101 ) ;
#169 = CARTESIAN_POINT ( 'NONE',  ( 0.000000000000000000, 0.000000000000000000, 0.000000000000000000 ) ) ;
#170 = SHAPE_DEFINITION_REPRESENTATION ( #701, #971 ) ;
#171 = CARTESIAN_POINT ( 'NONE',  ( 39.50000000000000000, 0.000000000000000000, 0.000000000000000000 ) ) ;
#172 = ADVANCED_FACE ( 'NONE', ( #320 ), #687, .T. ) ;
#173 = EDGE_LOOP ( 'NONE', ( #751, #408 ) ) ;
#174 = CARTESIAN_POINT ( 'NONE',  ( 0.000000000000000000, 0.000000000000000000, 0.000000000000000000 ) ) ;
#175 = VECTOR ( 'NONE', #217, 1000.000000000000000 ) ;
#176 = CARTESIAN_POINT ( 'NONE',  ( 113.3000000000000114, 2.000000000000000000, 4.571662717217892968 ) ) ;
#177 = APPROVAL_PERSON_ORGANIZATION ( #438, #872, #265 ) ;
#178 = VERTEX_POINT ( 'NONE', #412 ) ;
#179 = DIRECTION ( 'NONE',  ( -1.000000000000000000, -0.000000000000000000, -0.000000000000000000 ) ) ;
#180 = VERTEX_POINT ( 'NONE', #684 ) ;
#181 = CARTESIAN_POINT ( 'NONE',  ( 14.00000000000000000, 0.000000000000000000, 4.990000000000001101 ) ) ;
#182 = ADVANCED_FACE ( 'NONE', ( #773, #235 ), #1141, .F. ) ;
#183 = AXIS2_PLACEMENT_3D ( 'NONE', #157, #153, #597 ) ;
#184 = CARTESIAN_POINT ( 'NONE',  ( 0.000000000000000000, 0.000000000000000000, 0.000000000000000000 ) ) ;
#185 = ORIENTED_EDGE ( 'NONE', *, *, #735, .T. ) ;
#186 = CARTESIAN_POINT ( 'NONE',  ( 6.123233995736251736E-19, 0.000000000000000000, -4.990000000000000213 ) ) ;
#187 = AXIS2_PLACEMENT_3D ( 'NONE', #121, #476, #850 ) ;
#188 = AXIS2_PLACEMENT_3D ( 'NONE', #246, #423, #779 ) ;
#189 = ORIENTED_EDGE ( 'NONE', *, *, #1070, .F. ) ;
#190 = DIRECTION ( 'NONE',  ( -1.000000000000000000, -0.000000000000000000, -0.000000000000000000 ) ) ;
#191 = AXIS2_PLACEMENT_3D ( 'NONE', #102, #363, #449 ) ;
#192 = DIRECTION ( 'NONE',  ( -1.000000000000000000, -0.000000000000000000, -0.000000000000000000 ) ) ;
#193 = VERTEX_POINT ( 'NONE', #13 ) ;
#194 = DIRECTION ( 'NONE',  ( 0.000000000000000000, 0.000000000000000000, 1.000000000000000000 ) ) ;
#195 = ORIENTED_EDGE ( 'NONE', *, *, #122, .T. ) ;
#196 = DIRECTION ( 'NONE',  ( -1.000000000000000000, -0.000000000000000000, -0.000000000000000000 ) ) ;
#197 = EDGE_CURVE ( 'NONE', #913, #849, #439, .T. ) ;
#198 = CARTESIAN_POINT ( 'NONE',  ( 0.000000000000000000, 0.000000000000000000, 0.000000000000000000 ) ) ;
#199 = ORIENTED_EDGE ( 'NONE', *, *, #905, .T. ) ;
#200 = CC_DESIGN_APPROVAL ( #926, ( #515 ) ) ;
#201 = ORIENTED_EDGE ( 'NONE', *, *, #316, .F. ) ;
#202 = DIRECTION ( 'NONE',  ( -1.000000000000000000, -0.000000000000000000, -0.000000000000000000 ) ) ;
#203 = AXIS2_PLACEMENT_3D ( 'NONE', #271, #558, #922 ) ;
#204 = DIRECTION ( 'NONE',  ( -1.000000000000000000, -0.000000000000000000, -0.000000000000000000 ) ) ;
#205 = EDGE_CURVE ( 'NONE', #588, #508, #433, .T. ) ;
#206 = VERTEX_POINT ( 'NONE', #176 ) ;
#207 = EDGE_LOOP ( 'NONE', ( #152, #1030, #347, #640, #830, #638 ) ) ;
#208 = LINE ( 'NONE', #1013, #74 ) ;
#209 = DIRECTION ( 'NONE',  ( -1.000000000000000000, -0.000000000000000000, -0.000000000000000000 ) ) ;
#210 = DIRECTION ( 'NONE',  ( -1.000000000000000000, -0.000000000000000000, -0.000000000000000000 ) ) ;
#211 = ADVANCED_FACE ( 'NONE', ( #906 ), #995, .F. ) ;
#212 = ORIENTED_EDGE ( 'NONE', *, *, #858, .T. ) ;
#213 = CARTESIAN_POINT ( 'NONE',  ( 0.000000000000000000, 2.000000000000002665, -7.218039900139096687 ) ) ;
#214 = CARTESIAN_POINT ( 'NONE',  ( 0.000000000000000000, 0.000000000000000000, 4.990000000000004654 ) ) ;
#215 = VERTEX_POINT ( 'NONE', #1169 ) ;
#216 = ORIENTED_EDGE ( 'NONE', *, *, #42, .F. ) ;
#217 = DIRECTION ( 'NONE',  ( -1.000000000000000000, -0.000000000000000000, -0.000000000000000000 ) ) ;
#218 = DIRECTION ( 'NONE',  ( -1.000000000000000000, 0.000000000000000000, 0.000000000000000000 ) ) ;
#219 = ORIENTED_EDGE ( 'NONE', *, *, #1125, .T. ) ;
#220 = ORIENTED_EDGE ( 'NONE', *, *, #93, .F. ) ;
#221 = CARTESIAN_POINT ( 'NONE',  ( 103.3000000000000114, 2.000000000000000000, -4.582575694955840717 ) ) ;
#222 = EDGE_CURVE ( 'NONE', #752, #1058, #417, .T. ) ;
#223 = CARTESIAN_POINT ( 'NONE',  ( 24.00000000000000000, -1.999999999999997335, 7.218039900139097576 ) ) ;
#224 = AXIS2_PLACEMENT_3D ( 'NONE', #1104, #489, #745 ) ;
#225 = ORIENTED_EDGE ( 'NONE', *, *, #970, .T. ) ;
#226 = EDGE_LOOP ( 'NONE', ( #816, #1063, #542, #1075 ) ) ;
#227 = DIRECTION ( 'NONE',  ( 0.000000000000000000, 0.000000000000000000, -1.000000000000000000 ) ) ;
#228 = CARTESIAN_POINT ( 'NONE',  ( 29.50000000000000000, 6.110987527745296475E-16, -4.990000000000002878 ) ) ;
#229 = CC_DESIGN_DATE_AND_TIME_ASSIGNMENT ( #886, #879, ( #356 ) ) ;
#230 = DIRECTION ( 'NONE',  ( -0.000000000000000000, 0.000000000000000000, 1.000000000000000000 ) ) ;
#231 = AXIS2_PLACEMENT_3D ( 'NONE', #576, #487, #72 ) ;
#232 = ORIENTED_EDGE ( 'NONE', *, *, #452, .T. ) ;
#233 = CARTESIAN_POINT ( 'NONE',  ( 39.50000000000000711, 6.110987527745302392E-16, -4.990000000000004654 ) ) ;
#234 = VECTOR ( 'NONE', #21, 1000.000000000000000 ) ;
#235 = FACE_OUTER_BOUND ( 'NONE', #1011, .T. ) ;
#236 = VECTOR ( 'NONE', #196, 1000.000000000000000 ) ;
#237 = ORIENTED_EDGE ( 'NONE', *, *, #706, .F. ) ;
#238 = DIRECTION ( 'NONE',  ( 0.000000000000000000, 0.000000000000000000, 1.000000000000000000 ) ) ;
#239 = APPROVAL_STATUS ( 'not_yet_approved' ) ;
#240 = PLANE ( 'NONE',  #815 ) ;
#241 = CIRCLE ( 'NONE', #340, 4.790000000000006253 ) ;
#242 = VERTEX_POINT ( 'NONE', #459 ) ;
#243 = DIRECTION ( 'NONE',  ( 0.000000000000000000, 0.000000000000000000, 1.000000000000000000 ) ) ;
#244 = ADVANCED_FACE ( 'NONE', ( #726, #547 ), #1177, .F. ) ;
#245 = APPROVAL_STATUS ( 'not_yet_approved' ) ;
#246 = CARTESIAN_POINT ( 'NONE',  ( 26.00000000000000000, 0.000000000000000000, 0.000000000000000000 ) ) ;
#247 = ORIENTED_EDGE ( 'NONE', *, *, #956, .F. ) ;
#248 = DIRECTION ( 'NONE',  ( -1.000000000000000000, -0.000000000000000000, -0.000000000000000000 ) ) ;
#249 = CYLINDRICAL_SURFACE ( 'NONE', #482, 4.990000000000009095 ) ;
#250 = EDGE_CURVE ( 'NONE', #562, #180, #299, .T. ) ;
#251 = SECURITY_CLASSIFICATION_LEVEL ( 'unclassified' ) ;
#252 = CARTESIAN_POINT ( 'NONE',  ( 26.00000000000000355, 0.000000000000000000, 0.000000000000000000 ) ) ;
#253 = VERTEX_POINT ( 'NONE', #272 ) ;
#254 = PLANE ( 'NONE',  #410 ) ;
#255 = DIRECTION ( 'NONE',  ( -1.000000000000000000, -0.000000000000000000, -0.000000000000000000 ) ) ;
#256 = CC_DESIGN_PERSON_AND_ORGANIZATION_ASSIGNMENT ( #601, #351, ( #954 ) ) ;
#257 = DATE_TIME_ROLE ( 'classification_date' ) ;
#258 = DIRECTION ( 'NONE',  ( -1.000000000000000000, -0.000000000000000000, -0.000000000000000000 ) ) ;
#259 = VECTOR ( 'NONE', #707, 1000.000000000000000 ) ;
#260 = VECTOR ( 'NONE', #783, 1000.000000000000000 ) ;
#261 = VERTEX_POINT ( 'NONE', #820 ) ;
#262 = DIRECTION ( 'NONE',  ( 0.000000000000000000, -0.000000000000000000, 1.000000000000000000 ) ) ;
#263 = VERTEX_POINT ( 'NONE', #525 ) ;
#264 = DIRECTION ( 'NONE',  ( -1.000000000000000000, -0.000000000000000000, -0.000000000000000000 ) ) ;
#265 = APPROVAL_ROLE ( '' ) ;
#266 = CYLINDRICAL_SURFACE ( 'NONE', #964, 4.790000000000006253 ) ;
#267 = ORIENTED_EDGE ( 'NONE', *, *, #457, .F. ) ;
#268 = CARTESIAN_POINT ( 'NONE',  ( 3.000000000000000000, 0.000000000000000000, 0.000000000000000000 ) ) ;
#269 = CIRCLE ( 'NONE', #698, 4.790000000000001812 ) ;
#270 = EDGE_LOOP ( 'NONE', ( #216, #353, #359, #791, #708, #225, #921, #468 ) ) ;
#271 = CARTESIAN_POINT ( 'NONE',  ( 3.000000000000000000, 0.000000000000000000, 0.000000000000000000 ) ) ;
#272 = CARTESIAN_POINT ( 'NONE',  ( 4.000000000000000000, 0.000000000000000000, 4.990000000000001101 ) ) ;
#273 = AXIS2_PLACEMENT_3D ( 'NONE', #761, #305, #924 ) ;
#274 = VECTOR ( 'NONE', #877, 1000.000000000000000 ) ;
#275 = ORIENTED_EDGE ( 'NONE', *, *, #415, .F. ) ;
#276 = DIRECTION ( 'NONE',  ( 0.000000000000000000, 0.000000000000000000, 1.000000000000000000 ) ) ;
#277 = EDGE_CURVE ( 'NONE', #982, #178, #1081, .T. ) ;
#278 = LINE ( 'NONE', #382, #713 ) ;
#279 = DIRECTION ( 'NONE',  ( -0.000000000000000000, -0.000000000000000000, 1.000000000000000000 ) ) ;
#280 = ORIENTED_EDGE ( 'NONE', *, *, #662, .F. ) ;
#281 = DIRECTION ( 'NONE',  ( -1.000000000000000000, -0.000000000000000000, -0.000000000000000000 ) ) ;
#282 = CYLINDRICAL_SURFACE ( 'NONE', #578, 4.790000000000006253 ) ;
#283 = AXIS2_PLACEMENT_3D ( 'NONE', #171, #530, #88 ) ;
#284 = LINE ( 'NONE', #933, #1065 ) ;
#285 = ORIENTED_EDGE ( 'NONE', *, *, #415, .T. ) ;
#286 = DIRECTION ( 'NONE',  ( -1.000000000000000000, -0.000000000000000000, -0.000000000000000000 ) ) ;
#287 = ORIENTED_EDGE ( 'NONE', *, *, #483, .F. ) ;
#288 = LINE ( 'NONE', #105, #555 ) ;
#289 = EDGE_CURVE ( 'NONE', #658, #849, #1123, .T. ) ;
#290 = DIRECTION ( 'NONE',  ( 0.000000000000000000, 0.000000000000000000, 1.000000000000000000 ) ) ;
#291 = PLANE ( 'NONE',  #273 ) ;
#292 = LOCAL_TIME ( 16, 4, 49.00000000000000000, #337 ) ;
#293 = EDGE_LOOP ( 'NONE', ( #395, #859, #823, #631 ) ) ;
#294 = FACE_BOUND ( 'NONE', #1101, .T. ) ;
#295 = LINE ( 'NONE', #832, #741 ) ;
#296 = DIRECTION ( 'NONE',  ( 0.000000000000000000, 0.000000000000000000, 1.000000000000000000 ) ) ;
#297 = ORIENTED_EDGE ( 'NONE', *, *, #443, .T. ) ;
#298 = DIRECTION ( 'NONE',  ( 0.000000000000000000, 0.000000000000000000, 1.000000000000000000 ) ) ;
#299 = CIRCLE ( 'NONE', #100, 4.990000000000002878 ) ;
#300 = DIRECTION ( 'NONE',  ( -1.000000000000000000, -0.000000000000000000, -0.000000000000000000 ) ) ;
#301 = ORIENTED_EDGE ( 'NONE', *, *, #158, .F. ) ;
#302 = EDGE_LOOP ( 'NONE', ( #373, #185, #812, #1034 ) ) ;
#303 = LINE ( 'NONE', #845, #522 ) ;
#304 = CARTESIAN_POINT ( 'NONE',  ( 24.00000000000000000, 0.000000000000000000, 0.000000000000000000 ) ) ;
#305 = DIRECTION ( 'NONE',  ( 1.000000000000000000, 0.000000000000000000, -0.000000000000000000 ) ) ;
#306 = ORIENTED_EDGE ( 'NONE', *, *, #401, .F. ) ;
#307 = CARTESIAN_POINT ( 'NONE',  ( 3.000000000000000000, 6.110987527745293517E-16, -4.990000000000000213 ) ) ;
#308 = ADVANCED_FACE ( 'NONE', ( #352 ), #266, .T. ) ;
#309 = APPROVAL_PERSON_ORGANIZATION ( #796, #28, #873 ) ;
#310 = FACE_BOUND ( 'NONE', #39, .T. ) ;
#311 = AXIS2_PLACEMENT_3D ( 'NONE', #470, #836, #660 ) ;
#312 = ORIENTED_EDGE ( 'NONE', *, *, #598, .F. ) ;
#313 = EDGE_LOOP ( 'NONE', ( #450, #730, #275, #833 ) ) ;
#314 = CARTESIAN_POINT ( 'NONE',  ( 39.50000000000000711, 0.000000000000000000, 0.000000000000000000 ) ) ;
#315 = EDGE_CURVE ( 'NONE', #548, #386, #599, .T. ) ;
#316 = EDGE_CURVE ( 'NONE', #1132, #215, #1049, .T. ) ;
#317 = DIRECTION ( 'NONE',  ( -1.000000000000000000, -0.000000000000000000, -0.000000000000000000 ) ) ;
#318 = CIRCLE ( 'NONE', #526, 7.490000000000001990 ) ;
#319 = CIRCLE ( 'NONE', #564, 4.990000000000001101 ) ;
#320 = FACE_OUTER_BOUND ( 'NONE', #669, .T. ) ;
#321 = EDGE_LOOP ( 'NONE', ( #736, #768, #999, #119 ) ) ;
#322 = DIRECTION ( 'NONE',  ( 1.000000000000000000, 0.000000000000000000, 0.000000000000000000 ) ) ;
#323 = MANIFOLD_SOLID_BREP ( 'Cut-Extrude9', #637 ) ;
#324 = EDGE_CURVE ( 'NONE', #557, #580, #106, .T. ) ;
#325 = CARTESIAN_POINT ( 'NONE',  ( 24.00000000000000000, 2.000000000000002665, 7.228416147400479552 ) ) ;
#326 = EDGE_LOOP ( 'NONE', ( #690, #406 ) ) ;
#327 = CARTESIAN_POINT ( 'NONE',  ( 0.000000000000000000, 0.000000000000000000, 0.000000000000000000 ) ) ;
#328 = CIRCLE ( 'NONE', #497, 4.990000000000000213 ) ;
#329 = PERSON_AND_ORGANIZATION ( #17, #68 ) ;
#330 = EDGE_CURVE ( 'NONE', #180, #818, #164, .T. ) ;
#331 = DIRECTION ( 'NONE',  ( -1.000000000000000000, -0.000000000000000000, -0.000000000000000000 ) ) ;
#332 = AXIS2_PLACEMENT_3D ( 'NONE', #1140, #317, #1135 ) ;
#333 = EDGE_LOOP ( 'NONE', ( #624, #220, #616, #575, #306, #573 ) ) ;
#334 = CYLINDRICAL_SURFACE ( 'NONE', #426, 4.790000000000000924 ) ;
#335 = AXIS2_PLACEMENT_3D ( 'NONE', #409, #322, #227 ) ;
#336 = CIRCLE ( 'NONE', #771, 7.490000000000001990 ) ;
#337 = COORDINATED_UNIVERSAL_TIME_OFFSET ( 3, 30, .AHEAD. ) ;
#338 = CARTESIAN_POINT ( 'NONE',  ( 30.50000000000000000, 0.000000000000000000, 4.790000000000006253 ) ) ;
#339 = AXIS2_PLACEMENT_3D ( 'NONE', #900, #615, #636 ) ;
#340 = AXIS2_PLACEMENT_3D ( 'NONE', #579, #940, #655 ) ;
#341 = ORIENTED_EDGE ( 'NONE', *, *, #452, .F. ) ;
#342 = DIRECTION ( 'NONE',  ( 0.000000000000000000, 0.000000000000000000, 1.000000000000000000 ) ) ;
#343 = ADVANCED_FACE ( 'NONE', ( #716 ), #83, .T. ) ;
#344 = FACE_OUTER_BOUND ( 'NONE', #747, .T. ) ;
#345 = CARTESIAN_POINT ( 'NONE',  ( 0.000000000000000000, 0.000000000000000000, 0.000000000000000000 ) ) ;
#346 = CARTESIAN_POINT ( 'NONE',  ( 29.50000000000000000, 0.000000000000000000, -4.790000000000005365 ) ) ;
#347 = ORIENTED_EDGE ( 'NONE', *, *, #122, .F. ) ;
#348 = FACE_OUTER_BOUND ( 'NONE', #313, .T. ) ;
#349 = EDGE_CURVE ( 'NONE', #178, #391, #8, .T. ) ;
#350 = FACE_OUTER_BOUND ( 'NONE', #302, .T. ) ;
#351 = PERSON_AND_ORGANIZATION_ROLE ( 'design_supplier' ) ;
#352 = FACE_OUTER_BOUND ( 'NONE', #365, .T. ) ;
#353 = ORIENTED_EDGE ( 'NONE', *, *, #881, .T. ) ;
#354 = CARTESIAN_POINT ( 'NONE',  ( 4.000000000000000000, 0.000000000000000000, 0.000000000000000000 ) ) ;
#355 = DIRECTION ( 'NONE',  ( 0.000000000000000000, 0.000000000000000000, 1.000000000000000000 ) ) ;
#356 = PRODUCT_DEFINITION ( 'UNKNOWN', '', #954, #442 ) ;
#357 = APPLICATION_PROTOCOL_DEFINITION ( 'international standard', 'config_control_design', 1994, #446 ) ;
#358 = DIRECTION ( 'NONE',  ( -0.000000000000000000, 0.000000000000000000, 1.000000000000000000 ) ) ;
#359 = ORIENTED_EDGE ( 'NONE', *, *, #598, .T. ) ;
#360 = AXIS2_PLACEMENT_3D ( 'NONE', #325, #1066, #608 ) ;
#361 = AXIS2_PLACEMENT_3D ( 'NONE', #81, #264, #437 ) ;
#362 = CARTESIAN_POINT ( 'NONE',  ( 29.50000000000000000, 0.000000000000000000, 4.790000000000005365 ) ) ;
#363 = DIRECTION ( 'NONE',  ( -1.000000000000000000, -0.000000000000000000, -0.000000000000000000 ) ) ;
#364 = EDGE_CURVE ( 'NONE', #10, #92, #794, .T. ) ;
#365 = EDGE_LOOP ( 'NONE', ( #136, #927, #287, #147 ) ) ;
#366 = FACE_OUTER_BOUND ( 'NONE', #609, .T. ) ;
#367 = VECTOR ( 'NONE', #503, 1000.000000000000000 ) ;
#368 = ORIENTED_EDGE ( 'NONE', *, *, #289, .T. ) ;
#369 = DIRECTION ( 'NONE',  ( -1.000000000000000000, -0.000000000000000000, -0.000000000000000000 ) ) ;
#370 = DIRECTION ( 'NONE',  ( -0.000000000000000000, 0.000000000000000000, 1.000000000000000000 ) ) ;
#371 = LOCAL_TIME ( 16, 4, 49.00000000000000000, #986 ) ;
#372 = CC_DESIGN_PERSON_AND_ORGANIZATION_ASSIGNMENT ( #422, #715, ( #356 ) ) ;
#373 = ORIENTED_EDGE ( 'NONE', *, *, #668, .F. ) ;
#374 = CARTESIAN_POINT ( 'NONE',  ( 3.000000000000000000, 0.000000000000000000, 0.000000000000000000 ) ) ;
#375 = CARTESIAN_POINT ( 'NONE',  ( 14.00000000000000000, -1.999999999999997335, 7.218039900139097576 ) ) ;
#376 = AXIS2_PLACEMENT_3D ( 'NONE', #841, #675, #582 ) ;
#377 = VECTOR ( 'NONE', #441, 1000.000000000000000 ) ;
#378 = CARTESIAN_POINT ( 'NONE',  ( 29.50000000000000000, 0.000000000000000000, 0.000000000000000000 ) ) ;
#379 = EDGE_LOOP ( 'NONE', ( #756, #368 ) ) ;
#380 = CARTESIAN_POINT ( 'NONE',  ( 0.000000000000000000, 5.866058167915829334E-16, -4.790000000000006253 ) ) ;
#381 = ORIENTED_EDGE ( 'NONE', *, *, #315, .F. ) ;
#382 = CARTESIAN_POINT ( 'NONE',  ( 103.3000000000000114, -2.000000000000000000, 4.582575694955839829 ) ) ;
#383 = EDGE_CURVE ( 'NONE', #125, #206, #1027, .T. ) ;
#384 = DIRECTION ( 'NONE',  ( 0.000000000000000000, 0.000000000000000000, 1.000000000000000000 ) ) ;
#385 = ORIENTED_EDGE ( 'NONE', *, *, #445, .T. ) ;
#386 = VERTEX_POINT ( 'NONE', #123 ) ;
#387 = CARTESIAN_POINT ( 'NONE',  ( 30.50000000000000000, 0.000000000000000000, 0.000000000000000000 ) ) ;
#388 = ADVANCED_FACE ( 'NONE', ( #650 ), #112, .F. ) ;
#389 = CARTESIAN_POINT ( 'NONE',  ( 38.50000000000000000, 0.000000000000000000, 0.000000000000000000 ) ) ;
#390 = DIRECTION ( 'NONE',  ( -1.000000000000000000, -0.000000000000000000, -0.000000000000000000 ) ) ;
#391 = VERTEX_POINT ( 'NONE', #565 ) ;
#392 = CARTESIAN_POINT ( 'NONE',  ( 14.00000000000000000, 9.172604525613678137E-16, -7.490000000000001990 ) ) ;
#393 = DIRECTION ( 'NONE',  ( 0.000000000000000000, 0.000000000000000000, -1.000000000000000000 ) ) ;
#394 = ADVANCED_FACE ( 'NONE', ( #400 ), #1117, .T. ) ;
#395 = ORIENTED_EDGE ( 'NONE', *, *, #539, .T. ) ;
#396 = ORIENTED_EDGE ( 'NONE', *, *, #277, .F. ) ;
#397 = PLANE ( 'NONE',  #335 ) ;
#398 = CIRCLE ( 'NONE', #505, 4.990000000000001101 ) ;
#399 = AXIS2_PLACEMENT_3D ( 'NONE', #184, #621, #988 ) ;
#400 = FACE_OUTER_BOUND ( 'NONE', #1094, .T. ) ;
#401 = EDGE_CURVE ( 'NONE', #84, #961, #295, .T. ) ;
#402 = ORIENTED_EDGE ( 'NONE', *, *, #524, .T. ) ;
#403 = VERTEX_POINT ( 'NONE', #36 ) ;
#404 = CARTESIAN_POINT ( 'NONE',  ( 38.50000000000000000, 5.866058167915829334E-16, -4.790000000000006253 ) ) ;
#405 = CARTESIAN_POINT ( 'NONE',  ( 26.00000000000000355, 0.000000000000000000, 0.000000000000000000 ) ) ;
#406 = ORIENTED_EDGE ( 'NONE', *, *, #434, .F. ) ;
#407 = CIRCLE ( 'NONE', #534, 4.990000000000001101 ) ;
#408 = ORIENTED_EDGE ( 'NONE', *, *, #205, .T. ) ;
#409 = CARTESIAN_POINT ( 'NONE',  ( 103.3000000000000114, 0.000000000000000000, 0.000000000000000000 ) ) ;
#410 = AXIS2_PLACEMENT_3D ( 'NONE', #703, #983, #262 ) ;
#411 = FACE_OUTER_BOUND ( 'NONE', #991, .T. ) ;
#412 = CARTESIAN_POINT ( 'NONE',  ( 14.00000000000000000, 2.000000000000003109, -4.571662717217884087 ) ) ;
#413 = ORIENTED_EDGE ( 'NONE', *, *, #443, .F. ) ;
#414 = DIRECTION ( 'NONE',  ( 0.000000000000000000, 0.000000000000000000, 1.000000000000000000 ) ) ;
#415 = EDGE_CURVE ( 'NONE', #818, #848, #778, .T. ) ;
#416 = CARTESIAN_POINT ( 'NONE',  ( 26.00000000000000355, 0.000000000000000000, 7.490000000000002878 ) ) ;
#417 = CIRCLE ( 'NONE', #742, 4.990000000000004654 ) ;
#418 = PLANE ( 'NONE',  #1008 ) ;
#419 = ORIENTED_EDGE ( 'NONE', *, *, #86, .F. ) ;
#420 = CARTESIAN_POINT ( 'NONE',  ( 14.00000000000000000, 0.000000000000000000, 0.000000000000000000 ) ) ;
#421 = EDGE_CURVE ( 'NONE', #253, #27, #168, .T. ) ;
#422 = PERSON_AND_ORGANIZATION ( #17, #68 ) ;
#423 = DIRECTION ( 'NONE',  ( -1.000000000000000000, -0.000000000000000000, -0.000000000000000000 ) ) ;
#424 = ORIENTED_EDGE ( 'NONE', *, *, #324, .F. ) ;
#425 = FACE_OUTER_BOUND ( 'NONE', #996, .T. ) ;
#426 = AXIS2_PLACEMENT_3D ( 'NONE', #1159, #1064, #243 ) ;
#427 = MECHANICAL_CONTEXT ( 'NONE', #710, 'mechanical' ) ;
#428 = LINE ( 'NONE', #790, #260 ) ;
#429 = ORIENTED_EDGE ( 'NONE', *, *, #349, .F. ) ;
#430 = CARTESIAN_POINT ( 'NONE',  ( 0.000000000000000000, 0.000000000000000000, 4.990000000000009095 ) ) ;
#431 = CYLINDRICAL_SURFACE ( 'NONE', #776, 4.790000000000006253 ) ;
#432 = CIRCLE ( 'NONE', #117, 7.490000000000001990 ) ;
#433 = CIRCLE ( 'NONE', #191, 4.990000000000004654 ) ;
#434 = EDGE_CURVE ( 'NONE', #23, #55, #432, .T. ) ;
#435 = ORIENTED_EDGE ( 'NONE', *, *, #694, .F. ) ;
#436 = DIRECTION ( 'NONE',  ( 0.000000000000000000, 0.000000000000000000, 1.000000000000000000 ) ) ;
#437 = DIRECTION ( 'NONE',  ( 0.000000000000000000, 0.000000000000000000, 1.000000000000000000 ) ) ;
#438 = PERSON_AND_ORGANIZATION ( #17, #68 ) ;
#439 = LINE ( 'NONE', #1098, #722 ) ;
#440 = ORIENTED_EDGE ( 'NONE', *, *, #250, .T. ) ;
#441 = DIRECTION ( 'NONE',  ( -1.000000000000000000, -0.000000000000000000, -0.000000000000000000 ) ) ;
#442 = DESIGN_CONTEXT ( 'detailed design', #446, 'design' ) ;
#443 = EDGE_CURVE ( 'NONE', #548, #193, #1021, .T. ) ;
#444 = CARTESIAN_POINT ( 'NONE',  ( 39.50000000000000000, 0.000000000000000000, 0.000000000000000000 ) ) ;
#445 = EDGE_CURVE ( 'NONE', #206, #215, #923, .T. ) ;
#446 = APPLICATION_CONTEXT ( 'configuration controlled 3d designs of mechanical parts and assemblies' ) ;
#447 = LOCAL_TIME ( 16, 4, 49.00000000000000000, #607 ) ;
#448 = AXIS2_PLACEMENT_3D ( 'NONE', #831, #116, #456 ) ;
#449 = DIRECTION ( 'NONE',  ( 0.000000000000000000, 0.000000000000000000, 1.000000000000000000 ) ) ;
#450 = ORIENTED_EDGE ( 'NONE', *, *, #457, .T. ) ;
#451 = DIRECTION ( 'NONE',  ( 1.000000000000000000, 0.000000000000000000, 0.000000000000000000 ) ) ;
#452 = EDGE_CURVE ( 'NONE', #386, #548, #583, .T. ) ;
#453 = DIRECTION ( 'NONE',  ( -1.000000000000000000, -0.000000000000000000, -0.000000000000000000 ) ) ;
#454 = ORIENTED_EDGE ( 'NONE', *, *, #749, .T. ) ;
#455 = DIRECTION ( 'NONE',  ( -1.000000000000000000, -0.000000000000000000, -0.000000000000000000 ) ) ;
#456 = DIRECTION ( 'NONE',  ( 0.000000000000000000, 0.000000000000000000, 1.000000000000000000 ) ) ;
#457 = EDGE_CURVE ( 'NONE', #180, #562, #78, .T. ) ;
#458 = VECTOR ( 'NONE', #758, 1000.000000000000000 ) ;
#459 = CARTESIAN_POINT ( 'NONE',  ( 14.00000000000000000, -1.999999999999997335, 4.571662717217885863 ) ) ;
#460 = ORIENTED_EDGE ( 'NONE', *, *, #222, .T. ) ;
#461 = DIRECTION ( 'NONE',  ( 0.000000000000000000, 0.000000000000000000, 1.000000000000000000 ) ) ;
#462 = CARTESIAN_POINT ( 'NONE',  ( 29.50000000000000000, 5.866058167915828348E-16, -4.790000000000005365 ) ) ;
#463 = CARTESIAN_POINT ( 'NONE',  ( 14.00000000000000000, 2.000000000000002665, 7.228416147400479552 ) ) ;
#464 = ORIENTED_EDGE ( 'NONE', *, *, #1037, .T. ) ;
#465 = CARTESIAN_POINT ( 'NONE',  ( 1.224646799147250347E-18, 0.000000000000000000, 4.990000000000000213 ) ) ;
#466 = CYLINDRICAL_SURFACE ( 'NONE', #448, 4.790000000000006253 ) ;
#467 = DIRECTION ( 'NONE',  ( -1.000000000000000000, -0.000000000000000000, -0.000000000000000000 ) ) ;
#468 = ORIENTED_EDGE ( 'NONE', *, *, #222, .F. ) ;
#469 = CC_DESIGN_PERSON_AND_ORGANIZATION_ASSIGNMENT ( #523, #628, ( #786 ) ) ;
#470 = CARTESIAN_POINT ( 'NONE',  ( 29.50000000000000000, 0.000000000000000000, 0.000000000000000000 ) ) ;
#471 = VECTOR ( 'NONE', #891, 1000.000000000000000 ) ;
#472 = VECTOR ( 'NONE', #661, 1000.000000000000000 ) ;
#473 = CARTESIAN_POINT ( 'NONE',  ( 0.000000000000000000, 0.000000000000000000, 7.490000000000001990 ) ) ;
#474 = ORIENTED_EDGE ( 'NONE', *, *, #852, .T. ) ;
#475 = ORIENTED_EDGE ( 'NONE', *, *, #888, .T. ) ;
#476 = DIRECTION ( 'NONE',  ( -1.000000000000000000, -0.000000000000000000, -0.000000000000000000 ) ) ;
#477 = CARTESIAN_POINT ( 'NONE',  ( 14.00000000000000000, 0.000000000000000000, -7.490000000000001990 ) ) ;
#478 = CARTESIAN_POINT ( 'NONE',  ( 24.00000000000000000, 2.000000000000002665, 7.218039900139096687 ) ) ;
#479 = CIRCLE ( 'NONE', #689, 4.990000000000001101 ) ;
#480 = ORIENTED_EDGE ( 'NONE', *, *, #770, .F. ) ;
#481 = LINE ( 'NONE', #138, #605 ) ;
#482 = AXIS2_PLACEMENT_3D ( 'NONE', #139, #255, #355 ) ;
#483 = EDGE_CURVE ( 'NONE', #1, #853, #885, .T. ) ;
#484 = DIRECTION ( 'NONE',  ( 0.000000000000000000, 0.000000000000000000, 1.000000000000000000 ) ) ;
#485 = ORIENTED_EDGE ( 'NONE', *, *, #612, .F. ) ;
#486 = ORIENTED_EDGE ( 'NONE', *, *, #330, .T. ) ;
#487 = DIRECTION ( 'NONE',  ( -1.000000000000000000, -0.000000000000000000, -0.000000000000000000 ) ) ;
#488 = AXIS2_PLACEMENT_3D ( 'NONE', #627, #992, #765 ) ;
#489 = DIRECTION ( 'NONE',  ( -1.000000000000000000, -0.000000000000000000, -0.000000000000000000 ) ) ;
#490 = ORIENTED_EDGE ( 'NONE', *, *, #1043, .T. ) ;
#491 = EDGE_CURVE ( 'NONE', #124, #1099, #929, .T. ) ;
#492 = ORIENTED_EDGE ( 'NONE', *, *, #197, .F. ) ;
#493 = DIRECTION ( 'NONE',  ( -1.000000000000000000, -0.000000000000000000, -0.000000000000000000 ) ) ;
#494 = DIRECTION ( 'NONE',  ( 1.000000000000000000, 0.000000000000000000, 0.000000000000000000 ) ) ;
#495 = CARTESIAN_POINT ( 'NONE',  ( 14.00000000000000000, 0.000000000000000000, 0.000000000000000000 ) ) ;
#496 = EDGE_CURVE ( 'NONE', #667, #193, #318, .T. ) ;
#497 = AXIS2_PLACEMENT_3D ( 'NONE', #268, #549, #98 ) ;
#498 = ORIENTED_EDGE ( 'NONE', *, *, #987, .F. ) ;
#499 = PLANE ( 'NONE',  #1067 ) ;
#500 = DIRECTION ( 'NONE',  ( 0.000000000000000000, 0.000000000000000000, 1.000000000000000000 ) ) ;
#501 = CARTESIAN_POINT ( 'NONE',  ( 14.00000000000000000, -1.999999999999997335, 7.228416147400479552 ) ) ;
#502 = ORIENTED_EDGE ( 'NONE', *, *, #762, .F. ) ;
#503 = DIRECTION ( 'NONE',  ( 0.000000000000000000, 0.000000000000000000, -1.000000000000000000 ) ) ;
#504 = EDGE_CURVE ( 'NONE', #915, #508, #1026, .T. ) ;
#505 = AXIS2_PLACEMENT_3D ( 'NONE', #869, #1146, #1150 ) ;
#506 = APPROVAL_DATE_TIME ( #63, #872 ) ;
#507 = CARTESIAN_POINT ( 'NONE',  ( 113.3000000000000114, 0.000000000000000000, 4.990000000000013536 ) ) ;
#508 = VERTEX_POINT ( 'NONE', #571 ) ;
#509 = CARTESIAN_POINT ( 'NONE',  ( 0.000000000000000000, 0.000000000000000000, 0.000000000000000000 ) ) ;
#510 = AXIS2_PLACEMENT_3D ( 'NONE', #126, #665, #753 ) ;
#511 = EDGE_CURVE ( 'NONE', #1132, #854, #284, .T. ) ;
#512 = CARTESIAN_POINT ( 'NONE',  ( 0.000000000000000000, 0.000000000000000000, 0.000000000000000000 ) ) ;
#513 = ORIENTED_EDGE ( 'NONE', *, *, #1157, .F. ) ;
#514 = CARTESIAN_POINT ( 'NONE',  ( 14.00000000000000000, 2.000000000000002665, -7.218039900139096687 ) ) ;
#515 = SECURITY_CLASSIFICATION ( '', '', #251 ) ;
#516 = ADVANCED_FACE ( 'NONE', ( #846 ), #41, .T. ) ;
#517 = VECTOR ( 'NONE', #210, 1000.000000000000000 ) ;
#518 = FACE_OUTER_BOUND ( 'NONE', #207, .T. ) ;
#519 = ORIENTED_EDGE ( 'NONE', *, *, #524, .F. ) ;
#520 = CYLINDRICAL_SURFACE ( 'NONE', #183, 4.990000000000009095 ) ;
#521 = DIRECTION ( 'NONE',  ( -0.000000000000000000, -0.000000000000000000, -1.000000000000000000 ) ) ;
#522 = VECTOR ( 'NONE', #493, 1000.000000000000000 ) ;
#523 = PERSON_AND_ORGANIZATION ( #17, #68 ) ;
#524 = EDGE_CURVE ( 'NONE', #160, #261, #241, .T. ) ;
#525 = CARTESIAN_POINT ( 'NONE',  ( 14.00000000000000000, 6.110987527745294503E-16, -4.990000000000001101 ) ) ;
#526 = AXIS2_PLACEMENT_3D ( 'NONE', #918, #1129, #1033 ) ;
#527 = ORIENTED_EDGE ( 'NONE', *, *, #401, .T. ) ;
#528 = CARTESIAN_POINT ( 'NONE',  ( 14.00000000000000000, 0.000000000000000000, 0.000000000000000000 ) ) ;
#529 = DIRECTION ( 'NONE',  ( -1.000000000000000000, -0.000000000000000000, -0.000000000000000000 ) ) ;
#530 = DIRECTION ( 'NONE',  ( -1.000000000000000000, -0.000000000000000000, -0.000000000000000000 ) ) ;
#531 = EDGE_LOOP ( 'NONE', ( #527, #3, #1018, #312 ) ) ;
#532 = ADVANCED_FACE ( 'NONE', ( #411, #611 ), #1044, .F. ) ;
#533 = DIRECTION ( 'NONE',  ( -1.000000000000000000, -0.000000000000000000, -0.000000000000000000 ) ) ;
#534 = AXIS2_PLACEMENT_3D ( 'NONE', #799, #77, #709 ) ;
#535 = VECTOR ( 'NONE', #24, 1000.000000000000000 ) ;
#536 = DIRECTION ( 'NONE',  ( -1.000000000000000000, -0.000000000000000000, -0.000000000000000000 ) ) ;
#537 = ORIENTED_EDGE ( 'NONE', *, *, #1037, .F. ) ;
#538 = FACE_OUTER_BOUND ( 'NONE', #647, .T. ) ;
#539 = EDGE_CURVE ( 'NONE', #915, #403, #946, .T. ) ;
#540 = DIRECTION ( 'NONE',  ( 0.000000000000000000, 0.000000000000000000, 1.000000000000000000 ) ) ;
#541 = DIRECTION ( 'NONE',  ( -0.000000000000000000, -0.000000000000000000, 1.000000000000000000 ) ) ;
#542 = ORIENTED_EDGE ( 'NONE', *, *, #569, .F. ) ;
#543 = FACE_OUTER_BOUND ( 'NONE', #65, .T. ) ;
#544 = ORIENTED_EDGE ( 'NONE', *, *, #735, .F. ) ;
#545 = CARTESIAN_POINT ( 'NONE',  ( 0.000000000000000000, 6.110987527745294503E-16, -4.990000000000001101 ) ) ;
#546 = EDGE_CURVE ( 'NONE', #261, #160, #1010, .T. ) ;
#547 = FACE_BOUND ( 'NONE', #1002, .T. ) ;
#548 = VERTEX_POINT ( 'NONE', #416 ) ;
#549 = DIRECTION ( 'NONE',  ( -1.000000000000000000, -0.000000000000000000, -0.000000000000000000 ) ) ;
#550 = VERTEX_POINT ( 'NONE', #223 ) ;
#551 = CARTESIAN_POINT ( 'NONE',  ( 113.3000000000000114, 6.110987527745310280E-16, -4.990000000000013536 ) ) ;
#552 = AXIS2_PLACEMENT_3D ( 'NONE', #186, #909, #729 ) ;
#553 = DIRECTION ( 'NONE',  ( 0.000000000000000000, 0.000000000000000000, 1.000000000000000000 ) ) ;
#554 = ADVANCED_FACE ( 'NONE', ( #350 ), #712, .T. ) ;
#555 = VECTOR ( 'NONE', #725, 1000.000000000000000 ) ;
#556 = ORIENTED_EDGE ( 'NONE', *, *, #1125, .F. ) ;
#557 = VERTEX_POINT ( 'NONE', #952 ) ;
#558 = DIRECTION ( 'NONE',  ( -1.000000000000000000, -0.000000000000000000, -0.000000000000000000 ) ) ;
#559 = DIRECTION ( 'NONE',  ( 0.000000000000000000, 0.000000000000000000, -1.000000000000000000 ) ) ;
#560 = VERTEX_POINT ( 'NONE', #162 ) ;
#561 = ADVANCED_FACE ( 'NONE', ( #1071 ), #862, .T. ) ;
#562 = VERTEX_POINT ( 'NONE', #228 ) ;
#563 = CARTESIAN_POINT ( 'NONE',  ( 3.000000000000000000, 5.866058167915823418E-16, -4.790000000000000924 ) ) ;
#564 = AXIS2_PLACEMENT_3D ( 'NONE', #495, #1052, #949 ) ;
#565 = CARTESIAN_POINT ( 'NONE',  ( 14.00000000000000000, 2.000000000000002665, 4.571662717217883198 ) ) ;
#566 = CARTESIAN_POINT ( 'NONE',  ( 24.00000000000000000, -1.999999999999997335, 7.228416147400479552 ) ) ;
#567 = ORIENTED_EDGE ( 'NONE', *, *, #158, .T. ) ;
#568 = LINE ( 'NONE', #764, #73 ) ;
#569 = EDGE_CURVE ( 'NONE', #215, #1132, #585, .T. ) ;
#570 = AXIS2_PLACEMENT_3D ( 'NONE', #968, #1165, #85 ) ;
#571 = CARTESIAN_POINT ( 'NONE',  ( 30.50000000000000000, 0.000000000000000000, 4.990000000000004654 ) ) ;
#572 = VECTOR ( 'NONE', #75, 1000.000000000000000 ) ;
#573 = ORIENTED_EDGE ( 'NONE', *, *, #881, .F. ) ;
#574 = AXIS2_PLACEMENT_3D ( 'NONE', #15, #740, #194 ) ;
#575 = ORIENTED_EDGE ( 'NONE', *, *, #970, .F. ) ;
#576 = CARTESIAN_POINT ( 'NONE',  ( 14.00000000000000000, 0.000000000000000000, 0.000000000000000000 ) ) ;
#577 = EDGE_CURVE ( 'NONE', #92, #10, #600, .T. ) ;
#578 = AXIS2_PLACEMENT_3D ( 'NONE', #641, #369, #1000 ) ;
#579 = CARTESIAN_POINT ( 'NONE',  ( 30.50000000000000000, 0.000000000000000000, 0.000000000000000000 ) ) ;
#580 = VERTEX_POINT ( 'NONE', #94 ) ;
#581 = VERTEX_POINT ( 'NONE', #676 ) ;
#582 = DIRECTION ( 'NONE',  ( 0.000000000000000000, 0.000000000000000000, 1.000000000000000000 ) ) ;
#583 = CIRCLE ( 'NONE', #1103, 7.490000000000002878 ) ;
#584 = AXIS2_PLACEMENT_3D ( 'NONE', #477, #1039, #393 ) ;
#585 = LINE ( 'NONE', #772, #80 ) ;
#586 = ADVANCED_FACE ( 'NONE', ( #793 ), #87, .F. ) ;
#587 = DIRECTION ( 'NONE',  ( -1.000000000000000000, -0.000000000000000000, -0.000000000000000000 ) ) ;
#588 = VERTEX_POINT ( 'NONE', #1175 ) ;
#589 = FACE_OUTER_BOUND ( 'NONE', #226, .T. ) ;
#590 = CARTESIAN_POINT ( 'NONE',  ( 30.50000000000000000, 0.000000000000000000, -4.990000000000004654 ) ) ;
#591 = ADVANCED_FACE ( 'NONE', ( #619 ), #1077, .T. ) ;
#592 = CARTESIAN_POINT ( 'NONE',  ( 4.000000000000000000, 0.000000000000000000, -4.990000000000001101 ) ) ;
#593 = ORIENTED_EDGE ( 'NONE', *, *, #364, .F. ) ;
#594 = CARTESIAN_POINT ( 'NONE',  ( 26.00000000000000000, 6.110987527745297461E-16, -4.990000000000003766 ) ) ;
#595 = DIRECTION ( 'NONE',  ( 1.000000000000000000, 0.000000000000000000, 0.000000000000000000 ) ) ;
#596 = EDGE_LOOP ( 'NONE', ( #1024, #903, #1113, #492 ) ) ;
#597 = DIRECTION ( 'NONE',  ( 0.000000000000000000, 0.000000000000000000, 1.000000000000000000 ) ) ;
#598 = EDGE_CURVE ( 'NONE', #84, #71, #856, .T. ) ;
#599 = CIRCLE ( 'NONE', #759, 7.490000000000002878 ) ;
#600 = CIRCLE ( 'NONE', #43, 4.790000000000005365 ) ;
#601 = PERSON_AND_ORGANIZATION ( #17, #68 ) ;
#602 = LINE ( 'NONE', #501, #572 ) ;
#603 = ORIENTED_EDGE ( 'NONE', *, *, #421, .T. ) ;
#604 = CARTESIAN_POINT ( 'NONE',  ( 14.00000000000000000, -1.999999999999997335, 7.228416147400479552 ) ) ;
#605 = VECTOR ( 'NONE', #938, 1000.000000000000000 ) ;
#606 = ADVANCED_FACE ( 'NONE', ( #344 ), #249, .T. ) ;
#607 = COORDINATED_UNIVERSAL_TIME_OFFSET ( 3, 30, .AHEAD. ) ;
#608 = DIRECTION ( 'NONE',  ( 0.000000000000000000, -0.000000000000000000, -1.000000000000000000 ) ) ;
#609 = EDGE_LOOP ( 'NONE', ( #1119, #212 ) ) ;
#610 = CARTESIAN_POINT ( 'NONE',  ( 113.3000000000000114, -2.000000000000000000, 4.571662717217892968 ) ) ;
#611 = FACE_BOUND ( 'NONE', #908, .T. ) ;
#612 = EDGE_CURVE ( 'NONE', #562, #848, #719, .T. ) ;
#613 = EDGE_CURVE ( 'NONE', #242, #651, #1060, .T. ) ;
#614 = DATE_AND_TIME ( #692, #635 ) ;
#615 = DIRECTION ( 'NONE',  ( 1.000000000000000000, 0.000000000000000000, 0.000000000000000000 ) ) ;
#616 = ORIENTED_EDGE ( 'NONE', *, *, #383, .F. ) ;
#617 = DIRECTION ( 'NONE',  ( 0.000000000000000000, 0.000000000000000000, 1.000000000000000000 ) ) ;
#618 = UNCERTAINTY_MEASURE_WITH_UNIT (LENGTH_MEASURE( 1.000000000000000082E-05 ), #896, 'distance_accuracy_value', 'NONE');
#619 = FACE_OUTER_BOUND ( 'NONE', #1041, .T. ) ;
#620 = COORDINATED_UNIVERSAL_TIME_OFFSET ( 3, 30, .AHEAD. ) ;
#621 = DIRECTION ( 'NONE',  ( -1.000000000000000000, -0.000000000000000000, -0.000000000000000000 ) ) ;
#622 = ADVANCED_FACE ( 'NONE', ( #310, #683 ), #1050, .F. ) ;
#623 = AXIS2_PLACEMENT_3D ( 'NONE', #47, #1122, #484 ) ;
#624 = ORIENTED_EDGE ( 'NONE', *, *, #998, .F. ) ;
#625 = PLANE ( 'NONE',  #552 ) ;
#626 = ORIENTED_EDGE ( 'NONE', *, *, #421, .F. ) ;
#627 = CARTESIAN_POINT ( 'NONE',  ( 24.00000000000000000, -1.999999999999997335, 7.228416147400479552 ) ) ;
#628 = PERSON_AND_ORGANIZATION_ROLE ( 'design_owner' ) ;
#629 = DIRECTION ( 'NONE',  ( 0.000000000000000000, 0.000000000000000000, 1.000000000000000000 ) ) ;
#630 = EDGE_CURVE ( 'NONE', #508, #588, #1154, .T. ) ;
#631 = ORIENTED_EDGE ( 'NONE', *, *, #504, .F. ) ;
#632 = CARTESIAN_POINT ( 'NONE',  ( 0.000000000000000000, 2.000000000000002665, 7.218039900139096687 ) ) ;
#633 = ORIENTED_EDGE ( 'NONE', *, *, #1139, .T. ) ;
#634 = LINE ( 'NONE', #99, #1097 ) ;
#635 = LOCAL_TIME ( 16, 4, 49.00000000000000000, #720 ) ;
#636 = DIRECTION ( 'NONE',  ( 0.000000000000000000, 0.000000000000000000, -1.000000000000000000 ) ) ;
#637 = CLOSED_SHELL ( 'NONE', ( #821, #1051, #1110, #561, #1029, #682, #149, #308, #606, #154, #1166, #211, #979, #704, #113, #532, #554, #622, #642, #115, #394, #244, #948, #388, #1176, #182, #1131, #867, #343, #516, #586, #654, #22, #165, #172, #1056, #591, #800, #861 ) ) ;
#638 = ORIENTED_EDGE ( 'NONE', *, *, #1043, .F. ) ;
#639 = DIRECTION ( 'NONE',  ( 1.000000000000000000, 0.000000000000000000, 0.000000000000000000 ) ) ;
#640 = ORIENTED_EDGE ( 'NONE', *, *, #939, .F. ) ;
#641 = CARTESIAN_POINT ( 'NONE',  ( 0.000000000000000000, 0.000000000000000000, 0.000000000000000000 ) ) ;
#642 = ADVANCED_FACE ( 'NONE', ( #1114 ), #282, .T. ) ;
#643 = CIRCLE ( 'NONE', #187, 4.990000000000013536 ) ;
#644 = CARTESIAN_POINT ( 'NONE',  ( 3.000000000000000000, 0.000000000000000000, 0.000000000000000000 ) ) ;
#645 = VERTEX_POINT ( 'NONE', #551 ) ;
#646 = FACE_OUTER_BOUND ( 'NONE', #844, .T. ) ;
#647 = EDGE_LOOP ( 'NONE', ( #1164, #957, #1046, #20 ) ) ;
#648 = FACE_OUTER_BOUND ( 'NONE', #120, .T. ) ;
#649 = EDGE_CURVE ( 'NONE', #386, #774, #634, .T. ) ;
#650 = FACE_OUTER_BOUND ( 'NONE', #76, .T. ) ;
#651 = VERTEX_POINT ( 'NONE', #181 ) ;
#652 = ORIENTED_EDGE ( 'NONE', *, *, #919, .F. ) ;
#653 = CARTESIAN_POINT ( 'NONE',  ( 38.50000000000000000, 0.000000000000000000, 0.000000000000000000 ) ) ;
#654 = ADVANCED_FACE ( 'NONE', ( #648 ), #4, .F. ) ;
#655 = DIRECTION ( 'NONE',  ( 0.000000000000000000, 0.000000000000000000, 1.000000000000000000 ) ) ;
#656 = EDGE_CURVE ( 'NONE', #843, #728, #208, .T. ) ;
#657 = AXIS2_PLACEMENT_3D ( 'NONE', #653, #744, #1109 ) ;
#658 = VERTEX_POINT ( 'NONE', #563 ) ;
#659 = EDGE_LOOP ( 'NONE', ( #895, #137, #1082, #1090, #780, #219, #480, #413 ) ) ;
#660 = DIRECTION ( 'NONE',  ( 0.000000000000000000, 0.000000000000000000, 1.000000000000000000 ) ) ;
#661 = DIRECTION ( 'NONE',  ( -1.000000000000000000, -0.000000000000000000, -0.000000000000000000 ) ) ;
#662 = EDGE_CURVE ( 'NONE', #160, #695, #1006, .T. ) ;
#663 = DIRECTION ( 'NONE',  ( 0.000000000000000000, 0.000000000000000000, -1.000000000000000000 ) ) ;
#664 = ORIENTED_EDGE ( 'NONE', *, *, #762, .T. ) ;
#665 = DIRECTION ( 'NONE',  ( -1.000000000000000000, -0.000000000000000000, -0.000000000000000000 ) ) ;
#666 = DIRECTION ( 'NONE',  ( -1.000000000000000000, -0.000000000000000000, -0.000000000000000000 ) ) ;
#667 = VERTEX_POINT ( 'NONE', #375 ) ;
#668 = EDGE_CURVE ( 'NONE', #403, #588, #1096, .T. ) ;
#669 = EDGE_LOOP ( 'NONE', ( #889, #429 ) ) ;
#670 = LINE ( 'NONE', #1036, #175 ) ;
#671 = DIRECTION ( 'NONE',  ( -0.000000000000000000, -0.000000000000000000, 1.000000000000000000 ) ) ;
#672 = CARTESIAN_POINT ( 'NONE',  ( 0.000000000000000000, 6.110987527745304364E-16, -4.990000000000009095 ) ) ;
#673 = VECTOR ( 'NONE', #281, 1000.000000000000000 ) ;
#674 = VERTEX_POINT ( 'NONE', #111 ) ;
#675 = DIRECTION ( 'NONE',  ( -1.000000000000000000, 0.000000000000000000, 0.000000000000000000 ) ) ;
#676 = CARTESIAN_POINT ( 'NONE',  ( 103.3000000000000114, -2.000000000000000000, 4.571662717217892968 ) ) ;
#677 = ORIENTED_EDGE ( 'NONE', *, *, #956, .T. ) ;
#678 = ORIENTED_EDGE ( 'NONE', *, *, #7, .T. ) ;
#679 = CIRCLE ( 'NONE', #697, 4.990000000000000213 ) ;
#680 = FACE_OUTER_BOUND ( 'NONE', #757, .T. ) ;
#681 = AXIS2_PLACEMENT_3D ( 'NONE', #198, #118, #553 ) ;
#682 = ADVANCED_FACE ( 'NONE', ( #813 ), #466, .T. ) ;
#683 = FACE_OUTER_BOUND ( 'NONE', #173, .T. ) ;
#684 = CARTESIAN_POINT ( 'NONE',  ( 29.50000000000000000, 0.000000000000000000, 4.990000000000002878 ) ) ;
#685 = ORIENTED_EDGE ( 'NONE', *, *, #577, .T. ) ;
#686 = FACE_OUTER_BOUND ( 'NONE', #60, .T. ) ;
#687 = PLANE ( 'NONE',  #1160 ) ;
#688 = AXIS2_PLACEMENT_3D ( 'NONE', #528, #1172, #617 ) ;
#689 = AXIS2_PLACEMENT_3D ( 'NONE', #1012, #455, #11 ) ;
#690 = ORIENTED_EDGE ( 'NONE', *, *, #782, .T. ) ;
#691 = CARTESIAN_POINT ( 'NONE',  ( 38.50000000000000000, 0.000000000000000000, 4.990000000000004654 ) ) ;
#692 = CALENDAR_DATE ( 2026, 23, 7 ) ;
#693 = CYLINDRICAL_SURFACE ( 'NONE', #151, 4.990000000000004654 ) ;
#694 = EDGE_CURVE ( 'NONE', #263, #27, #928, .T. ) ;
#695 = VERTEX_POINT ( 'NONE', #362 ) ;
#696 = LINE ( 'NONE', #430, #377 ) ;
#697 = AXIS2_PLACEMENT_3D ( 'NONE', #855, #1138, #40 ) ;
#698 = AXIS2_PLACEMENT_3D ( 'NONE', #354, #958, #436 ) ;
#699 = DIRECTION ( 'NONE',  ( 0.000000000000000000, 0.000000000000000000, 1.000000000000000000 ) ) ;
#700 = PLANE ( 'NONE',  #360 ) ;
#701 = PRODUCT_DEFINITION_SHAPE ( 'NONE', 'NONE',  #356 ) ;
#702 = ORIENTED_EDGE ( 'NONE', *, *, #67, .T. ) ;
#703 = CARTESIAN_POINT ( 'NONE',  ( 103.3000000000000114, -2.000000000000000000, 4.582575694955839829 ) ) ;
#704 = ADVANCED_FACE ( 'NONE', ( #294, #737 ), #819, .F. ) ;
#705 = DIRECTION ( 'NONE',  ( 0.000000000000000000, 0.000000000000000000, 1.000000000000000000 ) ) ;
#706 = EDGE_CURVE ( 'NONE', #667, #550, #288, .T. ) ;
#707 = DIRECTION ( 'NONE',  ( -1.000000000000000000, -0.000000000000000000, -0.000000000000000000 ) ) ;
#708 = ORIENTED_EDGE ( 'NONE', *, *, #1078, .T. ) ;
#709 = DIRECTION ( 'NONE',  ( 0.000000000000000000, 0.000000000000000000, 1.000000000000000000 ) ) ;
#710 = APPLICATION_CONTEXT ( 'configuration controlled 3d designs of mechanical parts and assemblies' ) ;
#711 =( GEOMETRIC_REPRESENTATION_CONTEXT ( 3 ) GLOBAL_UNCERTAINTY_ASSIGNED_CONTEXT ( ( #618 ) ) GLOBAL_UNIT_ASSIGNED_CONTEXT ( ( #896, #91, #1155 ) ) REPRESENTATION_CONTEXT ( 'NONE', 'WORKASPACE' ) );
#712 = CYLINDRICAL_SURFACE ( 'NONE', #6, 4.990000000000004654 ) ;
#713 = VECTOR ( 'NONE', #1091, 1000.000000000000000 ) ;
#714 = EDGE_CURVE ( 'NONE', #71, #581, #278, .T. ) ;
#715 = PERSON_AND_ORGANIZATION_ROLE ( 'creator' ) ;
#716 = FACE_OUTER_BOUND ( 'NONE', #90, .T. ) ;
#717 = ORIENTED_EDGE ( 'NONE', *, *, #963, .T. ) ;
#718 = FACE_OUTER_BOUND ( 'NONE', #531, .T. ) ;
#719 = LINE ( 'NONE', #1085, #899 ) ;
#720 = COORDINATED_UNIVERSAL_TIME_OFFSET ( 3, 30, .AHEAD. ) ;
#721 = DIRECTION ( 'NONE',  ( -1.000000000000000000, -0.000000000000000000, -0.000000000000000000 ) ) ;
#722 = VECTOR ( 'NONE', #453, 1000.000000000000000 ) ;
#723 = ORIENTED_EDGE ( 'NONE', *, *, #483, .T. ) ;
#724 = ORIENTED_EDGE ( 'NONE', *, *, #491, .T. ) ;
#725 = DIRECTION ( 'NONE',  ( 1.000000000000000000, 0.000000000000000000, 0.000000000000000000 ) ) ;
#726 = FACE_OUTER_BOUND ( 'NONE', #941, .T. ) ;
#727 = CIRCLE ( 'NONE', #570, 4.990000000000013536 ) ;
#728 = VERTEX_POINT ( 'NONE', #731 ) ;
#729 = DIRECTION ( 'NONE',  ( 0.000000000000000000, 0.000000000000000000, -1.000000000000000000 ) ) ;
#730 = ORIENTED_EDGE ( 'NONE', *, *, #612, .T. ) ;
#731 = CARTESIAN_POINT ( 'NONE',  ( 1.224646799147250347E-18, 6.110987527745293517E-16, -4.990000000000000213 ) ) ;
#732 = DIRECTION ( 'NONE',  ( -1.000000000000000000, 0.000000000000000000, -0.000000000000000000 ) ) ;
#733 = VERTEX_POINT ( 'NONE', #462 ) ;
#734 = LINE ( 'NONE', #997, #1134 ) ;
#735 = EDGE_CURVE ( 'NONE', #403, #915, #1173, .T. ) ;
#736 = ORIENTED_EDGE ( 'NONE', *, *, #1139, .F. ) ;
#737 = FACE_OUTER_BOUND ( 'NONE', #97, .T. ) ;
#738 = CARTESIAN_POINT ( 'NONE',  ( 0.000000000000000000, 0.000000000000000000, 0.000000000000000000 ) ) ;
#739 = ORIENTED_EDGE ( 'NONE', *, *, #496, .F. ) ;
#740 = DIRECTION ( 'NONE',  ( -1.000000000000000000, -0.000000000000000000, -0.000000000000000000 ) ) ;
#741 = VECTOR ( 'NONE', #671, 1000.000000000000000 ) ;
#742 = AXIS2_PLACEMENT_3D ( 'NONE', #1092, #894, #887 ) ;
#743 = EDGE_CURVE ( 'NONE', #843, #124, #809, .T. ) ;
#744 = DIRECTION ( 'NONE',  ( -1.000000000000000000, -0.000000000000000000, -0.000000000000000000 ) ) ;
#745 = DIRECTION ( 'NONE',  ( 0.000000000000000000, 0.000000000000000000, 1.000000000000000000 ) ) ;
#746 = DIRECTION ( 'NONE',  ( 1.000000000000000000, 0.000000000000000000, 0.000000000000000000 ) ) ;
#747 = EDGE_LOOP ( 'NONE', ( #784, #942, #989, #498, #32, #385, #201, #103 ) ) ;
#748 = DIRECTION ( 'NONE',  ( -1.000000000000000000, -0.000000000000000000, -0.000000000000000000 ) ) ;
#749 = EDGE_CURVE ( 'NONE', #733, #695, #1116, .T. ) ;
#750 = DIRECTION ( 'NONE',  ( 1.000000000000000000, -0.000000000000000000, -0.000000000000000000 ) ) ;
#751 = ORIENTED_EDGE ( 'NONE', *, *, #630, .T. ) ;
#752 = VERTEX_POINT ( 'NONE', #233 ) ;
#753 = DIRECTION ( 'NONE',  ( 0.000000000000000000, 0.000000000000000000, 1.000000000000000000 ) ) ;
#754 = CARTESIAN_POINT ( 'NONE',  ( 113.3000000000000114, 0.000000000000000000, 0.000000000000000000 ) ) ;
#755 = EDGE_CURVE ( 'NONE', #1058, #752, #978, .T. ) ;
#756 = ORIENTED_EDGE ( 'NONE', *, *, #1093, .T. ) ;
#757 = EDGE_LOOP ( 'NONE', ( #827, #901, #882, #114 ) ) ;
#758 = DIRECTION ( 'NONE',  ( 1.000000000000000000, 0.000000000000000000, 0.000000000000000000 ) ) ;
#759 = AXIS2_PLACEMENT_3D ( 'NONE', #252, #536, #912 ) ;
#760 = DIRECTION ( 'NONE',  ( -1.000000000000000000, -0.000000000000000000, -0.000000000000000000 ) ) ;
#761 = CARTESIAN_POINT ( 'NONE',  ( 24.00000000000000000, 0.000000000000000000, 0.000000000000000000 ) ) ;
#762 = EDGE_CURVE ( 'NONE', #557, #550, #935, .T. ) ;
#763 = ORIENTED_EDGE ( 'NONE', *, *, #782, .F. ) ;
#764 = CARTESIAN_POINT ( 'NONE',  ( 24.00000000000000000, 2.000000000000002665, 7.228416147400479552 ) ) ;
#765 = DIRECTION ( 'NONE',  ( 0.000000000000000000, -0.000000000000000000, 1.000000000000000000 ) ) ;
#766 = LINE ( 'NONE', #566, #18 ) ;
#767 = AXIS2_PLACEMENT_3D ( 'NONE', #109, #1089, #2 ) ;
#768 = ORIENTED_EDGE ( 'NONE', *, *, #546, .T. ) ;
#769 = DIRECTION ( 'NONE',  ( -1.000000000000000000, -0.000000000000000000, -0.000000000000000000 ) ) ;
#770 = EDGE_CURVE ( 'NONE', #193, #674, #130, .T. ) ;
#771 = AXIS2_PLACEMENT_3D ( 'NONE', #420, #66, #342 ) ;
#772 = CARTESIAN_POINT ( 'NONE',  ( 103.3000000000000114, 2.000000000000000000, -4.582575694955840717 ) ) ;
#773 = FACE_BOUND ( 'NONE', #1088, .T. ) ;
#774 = VERTEX_POINT ( 'NONE', #392 ) ;
#775 = LINE ( 'NONE', #213, #458 ) ;
#776 = AXIS2_PLACEMENT_3D ( 'NONE', #797, #587, #70 ) ;
#777 = CC_DESIGN_PERSON_AND_ORGANIZATION_ASSIGNMENT ( #82, #789, ( #515 ) ) ;
#778 = CIRCLE ( 'NONE', #925, 4.990000000000003766 ) ;
#779 = DIRECTION ( 'NONE',  ( 0.000000000000000000, 0.000000000000000000, 1.000000000000000000 ) ) ;
#780 = ORIENTED_EDGE ( 'NONE', *, *, #434, .T. ) ;
#781 = LINE ( 'NONE', #1076, #274 ) ;
#782 = EDGE_CURVE ( 'NONE', #23, #55, #568, .T. ) ;
#783 = DIRECTION ( 'NONE',  ( -0.000000000000000000, -0.000000000000000000, 1.000000000000000000 ) ) ;
#784 = ORIENTED_EDGE ( 'NONE', *, *, #998, .T. ) ;
#785 = DIRECTION ( 'NONE',  ( 0.000000000000000000, 0.000000000000000000, 1.000000000000000000 ) ) ;
#786 = PRODUCT ( 'Link1LowerShaft_Default_sldprt', 'Link1LowerShaft_Default_sldprt', '', ( #427 ) ) ;
#787 = AXIS2_PLACEMENT_3D ( 'NONE', #1133, #769, #298 ) ;
#788 = AXIS2_PLACEMENT_3D ( 'NONE', #590, #1019, #29 ) ;
#789 = PERSON_AND_ORGANIZATION_ROLE ( 'classification_officer' ) ;
#790 = CARTESIAN_POINT ( 'NONE',  ( 14.00000000000000000, 2.000000000000002665, 7.228416147400479552 ) ) ;
#791 = ORIENTED_EDGE ( 'NONE', *, *, #7, .F. ) ;
#792 = FACE_OUTER_BOUND ( 'NONE', #596, .T. ) ;
#793 = FACE_OUTER_BOUND ( 'NONE', #26, .T. ) ;
#794 = CIRCLE ( 'NONE', #283, 4.790000000000005365 ) ;
#795 = AXIS2_PLACEMENT_3D ( 'NONE', #898, #947, #977 ) ;
#796 = PERSON_AND_ORGANIZATION ( #17, #68 ) ;
#797 = CARTESIAN_POINT ( 'NONE',  ( 0.000000000000000000, 0.000000000000000000, 0.000000000000000000 ) ) ;
#798 = ORIENTED_EDGE ( 'NONE', *, *, #837, .F. ) ;
#799 = CARTESIAN_POINT ( 'NONE',  ( 4.000000000000000000, 0.000000000000000000, 0.000000000000000000 ) ) ;
#800 = ADVANCED_FACE ( 'NONE', ( #589 ), #499, .F. ) ;
#801 = CARTESIAN_POINT ( 'NONE',  ( 30.50000000000000000, 0.000000000000000000, 0.000000000000000000 ) ) ;
#802 = APPROVAL_STATUS ( 'not_yet_approved' ) ;
#803 = CIRCLE ( 'NONE', #231, 4.990000000000001101 ) ;
#804 = DIRECTION ( 'NONE',  ( -1.000000000000000000, 0.000000000000000000, -0.000000000000000000 ) ) ;
#805 = ORIENTED_EDGE ( 'NONE', *, *, #34, .T. ) ;
#806 = CARTESIAN_POINT ( 'NONE',  ( 113.3000000000000114, 0.000000000000000000, 0.000000000000000000 ) ) ;
#807 = CC_DESIGN_APPROVAL ( #872, ( #356 ) ) ;
#808 = CARTESIAN_POINT ( 'NONE',  ( 103.3000000000000114, 0.000000000000000000, 0.000000000000000000 ) ) ;
#809 = CIRCLE ( 'NONE', #203, 4.990000000000000213 ) ;
#810 = CARTESIAN_POINT ( 'NONE',  ( 14.00000000000000000, 2.000000000000002665, 7.228416147400479552 ) ) ;
#811 = EDGE_LOOP ( 'NONE', ( #402, #633, #247, #280 ) ) ;
#812 = ORIENTED_EDGE ( 'NONE', *, *, #504, .T. ) ;
#813 = FACE_OUTER_BOUND ( 'NONE', #811, .T. ) ;
#814 = DIRECTION ( 'NONE',  ( -1.000000000000000000, -0.000000000000000000, -0.000000000000000000 ) ) ;
#815 = AXIS2_PLACEMENT_3D ( 'NONE', #1156, #966, #155 ) ;
#816 = ORIENTED_EDGE ( 'NONE', *, *, #93, .T. ) ;
#817 = CARTESIAN_POINT ( 'NONE',  ( 4.000000000000000000, 5.866058167915824404E-16, -4.790000000000001812 ) ) ;
#818 = VERTEX_POINT ( 'NONE', #932 ) ;
#819 = PLANE ( 'NONE',  #53 ) ;
#820 = CARTESIAN_POINT ( 'NONE',  ( 30.50000000000000000, 5.866058167915829334E-16, -4.790000000000006253 ) ) ;
#821 = ADVANCED_FACE ( 'NONE', ( #680 ), #33, .T. ) ;
#822 = AXIS2_PLACEMENT_3D ( 'NONE', #1152, #890, #238 ) ;
#823 = ORIENTED_EDGE ( 'NONE', *, *, #630, .F. ) ;
#824 = CARTESIAN_POINT ( 'NONE',  ( 0.000000000000000000, 0.000000000000000000, 0.000000000000000000 ) ) ;
#825 = DIRECTION ( 'NONE',  ( 0.000000000000000000, 0.000000000000000000, 1.000000000000000000 ) ) ;
#826 = CARTESIAN_POINT ( 'NONE',  ( 113.3000000000000114, 0.000000000000000000, 0.000000000000000000 ) ) ;
#827 = ORIENTED_EDGE ( 'NONE', *, *, #1079, .T. ) ;
#828 = DIRECTION ( 'NONE',  ( 0.000000000000000000, 0.000000000000000000, 1.000000000000000000 ) ) ;
#829 = EDGE_CURVE ( 'NONE', #1099, #728, #1032, .T. ) ;
#830 = ORIENTED_EDGE ( 'NONE', *, *, #613, .F. ) ;
#831 = CARTESIAN_POINT ( 'NONE',  ( 0.000000000000000000, 0.000000000000000000, 0.000000000000000000 ) ) ;
#832 = CARTESIAN_POINT ( 'NONE',  ( 113.3000000000000114, -2.000000000000000000, 4.582575694955839829 ) ) ;
#833 = ORIENTED_EDGE ( 'NONE', *, *, #330, .F. ) ;
#834 = VECTOR ( 'NONE', #1111, 1000.000000000000000 ) ;
#835 = ORIENTED_EDGE ( 'NONE', *, *, #1014, .F. ) ;
#836 = DIRECTION ( 'NONE',  ( -1.000000000000000000, -0.000000000000000000, -0.000000000000000000 ) ) ;
#837 = EDGE_CURVE ( 'NONE', #982, #23, #775, .T. ) ;
#838 = DIRECTION ( 'NONE',  ( 0.000000000000000000, 0.000000000000000000, 1.000000000000000000 ) ) ;
#839 = CARTESIAN_POINT ( 'NONE',  ( 14.00000000000000000, 0.000000000000000000, 0.000000000000000000 ) ) ;
#840 = ORIENTED_EDGE ( 'NONE', *, *, #146, .T. ) ;
#841 = CARTESIAN_POINT ( 'NONE',  ( 24.00000000000000000, 0.000000000000000000, 0.000000000000000000 ) ) ;
#842 = DIRECTION ( 'NONE',  ( 0.000000000000000000, 0.000000000000000000, 1.000000000000000000 ) ) ;
#843 = VERTEX_POINT ( 'NONE', #307 ) ;
#844 = EDGE_LOOP ( 'NONE', ( #435, #840, #567, #1171, #474, #537 ) ) ;
#845 = CARTESIAN_POINT ( 'NONE',  ( 0.000000000000000000, 0.000000000000000000, 4.990000000000001101 ) ) ;
#846 = FACE_OUTER_BOUND ( 'NONE', #1151, .T. ) ;
#847 = EDGE_CURVE ( 'NONE', #92, #853, #481, .T. ) ;
#848 = VERTEX_POINT ( 'NONE', #594 ) ;
#849 = VERTEX_POINT ( 'NONE', #1048 ) ;
#850 = DIRECTION ( 'NONE',  ( 0.000000000000000000, 0.000000000000000000, 1.000000000000000000 ) ) ;
#851 = CARTESIAN_POINT ( 'NONE',  ( 0.000000000000000000, 0.000000000000000000, 4.990000000000000213 ) ) ;
#852 = EDGE_CURVE ( 'NONE', #651, #253, #303, .T. ) ;
#853 = VERTEX_POINT ( 'NONE', #404 ) ;
#854 = VERTEX_POINT ( 'NONE', #1120 ) ;
#855 = CARTESIAN_POINT ( 'NONE',  ( 1.224646799147250347E-18, 0.000000000000000000, 0.000000000000000000 ) ) ;
#856 = LINE ( 'NONE', #984, #471 ) ;
#857 = FACE_OUTER_BOUND ( 'NONE', #110, .T. ) ;
#858 = EDGE_CURVE ( 'NONE', #728, #1099, #679, .T. ) ;
#859 = ORIENTED_EDGE ( 'NONE', *, *, #668, .T. ) ;
#860 = CARTESIAN_POINT ( 'NONE',  ( 3.000000000000000000, 0.000000000000000000, -4.790000000000000924 ) ) ;
#861 = ADVANCED_FACE ( 'NONE', ( #50 ), #397, .T. ) ;
#862 = CYLINDRICAL_SURFACE ( 'NONE', #101, 7.490000000000001990 ) ;
#863 = DIRECTION ( 'NONE',  ( -0.000000000000000000, -0.000000000000000000, -1.000000000000000000 ) ) ;
#864 = ORIENTED_EDGE ( 'NONE', *, *, #847, .F. ) ;
#865 = DIRECTION ( 'NONE',  ( 0.000000000000000000, 0.000000000000000000, 1.000000000000000000 ) ) ;
#866 = VECTOR ( 'NONE', #279, 1000.000000000000000 ) ;
#867 = ADVANCED_FACE ( 'NONE', ( #686, #951 ), #142, .F. ) ;
#868 = DATE_AND_TIME ( #69, #447 ) ;
#869 = CARTESIAN_POINT ( 'NONE',  ( 14.00000000000000000, 0.000000000000000000, 0.000000000000000000 ) ) ;
#870 = ORIENTED_EDGE ( 'NONE', *, *, #694, .T. ) ;
#871 = CYLINDRICAL_SURFACE ( 'NONE', #953, 7.490000000000001990 ) ;
#872 = APPROVAL ( #802, 'UNSPECIFIED' ) ;
#873 = APPROVAL_ROLE ( '' ) ;
#874 = CARTESIAN_POINT ( 'NONE',  ( 3.000000000000000000, 0.000000000000000000, 4.990000000000000213 ) ) ;
#875 = AXIS2_PLACEMENT_3D ( 'NONE', #824, #990, #276 ) ;
#876 = ORIENTED_EDGE ( 'NONE', *, *, #1014, .T. ) ;
#877 = DIRECTION ( 'NONE',  ( 0.000000000000000000, 0.000000000000000000, -1.000000000000000000 ) ) ;
#878 = AXIS2_PLACEMENT_3D ( 'NONE', #839, #390, #296 ) ;
#879 = DATE_TIME_ROLE ( 'creation_date' ) ;
#880 = DIRECTION ( 'NONE',  ( 1.000000000000000000, 0.000000000000000000, -0.000000000000000000 ) ) ;
#881 = EDGE_CURVE ( 'NONE', #645, #84, #643, .T. ) ;
#882 = ORIENTED_EDGE ( 'NONE', *, *, #829, .F. ) ;
#883 = DIRECTION ( 'NONE',  ( 0.000000000000000000, 0.000000000000000000, 1.000000000000000000 ) ) ;
#884 = DIRECTION ( 'NONE',  ( -1.000000000000000000, -0.000000000000000000, -0.000000000000000000 ) ) ;
#885 = CIRCLE ( 'NONE', #1047, 4.790000000000006253 ) ;
#886 = DATE_AND_TIME ( #1080, #292 ) ;
#887 = DIRECTION ( 'NONE',  ( 0.000000000000000000, 0.000000000000000000, 1.000000000000000000 ) ) ;
#888 = EDGE_CURVE ( 'NONE', #10, #1, #670, .T. ) ;
#889 = ORIENTED_EDGE ( 'NONE', *, *, #905, .F. ) ;
#890 = DIRECTION ( 'NONE',  ( -1.000000000000000000, -0.000000000000000000, -0.000000000000000000 ) ) ;
#891 = DIRECTION ( 'NONE',  ( -1.000000000000000000, -0.000000000000000000, -0.000000000000000000 ) ) ;
#892 = DIRECTION ( 'NONE',  ( 1.000000000000000000, 0.000000000000000000, 0.000000000000000000 ) ) ;
#893 = CIRCLE ( 'NONE', #1055, 4.790000000000001812 ) ;
#894 = DIRECTION ( 'NONE',  ( -1.000000000000000000, -0.000000000000000000, -0.000000000000000000 ) ) ;
#895 = ORIENTED_EDGE ( 'NONE', *, *, #315, .T. ) ;
#896 =( LENGTH_UNIT ( ) NAMED_UNIT ( * ) SI_UNIT ( .MILLI., .METRE. ) );
#897 = AXIS2_PLACEMENT_3D ( 'NONE', #1095, #286, #461 ) ;
#898 = CARTESIAN_POINT ( 'NONE',  ( 38.50000000000000000, 0.000000000000000000, -4.790000000000006253 ) ) ;
#899 = VECTOR ( 'NONE', #533, 1000.000000000000000 ) ;
#900 = CARTESIAN_POINT ( 'NONE',  ( 103.3000000000000114, 0.000000000000000000, 0.000000000000000000 ) ) ;
#901 = ORIENTED_EDGE ( 'NONE', *, *, #656, .T. ) ;
#902 = LINE ( 'NONE', #380, #673 ) ;
#903 = ORIENTED_EDGE ( 'NONE', *, *, #128, .T. ) ;
#904 = CARTESIAN_POINT ( 'NONE',  ( 0.000000000000000000, 6.110987527745298447E-16, -4.990000000000004654 ) ) ;
#905 = EDGE_CURVE ( 'NONE', #391, #178, #803, .T. ) ;
#906 = FACE_OUTER_BOUND ( 'NONE', #333, .T. ) ;
#907 = AXIS2_PLACEMENT_3D ( 'NONE', #754, #300, #838 ) ;
#908 = EDGE_LOOP ( 'NONE', ( #723, #1158 ) ) ;
#909 = DIRECTION ( 'NONE',  ( 1.000000000000000000, 0.000000000000000000, 0.000000000000000000 ) ) ;
#910 = ORIENTED_EDGE ( 'NONE', *, *, #1079, .F. ) ;
#911 = DIRECTION ( 'NONE',  ( 0.000000000000000000, 0.000000000000000000, -1.000000000000000000 ) ) ;
#912 = DIRECTION ( 'NONE',  ( 0.000000000000000000, 0.000000000000000000, 1.000000000000000000 ) ) ;
#913 = VERTEX_POINT ( 'NONE', #167 ) ;
#914 = CYLINDRICAL_SURFACE ( 'NONE', #875, 4.990000000000001101 ) ;
#915 = VERTEX_POINT ( 'NONE', #691 ) ;
#916 = CARTESIAN_POINT ( 'NONE',  ( 14.00000000000000000, 0.000000000000000000, 0.000000000000000000 ) ) ;
#917 = AXIS2_PLACEMENT_3D ( 'NONE', #509, #61, #785 ) ;
#918 = CARTESIAN_POINT ( 'NONE',  ( 14.00000000000000000, 0.000000000000000000, 0.000000000000000000 ) ) ;
#919 = EDGE_CURVE ( 'NONE', #1143, #913, #893, .T. ) ;
#920 = ORIENTED_EDGE ( 'NONE', *, *, #743, .F. ) ;
#921 = ORIENTED_EDGE ( 'NONE', *, *, #987, .T. ) ;
#922 = DIRECTION ( 'NONE',  ( 0.000000000000000000, 0.000000000000000000, 1.000000000000000000 ) ) ;
#923 = LINE ( 'NONE', #25, #472 ) ;
#924 = DIRECTION ( 'NONE',  ( -0.000000000000000000, 0.000000000000000000, -1.000000000000000000 ) ) ;
#925 = AXIS2_PLACEMENT_3D ( 'NONE', #134, #760, #1015 ) ;
#926 = APPROVAL ( #245, 'UNSPECIFIED' ) ;
#927 = ORIENTED_EDGE ( 'NONE', *, *, #847, .T. ) ;
#928 = LINE ( 'NONE', #545, #535 ) ;
#929 = LINE ( 'NONE', #851, #834 ) ;
#930 = DIRECTION ( 'NONE',  ( 0.000000000000000000, 0.000000000000000000, -1.000000000000000000 ) ) ;
#931 = ORIENTED_EDGE ( 'NONE', *, *, #324, .T. ) ;
#932 = CARTESIAN_POINT ( 'NONE',  ( 26.00000000000000000, 0.000000000000000000, 4.990000000000003766 ) ) ;
#933 = CARTESIAN_POINT ( 'NONE',  ( 0.000000000000000000, 2.000000000000000000, -4.571662717217892968 ) ) ;
#934 = EDGE_LOOP ( 'NONE', ( #763, #798, #1108, #1147, #195, #556 ) ) ;
#935 = CIRCLE ( 'NONE', #376, 7.490000000000001990 ) ;
#936 = AXIS2_PLACEMENT_3D ( 'NONE', #387, #202, #825 ) ;
#937 = ORIENTED_EDGE ( 'NONE', *, *, #539, .F. ) ;
#938 = DIRECTION ( 'NONE',  ( -1.000000000000000000, -0.000000000000000000, -0.000000000000000000 ) ) ;
#939 = EDGE_CURVE ( 'NONE', #651, #391, #994, .T. ) ;
#940 = DIRECTION ( 'NONE',  ( -1.000000000000000000, -0.000000000000000000, -0.000000000000000000 ) ) ;
#941 = EDGE_LOOP ( 'NONE', ( #381, #341 ) ) ;
#942 = ORIENTED_EDGE ( 'NONE', *, *, #42, .T. ) ;
#943 = VECTOR ( 'NONE', #666, 1000.000000000000000 ) ;
#944 = DIRECTION ( 'NONE',  ( 0.000000000000000000, -0.000000000000000000, -1.000000000000000000 ) ) ;
#945 = AXIS2_PLACEMENT_3D ( 'NONE', #592, #595, #959 ) ;
#946 = CIRCLE ( 'NONE', #361, 4.990000000000004654 ) ;
#947 = DIRECTION ( 'NONE',  ( -1.000000000000000000, 0.000000000000000000, -0.000000000000000000 ) ) ;
#948 = ADVANCED_FACE ( 'NONE', ( #425 ), #871, .T. ) ;
#949 = DIRECTION ( 'NONE',  ( 0.000000000000000000, 0.000000000000000000, 1.000000000000000000 ) ) ;
#950 = ORIENTED_EDGE ( 'NONE', *, *, #86, .T. ) ;
#951 = FACE_BOUND ( 'NONE', #379, .T. ) ;
#952 = CARTESIAN_POINT ( 'NONE',  ( 24.00000000000000000, -1.999999999999997335, -7.218039900139097576 ) ) ;
#953 = AXIS2_PLACEMENT_3D ( 'NONE', #327, #248, #976 ) ;
#954 = PRODUCT_DEFINITION_FORMATION_WITH_SPECIFIED_SOURCE ( 'ANY', '', #786, .NOT_KNOWN. ) ;
#955 = CARTESIAN_POINT ( 'NONE',  ( 113.3000000000000114, 2.000000000000000000, -4.582575694955840717 ) ) ;
#956 = EDGE_CURVE ( 'NONE', #695, #733, #1170, .T. ) ;
#957 = ORIENTED_EDGE ( 'NONE', *, *, #919, .T. ) ;
#958 = DIRECTION ( 'NONE',  ( -1.000000000000000000, -0.000000000000000000, -0.000000000000000000 ) ) ;
#959 = DIRECTION ( 'NONE',  ( 0.000000000000000000, 0.000000000000000000, -1.000000000000000000 ) ) ;
#960 = VECTOR ( 'NONE', #863, 1000.000000000000000 ) ;
#961 = VERTEX_POINT ( 'NONE', #610 ) ;
#962 = CARTESIAN_POINT ( 'NONE',  ( 4.000000000000000000, 0.000000000000000000, 0.000000000000000000 ) ) ;
#963 = EDGE_CURVE ( 'NONE', #242, #560, #1059, .T. ) ;
#964 = AXIS2_PLACEMENT_3D ( 'NONE', #738, #192, #629 ) ;
#965 = DATE_AND_TIME ( #972, #1115 ) ;
#966 = DIRECTION ( 'NONE',  ( 1.000000000000000000, 0.000000000000000000, 0.000000000000000000 ) ) ;
#967 = EDGE_LOOP ( 'NONE', ( #1127, #1035 ) ) ;
#968 = CARTESIAN_POINT ( 'NONE',  ( 113.3000000000000114, 0.000000000000000000, 0.000000000000000000 ) ) ;
#969 = CIRCLE ( 'NONE', #1016, 4.990000000000013536 ) ;
#970 = EDGE_CURVE ( 'NONE', #961, #125, #727, .T. ) ;
#971 = ADVANCED_BREP_SHAPE_REPRESENTATION ( 'Link1LowerShaft_Default_sldprt', ( #323, #89 ), #711 ) ;
#972 = CALENDAR_DATE ( 2026, 23, 7 ) ;
#973 = CARTESIAN_POINT ( 'NONE',  ( 14.00000000000000000, 0.000000000000000000, 0.000000000000000000 ) ) ;
#974 = APPROVAL_PERSON_ORGANIZATION ( #980, #926, #1061 ) ;
#975 = ORIENTED_EDGE ( 'NONE', *, *, #546, .F. ) ;
#976 = DIRECTION ( 'NONE',  ( 0.000000000000000000, 0.000000000000000000, 1.000000000000000000 ) ) ;
#977 = DIRECTION ( 'NONE',  ( -0.000000000000000000, 0.000000000000000000, 1.000000000000000000 ) ) ;
#978 = CIRCLE ( 'NONE', #1153, 4.990000000000004654 ) ;
#979 = ADVANCED_FACE ( 'NONE', ( #1069 ), #520, .T. ) ;
#980 = PERSON_AND_ORGANIZATION ( #17, #68 ) ;
#981 = CARTESIAN_POINT ( 'NONE',  ( 0.000000000000000000, -1.999999999999997335, -7.218039900139097576 ) ) ;
#982 = VERTEX_POINT ( 'NONE', #514 ) ;
#983 = DIRECTION ( 'NONE',  ( 0.000000000000000000, 1.000000000000000000, 0.000000000000000000 ) ) ;
#984 = CARTESIAN_POINT ( 'NONE',  ( 0.000000000000000000, -2.000000000000000000, -4.571662717217892968 ) ) ;
#985 = VECTOR ( 'NONE', #209, 1000.000000000000000 ) ;
#986 = COORDINATED_UNIVERSAL_TIME_OFFSET ( 3, 30, .AHEAD. ) ;
#987 = EDGE_CURVE ( 'NONE', #125, #1058, #696, .T. ) ;
#988 = DIRECTION ( 'NONE',  ( 0.000000000000000000, 0.000000000000000000, 1.000000000000000000 ) ) ;
#989 = ORIENTED_EDGE ( 'NONE', *, *, #755, .F. ) ;
#990 = DIRECTION ( 'NONE',  ( -1.000000000000000000, -0.000000000000000000, -0.000000000000000000 ) ) ;
#991 = EDGE_LOOP ( 'NONE', ( #937, #544 ) ) ;
#992 = DIRECTION ( 'NONE',  ( -0.000000000000000000, 1.000000000000000000, 0.000000000000000000 ) ) ;
#993 = CALENDAR_DATE ( 2026, 23, 7 ) ;
#994 = CIRCLE ( 'NONE', #688, 4.990000000000001101 ) ;
#995 = PLANE ( 'NONE',  #135 ) ;
#996 = EDGE_LOOP ( 'NONE', ( #1137, #232, #297, #739, #1106, #502, #931, #835 ) ) ;
#997 = CARTESIAN_POINT ( 'NONE',  ( 0.000000000000000000, -2.000000000000000000, 4.571662717217892968 ) ) ;
#998 = EDGE_CURVE ( 'NONE', #854, #645, #969, .T. ) ;
#999 = ORIENTED_EDGE ( 'NONE', *, *, #662, .T. ) ;
#1000 = DIRECTION ( 'NONE',  ( 0.000000000000000000, 0.000000000000000000, 1.000000000000000000 ) ) ;
#1001 = CARTESIAN_POINT ( 'NONE',  ( 0.000000000000000000, 0.000000000000000000, 4.990000000000002878 ) ) ;
#1002 = EDGE_LOOP ( 'NONE', ( #285, #1084 ) ) ;
#1003 = CARTESIAN_POINT ( 'NONE',  ( 103.3000000000000114, 2.000000000000000000, -4.571662717217892968 ) ) ;
#1004 = ORIENTED_EDGE ( 'NONE', *, *, #714, .T. ) ;
#1005 = EDGE_CURVE ( 'NONE', #913, #1143, #269, .T. ) ;
#1006 = LINE ( 'NONE', #1102, #236 ) ;
#1007 = AXIS2_PLACEMENT_3D ( 'NONE', #860, #1054, #1128 ) ;
#1008 = AXIS2_PLACEMENT_3D ( 'NONE', #346, #159, #230 ) ;
#1009 = DIRECTION ( 'NONE',  ( 0.000000000000000000, 0.000000000000000000, 1.000000000000000000 ) ) ;
#1010 = CIRCLE ( 'NONE', #1142, 4.790000000000006253 ) ;
#1011 = EDGE_LOOP ( 'NONE', ( #603, #464 ) ) ;
#1012 = CARTESIAN_POINT ( 'NONE',  ( 14.00000000000000000, 0.000000000000000000, 0.000000000000000000 ) ) ;
#1013 = CARTESIAN_POINT ( 'NONE',  ( 0.000000000000000000, 6.110987527745293517E-16, -4.990000000000000213 ) ) ;
#1014 = EDGE_CURVE ( 'NONE', #774, #580, #336, .T. ) ;
#1015 = DIRECTION ( 'NONE',  ( 0.000000000000000000, 0.000000000000000000, 1.000000000000000000 ) ) ;
#1016 = AXIS2_PLACEMENT_3D ( 'NONE', #806, #1083, #883 ) ;
#1017 = ORIENTED_EDGE ( 'NONE', *, *, #1005, .F. ) ;
#1018 = ORIENTED_EDGE ( 'NONE', *, *, #714, .F. ) ;
#1019 = DIRECTION ( 'NONE',  ( 1.000000000000000000, 0.000000000000000000, 0.000000000000000000 ) ) ;
#1020 = CIRCLE ( 'NONE', #767, 4.790000000000006253 ) ;
#1021 = LINE ( 'NONE', #473, #943 ) ;
#1022 = PRODUCT_RELATED_PRODUCT_CATEGORY ( 'detail', '', ( #786 ) ) ;
#1023 = CARTESIAN_POINT ( 'NONE',  ( 24.00000000000000000, 2.000000000000002665, -7.218039900139096687 ) ) ;
#1024 = ORIENTED_EDGE ( 'NONE', *, *, #1005, .T. ) ;
#1025 = DIRECTION ( 'NONE',  ( -1.000000000000000000, 0.000000000000000000, 0.000000000000000000 ) ) ;
#1026 = LINE ( 'NONE', #214, #985 ) ;
#1027 = CIRCLE ( 'NONE', #907, 4.990000000000013536 ) ;
#1028 = CARTESIAN_POINT ( 'NONE',  ( 4.000000000000000000, 6.110987527745294503E-16, -4.990000000000001101 ) ) ;
#1029 = ADVANCED_FACE ( 'NONE', ( #348 ), #161, .T. ) ;
#1030 = ORIENTED_EDGE ( 'NONE', *, *, #770, .T. ) ;
#1031 = DIRECTION ( 'NONE',  ( -1.000000000000000000, -0.000000000000000000, -0.000000000000000000 ) ) ;
#1032 = CIRCLE ( 'NONE', #9, 4.990000000000000213 ) ;
#1033 = DIRECTION ( 'NONE',  ( 0.000000000000000000, 0.000000000000000000, 1.000000000000000000 ) ) ;
#1034 = ORIENTED_EDGE ( 'NONE', *, *, #205, .F. ) ;
#1035 = ORIENTED_EDGE ( 'NONE', *, *, #569, .T. ) ;
#1036 = CARTESIAN_POINT ( 'NONE',  ( 0.000000000000000000, 0.000000000000000000, 4.790000000000006253 ) ) ;
#1037 = EDGE_CURVE ( 'NONE', #27, #253, #407, .T. ) ;
#1038 = CC_DESIGN_SECURITY_CLASSIFICATION ( #515, ( #954 ) ) ;
#1039 = DIRECTION ( 'NONE',  ( 1.000000000000000000, 0.000000000000000000, 0.000000000000000000 ) ) ;
#1040 = CARTESIAN_POINT ( 'NONE',  ( 39.50000000000000000, 0.000000000000000000, 4.790000000000005365 ) ) ;
#1041 = EDGE_LOOP ( 'NONE', ( #678, #1004 ) ) ;
#1042 = DIRECTION ( 'NONE',  ( -0.000000000000000000, -0.000000000000000000, 1.000000000000000000 ) ) ;
#1043 = EDGE_CURVE ( 'NONE', #667, #242, #781, .T. ) ;
#1044 = PLANE ( 'NONE',  #795 ) ;
#1045 = ORIENTED_EDGE ( 'NONE', *, *, #146, .F. ) ;
#1046 = ORIENTED_EDGE ( 'NONE', *, *, #197, .T. ) ;
#1047 = AXIS2_PLACEMENT_3D ( 'NONE', #389, #204, #384 ) ;
#1048 = CARTESIAN_POINT ( 'NONE',  ( 3.000000000000000000, 0.000000000000000000, 4.790000000000000924 ) ) ;
#1049 = CIRCLE ( 'NONE', #339, 4.990000000000009095 ) ;
#1050 = PLANE ( 'NONE',  #788 ) ;
#1051 = ADVANCED_FACE ( 'NONE', ( #792 ), #334, .T. ) ;
#1052 = DIRECTION ( 'NONE',  ( -1.000000000000000000, -0.000000000000000000, -0.000000000000000000 ) ) ;
#1053 = ORIENTED_EDGE ( 'NONE', *, *, #755, .T. ) ;
#1054 = DIRECTION ( 'NONE',  ( -1.000000000000000000, 0.000000000000000000, -0.000000000000000000 ) ) ;
#1055 = AXIS2_PLACEMENT_3D ( 'NONE', #962, #1148, #865 ) ;
#1056 = ADVANCED_FACE ( 'NONE', ( #718 ), #254, .F. ) ;
#1057 = DIRECTION ( 'NONE',  ( -0.000000000000000000, 0.000000000000000000, -1.000000000000000000 ) ) ;
#1058 = VERTEX_POINT ( 'NONE', #148 ) ;
#1059 = LINE ( 'NONE', #604, #367 ) ;
#1060 = CIRCLE ( 'NONE', #332, 4.990000000000001101 ) ;
#1061 = APPROVAL_ROLE ( '' ) ;
#1062 = DIRECTION ( 'NONE',  ( 0.000000000000000000, 0.000000000000000000, 1.000000000000000000 ) ) ;
#1063 = ORIENTED_EDGE ( 'NONE', *, *, #511, .F. ) ;
#1064 = DIRECTION ( 'NONE',  ( -1.000000000000000000, -0.000000000000000000, -0.000000000000000000 ) ) ;
#1065 = VECTOR ( 'NONE', #129, 1000.000000000000000 ) ;
#1066 = DIRECTION ( 'NONE',  ( 0.000000000000000000, -1.000000000000000000, 0.000000000000000000 ) ) ;
#1067 = AXIS2_PLACEMENT_3D ( 'NONE', #221, #46, #944 ) ;
#1068 = ORIENTED_EDGE ( 'NONE', *, *, #939, .T. ) ;
#1069 = FACE_OUTER_BOUND ( 'NONE', #270, .T. ) ;
#1070 = EDGE_CURVE ( 'NONE', #853, #1, #1020, .T. ) ;
#1071 = FACE_OUTER_BOUND ( 'NONE', #659, .T. ) ;
#1072 = APPLICATION_PROTOCOL_DEFINITION ( 'international standard', 'config_control_design', 1994, #710 ) ;
#1073 = FACE_OUTER_BOUND ( 'NONE', #108, .T. ) ;
#1074 = AXIS2_PLACEMENT_3D ( 'NONE', #374, #179, #828 ) ;
#1075 = ORIENTED_EDGE ( 'NONE', *, *, #445, .F. ) ;
#1076 = CARTESIAN_POINT ( 'NONE',  ( 14.00000000000000000, -1.999999999999997335, 7.228416147400479552 ) ) ;
#1077 = PLANE ( 'NONE',  #1161 ) ;
#1078 = EDGE_CURVE ( 'NONE', #581, #961, #734, .T. ) ;
#1079 = EDGE_CURVE ( 'NONE', #124, #843, #328, .T. ) ;
#1080 = CALENDAR_DATE ( 2026, 23, 7 ) ;
#1081 = LINE ( 'NONE', #810, #866 ) ;
#1082 = ORIENTED_EDGE ( 'NONE', *, *, #34, .F. ) ;
#1083 = DIRECTION ( 'NONE',  ( -1.000000000000000000, -0.000000000000000000, -0.000000000000000000 ) ) ;
#1084 = ORIENTED_EDGE ( 'NONE', *, *, #107, .T. ) ;
#1085 = CARTESIAN_POINT ( 'NONE',  ( 0.000000000000000000, 6.110987527745296475E-16, -4.990000000000002878 ) ) ;
#1086 = AXIS2_PLACEMENT_3D ( 'NONE', #644, #1087, #96 ) ;
#1087 = DIRECTION ( 'NONE',  ( -1.000000000000000000, -0.000000000000000000, -0.000000000000000000 ) ) ;
#1088 = EDGE_LOOP ( 'NONE', ( #1017, #652 ) ) ;
#1089 = DIRECTION ( 'NONE',  ( -1.000000000000000000, -0.000000000000000000, -0.000000000000000000 ) ) ;
#1090 = ORIENTED_EDGE ( 'NONE', *, *, #837, .T. ) ;
#1091 = DIRECTION ( 'NONE',  ( -0.000000000000000000, -0.000000000000000000, 1.000000000000000000 ) ) ;
#1092 = CARTESIAN_POINT ( 'NONE',  ( 39.50000000000000711, 0.000000000000000000, 0.000000000000000000 ) ) ;
#1093 = EDGE_CURVE ( 'NONE', #849, #658, #51, .T. ) ;
#1094 = EDGE_LOOP ( 'NONE', ( #485, #440, #486, #1130 ) ) ;
#1095 = CARTESIAN_POINT ( 'NONE',  ( 0.000000000000000000, 0.000000000000000000, 0.000000000000000000 ) ) ;
#1096 = LINE ( 'NONE', #904, #95 ) ;
#1097 = VECTOR ( 'NONE', #190, 1000.000000000000000 ) ;
#1098 = CARTESIAN_POINT ( 'NONE',  ( 0.000000000000000000, 0.000000000000000000, 4.790000000000000924 ) ) ;
#1099 = VERTEX_POINT ( 'NONE', #465 ) ;
#1100 = CYLINDRICAL_SURFACE ( 'NONE', #897, 4.790000000000000924 ) ;
#1101 = EDGE_LOOP ( 'NONE', ( #593, #31 ) ) ;
#1102 = CARTESIAN_POINT ( 'NONE',  ( 0.000000000000000000, 0.000000000000000000, 4.790000000000006253 ) ) ;
#1103 = AXIS2_PLACEMENT_3D ( 'NONE', #405, #467, #842 ) ;
#1104 = CARTESIAN_POINT ( 'NONE',  ( 29.50000000000000000, 0.000000000000000000, 0.000000000000000000 ) ) ;
#1105 = VECTOR ( 'NONE', #541, 1000.000000000000000 ) ;
#1106 = ORIENTED_EDGE ( 'NONE', *, *, #706, .T. ) ;
#1107 = CYLINDRICAL_SURFACE ( 'NONE', #574, 4.990000000000001101 ) ;
#1108 = ORIENTED_EDGE ( 'NONE', *, *, #277, .T. ) ;
#1109 = DIRECTION ( 'NONE',  ( 0.000000000000000000, 0.000000000000000000, 1.000000000000000000 ) ) ;
#1110 = ADVANCED_FACE ( 'NONE', ( #543 ), #1107, .T. ) ;
#1111 = DIRECTION ( 'NONE',  ( -1.000000000000000000, -0.000000000000000000, -0.000000000000000000 ) ) ;
#1112 = CARTESIAN_POINT ( 'NONE',  ( 103.3000000000000114, 0.000000000000000000, 0.000000000000000000 ) ) ;
#1113 = ORIENTED_EDGE ( 'NONE', *, *, #1093, .F. ) ;
#1114 = FACE_OUTER_BOUND ( 'NONE', #321, .T. ) ;
#1115 = LOCAL_TIME ( 16, 4, 49.00000000000000000, #620 ) ;
#1116 = CIRCLE ( 'NONE', #311, 4.790000000000005365 ) ;
#1117 = CYLINDRICAL_SURFACE ( 'NONE', #681, 4.990000000000002878 ) ;
#1118 = ORIENTED_EDGE ( 'NONE', *, *, #963, .F. ) ;
#1119 = ORIENTED_EDGE ( 'NONE', *, *, #829, .T. ) ;
#1120 = CARTESIAN_POINT ( 'NONE',  ( 113.3000000000000114, 2.000000000000000000, -4.571662717217892968 ) ) ;
#1121 = CIRCLE ( 'NONE', #188, 4.990000000000003766 ) ;
#1122 = DIRECTION ( 'NONE',  ( -1.000000000000000000, -0.000000000000000000, -0.000000000000000000 ) ) ;
#1123 = CIRCLE ( 'NONE', #1086, 4.790000000000000924 ) ;
#1124 = AXIS2_PLACEMENT_3D ( 'NONE', #304, #218, #290 ) ;
#1125 = EDGE_CURVE ( 'NONE', #55, #674, #104, .T. ) ;
#1126 = CARTESIAN_POINT ( 'NONE',  ( 103.3000000000000114, -2.000000000000000000, -4.571662717217892968 ) ) ;
#1127 = ORIENTED_EDGE ( 'NONE', *, *, #316, .T. ) ;
#1128 = DIRECTION ( 'NONE',  ( -0.000000000000000000, 0.000000000000000000, 1.000000000000000000 ) ) ;
#1129 = DIRECTION ( 'NONE',  ( -1.000000000000000000, -0.000000000000000000, -0.000000000000000000 ) ) ;
#1130 = ORIENTED_EDGE ( 'NONE', *, *, #107, .F. ) ;
#1131 = ADVANCED_FACE ( 'NONE', ( #538 ), #1100, .T. ) ;
#1132 = VERTEX_POINT ( 'NONE', #1003 ) ;
#1133 = CARTESIAN_POINT ( 'NONE',  ( 14.00000000000000000, 0.000000000000000000, 0.000000000000000000 ) ) ;
#1134 = VECTOR ( 'NONE', #639, 1000.000000000000000 ) ;
#1135 = DIRECTION ( 'NONE',  ( 0.000000000000000000, 0.000000000000000000, 1.000000000000000000 ) ) ;
#1136 = CARTESIAN_POINT ( 'NONE',  ( 113.3000000000000114, -2.000000000000000000, -4.571662717217892968 ) ) ;
#1137 = ORIENTED_EDGE ( 'NONE', *, *, #649, .F. ) ;
#1138 = DIRECTION ( 'NONE',  ( -1.000000000000000000, -0.000000000000000000, -0.000000000000000000 ) ) ;
#1139 = EDGE_CURVE ( 'NONE', #261, #733, #902, .T. ) ;
#1140 = CARTESIAN_POINT ( 'NONE',  ( 14.00000000000000000, 0.000000000000000000, 0.000000000000000000 ) ) ;
#1141 = PLANE ( 'NONE',  #945 ) ;
#1142 = AXIS2_PLACEMENT_3D ( 'NONE', #801, #1167, #500 ) ;
#1143 = VERTEX_POINT ( 'NONE', #817 ) ;
#1144 = DIRECTION ( 'NONE',  ( -1.000000000000000000, -0.000000000000000000, -0.000000000000000000 ) ) ;
#1145 = CC_DESIGN_PERSON_AND_ORGANIZATION_ASSIGNMENT ( #329, #1168, ( #954 ) ) ;
#1146 = DIRECTION ( 'NONE',  ( -1.000000000000000000, -0.000000000000000000, -0.000000000000000000 ) ) ;
#1147 = ORIENTED_EDGE ( 'NONE', *, *, #349, .T. ) ;
#1148 = DIRECTION ( 'NONE',  ( -1.000000000000000000, -0.000000000000000000, -0.000000000000000000 ) ) ;
#1149 = APPROVAL_DATE_TIME ( #868, #28 ) ;
#1150 = DIRECTION ( 'NONE',  ( 0.000000000000000000, 0.000000000000000000, 1.000000000000000000 ) ) ;
#1151 = EDGE_LOOP ( 'NONE', ( #664, #702 ) ) ;
#1152 = CARTESIAN_POINT ( 'NONE',  ( 29.50000000000000000, 0.000000000000000000, 0.000000000000000000 ) ) ;
#1153 = AXIS2_PLACEMENT_3D ( 'NONE', #314, #1144, #56 ) ;
#1154 = CIRCLE ( 'NONE', #936, 4.990000000000004654 ) ;
#1155 =( NAMED_UNIT ( * ) SI_UNIT ( $, .STERADIAN. ) SOLID_ANGLE_UNIT ( ) );
#1156 = CARTESIAN_POINT ( 'NONE',  ( 14.00000000000000000, 0.000000000000000000, -7.490000000000001990 ) ) ;
#1157 = EDGE_CURVE ( 'NONE', #178, #263, #479, .T. ) ;
#1158 = ORIENTED_EDGE ( 'NONE', *, *, #1070, .T. ) ;
#1159 = CARTESIAN_POINT ( 'NONE',  ( 0.000000000000000000, 0.000000000000000000, 0.000000000000000000 ) ) ;
#1160 = AXIS2_PLACEMENT_3D ( 'NONE', #973, #880, #1057 ) ;
#1161 = AXIS2_PLACEMENT_3D ( 'NONE', #808, #494, #1162 ) ;
#1162 = DIRECTION ( 'NONE',  ( 0.000000000000000000, 0.000000000000000000, -1.000000000000000000 ) ) ;
#1163 = CARTESIAN_POINT ( 'NONE',  ( 39.50000000000000000, 5.866058167915828348E-16, -4.790000000000005365 ) ) ;
#1164 = ORIENTED_EDGE ( 'NONE', *, *, #128, .F. ) ;
#1165 = DIRECTION ( 'NONE',  ( -1.000000000000000000, -0.000000000000000000, -0.000000000000000000 ) ) ;
#1166 = ADVANCED_FACE ( 'NONE', ( #366 ), #625, .F. ) ;
#1167 = DIRECTION ( 'NONE',  ( -1.000000000000000000, -0.000000000000000000, -0.000000000000000000 ) ) ;
#1168 = PERSON_AND_ORGANIZATION_ROLE ( 'creator' ) ;
#1169 = CARTESIAN_POINT ( 'NONE',  ( 103.3000000000000114, 2.000000000000000000, 4.571662717217892968 ) ) ;
#1170 = CIRCLE ( 'NONE', #822, 4.790000000000005365 ) ;
#1171 = ORIENTED_EDGE ( 'NONE', *, *, #613, .T. ) ;
#1172 = DIRECTION ( 'NONE',  ( -1.000000000000000000, -0.000000000000000000, -0.000000000000000000 ) ) ;
#1173 = CIRCLE ( 'NONE', #657, 4.990000000000004654 ) ;
#1174 = AXIS2_PLACEMENT_3D ( 'NONE', #1112, #746, #663 ) ;
#1175 = CARTESIAN_POINT ( 'NONE',  ( 30.50000000000000000, 6.110987527745298447E-16, -4.990000000000004654 ) ) ;
#1176 = ADVANCED_FACE ( 'NONE', ( #646 ), #914, .T. ) ;
#1177 = PLANE ( 'NONE',  #5 ) ;
ENDSEC;
END-ISO-10303-21;
