ISO-10303-21;
HEADER;
FILE_DESCRIPTION (( 'STEP AP203' ),
    '1' );
FILE_NAME ('MotorBackCap_Default_sldprt.STEP',
    '2026-07-31T10:19:08',
    ( '' ),
    ( '' ),
    'SwSTEP 2.0',
    'SolidWorks 2025',
    '' );
FILE_SCHEMA (( 'CONFIG_CONTROL_DESIGN' ));
ENDSEC;

DATA;
#1 = ORIENTED_EDGE ( 'NONE', *, *, #853, .T. ) ;
#2 = DIRECTION ( 'NONE',  ( 0.000000000000000000, 0.000000000000000000, 1.000000000000000000 ) ) ;
#3 = FACE_BOUND ( 'NONE', #294, .T. ) ;
#4 = FACE_OUTER_BOUND ( 'NONE', #743, .T. ) ;
#5 = PERSON_AND_ORGANIZATION_ROLE ( 'design_supplier' ) ;
#6 = EDGE_LOOP ( 'NONE', ( #781, #237 ) ) ;
#7 = DIRECTION ( 'NONE',  ( -0.000000000000000000, 1.000000000000000000, -0.000000000000000000 ) ) ;
#8 = CIRCLE ( 'NONE', #651, 1.649999999999998579 ) ;
#9 = DIRECTION ( 'NONE',  ( -0.000000000000000000, -1.000000000000000000, -0.000000000000000000 ) ) ;
#10 = ORIENTED_EDGE ( 'NONE', *, *, #204, .T. ) ;
#11 = CARTESIAN_POINT ( 'NONE',  ( 11.31370849898490150, 10.00000000000000000, -12.96370849898462119 ) ) ;
#12 = DIRECTION ( 'NONE',  ( -0.000000000000000000, 1.000000000000000000, -0.000000000000000000 ) ) ;
#13 = CARTESIAN_POINT ( 'NONE',  ( 16.00000000000000000, 0.000000000000000000, 0.000000000000000000 ) ) ;
#14 = EDGE_LOOP ( 'NONE', ( #690, #805, #503, #472 ) ) ;
#15 = CARTESIAN_POINT ( 'NONE',  ( 0.000000000000000000, -10.77032961426900748, 0.000000000000000000 ) ) ;
#16 = PRODUCT ( 'MotorBackCap_Default_sldprt', 'MotorBackCap_Default_sldprt', '', ( #666 ) ) ;
#17 =( LENGTH_UNIT ( ) NAMED_UNIT ( * ) SI_UNIT ( .MILLI., .METRE. ) );
#18 = PERSON_AND_ORGANIZATION ( #43, #255 ) ;
#19 = VERTEX_POINT ( 'NONE', #320 ) ;
#20 = FACE_OUTER_BOUND ( 'NONE', #205, .T. ) ;
#21 = AXIS2_PLACEMENT_3D ( 'NONE', #226, #309, #230 ) ;
#22 = CIRCLE ( 'NONE', #102, 1.650000000000000355 ) ;
#23 = CIRCLE ( 'NONE', #665, 1.649999999999997025 ) ;
#24 = DATE_AND_TIME ( #98, #783 ) ;
#25 = CALENDAR_DATE ( 2026, 31, 7 ) ;
#26 = ORIENTED_EDGE ( 'NONE', *, *, #673, .T. ) ;
#27 = DIRECTION ( 'NONE',  ( -0.000000000000000000, -1.000000000000000000, -0.000000000000000000 ) ) ;
#28 = EDGE_CURVE ( 'NONE', #79, #192, #250, .T. ) ;
#29 = ORIENTED_EDGE ( 'NONE', *, *, #266, .F. ) ;
#30 = ORIENTED_EDGE ( 'NONE', *, *, #567, .T. ) ;
#31 = CARTESIAN_POINT ( 'NONE',  ( 1.999999999999999112, 10.00000000000000000, 4.582575694955840717 ) ) ;
#32 = EDGE_LOOP ( 'NONE', ( #441, #473, #864, #10 ) ) ;
#33 = EDGE_CURVE ( 'NONE', #286, #381, #174, .T. ) ;
#34 = CARTESIAN_POINT ( 'NONE',  ( 16.00000000000000000, -4.666904755831215112, 1.649999999999998579 ) ) ;
#35 = CARTESIAN_POINT ( 'NONE',  ( -11.31370849898465991, -4.666904755831215112, -9.663708498984860285 ) ) ;
#36 = ORIENTED_EDGE ( 'NONE', *, *, #853, .F. ) ;
#37 = ADVANCED_FACE ( 'NONE', ( #184 ), #612, .F. ) ;
#38 = VECTOR ( 'NONE', #552, 1000.000000000000000 ) ;
#39 = AXIS2_PLACEMENT_3D ( 'NONE', #487, #849, #501 ) ;
#40 = EDGE_LOOP ( 'NONE', ( #36, #898, #659, #801, #768 ) ) ;
#41 = CARTESIAN_POINT ( 'NONE',  ( 0.000000000000000000, 10.00000000000000000, 0.000000000000000000 ) ) ;
#42 = ORIENTED_EDGE ( 'NONE', *, *, #689, .F. ) ;
#43 = PERSON ( 'UNSPECIFIED', 'UNSPECIFIED', 'UNSPECIFIED', ('UNSPECIFIED'), ('UNSPECIFIED'), ('UNSPECIFIED') ) ;
#44 = CARTESIAN_POINT ( 'NONE',  ( 11.31370849898490150, 0.000000000000000000, -11.31370849898462261 ) ) ;
#45 = LINE ( 'NONE', #914, #455 ) ;
#46 = ADVANCED_FACE ( 'NONE', ( #822 ), #468, .F. ) ;
#47 = EDGE_LOOP ( 'NONE', ( #265, #856, #479, #860 ) ) ;
#48 = CYLINDRICAL_SURFACE ( 'NONE', #39, 1.649999999999998801 ) ;
#49 = DIRECTION ( 'NONE',  ( 0.000000000000000000, 0.000000000000000000, 1.000000000000000000 ) ) ;
#50 = ORIENTED_EDGE ( 'NONE', *, *, #124, .F. ) ;
#51 = PERSON_AND_ORGANIZATION_ROLE ( 'creator' ) ;
#52 = AXIS2_PLACEMENT_3D ( 'NONE', #732, #870, #878 ) ;
#53 = DIRECTION ( 'NONE',  ( 0.000000000000000000, 1.000000000000000000, 0.000000000000000000 ) ) ;
#54 = DIRECTION ( 'NONE',  ( 0.000000000000000000, 1.000000000000000000, 0.000000000000000000 ) ) ;
#55 = AXIS2_PLACEMENT_3D ( 'NONE', #138, #355, #707 ) ;
#56 = ORIENTED_EDGE ( 'NONE', *, *, #204, .F. ) ;
#57 = EDGE_CURVE ( 'NONE', #79, #553, #830, .T. ) ;
#58 = FACE_OUTER_BOUND ( 'NONE', #594, .T. ) ;
#59 = CARTESIAN_POINT ( 'NONE',  ( -5.586370142149013368E-14, 10.00000000000000000, 16.00000000000000000 ) ) ;
#60 = VERTEX_POINT ( 'NONE', #403 ) ;
#61 = CARTESIAN_POINT ( 'NONE',  ( -5.566163469963082448E-14, -4.666904755831215112, 14.35000000000000320 ) ) ;
#62 = APPLICATION_CONTEXT ( 'configuration controlled 3d designs of mechanical parts and assemblies' ) ;
#63 = EDGE_CURVE ( 'NONE', #869, #556, #116, .T. ) ;
#64 = CARTESIAN_POINT ( 'NONE',  ( -1.999999999999999112, 0.000000000000000000, -4.582575694955840717 ) ) ;
#65 = CARTESIAN_POINT ( 'NONE',  ( 0.000000000000000000, 10.00000000000000000, 5.000000000000000000 ) ) ;
#66 = ORIENTED_EDGE ( 'NONE', *, *, #779, .F. ) ;
#67 = CARTESIAN_POINT ( 'NONE',  ( -5.586370142149013368E-14, -4.666904755831215112, 16.00000000000000000 ) ) ;
#68 = EDGE_CURVE ( 'NONE', #423, #338, #410, .T. ) ;
#69 = DIRECTION ( 'NONE',  ( -0.000000000000000000, 1.000000000000000000, -0.000000000000000000 ) ) ;
#70 = CARTESIAN_POINT ( 'NONE',  ( -16.00000000000000000, 10.00000000000000000, -1.117274028429802674E-13 ) ) ;
#71 = VECTOR ( 'NONE', #238, 1000.000000000000000 ) ;
#72 = EDGE_LOOP ( 'NONE', ( #216, #187, #621, #399 ) ) ;
#73 = AXIS2_PLACEMENT_3D ( 'NONE', #283, #579, #364 ) ;
#74 = CC_DESIGN_SECURITY_CLASSIFICATION ( #485, ( #695 ) ) ;
#75 =( NAMED_UNIT ( * ) PLANE_ANGLE_UNIT ( ) SI_UNIT ( $, .RADIAN. ) );
#76 = ORIENTED_EDGE ( 'NONE', *, *, #876, .T. ) ;
#77 = LINE ( 'NONE', #922, #240 ) ;
#78 = PRODUCT_DEFINITION ( 'UNKNOWN', '', #695, #702 ) ;
#79 = VERTEX_POINT ( 'NONE', #341 ) ;
#80 = DIRECTION ( 'NONE',  ( 0.000000000000000000, 0.000000000000000000, 1.000000000000000000 ) ) ;
#81 = DIRECTION ( 'NONE',  ( 0.000000000000000000, 1.000000000000000000, 0.000000000000000000 ) ) ;
#82 = DIRECTION ( 'NONE',  ( 1.000000000000000000, 0.000000000000000000, 0.000000000000000000 ) ) ;
#83 = ORIENTED_EDGE ( 'NONE', *, *, #96, .F. ) ;
#84 = CARTESIAN_POINT ( 'NONE',  ( 16.00000000000000000, -4.666904755831215112, 0.000000000000000000 ) ) ;
#85 = CIRCLE ( 'NONE', #332, 5.000000000000000000 ) ;
#86 = AXIS2_PLACEMENT_3D ( 'NONE', #789, #571, #712 ) ;
#87 = DIRECTION ( 'NONE',  ( 0.000000000000000000, 0.000000000000000000, 1.000000000000000000 ) ) ;
#88 = ORIENTED_EDGE ( 'NONE', *, *, #508, .T. ) ;
#89 = DIRECTION ( 'NONE',  ( -0.000000000000000000, 1.000000000000000000, -0.000000000000000000 ) ) ;
#90 = FACE_OUTER_BOUND ( 'NONE', #634, .T. ) ;
#91 = CARTESIAN_POINT ( 'NONE',  ( 0.000000000000000000, 10.00000000000000000, 0.000000000000000000 ) ) ;
#92 = PERSON_AND_ORGANIZATION_ROLE ( 'classification_officer' ) ;
#93 = EDGE_CURVE ( 'NONE', #60, #705, #703, .T. ) ;
#94 = EDGE_LOOP ( 'NONE', ( #450, #851, #475, #496 ) ) ;
#95 = DIRECTION ( 'NONE',  ( -0.000000000000000000, 1.000000000000000000, -0.000000000000000000 ) ) ;
#96 = EDGE_CURVE ( 'NONE', #724, #921, #456, .T. ) ;
#97 = VECTOR ( 'NONE', #12, 1000.000000000000000 ) ;
#98 = CALENDAR_DATE ( 2026, 31, 7 ) ;
#99 = VERTEX_POINT ( 'NONE', #770 ) ;
#100 = DIRECTION ( 'NONE',  ( -0.000000000000000000, 1.000000000000000000, -0.000000000000000000 ) ) ;
#101 = EDGE_LOOP ( 'NONE', ( #601, #722 ) ) ;
#102 = AXIS2_PLACEMENT_3D ( 'NONE', #535, #466, #660 ) ;
#103 = AXIS2_PLACEMENT_3D ( 'NONE', #70, #649, #49 ) ;
#104 = ORIENTED_EDGE ( 'NONE', *, *, #685, .F. ) ;
#105 = DIRECTION ( 'NONE',  ( 0.000000000000000000, 0.000000000000000000, 1.000000000000000000 ) ) ;
#106 = ORIENTED_EDGE ( 'NONE', *, *, #183, .T. ) ;
#107 = VERTEX_POINT ( 'NONE', #490 ) ;
#108 = CARTESIAN_POINT ( 'NONE',  ( -5.586370142149013368E-14, -4.666904755831215112, 17.64999999999999858 ) ) ;
#109 = ORIENTED_EDGE ( 'NONE', *, *, #218, .F. ) ;
#110 = EDGE_CURVE ( 'NONE', #618, #60, #927, .T. ) ;
#111 = ORIENTED_EDGE ( 'NONE', *, *, #305, .F. ) ;
#112 = DIRECTION ( 'NONE',  ( 0.000000000000000000, 0.000000000000000000, 1.000000000000000000 ) ) ;
#113 = ORIENTED_EDGE ( 'NONE', *, *, #438, .F. ) ;
#114 = DIRECTION ( 'NONE',  ( -0.000000000000000000, 1.000000000000000000, -0.000000000000000000 ) ) ;
#115 = AXIS2_PLACEMENT_3D ( 'NONE', #529, #81, #814 ) ;
#116 = CIRCLE ( 'NONE', #331, 1.649999999999998579 ) ;
#117 = CIRCLE ( 'NONE', #365, 1.649999999999998579 ) ;
#118 = EDGE_CURVE ( 'NONE', #560, #758, #766, .T. ) ;
#119 = DIRECTION ( 'NONE',  ( -0.000000000000000000, 1.000000000000000000, -0.000000000000000000 ) ) ;
#120 = CARTESIAN_POINT ( 'NONE',  ( -11.31370849898465991, 10.00000000000000000, -12.96370849898485744 ) ) ;
#121 = CARTESIAN_POINT ( 'NONE',  ( 11.31370849898474162, 10.00000000000000000, 12.96370849898478284 ) ) ;
#122 = CARTESIAN_POINT ( 'NONE',  ( -16.00000000000000000, -4.666904755831215112, 1.649999999999887335 ) ) ;
#123 = ORIENTED_EDGE ( 'NONE', *, *, #715, .F. ) ;
#124 = EDGE_CURVE ( 'NONE', #912, #492, #913, .T. ) ;
#125 = DIRECTION ( 'NONE',  ( 0.000000000000000000, 0.000000000000000000, 1.000000000000000000 ) ) ;
#126 = CARTESIAN_POINT ( 'NONE',  ( 1.999999999999999112, 10.00000000000000000, 4.582575694955840717 ) ) ;
#127 = EDGE_LOOP ( 'NONE', ( #170, #709 ) ) ;
#128 = DIRECTION ( 'NONE',  ( 0.000000000000000000, 0.000000000000000000, 1.000000000000000000 ) ) ;
#129 = CIRCLE ( 'NONE', #919, 5.000000000000000000 ) ;
#130 = CARTESIAN_POINT ( 'NONE',  ( 11.31370849898490150, 10.00000000000000000, -11.31370849898462261 ) ) ;
#131 = DIRECTION ( 'NONE',  ( 0.000000000000000000, 0.000000000000000000, 1.000000000000000000 ) ) ;
#132 = AXIS2_PLACEMENT_3D ( 'NONE', #448, #730, #82 ) ;
#133 = ORIENTED_EDGE ( 'NONE', *, *, #93, .F. ) ;
#134 = CIRCLE ( 'NONE', #623, 1.649999999999998579 ) ;
#135 = COORDINATED_UNIVERSAL_TIME_OFFSET ( 3, 30, .AHEAD. ) ;
#136 = ADVANCED_FACE ( 'NONE', ( #58 ), #862, .F. ) ;
#137 = CARTESIAN_POINT ( 'NONE',  ( 0.000000000000000000, 10.00000000000000000, 0.000000000000000000 ) ) ;
#138 = CARTESIAN_POINT ( 'NONE',  ( -16.00000000000000000, -4.666904755831215112, -1.117274028429802674E-13 ) ) ;
#139 = EDGE_LOOP ( 'NONE', ( #581, #252 ) ) ;
#140 = EDGE_CURVE ( 'NONE', #381, #143, #622, .T. ) ;
#141 = DIRECTION ( 'NONE',  ( 0.000000000000000000, 1.000000000000000000, 0.000000000000000000 ) ) ;
#142 = CARTESIAN_POINT ( 'NONE',  ( -5.586370142149013368E-14, 10.00000000000000000, 17.64999999999999858 ) ) ;
#143 = VERTEX_POINT ( 'NONE', #505 ) ;
#144 = ADVANCED_FACE ( 'NONE', ( #214 ), #48, .F. ) ;
#145 = CARTESIAN_POINT ( 'NONE',  ( -11.31370849898465991, 0.000000000000000000, -11.31370849898485886 ) ) ;
#146 = AXIS2_PLACEMENT_3D ( 'NONE', #524, #803, #154 ) ;
#147 = VERTEX_POINT ( 'NONE', #202 ) ;
#148 = CARTESIAN_POINT ( 'NONE',  ( 0.000000000000000000, 0.000000000000000000, 5.000000000000000000 ) ) ;
#149 = VECTOR ( 'NONE', #855, 1000.000000000000000 ) ;
#150 = FACE_BOUND ( 'NONE', #834, .T. ) ;
#151 = DIRECTION ( 'NONE',  ( 0.000000000000000000, 0.000000000000000000, 1.000000000000000000 ) ) ;
#152 = EDGE_LOOP ( 'NONE', ( #316, #755, #271, #574 ) ) ;
#153 = CARTESIAN_POINT ( 'NONE',  ( 1.675911042644704011E-13, 0.000000000000000000, -15.99999999999999645 ) ) ;
#154 = DIRECTION ( 'NONE',  ( 0.000000000000000000, 0.000000000000000000, 1.000000000000000000 ) ) ;
#155 = EDGE_CURVE ( 'NONE', #99, #60, #285, .T. ) ;
#156 = ORIENTED_EDGE ( 'NONE', *, *, #57, .F. ) ;
#157 = FACE_BOUND ( 'NONE', #101, .T. ) ;
#158 = CARTESIAN_POINT ( 'NONE',  ( 11.31370849898490150, -4.666904755831215112, -11.31370849898462261 ) ) ;
#159 = CARTESIAN_POINT ( 'NONE',  ( 1.999999999999999112, -10.77032961426900748, -4.582575694955840717 ) ) ;
#160 = DATE_AND_TIME ( #25, #165 ) ;
#161 = APPLICATION_CONTEXT ( 'configuration controlled 3d designs of mechanical parts and assemblies' ) ;
#162 = VERTEX_POINT ( 'NONE', #121 ) ;
#163 = FACE_BOUND ( 'NONE', #910, .T. ) ;
#164 = CIRCLE ( 'NONE', #652, 1.649999999999998579 ) ;
#165 = LOCAL_TIME ( 13, 49, 8.000000000000000000, #135 ) ;
#166 = EDGE_CURVE ( 'NONE', #678, #618, #349, .T. ) ;
#167 = DIRECTION ( 'NONE',  ( -0.000000000000000000, -1.000000000000000000, -0.000000000000000000 ) ) ;
#168 = DIRECTION ( 'NONE',  ( 0.000000000000000000, 1.000000000000000000, 0.000000000000000000 ) ) ;
#169 = APPROVAL_ROLE ( '' ) ;
#170 = ORIENTED_EDGE ( 'NONE', *, *, #63, .F. ) ;
#171 = CYLINDRICAL_SURFACE ( 'NONE', #796, 1.649999999999998579 ) ;
#172 = ADVANCED_FACE ( 'NONE', ( #282 ), #263, .F. ) ;
#173 = APPROVAL_STATUS ( 'not_yet_approved' ) ;
#174 = LINE ( 'NONE', #34, #562 ) ;
#175 = DIRECTION ( 'NONE',  ( -0.000000000000000000, 1.000000000000000000, -0.000000000000000000 ) ) ;
#176 = DATE_AND_TIME ( #247, #813 ) ;
#177 = PRODUCT_RELATED_PRODUCT_CATEGORY ( 'detail', '', ( #16 ) ) ;
#178 = DIRECTION ( 'NONE',  ( -0.000000000000000000, 1.000000000000000000, -0.000000000000000000 ) ) ;
#179 = DIRECTION ( 'NONE',  ( -0.000000000000000000, 1.000000000000000000, -0.000000000000000000 ) ) ;
#180 = ORIENTED_EDGE ( 'NONE', *, *, #183, .F. ) ;
#181 = CIRCLE ( 'NONE', #470, 1.649999999999998579 ) ;
#182 = AXIS2_PLACEMENT_3D ( 'NONE', #278, #274, #778 ) ;
#183 = EDGE_CURVE ( 'NONE', #921, #724, #256, .T. ) ;
#184 = FACE_OUTER_BOUND ( 'NONE', #692, .T. ) ;
#185 = CARTESIAN_POINT ( 'NONE',  ( 1.999999999999999112, -10.77032961426900748, 4.582575694955840717 ) ) ;
#186 = ORIENTED_EDGE ( 'NONE', *, *, #580, .F. ) ;
#187 = ORIENTED_EDGE ( 'NONE', *, *, #899, .T. ) ;
#188 = DIRECTION ( 'NONE',  ( 0.000000000000000000, 0.000000000000000000, 1.000000000000000000 ) ) ;
#189 = EDGE_LOOP ( 'NONE', ( #156, #291 ) ) ;
#190 = ORIENTED_EDGE ( 'NONE', *, *, #288, .T. ) ;
#191 = CARTESIAN_POINT ( 'NONE',  ( 11.31370849898474162, -4.666904755831215112, 12.96370849898478284 ) ) ;
#192 = VERTEX_POINT ( 'NONE', #431 ) ;
#193 = CIRCLE ( 'NONE', #845, 1.650000000000000355 ) ;
#194 = VECTOR ( 'NONE', #404, 1000.000000000000000 ) ;
#195 = CARTESIAN_POINT ( 'NONE',  ( -5.586370142149013368E-14, -4.666904755831215112, 16.00000000000000000 ) ) ;
#196 = CARTESIAN_POINT ( 'NONE',  ( 0.000000000000000000, 0.000000000000000000, 0.000000000000000000 ) ) ;
#197 = VERTEX_POINT ( 'NONE', #716 ) ;
#198 = EDGE_CURVE ( 'NONE', #902, #343, #907, .T. ) ;
#199 = CARTESIAN_POINT ( 'NONE',  ( 16.00000000000000000, 10.00000000000000000, 0.000000000000000000 ) ) ;
#200 = CARTESIAN_POINT ( 'NONE',  ( 16.00000000000000000, -4.666904755831215112, 0.000000000000000000 ) ) ;
#201 = ORIENTED_EDGE ( 'NONE', *, *, #198, .T. ) ;
#202 = CARTESIAN_POINT ( 'NONE',  ( -11.31370849898465991, 0.000000000000000000, -9.663708498984860285 ) ) ;
#203 = CARTESIAN_POINT ( 'NONE',  ( 0.000000000000000000, 10.00000000000000000, -27.00000000000000000 ) ) ;
#204 = EDGE_CURVE ( 'NONE', #192, #437, #134, .T. ) ;
#205 = EDGE_LOOP ( 'NONE', ( #260, #76, #458, #641 ) ) ;
#206 = CYLINDRICAL_SURFACE ( 'NONE', #828, 5.000000000000000000 ) ;
#207 = CIRCLE ( 'NONE', #633, 1.649999999999998579 ) ;
#208 = DIRECTION ( 'NONE',  ( -0.000000000000000000, 1.000000000000000000, -0.000000000000000000 ) ) ;
#209 = CARTESIAN_POINT ( 'NONE',  ( 1.675911042644704011E-13, 0.000000000000000000, -15.99999999999999645 ) ) ;
#210 = CIRCLE ( 'NONE', #103, 1.649999999999998801 ) ;
#211 = ADVANCED_FACE ( 'NONE', ( #843 ), #648, .F. ) ;
#212 = ORIENTED_EDGE ( 'NONE', *, *, #909, .F. ) ;
#213 = FACE_OUTER_BOUND ( 'NONE', #72, .T. ) ;
#214 = FACE_OUTER_BOUND ( 'NONE', #322, .T. ) ;
#215 = CYLINDRICAL_SURFACE ( 'NONE', #55, 1.649999999999998801 ) ;
#216 = ORIENTED_EDGE ( 'NONE', *, *, #337, .F. ) ;
#217 = DIRECTION ( 'NONE',  ( -0.000000000000000000, 1.000000000000000000, -0.000000000000000000 ) ) ;
#218 = EDGE_CURVE ( 'NONE', #430, #847, #668, .T. ) ;
#219 = DIRECTION ( 'NONE',  ( 0.000000000000000000, 0.000000000000000000, 1.000000000000000000 ) ) ;
#220 = LINE ( 'NONE', #924, #620 ) ;
#221 = ORIENTED_EDGE ( 'NONE', *, *, #118, .F. ) ;
#222 = CARTESIAN_POINT ( 'NONE',  ( 11.31370849898490150, -4.666904755831215112, -12.96370849898462119 ) ) ;
#223 = PLANE ( 'NONE',  #440 ) ;
#224 = ORIENTED_EDGE ( 'NONE', *, *, #369, .T. ) ;
#225 = DIRECTION ( 'NONE',  ( 0.000000000000000000, 0.000000000000000000, 1.000000000000000000 ) ) ;
#226 = CARTESIAN_POINT ( 'NONE',  ( -16.00000000000000000, 0.000000000000000000, -1.117274028429802674E-13 ) ) ;
#227 = CYLINDRICAL_SURFACE ( 'NONE', #798, 27.00000000000000000 ) ;
#228 = VERTEX_POINT ( 'NONE', #740 ) ;
#229 = DIRECTION ( 'NONE',  ( 0.000000000000000000, 0.000000000000000000, 1.000000000000000000 ) ) ;
#230 = DIRECTION ( 'NONE',  ( 0.000000000000000000, 0.000000000000000000, 1.000000000000000000 ) ) ;
#231 = DIRECTION ( 'NONE',  ( -1.000000000000000000, 0.000000000000000000, 0.000000000000000000 ) ) ;
#232 = ORIENTED_EDGE ( 'NONE', *, *, #508, .F. ) ;
#233 = FACE_BOUND ( 'NONE', #405, .T. ) ;
#234 = CC_DESIGN_PERSON_AND_ORGANIZATION_ASSIGNMENT ( #935, #51, ( #78 ) ) ;
#235 = CARTESIAN_POINT ( 'NONE',  ( 16.00000000000000000, 0.000000000000000000, 1.649999999999998579 ) ) ;
#236 = ADVANCED_FACE ( 'NONE', ( #671, #292, #367, #873, #800, #150, #3, #443, #297, #596 ), #792, .F. ) ;
#237 = ORIENTED_EDGE ( 'NONE', *, *, #476, .F. ) ;
#238 = DIRECTION ( 'NONE',  ( -0.000000000000000000, 1.000000000000000000, -0.000000000000000000 ) ) ;
#239 = EDGE_CURVE ( 'NONE', #343, #560, #653, .T. ) ;
#240 = VECTOR ( 'NONE', #272, 1000.000000000000000 ) ;
#241 = VECTOR ( 'NONE', #69, 1000.000000000000000 ) ;
#242 = VECTOR ( 'NONE', #940, 1000.000000000000000 ) ;
#243 = APPROVAL_STATUS ( 'not_yet_approved' ) ;
#244 = CARTESIAN_POINT ( 'NONE',  ( -5.586370142149013368E-14, 0.000000000000000000, 16.00000000000000000 ) ) ;
#245 = CARTESIAN_POINT ( 'NONE',  ( 16.00000000000000000, 10.00000000000000000, 0.000000000000000000 ) ) ;
#246 = EDGE_CURVE ( 'NONE', #343, #902, #289, .T. ) ;
#247 = CALENDAR_DATE ( 2026, 31, 7 ) ;
#248 = ORIENTED_EDGE ( 'NONE', *, *, #124, .T. ) ;
#249 = DIRECTION ( 'NONE',  ( -0.000000000000000000, -1.000000000000000000, -0.000000000000000000 ) ) ;
#250 = LINE ( 'NONE', #551, #532 ) ;
#251 = DIRECTION ( 'NONE',  ( -0.000000000000000000, 1.000000000000000000, -0.000000000000000000 ) ) ;
#252 = ORIENTED_EDGE ( 'NONE', *, *, #246, .F. ) ;
#253 = CIRCLE ( 'NONE', #859, 1.649999999999997025 ) ;
#254 = VECTOR ( 'NONE', #354, 1000.000000000000000 ) ;
#255 = ORGANIZATION ( 'UNSPECIFIED', 'UNSPECIFIED', '' ) ;
#256 = CIRCLE ( 'NONE', #784, 27.00000000000000000 ) ;
#257 = VERTEX_POINT ( 'NONE', #520 ) ;
#258 = CARTESIAN_POINT ( 'NONE',  ( 11.31370849898474162, -4.666904755831215112, 11.31370849898478248 ) ) ;
#259 = ORIENTED_EDGE ( 'NONE', *, *, #305, .T. ) ;
#260 = ORIENTED_EDGE ( 'NONE', *, *, #829, .T. ) ;
#261 = DIRECTION ( 'NONE',  ( -0.000000000000000000, -1.000000000000000000, -0.000000000000000000 ) ) ;
#262 = EDGE_LOOP ( 'NONE', ( #390, #221 ) ) ;
#263 = CYLINDRICAL_SURFACE ( 'NONE', #86, 1.649999999999998579 ) ;
#264 = FACE_OUTER_BOUND ( 'NONE', #886, .T. ) ;
#265 = ORIENTED_EDGE ( 'NONE', *, *, #701, .F. ) ;
#266 = EDGE_CURVE ( 'NONE', #761, #162, #498, .T. ) ;
#267 = CIRCLE ( 'NONE', #330, 1.649999999999998579 ) ;
#268 = CIRCLE ( 'NONE', #397, 1.649999999999998579 ) ;
#269 = DIRECTION ( 'NONE',  ( 0.000000000000000000, 1.000000000000000000, 0.000000000000000000 ) ) ;
#270 = DIRECTION ( 'NONE',  ( 0.000000000000000000, 0.000000000000000000, 1.000000000000000000 ) ) ;
#271 = ORIENTED_EDGE ( 'NONE', *, *, #685, .T. ) ;
#272 = DIRECTION ( 'NONE',  ( -0.000000000000000000, 1.000000000000000000, -0.000000000000000000 ) ) ;
#273 = CARTESIAN_POINT ( 'NONE',  ( -16.00000000000000000, 10.00000000000000000, -1.117274028429802674E-13 ) ) ;
#274 = DIRECTION ( 'NONE',  ( 1.000000000000000000, 0.000000000000000000, 0.000000000000000000 ) ) ;
#275 = EDGE_LOOP ( 'NONE', ( #212, #627 ) ) ;
#276 = ADVANCED_FACE ( 'NONE', ( #884 ), #447, .F. ) ;
#277 = CARTESIAN_POINT ( 'NONE',  ( 1.677931709863297103E-13, -4.666904755831215112, -17.64999999999999503 ) ) ;
#278 = CARTESIAN_POINT ( 'NONE',  ( 1.999999999999999112, -10.77032961426900748, 4.582575694955840717 ) ) ;
#279 = ORIENTED_EDGE ( 'NONE', *, *, #626, .T. ) ;
#280 = DIRECTION ( 'NONE',  ( 0.000000000000000000, 0.000000000000000000, 1.000000000000000000 ) ) ;
#281 = AXIS2_PLACEMENT_3D ( 'NONE', #84, #89, #2 ) ;
#282 = FACE_OUTER_BOUND ( 'NONE', #791, .T. ) ;
#283 = CARTESIAN_POINT ( 'NONE',  ( 0.000000000000000000, 0.000000000000000000, 0.000000000000000000 ) ) ;
#284 = APPROVAL_PERSON_ORGANIZATION ( #804, #865, #169 ) ;
#285 = CIRCLE ( 'NONE', #460, 5.000000000000000000 ) ;
#286 = VERTEX_POINT ( 'NONE', #235 ) ;
#287 = DIRECTION ( 'NONE',  ( 0.000000000000000000, 0.000000000000000000, 1.000000000000000000 ) ) ;
#288 = EDGE_CURVE ( 'NONE', #492, #565, #361, .T. ) ;
#289 = CIRCLE ( 'NONE', #21, 1.649999999999998801 ) ;
#290 = DIRECTION ( 'NONE',  ( -0.000000000000000000, 1.000000000000000000, -0.000000000000000000 ) ) ;
#291 = ORIENTED_EDGE ( 'NONE', *, *, #748, .F. ) ;
#292 = FACE_BOUND ( 'NONE', #877, .T. ) ;
#293 = CARTESIAN_POINT ( 'NONE',  ( -11.31370849898465991, 0.000000000000000000, -11.31370849898485886 ) ) ;
#294 = EDGE_LOOP ( 'NONE', ( #462, #908 ) ) ;
#295 = DIRECTION ( 'NONE',  ( 0.000000000000000000, 1.000000000000000000, 0.000000000000000000 ) ) ;
#296 = ADVANCED_BREP_SHAPE_REPRESENTATION ( 'MotorBackCap_Default_sldprt', ( #745, #132 ), #637 ) ;
#297 = FACE_BOUND ( 'NONE', #40, .T. ) ;
#298 = DATE_TIME_ROLE ( 'classification_date' ) ;
#299 = AXIS2_PLACEMENT_3D ( 'NONE', #414, #698, #753 ) ;
#300 = VECTOR ( 'NONE', #874, 1000.000000000000000 ) ;
#301 = ORIENTED_EDGE ( 'NONE', *, *, #673, .F. ) ;
#302 = CARTESIAN_POINT ( 'NONE',  ( -5.586370142149013368E-14, 10.00000000000000000, 16.00000000000000000 ) ) ;
#303 = DIRECTION ( 'NONE',  ( 0.000000000000000000, 0.000000000000000000, 1.000000000000000000 ) ) ;
#304 = DIRECTION ( 'NONE',  ( 0.000000000000000000, 0.000000000000000000, 1.000000000000000000 ) ) ;
#305 = EDGE_CURVE ( 'NONE', #257, #147, #181, .T. ) ;
#306 = ORIENTED_EDGE ( 'NONE', *, *, #711, .T. ) ;
#307 = CARTESIAN_POINT ( 'NONE',  ( 1.677931709863297103E-13, 10.00000000000000000, -17.64999999999999503 ) ) ;
#308 = ADVANCED_FACE ( 'NONE', ( #90 ), #587, .F. ) ;
#309 = DIRECTION ( 'NONE',  ( -0.000000000000000000, -1.000000000000000000, -0.000000000000000000 ) ) ;
#310 = DIRECTION ( 'NONE',  ( -0.000000000000000000, -1.000000000000000000, -0.000000000000000000 ) ) ;
#311 = DATE_AND_TIME ( #893, #427 ) ;
#312 = ORIENTED_EDGE ( 'NONE', *, *, #68, .T. ) ;
#313 = DIRECTION ( 'NONE',  ( 0.000000000000000000, 1.000000000000000000, 0.000000000000000000 ) ) ;
#314 = LINE ( 'NONE', #525, #380 ) ;
#315 = APPROVAL_ROLE ( '' ) ;
#316 = ORIENTED_EDGE ( 'NONE', *, *, #57, .T. ) ;
#317 = LINE ( 'NONE', #590, #71 ) ;
#318 = CIRCLE ( 'NONE', #52, 27.00000000000000000 ) ;
#319 = APPROVAL_DATE_TIME ( #24, #933 ) ;
#320 = CARTESIAN_POINT ( 'NONE',  ( 1.999999999999999112, 0.000000000000000000, -4.582575694955840717 ) ) ;
#321 = DIRECTION ( 'NONE',  ( -0.000000000000000000, 1.000000000000000000, -0.000000000000000000 ) ) ;
#322 = EDGE_LOOP ( 'NONE', ( #839, #527, #306, #655 ) ) ;
#323 = ORIENTED_EDGE ( 'NONE', *, *, #848, .T. ) ;
#324 = DIRECTION ( 'NONE',  ( 0.000000000000000000, 1.000000000000000000, 0.000000000000000000 ) ) ;
#325 = ORIENTED_EDGE ( 'NONE', *, *, #642, .F. ) ;
#326 = ADVANCED_FACE ( 'NONE', ( #582 ), #206, .F. ) ;
#327 = ORIENTED_EDGE ( 'NONE', *, *, #118, .T. ) ;
#328 = DIRECTION ( 'NONE',  ( -0.000000000000000000, 1.000000000000000000, -0.000000000000000000 ) ) ;
#329 = EDGE_LOOP ( 'NONE', ( #336, #544, #356, #517, #133 ) ) ;
#330 = AXIS2_PLACEMENT_3D ( 'NONE', #683, #844, #699 ) ;
#331 = AXIS2_PLACEMENT_3D ( 'NONE', #244, #706, #125 ) ;
#332 = AXIS2_PLACEMENT_3D ( 'NONE', #793, #168, #600 ) ;
#333 = EDGE_CURVE ( 'NONE', #553, #437, #497, .T. ) ;
#334 = ORIENTED_EDGE ( 'NONE', *, *, #656, .T. ) ;
#335 = DIRECTION ( 'NONE',  ( -0.000000000000000000, 1.000000000000000000, -0.000000000000000000 ) ) ;
#336 = ORIENTED_EDGE ( 'NONE', *, *, #155, .F. ) ;
#337 = EDGE_CURVE ( 'NONE', #556, #197, #782, .T. ) ;
#338 = VERTEX_POINT ( 'NONE', #148 ) ;
#339 = CARTESIAN_POINT ( 'NONE',  ( -11.31370849898482156, 0.000000000000000000, 11.31370849898470077 ) ) ;
#340 = ORIENTED_EDGE ( 'NONE', *, *, #557, .T. ) ;
#341 = CARTESIAN_POINT ( 'NONE',  ( 11.31370849898490150, 0.000000000000000000, -9.663708498984624029 ) ) ;
#342 = DIRECTION ( 'NONE',  ( -0.000000000000000000, 1.000000000000000000, -0.000000000000000000 ) ) ;
#343 = VERTEX_POINT ( 'NONE', #725 ) ;
#344 = CC_DESIGN_DATE_AND_TIME_ASSIGNMENT ( #160, #385, ( #78 ) ) ;
#345 = AXIS2_PLACEMENT_3D ( 'NONE', #41, #261, #559 ) ;
#346 = VECTOR ( 'NONE', #328, 1000.000000000000000 ) ;
#347 = AXIS2_PLACEMENT_3D ( 'NONE', #719, #417, #563 ) ;
#348 = LOCAL_TIME ( 13, 49, 8.000000000000000000, #735 ) ;
#349 = LINE ( 'NONE', #64, #938 ) ;
#350 = CARTESIAN_POINT ( 'NONE',  ( 11.31370849898474162, 10.00000000000000000, 9.663708498984782125 ) ) ;
#351 = EDGE_LOOP ( 'NONE', ( #759, #248, #190, #827 ) ) ;
#352 = FACE_OUTER_BOUND ( 'NONE', #351, .T. ) ;
#353 = EDGE_CURVE ( 'NONE', #678, #705, #77, .T. ) ;
#354 = DIRECTION ( 'NONE',  ( 0.000000000000000000, 0.000000000000000000, 1.000000000000000000 ) ) ;
#355 = DIRECTION ( 'NONE',  ( -0.000000000000000000, 1.000000000000000000, -0.000000000000000000 ) ) ;
#356 = ORIENTED_EDGE ( 'NONE', *, *, #412, .F. ) ;
#357 = CYLINDRICAL_SURFACE ( 'NONE', #889, 1.649999999999997025 ) ;
#358 = DIRECTION ( 'NONE',  ( 0.000000000000000000, 1.000000000000000000, 0.000000000000000000 ) ) ;
#359 = LINE ( 'NONE', #203, #149 ) ;
#360 = ORIENTED_EDGE ( 'NONE', *, *, #573, .F. ) ;
#361 = CIRCLE ( 'NONE', #115, 1.649999999999997025 ) ;
#362 = DIRECTION ( 'NONE',  ( 0.000000000000000000, 1.000000000000000000, 0.000000000000000000 ) ) ;
#363 = AXIS2_PLACEMENT_3D ( 'NONE', #273, #362, #785 ) ;
#364 = DIRECTION ( 'NONE',  ( 0.000000000000000000, 0.000000000000000000, 1.000000000000000000 ) ) ;
#365 = AXIS2_PLACEMENT_3D ( 'NONE', #932, #584, #569 ) ;
#366 = ORIENTED_EDGE ( 'NONE', *, *, #848, .F. ) ;
#367 = FACE_BOUND ( 'NONE', #127, .T. ) ;
#368 = LINE ( 'NONE', #159, #300 ) ;
#369 = EDGE_CURVE ( 'NONE', #585, #837, #207, .T. ) ;
#370 = ORIENTED_EDGE ( 'NONE', *, *, #540, .F. ) ;
#371 = DIRECTION ( 'NONE',  ( -0.000000000000000000, -1.000000000000000000, -0.000000000000000000 ) ) ;
#372 = DIRECTION ( 'NONE',  ( -0.000000000000000000, 1.000000000000000000, -0.000000000000000000 ) ) ;
#373 = SECURITY_CLASSIFICATION_LEVEL ( 'unclassified' ) ;
#374 = VERTEX_POINT ( 'NONE', #424 ) ;
#375 = CARTESIAN_POINT ( 'NONE',  ( 11.31370849898474162, 10.00000000000000000, 11.31370849898478248 ) ) ;
#376 = ADVANCED_FACE ( 'NONE', ( #352 ), #357, .F. ) ;
#377 = DIRECTION ( 'NONE',  ( -0.000000000000000000, 1.000000000000000000, -0.000000000000000000 ) ) ;
#378 = APPLICATION_PROTOCOL_DEFINITION ( 'international standard', 'config_control_design', 1994, #62 ) ;
#379 = VECTOR ( 'NONE', #179, 1000.000000000000000 ) ;
#380 = VECTOR ( 'NONE', #87, 1000.000000000000000 ) ;
#381 = VERTEX_POINT ( 'NONE', #575 ) ;
#382 = DIRECTION ( 'NONE',  ( 0.000000000000000000, 1.000000000000000000, 0.000000000000000000 ) ) ;
#383 = ADVANCED_FACE ( 'NONE', ( #213 ), #788, .F. ) ;
#384 = DIRECTION ( 'NONE',  ( 0.000000000000000000, 0.000000000000000000, 1.000000000000000000 ) ) ;
#385 = DATE_TIME_ROLE ( 'creation_date' ) ;
#386 = ORIENTED_EDGE ( 'NONE', *, *, #401, .F. ) ;
#387 = CARTESIAN_POINT ( 'NONE',  ( 0.000000000000000000, 10.00000000000000000, 0.000000000000000000 ) ) ;
#388 = DIRECTION ( 'NONE',  ( -0.000000000000000000, -1.000000000000000000, -0.000000000000000000 ) ) ;
#389 = ADVANCED_FACE ( 'NONE', ( #823 ), #391, .F. ) ;
#390 = ORIENTED_EDGE ( 'NONE', *, *, #762, .F. ) ;
#391 = CYLINDRICAL_SURFACE ( 'NONE', #281, 1.649999999999998579 ) ;
#392 = PERSON_AND_ORGANIZATION_ROLE ( 'design_owner' ) ;
#393 = PERSON_AND_ORGANIZATION ( #43, #255 ) ;
#394 = ORIENTED_EDGE ( 'NONE', *, *, #647, .T. ) ;
#395 = CARTESIAN_POINT ( 'NONE',  ( -1.999999999999999112, 0.000000000000000000, -4.582575694955840717 ) ) ;
#396 = ORIENTED_EDGE ( 'NONE', *, *, #369, .F. ) ;
#397 = AXIS2_PLACEMENT_3D ( 'NONE', #453, #310, #658 ) ;
#398 = APPROVAL_PERSON_ORGANIZATION ( #18, #434, #315 ) ;
#399 = ORIENTED_EDGE ( 'NONE', *, *, #401, .T. ) ;
#400 = LINE ( 'NONE', #482, #751 ) ;
#401 = EDGE_CURVE ( 'NONE', #772, #197, #8, .T. ) ;
#402 = ORIENTED_EDGE ( 'NONE', *, *, #715, .T. ) ;
#403 = CARTESIAN_POINT ( 'NONE',  ( -1.999999999999999112, 10.00000000000000000, -4.582575694955840717 ) ) ;
#404 = DIRECTION ( 'NONE',  ( -0.000000000000000000, 1.000000000000000000, -0.000000000000000000 ) ) ;
#405 = EDGE_LOOP ( 'NONE', ( #56, #104 ) ) ;
#406 = CC_DESIGN_DATE_AND_TIME_ASSIGNMENT ( #311, #298, ( #485 ) ) ;
#407 = ORIENTED_EDGE ( 'NONE', *, *, #603, .T. ) ;
#408 = DIRECTION ( 'NONE',  ( -0.000000000000000000, -1.000000000000000000, -0.000000000000000000 ) ) ;
#409 = ORIENTED_EDGE ( 'NONE', *, *, #449, .F. ) ;
#410 = CIRCLE ( 'NONE', #347, 5.000000000000000000 ) ;
#411 = CIRCLE ( 'NONE', #548, 5.000000000000000000 ) ;
#412 = EDGE_CURVE ( 'NONE', #686, #787, #681, .T. ) ;
#413 = AXIS2_PLACEMENT_3D ( 'NONE', #568, #421, #854 ) ;
#414 = CARTESIAN_POINT ( 'NONE',  ( -11.31370849898465991, -4.666904755831215112, -11.31370849898485886 ) ) ;
#415 = CARTESIAN_POINT ( 'NONE',  ( 1.675911042644704011E-13, 0.000000000000000000, -14.34999999999999964 ) ) ;
#416 = ORIENTED_EDGE ( 'NONE', *, *, #739, .T. ) ;
#417 = DIRECTION ( 'NONE',  ( -0.000000000000000000, -1.000000000000000000, -0.000000000000000000 ) ) ;
#418 = FACE_OUTER_BOUND ( 'NONE', #94, .T. ) ;
#419 = EDGE_CURVE ( 'NONE', #912, #522, #903, .T. ) ;
#420 = VERTEX_POINT ( 'NONE', #802 ) ;
#421 = DIRECTION ( 'NONE',  ( -0.000000000000000000, 1.000000000000000000, -0.000000000000000000 ) ) ;
#422 = CARTESIAN_POINT ( 'NONE',  ( -16.00000000000000000, 10.00000000000000000, 1.649999999999887335 ) ) ;
#423 = VERTEX_POINT ( 'NONE', #738 ) ;
#424 = CARTESIAN_POINT ( 'NONE',  ( 16.00000000000000000, 0.000000000000000000, -1.649999999999998579 ) ) ;
#425 = AXIS2_PLACEMENT_3D ( 'NONE', #67, #95, #80 ) ;
#426 = AXIS2_PLACEMENT_3D ( 'NONE', #258, #866, #704 ) ;
#427 = LOCAL_TIME ( 13, 49, 8.000000000000000000, #742 ) ;
#428 = DIRECTION ( 'NONE',  ( 0.000000000000000000, 0.000000000000000000, 1.000000000000000000 ) ) ;
#429 = CARTESIAN_POINT ( 'NONE',  ( -1.999999999999999112, 0.000000000000000000, 4.582575694955840717 ) ) ;
#430 = VERTEX_POINT ( 'NONE', #670 ) ;
#431 = CARTESIAN_POINT ( 'NONE',  ( 11.31370849898490150, 10.00000000000000000, -9.663708498984624029 ) ) ;
#432 = CARTESIAN_POINT ( 'NONE',  ( 11.31370849898490150, 10.00000000000000000, -11.31370849898462261 ) ) ;
#433 = ORIENTED_EDGE ( 'NONE', *, *, #701, .T. ) ;
#434 = APPROVAL ( #454, 'UNSPECIFIED' ) ;
#435 = DIRECTION ( 'NONE',  ( -0.000000000000000000, -1.000000000000000000, -0.000000000000000000 ) ) ;
#436 = DIRECTION ( 'NONE',  ( -0.000000000000000000, -1.000000000000000000, -0.000000000000000000 ) ) ;
#437 = VERTEX_POINT ( 'NONE', #11 ) ;
#438 = EDGE_CURVE ( 'NONE', #847, #761, #451, .T. ) ;
#439 = FACE_OUTER_BOUND ( 'NONE', #14, .T. ) ;
#440 = AXIS2_PLACEMENT_3D ( 'NONE', #741, #231, #384 ) ;
#441 = ORIENTED_EDGE ( 'NONE', *, *, #333, .F. ) ;
#442 = DIRECTION ( 'NONE',  ( 0.000000000000000000, 0.000000000000000000, 1.000000000000000000 ) ) ;
#443 = FACE_BOUND ( 'NONE', #189, .T. ) ;
#444 = CARTESIAN_POINT ( 'NONE',  ( -5.586370142149013368E-14, 0.000000000000000000, 16.00000000000000000 ) ) ;
#445 = ORIENTED_EDGE ( 'NONE', *, *, #239, .T. ) ;
#446 = CARTESIAN_POINT ( 'NONE',  ( 11.31370849898474162, -4.666904755831215112, 9.663708498984782125 ) ) ;
#447 = CYLINDRICAL_SURFACE ( 'NONE', #591, 1.649999999999998579 ) ;
#448 = CARTESIAN_POINT ( 'NONE',  ( 0.000000000000000000, 0.000000000000000000, 0.000000000000000000 ) ) ;
#449 = EDGE_CURVE ( 'NONE', #374, #143, #317, .T. ) ;
#450 = ORIENTED_EDGE ( 'NONE', *, *, #909, .T. ) ;
#451 = LINE ( 'NONE', #446, #812 ) ;
#452 = ADVANCED_FACE ( 'NONE', ( #20 ), #679, .F. ) ;
#453 = CARTESIAN_POINT ( 'NONE',  ( 16.00000000000000000, 0.000000000000000000, 0.000000000000000000 ) ) ;
#454 = APPROVAL_STATUS ( 'not_yet_approved' ) ;
#455 = VECTOR ( 'NONE', #249, 1000.000000000000000 ) ;
#456 = CIRCLE ( 'NONE', #936, 27.00000000000000000 ) ;
#457 = AXIS2_PLACEMENT_3D ( 'NONE', #444, #521, #726 ) ;
#458 = ORIENTED_EDGE ( 'NONE', *, *, #155, .T. ) ;
#459 = PLANE ( 'NONE',  #733 ) ;
#460 = AXIS2_PLACEMENT_3D ( 'NONE', #931, #269, #773 ) ;
#461 = DIRECTION ( 'NONE',  ( 0.000000000000000000, 0.000000000000000000, 1.000000000000000000 ) ) ;
#462 = ORIENTED_EDGE ( 'NONE', *, *, #838, .F. ) ;
#463 = CARTESIAN_POINT ( 'NONE',  ( -11.31370849898465991, -4.666904755831215112, -11.31370849898485886 ) ) ;
#464 = PERSON_AND_ORGANIZATION_ROLE ( 'creator' ) ;
#465 = ORIENTED_EDGE ( 'NONE', *, *, #419, .T. ) ;
#466 = DIRECTION ( 'NONE',  ( -0.000000000000000000, -1.000000000000000000, -0.000000000000000000 ) ) ;
#467 = EDGE_CURVE ( 'NONE', #107, #228, #318, .T. ) ;
#468 = CYLINDRICAL_SURFACE ( 'NONE', #299, 1.649999999999998579 ) ;
#469 = CARTESIAN_POINT ( 'NONE',  ( -11.31370849898482156, 0.000000000000000000, 9.663708498984702189 ) ) ;
#470 = AXIS2_PLACEMENT_3D ( 'NONE', #145, #167, #461 ) ;
#471 = AXIS2_PLACEMENT_3D ( 'NONE', #491, #918, #270 ) ;
#472 = ORIENTED_EDGE ( 'NONE', *, *, #353, .F. ) ;
#473 = ORIENTED_EDGE ( 'NONE', *, *, #748, .T. ) ;
#474 = DIRECTION ( 'NONE',  ( -0.000000000000000000, 1.000000000000000000, -0.000000000000000000 ) ) ;
#475 = ORIENTED_EDGE ( 'NONE', *, *, #476, .T. ) ;
#476 = EDGE_CURVE ( 'NONE', #143, #381, #606, .T. ) ;
#477 = DIRECTION ( 'NONE',  ( 0.000000000000000000, 0.000000000000000000, 1.000000000000000000 ) ) ;
#478 = LINE ( 'NONE', #694, #780 ) ;
#479 = ORIENTED_EDGE ( 'NONE', *, *, #353, .T. ) ;
#480 = EDGE_CURVE ( 'NONE', #162, #761, #193, .T. ) ;
#481 = ORIENTED_EDGE ( 'NONE', *, *, #580, .T. ) ;
#482 = CARTESIAN_POINT ( 'NONE',  ( -11.31370849898482156, -4.666904755831215112, 12.96370849898469935 ) ) ;
#483 = AXIS2_PLACEMENT_3D ( 'NONE', #153, #371, #539 ) ;
#484 = AXIS2_PLACEMENT_3D ( 'NONE', #432, #720, #131 ) ;
#485 = SECURITY_CLASSIFICATION ( '', '', #373 ) ;
#486 = UNCERTAINTY_MEASURE_WITH_UNIT (LENGTH_MEASURE( 1.000000000000000082E-05 ), #17, 'distance_accuracy_value', 'NONE');
#487 = CARTESIAN_POINT ( 'NONE',  ( -16.00000000000000000, -4.666904755831215112, -1.117274028429802674E-13 ) ) ;
#488 = CARTESIAN_POINT ( 'NONE',  ( -5.566163469963082448E-14, 0.000000000000000000, 14.35000000000000320 ) ) ;
#489 = ORIENTED_EDGE ( 'NONE', *, *, #586, .T. ) ;
#490 = CARTESIAN_POINT ( 'NONE',  ( 3.306546357697853733E-15, 0.000000000000000000, 27.00000000000000000 ) ) ;
#491 = CARTESIAN_POINT ( 'NONE',  ( 11.31370849898474162, -4.666904755831215112, 11.31370849898478248 ) ) ;
#492 = VERTEX_POINT ( 'NONE', #307 ) ;
#493 = CARTESIAN_POINT ( 'NONE',  ( 0.000000000000000000, -10.77032961426900748, 0.000000000000000000 ) ) ;
#494 = DIRECTION ( 'NONE',  ( 0.000000000000000000, 0.000000000000000000, 1.000000000000000000 ) ) ;
#495 = CARTESIAN_POINT ( 'NONE',  ( 11.31370849898490150, 0.000000000000000000, -11.31370849898462261 ) ) ;
#496 = ORIENTED_EDGE ( 'NONE', *, *, #33, .F. ) ;
#497 = LINE ( 'NONE', #222, #708 ) ;
#498 = CIRCLE ( 'NONE', #146, 1.650000000000000355 ) ;
#499 = CIRCLE ( 'NONE', #484, 1.649999999999998579 ) ;
#500 = AXIS2_PLACEMENT_3D ( 'NONE', #917, #435, #777 ) ;
#501 = DIRECTION ( 'NONE',  ( 0.000000000000000000, 0.000000000000000000, 1.000000000000000000 ) ) ;
#502 = DIRECTION ( 'NONE',  ( -0.000000000000000000, -1.000000000000000000, -0.000000000000000000 ) ) ;
#503 = ORIENTED_EDGE ( 'NONE', *, *, #93, .T. ) ;
#504 = EDGE_CURVE ( 'NONE', #847, #430, #22, .T. ) ;
#505 = CARTESIAN_POINT ( 'NONE',  ( 16.00000000000000000, 10.00000000000000000, -1.649999999999998579 ) ) ;
#506 = CYLINDRICAL_SURFACE ( 'NONE', #471, 1.650000000000000355 ) ;
#507 = ORIENTED_EDGE ( 'NONE', *, *, #412, .T. ) ;
#508 = EDGE_CURVE ( 'NONE', #837, #585, #561, .T. ) ;
#509 = DIRECTION ( 'NONE',  ( -0.000000000000000000, -1.000000000000000000, -0.000000000000000000 ) ) ;
#510 = DIRECTION ( 'NONE',  ( 0.000000000000000000, 0.000000000000000000, 1.000000000000000000 ) ) ;
#511 = ORIENTED_EDGE ( 'NONE', *, *, #876, .F. ) ;
#512 = AXIS2_PLACEMENT_3D ( 'NONE', #339, #408, #112 ) ;
#513 = AXIS2_PLACEMENT_3D ( 'NONE', #245, #382, #728 ) ;
#514 =( NAMED_UNIT ( * ) SI_UNIT ( $, .STERADIAN. ) SOLID_ANGLE_UNIT ( ) );
#515 = CIRCLE ( 'NONE', #457, 1.649999999999998579 ) ;
#516 = ADVANCED_FACE ( 'NONE', ( #662, #750, #610, #157, #818, #163, #883, #233, #528, #810 ), #459, .T. ) ;
#517 = ORIENTED_EDGE ( 'NONE', *, *, #915, .F. ) ;
#518 = DIRECTION ( 'NONE',  ( 0.000000000000000000, 1.000000000000000000, 0.000000000000000000 ) ) ;
#519 = ADVANCED_FACE ( 'NONE', ( #887 ), #171, .F. ) ;
#520 = CARTESIAN_POINT ( 'NONE',  ( -11.31370849898465991, 0.000000000000000000, -12.96370849898485744 ) ) ;
#521 = DIRECTION ( 'NONE',  ( -0.000000000000000000, -1.000000000000000000, -0.000000000000000000 ) ) ;
#522 = VERTEX_POINT ( 'NONE', #415 ) ;
#523 = DIRECTION ( 'NONE',  ( 0.000000000000000000, 0.000000000000000000, 1.000000000000000000 ) ) ;
#524 = CARTESIAN_POINT ( 'NONE',  ( 11.31370849898474162, 10.00000000000000000, 11.31370849898478248 ) ) ;
#525 = CARTESIAN_POINT ( 'NONE',  ( 1.999999999999999112, 0.000000000000000000, 4.582575694955840717 ) ) ;
#526 = DATE_AND_TIME ( #881, #348 ) ;
#527 = ORIENTED_EDGE ( 'NONE', *, *, #246, .T. ) ;
#528 = FACE_BOUND ( 'NONE', #329, .T. ) ;
#529 = CARTESIAN_POINT ( 'NONE',  ( 1.675911042644704011E-13, 10.00000000000000000, -15.99999999999999645 ) ) ;
#530 = FACE_OUTER_BOUND ( 'NONE', #32, .T. ) ;
#531 = AXIS2_PLACEMENT_3D ( 'NONE', #939, #114, #442 ) ;
#532 = VECTOR ( 'NONE', #119, 1000.000000000000000 ) ;
#533 = CC_DESIGN_APPROVAL ( #865, ( #695 ) ) ;
#534 = ORIENTED_EDGE ( 'NONE', *, *, #586, .F. ) ;
#535 = CARTESIAN_POINT ( 'NONE',  ( 11.31370849898474162, 0.000000000000000000, 11.31370849898478248 ) ) ;
#536 = APPLICATION_PROTOCOL_DEFINITION ( 'international standard', 'config_control_design', 1994, #161 ) ;
#537 = COORDINATED_UNIVERSAL_TIME_OFFSET ( 3, 30, .AHEAD. ) ;
#538 = ORIENTED_EDGE ( 'NONE', *, *, #467, .F. ) ;
#539 = DIRECTION ( 'NONE',  ( 0.000000000000000000, 0.000000000000000000, 1.000000000000000000 ) ) ;
#540 = EDGE_CURVE ( 'NONE', #597, #609, #267, .T. ) ;
#541 = ORIENTED_EDGE ( 'NONE', *, *, #567, .F. ) ;
#542 = CARTESIAN_POINT ( 'NONE',  ( 1.675911042644704011E-13, 10.00000000000000000, -15.99999999999999645 ) ) ;
#543 = EDGE_CURVE ( 'NONE', #338, #678, #129, .T. ) ;
#544 = ORIENTED_EDGE ( 'NONE', *, *, #626, .F. ) ;
#545 = LINE ( 'NONE', #108, #194 ) ;
#546 = AXIS2_PLACEMENT_3D ( 'NONE', #15, #175, #595 ) ;
#547 = AXIS2_PLACEMENT_3D ( 'NONE', #44, #628, #756 ) ;
#548 = AXIS2_PLACEMENT_3D ( 'NONE', #644, #928, #572 ) ;
#549 = ORIENTED_EDGE ( 'NONE', *, *, #288, .F. ) ;
#550 = AXIS2_PLACEMENT_3D ( 'NONE', #599, #509, #303 ) ;
#551 = CARTESIAN_POINT ( 'NONE',  ( 11.31370849898490150, -4.666904755831215112, -9.663708498984624029 ) ) ;
#552 = DIRECTION ( 'NONE',  ( 0.000000000000000000, 0.000000000000000000, -1.000000000000000000 ) ) ;
#553 = VERTEX_POINT ( 'NONE', #760 ) ;
#554 = ORIENTED_EDGE ( 'NONE', *, *, #337, .T. ) ;
#555 = LINE ( 'NONE', #31, #38 ) ;
#556 = VERTEX_POINT ( 'NONE', #488 ) ;
#557 = EDGE_CURVE ( 'NONE', #522, #565, #911, .T. ) ;
#558 = DIRECTION ( 'NONE',  ( 0.000000000000000000, 0.000000000000000000, 1.000000000000000000 ) ) ;
#559 = DIRECTION ( 'NONE',  ( 0.000000000000000000, 0.000000000000000000, -1.000000000000000000 ) ) ;
#560 = VERTEX_POINT ( 'NONE', #625 ) ;
#561 = CIRCLE ( 'NONE', #871, 1.649999999999998579 ) ;
#562 = VECTOR ( 'NONE', #835, 1000.000000000000000 ) ;
#563 = DIRECTION ( 'NONE',  ( 0.000000000000000000, 0.000000000000000000, 1.000000000000000000 ) ) ;
#564 = LINE ( 'NONE', #122, #242 ) ;
#565 = VERTEX_POINT ( 'NONE', #897 ) ;
#566 = CARTESIAN_POINT ( 'NONE',  ( -11.31370849898465991, 10.00000000000000000, -11.31370849898485886 ) ) ;
#567 = EDGE_CURVE ( 'NONE', #565, #492, #253, .T. ) ;
#568 = CARTESIAN_POINT ( 'NONE',  ( 1.675911042644704011E-13, -4.666904755831215112, -15.99999999999999645 ) ) ;
#569 = DIRECTION ( 'NONE',  ( 0.000000000000000000, 0.000000000000000000, 1.000000000000000000 ) ) ;
#570 = ORIENTED_EDGE ( 'NONE', *, *, #438, .T. ) ;
#571 = DIRECTION ( 'NONE',  ( -0.000000000000000000, 1.000000000000000000, -0.000000000000000000 ) ) ;
#572 = DIRECTION ( 'NONE',  ( 0.000000000000000000, 0.000000000000000000, 1.000000000000000000 ) ) ;
#573 = EDGE_CURVE ( 'NONE', #921, #107, #45, .T. ) ;
#574 = ORIENTED_EDGE ( 'NONE', *, *, #28, .F. ) ;
#575 = CARTESIAN_POINT ( 'NONE',  ( 16.00000000000000000, 10.00000000000000000, 1.649999999999998579 ) ) ;
#576 = VECTOR ( 'NONE', #474, 1000.000000000000000 ) ;
#577 = APPROVAL_PERSON_ORGANIZATION ( #611, #933, #746 ) ;
#578 = DIRECTION ( 'NONE',  ( 0.000000000000000000, 1.000000000000000000, 0.000000000000000000 ) ) ;
#579 = DIRECTION ( 'NONE',  ( 0.000000000000000000, 1.000000000000000000, 0.000000000000000000 ) ) ;
#580 = EDGE_CURVE ( 'NONE', #609, #597, #916, .T. ) ;
#581 = ORIENTED_EDGE ( 'NONE', *, *, #198, .F. ) ;
#582 = FACE_OUTER_BOUND ( 'NONE', #47, .T. ) ;
#583 = DIRECTION ( 'NONE',  ( 0.000000000000000000, 1.000000000000000000, 0.000000000000000000 ) ) ;
#584 = DIRECTION ( 'NONE',  ( 0.000000000000000000, 1.000000000000000000, 0.000000000000000000 ) ) ;
#585 = VERTEX_POINT ( 'NONE', #120 ) ;
#586 = EDGE_CURVE ( 'NONE', #257, #585, #478, .T. ) ;
#587 = CYLINDRICAL_SURFACE ( 'NONE', #531, 5.000000000000000000 ) ;
#588 = CARTESIAN_POINT ( 'NONE',  ( 3.306546357697853733E-15, 10.00000000000000000, 27.00000000000000000 ) ) ;
#589 = ORIENTED_EDGE ( 'NONE', *, *, #504, .T. ) ;
#590 = CARTESIAN_POINT ( 'NONE',  ( 16.00000000000000000, -4.666904755831215112, -1.649999999999998579 ) ) ;
#591 = AXIS2_PLACEMENT_3D ( 'NONE', #158, #377, #729 ) ;
#592 = DIRECTION ( 'NONE',  ( 0.000000000000000000, -0.000000000000000000, 1.000000000000000000 ) ) ;
#593 = DIRECTION ( 'NONE',  ( 0.000000000000000000, 0.000000000000000000, -1.000000000000000000 ) ) ;
#594 = EDGE_LOOP ( 'NONE', ( #50, #465, #340, #30 ) ) ;
#595 = DIRECTION ( 'NONE',  ( 0.000000000000000000, 0.000000000000000000, 1.000000000000000000 ) ) ;
#596 = FACE_OUTER_BOUND ( 'NONE', #763, .T. ) ;
#597 = VERTEX_POINT ( 'NONE', #901 ) ;
#598 = DIRECTION ( 'NONE',  ( 0.000000000000000000, 1.000000000000000000, 0.000000000000000000 ) ) ;
#599 = CARTESIAN_POINT ( 'NONE',  ( 11.31370849898474162, 0.000000000000000000, 11.31370849898478248 ) ) ;
#600 = DIRECTION ( 'NONE',  ( 0.000000000000000000, 0.000000000000000000, 1.000000000000000000 ) ) ;
#601 = ORIENTED_EDGE ( 'NONE', *, *, #739, .F. ) ;
#602 = DIRECTION ( 'NONE',  ( 0.000000000000000000, -0.000000000000000000, 1.000000000000000000 ) ) ;
#603 = EDGE_CURVE ( 'NONE', #423, #787, #629, .T. ) ;
#604 = CYLINDRICAL_SURFACE ( 'NONE', #608, 1.649999999999998579 ) ;
#605 = APPROVAL_DATE_TIME ( #526, #434 ) ;
#606 = CIRCLE ( 'NONE', #513, 1.649999999999998579 ) ;
#607 = AXIS2_PLACEMENT_3D ( 'NONE', #825, #178, #477 ) ;
#608 = AXIS2_PLACEMENT_3D ( 'NONE', #815, #808, #304 ) ;
#609 = VERTEX_POINT ( 'NONE', #469 ) ;
#610 = FACE_BOUND ( 'NONE', #929, .T. ) ;
#611 = PERSON_AND_ORGANIZATION ( #43, #255 ) ;
#612 = CYLINDRICAL_SURFACE ( 'NONE', #607, 1.649999999999998579 ) ;
#613 = CARTESIAN_POINT ( 'NONE',  ( 1.675911042644704011E-13, -4.666904755831215112, -14.34999999999999964 ) ) ;
#614 = ORIENTED_EDGE ( 'NONE', *, *, #218, .T. ) ;
#615 = CARTESIAN_POINT ( 'NONE',  ( -11.31370849898482156, -4.666904755831215112, 9.663708498984702189 ) ) ;
#616 = ORIENTED_EDGE ( 'NONE', *, *, #689, .T. ) ;
#617 = ADVANCED_FACE ( 'NONE', ( #264 ), #754, .T. ) ;
#618 = VERTEX_POINT ( 'NONE', #395 ) ;
#619 = FACE_OUTER_BOUND ( 'NONE', #630, .T. ) ;
#620 = VECTOR ( 'NONE', #342, 1000.000000000000000 ) ;
#621 = ORIENTED_EDGE ( 'NONE', *, *, #663, .T. ) ;
#622 = CIRCLE ( 'NONE', #696, 1.649999999999998579 ) ;
#623 = AXIS2_PLACEMENT_3D ( 'NONE', #130, #358, #428 ) ;
#624 = ORIENTED_EDGE ( 'NONE', *, *, #926, .T. ) ;
#625 = CARTESIAN_POINT ( 'NONE',  ( -16.00000000000000000, 10.00000000000000000, -1.650000000000110489 ) ) ;
#626 = EDGE_CURVE ( 'NONE', #787, #99, #555, .T. ) ;
#627 = ORIENTED_EDGE ( 'NONE', *, *, #926, .F. ) ;
#628 = DIRECTION ( 'NONE',  ( -0.000000000000000000, -1.000000000000000000, -0.000000000000000000 ) ) ;
#629 = LINE ( 'NONE', #185, #379 ) ;
#630 = EDGE_LOOP ( 'NONE', ( #113, #589, #718, #809 ) ) ;
#631 = DIRECTION ( 'NONE',  ( 0.000000000000000000, 0.000000000000000000, -1.000000000000000000 ) ) ;
#632 = FACE_OUTER_BOUND ( 'NONE', #905, .T. ) ;
#633 = AXIS2_PLACEMENT_3D ( 'NONE', #566, #852, #128 ) ;
#634 = EDGE_LOOP ( 'NONE', ( #312, #433, #507, #896 ) ) ;
#635 = EDGE_CURVE ( 'NONE', #430, #162, #840, .T. ) ;
#636 = VECTOR ( 'NONE', #251, 1000.000000000000000 ) ;
#637 =( GEOMETRIC_REPRESENTATION_CONTEXT ( 3 ) GLOBAL_UNCERTAINTY_ASSIGNED_CONTEXT ( ( #486 ) ) GLOBAL_UNIT_ASSIGNED_CONTEXT ( ( #17, #75, #514 ) ) REPRESENTATION_CONTEXT ( 'NONE', 'WORKASPACE' ) );
#638 = CC_DESIGN_APPROVAL ( #434, ( #485 ) ) ;
#639 = CARTESIAN_POINT ( 'NONE',  ( 0.000000000000000000, 10.00000000000000000, 0.000000000000000000 ) ) ;
#640 = PLANE ( 'NONE',  #182 ) ;
#641 = ORIENTED_EDGE ( 'NONE', *, *, #110, .F. ) ;
#642 = EDGE_CURVE ( 'NONE', #597, #420, #400, .T. ) ;
#643 = CARTESIAN_POINT ( 'NONE',  ( -1.999999999999999112, 10.00000000000000000, -4.582575694955840717 ) ) ;
#644 = CARTESIAN_POINT ( 'NONE',  ( 0.000000000000000000, 0.000000000000000000, 0.000000000000000000 ) ) ;
#645 = ORIENTED_EDGE ( 'NONE', *, *, #266, .T. ) ;
#646 = CARTESIAN_POINT ( 'NONE',  ( 1.675911042644704011E-13, -4.666904755831215112, -15.99999999999999645 ) ) ;
#647 = EDGE_CURVE ( 'NONE', #684, #420, #164, .T. ) ;
#648 = CYLINDRICAL_SURFACE ( 'NONE', #736, 1.649999999999998579 ) ;
#649 = DIRECTION ( 'NONE',  ( 0.000000000000000000, 1.000000000000000000, 0.000000000000000000 ) ) ;
#650 = ORIENTED_EDGE ( 'NONE', *, *, #711, .F. ) ;
#651 = AXIS2_PLACEMENT_3D ( 'NONE', #302, #518, #225 ) ;
#652 = AXIS2_PLACEMENT_3D ( 'NONE', #764, #324, #833 ) ;
#653 = LINE ( 'NONE', #657, #97 ) ;
#654 = FACE_OUTER_BOUND ( 'NONE', #832, .T. ) ;
#655 = ORIENTED_EDGE ( 'NONE', *, *, #762, .T. ) ;
#656 = EDGE_CURVE ( 'NONE', #609, #684, #757, .T. ) ;
#657 = CARTESIAN_POINT ( 'NONE',  ( -16.00000000000000000, -4.666904755831215112, -1.650000000000110489 ) ) ;
#658 = DIRECTION ( 'NONE',  ( 0.000000000000000000, 0.000000000000000000, 1.000000000000000000 ) ) ;
#659 = ORIENTED_EDGE ( 'NONE', *, *, #166, .F. ) ;
#660 = DIRECTION ( 'NONE',  ( 0.000000000000000000, 0.000000000000000000, 1.000000000000000000 ) ) ;
#661 = ORIENTED_EDGE ( 'NONE', *, *, #33, .T. ) ;
#662 = FACE_BOUND ( 'NONE', #6, .T. ) ;
#663 = EDGE_CURVE ( 'NONE', #869, #772, #545, .T. ) ;
#664 = VECTOR ( 'NONE', #335, 1000.000000000000000 ) ;
#665 = AXIS2_PLACEMENT_3D ( 'NONE', #209, #502, #151 ) ;
#666 = MECHANICAL_CONTEXT ( 'NONE', #62, 'mechanical' ) ;
#667 = APPROVAL_DATE_TIME ( #176, #865 ) ;
#668 = CIRCLE ( 'NONE', #550, 1.650000000000000355 ) ;
#669 = ORIENTED_EDGE ( 'NONE', *, *, #656, .F. ) ;
#670 = CARTESIAN_POINT ( 'NONE',  ( 11.31370849898474162, 0.000000000000000000, 12.96370849898478284 ) ) ;
#671 = FACE_BOUND ( 'NONE', #275, .T. ) ;
#672 = CARTESIAN_POINT ( 'NONE',  ( -16.00000000000000000, 0.000000000000000000, 1.649999999999887335 ) ) ;
#673 = EDGE_CURVE ( 'NONE', #147, #837, #691, .T. ) ;
#674 = EDGE_LOOP ( 'NONE', ( #409, #624, #661, #775 ) ) ;
#675 = CARTESIAN_POINT ( 'NONE',  ( -11.31370849898465991, 10.00000000000000000, -11.31370849898485886 ) ) ;
#676 = ADVANCED_FACE ( 'NONE', ( #619 ), #906, .F. ) ;
#677 = DIRECTION ( 'NONE',  ( 0.000000000000000000, 0.000000000000000000, 1.000000000000000000 ) ) ;
#678 = VERTEX_POINT ( 'NONE', #429 ) ;
#679 = CYLINDRICAL_SURFACE ( 'NONE', #546, 5.000000000000000000 ) ;
#680 = COORDINATED_UNIVERSAL_TIME_OFFSET ( 3, 30, .AHEAD. ) ;
#681 = CIRCLE ( 'NONE', #765, 5.000000000000000000 ) ;
#682 = ORIENTED_EDGE ( 'NONE', *, *, #480, .F. ) ;
#683 = CARTESIAN_POINT ( 'NONE',  ( -11.31370849898482156, 0.000000000000000000, 11.31370849898470077 ) ) ;
#684 = VERTEX_POINT ( 'NONE', #786 ) ;
#685 = EDGE_CURVE ( 'NONE', #437, #192, #499, .T. ) ;
#686 = VERTEX_POINT ( 'NONE', #65 ) ;
#687 = DIRECTION ( 'NONE',  ( -0.000000000000000000, 1.000000000000000000, -0.000000000000000000 ) ) ;
#688 = ORIENTED_EDGE ( 'NONE', *, *, #663, .F. ) ;
#689 = EDGE_CURVE ( 'NONE', #724, #228, #359, .T. ) ;
#690 = ORIENTED_EDGE ( 'NONE', *, *, #166, .T. ) ;
#691 = LINE ( 'NONE', #35, #346 ) ;
#692 = EDGE_LOOP ( 'NONE', ( #894, #334, #394, #325 ) ) ;
#693 = EDGE_LOOP ( 'NONE', ( #682, #29 ) ) ;
#694 = CARTESIAN_POINT ( 'NONE',  ( -11.31370849898465991, -4.666904755831215112, -12.96370849898485744 ) ) ;
#695 = PRODUCT_DEFINITION_FORMATION_WITH_SPECIFIED_SOURCE ( 'ANY', '', #16, .NOT_KNOWN. ) ;
#696 = AXIS2_PLACEMENT_3D ( 'NONE', #199, #53, #558 ) ;
#697 = CC_DESIGN_PERSON_AND_ORGANIZATION_ASSIGNMENT ( #393, #464, ( #695 ) ) ;
#698 = DIRECTION ( 'NONE',  ( -0.000000000000000000, 1.000000000000000000, -0.000000000000000000 ) ) ;
#699 = DIRECTION ( 'NONE',  ( 0.000000000000000000, 0.000000000000000000, 1.000000000000000000 ) ) ;
#700 = EDGE_LOOP ( 'NONE', ( #534, #259, #26, #88 ) ) ;
#701 = EDGE_CURVE ( 'NONE', #338, #686, #220, .T. ) ;
#702 = DESIGN_CONTEXT ( 'detailed design', #161, 'design' ) ;
#703 = LINE ( 'NONE', #643, #254 ) ;
#704 = DIRECTION ( 'NONE',  ( 0.000000000000000000, 0.000000000000000000, 1.000000000000000000 ) ) ;
#705 = VERTEX_POINT ( 'NONE', #713 ) ;
#706 = DIRECTION ( 'NONE',  ( -0.000000000000000000, -1.000000000000000000, -0.000000000000000000 ) ) ;
#707 = DIRECTION ( 'NONE',  ( 0.000000000000000000, 0.000000000000000000, 1.000000000000000000 ) ) ;
#708 = VECTOR ( 'NONE', #795, 1000.000000000000000 ) ;
#709 = ORIENTED_EDGE ( 'NONE', *, *, #899, .F. ) ;
#710 = CIRCLE ( 'NONE', #861, 1.649999999999998579 ) ;
#711 = EDGE_CURVE ( 'NONE', #902, #758, #564, .T. ) ;
#712 = DIRECTION ( 'NONE',  ( 0.000000000000000000, 0.000000000000000000, 1.000000000000000000 ) ) ;
#713 = CARTESIAN_POINT ( 'NONE',  ( -1.999999999999999112, 10.00000000000000000, 4.582575694955840717 ) ) ;
#714 = ORIENTED_EDGE ( 'NONE', *, *, #63, .T. ) ;
#715 = EDGE_CURVE ( 'NONE', #197, #772, #767, .T. ) ;
#716 = CARTESIAN_POINT ( 'NONE',  ( -5.566163469963082448E-14, 10.00000000000000000, 14.35000000000000320 ) ) ;
#717 = DIRECTION ( 'NONE',  ( 0.000000000000000000, 0.000000000000000000, 1.000000000000000000 ) ) ;
#718 = ORIENTED_EDGE ( 'NONE', *, *, #635, .T. ) ;
#719 = CARTESIAN_POINT ( 'NONE',  ( 0.000000000000000000, 0.000000000000000000, 0.000000000000000000 ) ) ;
#720 = DIRECTION ( 'NONE',  ( 0.000000000000000000, 1.000000000000000000, 0.000000000000000000 ) ) ;
#721 = ADVANCED_FACE ( 'NONE', ( #654 ), #506, .F. ) ;
#722 = ORIENTED_EDGE ( 'NONE', *, *, #647, .F. ) ;
#723 = VECTOR ( 'NONE', #776, 1000.000000000000000 ) ;
#724 = VERTEX_POINT ( 'NONE', #771 ) ;
#725 = CARTESIAN_POINT ( 'NONE',  ( -16.00000000000000000, 0.000000000000000000, -1.650000000000110489 ) ) ;
#726 = DIRECTION ( 'NONE',  ( 0.000000000000000000, 0.000000000000000000, 1.000000000000000000 ) ) ;
#727 = EDGE_LOOP ( 'NONE', ( #370, #186 ) ) ;
#728 = DIRECTION ( 'NONE',  ( 0.000000000000000000, 0.000000000000000000, 1.000000000000000000 ) ) ;
#729 = DIRECTION ( 'NONE',  ( 0.000000000000000000, 0.000000000000000000, 1.000000000000000000 ) ) ;
#730 = DIRECTION ( 'NONE',  ( 0.000000000000000000, 0.000000000000000000, 1.000000000000000000 ) ) ;
#731 = ORIENTED_EDGE ( 'NONE', *, *, #635, .F. ) ;
#732 = CARTESIAN_POINT ( 'NONE',  ( 0.000000000000000000, 0.000000000000000000, 0.000000000000000000 ) ) ;
#733 = AXIS2_PLACEMENT_3D ( 'NONE', #387, #313, #602 ) ;
#734 = CARTESIAN_POINT ( 'NONE',  ( 11.31370849898474162, 0.000000000000000000, 9.663708498984782125 ) ) ;
#735 = COORDINATED_UNIVERSAL_TIME_OFFSET ( 3, 30, .AHEAD. ) ;
#736 = AXIS2_PLACEMENT_3D ( 'NONE', #195, #372, #219 ) ;
#737 = EDGE_LOOP ( 'NONE', ( #1, #407, #279, #511 ) ) ;
#738 = CARTESIAN_POINT ( 'NONE',  ( 1.999999999999999112, 0.000000000000000000, 4.582575694955840717 ) ) ;
#739 = EDGE_CURVE ( 'NONE', #420, #684, #117, .T. ) ;
#740 = CARTESIAN_POINT ( 'NONE',  ( 0.000000000000000000, 0.000000000000000000, -27.00000000000000000 ) ) ;
#741 = CARTESIAN_POINT ( 'NONE',  ( -1.999999999999999112, -10.77032961426900748, -4.582575694955840717 ) ) ;
#742 = COORDINATED_UNIVERSAL_TIME_OFFSET ( 3, 30, .AHEAD. ) ;
#743 = EDGE_LOOP ( 'NONE', ( #180, #900, #817, #42 ) ) ;
#744 = DIRECTION ( 'NONE',  ( 0.000000000000000000, 1.000000000000000000, 0.000000000000000000 ) ) ;
#745 = MANIFOLD_SOLID_BREP ( 'Cut-Extrude2', #797 ) ;
#746 = APPROVAL_ROLE ( '' ) ;
#747 = AXIS2_PLACEMENT_3D ( 'NONE', #880, #583, #592 ) ;
#748 = EDGE_CURVE ( 'NONE', #553, #79, #846, .T. ) ;
#749 = EDGE_LOOP ( 'NONE', ( #714, #554, #402, #688 ) ) ;
#750 = FACE_BOUND ( 'NONE', #693, .T. ) ;
#751 = VECTOR ( 'NONE', #687, 1000.000000000000000 ) ;
#752 = AXIS2_PLACEMENT_3D ( 'NONE', #200, #290, #863 ) ;
#753 = DIRECTION ( 'NONE',  ( 0.000000000000000000, 0.000000000000000000, 1.000000000000000000 ) ) ;
#754 = CYLINDRICAL_SURFACE ( 'NONE', #345, 27.00000000000000000 ) ;
#755 = ORIENTED_EDGE ( 'NONE', *, *, #333, .T. ) ;
#756 = DIRECTION ( 'NONE',  ( 0.000000000000000000, 0.000000000000000000, 1.000000000000000000 ) ) ;
#757 = LINE ( 'NONE', #615, #636 ) ;
#758 = VERTEX_POINT ( 'NONE', #422 ) ;
#759 = ORIENTED_EDGE ( 'NONE', *, *, #838, .T. ) ;
#760 = CARTESIAN_POINT ( 'NONE',  ( 11.31370849898490150, 0.000000000000000000, -12.96370849898462119 ) ) ;
#761 = VERTEX_POINT ( 'NONE', #350 ) ;
#762 = EDGE_CURVE ( 'NONE', #758, #560, #210, .T. ) ;
#763 = EDGE_LOOP ( 'NONE', ( #66, #538 ) ) ;
#764 = CARTESIAN_POINT ( 'NONE',  ( -11.31370849898482156, 10.00000000000000000, 11.31370849898470077 ) ) ;
#765 = AXIS2_PLACEMENT_3D ( 'NONE', #895, #295, #806 ) ;
#766 = CIRCLE ( 'NONE', #363, 1.649999999999998801 ) ;
#767 = CIRCLE ( 'NONE', #920, 1.649999999999998579 ) ;
#768 = ORIENTED_EDGE ( 'NONE', *, *, #68, .F. ) ;
#769 = ADVANCED_FACE ( 'NONE', ( #632 ), #215, .F. ) ;
#770 = CARTESIAN_POINT ( 'NONE',  ( 1.999999999999999112, 10.00000000000000000, -4.582575694955840717 ) ) ;
#771 = CARTESIAN_POINT ( 'NONE',  ( 0.000000000000000000, 10.00000000000000000, -27.00000000000000000 ) ) ;
#772 = VERTEX_POINT ( 'NONE', #142 ) ;
#773 = DIRECTION ( 'NONE',  ( 0.000000000000000000, 0.000000000000000000, 1.000000000000000000 ) ) ;
#774 = DIRECTION ( 'NONE',  ( 0.000000000000000000, 0.000000000000000000, 1.000000000000000000 ) ) ;
#775 = ORIENTED_EDGE ( 'NONE', *, *, #140, .T. ) ;
#776 = DIRECTION ( 'NONE',  ( -0.000000000000000000, 1.000000000000000000, -0.000000000000000000 ) ) ;
#777 = DIRECTION ( 'NONE',  ( 0.000000000000000000, 0.000000000000000000, 1.000000000000000000 ) ) ;
#778 = DIRECTION ( 'NONE',  ( 0.000000000000000000, 0.000000000000000000, -1.000000000000000000 ) ) ;
#779 = EDGE_CURVE ( 'NONE', #228, #107, #872, .T. ) ;
#780 = VECTOR ( 'NONE', #100, 1000.000000000000000 ) ;
#781 = ORIENTED_EDGE ( 'NONE', *, *, #140, .F. ) ;
#782 = LINE ( 'NONE', #61, #723 ) ;
#783 = LOCAL_TIME ( 13, 49, 8.000000000000000000, #680 ) ;
#784 = AXIS2_PLACEMENT_3D ( 'NONE', #137, #141, #494 ) ;
#785 = DIRECTION ( 'NONE',  ( 0.000000000000000000, 0.000000000000000000, 1.000000000000000000 ) ) ;
#786 = CARTESIAN_POINT ( 'NONE',  ( -11.31370849898482156, 10.00000000000000000, 9.663708498984702189 ) ) ;
#787 = VERTEX_POINT ( 'NONE', #126 ) ;
#788 = CYLINDRICAL_SURFACE ( 'NONE', #425, 1.649999999999998579 ) ;
#789 = CARTESIAN_POINT ( 'NONE',  ( -11.31370849898482156, -4.666904755831215112, 11.31370849898470077 ) ) ;
#790 = FACE_OUTER_BOUND ( 'NONE', #737, .T. ) ;
#791 = EDGE_LOOP ( 'NONE', ( #669, #481, #882, #416 ) ) ;
#792 = PLANE ( 'NONE',  #747 ) ;
#793 = CARTESIAN_POINT ( 'NONE',  ( 0.000000000000000000, 10.00000000000000000, 0.000000000000000000 ) ) ;
#794 = EDGE_LOOP ( 'NONE', ( #541, #549 ) ) ;
#795 = DIRECTION ( 'NONE',  ( -0.000000000000000000, 1.000000000000000000, -0.000000000000000000 ) ) ;
#796 = AXIS2_PLACEMENT_3D ( 'NONE', #463, #321, #188 ) ;
#797 = CLOSED_SHELL ( 'NONE', ( #799, #721, #211, #37, #769, #46, #376, #276, #308, #879, #617, #516, #236, #452, #811, #326, #842, #868, #136, #519, #144, #172, #383, #676, #389 ) ) ;
#798 = AXIS2_PLACEMENT_3D ( 'NONE', #91, #892, #593 ) ;
#799 = ADVANCED_FACE ( 'NONE', ( #418 ), #850, .F. ) ;
#800 = FACE_BOUND ( 'NONE', #139, .T. ) ;
#801 = ORIENTED_EDGE ( 'NONE', *, *, #543, .F. ) ;
#802 = CARTESIAN_POINT ( 'NONE',  ( -11.31370849898482156, 10.00000000000000000, 12.96370849898469935 ) ) ;
#803 = DIRECTION ( 'NONE',  ( 0.000000000000000000, 1.000000000000000000, 0.000000000000000000 ) ) ;
#804 = PERSON_AND_ORGANIZATION ( #43, #255 ) ;
#805 = ORIENTED_EDGE ( 'NONE', *, *, #110, .T. ) ;
#806 = DIRECTION ( 'NONE',  ( 0.000000000000000000, 0.000000000000000000, 1.000000000000000000 ) ) ;
#807 = CC_DESIGN_PERSON_AND_ORGANIZATION_ASSIGNMENT ( #875, #5, ( #695 ) ) ;
#808 = DIRECTION ( 'NONE',  ( -0.000000000000000000, 1.000000000000000000, -0.000000000000000000 ) ) ;
#809 = ORIENTED_EDGE ( 'NONE', *, *, #480, .T. ) ;
#810 = FACE_OUTER_BOUND ( 'NONE', #867, .T. ) ;
#811 = ADVANCED_FACE ( 'NONE', ( #790 ), #640, .F. ) ;
#812 = VECTOR ( 'NONE', #7, 1000.000000000000000 ) ;
#813 = LOCAL_TIME ( 13, 49, 8.000000000000000000, #537 ) ;
#814 = DIRECTION ( 'NONE',  ( 0.000000000000000000, 0.000000000000000000, 1.000000000000000000 ) ) ;
#815 = CARTESIAN_POINT ( 'NONE',  ( 11.31370849898490150, -4.666904755831215112, -11.31370849898462261 ) ) ;
#816 = PRODUCT_DEFINITION_SHAPE ( 'NONE', 'NONE',  #78 ) ;
#817 = ORIENTED_EDGE ( 'NONE', *, *, #467, .T. ) ;
#818 = FACE_BOUND ( 'NONE', #262, .T. ) ;
#819 = CC_DESIGN_PERSON_AND_ORGANIZATION_ASSIGNMENT ( #821, #92, ( #485 ) ) ;
#820 = PERSON_AND_ORGANIZATION ( #43, #255 ) ;
#821 = PERSON_AND_ORGANIZATION ( #43, #255 ) ;
#822 = FACE_OUTER_BOUND ( 'NONE', #934, .T. ) ;
#823 = FACE_OUTER_BOUND ( 'NONE', #674, .T. ) ;
#824 = SHAPE_DEFINITION_REPRESENTATION ( #816, #296 ) ;
#825 = CARTESIAN_POINT ( 'NONE',  ( -11.31370849898482156, -4.666904755831215112, 11.31370849898470077 ) ) ;
#826 = DIRECTION ( 'NONE',  ( 0.000000000000000000, 1.000000000000000000, 0.000000000000000000 ) ) ;
#827 = ORIENTED_EDGE ( 'NONE', *, *, #557, .F. ) ;
#828 = AXIS2_PLACEMENT_3D ( 'NONE', #493, #217, #287 ) ;
#829 = EDGE_CURVE ( 'NONE', #618, #19, #411, .T. ) ;
#830 = CIRCLE ( 'NONE', #547, 1.649999999999998579 ) ;
#831 = AXIS2_PLACEMENT_3D ( 'NONE', #13, #388, #677 ) ;
#832 = EDGE_LOOP ( 'NONE', ( #614, #570, #645, #731 ) ) ;
#833 = DIRECTION ( 'NONE',  ( 0.000000000000000000, 0.000000000000000000, 1.000000000000000000 ) ) ;
#834 = EDGE_LOOP ( 'NONE', ( #366, #111 ) ) ;
#835 = DIRECTION ( 'NONE',  ( -0.000000000000000000, 1.000000000000000000, -0.000000000000000000 ) ) ;
#836 = DIRECTION ( 'NONE',  ( 0.000000000000000000, 0.000000000000000000, 1.000000000000000000 ) ) ;
#837 = VERTEX_POINT ( 'NONE', #858 ) ;
#838 = EDGE_CURVE ( 'NONE', #522, #912, #23, .T. ) ;
#839 = ORIENTED_EDGE ( 'NONE', *, *, #239, .F. ) ;
#840 = LINE ( 'NONE', #191, #576 ) ;
#841 = ORIENTED_EDGE ( 'NONE', *, *, #96, .T. ) ;
#842 = ADVANCED_FACE ( 'NONE', ( #439 ), #223, .F. ) ;
#843 = FACE_OUTER_BOUND ( 'NONE', #749, .T. ) ;
#844 = DIRECTION ( 'NONE',  ( -0.000000000000000000, -1.000000000000000000, -0.000000000000000000 ) ) ;
#845 = AXIS2_PLACEMENT_3D ( 'NONE', #375, #744, #229 ) ;
#846 = CIRCLE ( 'NONE', #891, 1.649999999999998579 ) ;
#847 = VERTEX_POINT ( 'NONE', #734 ) ;
#848 = EDGE_CURVE ( 'NONE', #147, #257, #710, .T. ) ;
#849 = DIRECTION ( 'NONE',  ( -0.000000000000000000, 1.000000000000000000, -0.000000000000000000 ) ) ;
#850 = CYLINDRICAL_SURFACE ( 'NONE', #752, 1.649999999999998579 ) ;
#851 = ORIENTED_EDGE ( 'NONE', *, *, #449, .T. ) ;
#852 = DIRECTION ( 'NONE',  ( 0.000000000000000000, 1.000000000000000000, 0.000000000000000000 ) ) ;
#853 = EDGE_CURVE ( 'NONE', #19, #423, #314, .T. ) ;
#854 = DIRECTION ( 'NONE',  ( 0.000000000000000000, 0.000000000000000000, 1.000000000000000000 ) ) ;
#855 = DIRECTION ( 'NONE',  ( -0.000000000000000000, -1.000000000000000000, -0.000000000000000000 ) ) ;
#856 = ORIENTED_EDGE ( 'NONE', *, *, #543, .T. ) ;
#857 = DIRECTION ( 'NONE',  ( 0.000000000000000000, 0.000000000000000000, 1.000000000000000000 ) ) ;
#858 = CARTESIAN_POINT ( 'NONE',  ( -11.31370849898465991, 10.00000000000000000, -9.663708498984860285 ) ) ;
#859 = AXIS2_PLACEMENT_3D ( 'NONE', #542, #826, #836 ) ;
#860 = ORIENTED_EDGE ( 'NONE', *, *, #915, .T. ) ;
#861 = AXIS2_PLACEMENT_3D ( 'NONE', #293, #9, #510 ) ;
#862 = CYLINDRICAL_SURFACE ( 'NONE', #413, 1.649999999999997025 ) ;
#863 = DIRECTION ( 'NONE',  ( 0.000000000000000000, 0.000000000000000000, 1.000000000000000000 ) ) ;
#864 = ORIENTED_EDGE ( 'NONE', *, *, #28, .T. ) ;
#865 = APPROVAL ( #243, 'UNSPECIFIED' ) ;
#866 = DIRECTION ( 'NONE',  ( -0.000000000000000000, 1.000000000000000000, -0.000000000000000000 ) ) ;
#867 = EDGE_LOOP ( 'NONE', ( #841, #106 ) ) ;
#868 = ADVANCED_FACE ( 'NONE', ( #530 ), #604, .F. ) ;
#869 = VERTEX_POINT ( 'NONE', #885 ) ;
#870 = DIRECTION ( 'NONE',  ( 0.000000000000000000, 1.000000000000000000, 0.000000000000000000 ) ) ;
#871 = AXIS2_PLACEMENT_3D ( 'NONE', #675, #598, #523 ) ;
#872 = CIRCLE ( 'NONE', #73, 27.00000000000000000 ) ;
#873 = FACE_BOUND ( 'NONE', #727, .T. ) ;
#874 = DIRECTION ( 'NONE',  ( -0.000000000000000000, 1.000000000000000000, -0.000000000000000000 ) ) ;
#875 = PERSON_AND_ORGANIZATION ( #43, #255 ) ;
#876 = EDGE_CURVE ( 'NONE', #19, #99, #368, .T. ) ;
#877 = EDGE_LOOP ( 'NONE', ( #109, #941 ) ) ;
#878 = DIRECTION ( 'NONE',  ( 0.000000000000000000, 0.000000000000000000, 1.000000000000000000 ) ) ;
#879 = ADVANCED_FACE ( 'NONE', ( #4 ), #227, .T. ) ;
#880 = CARTESIAN_POINT ( 'NONE',  ( 0.000000000000000000, 0.000000000000000000, 0.000000000000000000 ) ) ;
#881 = CALENDAR_DATE ( 2026, 31, 7 ) ;
#882 = ORIENTED_EDGE ( 'NONE', *, *, #642, .T. ) ;
#883 = FACE_BOUND ( 'NONE', #794, .T. ) ;
#884 = FACE_OUTER_BOUND ( 'NONE', #152, .T. ) ;
#885 = CARTESIAN_POINT ( 'NONE',  ( -5.586370142149013368E-14, 0.000000000000000000, 17.64999999999999858 ) ) ;
#886 = EDGE_LOOP ( 'NONE', ( #360, #83, #616, #925 ) ) ;
#887 = FACE_OUTER_BOUND ( 'NONE', #700, .T. ) ;
#888 = CC_DESIGN_PERSON_AND_ORGANIZATION_ASSIGNMENT ( #820, #392, ( #16 ) ) ;
#889 = AXIS2_PLACEMENT_3D ( 'NONE', #646, #930, #280 ) ;
#890 = VECTOR ( 'NONE', #208, 1000.000000000000000 ) ;
#891 = AXIS2_PLACEMENT_3D ( 'NONE', #495, #436, #717 ) ;
#892 = DIRECTION ( 'NONE',  ( -0.000000000000000000, -1.000000000000000000, -0.000000000000000000 ) ) ;
#893 = CALENDAR_DATE ( 2026, 31, 7 ) ;
#894 = ORIENTED_EDGE ( 'NONE', *, *, #540, .T. ) ;
#895 = CARTESIAN_POINT ( 'NONE',  ( 0.000000000000000000, 10.00000000000000000, 0.000000000000000000 ) ) ;
#896 = ORIENTED_EDGE ( 'NONE', *, *, #603, .F. ) ;
#897 = CARTESIAN_POINT ( 'NONE',  ( 1.675911042644704011E-13, 10.00000000000000000, -14.34999999999999964 ) ) ;
#898 = ORIENTED_EDGE ( 'NONE', *, *, #829, .F. ) ;
#899 = EDGE_CURVE ( 'NONE', #556, #869, #515, .T. ) ;
#900 = ORIENTED_EDGE ( 'NONE', *, *, #573, .T. ) ;
#901 = CARTESIAN_POINT ( 'NONE',  ( -11.31370849898482156, 0.000000000000000000, 12.96370849898469935 ) ) ;
#902 = VERTEX_POINT ( 'NONE', #672 ) ;
#903 = CIRCLE ( 'NONE', #483, 1.649999999999997025 ) ;
#904 = CC_DESIGN_APPROVAL ( #933, ( #78 ) ) ;
#905 = EDGE_LOOP ( 'NONE', ( #201, #445, #327, #650 ) ) ;
#906 = CYLINDRICAL_SURFACE ( 'NONE', #426, 1.650000000000000355 ) ;
#907 = CIRCLE ( 'NONE', #500, 1.649999999999998801 ) ;
#908 = ORIENTED_EDGE ( 'NONE', *, *, #419, .F. ) ;
#909 = EDGE_CURVE ( 'NONE', #286, #374, #268, .T. ) ;
#910 = EDGE_LOOP ( 'NONE', ( #232, #396 ) ) ;
#911 = LINE ( 'NONE', #613, #664 ) ;
#912 = VERTEX_POINT ( 'NONE', #942 ) ;
#913 = LINE ( 'NONE', #277, #890 ) ;
#914 = CARTESIAN_POINT ( 'NONE',  ( 3.306546357697853733E-15, 10.00000000000000000, 27.00000000000000000 ) ) ;
#915 = EDGE_CURVE ( 'NONE', #705, #686, #85, .T. ) ;
#916 = CIRCLE ( 'NONE', #512, 1.649999999999998579 ) ;
#917 = CARTESIAN_POINT ( 'NONE',  ( -16.00000000000000000, 0.000000000000000000, -1.117274028429802674E-13 ) ) ;
#918 = DIRECTION ( 'NONE',  ( -0.000000000000000000, 1.000000000000000000, -0.000000000000000000 ) ) ;
#919 = AXIS2_PLACEMENT_3D ( 'NONE', #196, #27, #105 ) ;
#920 = AXIS2_PLACEMENT_3D ( 'NONE', #59, #54, #774 ) ;
#921 = VERTEX_POINT ( 'NONE', #588 ) ;
#922 = CARTESIAN_POINT ( 'NONE',  ( -1.999999999999999112, -10.77032961426900748, 4.582575694955840717 ) ) ;
#923 = CARTESIAN_POINT ( 'NONE',  ( -1.999999999999999112, -10.77032961426900748, -4.582575694955840717 ) ) ;
#924 = CARTESIAN_POINT ( 'NONE',  ( 0.000000000000000000, -10.77032961426900748, 5.000000000000000000 ) ) ;
#925 = ORIENTED_EDGE ( 'NONE', *, *, #779, .T. ) ;
#926 = EDGE_CURVE ( 'NONE', #374, #286, #937, .T. ) ;
#927 = LINE ( 'NONE', #923, #241 ) ;
#928 = DIRECTION ( 'NONE',  ( -0.000000000000000000, -1.000000000000000000, -0.000000000000000000 ) ) ;
#929 = EDGE_LOOP ( 'NONE', ( #386, #123 ) ) ;
#930 = DIRECTION ( 'NONE',  ( -0.000000000000000000, 1.000000000000000000, -0.000000000000000000 ) ) ;
#931 = CARTESIAN_POINT ( 'NONE',  ( 0.000000000000000000, 10.00000000000000000, 0.000000000000000000 ) ) ;
#932 = CARTESIAN_POINT ( 'NONE',  ( -11.31370849898482156, 10.00000000000000000, 11.31370849898470077 ) ) ;
#933 = APPROVAL ( #173, 'UNSPECIFIED' ) ;
#934 = EDGE_LOOP ( 'NONE', ( #323, #489, #224, #301 ) ) ;
#935 = PERSON_AND_ORGANIZATION ( #43, #255 ) ;
#936 = AXIS2_PLACEMENT_3D ( 'NONE', #639, #578, #857 ) ;
#937 = CIRCLE ( 'NONE', #831, 1.649999999999998579 ) ;
#938 = VECTOR ( 'NONE', #631, 1000.000000000000000 ) ;
#939 = CARTESIAN_POINT ( 'NONE',  ( 0.000000000000000000, -10.77032961426900748, 0.000000000000000000 ) ) ;
#940 = DIRECTION ( 'NONE',  ( -0.000000000000000000, 1.000000000000000000, -0.000000000000000000 ) ) ;
#941 = ORIENTED_EDGE ( 'NONE', *, *, #504, .F. ) ;
#942 = CARTESIAN_POINT ( 'NONE',  ( 1.677931709863297103E-13, 0.000000000000000000, -17.64999999999999503 ) ) ;
ENDSEC;
END-ISO-10303-21;
