ISO-10303-21;
HEADER;
FILE_DESCRIPTION (( 'STEP AP203' ),
    '1' );
FILE_NAME ('Pulley40mm_Default_sldprt.STEP',
    '2026-07-31T10:19:13',
    ( '' ),
    ( '' ),
    'SwSTEP 2.0',
    'SolidWorks 2025',
    '' );
FILE_SCHEMA (( 'CONFIG_CONTROL_DESIGN' ));
ENDSEC;

DATA;
#1 = CARTESIAN_POINT ( 'NONE',  ( -20.00000000000000000, 0.000000000000000000, 3.000000000000000000 ) ) ;
#2 = VECTOR ( 'NONE', #311, 1000.000000000000000 ) ;
#3 = CALENDAR_DATE ( 2026, 31, 7 ) ;
#4 = EDGE_CURVE ( 'NONE', #307, #358, #123, .T. ) ;
#5 = ORIENTED_EDGE ( 'NONE', *, *, #353, .F. ) ;
#6 = VERTEX_POINT ( 'NONE', #305 ) ;
#7 = VECTOR ( 'NONE', #401, 1000.000000000000000 ) ;
#8 = ORIENTED_EDGE ( 'NONE', *, *, #299, .T. ) ;
#9 = ADVANCED_FACE ( 'NONE', ( #242 ), #150, .T. ) ;
#10 = ORIENTED_EDGE ( 'NONE', *, *, #366, .T. ) ;
#11 = ORIENTED_EDGE ( 'NONE', *, *, #274, .F. ) ;
#12 = CIRCLE ( 'NONE', #64, 18.49999999999999645 ) ;
#13 = CC_DESIGN_APPROVAL ( #134, ( #144 ) ) ;
#14 = AXIS2_PLACEMENT_3D ( 'NONE', #120, #397, #247 ) ;
#15 = EDGE_LOOP ( 'NONE', ( #197, #298, #394, #42 ) ) ;
#16 = EDGE_CURVE ( 'NONE', #47, #210, #195, .T. ) ;
#17 = DIRECTION ( 'NONE',  ( -0.000000000000000000, -0.000000000000000000, -1.000000000000000000 ) ) ;
#18 = FACE_OUTER_BOUND ( 'NONE', #326, .T. ) ;
#19 = DIRECTION ( 'NONE',  ( -0.000000000000000000, -0.000000000000000000, -1.000000000000000000 ) ) ;
#20 = ORIENTED_EDGE ( 'NONE', *, *, #291, .T. ) ;
#21 = CARTESIAN_POINT ( 'NONE',  ( 0.000000000000000000, 0.000000000000000000, 9.000000000000001776 ) ) ;
#22 = VECTOR ( 'NONE', #241, 1000.000000000000000 ) ;
#23 = DIRECTION ( 'NONE',  ( -0.000000000000000000, -0.000000000000000000, -1.000000000000000000 ) ) ;
#24 = ADVANCED_FACE ( 'NONE', ( #18, #114 ), #145, .F. ) ;
#25 = CARTESIAN_POINT ( 'NONE',  ( 0.000000000000000000, 0.000000000000000000, 0.000000000000000000 ) ) ;
#26 = FACE_OUTER_BOUND ( 'NONE', #199, .T. ) ;
#27 = CARTESIAN_POINT ( 'NONE',  ( 0.000000000000000000, 0.000000000000000000, 12.00000000000000000 ) ) ;
#28 = DIRECTION ( 'NONE',  ( 1.000000000000000000, 0.000000000000000000, 0.000000000000000000 ) ) ;
#29 = CIRCLE ( 'NONE', #316, 5.000000000000000000 ) ;
#30 = CARTESIAN_POINT ( 'NONE',  ( 0.000000000000000000, 0.000000000000000000, -8.602081939942721078 ) ) ;
#31 = CC_DESIGN_APPROVAL ( #277, ( #329 ) ) ;
#32 = EDGE_CURVE ( 'NONE', #391, #111, #301, .T. ) ;
#33 = PERSON_AND_ORGANIZATION_ROLE ( 'creator' ) ;
#34 = DIRECTION ( 'NONE',  ( 1.000000000000000000, 0.000000000000000000, 0.000000000000000000 ) ) ;
#35 = PERSON_AND_ORGANIZATION ( #125, #39 ) ;
#36 = PLANE ( 'NONE',  #102 ) ;
#37 = COORDINATED_UNIVERSAL_TIME_OFFSET ( 3, 30, .AHEAD. ) ;
#38 = EDGE_CURVE ( 'NONE', #364, #233, #266, .T. ) ;
#39 = ORGANIZATION ( 'UNSPECIFIED', 'UNSPECIFIED', '' ) ;
#40 = APPROVAL_DATE_TIME ( #133, #192 ) ;
#41 = APPLICATION_CONTEXT ( 'configuration controlled 3d designs of mechanical parts and assemblies' ) ;
#42 = ORIENTED_EDGE ( 'NONE', *, *, #393, .F. ) ;
#43 = EDGE_LOOP ( 'NONE', ( #48, #235, #203, #300 ) ) ;
#44 = AXIS2_PLACEMENT_3D ( 'NONE', #112, #92, #340 ) ;
#45 = EDGE_LOOP ( 'NONE', ( #201, #331 ) ) ;
#46 = CC_DESIGN_PERSON_AND_ORGANIZATION_ASSIGNMENT ( #158, #160, ( #103 ) ) ;
#47 = VERTEX_POINT ( 'NONE', #336 ) ;
#48 = ORIENTED_EDGE ( 'NONE', *, *, #200, .F. ) ;
#49 = CIRCLE ( 'NONE', #174, 20.00000000000000000 ) ;
#50 = LOCAL_TIME ( 13, 49, 13.00000000000000000, #314 ) ;
#51 = CARTESIAN_POINT ( 'NONE',  ( 0.000000000000000000, 0.000000000000000000, 0.000000000000000000 ) ) ;
#52 = CARTESIAN_POINT ( 'NONE',  ( 0.000000000000000000, 0.000000000000000000, 12.00000000000000000 ) ) ;
#53 = DIRECTION ( 'NONE',  ( 0.000000000000000000, 0.000000000000000000, 1.000000000000000000 ) ) ;
#54 = CARTESIAN_POINT ( 'NONE',  ( 0.000000000000000000, 0.000000000000000000, -8.602081939942721078 ) ) ;
#55 = DIRECTION ( 'NONE',  ( -1.000000000000000000, 0.000000000000000000, 0.000000000000000000 ) ) ;
#56 = EDGE_CURVE ( 'NONE', #108, #364, #119, .T. ) ;
#57 = CARTESIAN_POINT ( 'NONE',  ( -20.00000000000000000, 0.000000000000000000, 12.00000000000000000 ) ) ;
#58 = DIRECTION ( 'NONE',  ( -1.000000000000000000, 0.000000000000000000, 0.000000000000000000 ) ) ;
#59 = CC_DESIGN_DATE_AND_TIME_ASSIGNMENT ( #409, #320, ( #329 ) ) ;
#60 = DIRECTION ( 'NONE',  ( 0.000000000000000000, 0.000000000000000000, 1.000000000000000000 ) ) ;
#61 = DIRECTION ( 'NONE',  ( 1.000000000000000000, 0.000000000000000000, 0.000000000000000000 ) ) ;
#62 = CARTESIAN_POINT ( 'NONE',  ( 0.000000000000000000, 0.000000000000000000, 0.000000000000000000 ) ) ;
#63 = DATE_AND_TIME ( #388, #50 ) ;
#64 = AXIS2_PLACEMENT_3D ( 'NONE', #178, #216, #205 ) ;
#65 = DIRECTION ( 'NONE',  ( -0.000000000000000000, 0.000000000000000000, -1.000000000000000000 ) ) ;
#66 = CC_DESIGN_PERSON_AND_ORGANIZATION_ASSIGNMENT ( #355, #128, ( #103 ) ) ;
#67 = DIRECTION ( 'NONE',  ( 1.000000000000000000, 0.000000000000000000, 0.000000000000000000 ) ) ;
#68 = MECHANICAL_CONTEXT ( 'NONE', #90, 'mechanical' ) ;
#69 = APPROVAL_DATE_TIME ( #351, #277 ) ;
#70 = CIRCLE ( 'NONE', #169, 20.00000000000000000 ) ;
#71 = AXIS2_PLACEMENT_3D ( 'NONE', #87, #275, #303 ) ;
#72 = EDGE_LOOP ( 'NONE', ( #272, #294 ) ) ;
#73 = ORIENTED_EDGE ( 'NONE', *, *, #353, .T. ) ;
#74 = EDGE_CURVE ( 'NONE', #263, #6, #12, .T. ) ;
#75 = EDGE_LOOP ( 'NONE', ( #196, #11 ) ) ;
#76 = VECTOR ( 'NONE', #406, 1000.000000000000000 ) ;
#77 = EDGE_CURVE ( 'NONE', #233, #364, #296, .T. ) ;
#78 = EDGE_LOOP ( 'NONE', ( #230, #260, #293, #375 ) ) ;
#79 = DIRECTION ( 'NONE',  ( -0.000000000000000000, -0.000000000000000000, -1.000000000000000000 ) ) ;
#80 = AXIS2_PLACEMENT_3D ( 'NONE', #54, #17, #113 ) ;
#81 = DIRECTION ( 'NONE',  ( -1.000000000000000000, 0.000000000000000000, 0.000000000000000000 ) ) ;
#82 = DIRECTION ( 'NONE',  ( 1.000000000000000000, 0.000000000000000000, 0.000000000000000000 ) ) ;
#83 = CARTESIAN_POINT ( 'NONE',  ( -18.49999999999999645, 0.000000000000000000, 9.000000000000001776 ) ) ;
#84 = DIRECTION ( 'NONE',  ( -0.000000000000000000, -0.000000000000000000, -1.000000000000000000 ) ) ;
#85 = ADVANCED_FACE ( 'NONE', ( #208 ), #343, .T. ) ;
#86 = CARTESIAN_POINT ( 'NONE',  ( 20.00000000000000000, 2.449293598294706513E-15, 12.00000000000000000 ) ) ;
#87 = CARTESIAN_POINT ( 'NONE',  ( 0.000000000000000000, 0.000000000000000000, 2.999999999999999112 ) ) ;
#88 = AXIS2_PLACEMENT_3D ( 'NONE', #304, #347, #182 ) ;
#89 = DIRECTION ( 'NONE',  ( 1.000000000000000000, 0.000000000000000000, 0.000000000000000000 ) ) ;
#90 = APPLICATION_CONTEXT ( 'configuration controlled 3d designs of mechanical parts and assemblies' ) ;
#91 = CLOSED_SHELL ( 'NONE', ( #262, #99, #9, #85, #281, #176, #24, #357, #148, #163, #225, #104 ) ) ;
#92 = DIRECTION ( 'NONE',  ( 0.000000000000000000, 0.000000000000000000, 1.000000000000000000 ) ) ;
#93 = DIRECTION ( 'NONE',  ( -0.000000000000000000, -0.000000000000000000, -1.000000000000000000 ) ) ;
#94 = FACE_BOUND ( 'NONE', #140, .T. ) ;
#95 = CARTESIAN_POINT ( 'NONE',  ( -18.49999999999999645, 0.000000000000000000, -8.602081939942721078 ) ) ;
#96 = CIRCLE ( 'NONE', #361, 18.49999999999999645 ) ;
#97 = CARTESIAN_POINT ( 'NONE',  ( -20.00000000000000000, 0.000000000000000000, 2.999999999999999112 ) ) ;
#98 = CARTESIAN_POINT ( 'NONE',  ( -5.000000000000000000, 0.000000000000000000, 12.00000000000000000 ) ) ;
#99 = ADVANCED_FACE ( 'NONE', ( #180 ), #312, .F. ) ;
#100 = PERSON_AND_ORGANIZATION_ROLE ( 'design_owner' ) ;
#101 = APPROVAL_DATE_TIME ( #63, #134 ) ;
#102 = AXIS2_PLACEMENT_3D ( 'NONE', #27, #127, #185 ) ;
#103 = PRODUCT_DEFINITION_FORMATION_WITH_SPECIFIED_SOURCE ( 'ANY', '', #282, .NOT_KNOWN. ) ;
#104 = ADVANCED_FACE ( 'NONE', ( #183, #94 ), #319, .F. ) ;
#105 = EDGE_CURVE ( 'NONE', #147, #108, #29, .T. ) ;
#106 = ORIENTED_EDGE ( 'NONE', *, *, #366, .F. ) ;
#107 = EDGE_LOOP ( 'NONE', ( #139, #73, #395, #265 ) ) ;
#108 = VERTEX_POINT ( 'NONE', #352 ) ;
#109 = AXIS2_PLACEMENT_3D ( 'NONE', #190, #60, #408 ) ;
#110 = AXIS2_PLACEMENT_3D ( 'NONE', #258, #256, #28 ) ;
#111 = VERTEX_POINT ( 'NONE', #285 ) ;
#112 = CARTESIAN_POINT ( 'NONE',  ( 0.000000000000000000, 0.000000000000000000, 0.000000000000000000 ) ) ;
#113 = DIRECTION ( 'NONE',  ( -1.000000000000000000, 0.000000000000000000, 0.000000000000000000 ) ) ;
#114 = FACE_BOUND ( 'NONE', #45, .T. ) ;
#115 = AXIS2_PLACEMENT_3D ( 'NONE', #380, #348, #157 ) ;
#116 = CARTESIAN_POINT ( 'NONE',  ( -18.49999999999999645, 0.000000000000000000, 2.999999999999999112 ) ) ;
#117 = ORIENTED_EDGE ( 'NONE', *, *, #16, .F. ) ;
#118 = LINE ( 'NONE', #154, #22 ) ;
#119 = LINE ( 'NONE', #238, #213 ) ;
#120 = CARTESIAN_POINT ( 'NONE',  ( 0.000000000000000000, 0.000000000000000000, 12.00000000000000000 ) ) ;
#121 = AXIS2_PLACEMENT_3D ( 'NONE', #1, #65, #222 ) ;
#122 = DIRECTION ( 'NONE',  ( -0.000000000000000000, -0.000000000000000000, -1.000000000000000000 ) ) ;
#123 = CIRCLE ( 'NONE', #325, 18.49999999999999645 ) ;
#124 = DIRECTION ( 'NONE',  ( -1.000000000000000000, 0.000000000000000000, 0.000000000000000000 ) ) ;
#125 = PERSON ( 'UNSPECIFIED', 'UNSPECIFIED', 'UNSPECIFIED', ('UNSPECIFIED'), ('UNSPECIFIED'), ('UNSPECIFIED') ) ;
#126 = PERSON_AND_ORGANIZATION ( #125, #39 ) ;
#127 = DIRECTION ( 'NONE',  ( 0.000000000000000000, 0.000000000000000000, 1.000000000000000000 ) ) ;
#128 = PERSON_AND_ORGANIZATION_ROLE ( 'creator' ) ;
#129 = CARTESIAN_POINT ( 'NONE',  ( 20.00000000000000000, 2.449293598294706513E-15, 12.00000000000000000 ) ) ;
#130 = APPROVAL_STATUS ( 'not_yet_approved' ) ;
#131 = AXIS2_PLACEMENT_3D ( 'NONE', #402, #79, #153 ) ;
#132 = DIRECTION ( 'NONE',  ( -0.000000000000000000, -0.000000000000000000, -1.000000000000000000 ) ) ;
#133 = DATE_AND_TIME ( #3, #302 ) ;
#134 = APPROVAL ( #135, 'UNSPECIFIED' ) ;
#135 = APPROVAL_STATUS ( 'not_yet_approved' ) ;
#136 = VERTEX_POINT ( 'NONE', #385 ) ;
#137 = CIRCLE ( 'NONE', #88, 20.00000000000000000 ) ;
#138 = ORIENTED_EDGE ( 'NONE', *, *, #214, .T. ) ;
#139 = ORIENTED_EDGE ( 'NONE', *, *, #252, .F. ) ;
#140 = EDGE_LOOP ( 'NONE', ( #297, #138 ) ) ;
#141 = ORIENTED_EDGE ( 'NONE', *, *, #252, .T. ) ;
#142 = EDGE_CURVE ( 'NONE', #136, #228, #49, .T. ) ;
#143 = VECTOR ( 'NONE', #218, 1000.000000000000000 ) ;
#144 = SECURITY_CLASSIFICATION ( '', '', #193 ) ;
#145 = PLANE ( 'NONE',  #248 ) ;
#146 = DIRECTION ( 'NONE',  ( 0.000000000000000000, 0.000000000000000000, 1.000000000000000000 ) ) ;
#147 = VERTEX_POINT ( 'NONE', #98 ) ;
#148 = ADVANCED_FACE ( 'NONE', ( #220 ), #161, .F. ) ;
#149 = DIRECTION ( 'NONE',  ( 0.000000000000000000, 0.000000000000000000, 1.000000000000000000 ) ) ;
#150 = CYLINDRICAL_SURFACE ( 'NONE', #14, 20.00000000000000000 ) ;
#151 = AXIS2_PLACEMENT_3D ( 'NONE', #191, #405, #124 ) ;
#152 = CARTESIAN_POINT ( 'NONE',  ( 5.000000000000000000, 6.123233995736766282E-16, 0.000000000000000000 ) ) ;
#153 = DIRECTION ( 'NONE',  ( -1.000000000000000000, 0.000000000000000000, 0.000000000000000000 ) ) ;
#154 = CARTESIAN_POINT ( 'NONE',  ( -20.00000000000000000, 0.000000000000000000, 12.00000000000000000 ) ) ;
#155 = ORIENTED_EDGE ( 'NONE', *, *, #299, .F. ) ;
#156 = EDGE_CURVE ( 'NONE', #228, #136, #280, .T. ) ;
#157 = DIRECTION ( 'NONE',  ( 1.000000000000000000, 0.000000000000000000, 0.000000000000000000 ) ) ;
#158 = PERSON_AND_ORGANIZATION ( #125, #39 ) ;
#159 = CYLINDRICAL_SURFACE ( 'NONE', #383, 18.49999999999999645 ) ;
#160 = PERSON_AND_ORGANIZATION_ROLE ( 'design_supplier' ) ;
#161 = CYLINDRICAL_SURFACE ( 'NONE', #151, 5.000000000000000000 ) ;
#162 = CALENDAR_DATE ( 2026, 31, 7 ) ;
#163 = ADVANCED_FACE ( 'NONE', ( #254, #224 ), #346, .F. ) ;
#164 = LINE ( 'NONE', #354, #76 ) ;
#165 = LOCAL_TIME ( 13, 49, 13.00000000000000000, #286 ) ;
#166 = DATE_AND_TIME ( #349, #384 ) ;
#167 = ORIENTED_EDGE ( 'NONE', *, *, #407, .F. ) ;
#168 = ORIENTED_EDGE ( 'NONE', *, *, #38, .F. ) ;
#169 = AXIS2_PLACEMENT_3D ( 'NONE', #21, #122, #269 ) ;
#170 = EDGE_LOOP ( 'NONE', ( #270, #363 ) ) ;
#171 = VERTEX_POINT ( 'NONE', #129 ) ;
#172 = ORIENTED_EDGE ( 'NONE', *, *, #214, .F. ) ;
#173 = ORIENTED_EDGE ( 'NONE', *, *, #156, .F. ) ;
#174 = AXIS2_PLACEMENT_3D ( 'NONE', #62, #187, #67 ) ;
#175 = DIRECTION ( 'NONE',  ( 0.000000000000000000, 0.000000000000000000, 1.000000000000000000 ) ) ;
#176 = ADVANCED_FACE ( 'NONE', ( #321, #382 ), #36, .T. ) ;
#177 = CARTESIAN_POINT ( 'NONE',  ( -5.000000000000000000, 0.000000000000000000, 0.000000000000000000 ) ) ;
#178 = CARTESIAN_POINT ( 'NONE',  ( 0.000000000000000000, 0.000000000000000000, 2.999999999999999112 ) ) ;
#179 = DIRECTION ( 'NONE',  ( -1.000000000000000000, 0.000000000000000000, 0.000000000000000000 ) ) ;
#180 = FACE_OUTER_BOUND ( 'NONE', #15, .T. ) ;
#181 = VECTOR ( 'NONE', #19, 1000.000000000000000 ) ;
#182 = DIRECTION ( 'NONE',  ( -1.000000000000000000, 0.000000000000000000, 0.000000000000000000 ) ) ;
#183 = FACE_OUTER_BOUND ( 'NONE', #334, .T. ) ;
#184 =( NAMED_UNIT ( * ) PLANE_ANGLE_UNIT ( ) SI_UNIT ( $, .RADIAN. ) );
#185 = DIRECTION ( 'NONE',  ( 1.000000000000000000, 0.000000000000000000, -0.000000000000000000 ) ) ;
#186 = PERSON_AND_ORGANIZATION ( #125, #39 ) ;
#187 = DIRECTION ( 'NONE',  ( 0.000000000000000000, 0.000000000000000000, 1.000000000000000000 ) ) ;
#188 = AXIS2_PLACEMENT_3D ( 'NONE', #271, #146, #371 ) ;
#189 = COORDINATED_UNIVERSAL_TIME_OFFSET ( 3, 30, .AHEAD. ) ;
#190 = CARTESIAN_POINT ( 'NONE',  ( -20.00000000000000000, 0.000000000000000000, 9.000000000000001776 ) ) ;
#191 = CARTESIAN_POINT ( 'NONE',  ( 0.000000000000000000, 0.000000000000000000, 12.00000000000000000 ) ) ;
#192 = APPROVAL ( #381, 'UNSPECIFIED' ) ;
#193 = SECURITY_CLASSIFICATION_LEVEL ( 'unclassified' ) ;
#194 = AXIS2_PLACEMENT_3D ( 'NONE', #398, #149, #89 ) ;
#195 = CIRCLE ( 'NONE', #71, 20.00000000000000000 ) ;
#196 = ORIENTED_EDGE ( 'NONE', *, *, #105, .F. ) ;
#197 = ORIENTED_EDGE ( 'NONE', *, *, #105, .T. ) ;
#198 = AXIS2_PLACEMENT_3D ( 'NONE', #370, #84, #55 ) ;
#199 = EDGE_LOOP ( 'NONE', ( #5, #106, #389, #362 ) ) ;
#200 = EDGE_CURVE ( 'NONE', #47, #136, #164, .T. ) ;
#201 = ORIENTED_EDGE ( 'NONE', *, *, #77, .T. ) ;
#202 = CC_DESIGN_PERSON_AND_ORGANIZATION_ASSIGNMENT ( #126, #100, ( #282 ) ) ;
#203 = ORIENTED_EDGE ( 'NONE', *, *, #407, .T. ) ;
#204 = EDGE_CURVE ( 'NONE', #358, #6, #313, .T. ) ;
#205 = DIRECTION ( 'NONE',  ( -1.000000000000000000, 0.000000000000000000, 0.000000000000000000 ) ) ;
#206 = CIRCLE ( 'NONE', #288, 18.49999999999999645 ) ;
#207 = FACE_OUTER_BOUND ( 'NONE', #78, .T. ) ;
#208 = FACE_OUTER_BOUND ( 'NONE', #107, .T. ) ;
#209 = DIRECTION ( 'NONE',  ( -1.000000000000000000, 0.000000000000000000, 0.000000000000000000 ) ) ;
#210 = VERTEX_POINT ( 'NONE', #97 ) ;
#211 = CYLINDRICAL_SURFACE ( 'NONE', #80, 18.49999999999999645 ) ;
#212 = DIRECTION ( 'NONE',  ( -1.000000000000000000, 0.000000000000000000, 0.000000000000000000 ) ) ;
#213 = VECTOR ( 'NONE', #367, 1000.000000000000000 ) ;
#214 = EDGE_CURVE ( 'NONE', #6, #263, #206, .T. ) ;
#215 = CARTESIAN_POINT ( 'NONE',  ( 18.49999999999999645, 2.265596578422603002E-15, 9.000000000000001776 ) ) ;
#216 = DIRECTION ( 'NONE',  ( -0.000000000000000000, -0.000000000000000000, -1.000000000000000000 ) ) ;
#217 = CARTESIAN_POINT ( 'NONE',  ( -20.00000000000000000, 0.000000000000000000, 0.000000000000000000 ) ) ;
#218 = DIRECTION ( 'NONE',  ( -0.000000000000000000, -0.000000000000000000, -1.000000000000000000 ) ) ;
#219 = PERSON_AND_ORGANIZATION_ROLE ( 'classification_officer' ) ;
#220 = FACE_OUTER_BOUND ( 'NONE', #276, .T. ) ;
#221 = EDGE_CURVE ( 'NONE', #307, #263, #379, .T. ) ;
#222 = DIRECTION ( 'NONE',  ( -1.000000000000000000, 0.000000000000000000, 0.000000000000000000 ) ) ;
#223 = PERSON_AND_ORGANIZATION ( #125, #39 ) ;
#224 = FACE_OUTER_BOUND ( 'NONE', #170, .T. ) ;
#225 = ADVANCED_FACE ( 'NONE', ( #350 ), #159, .T. ) ;
#226 = APPLICATION_PROTOCOL_DEFINITION ( 'international standard', 'config_control_design', 1994, #41 ) ;
#227 = MANIFOLD_SOLID_BREP ( 'Cut-Revolve1', #91 ) ;
#228 = VERTEX_POINT ( 'NONE', #217 ) ;
#229 = EDGE_LOOP ( 'NONE', ( #372, #20, #390, #172 ) ) ;
#230 = ORIENTED_EDGE ( 'NONE', *, *, #4, .T. ) ;
#231 =( GEOMETRIC_REPRESENTATION_CONTEXT ( 3 ) GLOBAL_UNCERTAINTY_ASSIGNED_CONTEXT ( ( #236 ) ) GLOBAL_UNIT_ASSIGNED_CONTEXT ( ( #403, #184, #278 ) ) REPRESENTATION_CONTEXT ( 'NONE', 'WORKASPACE' ) );
#232 = APPROVAL_PERSON_ORGANIZATION ( #322, #192, #289 ) ;
#233 = VERTEX_POINT ( 'NONE', #177 ) ;
#234 = EDGE_LOOP ( 'NONE', ( #10, #141 ) ) ;
#235 = ORIENTED_EDGE ( 'NONE', *, *, #16, .T. ) ;
#236 = UNCERTAINTY_MEASURE_WITH_UNIT (LENGTH_MEASURE( 1.000000000000000082E-05 ), #403, 'distance_accuracy_value', 'NONE');
#237 = LINE ( 'NONE', #86, #7 ) ;
#238 = CARTESIAN_POINT ( 'NONE',  ( 5.000000000000000000, 6.123233995736766282E-16, 12.00000000000000000 ) ) ;
#239 = CIRCLE ( 'NONE', #310, 20.00000000000000000 ) ;
#240 = APPROVAL_PERSON_ORGANIZATION ( #292, #134, #259 ) ;
#241 = DIRECTION ( 'NONE',  ( -0.000000000000000000, -0.000000000000000000, -1.000000000000000000 ) ) ;
#242 = FACE_OUTER_BOUND ( 'NONE', #328, .T. ) ;
#243 = LINE ( 'NONE', #57, #2 ) ;
#244 = DIRECTION ( 'NONE',  ( -0.000000000000000000, -0.000000000000000000, -1.000000000000000000 ) ) ;
#245 = ADVANCED_BREP_SHAPE_REPRESENTATION ( 'Pulley40mm_Default_sldprt', ( #227, #110 ), #231 ) ;
#246 = CARTESIAN_POINT ( 'NONE',  ( 0.000000000000000000, 0.000000000000000000, 9.000000000000001776 ) ) ;
#247 = DIRECTION ( 'NONE',  ( -1.000000000000000000, 0.000000000000000000, 0.000000000000000000 ) ) ;
#248 = AXIS2_PLACEMENT_3D ( 'NONE', #25, #53, #268 ) ;
#249 = CYLINDRICAL_SURFACE ( 'NONE', #330, 20.00000000000000000 ) ;
#250 = DIRECTION ( 'NONE',  ( -0.000000000000000000, -0.000000000000000000, -1.000000000000000000 ) ) ;
#251 = DATE_TIME_ROLE ( 'classification_date' ) ;
#252 = EDGE_CURVE ( 'NONE', #171, #392, #342, .T. ) ;
#253 = CARTESIAN_POINT ( 'NONE',  ( 0.000000000000000000, 0.000000000000000000, 12.00000000000000000 ) ) ;
#254 = FACE_BOUND ( 'NONE', #72, .T. ) ;
#255 = AXIS2_PLACEMENT_3D ( 'NONE', #51, #175, #82 ) ;
#256 = DIRECTION ( 'NONE',  ( 0.000000000000000000, 0.000000000000000000, 1.000000000000000000 ) ) ;
#257 = DIRECTION ( 'NONE',  ( -1.000000000000000000, 0.000000000000000000, 0.000000000000000000 ) ) ;
#258 = CARTESIAN_POINT ( 'NONE',  ( 0.000000000000000000, 0.000000000000000000, 0.000000000000000000 ) ) ;
#259 = APPROVAL_ROLE ( '' ) ;
#260 = ORIENTED_EDGE ( 'NONE', *, *, #204, .T. ) ;
#261 = CIRCLE ( 'NONE', #188, 5.000000000000000000 ) ;
#262 = ADVANCED_FACE ( 'NONE', ( #207 ), #211, .T. ) ;
#263 = VERTEX_POINT ( 'NONE', #116 ) ;
#264 = CC_DESIGN_PERSON_AND_ORGANIZATION_ASSIGNMENT ( #223, #33, ( #329 ) ) ;
#265 = ORIENTED_EDGE ( 'NONE', *, *, #327, .F. ) ;
#266 = CIRCLE ( 'NONE', #44, 5.000000000000000000 ) ;
#267 = ORIENTED_EDGE ( 'NONE', *, *, #142, .F. ) ;
#268 = DIRECTION ( 'NONE',  ( 1.000000000000000000, 0.000000000000000000, -0.000000000000000000 ) ) ;
#269 = DIRECTION ( 'NONE',  ( -1.000000000000000000, 0.000000000000000000, 0.000000000000000000 ) ) ;
#270 = ORIENTED_EDGE ( 'NONE', *, *, #32, .T. ) ;
#271 = CARTESIAN_POINT ( 'NONE',  ( 0.000000000000000000, 0.000000000000000000, 12.00000000000000000 ) ) ;
#272 = ORIENTED_EDGE ( 'NONE', *, *, #4, .F. ) ;
#273 = LINE ( 'NONE', #378, #181 ) ;
#274 = EDGE_CURVE ( 'NONE', #108, #147, #261, .T. ) ;
#275 = DIRECTION ( 'NONE',  ( -0.000000000000000000, -0.000000000000000000, -1.000000000000000000 ) ) ;
#276 = EDGE_LOOP ( 'NONE', ( #332, #359, #400, #168 ) ) ;
#277 = APPROVAL ( #130, 'UNSPECIFIED' ) ;
#278 =( NAMED_UNIT ( * ) SI_UNIT ( $, .STERADIAN. ) SOLID_ANGLE_UNIT ( ) );
#279 = DIRECTION ( 'NONE',  ( 0.000000000000000000, 0.000000000000000000, 1.000000000000000000 ) ) ;
#280 = CIRCLE ( 'NONE', #115, 20.00000000000000000 ) ;
#281 = ADVANCED_FACE ( 'NONE', ( #26 ), #249, .T. ) ;
#282 = PRODUCT ( 'Pulley40mm_Default_sldprt', 'Pulley40mm_Default_sldprt', '', ( #68 ) ) ;
#283 = DIRECTION ( 'NONE',  ( -0.000000000000000000, -0.000000000000000000, -1.000000000000000000 ) ) ;
#284 = CALENDAR_DATE ( 2026, 31, 7 ) ;
#285 = CARTESIAN_POINT ( 'NONE',  ( 20.00000000000000000, 2.449293598294706513E-15, 9.000000000000001776 ) ) ;
#286 = COORDINATED_UNIVERSAL_TIME_OFFSET ( 3, 30, .AHEAD. ) ;
#287 = CARTESIAN_POINT ( 'NONE',  ( 18.49999999999999645, 2.265596578422603002E-15, -8.602081939942721078 ) ) ;
#288 = AXIS2_PLACEMENT_3D ( 'NONE', #315, #132, #257 ) ;
#289 = APPROVAL_ROLE ( '' ) ;
#290 = CC_DESIGN_SECURITY_CLASSIFICATION ( #144, ( #103 ) ) ;
#291 = EDGE_CURVE ( 'NONE', #358, #307, #96, .T. ) ;
#292 = PERSON_AND_ORGANIZATION ( #125, #39 ) ;
#293 = ORIENTED_EDGE ( 'NONE', *, *, #74, .F. ) ;
#294 = ORIENTED_EDGE ( 'NONE', *, *, #291, .F. ) ;
#295 = EDGE_CURVE ( 'NONE', #111, #391, #70, .T. ) ;
#296 = CIRCLE ( 'NONE', #255, 5.000000000000000000 ) ;
#297 = ORIENTED_EDGE ( 'NONE', *, *, #74, .T. ) ;
#298 = ORIENTED_EDGE ( 'NONE', *, *, #56, .T. ) ;
#299 = EDGE_CURVE ( 'NONE', #210, #47, #137, .T. ) ;
#300 = ORIENTED_EDGE ( 'NONE', *, *, #156, .T. ) ;
#301 = CIRCLE ( 'NONE', #131, 20.00000000000000000 ) ;
#302 = LOCAL_TIME ( 13, 49, 13.00000000000000000, #189 ) ;
#303 = DIRECTION ( 'NONE',  ( -1.000000000000000000, 0.000000000000000000, 0.000000000000000000 ) ) ;
#304 = CARTESIAN_POINT ( 'NONE',  ( 0.000000000000000000, 0.000000000000000000, 2.999999999999999112 ) ) ;
#305 = CARTESIAN_POINT ( 'NONE',  ( 18.49999999999999645, 2.265596578422603002E-15, 2.999999999999999112 ) ) ;
#306 = CARTESIAN_POINT ( 'NONE',  ( -20.00000000000000000, 0.000000000000000000, 9.000000000000001776 ) ) ;
#307 = VERTEX_POINT ( 'NONE', #83 ) ;
#308 = DIRECTION ( 'NONE',  ( -0.000000000000000000, -0.000000000000000000, -1.000000000000000000 ) ) ;
#309 = CARTESIAN_POINT ( 'NONE',  ( 0.000000000000000000, 0.000000000000000000, 12.00000000000000000 ) ) ;
#310 = AXIS2_PLACEMENT_3D ( 'NONE', #373, #345, #61 ) ;
#311 = DIRECTION ( 'NONE',  ( -0.000000000000000000, -0.000000000000000000, -1.000000000000000000 ) ) ;
#312 = CYLINDRICAL_SURFACE ( 'NONE', #344, 5.000000000000000000 ) ;
#313 = LINE ( 'NONE', #287, #335 ) ;
#314 = COORDINATED_UNIVERSAL_TIME_OFFSET ( 3, 30, .AHEAD. ) ;
#315 = CARTESIAN_POINT ( 'NONE',  ( 0.000000000000000000, 0.000000000000000000, 2.999999999999999112 ) ) ;
#316 = AXIS2_PLACEMENT_3D ( 'NONE', #253, #279, #34 ) ;
#317 = APPLICATION_PROTOCOL_DEFINITION ( 'international standard', 'config_control_design', 1994, #90 ) ;
#318 = PRODUCT_DEFINITION_SHAPE ( 'NONE', 'NONE',  #329 ) ;
#319 = PLANE ( 'NONE',  #121 ) ;
#320 = DATE_TIME_ROLE ( 'creation_date' ) ;
#321 = FACE_OUTER_BOUND ( 'NONE', #234, .T. ) ;
#322 = PERSON_AND_ORGANIZATION ( #125, #39 ) ;
#323 = APPROVAL_PERSON_ORGANIZATION ( #35, #277, #387 ) ;
#324 = COORDINATED_UNIVERSAL_TIME_OFFSET ( 3, 30, .AHEAD. ) ;
#325 = AXIS2_PLACEMENT_3D ( 'NONE', #338, #23, #212 ) ;
#326 = EDGE_LOOP ( 'NONE', ( #173, #267 ) ) ;
#327 = EDGE_CURVE ( 'NONE', #392, #391, #118, .T. ) ;
#328 = EDGE_LOOP ( 'NONE', ( #8, #404, #360, #167 ) ) ;
#329 = PRODUCT_DEFINITION ( 'UNKNOWN', '', #103, #368 ) ;
#330 = AXIS2_PLACEMENT_3D ( 'NONE', #341, #308, #179 ) ;
#331 = ORIENTED_EDGE ( 'NONE', *, *, #38, .T. ) ;
#332 = ORIENTED_EDGE ( 'NONE', *, *, #56, .F. ) ;
#333 = CC_DESIGN_PERSON_AND_ORGANIZATION_ASSIGNMENT ( #186, #219, ( #144 ) ) ;
#334 = EDGE_LOOP ( 'NONE', ( #155, #117 ) ) ;
#335 = VECTOR ( 'NONE', #250, 1000.000000000000000 ) ;
#336 = CARTESIAN_POINT ( 'NONE',  ( 20.00000000000000000, 2.449293598294706513E-15, 2.999999999999999112 ) ) ;
#337 = DIRECTION ( 'NONE',  ( -0.000000000000000000, -0.000000000000000000, -1.000000000000000000 ) ) ;
#338 = CARTESIAN_POINT ( 'NONE',  ( 0.000000000000000000, 0.000000000000000000, 9.000000000000001776 ) ) ;
#339 = CARTESIAN_POINT ( 'NONE',  ( -20.00000000000000000, 0.000000000000000000, 12.00000000000000000 ) ) ;
#340 = DIRECTION ( 'NONE',  ( 1.000000000000000000, 0.000000000000000000, 0.000000000000000000 ) ) ;
#341 = CARTESIAN_POINT ( 'NONE',  ( 0.000000000000000000, 0.000000000000000000, 12.00000000000000000 ) ) ;
#342 = CIRCLE ( 'NONE', #194, 20.00000000000000000 ) ;
#343 = CYLINDRICAL_SURFACE ( 'NONE', #198, 20.00000000000000000 ) ;
#344 = AXIS2_PLACEMENT_3D ( 'NONE', #309, #244, #58 ) ;
#345 = DIRECTION ( 'NONE',  ( 0.000000000000000000, 0.000000000000000000, 1.000000000000000000 ) ) ;
#346 = PLANE ( 'NONE',  #109 ) ;
#347 = DIRECTION ( 'NONE',  ( -0.000000000000000000, -0.000000000000000000, -1.000000000000000000 ) ) ;
#348 = DIRECTION ( 'NONE',  ( 0.000000000000000000, 0.000000000000000000, 1.000000000000000000 ) ) ;
#349 = CALENDAR_DATE ( 2026, 31, 7 ) ;
#350 = FACE_OUTER_BOUND ( 'NONE', #229, .T. ) ;
#351 = DATE_AND_TIME ( #284, #374 ) ;
#352 = CARTESIAN_POINT ( 'NONE',  ( 5.000000000000000000, 6.123233995736766282E-16, 12.00000000000000000 ) ) ;
#353 = EDGE_CURVE ( 'NONE', #171, #111, #237, .T. ) ;
#354 = CARTESIAN_POINT ( 'NONE',  ( 20.00000000000000000, 2.449293598294706513E-15, 12.00000000000000000 ) ) ;
#355 = PERSON_AND_ORGANIZATION ( #125, #39 ) ;
#356 = SHAPE_DEFINITION_REPRESENTATION ( #318, #245 ) ;
#357 = ADVANCED_FACE ( 'NONE', ( #365 ), #369, .T. ) ;
#358 = VERTEX_POINT ( 'NONE', #215 ) ;
#359 = ORIENTED_EDGE ( 'NONE', *, *, #274, .T. ) ;
#360 = ORIENTED_EDGE ( 'NONE', *, *, #142, .T. ) ;
#361 = AXIS2_PLACEMENT_3D ( 'NONE', #246, #93, #209 ) ;
#362 = ORIENTED_EDGE ( 'NONE', *, *, #295, .F. ) ;
#363 = ORIENTED_EDGE ( 'NONE', *, *, #295, .T. ) ;
#364 = VERTEX_POINT ( 'NONE', #152 ) ;
#365 = FACE_OUTER_BOUND ( 'NONE', #43, .T. ) ;
#366 = EDGE_CURVE ( 'NONE', #392, #171, #239, .T. ) ;
#367 = DIRECTION ( 'NONE',  ( -0.000000000000000000, -0.000000000000000000, -1.000000000000000000 ) ) ;
#368 = DESIGN_CONTEXT ( 'detailed design', #41, 'design' ) ;
#369 = CYLINDRICAL_SURFACE ( 'NONE', #399, 20.00000000000000000 ) ;
#370 = CARTESIAN_POINT ( 'NONE',  ( 0.000000000000000000, 0.000000000000000000, 12.00000000000000000 ) ) ;
#371 = DIRECTION ( 'NONE',  ( 1.000000000000000000, 0.000000000000000000, 0.000000000000000000 ) ) ;
#372 = ORIENTED_EDGE ( 'NONE', *, *, #204, .F. ) ;
#373 = CARTESIAN_POINT ( 'NONE',  ( 0.000000000000000000, 0.000000000000000000, 12.00000000000000000 ) ) ;
#374 = LOCAL_TIME ( 13, 49, 13.00000000000000000, #37 ) ;
#375 = ORIENTED_EDGE ( 'NONE', *, *, #221, .F. ) ;
#376 = CC_DESIGN_APPROVAL ( #192, ( #103 ) ) ;
#377 = PRODUCT_RELATED_PRODUCT_CATEGORY ( 'detail', '', ( #282 ) ) ;
#378 = CARTESIAN_POINT ( 'NONE',  ( -5.000000000000000000, 0.000000000000000000, 12.00000000000000000 ) ) ;
#379 = LINE ( 'NONE', #95, #143 ) ;
#380 = CARTESIAN_POINT ( 'NONE',  ( 0.000000000000000000, 0.000000000000000000, 0.000000000000000000 ) ) ;
#381 = APPROVAL_STATUS ( 'not_yet_approved' ) ;
#382 = FACE_BOUND ( 'NONE', #75, .T. ) ;
#383 = AXIS2_PLACEMENT_3D ( 'NONE', #30, #283, #396 ) ;
#384 = LOCAL_TIME ( 13, 49, 13.00000000000000000, #324 ) ;
#385 = CARTESIAN_POINT ( 'NONE',  ( 20.00000000000000000, 2.449293598294706513E-15, 0.000000000000000000 ) ) ;
#386 = CC_DESIGN_DATE_AND_TIME_ASSIGNMENT ( #166, #251, ( #144 ) ) ;
#387 = APPROVAL_ROLE ( '' ) ;
#388 = CALENDAR_DATE ( 2026, 31, 7 ) ;
#389 = ORIENTED_EDGE ( 'NONE', *, *, #327, .T. ) ;
#390 = ORIENTED_EDGE ( 'NONE', *, *, #221, .T. ) ;
#391 = VERTEX_POINT ( 'NONE', #306 ) ;
#392 = VERTEX_POINT ( 'NONE', #339 ) ;
#393 = EDGE_CURVE ( 'NONE', #147, #233, #273, .T. ) ;
#394 = ORIENTED_EDGE ( 'NONE', *, *, #77, .F. ) ;
#395 = ORIENTED_EDGE ( 'NONE', *, *, #32, .F. ) ;
#396 = DIRECTION ( 'NONE',  ( -1.000000000000000000, 0.000000000000000000, 0.000000000000000000 ) ) ;
#397 = DIRECTION ( 'NONE',  ( -0.000000000000000000, -0.000000000000000000, -1.000000000000000000 ) ) ;
#398 = CARTESIAN_POINT ( 'NONE',  ( 0.000000000000000000, 0.000000000000000000, 12.00000000000000000 ) ) ;
#399 = AXIS2_PLACEMENT_3D ( 'NONE', #52, #337, #81 ) ;
#400 = ORIENTED_EDGE ( 'NONE', *, *, #393, .T. ) ;
#401 = DIRECTION ( 'NONE',  ( -0.000000000000000000, -0.000000000000000000, -1.000000000000000000 ) ) ;
#402 = CARTESIAN_POINT ( 'NONE',  ( 0.000000000000000000, 0.000000000000000000, 9.000000000000001776 ) ) ;
#403 =( LENGTH_UNIT ( ) NAMED_UNIT ( * ) SI_UNIT ( .MILLI., .METRE. ) );
#404 = ORIENTED_EDGE ( 'NONE', *, *, #200, .T. ) ;
#405 = DIRECTION ( 'NONE',  ( -0.000000000000000000, -0.000000000000000000, -1.000000000000000000 ) ) ;
#406 = DIRECTION ( 'NONE',  ( -0.000000000000000000, -0.000000000000000000, -1.000000000000000000 ) ) ;
#407 = EDGE_CURVE ( 'NONE', #210, #228, #243, .T. ) ;
#408 = DIRECTION ( 'NONE',  ( 1.000000000000000000, 0.000000000000000000, -0.000000000000000000 ) ) ;
#409 = DATE_AND_TIME ( #162, #165 ) ;
ENDSEC;
END-ISO-10303-21;
