ISO-10303-21;
HEADER;
FILE_DESCRIPTION (( 'STEP AP203' ),
    '1' );
FILE_NAME ('Pulley16mm_Default_sldprt.STEP',
    '2026-07-23T12:35:15',
    ( '' ),
    ( '' ),
    'SwSTEP 2.0',
    'SolidWorks 2025',
    '' );
FILE_SCHEMA (( 'CONFIG_CONTROL_DESIGN' ));
ENDSEC;

DATA;
#1 = PERSON_AND_ORGANIZATION ( #42, #147 ) ;
#2 = DIRECTION ( 'NONE',  ( -1.000000000000000000, 0.000000000000000000, 0.000000000000000000 ) ) ;
#3 = AXIS2_PLACEMENT_3D ( 'NONE', #143, #403, #337 ) ;
#4 = FACE_BOUND ( 'NONE', #343, .T. ) ;
#5 = APPLICATION_CONTEXT ( 'configuration controlled 3d designs of mechanical parts and assemblies' ) ;
#6 = CARTESIAN_POINT ( 'NONE',  ( 8.000000000000000000, 9.797174393178825657E-16, 9.000000000000001776 ) ) ;
#7 = DIRECTION ( 'NONE',  ( -0.000000000000000000, -0.000000000000000000, -1.000000000000000000 ) ) ;
#8 = CARTESIAN_POINT ( 'NONE',  ( 8.000000000000000000, 9.797174393178825657E-16, 12.00000000000000000 ) ) ;
#9 = EDGE_CURVE ( 'NONE', #219, #165, #144, .T. ) ;
#10 = CARTESIAN_POINT ( 'NONE',  ( 0.000000000000000000, 0.000000000000000000, 0.000000000000000000 ) ) ;
#11 = DIRECTION ( 'NONE',  ( -0.000000000000000000, -0.000000000000000000, -1.000000000000000000 ) ) ;
#12 = ORIENTED_EDGE ( 'NONE', *, *, #197, .F. ) ;
#13 = CARTESIAN_POINT ( 'NONE',  ( -5.000000000000000000, 0.000000000000000000, 12.00000000000000000 ) ) ;
#14 = ORIENTED_EDGE ( 'NONE', *, *, #350, .F. ) ;
#15 = ADVANCED_FACE ( 'NONE', ( #100, #238 ), #297, .F. ) ;
#16 = DIRECTION ( 'NONE',  ( -0.000000000000000000, -0.000000000000000000, -1.000000000000000000 ) ) ;
#17 = EDGE_LOOP ( 'NONE', ( #312, #61 ) ) ;
#18 =( NAMED_UNIT ( * ) PLANE_ANGLE_UNIT ( ) SI_UNIT ( $, .RADIAN. ) );
#19 = EDGE_LOOP ( 'NONE', ( #374, #233, #345, #319 ) ) ;
#20 = CALENDAR_DATE ( 2026, 23, 7 ) ;
#21 = APPROVAL ( #262, 'UNSPECIFIED' ) ;
#22 = APPROVAL_DATE_TIME ( #56, #21 ) ;
#23 = DIRECTION ( 'NONE',  ( -0.000000000000000000, -0.000000000000000000, -1.000000000000000000 ) ) ;
#24 = PRODUCT ( 'Pulley16mm_Default_sldprt', 'Pulley16mm_Default_sldprt', '', ( #225 ) ) ;
#25 = CARTESIAN_POINT ( 'NONE',  ( -8.000000000000000000, 0.000000000000000000, 9.000000000000001776 ) ) ;
#26 = LINE ( 'NONE', #267, #254 ) ;
#27 = APPROVAL_STATUS ( 'not_yet_approved' ) ;
#28 = DIRECTION ( 'NONE',  ( 0.000000000000000000, 0.000000000000000000, 1.000000000000000000 ) ) ;
#29 = EDGE_CURVE ( 'NONE', #114, #165, #26, .T. ) ;
#30 = UNCERTAINTY_MEASURE_WITH_UNIT (LENGTH_MEASURE( 1.000000000000000082E-05 ), #344, 'distance_accuracy_value', 'NONE');
#31 = DIRECTION ( 'NONE',  ( -0.000000000000000000, -0.000000000000000000, -1.000000000000000000 ) ) ;
#32 = VECTOR ( 'NONE', #236, 1000.000000000000000 ) ;
#33 = VECTOR ( 'NONE', #218, 1000.000000000000000 ) ;
#34 = AXIS2_PLACEMENT_3D ( 'NONE', #321, #270, #351 ) ;
#35 = DIRECTION ( 'NONE',  ( -0.000000000000000000, -0.000000000000000000, -1.000000000000000000 ) ) ;
#36 = FACE_OUTER_BOUND ( 'NONE', #352, .T. ) ;
#37 = AXIS2_PLACEMENT_3D ( 'NONE', #365, #364, #276 ) ;
#38 = CIRCLE ( 'NONE', #378, 5.000000000000000000 ) ;
#39 = AXIS2_PLACEMENT_3D ( 'NONE', #137, #138, #211 ) ;
#40 = CARTESIAN_POINT ( 'NONE',  ( 0.000000000000000000, 0.000000000000000000, 12.00000000000000000 ) ) ;
#41 = EDGE_CURVE ( 'NONE', #314, #219, #358, .T. ) ;
#42 = PERSON ( 'UNSPECIFIED', 'UNSPECIFIED', 'UNSPECIFIED', ('UNSPECIFIED'), ('UNSPECIFIED'), ('UNSPECIFIED') ) ;
#43 = LINE ( 'NONE', #113, #33 ) ;
#44 = CC_DESIGN_DATE_AND_TIME_ASSIGNMENT ( #404, #290, ( #280 ) ) ;
#45 = CYLINDRICAL_SURFACE ( 'NONE', #311, 8.000000000000000000 ) ;
#46 = ORIENTED_EDGE ( 'NONE', *, *, #283, .F. ) ;
#47 = FACE_OUTER_BOUND ( 'NONE', #19, .T. ) ;
#48 = VERTEX_POINT ( 'NONE', #405 ) ;
#49 = DIRECTION ( 'NONE',  ( -1.000000000000000000, 0.000000000000000000, 0.000000000000000000 ) ) ;
#50 = ORIENTED_EDGE ( 'NONE', *, *, #388, .T. ) ;
#51 = VECTOR ( 'NONE', #407, 1000.000000000000000 ) ;
#52 = APPROVAL_DATE_TIME ( #60, #402 ) ;
#53 = CC_DESIGN_APPROVAL ( #212, ( #70 ) ) ;
#54 = AXIS2_PLACEMENT_3D ( 'NONE', #206, #361, #272 ) ;
#55 = ORIENTED_EDGE ( 'NONE', *, *, #187, .T. ) ;
#56 = DATE_AND_TIME ( #348, #160 ) ;
#57 = ORIENTED_EDGE ( 'NONE', *, *, #285, .T. ) ;
#58 = APPROVAL_STATUS ( 'not_yet_approved' ) ;
#59 = DIRECTION ( 'NONE',  ( -1.000000000000000000, 0.000000000000000000, 0.000000000000000000 ) ) ;
#60 = DATE_AND_TIME ( #130, #169 ) ;
#61 = ORIENTED_EDGE ( 'NONE', *, *, #259, .T. ) ;
#62 = DIRECTION ( 'NONE',  ( -0.000000000000000000, -0.000000000000000000, -1.000000000000000000 ) ) ;
#63 = PRODUCT_RELATED_PRODUCT_CATEGORY ( 'detail', '', ( #24 ) ) ;
#64 = VERTEX_POINT ( 'NONE', #126 ) ;
#65 = MANIFOLD_SOLID_BREP ( 'Cut-Revolve1', #247 ) ;
#66 = EDGE_CURVE ( 'NONE', #309, #161, #307, .T. ) ;
#67 = CARTESIAN_POINT ( 'NONE',  ( 8.000000000000000000, 9.797174393178825657E-16, 0.000000000000000000 ) ) ;
#68 = APPROVAL_PERSON_ORGANIZATION ( #124, #21, #92 ) ;
#69 = CIRCLE ( 'NONE', #360, 8.000000000000000000 ) ;
#70 = PRODUCT_DEFINITION ( 'UNKNOWN', '', #301, #245 ) ;
#71 = CARTESIAN_POINT ( 'NONE',  ( 0.000000000000000000, 0.000000000000000000, 12.00000000000000000 ) ) ;
#72 = FACE_OUTER_BOUND ( 'NONE', #203, .T. ) ;
#73 = CARTESIAN_POINT ( 'NONE',  ( -6.999999999999999112, 0.000000000000000000, -2.730196635283224094 ) ) ;
#74 = EDGE_CURVE ( 'NONE', #192, #339, #133, .T. ) ;
#75 = AXIS2_PLACEMENT_3D ( 'NONE', #93, #28, #102 ) ;
#76 = CARTESIAN_POINT ( 'NONE',  ( -6.999999999999999112, 0.000000000000000000, 9.000000000000001776 ) ) ;
#77 = CC_DESIGN_PERSON_AND_ORGANIZATION_ASSIGNMENT ( #97, #294, ( #301 ) ) ;
#78 = CARTESIAN_POINT ( 'NONE',  ( -8.000000000000000000, 0.000000000000000000, 12.00000000000000000 ) ) ;
#79 = ORIENTED_EDGE ( 'NONE', *, *, #388, .F. ) ;
#80 = ADVANCED_BREP_SHAPE_REPRESENTATION ( 'Pulley16mm_Default_sldprt', ( #65, #34 ), #229 ) ;
#81 = CARTESIAN_POINT ( 'NONE',  ( -8.000000000000000000, 0.000000000000000000, 9.000000000000001776 ) ) ;
#82 = EDGE_LOOP ( 'NONE', ( #289, #50, #121, #89 ) ) ;
#83 = EDGE_CURVE ( 'NONE', #322, #48, #189, .T. ) ;
#84 = DIRECTION ( 'NONE',  ( 0.000000000000000000, 0.000000000000000000, 1.000000000000000000 ) ) ;
#85 = ORIENTED_EDGE ( 'NONE', *, *, #296, .F. ) ;
#86 = CARTESIAN_POINT ( 'NONE',  ( 0.000000000000000000, 0.000000000000000000, -2.730196635283224094 ) ) ;
#87 = EDGE_LOOP ( 'NONE', ( #386, #401 ) ) ;
#88 = LINE ( 'NONE', #336, #106 ) ;
#89 = ORIENTED_EDGE ( 'NONE', *, *, #317, .T. ) ;
#90 = ADVANCED_FACE ( 'NONE', ( #199, #324 ), #408, .F. ) ;
#91 = AXIS2_PLACEMENT_3D ( 'NONE', #40, #173, #389 ) ;
#92 = APPROVAL_ROLE ( '' ) ;
#93 = CARTESIAN_POINT ( 'NONE',  ( 0.000000000000000000, 0.000000000000000000, 12.00000000000000000 ) ) ;
#94 = COORDINATED_UNIVERSAL_TIME_OFFSET ( 3, 30, .AHEAD. ) ;
#95 = EDGE_LOOP ( 'NONE', ( #184, #135 ) ) ;
#96 = EDGE_CURVE ( 'NONE', #64, #287, #174, .T. ) ;
#97 = PERSON_AND_ORGANIZATION ( #42, #147 ) ;
#98 = CARTESIAN_POINT ( 'NONE',  ( 0.000000000000000000, 0.000000000000000000, 3.000000000000000000 ) ) ;
#99 = DATE_TIME_ROLE ( 'creation_date' ) ;
#100 = FACE_OUTER_BOUND ( 'NONE', #293, .T. ) ;
#101 = AXIS2_PLACEMENT_3D ( 'NONE', #178, #122, #375 ) ;
#102 = DIRECTION ( 'NONE',  ( 1.000000000000000000, 0.000000000000000000, 0.000000000000000000 ) ) ;
#103 = AXIS2_PLACEMENT_3D ( 'NONE', #399, #118, #341 ) ;
#104 = LINE ( 'NONE', #332, #215 ) ;
#105 = AXIS2_PLACEMENT_3D ( 'NONE', #25, #131, #357 ) ;
#106 = VECTOR ( 'NONE', #288, 1000.000000000000000 ) ;
#107 = APPROVAL_PERSON_ORGANIZATION ( #406, #212, #155 ) ;
#108 = LINE ( 'NONE', #73, #208 ) ;
#109 = ADVANCED_FACE ( 'NONE', ( #214 ), #176, .T. ) ;
#110 = PLANE ( 'NONE',  #235 ) ;
#111 = DIRECTION ( 'NONE',  ( 1.000000000000000000, 0.000000000000000000, 0.000000000000000000 ) ) ;
#112 = APPROVAL_PERSON_ORGANIZATION ( #1, #402, #198 ) ;
#113 = CARTESIAN_POINT ( 'NONE',  ( -5.000000000000000000, 0.000000000000000000, 12.00000000000000000 ) ) ;
#114 = VERTEX_POINT ( 'NONE', #8 ) ;
#115 = ADVANCED_FACE ( 'NONE', ( #36 ), #363, .F. ) ;
#116 = CARTESIAN_POINT ( 'NONE',  ( 0.000000000000000000, 0.000000000000000000, 12.00000000000000000 ) ) ;
#117 = ORIENTED_EDGE ( 'NONE', *, *, #283, .T. ) ;
#118 = DIRECTION ( 'NONE',  ( -0.000000000000000000, -0.000000000000000000, -1.000000000000000000 ) ) ;
#119 = ORIENTED_EDGE ( 'NONE', *, *, #66, .F. ) ;
#120 = AXIS2_PLACEMENT_3D ( 'NONE', #271, #23, #59 ) ;
#121 = ORIENTED_EDGE ( 'NONE', *, *, #74, .T. ) ;
#122 = DIRECTION ( 'NONE',  ( -0.000000000000000000, -0.000000000000000000, -1.000000000000000000 ) ) ;
#123 = ORIENTED_EDGE ( 'NONE', *, *, #29, .F. ) ;
#124 = PERSON_AND_ORGANIZATION ( #42, #147 ) ;
#125 = ADVANCED_FACE ( 'NONE', ( #239 ), #241, .T. ) ;
#126 = CARTESIAN_POINT ( 'NONE',  ( -7.000000000000000000, 0.000000000000000000, 3.000000000000000000 ) ) ;
#127 = PRODUCT_DEFINITION_SHAPE ( 'NONE', 'NONE',  #70 ) ;
#128 = SHAPE_DEFINITION_REPRESENTATION ( #127, #80 ) ;
#129 = DIRECTION ( 'NONE',  ( 0.000000000000000000, 0.000000000000000000, 1.000000000000000000 ) ) ;
#130 = CALENDAR_DATE ( 2026, 23, 7 ) ;
#131 = DIRECTION ( 'NONE',  ( 0.000000000000000000, 0.000000000000000000, 1.000000000000000000 ) ) ;
#132 = APPLICATION_PROTOCOL_DEFINITION ( 'international standard', 'config_control_design', 1994, #261 ) ;
#133 = LINE ( 'NONE', #231, #32 ) ;
#134 = CIRCLE ( 'NONE', #277, 5.000000000000000000 ) ;
#135 = ORIENTED_EDGE ( 'NONE', *, *, #197, .T. ) ;
#136 = PLANE ( 'NONE',  #39 ) ;
#137 = CARTESIAN_POINT ( 'NONE',  ( 0.000000000000000000, 0.000000000000000000, 12.00000000000000000 ) ) ;
#138 = DIRECTION ( 'NONE',  ( 0.000000000000000000, 0.000000000000000000, 1.000000000000000000 ) ) ;
#139 = FACE_OUTER_BOUND ( 'NONE', #398, .T. ) ;
#140 = EDGE_CURVE ( 'NONE', #161, #309, #134, .T. ) ;
#141 = DIRECTION ( 'NONE',  ( -1.000000000000000000, 0.000000000000000000, 0.000000000000000000 ) ) ;
#142 = ADVANCED_FACE ( 'NONE', ( #72 ), #394, .T. ) ;
#143 = CARTESIAN_POINT ( 'NONE',  ( 0.000000000000000000, 0.000000000000000000, 9.000000000000001776 ) ) ;
#144 = CIRCLE ( 'NONE', #120, 8.000000000000000000 ) ;
#145 = DIRECTION ( 'NONE',  ( -1.000000000000000000, 0.000000000000000000, 0.000000000000000000 ) ) ;
#146 = ORIENTED_EDGE ( 'NONE', *, *, #317, .F. ) ;
#147 = ORGANIZATION ( 'UNSPECIFIED', 'UNSPECIFIED', '' ) ;
#148 = FACE_OUTER_BOUND ( 'NONE', #354, .T. ) ;
#149 = VERTEX_POINT ( 'NONE', #387 ) ;
#150 = DIRECTION ( 'NONE',  ( -0.000000000000000000, -0.000000000000000000, -1.000000000000000000 ) ) ;
#151 = VERTEX_POINT ( 'NONE', #76 ) ;
#152 = ADVANCED_FACE ( 'NONE', ( #139 ), #171, .F. ) ;
#153 = DIRECTION ( 'NONE',  ( -0.000000000000000000, -0.000000000000000000, -1.000000000000000000 ) ) ;
#154 = EDGE_LOOP ( 'NONE', ( #376, #380 ) ) ;
#155 = APPROVAL_ROLE ( '' ) ;
#156 = ORIENTED_EDGE ( 'NONE', *, *, #346, .T. ) ;
#157 = EDGE_CURVE ( 'NONE', #165, #219, #228, .T. ) ;
#158 = VERTEX_POINT ( 'NONE', #67 ) ;
#159 = PERSON_AND_ORGANIZATION_ROLE ( 'creator' ) ;
#160 = LOCAL_TIME ( 16, 5, 15.00000000000000000, #230 ) ;
#161 = VERTEX_POINT ( 'NONE', #303 ) ;
#162 = AXIS2_PLACEMENT_3D ( 'NONE', #370, #286, #183 ) ;
#163 = ORIENTED_EDGE ( 'NONE', *, *, #177, .T. ) ;
#164 = APPLICATION_PROTOCOL_DEFINITION ( 'international standard', 'config_control_design', 1994, #5 ) ;
#165 = VERTEX_POINT ( 'NONE', #6 ) ;
#166 = EDGE_CURVE ( 'NONE', #151, #64, #108, .T. ) ;
#167 = DIRECTION ( 'NONE',  ( -1.000000000000000000, 0.000000000000000000, 0.000000000000000000 ) ) ;
#168 = VECTOR ( 'NONE', #153, 1000.000000000000000 ) ;
#169 = LOCAL_TIME ( 16, 5, 15.00000000000000000, #353 ) ;
#170 = CIRCLE ( 'NONE', #362, 8.000000000000000000 ) ;
#171 = CYLINDRICAL_SURFACE ( 'NONE', #379, 5.000000000000000000 ) ;
#172 = CARTESIAN_POINT ( 'NONE',  ( 0.000000000000000000, 0.000000000000000000, 12.00000000000000000 ) ) ;
#173 = DIRECTION ( 'NONE',  ( -0.000000000000000000, -0.000000000000000000, -1.000000000000000000 ) ) ;
#174 = CIRCLE ( 'NONE', #227, 7.000000000000000000 ) ;
#175 = AXIS2_PLACEMENT_3D ( 'NONE', #333, #35, #243 ) ;
#176 = CYLINDRICAL_SURFACE ( 'NONE', #37, 8.000000000000000000 ) ;
#177 = EDGE_CURVE ( 'NONE', #158, #339, #69, .T. ) ;
#178 = CARTESIAN_POINT ( 'NONE',  ( 0.000000000000000000, 0.000000000000000000, 3.000000000000000000 ) ) ;
#179 = DIRECTION ( 'NONE',  ( 1.000000000000000000, 0.000000000000000000, 0.000000000000000000 ) ) ;
#180 = ORIENTED_EDGE ( 'NONE', *, *, #140, .T. ) ;
#181 = AXIS2_PLACEMENT_3D ( 'NONE', #349, #129, #196 ) ;
#182 = CIRCLE ( 'NONE', #316, 8.000000000000000000 ) ;
#183 = DIRECTION ( 'NONE',  ( -1.000000000000000000, 0.000000000000000000, 0.000000000000000000 ) ) ;
#184 = ORIENTED_EDGE ( 'NONE', *, *, #96, .T. ) ;
#185 = DIRECTION ( 'NONE',  ( 0.000000000000000000, 0.000000000000000000, 1.000000000000000000 ) ) ;
#186 = ORIENTED_EDGE ( 'NONE', *, *, #177, .F. ) ;
#187 = EDGE_CURVE ( 'NONE', #263, #158, #104, .T. ) ;
#188 = CARTESIAN_POINT ( 'NONE',  ( 0.000000000000000000, 0.000000000000000000, 0.000000000000000000 ) ) ;
#189 = CIRCLE ( 'NONE', #181, 5.000000000000000000 ) ;
#190 = CIRCLE ( 'NONE', #3, 6.999999999999999112 ) ;
#191 = CALENDAR_DATE ( 2026, 23, 7 ) ;
#192 = VERTEX_POINT ( 'NONE', #304 ) ;
#193 = CC_DESIGN_APPROVAL ( #21, ( #280 ) ) ;
#194 = ADVANCED_FACE ( 'NONE', ( #246, #4 ), #136, .T. ) ;
#195 = DATE_AND_TIME ( #381, #355 ) ;
#196 = DIRECTION ( 'NONE',  ( 1.000000000000000000, 0.000000000000000000, 0.000000000000000000 ) ) ;
#197 = EDGE_CURVE ( 'NONE', #287, #64, #356, .T. ) ;
#198 = APPROVAL_ROLE ( '' ) ;
#199 = FACE_BOUND ( 'NONE', #154, .T. ) ;
#200 = PERSON_AND_ORGANIZATION ( #42, #147 ) ;
#201 = EDGE_LOOP ( 'NONE', ( #85, #57, #265, #12 ) ) ;
#202 = PERSON_AND_ORGANIZATION ( #42, #147 ) ;
#203 = EDGE_LOOP ( 'NONE', ( #205, #55, #163, #295 ) ) ;
#204 = ADVANCED_FACE ( 'NONE', ( #334, #392 ), #110, .F. ) ;
#205 = ORIENTED_EDGE ( 'NONE', *, *, #220, .T. ) ;
#206 = CARTESIAN_POINT ( 'NONE',  ( 0.000000000000000000, 0.000000000000000000, 12.00000000000000000 ) ) ;
#207 = CIRCLE ( 'NONE', #101, 8.000000000000000000 ) ;
#208 = VECTOR ( 'NONE', #302, 1000.000000000000000 ) ;
#209 = EDGE_CURVE ( 'NONE', #48, #322, #38, .T. ) ;
#210 = CC_DESIGN_SECURITY_CLASSIFICATION ( #280, ( #301 ) ) ;
#211 = DIRECTION ( 'NONE',  ( 1.000000000000000000, 0.000000000000000000, -0.000000000000000000 ) ) ;
#212 = APPROVAL ( #58, 'UNSPECIFIED' ) ;
#213 = CARTESIAN_POINT ( 'NONE',  ( 0.000000000000000000, 0.000000000000000000, 0.000000000000000000 ) ) ;
#214 = FACE_OUTER_BOUND ( 'NONE', #331, .T. ) ;
#215 = VECTOR ( 'NONE', #7, 1000.000000000000000 ) ;
#216 = DIRECTION ( 'NONE',  ( 1.000000000000000000, 0.000000000000000000, 0.000000000000000000 ) ) ;
#217 = CARTESIAN_POINT ( 'NONE',  ( 0.000000000000000000, 0.000000000000000000, 0.000000000000000000 ) ) ;
#218 = DIRECTION ( 'NONE',  ( -0.000000000000000000, -0.000000000000000000, -1.000000000000000000 ) ) ;
#219 = VERTEX_POINT ( 'NONE', #81 ) ;
#220 = EDGE_CURVE ( 'NONE', #192, #263, #207, .T. ) ;
#221 = CYLINDRICAL_SURFACE ( 'NONE', #257, 6.999999999999999112 ) ;
#222 = ORIENTED_EDGE ( 'NONE', *, *, #209, .F. ) ;
#223 = FACE_OUTER_BOUND ( 'NONE', #201, .T. ) ;
#224 = CC_DESIGN_PERSON_AND_ORGANIZATION_ASSIGNMENT ( #200, #318, ( #280 ) ) ;
#225 = MECHANICAL_CONTEXT ( 'NONE', #261, 'mechanical' ) ;
#226 = ORIENTED_EDGE ( 'NONE', *, *, #83, .F. ) ;
#227 = AXIS2_PLACEMENT_3D ( 'NONE', #98, #62, #273 ) ;
#228 = CIRCLE ( 'NONE', #281, 8.000000000000000000 ) ;
#229 =( GEOMETRIC_REPRESENTATION_CONTEXT ( 3 ) GLOBAL_UNCERTAINTY_ASSIGNED_CONTEXT ( ( #30 ) ) GLOBAL_UNIT_ASSIGNED_CONTEXT ( ( #344, #18, #232 ) ) REPRESENTATION_CONTEXT ( 'NONE', 'WORKASPACE' ) );
#230 = COORDINATED_UNIVERSAL_TIME_OFFSET ( 3, 30, .AHEAD. ) ;
#231 = CARTESIAN_POINT ( 'NONE',  ( -8.000000000000000000, 0.000000000000000000, 12.00000000000000000 ) ) ;
#232 =( NAMED_UNIT ( * ) SI_UNIT ( $, .STERADIAN. ) SOLID_ANGLE_UNIT ( ) );
#233 = ORIENTED_EDGE ( 'NONE', *, *, #29, .T. ) ;
#234 = ORIENTED_EDGE ( 'NONE', *, *, #157, .F. ) ;
#235 = AXIS2_PLACEMENT_3D ( 'NONE', #10, #306, #373 ) ;
#236 = DIRECTION ( 'NONE',  ( -0.000000000000000000, -0.000000000000000000, -1.000000000000000000 ) ) ;
#237 = AXIS2_PLACEMENT_3D ( 'NONE', #217, #84, #256 ) ;
#238 = FACE_BOUND ( 'NONE', #95, .T. ) ;
#239 = FACE_OUTER_BOUND ( 'NONE', #82, .T. ) ;
#240 = EDGE_CURVE ( 'NONE', #161, #322, #88, .T. ) ;
#241 = CYLINDRICAL_SURFACE ( 'NONE', #300, 8.000000000000000000 ) ;
#242 = CIRCLE ( 'NONE', #162, 8.000000000000000000 ) ;
#243 = DIRECTION ( 'NONE',  ( -1.000000000000000000, 0.000000000000000000, 0.000000000000000000 ) ) ;
#244 = DIRECTION ( 'NONE',  ( -1.000000000000000000, 0.000000000000000000, 0.000000000000000000 ) ) ;
#245 = DESIGN_CONTEXT ( 'detailed design', #5, 'design' ) ;
#246 = FACE_OUTER_BOUND ( 'NONE', #17, .T. ) ;
#247 = CLOSED_SHELL ( 'NONE', ( #393, #115, #142, #330, #109, #194, #204, #125, #152, #90, #372, #15 ) ) ;
#248 = CARTESIAN_POINT ( 'NONE',  ( 6.999999999999999112, 8.572527594031472204E-16, -2.730196635283224094 ) ) ;
#249 = CIRCLE ( 'NONE', #342, 6.999999999999999112 ) ;
#250 = ORIENTED_EDGE ( 'NONE', *, *, #166, .F. ) ;
#251 = DIRECTION ( 'NONE',  ( 0.000000000000000000, 0.000000000000000000, 1.000000000000000000 ) ) ;
#252 = ORIENTED_EDGE ( 'NONE', *, *, #157, .T. ) ;
#253 = CARTESIAN_POINT ( 'NONE',  ( 5.000000000000000000, 6.123233995736766282E-16, 0.000000000000000000 ) ) ;
#254 = VECTOR ( 'NONE', #377, 1000.000000000000000 ) ;
#255 = CC_DESIGN_PERSON_AND_ORGANIZATION_ASSIGNMENT ( #292, #266, ( #24 ) ) ;
#256 = DIRECTION ( 'NONE',  ( 1.000000000000000000, 0.000000000000000000, 0.000000000000000000 ) ) ;
#257 = AXIS2_PLACEMENT_3D ( 'NONE', #86, #150, #49 ) ;
#258 = CARTESIAN_POINT ( 'NONE',  ( 8.000000000000000000, 9.797174393178825657E-16, 3.000000000000000000 ) ) ;
#259 = EDGE_CURVE ( 'NONE', #114, #314, #182, .T. ) ;
#260 = ORIENTED_EDGE ( 'NONE', *, *, #296, .T. ) ;
#261 = APPLICATION_CONTEXT ( 'configuration controlled 3d designs of mechanical parts and assemblies' ) ;
#262 = APPROVAL_STATUS ( 'not_yet_approved' ) ;
#263 = VERTEX_POINT ( 'NONE', #258 ) ;
#264 = LOCAL_TIME ( 16, 5, 15.00000000000000000, #326 ) ;
#265 = ORIENTED_EDGE ( 'NONE', *, *, #166, .T. ) ;
#266 = PERSON_AND_ORGANIZATION_ROLE ( 'design_owner' ) ;
#267 = CARTESIAN_POINT ( 'NONE',  ( 8.000000000000000000, 9.797174393178825657E-16, 12.00000000000000000 ) ) ;
#268 = COORDINATED_UNIVERSAL_TIME_OFFSET ( 3, 30, .AHEAD. ) ;
#269 = DIRECTION ( 'NONE',  ( -0.000000000000000000, 0.000000000000000000, -1.000000000000000000 ) ) ;
#270 = DIRECTION ( 'NONE',  ( 0.000000000000000000, 0.000000000000000000, 1.000000000000000000 ) ) ;
#271 = CARTESIAN_POINT ( 'NONE',  ( 0.000000000000000000, 0.000000000000000000, 9.000000000000001776 ) ) ;
#272 = DIRECTION ( 'NONE',  ( -1.000000000000000000, 0.000000000000000000, 0.000000000000000000 ) ) ;
#273 = DIRECTION ( 'NONE',  ( -1.000000000000000000, 0.000000000000000000, 0.000000000000000000 ) ) ;
#274 = DIRECTION ( 'NONE',  ( -0.000000000000000000, -0.000000000000000000, -1.000000000000000000 ) ) ;
#275 = CARTESIAN_POINT ( 'NONE',  ( 0.000000000000000000, 0.000000000000000000, 9.000000000000001776 ) ) ;
#276 = DIRECTION ( 'NONE',  ( -1.000000000000000000, 0.000000000000000000, 0.000000000000000000 ) ) ;
#277 = AXIS2_PLACEMENT_3D ( 'NONE', #390, #305, #216 ) ;
#278 = CC_DESIGN_PERSON_AND_ORGANIZATION_ASSIGNMENT ( #328, #159, ( #301 ) ) ;
#279 = DIRECTION ( 'NONE',  ( 1.000000000000000000, 0.000000000000000000, 0.000000000000000000 ) ) ;
#280 = SECURITY_CLASSIFICATION ( '', '', #298 ) ;
#281 = AXIS2_PLACEMENT_3D ( 'NONE', #275, #31, #167 ) ;
#282 = CARTESIAN_POINT ( 'NONE',  ( 0.000000000000000000, 0.000000000000000000, 9.000000000000001776 ) ) ;
#283 = EDGE_CURVE ( 'NONE', #309, #48, #43, .T. ) ;
#284 = CYLINDRICAL_SURFACE ( 'NONE', #103, 6.999999999999999112 ) ;
#285 = EDGE_CURVE ( 'NONE', #149, #151, #190, .T. ) ;
#286 = DIRECTION ( 'NONE',  ( -0.000000000000000000, -0.000000000000000000, -1.000000000000000000 ) ) ;
#287 = VERTEX_POINT ( 'NONE', #313 ) ;
#288 = DIRECTION ( 'NONE',  ( -0.000000000000000000, -0.000000000000000000, -1.000000000000000000 ) ) ;
#289 = ORIENTED_EDGE ( 'NONE', *, *, #187, .F. ) ;
#290 = DATE_TIME_ROLE ( 'classification_date' ) ;
#291 = CARTESIAN_POINT ( 'NONE',  ( -8.000000000000000000, 0.000000000000000000, 3.000000000000000000 ) ) ;
#292 = PERSON_AND_ORGANIZATION ( #42, #147 ) ;
#293 = EDGE_LOOP ( 'NONE', ( #382, #79 ) ) ;
#294 = PERSON_AND_ORGANIZATION_ROLE ( 'design_supplier' ) ;
#295 = ORIENTED_EDGE ( 'NONE', *, *, #74, .F. ) ;
#296 = EDGE_CURVE ( 'NONE', #149, #287, #396, .T. ) ;
#297 = PLANE ( 'NONE',  #325 ) ;
#298 = SECURITY_CLASSIFICATION_LEVEL ( 'unclassified' ) ;
#299 = ORIENTED_EDGE ( 'NONE', *, *, #140, .F. ) ;
#300 = AXIS2_PLACEMENT_3D ( 'NONE', #172, #274, #141 ) ;
#301 = PRODUCT_DEFINITION_FORMATION_WITH_SPECIFIED_SOURCE ( 'ANY', '', #24, .NOT_KNOWN. ) ;
#302 = DIRECTION ( 'NONE',  ( -0.000000000000000000, -0.000000000000000000, -1.000000000000000000 ) ) ;
#303 = CARTESIAN_POINT ( 'NONE',  ( 5.000000000000000000, 6.123233995736766282E-16, 12.00000000000000000 ) ) ;
#304 = CARTESIAN_POINT ( 'NONE',  ( -8.000000000000000000, 0.000000000000000000, 3.000000000000000000 ) ) ;
#305 = DIRECTION ( 'NONE',  ( 0.000000000000000000, 0.000000000000000000, 1.000000000000000000 ) ) ;
#306 = DIRECTION ( 'NONE',  ( 0.000000000000000000, 0.000000000000000000, 1.000000000000000000 ) ) ;
#307 = CIRCLE ( 'NONE', #75, 5.000000000000000000 ) ;
#308 = CARTESIAN_POINT ( 'NONE',  ( 0.000000000000000000, 0.000000000000000000, 12.00000000000000000 ) ) ;
#309 = VERTEX_POINT ( 'NONE', #13 ) ;
#310 = CARTESIAN_POINT ( 'NONE',  ( -8.000000000000000000, 0.000000000000000000, 0.000000000000000000 ) ) ;
#311 = AXIS2_PLACEMENT_3D ( 'NONE', #308, #11, #145 ) ;
#312 = ORIENTED_EDGE ( 'NONE', *, *, #350, .T. ) ;
#313 = CARTESIAN_POINT ( 'NONE',  ( 7.000000000000000888, 8.572527594031474176E-16, 3.000000000000000000 ) ) ;
#314 = VERTEX_POINT ( 'NONE', #78 ) ;
#315 = ORIENTED_EDGE ( 'NONE', *, *, #240, .T. ) ;
#316 = AXIS2_PLACEMENT_3D ( 'NONE', #338, #367, #279 ) ;
#317 = EDGE_CURVE ( 'NONE', #339, #158, #366, .T. ) ;
#318 = PERSON_AND_ORGANIZATION_ROLE ( 'classification_officer' ) ;
#319 = ORIENTED_EDGE ( 'NONE', *, *, #41, .F. ) ;
#320 = CC_DESIGN_PERSON_AND_ORGANIZATION_ASSIGNMENT ( #202, #323, ( #70 ) ) ;
#321 = CARTESIAN_POINT ( 'NONE',  ( 0.000000000000000000, 0.000000000000000000, 0.000000000000000000 ) ) ;
#322 = VERTEX_POINT ( 'NONE', #253 ) ;
#323 = PERSON_AND_ORGANIZATION_ROLE ( 'creator' ) ;
#324 = FACE_OUTER_BOUND ( 'NONE', #369, .T. ) ;
#325 = AXIS2_PLACEMENT_3D ( 'NONE', #291, #269, #2 ) ;
#326 = COORDINATED_UNIVERSAL_TIME_OFFSET ( 3, 30, .AHEAD. ) ;
#327 = ORIENTED_EDGE ( 'NONE', *, *, #41, .T. ) ;
#328 = PERSON_AND_ORGANIZATION ( #42, #147 ) ;
#329 = EDGE_LOOP ( 'NONE', ( #146, #186 ) ) ;
#330 = ADVANCED_FACE ( 'NONE', ( #47 ), #45, .T. ) ;
#331 = EDGE_LOOP ( 'NONE', ( #123, #14, #327, #234 ) ) ;
#332 = CARTESIAN_POINT ( 'NONE',  ( 8.000000000000000000, 9.797174393178825657E-16, 12.00000000000000000 ) ) ;
#333 = CARTESIAN_POINT ( 'NONE',  ( 0.000000000000000000, 0.000000000000000000, 3.000000000000000000 ) ) ;
#334 = FACE_OUTER_BOUND ( 'NONE', #329, .T. ) ;
#335 = DIRECTION ( 'NONE',  ( 0.000000000000000000, 0.000000000000000000, 1.000000000000000000 ) ) ;
#336 = CARTESIAN_POINT ( 'NONE',  ( 5.000000000000000000, 6.123233995736766282E-16, 12.00000000000000000 ) ) ;
#337 = DIRECTION ( 'NONE',  ( -1.000000000000000000, 0.000000000000000000, 0.000000000000000000 ) ) ;
#338 = CARTESIAN_POINT ( 'NONE',  ( 0.000000000000000000, 0.000000000000000000, 12.00000000000000000 ) ) ;
#339 = VERTEX_POINT ( 'NONE', #310 ) ;
#340 = LOCAL_TIME ( 16, 5, 15.00000000000000000, #268 ) ;
#341 = DIRECTION ( 'NONE',  ( -1.000000000000000000, 0.000000000000000000, 0.000000000000000000 ) ) ;
#342 = AXIS2_PLACEMENT_3D ( 'NONE', #282, #16, #397 ) ;
#343 = EDGE_LOOP ( 'NONE', ( #119, #299 ) ) ;
#344 =( LENGTH_UNIT ( ) NAMED_UNIT ( * ) SI_UNIT ( .MILLI., .METRE. ) );
#345 = ORIENTED_EDGE ( 'NONE', *, *, #9, .F. ) ;
#346 = EDGE_CURVE ( 'NONE', #151, #149, #249, .T. ) ;
#347 = ORIENTED_EDGE ( 'NONE', *, *, #240, .F. ) ;
#348 = CALENDAR_DATE ( 2026, 23, 7 ) ;
#349 = CARTESIAN_POINT ( 'NONE',  ( 0.000000000000000000, 0.000000000000000000, 0.000000000000000000 ) ) ;
#350 = EDGE_CURVE ( 'NONE', #314, #114, #170, .T. ) ;
#351 = DIRECTION ( 'NONE',  ( 1.000000000000000000, 0.000000000000000000, 0.000000000000000000 ) ) ;
#352 = EDGE_LOOP ( 'NONE', ( #400, #315, #222, #46 ) ) ;
#353 = COORDINATED_UNIVERSAL_TIME_OFFSET ( 3, 30, .AHEAD. ) ;
#354 = EDGE_LOOP ( 'NONE', ( #156, #260, #371, #250 ) ) ;
#355 = LOCAL_TIME ( 16, 5, 15.00000000000000000, #94 ) ;
#356 = CIRCLE ( 'NONE', #175, 7.000000000000000000 ) ;
#357 = DIRECTION ( 'NONE',  ( 1.000000000000000000, 0.000000000000000000, -0.000000000000000000 ) ) ;
#358 = LINE ( 'NONE', #409, #51 ) ;
#359 = DIRECTION ( 'NONE',  ( -0.000000000000000000, -0.000000000000000000, -1.000000000000000000 ) ) ;
#360 = AXIS2_PLACEMENT_3D ( 'NONE', #213, #335, #111 ) ;
#361 = DIRECTION ( 'NONE',  ( -0.000000000000000000, -0.000000000000000000, -1.000000000000000000 ) ) ;
#362 = AXIS2_PLACEMENT_3D ( 'NONE', #116, #251, #368 ) ;
#363 = CYLINDRICAL_SURFACE ( 'NONE', #91, 5.000000000000000000 ) ;
#364 = DIRECTION ( 'NONE',  ( -0.000000000000000000, -0.000000000000000000, -1.000000000000000000 ) ) ;
#365 = CARTESIAN_POINT ( 'NONE',  ( 0.000000000000000000, 0.000000000000000000, 12.00000000000000000 ) ) ;
#366 = CIRCLE ( 'NONE', #237, 8.000000000000000000 ) ;
#367 = DIRECTION ( 'NONE',  ( 0.000000000000000000, 0.000000000000000000, 1.000000000000000000 ) ) ;
#368 = DIRECTION ( 'NONE',  ( 1.000000000000000000, 0.000000000000000000, 0.000000000000000000 ) ) ;
#369 = EDGE_LOOP ( 'NONE', ( #384, #252 ) ) ;
#370 = CARTESIAN_POINT ( 'NONE',  ( 0.000000000000000000, 0.000000000000000000, 3.000000000000000000 ) ) ;
#371 = ORIENTED_EDGE ( 'NONE', *, *, #96, .F. ) ;
#372 = ADVANCED_FACE ( 'NONE', ( #223 ), #221, .T. ) ;
#373 = DIRECTION ( 'NONE',  ( 1.000000000000000000, 0.000000000000000000, -0.000000000000000000 ) ) ;
#374 = ORIENTED_EDGE ( 'NONE', *, *, #259, .F. ) ;
#375 = DIRECTION ( 'NONE',  ( -1.000000000000000000, 0.000000000000000000, 0.000000000000000000 ) ) ;
#376 = ORIENTED_EDGE ( 'NONE', *, *, #346, .F. ) ;
#377 = DIRECTION ( 'NONE',  ( -0.000000000000000000, -0.000000000000000000, -1.000000000000000000 ) ) ;
#378 = AXIS2_PLACEMENT_3D ( 'NONE', #188, #185, #179 ) ;
#379 = AXIS2_PLACEMENT_3D ( 'NONE', #71, #359, #244 ) ;
#380 = ORIENTED_EDGE ( 'NONE', *, *, #285, .F. ) ;
#381 = CALENDAR_DATE ( 2026, 23, 7 ) ;
#382 = ORIENTED_EDGE ( 'NONE', *, *, #220, .F. ) ;
#383 = APPROVAL_DATE_TIME ( #385, #212 ) ;
#384 = ORIENTED_EDGE ( 'NONE', *, *, #9, .T. ) ;
#385 = DATE_AND_TIME ( #191, #340 ) ;
#386 = ORIENTED_EDGE ( 'NONE', *, *, #209, .T. ) ;
#387 = CARTESIAN_POINT ( 'NONE',  ( 6.999999999999999112, 8.572527594031472204E-16, 9.000000000000001776 ) ) ;
#388 = EDGE_CURVE ( 'NONE', #263, #192, #242, .T. ) ;
#389 = DIRECTION ( 'NONE',  ( -1.000000000000000000, 0.000000000000000000, 0.000000000000000000 ) ) ;
#390 = CARTESIAN_POINT ( 'NONE',  ( 0.000000000000000000, 0.000000000000000000, 12.00000000000000000 ) ) ;
#391 = CC_DESIGN_DATE_AND_TIME_ASSIGNMENT ( #195, #99, ( #70 ) ) ;
#392 = FACE_BOUND ( 'NONE', #87, .T. ) ;
#393 = ADVANCED_FACE ( 'NONE', ( #148 ), #284, .T. ) ;
#394 = CYLINDRICAL_SURFACE ( 'NONE', #54, 8.000000000000000000 ) ;
#395 = CC_DESIGN_APPROVAL ( #402, ( #301 ) ) ;
#396 = LINE ( 'NONE', #248, #168 ) ;
#397 = DIRECTION ( 'NONE',  ( -1.000000000000000000, 0.000000000000000000, 0.000000000000000000 ) ) ;
#398 = EDGE_LOOP ( 'NONE', ( #347, #180, #117, #226 ) ) ;
#399 = CARTESIAN_POINT ( 'NONE',  ( 0.000000000000000000, 0.000000000000000000, -2.730196635283224094 ) ) ;
#400 = ORIENTED_EDGE ( 'NONE', *, *, #66, .T. ) ;
#401 = ORIENTED_EDGE ( 'NONE', *, *, #83, .T. ) ;
#402 = APPROVAL ( #27, 'UNSPECIFIED' ) ;
#403 = DIRECTION ( 'NONE',  ( -0.000000000000000000, -0.000000000000000000, -1.000000000000000000 ) ) ;
#404 = DATE_AND_TIME ( #20, #264 ) ;
#405 = CARTESIAN_POINT ( 'NONE',  ( -5.000000000000000000, 0.000000000000000000, 0.000000000000000000 ) ) ;
#406 = PERSON_AND_ORGANIZATION ( #42, #147 ) ;
#407 = DIRECTION ( 'NONE',  ( -0.000000000000000000, -0.000000000000000000, -1.000000000000000000 ) ) ;
#408 = PLANE ( 'NONE',  #105 ) ;
#409 = CARTESIAN_POINT ( 'NONE',  ( -8.000000000000000000, 0.000000000000000000, 12.00000000000000000 ) ) ;
ENDSEC;
END-ISO-10303-21;
