ISO-10303-21;
HEADER;
FILE_DESCRIPTION (( 'STEP AP203' ),
    '1' );
FILE_NAME ('Pulley70mm_Default_sldprt.STEP',
    '2026-07-31T10:19:14',
    ( '' ),
    ( '' ),
    'SwSTEP 2.0',
    'SolidWorks 2025',
    '' );
FILE_SCHEMA (( 'CONFIG_CONTROL_DESIGN' ));
ENDSEC;

DATA;
#1 = EDGE_LOOP ( 'NONE', ( #42, #396, #89, #362 ) ) ;
#2 = CARTESIAN_POINT ( 'NONE',  ( 0.000000000000000000, 12.00000000000000000, 0.000000000000000000 ) ) ;
#3 = DIRECTION ( 'NONE',  ( 0.000000000000000000, 0.000000000000000000, 1.000000000000000000 ) ) ;
#4 = DESIGN_CONTEXT ( 'detailed design', #337, 'design' ) ;
#5 =( LENGTH_UNIT ( ) NAMED_UNIT ( * ) SI_UNIT ( .MILLI., .METRE. ) );
#6 = EDGE_CURVE ( 'NONE', #150, #21, #281, .T. ) ;
#7 = LOCAL_TIME ( 13, 49, 14.00000000000000000, #99 ) ;
#8 = DATE_AND_TIME ( #67, #129 ) ;
#9 = PERSON_AND_ORGANIZATION ( #242, #49 ) ;
#10 = CALENDAR_DATE ( 2026, 31, 7 ) ;
#11 = VECTOR ( 'NONE', #51, 1000.000000000000000 ) ;
#12 = APPROVAL_STATUS ( 'not_yet_approved' ) ;
#13 = VERTEX_POINT ( 'NONE', #339 ) ;
#14 = EDGE_CURVE ( 'NONE', #180, #199, #186, .T. ) ;
#15 = CARTESIAN_POINT ( 'NONE',  ( 0.000000000000000000, 12.00000000000000000, -5.000000000000000000 ) ) ;
#16 = ORIENTED_EDGE ( 'NONE', *, *, #156, .T. ) ;
#17 = CARTESIAN_POINT ( 'NONE',  ( 0.000000000000000000, 9.000000000000001776, 0.000000000000000000 ) ) ;
#18 = CARTESIAN_POINT ( 'NONE',  ( 0.000000000000000000, 12.00000000000000000, -35.00000000000000000 ) ) ;
#19 = VECTOR ( 'NONE', #344, 1000.000000000000000 ) ;
#20 = CC_DESIGN_SECURITY_CLASSIFICATION ( #163, ( #365 ) ) ;
#21 = VERTEX_POINT ( 'NONE', #120 ) ;
#22 = FACE_BOUND ( 'NONE', #102, .T. ) ;
#23 = VERTEX_POINT ( 'NONE', #252 ) ;
#24 = CARTESIAN_POINT ( 'NONE',  ( 0.000000000000000000, 2.999999999999999112, 0.000000000000000000 ) ) ;
#25 = EDGE_LOOP ( 'NONE', ( #296, #323, #162, #139 ) ) ;
#26 = DIRECTION ( 'NONE',  ( 0.000000000000000000, 1.000000000000000000, 0.000000000000000000 ) ) ;
#27 = CARTESIAN_POINT ( 'NONE',  ( 0.000000000000000000, 0.000000000000000000, 0.000000000000000000 ) ) ;
#28 = CIRCLE ( 'NONE', #145, 33.12659406584553068 ) ;
#29 = DIRECTION ( 'NONE',  ( 0.000000000000000000, 0.000000000000000000, 1.000000000000000000 ) ) ;
#30 = MANIFOLD_SOLID_BREP ( 'Cut-Revolve1', #240 ) ;
#31 = LINE ( 'NONE', #308, #282 ) ;
#32 = LINE ( 'NONE', #216, #309 ) ;
#33 = ORIENTED_EDGE ( 'NONE', *, *, #65, .F. ) ;
#34 = CARTESIAN_POINT ( 'NONE',  ( 0.000000000000000000, 12.00000000000000000, 0.000000000000000000 ) ) ;
#35 = VECTOR ( 'NONE', #165, 1000.000000000000000 ) ;
#36 = CYLINDRICAL_SURFACE ( 'NONE', #239, 5.000000000000000000 ) ;
#37 = EDGE_CURVE ( 'NONE', #180, #171, #31, .T. ) ;
#38 = APPROVAL_STATUS ( 'not_yet_approved' ) ;
#39 = AXIS2_PLACEMENT_3D ( 'NONE', #52, #173, #205 ) ;
#40 = PERSON_AND_ORGANIZATION ( #242, #49 ) ;
#41 = SECURITY_CLASSIFICATION_LEVEL ( 'unclassified' ) ;
#42 = ORIENTED_EDGE ( 'NONE', *, *, #220, .F. ) ;
#43 = EDGE_CURVE ( 'NONE', #199, #113, #148, .T. ) ;
#44 = AXIS2_PLACEMENT_3D ( 'NONE', #254, #338, #376 ) ;
#45 = EDGE_LOOP ( 'NONE', ( #341, #86, #391, #201 ) ) ;
#46 = DIRECTION ( 'NONE',  ( 0.000000000000000000, 0.000000000000000000, -1.000000000000000000 ) ) ;
#47 = CYLINDRICAL_SURFACE ( 'NONE', #267, 33.12659406584553068 ) ;
#48 = LINE ( 'NONE', #361, #321 ) ;
#49 = ORGANIZATION ( 'UNSPECIFIED', 'UNSPECIFIED', '' ) ;
#50 = ORIENTED_EDGE ( 'NONE', *, *, #174, .F. ) ;
#51 = DIRECTION ( 'NONE',  ( -0.000000000000000000, -1.000000000000000000, -0.000000000000000000 ) ) ;
#52 = CARTESIAN_POINT ( 'NONE',  ( 0.000000000000000000, 12.00000000000000000, 0.000000000000000000 ) ) ;
#53 = FACE_OUTER_BOUND ( 'NONE', #1, .T. ) ;
#54 = EDGE_LOOP ( 'NONE', ( #234, #249, #16, #325 ) ) ;
#55 = CC_DESIGN_PERSON_AND_ORGANIZATION_ASSIGNMENT ( #96, #128, ( #365 ) ) ;
#56 = DIRECTION ( 'NONE',  ( -0.000000000000000000, 1.000000000000000000, 0.000000000000000000 ) ) ;
#57 = AXIS2_PLACEMENT_3D ( 'NONE', #271, #101, #204 ) ;
#58 = ORIENTED_EDGE ( 'NONE', *, *, #14, .F. ) ;
#59 = LOCAL_TIME ( 13, 49, 14.00000000000000000, #95 ) ;
#60 = DIRECTION ( 'NONE',  ( -0.000000000000000000, 1.000000000000000000, -0.000000000000000000 ) ) ;
#61 = EDGE_LOOP ( 'NONE', ( #364, #176 ) ) ;
#62 = CYLINDRICAL_SURFACE ( 'NONE', #111, 35.00000000000000000 ) ;
#63 = FACE_OUTER_BOUND ( 'NONE', #212, .T. ) ;
#64 = AXIS2_PLACEMENT_3D ( 'NONE', #279, #311, #402 ) ;
#65 = EDGE_CURVE ( 'NONE', #360, #13, #177, .T. ) ;
#66 = APPLICATION_PROTOCOL_DEFINITION ( 'international standard', 'config_control_design', 1994, #337 ) ;
#67 = CALENDAR_DATE ( 2026, 31, 7 ) ;
#68 = EDGE_CURVE ( 'NONE', #194, #388, #103, .T. ) ;
#69 = EDGE_LOOP ( 'NONE', ( #355, #372 ) ) ;
#70 = UNCERTAINTY_MEASURE_WITH_UNIT (LENGTH_MEASURE( 1.000000000000000082E-05 ), #5, 'distance_accuracy_value', 'NONE');
#71 = CARTESIAN_POINT ( 'NONE',  ( 0.000000000000000000, 12.00000000000000000, 0.000000000000000000 ) ) ;
#72 = ORIENTED_EDGE ( 'NONE', *, *, #287, .F. ) ;
#73 = DIRECTION ( 'NONE',  ( -0.000000000000000000, 1.000000000000000000, -0.000000000000000000 ) ) ;
#74 = APPROVAL ( #12, 'UNSPECIFIED' ) ;
#75 = DIRECTION ( 'NONE',  ( 0.000000000000000000, 0.000000000000000000, 1.000000000000000000 ) ) ;
#76 = ORIENTED_EDGE ( 'NONE', *, *, #348, .F. ) ;
#77 = AXIS2_PLACEMENT_3D ( 'NONE', #24, #392, #75 ) ;
#78 = CARTESIAN_POINT ( 'NONE',  ( 4.286263797015736496E-15, 12.00000000000000000, 35.00000000000000000 ) ) ;
#79 = AXIS2_PLACEMENT_3D ( 'NONE', #409, #26, #310 ) ;
#80 = CYLINDRICAL_SURFACE ( 'NONE', #168, 35.00000000000000000 ) ;
#81 = ORIENTED_EDGE ( 'NONE', *, *, #65, .T. ) ;
#82 = ADVANCED_FACE ( 'NONE', ( #370 ), #84, .T. ) ;
#83 = DIRECTION ( 'NONE',  ( 0.000000000000000000, 1.000000000000000000, 0.000000000000000000 ) ) ;
#84 = CYLINDRICAL_SURFACE ( 'NONE', #93, 35.00000000000000000 ) ;
#85 = DIRECTION ( 'NONE',  ( 0.000000000000000000, 0.000000000000000000, -1.000000000000000000 ) ) ;
#86 = ORIENTED_EDGE ( 'NONE', *, *, #135, .F. ) ;
#87 = AXIS2_PLACEMENT_3D ( 'NONE', #312, #253, #379 ) ;
#88 = FACE_OUTER_BOUND ( 'NONE', #245, .T. ) ;
#89 = ORIENTED_EDGE ( 'NONE', *, *, #161, .T. ) ;
#90 = DIRECTION ( 'NONE',  ( 0.000000000000000000, 0.000000000000000000, -1.000000000000000000 ) ) ;
#91 = CC_DESIGN_PERSON_AND_ORGANIZATION_ASSIGNMENT ( #256, #351, ( #366 ) ) ;
#92 = CARTESIAN_POINT ( 'NONE',  ( 0.000000000000000000, 0.000000000000000000, 0.000000000000000000 ) ) ;
#93 = AXIS2_PLACEMENT_3D ( 'NONE', #268, #395, #273 ) ;
#94 = EDGE_CURVE ( 'NONE', #368, #228, #241, .T. ) ;
#95 = COORDINATED_UNIVERSAL_TIME_OFFSET ( 3, 30, .AHEAD. ) ;
#96 = PERSON_AND_ORGANIZATION ( #242, #49 ) ;
#97 = VECTOR ( 'NONE', #367, 1000.000000000000000 ) ;
#98 = APPROVAL_DATE_TIME ( #193, #74 ) ;
#99 = COORDINATED_UNIVERSAL_TIME_OFFSET ( 3, 30, .AHEAD. ) ;
#100 = EDGE_LOOP ( 'NONE', ( #182, #109, #398, #50 ) ) ;
#101 = DIRECTION ( 'NONE',  ( 0.000000000000000000, -1.000000000000000000, 0.000000000000000000 ) ) ;
#102 = EDGE_LOOP ( 'NONE', ( #232, #76 ) ) ;
#103 = CIRCLE ( 'NONE', #401, 5.000000000000000000 ) ;
#104 = AXIS2_PLACEMENT_3D ( 'NONE', #289, #219, #286 ) ;
#105 = CARTESIAN_POINT ( 'NONE',  ( 0.000000000000000000, 0.000000000000000000, -35.00000000000000000 ) ) ;
#106 = CARTESIAN_POINT ( 'NONE',  ( 0.000000000000000000, 12.00000000000000000, 0.000000000000000000 ) ) ;
#107 = ORIENTED_EDGE ( 'NONE', *, *, #301, .F. ) ;
#108 = FACE_OUTER_BOUND ( 'NONE', #330, .T. ) ;
#109 = ORIENTED_EDGE ( 'NONE', *, *, #151, .T. ) ;
#110 = LINE ( 'NONE', #18, #35 ) ;
#111 = AXIS2_PLACEMENT_3D ( 'NONE', #183, #378, #90 ) ;
#112 = VECTOR ( 'NONE', #243, 1000.000000000000000 ) ;
#113 = VERTEX_POINT ( 'NONE', #236 ) ;
#114 = PRODUCT_DEFINITION_SHAPE ( 'NONE', 'NONE',  #195 ) ;
#115 = PLANE ( 'NONE',  #393 ) ;
#116 = VERTEX_POINT ( 'NONE', #132 ) ;
#117 = DIRECTION ( 'NONE',  ( 0.000000000000000000, -0.000000000000000000, 1.000000000000000000 ) ) ;
#118 = CARTESIAN_POINT ( 'NONE',  ( 4.056837738939143287E-15, 28.88506671125515979, -33.12659406584553068 ) ) ;
#119 = FACE_BOUND ( 'NONE', #69, .T. ) ;
#120 = CARTESIAN_POINT ( 'NONE',  ( 4.056837738939143287E-15, 9.000000000000001776, -33.12659406584553068 ) ) ;
#121 = AXIS2_PLACEMENT_3D ( 'NONE', #92, #124, #206 ) ;
#122 = CC_DESIGN_DATE_AND_TIME_ASSIGNMENT ( #255, #224, ( #163 ) ) ;
#123 = FACE_OUTER_BOUND ( 'NONE', #61, .T. ) ;
#124 = DIRECTION ( 'NONE',  ( 0.000000000000000000, 1.000000000000000000, 0.000000000000000000 ) ) ;
#125 = PERSON_AND_ORGANIZATION ( #242, #49 ) ;
#126 = CC_DESIGN_PERSON_AND_ORGANIZATION_ASSIGNMENT ( #9, #354, ( #195 ) ) ;
#127 = AXIS2_PLACEMENT_3D ( 'NONE', #371, #83, #280 ) ;
#128 = PERSON_AND_ORGANIZATION_ROLE ( 'creator' ) ;
#129 = LOCAL_TIME ( 13, 49, 14.00000000000000000, #318 ) ;
#130 = PERSON_AND_ORGANIZATION ( #242, #49 ) ;
#131 = ORIENTED_EDGE ( 'NONE', *, *, #161, .F. ) ;
#132 = CARTESIAN_POINT ( 'NONE',  ( 0.000000000000000000, 2.999999999999999112, -35.00000000000000000 ) ) ;
#133 = ORIENTED_EDGE ( 'NONE', *, *, #217, .T. ) ;
#134 = DIRECTION ( 'NONE',  ( -0.000000000000000000, 1.000000000000000000, -0.000000000000000000 ) ) ;
#135 = EDGE_CURVE ( 'NONE', #199, #180, #153, .T. ) ;
#136 = EDGE_LOOP ( 'NONE', ( #133, #377 ) ) ;
#137 = CARTESIAN_POINT ( 'NONE',  ( 0.000000000000000000, 0.000000000000000000, -5.000000000000000000 ) ) ;
#138 = DIRECTION ( 'NONE',  ( 0.000000000000000000, 0.000000000000000000, 1.000000000000000000 ) ) ;
#139 = ORIENTED_EDGE ( 'NONE', *, *, #320, .F. ) ;
#140 = DIRECTION ( 'NONE',  ( -0.000000000000000000, 1.000000000000000000, -0.000000000000000000 ) ) ;
#141 = ORIENTED_EDGE ( 'NONE', *, *, #235, .F. ) ;
#142 = EDGE_CURVE ( 'NONE', #171, #113, #250, .T. ) ;
#143 = AXIS2_PLACEMENT_3D ( 'NONE', #17, #134, #138 ) ;
#144 = CARTESIAN_POINT ( 'NONE',  ( 6.123233995736766282E-16, 12.00000000000000000, 5.000000000000000000 ) ) ;
#145 = AXIS2_PLACEMENT_3D ( 'NONE', #210, #60, #175 ) ;
#146 = ORIENTED_EDGE ( 'NONE', *, *, #306, .T. ) ;
#147 = FACE_BOUND ( 'NONE', #166, .T. ) ;
#148 = LINE ( 'NONE', #407, #19 ) ;
#149 = FACE_BOUND ( 'NONE', #136, .T. ) ;
#150 = VERTEX_POINT ( 'NONE', #233 ) ;
#151 = EDGE_CURVE ( 'NONE', #360, #388, #48, .T. ) ;
#152 = DIRECTION ( 'NONE',  ( 0.000000000000000000, 0.000000000000000000, -1.000000000000000000 ) ) ;
#153 = CIRCLE ( 'NONE', #373, 35.00000000000000000 ) ;
#154 = AXIS2_PLACEMENT_3D ( 'NONE', #71, #324, #46 ) ;
#155 = CARTESIAN_POINT ( 'NONE',  ( 4.286263797015736496E-15, 2.999999999999999112, 35.00000000000000000 ) ) ;
#156 = EDGE_CURVE ( 'NONE', #116, #226, #110, .T. ) ;
#157 = APPROVAL_ROLE ( '' ) ;
#158 = CIRCLE ( 'NONE', #44, 33.12659406584553068 ) ;
#159 = CALENDAR_DATE ( 2026, 31, 7 ) ;
#160 = MECHANICAL_CONTEXT ( 'NONE', #248, 'mechanical' ) ;
#161 = EDGE_CURVE ( 'NONE', #228, #226, #209, .T. ) ;
#162 = ORIENTED_EDGE ( 'NONE', *, *, #293, .T. ) ;
#163 = SECURITY_CLASSIFICATION ( '', '', #41 ) ;
#164 = ADVANCED_FACE ( 'NONE', ( #263 ), #47, .T. ) ;
#165 = DIRECTION ( 'NONE',  ( -0.000000000000000000, -1.000000000000000000, -0.000000000000000000 ) ) ;
#166 = EDGE_LOOP ( 'NONE', ( #333, #33 ) ) ;
#167 = DIRECTION ( 'NONE',  ( 0.000000000000000000, 0.000000000000000000, 1.000000000000000000 ) ) ;
#168 = AXIS2_PLACEMENT_3D ( 'NONE', #200, #400, #303 ) ;
#169 = AXIS2_PLACEMENT_3D ( 'NONE', #251, #347, #314 ) ;
#170 = DIRECTION ( 'NONE',  ( -0.000000000000000000, -1.000000000000000000, -0.000000000000000000 ) ) ;
#171 = VERTEX_POINT ( 'NONE', #332 ) ;
#172 = LINE ( 'NONE', #15, #11 ) ;
#173 = DIRECTION ( 'NONE',  ( 0.000000000000000000, 1.000000000000000000, 0.000000000000000000 ) ) ;
#174 = EDGE_CURVE ( 'NONE', #13, #194, #172, .T. ) ;
#175 = DIRECTION ( 'NONE',  ( 0.000000000000000000, 0.000000000000000000, 1.000000000000000000 ) ) ;
#176 = ORIENTED_EDGE ( 'NONE', *, *, #14, .T. ) ;
#177 = CIRCLE ( 'NONE', #39, 5.000000000000000000 ) ;
#178 = CYLINDRICAL_SURFACE ( 'NONE', #211, 5.000000000000000000 ) ;
#179 = APPROVAL_PERSON_ORGANIZATION ( #130, #74, #218 ) ;
#180 = VERTEX_POINT ( 'NONE', #304 ) ;
#181 = DIRECTION ( 'NONE',  ( -0.000000000000000000, -1.000000000000000000, -0.000000000000000000 ) ) ;
#182 = ORIENTED_EDGE ( 'NONE', *, *, #343, .T. ) ;
#183 = CARTESIAN_POINT ( 'NONE',  ( 0.000000000000000000, 12.00000000000000000, 0.000000000000000000 ) ) ;
#184 = DIRECTION ( 'NONE',  ( -0.000000000000000000, 1.000000000000000000, -0.000000000000000000 ) ) ;
#185 = AXIS2_PLACEMENT_3D ( 'NONE', #231, #73, #327 ) ;
#186 = CIRCLE ( 'NONE', #64, 35.00000000000000000 ) ;
#187 = APPROVAL_DATE_TIME ( #291, #374 ) ;
#188 = PERSON_AND_ORGANIZATION_ROLE ( 'design_supplier' ) ;
#189 = APPROVAL_ROLE ( '' ) ;
#190 = CC_DESIGN_APPROVAL ( #316, ( #163 ) ) ;
#191 = DIRECTION ( 'NONE',  ( 0.000000000000000000, 0.000000000000000000, 1.000000000000000000 ) ) ;
#192 = CC_DESIGN_PERSON_AND_ORGANIZATION_ASSIGNMENT ( #262, #259, ( #163 ) ) ;
#193 = DATE_AND_TIME ( #159, #7 ) ;
#194 = VERTEX_POINT ( 'NONE', #137 ) ;
#195 = PRODUCT_DEFINITION ( 'UNKNOWN', '', #365, #4 ) ;
#196 = CARTESIAN_POINT ( 'NONE',  ( 0.000000000000000000, 9.000000000000001776, 0.000000000000000000 ) ) ;
#197 = EDGE_LOOP ( 'NONE', ( #141, #335 ) ) ;
#198 = CARTESIAN_POINT ( 'NONE',  ( 0.000000000000000000, 0.000000000000000000, 0.000000000000000000 ) ) ;
#199 = VERTEX_POINT ( 'NONE', #265 ) ;
#200 = CARTESIAN_POINT ( 'NONE',  ( 0.000000000000000000, 12.00000000000000000, 0.000000000000000000 ) ) ;
#201 = ORIENTED_EDGE ( 'NONE', *, *, #235, .T. ) ;
#202 = LOCAL_TIME ( 13, 49, 14.00000000000000000, #319 ) ;
#203 = DIRECTION ( 'NONE',  ( 0.000000000000000000, 1.000000000000000000, 0.000000000000000000 ) ) ;
#204 = DIRECTION ( 'NONE',  ( 0.000000000000000000, -0.000000000000000000, -1.000000000000000000 ) ) ;
#205 = DIRECTION ( 'NONE',  ( 0.000000000000000000, 0.000000000000000000, 1.000000000000000000 ) ) ;
#206 = DIRECTION ( 'NONE',  ( 0.000000000000000000, 0.000000000000000000, 1.000000000000000000 ) ) ;
#207 = ORIENTED_EDGE ( 'NONE', *, *, #220, .T. ) ;
#208 = CC_DESIGN_DATE_AND_TIME_ASSIGNMENT ( #8, #317, ( #195 ) ) ;
#209 = CIRCLE ( 'NONE', #260, 35.00000000000000000 ) ;
#210 = CARTESIAN_POINT ( 'NONE',  ( 0.000000000000000000, 9.000000000000001776, 0.000000000000000000 ) ) ;
#211 = AXIS2_PLACEMENT_3D ( 'NONE', #2, #340, #152 ) ;
#212 = EDGE_LOOP ( 'NONE', ( #146, #272, #313, #358 ) ) ;
#213 = CARTESIAN_POINT ( 'NONE',  ( 0.000000000000000000, 2.999999999999999112, 33.12659406584553068 ) ) ;
#214 = DIRECTION ( 'NONE',  ( -0.000000000000000000, -1.000000000000000000, -0.000000000000000000 ) ) ;
#215 = CYLINDRICAL_SURFACE ( 'NONE', #386, 33.12659406584553068 ) ;
#216 = CARTESIAN_POINT ( 'NONE',  ( 0.000000000000000000, 28.88506671125515979, 33.12659406584553068 ) ) ;
#217 = EDGE_CURVE ( 'NONE', #23, #21, #238, .T. ) ;
#218 = APPROVAL_ROLE ( '' ) ;
#219 = DIRECTION ( 'NONE',  ( 0.000000000000000000, 0.000000000000000000, 1.000000000000000000 ) ) ;
#220 = EDGE_CURVE ( 'NONE', #368, #116, #229, .T. ) ;
#221 =( NAMED_UNIT ( * ) SI_UNIT ( $, .STERADIAN. ) SOLID_ANGLE_UNIT ( ) );
#222 = CIRCLE ( 'NONE', #352, 35.00000000000000000 ) ;
#223 =( GEOMETRIC_REPRESENTATION_CONTEXT ( 3 ) GLOBAL_UNCERTAINTY_ASSIGNED_CONTEXT ( ( #70 ) ) GLOBAL_UNIT_ASSIGNED_CONTEXT ( ( #5, #349, #221 ) ) REPRESENTATION_CONTEXT ( 'NONE', 'WORKASPACE' ) );
#224 = DATE_TIME_ROLE ( 'classification_date' ) ;
#225 = ADVANCED_FACE ( 'NONE', ( #334 ), #80, .T. ) ;
#226 = VERTEX_POINT ( 'NONE', #105 ) ;
#227 = DIRECTION ( 'NONE',  ( 0.000000000000000000, 0.000000000000000000, 1.000000000000000000 ) ) ;
#228 = VERTEX_POINT ( 'NONE', #295 ) ;
#229 = CIRCLE ( 'NONE', #77, 35.00000000000000000 ) ;
#230 = LOCAL_TIME ( 13, 49, 14.00000000000000000, #383 ) ;
#231 = CARTESIAN_POINT ( 'NONE',  ( 0.000000000000000000, 9.000000000000001776, 0.000000000000000000 ) ) ;
#232 = ORIENTED_EDGE ( 'NONE', *, *, #306, .F. ) ;
#233 = CARTESIAN_POINT ( 'NONE',  ( 4.056837738939143287E-15, 2.999999999999999112, -33.12659406584553068 ) ) ;
#234 = ORIENTED_EDGE ( 'NONE', *, *, #94, .F. ) ;
#235 = EDGE_CURVE ( 'NONE', #113, #171, #222, .T. ) ;
#236 = CARTESIAN_POINT ( 'NONE',  ( 0.000000000000000000, 9.000000000000001776, -35.00000000000000000 ) ) ;
#237 = ORIENTED_EDGE ( 'NONE', *, *, #151, .F. ) ;
#238 = CIRCLE ( 'NONE', #143, 33.12659406584553068 ) ;
#239 = AXIS2_PLACEMENT_3D ( 'NONE', #34, #181, #85 ) ;
#240 = CLOSED_SHELL ( 'NONE', ( #408, #336, #399, #276, #82, #380, #390, #225, #284, #257, #164, #326 ) ) ;
#241 = LINE ( 'NONE', #78, #97 ) ;
#242 = PERSON ( 'UNSPECIFIED', 'UNSPECIFIED', 'UNSPECIFIED', ('UNSPECIFIED'), ('UNSPECIFIED'), ('UNSPECIFIED') ) ;
#243 = DIRECTION ( 'NONE',  ( -0.000000000000000000, 1.000000000000000000, -0.000000000000000000 ) ) ;
#244 = CARTESIAN_POINT ( 'NONE',  ( 6.123233995736766282E-16, 0.000000000000000000, 5.000000000000000000 ) ) ;
#245 = EDGE_LOOP ( 'NONE', ( #107, #131 ) ) ;
#246 = PRODUCT_RELATED_PRODUCT_CATEGORY ( 'detail', '', ( #366 ) ) ;
#247 = CARTESIAN_POINT ( 'NONE',  ( 0.000000000000000000, 2.999999999999999112, 0.000000000000000000 ) ) ;
#248 = APPLICATION_CONTEXT ( 'configuration controlled 3d designs of mechanical parts and assemblies' ) ;
#249 = ORIENTED_EDGE ( 'NONE', *, *, #385, .F. ) ;
#250 = CIRCLE ( 'NONE', #185, 35.00000000000000000 ) ;
#251 = CARTESIAN_POINT ( 'NONE',  ( 0.000000000000000000, 0.000000000000000000, 0.000000000000000000 ) ) ;
#252 = CARTESIAN_POINT ( 'NONE',  ( 0.000000000000000000, 9.000000000000001776, 33.12659406584553068 ) ) ;
#253 = DIRECTION ( 'NONE',  ( -0.000000000000000000, 1.000000000000000000, -0.000000000000000000 ) ) ;
#254 = CARTESIAN_POINT ( 'NONE',  ( 0.000000000000000000, 2.999999999999999112, 0.000000000000000000 ) ) ;
#255 = DATE_AND_TIME ( #387, #230 ) ;
#256 = PERSON_AND_ORGANIZATION ( #242, #49 ) ;
#257 = ADVANCED_FACE ( 'NONE', ( #22, #389 ), #300, .F. ) ;
#258 = PERSON_AND_ORGANIZATION ( #242, #49 ) ;
#259 = PERSON_AND_ORGANIZATION_ROLE ( 'classification_officer' ) ;
#260 = AXIS2_PLACEMENT_3D ( 'NONE', #198, #359, #227 ) ;
#261 = CC_DESIGN_APPROVAL ( #374, ( #195 ) ) ;
#262 = PERSON_AND_ORGANIZATION ( #242, #49 ) ;
#263 = FACE_OUTER_BOUND ( 'NONE', #25, .T. ) ;
#264 = EDGE_LOOP ( 'NONE', ( #266, #207 ) ) ;
#265 = CARTESIAN_POINT ( 'NONE',  ( 0.000000000000000000, 12.00000000000000000, -35.00000000000000000 ) ) ;
#266 = ORIENTED_EDGE ( 'NONE', *, *, #385, .T. ) ;
#267 = AXIS2_PLACEMENT_3D ( 'NONE', #363, #140, #298 ) ;
#268 = CARTESIAN_POINT ( 'NONE',  ( 0.000000000000000000, 12.00000000000000000, 0.000000000000000000 ) ) ;
#269 = CC_DESIGN_PERSON_AND_ORGANIZATION_ASSIGNMENT ( #125, #188, ( #365 ) ) ;
#270 = APPROVAL_DATE_TIME ( #290, #316 ) ;
#271 = CARTESIAN_POINT ( 'NONE',  ( -35.00000000000000000, 3.000000000000000000, 0.000000000000000000 ) ) ;
#272 = ORIENTED_EDGE ( 'NONE', *, *, #6, .T. ) ;
#273 = DIRECTION ( 'NONE',  ( 0.000000000000000000, 0.000000000000000000, -1.000000000000000000 ) ) ;
#274 = EDGE_LOOP ( 'NONE', ( #58, #299, #328, #302 ) ) ;
#275 = CARTESIAN_POINT ( 'NONE',  ( 0.000000000000000000, 12.00000000000000000, 0.000000000000000000 ) ) ;
#276 = ADVANCED_FACE ( 'NONE', ( #53 ), #356, .T. ) ;
#277 = DIRECTION ( 'NONE',  ( 0.000000000000000000, 1.000000000000000000, 0.000000000000000000 ) ) ;
#278 = PLANE ( 'NONE',  #288 ) ;
#279 = CARTESIAN_POINT ( 'NONE',  ( 0.000000000000000000, 12.00000000000000000, 0.000000000000000000 ) ) ;
#280 = DIRECTION ( 'NONE',  ( 0.000000000000000000, -0.000000000000000000, 1.000000000000000000 ) ) ;
#281 = LINE ( 'NONE', #118, #112 ) ;
#282 = VECTOR ( 'NONE', #214, 1000.000000000000000 ) ;
#283 = FACE_OUTER_BOUND ( 'NONE', #100, .T. ) ;
#284 = ADVANCED_FACE ( 'NONE', ( #108 ), #36, .F. ) ;
#285 = CARTESIAN_POINT ( 'NONE',  ( -35.00000000000000000, 9.000000000000001776, 0.000000000000000000 ) ) ;
#286 = DIRECTION ( 'NONE',  ( 1.000000000000000000, 0.000000000000000000, 0.000000000000000000 ) ) ;
#287 = EDGE_CURVE ( 'NONE', #388, #194, #353, .T. ) ;
#288 = AXIS2_PLACEMENT_3D ( 'NONE', #275, #406, #117 ) ;
#289 = CARTESIAN_POINT ( 'NONE',  ( 0.000000000000000000, 0.000000000000000000, 0.000000000000000000 ) ) ;
#290 = DATE_AND_TIME ( #10, #59 ) ;
#291 = DATE_AND_TIME ( #384, #202 ) ;
#292 = CC_DESIGN_APPROVAL ( #74, ( #365 ) ) ;
#293 = EDGE_CURVE ( 'NONE', #394, #23, #32, .T. ) ;
#294 = SHAPE_DEFINITION_REPRESENTATION ( #114, #297 ) ;
#295 = CARTESIAN_POINT ( 'NONE',  ( 4.286263797015736496E-15, 0.000000000000000000, 35.00000000000000000 ) ) ;
#296 = ORIENTED_EDGE ( 'NONE', *, *, #6, .F. ) ;
#297 = ADVANCED_BREP_SHAPE_REPRESENTATION ( 'Pulley70mm_Default_sldprt', ( #30, #104 ), #223 ) ;
#298 = DIRECTION ( 'NONE',  ( 0.000000000000000000, 0.000000000000000000, 1.000000000000000000 ) ) ;
#299 = ORIENTED_EDGE ( 'NONE', *, *, #37, .T. ) ;
#300 = PLANE ( 'NONE',  #57 ) ;
#301 = EDGE_CURVE ( 'NONE', #226, #228, #375, .T. ) ;
#302 = ORIENTED_EDGE ( 'NONE', *, *, #43, .F. ) ;
#303 = DIRECTION ( 'NONE',  ( 0.000000000000000000, 0.000000000000000000, -1.000000000000000000 ) ) ;
#304 = CARTESIAN_POINT ( 'NONE',  ( 4.286263797015736496E-15, 12.00000000000000000, 35.00000000000000000 ) ) ;
#305 = ORIENTED_EDGE ( 'NONE', *, *, #174, .T. ) ;
#306 = EDGE_CURVE ( 'NONE', #394, #150, #158, .T. ) ;
#307 = FACE_OUTER_BOUND ( 'NONE', #197, .T. ) ;
#308 = CARTESIAN_POINT ( 'NONE',  ( 4.286263797015736496E-15, 12.00000000000000000, 35.00000000000000000 ) ) ;
#309 = VECTOR ( 'NONE', #315, 1000.000000000000000 ) ;
#310 = DIRECTION ( 'NONE',  ( 0.000000000000000000, 0.000000000000000000, 1.000000000000000000 ) ) ;
#311 = DIRECTION ( 'NONE',  ( 0.000000000000000000, 1.000000000000000000, 0.000000000000000000 ) ) ;
#312 = CARTESIAN_POINT ( 'NONE',  ( 0.000000000000000000, 2.999999999999999112, 0.000000000000000000 ) ) ;
#313 = ORIENTED_EDGE ( 'NONE', *, *, #217, .F. ) ;
#314 = DIRECTION ( 'NONE',  ( 0.000000000000000000, 0.000000000000000000, 1.000000000000000000 ) ) ;
#315 = DIRECTION ( 'NONE',  ( -0.000000000000000000, 1.000000000000000000, -0.000000000000000000 ) ) ;
#316 = APPROVAL ( #382, 'UNSPECIFIED' ) ;
#317 = DATE_TIME_ROLE ( 'creation_date' ) ;
#318 = COORDINATED_UNIVERSAL_TIME_OFFSET ( 3, 30, .AHEAD. ) ;
#319 = COORDINATED_UNIVERSAL_TIME_OFFSET ( 3, 30, .AHEAD. ) ;
#320 = EDGE_CURVE ( 'NONE', #21, #23, #28, .T. ) ;
#321 = VECTOR ( 'NONE', #170, 1000.000000000000000 ) ;
#322 = CIRCLE ( 'NONE', #79, 5.000000000000000000 ) ;
#323 = ORIENTED_EDGE ( 'NONE', *, *, #348, .T. ) ;
#324 = DIRECTION ( 'NONE',  ( -0.000000000000000000, -1.000000000000000000, -0.000000000000000000 ) ) ;
#325 = ORIENTED_EDGE ( 'NONE', *, *, #301, .T. ) ;
#326 = ADVANCED_FACE ( 'NONE', ( #307, #149 ), #115, .F. ) ;
#327 = DIRECTION ( 'NONE',  ( 0.000000000000000000, 0.000000000000000000, 1.000000000000000000 ) ) ;
#328 = ORIENTED_EDGE ( 'NONE', *, *, #142, .T. ) ;
#329 = DIRECTION ( 'NONE',  ( 0.000000000000000000, 0.000000000000000000, 1.000000000000000000 ) ) ;
#330 = EDGE_LOOP ( 'NONE', ( #237, #81, #305, #72 ) ) ;
#331 = CIRCLE ( 'NONE', #87, 35.00000000000000000 ) ;
#332 = CARTESIAN_POINT ( 'NONE',  ( 4.286263797015736496E-15, 9.000000000000001776, 35.00000000000000000 ) ) ;
#333 = ORIENTED_EDGE ( 'NONE', *, *, #343, .F. ) ;
#334 = FACE_OUTER_BOUND ( 'NONE', #45, .T. ) ;
#335 = ORIENTED_EDGE ( 'NONE', *, *, #142, .F. ) ;
#336 = ADVANCED_FACE ( 'NONE', ( #283 ), #178, .F. ) ;
#337 = APPLICATION_CONTEXT ( 'configuration controlled 3d designs of mechanical parts and assemblies' ) ;
#338 = DIRECTION ( 'NONE',  ( -0.000000000000000000, 1.000000000000000000, -0.000000000000000000 ) ) ;
#339 = CARTESIAN_POINT ( 'NONE',  ( 0.000000000000000000, 12.00000000000000000, -5.000000000000000000 ) ) ;
#340 = DIRECTION ( 'NONE',  ( -0.000000000000000000, -1.000000000000000000, -0.000000000000000000 ) ) ;
#341 = ORIENTED_EDGE ( 'NONE', *, *, #37, .F. ) ;
#342 = FACE_OUTER_BOUND ( 'NONE', #274, .T. ) ;
#343 = EDGE_CURVE ( 'NONE', #13, #360, #322, .T. ) ;
#344 = DIRECTION ( 'NONE',  ( -0.000000000000000000, -1.000000000000000000, -0.000000000000000000 ) ) ;
#345 = CARTESIAN_POINT ( 'NONE',  ( 0.000000000000000000, 28.88506671125515979, 0.000000000000000000 ) ) ;
#346 = AXIS2_PLACEMENT_3D ( 'NONE', #247, #404, #3 ) ;
#347 = DIRECTION ( 'NONE',  ( 0.000000000000000000, 1.000000000000000000, 0.000000000000000000 ) ) ;
#348 = EDGE_CURVE ( 'NONE', #150, #394, #381, .T. ) ;
#349 =( NAMED_UNIT ( * ) PLANE_ANGLE_UNIT ( ) SI_UNIT ( $, .RADIAN. ) );
#350 = APPLICATION_PROTOCOL_DEFINITION ( 'international standard', 'config_control_design', 1994, #248 ) ;
#351 = PERSON_AND_ORGANIZATION_ROLE ( 'design_owner' ) ;
#352 = AXIS2_PLACEMENT_3D ( 'NONE', #196, #397, #167 ) ;
#353 = CIRCLE ( 'NONE', #169, 5.000000000000000000 ) ;
#354 = PERSON_AND_ORGANIZATION_ROLE ( 'creator' ) ;
#355 = ORIENTED_EDGE ( 'NONE', *, *, #68, .T. ) ;
#356 = CYLINDRICAL_SURFACE ( 'NONE', #154, 35.00000000000000000 ) ;
#357 = APPROVAL_PERSON_ORGANIZATION ( #258, #374, #189 ) ;
#358 = ORIENTED_EDGE ( 'NONE', *, *, #293, .F. ) ;
#359 = DIRECTION ( 'NONE',  ( 0.000000000000000000, 1.000000000000000000, 0.000000000000000000 ) ) ;
#360 = VERTEX_POINT ( 'NONE', #144 ) ;
#361 = CARTESIAN_POINT ( 'NONE',  ( 6.123233995736766282E-16, 12.00000000000000000, 5.000000000000000000 ) ) ;
#362 = ORIENTED_EDGE ( 'NONE', *, *, #156, .F. ) ;
#363 = CARTESIAN_POINT ( 'NONE',  ( 0.000000000000000000, 28.88506671125515979, 0.000000000000000000 ) ) ;
#364 = ORIENTED_EDGE ( 'NONE', *, *, #135, .T. ) ;
#365 = PRODUCT_DEFINITION_FORMATION_WITH_SPECIFIED_SOURCE ( 'ANY', '', #366, .NOT_KNOWN. ) ;
#366 = PRODUCT ( 'Pulley70mm_Default_sldprt', 'Pulley70mm_Default_sldprt', '', ( #160 ) ) ;
#367 = DIRECTION ( 'NONE',  ( -0.000000000000000000, -1.000000000000000000, -0.000000000000000000 ) ) ;
#368 = VERTEX_POINT ( 'NONE', #155 ) ;
#369 = PLANE ( 'NONE',  #127 ) ;
#370 = FACE_OUTER_BOUND ( 'NONE', #54, .T. ) ;
#371 = CARTESIAN_POINT ( 'NONE',  ( 0.000000000000000000, 0.000000000000000000, 0.000000000000000000 ) ) ;
#372 = ORIENTED_EDGE ( 'NONE', *, *, #287, .T. ) ;
#373 = AXIS2_PLACEMENT_3D ( 'NONE', #106, #203, #329 ) ;
#374 = APPROVAL ( #38, 'UNSPECIFIED' ) ;
#375 = CIRCLE ( 'NONE', #121, 35.00000000000000000 ) ;
#376 = DIRECTION ( 'NONE',  ( 0.000000000000000000, 0.000000000000000000, 1.000000000000000000 ) ) ;
#377 = ORIENTED_EDGE ( 'NONE', *, *, #320, .T. ) ;
#378 = DIRECTION ( 'NONE',  ( -0.000000000000000000, -1.000000000000000000, -0.000000000000000000 ) ) ;
#379 = DIRECTION ( 'NONE',  ( 0.000000000000000000, 0.000000000000000000, 1.000000000000000000 ) ) ;
#380 = ADVANCED_FACE ( 'NONE', ( #123, #147 ), #278, .T. ) ;
#381 = CIRCLE ( 'NONE', #346, 33.12659406584553068 ) ;
#382 = APPROVAL_STATUS ( 'not_yet_approved' ) ;
#383 = COORDINATED_UNIVERSAL_TIME_OFFSET ( 3, 30, .AHEAD. ) ;
#384 = CALENDAR_DATE ( 2026, 31, 7 ) ;
#385 = EDGE_CURVE ( 'NONE', #116, #368, #331, .T. ) ;
#386 = AXIS2_PLACEMENT_3D ( 'NONE', #345, #184, #191 ) ;
#387 = CALENDAR_DATE ( 2026, 31, 7 ) ;
#388 = VERTEX_POINT ( 'NONE', #244 ) ;
#389 = FACE_OUTER_BOUND ( 'NONE', #264, .T. ) ;
#390 = ADVANCED_FACE ( 'NONE', ( #88, #119 ), #369, .F. ) ;
#391 = ORIENTED_EDGE ( 'NONE', *, *, #43, .T. ) ;
#392 = DIRECTION ( 'NONE',  ( -0.000000000000000000, 1.000000000000000000, -0.000000000000000000 ) ) ;
#393 = AXIS2_PLACEMENT_3D ( 'NONE', #285, #56, #29 ) ;
#394 = VERTEX_POINT ( 'NONE', #213 ) ;
#395 = DIRECTION ( 'NONE',  ( -0.000000000000000000, -1.000000000000000000, -0.000000000000000000 ) ) ;
#396 = ORIENTED_EDGE ( 'NONE', *, *, #94, .T. ) ;
#397 = DIRECTION ( 'NONE',  ( -0.000000000000000000, 1.000000000000000000, -0.000000000000000000 ) ) ;
#398 = ORIENTED_EDGE ( 'NONE', *, *, #68, .F. ) ;
#399 = ADVANCED_FACE ( 'NONE', ( #342 ), #62, .T. ) ;
#400 = DIRECTION ( 'NONE',  ( -0.000000000000000000, -1.000000000000000000, -0.000000000000000000 ) ) ;
#401 = AXIS2_PLACEMENT_3D ( 'NONE', #27, #277, #405 ) ;
#402 = DIRECTION ( 'NONE',  ( 0.000000000000000000, 0.000000000000000000, 1.000000000000000000 ) ) ;
#403 = APPROVAL_PERSON_ORGANIZATION ( #40, #316, #157 ) ;
#404 = DIRECTION ( 'NONE',  ( -0.000000000000000000, 1.000000000000000000, -0.000000000000000000 ) ) ;
#405 = DIRECTION ( 'NONE',  ( 0.000000000000000000, 0.000000000000000000, 1.000000000000000000 ) ) ;
#406 = DIRECTION ( 'NONE',  ( 0.000000000000000000, 1.000000000000000000, 0.000000000000000000 ) ) ;
#407 = CARTESIAN_POINT ( 'NONE',  ( 0.000000000000000000, 12.00000000000000000, -35.00000000000000000 ) ) ;
#408 = ADVANCED_FACE ( 'NONE', ( #63 ), #215, .T. ) ;
#409 = CARTESIAN_POINT ( 'NONE',  ( 0.000000000000000000, 12.00000000000000000, 0.000000000000000000 ) ) ;
ENDSEC;
END-ISO-10303-21;
