ISO-10303-21;
HEADER;
FILE_DESCRIPTION (( 'STEP AP203' ),
    '1' );
FILE_NAME ('RodLeft_Default_sldprt.STEP',
    '2026-07-31T10:19:15',
    ( '' ),
    ( '' ),
    'SwSTEP 2.0',
    'SolidWorks 2025',
    '' );
FILE_SCHEMA (( 'CONFIG_CONTROL_DESIGN' ));
ENDSEC;

DATA;
#1 = EDGE_CURVE ( 'NONE', #477, #218, #350, .T. ) ;
#2 = VERTEX_POINT ( 'NONE', #460 ) ;
#3 = LINE ( 'NONE', #573, #354 ) ;
#4 = ORIENTED_EDGE ( 'NONE', *, *, #361, .F. ) ;
#5 = EDGE_CURVE ( 'NONE', #392, #153, #343, .T. ) ;
#6 = CARTESIAN_POINT ( 'NONE',  ( -90.00000000000002842, -127.2792206135786017, -280.0000000000000000 ) ) ;
#7 = VERTEX_POINT ( 'NONE', #618 ) ;
#8 = CIRCLE ( 'NONE', #496, 50.00000000000000000 ) ;
#9 = PLANE ( 'NONE',  #504 ) ;
#10 = ORIENTED_EDGE ( 'NONE', *, *, #222, .T. ) ;
#11 = ADVANCED_FACE ( 'NONE', ( #662 ), #552, .F. ) ;
#12 = DIRECTION ( 'NONE',  ( 0.000000000000000000, 1.000000000000000000, 0.000000000000000000 ) ) ;
#13 = ORIENTED_EDGE ( 'NONE', *, *, #663, .F. ) ;
#14 = DIRECTION ( 'NONE',  ( 0.000000000000000000, 1.000000000000000000, 0.000000000000000000 ) ) ;
#15 = ADVANCED_FACE ( 'NONE', ( #555 ), #33, .F. ) ;
#16 = APPROVAL_STATUS ( 'not_yet_approved' ) ;
#17 = EDGE_LOOP ( 'NONE', ( #543, #287, #270, #419, #328, #244, #259, #435, #54, #340, #323, #427, #72, #314, #13, #116, #495 ) ) ;
#18 = VECTOR ( 'NONE', #301, 1000.000000000000000 ) ;
#19 = LINE ( 'NONE', #228, #186 ) ;
#20 =( GEOMETRIC_REPRESENTATION_CONTEXT ( 3 ) GLOBAL_UNCERTAINTY_ASSIGNED_CONTEXT ( ( #347 ) ) GLOBAL_UNIT_ASSIGNED_CONTEXT ( ( #103, #627, #213 ) ) REPRESENTATION_CONTEXT ( 'NONE', 'WORKASPACE' ) );
#21 = PERSON_AND_ORGANIZATION_ROLE ( 'classification_officer' ) ;
#22 = ORIENTED_EDGE ( 'NONE', *, *, #311, .F. ) ;
#23 = ADVANCED_FACE ( 'NONE', ( #291 ), #503, .F. ) ;
#24 = CARTESIAN_POINT ( 'NONE',  ( -115.1416731042012458, -127.2792206135786017, -262.7815462176484971 ) ) ;
#25 = EDGE_LOOP ( 'NONE', ( #264, #226, #60, #368 ) ) ;
#26 = CC_DESIGN_PERSON_AND_ORGANIZATION_ASSIGNMENT ( #502, #21, ( #583 ) ) ;
#27 = PLANE ( 'NONE',  #405 ) ;
#28 = DATE_TIME_ROLE ( 'creation_date' ) ;
#29 = CARTESIAN_POINT ( 'NONE',  ( 0.000000000000000000, 0.000000000000000000, -280.0000000000000000 ) ) ;
#30 = DIRECTION ( 'NONE',  ( -0.000000000000000000, -1.000000000000000000, -0.000000000000000000 ) ) ;
#31 = COORDINATED_UNIVERSAL_TIME_OFFSET ( 3, 30, .AHEAD. ) ;
#32 = AXIS2_PLACEMENT_3D ( 'NONE', #191, #245, #342 ) ;
#33 = CYLINDRICAL_SURFACE ( 'NONE', #514, 90.00000000000002842 ) ;
#34 = CARTESIAN_POINT ( 'NONE',  ( -74.99999999999997158, 0.000000000000000000, -35.00000000000000000 ) ) ;
#35 = EDGE_CURVE ( 'NONE', #159, #404, #670, .T. ) ;
#36 = CARTESIAN_POINT ( 'NONE',  ( 100.3066313848271420, 0.000000000000000000, -265.0000000000000000 ) ) ;
#37 = VERTEX_POINT ( 'NONE', #558 ) ;
#38 = DIRECTION ( 'NONE',  ( 0.000000000000000000, -1.000000000000000000, 0.000000000000000000 ) ) ;
#39 = DIRECTION ( 'NONE',  ( 0.000000000000000000, 0.000000000000000000, 1.000000000000000000 ) ) ;
#40 = CARTESIAN_POINT ( 'NONE',  ( 100.3066313848271420, 19.99999999999998934, -265.0000000000000000 ) ) ;
#41 = VECTOR ( 'NONE', #457, 1000.000000000000000 ) ;
#42 = DIRECTION ( 'NONE',  ( -0.000000000000000000, -1.000000000000000000, -0.000000000000000000 ) ) ;
#43 = VECTOR ( 'NONE', #286, 1000.000000000000227 ) ;
#44 = EDGE_CURVE ( 'NONE', #548, #70, #97, .T. ) ;
#45 = CARTESIAN_POINT ( 'NONE',  ( -42.14455981922948524, 0.000000000000000000, -62.56898773785207624 ) ) ;
#46 = ORIENTED_EDGE ( 'NONE', *, *, #595, .T. ) ;
#47 = EDGE_CURVE ( 'NONE', #122, #168, #63, .T. ) ;
#48 = CARTESIAN_POINT ( 'NONE',  ( 100.3066313848271420, 20.00000000000000000, -280.0000000000000000 ) ) ;
#49 = CARTESIAN_POINT ( 'NONE',  ( 6.056000119292352935, 20.00000000000000000, -92.85088487178899186 ) ) ;
#50 = APPLICATION_CONTEXT ( 'configuration controlled 3d designs of mechanical parts and assemblies' ) ;
#51 = ORIENTED_EDGE ( 'NONE', *, *, #385, .F. ) ;
#52 = DIRECTION ( 'NONE',  ( -0.000000000000000000, 1.000000000000000000, -0.000000000000000000 ) ) ;
#53 = LINE ( 'NONE', #630, #638 ) ;
#54 = ORIENTED_EDGE ( 'NONE', *, *, #216, .F. ) ;
#55 = AXIS2_PLACEMENT_3D ( 'NONE', #349, #30, #443 ) ;
#56 = DIRECTION ( 'NONE',  ( -3.552713678800500535E-15, 0.000000000000000000, 1.000000000000000000 ) ) ;
#57 = EDGE_CURVE ( 'NONE', #588, #179, #353, .T. ) ;
#58 = ORIENTED_EDGE ( 'NONE', *, *, #385, .T. ) ;
#59 = CARTESIAN_POINT ( 'NONE',  ( 74.28394030355673294, 20.00000000000000000, -100.8712098938007671 ) ) ;
#60 = ORIENTED_EDGE ( 'NONE', *, *, #271, .F. ) ;
#61 = CARTESIAN_POINT ( 'NONE',  ( 115.1416731042012458, 20.00000000000000000, -262.7815462176484971 ) ) ;
#62 = EDGE_LOOP ( 'NONE', ( #366, #445, #22, #577 ) ) ;
#63 = CIRCLE ( 'NONE', #646, 90.00000000000002842 ) ;
#64 = EDGE_CURVE ( 'NONE', #102, #2, #73, .T. ) ;
#65 = VECTOR ( 'NONE', #197, 1000.000000000000000 ) ;
#66 = LOCAL_TIME ( 13, 49, 15.00000000000000000, #31 ) ;
#67 = LINE ( 'NONE', #69, #605 ) ;
#68 = ORIENTED_EDGE ( 'NONE', *, *, #361, .T. ) ;
#69 = CARTESIAN_POINT ( 'NONE',  ( -93.47641404061870674, -127.2792206135786017, -210.6008641696704444 ) ) ;
#70 = VERTEX_POINT ( 'NONE', #246 ) ;
#71 = FACE_OUTER_BOUND ( 'NONE', #215, .T. ) ;
#72 = ORIENTED_EDGE ( 'NONE', *, *, #463, .F. ) ;
#73 = CIRCLE ( 'NONE', #164, 15.00000000000001421 ) ;
#74 = AXIS2_PLACEMENT_3D ( 'NONE', #146, #52, #518 ) ;
#75 = DIRECTION ( 'NONE',  ( 0.000000000000000000, 1.000000000000000000, 0.000000000000000000 ) ) ;
#76 = PERSON_AND_ORGANIZATION ( #440, #265 ) ;
#77 = EDGE_CURVE ( 'NONE', #153, #492, #659, .T. ) ;
#78 = ORIENTED_EDGE ( 'NONE', *, *, #106, .F. ) ;
#79 = CARTESIAN_POINT ( 'NONE',  ( -90.00000000000002842, 0.000000000000000000, -280.0000000000000000 ) ) ;
#80 = COORDINATED_UNIVERSAL_TIME_OFFSET ( 3, 30, .AHEAD. ) ;
#81 = DIRECTION ( 'NONE',  ( 0.000000000000000000, 1.000000000000000000, 0.000000000000000000 ) ) ;
#82 = EDGE_LOOP ( 'NONE', ( #416, #171, #91, #111 ) ) ;
#83 = CARTESIAN_POINT ( 'NONE',  ( 0.000000000000000000, 20.00000000000000000, -280.0000000000000000 ) ) ;
#84 = APPROVAL_DATE_TIME ( #600, #533 ) ;
#85 = DIRECTION ( 'NONE',  ( 0.000000000000000000, 0.000000000000000000, 1.000000000000000000 ) ) ;
#86 = APPLICATION_PROTOCOL_DEFINITION ( 'international standard', 'config_control_design', 1994, #379 ) ;
#87 = ADVANCED_FACE ( 'NONE', ( #195 ), #654, .F. ) ;
#88 = DIRECTION ( 'NONE',  ( 0.000000000000000000, 1.000000000000000000, 0.000000000000000000 ) ) ;
#89 = CIRCLE ( 'NONE', #284, 116.4219912039375657 ) ;
#90 = EDGE_LOOP ( 'NONE', ( #318, #524, #192, #641 ) ) ;
#91 = ORIENTED_EDGE ( 'NONE', *, *, #47, .T. ) ;
#92 = APPROVAL_ROLE ( '' ) ;
#93 = ADVANCED_FACE ( 'NONE', ( #395 ), #606, .F. ) ;
#94 = DIRECTION ( 'NONE',  ( 0.000000000000000000, 0.000000000000000000, 1.000000000000000000 ) ) ;
#95 = DIRECTION ( 'NONE',  ( 0.000000000000000000, 1.000000000000000000, 0.000000000000000000 ) ) ;
#96 = EDGE_LOOP ( 'NONE', ( #205, #10, #362, #223 ) ) ;
#97 = LINE ( 'NONE', #454, #162 ) ;
#98 = EDGE_CURVE ( 'NONE', #179, #537, #150, .T. ) ;
#99 = CYLINDRICAL_SURFACE ( 'NONE', #176, 90.00000000000002842 ) ;
#100 = CARTESIAN_POINT ( 'NONE',  ( -75.00000000000000000, 0.000000000000000000, 0.000000000000000000 ) ) ;
#101 = CIRCLE ( 'NONE', #658, 116.4219912039375657 ) ;
#102 = VERTEX_POINT ( 'NONE', #370 ) ;
#103 =( LENGTH_UNIT ( ) NAMED_UNIT ( * ) SI_UNIT ( .MILLI., .METRE. ) );
#104 = DIRECTION ( 'NONE',  ( -0.000000000000000000, 1.000000000000000000, -0.000000000000000000 ) ) ;
#105 = ORIENTED_EDGE ( 'NONE', *, *, #77, .F. ) ;
#106 = EDGE_CURVE ( 'NONE', #528, #392, #570, .T. ) ;
#107 = CARTESIAN_POINT ( 'NONE',  ( -93.47641404061870674, 0.000000000000000000, -210.6008641696704444 ) ) ;
#108 = EDGE_LOOP ( 'NONE', ( #594, #283, #643, #486 ) ) ;
#109 = ADVANCED_FACE ( 'NONE', ( #519 ), #467, .T. ) ;
#110 = CARTESIAN_POINT ( 'NONE',  ( 34.13842609530240679, 20.00000000000000000, -130.6762042564047022 ) ) ;
#111 = ORIENTED_EDGE ( 'NONE', *, *, #298, .F. ) ;
#112 = VECTOR ( 'NONE', #536, 1000.000000000000000 ) ;
#113 = DIRECTION ( 'NONE',  ( -0.000000000000000000, 1.000000000000000000, -0.000000000000000000 ) ) ;
#114 = ORIENTED_EDGE ( 'NONE', *, *, #372, .T. ) ;
#115 = CARTESIAN_POINT ( 'NONE',  ( 74.99999999999997158, 20.00000000000000000, -35.00000000000000000 ) ) ;
#116 = ORIENTED_EDGE ( 'NONE', *, *, #98, .F. ) ;
#117 = DIRECTION ( 'NONE',  ( 0.000000000000000000, 0.000000000000000000, 1.000000000000000000 ) ) ;
#118 = ORIENTED_EDGE ( 'NONE', *, *, #468, .T. ) ;
#119 = APPROVAL ( #462, 'UNSPECIFIED' ) ;
#120 = VECTOR ( 'NONE', #324, 1000.000000000000000 ) ;
#121 = CARTESIAN_POINT ( 'NONE',  ( -100.3066313848271420, 19.99999999999998934, -265.0000000000000000 ) ) ;
#122 = VERTEX_POINT ( 'NONE', #568 ) ;
#123 = ADVANCED_FACE ( 'NONE', ( #204 ), #202, .F. ) ;
#124 = DIRECTION ( 'NONE',  ( -7.930164461608260440E-16, 0.000000000000000000, 1.000000000000000000 ) ) ;
#125 = VERTEX_POINT ( 'NONE', #107 ) ;
#126 = EDGE_CURVE ( 'NONE', #168, #677, #470, .T. ) ;
#127 = DIRECTION ( 'NONE',  ( 0.000000000000000000, 0.000000000000000000, 1.000000000000000000 ) ) ;
#128 = EDGE_LOOP ( 'NONE', ( #357, #371, #330, #423 ) ) ;
#129 = VECTOR ( 'NONE', #230, 1000.000000000000000 ) ;
#130 = CARTESIAN_POINT ( 'NONE',  ( -34.13842609530240679, 20.00000000000000000, -130.6762042564047022 ) ) ;
#131 = PERSON_AND_ORGANIZATION ( #440, #265 ) ;
#132 = CARTESIAN_POINT ( 'NONE',  ( 0.000000000000000000, 20.00000000000000000, -280.0000000000000000 ) ) ;
#133 = DIRECTION ( 'NONE',  ( 7.930164461608260440E-16, 0.000000000000000000, -1.000000000000000000 ) ) ;
#134 = DATE_AND_TIME ( #178, #187 ) ;
#135 = DIRECTION ( 'NONE',  ( 0.7660444431189736836, 0.000000000000000000, -0.6427876096865444699 ) ) ;
#136 = DIRECTION ( 'NONE',  ( -0.000000000000000000, -1.000000000000000000, -0.000000000000000000 ) ) ;
#137 = DIRECTION ( 'NONE',  ( -0.5960998872520778535, 0.000000000000000000, -0.8029102841650865852 ) ) ;
#138 = EDGE_CURVE ( 'NONE', #268, #220, #579, .T. ) ;
#139 = CARTESIAN_POINT ( 'NONE',  ( 0.000000000000000000, 0.000000000000000000, -280.0000000000000000 ) ) ;
#140 = VERTEX_POINT ( 'NONE', #100 ) ;
#141 = AXIS2_PLACEMENT_3D ( 'NONE', #348, #556, #352 ) ;
#142 = EDGE_CURVE ( 'NONE', #159, #492, #161, .T. ) ;
#143 = CARTESIAN_POINT ( 'NONE',  ( 0.000000000000000000, 0.000000000000000000, -280.0000000000000000 ) ) ;
#144 = ORIENTED_EDGE ( 'NONE', *, *, #44, .F. ) ;
#145 = PRODUCT ( 'RodLeft_Default_sldprt', 'RodLeft_Default_sldprt', '', ( #296 ) ) ;
#146 = CARTESIAN_POINT ( 'NONE',  ( -100.3066313848271420, -127.2792206135786017, -265.0000000000000000 ) ) ;
#147 = APPROVAL ( #16, 'UNSPECIFIED' ) ;
#148 = LINE ( 'NONE', #309, #120 ) ;
#149 = CARTESIAN_POINT ( 'NONE',  ( 0.000000000000000000, -127.2792206135786017, -280.0000000000000000 ) ) ;
#150 = CIRCLE ( 'NONE', #547, 90.00000000000002842 ) ;
#151 = CARTESIAN_POINT ( 'NONE',  ( -74.99999999999997158, 0.000000000000000000, -35.00000000000000000 ) ) ;
#152 = CIRCLE ( 'NONE', #515, 116.4219912039375657 ) ;
#153 = VERTEX_POINT ( 'NONE', #628 ) ;
#154 = FACE_OUTER_BOUND ( 'NONE', #90, .T. ) ;
#155 = DIRECTION ( 'NONE',  ( -0.000000000000000000, -1.000000000000000000, -0.000000000000000000 ) ) ;
#156 = ORIENTED_EDGE ( 'NONE', *, *, #393, .T. ) ;
#157 = DIRECTION ( 'NONE',  ( 0.000000000000000000, 0.000000000000000000, 1.000000000000000000 ) ) ;
#158 = DIRECTION ( 'NONE',  ( -0.000000000000000000, -1.000000000000000000, -0.000000000000000000 ) ) ;
#159 = VERTEX_POINT ( 'NONE', #45 ) ;
#160 = FACE_OUTER_BOUND ( 'NONE', #480, .T. ) ;
#161 = LINE ( 'NONE', #151, #413 ) ;
#162 = VECTOR ( 'NONE', #508, 1000.000000000000227 ) ;
#163 = ORIENTED_EDGE ( 'NONE', *, *, #298, .T. ) ;
#164 = AXIS2_PLACEMENT_3D ( 'NONE', #36, #42, #251 ) ;
#165 = AXIS2_PLACEMENT_3D ( 'NONE', #439, #172, #333 ) ;
#166 = VECTOR ( 'NONE', #319, 1000.000000000000000 ) ;
#167 = CARTESIAN_POINT ( 'NONE',  ( 74.99999999999997158, 0.000000000000000000, -35.00000000000000000 ) ) ;
#168 = VERTEX_POINT ( 'NONE', #365 ) ;
#169 = DIRECTION ( 'NONE',  ( 0.000000000000000000, 1.000000000000000000, 0.000000000000000000 ) ) ;
#170 = CC_DESIGN_PERSON_AND_ORGANIZATION_ASSIGNMENT ( #131, #290, ( #438 ) ) ;
#171 = ORIENTED_EDGE ( 'NONE', *, *, #189, .T. ) ;
#172 = DIRECTION ( 'NONE',  ( 0.000000000000000000, 1.000000000000000000, 0.000000000000000000 ) ) ;
#173 = ORIENTED_EDGE ( 'NONE', *, *, #561, .T. ) ;
#174 = EDGE_CURVE ( 'NONE', #645, #300, #53, .T. ) ;
#175 = AXIS2_PLACEMENT_3D ( 'NONE', #678, #675, #421 ) ;
#176 = AXIS2_PLACEMENT_3D ( 'NONE', #206, #578, #525 ) ;
#177 = DIRECTION ( 'NONE',  ( -0.000000000000000000, 1.000000000000000000, -0.000000000000000000 ) ) ;
#178 = CALENDAR_DATE ( 2026, 31, 7 ) ;
#179 = VERTEX_POINT ( 'NONE', #409 ) ;
#180 = DIRECTION ( 'NONE',  ( 0.7660444431189736836, 0.000000000000000000, 0.6427876096865444699 ) ) ;
#181 = APPROVAL_DATE_TIME ( #279, #147 ) ;
#182 = VERTEX_POINT ( 'NONE', #110 ) ;
#183 = CARTESIAN_POINT ( 'NONE',  ( 100.3066313848271420, 20.00000000000000000, -280.0000000000000000 ) ) ;
#184 = CARTESIAN_POINT ( 'NONE',  ( -74.28394030355673294, 0.000000000000000000, -100.8712098938007671 ) ) ;
#185 = VECTOR ( 'NONE', #399, 1000.000000000000000 ) ;
#186 = VECTOR ( 'NONE', #650, 1000.000000000000000 ) ;
#187 = LOCAL_TIME ( 13, 49, 15.00000000000000000, #80 ) ;
#188 = CARTESIAN_POINT ( 'NONE',  ( -6.056000119292352935, 20.00000000000000000, -92.85088487178899186 ) ) ;
#189 = EDGE_CURVE ( 'NONE', #179, #122, #3, .T. ) ;
#190 = CARTESIAN_POINT ( 'NONE',  ( -74.99999999999997158, 20.00000000000000000, -35.00000000000000000 ) ) ;
#191 = CARTESIAN_POINT ( 'NONE',  ( 74.99999999999997158, 20.00000000000000000, -35.00000000000000000 ) ) ;
#192 = ORIENTED_EDGE ( 'NONE', *, *, #582, .F. ) ;
#193 = APPLICATION_PROTOCOL_DEFINITION ( 'international standard', 'config_control_design', 1994, #50 ) ;
#194 = DIRECTION ( 'NONE',  ( -0.000000000000000000, 1.000000000000000000, -0.000000000000000000 ) ) ;
#195 = FACE_OUTER_BOUND ( 'NONE', #212, .T. ) ;
#196 = EDGE_CURVE ( 'NONE', #2, #548, #152, .T. ) ;
#197 = DIRECTION ( 'NONE',  ( -0.000000000000000000, -1.000000000000000000, -0.000000000000000000 ) ) ;
#198 = VECTOR ( 'NONE', #644, 1000.000000000000000 ) ;
#199 = ORIENTED_EDGE ( 'NONE', *, *, #487, .T. ) ;
#200 = CC_DESIGN_PERSON_AND_ORGANIZATION_ASSIGNMENT ( #664, #248, ( #145 ) ) ;
#201 = CARTESIAN_POINT ( 'NONE',  ( 90.00000000000002842, 0.000000000000000000, -280.0000000000000000 ) ) ;
#202 = PLANE ( 'NONE',  #625 ) ;
#203 = LINE ( 'NONE', #408, #436 ) ;
#204 = FACE_OUTER_BOUND ( 'NONE', #598, .T. ) ;
#205 = ORIENTED_EDGE ( 'NONE', *, *, #196, .F. ) ;
#206 = CARTESIAN_POINT ( 'NONE',  ( 0.000000000000000000, -127.2792206135786017, -280.0000000000000000 ) ) ;
#207 = CARTESIAN_POINT ( 'NONE',  ( 0.000000000000000000, 0.000000000000000000, -280.0000000000000000 ) ) ;
#208 = CIRCLE ( 'NONE', #581, 116.4219912039375657 ) ;
#209 = ORIENTED_EDGE ( 'NONE', *, *, #98, .T. ) ;
#210 = DIRECTION ( 'NONE',  ( -0.000000000000000000, 1.000000000000000000, -0.000000000000000000 ) ) ;
#211 = EDGE_CURVE ( 'NONE', #218, #412, #258, .T. ) ;
#212 = EDGE_LOOP ( 'NONE', ( #520, #580, #652, #105 ) ) ;
#213 =( NAMED_UNIT ( * ) SI_UNIT ( $, .STERADIAN. ) SOLID_ANGLE_UNIT ( ) );
#214 = CARTESIAN_POINT ( 'NONE',  ( 42.14455981922948524, 20.00000000000000000, -62.56898773785207624 ) ) ;
#215 = EDGE_LOOP ( 'NONE', ( #173, #461, #634, #517, #51, #629, #335, #383, #199, #671, #430, #234, #441, #530, #649, #375, #231 ) ) ;
#216 = EDGE_CURVE ( 'NONE', #492, #140, #148, .T. ) ;
#217 = CARTESIAN_POINT ( 'NONE',  ( -75.00000000000000000, 20.00000000000000000, 0.000000000000000000 ) ) ;
#218 = VERTEX_POINT ( 'NONE', #473 ) ;
#219 = DIRECTION ( 'NONE',  ( 0.000000000000000000, -0.000000000000000000, 1.000000000000000000 ) ) ;
#220 = VERTEX_POINT ( 'NONE', #214 ) ;
#221 = DIRECTION ( 'NONE',  ( -0.000000000000000000, 1.000000000000000000, -0.000000000000000000 ) ) ;
#222 = EDGE_CURVE ( 'NONE', #2, #276, #262, .T. ) ;
#223 = ORIENTED_EDGE ( 'NONE', *, *, #428, .F. ) ;
#224 = DIRECTION ( 'NONE',  ( 7.930164461608260440E-16, 0.000000000000000000, 1.000000000000000000 ) ) ;
#225 = COORDINATED_UNIVERSAL_TIME_OFFSET ( 3, 30, .AHEAD. ) ;
#226 = ORIENTED_EDGE ( 'NONE', *, *, #420, .F. ) ;
#227 = AXIS2_PLACEMENT_3D ( 'NONE', #358, #75, #94 ) ;
#228 = CARTESIAN_POINT ( 'NONE',  ( -100.3066313848271420, 20.00000000000000000, -280.0000000000000000 ) ) ;
#229 = VERTEX_POINT ( 'NONE', #317 ) ;
#230 = DIRECTION ( 'NONE',  ( 0.000000000000000000, -1.000000000000000000, 0.000000000000000000 ) ) ;
#231 = ORIENTED_EDGE ( 'NONE', *, *, #521, .F. ) ;
#232 = CARTESIAN_POINT ( 'NONE',  ( -74.99999999999997158, 20.00000000000000000, -35.00000000000000000 ) ) ;
#233 = COORDINATED_UNIVERSAL_TIME_OFFSET ( 3, 30, .AHEAD. ) ;
#234 = ORIENTED_EDGE ( 'NONE', *, *, #271, .T. ) ;
#235 = AXIS2_PLACEMENT_3D ( 'NONE', #666, #81, #359 ) ;
#236 = CIRCLE ( 'NONE', #227, 50.00000000000000000 ) ;
#237 = PRODUCT_DEFINITION ( 'UNKNOWN', '', #438, #241 ) ;
#238 = DIRECTION ( 'NONE',  ( 0.000000000000000000, 0.000000000000000000, 1.000000000000000000 ) ) ;
#239 = APPROVAL_DATE_TIME ( #134, #119 ) ;
#240 = CARTESIAN_POINT ( 'NONE',  ( -6.056000119292352935, 20.00000000000000000, -92.85088487178899186 ) ) ;
#241 = DESIGN_CONTEXT ( 'detailed design', #50, 'design' ) ;
#242 = DIRECTION ( 'NONE',  ( 0.000000000000000000, 0.000000000000000000, 1.000000000000000000 ) ) ;
#243 = ORIENTED_EDGE ( 'NONE', *, *, #1, .T. ) ;
#244 = ORIENTED_EDGE ( 'NONE', *, *, #288, .T. ) ;
#245 = DIRECTION ( 'NONE',  ( 0.6427876096865444699, 0.000000000000000000, -0.7660444431189736836 ) ) ;
#246 = CARTESIAN_POINT ( 'NONE',  ( 34.13842609530240679, 0.000000000000000000, -130.6762042564047022 ) ) ;
#247 = EDGE_CURVE ( 'NONE', #512, #37, #101, .T. ) ;
#248 = PERSON_AND_ORGANIZATION_ROLE ( 'design_owner' ) ;
#249 = VECTOR ( 'NONE', #180, 1000.000000000000000 ) ;
#250 = VECTOR ( 'NONE', #648, 1000.000000000000000 ) ;
#251 = DIRECTION ( 'NONE',  ( 0.000000000000000000, 0.000000000000000000, 1.000000000000000000 ) ) ;
#252 = ADVANCED_BREP_SHAPE_REPRESENTATION ( 'RodLeft_Default_sldprt', ( #452, #141 ), #20 ) ;
#253 = LOCAL_TIME ( 13, 49, 15.00000000000000000, #233 ) ;
#254 = DIRECTION ( 'NONE',  ( 0.5960998872520778535, 0.000000000000000000, -0.8029102841650865852 ) ) ;
#255 = ORIENTED_EDGE ( 'NONE', *, *, #325, .F. ) ;
#256 = ADVANCED_FACE ( 'NONE', ( #584 ), #529, .F. ) ;
#257 = CYLINDRICAL_SURFACE ( 'NONE', #175, 15.00000000000001421 ) ;
#258 = LINE ( 'NONE', #367, #322 ) ;
#259 = ORIENTED_EDGE ( 'NONE', *, *, #389, .T. ) ;
#260 = DIRECTION ( 'NONE',  ( -0.000000000000000000, 1.000000000000000000, -0.000000000000000000 ) ) ;
#261 = EDGE_CURVE ( 'NONE', #220, #182, #8, .T. ) ;
#262 = LINE ( 'NONE', #516, #526 ) ;
#263 = CIRCLE ( 'NONE', #55, 15.00000000000001421 ) ;
#264 = ORIENTED_EDGE ( 'NONE', *, *, #216, .T. ) ;
#265 = ORGANIZATION ( 'UNSPECIFIED', 'UNSPECIFIED', '' ) ;
#266 = DIRECTION ( 'NONE',  ( 0.000000000000000000, 0.000000000000000000, 1.000000000000000000 ) ) ;
#267 = ADVANCED_FACE ( 'NONE', ( #640 ), #592, .T. ) ;
#268 = VERTEX_POINT ( 'NONE', #596 ) ;
#269 = LINE ( 'NONE', #167, #396 ) ;
#270 = ORIENTED_EDGE ( 'NONE', *, *, #196, .T. ) ;
#271 = EDGE_CURVE ( 'NONE', #153, #229, #338, .T. ) ;
#272 = LINE ( 'NONE', #115, #571 ) ;
#273 = ORIENTED_EDGE ( 'NONE', *, *, #483, .T. ) ;
#274 = VECTOR ( 'NONE', #113, 1000.000000000000000 ) ;
#275 = LINE ( 'NONE', #431, #250 ) ;
#276 = VERTEX_POINT ( 'NONE', #61 ) ;
#277 = EDGE_CURVE ( 'NONE', #477, #7, #272, .T. ) ;
#278 = PLANE ( 'NONE',  #308 ) ;
#279 = DATE_AND_TIME ( #345, #593 ) ;
#280 = EDGE_LOOP ( 'NONE', ( #144, #482, #407, #337 ) ) ;
#281 = CARTESIAN_POINT ( 'NONE',  ( 0.000000000000000000, 0.000000000000000000, 0.000000000000000000 ) ) ;
#282 = DATE_TIME_ROLE ( 'classification_date' ) ;
#283 = ORIENTED_EDGE ( 'NONE', *, *, #509, .T. ) ;
#284 = AXIS2_PLACEMENT_3D ( 'NONE', #83, #469, #522 ) ;
#285 = APPROVAL_PERSON_ORGANIZATION ( #398, #147, #604 ) ;
#286 = DIRECTION ( 'NONE',  ( 0.5960998872520777425, -0.000000000000000000, 0.8029102841650865852 ) ) ;
#287 = ORIENTED_EDGE ( 'NONE', *, *, #64, .T. ) ;
#288 = EDGE_CURVE ( 'NONE', #268, #7, #327, .T. ) ;
#289 = CARTESIAN_POINT ( 'NONE',  ( 93.47641404061870674, 20.00000000000000000, -210.6008641696704444 ) ) ;
#290 = PERSON_AND_ORGANIZATION_ROLE ( 'design_supplier' ) ;
#291 = FACE_OUTER_BOUND ( 'NONE', #680, .T. ) ;
#292 = ADVANCED_FACE ( 'NONE', ( #71 ), #9, .T. ) ;
#293 = LINE ( 'NONE', #397, #65 ) ;
#294 = PERSON_AND_ORGANIZATION ( #440, #265 ) ;
#295 = ORIENTED_EDGE ( 'NONE', *, *, #437, .T. ) ;
#296 = MECHANICAL_CONTEXT ( 'NONE', #379, 'mechanical' ) ;
#297 = VECTOR ( 'NONE', #38, 1000.000000000000000 ) ;
#298 = EDGE_CURVE ( 'NONE', #588, #168, #589, .T. ) ;
#299 = CYLINDRICAL_SURFACE ( 'NONE', #425, 116.4219912039375657 ) ;
#300 = VERTEX_POINT ( 'NONE', #434 ) ;
#301 = DIRECTION ( 'NONE',  ( 1.000000000000000000, 0.000000000000000000, 0.000000000000000000 ) ) ;
#302 = CC_DESIGN_DATE_AND_TIME_ASSIGNMENT ( #334, #28, ( #237 ) ) ;
#303 = ORIENTED_EDGE ( 'NONE', *, *, #315, .F. ) ;
#304 = CARTESIAN_POINT ( 'NONE',  ( 0.000000000000000000, 20.00000000000000000, -280.0000000000000000 ) ) ;
#305 = DIRECTION ( 'NONE',  ( -0.000000000000000000, -1.000000000000000000, -0.000000000000000000 ) ) ;
#306 = AXIS2_PLACEMENT_3D ( 'NONE', #132, #679, #676 ) ;
#307 = CARTESIAN_POINT ( 'NONE',  ( 0.000000000000000000, 0.000000000000000000, -280.0000000000000000 ) ) ;
#308 = AXIS2_PLACEMENT_3D ( 'NONE', #281, #14, #490 ) ;
#309 = CARTESIAN_POINT ( 'NONE',  ( -74.99999999999997158, 0.000000000000000000, -35.00000000000000000 ) ) ;
#310 = ORIENTED_EDGE ( 'NONE', *, *, #138, .T. ) ;
#311 = EDGE_CURVE ( 'NONE', #300, #37, #626, .T. ) ;
#312 = PLANE ( 'NONE',  #672 ) ;
#313 = CARTESIAN_POINT ( 'NONE',  ( -75.00000000000000000, 20.00000000000000000, 0.000000000000000000 ) ) ;
#314 = ORIENTED_EDGE ( 'NONE', *, *, #415, .T. ) ;
#315 = EDGE_CURVE ( 'NONE', #229, #218, #538, .T. ) ;
#316 = FACE_OUTER_BOUND ( 'NONE', #62, .T. ) ;
#317 = CARTESIAN_POINT ( 'NONE',  ( -75.00000000000000000, 20.00000000000000000, 0.000000000000000000 ) ) ;
#318 = ORIENTED_EDGE ( 'NONE', *, *, #64, .F. ) ;
#319 = DIRECTION ( 'NONE',  ( -1.000000000000000000, 0.000000000000000000, 0.000000000000000000 ) ) ;
#320 = AXIS2_PLACEMENT_3D ( 'NONE', #240, #563, #137 ) ;
#321 = CARTESIAN_POINT ( 'NONE',  ( 0.000000000000000000, 0.000000000000000000, -280.0000000000000000 ) ) ;
#322 = VECTOR ( 'NONE', #621, 1000.000000000000000 ) ;
#323 = ORIENTED_EDGE ( 'NONE', *, *, #35, .T. ) ;
#324 = DIRECTION ( 'NONE',  ( -7.930164461608260440E-16, 0.000000000000000000, 1.000000000000000000 ) ) ;
#325 = EDGE_CURVE ( 'NONE', #125, #512, #67, .T. ) ;
#326 = ORIENTED_EDGE ( 'NONE', *, *, #174, .F. ) ;
#327 = LINE ( 'NONE', #378, #249 ) ;
#328 = ORIENTED_EDGE ( 'NONE', *, *, #442, .T. ) ;
#329 = DIRECTION ( 'NONE',  ( 1.000000000000000000, 0.000000000000000000, 0.000000000000000000 ) ) ;
#330 = ORIENTED_EDGE ( 'NONE', *, *, #442, .F. ) ;
#331 = AXIS2_PLACEMENT_3D ( 'NONE', #121, #12, #117 ) ;
#332 = EDGE_CURVE ( 'NONE', #182, #70, #275, .T. ) ;
#333 = DIRECTION ( 'NONE',  ( 0.000000000000000000, 0.000000000000000000, 1.000000000000000000 ) ) ;
#334 = DATE_AND_TIME ( #651, #550 ) ;
#335 = ORIENTED_EDGE ( 'NONE', *, *, #311, .T. ) ;
#336 = LINE ( 'NONE', #6, #341 ) ;
#337 = ORIENTED_EDGE ( 'NONE', *, *, #332, .T. ) ;
#338 = LINE ( 'NONE', #544, #374 ) ;
#339 = PERSON_AND_ORGANIZATION ( #440, #265 ) ;
#340 = ORIENTED_EDGE ( 'NONE', *, *, #142, .F. ) ;
#341 = VECTOR ( 'NONE', #177, 1000.000000000000000 ) ;
#342 = DIRECTION ( 'NONE',  ( -0.7660444431189736836, 0.000000000000000000, -0.6427876096865444699 ) ) ;
#343 = LINE ( 'NONE', #669, #657 ) ;
#344 = FACE_OUTER_BOUND ( 'NONE', #631, .T. ) ;
#345 = CALENDAR_DATE ( 2026, 31, 7 ) ;
#346 = DIRECTION ( 'NONE',  ( -0.7660444431189736836, -0.000000000000000000, 0.6427876096865444699 ) ) ;
#347 = UNCERTAINTY_MEASURE_WITH_UNIT (LENGTH_MEASURE( 1.000000000000000082E-05 ), #103, 'distance_accuracy_value', 'NONE');
#348 = CARTESIAN_POINT ( 'NONE',  ( 0.000000000000000000, 0.000000000000000000, 0.000000000000000000 ) ) ;
#349 = CARTESIAN_POINT ( 'NONE',  ( -100.3066313848271420, 0.000000000000000000, -265.0000000000000000 ) ) ;
#350 = LINE ( 'NONE', #447, #41 ) ;
#351 = ORIENTED_EDGE ( 'NONE', *, *, #126, .T. ) ;
#352 = DIRECTION ( 'NONE',  ( 1.000000000000000000, 0.000000000000000000, 0.000000000000000000 ) ) ;
#353 = CIRCLE ( 'NONE', #373, 90.00000000000002842 ) ;
#354 = VECTOR ( 'NONE', #104, 1000.000000000000000 ) ;
#355 = CARTESIAN_POINT ( 'NONE',  ( -93.47641404061870674, 20.00000000000000000, -210.6008641696704444 ) ) ;
#356 = CARTESIAN_POINT ( 'NONE',  ( 0.000000000000000000, -127.2792206135786017, -280.0000000000000000 ) ) ;
#357 = ORIENTED_EDGE ( 'NONE', *, *, #261, .F. ) ;
#358 = CARTESIAN_POINT ( 'NONE',  ( 74.28394030355673294, 0.000000000000000000, -100.8712098938007671 ) ) ;
#359 = DIRECTION ( 'NONE',  ( 0.000000000000000000, 0.000000000000000000, 1.000000000000000000 ) ) ;
#360 = DIRECTION ( 'NONE',  ( 0.000000000000000000, 0.000000000000000000, 1.000000000000000000 ) ) ;
#361 = EDGE_CURVE ( 'NONE', #537, #645, #336, .T. ) ;
#362 = ORIENTED_EDGE ( 'NONE', *, *, #561, .F. ) ;
#363 = CIRCLE ( 'NONE', #165, 90.00000000000002842 ) ;
#364 = APPROVAL_PERSON_ORGANIZATION ( #559, #119, #92 ) ;
#365 = CARTESIAN_POINT ( 'NONE',  ( 90.00000000000002842, 20.00000000000000000, -280.0000000000000000 ) ) ;
#366 = ORIENTED_EDGE ( 'NONE', *, *, #415, .F. ) ;
#367 = CARTESIAN_POINT ( 'NONE',  ( 75.00000000000000000, 20.00000000000000000, 0.000000000000000000 ) ) ;
#368 = ORIENTED_EDGE ( 'NONE', *, *, #77, .T. ) ;
#369 = CARTESIAN_POINT ( 'NONE',  ( -90.00000000000002842, 20.00000000000000000, -280.0000000000000000 ) ) ;
#370 = CARTESIAN_POINT ( 'NONE',  ( 100.3066313848271420, 0.000000000000000000, -280.0000000000000000 ) ) ;
#371 = ORIENTED_EDGE ( 'NONE', *, *, #138, .F. ) ;
#372 = EDGE_CURVE ( 'NONE', #220, #477, #542, .T. ) ;
#373 = AXIS2_PLACEMENT_3D ( 'NONE', #29, #305, #506 ) ;
#374 = VECTOR ( 'NONE', #124, 1000.000000000000000 ) ;
#375 = ORIENTED_EDGE ( 'NONE', *, *, #261, .T. ) ;
#376 = DIRECTION ( 'NONE',  ( 0.000000000000000000, 0.000000000000000000, 1.000000000000000000 ) ) ;
#377 = ORIENTED_EDGE ( 'NONE', *, *, #277, .T. ) ;
#378 = CARTESIAN_POINT ( 'NONE',  ( 74.99999999999997158, 0.000000000000000000, -35.00000000000000000 ) ) ;
#379 = APPLICATION_CONTEXT ( 'configuration controlled 3d designs of mechanical parts and assemblies' ) ;
#380 = ADVANCED_FACE ( 'NONE', ( #386 ), #278, .F. ) ;
#381 = ORIENTED_EDGE ( 'NONE', *, *, #420, .T. ) ;
#382 = CARTESIAN_POINT ( 'NONE',  ( 74.99999999999997158, 20.00000000000000000, -35.00000000000000000 ) ) ;
#383 = ORIENTED_EDGE ( 'NONE', *, *, #247, .F. ) ;
#384 = VECTOR ( 'NONE', #136, 1000.000000000000000 ) ;
#385 = EDGE_CURVE ( 'NONE', #645, #122, #363, .T. ) ;
#386 = FACE_OUTER_BOUND ( 'NONE', #17, .T. ) ;
#387 = CALENDAR_DATE ( 2026, 31, 7 ) ;
#388 = ORIENTED_EDGE ( 'NONE', *, *, #487, .F. ) ;
#389 = EDGE_CURVE ( 'NONE', #7, #412, #269, .T. ) ;
#390 = CARTESIAN_POINT ( 'NONE',  ( 90.00000000000002842, -127.2792206135786017, -280.0000000000000000 ) ) ;
#391 = CALENDAR_DATE ( 2026, 31, 7 ) ;
#392 = VERTEX_POINT ( 'NONE', #493 ) ;
#393 = EDGE_CURVE ( 'NONE', #474, #300, #19, .T. ) ;
#394 = CARTESIAN_POINT ( 'NONE',  ( 6.056000119292352935, 20.00000000000000000, -92.85088487178899186 ) ) ;
#395 = FACE_OUTER_BOUND ( 'NONE', #590, .T. ) ;
#396 = VECTOR ( 'NONE', #224, 1000.000000000000000 ) ;
#397 = CARTESIAN_POINT ( 'NONE',  ( -75.00000000000000000, 20.00000000000000000, 0.000000000000000000 ) ) ;
#398 = PERSON_AND_ORGANIZATION ( #440, #265 ) ;
#399 = DIRECTION ( 'NONE',  ( -0.000000000000000000, -1.000000000000000000, -0.000000000000000000 ) ) ;
#400 = CARTESIAN_POINT ( 'NONE',  ( -100.3066313848271420, 0.000000000000000000, -280.0000000000000000 ) ) ;
#401 = DIRECTION ( 'NONE',  ( -0.000000000000000000, 1.000000000000000000, -0.000000000000000000 ) ) ;
#402 = LINE ( 'NONE', #607, #448 ) ;
#403 = DIRECTION ( 'NONE',  ( 0.6427876096865444699, -0.000000000000000000, 0.7660444431189736836 ) ) ;
#404 = VERTEX_POINT ( 'NONE', #481 ) ;
#405 = AXIS2_PLACEMENT_3D ( 'NONE', #232, #446, #133 ) ;
#406 = LINE ( 'NONE', #459, #535 ) ;
#407 = ORIENTED_EDGE ( 'NONE', *, *, #521, .T. ) ;
#408 = CARTESIAN_POINT ( 'NONE',  ( -6.056000119292352935, 0.000000000000000000, -92.85088487178899186 ) ) ;
#409 = CARTESIAN_POINT ( 'NONE',  ( 0.000000000000000000, 0.000000000000000000, -190.0000000000000000 ) ) ;
#410 = DIRECTION ( 'NONE',  ( 0.000000000000000000, 0.000000000000000000, -1.000000000000000000 ) ) ;
#411 = DIRECTION ( 'NONE',  ( -1.000000000000000000, 0.000000000000000000, 0.000000000000000000 ) ) ;
#412 = VERTEX_POINT ( 'NONE', #501 ) ;
#413 = VECTOR ( 'NONE', #527, 1000.000000000000000 ) ;
#414 = CARTESIAN_POINT ( 'NONE',  ( 0.000000000000000000, 20.00000000000000000, -280.0000000000000000 ) ) ;
#415 = EDGE_CURVE ( 'NONE', #585, #474, #263, .T. ) ;
#416 = ORIENTED_EDGE ( 'NONE', *, *, #57, .T. ) ;
#417 = DIRECTION ( 'NONE',  ( -1.000000000000000000, 0.000000000000000000, -0.000000000000000000 ) ) ;
#418 = DIRECTION ( 'NONE',  ( -1.000000000000000000, 0.000000000000000000, -0.000000000000000000 ) ) ;
#419 = ORIENTED_EDGE ( 'NONE', *, *, #44, .T. ) ;
#420 = EDGE_CURVE ( 'NONE', #229, #140, #293, .T. ) ;
#421 = DIRECTION ( 'NONE',  ( 0.000000000000000000, 0.000000000000000000, 1.000000000000000000 ) ) ;
#422 = CARTESIAN_POINT ( 'NONE',  ( 42.14455981922948524, 20.00000000000000000, -62.56898773785207624 ) ) ;
#423 = ORIENTED_EDGE ( 'NONE', *, *, #332, .F. ) ;
#424 = AXIS2_PLACEMENT_3D ( 'NONE', #609, #403, #135 ) ;
#425 = AXIS2_PLACEMENT_3D ( 'NONE', #562, #551, #242 ) ;
#426 = DIRECTION ( 'NONE',  ( -0.000000000000000000, -1.000000000000000000, -0.000000000000000000 ) ) ;
#427 = ORIENTED_EDGE ( 'NONE', *, *, #595, .F. ) ;
#428 = EDGE_CURVE ( 'NONE', #548, #489, #402, .T. ) ;
#429 = DIRECTION ( 'NONE',  ( 0.000000000000000000, 1.000000000000000000, 0.000000000000000000 ) ) ;
#430 = ORIENTED_EDGE ( 'NONE', *, *, #5, .T. ) ;
#431 = CARTESIAN_POINT ( 'NONE',  ( 34.13842609530240679, 0.000000000000000000, -130.6762042564046737 ) ) ;
#432 = ADVANCED_FACE ( 'NONE', ( #610 ), #299, .T. ) ;
#433 = ORIENTED_EDGE ( 'NONE', *, *, #389, .F. ) ;
#434 = CARTESIAN_POINT ( 'NONE',  ( -100.3066313848271420, 20.00000000000000000, -280.0000000000000000 ) ) ;
#435 = ORIENTED_EDGE ( 'NONE', *, *, #437, .F. ) ;
#436 = VECTOR ( 'NONE', #620, 1000.000000000000227 ) ;
#437 = EDGE_CURVE ( 'NONE', #140, #412, #406, .T. ) ;
#438 = PRODUCT_DEFINITION_FORMATION_WITH_SPECIFIED_SOURCE ( 'ANY', '', #145, .NOT_KNOWN. ) ;
#439 = CARTESIAN_POINT ( 'NONE',  ( 0.000000000000000000, 20.00000000000000000, -280.0000000000000000 ) ) ;
#440 = PERSON ( 'UNSPECIFIED', 'UNSPECIFIED', 'UNSPECIFIED', ('UNSPECIFIED'), ('UNSPECIFIED'), ('UNSPECIFIED') ) ;
#441 = ORIENTED_EDGE ( 'NONE', *, *, #315, .T. ) ;
#442 = EDGE_CURVE ( 'NONE', #70, #268, #236, .T. ) ;
#443 = DIRECTION ( 'NONE',  ( 0.000000000000000000, 0.000000000000000000, 1.000000000000000000 ) ) ;
#444 = APPROVAL_ROLE ( '' ) ;
#445 = ORIENTED_EDGE ( 'NONE', *, *, #509, .F. ) ;
#446 = DIRECTION ( 'NONE',  ( 1.000000000000000000, -0.000000000000000000, 7.930164461608260440E-16 ) ) ;
#447 = CARTESIAN_POINT ( 'NONE',  ( 74.99999999999997158, 20.00000000000000000, -35.00000000000000000 ) ) ;
#448 = VECTOR ( 'NONE', #194, 1000.000000000000000 ) ;
#449 = APPROVAL_PERSON_ORGANIZATION ( #76, #533, #444 ) ;
#450 = CARTESIAN_POINT ( 'NONE',  ( -34.13842609530240679, 20.00000000000000000, -130.6762042564046737 ) ) ;
#451 = EDGE_CURVE ( 'NONE', #588, #102, #653, .T. ) ;
#452 = MANIFOLD_SOLID_BREP ( 'Mirror2', #635 ) ;
#453 = APPROVAL_STATUS ( 'not_yet_approved' ) ;
#454 = CARTESIAN_POINT ( 'NONE',  ( 6.056000119292352935, 0.000000000000000000, -92.85088487178899186 ) ) ;
#455 = LINE ( 'NONE', #24, #129 ) ;
#456 = ADVANCED_FACE ( 'NONE', ( #344 ), #557, .T. ) ;
#457 = DIRECTION ( 'NONE',  ( 7.930164461608260440E-16, 0.000000000000000000, 1.000000000000000000 ) ) ;
#458 = ORIENTED_EDGE ( 'NONE', *, *, #288, .F. ) ;
#459 = CARTESIAN_POINT ( 'NONE',  ( -75.00000000000000000, 0.000000000000000000, 0.000000000000000000 ) ) ;
#460 = CARTESIAN_POINT ( 'NONE',  ( 115.1416731042012458, 0.000000000000000000, -262.7815462176484971 ) ) ;
#461 = ORIENTED_EDGE ( 'NONE', *, *, #582, .T. ) ;
#462 = APPROVAL_STATUS ( 'not_yet_approved' ) ;
#463 = EDGE_CURVE ( 'NONE', #585, #125, #208, .T. ) ;
#464 = AXIS2_PLACEMENT_3D ( 'NONE', #59, #429, #127 ) ;
#465 = CC_DESIGN_APPROVAL ( #119, ( #237 ) ) ;
#466 = CARTESIAN_POINT ( 'NONE',  ( -115.1416731042012458, 0.000000000000000000, -262.7815462176484971 ) ) ;
#467 = PLANE ( 'NONE',  #534 ) ;
#468 = EDGE_CURVE ( 'NONE', #404, #528, #507, .T. ) ;
#469 = DIRECTION ( 'NONE',  ( -0.000000000000000000, 1.000000000000000000, 0.000000000000000000 ) ) ;
#470 = LINE ( 'NONE', #414, #484 ) ;
#471 = ORIENTED_EDGE ( 'NONE', *, *, #663, .T. ) ;
#472 = FACE_OUTER_BOUND ( 'NONE', #108, .T. ) ;
#473 = CARTESIAN_POINT ( 'NONE',  ( 75.00000000000000000, 20.00000000000000000, 0.000000000000000000 ) ) ;
#474 = VERTEX_POINT ( 'NONE', #400 ) ;
#475 = AXIS2_PLACEMENT_3D ( 'NONE', #184, #566, #85 ) ;
#476 = CARTESIAN_POINT ( 'NONE',  ( 0.000000000000000000, 20.00000000000000000, -280.0000000000000000 ) ) ;
#477 = VERTEX_POINT ( 'NONE', #661 ) ;
#478 = DIRECTION ( 'NONE',  ( 0.000000000000000000, 1.000000000000000000, 0.000000000000000000 ) ) ;
#479 = DIRECTION ( 'NONE',  ( 1.000000000000000000, 0.000000000000000000, 0.000000000000000000 ) ) ;
#480 = EDGE_LOOP ( 'NONE', ( #614, #209, #68, #58 ) ) ;
#481 = CARTESIAN_POINT ( 'NONE',  ( -34.13842609530240679, 0.000000000000000000, -130.6762042564047022 ) ) ;
#482 = ORIENTED_EDGE ( 'NONE', *, *, #428, .T. ) ;
#483 = EDGE_CURVE ( 'NONE', #677, #102, #505, .T. ) ;
#484 = VECTOR ( 'NONE', #479, 1000.000000000000000 ) ;
#485 = DIRECTION ( 'NONE',  ( -0.000000000000000000, -1.000000000000000000, -0.000000000000000000 ) ) ;
#486 = ORIENTED_EDGE ( 'NONE', *, *, #325, .T. ) ;
#487 = EDGE_CURVE ( 'NONE', #512, #528, #668, .T. ) ;
#488 = CARTESIAN_POINT ( 'NONE',  ( 74.99999999999997158, 20.00000000000000000, -35.00000000000000000 ) ) ;
#489 = VERTEX_POINT ( 'NONE', #289 ) ;
#490 = DIRECTION ( 'NONE',  ( 0.000000000000000000, -0.000000000000000000, 1.000000000000000000 ) ) ;
#491 = SECURITY_CLASSIFICATION_LEVEL ( 'unclassified' ) ;
#492 = VERTEX_POINT ( 'NONE', #34 ) ;
#493 = CARTESIAN_POINT ( 'NONE',  ( -42.14455981922948524, 20.00000000000000000, -62.56898773785207624 ) ) ;
#494 = EDGE_CURVE ( 'NONE', #392, #159, #612, .T. ) ;
#495 = ORIENTED_EDGE ( 'NONE', *, *, #57, .F. ) ;
#496 = AXIS2_PLACEMENT_3D ( 'NONE', #642, #426, #376 ) ;
#497 = CARTESIAN_POINT ( 'NONE',  ( -42.14455981922948524, 0.000000000000000000, -62.56898773785207624 ) ) ;
#498 = ORIENTED_EDGE ( 'NONE', *, *, #468, .F. ) ;
#499 = DIRECTION ( 'NONE',  ( -0.000000000000000000, 1.000000000000000000, -0.000000000000000000 ) ) ;
#500 = CARTESIAN_POINT ( 'NONE',  ( 0.000000000000000000, 20.00000000000000000, -280.0000000000000000 ) ) ;
#501 = CARTESIAN_POINT ( 'NONE',  ( 75.00000000000000000, 0.000000000000000000, 0.000000000000000000 ) ) ;
#502 = PERSON_AND_ORGANIZATION ( #440, #265 ) ;
#503 = PLANE ( 'NONE',  #320 ) ;
#504 = AXIS2_PLACEMENT_3D ( 'NONE', #599, #169, #219 ) ;
#505 = LINE ( 'NONE', #183, #384 ) ;
#506 = DIRECTION ( 'NONE',  ( 0.000000000000000000, 0.000000000000000000, 1.000000000000000000 ) ) ;
#507 = LINE ( 'NONE', #450, #591 ) ;
#508 = DIRECTION ( 'NONE',  ( -0.5960998872520777425, 0.000000000000000000, 0.8029102841650865852 ) ) ;
#509 = EDGE_CURVE ( 'NONE', #37, #585, #455, .T. ) ;
#510 = PRODUCT_DEFINITION_SHAPE ( 'NONE', 'NONE',  #237 ) ;
#511 = DIRECTION ( 'NONE',  ( 0.000000000000000000, 0.000000000000000000, 1.000000000000000000 ) ) ;
#512 = VERTEX_POINT ( 'NONE', #355 ) ;
#513 = CC_DESIGN_PERSON_AND_ORGANIZATION_ASSIGNMENT ( #339, #546, ( #438 ) ) ;
#514 = AXIS2_PLACEMENT_3D ( 'NONE', #356, #401, #611 ) ;
#515 = AXIS2_PLACEMENT_3D ( 'NONE', #321, #155, #56 ) ;
#516 = CARTESIAN_POINT ( 'NONE',  ( 115.1416731042012458, -127.2792206135786017, -262.7815462176484971 ) ) ;
#517 = ORIENTED_EDGE ( 'NONE', *, *, #47, .F. ) ;
#518 = DIRECTION ( 'NONE',  ( 0.000000000000000000, 0.000000000000000000, 1.000000000000000000 ) ) ;
#519 = FACE_OUTER_BOUND ( 'NONE', #280, .T. ) ;
#520 = ORIENTED_EDGE ( 'NONE', *, *, #5, .F. ) ;
#521 = EDGE_CURVE ( 'NONE', #489, #182, #665, .T. ) ;
#522 = DIRECTION ( 'NONE',  ( 0.000000000000000000, 0.000000000000000000, 1.000000000000000000 ) ) ;
#523 = CARTESIAN_POINT ( 'NONE',  ( -74.28394030355673294, 20.00000000000000000, -100.8712098938007671 ) ) ;
#524 = ORIENTED_EDGE ( 'NONE', *, *, #483, .F. ) ;
#525 = DIRECTION ( 'NONE',  ( 0.000000000000000000, 0.000000000000000000, 1.000000000000000000 ) ) ;
#526 = VECTOR ( 'NONE', #210, 1000.000000000000000 ) ;
#527 = DIRECTION ( 'NONE',  ( -0.7660444431189736836, -0.000000000000000000, 0.6427876096865444699 ) ) ;
#528 = VERTEX_POINT ( 'NONE', #130 ) ;
#529 = CYLINDRICAL_SURFACE ( 'NONE', #464, 50.00000000000000000 ) ;
#530 = ORIENTED_EDGE ( 'NONE', *, *, #1, .F. ) ;
#531 = DIRECTION ( 'NONE',  ( -7.930164461608260440E-16, 0.000000000000000000, -1.000000000000000000 ) ) ;
#532 = EDGE_LOOP ( 'NONE', ( #78, #498, #624, #613 ) ) ;
#533 = APPROVAL ( #453, 'UNSPECIFIED' ) ;
#534 = AXIS2_PLACEMENT_3D ( 'NONE', #49, #674, #254 ) ;
#535 = VECTOR ( 'NONE', #617, 1000.000000000000000 ) ;
#536 = DIRECTION ( 'NONE',  ( -0.000000000000000000, 1.000000000000000000, -0.000000000000000000 ) ) ;
#537 = VERTEX_POINT ( 'NONE', #79 ) ;
#538 = LINE ( 'NONE', #217, #636 ) ;
#539 = COORDINATED_UNIVERSAL_TIME_OFFSET ( 3, 30, .AHEAD. ) ;
#540 = EDGE_LOOP ( 'NONE', ( #433, #569, #243, #574 ) ) ;
#541 = ADVANCED_FACE ( 'NONE', ( #656 ), #27, .F. ) ;
#542 = LINE ( 'NONE', #382, #198 ) ;
#543 = ORIENTED_EDGE ( 'NONE', *, *, #451, .T. ) ;
#544 = CARTESIAN_POINT ( 'NONE',  ( -74.99999999999997158, 20.00000000000000000, -35.00000000000000000 ) ) ;
#545 = AXIS2_PLACEMENT_3D ( 'NONE', #523, #158, #360 ) ;
#546 = PERSON_AND_ORGANIZATION_ROLE ( 'creator' ) ;
#547 = AXIS2_PLACEMENT_3D ( 'NONE', #207, #576, #266 ) ;
#548 = VERTEX_POINT ( 'NONE', #553 ) ;
#549 = AXIS2_PLACEMENT_3D ( 'NONE', #488, #586, #531 ) ;
#550 = LOCAL_TIME ( 13, 49, 15.00000000000000000, #539 ) ;
#551 = DIRECTION ( 'NONE',  ( -0.000000000000000000, 1.000000000000000000, -0.000000000000000000 ) ) ;
#552 = CYLINDRICAL_SURFACE ( 'NONE', #235, 50.00000000000000000 ) ;
#553 = CARTESIAN_POINT ( 'NONE',  ( 93.47641404061870674, 0.000000000000000000, -210.6008641696704444 ) ) ;
#554 = DATE_AND_TIME ( #387, #66 ) ;
#555 = FACE_OUTER_BOUND ( 'NONE', #82, .T. ) ;
#556 = DIRECTION ( 'NONE',  ( 0.000000000000000000, 0.000000000000000000, 1.000000000000000000 ) ) ;
#557 = PLANE ( 'NONE',  #32 ) ;
#558 = CARTESIAN_POINT ( 'NONE',  ( -115.1416731042012458, 20.00000000000000000, -262.7815462176484971 ) ) ;
#559 = PERSON_AND_ORGANIZATION ( #440, #265 ) ;
#560 = CIRCLE ( 'NONE', #647, 15.00000000000001421 ) ;
#561 = EDGE_CURVE ( 'NONE', #489, #276, #89, .T. ) ;
#562 = CARTESIAN_POINT ( 'NONE',  ( 0.000000000000000000, -127.2792206135786017, -280.0000000000000000 ) ) ;
#563 = DIRECTION ( 'NONE',  ( 0.8029102841650865852, 0.000000000000000000, -0.5960998872520778535 ) ) ;
#564 = ORIENTED_EDGE ( 'NONE', *, *, #211, .F. ) ;
#565 = ADVANCED_FACE ( 'NONE', ( #154 ), #257, .T. ) ;
#566 = DIRECTION ( 'NONE',  ( 0.000000000000000000, 1.000000000000000000, 0.000000000000000000 ) ) ;
#567 = CYLINDRICAL_SURFACE ( 'NONE', #660, 116.4219912039375657 ) ;
#568 = CARTESIAN_POINT ( 'NONE',  ( 0.000000000000000000, 20.00000000000000000, -190.0000000000000000 ) ) ;
#569 = ORIENTED_EDGE ( 'NONE', *, *, #277, .F. ) ;
#570 = CIRCLE ( 'NONE', #545, 50.00000000000000000 ) ;
#571 = VECTOR ( 'NONE', #485, 1000.000000000000000 ) ;
#572 = LINE ( 'NONE', #307, #166 ) ;
#573 = CARTESIAN_POINT ( 'NONE',  ( 0.000000000000000000, -127.2792206135786017, -190.0000000000000000 ) ) ;
#574 = ORIENTED_EDGE ( 'NONE', *, *, #211, .T. ) ;
#575 = CYLINDRICAL_SURFACE ( 'NONE', #74, 15.00000000000001421 ) ;
#576 = DIRECTION ( 'NONE',  ( -0.000000000000000000, -1.000000000000000000, -0.000000000000000000 ) ) ;
#577 = ORIENTED_EDGE ( 'NONE', *, *, #393, .F. ) ;
#578 = DIRECTION ( 'NONE',  ( -0.000000000000000000, 1.000000000000000000, -0.000000000000000000 ) ) ;
#579 = LINE ( 'NONE', #422, #274 ) ;
#580 = ORIENTED_EDGE ( 'NONE', *, *, #494, .T. ) ;
#581 = AXIS2_PLACEMENT_3D ( 'NONE', #143, #88, #238 ) ;
#582 = EDGE_CURVE ( 'NONE', #276, #677, #560, .T. ) ;
#583 = SECURITY_CLASSIFICATION ( '', '', #491 ) ;
#584 = FACE_OUTER_BOUND ( 'NONE', #128, .T. ) ;
#585 = VERTEX_POINT ( 'NONE', #466 ) ;
#586 = DIRECTION ( 'NONE',  ( 1.000000000000000000, 0.000000000000000000, -7.930164461608260440E-16 ) ) ;
#587 = PRODUCT_RELATED_PRODUCT_CATEGORY ( 'detail', '', ( #145 ) ) ;
#588 = VERTEX_POINT ( 'NONE', #201 ) ;
#589 = LINE ( 'NONE', #390, #112 ) ;
#590 = EDGE_LOOP ( 'NONE', ( #471, #156, #326, #4 ) ) ;
#591 = VECTOR ( 'NONE', #499, 1000.000000000000000 ) ;
#592 = PLANE ( 'NONE',  #549 ) ;
#593 = LOCAL_TIME ( 13, 49, 15.00000000000000000, #225 ) ;
#594 = ORIENTED_EDGE ( 'NONE', *, *, #247, .T. ) ;
#595 = EDGE_CURVE ( 'NONE', #125, #404, #203, .T. ) ;
#596 = CARTESIAN_POINT ( 'NONE',  ( 42.14455981922948524, 0.000000000000000000, -62.56898773785207624 ) ) ;
#597 = SHAPE_DEFINITION_REPRESENTATION ( #510, #252 ) ;
#598 = EDGE_LOOP ( 'NONE', ( #295, #564, #303, #381 ) ) ;
#599 = CARTESIAN_POINT ( 'NONE',  ( 0.000000000000000000, 20.00000000000000000, 0.000000000000000000 ) ) ;
#600 = DATE_AND_TIME ( #391, #253 ) ;
#601 = ORIENTED_EDGE ( 'NONE', *, *, #451, .F. ) ;
#602 = DIRECTION ( 'NONE',  ( -0.5960998872520777425, 0.000000000000000000, 0.8029102841650865852 ) ) ;
#603 = ADVANCED_FACE ( 'NONE', ( #316 ), #575, .T. ) ;
#604 = APPROVAL_ROLE ( '' ) ;
#605 = VECTOR ( 'NONE', #221, 1000.000000000000000 ) ;
#606 = PLANE ( 'NONE',  #306 ) ;
#607 = CARTESIAN_POINT ( 'NONE',  ( 93.47641404061870674, -127.2792206135786017, -210.6008641696704444 ) ) ;
#608 = PERSON_AND_ORGANIZATION_ROLE ( 'creator' ) ;
#609 = CARTESIAN_POINT ( 'NONE',  ( -74.99999999999997158, 20.00000000000000000, -35.00000000000000000 ) ) ;
#610 = FACE_OUTER_BOUND ( 'NONE', #96, .T. ) ;
#611 = DIRECTION ( 'NONE',  ( 0.000000000000000000, 0.000000000000000000, 1.000000000000000000 ) ) ;
#612 = LINE ( 'NONE', #497, #297 ) ;
#613 = ORIENTED_EDGE ( 'NONE', *, *, #494, .F. ) ;
#614 = ORIENTED_EDGE ( 'NONE', *, *, #189, .F. ) ;
#615 = CC_DESIGN_SECURITY_CLASSIFICATION ( #583, ( #438 ) ) ;
#616 = ADVANCED_FACE ( 'NONE', ( #622 ), #312, .T. ) ;
#617 = DIRECTION ( 'NONE',  ( 1.000000000000000000, 0.000000000000000000, 0.000000000000000000 ) ) ;
#618 = CARTESIAN_POINT ( 'NONE',  ( 74.99999999999997158, 0.000000000000000000, -35.00000000000000000 ) ) ;
#619 = EDGE_LOOP ( 'NONE', ( #351, #273, #601, #163 ) ) ;
#620 = DIRECTION ( 'NONE',  ( 0.5960998872520777425, -0.000000000000000000, 0.8029102841650865852 ) ) ;
#621 = DIRECTION ( 'NONE',  ( -0.000000000000000000, -1.000000000000000000, -0.000000000000000000 ) ) ;
#622 = FACE_OUTER_BOUND ( 'NONE', #619, .T. ) ;
#623 = DIRECTION ( 'NONE',  ( 0.000000000000000000, 0.000000000000000000, -1.000000000000000000 ) ) ;
#624 = ORIENTED_EDGE ( 'NONE', *, *, #35, .F. ) ;
#625 = AXIS2_PLACEMENT_3D ( 'NONE', #313, #623, #418 ) ;
#626 = CIRCLE ( 'NONE', #331, 15.00000000000001421 ) ;
#627 =( NAMED_UNIT ( * ) PLANE_ANGLE_UNIT ( ) SI_UNIT ( $, .RADIAN. ) );
#628 = CARTESIAN_POINT ( 'NONE',  ( -74.99999999999997158, 20.00000000000000000, -35.00000000000000000 ) ) ;
#629 = ORIENTED_EDGE ( 'NONE', *, *, #174, .T. ) ;
#630 = CARTESIAN_POINT ( 'NONE',  ( 0.000000000000000000, 20.00000000000000000, -280.0000000000000000 ) ) ;
#631 = EDGE_LOOP ( 'NONE', ( #458, #310, #114, #377 ) ) ;
#632 = ADVANCED_FACE ( 'NONE', ( #472 ), #567, .T. ) ;
#633 = DIRECTION ( 'NONE',  ( 0.000000000000000000, 0.000000000000000000, 1.000000000000000000 ) ) ;
#634 = ORIENTED_EDGE ( 'NONE', *, *, #126, .F. ) ;
#635 = CLOSED_SHELL ( 'NONE', ( #15, #292, #380, #109, #616, #87, #541, #123, #93, #23, #11, #632, #655, #603, #456, #267, #256, #432, #565 ) ) ;
#636 = VECTOR ( 'NONE', #329, 1000.000000000000000 ) ;
#637 = CC_DESIGN_PERSON_AND_ORGANIZATION_ASSIGNMENT ( #294, #608, ( #237 ) ) ;
#638 = VECTOR ( 'NONE', #411, 1000.000000000000000 ) ;
#639 = CC_DESIGN_APPROVAL ( #533, ( #583 ) ) ;
#640 = FACE_OUTER_BOUND ( 'NONE', #540, .T. ) ;
#641 = ORIENTED_EDGE ( 'NONE', *, *, #222, .F. ) ;
#642 = CARTESIAN_POINT ( 'NONE',  ( 74.28394030355673294, 20.00000000000000000, -100.8712098938007671 ) ) ;
#643 = ORIENTED_EDGE ( 'NONE', *, *, #463, .T. ) ;
#644 = DIRECTION ( 'NONE',  ( 0.7660444431189736836, 0.000000000000000000, 0.6427876096865444699 ) ) ;
#645 = VERTEX_POINT ( 'NONE', #369 ) ;
#646 = AXIS2_PLACEMENT_3D ( 'NONE', #500, #95, #39 ) ;
#647 = AXIS2_PLACEMENT_3D ( 'NONE', #40, #478, #511 ) ;
#648 = DIRECTION ( 'NONE',  ( 0.000000000000000000, -1.000000000000000000, 0.000000000000000000 ) ) ;
#649 = ORIENTED_EDGE ( 'NONE', *, *, #372, .F. ) ;
#650 = DIRECTION ( 'NONE',  ( -0.000000000000000000, 1.000000000000000000, 0.000000000000000000 ) ) ;
#651 = CALENDAR_DATE ( 2026, 31, 7 ) ;
#652 = ORIENTED_EDGE ( 'NONE', *, *, #142, .T. ) ;
#653 = LINE ( 'NONE', #139, #18 ) ;
#654 = PLANE ( 'NONE',  #424 ) ;
#655 = ADVANCED_FACE ( 'NONE', ( #160 ), #99, .F. ) ;
#656 = FACE_OUTER_BOUND ( 'NONE', #25, .T. ) ;
#657 = VECTOR ( 'NONE', #346, 1000.000000000000000 ) ;
#658 = AXIS2_PLACEMENT_3D ( 'NONE', #476, #682, #633 ) ;
#659 = LINE ( 'NONE', #190, #185 ) ;
#660 = AXIS2_PLACEMENT_3D ( 'NONE', #149, #260, #157 ) ;
#661 = CARTESIAN_POINT ( 'NONE',  ( 74.99999999999997158, 20.00000000000000000, -35.00000000000000000 ) ) ;
#662 = FACE_OUTER_BOUND ( 'NONE', #532, .T. ) ;
#663 = EDGE_CURVE ( 'NONE', #537, #474, #572, .T. ) ;
#664 = PERSON_AND_ORGANIZATION ( #440, #265 ) ;
#665 = LINE ( 'NONE', #394, #681 ) ;
#666 = CARTESIAN_POINT ( 'NONE',  ( -74.28394030355673294, 20.00000000000000000, -100.8712098938007671 ) ) ;
#667 = CC_DESIGN_DATE_AND_TIME_ASSIGNMENT ( #554, #282, ( #583 ) ) ;
#668 = LINE ( 'NONE', #188, #43 ) ;
#669 = CARTESIAN_POINT ( 'NONE',  ( -74.99999999999997158, 20.00000000000000000, -35.00000000000000000 ) ) ;
#670 = CIRCLE ( 'NONE', #475, 50.00000000000000000 ) ;
#671 = ORIENTED_EDGE ( 'NONE', *, *, #106, .T. ) ;
#672 = AXIS2_PLACEMENT_3D ( 'NONE', #304, #410, #417 ) ;
#673 = CC_DESIGN_APPROVAL ( #147, ( #438 ) ) ;
#674 = DIRECTION ( 'NONE',  ( 0.8029102841650865852, -0.000000000000000000, 0.5960998872520778535 ) ) ;
#675 = DIRECTION ( 'NONE',  ( -0.000000000000000000, 1.000000000000000000, -0.000000000000000000 ) ) ;
#676 = DIRECTION ( 'NONE',  ( 1.000000000000000000, 0.000000000000000000, -0.000000000000000000 ) ) ;
#677 = VERTEX_POINT ( 'NONE', #48 ) ;
#678 = CARTESIAN_POINT ( 'NONE',  ( 100.3066313848271420, -127.2792206135786017, -265.0000000000000000 ) ) ;
#679 = DIRECTION ( 'NONE',  ( 0.000000000000000000, -0.000000000000000000, 1.000000000000000000 ) ) ;
#680 = EDGE_LOOP ( 'NONE', ( #388, #255, #46, #118 ) ) ;
#681 = VECTOR ( 'NONE', #602, 1000.000000000000227 ) ;
#682 = DIRECTION ( 'NONE',  ( -0.000000000000000000, -1.000000000000000000, -0.000000000000000000 ) ) ;
ENDSEC;
END-ISO-10303-21;
