ISO-10303-21;
HEADER;
FILE_DESCRIPTION (( 'STEP AP203' ),
    '1' );
FILE_NAME ('RodMiddle_Default_sldprt.STEP',
    '2026-07-23T12:35:20',
    ( '' ),
    ( '' ),
    'SwSTEP 2.0',
    'SolidWorks 2025',
    '' );
FILE_SCHEMA (( 'CONFIG_CONTROL_DESIGN' ));
ENDSEC;

DATA;
#1 = DIRECTION ( 'NONE',  ( -0.000000000000000000, 1.000000000000000000, -0.000000000000000000 ) ) ;
#2 = EDGE_CURVE ( 'NONE', #634, #669, #59, .T. ) ;
#3 = CARTESIAN_POINT ( 'NONE',  ( -74.28394030355673294, 20.00000000000000000, -100.8712098938007671 ) ) ;
#4 = DIRECTION ( 'NONE',  ( -0.000000000000000000, 1.000000000000000000, -0.000000000000000000 ) ) ;
#5 = CC_DESIGN_DATE_AND_TIME_ASSIGNMENT ( #354, #501, ( #254 ) ) ;
#6 = DIRECTION ( 'NONE',  ( -0.000000000000000000, 1.000000000000000000, -0.000000000000000000 ) ) ;
#7 = VECTOR ( 'NONE', #188, 1000.000000000000000 ) ;
#8 = ORIENTED_EDGE ( 'NONE', *, *, #473, .F. ) ;
#9 = AXIS2_PLACEMENT_3D ( 'NONE', #20, #122, #440 ) ;
#10 = DIRECTION ( 'NONE',  ( 0.000000000000000000, 0.000000000000000000, 1.000000000000000000 ) ) ;
#11 = DIRECTION ( 'NONE',  ( 0.000000000000000000, 0.000000000000000000, 1.000000000000000000 ) ) ;
#12 = VERTEX_POINT ( 'NONE', #513 ) ;
#13 = ADVANCED_FACE ( 'NONE', ( #558 ), #191, .F. ) ;
#14 = FACE_OUTER_BOUND ( 'NONE', #299, .T. ) ;
#15 = CARTESIAN_POINT ( 'NONE',  ( 74.28394030355673294, 20.00000000000000000, -100.8712098938007671 ) ) ;
#16 = ORIENTED_EDGE ( 'NONE', *, *, #668, .T. ) ;
#17 = CIRCLE ( 'NONE', #661, 90.00000000000002842 ) ;
#18 = EDGE_CURVE ( 'NONE', #628, #450, #250, .T. ) ;
#19 = DIRECTION ( 'NONE',  ( 0.000000000000000000, 0.000000000000000000, 1.000000000000000000 ) ) ;
#20 = CARTESIAN_POINT ( 'NONE',  ( -100.3066313848271420, 19.99999999999998934, -265.0000000000000000 ) ) ;
#21 = ORIENTED_EDGE ( 'NONE', *, *, #198, .T. ) ;
#22 = APPROVAL_DATE_TIME ( #443, #148 ) ;
#23 = VECTOR ( 'NONE', #666, 1000.000000000000000 ) ;
#24 = CARTESIAN_POINT ( 'NONE',  ( 75.00000000000000000, 0.000000000000000000, 0.000000000000000000 ) ) ;
#25 = FACE_OUTER_BOUND ( 'NONE', #126, .T. ) ;
#26 = EDGE_CURVE ( 'NONE', #81, #12, #453, .T. ) ;
#27 = CARTESIAN_POINT ( 'NONE',  ( -42.14455981922948524, 20.00000000000000000, -62.56898773785207624 ) ) ;
#28 = CARTESIAN_POINT ( 'NONE',  ( -115.1416731042012458, 0.000000000000000000, -262.7815462176484971 ) ) ;
#29 = DIRECTION ( 'NONE',  ( 0.000000000000000000, 1.000000000000000000, 0.000000000000000000 ) ) ;
#30 = CC_DESIGN_APPROVAL ( #127, ( #254 ) ) ;
#31 = DIRECTION ( 'NONE',  ( 0.000000000000000000, -1.000000000000000000, 0.000000000000000000 ) ) ;
#32 = VECTOR ( 'NONE', #307, 1000.000000000000000 ) ;
#33 = VERTEX_POINT ( 'NONE', #27 ) ;
#34 = ADVANCED_FACE ( 'NONE', ( #240 ), #132, .F. ) ;
#35 = PERSON_AND_ORGANIZATION_ROLE ( 'design_owner' ) ;
#36 = VERTEX_POINT ( 'NONE', #467 ) ;
#37 = CARTESIAN_POINT ( 'NONE',  ( -75.00000000000000000, 20.00000000000000000, 0.000000000000000000 ) ) ;
#38 = APPROVAL_DATE_TIME ( #670, #413 ) ;
#39 = CARTESIAN_POINT ( 'NONE',  ( -42.14455981922948524, 0.000000000000000000, -62.56898773785207624 ) ) ;
#40 = ADVANCED_FACE ( 'NONE', ( #209 ), #564, .F. ) ;
#41 = DIRECTION ( 'NONE',  ( 0.000000000000000000, 0.000000000000000000, 1.000000000000000000 ) ) ;
#42 = AXIS2_PLACEMENT_3D ( 'NONE', #525, #366, #368 ) ;
#43 = DIRECTION ( 'NONE',  ( 0.000000000000000000, 0.000000000000000000, 1.000000000000000000 ) ) ;
#44 = PRODUCT_RELATED_PRODUCT_CATEGORY ( 'detail', '', ( #260 ) ) ;
#45 = CARTESIAN_POINT ( 'NONE',  ( 100.3066313848271420, 0.000000000000000000, -265.0000000000000000 ) ) ;
#46 = ORIENTED_EDGE ( 'NONE', *, *, #288, .F. ) ;
#47 = PERSON_AND_ORGANIZATION ( #508, #175 ) ;
#48 = DIRECTION ( 'NONE',  ( -0.000000000000000000, -1.000000000000000000, -0.000000000000000000 ) ) ;
#49 = AXIS2_PLACEMENT_3D ( 'NONE', #185, #349, #395 ) ;
#50 = DIRECTION ( 'NONE',  ( 0.000000000000000000, 1.000000000000000000, 0.000000000000000000 ) ) ;
#51 = VERTEX_POINT ( 'NONE', #561 ) ;
#52 = CYLINDRICAL_SURFACE ( 'NONE', #679, 90.00000000000002842 ) ;
#53 = VECTOR ( 'NONE', #579, 1000.000000000000000 ) ;
#54 = EDGE_CURVE ( 'NONE', #81, #87, #672, .T. ) ;
#55 = CARTESIAN_POINT ( 'NONE',  ( -74.99999999999997158, 20.00000000000000000, -35.00000000000000000 ) ) ;
#56 = LINE ( 'NONE', #64, #306 ) ;
#57 = DIRECTION ( 'NONE',  ( 0.000000000000000000, -0.000000000000000000, 1.000000000000000000 ) ) ;
#58 = ORIENTED_EDGE ( 'NONE', *, *, #205, .F. ) ;
#59 = CIRCLE ( 'NONE', #146, 116.4219912039375657 ) ;
#60 = CARTESIAN_POINT ( 'NONE',  ( -100.3066313848271420, 0.000000000000000000, -280.0000000000000000 ) ) ;
#61 = CARTESIAN_POINT ( 'NONE',  ( 74.99999999999997158, 20.00000000000000000, -35.00000000000000000 ) ) ;
#62 = EDGE_CURVE ( 'NONE', #180, #426, #17, .T. ) ;
#63 = VECTOR ( 'NONE', #433, 1000.000000000000000 ) ;
#64 = CARTESIAN_POINT ( 'NONE',  ( -74.99999999999997158, 20.00000000000000000, -35.00000000000000000 ) ) ;
#65 = PLANE ( 'NONE',  #138 ) ;
#66 = ORIENTED_EDGE ( 'NONE', *, *, #590, .F. ) ;
#67 = FACE_OUTER_BOUND ( 'NONE', #123, .T. ) ;
#68 = LINE ( 'NONE', #495, #196 ) ;
#69 = ORIENTED_EDGE ( 'NONE', *, *, #424, .T. ) ;
#70 = APPLICATION_CONTEXT ( 'configuration controlled 3d designs of mechanical parts and assemblies' ) ;
#71 = PERSON_AND_ORGANIZATION ( #508, #175 ) ;
#72 = CARTESIAN_POINT ( 'NONE',  ( -74.99999999999997158, 20.00000000000000000, -35.00000000000000000 ) ) ;
#73 = ORIENTED_EDGE ( 'NONE', *, *, #505, .F. ) ;
#74 = EDGE_CURVE ( 'NONE', #115, #33, #400, .T. ) ;
#75 = MECHANICAL_CONTEXT ( 'NONE', #681, 'mechanical' ) ;
#76 = VECTOR ( 'NONE', #592, 1000.000000000000000 ) ;
#77 = DIRECTION ( 'NONE',  ( -1.000000000000000000, 0.000000000000000000, -0.000000000000000000 ) ) ;
#78 = COORDINATED_UNIVERSAL_TIME_OFFSET ( 3, 30, .AHEAD. ) ;
#79 = EDGE_CURVE ( 'NONE', #342, #194, #157, .T. ) ;
#80 = ORIENTED_EDGE ( 'NONE', *, *, #131, .T. ) ;
#81 = VERTEX_POINT ( 'NONE', #520 ) ;
#82 = AXIS2_PLACEMENT_3D ( 'NONE', #141, #48, #563 ) ;
#83 = ADVANCED_BREP_SHAPE_REPRESENTATION ( 'RodMiddle_Default_sldprt', ( #88, #472 ), #331 ) ;
#84 = ORIENTED_EDGE ( 'NONE', *, *, #143, .F. ) ;
#85 = EDGE_CURVE ( 'NONE', #33, #158, #361, .T. ) ;
#86 = PERSON_AND_ORGANIZATION_ROLE ( 'classification_officer' ) ;
#87 = VERTEX_POINT ( 'NONE', #313 ) ;
#88 = MANIFOLD_SOLID_BREP ( 'Mirror2', #359 ) ;
#89 = CARTESIAN_POINT ( 'NONE',  ( 100.3066313848271420, 0.000000000000000000, -280.0000000000000000 ) ) ;
#90 = CARTESIAN_POINT ( 'NONE',  ( 0.000000000000000000, 20.00000000000000000, -280.0000000000000000 ) ) ;
#91 = EDGE_CURVE ( 'NONE', #51, #342, #343, .T. ) ;
#92 = VECTOR ( 'NONE', #223, 1000.000000000000000 ) ;
#93 = CARTESIAN_POINT ( 'NONE',  ( 115.1416731042012458, -127.2792206135786017, -262.7815462176484971 ) ) ;
#94 = VECTOR ( 'NONE', #31, 1000.000000000000000 ) ;
#95 = ORIENTED_EDGE ( 'NONE', *, *, #74, .F. ) ;
#96 = DIRECTION ( 'NONE',  ( -0.5960998872520777425, 0.000000000000000000, 0.8029102841650865852 ) ) ;
#97 = DIRECTION ( 'NONE',  ( 0.000000000000000000, 1.000000000000000000, 0.000000000000000000 ) ) ;
#98 = EDGE_LOOP ( 'NONE', ( #285, #247, #66, #682 ) ) ;
#99 = CARTESIAN_POINT ( 'NONE',  ( -74.99999999999997158, 20.00000000000000000, -35.00000000000000000 ) ) ;
#100 = DIRECTION ( 'NONE',  ( 0.000000000000000000, 0.000000000000000000, 1.000000000000000000 ) ) ;
#101 = CARTESIAN_POINT ( 'NONE',  ( 115.1416731042012458, 20.00000000000000000, -262.7815462176484971 ) ) ;
#102 = ORIENTED_EDGE ( 'NONE', *, *, #170, .T. ) ;
#103 = AXIS2_PLACEMENT_3D ( 'NONE', #578, #644, #229 ) ;
#104 = EDGE_CURVE ( 'NONE', #596, #634, #203, .T. ) ;
#105 = DIRECTION ( 'NONE',  ( -0.000000000000000000, -1.000000000000000000, -0.000000000000000000 ) ) ;
#106 = FACE_OUTER_BOUND ( 'NONE', #289, .T. ) ;
#107 = EDGE_LOOP ( 'NONE', ( #262, #465, #631, #619 ) ) ;
#108 = EDGE_CURVE ( 'NONE', #36, #553, #415, .T. ) ;
#109 = CARTESIAN_POINT ( 'NONE',  ( 100.3066313848271420, 20.00000000000000000, -280.0000000000000000 ) ) ;
#110 = DIRECTION ( 'NONE',  ( 0.5960998872520777425, -0.000000000000000000, 0.8029102841650865852 ) ) ;
#111 = ORIENTED_EDGE ( 'NONE', *, *, #2, .T. ) ;
#112 = CARTESIAN_POINT ( 'NONE',  ( 0.000000000000000000, -127.2792206135786017, -280.0000000000000000 ) ) ;
#113 = EDGE_CURVE ( 'NONE', #12, #221, #526, .T. ) ;
#114 = FACE_OUTER_BOUND ( 'NONE', #370, .T. ) ;
#115 = VERTEX_POINT ( 'NONE', #425 ) ;
#116 = VECTOR ( 'NONE', #110, 1000.000000000000227 ) ;
#117 = UNCERTAINTY_MEASURE_WITH_UNIT (LENGTH_MEASURE( 1.000000000000000082E-05 ), #398, 'distance_accuracy_value', 'NONE');
#118 = LINE ( 'NONE', #479, #243 ) ;
#119 = DIRECTION ( 'NONE',  ( 1.000000000000000000, 0.000000000000000000, -0.000000000000000000 ) ) ;
#120 = ORIENTED_EDGE ( 'NONE', *, *, #239, .T. ) ;
#121 = DIRECTION ( 'NONE',  ( 0.000000000000000000, 1.000000000000000000, 0.000000000000000000 ) ) ;
#122 = DIRECTION ( 'NONE',  ( 0.000000000000000000, 1.000000000000000000, 0.000000000000000000 ) ) ;
#123 = EDGE_LOOP ( 'NONE', ( #490, #541, #281, #147 ) ) ;
#124 = EDGE_CURVE ( 'NONE', #503, #342, #162, .T. ) ;
#125 = LINE ( 'NONE', #401, #599 ) ;
#126 = EDGE_LOOP ( 'NONE', ( #80, #399, #392, #404 ) ) ;
#127 = APPROVAL ( #554, 'UNSPECIFIED' ) ;
#128 = VECTOR ( 'NONE', #154, 1000.000000000000000 ) ;
#129 = ORIENTED_EDGE ( 'NONE', *, *, #91, .T. ) ;
#130 = CARTESIAN_POINT ( 'NONE',  ( 0.000000000000000000, 20.00000000000000000, -280.0000000000000000 ) ) ;
#131 = EDGE_CURVE ( 'NONE', #553, #194, #357, .T. ) ;
#132 = CYLINDRICAL_SURFACE ( 'NONE', #49, 50.00000000000000000 ) ;
#133 = APPLICATION_PROTOCOL_DEFINITION ( 'international standard', 'config_control_design', 1994, #681 ) ;
#134 = EDGE_CURVE ( 'NONE', #536, #183, #218, .T. ) ;
#135 = ORIENTED_EDGE ( 'NONE', *, *, #569, .T. ) ;
#136 = LOCAL_TIME ( 16, 5, 20.00000000000000000, #629 ) ;
#137 = COORDINATED_UNIVERSAL_TIME_OFFSET ( 3, 30, .AHEAD. ) ;
#138 = AXIS2_PLACEMENT_3D ( 'NONE', #291, #602, #455 ) ;
#139 = CARTESIAN_POINT ( 'NONE',  ( 0.000000000000000000, 0.000000000000000000, -280.0000000000000000 ) ) ;
#140 = DATE_AND_TIME ( #149, #539 ) ;
#141 = CARTESIAN_POINT ( 'NONE',  ( 0.000000000000000000, 0.000000000000000000, -280.0000000000000000 ) ) ;
#142 = ORIENTED_EDGE ( 'NONE', *, *, #393, .T. ) ;
#143 = EDGE_CURVE ( 'NONE', #87, #192, #255, .T. ) ;
#144 = DIRECTION ( 'NONE',  ( -0.000000000000000000, 1.000000000000000000, -0.000000000000000000 ) ) ;
#145 = DIRECTION ( 'NONE',  ( 7.930164461608260440E-16, 0.000000000000000000, 1.000000000000000000 ) ) ;
#146 = AXIS2_PLACEMENT_3D ( 'NONE', #139, #29, #355 ) ;
#147 = ORIENTED_EDGE ( 'NONE', *, *, #505, .T. ) ;
#148 = APPROVAL ( #237, 'UNSPECIFIED' ) ;
#149 = CALENDAR_DATE ( 2026, 23, 7 ) ;
#150 = AXIS2_PLACEMENT_3D ( 'NONE', #311, #575, #572 ) ;
#151 = DIRECTION ( 'NONE',  ( 0.000000000000000000, 0.000000000000000000, 1.000000000000000000 ) ) ;
#152 = LOCAL_TIME ( 16, 5, 20.00000000000000000, #350 ) ;
#153 = VERTEX_POINT ( 'NONE', #201 ) ;
#154 = DIRECTION ( 'NONE',  ( -0.000000000000000000, 1.000000000000000000, -0.000000000000000000 ) ) ;
#155 = EDGE_CURVE ( 'NONE', #430, #503, #316, .T. ) ;
#156 = CARTESIAN_POINT ( 'NONE',  ( 0.000000000000000000, 0.000000000000000000, 0.000000000000000000 ) ) ;
#157 = CIRCLE ( 'NONE', #337, 15.00000000000001421 ) ;
#158 = VERTEX_POINT ( 'NONE', #72 ) ;
#159 = PERSON_AND_ORGANIZATION ( #508, #175 ) ;
#160 = CARTESIAN_POINT ( 'NONE',  ( 0.000000000000000000, 20.00000000000000000, -190.0000000000000000 ) ) ;
#161 = EDGE_CURVE ( 'NONE', #158, #176, #437, .T. ) ;
#162 = LINE ( 'NONE', #93, #483 ) ;
#163 = ORIENTED_EDGE ( 'NONE', *, *, #478, .T. ) ;
#164 = DIRECTION ( 'NONE',  ( 0.000000000000000000, 0.000000000000000000, 1.000000000000000000 ) ) ;
#165 = LINE ( 'NONE', #373, #116 ) ;
#166 = ORIENTED_EDGE ( 'NONE', *, *, #248, .T. ) ;
#167 = VECTOR ( 'NONE', #385, 1000.000000000000000 ) ;
#168 = CYLINDRICAL_SURFACE ( 'NONE', #510, 15.00000000000001421 ) ;
#169 = DIRECTION ( 'NONE',  ( -0.7660444431189736836, 0.000000000000000000, -0.6427876096865444699 ) ) ;
#170 = EDGE_CURVE ( 'NONE', #236, #180, #593, .T. ) ;
#171 = CARTESIAN_POINT ( 'NONE',  ( -115.1416731042012458, 20.00000000000000000, -262.7815462176484971 ) ) ;
#172 = VECTOR ( 'NONE', #241, 1000.000000000000227 ) ;
#173 = EDGE_LOOP ( 'NONE', ( #163, #272, #550, #21 ) ) ;
#174 = CARTESIAN_POINT ( 'NONE',  ( 0.000000000000000000, 20.00000000000000000, -280.0000000000000000 ) ) ;
#175 = ORGANIZATION ( 'UNSPECIFIED', 'UNSPECIFIED', '' ) ;
#176 = VERTEX_POINT ( 'NONE', #339 ) ;
#177 = LINE ( 'NONE', #109, #665 ) ;
#178 = DIRECTION ( 'NONE',  ( 0.000000000000000000, 0.000000000000000000, 1.000000000000000000 ) ) ;
#179 = EDGE_CURVE ( 'NONE', #236, #532, #589, .T. ) ;
#180 = VERTEX_POINT ( 'NONE', #389 ) ;
#181 = FACE_OUTER_BOUND ( 'NONE', #232, .T. ) ;
#182 = ADVANCED_FACE ( 'NONE', ( #380 ), #543, .F. ) ;
#183 = VERTEX_POINT ( 'NONE', #230 ) ;
#184 = CYLINDRICAL_SURFACE ( 'NONE', #206, 50.00000000000000000 ) ;
#185 = CARTESIAN_POINT ( 'NONE',  ( 74.28394030355673294, 20.00000000000000000, -100.8712098938007671 ) ) ;
#186 = EDGE_CURVE ( 'NONE', #87, #647, #441, .T. ) ;
#187 = CIRCLE ( 'NONE', #518, 90.00000000000002842 ) ;
#188 = DIRECTION ( 'NONE',  ( -1.000000000000000000, 0.000000000000000000, 0.000000000000000000 ) ) ;
#189 = LOCAL_TIME ( 16, 5, 20.00000000000000000, #78 ) ;
#190 = LINE ( 'NONE', #662, #320 ) ;
#191 = PLANE ( 'NONE',  #294 ) ;
#192 = VERTEX_POINT ( 'NONE', #444 ) ;
#193 = APPLICATION_PROTOCOL_DEFINITION ( 'international standard', 'config_control_design', 1994, #70 ) ;
#194 = VERTEX_POINT ( 'NONE', #484 ) ;
#195 = COORDINATED_UNIVERSAL_TIME_OFFSET ( 3, 30, .AHEAD. ) ;
#196 = VECTOR ( 'NONE', #585, 1000.000000000000000 ) ;
#197 = DIRECTION ( 'NONE',  ( -0.000000000000000000, 1.000000000000000000, -0.000000000000000000 ) ) ;
#198 = EDGE_CURVE ( 'NONE', #153, #442, #68, .T. ) ;
#199 = ORIENTED_EDGE ( 'NONE', *, *, #358, .T. ) ;
#200 = CALENDAR_DATE ( 2026, 23, 7 ) ;
#201 = CARTESIAN_POINT ( 'NONE',  ( -75.00000000000000000, 20.00000000000000000, 0.000000000000000000 ) ) ;
#202 = ORIENTED_EDGE ( 'NONE', *, *, #288, .T. ) ;
#203 = LINE ( 'NONE', #318, #264 ) ;
#204 = EDGE_LOOP ( 'NONE', ( #46, #556, #58, #659 ) ) ;
#205 = EDGE_CURVE ( 'NONE', #600, #596, #428, .T. ) ;
#206 = AXIS2_PLACEMENT_3D ( 'NONE', #504, #447, #246 ) ;
#207 = PLANE ( 'NONE',  #150 ) ;
#208 = CIRCLE ( 'NONE', #577, 15.00000000000001421 ) ;
#209 = FACE_OUTER_BOUND ( 'NONE', #576, .T. ) ;
#210 = ORIENTED_EDGE ( 'NONE', *, *, #435, .F. ) ;
#211 = ADVANCED_FACE ( 'NONE', ( #114 ), #646, .F. ) ;
#212 = CARTESIAN_POINT ( 'NONE',  ( -75.00000000000000000, 20.00000000000000000, 0.000000000000000000 ) ) ;
#213 = DIRECTION ( 'NONE',  ( 0.000000000000000000, 0.000000000000000000, 1.000000000000000000 ) ) ;
#214 = EDGE_LOOP ( 'NONE', ( #352, #641, #615, #387 ) ) ;
#215 = CARTESIAN_POINT ( 'NONE',  ( 90.00000000000002842, 20.00000000000000000, -280.0000000000000000 ) ) ;
#216 = ORIENTED_EDGE ( 'NONE', *, *, #569, .F. ) ;
#217 = DIRECTION ( 'NONE',  ( 0.000000000000000000, 0.000000000000000000, 1.000000000000000000 ) ) ;
#218 = CIRCLE ( 'NONE', #406, 50.00000000000000000 ) ;
#219 = PLANE ( 'NONE',  #396 ) ;
#220 = ADVANCED_FACE ( 'NONE', ( #284 ), #540, .T. ) ;
#221 = VERTEX_POINT ( 'NONE', #24 ) ;
#222 = AXIS2_PLACEMENT_3D ( 'NONE', #112, #330, #277 ) ;
#223 = DIRECTION ( 'NONE',  ( 1.000000000000000000, 0.000000000000000000, 0.000000000000000000 ) ) ;
#224 = CARTESIAN_POINT ( 'NONE',  ( 0.000000000000000000, 0.000000000000000000, -280.0000000000000000 ) ) ;
#225 = ORIENTED_EDGE ( 'NONE', *, *, #179, .F. ) ;
#226 = DIRECTION ( 'NONE',  ( -0.000000000000000000, -1.000000000000000000, -0.000000000000000000 ) ) ;
#227 = ORIENTED_EDGE ( 'NONE', *, *, #108, .F. ) ;
#228 = EDGE_CURVE ( 'NONE', #377, #115, #165, .T. ) ;
#229 = DIRECTION ( 'NONE',  ( -0.5960998872520778535, 0.000000000000000000, -0.8029102841650865852 ) ) ;
#230 = CARTESIAN_POINT ( 'NONE',  ( -34.13842609530240679, 0.000000000000000000, -130.6762042564047022 ) ) ;
#231 = CC_DESIGN_APPROVAL ( #413, ( #657 ) ) ;
#232 = EDGE_LOOP ( 'NONE', ( #412, #390, #603, #422 ) ) ;
#233 = AXIS2_PLACEMENT_3D ( 'NONE', #15, #335, #11 ) ;
#234 = LINE ( 'NONE', #507, #94 ) ;
#235 = ADVANCED_FACE ( 'NONE', ( #106 ), #219, .T. ) ;
#236 = VERTEX_POINT ( 'NONE', #328 ) ;
#237 = APPROVAL_STATUS ( 'not_yet_approved' ) ;
#238 = DIRECTION ( 'NONE',  ( 0.000000000000000000, 0.000000000000000000, -1.000000000000000000 ) ) ;
#239 = EDGE_CURVE ( 'NONE', #192, #12, #535, .T. ) ;
#240 = FACE_OUTER_BOUND ( 'NONE', #98, .T. ) ;
#241 = DIRECTION ( 'NONE',  ( -0.5960998872520777425, 0.000000000000000000, 0.8029102841650865852 ) ) ;
#242 = CC_DESIGN_APPROVAL ( #148, ( #244 ) ) ;
#243 = VECTOR ( 'NONE', #273, 1000.000000000000000 ) ;
#244 = PRODUCT_DEFINITION_FORMATION_WITH_SPECIFIED_SOURCE ( 'ANY', '', #260, .NOT_KNOWN. ) ;
#245 = ORIENTED_EDGE ( 'NONE', *, *, #134, .T. ) ;
#246 = DIRECTION ( 'NONE',  ( 0.000000000000000000, 0.000000000000000000, 1.000000000000000000 ) ) ;
#247 = ORIENTED_EDGE ( 'NONE', *, *, #54, .F. ) ;
#248 = EDGE_CURVE ( 'NONE', #36, #430, #488, .T. ) ;
#249 = CARTESIAN_POINT ( 'NONE',  ( 0.000000000000000000, 0.000000000000000000, -190.0000000000000000 ) ) ;
#250 = LINE ( 'NONE', #462, #172 ) ;
#251 = SECURITY_CLASSIFICATION_LEVEL ( 'unclassified' ) ;
#252 = VECTOR ( 'NONE', #274, 1000.000000000000000 ) ;
#253 = FACE_OUTER_BOUND ( 'NONE', #583, .T. ) ;
#254 = PRODUCT_DEFINITION ( 'UNKNOWN', '', #244, #409 ) ;
#255 = LINE ( 'NONE', #464, #372 ) ;
#256 = ORIENTED_EDGE ( 'NONE', *, *, #79, .T. ) ;
#257 = CARTESIAN_POINT ( 'NONE',  ( 74.99999999999997158, 20.00000000000000000, -35.00000000000000000 ) ) ;
#258 = DIRECTION ( 'NONE',  ( -0.000000000000000000, -1.000000000000000000, -0.000000000000000000 ) ) ;
#259 = DIRECTION ( 'NONE',  ( 0.8029102841650865852, -0.000000000000000000, 0.5960998872520778535 ) ) ;
#260 = PRODUCT ( 'RodMiddle_Default_sldprt', 'RodMiddle_Default_sldprt', '', ( #75 ) ) ;
#261 = CARTESIAN_POINT ( 'NONE',  ( 0.000000000000000000, 20.00000000000000000, -280.0000000000000000 ) ) ;
#262 = ORIENTED_EDGE ( 'NONE', *, *, #85, .F. ) ;
#263 = CARTESIAN_POINT ( 'NONE',  ( 34.13842609530240679, 0.000000000000000000, -130.6762042564047022 ) ) ;
#264 = VECTOR ( 'NONE', #480, 1000.000000000000000 ) ;
#265 = CIRCLE ( 'NONE', #463, 116.4219912039375657 ) ;
#266 = EDGE_LOOP ( 'NONE', ( #95, #73, #348, #381 ) ) ;
#267 = CARTESIAN_POINT ( 'NONE',  ( 115.1416731042012458, 0.000000000000000000, -262.7815462176484971 ) ) ;
#268 = ORIENTED_EDGE ( 'NONE', *, *, #2, .F. ) ;
#269 = ADVANCED_FACE ( 'NONE', ( #640 ), #65, .F. ) ;
#270 = VECTOR ( 'NONE', #145, 1000.000000000000000 ) ;
#271 = CARTESIAN_POINT ( 'NONE',  ( -74.99999999999997158, 20.00000000000000000, -35.00000000000000000 ) ) ;
#272 = ORIENTED_EDGE ( 'NONE', *, *, #529, .F. ) ;
#273 = DIRECTION ( 'NONE',  ( -0.000000000000000000, 1.000000000000000000, -0.000000000000000000 ) ) ;
#274 = DIRECTION ( 'NONE',  ( -0.000000000000000000, -1.000000000000000000, -0.000000000000000000 ) ) ;
#275 = CIRCLE ( 'NONE', #405, 50.00000000000000000 ) ;
#276 = ORIENTED_EDGE ( 'NONE', *, *, #228, .T. ) ;
#277 = DIRECTION ( 'NONE',  ( 0.000000000000000000, 0.000000000000000000, 1.000000000000000000 ) ) ;
#278 = DIRECTION ( 'NONE',  ( -1.000000000000000000, 0.000000000000000000, 0.000000000000000000 ) ) ;
#279 = ORIENTED_EDGE ( 'NONE', *, *, #161, .T. ) ;
#280 = DIRECTION ( 'NONE',  ( 0.000000000000000000, 0.000000000000000000, 1.000000000000000000 ) ) ;
#281 = ORIENTED_EDGE ( 'NONE', *, *, #473, .T. ) ;
#282 = ADVANCED_FACE ( 'NONE', ( #25 ), #347, .T. ) ;
#283 = CALENDAR_DATE ( 2026, 23, 7 ) ;
#284 = FACE_OUTER_BOUND ( 'NONE', #325, .T. ) ;
#285 = ORIENTED_EDGE ( 'NONE', *, *, #186, .F. ) ;
#286 = AXIS2_PLACEMENT_3D ( 'NONE', #521, #259, #516 ) ;
#287 = CALENDAR_DATE ( 2026, 23, 7 ) ;
#288 = EDGE_CURVE ( 'NONE', #634, #532, #208, .T. ) ;
#289 = EDGE_LOOP ( 'NONE', ( #129, #256, #438, #210, #512, #419, #456, #216, #276, #333, #322, #571, #199, #650, #84, #329, #624 ) ) ;
#290 = PERSON_AND_ORGANIZATION ( #508, #175 ) ;
#291 = CARTESIAN_POINT ( 'NONE',  ( -74.99999999999997158, 20.00000000000000000, -35.00000000000000000 ) ) ;
#292 = EDGE_CURVE ( 'NONE', #532, #600, #652, .T. ) ;
#293 = VERTEX_POINT ( 'NONE', #249 ) ;
#294 = AXIS2_PLACEMENT_3D ( 'NONE', #37, #653, #77 ) ;
#295 = ORIENTED_EDGE ( 'NONE', *, *, #649, .F. ) ;
#296 = APPROVAL_PERSON_ORGANIZATION ( #305, #413, #474 ) ;
#297 = CIRCLE ( 'NONE', #645, 116.4219912039375657 ) ;
#298 = CARTESIAN_POINT ( 'NONE',  ( -100.3066313848271420, 20.00000000000000000, -280.0000000000000000 ) ) ;
#299 = EDGE_LOOP ( 'NONE', ( #446, #481, #509, #471 ) ) ;
#300 = EDGE_CURVE ( 'NONE', #293, #426, #190, .T. ) ;
#301 = CARTESIAN_POINT ( 'NONE',  ( 0.000000000000000000, 20.00000000000000000, -280.0000000000000000 ) ) ;
#302 = ORIENTED_EDGE ( 'NONE', *, *, #54, .T. ) ;
#303 = FACE_OUTER_BOUND ( 'NONE', #485, .T. ) ;
#304 = DIRECTION ( 'NONE',  ( 1.000000000000000000, 0.000000000000000000, 0.000000000000000000 ) ) ;
#305 = PERSON_AND_ORGANIZATION ( #508, #175 ) ;
#306 = VECTOR ( 'NONE', #338, 1000.000000000000000 ) ;
#307 = DIRECTION ( 'NONE',  ( 0.000000000000000000, -1.000000000000000000, 0.000000000000000000 ) ) ;
#308 = ADVANCED_FACE ( 'NONE', ( #181 ), #207, .T. ) ;
#309 = DIRECTION ( 'NONE',  ( 0.000000000000000000, 1.000000000000000000, 0.000000000000000000 ) ) ;
#310 = ORIENTED_EDGE ( 'NONE', *, *, #300, .F. ) ;
#311 = CARTESIAN_POINT ( 'NONE',  ( 74.99999999999997158, 20.00000000000000000, -35.00000000000000000 ) ) ;
#312 = EDGE_CURVE ( 'NONE', #36, #293, #635, .T. ) ;
#313 = CARTESIAN_POINT ( 'NONE',  ( 42.14455981922948524, 20.00000000000000000, -62.56898773785207624 ) ) ;
#314 = ORIENTED_EDGE ( 'NONE', *, *, #18, .T. ) ;
#315 = APPROVAL_STATUS ( 'not_yet_approved' ) ;
#316 = CIRCLE ( 'NONE', #656, 15.00000000000001421 ) ;
#317 = DIRECTION ( 'NONE',  ( 7.930164461608260440E-16, 0.000000000000000000, -1.000000000000000000 ) ) ;
#318 = CARTESIAN_POINT ( 'NONE',  ( -115.1416731042012458, -127.2792206135786017, -262.7815462176484971 ) ) ;
#319 = FACE_OUTER_BOUND ( 'NONE', #365, .T. ) ;
#320 = VECTOR ( 'NONE', #648, 1000.000000000000000 ) ;
#321 = DIRECTION ( 'NONE',  ( 0.000000000000000000, -0.000000000000000000, 1.000000000000000000 ) ) ;
#322 = ORIENTED_EDGE ( 'NONE', *, *, #85, .T. ) ;
#323 = CARTESIAN_POINT ( 'NONE',  ( -6.056000119292352935, 0.000000000000000000, -92.85088487178899186 ) ) ;
#324 = CARTESIAN_POINT ( 'NONE',  ( -90.00000000000002842, -127.2792206135786017, -280.0000000000000000 ) ) ;
#325 = EDGE_LOOP ( 'NONE', ( #565, #302, #523, #120 ) ) ;
#326 = EDGE_CURVE ( 'NONE', #33, #536, #626, .T. ) ;
#327 = FACE_OUTER_BOUND ( 'NONE', #266, .T. ) ;
#328 = CARTESIAN_POINT ( 'NONE',  ( -90.00000000000002842, 0.000000000000000000, -280.0000000000000000 ) ) ;
#329 = ORIENTED_EDGE ( 'NONE', *, *, #186, .T. ) ;
#330 = DIRECTION ( 'NONE',  ( -0.000000000000000000, 1.000000000000000000, -0.000000000000000000 ) ) ;
#331 =( GEOMETRIC_REPRESENTATION_CONTEXT ( 3 ) GLOBAL_UNCERTAINTY_ASSIGNED_CONTEXT ( ( #117 ) ) GLOBAL_UNIT_ASSIGNED_CONTEXT ( ( #398, #451, #511 ) ) REPRESENTATION_CONTEXT ( 'NONE', 'WORKASPACE' ) );
#332 = AXIS2_PLACEMENT_3D ( 'NONE', #546, #6, #178 ) ;
#333 = ORIENTED_EDGE ( 'NONE', *, *, #74, .T. ) ;
#334 = CARTESIAN_POINT ( 'NONE',  ( -42.14455981922948524, 0.000000000000000000, -62.56898773785207624 ) ) ;
#335 = DIRECTION ( 'NONE',  ( -0.000000000000000000, -1.000000000000000000, -0.000000000000000000 ) ) ;
#336 = ORIENTED_EDGE ( 'NONE', *, *, #300, .T. ) ;
#337 = AXIS2_PLACEMENT_3D ( 'NONE', #421, #50, #570 ) ;
#338 = DIRECTION ( 'NONE',  ( -7.930164461608260440E-16, 0.000000000000000000, 1.000000000000000000 ) ) ;
#339 = CARTESIAN_POINT ( 'NONE',  ( -74.99999999999997158, 0.000000000000000000, -35.00000000000000000 ) ) ;
#340 = ORIENTED_EDGE ( 'NONE', *, *, #62, .T. ) ;
#341 = DIRECTION ( 'NONE',  ( -0.7660444431189736836, -0.000000000000000000, 0.6427876096865444699 ) ) ;
#342 = VERTEX_POINT ( 'NONE', #101 ) ;
#343 = CIRCLE ( 'NONE', #678, 116.4219912039375657 ) ;
#344 = VECTOR ( 'NONE', #278, 1000.000000000000000 ) ;
#345 = CC_DESIGN_PERSON_AND_ORGANIZATION_ASSIGNMENT ( #514, #621, ( #244 ) ) ;
#346 = PERSON_AND_ORGANIZATION ( #508, #175 ) ;
#347 = PLANE ( 'NONE',  #386 ) ;
#348 = ORIENTED_EDGE ( 'NONE', *, *, #134, .F. ) ;
#349 = DIRECTION ( 'NONE',  ( 0.000000000000000000, 1.000000000000000000, 0.000000000000000000 ) ) ;
#350 = COORDINATED_UNIVERSAL_TIME_OFFSET ( 3, 30, .AHEAD. ) ;
#351 = EDGE_CURVE ( 'NONE', #628, #51, #527, .T. ) ;
#352 = ORIENTED_EDGE ( 'NONE', *, *, #562, .F. ) ;
#353 = CC_DESIGN_SECURITY_CLASSIFICATION ( #657, ( #244 ) ) ;
#354 = DATE_AND_TIME ( #287, #610 ) ;
#355 = DIRECTION ( 'NONE',  ( 0.000000000000000000, 0.000000000000000000, 1.000000000000000000 ) ) ;
#356 = CARTESIAN_POINT ( 'NONE',  ( -74.99999999999997158, 0.000000000000000000, -35.00000000000000000 ) ) ;
#357 = LINE ( 'NONE', #90, #383 ) ;
#358 = EDGE_CURVE ( 'NONE', #153, #416, #364, .T. ) ;
#359 = CLOSED_SHELL ( 'NONE', ( #211, #235, #40, #431, #282, #269, #445, #13, #182, #597, #616, #522, #449, #580, #220, #308, #34, #515, #559 ) ) ;
#360 = CARTESIAN_POINT ( 'NONE',  ( 93.47641404061870674, -127.2792206135786017, -210.6008641696704444 ) ) ;
#361 = LINE ( 'NONE', #55, #397 ) ;
#362 = ORIENTED_EDGE ( 'NONE', *, *, #497, .F. ) ;
#363 = AXIS2_PLACEMENT_3D ( 'NONE', #531, #57, #119 ) ;
#364 = LINE ( 'NONE', #212, #613 ) ;
#365 = EDGE_LOOP ( 'NONE', ( #142, #434, #477, #279 ) ) ;
#366 = DIRECTION ( 'NONE',  ( 0.000000000000000000, 1.000000000000000000, 0.000000000000000000 ) ) ;
#367 = AXIS2_PLACEMENT_3D ( 'NONE', #3, #369, #100 ) ;
#368 = DIRECTION ( 'NONE',  ( 0.000000000000000000, 0.000000000000000000, 1.000000000000000000 ) ) ;
#369 = DIRECTION ( 'NONE',  ( -0.000000000000000000, -1.000000000000000000, -0.000000000000000000 ) ) ;
#370 = EDGE_LOOP ( 'NONE', ( #677, #336, #586, #227 ) ) ;
#371 = CYLINDRICAL_SURFACE ( 'NONE', #566, 15.00000000000001421 ) ;
#372 = VECTOR ( 'NONE', #667, 1000.000000000000000 ) ;
#373 = CARTESIAN_POINT ( 'NONE',  ( -6.056000119292352935, 20.00000000000000000, -92.85088487178899186 ) ) ;
#374 = CC_DESIGN_PERSON_AND_ORGANIZATION_ASSIGNMENT ( #346, #35, ( #260 ) ) ;
#375 = DIRECTION ( 'NONE',  ( -0.000000000000000000, -1.000000000000000000, -0.000000000000000000 ) ) ;
#376 = CARTESIAN_POINT ( 'NONE',  ( 74.99999999999997158, 20.00000000000000000, -35.00000000000000000 ) ) ;
#377 = VERTEX_POINT ( 'NONE', #469 ) ;
#378 = EDGE_CURVE ( 'NONE', #669, #377, #622, .T. ) ;
#379 = LINE ( 'NONE', #323, #557 ) ;
#380 = FACE_OUTER_BOUND ( 'NONE', #591, .T. ) ;
#381 = ORIENTED_EDGE ( 'NONE', *, *, #326, .F. ) ;
#382 = LINE ( 'NONE', #636, #92 ) ;
#383 = VECTOR ( 'NONE', #304, 1000.000000000000000 ) ;
#384 = CC_DESIGN_PERSON_AND_ORGANIZATION_ASSIGNMENT ( #595, #608, ( #254 ) ) ;
#385 = DIRECTION ( 'NONE',  ( -0.000000000000000000, -1.000000000000000000, -0.000000000000000000 ) ) ;
#386 = AXIS2_PLACEMENT_3D ( 'NONE', #301, #238, #609 ) ;
#387 = ORIENTED_EDGE ( 'NONE', *, *, #351, .F. ) ;
#388 = CARTESIAN_POINT ( 'NONE',  ( 100.3066313848271420, -127.2792206135786017, -265.0000000000000000 ) ) ;
#389 = CARTESIAN_POINT ( 'NONE',  ( -90.00000000000002842, 20.00000000000000000, -280.0000000000000000 ) ) ;
#390 = ORIENTED_EDGE ( 'NONE', *, *, #239, .F. ) ;
#391 = DIRECTION ( 'NONE',  ( 0.000000000000000000, 0.000000000000000000, 1.000000000000000000 ) ) ;
#392 = ORIENTED_EDGE ( 'NONE', *, *, #248, .F. ) ;
#393 = EDGE_CURVE ( 'NONE', #176, #442, #560, .T. ) ;
#394 = CARTESIAN_POINT ( 'NONE',  ( 34.13842609530240679, 20.00000000000000000, -130.6762042564047022 ) ) ;
#395 = DIRECTION ( 'NONE',  ( 0.000000000000000000, 0.000000000000000000, 1.000000000000000000 ) ) ;
#396 = AXIS2_PLACEMENT_3D ( 'NONE', #429, #637, #582 ) ;
#397 = VECTOR ( 'NONE', #676, 1000.000000000000000 ) ;
#398 =( LENGTH_UNIT ( ) NAMED_UNIT ( * ) SI_UNIT ( .MILLI., .METRE. ) );
#399 = ORIENTED_EDGE ( 'NONE', *, *, #611, .T. ) ;
#400 = CIRCLE ( 'NONE', #367, 50.00000000000000000 ) ;
#401 = CARTESIAN_POINT ( 'NONE',  ( -74.99999999999997158, 0.000000000000000000, -35.00000000000000000 ) ) ;
#402 = ORIENTED_EDGE ( 'NONE', *, *, #18, .F. ) ;
#403 = APPROVAL_DATE_TIME ( #660, #127 ) ;
#404 = ORIENTED_EDGE ( 'NONE', *, *, #108, .T. ) ;
#405 = AXIS2_PLACEMENT_3D ( 'NONE', #639, #121, #164 ) ;
#406 = AXIS2_PLACEMENT_3D ( 'NONE', #623, #517, #41 ) ;
#407 = DIRECTION ( 'NONE',  ( 1.000000000000000000, 0.000000000000000000, 0.000000000000000000 ) ) ;
#408 = CARTESIAN_POINT ( 'NONE',  ( 74.99999999999997158, 0.000000000000000000, -35.00000000000000000 ) ) ;
#409 = DESIGN_CONTEXT ( 'detailed design', #70, 'design' ) ;
#410 = DIRECTION ( 'NONE',  ( 1.000000000000000000, -0.000000000000000000, 7.930164461608260440E-16 ) ) ;
#411 = CARTESIAN_POINT ( 'NONE',  ( 74.99999999999997158, 0.000000000000000000, -35.00000000000000000 ) ) ;
#412 = ORIENTED_EDGE ( 'NONE', *, *, #113, .F. ) ;
#413 = APPROVAL ( #315, 'UNSPECIFIED' ) ;
#414 = VECTOR ( 'NONE', #627, 1000.000000000000000 ) ;
#415 = LINE ( 'NONE', #630, #414 ) ;
#416 = VERTEX_POINT ( 'NONE', #568 ) ;
#417 = PLANE ( 'NONE',  #538 ) ;
#418 = DIRECTION ( 'NONE',  ( 0.000000000000000000, 0.000000000000000000, 1.000000000000000000 ) ) ;
#419 = ORIENTED_EDGE ( 'NONE', *, *, #649, .T. ) ;
#420 = CARTESIAN_POINT ( 'NONE',  ( -93.47641404061870674, -127.2792206135786017, -210.6008641696704444 ) ) ;
#421 = CARTESIAN_POINT ( 'NONE',  ( 100.3066313848271420, 19.99999999999998934, -265.0000000000000000 ) ) ;
#422 = ORIENTED_EDGE ( 'NONE', *, *, #529, .T. ) ;
#423 = CARTESIAN_POINT ( 'NONE',  ( 75.00000000000000000, 20.00000000000000000, 0.000000000000000000 ) ) ;
#424 = EDGE_CURVE ( 'NONE', #51, #647, #461, .T. ) ;
#425 = CARTESIAN_POINT ( 'NONE',  ( -34.13842609530240679, 20.00000000000000000, -130.6762042564047022 ) ) ;
#426 = VERTEX_POINT ( 'NONE', #160 ) ;
#427 = PLANE ( 'NONE',  #103 ) ;
#428 = CIRCLE ( 'NONE', #9, 15.00000000000001421 ) ;
#429 = CARTESIAN_POINT ( 'NONE',  ( 0.000000000000000000, 20.00000000000000000, 0.000000000000000000 ) ) ;
#430 = VERTEX_POINT ( 'NONE', #89 ) ;
#431 = ADVANCED_FACE ( 'NONE', ( #303 ), #519, .T. ) ;
#432 = DIRECTION ( 'NONE',  ( -3.552713678800500535E-15, 0.000000000000000000, 1.000000000000000000 ) ) ;
#433 = DIRECTION ( 'NONE',  ( 1.000000000000000000, 0.000000000000000000, 0.000000000000000000 ) ) ;
#434 = ORIENTED_EDGE ( 'NONE', *, *, #198, .F. ) ;
#435 = EDGE_CURVE ( 'NONE', #426, #553, #475, .T. ) ;
#436 = FACE_OUTER_BOUND ( 'NONE', #674, .T. ) ;
#437 = LINE ( 'NONE', #271, #167 ) ;
#438 = ORIENTED_EDGE ( 'NONE', *, *, #131, .F. ) ;
#439 = CARTESIAN_POINT ( 'NONE',  ( -100.3066313848271420, 20.00000000000000000, -280.0000000000000000 ) ) ;
#440 = DIRECTION ( 'NONE',  ( 0.000000000000000000, 0.000000000000000000, 1.000000000000000000 ) ) ;
#441 = CIRCLE ( 'NONE', #233, 50.00000000000000000 ) ;
#442 = VERTEX_POINT ( 'NONE', #675 ) ;
#443 = DATE_AND_TIME ( #283, #189 ) ;
#444 = CARTESIAN_POINT ( 'NONE',  ( 74.99999999999997158, 20.00000000000000000, -35.00000000000000000 ) ) ;
#445 = ADVANCED_FACE ( 'NONE', ( #319 ), #417, .F. ) ;
#446 = ORIENTED_EDGE ( 'NONE', *, *, #155, .F. ) ;
#447 = DIRECTION ( 'NONE',  ( 0.000000000000000000, 1.000000000000000000, 0.000000000000000000 ) ) ;
#448 = DIRECTION ( 'NONE',  ( -0.000000000000000000, 1.000000000000000000, 0.000000000000000000 ) ) ;
#449 = ADVANCED_FACE ( 'NONE', ( #253 ), #52, .F. ) ;
#450 = VERTEX_POINT ( 'NONE', #263 ) ;
#451 =( NAMED_UNIT ( * ) PLANE_ANGLE_UNIT ( ) SI_UNIT ( $, .RADIAN. ) );
#452 = CARTESIAN_POINT ( 'NONE',  ( -100.3066313848271420, 0.000000000000000000, -265.0000000000000000 ) ) ;
#453 = LINE ( 'NONE', #408, #673 ) ;
#454 = VECTOR ( 'NONE', #96, 1000.000000000000227 ) ;
#455 = DIRECTION ( 'NONE',  ( 0.7660444431189736836, 0.000000000000000000, -0.6427876096865444699 ) ) ;
#456 = ORIENTED_EDGE ( 'NONE', *, *, #205, .T. ) ;
#457 = EDGE_CURVE ( 'NONE', #192, #416, #476, .T. ) ;
#458 = CALENDAR_DATE ( 2026, 23, 7 ) ;
#459 = ORIENTED_EDGE ( 'NONE', *, *, #590, .T. ) ;
#460 = PERSON_AND_ORGANIZATION_ROLE ( 'design_supplier' ) ;
#461 = LINE ( 'NONE', #618, #454 ) ;
#462 = CARTESIAN_POINT ( 'NONE',  ( 6.056000119292352935, 0.000000000000000000, -92.85088487178899186 ) ) ;
#463 = AXIS2_PLACEMENT_3D ( 'NONE', #174, #632, #482 ) ;
#464 = CARTESIAN_POINT ( 'NONE',  ( 74.99999999999997158, 20.00000000000000000, -35.00000000000000000 ) ) ;
#465 = ORIENTED_EDGE ( 'NONE', *, *, #326, .T. ) ;
#466 = DIRECTION ( 'NONE',  ( 7.930164461608260440E-16, 0.000000000000000000, 1.000000000000000000 ) ) ;
#467 = CARTESIAN_POINT ( 'NONE',  ( 90.00000000000002842, 0.000000000000000000, -280.0000000000000000 ) ) ;
#468 = ORIENTED_EDGE ( 'NONE', *, *, #113, .T. ) ;
#469 = CARTESIAN_POINT ( 'NONE',  ( -93.47641404061870674, 20.00000000000000000, -210.6008641696704444 ) ) ;
#470 = DIRECTION ( 'NONE',  ( -0.000000000000000000, 1.000000000000000000, 0.000000000000000000 ) ) ;
#471 = ORIENTED_EDGE ( 'NONE', *, *, #124, .F. ) ;
#472 = AXIS2_PLACEMENT_3D ( 'NONE', #498, #391, #604 ) ;
#473 = EDGE_CURVE ( 'NONE', #669, #183, #379, .T. ) ;
#474 = APPROVAL_ROLE ( '' ) ;
#475 = CIRCLE ( 'NONE', #42, 90.00000000000002842 ) ;
#476 = LINE ( 'NONE', #257, #625 ) ;
#477 = ORIENTED_EDGE ( 'NONE', *, *, #502, .F. ) ;
#478 = EDGE_CURVE ( 'NONE', #442, #221, #382, .T. ) ;
#479 = CARTESIAN_POINT ( 'NONE',  ( -34.13842609530240679, 20.00000000000000000, -130.6762042564046737 ) ) ;
#480 = DIRECTION ( 'NONE',  ( 0.000000000000000000, -1.000000000000000000, 0.000000000000000000 ) ) ;
#481 = ORIENTED_EDGE ( 'NONE', *, *, #611, .F. ) ;
#482 = DIRECTION ( 'NONE',  ( 0.000000000000000000, 0.000000000000000000, 1.000000000000000000 ) ) ;
#483 = VECTOR ( 'NONE', #633, 1000.000000000000000 ) ;
#484 = CARTESIAN_POINT ( 'NONE',  ( 100.3066313848271420, 20.00000000000000000, -280.0000000000000000 ) ) ;
#485 = EDGE_LOOP ( 'NONE', ( #402, #574, #69, #16 ) ) ;
#486 = CYLINDRICAL_SURFACE ( 'NONE', #222, 116.4219912039375657 ) ;
#487 = APPROVAL_PERSON_ORGANIZATION ( #290, #127, #551 ) ;
#488 = LINE ( 'NONE', #224, #63 ) ;
#489 = CC_DESIGN_PERSON_AND_ORGANIZATION_ASSIGNMENT ( #159, #86, ( #657 ) ) ;
#490 = ORIENTED_EDGE ( 'NONE', *, *, #228, .F. ) ;
#491 = LINE ( 'NONE', #423, #76 ) ;
#492 = CARTESIAN_POINT ( 'NONE',  ( 0.000000000000000000, 0.000000000000000000, -280.0000000000000000 ) ) ;
#493 = ORIENTED_EDGE ( 'NONE', *, *, #155, .T. ) ;
#494 = CARTESIAN_POINT ( 'NONE',  ( -100.3066313848271420, -127.2792206135786017, -265.0000000000000000 ) ) ;
#495 = CARTESIAN_POINT ( 'NONE',  ( -75.00000000000000000, 20.00000000000000000, 0.000000000000000000 ) ) ;
#496 = ORIENTED_EDGE ( 'NONE', *, *, #393, .F. ) ;
#497 = EDGE_CURVE ( 'NONE', #293, #236, #187, .T. ) ;
#498 = CARTESIAN_POINT ( 'NONE',  ( 0.000000000000000000, 0.000000000000000000, 0.000000000000000000 ) ) ;
#499 = DIRECTION ( 'NONE',  ( 0.6427876096865444699, 0.000000000000000000, -0.7660444431189736836 ) ) ;
#500 = VECTOR ( 'NONE', #448, 1000.000000000000000 ) ;
#501 = DATE_TIME_ROLE ( 'creation_date' ) ;
#502 = EDGE_CURVE ( 'NONE', #158, #153, #56, .T. ) ;
#503 = VERTEX_POINT ( 'NONE', #267 ) ;
#504 = CARTESIAN_POINT ( 'NONE',  ( -74.28394030355673294, 20.00000000000000000, -100.8712098938007671 ) ) ;
#505 = EDGE_CURVE ( 'NONE', #183, #115, #118, .T. ) ;
#506 = ORIENTED_EDGE ( 'NONE', *, *, #312, .F. ) ;
#507 = CARTESIAN_POINT ( 'NONE',  ( 34.13842609530240679, 0.000000000000000000, -130.6762042564046737 ) ) ;
#508 = PERSON ( 'UNSPECIFIED', 'UNSPECIFIED', 'UNSPECIFIED', ('UNSPECIFIED'), ('UNSPECIFIED'), ('UNSPECIFIED') ) ;
#509 = ORIENTED_EDGE ( 'NONE', *, *, #79, .F. ) ;
#510 = AXIS2_PLACEMENT_3D ( 'NONE', #388, #642, #19 ) ;
#511 =( NAMED_UNIT ( * ) SI_UNIT ( $, .STERADIAN. ) SOLID_ANGLE_UNIT ( ) );
#512 = ORIENTED_EDGE ( 'NONE', *, *, #62, .F. ) ;
#513 = CARTESIAN_POINT ( 'NONE',  ( 74.99999999999997158, 0.000000000000000000, -35.00000000000000000 ) ) ;
#514 = PERSON_AND_ORGANIZATION ( #508, #175 ) ;
#515 = ADVANCED_FACE ( 'NONE', ( #533 ), #530, .T. ) ;
#516 = DIRECTION ( 'NONE',  ( 0.5960998872520778535, 0.000000000000000000, -0.8029102841650865852 ) ) ;
#517 = DIRECTION ( 'NONE',  ( 0.000000000000000000, 1.000000000000000000, 0.000000000000000000 ) ) ;
#518 = AXIS2_PLACEMENT_3D ( 'NONE', #537, #375, #280 ) ;
#519 = PLANE ( 'NONE',  #286 ) ;
#520 = CARTESIAN_POINT ( 'NONE',  ( 42.14455981922948524, 0.000000000000000000, -62.56898773785207624 ) ) ;
#521 = CARTESIAN_POINT ( 'NONE',  ( 6.056000119292352935, 20.00000000000000000, -92.85088487178899186 ) ) ;
#522 = ADVANCED_FACE ( 'NONE', ( #436 ), #486, .T. ) ;
#523 = ORIENTED_EDGE ( 'NONE', *, *, #143, .T. ) ;
#524 = PRODUCT_DEFINITION_SHAPE ( 'NONE', 'NONE',  #254 ) ;
#525 = CARTESIAN_POINT ( 'NONE',  ( 0.000000000000000000, 20.00000000000000000, -280.0000000000000000 ) ) ;
#526 = LINE ( 'NONE', #411, #270 ) ;
#527 = LINE ( 'NONE', #360, #598 ) ;
#528 = DIRECTION ( 'NONE',  ( -0.000000000000000000, 1.000000000000000000, -0.000000000000000000 ) ) ;
#529 = EDGE_CURVE ( 'NONE', #416, #221, #491, .T. ) ;
#530 = CYLINDRICAL_SURFACE ( 'NONE', #588, 116.4219912039375657 ) ;
#531 = CARTESIAN_POINT ( 'NONE',  ( 0.000000000000000000, 20.00000000000000000, -280.0000000000000000 ) ) ;
#532 = VERTEX_POINT ( 'NONE', #60 ) ;
#533 = FACE_OUTER_BOUND ( 'NONE', #214, .T. ) ;
#534 = CC_DESIGN_DATE_AND_TIME_ASSIGNMENT ( #140, #617, ( #657 ) ) ;
#535 = LINE ( 'NONE', #61, #252 ) ;
#536 = VERTEX_POINT ( 'NONE', #334 ) ;
#537 = CARTESIAN_POINT ( 'NONE',  ( 0.000000000000000000, 0.000000000000000000, -280.0000000000000000 ) ) ;
#538 = AXIS2_PLACEMENT_3D ( 'NONE', #99, #410, #317 ) ;
#539 = LOCAL_TIME ( 16, 5, 20.00000000000000000, #195 ) ;
#540 = PLANE ( 'NONE',  #549 ) ;
#541 = ORIENTED_EDGE ( 'NONE', *, *, #378, .F. ) ;
#542 = FACE_OUTER_BOUND ( 'NONE', #204, .T. ) ;
#543 = PLANE ( 'NONE',  #363 ) ;
#544 = ORIENTED_EDGE ( 'NONE', *, *, #104, .T. ) ;
#545 = DIRECTION ( 'NONE',  ( 0.5960998872520777425, -0.000000000000000000, 0.8029102841650865852 ) ) ;
#546 = CARTESIAN_POINT ( 'NONE',  ( 0.000000000000000000, -127.2792206135786017, -280.0000000000000000 ) ) ;
#547 = ORIENTED_EDGE ( 'NONE', *, *, #179, .T. ) ;
#548 = LINE ( 'NONE', #130, #7 ) ;
#549 = AXIS2_PLACEMENT_3D ( 'NONE', #376, #499, #169 ) ;
#550 = ORIENTED_EDGE ( 'NONE', *, *, #358, .F. ) ;
#551 = APPROVAL_ROLE ( '' ) ;
#552 = DIRECTION ( 'NONE',  ( 0.7660444431189736836, 0.000000000000000000, 0.6427876096865444699 ) ) ;
#553 = VERTEX_POINT ( 'NONE', #215 ) ;
#554 = APPROVAL_STATUS ( 'not_yet_approved' ) ;
#555 = DIRECTION ( 'NONE',  ( 0.000000000000000000, 0.000000000000000000, 1.000000000000000000 ) ) ;
#556 = ORIENTED_EDGE ( 'NONE', *, *, #104, .F. ) ;
#557 = VECTOR ( 'NONE', #545, 1000.000000000000227 ) ;
#558 = FACE_OUTER_BOUND ( 'NONE', #173, .T. ) ;
#559 = ADVANCED_FACE ( 'NONE', ( #14 ), #168, .T. ) ;
#560 = LINE ( 'NONE', #356, #23 ) ;
#561 = CARTESIAN_POINT ( 'NONE',  ( 93.47641404061870674, 20.00000000000000000, -210.6008641696704444 ) ) ;
#562 = EDGE_CURVE ( 'NONE', #503, #628, #297, .T. ) ;
#563 = DIRECTION ( 'NONE',  ( 0.000000000000000000, 0.000000000000000000, 1.000000000000000000 ) ) ;
#564 = PLANE ( 'NONE',  #605 ) ;
#565 = ORIENTED_EDGE ( 'NONE', *, *, #26, .F. ) ;
#566 = AXIS2_PLACEMENT_3D ( 'NONE', #494, #4, #217 ) ;
#567 = SHAPE_DEFINITION_REPRESENTATION ( #524, #83 ) ;
#568 = CARTESIAN_POINT ( 'NONE',  ( 75.00000000000000000, 20.00000000000000000, 0.000000000000000000 ) ) ;
#569 = EDGE_CURVE ( 'NONE', #377, #596, #265, .T. ) ;
#570 = DIRECTION ( 'NONE',  ( 0.000000000000000000, 0.000000000000000000, 1.000000000000000000 ) ) ;
#571 = ORIENTED_EDGE ( 'NONE', *, *, #502, .T. ) ;
#572 = DIRECTION ( 'NONE',  ( -7.930164461608260440E-16, 0.000000000000000000, -1.000000000000000000 ) ) ;
#573 = CARTESIAN_POINT ( 'NONE',  ( 42.14455981922948524, 20.00000000000000000, -62.56898773785207624 ) ) ;
#574 = ORIENTED_EDGE ( 'NONE', *, *, #351, .T. ) ;
#575 = DIRECTION ( 'NONE',  ( 1.000000000000000000, 0.000000000000000000, -7.930164461608260440E-16 ) ) ;
#576 = EDGE_LOOP ( 'NONE', ( #166, #493, #607, #314, #459, #643, #468, #664, #496, #638, #245, #8, #268, #202, #225, #362, #506 ) ) ;
#577 = AXIS2_PLACEMENT_3D ( 'NONE', #452, #606, #555 ) ;
#578 = CARTESIAN_POINT ( 'NONE',  ( -6.056000119292352935, 20.00000000000000000, -92.85088487178899186 ) ) ;
#579 = DIRECTION ( 'NONE',  ( -0.000000000000000000, 1.000000000000000000, -0.000000000000000000 ) ) ;
#580 = ADVANCED_FACE ( 'NONE', ( #542 ), #371, .T. ) ;
#581 = CARTESIAN_POINT ( 'NONE',  ( 0.000000000000000000, 0.000000000000000000, -280.0000000000000000 ) ) ;
#582 = DIRECTION ( 'NONE',  ( 0.000000000000000000, -0.000000000000000000, 1.000000000000000000 ) ) ;
#583 = EDGE_LOOP ( 'NONE', ( #310, #658, #102, #340 ) ) ;
#584 = CARTESIAN_POINT ( 'NONE',  ( 0.000000000000000000, -127.2792206135786017, -280.0000000000000000 ) ) ;
#585 = DIRECTION ( 'NONE',  ( -0.000000000000000000, -1.000000000000000000, -0.000000000000000000 ) ) ;
#586 = ORIENTED_EDGE ( 'NONE', *, *, #435, .T. ) ;
#587 = APPROVAL_PERSON_ORGANIZATION ( #71, #148, #651 ) ;
#588 = AXIS2_PLACEMENT_3D ( 'NONE', #584, #1, #10 ) ;
#589 = LINE ( 'NONE', #492, #344 ) ;
#590 = EDGE_CURVE ( 'NONE', #450, #81, #275, .T. ) ;
#591 = EDGE_LOOP ( 'NONE', ( #547, #594, #295, #612 ) ) ;
#592 = DIRECTION ( 'NONE',  ( -0.000000000000000000, -1.000000000000000000, -0.000000000000000000 ) ) ;
#593 = LINE ( 'NONE', #324, #53 ) ;
#594 = ORIENTED_EDGE ( 'NONE', *, *, #292, .T. ) ;
#595 = PERSON_AND_ORGANIZATION ( #508, #175 ) ;
#596 = VERTEX_POINT ( 'NONE', #171 ) ;
#597 = ADVANCED_FACE ( 'NONE', ( #67 ), #427, .F. ) ;
#598 = VECTOR ( 'NONE', #197, 1000.000000000000000 ) ;
#599 = VECTOR ( 'NONE', #341, 1000.000000000000000 ) ;
#600 = VERTEX_POINT ( 'NONE', #439 ) ;
#601 = CARTESIAN_POINT ( 'NONE',  ( -93.47641404061870674, 0.000000000000000000, -210.6008641696704444 ) ) ;
#602 = DIRECTION ( 'NONE',  ( 0.6427876096865444699, -0.000000000000000000, 0.7660444431189736836 ) ) ;
#603 = ORIENTED_EDGE ( 'NONE', *, *, #457, .T. ) ;
#604 = DIRECTION ( 'NONE',  ( 1.000000000000000000, 0.000000000000000000, 0.000000000000000000 ) ) ;
#605 = AXIS2_PLACEMENT_3D ( 'NONE', #156, #97, #321 ) ;
#606 = DIRECTION ( 'NONE',  ( -0.000000000000000000, -1.000000000000000000, -0.000000000000000000 ) ) ;
#607 = ORIENTED_EDGE ( 'NONE', *, *, #562, .T. ) ;
#608 = PERSON_AND_ORGANIZATION_ROLE ( 'creator' ) ;
#609 = DIRECTION ( 'NONE',  ( -1.000000000000000000, 0.000000000000000000, -0.000000000000000000 ) ) ;
#610 = LOCAL_TIME ( 16, 5, 20.00000000000000000, #137 ) ;
#611 = EDGE_CURVE ( 'NONE', #194, #430, #177, .T. ) ;
#612 = ORIENTED_EDGE ( 'NONE', *, *, #170, .F. ) ;
#613 = VECTOR ( 'NONE', #407, 1000.000000000000000 ) ;
#614 = CARTESIAN_POINT ( 'NONE',  ( 0.000000000000000000, -127.2792206135786017, -280.0000000000000000 ) ) ;
#615 = ORIENTED_EDGE ( 'NONE', *, *, #91, .F. ) ;
#616 = ADVANCED_FACE ( 'NONE', ( #327 ), #184, .F. ) ;
#617 = DATE_TIME_ROLE ( 'classification_date' ) ;
#618 = CARTESIAN_POINT ( 'NONE',  ( 6.056000119292352935, 20.00000000000000000, -92.85088487178899186 ) ) ;
#619 = ORIENTED_EDGE ( 'NONE', *, *, #161, .F. ) ;
#620 = EDGE_CURVE ( 'NONE', #536, #176, #125, .T. ) ;
#621 = PERSON_AND_ORGANIZATION_ROLE ( 'creator' ) ;
#622 = LINE ( 'NONE', #420, #128 ) ;
#623 = CARTESIAN_POINT ( 'NONE',  ( -74.28394030355673294, 0.000000000000000000, -100.8712098938007671 ) ) ;
#624 = ORIENTED_EDGE ( 'NONE', *, *, #424, .F. ) ;
#625 = VECTOR ( 'NONE', #466, 1000.000000000000000 ) ;
#626 = LINE ( 'NONE', #39, #32 ) ;
#627 = DIRECTION ( 'NONE',  ( -0.000000000000000000, 1.000000000000000000, -0.000000000000000000 ) ) ;
#628 = VERTEX_POINT ( 'NONE', #655 ) ;
#629 = COORDINATED_UNIVERSAL_TIME_OFFSET ( 3, 30, .AHEAD. ) ;
#630 = CARTESIAN_POINT ( 'NONE',  ( 90.00000000000002842, -127.2792206135786017, -280.0000000000000000 ) ) ;
#631 = ORIENTED_EDGE ( 'NONE', *, *, #620, .T. ) ;
#632 = DIRECTION ( 'NONE',  ( -0.000000000000000000, -1.000000000000000000, -0.000000000000000000 ) ) ;
#633 = DIRECTION ( 'NONE',  ( -0.000000000000000000, 1.000000000000000000, -0.000000000000000000 ) ) ;
#634 = VERTEX_POINT ( 'NONE', #28 ) ;
#635 = CIRCLE ( 'NONE', #82, 90.00000000000002842 ) ;
#636 = CARTESIAN_POINT ( 'NONE',  ( -75.00000000000000000, 0.000000000000000000, 0.000000000000000000 ) ) ;
#637 = DIRECTION ( 'NONE',  ( 0.000000000000000000, 1.000000000000000000, 0.000000000000000000 ) ) ;
#638 = ORIENTED_EDGE ( 'NONE', *, *, #620, .F. ) ;
#639 = CARTESIAN_POINT ( 'NONE',  ( 74.28394030355673294, 0.000000000000000000, -100.8712098938007671 ) ) ;
#640 = FACE_OUTER_BOUND ( 'NONE', #107, .T. ) ;
#641 = ORIENTED_EDGE ( 'NONE', *, *, #124, .T. ) ;
#642 = DIRECTION ( 'NONE',  ( -0.000000000000000000, 1.000000000000000000, -0.000000000000000000 ) ) ;
#643 = ORIENTED_EDGE ( 'NONE', *, *, #26, .T. ) ;
#644 = DIRECTION ( 'NONE',  ( 0.8029102841650865852, 0.000000000000000000, -0.5960998872520778535 ) ) ;
#645 = AXIS2_PLACEMENT_3D ( 'NONE', #581, #226, #432 ) ;
#646 = CYLINDRICAL_SURFACE ( 'NONE', #332, 90.00000000000002842 ) ;
#647 = VERTEX_POINT ( 'NONE', #394 ) ;
#648 = DIRECTION ( 'NONE',  ( -0.000000000000000000, 1.000000000000000000, -0.000000000000000000 ) ) ;
#649 = EDGE_CURVE ( 'NONE', #180, #600, #548, .T. ) ;
#650 = ORIENTED_EDGE ( 'NONE', *, *, #457, .F. ) ;
#651 = APPROVAL_ROLE ( '' ) ;
#652 = LINE ( 'NONE', #298, #500 ) ;
#653 = DIRECTION ( 'NONE',  ( 0.000000000000000000, 0.000000000000000000, -1.000000000000000000 ) ) ;
#654 = CC_DESIGN_PERSON_AND_ORGANIZATION_ASSIGNMENT ( #47, #460, ( #244 ) ) ;
#655 = CARTESIAN_POINT ( 'NONE',  ( 93.47641404061870674, 0.000000000000000000, -210.6008641696704444 ) ) ;
#656 = AXIS2_PLACEMENT_3D ( 'NONE', #45, #258, #151 ) ;
#657 = SECURITY_CLASSIFICATION ( '', '', #251 ) ;
#658 = ORIENTED_EDGE ( 'NONE', *, *, #497, .T. ) ;
#659 = ORIENTED_EDGE ( 'NONE', *, *, #292, .F. ) ;
#660 = DATE_AND_TIME ( #458, #152 ) ;
#661 = AXIS2_PLACEMENT_3D ( 'NONE', #680, #309, #213 ) ;
#662 = CARTESIAN_POINT ( 'NONE',  ( 0.000000000000000000, -127.2792206135786017, -190.0000000000000000 ) ) ;
#663 = ORIENTED_EDGE ( 'NONE', *, *, #378, .T. ) ;
#664 = ORIENTED_EDGE ( 'NONE', *, *, #478, .F. ) ;
#665 = VECTOR ( 'NONE', #105, 1000.000000000000000 ) ;
#666 = DIRECTION ( 'NONE',  ( -7.930164461608260440E-16, 0.000000000000000000, 1.000000000000000000 ) ) ;
#667 = DIRECTION ( 'NONE',  ( 0.7660444431189736836, 0.000000000000000000, 0.6427876096865444699 ) ) ;
#668 = EDGE_CURVE ( 'NONE', #647, #450, #234, .T. ) ;
#669 = VERTEX_POINT ( 'NONE', #601 ) ;
#670 = DATE_AND_TIME ( #200, #136 ) ;
#671 = VECTOR ( 'NONE', #528, 1000.000000000000000 ) ;
#672 = LINE ( 'NONE', #573, #671 ) ;
#673 = VECTOR ( 'NONE', #552, 1000.000000000000000 ) ;
#674 = EDGE_LOOP ( 'NONE', ( #135, #544, #111, #663 ) ) ;
#675 = CARTESIAN_POINT ( 'NONE',  ( -75.00000000000000000, 0.000000000000000000, 0.000000000000000000 ) ) ;
#676 = DIRECTION ( 'NONE',  ( -0.7660444431189736836, -0.000000000000000000, 0.6427876096865444699 ) ) ;
#677 = ORIENTED_EDGE ( 'NONE', *, *, #312, .T. ) ;
#678 = AXIS2_PLACEMENT_3D ( 'NONE', #261, #470, #418 ) ;
#679 = AXIS2_PLACEMENT_3D ( 'NONE', #614, #144, #43 ) ;
#680 = CARTESIAN_POINT ( 'NONE',  ( 0.000000000000000000, 20.00000000000000000, -280.0000000000000000 ) ) ;
#681 = APPLICATION_CONTEXT ( 'configuration controlled 3d designs of mechanical parts and assemblies' ) ;
#682 = ORIENTED_EDGE ( 'NONE', *, *, #668, .F. ) ;
ENDSEC;
END-ISO-10303-21;
