ISO-10303-21;
HEADER;
FILE_DESCRIPTION (( 'STEP AP203' ),
    '1' );
FILE_NAME ('RodRight_Default_sldprt.STEP',
    '2026-07-31T10:19:18',
    ( '' ),
    ( '' ),
    'SwSTEP 2.0',
    'SolidWorks 2025',
    '' );
FILE_SCHEMA (( 'CONFIG_CONTROL_DESIGN' ));
ENDSEC;

DATA;
#1 = ORIENTED_EDGE ( 'NONE', *, *, #204, .F. ) ;
#2 = VECTOR ( 'NONE', #4, 1000.000000000000000 ) ;
#3 = AXIS2_PLACEMENT_3D ( 'NONE', #191, #402, #312 ) ;
#4 = DIRECTION ( 'NONE',  ( -0.000000000000000000, 1.000000000000000000, -0.000000000000000000 ) ) ;
#5 = LINE ( 'NONE', #180, #470 ) ;
#6 = DIRECTION ( 'NONE',  ( -0.000000000000000000, -1.000000000000000000, -0.000000000000000000 ) ) ;
#7 = EDGE_LOOP ( 'NONE', ( #553, #265, #40, #60, #439, #469, #290 ) ) ;
#8 = EDGE_CURVE ( 'NONE', #177, #331, #5, .T. ) ;
#9 = DIRECTION ( 'NONE',  ( -1.000000000000000000, 0.000000000000000000, 4.898587196589411843E-16 ) ) ;
#10 = ORIENTED_EDGE ( 'NONE', *, *, #356, .F. ) ;
#11 = AXIS2_PLACEMENT_3D ( 'NONE', #461, #455, #464 ) ;
#12 = APPROVAL_PERSON_ORGANIZATION ( #557, #221, #128 ) ;
#13 = DIRECTION ( 'NONE',  ( 0.000000000000000000, 0.000000000000000000, 1.000000000000000000 ) ) ;
#14 = EDGE_LOOP ( 'NONE', ( #54, #287 ) ) ;
#15 = DIRECTION ( 'NONE',  ( 0.000000000000000000, 1.000000000000000000, 0.000000000000000000 ) ) ;
#16 = CARTESIAN_POINT ( 'NONE',  ( -125.0000000000000000, 0.000000000000000000, -35.00000000000000000 ) ) ;
#17 = DIRECTION ( 'NONE',  ( 0.9659258262890682012, -0.000000000000000000, 0.2588190451025213501 ) ) ;
#18 = CC_DESIGN_PERSON_AND_ORGANIZATION_ASSIGNMENT ( #477, #225, ( #223 ) ) ;
#19 = DIRECTION ( 'NONE',  ( 7.930164461608270300E-16, 0.000000000000000000, 1.000000000000000000 ) ) ;
#20 = AXIS2_PLACEMENT_3D ( 'NONE', #228, #142, #19 ) ;
#21 = DIRECTION ( 'NONE',  ( 1.000000000000000000, 0.000000000000000000, 0.000000000000000000 ) ) ;
#22 = ADVANCED_FACE ( 'NONE', ( #182 ), #349, .F. ) ;
#23 = CARTESIAN_POINT ( 'NONE',  ( 21.00000000000000000, -45.25483399593907308, -197.9000000000000625 ) ) ;
#24 = FACE_BOUND ( 'NONE', #14, .T. ) ;
#25 = CC_DESIGN_DATE_AND_TIME_ASSIGNMENT ( #380, #474, ( #528 ) ) ;
#26 = FACE_OUTER_BOUND ( 'NONE', #7, .T. ) ;
#27 = VECTOR ( 'NONE', #322, 1000.000000000000000 ) ;
#28 = CARTESIAN_POINT ( 'NONE',  ( -125.0000000000000000, 0.000000000000000000, -4.346199070024311105E-14 ) ) ;
#29 = VERTEX_POINT ( 'NONE', #330 ) ;
#30 = CARTESIAN_POINT ( 'NONE',  ( 55.11885782231936304, 20.00000000000000000, -295.7999730980486106 ) ) ;
#31 = CARTESIAN_POINT ( 'NONE',  ( 124.9999999999999716, 20.00000000000000000, -35.00000000000012790 ) ) ;
#32 = ADVANCED_FACE ( 'NONE', ( #409, #24, #505, #26 ), #289, .F. ) ;
#33 = ORIENTED_EDGE ( 'NONE', *, *, #554, .T. ) ;
#34 = APPROVAL_STATUS ( 'not_yet_approved' ) ;
#35 = CARTESIAN_POINT ( 'NONE',  ( -4.163336342344337027E-14, 20.00000000000000000, -338.0941602516892317 ) ) ;
#36 = AXIS2_PLACEMENT_3D ( 'NONE', #525, #307, #50 ) ;
#37 = AXIS2_PLACEMENT_3D ( 'NONE', #358, #493, #449 ) ;
#38 = ORIENTED_EDGE ( 'NONE', *, *, #160, .F. ) ;
#39 = CARTESIAN_POINT ( 'NONE',  ( 21.00000000000000000, 20.00000000000000000, -197.9000000000000625 ) ) ;
#40 = ORIENTED_EDGE ( 'NONE', *, *, #350, .T. ) ;
#41 = DATE_AND_TIME ( #258, #49 ) ;
#42 = EDGE_CURVE ( 'NONE', #209, #261, #232, .T. ) ;
#43 = CARTESIAN_POINT ( 'NONE',  ( -125.0000000000000000, 0.000000000000000000, -35.00000000000000000 ) ) ;
#44 = ORIENTED_EDGE ( 'NONE', *, *, #323, .F. ) ;
#45 = CC_DESIGN_PERSON_AND_ORGANIZATION_ASSIGNMENT ( #463, #518, ( #528 ) ) ;
#46 = CARTESIAN_POINT ( 'NONE',  ( -4.163336342344337027E-14, 20.00000000000000000, -281.0309196568320544 ) ) ;
#47 = EDGE_LOOP ( 'NONE', ( #375, #140 ) ) ;
#48 = AXIS2_PLACEMENT_3D ( 'NONE', #249, #416, #543 ) ;
#49 = LOCAL_TIME ( 13, 49, 18.00000000000000000, #345 ) ;
#50 = DIRECTION ( 'NONE',  ( 0.000000000000000000, 0.000000000000000000, 1.000000000000000000 ) ) ;
#51 = ORIENTED_EDGE ( 'NONE', *, *, #179, .F. ) ;
#52 = CARTESIAN_POINT ( 'NONE',  ( 125.0000000000000000, 0.000000000000000000, -1.659266706149784044E-13 ) ) ;
#53 = ADVANCED_FACE ( 'NONE', ( #115 ), #200, .F. ) ;
#54 = ORIENTED_EDGE ( 'NONE', *, *, #451, .F. ) ;
#55 = DIRECTION ( 'NONE',  ( 0.000000000000000000, 1.000000000000000000, 0.000000000000000000 ) ) ;
#56 = VERTEX_POINT ( 'NONE', #28 ) ;
#57 = AXIS2_PLACEMENT_3D ( 'NONE', #157, #242, #275 ) ;
#58 = AXIS2_PLACEMENT_3D ( 'NONE', #63, #539, #321 ) ;
#59 = CYLINDRICAL_SURFACE ( 'NONE', #452, 57.06324059485717726 ) ;
#60 = ORIENTED_EDGE ( 'NONE', *, *, #520, .T. ) ;
#61 = ADVANCED_FACE ( 'NONE', ( #454 ), #122, .F. ) ;
#62 = DIRECTION ( 'NONE',  ( 0.000000000000000000, 0.000000000000000000, 1.000000000000000000 ) ) ;
#63 = CARTESIAN_POINT ( 'NONE',  ( 0.000000000000000000, 0.000000000000000000, -280.0000000000000568 ) ) ;
#64 = LINE ( 'NONE', #365, #407 ) ;
#65 = AXIS2_PLACEMENT_3D ( 'NONE', #353, #194, #532 ) ;
#66 = CC_DESIGN_DATE_AND_TIME_ASSIGNMENT ( #426, #168, ( #267 ) ) ;
#67 = DIRECTION ( 'NONE',  ( 0.000000000000000000, 0.000000000000000000, -1.000000000000000000 ) ) ;
#68 = CYLINDRICAL_SURFACE ( 'NONE', #11, 16.00000000000001421 ) ;
#69 = LINE ( 'NONE', #202, #85 ) ;
#70 = DIRECTION ( 'NONE',  ( -0.000000000000000000, 1.000000000000000000, -0.000000000000000000 ) ) ;
#71 = APPLICATION_PROTOCOL_DEFINITION ( 'international standard', 'config_control_design', 1994, #432 ) ;
#72 = DIRECTION ( 'NONE',  ( 0.000000000000000000, 0.000000000000000000, -1.000000000000000000 ) ) ;
#73 = VECTOR ( 'NONE', #139, 1000.000000000000000 ) ;
#74 = ORGANIZATION ( 'UNSPECIFIED', 'UNSPECIFIED', '' ) ;
#75 = VERTEX_POINT ( 'NONE', #366 ) ;
#76 = LINE ( 'NONE', #23, #491 ) ;
#77 = ADVANCED_FACE ( 'NONE', ( #207 ), #68, .F. ) ;
#78 = DIRECTION ( 'NONE',  ( 0.000000000000000000, -1.000000000000000000, 0.000000000000000000 ) ) ;
#79 = EDGE_LOOP ( 'NONE', ( #507, #248 ) ) ;
#80 = PERSON_AND_ORGANIZATION ( #515, #74 ) ;
#81 = DIRECTION ( 'NONE',  ( -0.000000000000000000, -1.000000000000000000, -0.000000000000000000 ) ) ;
#82 = ORIENTED_EDGE ( 'NONE', *, *, #465, .T. ) ;
#83 = DIRECTION ( 'NONE',  ( 0.000000000000000000, -1.000000000000000000, 0.000000000000000000 ) ) ;
#84 = CIRCLE ( 'NONE', #544, 16.00000000000001421 ) ;
#85 = VECTOR ( 'NONE', #120, 1000.000000000000000 ) ;
#86 = EDGE_CURVE ( 'NONE', #229, #344, #162, .T. ) ;
#87 = ORIENTED_EDGE ( 'NONE', *, *, #529, .F. ) ;
#88 = APPROVAL_DATE_TIME ( #174, #221 ) ;
#89 = DIRECTION ( 'NONE',  ( 0.000000000000000000, 0.000000000000000000, 1.000000000000000000 ) ) ;
#90 = EDGE_LOOP ( 'NONE', ( #217, #143, #197, #354 ) ) ;
#91 = APPROVAL_STATUS ( 'not_yet_approved' ) ;
#92 = FACE_OUTER_BOUND ( 'NONE', #272, .T. ) ;
#93 = ORIENTED_EDGE ( 'NONE', *, *, #86, .F. ) ;
#94 = APPROVAL_ROLE ( '' ) ;
#95 = DIRECTION ( 'NONE',  ( 1.000000000000000000, 0.000000000000000000, -4.898587196589411843E-16 ) ) ;
#96 = CIRCLE ( 'NONE', #222, 2.099999999999990763 ) ;
#97 = VERTEX_POINT ( 'NONE', #328 ) ;
#98 = AXIS2_PLACEMENT_3D ( 'NONE', #144, #152, #277 ) ;
#99 = LINE ( 'NONE', #540, #203 ) ;
#100 = EDGE_CURVE ( 'NONE', #186, #268, #333, .T. ) ;
#101 = ORIENTED_EDGE ( 'NONE', *, *, #259, .T. ) ;
#102 = FACE_OUTER_BOUND ( 'NONE', #190, .T. ) ;
#103 = ORIENTED_EDGE ( 'NONE', *, *, #340, .F. ) ;
#104 = CARTESIAN_POINT ( 'NONE',  ( -4.163336342344337027E-14, 20.00000000000000000, -281.0309196568320544 ) ) ;
#105 = ORIENTED_EDGE ( 'NONE', *, *, #252, .F. ) ;
#106 = CC_DESIGN_PERSON_AND_ORGANIZATION_ASSIGNMENT ( #116, #113, ( #284 ) ) ;
#107 = VECTOR ( 'NONE', #81, 1000.000000000000000 ) ;
#108 = AXIS2_PLACEMENT_3D ( 'NONE', #112, #369, #67 ) ;
#109 = CARTESIAN_POINT ( 'NONE',  ( -4.163336342344337027E-14, 0.000000000000000000, -338.0941602516892317 ) ) ;
#110 = CARTESIAN_POINT ( 'NONE',  ( -21.00000000000000000, -45.25483399593907308, -197.9000000000000625 ) ) ;
#111 = CYLINDRICAL_SURFACE ( 'NONE', #273, 2.099999999999990763 ) ;
#112 = CARTESIAN_POINT ( 'NONE',  ( -4.163336342344337027E-14, 0.000000000000000000, -281.0309196568320544 ) ) ;
#113 = PERSON_AND_ORGANIZATION_ROLE ( 'design_owner' ) ;
#114 =( NAMED_UNIT ( * ) PLANE_ANGLE_UNIT ( ) SI_UNIT ( $, .RADIAN. ) );
#115 = FACE_OUTER_BOUND ( 'NONE', #90, .T. ) ;
#116 = PERSON_AND_ORGANIZATION ( #515, #74 ) ;
#117 = CARTESIAN_POINT ( 'NONE',  ( -21.00000000000000000, -45.25483399593907308, -200.0000000000000568 ) ) ;
#118 = EDGE_LOOP ( 'NONE', ( #447, #127, #219, #396 ) ) ;
#119 = EDGE_CURVE ( 'NONE', #331, #167, #159, .T. ) ;
#120 = DIRECTION ( 'NONE',  ( 0.000000000000000000, 0.000000000000000000, 1.000000000000000000 ) ) ;
#121 = AXIS2_PLACEMENT_3D ( 'NONE', #346, #83, #422 ) ;
#122 = PLANE ( 'NONE',  #48 ) ;
#123 = CC_DESIGN_SECURITY_CLASSIFICATION ( #528, ( #223 ) ) ;
#124 = EDGE_LOOP ( 'NONE', ( #352, #387, #521, #336 ) ) ;
#125 = SHAPE_DEFINITION_REPRESENTATION ( #208, #187 ) ;
#126 = DIRECTION ( 'NONE',  ( -7.930164461608269314E-16, 0.000000000000000000, -1.000000000000000000 ) ) ;
#127 = ORIENTED_EDGE ( 'NONE', *, *, #300, .F. ) ;
#128 = APPROVAL_ROLE ( '' ) ;
#129 = DIRECTION ( 'NONE',  ( 0.000000000000000000, 0.000000000000000000, -1.000000000000000000 ) ) ;
#130 = EDGE_CURVE ( 'NONE', #466, #29, #240, .T. ) ;
#131 = VERTEX_POINT ( 'NONE', #16 ) ;
#132 = DIRECTION ( 'NONE',  ( -0.2588190451025213501, 0.000000000000000000, 0.9659258262890680902 ) ) ;
#133 = VERTEX_POINT ( 'NONE', #192 ) ;
#134 = FACE_BOUND ( 'NONE', #476, .T. ) ;
#135 = ORIENTED_EDGE ( 'NONE', *, *, #494, .T. ) ;
#136 = CARTESIAN_POINT ( 'NONE',  ( 21.00000000000000000, 20.00000000000000000, -202.1000000000000512 ) ) ;
#137 = ORIENTED_EDGE ( 'NONE', *, *, #282, .F. ) ;
#138 = EDGE_CURVE ( 'NONE', #29, #510, #283, .T. ) ;
#139 = DIRECTION ( 'NONE',  ( -0.000000000000000000, -1.000000000000000000, -0.000000000000000000 ) ) ;
#140 = ORIENTED_EDGE ( 'NONE', *, *, #130, .T. ) ;
#141 = LOCAL_TIME ( 13, 49, 18.00000000000000000, #550 ) ;
#142 = DIRECTION ( 'NONE',  ( -1.000000000000000000, 0.000000000000000000, 7.930164461608270300E-16 ) ) ;
#143 = ORIENTED_EDGE ( 'NONE', *, *, #188, .T. ) ;
#144 = CARTESIAN_POINT ( 'NONE',  ( 0.000000000000000000, 20.00000000000000000, -280.0000000000000568 ) ) ;
#145 = EDGE_CURVE ( 'NONE', #257, #301, #244, .T. ) ;
#146 = ORIENTED_EDGE ( 'NONE', *, *, #100, .F. ) ;
#147 = DIRECTION ( 'NONE',  ( -0.000000000000000000, -1.000000000000000000, -0.000000000000000000 ) ) ;
#148 = DIRECTION ( 'NONE',  ( 0.000000000000000000, 1.000000000000000000, -0.000000000000000000 ) ) ;
#149 = VECTOR ( 'NONE', #373, 1000.000000000000000 ) ;
#150 = AXIS2_PLACEMENT_3D ( 'NONE', #266, #17, #235 ) ;
#151 = LINE ( 'NONE', #238, #156 ) ;
#152 = DIRECTION ( 'NONE',  ( 0.000000000000000000, 1.000000000000000000, 0.000000000000000000 ) ) ;
#153 = EDGE_CURVE ( 'NONE', #556, #304, #96, .T. ) ;
#154 = DIRECTION ( 'NONE',  ( -0.000000000000000000, -1.000000000000000000, -0.000000000000000000 ) ) ;
#155 =( LENGTH_UNIT ( ) NAMED_UNIT ( * ) SI_UNIT ( .MILLI., .METRE. ) );
#156 = VECTOR ( 'NONE', #355, 1000.000000000000000 ) ;
#157 = CARTESIAN_POINT ( 'NONE',  ( 124.9999999999999716, 20.00000000000000000, -35.00000000000012790 ) ) ;
#158 = APPLICATION_PROTOCOL_DEFINITION ( 'international standard', 'config_control_design', 1994, #372 ) ;
#159 = LINE ( 'NONE', #419, #412 ) ;
#160 = EDGE_CURVE ( 'NONE', #331, #229, #247, .T. ) ;
#161 = ORIENTED_EDGE ( 'NONE', *, *, #282, .T. ) ;
#162 = LINE ( 'NONE', #31, #107 ) ;
#163 = EDGE_LOOP ( 'NONE', ( #347, #473, #390, #33 ) ) ;
#164 = CALENDAR_DATE ( 2026, 31, 7 ) ;
#165 = AXIS2_PLACEMENT_3D ( 'NONE', #457, #502, #500 ) ;
#166 = DIRECTION ( 'NONE',  ( 0.000000000000000000, 1.000000000000000000, -0.000000000000000000 ) ) ;
#167 = VERTEX_POINT ( 'NONE', #292 ) ;
#168 = DATE_TIME_ROLE ( 'creation_date' ) ;
#169 = APPROVAL ( #376, 'UNSPECIFIED' ) ;
#170 = LINE ( 'NONE', #427, #434 ) ;
#171 = EDGE_LOOP ( 'NONE', ( #137, #255, #441, #82 ) ) ;
#172 = DIRECTION ( 'NONE',  ( 0.000000000000000000, 0.000000000000000000, -1.000000000000000000 ) ) ;
#173 = EDGE_LOOP ( 'NONE', ( #489, #385 ) ) ;
#174 = DATE_AND_TIME ( #296, #214 ) ;
#175 = FACE_OUTER_BOUND ( 'NONE', #124, .T. ) ;
#176 = VECTOR ( 'NONE', #147, 1000.000000000000000 ) ;
#177 = VERTEX_POINT ( 'NONE', #357 ) ;
#178 = CARTESIAN_POINT ( 'NONE',  ( 124.9999999999999716, 20.00000000000000000, -35.00000000000012790 ) ) ;
#179 = EDGE_CURVE ( 'NONE', #133, #257, #84, .T. ) ;
#180 = CARTESIAN_POINT ( 'NONE',  ( -125.0000000000000000, 20.00000000000000000, -4.346199070024311105E-14 ) ) ;
#181 = DIRECTION ( 'NONE',  ( 0.000000000000000000, 0.000000000000000000, 1.000000000000000000 ) ) ;
#182 = FACE_OUTER_BOUND ( 'NONE', #233, .T. ) ;
#183 = PRODUCT_RELATED_PRODUCT_CATEGORY ( 'detail', '', ( #284 ) ) ;
#184 = CARTESIAN_POINT ( 'NONE',  ( 55.11885782231936304, 0.000000000000000000, -295.7999730980486106 ) ) ;
#185 = VECTOR ( 'NONE', #95, 1000.000000000000000 ) ;
#186 = VERTEX_POINT ( 'NONE', #35 ) ;
#187 = ADVANCED_BREP_SHAPE_REPRESENTATION ( 'RodRight_Default_sldprt', ( #193, #318 ), #308 ) ;
#188 = EDGE_CURVE ( 'NONE', #466, #97, #483, .T. ) ;
#189 = DIRECTION ( 'NONE',  ( 0.000000000000000000, 0.000000000000000000, 1.000000000000000000 ) ) ;
#190 = EDGE_LOOP ( 'NONE', ( #329, #211, #400, #462 ) ) ;
#191 = CARTESIAN_POINT ( 'NONE',  ( 21.00000000000000000, 0.000000000000000000, -200.0000000000000568 ) ) ;
#192 = CARTESIAN_POINT ( 'NONE',  ( 1.959434878635766315E-15, 0.000000000000000000, -296.0000000000001137 ) ) ;
#193 = MANIFOLD_SOLID_BREP ( 'Cut-Extrude2', #435 ) ;
#194 = DIRECTION ( 'NONE',  ( 0.000000000000000000, 1.000000000000000000, -0.000000000000000000 ) ) ;
#195 = FACE_OUTER_BOUND ( 'NONE', #253, .T. ) ;
#196 = ADVANCED_FACE ( 'NONE', ( #175 ), #348, .F. ) ;
#197 = ORIENTED_EDGE ( 'NONE', *, *, #363, .T. ) ;
#198 = COORDINATED_UNIVERSAL_TIME_OFFSET ( 3, 30, .AHEAD. ) ;
#199 = DIRECTION ( 'NONE',  ( -0.000000000000000000, 1.000000000000000000, -0.000000000000000000 ) ) ;
#200 = CYLINDRICAL_SURFACE ( 'NONE', #481, 2.099999999999990763 ) ;
#201 = CIRCLE ( 'NONE', #398, 2.099999999999990763 ) ;
#202 = CARTESIAN_POINT ( 'NONE',  ( -125.0000000000000000, 20.00000000000000000, -35.00000000000000000 ) ) ;
#203 = VECTOR ( 'NONE', #199, 1000.000000000000000 ) ;
#204 = EDGE_CURVE ( 'NONE', #314, #186, #245, .T. ) ;
#205 = CARTESIAN_POINT ( 'NONE',  ( 21.00000000000000000, 20.00000000000000000, -200.0000000000000568 ) ) ;
#206 =( NAMED_UNIT ( * ) SI_UNIT ( $, .STERADIAN. ) SOLID_ANGLE_UNIT ( ) );
#207 = FACE_OUTER_BOUND ( 'NONE', #480, .T. ) ;
#208 = PRODUCT_DEFINITION_SHAPE ( 'NONE', 'NONE',  #267 ) ;
#209 = VERTEX_POINT ( 'NONE', #136 ) ;
#210 = DIRECTION ( 'NONE',  ( 0.000000000000000000, 1.000000000000000000, -0.000000000000000000 ) ) ;
#211 = ORIENTED_EDGE ( 'NONE', *, *, #119, .F. ) ;
#212 = VECTOR ( 'NONE', #132, 1000.000000000000000 ) ;
#213 = CARTESIAN_POINT ( 'NONE',  ( 1.959434878635766709E-15, -45.25483399593907308, -296.0000000000001137 ) ) ;
#214 = LOCAL_TIME ( 13, 49, 18.00000000000000000, #302 ) ;
#215 = ORIENTED_EDGE ( 'NONE', *, *, #340, .T. ) ;
#216 = LINE ( 'NONE', #561, #185 ) ;
#217 = ORIENTED_EDGE ( 'NONE', *, *, #130, .F. ) ;
#218 = DIRECTION ( 'NONE',  ( 0.000000000000000000, 0.000000000000000000, 1.000000000000000000 ) ) ;
#219 = ORIENTED_EDGE ( 'NONE', *, *, #138, .T. ) ;
#220 = FACE_OUTER_BOUND ( 'NONE', #250, .T. ) ;
#221 = APPROVAL ( #34, 'UNSPECIFIED' ) ;
#222 = AXIS2_PLACEMENT_3D ( 'NONE', #411, #166, #72 ) ;
#223 = PRODUCT_DEFINITION_FORMATION_WITH_SPECIFIED_SOURCE ( 'ANY', '', #284, .NOT_KNOWN. ) ;
#224 = ORIENTED_EDGE ( 'NONE', *, *, #401, .T. ) ;
#225 = PERSON_AND_ORGANIZATION_ROLE ( 'design_supplier' ) ;
#226 = FACE_OUTER_BOUND ( 'NONE', #171, .T. ) ;
#227 = ORIENTED_EDGE ( 'NONE', *, *, #119, .T. ) ;
#228 = CARTESIAN_POINT ( 'NONE',  ( 125.0000000000000000, 20.00000000000000000, -1.659266706149784044E-13 ) ) ;
#229 = VERTEX_POINT ( 'NONE', #178 ) ;
#230 = EDGE_CURVE ( 'NONE', #56, #167, #216, .T. ) ;
#231 = PLANE ( 'NONE',  #471 ) ;
#232 = CIRCLE ( 'NONE', #425, 2.099999999999990763 ) ;
#233 = EDGE_LOOP ( 'NONE', ( #503, #531, #87, #524 ) ) ;
#234 = AXIS2_PLACEMENT_3D ( 'NONE', #269, #15, #189 ) ;
#235 = DIRECTION ( 'NONE',  ( 0.2588190451025212946, 0.000000000000000000, -0.9659258262890680902 ) ) ;
#236 = ORIENTED_EDGE ( 'NONE', *, *, #356, .T. ) ;
#237 = FACE_OUTER_BOUND ( 'NONE', #443, .T. ) ;
#238 = CARTESIAN_POINT ( 'NONE',  ( -55.11885782231924935, 20.00000000000000000, -295.7999730980483832 ) ) ;
#239 = ADVANCED_FACE ( 'NONE', ( #384, #260, #134, #220 ), #558, .T. ) ;
#240 = CIRCLE ( 'NONE', #165, 2.099999999999990763 ) ;
#241 = LINE ( 'NONE', #30, #27 ) ;
#242 = DIRECTION ( 'NONE',  ( -0.9659258262890683122, 0.000000000000000000, 0.2588190451025206840 ) ) ;
#243 = EDGE_CURVE ( 'NONE', #344, #433, #170, .T. ) ;
#244 = LINE ( 'NONE', #551, #149 ) ;
#245 = CIRCLE ( 'NONE', #316, 57.06324059485717726 ) ;
#246 = APPROVAL_ROLE ( '' ) ;
#247 = LINE ( 'NONE', #509, #406 ) ;
#248 = ORIENTED_EDGE ( 'NONE', *, *, #363, .F. ) ;
#249 = CARTESIAN_POINT ( 'NONE',  ( -125.0000000000000000, 20.00000000000000000, -35.00000000000000000 ) ) ;
#250 = EDGE_LOOP ( 'NONE', ( #527, #311, #514, #549, #44, #105, #382 ) ) ;
#251 = CARTESIAN_POINT ( 'NONE',  ( 0.000000000000000000, -45.25483399593907308, -280.0000000000000568 ) ) ;
#252 = EDGE_CURVE ( 'NONE', #420, #131, #256, .T. ) ;
#253 = EDGE_LOOP ( 'NONE', ( #224, #93, #38, #227 ) ) ;
#254 = CARTESIAN_POINT ( 'NONE',  ( -4.163336342344337027E-14, 20.00000000000000000, -338.0941602516892317 ) ) ;
#255 = ORIENTED_EDGE ( 'NONE', *, *, #486, .F. ) ;
#256 = LINE ( 'NONE', #342, #212 ) ;
#257 = VERTEX_POINT ( 'NONE', #262 ) ;
#258 = CALENDAR_DATE ( 2026, 31, 7 ) ;
#259 = EDGE_CURVE ( 'NONE', #186, #338, #339, .T. ) ;
#260 = FACE_BOUND ( 'NONE', #428, .T. ) ;
#261 = VERTEX_POINT ( 'NONE', #39 ) ;
#262 = CARTESIAN_POINT ( 'NONE',  ( 0.000000000000000000, 0.000000000000000000, -264.0000000000000568 ) ) ;
#263 = AXIS2_PLACEMENT_3D ( 'NONE', #548, #78, #335 ) ;
#264 = AXIS2_PLACEMENT_3D ( 'NONE', #274, #361, #13 ) ;
#265 = ORIENTED_EDGE ( 'NONE', *, *, #100, .T. ) ;
#266 = CARTESIAN_POINT ( 'NONE',  ( -55.11885782231924935, 20.00000000000000000, -295.7999730980483832 ) ) ;
#267 = PRODUCT_DEFINITION ( 'UNKNOWN', '', #223, #313 ) ;
#268 = VERTEX_POINT ( 'NONE', #436 ) ;
#269 = CARTESIAN_POINT ( 'NONE',  ( 0.000000000000000000, 20.00000000000000000, -280.0000000000000568 ) ) ;
#270 = ORIENTED_EDGE ( 'NONE', *, *, #153, .T. ) ;
#271 = DIRECTION ( 'NONE',  ( -0.000000000000000000, 1.000000000000000000, -0.000000000000000000 ) ) ;
#272 = EDGE_LOOP ( 'NONE', ( #146, #101, #424, #103 ) ) ;
#273 = AXIS2_PLACEMENT_3D ( 'NONE', #530, #271, #405 ) ;
#274 = CARTESIAN_POINT ( 'NONE',  ( -21.00000000000000000, 20.00000000000000000, -200.0000000000000568 ) ) ;
#275 = DIRECTION ( 'NONE',  ( 0.2588190451025206840, 0.000000000000000000, 0.9659258262890683122 ) ) ;
#276 = EDGE_CURVE ( 'NONE', #177, #56, #294, .T. ) ;
#277 = DIRECTION ( 'NONE',  ( 0.000000000000000000, 0.000000000000000000, 1.000000000000000000 ) ) ;
#278 = LINE ( 'NONE', #453, #368 ) ;
#279 = AXIS2_PLACEMENT_3D ( 'NONE', #251, #472, #89 ) ;
#280 = APPROVAL_PERSON_ORGANIZATION ( #80, #468, #94 ) ;
#281 = APPROVAL_DATE_TIME ( #364, #169 ) ;
#282 = EDGE_CURVE ( 'NONE', #133, #430, #303, .T. ) ;
#283 = LINE ( 'NONE', #110, #359 ) ;
#284 = PRODUCT ( 'RodRight_Default_sldprt', 'RodRight_Default_sldprt', '', ( #327 ) ) ;
#285 = CALENDAR_DATE ( 2026, 31, 7 ) ;
#286 = DIRECTION ( 'NONE',  ( 0.000000000000000000, 0.000000000000000000, -1.000000000000000000 ) ) ;
#287 = ORIENTED_EDGE ( 'NONE', *, *, #42, .F. ) ;
#288 = VECTOR ( 'NONE', #440, 1000.000000000000000 ) ;
#289 = PLANE ( 'NONE',  #263 ) ;
#290 = ORIENTED_EDGE ( 'NONE', *, *, #529, .T. ) ;
#291 = ADVANCED_FACE ( 'NONE', ( #381 ), #337, .F. ) ;
#292 = CARTESIAN_POINT ( 'NONE',  ( 125.0000000000000000, 0.000000000000000000, -1.659266706149784044E-13 ) ) ;
#293 = ORIENTED_EDGE ( 'NONE', *, *, #252, .T. ) ;
#294 = LINE ( 'NONE', #388, #367 ) ;
#295 = EDGE_LOOP ( 'NONE', ( #362, #1, #394, #417 ) ) ;
#296 = CALENDAR_DATE ( 2026, 31, 7 ) ;
#297 = AXIS2_PLACEMENT_3D ( 'NONE', #386, #513, #181 ) ;
#298 = CYLINDRICAL_SURFACE ( 'NONE', #279, 16.00000000000001421 ) ;
#299 = CIRCLE ( 'NONE', #58, 16.00000000000001421 ) ;
#300 = EDGE_CURVE ( 'NONE', #29, #466, #201, .T. ) ;
#301 = VERTEX_POINT ( 'NONE', #523 ) ;
#302 = COORDINATED_UNIVERSAL_TIME_OFFSET ( 3, 30, .AHEAD. ) ;
#303 = LINE ( 'NONE', #213, #2 ) ;
#304 = VERTEX_POINT ( 'NONE', #516 ) ;
#305 = DIRECTION ( 'NONE',  ( -0.000000000000000000, 1.000000000000000000, -0.000000000000000000 ) ) ;
#306 = DIRECTION ( 'NONE',  ( 1.000000000000000000, 0.000000000000000000, -4.898587196589411843E-16 ) ) ;
#307 = DIRECTION ( 'NONE',  ( -0.000000000000000000, 1.000000000000000000, -0.000000000000000000 ) ) ;
#308 =( GEOMETRIC_REPRESENTATION_CONTEXT ( 3 ) GLOBAL_UNCERTAINTY_ASSIGNED_CONTEXT ( ( #526 ) ) GLOBAL_UNIT_ASSIGNED_CONTEXT ( ( #155, #114, #206 ) ) REPRESENTATION_CONTEXT ( 'NONE', 'WORKASPACE' ) );
#309 = ORIENTED_EDGE ( 'NONE', *, *, #486, .T. ) ;
#310 = LINE ( 'NONE', #52, #288 ) ;
#311 = ORIENTED_EDGE ( 'NONE', *, *, #243, .F. ) ;
#312 = DIRECTION ( 'NONE',  ( 0.000000000000000000, 0.000000000000000000, -1.000000000000000000 ) ) ;
#313 = DESIGN_CONTEXT ( 'detailed design', #432, 'design' ) ;
#314 = VERTEX_POINT ( 'NONE', #431 ) ;
#315 = FACE_OUTER_BOUND ( 'NONE', #118, .T. ) ;
#316 = AXIS2_PLACEMENT_3D ( 'NONE', #46, #392, #129 ) ;
#317 = DIRECTION ( 'NONE',  ( 0.000000000000000000, 1.000000000000000000, -0.000000000000000000 ) ) ;
#318 = AXIS2_PLACEMENT_3D ( 'NONE', #410, #495, #21 ) ;
#319 = ADVANCED_FACE ( 'NONE', ( #226 ), #298, .F. ) ;
#320 = CARTESIAN_POINT ( 'NONE',  ( -55.11885782231924935, 0.000000000000000000, -295.7999730980483832 ) ) ;
#321 = DIRECTION ( 'NONE',  ( 0.000000000000000000, 0.000000000000000000, -1.000000000000000000 ) ) ;
#322 = DIRECTION ( 'NONE',  ( -0.000000000000000000, -1.000000000000000000, -0.000000000000000000 ) ) ;
#323 = EDGE_CURVE ( 'NONE', #131, #56, #429, .T. ) ;
#324 = CIRCLE ( 'NONE', #98, 16.00000000000001421 ) ;
#325 = CARTESIAN_POINT ( 'NONE',  ( -4.163336342344337027E-14, 20.00000000000000000, -281.0309196568320544 ) ) ;
#326 = CARTESIAN_POINT ( 'NONE',  ( -4.163336342344337027E-14, 20.00000000000000000, -281.0309196568320544 ) ) ;
#327 = MECHANICAL_CONTEXT ( 'NONE', #372, 'mechanical' ) ;
#328 = CARTESIAN_POINT ( 'NONE',  ( -21.00000000000000000, 20.00000000000000000, -202.1000000000000512 ) ) ;
#329 = ORIENTED_EDGE ( 'NONE', *, *, #230, .T. ) ;
#330 = CARTESIAN_POINT ( 'NONE',  ( -21.00000000000000000, 0.000000000000000000, -197.9000000000000625 ) ) ;
#331 = VERTEX_POINT ( 'NONE', #475 ) ;
#332 = ADVANCED_FACE ( 'NONE', ( #92 ), #59, .T. ) ;
#333 = CIRCLE ( 'NONE', #458, 57.06324059485717726 ) ;
#334 = CIRCLE ( 'NONE', #264, 2.099999999999990763 ) ;
#335 = DIRECTION ( 'NONE',  ( 0.000000000000000000, -0.000000000000000000, -1.000000000000000000 ) ) ;
#336 = ORIENTED_EDGE ( 'NONE', *, *, #451, .T. ) ;
#337 = CYLINDRICAL_SURFACE ( 'NONE', #36, 2.099999999999990763 ) ;
#338 = VERTEX_POINT ( 'NONE', #109 ) ;
#339 = LINE ( 'NONE', #254, #73 ) ;
#340 = EDGE_CURVE ( 'NONE', #268, #420, #534, .T. ) ;
#341 = ORIENTED_EDGE ( 'NONE', *, *, #542, .F. ) ;
#342 = CARTESIAN_POINT ( 'NONE',  ( -55.11885782231924935, 0.000000000000000000, -295.7999730980483832 ) ) ;
#343 = CIRCLE ( 'NONE', #108, 57.06324059485717726 ) ;
#344 = VERTEX_POINT ( 'NONE', #395 ) ;
#345 = COORDINATED_UNIVERSAL_TIME_OFFSET ( 3, 30, .AHEAD. ) ;
#346 = CARTESIAN_POINT ( 'NONE',  ( -4.163336342344337027E-14, 0.000000000000000000, -281.0309196568320544 ) ) ;
#347 = ORIENTED_EDGE ( 'NONE', *, *, #323, .T. ) ;
#348 = CYLINDRICAL_SURFACE ( 'NONE', #297, 2.099999999999990763 ) ;
#349 = PLANE ( 'NONE',  #57 ) ;
#350 = EDGE_CURVE ( 'NONE', #268, #75, #151, .T. ) ;
#351 = CARTESIAN_POINT ( 'NONE',  ( -21.00000000000000000, 20.00000000000000000, -200.0000000000000568 ) ) ;
#352 = ORIENTED_EDGE ( 'NONE', *, *, #494, .F. ) ;
#353 = CARTESIAN_POINT ( 'NONE',  ( 21.00000000000000000, 20.00000000000000000, -200.0000000000000568 ) ) ;
#354 = ORIENTED_EDGE ( 'NONE', *, *, #138, .F. ) ;
#355 = DIRECTION ( 'NONE',  ( -0.2588190451025213501, 0.000000000000000000, 0.9659258262890680902 ) ) ;
#356 = EDGE_CURVE ( 'NONE', #304, #556, #482, .T. ) ;
#357 = CARTESIAN_POINT ( 'NONE',  ( -125.0000000000000000, 20.00000000000000000, -4.346199070024311105E-14 ) ) ;
#358 = CARTESIAN_POINT ( 'NONE',  ( -4.163336342344337027E-14, 0.000000000000000000, -281.0309196568320544 ) ) ;
#359 = VECTOR ( 'NONE', #377, 1000.000000000000000 ) ;
#360 = CC_DESIGN_APPROVAL ( #468, ( #528 ) ) ;
#361 = DIRECTION ( 'NONE',  ( 0.000000000000000000, 1.000000000000000000, 0.000000000000000000 ) ) ;
#362 = ORIENTED_EDGE ( 'NONE', *, *, #259, .F. ) ;
#363 = EDGE_CURVE ( 'NONE', #97, #510, #334, .T. ) ;
#364 = DATE_AND_TIME ( #285, #460 ) ;
#365 = CARTESIAN_POINT ( 'NONE',  ( -125.0000000000000000, 20.00000000000000000, -35.00000000000000000 ) ) ;
#366 = CARTESIAN_POINT ( 'NONE',  ( -125.0000000000000000, 20.00000000000000000, -35.00000000000000000 ) ) ;
#367 = VECTOR ( 'NONE', #6, 1000.000000000000000 ) ;
#368 = VECTOR ( 'NONE', #450, 1000.000000000000114 ) ;
#369 = DIRECTION ( 'NONE',  ( 0.000000000000000000, 1.000000000000000000, -0.000000000000000000 ) ) ;
#370 = DIRECTION ( 'NONE',  ( 0.000000000000000000, 0.000000000000000000, -1.000000000000000000 ) ) ;
#371 = PERSON_AND_ORGANIZATION ( #515, #74 ) ;
#372 = APPLICATION_CONTEXT ( 'configuration controlled 3d designs of mechanical parts and assemblies' ) ;
#373 = DIRECTION ( 'NONE',  ( -0.000000000000000000, 1.000000000000000000, -0.000000000000000000 ) ) ;
#374 = EDGE_CURVE ( 'NONE', #510, #97, #413, .T. ) ;
#375 = ORIENTED_EDGE ( 'NONE', *, *, #300, .T. ) ;
#376 = APPROVAL_STATUS ( 'not_yet_approved' ) ;
#377 = DIRECTION ( 'NONE',  ( -0.000000000000000000, 1.000000000000000000, -0.000000000000000000 ) ) ;
#378 = ORIENTED_EDGE ( 'NONE', *, *, #444, .T. ) ;
#379 = VECTOR ( 'NONE', #305, 1000.000000000000000 ) ;
#380 = DATE_AND_TIME ( #511, #537 ) ;
#381 = FACE_OUTER_BOUND ( 'NONE', #517, .T. ) ;
#382 = ORIENTED_EDGE ( 'NONE', *, *, #478, .F. ) ;
#383 = ADVANCED_FACE ( 'NONE', ( #315 ), #111, .F. ) ;
#384 = FACE_BOUND ( 'NONE', #47, .T. ) ;
#385 = ORIENTED_EDGE ( 'NONE', *, *, #444, .F. ) ;
#386 = CARTESIAN_POINT ( 'NONE',  ( 21.00000000000000000, -45.25483399593907308, -200.0000000000000568 ) ) ;
#387 = ORIENTED_EDGE ( 'NONE', *, *, #153, .F. ) ;
#388 = CARTESIAN_POINT ( 'NONE',  ( -125.0000000000000000, 20.00000000000000000, -4.346199070024311105E-14 ) ) ;
#389 = APPROVAL_PERSON_ORGANIZATION ( #496, #169, #246 ) ;
#390 = ORIENTED_EDGE ( 'NONE', *, *, #520, .F. ) ;
#391 = COORDINATED_UNIVERSAL_TIME_OFFSET ( 3, 30, .AHEAD. ) ;
#392 = DIRECTION ( 'NONE',  ( 0.000000000000000000, 1.000000000000000000, -0.000000000000000000 ) ) ;
#393 = ADVANCED_FACE ( 'NONE', ( #102 ), #231, .F. ) ;
#394 = ORIENTED_EDGE ( 'NONE', *, *, #538, .T. ) ;
#395 = CARTESIAN_POINT ( 'NONE',  ( 124.9999999999999716, 0.000000000000000000, -35.00000000000012790 ) ) ;
#396 = ORIENTED_EDGE ( 'NONE', *, *, #374, .T. ) ;
#397 = CARTESIAN_POINT ( 'NONE',  ( 1.959434878635766315E-15, 20.00000000000000000, -296.0000000000001137 ) ) ;
#398 = AXIS2_PLACEMENT_3D ( 'NONE', #467, #519, #172 ) ;
#399 = CIRCLE ( 'NONE', #65, 2.099999999999990763 ) ;
#400 = ORIENTED_EDGE ( 'NONE', *, *, #8, .F. ) ;
#401 = EDGE_CURVE ( 'NONE', #167, #344, #310, .T. ) ;
#402 = DIRECTION ( 'NONE',  ( 0.000000000000000000, 1.000000000000000000, -0.000000000000000000 ) ) ;
#403 = DIRECTION ( 'NONE',  ( -0.000000000000000000, -1.000000000000000000, -0.000000000000000000 ) ) ;
#404 = PLANE ( 'NONE',  #150 ) ;
#405 = DIRECTION ( 'NONE',  ( 0.000000000000000000, 0.000000000000000000, 1.000000000000000000 ) ) ;
#406 = VECTOR ( 'NONE', #126, 1000.000000000000000 ) ;
#407 = VECTOR ( 'NONE', #418, 1000.000000000000000 ) ;
#408 = FACE_OUTER_BOUND ( 'NONE', #295, .T. ) ;
#409 = FACE_BOUND ( 'NONE', #79, .T. ) ;
#410 = CARTESIAN_POINT ( 'NONE',  ( 0.000000000000000000, 0.000000000000000000, 0.000000000000000000 ) ) ;
#411 = CARTESIAN_POINT ( 'NONE',  ( 21.00000000000000000, 0.000000000000000000, -200.0000000000000568 ) ) ;
#412 = VECTOR ( 'NONE', #403, 1000.000000000000000 ) ;
#413 = CIRCLE ( 'NONE', #498, 2.099999999999990763 ) ;
#414 = DIRECTION ( 'NONE',  ( 0.000000000000000000, 0.000000000000000000, -1.000000000000000000 ) ) ;
#415 = ADVANCED_FACE ( 'NONE', ( #237 ), #404, .F. ) ;
#416 = DIRECTION ( 'NONE',  ( 1.000000000000000000, 0.000000000000000000, 0.000000000000000000 ) ) ;
#417 = ORIENTED_EDGE ( 'NONE', *, *, #512, .T. ) ;
#418 = DIRECTION ( 'NONE',  ( -0.000000000000000000, -1.000000000000000000, -0.000000000000000000 ) ) ;
#419 = CARTESIAN_POINT ( 'NONE',  ( 125.0000000000000000, 20.00000000000000000, -1.659266706149784044E-13 ) ) ;
#420 = VERTEX_POINT ( 'NONE', #320 ) ;
#421 = APPROVAL_DATE_TIME ( #41, #468 ) ;
#422 = DIRECTION ( 'NONE',  ( 0.000000000000000000, -0.000000000000000000, -1.000000000000000000 ) ) ;
#423 = CC_DESIGN_PERSON_AND_ORGANIZATION_ASSIGNMENT ( #371, #547, ( #267 ) ) ;
#424 = ORIENTED_EDGE ( 'NONE', *, *, #478, .T. ) ;
#425 = AXIS2_PLACEMENT_3D ( 'NONE', #205, #317, #370 ) ;
#426 = DATE_AND_TIME ( #164, #141 ) ;
#427 = CARTESIAN_POINT ( 'NONE',  ( 124.9999999999999716, 0.000000000000000000, -35.00000000000012790 ) ) ;
#428 = EDGE_LOOP ( 'NONE', ( #270, #236 ) ) ;
#429 = LINE ( 'NONE', #43, #497 ) ;
#430 = VERTEX_POINT ( 'NONE', #397 ) ;
#431 = CARTESIAN_POINT ( 'NONE',  ( 55.11885782231936304, 20.00000000000000000, -295.7999730980486106 ) ) ;
#432 = APPLICATION_CONTEXT ( 'configuration controlled 3d designs of mechanical parts and assemblies' ) ;
#433 = VERTEX_POINT ( 'NONE', #184 ) ;
#434 = VECTOR ( 'NONE', #479, 1000.000000000000114 ) ;
#435 = CLOSED_SHELL ( 'NONE', ( #53, #291, #77, #332, #501, #415, #61, #393, #438, #22, #32, #239, #319, #196, #383 ) ) ;
#436 = CARTESIAN_POINT ( 'NONE',  ( -55.11885782231924935, 20.00000000000000000, -295.7999730980483832 ) ) ;
#437 = AXIS2_PLACEMENT_3D ( 'NONE', #325, #154, #414 ) ;
#438 = ADVANCED_FACE ( 'NONE', ( #195 ), #485, .F. ) ;
#439 = ORIENTED_EDGE ( 'NONE', *, *, #8, .T. ) ;
#440 = DIRECTION ( 'NONE',  ( -7.930164461608269314E-16, 0.000000000000000000, -1.000000000000000000 ) ) ;
#441 = ORIENTED_EDGE ( 'NONE', *, *, #145, .T. ) ;
#442 = DIRECTION ( 'NONE',  ( -0.000000000000000000, -1.000000000000000000, -0.000000000000000000 ) ) ;
#443 = EDGE_LOOP ( 'NONE', ( #293, #487, #559, #215 ) ) ;
#444 = EDGE_CURVE ( 'NONE', #430, #301, #446, .T. ) ;
#445 = DIRECTION ( 'NONE',  ( -4.898587196589411843E-16, 0.000000000000000000, -1.000000000000000000 ) ) ;
#446 = CIRCLE ( 'NONE', #234, 16.00000000000001421 ) ;
#447 = ORIENTED_EDGE ( 'NONE', *, *, #188, .F. ) ;
#448 = CARTESIAN_POINT ( 'NONE',  ( -125.0000000000000000, 20.00000000000000000, -4.346199070024311105E-14 ) ) ;
#449 = DIRECTION ( 'NONE',  ( 0.000000000000000000, 0.000000000000000000, -1.000000000000000000 ) ) ;
#450 = DIRECTION ( 'NONE',  ( -0.2588190451025206840, 0.000000000000000000, -0.9659258262890683122 ) ) ;
#451 = EDGE_CURVE ( 'NONE', #261, #209, #399, .T. ) ;
#452 = AXIS2_PLACEMENT_3D ( 'NONE', #104, #442, #490 ) ;
#453 = CARTESIAN_POINT ( 'NONE',  ( 124.9999999999999716, 20.00000000000000000, -35.00000000000012790 ) ) ;
#454 = FACE_OUTER_BOUND ( 'NONE', #163, .T. ) ;
#455 = DIRECTION ( 'NONE',  ( -0.000000000000000000, 1.000000000000000000, -0.000000000000000000 ) ) ;
#456 = CARTESIAN_POINT ( 'NONE',  ( -21.00000000000000000, 20.00000000000000000, -197.9000000000000625 ) ) ;
#457 = CARTESIAN_POINT ( 'NONE',  ( -21.00000000000000000, 0.000000000000000000, -200.0000000000000568 ) ) ;
#458 = AXIS2_PLACEMENT_3D ( 'NONE', #326, #210, #286 ) ;
#459 = ORIENTED_EDGE ( 'NONE', *, *, #179, .T. ) ;
#460 = LOCAL_TIME ( 13, 49, 18.00000000000000000, #198 ) ;
#461 = CARTESIAN_POINT ( 'NONE',  ( 0.000000000000000000, -45.25483399593907308, -280.0000000000000568 ) ) ;
#462 = ORIENTED_EDGE ( 'NONE', *, *, #276, .T. ) ;
#463 = PERSON_AND_ORGANIZATION ( #515, #74 ) ;
#464 = DIRECTION ( 'NONE',  ( 0.000000000000000000, 0.000000000000000000, 1.000000000000000000 ) ) ;
#465 = EDGE_CURVE ( 'NONE', #301, #430, #324, .T. ) ;
#466 = VERTEX_POINT ( 'NONE', #488 ) ;
#467 = CARTESIAN_POINT ( 'NONE',  ( -21.00000000000000000, 0.000000000000000000, -200.0000000000000568 ) ) ;
#468 = APPROVAL ( #91, 'UNSPECIFIED' ) ;
#469 = ORIENTED_EDGE ( 'NONE', *, *, #160, .T. ) ;
#470 = VECTOR ( 'NONE', #306, 1000.000000000000000 ) ;
#471 = AXIS2_PLACEMENT_3D ( 'NONE', #448, #445, #9 ) ;
#472 = DIRECTION ( 'NONE',  ( -0.000000000000000000, 1.000000000000000000, -0.000000000000000000 ) ) ;
#473 = ORIENTED_EDGE ( 'NONE', *, *, #276, .F. ) ;
#474 = DATE_TIME_ROLE ( 'classification_date' ) ;
#475 = CARTESIAN_POINT ( 'NONE',  ( 125.0000000000000000, 20.00000000000000000, -1.659266706149784044E-13 ) ) ;
#476 = EDGE_LOOP ( 'NONE', ( #309, #459 ) ) ;
#477 = PERSON_AND_ORGANIZATION ( #515, #74 ) ;
#478 = EDGE_CURVE ( 'NONE', #338, #420, #545, .T. ) ;
#479 = DIRECTION ( 'NONE',  ( -0.2588190451025206840, 0.000000000000000000, -0.9659258262890683122 ) ) ;
#480 = EDGE_LOOP ( 'NONE', ( #51, #161, #378, #484 ) ) ;
#481 = AXIS2_PLACEMENT_3D ( 'NONE', #117, #70, #546 ) ;
#482 = CIRCLE ( 'NONE', #3, 2.099999999999990763 ) ;
#483 = LINE ( 'NONE', #555, #379 ) ;
#484 = ORIENTED_EDGE ( 'NONE', *, *, #145, .F. ) ;
#485 = PLANE ( 'NONE',  #20 ) ;
#486 = EDGE_CURVE ( 'NONE', #257, #133, #299, .T. ) ;
#487 = ORIENTED_EDGE ( 'NONE', *, *, #554, .F. ) ;
#488 = CARTESIAN_POINT ( 'NONE',  ( -21.00000000000000000, 0.000000000000000000, -202.1000000000000512 ) ) ;
#489 = ORIENTED_EDGE ( 'NONE', *, *, #465, .F. ) ;
#490 = DIRECTION ( 'NONE',  ( 0.000000000000000000, 0.000000000000000000, -1.000000000000000000 ) ) ;
#491 = VECTOR ( 'NONE', #541, 1000.000000000000000 ) ;
#492 = DIRECTION ( 'NONE',  ( 0.000000000000000000, 0.000000000000000000, -1.000000000000000000 ) ) ;
#493 = DIRECTION ( 'NONE',  ( 0.000000000000000000, 1.000000000000000000, -0.000000000000000000 ) ) ;
#494 = EDGE_CURVE ( 'NONE', #304, #209, #99, .T. ) ;
#495 = DIRECTION ( 'NONE',  ( 0.000000000000000000, 0.000000000000000000, 1.000000000000000000 ) ) ;
#496 = PERSON_AND_ORGANIZATION ( #515, #74 ) ;
#497 = VECTOR ( 'NONE', #218, 1000.000000000000000 ) ;
#498 = AXIS2_PLACEMENT_3D ( 'NONE', #351, #55, #62 ) ;
#499 = CARTESIAN_POINT ( 'NONE',  ( 21.00000000000000000, 0.000000000000000000, -197.9000000000000625 ) ) ;
#500 = DIRECTION ( 'NONE',  ( 0.000000000000000000, 0.000000000000000000, -1.000000000000000000 ) ) ;
#501 = ADVANCED_FACE ( 'NONE', ( #408 ), #504, .T. ) ;
#502 = DIRECTION ( 'NONE',  ( 0.000000000000000000, 1.000000000000000000, -0.000000000000000000 ) ) ;
#503 = ORIENTED_EDGE ( 'NONE', *, *, #243, .T. ) ;
#504 = CYLINDRICAL_SURFACE ( 'NONE', #437, 57.06324059485717726 ) ;
#505 = FACE_BOUND ( 'NONE', #173, .T. ) ;
#506 = CC_DESIGN_APPROVAL ( #221, ( #223 ) ) ;
#507 = ORIENTED_EDGE ( 'NONE', *, *, #374, .F. ) ;
#508 = PERSON_AND_ORGANIZATION ( #515, #74 ) ;
#509 = CARTESIAN_POINT ( 'NONE',  ( 125.0000000000000000, 20.00000000000000000, -1.659266706149784044E-13 ) ) ;
#510 = VERTEX_POINT ( 'NONE', #456 ) ;
#511 = CALENDAR_DATE ( 2026, 31, 7 ) ;
#512 = EDGE_CURVE ( 'NONE', #433, #338, #343, .T. ) ;
#513 = DIRECTION ( 'NONE',  ( -0.000000000000000000, 1.000000000000000000, -0.000000000000000000 ) ) ;
#514 = ORIENTED_EDGE ( 'NONE', *, *, #401, .F. ) ;
#515 = PERSON ( 'UNSPECIFIED', 'UNSPECIFIED', 'UNSPECIFIED', ('UNSPECIFIED'), ('UNSPECIFIED'), ('UNSPECIFIED') ) ;
#516 = CARTESIAN_POINT ( 'NONE',  ( 21.00000000000000000, 0.000000000000000000, -202.1000000000000512 ) ) ;
#517 = EDGE_LOOP ( 'NONE', ( #10, #135, #533, #341 ) ) ;
#518 = PERSON_AND_ORGANIZATION_ROLE ( 'classification_officer' ) ;
#519 = DIRECTION ( 'NONE',  ( 0.000000000000000000, 1.000000000000000000, -0.000000000000000000 ) ) ;
#520 = EDGE_CURVE ( 'NONE', #75, #177, #69, .T. ) ;
#521 = ORIENTED_EDGE ( 'NONE', *, *, #542, .T. ) ;
#522 = SECURITY_CLASSIFICATION_LEVEL ( 'unclassified' ) ;
#523 = CARTESIAN_POINT ( 'NONE',  ( 0.000000000000000000, 20.00000000000000000, -264.0000000000000568 ) ) ;
#524 = ORIENTED_EDGE ( 'NONE', *, *, #86, .T. ) ;
#525 = CARTESIAN_POINT ( 'NONE',  ( 21.00000000000000000, -45.25483399593907308, -200.0000000000000568 ) ) ;
#526 = UNCERTAINTY_MEASURE_WITH_UNIT (LENGTH_MEASURE( 1.000000000000000082E-05 ), #155, 'distance_accuracy_value', 'NONE');
#527 = ORIENTED_EDGE ( 'NONE', *, *, #512, .F. ) ;
#528 = SECURITY_CLASSIFICATION ( '', '', #522 ) ;
#529 = EDGE_CURVE ( 'NONE', #229, #314, #278, .T. ) ;
#530 = CARTESIAN_POINT ( 'NONE',  ( -21.00000000000000000, -45.25483399593907308, -200.0000000000000568 ) ) ;
#531 = ORIENTED_EDGE ( 'NONE', *, *, #538, .F. ) ;
#532 = DIRECTION ( 'NONE',  ( 0.000000000000000000, 0.000000000000000000, -1.000000000000000000 ) ) ;
#533 = ORIENTED_EDGE ( 'NONE', *, *, #42, .T. ) ;
#534 = LINE ( 'NONE', #536, #176 ) ;
#535 = CARTESIAN_POINT ( 'NONE',  ( 0.000000000000000000, 0.000000000000000000, -280.0000000000000568 ) ) ;
#536 = CARTESIAN_POINT ( 'NONE',  ( -55.11885782231924935, 20.00000000000000000, -295.7999730980483832 ) ) ;
#537 = LOCAL_TIME ( 13, 49, 18.00000000000000000, #391 ) ;
#538 = EDGE_CURVE ( 'NONE', #314, #433, #241, .T. ) ;
#539 = DIRECTION ( 'NONE',  ( 0.000000000000000000, 1.000000000000000000, -0.000000000000000000 ) ) ;
#540 = CARTESIAN_POINT ( 'NONE',  ( 21.00000000000000000, -45.25483399593907308, -202.1000000000000512 ) ) ;
#541 = DIRECTION ( 'NONE',  ( -0.000000000000000000, 1.000000000000000000, -0.000000000000000000 ) ) ;
#542 = EDGE_CURVE ( 'NONE', #556, #261, #76, .T. ) ;
#543 = DIRECTION ( 'NONE',  ( 0.000000000000000000, 0.000000000000000000, -1.000000000000000000 ) ) ;
#544 = AXIS2_PLACEMENT_3D ( 'NONE', #535, #148, #492 ) ;
#545 = CIRCLE ( 'NONE', #37, 57.06324059485717726 ) ;
#546 = DIRECTION ( 'NONE',  ( 0.000000000000000000, 0.000000000000000000, 1.000000000000000000 ) ) ;
#547 = PERSON_AND_ORGANIZATION_ROLE ( 'creator' ) ;
#548 = CARTESIAN_POINT ( 'NONE',  ( -4.163336342344337027E-14, 20.00000000000000000, -281.0309196568320544 ) ) ;
#549 = ORIENTED_EDGE ( 'NONE', *, *, #230, .F. ) ;
#550 = COORDINATED_UNIVERSAL_TIME_OFFSET ( 3, 30, .AHEAD. ) ;
#551 = CARTESIAN_POINT ( 'NONE',  ( 0.000000000000000000, -45.25483399593907308, -264.0000000000000568 ) ) ;
#552 = CC_DESIGN_APPROVAL ( #169, ( #267 ) ) ;
#553 = ORIENTED_EDGE ( 'NONE', *, *, #204, .T. ) ;
#554 = EDGE_CURVE ( 'NONE', #75, #131, #64, .T. ) ;
#555 = CARTESIAN_POINT ( 'NONE',  ( -21.00000000000000000, -45.25483399593907308, -202.1000000000000512 ) ) ;
#556 = VERTEX_POINT ( 'NONE', #499 ) ;
#557 = PERSON_AND_ORGANIZATION ( #515, #74 ) ;
#558 = PLANE ( 'NONE',  #121 ) ;
#559 = ORIENTED_EDGE ( 'NONE', *, *, #350, .F. ) ;
#560 = PERSON_AND_ORGANIZATION_ROLE ( 'creator' ) ;
#561 = CARTESIAN_POINT ( 'NONE',  ( -125.0000000000000000, 0.000000000000000000, -4.346199070024311105E-14 ) ) ;
#562 = CC_DESIGN_PERSON_AND_ORGANIZATION_ASSIGNMENT ( #508, #560, ( #223 ) ) ;
ENDSEC;
END-ISO-10303-21;
